<svg xmlns="http://www.w3.org/2000/svg" viewBox="0 0 27 27" height="27" width="27"><title>electric-car-charging-white-22.svg</title><rect fill="none" x="0" y="0" width="27" height="27"></rect><rect x="0" y="0" width="27" height="27" rx="4" ry="4" fill="#231f20"></rect><path fill="#ffffff" transform="translate(2 2)" d="M20,4V1.9c0-0.3-0.2-0.5-0.5-0.5S19,1.6,19,1.9V4h-2V1.9c0-0.3-0.2-0.5-0.5-0.5S16,1.6,16,1.9V4h-1
	c0,0,0,0.7,0,1c0,1.3,1,2.5,2.4,2.8h0.1V8l0.5,4.9v1.7l1,5.1c0,0.8-0.9,1.3-1.5,1.3C17,21,16,20.5,16,20v-8.9C16,10,15.4,9,14.4,9
	H12V1l-1-1H3L2,1v21h10V10.4h2.4c0.4,0,0.6,0.3,0.6,0.7V20c0,1.2,1.2,2,2.5,2c1.2,0,2.5-0.8,2.5-2c0-0.3-1-5.6-1-5.6v-1.5L18.5,8
	V7.8C19.9,7.5,21,6.5,21,5.1C21,4.8,21,4,21,4H20z M10,13l-6,6l2-4H4l3-6h3l-2,4H10z M10.5,5.8L9.6,6.6H4.4L3.5,5.8V2.2l0.9-0.9h5.2
	l0.9,0.9V5.8z"></path></svg>