<svg xmlns="http://www.w3.org/2000/svg" viewBox="0 0 27 27" height="27" width="27"><title>falling-rocks-white-22.svg</title><rect fill="none" x="0" y="0" width="27" height="27"></rect><rect x="0" y="0" width="27" height="27" rx="4" ry="4" fill="#231f20"></rect><path fill="#ffffff" transform="translate(2 2)" d="M9.3,2.3l1.5-0.7l-0.7-1.5L8.6,0.8L9.3,2.3z M5.4,5.2l0.8-2.5l2.5,0.8L7.8,6.1L5.4,5.2z M8.7,4.6l4.5-0.4
	l0.4,4.3l-3.3,0.4L9,7.1L8.7,4.6z M14.3,11.9l1.6,0.9l0.9-0.1l1.1-1.8v-0.1l-1.6-0.9L15.4,10L14.3,11.9L14.3,11.9z M15,14.1l2.9,0.4
	l-0.4,3l-2.1-0.3l-0.7-1.5L15,14.1z M12,14.4L4,4.8L2.3,0.5L0,0v21c0,0.6,0.4,1,1,1h15l-1.2-4.2L12,14.4 M10.9,11l0.6-0.5l-0.9-1.3
	L9.9,9.7V11H10.9z M22,22h-3.3v-1.8l1.1-1.1L22,20V22z"></path></svg>