<svg xmlns="http://www.w3.org/2000/svg" viewBox="0 0 27 27" height="27" width="27"><title>firewood-white-22.svg</title><rect fill="none" x="0" y="0" width="27" height="27"></rect><rect x="0" y="0" width="27" height="27" rx="4" ry="4" fill="#231f20"></rect><path fill="#ffffff" transform="translate(2 2)" d="M3.9,19.1c0,0,1.2,2.9,4,2.9l0.7-3.8L3.9,19.1z"></path><path fill="#ffffff" transform="translate(2 2)" d="M14.6,13.4c0,0,0,3.1,2.6,4.2l2.2-3.2L14.6,13.4z"></path><path fill="#ffffff" transform="translate(2 2)" d="M10.4,17.7l0.2,4.1c0,0,3.8,0.8,4.7-3.3L10.4,17.7z"></path><path fill="#ffffff" transform="translate(2 2)" d="M13.9,16.6l-3.3-3.5c0,0-2.3,1.4-1.9,3.2L13.9,16.6z"></path><path fill="#ffffff" transform="translate(2 2)" d="M11.9,12l5.2,0.2c0,0,0.3-2.5-1.3-3.7L11.9,12z"></path><path fill="#ffffff" transform="translate(2 2)" d="M20.6,21.9c0,0,1.2-3.4-1.6-4.4L15.7,21L20.6,21.9z"></path><path fill="#ffffff" transform="translate(2 2)" d="M8.7,1.8L10.2,0l5.3,4.9c0,0-1.7,2.3-3.9,2.4l-0.4-2.8c0,0,0-0.4-0.5-0.8C10.3,3.2,8.7,1.8,8.7,1.8z"></path><path fill="#ffffff" transform="translate(2 2)" d="M10.2,4.3L9,3.2L8.6,2.8c0,0-0.5,0.6-0.7,0.8C7.6,3.8,7.4,3.9,7.4,4.2C7.4,4.5,7.3,5,7,5.4
	C5.5,7.1,4.1,8.6,3.3,9.5c-0.8,0.7-1.9,2.4-2.1,2.9C0.9,12.9,1.3,13,1.3,13s0.9,0.4,1.2,0.5s0.7,0,0.8-0.6c0.1-0.5,0.4-1.2,0.5-1.5
	c0.2-0.3,0.5-0.6,0.7-0.9C5.8,9.1,10.2,4.3,10.2,4.3z"></path></svg>