<svg xmlns="http://www.w3.org/2000/svg" viewBox="0 0 27 27" height="27" width="27"><title>fire-extinguisher-white-22.svg</title><rect fill="none" x="0" y="0" width="27" height="27"></rect><rect x="0" y="0" width="27" height="27" rx="4" ry="4" fill="#231f20"></rect><path fill="#ffffff" transform="translate(2 2)" d="M7.5,3.7C5.8,4.1,4.8,5,4.3,5.7C3.8,6.5,2.8,5.9,3.2,5.1c0.3-0.8,2-2,3-2.4c-0.3-0.1-0.5-0.5-0.5-1
	c0-1,0.8-1.7,1.7-1.7s1.5,0.7,1.5,1.3h0.7v0.9h2.6L19,1v4l-6.9-1.4H9.6v1.3C10.3,5,12,5.8,12,8v13c0,0.3-0.4,1-1,1H6
	c-0.6,0-1-0.7-1-1V8c0-2.2,1.8-3,2.5-3.1V3.7z M7.3,2.3C7.7,2.3,8,2,8,1.6S7.7,0.9,7.3,0.9c-0.4,0-0.7,0.3-0.7,0.7
	C6.6,2,6.9,2.3,7.3,2.3z"></path></svg>