<svg xmlns="http://www.w3.org/2000/svg" viewBox="0 0 27 27" height="27" width="27"><title>fish-hatchery-white-22.svg</title><rect fill="none" x="0" y="0" width="27" height="27"></rect><rect x="0" y="0" width="27" height="27" rx="4" ry="4" fill="#231f20"></rect><path fill="#ffffff" transform="translate(2 2)" d="M1.3,13.5L1.3,13.5L1.3,13.5L1.3,13.5l1-0.1c0,0,0.1,0,0.1-0.1v-0.1l-0.8-0.4l0,0l0,0l0,0c0,0,2.2-2,7.1-0.1
	l1.4-0.7l0,0c0.1,0,0.1,0,0.1,0.1c0,0,0,0,0,0.1l-0.8,1l0.8,1c0,0,0,0,0,0.1s0,0.1-0.1,0.1l0,0l-1.4-0.7C8.5,13.7,3.8,15.6,1.3,13.5
	z M2.9,13.3c0.2,0,0.4-0.2,0.4-0.4s-0.2-0.4-0.4-0.4s-0.4,0.2-0.4,0.4S2.7,13.3,2.9,13.3z"></path><path fill="#ffffff" transform="translate(2 2)" d="M12.3,13.5L12.3,13.5L12.3,13.5L12.3,13.5l1-0.1c0,0,0.1,0,0.1-0.1c0,0,0-0.1-0.1-0.1l-0.8-0.4l0,0l0,0l0,0
	c0,0,2.2-2,7.2-0.1L21,12l0,0c0.1,0,0.1,0,0.1,0.1c0,0,0,0,0,0.1l-0.8,1l0.8,1c0,0,0,0,0,0.1s0,0.1-0.1,0.1l0,0l-1.3-0.7
	C19.6,13.7,14.9,15.6,12.3,13.5z M14,13.3c0.2,0,0.4-0.2,0.4-0.4s-0.2-0.4-0.4-0.4s-0.4,0.2-0.4,0.4C13.5,13.1,13.7,13.3,14,13.3z"></path><path fill="#ffffff" transform="translate(2 2)" d="M7.2,17.7L7.2,17.7C7.2,17.6,7.2,17.6,7.2,17.7C7.2,17.6,7.2,17.6,7.2,17.7l1-0.1c0,0,0.1,0,0.1-0.1
	c0,0,0-0.1-0.1-0.1L7.3,17l0,0l0,0l0,0c0,0,2.2-2,7.2-0.1l1.3-0.7l0,0c0.1,0,0.1,0,0.1,0.1c0,0,0,0,0,0.1l-0.8,1l0.8,1
	c0,0,0,0,0,0.1s0,0.1-0.1,0.1l0,0l-1.3-0.7C14.5,17.9,9.8,19.7,7.2,17.7z M8.9,17.4c0.2,0,0.4-0.2,0.4-0.4c0-0.2-0.2-0.4-0.4-0.4
	S8.5,16.8,8.5,17C8.4,17.2,8.6,17.4,8.9,17.4z"></path><path fill="#ffffff" transform="translate(2 2)" d="M20,6.7l2-2.5V4.1c0-0.1-0.1-0.3-0.3-0.3h-0.1l-3.4,1.7C5.9,0.7,0.4,5.6,0.4,5.6v0.1c0,0.1,0,0.1,0.1,0.1
	l2.1,1c0.1,0,0.1,0.1,0.1,0.2S2.6,7.2,2.5,7.2H0.1c0,0-0.1,0-0.1,0.1c0,0,0,0,0,0.1c6.4,5.2,18.2,0.5,18.2,0.5l3.4,1.7h0.1
	c0.1,0,0.3-0.1,0.3-0.3c0-0.1,0-0.1,0-0.1L20,6.7z M4,7C3.4,7,3,6.6,3,6s0.4-1,1-1s1,0.4,1,1S4.6,7,4,7z"></path></svg>