<svg xmlns="http://www.w3.org/2000/svg" viewBox="0 0 27 27" height="27" width="27"><title>fish-ladder-white-22.svg</title><rect fill="none" x="0" y="0" width="27" height="27"></rect><rect x="0" y="0" width="27" height="27" rx="4" ry="4" fill="#231f20"></rect><path fill="#ffffff" transform="translate(2 2)" d="M3.5,5.8c0.6,0,1.1,0.5,1.1,1.1v1.6c0,1.7,1.4,3.2,3.2,3.2h2.7c0.6,0,1.1,0.5,1.1,1.1v1.6
	c0,1.7,1.4,3.2,3.2,3.2h2.7c0.6,0,1.1,0.5,1.1,1.1v3.1h2v-3.1c0-1.7-1.4-3.2-3.2-3.2h-2.7c-0.6,0-1.1-0.5-1.1-1.1v-1.6
	c0-1.7-1.4-3.2-3.2-3.2H7.8c-0.6,0-1.1-0.5-1.1-1.1V6.9c0-1.7-1.4-3.2-3.2-3.2H0v2L3.5,5.8z"></path><path fill="#ffffff" transform="translate(2 2)" d="M8.7,0.7c0,0-0.1-0.1-0.1-0.2s0.1-0.2,0.2-0.2c0.7-0.2,3.9-1,7.9,2L18.3,2l1.6,2.2l-1.1,0.2
	c1.6,2.4,1.6,5.4,1.4,6.6l1.7,2.7v0.1c0,0.1-0.1,0.2-0.2,0.2h-0.1l-2.3-1L17,14h-0.1c-0.1,0-0.2-0.1-0.2-0.2v-0.1l1.7-2.7
	c0-2.9-3.3-4.2-4.1-4.5c-1.7-0.5-5.6-3-6.4-5V1.4c0-0.1,0.1-0.2,0.2-0.2s0.1,0,0.2,0.1L9.4,2h0.1c0.1,0,0.1-0.1,0.1-0.1
	s0-0.1-0.1-0.1L8.7,0.7z"></path></svg>