<svg xmlns="http://www.w3.org/2000/svg" viewBox="0 0 27 27" height="27" width="27"><title>floating-dump-station-white-22.svg</title><rect fill="none" x="0" y="0" width="27" height="27"></rect><rect x="0" y="0" width="27" height="27" rx="4" ry="4" fill="#231f20"></rect><path fill="#ffffff" transform="translate(2 2)" d="M22,20c-0.5,0-0.9-0.2-1.4-0.4c-0.4-0.2-0.9-0.6-1.4-0.6s-1,0.4-1.4,0.6C17.4,19.8,17,20,16.5,20
	s-0.9-0.2-1.4-0.4c-0.4-0.2-0.9-0.6-1.4-0.6s-1,0.4-1.4,0.6C11.9,19.8,11.5,20,11,20s-0.9-0.2-1.4-0.4C9.2,19.4,8.7,19,8.3,19
	c-0.5,0-1,0.4-1.4,0.6C6.4,19.8,6,20,5.5,20s-0.9-0.2-1.4-0.4C3.7,19.4,3.2,19,2.7,19s-1,0.4-1.4,0.6C0.9,19.8,0.5,20,0,20v-2
	c0.5,0,0.9-0.3,1.4-0.5C1.8,17.4,2.3,17,2.7,17c0.5,0,1,0.4,1.4,0.5C4.6,17.7,5,18,5.5,18s0.9-0.3,1.4-0.5C7.3,17.4,7.8,17,8.3,17
	s1,0.4,1.4,0.5c0.4,0.2,0.9,0.5,1.4,0.5s0.9-0.3,1.4-0.5c0.4-0.2,0.9-0.5,1.4-0.5s1,0.4,1.4,0.5c0.4,0.2,0.9,0.5,1.4,0.5
	s0.9-0.3,1.4-0.5c0.4-0.2,0.9-0.5,1.4-0.5s1,0.4,1.4,0.5c0.4,0.2,0.6,0.5,1.1,0.5V20z M12,9V2h-2v7H8l3,3l3-3H12z M13,6v1h4v6H5V7h4
	V6H3v1v6v2l0,0c0.4,0.1,0.8,0.3,1.1,0.5C4.6,15.7,5,16,5.5,16s0.9-0.3,1.4-0.5C7.3,15.4,7.8,15,8.3,15s1,0.4,1.4,0.5
	c0.4,0.2,0.9,0.5,1.4,0.5s0.9-0.3,1.4-0.5c0.4-0.2,0.9-0.5,1.4-0.5s1,0.4,1.4,0.5c0.4,0.2,0.9,0.5,1.4,0.5s0.9-0.3,1.4-0.5
	c0.4-0.2,0.7-0.4,1.1-0.5l0,0v-2V7V6H13z"></path></svg>