<svg xmlns="http://www.w3.org/2000/svg" viewBox="0 0 27 27" height="27" width="27"><title>flower-viewing-white-22.svg</title><rect fill="none" x="0" y="0" width="27" height="27"></rect><rect x="0" y="0" width="27" height="27" rx="4" ry="4" fill="#231f20"></rect><path fill="#ffffff" transform="translate(2 2)" d="M18.1,11.9L18.1,11.9L14.6,11l3.2-0.7H18c0,0,3.5-0.7,3-3.4c0-0.5-0.1-0.9-0.4-1.3c-2.1-3.8-5.2-0.2-5.2-0.2
	l-0.1,0.1l-2.4,2.4l1-3.4c0,0,1.4-4.4-2.8-4.5c0,0,0,0-0.1,0l0,0C6.7-0.1,8.2,4.4,8.2,4.4l0.9,3.5L6.8,5.3H6.7c0,0-1.7-1.9-3.5-1.4
	C2.6,4.1,2,4.5,1.5,5.4C-0.7,9.1,3.9,10,3.9,10l0,0l3.4,1l-3.2,0.7H3.9c0,0-3.5,0.7-3,3.4C1,15.6,1.1,16,1.4,16.4
	c2.1,3.8,5.2,0.2,5.2,0.2l0.1-0.1l2.4-2.4l-1,3.4c0,0-1.4,4.4,2.8,4.5c0,0,0,0,0.1,0l0,0c4.3,0.1,2.8-4.4,2.8-4.4l-0.9-3.5l2.4,2.5
	l0.1,0.1c0,0,1.5,1.6,3.1,1.5c0.7-0.1,1.5-0.5,2.2-1.6C22.8,12.9,18.1,11.9,18.1,11.9z M11,13.4c-1.3,0-2.4-1.1-2.4-2.4
	S9.7,8.6,11,8.6s2.4,1.1,2.4,2.4S12.3,13.4,11,13.4z"></path></svg>