<svg xmlns="http://www.w3.org/2000/svg" viewBox="0 0 27 27" height="27" width="27"><title>food-cache-white-22.svg</title><rect fill="none" x="0" y="0" width="27" height="27"></rect><rect x="0" y="0" width="27" height="27" rx="4" ry="4" fill="#231f20"></rect><path fill="#ffffff" transform="translate(2 2)" d="M14,6c0,0-0.8,3-4,3C10,9,9.8,6.9,14,6z"></path><path fill="#ffffff" transform="translate(2 2)" d="M11,11.3c0.5-0.5,1.3-0.9,2.1-0.9c1.6,0,2.9,1.3,2.9,3v0.2l0,0c-0.1,0.6-0.3,1.4-0.7,2.4
	c0,0-0.8,1.6-1.5,2.3l-0.1,0.1c-0.3,0.3-0.8,0.5-1.3,0.5c-0.6,0-1.1-0.5-1.5-1c-0.3,0.5-0.9,1-1.4,1s-0.9-0.2-1.3-0.5l-0.1-0.1
	C7.4,17.6,6.6,16,6.6,16c-0.5-1-0.7-1.8-0.7-2.4l0,0v-0.2c0-1.7,1.3-3,2.9-3C9.7,10.5,10.5,10.8,11,11.3"></path><path fill="#ffffff" transform="translate(2 2)" d="M20,6v14H2V6.9l19.8-5L21.3,0L0,5.3L0.2,6H0v14v0.5V22h22v-1.5V20V6H20z"></path></svg>