<svg xmlns="http://www.w3.org/2000/svg" viewBox="0 0 27 27" height="27" width="27"><title>four-wheel-drive-road-white-22.svg</title><rect fill="none" x="0" y="0" width="27" height="27"></rect><rect x="0" y="0" width="27" height="27" rx="4" ry="4" fill="#231f20"></rect><path fill="#ffffff" transform="translate(2 2)" d="M21,11V8h-6l-2-3h-1l2,3l-2,2H9L7,8H0v6h1h1v-2l1-1h4l1,1v2h1h4h1v-2l1-1h4l1,1v2h1h1v-2L21,11z"></path><path fill="#ffffff" transform="translate(2 2)" d="M5,12c-1.1,0-2,0.9-2,2s0.9,2,2,2s2-0.9,2-2S6.1,12,5,12z M6,14.4C6,14.7,5.7,15,5.4,15H4.6
	C4.3,15,4,14.7,4,14.4v-0.9C4,13.3,4.3,13,4.6,13h0.9C5.7,13,6,13.3,6,13.6V14.4z"></path><path fill="#ffffff" transform="translate(2 2)" d="M17,12c-1.1,0-2,0.9-2,2s0.9,2,2,2s2-0.9,2-2S18.1,12,17,12z M18,14.4c0,0.3-0.3,0.6-0.6,0.6h-0.9
	c-0.3,0-0.6-0.3-0.6-0.6v-0.9c0-0.3,0.3-0.6,0.6-0.6h0.9c0.3,0,0.6,0.3,0.6,0.6V14.4z"></path></svg>