<svg xmlns="http://www.w3.org/2000/svg" viewBox="0 0 27 27" height="27" width="27"><title>gasoline-diesel-white-22.svg</title><rect fill="none" x="0" y="0" width="27" height="27"></rect><rect x="0" y="0" width="27" height="27" rx="4" ry="4" fill="#231f20"></rect><path fill="#ffffff" transform="translate(2 2)" d="M7.7,11.4c-0.1-0.2-0.2-0.4-0.4-0.6s-0.5-0.2-0.8-0.2H6v5.6h0.5c0.3,0,0.5-0.1,0.7-0.2s0.3-0.3,0.4-0.5
	s0.2-0.6,0.2-0.9s0.1-0.4,0.1-1c0-0.5,0-0.9,0-1.3C7.9,12,7.8,11.7,7.7,11.4z"></path><path fill="#ffffff" transform="translate(2 2)" d="M19,14.4v-1.5V6.2c0-0.7-0.4-1.3-0.9-1.8L15,1.5c-0.2,0-0.8,0.4-0.8,0.4c0,0.2,1.5,1.8,1.5,1.8v2.6
	c0,0.9,0.8,1.8,1.7,1.8L18,7.9v5v1.7l1,5.1c0,0.8-0.9,1.3-1.5,1.3C17,21,16,20.5,16,20v-8.9C16,10,15.4,9,14.4,9H12V1h-1V0H3v1H2v21
	h10V10.4h2.4c0.4,0,0.6,0.3,0.6,0.7V20c0,1.2,1.2,2,2.5,2c1.2,0,2.5-0.8,2.5-2C20,19.7,19,14.4,19,14.4z M18,7h-1V5h1V7z M9.9,15.6
	c-0.1,0.6-0.3,1-0.5,1.4s-0.5,0.6-0.9,0.8S7.6,18,7.1,18H4V9h3.2c0.6,0,1.1,0.1,1.5,0.3s0.7,0.5,0.9,0.8s0.3,0.8,0.4,1.3
	c0,0.5,0,1.6,0,2.2C10,14.3,10,15,9.9,15.6z M10.5,5.8L9.6,6.6H4.4L3.5,5.8V2.2l0.9-0.9h5.2l0.9,0.9V5.8z"></path></svg>