<svg xmlns="http://www.w3.org/2000/svg" viewBox="0 0 27 27" height="27" width="27"><title>generators-white-22.svg</title><rect fill="none" x="0" y="0" width="27" height="27"></rect><rect x="0" y="0" width="27" height="27" rx="4" ry="4" fill="#231f20"></rect><path fill="#ffffff" transform="translate(2 2)" d="M0,2v11.7c0.8-1,2.1-1.7,3.5-1.7c2,0,3.6,1.3,4.2,3H17v5h2v-5h3V2H0z M18,7l-6,6l2-4h-2l3-6h3l-2,4H18z"></path><path fill="#ffffff" transform="translate(2 2)" d="M3.5,13C1.6,13,0,14.6,0,16.5S1.6,20,3.5,20S7,18.4,7,16.5S5.4,13,3.5,13z M3.5,18.5c-1.1,0-2-0.9-2-2
	s0.9-2,2-2s2,0.9,2,2S4.6,18.5,3.5,18.5z"></path></svg>