<?xml version="1.0" encoding="utf-8"?>
<!-- Generator: Adobe Illustrator 24.3.0, SVG Export Plug-In . SVG Version: 6.00 Build 0)  -->
<svg version="1.1" id="Layer_1" xmlns="http://www.w3.org/2000/svg" xmlns:xlink="http://www.w3.org/1999/xlink" x="0px" y="0px"
	 width="27px" height="27px" viewBox="0 0 27 27" enable-background="new 0 0 27 27" xml:space="preserve">
<path fill="#231F20" d="M4,0h19c2.2,0,4,1.8,4,4v19c0,2.2-1.8,4-4,4H4c-2.2,0-4-1.8-4-4V4C0,1.8,1.8,0,4,0z"/>
<path fill="#FFFFFF" d="M15.7,22.2c-0.8,0-1.3-0.5-1.3-1.2c0-0.3,0.1-0.8,0.3-1.5l1.8-5.5c0.1-0.4,0.4-1.1,0.4-1.3
	c0-0.5-0.2-0.7-0.5-0.7c-1,0-2.4,1.6-3.5,3.1c-1.3,1.8-2.4,3.7-3,5.7l-0.5,1.3c-0.2,0.1-0.6,0.1-1.1,0.1c-0.4,0-0.8-0.1-1-0.1
	l4.1-14.9c0-0.1,0.1-0.5,0.1-0.7c0-0.6-0.6-0.8-1.5-0.8l0.2-0.8c1.2,0,2.9-0.4,4-0.8l0.4,0.3l-3.5,12l0.1,0c1.7-3.2,4.6-6.2,6.8-6.2
	c1,0,1.5,0.6,1.5,1.5c0,0.6-0.2,1.4-0.4,2.1l-1.8,5c-0.1,0.3-0.3,0.9-0.3,1.1c0,0.4,0.1,0.6,0.4,0.6c0.5,0,1.5-1.1,2.1-1.9l0.5,0.4
	C18.9,20.6,17.3,22.2,15.7,22.2z"/>
</svg>
