<svg xmlns="http://www.w3.org/2000/svg" viewBox="0 0 26 26" height="26" width="26"><title>hunting-white-22.svg</title><rect fill="none" x="0" y="0" width="26" height="26"></rect><rect x="0" y="0" width="26" height="26" rx="4" ry="4" fill="#231f20"></rect><path fill="#ffffff" transform="translate(2 2)" d="M9,6h6v1H9V6z"></path><path fill="#ffffff" transform="translate(2 2)" d="M7.7,9.6L5.6,9.5c-0.8,0-0.8-0.7-0.8-0.7H0V7.6h0.5c0,0,0.1,0,0.1,0.1L0.7,8H15c0.2,0,0.3,0.1,0.4,0.2
	L16.3,9h4.3c1.6,0.1,1.4,2,1.4,2v8h-6.8v-5.6l-1.6,0.7c-0.9,0.6-1.4,0.1-1.4,0.1L8,10.8C7.3,10.2,7.6,9.5,7.7,9.6L7.7,9.6z
	 M10.3,9.7l2.3,1.9l2-0.9c-0.8-0.1-0.7-0.9-0.7-0.9L10.3,9.7z"></path><path fill="#ffffff" transform="translate(2 2)" d="M18.5,3C19.9,3,21,4.1,21,5.5S19.9,8,18.5,8S16,6.9,16,5.5S17.1,3,18.5,3z"></path></svg>