<svg xmlns="http://www.w3.org/2000/svg" viewBox="0 0 27 27" height="27" width="27"><title>ice-white-22.svg</title><rect fill="none" x="0" y="0" width="27" height="27"></rect><rect x="0" y="0" width="27" height="27" rx="4" ry="4" fill="#231f20"></rect><path fill="#ffffff" transform="translate(2 2)" d="M21.5,13.2h-21L1.3,19l1.2-2.8L4,15.4L5.5,22L7,15.5l1.3,1.1L9,19.3c0,0,1.1-3.9,1.1-3.7s1.8-0.4,1.8-0.4
	l1.6,5.6l1.7-5.8l1.5,2.4l1.4-2.9l1.6,4.4L21.5,13.2z"></path><path fill="#ffffff" transform="translate(2 2)" d="M2.8,0.2v9.9H0.6V0.2H2.8z"></path><path fill="#ffffff" transform="translate(2 2)" d="M12.7,9.8c-0.4,0.2-1.3,0.4-2.5,0.4c-3.4,0-5.2-2.1-5.2-5C5,1.9,7.4,0,10.4,0c1.2,0,2,0.2,2.4,0.4l-0.5,1.8
		c-0.5-0.2-1.1-0.4-1.9-0.4c-1.8,0-3.2,1.1-3.2,3.3c0,2,1.2,3.2,3.2,3.2c0.7,0,1.4-0.1,1.9-0.3L12.7,9.8z"></path><path fill="#ffffff" transform="translate(2 2)" d="M20.7,5.9h-3.6v2.4h4.1v1.8h-6.3V0.2H21V2h-3.9v2.1h3.6V5.9z"></path></svg>