<svg xmlns="http://www.w3.org/2000/svg" viewBox="0 0 27 27" height="27" width="27"><title>ice-fishing-white-22.svg</title><rect fill="none" x="0" y="0" width="27" height="27"></rect><rect x="0" y="0" width="27" height="27" rx="4" ry="4" fill="#231f20"></rect><path fill="#ffffff" transform="translate(2 2)" d="M0,0h3v3H0V0z"></path><path fill="#ffffff" transform="translate(2 2)" d="M8,0h14v3H8V0z"></path><path fill="#ffffff" transform="translate(2 2)" d="M5.2,4.8C4.9,5,4.6,5.3,4.6,5.7c0,0.4,0.3,0.7,0.6,0.8v5.4c0,0.7-0.6,1.3-1.3,1.3s-1.3-0.6-1.3-1.3
	c0-0.2,0-0.3,0.1-0.5h0.1l0.4,0.4L3,9.4l-0.7,1.7c-0.2,0.5-0.2,0.8-0.2,0.8c0,1,0.8,1.8,1.8,1.8s1.8-0.8,1.8-1.8V6.5
	C6.1,6.4,6.4,6,6.4,5.7c0-0.4-0.2-0.7-0.6-0.8V0H5.2V4.8z"></path><path fill="#ffffff" transform="translate(2 2)" d="M7.5,14.3c0,0-0.1,0.1-0.1,0.2c0,0.1,0,0.2,0.1,0.2l3.7,1.8c0.2,0.1,0.2,0.2,0.2,0.3c0,0.2-0.2,0.4-0.4,0.4
	H6.9c-0.1,0-0.1,0.1-0.1,0.1v0.1c4.2,3.3,10,4.7,15.2,4.6V10.4C12.3,10.3,7.5,14.3,7.5,14.3z M13.4,16.5c-0.9,0-1.6-0.7-1.6-1.6
	c0-0.9,0.7-1.6,1.6-1.6c0.9,0,1.6,0.7,1.6,1.6C14.9,15.8,14.2,16.5,13.4,16.5z"></path></svg>