<svg xmlns="http://www.w3.org/2000/svg" viewBox="0 0 27 27" height="27" width="27"><title>ice-skating-white-22.svg</title><rect fill="none" x="0" y="0" width="27" height="27"></rect><rect x="0" y="0" width="27" height="27" rx="4" ry="4" fill="#231f20"></rect><path fill="#ffffff" transform="translate(2 2)" d="M18,6.1L14,10v1l3,3v5l-1.5,1L14,19v-5l-4-3.9V9l4-4H6L5,4l1-1h10l2,2V6.1z M19,0c-1.1,0-2,0.9-2,2
	s0.9,2,2,2s2-0.9,2-2S20.1,0,19,0z M13,21v1h7v-2h-1v1H13z M6,22v-1H4l-4-4v2l3,3H6z M3,19l1,1l7-7l-1-1H8l-5,5V19z"></path></svg>