<svg xmlns="http://www.w3.org/2000/svg" viewBox="0 0 27 27" height="27" width="27"><title>kennel-white-22.svg</title><rect fill="none" x="0" y="0" width="27" height="27"></rect><rect x="0" y="0" width="27" height="27" rx="4" ry="4" fill="#231f20"></rect><path fill="#ffffff" transform="translate(2 2)" d="M2.2,21.6H22v-2.1H4.3v-8.9l17.7-8V0.4l-22,10v2.1l2.2-1V21.6z M12.3,14.6h3.1v2.8c0,0.5,0.4,0.8,0.8,0.8
	l0,0c0.5,0,0.8-0.4,0.8-0.8v-2.8c0.2,0,0.3-0.2,0.3-0.3v-2.1l-2.6-1.3H9.2l-0.7-0.4c-0.2-0.1-0.5,0-0.6,0.2l0,0
	c-0.1,0.2,0,0.5,0.2,0.7L9.2,12v5.4c0,0.5,0.4,0.8,0.8,0.8l0,0c0.5,0,0.8-0.4,0.8-0.8v-2.1l1.5,2.5c0.2,0.4,0.7,0.5,1.1,0.3l0,0
	c0.4-0.2,0.5-0.7,0.3-1.1L12.3,14.6z M15,10.3l2.4,1.1V11h1.9L20,9.5l-5-2.4V10.3z"></path></svg>