<svg xmlns="http://www.w3.org/2000/svg" viewBox="0 0 27 27" height="27" width="27"><title>laundry-white-22.svg</title><rect fill="none" x="0" y="0" width="27" height="27"></rect><rect x="0" y="0" width="27" height="27" rx="4" ry="4" fill="#231f20"></rect><path fill="#ffffff" transform="translate(2 2)" d="M3,0v4h16V0H3z M6,3H4V1h2V3z M10,3H8V1h2V3z"></path><path fill="#ffffff" transform="translate(2 2)" d="M3,5v17h16V5H3z M11,19c-3.3,0-6-2.7-6-6s2.7-6,6-6s6,2.7,6,6S14.3,19,11,19z"></path><path fill="#ffffff" transform="translate(2 2)" d="M6.5,11c-0.6-0.4-0.4,1.3-0.4,2c0,2.7,2.2,4.9,4.9,4.9s4.9-2.2,4.9-4.9c0-0.7,0.1-1.6-0.4-2C10.2,6.7,11.9,14.7,6.5,11z"></path></svg>