<svg xmlns="http://www.w3.org/2000/svg" viewBox="0 0 27 27" height="27" width="27"><title>lifeguard-white-22.svg</title><rect fill="none" x="0" y="0" width="27" height="27"></rect><rect x="0" y="0" width="27" height="27" rx="4" ry="4" fill="#231f20"></rect><path fill="#ffffff" transform="translate(2 2)" d="M21.4,22c-0.5,0-0.9-0.1-1.3-0.3c-0.4-0.2-0.9-0.8-1.3-0.8c-0.5,0-0.9,0.6-1.3,0.8c-0.4,0.2-0.8,0.3-1.3,0.3
	s-0.9-0.1-1.3-0.3c-0.4-0.2-0.9-0.8-1.3-0.8c-0.5,0-0.9,0.6-1.3,0.8C11.9,21.9,11.5,22,11,22s-0.9-0.1-1.3-0.3
	C9.3,21.5,8.9,21,8.4,21s-0.9,0.6-1.3,0.8C6.7,21.9,6.2,22,5.8,22c-0.5,0-0.9-0.1-1.3-0.3C4.1,21.5,3.6,21,3.2,21
	c-0.5,0-0.9,0.6-1.3,0.8C1.5,21.9,1,22,0.6,22v-1.9c0.5,0,0.9-0.1,1.3-0.3C2.2,19.6,2.7,19,3.2,19s0.9,0.6,1.3,0.8
	c0.4,0.2,0.8,0.3,1.3,0.3s0.9-0.1,1.3-0.3C7.5,19.6,7.9,19,8.4,19s0.9,0.6,1.3,0.8c0.4,0.2,0.8,0.3,1.3,0.3s0.9-0.1,1.3-0.3
	c0.4-0.2,0.9-0.8,1.3-0.8c0.5,0,0.9,0.6,1.3,0.8c0.4,0.2,0.8,0.3,1.3,0.3s0.9-0.1,1.3-0.3c0.4-0.2,0.9-0.8,1.3-0.8
	c0.5,0,0.9,0.6,1.3,0.8c0.4,0.2,0.8,0.3,1.3,0.3C21.4,20.1,21.4,22,21.4,22z"></path><path fill="#ffffff" transform="translate(2 2)" d="M10.5,2.6c0.7,0,1.3-0.6,1.3-1.3S11.2,0,10.5,0S9.2,0.6,9.2,1.3S9.8,2.6,10.5,2.6z"></path><path fill="#ffffff" transform="translate(2 2)" d="M15,18.5h1.2L14.8,13l0,0c0.1,0,0.2,0,0.3,0c0.7-0.2,1.1-0.9,1-1.6l-0.8-3.2c-0.1-0.6-0.7-1-1.3-1h-2.1V4.4
	c0-0.7-0.7-1.3-1.4-1.3S9.1,3.7,9.1,4.4v4.1c0,0.1,0,0.1,0,0.2H8.3l0,0L7.5,3.9C7.4,3.6,7.1,3.4,6.8,3.4C6.4,3.5,6.2,3.8,6.3,4.1
	l0.9,5.3C7.3,9.8,7.5,10,7.8,10H8l-2.2,8.6H7L7.7,16h6.6L15,18.5z M12.8,10l0.5,2.1H8.7L9.2,10H12.8z M7.9,15l0.5-2h5.1l0.5,2H7.9z"></path></svg>