<svg xmlns="http://www.w3.org/2000/svg" viewBox="0 0 27 27" height="27" width="27"><title>live-audio-description-white-22.svg</title><rect fill="none" x="0" y="0" width="27" height="27"></rect><rect x="0" y="0" width="27" height="27" rx="4" ry="4" fill="#231f20"></rect><path fill="#ffffff" transform="translate(2 2)" d="M11.2,5H10H9.2L5,12l0,0l0,0l-3,5h2l1.8-3H10v3h2v-3v-2V5H11.2z M7,12l3-5v5H7z"></path><path fill="#ffffff" transform="translate(2 2)" d="M18,11V6.5c-0.3-0.3-0.6-0.5-1-0.7v2.6C17.6,9.1,18,10,18,11z"></path><path fill="#ffffff" transform="translate(2 2)" d="M15,14.9V17c0.3-0.1,0.7-0.1,1-0.3v-2.2C15.7,14.6,15.4,14.8,15,14.9z"></path><path fill="#ffffff" transform="translate(2 2)" d="M20,11c0-1.2-0.4-2.4-1-3.3v6.6C19.6,13.4,20,12.2,20,11z"></path><path fill="#ffffff" transform="translate(2 2)" d="M16,7.6V5.3c-0.3-0.1-0.7-0.2-1-0.3v2.1C15.4,7.2,15.7,7.4,16,7.6z"></path><path fill="#ffffff" transform="translate(2 2)" d="M17,13.6v2.6c0.4-0.2,0.7-0.5,1-0.7V11C18,12,17.6,12.9,17,13.6z"></path><path fill="#ffffff" transform="translate(2 2)" d="M13,5h1v2h-1V5z"></path><path fill="#ffffff" transform="translate(2 2)" d="M13,15h1v2h-1V15z"></path></svg>