<svg xmlns="http://www.w3.org/2000/svg" viewBox="0 0 27 27" height="27" width="27"><title>maps-white-22.svg</title><rect fill="none" x="0" y="0" width="27" height="27"></rect><rect x="0" y="0" width="27" height="27" rx="4" ry="4" fill="#231f20"></rect><path fill="#ffffff" transform="translate(2 2)" d="M8.4,4.2c0.5-0.3,1-0.5,1.6-0.6V0L0,3.1V22l10-3V4.9C9.7,5,9.4,5.1,9.1,5.3L8.4,4.2z M1.2,13.6v-1.2
	c0,0,0.8,0,1.6-0.4l0.5,1C2.2,13.6,1.2,13.6,1.2,13.6z M4.3,12.4l-0.8-1c0.4-0.3,0.8-0.8,1.1-1.3l1.1,0.6C5.3,11.4,4.8,12,4.3,12.4z
	 M6.1,9.8L5,9.3C5.2,8.6,5.5,8,5.7,7.5L6.8,8C6.6,8.5,6.4,9.1,6.1,9.8z M7.3,7.2L6.2,6.5C6.6,5.8,7,5.3,7.5,4.8l0.8,0.9
	C8,6.1,7.6,6.6,7.3,7.2z"></path><path fill="#ffffff" transform="translate(2 2)" d="M11,0v18.9L22,22V3.1L11,0z M18.7,10.8c0,0.2,0,0.5-0.1,0.7l-1.2-0.2c0-0.1,0-0.3,0-0.4
	c0-0.4-0.1-0.8-0.2-1.3l1.2-0.3C18.7,9.8,18.7,10.3,18.7,10.8z M18.2,8.2l-1.1,0.5c-0.2-0.6-0.5-1.1-0.9-1.6l1-0.7
	C17.6,6.9,17.9,7.6,18.2,8.2z M13.3,5.1c-0.5-0.2-1.1-0.3-1.8-0.3l0.1-1.2c0.7,0,1.4,0.2,2.1,0.4L13.3,5.1z M14.7,4.3
	c0.6,0.3,1.2,0.7,1.8,1.2l-0.9,0.9c-0.4-0.4-0.9-0.8-1.4-1L14.7,4.3z M18.4,17.3l-0.7-1.6l-0.8,1.1l-1.6-0.6l1.4-1.7L15.3,12
	l1.8,0.6l0.6,1.4l0.7-0.9l1.6,0.6l-1.3,1.5l1.4,2.7L18.4,17.3z"></path></svg>