<svg xmlns="http://www.w3.org/2000/svg" viewBox="0 0 27 27" height="27" width="27"><title>metal-detecting-white-22.svg</title><rect fill="none" x="0" y="0" width="27" height="27"></rect><rect x="0" y="0" width="27" height="27" rx="4" ry="4" fill="#231f20"></rect><path fill="#ffffff" transform="translate(2 2)" d="M22,10.2c0,0-3-0.2-4.4-0.1c-0.1,0-0.5,0.2-0.6,0.2c-1.2,0.1-2-0.1-3.1,0.1c-1.7,0.3-3.5-0.1-5.3,0.1
	c-1.6,0.1-3.4,0-5.1,0.1C2.6,10,1.2,10.3,0,10.3V12h22V10.2z"></path><path fill="#ffffff" transform="translate(2 2)" d="M18.9,0.9l-4.2,3.5l-4.2,3.1c0,0-0.4,0-1.2,0c-0.7,0-1.8,0-3.1,0
	C6,7.5,5.7,8,5.7,8.4C5.7,8.9,6,9,6.1,9c2.6,0,5.2,0,7.2,0s3.3,0,3.3,0c0.2,0,0.5-0.1,0.5-0.6s-0.3-0.9-0.5-0.9h-1.9h-1.9l3.6-2.6
	l3.6-3c0-0.1-0.3-0.4-0.5-0.6S19,0.9,18.9,0.9z"></path><path fill="#ffffff" transform="translate(2 2)" d="M17.5,13h-0.1c-5,2.9-10.9,0.6-12,0.1l0,0l0,0l0,0H5.3v0.1
	c7.2,4.8,12.1,0,12.2-0.1C17.5,13.1,17.5,13.1,17.5,13z"></path><path fill="#ffffff" transform="translate(2 2)" d="M15.5,16.8C15.5,16.7,15.4,16.7,15.5,16.8c-3.6,1.9-7.4,0.4-8.1,0
	l0,0l0,0l0,0H7.3v0.1C12.2,20.1,15.5,16.9,15.5,16.8C15.5,16.9,15.5,16.8,15.5,16.8z"></path><path fill="#ffffff" transform="translate(2 2)" d="M13.5,20.3C13.5,20.3,13.4,20.3,13.5,20.3c-1.5,0.6-3.4,0.2-3.9,0
	H9.5v0.1C12,21.9,13.5,20.3,13.5,20.3C13.5,20.4,13.5,20.3,13.5,20.3z"></path></svg>