<svg xmlns="http://www.w3.org/2000/svg" viewBox="0 0 27 27" height="27" width="27"><title>mobile-device-charging-white-22.svg</title><rect fill="none" x="0" y="0" width="27" height="27"></rect><rect x="0" y="0" width="27" height="27" rx="4" ry="4" fill="#231f20"></rect><path fill="#ffffff" transform="translate(2 2)" d="M19,0v2h-7.7C10.6,2,10,2.6,10,3.3v17.4c0,0.7,0.6,1.3,1.3,1.3h8.2
	c0.7,0,1.3-0.6,1.3-1.3V0H19z M17.4,18.2c0-0.2,0.2-0.4,0.4-0.4h0.9c0.2,0,0.4,0.2,0.4,0.4v0.9c0,0.2-0.2,0.4-0.4,0.4h-0.9
	c-0.2,0-0.4-0.2-0.4-0.4L17.4,18.2L17.4,18.2z M17.4,15.7c0-0.2,0.2-0.4,0.4-0.4h0.9c0.2,0,0.4,0.2,0.4,0.4v0.9
	c0,0.2-0.2,0.4-0.4,0.4h-0.9c-0.2,0-0.4-0.2-0.4-0.4L17.4,15.7L17.4,15.7z M17.4,13.3c0-0.2,0.2-0.4,0.4-0.4h0.9
	c0.2,0,0.4,0.2,0.4,0.4v0.9c0,0.2-0.2,0.4-0.4,0.4h-0.9c-0.2,0-0.4-0.2-0.4-0.4L17.4,13.3L17.4,13.3z M14.9,18.2
	c0-0.2,0.2-0.4,0.4-0.4h0.9c0.2,0,0.4,0.2,0.4,0.4v0.9c0,0.2-0.2,0.4-0.4,0.4h-0.9c-0.2,0-0.4-0.2-0.4-0.4V18.2z M14.9,15.7
	c0-0.2,0.2-0.4,0.4-0.4h0.9c0.2,0,0.4,0.2,0.4,0.4v0.9c0,0.2-0.2,0.4-0.4,0.4h-0.9c-0.2,0-0.4-0.2-0.4-0.4V15.7z M14.9,13.3
	c0-0.2,0.2-0.4,0.4-0.4h0.9c0.2,0,0.4,0.2,0.4,0.4v0.9c0,0.2-0.2,0.4-0.4,0.4h-0.9c-0.2,0-0.4-0.2-0.4-0.4V13.3z M12.4,19.1v-0.9
	c0-0.2,0.2-0.4,0.4-0.4h0.9c0.2,0,0.4,0.2,0.4,0.4v0.9c0,0.2-0.2,0.4-0.4,0.4h-0.9C12.6,19.5,12.4,19.3,12.4,19.1z M12.4,16.6v-0.9
	c0-0.2,0.2-0.4,0.4-0.4h0.9c0.2,0,0.4,0.2,0.4,0.4v0.9c0,0.2-0.2,0.4-0.4,0.4h-0.9C12.6,17,12.4,16.8,12.4,16.6z M12.4,14.2v-0.9
	c0-0.2,0.2-0.4,0.4-0.4h0.9c0.2,0,0.4,0.2,0.4,0.4v0.9c0,0.2-0.2,0.4-0.4,0.4h-0.9C12.6,14.6,12.4,14.4,12.4,14.2z M12,9.3l0-4.6
	c0.4-0.2,0.6-0.4,0.8-0.7h5.8c0.2,0.3,0.4,0.5,0.3,0.7v4.6c0.1,0.2-0.1,0.4-0.3,0.7l-5.8,0C12.6,9.7,12.4,9.6,12,9.3z"></path><path fill="#ffffff" transform="translate(2 2)" d="M7.6,11.7l-6,7.9l1.8-5.7H1.1L4.7,6h2.9l-2.6,5.7H7.6z"></path></svg>