<svg xmlns="http://www.w3.org/2000/svg" viewBox="0 0 27 27" height="27" width="27"><title>motorboating-white-22.svg</title><rect fill="none" x="0" y="0" width="27" height="27"></rect><rect x="0" y="0" width="27" height="27" rx="4" ry="4" fill="#231f20"></rect><path fill="#ffffff" transform="translate(2 2)" d="M22,16.4c-0.4,0-0.9-0.1-1.3-0.3c-0.4-0.2-0.8-0.3-1.3-0.3s-0.9,0.1-1.3,0.3c-0.4,0.2-0.8,0.3-1.3,0.3
	c-0.4,0-0.9-0.1-1.3-0.3c-0.4-0.2-0.8-0.3-1.3-0.3s-0.9,0.1-1.3,0.3c-0.4,0.2-0.8,0.3-1.3,0.3c-0.4,0-0.9-0.1-1.3-0.3
	c-0.4-0.2-0.8-0.3-1.3-0.3s-0.9,0.1-1.3,0.3c-0.4,0.2-0.8,0.3-1.3,0.3s-0.9-0.1-1.3-0.3c-0.4-0.2-0.8-0.3-1.3-0.3s-0.9,0.1-1.3,0.3
	c-0.4,0.2-0.8,0.3-1.3,0.3v-1.9c0.4,0,0.9-0.1,1.3-0.3s0.8-0.3,1.3-0.3s0.9,0.1,1.3,0.3s0.8,0.3,1.3,0.3s0.9-0.1,1.3-0.3
	C8.1,14,8.5,13.9,9,13.9s0.9,0.1,1.3,0.3c0.4,0.2,0.8,0.3,1.3,0.3c0.4,0,0.9-0.1,1.3-0.3c0.4-0.2,0.8-0.3,1.3-0.3s0.9,0.1,1.3,0.3
	c0.4,0.2,0.8,0.3,1.3,0.3c0.4,0,0.9-0.1,1.3-0.3s0.8-0.3,1.3-0.3s0.9,0.1,1.3,0.3s0.8,0.3,1.3,0.3C22,14.5,22,16.4,22,16.4z"></path><path fill="#ffffff" transform="translate(2 2)" d="M16.8,8.5l3.7,0.3l-0.3-1.9l-2.7-0.2c-0.7,0-0.6,0.7-0.6,0.7L16.8,8.5z"></path><path fill="#ffffff" transform="translate(2 2)" d="M2.3,12.8c0.2,0,0.3-0.1,0.5-0.2c0.4-0.2,0.8-0.3,1.3-0.3s0.9,0.1,1.3,0.3c0.4,0.2,0.8,0.3,1.3,0.3
	s0.9-0.1,1.3-0.3c0.4-0.2,0.8-0.3,1.3-0.3s0.9,0.1,1.3,0.3c0.4,0.2,0.8,0.3,1.3,0.3c0.4,0,0.9-0.1,1.3-0.3c0.4-0.2,0.8-0.3,1.3-0.3
	s0.9,0.1,1.3,0.3c0.4,0.2,0.8,0.3,1.3,0.3c0.4,0,0.9-0.1,1.3-0.3s0.8-0.3,1.3-0.3s0.9,0.1,1.3,0.3s0.5,0.3,1,0.3l-0.1-3.4L6.1,8.3
	l2.3-2.4l-1-0.1L5.1,8.2L0,7.7C0,9.5,1.9,12.4,2.3,12.8L2.3,12.8z"></path><path fill="#ffffff" transform="translate(2 2)" d="M10,6c0.6,0,1,0.4,1,1s-0.4,1-1,1S9,7.6,9,7S9.4,6,10,6z"></path></svg>