<svg xmlns="http://www.w3.org/2000/svg" viewBox="0 0 27 27" height="27" width="27"><title>aed-white-22.svg</title><rect fill="none" x="0" y="0" width="27" height="27"></rect><rect x="0" y="0" width="27" height="27" rx="4" ry="4" fill="#231f20"></rect><path fill="#ffffff" transform="translate(2 2)" d="M16.2,0.8c-2.1,0-3.9,1.1-5,2.8c-1-1.8-3.1-2.9-5.3-2.9C2.7,0.6,0,3.3,0,6.6l0,0c0,2.5,1.1,5.4,4.2,8.9
	c2.1,2.5,4.6,4.5,6.9,5.9c2.3-1.4,4.7-3.4,6.9-5.9c3-3.4,4-6.3,4-8.7C22,3.5,19.5,0.8,16.2,0.8z M7.1,16.8l3-6.2H5.7l9.6-8l-3,6h4.4
	L7.1,16.8z"></path></svg>