<svg xmlns="http://www.w3.org/2000/svg" viewBox="0 0 18 18" height="18" width="18"><title>aed-white-14.svg</title><rect fill="none" x="0" y="0" width="18" height="18"></rect><rect x="0" y="0" width="18" height="18" rx="4" ry="4" fill="#231f20"></rect><path fill="#ffffff" transform="translate(2 2)" d="M10.3,0.5C9,0.5,7.8,1.2,7.1,2.3c-0.7-1.1-2-1.9-3.4-1.9C1.7,0.4,0,2.1,0,4.2l0,0c0,1.6,0.7,3.4,2.6,5.7
	C4,11.5,5.5,12.8,7,13.7c1.5-0.9,3-2.2,4.4-3.8c1.9-2.2,2.6-4,2.6-5.6C14,2.2,12.4,0.5,10.3,0.5z M4,10.4l2-4H3.1l6.9-5l-2,4h3
	L4,10.4z"></path></svg>