<svg xmlns="http://www.w3.org/2000/svg" viewBox="0 0 26 26" height="26" width="26"><title>airboat-white-22.svg</title><rect fill="none" x="0" y="0" width="26" height="26"></rect><rect x="0" y="0" width="26" height="26" rx="4" ry="4" fill="#231f20"></rect><path fill="#ffffff" transform="translate(2 2)" d="M22,19.7c-0.5,0-0.9-0.1-1.3-0.3c-0.4-0.2-0.9-0.3-1.4-0.3c-0.5,0-1,0.1-1.4,0.3c-0.4,0.2-0.9,0.3-1.3,0.3
	c-0.5,0-0.9-0.1-1.3-0.3c-0.4-0.2-0.9-0.3-1.4-0.3c-0.5,0-1,0.1-1.4,0.3c-0.4,0.2-0.9,0.3-1.3,0.3c-0.5,0-0.9-0.1-1.3-0.3
	c-0.4-0.2-0.9-0.3-1.4-0.3c-0.5,0-1,0.1-1.4,0.3c-0.4,0.2-0.9,0.3-1.3,0.3c-0.5,0-0.9-0.1-1.3-0.3c-0.4-0.2-0.9-0.3-1.4-0.3
	s-1,0.1-1.4,0.3c-0.4,0.2-0.9,0.3-1.3,0.3v-2c0.5,0,0.9-0.1,1.3-0.3c0.4-0.2,0.9-0.3,1.4-0.3s1,0.1,1.4,0.3c0.4,0.2,0.9,0.3,1.3,0.3
	c0.5,0,0.9-0.1,1.3-0.3c0.4-0.2,0.9-0.3,1.4-0.3c0.5,0,1,0.1,1.4,0.3c0.4,0.2,0.9,0.3,1.3,0.3c0.5,0,0.9-0.1,1.3-0.3
	c0.4-0.2,0.9-0.3,1.4-0.3c0.5,0,1,0.1,1.4,0.3c0.4,0.2,0.9,0.3,1.3,0.3c0.5,0,0.9-0.1,1.3-0.3c0.4-0.2,0.9-0.3,1.4-0.3
	c0.5,0,1,0.1,1.4,0.3c0.4,0.2,0.9,0.3,1.3,0.3V19.7z"></path><path fill="#ffffff" transform="translate(2 2)" d="M2.1,15.2c0.3-0.1,0.5-0.1,0.8-0.1c0.5,0,1,0.1,1.4,0.3c0.4,0.2,0.9,0.3,1.3,0.3c0.5,0,0.9-0.1,1.3-0.3
	c0.4-0.2,0.9-0.3,1.4-0.3c0.5,0,1,0.1,1.4,0.3c0.4,0.2,0.9,0.3,1.3,0.3c0.5,0,0.9-0.1,1.3-0.3c0.4-0.2,0.9-0.3,1.4-0.3
	c0.5,0,1,0.1,1.4,0.3c0.4,0.2,0.9,0.3,1.3,0.3c0.5,0,0.9-0.1,1.3-0.3c0.4-0.2,0.9-0.3,1.4-0.3c0.5,0,1,0.1,1.4,0.3
	c0.4,0.2,0.9,0.3,1.3,0.3l0-3.7L0,12C0,12,0,14,2.1,15.2z"></path><path fill="#ffffff" transform="translate(2 2)" d="M21.9,5.6L21.9,5.6c0-0.1-0.3-0.2-0.6-0.3C21.6,4.9,22,4.2,22,3.4c0-1.3-0.6-2.3-0.9-2.3
		c-0.3,0-0.8,1-0.8,2.3c0,0.7,0.3,1.4,0.5,1.8c-0.2,0-1.1,0-1.8,0V1h-1.8L16,10h3V5.8c0.7,0,1.6,0,1.8,0c-0.2,0.4-0.6,1.1-0.6,1.8
		c0,1.3,0.5,2.3,0.8,2.3c0.3,0,0.9-1,0.9-2.3c0-0.8-0.4-1.4-0.7-1.9C21.7,5.7,21.9,5.6,21.9,5.6z"></path></svg>