<?xml version="1.0" encoding="utf-8"?>
<!-- Generator: Adobe Illustrator 27.9.1, SVG Export Plug-In . SVG Version: 6.00 Build 0)  -->
<svg version="1.1" id="Layer_1" xmlns="http://www.w3.org/2000/svg" xmlns:xlink="http://www.w3.org/1999/xlink" x="0px" y="0px"
	 viewBox="0 0 18 18" enable-background="new 0 0 18 18" xml:space="preserve">
<rect fill="none" width="18" height="18"/>
<path fill="#231F20" d="M4,0h10c2.2,0,4,1.8,4,4v10c0,2.2-1.8,4-4,4H4c-2.2,0-4-1.8-4-4V4C0,1.8,1.8,0,4,0z"/>
<g>
	<path fill="#FFFFFF" d="M15.6,14.4c-0.3,0-0.6-0.1-0.9-0.2c-0.2-0.1-0.5-0.2-0.8-0.2c-0.3,0-0.6,0.1-0.9,0.2s-0.6,0.2-0.9,0.2
		c-0.3,0-0.6-0.1-0.9-0.2C11,14.1,10.8,14,10.5,14c-0.3,0-0.6,0.1-0.9,0.2c-0.3,0.1-0.6,0.2-0.9,0.2c-0.3,0-0.5-0.1-0.8-0.2
		C7.6,14.1,7.3,14,7,14s-0.6,0.1-0.9,0.2c-0.3,0.1-0.6,0.2-0.9,0.2s-0.6-0.1-0.9-0.2C4.2,14.1,3.9,14,3.6,14S3,14.1,2.7,14.2
		c-0.3,0.1-0.5,0.2-0.8,0.2v-1.2c0.3,0,0.6-0.1,0.9-0.2c0.7-0.1,1-0.2,1.2-0.2s0.6,0.1,0.9,0.2s0.6,0.2,0.9,0.2s0.6-0.1,0.9-0.2
		c0.2-0.1,0.5-0.2,0.8-0.2s0.4,0.1,0.7,0.2c0.3,0.1,0.6,0.2,0.9,0.2s0.5-0.1,0.8-0.2c0.2-0.1,0.5-0.2,0.8-0.2c0.3,0,0.6,0.1,0.9,0.2
		c0.3,0.1,0.6,0.2,0.9,0.2c0.3,0,0.6-0.1,0.9-0.2c0.3-0.1,0.6-0.2,0.9-0.2s0.6,0.1,0.9,0.2c0.3,0.1,0.6,0.2,0.9,0.2v1.2H15.6z"/>
	<path fill="#FFFFFF" d="M3.6,11.7c0.2,0,0.3-0.1,0.5-0.1c0.3,0,0.6,0.1,0.9,0.2S5.5,12,5.8,12s0.6-0.1,0.9-0.2
		c0.1-0.1,0.4-0.1,0.7-0.1s0.5,0.1,0.8,0.2C8.5,12,8.8,12,9,12s0.6,0,0.9-0.1c0.3-0.1,0.6-0.2,0.9-0.2s0.6,0.1,0.9,0.2
		c0.2,0.1,0.5,0.1,0.8,0.1c0.3,0,0.6-0.1,0.9-0.2c0.3-0.1,0.6-0.2,0.9-0.2s0.6,0.1,0.9,0.2c0.1,0.2,0.4,0.2,0.7,0.2V9.8H2.6
		C2.3,9.8,2.3,10.9,3.6,11.7"/>
	<polygon fill="#FFFFFF" points="12.1,9.3 12.9,3.6 14,3.6 14,9.3 	"/>
	<path fill="#FFFFFF" d="M14.5,4.4c0-0.1,0-0.3,0.2-0.3L15.3,4c0.2-0.1,0.3,0.1,0.3,0.2v3.3c0,0.2-0.1,0.3-0.2,0.3L14.8,8
		c-0.1,0-0.2-0.1-0.2-0.2L14.5,4.4L14.5,4.4z"/>
</g>
</svg>
