<svg xmlns="http://www.w3.org/2000/svg" viewBox="0 0 18 18" height="18" width="18"><title>airboat-white-14.svg</title><rect fill="none" x="0" y="0" width="18" height="18"></rect><rect x="0" y="0" width="18" height="18" rx="4" ry="4" fill="#231f20"></rect><path fill="#ffffff" transform="translate(2 2)" d="M14,3.9L14,3.9c0-0.1-0.2-0.1-0.4-0.2C13.7,3.5,14,3,14,2.5c0-0.8-0.4-1.5-0.6-1.5c-0.2,0-0.5,0.7-0.5,1.5
	c0,0.5,0.2,0.9,0.3,1.2c-0.1,0-0.8,0-1.2,0V1h-1.2L10,7h2V4.1c0.5,0,1.1,0,1.2,0c-0.1,0.3-0.4,0.7-0.4,1.2c0,0.8,0.3,1.5,0.5,1.5
	C13.6,6.7,14,6,14,5.2c0-0.5-0.3-0.9-0.4-1.2C13.8,4,14,3.9,14,3.9z"></path><path fill="#ffffff" transform="translate(2 2)" d="M4.6,10.8C4.6,10.8,4.7,10.8,4.6,10.8c0.1,0,0.1,0,0.1,0c0.4-0.4,1-1.1,2.3-1.1s1.9,0.7,2.3,1.1
	c0,0,0,0,0,0.1c0,0,0,0,0-0.1c0.4-0.4,1-1.1,2.3-1.1c1.3,0,1.9,0.7,2.3,1.1c0,0,0,0,0,0V8H0c0.2,0.7,0.5,1.3,1.3,1.8
	c0.3-0.1,0.6-0.2,1.1-0.2C3.6,9.6,4.3,10.4,4.6,10.8z"></path><path fill="#ffffff" transform="translate(2 2)" d="M14,12.9c-0.8,0-1.2-0.5-1.5-0.8c-0.3-0.3-0.4-0.5-0.8-0.5c-0.3,0-0.5,0.2-0.8,0.5
		c-0.3,0.3-0.7,0.8-1.5,0.8c-0.8,0-1.2-0.5-1.5-0.8c-0.3-0.3-0.4-0.5-0.8-0.5s-0.5,0.2-0.8,0.5c-0.3,0.3-0.7,0.8-1.5,0.8
		c-0.8,0-1.2-0.5-1.5-0.8c-0.3-0.3-0.5-0.5-0.8-0.5c-0.3,0-0.5,0.2-0.8,0.5c-0.3,0.3-0.7,0.8-1.5,0.8v-1c0.3,0,0.5-0.2,0.8-0.5
		c0.3-0.3,0.7-0.8,1.5-0.8c0.8,0,1.2,0.5,1.5,0.8c0.3,0.3,0.5,0.5,0.8,0.5c0.3,0,0.5-0.2,0.8-0.5c0.3-0.3,0.7-0.8,1.5-0.8
		c0.8,0,1.2,0.5,1.5,0.8c0.3,0.3,0.4,0.5,0.8,0.5s0.5-0.2,0.8-0.5c0.3-0.3,0.7-0.8,1.5-0.8c0.8,0,1.2,0.5,1.5,0.8
		c0.3,0.3,0.4,0.5,0.8,0.5V12.9z"></path></svg>