<?xml version="1.0" encoding="utf-8"?>
<!-- Generator: Adobe Illustrator 25.4.1, SVG Export Plug-In . SVG Version: 6.00 Build 0)  -->
<svg version="1.1" id="Layer_1" xmlns="http://www.w3.org/2000/svg" xmlns:xlink="http://www.w3.org/1999/xlink" x="0px" y="0px"
	 width="18px" height="18px" viewBox="0 0 18 18" enable-background="new 0 0 18 18" xml:space="preserve">
<rect fill="none" width="18" height="18"/>
<path fill="#231F20" d="M4,0h10c2.2,0,4,1.8,4,4v10c0,2.2-1.8,4-4,4H4c-2.2,0-4-1.8-4-4V4C0,1.8,1.8,0,4,0z"/>
<path fill="#FFFFFF" d="M16,5.9L16,5.9c0-0.1-0.2-0.1-0.4-0.2C15.7,5.5,16,5,16,4.5C16,3.7,15.6,3,15.4,3c-0.2,0-0.5,0.7-0.5,1.5
	c0,0.5,0.2,0.9,0.3,1.2c-0.1,0-0.8,0-1.2,0V3h-1.2L12,9h2V6.1c0.5,0,1.1,0,1.2,0c-0.1,0.3-0.4,0.7-0.4,1.2c0,0.8,0.3,1.5,0.5,1.5
	C15.6,8.7,16,8,16,7.2c0-0.5-0.3-0.9-0.4-1.2C15.8,6,16,5.9,16,5.9z"/>
<path fill="#FFFFFF" d="M15.9,15.3c-0.3,0-0.6-0.1-0.8-0.2c-0.3-0.1-0.6-0.5-0.9-0.5c-0.3,0-0.6,0.4-0.9,0.5
	c-0.2,0.1-0.5,0.2-0.8,0.2s-0.6-0.1-0.8-0.2c-0.3-0.1-0.6-0.5-0.9-0.5c-0.3,0-0.6,0.4-0.9,0.5c-0.2,0.1-0.5,0.2-0.8,0.2
	c-0.3,0-0.6-0.1-0.8-0.2C8,15,7.7,14.6,7.4,14.6S6.8,15,6.5,15.1c-0.2,0.1-0.5,0.2-0.8,0.2c-0.3,0-0.6-0.1-0.8-0.2
	C4.6,15,4.3,14.6,4,14.6S3.4,15,3.1,15.1c-0.2,0.1-0.5,0.2-0.8,0.2v-1.2c0.3,0,0.6-0.1,0.8-0.2c0.3-0.1,0.6-0.5,0.9-0.5
	s0.6,0.4,0.9,0.5s0.5,0.2,0.8,0.2c0.3,0,0.6-0.1,0.8-0.2c0.3-0.1,0.6-0.5,0.9-0.5s0.6,0.4,0.9,0.5s0.5,0.2,0.8,0.2s0.6-0.1,0.8-0.2
	c0.3-0.1,0.6-0.5,0.9-0.5s0.6,0.4,0.9,0.5c0.3,0.1,0.5,0.2,0.8,0.2s0.6-0.1,0.8-0.2c0.3-0.1,0.6-0.5,0.9-0.5c0.3,0,0.6,0.4,0.9,0.5
	c0.3,0.1,0.5,0.2,0.8,0.2V15.3z"/>
<path fill="#FFFFFF" d="M2,10c0,0,0.6,1.4,2,2.4l0,0c0.2,0,0.5,0.3,0.7,0.4c0.3,0.1,0.6,0.2,1,0.3c0.3,0,0.6-0.1,0.8-0.2
	c0.3-0.1,0.6-0.5,0.9-0.5s0.6,0.4,0.9,0.5s0.5,0.2,0.8,0.2s0.6-0.1,0.8-0.2c0.3-0.1,0.6-0.5,0.9-0.5c0.3,0,0.6,0.4,0.9,0.5
	c0.3,0.1,0.5,0.2,0.8,0.2s0.6-0.1,0.8-0.2c0.3-0.1,0.6-0.5,0.9-0.5s0.6,0.4,0.9,0.5c0.3,0.1,0.5,0.2,0.8,0.2V10H2z"/>
</svg>
