<svg xmlns="http://www.w3.org/2000/svg" viewBox="0 0 18 18" height="18" width="18"><title>airfield-white-14.svg</title><rect fill="none" x="0" y="0" width="18" height="18"></rect><rect x="0" y="0" width="18" height="18" rx="4" ry="4" fill="#231f20"></rect><path fill="#ffffff" transform="translate(2 2)" d="M7,13.1l-0.5-0.9h-2c-0.1-0.2,0.1-0.5,0.1-0.5c0.4-0.5,1.7-1.1,1.7-1.1L6,5.5L0.8,5.2C-0.1,5.1,0,4.4,0,4.4
		c0-0.5,0.9-0.6,0.9-0.6L6,3.2l0.4-1.5H5.7V1.5h1L7,1l0.3,0.5h1v0.2H7.6L8,3.2l5.1,0.6c0,0,0.9,0.2,0.9,0.6c0,0,0.1,0.6-0.8,0.7
		L8,5.5l-0.4,5.2c0,0,1.3,0.6,1.7,1.1c0,0,0.2,0.3,0.1,0.5h-2L7,13.1"></path></svg>