<svg xmlns="http://www.w3.org/2000/svg" viewBox="0 0 27 27" height="27" width="27"><title>alcohol-white-22.svg</title><rect fill="none" x="0" y="0" width="27" height="27"></rect><rect x="0" y="0" width="27" height="27" rx="4" ry="4" fill="#231f20"></rect><path fill="#ffffff" transform="translate(2 2)" d="M19,6c1.4,0.3,3,1.6,3,3.1V20c0,0.4-0.6,1-1,1h-6c-0.4,0-1-0.6-1-1V9.1c0-1.5,1.6-2.8,3-3.1V1h2V6z"></path><path fill="#ffffff" transform="translate(2 2)" d="M10.4,20.3l-3.7-0.7v-6.9l5.5-5.6H0l5.5,5.6v6.9l-3.7,0.7c0,0-0.4,0.1-0.4,0.7h9.5
	C10.8,20.4,10.4,20.3,10.4,20.3z"></path></svg>