<svg xmlns="http://www.w3.org/2000/svg" viewBox="0 0 18 18" height="18" width="18"><title>alcohol-white-14.svg</title><rect fill="none" x="0" y="0" width="18" height="18"></rect><rect x="0" y="0" width="18" height="18" rx="4" ry="4" fill="#231f20"></rect><path fill="#ffffff" transform="translate(2 2)" d="M12,3.8c0.9,0.2,2,1,2,2v7.3c0,0.2-0.8,0.9-1,0.9H9c-0.2,0-1-0.7-1-0.9V6c0-1,1.1-2,2-2.2V0h2V3.8z"></path><path fill="#ffffff" transform="translate(2 2)" d="M5.8,13L4,12.5V8.1l3-3.6H0l3,3.6v4.5L1.1,13c0,0-0.3,0.6-0.3,1H6C6.1,13.6,5.8,13,5.8,13z"></path></svg>