<svg xmlns="http://www.w3.org/2000/svg" viewBox="0 0 27 27" height="27" width="27"><title>all-terrain-trail-white-22.svg</title><rect fill="none" x="0" y="0" width="27" height="27"></rect><rect x="0" y="0" width="27" height="27" rx="4" ry="4" fill="#231f20"></rect><path fill="#ffffff" transform="translate(2 2)" d="M17.4,7.1V4.3h-0.3c-0.8,0-1.4,0.6-1.4,1.4s0.6,1.4,1.4,1.4L17.4,7.1z"></path><path fill="#ffffff" transform="translate(2 2)" d="M15.3,6.4l-1.2-2.4c-0.2-0.5-0.7-0.8-1.3-0.8H10c-0.3,0-0.5,0.2-0.5,0.5c0,0.3,0.2,0.4,0.5,0.4h2.8
		c0.3,0,0.5,0.2,0.6,0.4l0.8,1.5L15.3,6.4z"></path><path fill="#ffffff" transform="translate(2 2)" d="M20.8,9.1c0.4,0.1,0.6,0.4,0.6,0.8h-2c-2.7,0-4.8,2.1-4.8,4.8l0,0H8.1c0-2.1-1.4-3.9-3.3-4.6L1.1,8.9L1.7,8
		c0.2-0.3,0.6-0.5,1-0.5H3l8.1,2.5h0.3c0.4,0,0.7-0.2,0.9-0.5l1.8-2.6L20.8,9.1z"></path><path fill="#ffffff" transform="translate(2 2)" d="M15.4,15.4c0-1.8,1.5-3.3,3.3-3.3c1.8,0,3.3,1.5,3.3,3.3s-1.5,3.3-3.3,3.3l0,0
		C16.9,18.8,15.4,17.3,15.4,15.4z M18.7,16.8c0.7,0,1.2-0.5,1.2-1.2c0,0,0,0,0,0c0-0.7-0.5-1.2-1.2-1.2c-0.7,0-1.2,0.5-1.2,1.2
		C17.5,16.2,18,16.8,18.7,16.8C18.7,16.8,18.7,16.8,18.7,16.8z"></path><path fill="#ffffff" transform="translate(2 2)" d="M0,15.1c0-2,1.6-3.6,3.6-3.6s3.6,1.6,3.6,3.6s-1.6,3.6-3.6,3.6S0,17.1,0,15.1C0,15.1,0,15.1,0,15.1z
		 M3.6,16.4c0.7,0,1.3-0.6,1.3-1.3s-0.6-1.3-1.3-1.3l0,0c-0.7,0-1.3,0.6-1.3,1.3S2.9,16.4,3.6,16.4z"></path></svg>