<svg xmlns="http://www.w3.org/2000/svg" viewBox="0 0 18 18" height="18" width="18"><title>amphitheater-white-14.svg</title><rect fill="none" x="0" y="0" width="18" height="18"></rect><rect x="0" y="0" width="18" height="18" rx="4" ry="4" fill="#231f20"></rect><path fill="#ffffff" transform="translate(2 2)" d="M4.8,3L3.9,4.4v1.7h0.9V4H6v3h2V4h1.2v2.1h0.9V4.4L9.2,3H4.8z M7,2.6L7,2.6C6.3,2.6,5.7,2,5.7,1.3S6.3,0,7,0
	s1.3,0.6,1.3,1.3S7.7,2.6,7,2.6z M2.6,7.9L1.8,9.6c0,0,4.2,0.9,5.2,0.9s5.2-0.9,5.2-0.9l-0.9-1.8c0,0-3.2,0.7-4.4,0.7
	S2.6,7.9,2.6,7.9z M0.9,11.4L0,13.1c0,0,5.6,0.9,7,0.9s7-0.9,7-0.9l-0.9-1.8c0,0-4.7,1-6.1,1S0.9,11.4,0.9,11.4z"></path></svg>