<svg xmlns="http://www.w3.org/2000/svg" viewBox="0 0 27 27" height="27" width="27"><title>amphitheater-white-22.svg</title><rect fill="none" x="0" y="0" width="27" height="27"></rect><rect x="0" y="0" width="27" height="27" rx="4" ry="4" fill="#231f20"></rect><path fill="#ffffff" transform="translate(2 2)" d="M10.9,3h-0.8C9.5,3,9,2.5,9,1.9V1.1C9,0.5,9.5,0,10.1,0l0,0h0.8C11.5,0,12,0.5,12,1.1v0.8
	C12,2.5,11.5,3,10.9,3L10.9,3z M9,10h3V6h1v3h1V5l-2-1H9L7,5v4h1V6h1V10z M22,21.3l-0.6-2.1c-3.5,0.4-6.9,0.6-10.4,0.6
	c-3.4,0-6.9-0.2-10.3-0.6L0,21.3C3.7,21.7,7.3,22,11,22S18.3,21.7,22,21.3z M1.9,15.3l-0.6,2.1c3.1,0.3,6.3,0.5,9.7,0.5
	s6.6-0.2,9.7-0.5l-0.6-2.1c-3,0.3-6.1,0.5-9.1,0.5C8,15.8,4.9,15.6,1.9,15.3z M11,13.9c2.8,0,5.6-0.1,8.4-0.4l-0.6-2.1
	c-2.5,0.2-5.1,0.4-7.8,0.4s-5.2-0.2-7.7-0.4l-0.6,2.1C5.3,13.7,8.1,13.9,11,13.9z"></path></svg>