<svg xmlns="http://www.w3.org/2000/svg" viewBox="0 0 27 27" height="27" width="27"><title>aquatic-invasive-species-decontamination-station-white-22.svg</title><rect fill="none" x="0" y="0" width="27" height="27"></rect><rect x="0" y="0" width="27" height="27" rx="4" ry="4" fill="#231f20"></rect><path fill="#ffffff" transform="translate(2 2)" d="M16.2,14.2L14,11.7V14c-0.4,0-0.8-0.1-1.2-0.1L11,11.6L10.9,14c-0.5,0-1,0.1-1.5,0.2L8,12.4v2.1
	c-0.5,0.2-1.1,0.3-1.6,0.5L5,13.3v2.3c-0.4,0.2-0.7,0.4-1,0.7c-0.3-0.2-0.6-0.5-0.9-0.7c-0.7-0.4-2.3-0.9-3.1-1.2L1.8,17L0,19.7
	c0.8-0.4,2.5-0.8,3.1-1.2C3.5,18.2,3.7,18,4,17.7c2,1.5,5,2.5,8.5,2.5c2.6,0,4.9-0.6,6.8-1.4l0.7,2.1l0.8-2.9
	c0.4-0.3,0.9-0.6,1.2-0.9C20.7,15.7,18.6,14.8,16.2,14.2z M16.5,17.5c-0.6,0-1-0.4-1-1s0.4-1,1-1s1,0.4,1,1S17.1,17.5,16.5,17.5z"></path><path fill="#ffffff" transform="translate(2 2)" d="M6.4,0h2.9l1.9,3.1L13,0h2.6l-2.9,4.5l3.2,5h-3l-2-3.5L8.7,9.5H6l3.3-5L6.4,0z"></path></svg>