<svg xmlns="http://www.w3.org/2000/svg" viewBox="0 0 18 18" height="18" width="18"><title>aquatic-invasive-species-inspection-sticker-white-14.svg</title><rect fill="none" x="0" y="0" width="18" height="18"></rect><rect x="0" y="0" width="18" height="18" rx="4" ry="4" fill="#231f20"></rect><path fill="#ffffff" transform="translate(2 2)" d="M2,1h10v1H2V1z M2,3h10v1H2V3z M2,5h7v1H2V5z M10.3,9.1L8.9,7.4v1.5c-0.3,0-0.5-0.1-0.8-0.1L7,7.4L6.9,8.9
	c-0.3,0-0.7,0-1,0.1L5.1,7.9v1.3c-0.3,0.1-0.7,0.2-1,0.3l-0.9-1V10c-0.2,0.1-0.4,0.3-0.6,0.4C2.4,10.2,2.2,10.1,2,9.9
	C1.6,9.6,0.5,9.4,0,9.1l1.2,1.7L0,12.5c0.5-0.2,1.6-0.5,2-0.8c0.2-0.1,0.4-0.3,0.6-0.5c1.3,0.9,3.2,1.6,5.4,1.6
	c1.6,0,3.1-0.4,4.3-0.9l0.4,1.3l0.5-1.8c0.3-0.2,0.5-0.4,0.8-0.6C13.2,10,11.9,9.4,10.3,9.1z M11,11h-1v-1h1V11z"></path></svg>