<svg xmlns="http://www.w3.org/2000/svg" viewBox="0 0 27 27" height="27" width="27"><title>aquatic-invasive-species-inspection-sticker-white-22.svg</title><rect fill="none" x="0" y="0" width="27" height="27"></rect><rect x="0" y="0" width="27" height="27" rx="4" ry="4" fill="#231f20"></rect><path fill="#ffffff" transform="translate(2 2)" d="M3,4h16v2H3V4z"></path><path fill="#ffffff" transform="translate(2 2)" d="M3,7h12v2H3V7z"></path><path fill="#ffffff" transform="translate(2 2)" d="M3,1h16v2H3V1z"></path><path fill="#ffffff" transform="translate(2 2)" d="M16.2,13.2L14,10.7V13c-0.4,0-0.8-0.1-1.2-0.1L11,10.6L10.9,13c-0.5,0-1,0.1-1.5,0.2L8,11.4v2.1
	c-0.5,0.2-1.1,0.3-1.6,0.5L5,12.3v2.3c-0.4,0.2-0.7,0.4-1,0.7c-0.3-0.2-0.6-0.5-0.9-0.7c-0.7-0.4-2.3-0.9-3.1-1.2L1.8,16L0,18.7
	c0.8-0.4,2.5-0.8,3.1-1.2C3.5,17.2,3.7,17,4,16.7c2,1.5,5,2.5,8.5,2.5c2.6,0,4.9-0.6,6.8-1.4l0.7,2.1l0.8-2.9
	c0.4-0.3,0.9-0.6,1.2-0.9C20.7,14.7,18.6,13.8,16.2,13.2z M16.5,16.5c-0.6,0-1-0.4-1-1s0.4-1,1-1s1,0.4,1,1S17.1,16.5,16.5,16.5z"></path></svg>