<svg xmlns="http://www.w3.org/2000/svg" viewBox="0 0 18 18" height="18" width="18"><title>archery-white-14.svg</title><rect fill="none" x="0" y="0" width="18" height="18"></rect><rect x="0" y="0" width="18" height="18" rx="4" ry="4" fill="#231f20"></rect><path fill="#ffffff" transform="translate(2 2)" d="M3,3h3v1H3V3z M6,1c0.6,0,1,0.4,1,1S6.6,3,6,3S5,2.6,5,2S5.4,1,6,1z M11,3c-0.1-1.1-0.4-2.1-0.8-2.8
	C10.1,0.1,10,0.1,10,0H9.6L9.5,0.2L7,2.6V3v1v0.4l2.5,2.5l0.4,0.4L10,7.2V7c0,0,0.1-0.1,0.1-0.2C10.6,6.1,10.9,5.1,11,4l0,0V3L11,3z
	 M9.8,0.6C10.2,1.2,10.4,2,10.5,3H7.4L9.8,0.6z M9.8,6.4L7.4,4h3.1C10.4,5,10.2,5.8,9.8,6.4z M8,13.4L8,13.4L7,9V5V4
	c0,0.6-0.4,1-1,1H4v3.9l0,0l-1,4.4c0,0.1,0,0.1,0,0.2C3,13.8,3.2,14,3.5,14c0.2,0,0.4-0.1,0.5-0.3l0,0L5.3,9h0.5L7,13.6l0,0
	C7,13.8,7.2,14,7.5,14S8,13.8,8,13.4C8,13.5,8,13.4,8,13.4z"></path></svg>