<svg xmlns="http://www.w3.org/2000/svg" viewBox="0 0 27 27" height="27" width="27"><title>archery-white-22.svg</title><rect fill="none" x="0" y="0" width="27" height="27"></rect><rect x="0" y="0" width="27" height="27" rx="4" ry="4" fill="#231f20"></rect><path fill="#ffffff" transform="translate(2 2)" d="M8.9,4.7c1,0,1.8-0.8,1.8-1.8S9.9,1,8.9,1S7.1,1.8,7.1,2.8S7.9,4.7,8.9,4.7z"></path><path fill="#ffffff" transform="translate(2 2)" d="M9.4,6.6c1.1,0,1.1-1.4,0-1.4H4.8c-1.1,0-1.1,1.4,0,1.4H9.4L9.4,6.6z"></path><path fill="#ffffff" transform="translate(2 2)" d="M16,0.4L15.7,0l-4.8,4.8c0.2,0.3,0.4,0.6,0.4,1c0,1-0.8,1.7-1.8,1.7H7v6.1l-1.6,7.1
	c-0.1,0.6,0.3,1.1,0.8,1.2c0.6,0.1,1.1-0.2,1.2-0.8l1.5-7.4l0,0h0.7l0,0l1.5,7.4c0.1,0.6,0.6,0.9,1.2,0.8c0.5-0.1,0.9-0.6,0.8-1.2
	l-1.4-7.2v-6l4,4l0.3-0.4c1.3-1.5,2-3.4,2-5.5C18,3.8,17.3,1.9,16,0.4z M9.6,13.8L9.6,13.8L9.6,13.8L9.6,13.8z M11.2,5.1
	c1.1-1,3.1-3.1,4.1-4.1c1,1.2,1.6,2.6,1.7,4.1H11.2z M15.3,10.7c-0.9-0.9-2.6-2.6-3.7-3.7V6.6h5.5C16.9,8.1,16.3,9.5,15.3,10.7z"></path></svg>