<?xml version="1.0" encoding="utf-8"?>
<!-- Generator: Adobe Illustrator 27.9.1, SVG Export Plug-In . SVG Version: 6.00 Build 0)  -->
<svg version="1.1" id="Layer_1" xmlns="http://www.w3.org/2000/svg" xmlns:xlink="http://www.w3.org/1999/xlink" x="0px" y="0px"
	 viewBox="0 0 18 18" enable-background="new 0 0 18 18" xml:space="preserve">
<rect fill="none" width="18" height="18"/>
<path fill="#231F20" d="M4,0h10c2.2,0,4,1.8,4,4v10c0,2.2-1.8,4-4,4H4c-2.2,0-4-1.8-4-4V4C0,1.8,1.8,0,4,0z"/>
<g>
	<path fill="#FFFFFF" d="M10.6,11.6C10.6,11.6,10.6,11.5,10.6,11.6c-0.5-0.2-0.9-0.4-0.9-0.9c0-0.4,0.2-0.7,0.4-1
		c0.3-0.3,0.5-0.6,0.8-0.9c1-1.3,0.7-3.2-0.1-4.1l0,0c-0.8-1-1.7-1.6-3.5-1.6c-1,0-2,0.4-2.5,0.8C4.7,3.9,4.6,4,4.6,4
		C4.5,4,4.5,4.1,4.4,4.1C4.2,4.3,4.1,4.4,4.1,4.4C2.8,5.4,2,7.1,2,9.1C2,12.4,4.4,15,7.3,15c1.4,0,2.7-0.6,3.7-1.6
		c0.2-0.2,0.3-0.5,0.4-0.8c0-0.1,0-0.1,0-0.2C11.3,11.9,11,11.7,10.6,11.6 M4.1,6.1c0.4-0.4,1.1-0.5,1.4-0.2s0.2,1-0.2,1.4
		C4.9,7.8,4.2,7.9,3.9,7.5C3.6,7.2,3.7,6.6,4.1,6.1 M4.3,11.2c-0.5,0.1-1-0.3-1.1-0.9C3,9.7,3.3,9.1,3.7,9c0.5-0.1,1,0.3,1.1,0.9
		C5,10.5,4.8,11.1,4.3,11.2 M7.1,13.3c-0.2,0.4-0.9,0.5-1.4,0.2c-0.5-0.3-0.8-0.9-0.6-1.3C5.4,11.7,6,11.7,6.6,12
		C7.1,12.3,7.4,12.9,7.1,13.3 M7.7,6.1c-0.6,0-1.1-0.4-1.1-0.9s0.5-0.9,1.1-0.9s1.1,0.4,1.1,0.9S8.4,6.1,7.7,6.1"/>
	<path fill="#FFFFFF" d="M15.4,6.6c0,0-1.2,1.1-2-0.7c0,0-0.6-1.7,2.2-2.9c0,0-0.2,0.7,0,1.3L15.9,5C15.9,5,16.3,5.9,15.4,6.6"/>
	<path fill="#FFFFFF" d="M14.6,14.9c1,0.7,0.9-7.7,0.9-7.7s-0.3,0.4-0.8,0.4c-0.4,0-0.7-0.1-0.8-0.4C13.8,7.2,13.6,14.2,14.6,14.9"
		/>
</g>
</svg>
