<svg xmlns="http://www.w3.org/2000/svg" viewBox="0 0 27 27" height="27" width="27"><title>art-white-22.svg</title><rect fill="none" x="0" y="0" width="27" height="27"></rect><rect x="0" y="0" width="27" height="27" rx="4" ry="4" fill="#231f20"></rect><path fill="#ffffff" transform="translate(2 2)" d="M2.4,9.8l-0.8,2.5H0l2.8-8.7h2l2.8,8.7H5.9L5.2,9.8H2.4z M4.9,8.6L4.2,6.4C4,5.9,3.9,5.3,3.8,4.8h0
	C3.6,5.3,3.5,5.9,3.3,6.4L2.7,8.6H4.9z"></path><path fill="#ffffff" transform="translate(2 2)" d="M8.9,3.7c0.6-0.1,1.5-0.2,2.4-0.2c1.3,0,2.1,0.2,2.7,0.7c0.5,0.4,0.8,1,0.8,1.8c0,1.1-0.8,1.9-1.6,2.2v0
	c0.6,0.2,1,0.8,1.2,1.7c0.3,1.1,0.5,2.1,0.7,2.4h-1.6c-0.1-0.3-0.4-1-0.6-2.1c-0.3-1.1-0.7-1.5-1.6-1.5h-0.8v3.6H8.9V3.7z M10.4,7.5
	h0.9c1.1,0,1.7-0.6,1.7-1.4c0-0.9-0.7-1.4-1.7-1.4c-0.5,0-0.8,0-1,0.1V7.5z"></path><path fill="#ffffff" transform="translate(2 2)" d="M17.9,4.9h-2.5V3.5H22v1.3h-2.5v7.4h-1.6V4.9z"></path><path fill="#ffffff" transform="translate(2 2)" d="M1.6,17.7c0,0,7.8-4.9,18.8-2.5l-2.5,3.3c0,0-7.8-3.5-15.8,0L1.6,17.7z"></path></svg>