<svg xmlns="http://www.w3.org/2000/svg" viewBox="0 0 18 18" height="18" width="18"><title>art-white-14.svg</title><rect fill="none" x="0" y="0" width="18" height="18"></rect><rect x="0" y="0" width="18" height="18" rx="4" ry="4" fill="#231f20"></rect><path fill="#ffffff" transform="translate(2 2)" d="M11,3H9V2h5v1h-2v5h-1V3z"></path><path fill="#ffffff" transform="translate(2 2)" d="M1,11.3c0,0,5-3.1,12-1.6l-1.6,2.1c0,0-5-2.2-10,0L1,11.3z"></path><path fill="#ffffff" transform="translate(2 2)" d="M3,2H1L0,3v5h1V6h2v2h1V3L3,2z M3,5H1V3h2V5z"></path><path fill="#ffffff" transform="translate(2 2)" d="M10.7,8L8.4,5.6L9,5V3L8,2H6H5v6h1V6h1.3l2,2H10.7z M6,3h2v2H7.7H7.1H6V3z"></path></svg>