<?xml version="1.0" encoding="utf-8"?>
<!-- Generator: Adobe Illustrator 27.9.1, SVG Export Plug-In . SVG Version: 6.00 Build 0)  -->
<svg version="1.1" id="Layer_1" xmlns="http://www.w3.org/2000/svg" xmlns:xlink="http://www.w3.org/1999/xlink" x="0px" y="0px"
	 viewBox="0 0 27 27" enable-background="new 0 0 27 27" xml:space="preserve">
<rect fill="none" width="27" height="27"/>
<path fill="#231F20" d="M4,0h19c2.2,0,4,1.8,4,4v19c0,2.2-1.8,4-4,4H4c-2.2,0-4-1.8-4-4V4C0,1.8,1.8,0,4,0z"/>
<g>
	<path fill="#FFFFFF" d="M16,17.5L16,17.5c-0.7-0.2-1.3-0.5-1.4-1.3c-0.1-0.7,0.2-1.1,0.7-1.6c0.4-0.5,0.8-0.9,1.2-1.4
		c1.6-2,1.1-5-0.1-6.5l0,0c-1.2-1.4-2.7-2.4-5.5-2.4c-1.6,0-3.1,0.7-4,1.3c-0.1-0.1-0.3,0-0.4,0.1c-0.1,0-0.2,0.1-0.2,0.2
		C6,6.1,5.8,6.2,5.8,6.2c-2,1.7-3.3,4.4-3.3,7.4c0,5.1,3.7,9.2,8.4,9.2c2.1,0,4.2-0.9,5.8-2.5c0.3-0.3,0.5-0.8,0.6-1.3
		c0-0.1,0-0.2,0-0.2C17.2,18.1,16.6,17.7,16,17.5 M5.8,9C6.5,8.3,7.5,8.1,8,8.7c0.5,0.5,0.4,1.5-0.3,2.2C7,11.6,6,11.7,5.5,11.2
		C5,10.7,5.1,9.7,5.8,9 M6.1,17c-0.7,0.2-1.5-0.4-1.8-1.4s0.1-1.9,0.8-2.1s1.5,0.4,1.8,1.4C7.2,15.9,6.9,16.8,6.1,17 M10.6,20.2
		c-0.4,0.6-1.4,0.8-2.2,0.3c-0.9-0.5-1.3-1.4-0.9-2.1c0.4-0.6,1.4-0.8,2.2-0.3C10.5,18.7,10.9,19.6,10.6,20.2 M11.5,8.9
		c-1,0-1.8-0.6-1.8-1.4s0.8-1.3,1.8-1.3s1.8,0.6,1.8,1.4S12.5,8.9,11.5,8.9"/>
	<path fill="#FFFFFF" d="M23.6,9.8c0,0-1.9,1.7-3.1-1.1c0,0-0.9-2.6,3.5-4.6c0,0-0.3,1,0,2l0.3,1C24.4,7.2,24.9,8.7,23.6,9.8"/>
	<path fill="#FFFFFF" d="M22.2,22.8c1.6,1.1,1.5-12.1,1.5-12.1s-0.5,0.6-1.3,0.6c-0.6,0-1.1-0.2-1.3-0.6
		C21.1,10.7,20.7,21.7,22.2,22.8"/>
</g>
</svg>
