<svg xmlns="http://www.w3.org/2000/svg" viewBox="0 0 18 18" height="18" width="18"><title>ash-disposal-white-14.svg</title><rect fill="none" x="0" y="0" width="18" height="18"></rect><rect x="0" y="0" width="18" height="18" rx="4" ry="4" fill="#231f20"></rect><path fill="#ffffff" transform="translate(2 2)" d="M1,7h1l1,5h3l1-5h1l-1,6H2L1,7z M7,4h1v1H7V4z M5,4h1v1H5V4z M5,6h1v1H5V6z M3,6h1v1H3V6z M7,2h1v1H7V2z
	 M4,7h1v1H4V7z M3,11h1v1H3V11z M4,11h1v1H4V11z M4,9h1v1H4V9z M5,8h1v1H5V8z M5,10h1v1H5V10z M3,8h1v1H3V8z M9,1v4l4-1V2L9,1z"></path></svg>