<svg xmlns="http://www.w3.org/2000/svg" viewBox="0 0 27 27" height="27" width="27"><title>ash-disposal-white-22.svg</title><rect fill="none" x="0" y="0" width="27" height="27"></rect><rect x="0" y="0" width="27" height="27" rx="4" ry="4" fill="#231f20"></rect><path fill="#ffffff" transform="translate(2 2)" d="M2,12h1l2,8h3l2-8h1l-2,9H4L2,12z M5,9c0.6,0,1,0.4,1,1s-0.4,1-1,1s-1-0.4-1-1S4.4,9,5,9z M8,8
	c0.6,0,1,0.4,1,1s-0.4,1-1,1S7,9.6,7,9S7.4,8,8,8z M11,3c0.6,0,1,0.4,1,1s-0.4,1-1,1s-1-0.4-1-1S10.4,3,11,3z M10,6c0.6,0,1,0.4,1,1
	s-0.4,1-1,1S9,7.6,9,7S9.4,6,10,6z M8,4c0.6,0,1,0.4,1,1S8.6,6,8,6S7,5.6,7,5S7.4,4,8,4z M5,13c0.6,0,1,0.4,1,1s-0.4,1-1,1
	s-1-0.4-1-1S4.4,13,5,13z M7,12c0.6,0,1,0.4,1,1s-0.4,1-1,1s-1-0.4-1-1S6.4,12,7,12z M7,15c0.6,0,1,0.4,1,1c0,0.6-0.4,1-1,1
	s-1-0.4-1-1C6,15.4,6.4,15,7,15z M5,18c0.6,0,1,0.4,1,1s-0.4,1-1,1s-1-0.4-1-1S4.4,18,5,18z M7,18c0.6,0,1,0.4,1,1s-0.4,1-1,1
	s-1-0.4-1-1S6.4,18,7,18z M13,2v6l7-1V3L13,2z"></path></svg>