<svg xmlns="http://www.w3.org/2000/svg" viewBox="0 0 27 27" height="27" width="27"><title>assistive-listening-systems-white-22.svg</title><rect fill="none" x="0" y="0" width="27" height="27"></rect><rect x="0" y="0" width="27" height="27" rx="4" ry="4" fill="#231f20"></rect><path fill="#ffffff" transform="translate(2 2)" d="M20,0h-1.4l-4.1,4.5c0.5,0.3,1,0.6,1.4,1c0.7,0.7,1.2,1.4,1.5,2.3l4.6-5V1.9C21.9,0.9,21.1,0,20,0z"></path><path fill="#ffffff" transform="translate(2 2)" d="M5.8,13.7L0,19.9V20c0,1.1,0.9,1.9,1.9,1.9h2.2l5-5.4C7.7,16.1,6.5,15,5.8,13.7z"></path><path fill="#ffffff" transform="translate(2 2)" d="M16.8,11c0-3.2-2.6-5.9-5.9-5.9S5.1,7.8,5.1,11h1.5c0-2.4,2-4.4,4.4-4.4s4.4,2,4.4,4.4
	c0,0.5-0.1,0.9-0.2,1.3c-1.1,1.1-2.7,3.5-2.7,5.3c0,0.8-0.3,2.2-1.5,2.2c-0.4,0-0.7,0.3-0.7,0.7s0.3,0.7,0.7,0.7
	c1.9,0,2.9-1.8,2.9-3.7c0-1.2,1.2-3.3,2.4-4.3c0.1-0.1,0.1-0.2,0.2-0.3l0,0C16.7,12.4,16.8,11.7,16.8,11z"></path></svg>