<svg xmlns="http://www.w3.org/2000/svg" viewBox="0 0 18 18" height="18" width="18"><title>assistive-listening-systems-white-14.svg</title><rect fill="none" x="0" y="0" width="18" height="18"></rect><rect x="0" y="0" width="18" height="18" rx="4" ry="4" fill="#231f20"></rect><path fill="#ffffff" transform="translate(2 2)" d="M3.7,8.7l-3.7,4v0.1C0,13.4,0.6,14,1.2,14h1.4l3.2-3.4C4.9,10.3,4.1,9.6,3.7,8.7z"></path><path fill="#ffffff" transform="translate(2 2)" d="M10.7,7c0-2-1.6-3.7-3.7-3.7S3.3,5,3.3,7h0.9c0-1.5,1.3-2.8,2.8-2.8S9.8,5.5,9.8,7c0,0.3-0.1,0.6-0.1,0.8
	C9,8.5,8,10,8,11.2c0,0.5-0.2,1.4-0.9,1.4c-0.3,0-0.5,0.2-0.5,0.5s0.2,0.5,0.5,0.5c1.2,0,1.9-1.2,1.9-2.3c0-0.8,0.8-2.1,1.5-2.8
	c0.1-0.1,0.1-0.1,0.1-0.2l0,0C10.7,7.9,10.7,7.5,10.7,7z"></path><path fill="#ffffff" transform="translate(2 2)" d="M12.8,0h-0.9L9.2,2.9C9.6,3,9.9,3.2,10.1,3.5c0.4,0.4,0.8,0.9,1,1.5L14,1.8V1.2C14,0.6,13.4,0,12.8,0z"></path></svg>