<svg xmlns="http://www.w3.org/2000/svg" viewBox="0 0 18 18" height="18" width="18"><title>atm-white-14.svg</title><rect fill="none" x="0" y="0" width="18" height="18"></rect><rect x="0" y="0" width="18" height="18" rx="4" ry="4" fill="#231f20"></rect><path fill="#ffffff" transform="translate(2 2)" d="M4.4,8.8c0.1,0.5,0.2,0.9,0.5,1.1C5.3,10.3,6,10.6,7,10.6c0.6,0,1.1-0.1,1.5-0.2c0.7-0.2,1.1-0.6,1.1-1.3
	c0-0.4-0.2-0.6-0.5-0.8C8.7,8.1,8.2,7.9,7.4,7.8L6.1,7.5C4.8,7.3,3.9,7,3.5,6.7C2.6,6.2,2.2,5.4,2.2,4.4S2.6,2.6,3.4,2s2-1,3.5-1
	c1.3,0,2.4,0.3,3.3,0.9s1.4,1.5,1.4,2.6H9.2c0-0.6-0.4-1.1-1-1.4C7.8,3,7.3,2.9,6.7,2.9S5.6,3,5.2,3.2s-0.6,0.6-0.6,1
	c0,0.4,0.2,0.7,0.6,0.9C5.4,5.2,6,5.4,6.8,5.5L8.9,6c0.9,0.2,1.6,0.5,2.1,0.8C11.6,7.3,12,8,12,9s-0.4,1.8-1.3,2.5
	c-0.8,0.7-2,1-3.6,1s-2.8-0.3-3.7-1S2,9.9,2,8.8H4.4z M6,0h2v14H6V0z"></path></svg>