<svg xmlns="http://www.w3.org/2000/svg" viewBox="0 0 27 27" height="27" width="27"><title>atm-white-22.svg</title><rect fill="none" x="0" y="0" width="27" height="27"></rect><rect x="0" y="0" width="27" height="27" rx="4" ry="4" fill="#231f20"></rect><path fill="#ffffff" transform="translate(2 2)" d="M17.1,10.6c-0.8-0.5-1.8-0.9-3.3-1.2L12,9l0-4.6c0.4,0.1,0.7,0.2,1,0.3c0.9,0.5,1.4,1.2,1.5,2.2h3.8
	c0-1.8-0.8-3.2-2.2-4.1c-1.2-0.7-2.5-1.2-4.1-1.3L12,0h-2v1.5C8.1,1.6,6.6,2,5.5,2.9c-1.3,1-1.9,2.3-1.9,3.8c0,1.7,0.6,2.9,1.9,3.7
	c0.7,0.5,2.1,0.9,4.1,1.3l0.4,0.1v4.7c-1.1-0.1-1.9-0.4-2.4-0.9c-0.3-0.3-0.6-0.9-0.7-1.7H3.2c0,1.8,0.7,3.2,2.1,4.2
	c1.2,0.8,2.8,1.3,4.7,1.4V22h1.9l0-2.5c2.1-0.1,3.7-0.6,4.9-1.5c1.3-1.1,2-2.4,2-3.9S18.2,11.4,17.1,10.6z M8,8
	C7.4,7.7,7.1,7.2,7.1,6.6c0-0.6,0.3-1.2,1.1-1.7C8.7,4.6,9.3,4.4,10,4.3v4.2C9,8.3,8.3,8.2,8,8z M13.3,16.2
	c-0.4,0.1-0.8,0.2-1.4,0.3l0-4.3c1,0.2,1.7,0.5,2.3,0.7c0.5,0.3,0.8,0.7,0.8,1.3C15,15.2,14.4,15.8,13.3,16.2z"></path></svg>