<svg xmlns="http://www.w3.org/2000/svg" viewBox="0 0 18 18" height="18" width="18"><title>audio-description-white-14.svg</title><rect fill="none" x="0" y="0" width="18" height="18"></rect><rect x="0" y="0" width="18" height="18" rx="4" ry="4" fill="#231f20"></rect><path fill="#ffffff" transform="translate(2 2)" d="M11.8,11c-0.1,0.1-0.2,0-0.3,0h-9C2,11,1,9.6,1,7s1-4,1.5-4h9c0.1,0,0.2-0.1,0.3,0H13c-0.4-0.7-1-1-1.6-1h-9
	C1.1,2,0,4.2,0,7s1.1,5,2.5,5h9c0.6,0,1.1-0.3,1.6-1H11.8z"></path><path fill="#ffffff" transform="translate(2 2)" d="M8,10c1.2,0,1.4-1.7,1.4-3c0-1.2-0.2-3-1.4-3l0,0H6v6H8 M7.9,5c0.7,0,0.6,1.3,0.6,2c0,1,0.2,1.5-0.6,2H7V5
	H7.9z"></path><path fill="#ffffff" transform="translate(2 2)" d="M4.3,4l-3.2,6h1.1l0.5-1h1.4v1H5V4H4.3z M4.2,8H3l1.2-1.9V8z"></path><path fill="#ffffff" transform="translate(2 2)" d="M10,4h1c0,0,1,2,1,3s-1,3-1,3h-1c0,0,1-2,1-3S10,4,10,4z"></path><path fill="#ffffff" transform="translate(2 2)" d="M12,4h1c0,0,1,2,1,3s-1,3-1,3h-1c0,0,1-2,1-3S12,4,12,4z"></path></svg>