<svg xmlns="http://www.w3.org/2000/svg" viewBox="0 0 18 18" height="18" width="18"><title>audio-tour-white-14.svg</title><rect fill="none" x="0" y="0" width="18" height="18"></rect><rect x="0" y="0" width="18" height="18" rx="4" ry="4" fill="#231f20"></rect><path fill="#ffffff" transform="translate(2 2)" d="M3.9,13.7H2V8.5h1.8C4.8,10.9,3.9,13.7,3.9,13.7"></path><path fill="#ffffff" transform="translate(2 2)" d="M10.1,8.5h1.8v5.2h-1.8C9.1,11.3,10.1,8.5,10.1,8.5"></path><path fill="#ffffff" transform="translate(2 2)" d="M14,11.1h-1.4V7.8c0-3-2.5-5.4-5.6-5.4c-3.1,0-5.6,2.4-5.6,5.4l0,0.7c0,1,0,2.6,0,2.6H0
		c0-1.8,0-2.8,0.1-3.3H0C0,4,3.1,1,7,1c3.9,0,7,3,7,6.8V11.1z"></path></svg>