<svg xmlns="http://www.w3.org/2000/svg" viewBox="0 0 27 27" height="27" width="27"><title>audio-tour-white-22.svg</title><rect fill="none" x="0" y="0" width="27" height="27"></rect><rect x="0" y="0" width="27" height="27" rx="4" ry="4" fill="#231f20"></rect><path fill="#ffffff" transform="translate(2 2)" d="M22,16.9h-2v-5.3c0-4.7-4.1-8.5-9-8.5c-4.9,0-9,3.8-9,8.5v5.3H0c0-2.8,0-4.4,0.1-5.3H0C0,5.8,4.9,1,11,1
		c6.1,0,11,4.8,11,10.6V16.9z"></path><path fill="#ffffff" transform="translate(2 2)" d="M6.1,21H3.2v-8.2h2.9C7.6,16.5,6.1,21,6.1,21"></path><path fill="#ffffff" transform="translate(2 2)" d="M15.9,12.7h2.9V21h-2.9C14.4,17.1,15.9,12.7,15.9,12.7"></path></svg>