<svg xmlns="http://www.w3.org/2000/svg" viewBox="0 0 18 18" height="18" width="18"><title>automobiles-white-14.svg</title><rect fill="none" x="0" y="0" width="18" height="18"></rect><rect x="0" y="0" width="18" height="18" rx="4" ry="4" fill="#231f20"></rect><path fill="#ffffff" transform="translate(2 2)" d="M14,6.8L14,6.8c0-0.8-0.5-1.5-1.3-1.7L11.4,2c-0.1-0.3-0.6-1-1.1-1H3.7c-0.5,0-1,0.7-1.1,1.1L1.3,5.2
	C0.5,5.4,0,6,0,6.8l0,0V9v1h1v2c0,0.6,0.4,1,1,1s1-0.4,1-1v-2h8v2c0,0.6,0.4,1,1,1s1-0.4,1-1v-2h1V9l0,0V6.8z M12.7,7.5
	c0,0.6-0.5,1.1-1.1,1.1s-1.1-0.5-1.1-1.1s0.5-1.1,1.1-1.1C12.2,6.4,12.7,6.9,12.7,7.5z M3.5,2.5C3.5,2.3,3.6,2,3.8,2h6.4
	c0.2,0,0.3,0.3,0.3,0.5L11.6,5H2.4L3.5,2.5z M2.5,6.4c0.6,0,1.1,0.5,1.1,1.1S3.1,8.6,2.5,8.6S1.4,8.1,1.4,7.5S1.9,6.4,2.5,6.4z"></path></svg>