<svg xmlns="http://www.w3.org/2000/svg" viewBox="0 0 27 27" height="27" width="27"><title>automobiles-white-22.svg</title><rect fill="none" x="0" y="0" width="27" height="27"></rect><rect x="0" y="0" width="27" height="27" rx="4" ry="4" fill="#231f20"></rect><path fill="#ffffff" transform="translate(2 2)" d="M22,10.7L22,10.7c0-1.2-0.8-2.3-2-2.6l-2-4.8c-0.3-0.7-1-1.2-1.8-1.2H5.8C5,2.1,4.3,2.6,4,3.3L2,8.1
	c-1.1,0.3-2,1.3-2,2.6l0,0V14v2h2v2c0,0,0,0.3,0,0.5C2,19.3,2.7,20,3.5,20S5,19.3,5,18.5C5,18.3,5,18,5,18v-2h12v2c0,0,0,0.3,0,0.5
	c0,0.8,0.7,1.5,1.5,1.5s1.5-0.7,1.5-1.5c0-0.2,0-0.5,0-0.5v-2h2v-2l0,0V10.7z M3.5,13C2.7,13,2,12.3,2,11.5S2.7,10,3.5,10
	S5,10.7,5,11.5S4.3,13,3.5,13z M3.7,8l1.7-4.2C5.5,3.7,5.7,3.5,6,3.5h10c0.2,0,0.4,0.2,0.5,0.4L18.3,8H3.7z M18.5,13
	c-0.8,0-1.5-0.7-1.5-1.5s0.7-1.5,1.5-1.5s1.5,0.7,1.5,1.5S19.3,13,18.5,13z"></path></svg>