<svg xmlns="http://www.w3.org/2000/svg" viewBox="0 0 18 18" height="18" width="18"><title>baby-changing-station-white-14.svg</title><rect fill="none" x="0" y="0" width="18" height="18"></rect><rect x="0" y="0" width="18" height="18" rx="4" ry="4" fill="#231f20"></rect><path fill="#ffffff" transform="translate(2 2)" d="M7,0c1.1,0,2,0.9,2,2S8.1,4,7,4S5,3.1,5,2S5.9,0,7,0z M5,8V6.6L4.6,7H4v0.5L3.3,8.2C2.6,8.9,1.6,8,2.3,7.3
	L5,4.6c0.2-0.2,0.5-0.3,0.8-0.3H7l0,0h1.2c0.4,0,0.6,0.1,0.9,0.3l2.7,2.7c0.7,0.7-0.3,1.6-1,0.9L10,7.5V7H9.5L9,6.5V8H5z M9.1,8.9
	l-1.6,1.6l1.2,1.2l-1.2,1.2c-0.7,0.7,0.3,1.7,1,1l1.9-1.9c0.4-0.4,0.5-1.2,0.1-1.6C10.4,10.2,9.1,8.9,9.1,8.9z M4.9,8.9l1.6,1.6
	l-1.2,1.2l1.2,1.2c0.7,0.7-0.3,1.7-1,1L3.6,12c-0.4-0.4-0.5-1.2-0.1-1.6L4.9,8.9z"></path></svg>