<svg xmlns="http://www.w3.org/2000/svg" viewBox="0 0 27 27" height="27" width="27"><title>baby-changing-station-white-22.svg</title><rect fill="none" x="0" y="0" width="27" height="27"></rect><rect x="0" y="0" width="27" height="27" rx="4" ry="4" fill="#231f20"></rect><path fill="#ffffff" transform="translate(2 2)" d="M11,0c1.7,0,3.1,1.4,3.1,3.1S12.7,6.2,11,6.2S7.9,4.8,7.9,3.1S9.3,0,11,0z"></path><path fill="#ffffff" transform="translate(2 2)" d="M11,12.7H7.7v-2.4l-2.5,2.5c-1.1,1.1-2.7-0.3-1.5-1.5l4.2-4.2c0.3-0.3,0.7-0.5,1.3-0.5H11l0,0h1.9
	c0.6,0,1,0.2,1.3,0.5l4.2,4.2c1.1,1.1-0.5,2.6-1.5,1.5l-2.6-2.6v2.4H11V12.7z"></path><path fill="#ffffff" transform="translate(2 2)" d="M14.3,13.9l-2.5,2.5l1.8,1.8l-1.9,1.9c-1.1,1.1,0.4,2.7,1.5,1.5l2.9-3.1c0.6-0.6,0.8-1.8,0.1-2.5
	C16.4,16,14.3,13.9,14.3,13.9z"></path><path fill="#ffffff" transform="translate(2 2)" d="M7.7,13.9l2.5,2.5l-1.8,1.8l1.9,1.9c1.1,1.1-0.4,2.7-1.6,1.5l-2.9-3.1C5.2,17.9,5,16.7,5.7,16L7.7,13.9z"></path></svg>