<svg xmlns="http://www.w3.org/2000/svg" viewBox="0 0 18 18" height="18" width="18"><title>baseball-white-14.svg</title><rect fill="none" x="0" y="0" width="18" height="18"></rect><rect x="0" y="0" width="18" height="18" rx="4" ry="4" fill="#231f20"></rect><path fill="#ffffff" transform="translate(2 2)" d="M8.5,1.4c0.6,0,1.1,0.5,1.1,1.1S9.1,3.6,8.5,3.6S7.4,3.1,7.4,2.5S7.9,1.4,8.5,1.4z M11.4,13L10,8.3V4.5
	C10,4,9.5,4,9.5,4H7.4H7c0,0-0.1,0-0.3,0.1L5.6,4.9L4.4,3.6c-0.2-0.2-0.6-0.2-0.8,0C3.3,3.8,3.3,4.1,3.5,4.4L5.1,6
	c0.1,0,0.2,0.1,0.4,0.1c0.1,0,0.2,0,0.3-0.1L7,5.4v2.8L5.6,13c-0.1,0.4,0.1,0.8,0.6,1c0.4,0.1,0.8-0.1,1-0.6l1.4-4.1l1.4,4.1
	c0.1,0.4,0.5,0.7,1,0.6C11.3,13.9,11.5,13.4,11.4,13z M3.2,4.9C3.3,5,3.3,5,3.4,4.9l0,0c0.1-0.1,0.1-0.1,0-0.2L3.2,4.4
	C3.1,4.3,3,4.3,3,4.4l0,0C2.9,4.5,2.9,4.5,3,4.6L3.2,4.9z M6.2,1.4L4.4,3.3l0.2,0.2l2-1.7l1.3-1.2C8,0.5,8,0.4,8,0.3S7.9,0,7.7,0
	C7.6,0,7.5,0,7.4,0.1L6.2,1.4z"></path></svg>