<svg xmlns="http://www.w3.org/2000/svg" viewBox="0 0 27 27" height="27" width="27"><title>baseball-white-22.svg</title><rect fill="none" x="0" y="0" width="27" height="27"></rect><rect x="0" y="0" width="27" height="27" rx="4" ry="4" fill="#231f20"></rect><path fill="#ffffff" transform="translate(2 2)" d="M13,2.3c0.9,0,1.7,0.8,1.7,1.7S13.9,5.7,13,5.7S11.3,4.9,11.3,4S12.1,2.3,13,2.3z"></path><path fill="#ffffff" transform="translate(2 2)" d="M17.6,20.4L15,12.9V7.1c0-0.8-0.8-0.7-0.8-0.7h-2.5H11c0,0-0.1,0-0.4,0.2l-1.8,1L6.9,5.7
	C6.5,5.3,6,5.3,5.6,5.6C5.2,5.9,5.2,6.5,5.5,6.9L8,9.3c0.2,0.2,0.4,0.3,0.7,0.3c0.2,0,0.4-0.1,0.5-0.2L11,8.5v4.3l-2.5,7.5
	c-0.2,0.7,0.2,1.3,0.9,1.5s1.3-0.2,1.5-0.9l2.2-6.5l2.2,6.5c0.2,0.7,0.9,1,1.5,0.9C17.3,21.7,17.7,21,17.6,20.4z"></path><path fill="#ffffff" transform="translate(2 2)" d="M5.1,7.7c0.1,0.1,0.2,0.1,0.3,0l0,0c0.1-0.1,0.1-0.2,0-0.3L5,6.9c-0.1-0.1-0.2-0.1-0.3,0l0,0
	C4.5,7,4.5,7.1,4.6,7.2L5.1,7.7z"></path><path fill="#ffffff" transform="translate(2 2)" d="M9.7,2.1L6.9,5.2l0.3,0.3l3.2-2.7l2.1-1.9c0.1-0.1,0.1-0.2,0.1-0.3c0-0.3-0.2-0.5-0.5-0.5
	c-0.1,0-0.3,0.1-0.4,0.1L9.7,2.1z"></path></svg>