<svg xmlns="http://www.w3.org/2000/svg" viewBox="0 0 27 27" height="27" width="27"><title>beach-access-white-22.svg</title><rect fill="none" x="0" y="0" width="27" height="27"></rect><rect x="0" y="0" width="27" height="27" rx="4" ry="4" fill="#231f20"></rect><path fill="#ffffff" transform="translate(2 2)" d="M17.3,7.3c1-1.2,3.4-1.8,4.7-0.7C18.7,2,14.6-1,8.8,1C13.3,2.4,16.5,6.6,17.3,7.3"></path><path fill="#ffffff" transform="translate(2 2)" d="M0,12.8c1.4-1.6,3.8-2.8,6-2.6C6,8,6.2,4.1,7.6,1.3C2.9,1.9,0.8,9.1,0,12.8z"></path><path fill="#ffffff" transform="translate(2 2)" d="M16.3,21.3L11.1,7c1.5-0.5,3.2-0.5,4.8,0.2C13.4,4.7,11.7,3.2,8.6,2c-1.1,0.4-1.4,6.9-1.3,8.3C7.9,9,9,8,10.2,7.4
			l5.2,14.2L16.3,21.3z"></path></svg>