<?xml version="1.0" encoding="utf-8"?>
<!-- Generator: Adobe Illustrator 25.4.1, SVG Export Plug-In . SVG Version: 6.00 Build 0)  -->
<svg version="1.1" id="Layer_1" xmlns="http://www.w3.org/2000/svg" xmlns:xlink="http://www.w3.org/1999/xlink" x="0px" y="0px"
	 width="18px" height="18px" viewBox="0 0 18 18" enable-background="new 0 0 18 18" xml:space="preserve">
<path fill="#231F20" d="M4,0h10c2.2,0,4,1.8,4,4v10c0,2.2-1.8,4-4,4H4c-2.2,0-4-1.8-4-4V4C0,1.8,1.8,0,4,0z"/>
<path fill="#FFFFFF" d="M7,6V5c0-0.4-1.6-0.3-2-0.3c0,0,1,1.3-0.5,2.2C4.8,6.7,3,7.1,3,7.5v0.7V16h4V8.2V7.5c0-0.4-0.1-1-0.5-1
	C6.9,6.5,7,6.4,7,6z M11,7h1v9h-1V7z M4.5,4C3.7,4,3,4.7,3,5.5S3.7,7,4.5,7S6,6.3,6,5.5S5.3,4,4.5,4z M5,6H4V5h1V6z M8.5,5
	C8.8,5,9,5.2,9,5.5S8.8,6,8.5,6S8,5.8,8,5.5S8.2,5,8.5,5z M9.5,5C9.8,5,10,5.2,10,5.5S9.8,6,9.5,6S9,5.8,9,5.5S9.2,5,9.5,5z M10.5,4
	C10.8,4,11,4.2,11,4.5S10.8,5,10.5,5S10,4.8,10,4.5S10.2,4,10.5,4z M11.5,5C11.8,5,12,5.2,12,5.5S11.8,6,11.5,6S11,5.8,11,5.5
	S11.2,5,11.5,5z M11.5,3C11.8,3,12,3.2,12,3.5S11.8,4,11.5,4S11,3.8,11,3.5S11.2,3,11.5,3z M12.5,4C12.8,4,13,4.2,13,4.5
	S12.8,5,12.5,5S12,4.8,12,4.5S12.2,4,12.5,4z M12.5,6C12.8,6,13,6.2,13,6.5S12.8,7,12.5,7S12,6.8,12,6.5S12.2,6,12.5,6z M13.5,3
	C13.8,3,14,3.2,14,3.5S13.8,4,13.5,4S13,3.8,13,3.5S13.2,3,13.5,3z M14.5,2C14.8,2,15,2.2,15,2.5S14.8,3,14.5,3S14,2.8,14,2.5
	S14.2,2,14.5,2z M14.5,8C14.8,8,15,8.2,15,8.5S14.8,9,14.5,9S14,8.8,14,8.5S14.2,8,14.5,8z M13.5,5C13.8,5,14,5.2,14,5.5
	S13.8,6,13.5,6S13,5.8,13,5.5S13.2,5,13.5,5z M15.5,5C15.8,5,16,5.2,16,5.5S15.8,6,15.5,6S15,5.8,15,5.5S15.2,5,15.5,5z M13.5,7
	C13.8,7,14,7.2,14,7.5S13.8,8,13.5,8S13,7.8,13,7.5S13.2,7,13.5,7z M10.5,6C10.8,6,11,6.2,11,6.5S10.8,7,10.5,7S10,6.8,10,6.5
	S10.2,6,10.5,6z M11.5,15.2c-1.5,0-2.7-0.9-2.7-2.1h0.9c0,0.6,0.8,1.2,1.8,1.2s1.8-0.5,1.8-1.2c0-0.6-0.8-1.2-1.8-1.2l0,0
	c-0.9,0-1.6-0.3-2.1-0.8C9,10.9,8.8,10.4,8.8,10c0-1.2,1.2-2.1,2.7-2.1s2.7,0.9,2.7,2.1h-0.9c0-0.6-0.8-1.2-1.8-1.2S9.7,9.3,9.7,10
	c0,0.6,0.8,1.2,1.8,1.2l0,0c0.9,0,1.6,0.3,2.1,0.8c0.4,0.4,0.6,0.8,0.6,1.3C14.2,14.3,13,15.2,11.5,15.2z"/>
</svg>
