<svg xmlns="http://www.w3.org/2000/svg" viewBox="0 0 18 18" height="18" width="18"><title>bear-box-white-14.svg</title><rect fill="none" x="0" y="0" width="18" height="18"></rect><rect x="0" y="0" width="18" height="18" rx="4" ry="4" fill="#231f20"></rect><path fill="#ffffff" transform="translate(2 2)" d="M14,2V1H8v12h6v-1H9V2H14z M13.3,4.3c0,0-0.1,1.8-1.7,1.7C11.6,6,11.4,4.4,13.3,4.3z M12.8,6.6
	c0.6,0,1.2,0.3,1.2,1c0,0,0,0,0,0.1l0,0c0,0.3-0.1,0.6-0.3,1c0,0-0.3,0.6-0.6,0.9l0,0c-0.1,0.1-0.3,0.2-0.5,0.2S12.1,9.7,12,9.5l0,0
	c-0.1,0.2-0.3,0.3-0.6,0.3c-0.2,0-0.4-0.1-0.5-0.2l0,0c-0.3-0.3-0.6-0.9-0.6-0.9C10.1,8.3,10,8,10,7.7l0,0c0,0,0,0,0-0.1
	c0-0.6,0.5-1,1.2-1c0.3,0,0.6,0.2,0.8,0.4C12,7,12.5,6.6,12.8,6.6z M6.2,6.3L4.7,5.5V5.4c0-0.6-0.4-1.1-1-1.2L3.2,4.1
	c0-0.1,0-0.2,0-0.2C3.3,3.4,2.8,3,2.3,3S1.4,3.4,1.4,3.9V4L0,4.2V11l1.8-2l3.5-0.4C5.7,8.5,6,8.3,6.2,8l0.4-0.9c0-0.1,0-0.2,0-0.2
	C6.6,6.6,6.4,6.4,6.2,6.3z"></path></svg>