<svg xmlns="http://www.w3.org/2000/svg" viewBox="0 0 18 18" height="18" width="18"><title>bear-viewing-white-14.svg</title><rect fill="none" x="0" y="0" width="18" height="18"></rect><rect x="0" y="0" width="18" height="18" rx="4" ry="4" fill="#231f20"></rect><path fill="#ffffff" transform="translate(2 2)" d="M1.5,7.4C1.3,7.1,1.2,6.7,1.1,6.3H1C0.7,6.3,0.4,6,0.4,5.7c0-0.2,0.1-0.4,0.3-0.5L2.4,4
	c0.4-0.2,0.8-0.4,1.2-0.4h4.2l3.1-0.5l0,0c0-0.3,0.2-0.6,0.6-0.6S12,2.8,12,3.2v0.1h0.3c0.3,0.1,0.6,0.4,0.6,0.7c0,0,0,0,0,0.1
	l0.9,0.5C13.9,4.7,14,4.8,14,4.9s0,0.1,0,0.2l-0.2,0.5c-0.1,0.2-0.3,0.3-0.5,0.3l-2.1,0.3l-2,2.2l1.5,2.4l0.7,0.3
	c0.1,0.1,0.2,0.2,0.2,0.4s-0.2,0.4-0.4,0.4H9.8c-0.4,0-0.7-0.2-0.8-0.5L7.4,8.8H4.8l0.9,2l0.7,0.3c0.1,0.1,0.2,0.2,0.2,0.4
	s-0.2,0.4-0.4,0.4H4.8c-0.3,0-0.6-0.2-0.8-0.4L2.7,8.9l-1.2,1.4l-0.1,0.6l0.3,0.2c0.1,0,0.1,0.1,0.1,0.1c0.2,0.2,0.2,0.4,0,0.6
	c-0.1,0.1-0.2,0.1-0.3,0.1H1.2c-0.2,0-0.3-0.1-0.4-0.2l-0.7-1.2C0,10.3,0,10.2,0,10s0.1-0.5,0.2-0.6L1.5,7.4z"></path><path fill="#ffffff" transform="translate(2 2)" d="M1.5,7.4C1.3,7.1,1.2,6.7,1.1,6.3H1C0.7,6.3,0.4,6,0.4,5.7c0-0.2,0.1-0.4,0.3-0.5L2.4,4
	c0.4-0.2,0.8-0.4,1.2-0.4h4.2l3.1-0.5l0,0c0-0.3,0.2-0.6,0.6-0.6S12,2.8,12,3.2v0.1h0.3c0.3,0.1,0.6,0.4,0.6,0.7c0,0,0,0,0,0.1
	l0.9,0.5C13.9,4.7,14,4.8,14,4.9s0,0.1,0,0.2l-0.2,0.5c-0.1,0.2-0.3,0.3-0.5,0.3l-2.1,0.3l-2,2.2l1.5,2.4l0.7,0.3
	c0.1,0.1,0.2,0.2,0.2,0.4s-0.2,0.4-0.4,0.4H9.8c-0.4,0-0.7-0.2-0.8-0.5L7.4,8.8H4.8l0.9,2l0.7,0.3c0.1,0.1,0.2,0.2,0.2,0.4
	s-0.2,0.4-0.4,0.4H4.8c-0.3,0-0.6-0.2-0.8-0.4L2.7,8.9l-1.2,1.4l-0.1,0.6l0.3,0.2c0.1,0,0.1,0.1,0.1,0.1c0.2,0.2,0.2,0.4,0,0.6
	c-0.1,0.1-0.2,0.1-0.3,0.1H1.2c-0.2,0-0.3-0.1-0.4-0.2l-0.7-1.2C0,10.3,0,10.2,0,10s0.1-0.5,0.2-0.6L1.5,7.4z"></path></svg>