<svg xmlns="http://www.w3.org/2000/svg" viewBox="0 0 27 27" height="27" width="27"><title>bear-spray-return-recycling-white-22.svg</title><rect fill="none" x="0" y="0" width="27" height="27"></rect><rect x="0" y="0" width="27" height="27" rx="4" ry="4" fill="#231f20"></rect><path fill="#ffffff" transform="translate(2 2)" d="M9,4h2v1H9V4z M11,3h2v1h-2V3z M11,5h2v1h-2V5z M13,6h1v1h-1V6z M15,7h1v1h-1V7z M17,8h1v1h-1V8z M17,0h1v1
	h-1V0z M15,1h1v1h-1V1z M13,2h1v1h-1V2z M18,2h1v1h-1V2z M19,4h1v1h-1V4z M18,6h1v1h-1V6z M17,4h1v1h-1V4z M16,3h1v1h-1V3z M14,3h1
	v1h-1V3z M15,4h1v1h-1V4z M16,5h1v1h-1V5z M13,4h1v1h-1V4z M14,5h1v1h-1V5z"></path><path fill="#ffffff" transform="translate(2 2)" d="M8,5.5V4.4c0-0.6-0.5-1.2-1.2-1.2H5.3C4.9,2.5,4.2,2,3.3,2C2,2,0.9,3.1,0.9,4.4S2,6.7,3.3,6.7
	C2.6,6.7,2,7.4,2,8v1v13h6V9.1V8c0-0.6-0.5-1.3-1.2-1.3C7.5,6.7,8,6.2,8,5.5z M2.1,4.4c0-0.6,0.5-1.2,1.2-1.2c0.2,0,0.4,0.1,0.6,0.2
	c0.3,0.2,0.6,0.6,0.6,1C4.5,5,4,5.6,3.3,5.6S2.1,5,2.1,4.4z"></path><path fill="#ffffff" transform="translate(2 2)" d="M11.9,16.5l0.7-1.3l0.8,0.4l-1.3-1.8l-2.2-0.2l1,0.6l-1.3,2.3L11,19h3v-2h-1.8L11.9,16.5z M16.2,13.1
	l-0.7,0.4l2.2-0.1l1.2-1.9l-1,0.6l-1.4-2.5h-3L12,12.3l1.6,1.1l1.1-1.8h0.6L16.2,13.1z M17.3,15l0.9,1.6L17.9,17H16v-1l-1,2l1,2v-1
	h3.1l1.4-2.4L19,13.9L17.3,15z"></path></svg>