<svg xmlns="http://www.w3.org/2000/svg" viewBox="0 0 18 18" height="18" width="18"><title>bear-cannister-rentals-white-14.svg</title><rect fill="none" x="0" y="0" width="18" height="18"></rect><rect x="0" y="0" width="18" height="18" rx="4" ry="4" fill="#231f20"></rect><path fill="#ffffff" transform="translate(2 2)" d="M11.3,4.3c0,0-0.1,1.8-1.7,1.7C9.6,6,9.4,4.4,11.3,4.3z"></path><path fill="#ffffff" transform="translate(2 2)" d="M10.8,6.6c0.6,0,1.2,0.3,1.2,1c0,0,0,0,0,0.1l0,0c0,0.3-0.1,0.6-0.3,1c0,0-0.3,0.6-0.6,0.9l0,0
	c-0.1,0.1-0.3,0.2-0.5,0.2S10.1,9.7,10,9.5l0,0C9.9,9.6,9.7,9.7,9.4,9.7C9.2,9.7,9,9.6,8.9,9.5l0,0C8.6,9.2,8.3,8.6,8.3,8.6
	C8.1,8.2,8,7.9,8,7.6l0,0c0,0,0,0,0-0.1c0-0.6,0.5-1,1.2-1C9.5,6.6,9.8,6.8,10,7C10,7,10.5,6.6,10.8,6.6z"></path><path fill="#ffffff" transform="translate(2 2)" d="M5.2,6.3L3.7,5.5V5.4c0-0.6-0.4-1.1-1-1.2L2.2,4.1c0-0.1,0-0.2,0-0.2C2.3,3.4,1.8,3,1.3,3S0.4,3.4,0.4,3.9V4
	H0v5.8L0.8,9l3.5-0.4C4.7,8.5,5,8.3,5.2,8l0.4-0.9c0-0.1,0-0.2,0-0.2C5.6,6.6,5.4,6.4,5.2,6.3z"></path><path fill="#ffffff" transform="translate(2 2)" d="M10,1C7.8,1,6,1.4,6,2v10c0,0.6,1.8,1,4,1s4-0.4,4-1V2C14,1.4,12.2,1,10,1z M7,11.6v-9C7.7,2.9,8.8,3,10,3
	s2.3-0.1,3-0.3v9c-0.7,0.2-1.8,0.4-3,0.4S7.7,11.9,7,11.6z"></path></svg>
