<svg xmlns="http://www.w3.org/2000/svg" viewBox="0 0 27 27" height="27" width="27"><title>bear-spray-white-22.svg</title><rect fill="none" x="0" y="0" width="27" height="27"></rect><rect x="0" y="0" width="27" height="27" rx="4" ry="4" fill="#231f20"></rect><path fill="#ffffff" transform="translate(2 2)" d="M10,4h2v1h-2V4z M12,3h2v1h-2V3z M12,5h2v1h-2V5z M14,6h1v1h-1V6z M16,7h1v1h-1V7z M18,8h1v1h-1V8z M18,0h1
	v1h-1V0z M16,1h1v1h-1V1z M14,2h1v1h-1V2z M19,2h1v1h-1V2z M20,4h1v1h-1V4z M19,6h1v1h-1V6z M18,4h1v1h-1V4z M17,3h1v1h-1V3z M15,3
	h1v1h-1V3z M16,4h1v1h-1V4z M17,5h1v1h-1V5z M14,4h1v1h-1V4z M15,5h1v1h-1V5z"></path><path fill="#ffffff" transform="translate(2 2)" d="M9,5.5V4.4c0-0.6-0.5-1.2-1.2-1.2H6.3C5.9,2.5,5.2,2,4.3,2C3,2,1.9,3.1,1.9,4.4S3,6.7,4.3,6.7
	C3.6,6.7,3,7.4,3,8v1v13h6V9.1V8c0-0.6-0.5-1.3-1.2-1.3C8.5,6.7,9,6.2,9,5.5z M3.1,4.4c0-0.6,0.5-1.2,1.2-1.2c0.2,0,0.4,0.1,0.6,0.2
	c0.3,0.2,0.6,0.6,0.6,1C5.5,5,5,5.6,4.3,5.6S3.1,5,3.1,4.4z"></path></svg>