<svg xmlns="http://www.w3.org/2000/svg" viewBox="0 0 27 27" height="27" width="27"><title>bear-spray-purchase-white-22.svg</title><rect fill="none" x="0" y="0" width="27" height="27"></rect><rect x="0" y="0" width="27" height="27" rx="4" ry="4" fill="#231f20"></rect><path fill="#ffffff" transform="translate(2 2)" d="M9,4h2v1H9V4z M11,3h2v1h-2V3z M11,5h2v1h-2V5z M13,6h1v1h-1V6z M15,7h1v1h-1V7z M17,8h1v1h-1V8z M17,0h1v1
	h-1V0z M15,1h1v1h-1V1z M13,2h1v1h-1V2z M18,2h1v1h-1V2z M19,4h1v1h-1V4z M18,6h1v1h-1V6z M17,4h1v1h-1V4z M16,3h1v1h-1V3z M14,3h1
	v1h-1V3z M15,4h1v1h-1V4z M16,5h1v1h-1V5z M13,4h1v1h-1V4z M14,5h1v1h-1V5z"></path><path fill="#ffffff" transform="translate(2 2)" d="M8,5.5V4.4c0-0.6-0.5-1.2-1.2-1.2H5.3C4.9,2.5,4.2,2,3.3,2C2,2,0.9,3.1,0.9,4.4S2,6.7,3.3,6.7
	C2.6,6.7,2,7.4,2,8v1v13h6V9.1V8c0-0.6-0.5-1.3-1.2-1.3C7.5,6.7,8,6.2,8,5.5z M2.1,4.4c0-0.6,0.5-1.2,1.2-1.2c0.2,0,0.4,0.1,0.6,0.2
	c0.3,0.2,0.6,0.6,0.6,1C4.5,5,4,5.6,3.3,5.6S2.1,5,2.1,4.4z"></path><path fill="#ffffff" transform="translate(2 2)" d="M17.7,15.7c-0.3-0.2-0.8-0.4-1.5-0.6L15,14.8v-2.3c0.3,0,0.6,0.1,0.8,0.2c0.4,0.2,0.7,0.6,0.7,1.1h1.7
	c0-0.9-0.3-1.6-1-2.1C16.6,11.2,15.8,11,15,11v-1h-1v1.1c-0.7,0.1-1.3,0.4-1.7,0.7c-0.6,0.5-0.9,1.1-0.9,1.9c0,0.9,0.3,1.5,0.9,1.9
	c0.3,0.3,0.9,0.5,1.7,0.7v2.4c-0.3-0.1-0.5-0.2-0.7-0.4c-0.1-0.2-0.2-0.5-0.3-0.9l-1.7,0.1c0,0.9,0.3,1.6,1,2.1
	c0.5,0.3,1,0.6,1.7,0.7V21h1v-0.7c1.1,0,2-0.2,2.6-0.8c0.6-0.6,0.9-1.2,0.9-2S18.2,16.1,17.7,15.7z M13.6,14.3
	c-0.3-0.2-0.4-0.4-0.4-0.7c0-0.4,0.2-0.6,0.4-0.8c0.1-0.1,0.2-0.2,0.4-0.2v1.9C13.8,14.4,13.7,14.3,13.6,14.3z M15.9,18.6
	c-0.2,0.1-0.6,0.1-0.9,0.1v-2.2l0.1,0c0.5,0.1,0.9,0.2,1.2,0.4c0.3,0.2,0.4,0.4,0.4,0.7C16.7,18.1,16.4,18.4,15.9,18.6z"></path></svg>