<svg xmlns="http://www.w3.org/2000/svg" viewBox="0 0 18 18" height="18" width="18"><title>bear-spray-return-recycling-white-14.svg</title><rect fill="none" x="0" y="0" width="18" height="18"></rect><rect x="0" y="0" width="18" height="18" rx="4" ry="4" fill="#231f20"></rect><path fill="#ffffff" transform="translate(2 2)" d="M5,4V3c0-0.4-1.6-0.3-2-0.3c0,0,1,1.3-0.5,2.2C2.8,4.7,1,5.1,1,5.5v0.7V14h4V6.2V5.5c0-0.4-0.1-1-0.5-1
	C4.9,4.5,5,4.4,5,4z M6,3h2v1H6V3z M8,2h1v1H8V2z M8,4h1v1H8V4z M9,3h1v1H9V3z M10,2h1v1h-1V2z M10,4h1v1h-1V4z M9,1h1v1H9V1z M11,1
	h1v1h-1V1z M12,0h1v1h-1V0z M12,6h1v1h-1V6z M13,3h1v1h-1V3z M11,3h1v1h-1V3z M11,5h1v1h-1V5z M2.5,2C1.7,2,1,2.7,1,3.5S1.7,5,2.5,5
	S4,4.3,4,3.5S3.3,2,2.5,2z M3,4H2V3h1V4z M10.3,10.3l0.5,0.7H9v1h2l0.7-1.3l-0.5-0.9L10.3,10.3z M7.2,9.1l-1,1.6L7,12l0,0h1v-1H7.2
	L8,9.6L7.2,9.1z M9.8,9.4l0.9-0.5l-1-1.6H8.3L7.7,8.2l0.8,0.6L9,8L9.8,9.4z"></path></svg>