<svg xmlns="http://www.w3.org/2000/svg" viewBox="0 0 27 27" height="27" width="27"><title>bear-viewing-white-22.svg</title><rect fill="none" x="0" y="0" width="27" height="27"></rect><rect x="0" y="0" width="27" height="27" rx="4" ry="4" fill="#231f20"></rect><path fill="#ffffff" transform="translate(2 2)" d="M2.4,11.7c-0.3-0.5-0.6-1.1-0.6-1.8c-0.1,0-0.1,0-0.2,0c-0.6,0-1-0.4-1-0.9c0-0.3,0.2-0.6,0.4-0.8l2.7-1.9
	C4.3,6,4.9,5.8,5.6,5.8h6.6L17.1,5V4.9C17.1,4.4,17.5,4,18,4s0.9,0.4,0.9,0.9c0,0.1,0,0.2,0,0.2l0.4,0.1c0.5,0.1,0.9,0.6,0.9,1.1
	v0.1l1.4,0.8C21.8,7.3,22,7.5,22,7.8C22,7.9,22,8,22,8l-0.4,0.8c-0.2,0.3-0.5,0.5-0.8,0.5l-3.3,0.4l-3,3.5l1.7,2.9l1.1,0.5
	c0.2,0.1,0.3,0.3,0.3,0.6c0,0.4-0.3,0.7-0.7,0.7h-2.2c-0.6,0-1-0.3-1.3-0.8l-1.8-3.3H7.4l1.5,2.3l1.1,0.5c0.2,0.1,0.3,0.3,0.3,0.6
	c0,0.4-0.3,0.7-0.7,0.7H7.4c-0.5,0-1-0.3-1.2-0.7l-2-3.2l-1.4,1.4l-0.1,0.9l0.5,0.3c0.1,0,0.2,0.1,0.2,0.2c0.2,0.3,0.2,0.7-0.1,1
	C3.2,17.9,3,18,2.9,18H2c-0.3,0-0.5-0.2-0.7-0.4l-1.1-1.9C0.1,15.3,0,15.1,0,14.8c0-0.4,0.1-0.7,0.4-1L2.4,11.7z"></path></svg>