<svg xmlns="http://www.w3.org/2000/svg" viewBox="0 0 18 18" height="18" width="18"><title>bear-spray-purchase-white-14.svg</title><rect fill="none" x="0" y="0" width="18" height="18"></rect><rect x="0" y="0" width="18" height="18" rx="4" ry="4" fill="#231f20"></rect><path fill="#ffffff" transform="translate(2 2)" d="M5,4V3c0-0.4-1.6-0.3-2-0.3c0,0,1,1.3-0.5,2.2C2.8,4.7,1,5.1,1,5.5v0.7V14h4V6.2V5.5c0-0.4-0.1-1-0.5-1
	C4.9,4.5,5,4.4,5,4z M6,3h2v1H6V3z M8,2h1v1H8V2z M8,4h1v1H8V4z M9,3h1v1H9V3z M10,2h1v1h-1V2z M10,4h1v1h-1V4z M9,1h1v1H9V1z M11,1
	h1v1h-1V1z M12,0h1v1h-1V0z M12,6h1v1h-1V6z M13,3h1v1h-1V3z M11,3h1v1h-1V3z M11,5h1v1h-1V5z M9,5h1v9H9V5z M2.5,2
	C1.7,2,1,2.7,1,3.5S1.7,5,2.5,5S4,4.3,4,3.5S3.3,2,2.5,2z M3,4H2V3h1V4z M7.5,11.2c0,0.3,0.1,0.6,0.2,0.8s0.3,0.4,0.5,0.5
	s0.4,0.2,0.6,0.3c0.2,0.1,0.5,0.1,0.8,0.1s0.6,0,0.8-0.1s0.4-0.2,0.6-0.3c0.1-0.1,0.3-0.3,0.3-0.5c0.1-0.2,0.1-0.4,0.1-0.6
	c0-0.3-0.1-0.5-0.2-0.7c-0.1-0.2-0.3-0.3-0.5-0.4c-0.2-0.1-0.4-0.2-0.7-0.3c-0.2,0-0.5-0.1-0.8-0.1C9,9.8,8.7,9.7,8.4,9.7
	C8.2,9.6,7.9,9.4,7.7,9.3C7.5,9.2,7.4,9,7.2,8.7C7.1,8.5,7.1,8.2,7.1,7.9c0-0.2,0.1-0.5,0.2-0.7s0.3-0.4,0.5-0.6s0.5-0.3,0.8-0.4
	C8.7,6,9.1,5.9,9.5,5.9s0.8,0.1,1.1,0.2s0.6,0.3,0.8,0.5s0.4,0.4,0.5,0.7C12,7.6,12,7.8,12,8.1h-0.6c0-0.3,0-0.5-0.1-0.7
	C11,7.2,10.9,7,10.7,6.9s-0.4-0.2-0.6-0.3C9.9,6.5,9.7,6.5,9.5,6.5c-0.3,0-0.6,0-0.9,0.1C8.4,6.8,8.2,6.9,8,7
	C7.9,7.2,7.8,7.4,7.8,7.5c-0.1,0.2-0.1,0.4,0,0.6c0,0.2,0.1,0.4,0.3,0.6C8.2,8.8,8.3,8.9,8.5,9C8.8,9.1,9,9.2,9.3,9.2
	C9.5,9.3,9.8,9.3,10,9.4s0.5,0.1,0.8,0.2c0.2,0.1,0.5,0.2,0.7,0.3s0.3,0.3,0.5,0.6c0.1,0.2,0.2,0.5,0.2,0.9c0,0.7-0.2,1.2-0.7,1.5
	c-0.5,0.4-1.1,0.6-1.9,0.6c-0.4,0-0.7,0-1-0.1S8,13.2,7.8,13s-0.4-0.4-0.5-0.7s-0.2-0.6-0.2-1h0.4C7.5,11.3,7.5,11.2,7.5,11.2z"></path></svg>