<svg xmlns="http://www.w3.org/2000/svg" viewBox="0 0 18 18" height="18" width="18"><title>benches-seating-white-14.svg</title><rect fill="none" x="0" y="0" width="18" height="18"></rect><rect x="0" y="0" width="18" height="18" rx="4" ry="4" fill="#231f20"></rect><path fill="#ffffff" transform="translate(2 2)" d="M4.8,4.8c-0.4-1.7,2-2.2,2.4-0.5l0.7,3.3h2.4c0.7,0,1.1,0.6,1.1,1.1v4.4c0,1.1-1.5,1.1-1.5,0
	c0-1,0-3.5,0-3.5h-3c-0.7,0-1.4-0.5-1.3-1.1L4.8,4.8z M6.5,0c0.8,0,1.4,0.6,1.4,1.4S7.3,2.8,6.5,2.8S5.1,2.2,5.1,1.4S5.7,0,6.5,0z
	 M7.9,12c-0.1,0-1.8,0-2.7-0.1c-1.1-0.1-1.6-1.1-1.9-1.7C3.2,9.7,2.8,7.4,2.6,6.7c0-0.3,0.1-0.5,0.4-0.6c0.3,0,0.5,0.1,0.6,0.4
	c0.2,1.4,0.5,2.9,0.6,3.2s0.5,1.2,1.1,1.3c0.8,0.1,2.6,0,2.6,0c0.3,0,0.5,0.2,0.5,0.5S8.2,12,7.9,12z"></path></svg>