<svg xmlns="http://www.w3.org/2000/svg" viewBox="0 0 27 27" height="27" width="27"><title>benches-seating-white-22.svg</title><rect fill="none" x="0" y="0" width="27" height="27"></rect><rect x="0" y="0" width="27" height="27" rx="4" ry="4" fill="#231f20"></rect><path fill="#ffffff" transform="translate(2 2)" d="M7.3,7.6c-0.4-2.6,3.4-3.4,4-0.7l1,5.1h3.8c1.1,0,1.7,0.9,1.7,1.7v7c0,1.7-2.4,1.7-2.4,0c0-1.6,0-5.4,0-5.4
	h-4.9c-1.1,0-1.9-0.8-2-1.7L7.3,7.6z"></path><path fill="#ffffff" transform="translate(2 2)" d="M9.1,0c1.3,0,2.3,1,2.3,2.3s-1,2.3-2.3,2.3s-2.3-1-2.3-2.3S7.8,0,9.1,0z"></path><path fill="#ffffff" transform="translate(2 2)" d="M4.2,10.4C3.9,8.9,5.8,8.5,6.1,10l0.8,4.6c0.2,1,0.9,1.8,1.9,2.1c0.3,0.1,0.6,0.1,0.9,0.1h2.8
	c1.5,0,1.5,1.9,0,1.9H9.6c-0.4,0-0.9-0.1-1.3-0.2c-1.8-0.5-3-1.9-3.3-3.6L4.2,10.4z"></path></svg>