<svg xmlns="http://www.w3.org/2000/svg" viewBox="0 0 18 18" height="18" width="18"><title>bicycle-trail-white-14.svg</title><rect fill="none" x="0" y="0" width="18" height="18"></rect><rect x="0" y="0" width="18" height="18" rx="4" ry="4" fill="#231f20"></rect><path fill="#ffffff" transform="translate(2 2)" d="M9.2,1.3c0.7,0,1.3,0.6,1.3,1.3S9.9,3.9,9.2,3.9S7.9,3.3,7.9,2.6S8.5,1.3,9.2,1.3z M8.6,7
	C8.4,6.5,8.3,6.4,8.2,6.2l-0.7-1L6.3,6.6l1.1,0.6C8,7.3,7.9,7.8,8,7.8v2.6c-0.1,0.3-0.4,0.5-0.7,0.5c-0.3,0-0.5-0.3-0.3-0.5V8.3
	L4.8,7.2C4.5,7.1,4.4,6.8,4.4,6.5c0-0.2,0.1-0.3,0.2-0.5l2-2c0.3-0.3,0.6-0.3,0.6-0.3C7.6,3.7,7.8,4,7.8,4l1,2h1.6
	c0.5-0.2,0.5,0.5,0,1H8.6L8.6,7z M2.6,8.3c1,0,1.8,0.8,1.8,1.8s-0.8,1.8-1.8,1.8S0.9,11,0.9,10.1S1.7,8.3,2.6,8.3 M2.6,7.4
	C1.1,7.4,0,8.6,0,10.1s1.1,2.6,2.6,2.6s2.6-1.1,2.6-2.6S4.1,7.4,2.6,7.4L2.6,7.4z M11.4,8.3c1,0,1.8,0.8,1.8,1.8s-0.8,1.8-1.8,1.8
	S9.6,11,9.6,10.1S10.4,8.3,11.4,8.3 M11.4,7.4c-1.5,0-2.6,1.1-2.6,2.6s1.1,2.6,2.6,2.6S14,11.5,14,10S12.9,7.4,11.4,7.4L11.4,7.4z"></path></svg>