<?xml version="1.0" encoding="utf-8"?>
<!-- Generator: Adobe Illustrator 27.9.1, SVG Export Plug-In . SVG Version: 6.00 Build 0)  -->
<svg version="1.1" id="Layer_1" xmlns="http://www.w3.org/2000/svg" xmlns:xlink="http://www.w3.org/1999/xlink" x="0px" y="0px"
	 viewBox="0 0 18 18" enable-background="new 0 0 18 18" xml:space="preserve">
<rect fill="none" width="18" height="18"/>
<path fill="#231F20" d="M4,0h10c2.2,0,4,1.8,4,4v10c0,2.2-1.8,4-4,4H4c-2.2,0-4-1.8-4-4V4C0,1.8,1.8,0,4,0z"/>
<g>
	<path fill="#FFFFFF" d="M4.6,10.3c1,0,1.8,0.8,1.8,1.8s-0.8,1.8-1.8,1.8S2.9,13,2.9,12.1S3.7,10.3,4.6,10.3 M4.6,9.4
		C3.1,9.4,2,10.6,2,12.1s1.1,2.6,2.6,2.6s2.6-1.1,2.6-2.6S6.1,9.4,4.6,9.4L4.6,9.4z"/>
</g>
<g>
	<path fill="#FFFFFF" d="M13.4,10.3c1,0,1.8,0.8,1.8,1.8s-0.8,1.8-1.8,1.8s-1.8-0.9-1.8-1.8S12.4,10.3,13.4,10.3 M13.4,9.4
		c-1.5,0-2.6,1.1-2.6,2.6s1.1,2.6,2.6,2.6S16,13.5,16,12S14.9,9.4,13.4,9.4L13.4,9.4z"/>
</g>
<path fill="#FFFFFF" d="M10.3,5.5c0.6,0,1.1-0.5,1.1-1.1s-0.5-1.1-1.1-1.1S9.2,3.8,9.2,4.4C9.3,5,9.8,5.5,10.3,5.5"/>
<path fill="#FFFFFF" d="M10.4,8c-0.2,0-0.3,0-0.5-0.2L9.3,6.7L7.8,8.1l1.3,0.7c0.5,0.3,0.5,0.7,0.5,0.7v3c0,0.3-0.3,0.6-0.6,0.6
	c-0.3,0-0.6-0.3-0.6-0.6v-2.4L6.1,8.9C5.8,8.7,5.6,8.4,5.6,8.1c0-0.2,0.1-0.4,0.2-0.6l2.3-2.3C8.4,4.9,8.8,5,8.8,5
	c0.5,0,0.7,0.4,0.7,0.4l1.2,1.8h1.8c0.6,0,0.6,0.8,0,0.8H10.4z"/>
</svg>
