<svg xmlns="http://www.w3.org/2000/svg" viewBox="0 0 27 27" height="27" width="27"><title>bicycle-trail-white-22.svg</title><rect fill="none" x="0" y="0" width="27" height="27"></rect><rect x="0" y="0" width="27" height="27" rx="4" ry="4" fill="#231f20"></rect><path fill="#ffffff" transform="translate(2 2)" d="M13.9,1c1.1,0,2,0.9,2,2s-0.9,2-2,2s-2-0.9-2-2S12.8,1,13.9,1z"></path><path fill="#ffffff" transform="translate(2 2)" d="M4.5,20C6.4,20,8,18.4,8,16.5S6.4,13,4.5,13S1,14.6,1,16.5S2.6,20,4.5,20z M0,16.5C0,14,2,12,4.5,12
	S9,14,9,16.5S7,21,4.5,21S0,19,0,16.5z"></path><path fill="#ffffff" transform="translate(2 2)" d="M17.5,20c1.9,0,3.5-1.6,3.5-3.5S19.4,13,17.5,13S14,14.6,14,16.5S15.6,20,17.5,20z M13,16.5
	c0-2.5,2-4.5,4.5-4.5s4.5,2,4.5,4.5S20,21,17.5,21S13,19,13,16.5z"></path><path fill="#ffffff" transform="translate(2 2)" d="M13.1,9.8c-0.2,0-0.5-0.1-0.7-0.4l-1.1-1.7L9.1,9.9l2.1,1.1c0.9,0.4,0.9,1,0.9,1v5c0,0.5-0.6,0.9-1.2,0.9
	S10,17.6,10,17v-4l-3.8-1.9c-0.4-0.3-0.7-0.7-0.7-1.2C5.6,9.5,5.7,9.2,6,9l3.5-3.5C9.9,4.9,10.6,5,10.6,5c0.7,0,1.1,0.6,1.1,0.6
	l1.8,2.9h2.8c1,0,1,1.3,0,1.3H13.1L13.1,9.8z"></path></svg>