<?xml version="1.0" encoding="utf-8"?>
<!-- Generator: Adobe Illustrator 27.9.1, SVG Export Plug-In . SVG Version: 6.00 Build 0)  -->
<svg version="1.1" id="Layer_1" xmlns="http://www.w3.org/2000/svg" xmlns:xlink="http://www.w3.org/1999/xlink" x="0px" y="0px"
	 viewBox="0 0 27 27" enable-background="new 0 0 27 27" xml:space="preserve">
<rect fill="none" width="27" height="27"/>
<path fill="#231F20" d="M4,0h19c2.2,0,4,1.8,4,4v19c0,2.2-1.8,4-4,4H4c-2.2,0-4-1.8-4-4V4C0,1.8,1.8,0,4,0z"/>
<path fill="#FFFFFF" d="M6.9,22.1c2,0,3.6-1.6,3.6-3.6s-1.6-3.6-3.6-3.6s-3.6,1.6-3.6,3.6S5,22.1,6.9,22.1 M2.5,18.4
	c0-2.5,2-4.4,4.4-4.4c2.5,0,4.5,2,4.5,4.4c0,2.5-2,4.4-4.5,4.4C4.5,22.9,2.5,20.9,2.5,18.4"/>
<path fill="#FFFFFF" d="M20.1,22.1c2,0,3.6-1.6,3.6-3.6s-1.6-3.6-3.6-3.6s-3.6,1.6-3.6,3.6C16.4,20.5,18,22.1,20.1,22.1 M15.6,18.5
	c0-2.5,2-4.4,4.5-4.4s4.4,2,4.4,4.4c0,2.5-2,4.4-4.4,4.4C17.6,22.9,15.6,20.9,15.6,18.5"/>
<path fill="#FFFFFF" d="M15.6,7.6c0.9,0,1.7-0.7,1.7-1.7c0-0.9-0.8-1.7-1.7-1.7S13.9,5,13.9,5.9C13.9,6.9,14.7,7.6,15.6,7.6"/>
<path fill="#FFFFFF" d="M15.7,11.7c-0.2,0-0.5-0.1-0.7-0.4l-1.1-1.7l-2.2,2.2l2.1,1.1c0.9,0.4,0.7,1.2,0.7,1.2v4.7c0,0.5-0.4,1-1,1
	c-0.5,0-1-0.4-1-1V15l-3.6-2c-0.4-0.3-0.7-0.7-0.7-1.3c0-0.4,0.1-0.7,0.4-0.9l3.5-3.5c0.4-0.5,1.1-0.4,1.1-0.4
	c0.7,0,1.1,0.6,1.1,0.6l1.8,2.9h2.8c1,0,1,1.3,0,1.3H15.7z"/>
</svg>
