<svg xmlns="http://www.w3.org/2000/svg" viewBox="0 0 18 18" height="18" width="18"><title>bike-repairs-white-14.svg</title><rect fill="none" x="0" y="0" width="18" height="18"></rect><rect x="0" y="0" width="18" height="18" rx="4" ry="4" fill="#231f20"></rect><path fill="#ffffff" transform="translate(2 2)" d="M10.5,3l-1,0.4L8.3,2.6c0,0.4,0.1,1.2,0.9,1.6c0.2,0.1,0.8,0.3,1.1,0.6c0.3,0.3,0.3,0.4,0.6,1.4l1.6,4.9
	c0.1,0.3,0.4,0.5,0.7,0.4s0.5-0.4,0.4-0.7l-2-6.2c-0.1-0.4-0.1-0.9,0-1.4c0.2-0.7-0.1-1.5-0.7-1.9C10.4,1,9.7,0.9,9.2,1.2L10.4,2
	L10.5,3z"></path><path fill="#ffffff" transform="translate(2 2)" d="M6.4,6.3c-0.2,0-0.5,0-0.7,0.1L4.1,1.2C3.9,0.5,3.1,0,2.4,0C2,0,1.2-0.1,1.2,0.5C1.2,1.2,2.1,1,2.5,1
	c0.2,0,0.6,0.3,0.6,0.5L3.5,3H0v1h3.9v0.1L0,8c0,0.5,0,1,0,1.5l4.3-4.3l0.5,1.5c-1.3,0.6-2.2,1.9-2.2,3.5c0,2.1,1.7,3.9,3.9,3.9
	c2.1,0,3.9-1.7,3.9-3.9C10.3,8,8.5,6.3,6.4,6.3 M6.4,13c-1.6,0-2.9-1.3-2.9-2.9c0-1.1,0.6-2,1.5-2.5l0.8,2.7
	c0.1,0.3,0.4,0.4,0.7,0.3c0.3,0,0.5-0.3,0.4-0.6L6.1,7.3c0.1,0,0.2,0,0.4,0c1.6,0,2.9,1.3,2.9,2.9C9.3,11.7,8,13,6.4,13"></path></svg>