<svg xmlns="http://www.w3.org/2000/svg" viewBox="0 0 27 27" height="27" width="27"><title>bike-rack-white-22.svg</title><rect fill="none" x="0" y="0" width="27" height="27"></rect><rect x="0" y="0" width="27" height="27" rx="4" ry="4" fill="#231f20"></rect><path fill="#ffffff" transform="translate(2 2)" d="M10.1,9.9c-0.4,0-0.7,0-1,0.1L6.5,1.8C6.1,0.7,4.9,0,3.8,0c-0.7,0-2-0.2-2,0.8c0,1.1,1.4,0.8,2.1,0.8
	c0.4,0,0.9,0.4,1,0.8L5.6,4H0v2h6.1l0.1,0.4L0,12.6c0.1,0.7,0,1.5,0,2.3l6.7-6.7l0.7,2.3c-2,1-3.4,3-3.4,5.5c0,3.3,2.7,6,6.1,6
	s6.1-2.7,6.1-6.1C16.1,12.6,13.4,9.9,10.1,9.9 M10.1,20.4c-2.5,0-4.5-2-4.5-4.5c0-1.7,1-3.2,2.3-3.9l1.3,4.2c0.1,0.4,0.6,0.7,1,0.5
	c0.4-0.1,0.7-0.6,0.5-1l-1.3-4.2c0.2,0,0.4-0.1,0.6-0.1c2.5,0,4.5,2,4.5,4.5C14.6,18.4,12.6,20.4,10.1,20.4"></path><path fill="#ffffff" transform="translate(2 2)" d="M17.8,9c1.1,0,2,1.3,2.2,2.7V22h2V11.6C22,9.1,20.1,7,17.8,7h-2.6C12.9,7,11,9.1,11,11.6V22h2V11.6
	c0.2-1.4,1.1-2.7,2.2-2.7L17.8,9L17.8,9z"></path></svg>