<svg xmlns="http://www.w3.org/2000/svg" viewBox="0 0 18 18" height="18" width="18"><title>birding-wildlife-viewing-white-14.svg</title><rect fill="none" x="0" y="0" width="18" height="18"></rect><rect x="0" y="0" width="18" height="18" rx="4" ry="4" fill="#231f20"></rect><path fill="#ffffff" transform="translate(2 2)" d="M9.5,8.3C9.2,8.3,9,8.1,9,7.9V3h3l2,6.8v0.5v3.2c0,0.2-0.2,0.4-0.4,0.4h-3.2c-0.2,0-0.4-0.2-0.4-0.4V8.3H9.5
	z M4.5,8.3C4.8,8.3,5,8.1,5,7.9V3H2L0,9.8v0.5v3.2c0,0.2,0.2,0.4,0.4,0.4h3.2c0.2,0,0.4-0.2,0.4-0.4V8.3H4.5z M6.3,2.6h1.4v4.9H6.3
	V2.6z M3,0h3v2H3V0z M8,0h3v2H8V0z"></path></svg>