<svg xmlns="http://www.w3.org/2000/svg" viewBox="0 0 27 27" height="27" width="27"><title>birding-wildlife-viewing-white-22.svg</title><rect fill="none" x="0" y="0" width="27" height="27"></rect><rect x="0" y="0" width="27" height="27" rx="4" ry="4" fill="#231f20"></rect><path fill="#ffffff" transform="translate(2 2)" d="M13.7,13.1c-0.4,0-0.7-0.3-0.7-0.7V4.1h6.3L22,15.4v0.7v5c0,0.4-0.3,0.7-0.7,0.7h-6.1
	c-0.4,0-1.1-0.3-1.1-0.7v-8H13.7z"></path><path fill="#ffffff" transform="translate(2 2)" d="M8.3,13.1c0.4,0,0.7-0.3,0.7-0.7V4.1H2.7L0,15.4v0.7v5c0,0.4,0.3,0.7,0.7,0.7h6.1c0.4,0,1.1-0.3,1.1-0.7v-8
	H8.3z"></path><path fill="#ffffff" transform="translate(2 2)" d="M5,0h4v3H5V0z"></path><path fill="#ffffff" transform="translate(2 2)" d="M13,0h4v3h-4V0z"></path><path fill="#ffffff" transform="translate(2 2)" d="M10,4h2v8h-2V4z"></path></svg>