<svg xmlns="http://www.w3.org/2000/svg" viewBox="0 0 18 18" height="18" width="18"><title>boat-tour-white-14.svg</title><rect fill="none" x="0" y="0" width="18" height="18"></rect><rect x="0" y="0" width="18" height="18" rx="4" ry="4" fill="#231f20"></rect><path fill="#ffffff" transform="translate(2 2)" d="M11,2l-1-1H0v4h12V3L11,2z M2,4H1V2h1V4z M4,4H3V2h1V4z M6,4H5V2h1V4z M10,4H8V2h1l1,1V4z M14,10.5L13,11h-1
	l-2-1H9l-2,1H6l-2-1H3l-2,1H0v1h1l2-1h1l2,1h1l2-1h1l2,1h1l1-0.5c0-0.2,0-0.3,0-0.5S14,10.7,14,10.5z M14,6l-3,3H0V6H14z"></path></svg>