<svg xmlns="http://www.w3.org/2000/svg" viewBox="0 0 27 27" height="27" width="27"><title>boating-permit-white-22.svg</title><rect fill="none" x="0" y="0" width="27" height="27"></rect><rect x="0" y="0" width="27" height="27" rx="4" ry="4" fill="#231f20"></rect><path fill="#ffffff" transform="translate(2 2)" d="M16.9,15.9l3.7,0.3l-0.3-1.9l-2.7-0.2c-0.7,0-0.6,0.7-0.6,0.7L16.9,15.9z"></path><path fill="#ffffff" transform="translate(2 2)" d="M10.1,15.3c0.7,0,1.2-0.6,1.2-1.2c0-0.7-0.6-1.2-1.2-1.2c-0.7,0-1.2,0.6-1.2,1.2
	C8.9,14.8,9.5,15.3,10.1,15.3z"></path><path fill="#ffffff" transform="translate(2 2)" d="M2.3,20.2c0.2,0,0.3-0.1,0.5-0.2c0.4-0.2,0.8-0.3,1.3-0.3S5,19.8,5.4,20s0.8,0.3,1.3,0.3
	c0.4,0,0.9-0.1,1.3-0.3c0.4-0.2,0.8-0.3,1.3-0.3s0.9,0.1,1.3,0.3c0.4,0.2,0.8,0.3,1.3,0.3c0.4,0,0.9-0.1,1.3-0.3
	c0.4-0.2,0.8-0.3,1.3-0.3s0.9,0.1,1.3,0.3c0.4,0.2,0.8,0.3,1.3,0.3c0.4,0,0.9-0.1,1.3-0.3c0.4-0.2,0.8-0.3,1.3-0.3s0.9,0.1,1.3,0.3
	c0.4,0.2,0.5,0.3,1,0.3l-0.1-3.4L5.7,15.6L8,13.2l-1.1-0.1l-2.3,2.4L0,15.1C0,16.8,1.9,19.7,2.3,20.2L2.3,20.2z"></path><path fill="#ffffff" transform="translate(2 2)" d="M3,4h16v2H3V4z M3,7h12v2H3V7z M3,1h16v2H3V1z"></path></svg>