<svg xmlns="http://www.w3.org/2000/svg" viewBox="0 0 27 27" height="27" width="27"><title>boat-tour-white-22.svg</title><rect fill="none" x="0" y="0" width="27" height="27"></rect><rect x="0" y="0" width="27" height="27" rx="4" ry="4" fill="#231f20"></rect><path fill="#ffffff" transform="translate(2 2)" d="M14.9,2H0v7h19V8l-2.5-5C16.2,2.4,15.6,2,14.9,2z M4,8H1V5l1-1h1l1,1V8z M8,8H5V5l1-1h1l1,1V8z M12,8H9V5
	l1-1h1l1,1V8z M14,8V4h1h1l2,4H14z"></path><path fill="#ffffff" transform="translate(2 2)" d="M3,15h1l2-1h1l2,1h1l2-1h1l2,1h1l2-1h0.8l3.2-4H0v4h1L3,15z"></path><path fill="#ffffff" transform="translate(2 2)" d="M0,16h1l2,1h1l2-1h1l2,1h1l2-1h1l2,1h1l2-1h1l2,1h1v2h-1l-2-1h-1l-2,1h-1l-2-1h-1l-2,1H9l-2-1H6l-2,1H3l-2-1
	H0V16z"></path></svg>