<svg xmlns="http://www.w3.org/2000/svg" viewBox="0 0 27 27" height="27" width="27"><title>boat-trailer-parking-white-22.svg</title><rect fill="none" x="0" y="0" width="27" height="27"></rect><rect x="0" y="0" width="27" height="27" rx="4" ry="4" fill="#231f20"></rect><path fill="#ffffff" transform="translate(2 2)" d="M11.7,12.3c-1.3,0.4-2.1,1.7-1.8,3c0.4,1.3,1.7,2.1,3,1.8c1.3-0.4,2.1-1.7,1.8-3
		C14.4,12.7,13.1,11.9,11.7,12.3z M12.7,15.7c-0.6,0.1-1.1-0.2-1.3-0.7c-0.1-0.6,0.2-1.1,0.7-1.3c0.6-0.1,1.1,0.2,1.3,0.7
		C13.6,14.9,13.2,15.5,12.7,15.7z"></path><path fill="#ffffff" transform="translate(2 2)" d="M6.8,11H22V7H6.9L9,4H8L5.9,7h-5C0.9,7.1,0.9,10.8,6.8,11z"></path><path fill="#ffffff" transform="translate(2 2)" d="M15.1,12.7c0.2,0.3,0.3,0.6,0.4,0.9h6.4v-0.9H15.1z"></path><path fill="#ffffff" transform="translate(2 2)" d="M0.2,13.6h0.9v2.9H0.3v0.6h2.4v-0.6H1.8v-2.9h7.6c0.1-0.3,0.2-0.7,0.4-0.9H0L0.2,13.6z"></path></svg>