<svg xmlns="http://www.w3.org/2000/svg" viewBox="0 0 18 18" height="18" width="18"><title>boat-launch-white-14.svg</title><rect fill="none" x="0" y="0" width="18" height="18"></rect><rect x="0" y="0" width="18" height="18" rx="4" ry="4" fill="#231f20"></rect><path fill="#ffffff" transform="translate(2 2)" d="M14,11v-1l-3-0.9V10L14,11z M0,6v1l7,2V8L0,6z M2.8,4.8L4,5l0.7,0.3L13,7.7l0.4-1.3L14,4.7L5,2.2L6.9,0H6
	L4,1.8L1,1L2.8,4.8z M0,14V9l14,4v1H0z M9,8c0.6,0,1,0.4,1,1s-0.4,1-1,1S8,9.6,8,9S8.4,8,9,8z"></path></svg>