<svg xmlns="http://www.w3.org/2000/svg" viewBox="0 0 18 18" height="18" width="18"><title>boating-permit-white-14.svg</title><rect fill="none" x="0" y="0" width="18" height="18"></rect><rect x="0" y="0" width="18" height="18" rx="4" ry="4" fill="#231f20"></rect><path fill="#ffffff" transform="translate(2 2)" d="M10.7,10.1l2.4,0.2l-0.2-1.2L11.2,9c-0.5,0-0.4,0.4-0.4,0.4L10.7,10.1z M6.5,9.7c0.4,0,0.8-0.4,0.8-0.8
	c0-0.4-0.4-0.8-0.8-0.8C6,8.2,5.7,8.5,5.7,9C5.7,9.4,6,9.7,6.5,9.7z M1.5,12.8c0.1,0,0.2-0.1,0.3-0.1c0.3-0.1,0.5-0.2,0.8-0.2
	s0.6,0.1,0.8,0.2c0.2,0.1,0.5,0.2,0.8,0.2s0.6-0.1,0.8-0.2c0.3-0.1,0.5-0.2,0.8-0.2s0.6,0.1,0.8,0.2c0.2,0.1,0.5,0.2,0.8,0.2
	s0.6-0.1,0.8-0.2c0.3-0.1,0.5-0.2,0.8-0.2s0.6,0.1,0.8,0.2c0.2,0.1,0.5,0.2,0.8,0.2s0.6-0.1,0.8-0.2c0.3-0.1,0.5-0.2,0.8-0.2
	s0.6,0.1,0.8,0.2c0.2,0.1,0.5,0.2,0.8,0.2l-0.3-2.1L3.6,9.9l1.5-1.5L4.4,8.3L2.9,9.8L0,9.6C0,10.7,1.2,12.5,1.5,12.8L1.5,12.8z M2,1
	h10v1H2V1z M2,3h10v1H2V3z M2,5h7v1H2V5z"></path></svg>