<svg xmlns="http://www.w3.org/2000/svg" viewBox="0 0 27 27" height="27" width="27"><title>boat-launch-white-22.svg</title><rect fill="none" x="0" y="0" width="27" height="27"></rect><rect x="0" y="0" width="27" height="27" rx="4" ry="4" fill="#231f20"></rect><path fill="#ffffff" transform="translate(2 2)" d="M3.4,3l4.4,1.2L10,1.5h1l-2,3l13,3.6l-1,3.4L7.6,8C2.5,6.4,3.4,3,3.4,3"></path><path fill="#ffffff" transform="translate(2 2)" d="M0,12.5v8l3-1l4,1l4-1l4,1l4-1l3,1v-2L0,12.5z"></path><path fill="#ffffff" transform="translate(2 2)" d="M0,7.5v1l9,3v-1L0,7.5z"></path><path fill="#ffffff" transform="translate(2 2)" d="M15,12.5v1l7,2v-1L15,12.5z"></path><path fill="#ffffff" transform="translate(2 2)" d="M12,10.5c-1.1,0-2,0.9-2,2s0.9,2,2,2s2-0.9,2-2S13.1,10.5,12,10.5z M13,13.1c0,0.2-0.2,0.4-0.4,0.4h-1.1
	c-0.2,0-0.4-0.2-0.4-0.4V12c0-0.2,0.2-0.4,0.4-0.4h1.1c0.2,0,0.4,0.2,0.4,0.4V13.1z"></path></svg>