<svg xmlns="http://www.w3.org/2000/svg" viewBox="0 0 26 26" height="26" width="26"><title>boating-black-22.svg</title><rect fill="none" x="0" y="0" width="26" height="26"></rect><rect x="0" y="0" width="26" height="26" rx="4" ry="4" fill="#000"></rect><path fill="#ffffff" transform="translate(2 2)" d="M16.9,9.9l3.7,0.3l-0.3-1.9l-2.7-0.2c-0.7,0-0.6,0.7-0.6,0.7L16.9,9.9z"></path><path fill="#ffffff" transform="translate(2 2)" d="M10.1,9.3c0.7,0,1.2-0.6,1.2-1.2c0-0.7-0.6-1.2-1.2-1.2c-0.7,0-1.2,0.6-1.2,1.2C8.9,8.8,9.5,9.3,10.1,9.3z"></path><path fill="#ffffff" transform="translate(2 2)" d="M21,14c0.4,0.2,0.5,0.3,1,0.3l-0.1-3.4L5.7,9.6L8,7.2L6.9,7.1L4.6,9.5L0,9.1c0,1.7,1.9,4.6,2.3,5.1
	c0.2,0,0.3-0.1,0.5-0.2c0.4-0.2,0.8-0.3,1.3-0.3S5,13.8,5.4,14c0.4,0.2,0.8,0.3,1.3,0.3c0.4,0,0.9-0.1,1.3-0.3s0.8-0.3,1.3-0.3
	s0.9,0.1,1.3,0.3c0.4,0.2,0.8,0.3,1.3,0.3c0.4,0,0.9-0.1,1.3-0.3c0.4-0.2,0.8-0.3,1.3-0.3s0.9,0.1,1.3,0.3c0.4,0.2,0.8,0.3,1.3,0.3
	c0.4,0,0.9-0.1,1.3-0.3c0.4-0.2,0.8-0.3,1.3-0.3S20.6,13.8,21,14z"></path><path fill="#ffffff" transform="translate(2 2)" d="M5.7,9.6L8,7.2L6.9,7.1L4.6,9.5L0,9.1c0,0.8,0.4,1.9,0.9,2.8h21l0-1L5.7,9.6z"></path><path fill="#ffffff" transform="translate(2 2)" d="M2.3,14.2c0.2,0,0.3-0.1,0.5-0.2c0.4-0.2,0.8-0.3,1.3-0.3S5,13.8,5.4,14c0.4,0.2,0.8,0.3,1.3,0.3
	c0.4,0,0.9-0.1,1.3-0.3s0.8-0.3,1.3-0.3s0.9,0.1,1.3,0.3c0.4,0.2,0.8,0.3,1.3,0.3c0.4,0,0.9-0.1,1.3-0.3c0.4-0.2,0.8-0.3,1.3-0.3
	s0.9,0.1,1.3,0.3c0.4,0.2,0.8,0.3,1.3,0.3c0.4,0,0.9-0.1,1.3-0.3c0.4-0.2,0.8-0.3,1.3-0.3s0.9,0.1,1.3,0.3s0.5,0.3,1,0.3l-0.1-2.4
	h-21C1.5,13,2.1,13.9,2.3,14.2z"></path><path fill="#ffffff" transform="translate(2 2)" d="M21,15c-0.4-0.2-0.8-0.3-1.3-0.3s-0.9,0.1-1.3,0.3c-0.4,0.2-0.9,0.3-1.3,0.3c-0.5,0-0.9-0.1-1.3-0.3
	c-0.4-0.2-0.8-0.3-1.3-0.3s-0.9,0.1-1.3,0.3c-0.4,0.2-0.9,0.3-1.3,0.3c-0.5,0-0.9-0.1-1.3-0.3c-0.4-0.2-0.8-0.3-1.3-0.3
	S8.4,14.8,8,15s-0.9,0.3-1.3,0.3c-0.5,0-0.9-0.1-1.3-0.3c-0.4-0.2-0.8-0.3-1.3-0.3S3.2,14.8,2.8,15c-0.2,0.1-0.3,0.2-0.5,0.2
	c-0.5,0.2-0.4,0.2-0.9,0.4c0.1,0.1,0.2,0.2,0.2,0.2l0.3,0.4h0.5c0.4,0,0.7-0.2,0.9-0.3c0,0,0.1,0,0.1-0.1c0.3-0.1,0.5-0.2,0.9-0.2
	c0.3,0,0.6,0.1,0.9,0.2c0.6,0.3,1.1,0.4,1.7,0.4c0.6,0,1.2-0.2,1.7-0.4c0.3-0.1,0.5-0.2,0.9-0.2s0.6,0.1,0.9,0.2
	c0.6,0.3,1.1,0.4,1.7,0.4c0.6,0,1.2-0.2,1.7-0.4c0.3-0.1,0.5-0.2,0.9-0.2s0.6,0.1,0.9,0.2c0.6,0.3,1.1,0.4,1.7,0.4
	c0.6,0,1.2-0.2,1.7-0.4c0.3-0.1,0.5-0.2,0.9-0.2s0.6,0.1,0.9,0.2l0.2,0.1c0.4,0.2,0.7,0.3,1.3,0.3v-1C21.5,15.3,21.4,15.2,21,15z"></path></svg>