<svg xmlns="http://www.w3.org/2000/svg" viewBox="0 0 18 18" height="18" width="18"><title>boat-trailer-parking-white-14.svg</title><rect fill="none" x="0" y="0" width="18" height="18"></rect><rect x="0" y="0" width="18" height="18" rx="4" ry="4" fill="#231f20"></rect><path fill="#ffffff" transform="translate(2 2)" d="M7.5,7.8C6.6,8,6.1,8.9,6.4,9.7c0.2,0.8,1.1,1.3,1.9,1.1s1.3-1.1,1.1-1.9C9.2,8.1,8.3,7.6,7.5,7.8z M8.1,10
		c-0.4,0.1-0.7-0.1-0.8-0.5C7.1,9.1,7.4,8.8,7.7,8.7c0.4-0.1,0.7,0.1,0.8,0.5C8.6,9.5,8.4,9.9,8.1,10z"></path><path fill="#ffffff" transform="translate(2 2)" d="M4.3,7H14V4H4.4l1.3-1.9H5.1L3.8,4H0.6C0.6,4,0.6,6.9,4.3,7z"></path><path fill="#ffffff" transform="translate(2 2)" d="M9.6,8.1c0.1,0.2,0.2,0.4,0.3,0.6H14V8.1H9.6z"></path><path fill="#ffffff" transform="translate(2 2)" d="M0.1,8.7h0.6v1.9H0.2V11h1.5v-0.4H1.1V8.7h4.8C6,8.5,6.1,8.3,6.2,8.1H0L0.1,8.7z"></path></svg>