<svg xmlns="http://www.w3.org/2000/svg" viewBox="0 0 18 18" height="18" width="18"><title>book-and-souvenir-shop-white-14.svg</title><rect fill="none" x="0" y="0" width="18" height="18"></rect><rect x="0" y="0" width="18" height="18" rx="4" ry="4" fill="#231f20"></rect><path fill="#ffffff" transform="translate(2 2)" d="M0.9,12.4L1,12c0.4,0,2.9,0,4,0c-0.1,0.1-0.3,0.3-0.3,0.5s0,0.4,0,0.5H1.5C1.2,13,0.9,12.7,0.9,12.4z M5,5.1
	c0,0.6,0,5.3,0,5.9c-0.4,0-2.9,0-2.9,0l1.8-1.5V5C4.1,5.1,4.8,5.1,5,5.1z M5.4,13.3L5.4,13.3c-0.2-0.1-0.2-0.2-0.2-0.4
	c0-0.3,0.2-0.5,0.3-0.5l0,0c0.1,0,0.2-0.2,0.2-0.3V4.8c0-0.2-0.2-0.4-0.4-0.4c0,0-1.1,0-1.5,0c0-0.3,0-0.8,0-0.8
	c0-0.1-0.1-0.3-0.2-0.3c-0.1-0.1-0.3,0-0.4,0.1L0.8,5.8C0.4,6.2,0,7,0,7.6v5.1C0,13.4,0.6,14,1.3,14h4.1c0.2,0,0.4-0.2,0.4-0.4l0,0
	C5.8,13.5,5.6,13.3,5.4,13.3z"></path><path fill="#ffffff" transform="translate(2 2)" d="M13,4h-1.3l1.2-1.2l-0.7-0.7L11,3.3V1h-1v2.3L8.8,2.1L8.1,2.8L9.3,4H8C7.5,4,7,4.5,7,5v3v1v4
	c0,0.5,0.5,1,1,1h2h1h2c0.5,0,1-0.5,1-1V9V8V5C14,4.5,13.5,4,13,4z M10,13H8V9h2V13z M10,8H8V5h2V8z M13,13h-2V9h2V13z M13,8h-2V5h2
	V8z"></path></svg>