<svg xmlns="http://www.w3.org/2000/svg" viewBox="0 0 27 27" height="27" width="27"><title>bookstore-white-22.svg</title><rect fill="none" x="0" y="0" width="27" height="27"></rect><rect x="0" y="0" width="27" height="27" rx="4" ry="4" fill="#231f20"></rect><path fill="#ffffff" transform="translate(2 2)" d="M16.6,20.7c-0.6,0-0.9-0.4-0.9-0.9s0.3-0.9,0.9-0.9
	c0.3,0,0.5-0.2,0.5-0.5S16.9,18,16.6,18c-1.1,0-1.9,0.8-1.9,1.9c0,1,0.7,1.9,1.9,1.9c0.3,0,0.5-0.2,0.5-0.5S16.9,20.7,16.6,20.7
	L16.6,20.7z"></path><path fill="#ffffff" transform="translate(2 2)" d="M5,18L5,18c0,3.1,0.5,4,2.7,4h8.9c0.3,0,0.5-0.2,0.5-0.5
	S16.9,21,16.6,21H8c-1.5,0-2-0.5-2-3c0,0,0,0,0-0.1c0-0.3-0.2-0.5-0.5-0.5S5,17.7,5,18L5,18z"></path><path fill="#ffffff" transform="translate(2 2)" d="M5,8c0-0.6,5-5,5-5h5h1c0.6,0,1,0.4,1,1v14c0,0.6-0.4,1-1,1H6
	c-0.6,0-1-0.4-1-1V8z M9,4L6,18h10V4H9z"></path><path fill="#ffffff" transform="translate(2 2)" d="M5,6.8c0-0.5,0.4-1.3,0.8-1.6l6.4-4.7C12.7,0.2,13,0.4,13,1
	v10c0,0.6-0.3,1.7-0.7,2.1l-6.5,5.3C5.4,18.8,5,18.6,5,18V6.8z"></path></svg>