<svg xmlns="http://www.w3.org/2000/svg" viewBox="0 0 27 27" height="27" width="27"><title>book-and-souvenir-shop-white-22.svg</title><rect fill="none" x="0" y="0" width="27" height="27"></rect><rect x="0" y="0" width="27" height="27" rx="4" ry="4" fill="#231f20"></rect><path fill="#ffffff" transform="translate(2 2)" d="M1.1,19.2v-0.5c0.7,0,4.4,0,6.1,0C7.1,18.9,7,19.1,7,19.3c-0.1,0.3,0,0.4,0,0.7H2C1.5,20,1.1,19.7,1.1,19.2z
	 M8,7c0,1,0,10,0,11c-0.7,0-4.4,0-6,0l4-3.8V7C6.4,7,7.7,7,8,7z M8.5,19.9H8.3c-0.2-0.2-0.2-0.2-0.2-0.4c0.1-0.4,0.4-0.8,0.5-0.9
	l0,0c0.3,0,0.4-0.2,0.4-0.5V6.7c0-0.3-0.2-0.6-0.5-0.6c0,0-1.8,0-2.4,0c0-0.5,0-1.3,0-1.3c0-0.2-0.1-0.4-0.3-0.5
	c-0.2-0.1-0.4,0-0.6,0.1l-4,3.9C0.6,9,0,10.3,0,11.2V19c0,1.1,0.9,2,2,2h6.5c0.3,0,0.6-0.2,0.6-0.5v0.2C9.1,20.4,8.9,19.9,8.5,19.9z
	"></path><path fill="#ffffff" transform="translate(2 2)" d="M21,6h-2l2.1-0.9c0.2-0.1,0.3-0.4,0.2-0.6c-0.1-0.2-0.4-0.3-0.6-0.2c0,0-1.2,0.5-2.4,1c1-1,2-1.9,2-1.9
	c0.1-0.1,0.1-0.2,0.1-0.3s0-0.2-0.1-0.3c-0.2-0.2-0.5-0.2-0.6,0L17,5.4V1.5c0-0.2-0.2-0.4-0.4-0.4l0,0c-0.2,0-0.4,0.2-0.4,0.4
	c0,0,0,2.6,0,3.9c-0.9-0.9-2.5-2.5-2.5-2.5c-0.2-0.2-0.5-0.2-0.6,0c-0.2,0.2-0.2,0.5,0,0.6l1.7,1.7l-2.5-1c-0.2-0.1-0.5,0-0.6,0.2
	s0,0.5,0.2,0.6L14,6h-2c-0.5,0-1,0.5-1,1v5v1v7c0,0.5,0.5,1,1,1h4h1h4c0.5,0,1-0.5,1-1v-7v-1V7C22,6.5,21.5,6,21,6z M16,20h-4v-7h4
	V20z M16,12h-4V7h4V12z M21,20h-4v-7h4V20z M21,12h-4V7h4V12z"></path></svg>