<svg xmlns="http://www.w3.org/2000/svg" viewBox="0 0 18 18" height="18" width="18"><title>bookstore-white-14.svg</title><rect fill="none" x="0" y="0" width="18" height="18"></rect><rect x="0" y="0" width="18" height="18" rx="4" ry="4" fill="#231f20"></rect><path fill="#ffffff" transform="translate(2 2)" d="M9,12h1v1H9V12z M3,11h1v1.7V14H3V11z M4,13h6c0.6,0,1,0.2,1,0.5l0,0
	c0,0.3-0.4,0.5-1,0.5H4c-0.6,0-1-0.2-1-0.5l0,0C3,13.2,3.4,13,4,13z M4,3L4,3v8l0,0h6l0,0V3l0,0H4L4,3L4,3L4,3z M4,3c0,0,1.5-1,2-1
	h4c0.6,0,1,0.5,1,1v8c0,0.5-0.5,1-1,1H4c-0.6,0-1-0.5-1-1V5L4,3z M3,4.4c0-0.6,0.4-1.3,0.8-1.6l3.4-2.6C7.6-0.2,8,0,8,0.6v6.1
	C8,7.2,7.7,8,7.2,8.3l-3.5,3C3.3,11.7,3,11.5,3,11V4.4z"></path></svg>