<svg xmlns="http://www.w3.org/2000/svg" viewBox="0 0 27 27" height="27" width="27"><title>bottles-white-22.svg</title><rect fill="none" x="0" y="0" width="27" height="27"></rect><rect x="0" y="0" width="27" height="27" rx="4" ry="4" fill="#231f20"></rect><path fill="#ffffff" transform="translate(2 2)" d="M7,7c1.4,0.3,2,1.5,2,3v11.4C9,21.7,8.7,22,8.3,22H2.7C2.3,22,2,21.7,2,21.4V10c0-1.5,0.6-2.7,2-3V2h3V7z"></path><path fill="#ffffff" transform="translate(2 2)" d="M4,0h3v1H4V0z"></path><path fill="#ffffff" transform="translate(2 2)" d="M15.7,2.4c-0.2,0-0.3-0.2-0.3-0.4c0-0.1,0.1-0.3,0.2-0.3c-0.1-0.1-0.2-0.2-0.2-0.3c0-0.2,0.2-0.3,0.4-0.3h2
	c0.2,0,0.4,0.1,0.4,0.3c0,0.1-0.1,0.3-0.2,0.3c0.1,0,0.2,0.1,0.2,0.3s-0.1,0.4-0.3,0.4l1.9,6.3C20,9.1,20,9.6,20,10v11.2
	c0,0.4-0.4,0.8-0.8,0.8h-5.4c-0.4,0-0.8-0.3-0.8-0.8V10c0-0.5,0-0.9,0.2-1.3L15.7,2.4z"></path></svg>