<svg xmlns="http://www.w3.org/2000/svg" viewBox="0 0 18 18" height="18" width="18"><title>bottles-white-14.svg</title><rect fill="none" x="0" y="0" width="18" height="18"></rect><rect x="0" y="0" width="18" height="18" rx="4" ry="4" fill="#231f20"></rect><path fill="#ffffff" transform="translate(2 2)" d="M5,4.6c0.9,0.2,0.9,1,0.9,1.9v7.1c0,0.2-0.2,0.4-0.4,0.4H1.4C1.2,14,1,13.8,1,13.6V6.5c0-0.9,0.1-1.7,1-1.9
	V2h3V4.6z M2,0h3v1H2V0z M9.9,2C9.8,2,9.7,1.9,9.7,1.7c0-0.1,0.1-0.2,0.1-0.2c-0.1,0-0.1-0.1-0.1-0.2S9.8,1.1,10,1.1h1.3
	c0.1,0,0.3,0.1,0.3,0.2s-0.1,0.2-0.1,0.2c0.1,0,0.1,0.1,0.1,0.2s-0.1,0.2-0.2,0.2L13,5.4c0,0.4,0,0.7,0,1v7.1c0,0.3-0.2,0.5-0.5,0.5
	H8.8c-0.3,0-0.5-0.2-0.5-0.5V6.4c0-0.3,0-0.6,0.1-0.8L9.9,2z"></path></svg>