<svg xmlns="http://www.w3.org/2000/svg" viewBox="0 0 27 27" height="27" width="27"><title>braille-white-22.svg</title><rect fill="none" x="0" y="0" width="27" height="27"></rect><rect x="0" y="0" width="27" height="27" rx="4" ry="4" fill="#231f20"></rect><path fill="#ffffff" transform="translate(2 2)" d="M1.6,17.6h2c0.8,0,1.4,0.3,1.4,1.1c0,0.4-0.2,0.7-0.6,0.9c0.5,0.1,0.8,0.6,0.8,1.1c0,0.9-0.7,1.2-1.5,1.2
	H1.6V17.6z M2.5,19.4h1c0.3,0,0.6-0.2,0.6-0.5c0-0.4-0.3-0.5-0.6-0.5h-1V19.4z M2.5,21.2h1c0.4,0,0.7-0.1,0.7-0.6
	C4.2,20.2,4,20,3.6,20h-1L2.5,21.2L2.5,21.2z"></path><path fill="#ffffff" transform="translate(2 2)" d="M5.9,18.8h0.8v0.6l0,0c0.2-0.4,0.6-0.7,1-0.7c0.1,0,0.1,0,0.2,0v0.8c-0.1,0-0.2,0-0.3,0
	c-0.6,0-0.8,0.4-0.8,1v1.4H5.9V18.8z"></path><path fill="#ffffff" transform="translate(2 2)" d="M8.5,19.8c0-0.8,0.8-1,1.5-1c0.6,0,1.4,0.1,1.4,0.9v1.6c0,0.3,0,0.6,0.1,0.7h-0.9c0-0.1-0.1-0.2-0.1-0.3
	c-0.3,0.3-0.7,0.4-1,0.4c-0.6,0-1.1-0.3-1.1-0.9c0-0.7,0.5-0.9,1.1-0.9c0.5-0.1,1-0.1,1-0.4c0-0.4-0.3-0.4-0.6-0.4S9.4,19.6,9.3,20
	H8.5V19.8z M10.4,20.4c-0.1,0.1-0.4,0.1-0.7,0.2s-0.5,0.1-0.5,0.5c0,0.3,0.3,0.4,0.5,0.4c0.7,0,0.7-0.5,0.7-0.7V20.4z"></path><path fill="#ffffff" transform="translate(2 2)" d="M13,18.3h-0.9v-0.7H13V18.3z M12.2,18.8H13v3.1h-0.9L12.2,18.8L12.2,18.8z"></path><path fill="#ffffff" transform="translate(2 2)" d="M14,17.6h0.9v4.3H14V17.6z"></path><path fill="#ffffff" transform="translate(2 2)" d="M15.7,17.6h0.9v4.3h-0.9C15.7,21.9,15.7,17.6,15.7,17.6z"></path><path fill="#ffffff" transform="translate(2 2)" d="M18.2,20.6c0,0.5,0.3,0.8,0.8,0.8c0.3,0,0.6-0.2,0.7-0.4h0.8c-0.2,0.7-0.8,1-1.5,1c-1,0-1.6-0.7-1.6-1.6
	s0.6-1.6,1.6-1.6c1.1,0,1.6,0.9,1.5,1.9L18.2,20.6L18.2,20.6z M19.6,20c-0.1-0.4-0.3-0.7-0.7-0.7c-0.5,0-0.7,0.4-0.7,0.7H19.6z"></path><path fill="#ffffff" transform="translate(2 2)" d="M15.5,1C16.3,1,17,1.7,17,2.5S16.3,4,15.5,4C14.7,4,14,3.3,14,2.5S14.7,1,15.5,1z M6.5,1C7.3,1,8,1.7,8,2.5
	S7.3,4,6.5,4S5,3.3,5,2.5S5.7,1,6.5,1z M6.5,7C7.3,7,8,7.7,8,8.5S7.3,10,6.5,10S5,9.3,5,8.5S5.7,7,6.5,7z M15.5,7
	C16.3,7,17,7.7,17,8.5S16.3,10,15.5,10C14.7,10,14,9.3,14,8.5S14.7,7,15.5,7z M6.5,13C7.3,13,8,13.7,8,14.5S7.3,16,6.5,16
	S5,15.3,5,14.5S5.7,13,6.5,13z M15.5,13c0.8,0,1.5,0.7,1.5,1.5S16.3,16,15.5,16c-0.8,0-1.5-0.7-1.5-1.5S14.7,13,15.5,13z"></path></svg>