<svg xmlns="http://www.w3.org/2000/svg" viewBox="0 0 18 18" height="18" width="18"><title>braille-white-14.svg</title><rect fill="none" x="0" y="0" width="18" height="18"></rect><rect x="0" y="0" width="18" height="18" rx="4" ry="4" fill="#231f20"></rect><path fill="#ffffff" transform="translate(2 2)" d="M4,0c0.6,0,1,0.4,1,1S4.6,2,4,2S3,1.6,3,1S3.4,0,4,0z M4,6c0.5,0,1-0.4,1-1c0-0.5-0.4-1-1-1S3,4.5,3,5
	S3.5,6,4,6z M4,10c0.5,0,1-0.4,1-1c0-0.5-0.4-1-1-1S3,8.5,3,9S3.5,10,4,10z M10,2c0.5,0,1-0.4,1-1c0-0.5-0.4-1-1-1C9.5,0,9,0.5,9,1
	S9.5,2,10,2z M10,6c0.5,0,1-0.4,1-1c0-0.5-0.4-1-1-1C9.5,4,9,4.5,9,5S9.5,6,10,6z M10,10c0.5,0,1-0.4,1-1c0-0.5-0.4-1-1-1
	C9.5,8,9,8.5,9,9S9.5,10,10,10z M1,11.2h1.3c0.5,0,0.9,0.2,0.9,0.7c0,0.3-0.1,0.5-0.4,0.6c0.3,0.1,0.5,0.4,0.5,0.7
	c0,0.6-0.5,0.8-1,0.8H1V11.2z M1.6,12.3h0.6c0.2,0,0.4-0.1,0.4-0.3c0-0.3-0.2-0.3-0.4-0.3H1.6V12.3z M1.6,13.5h0.6
	c0.2,0,0.4-0.1,0.4-0.4c0-0.3-0.2-0.4-0.4-0.4H1.6V13.5z M3.8,12h0.5v0.4l0,0C4.4,12.2,4.7,12,4.9,12H5v0.5c0,0-0.1,0-0.2,0
	c-0.4,0-0.5,0.3-0.5,0.6V14H3.8V12z M5.4,12.6c0-0.5,0.5-0.7,0.9-0.7s0.9,0.1,0.9,0.6v1c0,0.2,0,0.4,0.1,0.4H6.7c0-0.1,0-0.1,0-0.2
	C6.5,13.9,6.2,14,6,14c-0.4,0-0.7-0.2-0.7-0.6c0-0.4,0.3-0.6,0.7-0.6c0.3,0,0.6,0,0.6-0.3c0-0.2-0.2-0.3-0.4-0.3
	c-0.2,0-0.3,0.1-0.4,0.3H5.4V12.6z M6.6,13c-0.1,0.1-0.3,0.1-0.5,0.1s-0.3,0.1-0.3,0.3s0.2,0.3,0.3,0.3c0.4,0,0.4-0.3,0.4-0.5
	L6.6,13L6.6,13z M8.3,11.7H7.8v-0.4h0.5V11.7z M7.8,12h0.5v2H7.8V12z M8.9,11.2h0.5v2.7H8.9V11.2z M10,11.2h0.5v2.7H10V11.2z
	 M11.6,13.1c0,0.3,0.2,0.5,0.5,0.5c0.2,0,0.4-0.1,0.4-0.3H13c-0.2,0.5-0.5,0.7-1,0.7c-0.6,0-1-0.4-1-1s0.4-1,1-1c0.7,0,1,0.6,1,1.2
	L11.6,13.1L11.6,13.1z M12.4,12.7c0-0.3-0.2-0.4-0.4-0.4c-0.3,0-0.4,0.3-0.5,0.4H12.4z"></path></svg>