<svg xmlns="http://www.w3.org/2000/svg" viewBox="0 0 18 18" height="18" width="18"><title>breastfeeding-station-white-14.svg</title><rect fill="none" x="0" y="0" width="18" height="18"></rect><rect x="0" y="0" width="18" height="18" rx="4" ry="4" fill="#231f20"></rect><path fill="#ffffff" transform="translate(2 2)" d="M7,0c1.1,0,2,0.9,2,2S8.1,4,7,4S5,3.1,5,2S5.9,0,7,0z"></path><path fill="#ffffff" transform="translate(2 2)" d="M12,9c-0.1-0.5-0.7-1.5-1-2c-0.4-0.6-1.3-1.7-2-2C8.1,4.6,5.9,4.6,5,5C4.7,5.1,4.3,5.8,4,6
	C3.8,6.3,3.2,6.7,3,7C2.7,7.5,2.1,8.5,2,9c-0.1,0.5-0.1,1.5,0,2c0.1,0.5,0.7,1.5,1,2c0.2,0.3,1,1,1,1h3c0.6,0,1-0.4,1-1s-0.4-1-1-1
	H4v-1h2V9h1v1h1.1C8.1,9.8,8,9.7,8,9.5C8,8.7,8.7,8,9.5,8S11,8.7,11,9.5S10.3,11,9.5,11c-0.1,0,0.2,0,0.4,0H10l0,0H9.9
	C9.4,11.1,9,11.5,9,12c0,0.6,0.4,1,1,1l1-1c0.3-0.5,0.9-1.5,1-2C12.1,9.8,12.1,9.2,12,9z"></path></svg>