<svg xmlns="http://www.w3.org/2000/svg" viewBox="0 0 26 26" height="26" width="26"><title>breastfeeding-station-white-22.svg</title><rect fill="none" x="0" y="0" width="26" height="26"></rect><rect x="0" y="0" width="26" height="26" rx="4" ry="4" fill="#231f20"></rect><path fill="#ffffff" transform="translate(2 2)" d="M11,0c2,0,3.6,1.6,3.6,3.6S13,7.2,11,7.2S7.4,5.6,7.4,3.6S9,0,11,0z"></path><path fill="#ffffff" transform="translate(2 2)" d="M18.2,12c-0.6-1-1.1-2-1.7-2.7c-0.4-0.4-0.8-0.7-1.4-0.9c-0.3-0.1-0.7-0.2-1.1-0.2H8.4
	c-0.7,0-1.3,0.2-1.7,0.5C5.4,9.5,4.8,11,4.1,12.5c-0.6,1.2-1.3,2.6-1.4,4.1c-0.1,1.5,0.5,2.8,1.4,3.6c1,0.9,3.5,2,5.5,1.9
	c1.2-0.1,2.3-0.5,2.7-1.4c0.5-1.2-0.5-1.9-1.4-2s-2,0-2.9-0.2c-0.4-0.1-0.8-0.2-1.2-0.3c-0.4-0.1-0.8-0.3-0.9-0.6
	c0.4-0.2,1-0.1,1.6-0.2c0.4-0.1,1.2-0.2,1.2-0.6c0-0.2-0.3-0.7-0.4-1C8,15,7.8,13.4,9.1,13.7c0.7,0.1,0.9,0.9,1.2,1.4
	c0.8,1.3,1.7,2.4,3.9,2.2c-0.4,0.5-1.1,0.8-1.2,1.6c-0.1,1,0.7,1.5,1.5,1.5c1.7,0,2.8-1.1,3.7-2c0.6-0.7,1.2-1.6,1.2-2.9
	C19.4,14,18.8,12.9,18.2,12z M13.6,16c-1.2,0-2.1-1-2.1-2.1s1-2.1,2.1-2.1s2.1,1,2.1,2.1S14.8,16,13.6,16z"></path></svg>