<svg xmlns="http://www.w3.org/2000/svg" viewBox="0 0 27 27" height="27" width="27"><title>brochure-white-22.svg</title><rect fill="none" x="0" y="0" width="27" height="27"></rect><rect x="0" y="0" width="27" height="27" rx="4" ry="4" fill="#231f20"></rect><path fill="#ffffff" transform="translate(2 2)" d="M1,1v17l6,4V5L1,1z M6,17.3l-4-2.7v-7l4,2.7V17.3z M6,8.3L2,5.7v-2l4,2.7V8.3z"></path><path fill="#ffffff" transform="translate(2 2)" d="M15,1v17l6,4V5L15,1z M20,18.3l-4-2.7v-2l4,2.7V18.3z M20,14.3l-4-2.7v-7l4,2.7V14.3z"></path><path fill="#ffffff" transform="translate(2 2)" d="M8,5v17l6-4V1L8,5z M13,16.7l-4,2.7v-2l4-2.7V16.7z M13,13.7l-4,2.7v-2l4-2.7V13.7z M13,10.7l-4,2.7v-2
	l4-2.7V10.7z M13,5.7L9,8.3v-2l4-2.7V5.7z"></path></svg>