<svg xmlns="http://www.w3.org/2000/svg" viewBox="0 0 18 18" height="18" width="18"><title>brochure-white-14.svg</title><rect fill="none" x="0" y="0" width="18" height="18"></rect><rect x="0" y="0" width="18" height="18" rx="4" ry="4" fill="#231f20"></rect><path fill="#ffffff" transform="translate(2 2)" d="M0,0v11l4,3V3L0,0z M3,11.2L1,9.8v-4l2,1.5V11.2z M3,5.2L1,3.8v-1l2,1.5V5.2z"></path><path fill="#ffffff" transform="translate(2 2)" d="M10,0v11l4,3V3L10,0z M13,11.2l-2-1.5v-1l2,1.5V11.2z M13,8.2l-2-1.5v-4l2,1.5V8.2z"></path><path fill="#ffffff" transform="translate(2 2)" d="M5,3v11l4-3V0L5,3z M8,10.8l-2,1.5v-1l2-1.5V10.8z M8,8.8l-2,1.5v-1l2-1.5V8.8z M8,6.8L6,8.2v-1l2-1.5V6.8z
	 M8,3.8L6,5.2v-1l2-1.5V3.8z"></path></svg>