<?xml version="1.0" encoding="utf-8"?>
<!-- Generator: Adobe Illustrator 25.2.1, SVG Export Plug-In . SVG Version: 6.00 Build 0)  -->
<svg version="1.1" id="Layer_1" xmlns="http://www.w3.org/2000/svg" xmlns:xlink="http://www.w3.org/1999/xlink" x="0px" y="0px"
	 width="18px" height="18px" viewBox="0 0 18 18" enable-background="new 0 0 18 18" xml:space="preserve">
<path fill="#231F20" d="M4,0h10c2.21,0,4,1.79,4,4v10c0,2.21-1.79,4-4,4H4c-2.21,0-4-1.79-4-4V4C0,1.79,1.79,0,4,0z"/>
<path fill="#FFFFFF" d="M4,2v14h2v-4h2v4h6V2H4z M8,10H6V8h2V10z M8,6H6V4h2V6z M12,14h-2v-2h2V14z M12,10h-2V8h2V10z M12,6h-2V4h2
	V6z"/>
</svg>
