<?xml version="1.0" encoding="utf-8"?>
<!-- Generator: Adobe Illustrator 25.2.1, SVG Export Plug-In . SVG Version: 6.00 Build 0)  -->
<svg version="1.1" id="Layer_1" xmlns="http://www.w3.org/2000/svg" xmlns:xlink="http://www.w3.org/1999/xlink" x="0px" y="0px"
	 width="18px" height="18px" viewBox="0 0 18 18" enable-background="new 0 0 18 18" xml:space="preserve">
<path fill="#231F20" d="M4,0h10c2.21,0,4,1.79,4,4v10c0,2.21-1.79,4-4,4H4c-2.21,0-4-1.79-4-4V4C0,1.79,1.79,0,4,0z"/>
<path fill="#FFFFFF" d="M15,13.09V4.91c0.58-0.21,1-0.76,1-1.41C16,2.67,15.33,2,14.5,2c-0.65,0-1.2,0.42-1.41,1H4.91
	C4.7,2.42,4.15,2,3.5,2C2.67,2,2,2.67,2,3.5c0,0.65,0.42,1.2,1,1.41v1.18C2.42,6.3,2,6.85,2,7.5C2,8.33,2.67,9,3.5,9
	c0.65,0,1.2-0.42,1.41-1h2.18C7.24,8.42,7.58,8.76,8,8.91v4.18c-0.58,0.21-1,0.76-1,1.41C7,15.33,7.67,16,8.5,16
	c0.65,0,1.2-0.42,1.41-1h3.18c0.21,0.58,0.76,1,1.41,1c0.83,0,1.5-0.67,1.5-1.5C16,13.85,15.58,13.3,15,13.09z M14.5,3
	C14.78,3,15,3.22,15,3.5C15,3.78,14.78,4,14.5,4S14,3.78,14,3.5C14,3.22,14.22,3,14.5,3z M3.5,3C3.78,3,4,3.22,4,3.5
	C4,3.78,3.78,4,3.5,4S3,3.78,3,3.5C3,3.22,3.22,3,3.5,3z M3.5,8C3.22,8,3,7.78,3,7.5C3,7.22,3.22,7,3.5,7S4,7.22,4,7.5
	C4,7.78,3.78,8,3.5,8z M8.5,15C8.22,15,8,14.78,8,14.5C8,14.22,8.22,14,8.5,14S9,14.22,9,14.5C9,14.78,8.78,15,8.5,15z M8,7.5
	C8,7.22,8.22,7,8.5,7S9,7.22,9,7.5C9,7.78,8.78,8,8.5,8S8,7.78,8,7.5z M13.09,14H9.91C9.76,13.58,9.42,13.24,9,13.09V8.91
	c0.58-0.21,1-0.76,1-1.41C10,6.67,9.33,6,8.5,6C7.85,6,7.3,6.42,7.09,7H4.91C4.76,6.58,4.42,6.24,4,6.09V4.91
	C4.42,4.76,4.76,4.42,4.91,4h8.18c0.15,0.42,0.48,0.76,0.91,0.91v8.18C13.58,13.24,13.24,13.58,13.09,14z M14.5,15
	c-0.28,0-0.5-0.22-0.5-0.5c0-0.28,0.22-0.5,0.5-0.5s0.5,0.22,0.5,0.5C15,14.78,14.78,15,14.5,15z"/>
</svg>
