<?xml version="1.0" encoding="utf-8"?>
<!-- Generator: Adobe Illustrator 25.2.1, SVG Export Plug-In . SVG Version: 6.00 Build 0)  -->
<svg version="1.1" id="Layer_1" xmlns="http://www.w3.org/2000/svg" xmlns:xlink="http://www.w3.org/1999/xlink" x="0px" y="0px"
	 width="27px" height="27px" viewBox="0 0 27 27" enable-background="new 0 0 27 27" xml:space="preserve">
<path fill="#231F20" d="M4,0h19c2.21,0,4,1.79,4,4v19c0,2.21-1.79,4-4,4H4c-2.21,0-4-1.79-4-4V4C0,1.79,1.79,0,4,0z"/>
<path fill="#FFFFFF" d="M22.38,20.17V7.83C23.32,7.48,24,6.57,24,5.5C24,4.12,22.88,3,21.5,3c-1.07,0-1.98,0.68-2.33,1.63H6.83
	C6.48,3.68,5.57,3,4.5,3C3.12,3,2,4.12,2,5.5c0,1.07,0.68,1.98,1.63,2.33v1.33C2.68,9.52,2,10.43,2,11.5C2,12.88,3.12,14,4.5,14
	c1.07,0,1.98-0.68,2.33-1.63h3.33c0.25,0.67,0.78,1.21,1.46,1.46v6.33C10.68,20.52,10,21.43,10,22.5c0,1.38,1.12,2.5,2.5,2.5
	c1.07,0,1.98-0.68,2.33-1.63h4.33C19.52,24.32,20.43,25,21.5,25c1.38,0,2.5-1.12,2.5-2.5C24,21.43,23.32,20.52,22.38,20.17z
	 M19.17,21.63h-4.33c-0.25-0.67-0.78-1.21-1.46-1.46v-6.33C14.32,13.48,15,12.57,15,11.5c0-1.38-1.12-2.5-2.5-2.5
	c-1.07,0-1.98,0.68-2.33,1.63H6.83C6.58,9.95,6.05,9.42,5.38,9.17V7.83c0.67-0.25,1.21-0.78,1.46-1.46h12.33
	c0.25,0.67,0.78,1.21,1.46,1.46v12.33C19.95,20.42,19.42,20.95,19.17,21.63z M11.75,11.5c0-0.41,0.34-0.75,0.75-0.75
	s0.75,0.34,0.75,0.75c0,0.41-0.34,0.75-0.75,0.75S11.75,11.91,11.75,11.5z M21.5,4.75c0.41,0,0.75,0.34,0.75,0.75
	c0,0.41-0.34,0.75-0.75,0.75s-0.75-0.34-0.75-0.75C20.75,5.09,21.09,4.75,21.5,4.75z M4.5,4.75c0.41,0,0.75,0.34,0.75,0.75
	c0,0.41-0.34,0.75-0.75,0.75S3.75,5.91,3.75,5.5C3.75,5.09,4.09,4.75,4.5,4.75z M4.5,12.25c-0.41,0-0.75-0.34-0.75-0.75
	c0-0.41,0.34-0.75,0.75-0.75s0.75,0.34,0.75,0.75C5.25,11.91,4.91,12.25,4.5,12.25z M12.5,23.25c-0.41,0-0.75-0.34-0.75-0.75
	c0-0.41,0.34-0.75,0.75-0.75s0.75,0.34,0.75,0.75C13.25,22.91,12.91,23.25,12.5,23.25z M21.5,23.25c-0.41,0-0.75-0.34-0.75-0.75
	c0-0.41,0.34-0.75,0.75-0.75s0.75,0.34,0.75,0.75C22.25,22.91,21.91,23.25,21.5,23.25z"/>
</svg>
