<?xml version="1.0" encoding="utf-8"?>
<!-- Generator: Adobe Illustrator 25.2.1, SVG Export Plug-In . SVG Version: 6.00 Build 0)  -->
<svg version="1.1" id="Layer_1" xmlns="http://www.w3.org/2000/svg" xmlns:xlink="http://www.w3.org/1999/xlink" x="0px" y="0px"
	 width="27px" height="27px" viewBox="0 0 27 27" enable-background="new 0 0 27 27" xml:space="preserve">
<path fill="#231F20" d="M4,0h19c2.21,0,4,1.79,4,4v19c0,2.21-1.79,4-4,4H4c-2.21,0-4-1.79-4-4V4C0,1.79,1.79,0,4,0z"/>
<path fill="#FFFFFF" d="M6.24,21.8c0.16-0.09,0.32-0.19,0.47-0.28c1.63,1.04,3.55,1.61,5.5,1.61c1.96,0,3.88-0.57,5.51-1.61
	c0.4,0.24,0.83,0.47,1.3,0.68c1.37,0.62,2.78,0.93,4.19,0.93c0.26,0,0.52-0.02,0.79-0.04v-1.6c-0.26,0.02-0.52,0.07-0.79,0.07
	c-1.27,0-2.46-0.3-3.54-0.79c-0.7-0.32-1.37-0.7-1.96-1.18c-1.49,1.23-3.41,1.98-5.5,1.98s-4.01-0.74-5.5-1.98
	c-0.39,0.32-0.81,0.6-1.25,0.85C4.43,21.03,3.25,21.39,2,21.51v1.57C3.49,22.96,4.94,22.54,6.24,21.8z"/>
<path fill="#FFFFFF" d="M19.77,4.13l-3.56-1.19c-0.36-0.12-0.76-0.09-1.09,0.09c-0.33,0.18-0.58,0.48-0.69,0.85l-1.93,6.76
	l-5.27,7.32l0.49,0.4c1.26,1.04,2.86,1.62,4.5,1.62s3.24-0.57,4.5-1.62l1-0.83l1,0.83c0.23,0.19,0.47,0.34,0.72,0.5l-0.75-6.09
	l1.98-6.95C20.87,5.11,20.48,4.37,19.77,4.13z M18.19,8.79l-0.1-0.81C17.91,6.52,16.14,6,15.17,7l0.72-2.5l3.22,1.07L18.19,8.79z"/>
</svg>
