<?xml version="1.0" encoding="utf-8"?>
<!-- Generator: Adobe Illustrator 25.2.1, SVG Export Plug-In . SVG Version: 6.00 Build 0)  -->
<svg version="1.1" id="Layer_1" xmlns="http://www.w3.org/2000/svg" xmlns:xlink="http://www.w3.org/1999/xlink" x="0px" y="0px"
	 width="18px" height="18px" viewBox="0 0 18 18" enable-background="new 0 0 18 18" xml:space="preserve">
<path fill="#231F20" d="M4,0h10c2.21,0,4,1.79,4,4v10c0,2.21-1.79,4-4,4H4c-2.21,0-4-1.79-4-4V4C0,1.79,1.79,0,4,0z"/>
<path fill="#FFFFFF" d="M4.7,14.6c0.1-0.06,0.2-0.12,0.3-0.18c1.04,0.66,2.26,1.02,3.5,1.02c1.25,0,2.47-0.36,3.51-1.03
	c0.25,0.15,0.53,0.3,0.83,0.43c0.87,0.39,1.77,0.59,2.67,0.59c0.17,0,0.33-0.01,0.5-0.02V14.4c-0.17,0.02-0.33,0.04-0.5,0.04
	c-0.81,0-1.56-0.19-2.26-0.5c-0.45-0.2-0.87-0.45-1.24-0.75c-0.95,0.79-2.17,1.26-3.5,1.26S5.95,13.97,5,13.19
	c-0.25,0.2-0.51,0.38-0.79,0.54C3.54,14.11,2.8,14.34,2,14.41v1C2.95,15.34,3.87,15.07,4.7,14.6z"/>
<path fill="#FFFFFF" d="M13.31,3.36L11.04,2.6c-0.23-0.08-0.48-0.06-0.69,0.06C10.13,2.77,9.98,2.96,9.91,3.2L8.68,7.5l-3.35,4.66
	l0.31,0.26c0.8,0.66,1.82,1.03,2.86,1.03s2.06-0.37,2.86-1.03L12,11.89l0.64,0.53c0.14,0.12,0.3,0.22,0.46,0.32l-0.48-3.87
	l1.26-4.42C14.01,3.98,13.76,3.51,13.31,3.36z M12.3,6.32l-0.06-0.51C12.12,4.88,11,4.55,10.38,5.18l0.46-1.59l2.05,0.68L12.3,6.32z
	"/>
</svg>
