<svg xmlns="http://www.w3.org/2000/svg" viewBox="0 0 27 27" height="27" width="27"><title>bus-stop-white-22.svg</title><rect fill="none" x="0" y="0" width="27" height="27"></rect><rect x="0" y="0" width="27" height="27" rx="4" ry="4" fill="#231f20"></rect><path fill="#ffffff" transform="translate(2 2)" d="M14,0H8c0,0-6,0.1-6,8c0,2.6,0,11,0,11h2v3h2v-3h10v3h2v-3h2c0,0,0-3.2,0-11C20,0.1,14,0,14,0z M7,2h8v1H7V2z M6,16H4v-2h2
		V16z M18,16h-2v-2h2V16z M18,11H4V5.2C4,4.5,4.5,4,5.2,4H17c0.6,0,1,0.4,1,1V11z"></path></svg>