<svg xmlns="http://www.w3.org/2000/svg" viewBox="0 0 18 18" height="18" width="18"><title>calendar-events-white-14.svg</title><rect fill="none" x="0" y="0" width="18" height="18"></rect><rect x="0" y="0" width="18" height="18" rx="4" ry="4" fill="#231f20"></rect><path fill="#ffffff" transform="translate(2 2)" d="M10.7,0c0.3,0,0.6,0.3,0.6,0.6v1.9C11.3,2.8,11,3,10.7,3s-0.6-0.3-0.6-0.6V0.6C10.1,0.3,10.4,0,10.7,0"></path><path fill="#ffffff" transform="translate(2 2)" d="M12,1.7v0.7c0,0.7-0.6,1.3-1.3,1.3S9.5,3.1,9.5,2.5V1.7h-5v0.7c0,0.7-0.6,1.3-1.3,1.3C2.6,3.7,2,3.1,2,2.5
		V1.7H0.2v3.1V14h13.6V4.8V1.7H12z M13.1,10.6l-2.7,2.7H0.9V4.8H13v5.8H13.1z"></path><path fill="#ffffff" transform="translate(2 2)" d="M3.3,0c0.3,0,0.6,0.3,0.6,0.6v1.9C3.9,2.8,3.6,3,3.3,3S2.7,2.8,2.7,2.5V0.6C2.7,0.3,3,0,3.3,0"></path><path fill="#ffffff" transform="translate(2 2)" d="M10.7,0c0.3,0,0.6,0.3,0.6,0.6v1.9C11.3,2.8,11,3,10.7,3s-0.6-0.3-0.6-0.6V0.6C10.1,0.3,10.4,0,10.7,0"></path><path fill="#ffffff" transform="translate(2 2)" d="M7,6.3h1v5.5H6.8V7.5L5.9,8.3L5.4,7.5L7,6.3z"></path></svg>