<svg xmlns="http://www.w3.org/2000/svg" viewBox="0 0 27 27" height="27" width="27"><title>calendar-events-white-22.svg</title><rect fill="none" x="0" y="0" width="27" height="27"></rect><rect x="0" y="0" width="27" height="27" rx="4" ry="4" fill="#231f20"></rect><path fill="#ffffff" transform="translate(2 2)" d="M16.8,0c0.5,0,0.9,0.4,0.9,0.9v2.9c0,0.5-0.4,0.9-0.9,0.9s-0.9-0.4-0.9-0.9V0.9C15.9,0.4,16.3,0,16.8,0"></path><path fill="#ffffff" transform="translate(2 2)" d="M18.8,2.7v1.2c0,1.1-0.9,2-2,2s-2-0.9-2-2V2.7H7.1v1.2c0,1.1-0.9,2-2,2s-2-0.9-2-2V2.7H0.3v4.9V22h21.4V7.6
		V2.7H18.8z M20.5,16.6l-4.3,4.2H1.5V7.6h19.1v9H20.5z"></path><path fill="#ffffff" transform="translate(2 2)" d="M5.2,0c0.5,0,0.9,0.4,0.9,0.9v2.9c0,0.5-0.4,0.9-0.9,0.9S4.3,4.3,4.3,3.8V0.9C4.2,0.4,4.7,0,5.2,0"></path><path fill="#ffffff" transform="translate(2 2)" d="M16.8,0c0.5,0,0.9,0.4,0.9,0.9v2.9c0,0.5-0.4,0.9-0.9,0.9s-0.9-0.4-0.9-0.9V0.9C15.9,0.4,16.3,0,16.8,0"></path><path fill="#ffffff" transform="translate(2 2)" d="M10.9,9.8h1.5v8.6h-1.7v-6.6L9.3,13l-0.9-1.1L10.9,9.8z"></path></svg>