<?xml version="1.0" encoding="utf-8"?>
<!-- Generator: Adobe Illustrator 27.9.1, SVG Export Plug-In . SVG Version: 6.00 Build 0)  -->
<svg version="1.1" id="Layer_1" xmlns="http://www.w3.org/2000/svg" xmlns:xlink="http://www.w3.org/1999/xlink" x="0px" y="0px"
	 viewBox="0 0 27 27" enable-background="new 0 0 27 27" xml:space="preserve">
<rect fill="none" width="27" height="27"/>
<path fill="#231F20" d="M4,0h19c2.2,0,4,1.8,4,4v19c0,2.2-1.8,4-4,4H4c-2.2,0-4-1.8-4-4V4C0,1.8,1.8,0,4,0z"/>
<path fill="#FFFFFF" d="M5.1,18.9H3.3v3.6c0,1.1,1,2,2.2,2h16c1.2,0,2.2-0.9,2.2-2v-3.6h-1.8v3.2c0,0.4-0.4,0.7-0.8,0.7H5.9
	c-0.4,0-0.8-0.3-0.8-0.7C5.1,22.1,5.1,18.9,5.1,18.9z"/>
<polygon fill="#FFFFFF" points="19.7,21.3 19.7,18.5 7.3,14.3 7.3,17.2 "/>
<path fill="#FFFFFF" d="M10.2,14.3C9.8,13.8,7,10.6,9.8,7.7c2.3-2.3,2.7-4.2,1.9-5.2c0,0,6,2.5,2.5,8.2c-0.6,1-2.1,2.1-1.3,4.5
	L10.2,14.3z"/>
<path fill="#FFFFFF" d="M13.9,15.1c-0.1-0.5-0.7-1.5,1.1-3.6c0.9-1.1,1.3-2.8,1.4-3.4c0,0,3.1,1.8,0,6.2L13.9,15.1z"/>
<polygon fill="#FFFFFF" points="14.5,15.8 19.7,14.1 19.7,16.9 18.8,17.2 "/>
<polygon fill="#FFFFFF" points="12.4,19.8 7.3,21.6 7.3,18.7 8.2,18.4 "/>
</svg>
