<?xml version="1.0" encoding="utf-8"?>
<!-- Generator: Adobe Illustrator 27.9.1, SVG Export Plug-In . SVG Version: 6.00 Build 0)  -->
<svg version="1.1" id="Layer_1" xmlns="http://www.w3.org/2000/svg" xmlns:xlink="http://www.w3.org/1999/xlink" x="0px" y="0px"
	 viewBox="0 0 18 18" enable-background="new 0 0 18 18" xml:space="preserve">
<rect fill="none" width="18" height="18"/>
<path fill="#231F20" d="M4,0h10c2.2,0,4,1.8,4,4v10c0,2.2-1.8,4-4,4H4c-2.2,0-4-1.8-4-4V4C0,1.8,1.8,0,4,0z"/>
<path fill="#FFFFFF" d="M3.7,12.4H2.5v2.3c0,0.7,0.6,1.3,1.4,1.3h10.2c0.8,0,1.4-0.6,1.4-1.3v-2.3h-1.2v2c0,0.3-0.1,0.5-0.3,0.5H4
	c-0.3,0-0.3-0.3-0.3-0.5V12.4z"/>
<polygon fill="#FFFFFF" points="12.9,14 12.9,12.2 5.1,9.5 5.1,11.3 "/>
<path fill="#FFFFFF" d="M6.9,9.5C6.6,9.2,4.8,7.2,6.6,5.4C8.1,3.9,8.4,2.6,7.8,2c0,0,3.8,1.6,1.6,5.2C9,7.9,8.1,8.6,8.6,10.1
	L6.9,9.5z"/>
<path fill="#FFFFFF" d="M9.2,10C9.1,9.7,8.8,9,9.9,7.7C10.5,7,10.7,6,10.8,5.6c0,0,2,1.1,0,3.9L9.2,10z"/>
<polygon fill="#FFFFFF" points="9.7,10.5 12.9,9.4 12.9,11.2 12.4,11.4 "/>
<polygon fill="#FFFFFF" points="8.3,13 5.1,14.1 5.1,12.3 5.6,12.1 "/>
</svg>
