<svg xmlns="http://www.w3.org/2000/svg" viewBox="0 0 18 18" height="18" width="18"><title>campfire-white-14.svg</title><rect fill="none" x="0" y="0" width="18" height="18"></rect><rect x="0" y="0" width="18" height="18" rx="4" ry="4" fill="#231f20"></rect><path fill="#ffffff" transform="translate(2 2)" d="M0,10h1v3h12v-3h1v3l-1,1H1l-1-1V10z M4,9h1l1,1h1l1,1h1l1,1h2v-1h-2l-1-1H8L7,9H6L5,8H4L3,7H2v1h1L4,9z M8,8h1
	V7h1l1-1l-1-2V3H9v3H8V8z M7,8H6V7L4,6l1-3l1-1l1-1V0h1L7,3v3V8z M10,8h2v1h-2V8z M2,11h2v1H2V11z"></path></svg>