<svg xmlns="http://www.w3.org/2000/svg" viewBox="0 0 27 27" height="27" width="27"><title>campfire-white-22.svg</title><rect fill="none" x="0" y="0" width="27" height="27"></rect><rect x="0" y="0" width="27" height="27" rx="4" ry="4" fill="#231f20"></rect><path fill="#ffffff" transform="translate(2 2)" d="M8.6,11c-0.4-0.4-2.8-3.5-0.4-5.7c2.3-2,2.6-4.5,1.9-5.3c0,0,4.4,2.9,2,8c-0.8,0.9-1.8,2-1.1,4L8.6,11z
	 M13.1,12c0-0.9-0.9-0.2,0.5-3.1c1.2-1.1,0.8-1.8,0.5-2.9c0,0,3.6,1.4,0.8,5.3L13.1,12z M0,16h2v4h18v-4h2v4l-2,2H2l-2-2V16z M4,12
	l14,5v2L4,14V12z M4,17v2l3.9-1.5l-2.6-1L4,17z M18.9,12L15,13.5l2.6,1l1.3-0.5V12z"></path></svg>