<svg xmlns="http://www.w3.org/2000/svg" viewBox="0 0 18 18" height="18" width="18"><title>cannon-white-14.svg</title><rect fill="none" x="0" y="0" width="18" height="18"></rect><rect x="0" y="0" width="18" height="18" rx="4" ry="4" fill="#231f20"></rect><path fill="#ffffff" transform="translate(2 2)" d="M8.5,6l4.8-0.6c0,0,0.3-0.1,0.7,0.3l-0.2-2.1c-0.3,0.3-0.6,0.3-0.6,0.3L4,4C3.2,4,3,4.7,3,5.1
	C2.9,5,2.8,4.9,2.6,4.9S2.2,5.1,2.2,5.3s0.2,0.4,0.4,0.4C2.8,5.8,3,5.7,3,5.6c0,0.2,0.2,0.6,0.5,0.8L2,8.9L1.1,9V8.7L0,8.8l0.1,1.5
	L2.8,10l1.5-2.4L5,6.4l0.4-0.1L8.5,6z M7,5C5.3,5,4,6.3,4,8s1.3,3,3,3s3-1.3,3-3S8.7,5,7,5z M7,10c-1.1,0-2-0.9-2-2s0.9-2,2-2
	s2,0.9,2,2S8.1,10,7,10z"></path></svg>