<?xml version="1.0" encoding="utf-8"?>
<!-- Generator: Adobe Illustrator 25.4.1, SVG Export Plug-In . SVG Version: 6.00 Build 0)  -->
<svg version="1.1" id="Layer_1" xmlns="http://www.w3.org/2000/svg" xmlns:xlink="http://www.w3.org/1999/xlink" x="0px" y="0px"
	 width="18px" height="18px" viewBox="0 0 18 18" enable-background="new 0 0 18 18" xml:space="preserve">
<rect fill="none" width="18" height="18"/>
<path fill="#231F20" d="M4,0h10c2.2,0,4,1.8,4,4v10c0,2.2-1.8,4-4,4H4c-2.2,0-4-1.8-4-4V4C0,1.8,1.8,0,4,0z"/>
<path fill="#FFFFFF" d="M7.2,4H6.7C6.3,4,6,3.7,6,3.2V2.8C6,2.3,6.3,2,6.8,2h0.5C7.7,2,8,2.3,8,2.8v0.5C8,3.7,7.7,4,7.2,4z"/>
<path fill="#FFFFFF" d="M10.8,5.1c-0.2-0.1-0.5-0.1-0.7,0L8.5,6.8L6.9,5.2L6.7,5H5.5H5L3,8v1h3L5,8l1.3-2l1.8,1.8C8.2,8,8.3,8,8.5,8
	s0.3,0,0.4-0.1l2-2C11,5.7,11,5.3,10.8,5.1z"/>
<path fill="#FFFFFF" d="M15.6,14.5c-0.3,0-0.6-0.1-0.8-0.2c-0.3-0.1-0.6-0.5-0.9-0.5c-0.3,0-0.6,0.4-0.9,0.5
	c-0.2,0.1-0.5,0.2-0.8,0.2s-0.6-0.1-0.8-0.2c-0.3-0.1-0.6-0.5-0.9-0.5c-0.3,0-0.6,0.4-0.9,0.5c-0.2,0.1-0.5,0.2-0.8,0.2
	S8.2,14.4,8,14.3c-0.3-0.1-0.6-0.5-0.9-0.5s-0.6,0.4-0.9,0.5c-0.2,0.1-0.5,0.2-0.8,0.2c-0.3,0-0.6-0.1-0.8-0.2
	c-0.3-0.1-0.6-0.5-0.9-0.5s-0.6,0.4-0.9,0.5c-0.2,0.1-0.5,0.2-0.8,0.2v-1.2c0.3,0,0.6-0.1,0.8-0.2c0.3-0.1,0.6-0.5,0.9-0.5
	s0.6,0.4,0.9,0.5c0.3,0.1,0.5,0.2,0.8,0.2c0.3,0,0.6-0.1,0.8-0.2c0.3-0.1,0.6-0.5,0.9-0.5S7.7,13,8,13.1s0.5,0.2,0.8,0.2
	s0.6-0.1,0.8-0.2c0.3-0.1,0.6-0.5,0.9-0.5s0.6,0.4,0.9,0.5c0.3,0.1,0.5,0.2,0.8,0.2s0.6-0.1,0.8-0.2c0.3-0.1,0.6-0.5,0.9-0.5
	c0.3,0,0.6,0.4,0.9,0.5c0.3,0.1,0.5,0.2,0.8,0.2C15.6,13.3,15.6,14.5,15.6,14.5z"/>
<path fill="#FFFFFF" d="M3.7,11.6c0.3,0,0.6,0.4,0.9,0.5s0.5,0.2,0.8,0.2c0.3,0,0.6-0.1,0.8-0.2c0.3-0.1,0.6-0.5,0.9-0.5
	S7.7,12,8,12.1s0.5,0.2,0.8,0.2s0.6-0.1,0.8-0.2c0.3-0.1,0.6-0.5,0.9-0.5s0.6,0.4,0.9,0.5c0.3,0.1,0.5,0.2,0.8,0.2s0.6-0.1,0.8-0.2
	c0.3-0.1,0.6-0.5,0.9-0.5c0.2,0,0.5,0.2,0.7,0.4c0,0,0.4,0,0.7-0.3c0.4-0.5,0.7-1,0.7-1.6C16,8.7,14.9,8,13.6,8h-0.3
	c-0.3,1.2-1.5,1-1.5,1H2v3.3c0.3,0,0.6-0.1,0.8-0.2C3.1,12,3.4,11.6,3.7,11.6z"/>
</svg>
