<svg xmlns="http://www.w3.org/2000/svg" viewBox="0 0 18 18" height="18" width="18"><title>canoe-portaging-white-14.svg</title><rect fill="none" x="0" y="0" width="18" height="18"></rect><rect x="0" y="0" width="18" height="18" rx="4" ry="4" fill="#231f20"></rect><path fill="#ffffff" transform="translate(2 2)" d="M13.9,1.5c-0.5-1.2-1.6-1.6-3.6-1C8.2,1.1,0,3.6,0,3.6l0,3.2l1.9-0.6l1.8-0.5C3.6,5.9,3.6,6,3.7,6.1l0.7,0.7
	C4.5,7,4.6,7,4.8,7c0,0,0,0,0,0l1.1-0.1c0,0.2-0.1,0.4-0.1,0.7l-0.5,3.9l-0.9,1.9c0,0.1-0.1,0.2-0.1,0.3c0,0.3,0.3,0.6,0.6,0.6
	c0.2,0,0.4-0.1,0.5-0.3l1-2.1c0-0.1,0.1-0.2,0.1-0.3l0.1-1l1,3.3c0.1,0.2,0.3,0.4,0.6,0.4c0.3,0,0.6-0.3,0.6-0.6c0,0,0-0.1,0-0.1
	L7.4,9l0.2-1.3c0.1-0.4,0.1-0.7,0.1-1l1.4-0.9C9,5.9,9.1,5.8,9.1,5.7l0.4-1.2l-1,0.3L8.3,5.3L7.2,6L4.9,6.1L4.7,5.9l0,0L4.3,5.5
	c0,0,0,0,0,0L5,5.3l5.5-1.6c0,0,1.1-0.3,1.7,0.7l0.3-0.1C13.6,4,14.3,2.8,13.9,1.5z"></path><path fill="#ffffff" transform="translate(2 2)" d="M6.8,5.8c0.4,0,0.8-0.3,0.8-0.8L6.1,5.5C6.3,5.7,6.5,5.8,6.8,5.8z"></path></svg>