<svg xmlns="http://www.w3.org/2000/svg" viewBox="0 0 18 18" height="18" width="18"><title>canoe-access-white-14.svg</title><rect fill="none" x="0" y="0" width="18" height="18"></rect><rect x="0" y="0" width="18" height="18" rx="4" ry="4" fill="#231f20"></rect><path fill="#ffffff" transform="translate(2 2)" d="M14,12.5L13,13h-1l-2-1H9l-2,1H6l-2-1H3l-2,1H0v1h1l2-1h1l2,1h1l2-1h1l2,1h1l1-0.5c0-0.2,0-0.3,0-0.5
	S14,12.7,14,12.5z M4,1h2v2H4V1z M1.1,11l2-1h1l2,1h1l2-1h1l2,1H13l1-2l-2-2l-1-0.5V8H4V7h3l2-1V4L7.5,4.5L7,5.5H5.5L4,4H3L0,8v3
	H1.1z"></path></svg>