<svg xmlns="http://www.w3.org/2000/svg" viewBox="0 0 27 27" height="27" width="27"><title>canoe-access-white-22.svg</title><rect fill="none" x="0" y="0" width="27" height="27"></rect><rect x="0" y="0" width="27" height="27" rx="4" ry="4" fill="#231f20"></rect><path fill="#ffffff" transform="translate(2 2)" d="M3,17l2,1h1l2-1h1l2,1h1l2-1h1l2,1h1l2-1h0.2c0.1-0.1,0.1-0.2,0.2-0.1c0.6-0.7,1-1.5,1-2.5
	c0-2.1-1.7-3.7-3.7-3.7h-0.4c-0.5,1.9-2.3,1.9-2.3,1.9H6.5l-0.7-0.4l1.7-2.9l1.9,1.1c1.1,0.7,1.7-0.3,1.7-0.3l1.9-3
	c0.8-1.4-1-2.4-1.8-1.1L9.9,8.1L6.8,6.4C4.6,5.2,3.7,7.2,3.7,7.2l-2.5,4.2c-0.4,0.9,0,1.2,0,1.2H0V18l2-1H3z"></path><path fill="#ffffff" transform="translate(2 2)" d="M21,19h-1l-2,1h-1l-2-1h-1l-2,1h-1l-2-1H8l-2,1H5l-2-1H2l-2,1v2l2-1h1l2,1h1l2-1h1l2,1h1l2-1h1l2,1h1l2-1h1
	l1,0.5v-2L21,19z"></path><path fill="#ffffff" transform="translate(2 2)" d="M8,1c1.1,0,2,0.9,2,2S9.1,5,8,5S6,4.1,6,3S6.9,1,8,1z"></path></svg>