<svg xmlns="http://www.w3.org/2000/svg" viewBox="0 0 18 18" height="18" width="18"><title>cans-or-bottles-white-14.svg</title><rect fill="none" x="0" y="0" width="18" height="18"></rect><rect x="0" y="0" width="18" height="18" rx="4" ry="4" fill="#231f20"></rect><path fill="#ffffff" transform="translate(2 2)" d="M9.7,1C9.6,1,9.5,0.9,9.5,0.7l0,0c0-0.1,0.1-0.2,0.1-0.2c-0.1,0-0.1-0.1-0.1-0.2l0,0C9.5,0.1,9.6,0,9.7,0
	h1.5c0.1,0,0.3,0.1,0.3,0.3l0,0c0,0.1-0.1,0.2-0.1,0.2c0.1,0,0.1,0.1,0.1,0.2l0,0c0,0.1-0.1,0.2-0.2,0.3l1.6,4.2
	C12.9,5.4,13,5.7,13,6v7.4c0,0.3-0.2,0.5-0.5,0.5h-4C8.2,14,8,13.8,8,13.5V6c0-0.3,0-0.6,0.1-0.9L9.7,1z"></path><path fill="#ffffff" transform="translate(2 2)" d="M2.6,5.3L2.6,5.3c0,0.3-0.2,0.4-0.3,0.4s-0.1,0-0.2-0.1L1.3,5C1.2,4.9,1.1,4.8,1.1,4.6C1.1,4.3,1.4,4,1.7,4
	s0.5,0.1,0.6,0.4L2.6,5.3z M1.9,5.2H2c0.1,0,0.2-0.1,0.2-0.2V4.9L2,4.5c0-0.1-0.2-0.2-0.3-0.2c-0.2,0-0.3,0.1-0.3,0.3
	c0,0.1,0,0.2,0.1,0.2L1.9,5.2z"></path><path fill="#ffffff" transform="translate(2 2)" d="M5.7,6c0.1,0,0.2,0.1,0.2,0.2v0.2c0,0.1-0.1,0.2-0.2,0.2H5.5C5.7,6.7,5.9,7,5.9,7.2L6,13c0,0.3-0.7,1-1,1H2
	c-0.3,0-1-0.7-1-1V7.2c0-0.3,0.1-0.5,0.4-0.6H1.2C1.1,6.6,1,6.5,1,6.4V6.2C1,6.1,1.1,6,1.2,6H5.7z"></path></svg>