<svg xmlns="http://www.w3.org/2000/svg" viewBox="0 0 27 27" height="27" width="27"><title>cans-or-bottles-white-22.svg</title><rect fill="none" x="0" y="0" width="27" height="27"></rect><rect x="0" y="0" width="27" height="27" rx="4" ry="4" fill="#231f20"></rect><path fill="#ffffff" transform="translate(2 2)" d="M14.7,1.5c-0.2,0-0.3-0.2-0.3-0.4l0,0c0-0.2,0.1-0.3,0.2-0.4c-0.1-0.1-0.2-0.2-0.2-0.4l0,0
	c0-0.2,0.2-0.4,0.4-0.4h2.5c0.2,0,0.4,0.2,0.4,0.4l0,0c0,0.2-0.1,0.3-0.2,0.4c0.1,0.1,0.2,0.2,0.2,0.4l0,0c0,0.2-0.2,0.4-0.3,0.4
	l2.4,6.6C19.9,8.5,20,9,20,9.5v11.7c0,0.4-0.4,0.8-0.8,0.8h-6.4c-0.4,0-0.8-0.4-0.8-0.8V9.5c0-0.5,0.1-1,0.2-1.4L14.7,1.5z"></path><path fill="#ffffff" transform="translate(2 2)" d="M4.8,8c0,0.1,0,0.1,0,0.2c0,0.3-0.2,0.5-0.5,0.5c-0.1,0-0.2,0-0.3-0.1l-1.3-1C2.5,7.4,2.4,7.2,2.4,7
	c0-0.5,0.4-1,1-1c0.4,0,0.7,0.2,0.9,0.6L4.8,8z M3.7,7.9c0,0,0.1,0.1,0.2,0.1C4,8,4.2,7.8,4.2,7.7V7.6L3.8,6.8
	C3.7,6.6,3.6,6.5,3.4,6.5C3.1,6.5,2.9,6.7,2.9,7c0,0.1,0,0.2,0.1,0.3L3.7,7.9z"></path><path fill="#ffffff" transform="translate(2 2)" d="M9.7,9C9.8,9,10,9.1,10,9.3V10c0,0.2-0.1,0.3-0.3,0.3H9.4c0.3,0.2,0.6,0.6,0.6,1v9.8c0,0.5-0.4,0.9-0.9,0.9
	H3c-0.5,0-1-0.5-1-1v-9.7c0-0.4,0.2-0.8,0.6-1H2.3C2.1,10.3,2,10.2,2,10V9.3C2,9.1,2.1,9,2.3,9H9.7z"></path></svg>