<?xml version="1.0" encoding="utf-8"?>
<!-- Generator: Adobe Illustrator 25.4.1, SVG Export Plug-In . SVG Version: 6.00 Build 0)  -->
<svg version="1.1" id="Layer_1" xmlns="http://www.w3.org/2000/svg" xmlns:xlink="http://www.w3.org/1999/xlink" x="0px" y="0px"
	 width="18px" height="18px" viewBox="0 0 18 18" enable-background="new 0 0 18 18" xml:space="preserve">
<path fill="#231F20" d="M4,0h10c2.2,0,4,1.8,4,4v10c0,2.2-1.8,4-4,4H4c-2.2,0-4-1.8-4-4V4C0,1.8,1.8,0,4,0z"/>
<path fill="#FFFFFF" d="M7.7,5.3c0.1-0.1,0.1-0.3,0-0.4L7.2,4.2C7.1,4,6.9,4,6.7,4.1l-2.4,2c-0.1,0.1-0.1,0.3,0,0.4l0.6,0.7
	c0.1,0.1,0.3,0.1,0.4,0L7.7,5.3z"/>
<path fill="#FFFFFF" d="M5.3,8C5.2,8.1,5.1,8.3,5,8.4C4.9,8.6,4.8,8.7,4.8,8.9l-0.7,3l-1.9,1.8c-0.1,0-0.1,0.1-0.1,0.2
	c-0.2,0.3-0.1,0.8,0.3,1c0.2,0.1,0.6,0,0.8-0.2l2.1-2l0.1-0.1c0-0.1,0.1-0.1,0.1-0.2l0.4-1.9l1.6,1.4v2.4c0,0.3,0.1,0.5,0.4,0.6
	c0.3,0.2,0.8,0.1,1-0.3C9,14.5,9,14.4,9,14.2v-2.6c0-0.2-0.1-0.4-0.2-0.5L7.1,9.6l1.7-1.4l0.5,1.3c0,0.1,0.1,0.1,0.2,0.2l1.7,1.3
	c0.2,0.1,0.5,0,0.6-0.2c0.2-0.2,0.2-0.6,0-0.8c0,0-0.1-0.1-0.1-0.2l-1.3-1l-0.9-2C9.4,6.5,9.2,6.3,9,6.1C8.5,5.9,8,5.9,7.6,6.2
	L5.3,8z"/>
<path fill="#FFFFFF" d="M10.5,3C11.3,3,12,3.7,12,4.5S11.3,6,10.5,6S9,5.3,9,4.5S9.7,3,10.5,3z"/>
<path fill="#FFFFFF" d="M12.5,4.3l-0.1-0.1c0-0.1,0.1-0.2,0.2-0.2h3c0.3,0,0.5,0.9,0.3,1.5c-0.2,0.6-0.8,1.4-1,1.1L12.5,4.3z"/>
</svg>
