<svg xmlns="http://www.w3.org/2000/svg" viewBox="0 0 26 26" height="26" width="26"><title>cellular-signal-white-22.svg</title><rect fill="none" x="0" y="0" width="26" height="26"></rect><rect x="0" y="0" width="26" height="26" rx="4" ry="4" fill="#231f20"></rect><path fill="#ffffff" transform="translate(2 2)" d="M18.8,3.2l-1.4,1.4C19,6.3,20,8.5,20,11s-1,4.7-2.6,6.4l1.4,1.4c2-2,3.2-4.7,3.2-7.8C22,8,20.8,5.2,18.8,3.2
	z"></path><path fill="#ffffff" transform="translate(2 2)" d="M2,11c0-2.5,1-4.7,2.6-6.4L3.2,3.2C1.2,5.2,0,8,0,11c0,3,1.2,5.8,3.2,7.8l1.4-1.4C3,15.7,2,13.5,2,11z"></path><path fill="#ffffff" transform="translate(2 2)" d="M6.1,15.9l1.4-1.4C6.6,13.6,6,12.4,6,11c0-1.4,0.6-2.6,1.5-3.5L6.1,6.1C4.8,7.3,4,9.1,4,11
	S4.8,14.7,6.1,15.9z"></path><path fill="#ffffff" transform="translate(2 2)" d="M16,11c0,1.4-0.6,2.6-1.5,3.5l1.4,1.4c1.3-1.3,2.1-3,2.1-4.9c0-1.9-0.8-3.7-2.1-4.9l-1.4,1.4
	C15.4,8.4,16,9.6,16,11z"></path><path fill="#ffffff" transform="translate(2 2)" d="M12,13.8c1.2-0.4,2-1.5,2-2.8c0-1.7-1.3-3-3-3s-3,1.3-3,3c0,1.3,0.8,2.4,2,2.8L8.9,20H8v2h0.6h1h2.9h1H14v-2
	h-0.9L12,13.8z M9.9,20l1.1-6c0,0,0,0,0,0s0,0,0,0l1.1,6H9.9z"></path></svg>