<svg xmlns="http://www.w3.org/2000/svg" viewBox="0 0 18 18" height="18" width="18"><title>cellular-signal-white-14.svg</title><rect fill="none" x="0" y="0" width="18" height="18"></rect><rect x="0" y="0" width="18" height="18" rx="4" ry="4" fill="#231f20"></rect><path fill="#ffffff" transform="translate(2 2)" d="M1,7c0-1.7,0.7-3.2,1.8-4.2L2.1,2.1C0.8,3.3,0,5.1,0,7s0.8,3.7,2.1,4.9l0.7-0.7C1.7,10.2,1,8.7,1,7z"></path><path fill="#ffffff" transform="translate(2 2)" d="M13,7c0,1.7-0.7,3.2-1.8,4.2l0.7,0.7c1.3-1.3,2.1-3,2.1-4.9c0-1.9-0.8-3.7-2.1-4.9l-0.7,0.7
	C12.3,3.8,13,5.3,13,7z"></path><path fill="#ffffff" transform="translate(2 2)" d="M11,7c0,1.1-0.4,2.1-1.2,2.8l0.7,0.7C11.4,9.6,12,8.4,12,7c0-1.4-0.6-2.6-1.5-3.5L9.8,4.2
	C10.6,4.9,11,5.9,11,7z"></path><path fill="#ffffff" transform="translate(2 2)" d="M3,7c0-1.1,0.4-2.1,1.2-2.8L3.5,3.5C2.6,4.4,2,5.6,2,7c0,1.4,0.6,2.6,1.5,3.5l0.7-0.7C3.4,9.1,3,8.1,3,7z"></path><path fill="#ffffff" transform="translate(2 2)" d="M7.8,8.8C8.5,8.5,9,7.8,9,7c0-1.1-0.9-2-2-2S5,5.9,5,7c0,0.8,0.5,1.5,1.2,1.8L5.4,13H5v1h0.3h1h1.5h1H9v-1
	H8.6L7.8,8.8z M6.4,13L7,9.9L7.6,13H6.4z"></path></svg>