<?xml version="1.0" encoding="utf-8"?>
<!-- Generator: Adobe Illustrator 25.2.1, SVG Export Plug-In . SVG Version: 6.00 Build 0)  -->
<svg version="1.1" id="Layer_1" xmlns="http://www.w3.org/2000/svg" xmlns:xlink="http://www.w3.org/1999/xlink" x="0px" y="0px"
	 width="18px" height="18px" viewBox="0 0 18 18" enable-background="new 0 0 18 18" xml:space="preserve">
<path fill="#231F20" d="M4,0h10c2.21,0,4,1.79,4,4v10c0,2.21-1.79,4-4,4H4c-2.21,0-4-1.79-4-4V4C0,1.79,1.79,0,4,0z"/>
<path fill="#FFFFFF" d="M15.11,14H13V6c0-2.21-1.79-4-4-4S5,3.79,5,6v8H2.89C2.4,14,2,14.4,2,14.89V15v0.11V16h0.89h12.23H16v-0.89
	V15v-0.11C16,14.4,15.6,14,15.11,14z"/>
</svg>
