<svg xmlns="http://www.w3.org/2000/svg" viewBox="0 0 27 27" height="27" width="27"><title>chair-lift-ski-lift-white-22.svg</title><rect fill="none" x="0" y="0" width="27" height="27"></rect><rect x="0" y="0" width="27" height="27" rx="4" ry="4" fill="#231f20"></rect><path fill="#ffffff" transform="translate(2 2)" d="M19,16.6c0.8-0.3,1.3-1.2,1-2l-0.6,0.2c0.2,0.5-0.1,1-0.6,1.2L2.9,21.4L3.1,22L19,16.6z"></path><path fill="#ffffff" transform="translate(2 2)" d="M4.3,7.2C5.2,6.9,5.7,6,5.5,5.1C5.2,4.3,4.3,3.8,3.4,4C2.5,4.3,2,5.2,2.3,6.1C2.5,7,3.5,7.5,4.3,7.2z"></path><path fill="#ffffff" transform="translate(2 2)" d="M3.7,9.5c-0.9-1.7,1.6-3,2.6-1.4L8,11.5l3.4-1c0.6-0.2,1.3,0.5,1.3,1.2v4.9c0,1.2-1.8,1.2-1.8,0
	c0-1.1,0-3.5,0-3.5l-3.6,1.1c-0.8,0.2-1.4-0.2-1.7-0.7L3.7,9.5z"></path><path fill="#ffffff" transform="translate(2 2)" d="M8,0h1v10H8V0z"></path><path fill="#ffffff" transform="translate(2 2)" d="M2,11.7c-0.5-1,0.8-1.6,1.3-0.6l1.5,3c0.3,0.6,1,1.1,1.7,1.1c0.2,0,0.5-0.1,0.7-0.1l1.9-0.6
	c1-0.3,1.4,1.1,0.4,1.4l-2,0.6c-0.3,0.1-0.6,0.1-1,0.1c-1.3,0-2.5-0.7-3-1.8L2,11.7z"></path></svg>