<svg xmlns="http://www.w3.org/2000/svg" viewBox="0 0 18 18" height="18" width="18"><title>climbing-white-14.svg</title><rect fill="none" x="0" y="0" width="18" height="18"></rect><rect x="0" y="0" width="18" height="18" rx="4" ry="4" fill="#231f20"></rect><path fill="#ffffff" transform="translate(2 2)" d="M1.6,6C1.5,6.1,1.5,6.3,1.5,6.4s0,0.2,0,0.2l0.1,3.5l-1.2,2.6c0,0.1-0.1,0.2-0.1,0.3
	c-0.1,0.4,0.2,0.8,0.7,0.9c0.3,0.1,0.7-0.1,0.8-0.4L3,10.7c0-0.1,0.1-0.1,0.1-0.2v-0.1V8.2l2.1,0.9l0.3,2.1c0.1,0.3,0.3,0.6,0.7,0.6
	C6.6,11.9,7,11.6,7,11.2c0-0.1,0-0.1,0-0.2L6.6,8.4c0-0.2-0.2-0.5-0.4-0.6L4.4,7l1.2-2l0.6,0.7c0.1,0.1,0.1,0.1,0.2,0.2l2.2,0.6
	c0.3,0.1,0.6-0.1,0.7-0.4c0.1-0.3,0-0.7-0.3-0.8l0,0L7,4.7L5.5,3C5.3,2.8,5,2.6,4.7,2.5C4.1,2.4,3.5,2.7,3.2,3.2L1.6,6z M8,11.1
	l-0.1,1.1L4,13.1v0.7h9.3c0.3,0,0.6-0.3,0.6-0.6V0.6l-1.3-0.3l-0.7,3.3l-1.2,0.5l-1.1,3l1,2.3l-0.3,0.9L8,11.1z M5.4,0
	c0.7,0,1.2,0.5,1.2,1.2S6.1,2.4,5.4,2.4S4.2,1.9,4.2,1.2S4.7,0,5.4,0z M3,2.6c0.1-0.2,0-0.4-0.1-0.5L2.3,1.8c-0.2-0.1-0.4,0-0.5,0.1
	L0.1,5C0,5.1,0,5.3,0.2,5.4l0.6,0.3c0.2,0.1,0.4,0,0.5-0.1L3,2.6z"></path></svg>