<svg xmlns="http://www.w3.org/2000/svg" viewBox="0 0 27 27" height="27" width="27"><title>climbing-white-22.svg</title><rect fill="none" x="0" y="0" width="27" height="27"></rect><rect x="0" y="0" width="27" height="27" rx="4" ry="4" fill="#231f20"></rect><path fill="#ffffff" transform="translate(2 2)" d="M2.5,9.4c-0.1,0.2-0.2,0.4-0.2,0.7c0,0.1,0,0.2,0,0.4L2.4,16l-1.9,4.1c-0.1,0.1-0.1,0.3-0.1,0.4
	c-0.1,0.7,0.4,1.3,1,1.4c0.5,0.1,1-0.2,1.3-0.6l2.1-4.5c0-0.1,0.1-0.2,0.1-0.3c0-0.1,0-0.1,0-0.2v-3.4l3.2,1.4l0.5,3.4
	c0.1,0.5,0.5,0.9,1,1c0.7,0.1,1.3-0.4,1.4-1c0-0.1,0-0.2,0-0.3l-0.6-4.1c-0.1-0.4-0.3-0.7-0.7-0.9L6.8,11l1.8-3.2L9.5,9
	C9.7,9,9.8,9.1,10,9.2l3.5,1c0.5,0.1,0.9-0.1,1.1-0.6c0.2-0.5,0-1.1-0.5-1.3l0,0l-3-0.9L8.7,4.7C8.3,4.3,7.9,4.1,7.3,4
	C6.4,3.8,5.5,4.3,5.1,5L2.5,9.4z"></path><path fill="#ffffff" transform="translate(2 2)" d="M12.5,17.4l-0.2,1.7l-6,1.5l0.1,1H21c0.5,0,0.9-0.4,0.9-0.9V1l-2-0.5l-1.2,5.2l-1.9,0.8l-1.7,4.8l1.6,3.7
	l-0.5,1.4L12.5,17.4z"></path><path fill="#ffffff" transform="translate(2 2)" d="M8.5,0c1,0,1.9,0.9,1.9,1.9S9.5,3.8,8.5,3.8S6.6,2.9,6.6,1.9S7.5,0,8.5,0z"></path><path fill="#ffffff" transform="translate(2 2)" d="M4.7,4c0.1-0.3,0.1-0.6-0.2-0.7L3.6,2.8C3.4,2.6,3.1,2.7,2.9,3L0.1,7.8C0,8,0.1,8.4,0.3,8.5L1.2,9
	C1.5,9.2,1.8,9.1,2,8.8L4.7,4z"></path></svg>