<svg xmlns="http://www.w3.org/2000/svg" viewBox="0 0 18 18" height="18" width="18"><title>closed-captioning-white-14.svg</title><rect fill="none" x="0" y="0" width="18" height="18"></rect><rect x="0" y="0" width="18" height="18" rx="4" ry="4" fill="#231f20"></rect><path fill="#ffffff" transform="translate(2 2)" d="M4.2,5.9c0-0.3-0.1-0.5-0.2-0.6C3.8,5.2,3.6,5.1,3.3,5.1C2.4,5.1,2,6,2,6.7c0,0.9,0.7,1.5,1.3,1.5
	s0.8-0.1,0.9-0.5h2.1c-0.2,1.8-1.4,2.1-3,2.1C1.4,9.7,0,8.7,0,6.7s1.4-3.1,3.3-3.1c1.6,0,2.8,0.6,3,2.3L4.2,5.9z"></path><path fill="#ffffff" transform="translate(2 2)" d="M11.8,5.9c0-0.3-0.1-0.5-0.2-0.6c-0.1-0.2-0.3-0.2-0.6-0.2c-0.9,0-1.3,0.9-1.3,1.6c0,0.9,0.7,1.5,1.3,1.5
	s0.8-0.1,0.9-0.5H14c-0.2,1.8-1.4,2.1-3,2.1c-1.9,0-3.3-1.1-3.3-3c0-2,1.4-3.1,3.3-3.1c1.6,0,2.8,0.6,3,2.3L11.8,5.9z"></path></svg>