<svg xmlns="http://www.w3.org/2000/svg" viewBox="0 0 27 27" height="27" width="27"><title>closed-captioning-white-22.svg</title><rect fill="none" x="0" y="0" width="27" height="27"></rect><rect x="0" y="0" width="27" height="27" rx="4" ry="4" fill="#231f20"></rect><path fill="#ffffff" transform="translate(2 2)" d="M6.6,9.9c0-0.4-0.2-0.7-0.4-0.9c-0.3-0.3-0.6-0.4-1-0.4c-1.4,0-1.6,1.4-1.6,2.5c0,1.4,0.5,2.3,1.6,2.3
	c0.9,0,1.3-0.6,1.4-1.4h3.7c-0.3,2.8-2.6,3.8-5.1,3.8c-3,0-5.2-1.7-5.2-4.8c0-3,2.2-4.8,5.2-4.8c2.4,0,4.8,1,5,3.8H6.6V9.9z"></path><path fill="#ffffff" transform="translate(2 2)" d="M18.2,9.9c0-0.4-0.2-0.7-0.4-0.9c-0.2-0.2-0.5-0.4-0.9-0.4c-1.4,0-1.6,1.4-1.6,2.5c0,1.4,0.5,2.3,1.6,2.3
	c0.9,0,1.3-0.6,1.4-1.4H22c-0.3,2.8-2.6,3.8-5.1,3.8c-3,0-5.2-1.7-5.2-4.8s2.2-4.9,5.2-4.9c2.5,0,4.8,1,5,3.8
	C21.9,9.9,18.2,9.9,18.2,9.9z"></path></svg>