<svg xmlns="http://www.w3.org/2000/svg" viewBox="0 0 18 18" height="18" width="18"><title>coffee-white-14.svg</title><rect fill="none" x="0" y="0" width="18" height="18"></rect><rect x="0" y="0" width="18" height="18" rx="4" ry="4" fill="#231f20"></rect><path fill="#ffffff" transform="translate(2 2)" d="M12,7h-2V6H1v7c0,0.6,0.4,1,1,1h7c0.6,0,1-0.4,1-1h2c0.6,0,1-0.4,1-1V8C13,7.4,12.6,7,12,7z M12,9v2v1h-1h-1
	V8h1h1V9z"></path><path fill="#ffffff" transform="translate(2 2)" d="M3,5H2V4.5c0,0.1-0.1,0-0.2-0.1C1.5,4.3,1,4.1,1,3.5s0.5-0.8,0.8-0.9c0,0,0.1,0,0.1-0.1c0,0-0.1,0-0.1-0.1
		C1.5,2.3,1,2.1,1,1.5V1h1v0.5c0-0.1,0.1,0,0.2,0.1C2.5,1.7,3,1.9,3,2.5S2.5,3.3,2.2,3.4c0,0-0.1,0-0.1,0.1c0,0,0.1,0,0.1,0.1
		C2.5,3.7,3,3.9,3,4.5V5z"></path><path fill="#ffffff" transform="translate(2 2)" d="M6,5H5V4.5c0,0.1-0.1,0-0.2-0.1C4.5,4.3,4,4.1,4,3.5s0.5-0.8,0.8-0.9c0,0,0.1,0,0.1-0.1c0,0-0.1,0-0.1-0.1
		C4.5,2.3,4,2.1,4,1.5V1h1v0.5c0-0.1,0.1,0,0.2,0.1C5.5,1.7,6,1.9,6,2.5S5.5,3.3,5.2,3.4c0,0-0.1,0-0.1,0.1c0,0,0.1,0,0.1,0.1
		C5.5,3.7,6,3.9,6,4.5V5z"></path><path fill="#ffffff" transform="translate(2 2)" d="M9,5H8V4.5c0,0.1-0.1,0-0.2-0.1C7.5,4.3,7,4.1,7,3.5s0.5-0.8,0.8-0.9c0,0,0.1,0,0.1-0.1c0,0-0.1,0-0.1-0.1
		C7.5,2.3,7,2.1,7,1.5V1h1v0.5c0-0.1,0.1,0,0.2,0.1C8.5,1.7,9,1.9,9,2.5S8.5,3.3,8.2,3.4c0,0-0.1,0-0.1,0.1c0,0,0.1,0,0.1,0.1
		C8.5,3.7,9,3.9,9,4.5V5z"></path></svg>