<svg xmlns="http://www.w3.org/2000/svg" viewBox="0 0 27 27" height="27" width="27"><title>community-garden-white-22.svg</title><rect fill="none" x="0" y="0" width="27" height="27"></rect><rect x="0" y="0" width="27" height="27" rx="4" ry="4" fill="#231f20"></rect><path fill="#ffffff" transform="translate(2 2)" d="M21,5V2.2c0-0.7-1.2-1.4-1.5-1.4S18,1.5,18,2.2V5h1v3h-1l-1-2.4C15.9,3.8,15,4,15,4h-4C9.7,4,9,5,9,6.3v5.5
	c0,1.1,2,1.3,2,0.2v9c0,0.6,0.4,1,1,1s1-0.4,1-1v-8h1v8c0,0.6,0.4,1,1,1s1-0.4,1-1V7l1,3h2v12h1V10c0.8-0.1,0.8-1.9,0-2V5H21z"></path><path fill="#ffffff" transform="translate(2 2)" d="M4.3,20c-1.4,0.1-2.7,0.9-3.4,2h7.5c-0.8-1.1-2-1.9-3.5-2c0-0.1,0-0.1,0-0.2c0-0.3,0-0.8,0-1.2
	c0,0,0-0.1,0.1-0.1c0.1-0.1,0.2-0.2,0.4-0.3l0.1-0.1c0,0,0.1,0,0.1-0.1l0,0c0.4,0.6,1.2,0.7,1.8,0.2C8.2,17.5,8,15.9,8,15.9
	c-0.7,0.5-0.9,0.3-1.5,0.3c-1,0.1-1.2,0.9-1.1,1.4c0,0,0,0-0.1,0c0,0-0.1,0-0.1,0.1l-0.1,0.1C5,17.9,4.9,18,4.9,18
	c0-0.1,0-0.1,0-0.2c0-0.2-0.1-0.3-0.1-0.4s0-0.1-0.1-0.2c0-0.1-0.1-0.1-0.1-0.2c-0.1-0.1-0.1-0.2-0.2-0.3c-0.1-0.2-0.2-0.3-0.3-0.4
	c0.5-0.2,1.1-1,0.4-1.8C4.2,14,3.9,14,3.8,13.2c0,0-1.2,1-1.2,2c0,0.7,0.6,1.2,1.3,1.1c0,0,0,0.1,0.1,0.1c0.1,0.1,0.2,0.2,0.2,0.4
	c0,0.1,0.1,0.2,0.1,0.3c0,0.1,0,0.1,0.1,0.2c0,0.1,0,0.1,0.1,0.2c0,0.1,0.1,0.2,0.1,0.4c0,0.1,0,0.1,0,0.2v0.1v0.1
	c0,0.1,0,0.3,0,0.4c-0.1,0-0.2-0.1-0.3-0.1c-0.2,0-0.3-0.1-0.4-0.1l0,0c0.1-0.5,0-1.4-1-1.5c-0.6-0.1-0.7,0.1-1.5-0.4
	c0,0-0.2,1.6,0.6,2.3c0.5,0.5,1.3,0.5,1.8-0.2c0,0,0,0,0.1,0s0.2,0.1,0.4,0.1c0.1,0.1,0.3,0.1,0.4,0.2l0,0c0,0.2,0,0.5,0,0.7
	C4.3,19.9,4.3,20,4.3,20z"></path><path fill="#ffffff" transform="translate(2 2)" d="M13.5,0c1,0,1.8,0.8,1.8,1.8s-0.8,1.8-1.8,1.8s-1.8-0.8-1.8-1.8S12.5,0,13.5,0z"></path></svg>