<svg xmlns="http://www.w3.org/2000/svg" viewBox="0 0 18 18" height="18" width="18"><title>community-garden-white-14.svg</title><rect fill="none" x="0" y="0" width="18" height="18"></rect><rect x="0" y="0" width="18" height="18" rx="4" ry="4" fill="#231f20"></rect><path fill="#ffffff" transform="translate(2 2)" d="M8.5,0c0.7,0,1.2,0.5,1.2,1.2S9.2,2.4,8.5,2.4S7.3,1.9,7.3,1.2S7.8,0,8.5,0z M14,1c0-0.6-1.5-1-1.5-1
	S11,0.3,11,1c0,0.5,0,2,0,2h1h1h1C14,3,14,1.5,14,1z M6,4c0,0.6,0.4,1,1,1V3C6.4,3,6,3.4,6,4z M12,2v3h-1V4c0-0.6-0.4-1-1-1H7
	C6.4,3,6,3.4,6,4v3.5C6,7.8,6.2,8,6.5,8S7,7.8,7,7.5V9v4.5C7,13.8,7.2,14,7.5,14S8,13.8,8,13.5V9h1v4.5C9,13.8,9.2,14,9.5,14
	s0.5-0.2,0.5-0.5V9V7V5c0,0.6,0.4,1,1,1h1v8h1V6V5V2H12z M1,14h4c0-0.8-0.9-1.5-2-1.5c0-0.2,0-0.4,0-0.7c0,0,0,0,0.1-0.1
	s0.1-0.1,0.2-0.2c0,0,0,0,0.1,0c0,0,0,0,0.1,0l0,0c0.3,0.4,0.8,0.4,1.1,0.1C5.1,11.2,5,10.1,5,10.1c-0.5,0.3-0.6,0.2-0.9,0.2
	c-0.6,0.1-0.8,0.6-0.7,0.9l0,0H3.3c0,0-0.1,0-0.1,0.1c-0.1,0-0.1,0.1-0.1,0.1v-0.1c0-0.1,0-0.2-0.1-0.3v-0.1v-0.1
	c0-0.1-0.1-0.1-0.1-0.2c-0.1-0.1-0.1-0.2-0.2-0.3C3,10.1,3.4,9.7,2.9,9.1C2.6,8.9,2.4,8.9,2.3,8.4c0,0-0.8,0.7-0.8,1.3
	c0,0.4,0.4,0.8,0.8,0.7c0,0,0,0,0,0.1s0.1,0.2,0.2,0.3c0,0.1,0.1,0.1,0.1,0.2v0.1v0.1c0,0.1,0,0.2,0,0.2v0.1v0.1v0.1
	c0,0.1,0,0.2,0,0.3c-0.1,0-0.1,0-0.2-0.1c-0.1,0-0.2-0.1-0.3-0.1l0,0c0.1-0.3,0-0.9-0.7-0.9c-0.4,0-0.5,0.1-0.9-0.2
	c0,0-0.1,1,0.4,1.5c0.3,0.3,0.9,0.3,1.1-0.1l0,0c0.1,0,0.2,0.1,0.2,0.1c0.1,0,0.2,0.1,0.2,0.1l0,0c0,0.1,0,0.2,0,0.4
	C1.7,12.6,1,13.3,1,14z"></path></svg>