<svg xmlns="http://www.w3.org/2000/svg" viewBox="0 0 27 27" height="27" width="27"><title>cross-country-ski-trail-white-22.svg</title><rect fill="none" x="0" y="0" width="27" height="27"></rect><rect x="0" y="0" width="27" height="27" rx="4" ry="4" fill="#231f20"></rect><path fill="#ffffff" transform="translate(2 2)" d="M10.3,5.5l-2.6,3C7.5,8.7,7.3,8.8,7,8.8C6.6,8.9,6.2,8.5,6.1,8.1c0,0,0-0.1,0-0.1c0-0.2,0.1-0.5,0.3-0.6
	l2.8-3.2C9.4,4,9.6,3.9,9.9,3.9H14c0.3,0,0.6,0.1,0.8,0.3l2.6,2.6l2.2-2.2c0.2-0.1,0.4-0.2,0.6-0.2c0.5,0,0.9,0.4,0.9,0.9
	c0,0.2-0.1,0.4-0.2,0.6l-2.6,2.6c-0.8,0.8-1.4,0.1-1.4,0.1L15.3,7l-2.5,2.9l2.3,2.3c0.3,0.3,0.4,0.9,0.2,1.3L14,19.2
	c-0.1,0.5-0.6,0.9-1.1,0.9c-0.6,0-1.1-0.5-1.1-1.1v-0.3l1.1-4.7l-2.6-2.5L8.1,14c-0.4,0.3-0.8,0.4-1.3,0.4H2.3c-0.5,0-1-0.3-1.1-0.8
	C1.1,13,1.4,12.4,2,12.3h4.2L12,5.6L10.3,5.5z M16,0c1.1,0,2,0.9,2,2s-0.9,2-2,2s-2-0.9-2-2S14.9,0,16,0z M21,22H3v-1h18v-1h1L21,22
	z M0,8h5v1H0V8z M16,20l5.1-14.1L22,6.3l-5.1,14.1L16,20z M7,19H5l0,0l-4.2-5L0,14.6L4.5,20H7V19z"></path></svg>