<svg xmlns="http://www.w3.org/2000/svg" viewBox="0 0 18 18" height="18" width="18"><title>cross-country-ski-trail-white-14.svg</title><rect fill="none" x="0" y="0" width="18" height="18"></rect><rect x="0" y="0" width="18" height="18" rx="4" ry="4" fill="#231f20"></rect><path fill="#ffffff" transform="translate(2 2)" d="M6.7,3L5.2,4.8C5.1,4.9,5,5,4.8,5C4.5,5,4.3,4.7,4.3,4.5c0-0.1,0.1-0.3,0.2-0.4l1.7-1.9C6.2,2.1,6.4,2,6.5,2
	h2.4c0.2,0,0,0.9,0.1,1l1.9,0.7l1.3-1.3c0.1-0.1,0.2-0.1,0.3-0.1c0.3,0,0.5,0.2,0.5,0.5c0,0.1,0,0.2-0.1,0.3l-1.5,1.5
	c-0.5,0.5-0.8,0.1-0.8,0.1l-1-0.9L8,6l1.5,0.9c0,0,0.3,0.3,0.1,0.8L9,11c-0.1,0.3-0.5,1-0.8,1c-0.4,0-0.6-0.8-0.6-1.1v-0.2L8.2,8
	L6.7,6.5L5.4,8c0,0-0.2,0.1-0.8,0H1.9C1.6,8,1.1,8,1,7.7C0.9,7.4,1.4,7,1.8,6.9L1.9,7L5,6.9L7.6,3H6.7z M2,13v1h11l1-1v-1h-1v1H2z
	 M0,9h1l3,3H3L0,9z M10,12h1l3-8h-1L10,12z M10,0c0.6,0,1,0.4,1,1s-0.4,1-1,1S9,1.6,9,1S9.4,0,10,0z"></path></svg>