<svg xmlns="http://www.w3.org/2000/svg" viewBox="0 0 27 27" height="27" width="27"><title>customs-white-22.svg</title><rect fill="none" x="0" y="0" width="27" height="27"></rect><rect x="0" y="0" width="27" height="27" rx="4" ry="4" fill="#231f20"></rect><path fill="#ffffff" transform="translate(2 2)" d="M11,21H4c-0.5,0-1-0.5-1-1v-1c0-0.5,0-1,0-1h9c0,0,0,0.5,0,1v1C12,20.5,11.6,21,11,21z M0,17v-7
	c0-0.6,0.4-1,1-1h1c0.5,0,1,0,1,0v9c0,0-0.5,0-1,0H1C0.4,18,0,17.5,0,17z M13,18h9v3h-9V18z M20,9L20,9l-6.1,8H22v-6
	C22,9.9,21.1,9,20,9z M18.1,9H14l0,0c-1,0-2.5,0.3-3.3,1.4l-3.8,5c-0.3,0.4-0.2,1.1,0.2,1.4C7.3,16.9,7.5,17,7.7,17
	c0.3,0,0.6-0.1,0.8-0.4l4.5-5.9v5.1L18.1,9z M14,3h5V1h-6L14,3z M14.5,4H14l-1,1h1.1C14,5.2,14,5.3,14,5.5C14,6.9,15.1,8,16.5,8
	S19,6.9,19,5.5c0-0.2,0-0.3-0.1-0.5H19V4h-0.5H14.5z"></path></svg>