<svg xmlns="http://www.w3.org/2000/svg" viewBox="0 0 18 18" height="18" width="18"><title>customs-white-14.svg</title><rect fill="none" x="0" y="0" width="18" height="18"></rect><rect x="0" y="0" width="18" height="18" rx="4" ry="4" fill="#231f20"></rect><path fill="#ffffff" transform="translate(2 2)" d="M9,11h5v2H9V11z M9.6,10H14V5h-0.4L9.6,10z M9,0l0.7,1l0,0L9,2h1.1C10,2.2,10,2.3,10,2.5
	C10,3.3,10.7,4,11.5,4S13,3.3,13,2.5C13,2.3,13,2,13,2V1V0H9z M12.4,5H9.7l0,0H9.6H9l0,0C8.4,5,7.9,5.2,7.5,5.7L5.2,8.5
	C5,8.9,5,9.3,5.3,9.6c0.1,0.1,0.3,0.2,0.5,0.2s0.4-0.1,0.6-0.3L9,6.2v3L12.4,5z M7,13H3c-0.5,0-1-0.4-1-1l0,0c0-0.5,0-1,0-1h6
	c0,0,0,0.4,0,1l0,0C8,12.6,7.6,13,7,13z M0,10V6c0-0.5,0.4-1,1-1l0,0c0.5,0,1,0,1,0v6c0,0-0.4,0-1,0l0,0C0.4,11,0,10.6,0,10z"></path></svg>