<svg xmlns="http://www.w3.org/2000/svg" viewBox="0 0 27 27" height="27" width="27"><title>dam-white-22.svg</title><rect fill="none" x="0" y="0" width="27" height="27"></rect><rect x="0" y="0" width="27" height="27" rx="4" ry="4" fill="#231f20"></rect><path fill="#ffffff" transform="translate(2 2)" d="M0,6h7v1H0V6z M0,8h7v1H0V8z M0,10h7v1H0V10z M0,12h7v1H0V12z M0,14h7v1H0V14z M0,16h7v1H0V16z M0,18h7v1H0
	V18z M8,4h2l3,15H8V4z M22,19c-0.7,0-1.1-0.4-1.4-0.6C20.4,18.1,20.3,18,20,18s-0.4,0.1-0.6,0.4C19.1,18.6,18.7,19,18,19
	c-0.6,0-0.9-0.3-1.2-0.6C16.5,18.2,16.4,18,16,18s-0.5,0.1-0.7,0.3c-0.3,0.2-0.6,0.6-1.3,0.6v-1c0.3,0,0.4-0.1,0.6-0.3
	c0.3-0.3,0.6-0.6,1.4-0.6s1.2,0.4,1.5,0.7c0.2,0.2,0.3,0.3,0.5,0.3c0.3,0,0.4-0.1,0.6-0.4c0.3-0.3,0.6-0.6,1.4-0.6s1.1,0.4,1.4,0.6
	c0.2,0.2,0.4,0.4,0.6,0.4V19z M22,16c-0.7,0-1.1-0.4-1.4-0.6C20.4,15.1,20.3,15,20,15s-0.4,0.1-0.6,0.4C19.1,15.6,18.7,16,18,16
	c-0.6,0-0.9-0.3-1.2-0.6C16.5,15.2,16.4,15,16,15s-0.5,0.1-0.7,0.3c-0.3,0.2-0.6,0.6-1.3,0.6v-1c0.3,0,0.4-0.1,0.6-0.3
	c0.3-0.3,0.6-0.6,1.4-0.6s1.2,0.4,1.5,0.7c0.2,0.2,0.3,0.3,0.5,0.3c0.3,0,0.4-0.1,0.6-0.4c0.3-0.3,0.6-0.6,1.4-0.6s1.1,0.4,1.4,0.6
	c0.2,0.2,0.4,0.4,0.6,0.4V16z"></path></svg>