<svg xmlns="http://www.w3.org/2000/svg" viewBox="0 0 27 27" height="27" width="27"><title>deer-viewing-white-22.svg</title><rect fill="none" x="0" y="0" width="27" height="27"></rect><rect x="0" y="0" width="27" height="27" rx="4" ry="4" fill="#231f20"></rect><path fill="#ffffff" transform="translate(2 2)" d="M15.9,3.2h2c0.3,0,0.5,0.2,0.5,0.5c0,0.3-0.2,0.5-0.5,0.5h-2c-0.1,0-0.3,0-0.3,0.1c-0.1,0.2-0.2,0.4-0.1,0.5
	c0.1,0.2,0.2,0.3,0.3,0.5l1.1,0c0.1,0,0.2,0,0.3,0.1l2.7,1.4C20,7,20.2,7.2,20.2,7.5c0,0.4-0.4,0.8-0.8,0.8h-1.7L15.3,14L14,15v6
	c0,0.6-0.7,1-1.2,1c-0.6,0-0.8-0.4-0.8-1v-6H8l-1.2,1.5l2.2,3.9c0.3,0.5,0.1,1.1-0.4,1.4c-0.5,0.3-1.1,0.1-1.4-0.4L5,17.4v-1.7L4,17
	v4c0,0.6-0.6,0.9-1.1,0.9C2.3,21.9,2,21.6,2,21v-4l0.8-1.5v-1.8l-0.7,1.1c0,0-0.1,0.1-0.1,0.1c-0.1,0-0.1,0-0.1-0.1L2,11
	c0-0.8,0.2-2,1-2h10l1.8-2l-1.3-1.3c0,0-0.1-0.1-0.1-0.1c0-0.1,0.1-0.2,0.2-0.2l1,0c-0.2-0.5-0.4-1-0.4-1.6c0-2.1,1.7-3.7,3.7-3.7
	c0.3,0,0.5,0.2,0.5,0.5c0,0.3-0.2,0.5-0.5,0.5c-1.4,0-2.6,1.1-2.7,2.4C15.4,3.3,15.6,3.2,15.9,3.2z"></path></svg>