<svg xmlns="http://www.w3.org/2000/svg" viewBox="0 0 27 27" height="27" width="27"><title>directions-white-22.svg</title><rect fill="none" x="0" y="0" width="27" height="27"></rect><rect x="0" y="0" width="27" height="27" rx="4" ry="4" fill="#231f20"></rect><path fill="#ffffff" transform="translate(2 2)" d="M12.2,2c4,0.5,7.2,3.7,7.7,7.7l1,0.3l1.1,0.3C21.7,4.8,17.2,0.3,11.6,0l0.3,1.1L12.2,2z M9.8,20
	c-4-0.5-7.2-3.7-7.7-7.7l-1-0.3L0,11.6C0.3,17.2,4.8,21.7,10.4,22l-0.3-1.1L9.8,20z M20,12.2c-0.5,4-3.7,7.2-7.7,7.7l-0.3,1L11.6,22
	c5.6-0.3,10.1-4.8,10.4-10.4l-1.1,0.3L20,12.2z M2,9.8c0.5-4,3.7-7.2,7.7-7.7l0.3-1L10.4,0C4.8,0.3,0.3,4.8,0,10.4l1.1-0.3L2,9.8z
	 M13.8,6.8L13.8,6.8l0.3,1.1l1,0.3h0.1h0.1l1.4-2.7l0.4-0.6l-0.6,0.4l-2.7,1.4V6.8z M5.3,5.5l1.4,2.7h0.1h0.1l1-0.3l0.3-1V6.8V6.7
	L5.5,5.3L4.9,4.9L5.3,5.5z M8.2,15.2L8.2,15.2l-0.3-1.1l-1-0.3H6.8H6.7l-1.4,2.7l-0.4,0.6l0.6-0.4l2.7-1.4V15.2z M15.2,13.8
	L15.2,13.8l-1.1,0.3l-0.3,1v0.1v0.1l2.7,1.4l0.6,0.4l-0.4-0.6l-1.4-2.7H15.2z M20.1,11.2l0.5-0.2l-0.5-0.2l-6.7-2.2L11,1.4l-0.2,0.5
	L8.6,8.6l-6.7,2.2L1.4,11l0.5,0.2l6.7,2.2l2.2,6.7l0.2,0.5l0.2-0.5l2.2-6.7L20.1,11.2z"></path></svg>