<svg xmlns="http://www.w3.org/2000/svg" viewBox="0 0 18 18" height="18" width="18"><title>directions-white-14.svg</title><rect fill="none" x="0" y="0" width="18" height="18"></rect><rect x="0" y="0" width="18" height="18" rx="4" ry="4" fill="#231f20"></rect><path fill="#ffffff" transform="translate(2 2)" d="M7.8,1.3c2.6,0.3,4.6,2.4,4.9,4.9l0.6,0.2L14,6.6C13.8,3.1,10.9,0.2,7.4,0l0.2,0.7L7.8,1.3z M6.2,12.7
	c-2.6-0.3-4.6-2.4-4.9-4.9L0.7,7.6L0,7.4C0.2,11,3.1,13.8,6.6,14l-0.2-0.7L6.2,12.7z M12.7,7.8c-0.3,2.6-2.4,4.6-4.9,4.9l-0.2,0.6
	L7.4,14c3.6-0.2,6.4-3.1,6.6-6.6l-0.7,0.2L12.7,7.8z M1.3,6.2c0.3-2.6,2.4-4.6,4.9-4.9l0.2-0.6L6.6,0C3.1,0.2,0.2,3.1,0,6.6l0.7-0.2
	L1.3,6.2z M8.8,4.3L8.8,4.3L9,5l0.6,0.2h0.1l0,0l1-1.7l0.2-0.4l-0.4,0.2L8.8,4.3z M3.3,3.5l1,1.7l0,0h0.1L5,5l0.2-0.6V4.3l0,0
	l-1.7-1L3.1,3.1L3.3,3.5z M5.2,9.7L5.2,9.7L5,9L4.4,8.8H4.3l0,0l-1,1.7l-0.2,0.4l0.4-0.2L5.2,9.7z M9.7,8.8L9.7,8.8L9,9L8.8,9.6v0.1
	l0,0l1.7,1l0.4,0.2l-0.2-0.4L9.7,8.8z M12.8,7.1L13.1,7l-0.3-0.1L8.5,5.5L7,0.9L6.9,1.2L5.5,5.5L1.2,6.9L0.9,7l0.3,0.1l4.3,1.4
	l1.4,4.3L7,13.1l0.1-0.3l1.4-4.3L12.8,7.1z"></path></svg>