<svg xmlns="http://www.w3.org/2000/svg" viewBox="0 0 27 27" height="27" width="27"><title>diving-white-22.svg</title><rect fill="none" x="0" y="0" width="27" height="27"></rect><rect x="0" y="0" width="27" height="27" rx="4" ry="4" fill="#231f20"></rect><path fill="#ffffff" transform="translate(2 2)" d="M21.5,22c-0.5,0-0.9-0.1-1.3-0.3c-0.4-0.2-0.9-0.3-1.3-0.3c-0.5,0-0.9,0.1-1.3,0.3c-0.4,0.2-0.8,0.3-1.3,0.3
	s-0.9-0.1-1.3-0.3c-0.4-0.2-0.9-0.3-1.3-0.3s-0.9,0.1-1.3,0.3C11.9,21.9,11.5,22,11,22s-0.9-0.1-1.3-0.3c-0.4-0.2-0.9-0.3-1.3-0.3
	c-0.5,0-0.9,0.1-1.3,0.3C6.7,21.9,6.2,22,5.8,22c-0.5,0-0.9-0.1-1.3-0.3c-0.4-0.2-0.9-0.3-1.3-0.3c-0.5,0-0.9,0.1-1.3,0.3
	C1.4,21.9,1,22,0.5,22v-1.9c0.5,0,0.9-0.1,1.3-0.3c0.4-0.2,0.9-0.3,1.3-0.3c0.5,0,0.9,0.1,1.3,0.3c0.4,0.2,0.8,0.3,1.3,0.3
	S6.6,20,7,19.8s0.9-0.3,1.3-0.3c0.5,0,0.9,0.1,1.3,0.3c0.4,0.2,0.8,0.3,1.3,0.3s0.9-0.1,1.3-0.3c0.4-0.2,0.9-0.3,1.3-0.3
	s0.9,0.1,1.3,0.3c0.4,0.2,0.8,0.3,1.3,0.3c0.5,0,0.9-0.1,1.3-0.3c0.4-0.2,0.9-0.3,1.3-0.3c0.5,0,0.9,0.1,1.3,0.3
	c0.4,0.2,0.8,0.3,1.3,0.3V22H21.5z"></path><path fill="#ffffff" transform="translate(2 2)" d="M6.4,12.5c1,0,1.8-0.8,1.8-1.8S7.4,8.9,6.4,8.9s-1.8,0.8-1.8,1.8C4.7,11.7,5.5,12.5,6.4,12.5z"></path><path fill="#ffffff" transform="translate(2 2)" d="M6.7,18.6c-0.3,0.5-0.9,0.6-1.4,0.4c-0.5-0.3-0.6-0.9-0.4-1.4L9,10.5c0.2-0.3,0.4-0.5,0.6-0.6L15,6.7
	l3.6-6.1l0,0c0.3-0.6,1.1-0.8,1.7-0.5s0.8,1.1,0.5,1.7l0,0l-4.3,7.3c-0.1,0.3-0.4,0.5-0.6,0.6l-6.2,3.9L6.7,18.6z"></path></svg>