<?xml version="1.0" encoding="utf-8"?>
<!-- Generator: Adobe Illustrator 25.4.1, SVG Export Plug-In . SVG Version: 6.00 Build 0)  -->
<svg version="1.1" id="Layer_1" xmlns="http://www.w3.org/2000/svg" xmlns:xlink="http://www.w3.org/1999/xlink" x="0px" y="0px"
	 width="18px" height="18px" viewBox="0 0 18 18" enable-background="new 0 0 18 18" xml:space="preserve">
<path fill="#231F20" d="M4,0h10c2.2,0,4,1.8,4,4v10c0,2.2-1.8,4-4,4H4c-2.2,0-4-1.8-4-4V4C0,1.8,1.8,0,4,0z"/>
<path fill="#FFFFFF" d="M6.1,9c0.6,0,1.1-0.5,1.1-1.1S6.7,6.8,6.1,6.8C5.5,6.7,5,7.2,5,7.8C5,8.5,5.5,9,6.1,9z"/>
<path fill="#FFFFFF" d="M6.3,12.9c-0.2,0.3-0.6,0.4-0.9,0.2S5,12.5,5.2,12.2l2.6-4.5C7.9,7.5,8,7.4,8.2,7.3l3.4-2l2.3-3.9l0,0
	c0.1-0.4,0.6-0.5,1-0.3s0.5,0.7,0.3,1.1l0,0l-2.7,4.6C12.4,7,12.2,7.1,12,7.2L8,9.7L6.3,12.9z"/>
<path fill="#FFFFFF" d="M15.8,16.5c-0.3,0-0.6-0.1-0.8-0.2c-0.3-0.1-0.6-0.5-0.9-0.5c-0.3,0-0.6,0.4-0.9,0.5
	c-0.2,0.1-0.5,0.2-0.8,0.2s-0.6-0.1-0.8-0.2c-0.3-0.1-0.6-0.5-0.9-0.5c-0.3,0-0.6,0.4-0.9,0.5c-0.2,0.1-0.5,0.2-0.8,0.2
	s-0.6-0.2-0.8-0.2c-0.3-0.1-0.6-0.5-0.9-0.5s-0.6,0.4-0.9,0.5c-0.2,0.1-0.5,0.2-0.8,0.2c-0.3,0-0.6-0.1-0.8-0.2
	c-0.3-0.1-0.6-0.5-0.9-0.5S3.3,16.2,3,16.3c-0.2,0.1-0.5,0.2-0.8,0.2v-1.2c0.3,0,0.6-0.1,0.8-0.2c0.3-0.1,0.6-0.5,0.9-0.5
	s0.6,0.4,0.9,0.5s0.5,0.2,0.8,0.2c0.3,0,0.6-0.1,0.8-0.2C6.7,15,7,14.6,7.3,14.6s0.6,0.4,0.9,0.5s0.5,0.2,0.8,0.2s0.6-0.1,0.8-0.2
	c0.3-0.1,0.6-0.5,0.9-0.5s0.6,0.4,0.9,0.5c0.3,0.1,0.5,0.2,0.8,0.2s0.6-0.1,0.8-0.2c0.3-0.1,0.6-0.5,0.9-0.5c0.3,0,0.6,0.4,0.9,0.5
	c0.3,0.1,0.5,0.2,0.8,0.2C15.8,15.3,15.8,16.5,15.8,16.5z"/>
</svg>
