<svg xmlns="http://www.w3.org/2000/svg" viewBox="0 0 18 18" height="18" width="18"><title>diving-white-14.svg</title><rect fill="none" x="0" y="0" width="18" height="18"></rect><rect x="0" y="0" width="18" height="18" rx="4" ry="4" fill="#231f20"></rect><path fill="#ffffff" transform="translate(2 2)" d="M12.9,13.8c-0.3-0.1-0.5-0.2-0.8-0.2s-0.6,0.1-0.8,0.2c-0.2,0.1-0.5,0.2-0.8,0.2s-0.6-0.1-0.8-0.2
	c-0.3-0.1-0.5-0.2-0.8-0.2s-0.6,0.1-0.8,0.2C7.6,13.9,7.3,14,7,14s-0.6-0.1-0.8-0.2c-0.3-0.1-0.5-0.2-0.8-0.2s-0.6,0.1-0.8,0.2
	C4.2,13.9,4,14,3.7,14s-0.6-0.1-0.8-0.2c-0.3-0.1-0.5-0.2-0.8-0.2s-0.6,0.1-0.8,0.2c-0.4,0.1-0.7,0.2-1,0.2v-1.2
	c0.3,0,0.6-0.1,0.8-0.2c0.3-0.1,0.5-0.2,0.8-0.2s0.6,0.1,0.8,0.2c0.3,0.1,0.5,0.2,0.8,0.2s0.6-0.1,0.8-0.2c0.3-0.1,0.5-0.2,0.8-0.2
	s0.6,0.1,0.8,0.2c0.3,0.1,0.5,0.2,0.8,0.2s0.6-0.1,0.8-0.2c0.3-0.1,0.5-0.2,0.8-0.2s0.6,0.1,0.8,0.2c0.2,0.1,0.5,0.2,0.8,0.2
	s0.6-0.1,0.8-0.2c0.3-0.1,0.5-0.2,0.8-0.2s0.6,0.1,0.8,0.2c0.2,0.1,0.5,0.2,0.8,0.2V14C13.1,14,13.1,13.9,12.9,13.8z"></path><path fill="#ffffff" transform="translate(2 2)" d="M4.1,8c0.6,0,1.1-0.5,1.1-1.1S4.7,5.8,4.1,5.8C3.5,5.7,3,6.2,3,6.8C3,7.5,3.5,8,4.1,8z"></path><path fill="#ffffff" transform="translate(2 2)" d="M4.3,11.9c-0.2,0.3-0.6,0.4-0.9,0.2S3,11.5,3.2,11.2l2.6-4.5C5.9,6.5,6,6.4,6.2,6.3l3.4-2l2.3-3.9l0,0
	c0.1-0.4,0.6-0.5,1-0.3s0.5,0.7,0.3,1.1l0,0l-2.7,4.6C10.4,6,10.2,6.1,10,6.2L6,8.7L4.3,11.9z"></path></svg>