<svg xmlns="http://www.w3.org/2000/svg" viewBox="0 0 26 26" height="26" width="26"><title>dog-sledding-black-22.svg</title><rect fill="none" x="0" y="0" width="26" height="26"></rect><rect x="0" y="0" width="26" height="26" rx="4" ry="4" fill="#000"></rect><path fill="#ffffff" transform="translate(2 2)" d="M20.3,19c-1,0.8-1.5,1-1.5,1H0.6L0,21h0.1h18.8c0.9-0.1,1.4-0.5,1.4-0.5l1.7-1.3v-1.5L20.3,19z"></path><path fill="#ffffff" transform="translate(2 2)" d="M4.8,4.3C5.6,4.2,6.1,3.4,6,2.6S5.1,1.3,4.3,1.5S3,2.3,3.1,3.1C3.3,3.9,4,4.5,4.8,4.3z"></path><path fill="#ffffff" transform="translate(2 2)" d="M2.3,19.3c0,0.1,0,0.1,0,0.2c0.1,0.6,0.6,0.9,1.2,0.8c0.4-0.1,0.8-0.4,0.8-0.9L4.8,12l1.9,7.7
	c0.2,0.4,0.6,0.7,1.1,0.6c0.6-0.1,0.9-0.6,0.8-1.2c0-0.1,0-0.1,0-0.2L5.7,9V8.1L6,8.7c0.2,0.4,0.6,0.4,0.6,0.4L9,9.3h0.1
	c0.4-0.1,0.6-0.4,0.6-0.8c0-0.3-0.3-0.6-0.6-0.6L7,7.7L6,5.6c-0.5-1.2-1.7-1-1.7-1C3.2,4.8,3.1,6,3.1,6L2.3,19.3z"></path><path fill="#ffffff" transform="translate(2 2)" d="M12,13.4V19h6.8c0.9-0.1,3.1-2.6,3.1-2.6L12,13.4z"></path><path fill="#ffffff" transform="translate(2 2)" d="M10.5,9C10.2,9,10,9.2,10,9.5V20h1V9.5C11,9.2,10.8,9,10.5,9z"></path></svg>