<svg xmlns="http://www.w3.org/2000/svg" viewBox="0 0 27 27" height="27" width="27"><title>downhill-skiing-white-22.svg</title><rect fill="none" x="0" y="0" width="27" height="27"></rect><rect x="0" y="0" width="27" height="27" rx="4" ry="4" fill="#231f20"></rect><path fill="#ffffff" transform="translate(2 2)" d="M12.3,0.4C11.2-0.3,9.7,0,8.9,1.1c-0.4,0.6-0.5,1.4-0.3,2l1.3,4.2L6,8.5C5.5,8.7,5.2,9.2,5.1,9.7
	C5,10.5,5.6,10.9,6.4,11c0.2,0,0.3,0,0.5,0l5.3-1.6C12.6,9.2,13,8.8,13,8.5c0-0.2,0.1-0.4,0.1-0.6L12.3,5l3.2,1.9l0.4,2.8
	c0,0.5,0.3,0.8,0.6,1L20,13c0.5,0.2,1.6,0.2,1.9-0.3s0.1-1-0.4-1.3L18,9.5V7h-1V5h1c-0.4-0.8-0.5-1.5-1-1.8L12.3,0.4L12.3,0.4z M0,9
	l19,11h2v-1h1v1l-1,1h-2L0,10V9z M20,4c1.1,0,2,0.9,2,2s-0.9,2-2,2s-2-0.9-2-2S18.9,4,20,4z"></path></svg>