<svg xmlns="http://www.w3.org/2000/svg" viewBox="0 0 18 18" height="18" width="18"><title>downhill-skiing-white-14.svg</title><rect fill="none" x="0" y="0" width="18" height="18"></rect><rect x="0" y="0" width="18" height="18" rx="4" ry="4" fill="#231f20"></rect><path fill="#ffffff" transform="translate(2 2)" d="M7.3,1.2C6.6,0.8,5.7,1,5.3,1.6C5,2,5,2.5,5.1,2.8l0.8,2.5L3.6,6C3.3,6.1,3,6.4,3,6.7C2.9,7.2,3.3,7.5,3.8,7.6
	c0.1,0,0.2,0,0.3,0l2.9-1C7.2,6.4,7,6.2,7,6c0-0.1,0,0.1,0,0V4l2,1l0.4,1.7c0,0.3,0.1,0.5,0.4,0.6l2.4,1.4c0.3,0.1,0.6,0,0.8-0.2
	c0.1-0.3,0-0.6-0.2-0.8l-1.9-1.1l-0.2-2.9c0-0.3-0.2-0.7-0.5-0.9L7.3,1.2z M0,6v1l9,6h4v-1H9L0,6z M12,3h2v2h-2V3z"></path></svg>