<?xml version="1.0" encoding="utf-8"?>
<!-- Generator: Adobe Illustrator 25.4.1, SVG Export Plug-In . SVG Version: 6.00 Build 0)  -->
<svg version="1.1" id="Layer_1" xmlns="http://www.w3.org/2000/svg" xmlns:xlink="http://www.w3.org/1999/xlink" x="0px" y="0px"
	 width="18px" height="18px" viewBox="0 0 18 18" enable-background="new 0 0 18 18" xml:space="preserve">
<path fill="#231F20" d="M4,0h10c2.2,0,4,1.8,4,4v10c0,2.2-1.8,4-4,4H4c-2.2,0-4-1.8-4-4V4C0,1.8,1.8,0,4,0z"/>
<path fill="#FFFFFF" d="M9.3,3.2C8.6,2.8,7.7,3,7.3,3.6C7,4,7,4.5,7.1,4.8l0.8,2.5L5.6,8C5.3,8.1,5,8.4,5,8.7
	C4.9,9.2,5.3,9.5,5.8,9.6c0.1,0,0.2,0,0.3,0l2.9-1C9.2,8.4,9,8.2,9,8c0-0.1,0,0.1,0,0V6l2,1l0.4,1.7c0,0.3,0.1,0.5,0.4,0.6l2.4,1.4
	c0.3,0.1,0.6,0,0.8-0.2c0.1-0.3,0-0.6-0.2-0.8l-1.9-1.1l-0.2-2.9c0-0.3-0.2-0.7-0.5-0.9L9.3,3.2z"/>
<path fill="#FFFFFF" d="M2,8v1l9,6h4v-1h-4L2,8z"/>
<path fill="#FFFFFF" d="M14.5,5.3c0.7,0,1.2,0.5,1.2,1.2s-0.5,1.2-1.2,1.2s-1.2-0.5-1.2-1.2S13.8,5.3,14.5,5.3z"/>
</svg>
