<?xml version="1.0" encoding="utf-8"?>
<!-- Generator: Adobe Illustrator 25.4.1, SVG Export Plug-In . SVG Version: 6.00 Build 0)  -->
<svg version="1.1" id="Layer_1" xmlns="http://www.w3.org/2000/svg" xmlns:xlink="http://www.w3.org/1999/xlink" x="0px" y="0px"
	 width="18px" height="18px" viewBox="0 0 18 18" enable-background="new 0 0 18 18" xml:space="preserve">
<path fill="#231F20" d="M4,0h10c2.2,0,4,1.8,4,4v10c0,2.2-1.8,4-4,4H4c-2.2,0-4-1.8-4-4V4C0,1.8,1.8,0,4,0z"/>
<path fill="#FFFFFF" d="M14,2v0.3c-0.2,0.1-0.3,0.3-0.5,0.3c-0.2,0.1-0.5,0.2-0.8,0.2s-0.5-0.1-0.8-0.2c-0.3-0.1-0.6-0.5-0.9-0.5
	s-0.6,0.4-0.9,0.5C9.9,2.7,9.6,2.8,9.3,2.8S8.8,2.7,8.5,2.6C8.2,2.5,7.9,2.1,7.6,2.1S7,2.5,6.7,2.6C6.5,2.7,6.2,2.8,5.9,2.8
	S5.4,2.7,5.1,2.6c0,0-0.1,0-0.1-0.1V2H4v0.2l0.2,1.2L6,16h7l1.8-12.5L15,2.4V2H14z M14,4l-2,11H7L5,4V3.7c0,0,0.1,0,0.1,0.1
	C5.3,3.9,5.6,4,5.9,4s0.6-0.1,0.8-0.2C7,3.7,7.3,3.3,7.6,3.3s0.6,0.4,0.9,0.5C8.7,3.9,9,4,9.3,4s0.6-0.1,0.8-0.2
	c0.3-0.1,0.6-0.5,0.9-0.5s0.6,0.4,0.9,0.5C12.1,3.9,12.4,4,12.7,4s0.6-0.1,0.8-0.2s0.3-0.2,0.5-0.3V4z"/>
</svg>
