<svg xmlns="http://www.w3.org/2000/svg" viewBox="0 0 27 27" height="27" width="27"><title>drinking-water-white-22.svg</title><rect fill="none" x="0" y="0" width="27" height="27"></rect><rect x="0" y="0" width="27" height="27" rx="4" ry="4" fill="#231f20"></rect><path fill="#ffffff" transform="translate(2 2)" d="M20,0h-2l-3,20H7L4,0H2l3.5,22h11L20,0z M15.9,2c-0.4,0.4-0.9,1-1.4,1c-0.7,0-1.3-0.8-1.7-1.4
	C12.5,2.2,11.7,3,11,3S9.8,2.2,9.5,1.6C9.1,2.2,8.7,3,8,3C7.5,3,6.8,2.3,6.4,2L6.2,0.1C6.5,0.6,7.3,1,8,1s1.1-0.4,1.5-1
	c0.4,0.5,0.8,1,1.5,1s1.5-0.4,1.8-1c0.4,0.5,1,1,1.7,1s1.3-0.5,1.7-1L15.9,2z"></path></svg>