<svg xmlns="http://www.w3.org/2000/svg" viewBox="0 0 18 18" height="18" width="18"><title>driving-tour-white-14.svg</title><rect fill="none" x="0" y="0" width="18" height="18"></rect><rect x="0" y="0" width="18" height="18" rx="4" ry="4" fill="#231f20"></rect><path fill="#ffffff" transform="translate(2 2)" d="M1.5,1C1.8,1,2,1.2,2,1.5S1.8,2,1.5,2S1,1.8,1,1.5S1.2,1,1.5,1z M3.5,1C3.8,1,4,1.2,4,1.5S3.8,2,3.5,2
	S3,1.8,3,1.5S3.2,1,3.5,1z M9.5,1C9.8,1,10,1.2,10,1.5S9.8,2,9.5,2S9,1.8,9,1.5S9.2,1,9.5,1z M11.5,1C11.8,1,12,1.2,12,1.5
	S11.8,2,11.5,2S11,1.8,11,1.5S11.2,1,11.5,1z M12.5,2C12.8,2,13,2.2,13,2.5S12.8,3,12.5,3S12,2.8,12,2.5S12.2,2,12.5,2z M12.5,4
	C12.8,4,13,4.2,13,4.5S12.8,5,12.5,5S12,4.8,12,4.5S12.2,4,12.5,4z M12.5,6C12.8,6,13,6.2,13,6.5S12.8,7,12.5,7S12,6.8,12,6.5
	S12.2,6,12.5,6z M12.5,8C12.8,8,13,8.2,13,8.5S12.8,9,12.5,9S12,8.8,12,8.5S12.2,8,12.5,8z M12.5,10c0.3,0,0.5,0.2,0.5,0.5
	S12.8,11,12.5,11S12,10.8,12,10.5S12.2,10,12.5,10z M1.5,3C1.8,3,2,3.2,2,3.5S1.8,4,1.5,4S1,3.8,1,3.5S1.2,3,1.5,3z M1.5,5
	C1.8,5,2,5.2,2,5.5S1.8,6,1.5,6S1,5.8,1,5.5S1.2,5,1.5,5z M1.5,7C1.8,7,2,7.2,2,7.5S1.8,8,1.5,8S1,7.8,1,7.5S1.2,7,1.5,7z M1.5,9
	C1.8,9,2,9.2,2,9.5S1.8,10,1.5,10S1,9.8,1,9.5S1.2,9,1.5,9z M1.5,11C1.8,11,2,11.2,2,11.5S1.8,12,1.5,12S1,11.8,1,11.5
	S1.2,11,1.5,11z M2.5,12C2.8,12,3,12.2,3,12.5S2.8,13,2.5,13S2,12.8,2,12.5S2.2,12,2.5,12z M4.5,12C4.8,12,5,12.2,5,12.5
	S4.8,13,4.5,13S4,12.8,4,12.5S4.2,12,4.5,12z M10.5,12c0.3,0,0.5,0.2,0.5,0.5S10.8,13,10.5,13S10,12.8,10,12.5S10.2,12,10.5,12z
	 M12.5,12c0.3,0,0.5,0.2,0.5,0.5S12.8,13,12.5,13S12,12.8,12,12.5S12.2,12,12.5,12z M8,3H7L6,1.5L7,0h1L7,1.5L8,3z M6,14h1l1-1.5
	L7,11H6l1,1.5L6,14z M10,4H4L3,7v1v1h1v0.5C4,9.8,4.2,10,4.5,10S5,9.8,5,9.5V9h4v0.5C9,9.8,9.2,10,9.5,10S10,9.8,10,9.5V9h1V8V7
	L10,4z M4.7,5h4.6L10,7H4.1L4.7,5z"></path></svg>