<svg xmlns="http://www.w3.org/2000/svg" viewBox="0 0 27 27" height="27" width="27"><title>driving-tour-white-22.svg</title><rect fill="none" x="0" y="0" width="27" height="27"></rect><rect x="0" y="0" width="27" height="27" rx="4" ry="4" fill="#231f20"></rect><path fill="#ffffff" transform="translate(2 2)" d="M12,4h-1l-1-2l1-2h1l-1,2L12,4z M10,22h1l1-2l-1-2h-1l1,2L10,22z M2,1c0.6,0,1,0.4,1,1S2.6,3,2,3S1,2.6,1,2
	S1.4,1,2,1z M6,1c0.6,0,1,0.4,1,1S6.6,3,6,3S5,2.6,5,2S5.4,1,6,1z M14,1c0.6,0,1,0.4,1,1s-0.4,1-1,1s-1-0.4-1-1S13.4,1,14,1z M18,1
	c0.6,0,1,0.4,1,1s-0.4,1-1,1s-1-0.4-1-1S17.4,1,18,1z M20,3c0.6,0,1,0.4,1,1s-0.4,1-1,1s-1-0.4-1-1S19.4,3,20,3z M20,7
	c0.6,0,1,0.4,1,1s-0.4,1-1,1s-1-0.4-1-1S19.4,7,20,7z M20,11c0.6,0,1,0.4,1,1s-0.4,1-1,1s-1-0.4-1-1S19.4,11,20,11z M20,15
	c0.6,0,1,0.4,1,1c0,0.6-0.4,1-1,1s-1-0.4-1-1C19,15.4,19.4,15,20,15z M20,19c0.6,0,1,0.4,1,1s-0.4,1-1,1s-1-0.4-1-1S19.4,19,20,19z
	 M2,5c0.6,0,1,0.4,1,1S2.6,7,2,7S1,6.6,1,6S1.4,5,2,5z M2,9c0.6,0,1,0.4,1,1s-0.4,1-1,1s-1-0.4-1-1S1.4,9,2,9z M2,13
	c0.6,0,1,0.4,1,1s-0.4,1-1,1s-1-0.4-1-1S1.4,13,2,13z M2,17c0.6,0,1,0.4,1,1s-0.4,1-1,1s-1-0.4-1-1S1.4,17,2,17z M4,19
	c0.6,0,1,0.4,1,1s-0.4,1-1,1s-1-0.4-1-1S3.4,19,4,19z M8,19c0.6,0,1,0.4,1,1s-0.4,1-1,1s-1-0.4-1-1S7.4,19,8,19z M16,19
	c0.6,0,1,0.4,1,1s-0.4,1-1,1c-0.6,0-1-0.4-1-1S15.4,19,16,19z M16.7,9.2l-1.3-3.4C15.3,5.3,14.8,5,14.3,5H7.7c-0.5,0-1,0.3-1.1,0.8
	L5.2,9.2C4.5,9.4,4,10,4,10.8V14h1v1.6c0,0.6,0.4,1.1,1,1.1s1-0.5,1-1.1V14h8v1.6c0,0.6,0.4,1.1,1,1.1s1-0.5,1-1.1V14h1v-3.2
	C18,10,17.5,9.4,16.7,9.2z M7.5,6.1c0-0.1,0.2-0.2,0.3-0.2h6.4c0.2,0,0.3,0.1,0.3,0.2l1.1,3H6.4L7.5,6.1z M6.5,12.5
	c-0.6,0-1-0.4-1-1s0.4-1,1-1s1,0.4,1,1S7.1,12.5,6.5,12.5z M15.5,12.5c-0.6,0-1-0.4-1-1s0.4-1,1-1s1,0.4,1,1S16.1,12.5,15.5,12.5z"></path></svg>