<?xml version="1.0" encoding="utf-8"?>
<!-- Generator: Adobe Illustrator 27.9.1, SVG Export Plug-In . SVG Version: 6.00 Build 0)  -->
<svg version="1.1" id="Layer_1" xmlns="http://www.w3.org/2000/svg" xmlns:xlink="http://www.w3.org/1999/xlink" x="0px" y="0px"
	 viewBox="0 0 18 18" enable-background="new 0 0 18 18" xml:space="preserve">
<path fill="#231F20" d="M4,0h10c2.2,0,4,1.8,4,4v10c0,2.2-1.8,4-4,4H4c-2.2,0-4-1.8-4-4V4C0,1.8,1.8,0,4,0z"/>
<path fill="#FFFFFF" d="M10.3,6.8c0.6,0,1.1-0.5,1.1-1.1s-0.5-1.1-1.1-1.1S9.2,5.1,9.2,5.7C9.3,6.3,9.8,6.8,10.3,6.8"/>
<path fill="#FFFFFF" d="M10.4,9.3c-0.2,0-0.3,0-0.5-0.2L9.3,8L7.8,9.4l1.3,0.7c0.5,0.3,0.5,0.7,0.5,0.7v3c0,0.3-0.3,0.6-0.6,0.6
	c-0.3,0-0.6-0.3-0.6-0.6v-2.4l-2.3-1.2C5.8,10,5.6,9.7,5.6,9.4c0-0.2,0.1-0.4,0.2-0.6l2.3-2.3c0.3-0.3,0.7-0.2,0.7-0.2
	c0.5,0,0.7,0.4,0.7,0.4l1.2,1.8h1.8c0.6,0,0.6,0.8,0,0.8H10.4z"/>
<g>
	<path fill="#FFFFFF" d="M4.6,11.6c1,0,1.8,0.8,1.8,1.8s-0.8,1.8-1.8,1.8s-1.7-0.9-1.7-1.8S3.7,11.6,4.6,11.6 M4.6,10.7
		c-1.5,0-2.6,1.2-2.6,2.7S3.1,16,4.6,16s2.6-1.1,2.6-2.6S6.1,10.7,4.6,10.7L4.6,10.7z"/>
</g>
<g>
	<path fill="#FFFFFF" d="M13.4,11.6c1,0,1.8,0.8,1.8,1.8s-0.8,1.8-1.8,1.8s-1.8-0.9-1.8-1.8S12.4,11.6,13.4,11.6 M13.4,10.7
		c-1.5,0-2.6,1.1-2.6,2.6s1.1,2.6,2.6,2.6s2.6-1.1,2.6-2.6S14.9,10.7,13.4,10.7L13.4,10.7z"/>
</g>
<path fill="#FFFFFF" d="M2,4.7h1.1l0,0C3.2,5.8,4,6.4,5,6.4h0.6V5.6h1.6c0.2,0,0.3-0.2,0.3-0.3C7.5,5.2,7.3,5,7.2,5H5.6V3.6h1.6
	c0.2,0,0.3-0.2,0.3-0.3S7.3,2.9,7.2,2.9H5.6V2H5C4,2,3.2,2.8,3.1,3.7l0,0H2V4.7z"/>
</svg>
