<?xml version="1.0" encoding="utf-8"?>
<!-- Generator: Adobe Illustrator 27.9.1, SVG Export Plug-In . SVG Version: 6.00 Build 0)  -->
<svg version="1.1" id="Layer_1" xmlns="http://www.w3.org/2000/svg" xmlns:xlink="http://www.w3.org/1999/xlink" x="0px" y="0px"
	 viewBox="0 0 27 27" enable-background="new 0 0 27 27" xml:space="preserve">
<path fill="#231F20" d="M4,0h19c2.2,0,4,1.8,4,4v19c0,2.2-1.8,4-4,4H4c-2.2,0-4-1.8-4-4V4C0,1.8,1.8,0,4,0z"/>
<path fill="#FFFFFF" d="M7,22.5c2.1,0,3.6-1.6,3.6-3.6S9,15.1,7,15.1s-3.6,1.6-3.6,3.6S5.1,22.5,7,22.5 M2.6,18.7
	c0-2.5,2.1-4.4,4.4-4.4c2.5,0,4.4,2.1,4.4,4.4c0,2.5-2.1,4.4-4.4,4.4C4.7,23.3,2.6,21.3,2.6,18.7"/>
<path fill="#FFFFFF" d="M20.2,22.5c2.1,0,3.6-1.6,3.6-3.6s-1.6-3.6-3.6-3.6s-3.6,1.6-3.6,3.6C16.7,20.8,18.2,22.5,20.2,22.5
	 M15.7,18.9c0-2.5,2.1-4.4,4.4-4.4c2.5,0,4.4,2.1,4.4,4.4c0,2.5-2.1,4.4-4.4,4.4S15.7,21.3,15.7,18.9"/>
<path fill="#FFFFFF" d="M15.7,8c0.9,0,1.7-0.8,1.7-1.7s-0.7-1.8-1.7-1.8c-0.9,0-1.7,0.8-1.7,1.7C14.2,7.2,14.9,8,15.7,8"/>
<path fill="#FFFFFF" d="M15.9,11.9c-0.3,0-0.5,0-0.8-0.3l-0.9-1.7l-2.4,2.2l2.1,1.1c0.8,0.5,0.8,1.1,0.8,1.1V19
	c0,0.5-0.5,0.9-0.9,0.9s-0.9-0.5-0.9-0.9v-3.8l-3.6-1.9c-0.7-0.3-1-0.7-1-1.2c0-0.3,0.2-0.6,0.3-0.9l3.7-3.7
	c0.5-0.5,1.1-0.3,1.1-0.3c0.8,0,1.1,0.6,1.1,0.6l1.9,2.8h2.8c0.9,0,0.9,1.3,0,1.3H15.9z"/>
<path fill="#FFFFFF" d="M2.6,6.4h2.1l0,0c0.1,1.1,0.9,1.7,1.9,1.7h0.6V7.3h1.6c0.2,0,0.3-0.2,0.3-0.3S8.9,6.7,8.8,6.7H7.2V5.3h1.6
	c0.2,0,0.3-0.2,0.3-0.3S8.9,4.6,8.8,4.6H7.2V3.7H6.6c-1,0-1.8,0.8-1.9,1.7l0,0H2.6V6.4z"/>
</svg>
