<svg xmlns="http://www.w3.org/2000/svg" viewBox="0 0 27 27" height="27" width="27"><title>electrical-hookup-white-22.svg</title><rect fill="none" x="0" y="0" width="27" height="27"></rect><rect x="0" y="0" width="27" height="27" rx="4" ry="4" fill="#231f20"></rect><path fill="#ffffff" transform="translate(2 2)" d="M16,6.3V1.1C16,0.5,15.2,0,14.5,0S13,0.5,13,1.1v5.2H8.8V1.1C8.8,0.5,8.2,0,7.5,0S6,0.5,6,1.1v5.2H3.5
	c0,0,0,1.4,0,2.2c0,3.1,2.5,5.7,5.7,6.4h0.3V22h2.9v-7.1h0.1c3.4-0.7,5.9-3.2,5.9-6.4c0-0.8,0-2.2,0-2.2H16z"></path></svg>