<svg xmlns="http://www.w3.org/2000/svg" viewBox="0 0 18 18" height="18" width="18"><title>electrical-hookup-white-14.svg</title><rect fill="none" x="0" y="0" width="18" height="18"></rect><rect x="0" y="0" width="18" height="18" rx="4" ry="4" fill="#231f20"></rect><path fill="#ffffff" transform="translate(2 2)" d="M9.7,4V0.7C9.7,0.3,9.4,0,8.9,0C8.5,0,8.2,0.3,8.2,0.7V4H5.6V0.7C5.6,0.3,5.3,0,4.9,0C4.4,0,4.1,0.3,4.1,0.7
	V4H2.3c0,0,0,0.9,0,1.4c0,2,1.6,3.6,3.7,4h0.2V14h1.9V9.5h0.1c2.1-0.4,3.8-2,3.8-4c0-0.5,0-1.4,0-1.4L9.7,4L9.7,4z"></path></svg>