<svg xmlns="http://www.w3.org/2000/svg" viewBox="0 0 18 18" height="18" width="18"><title>elevator-white-14.svg</title><rect fill="none" x="0" y="0" width="18" height="18"></rect><rect x="0" y="0" width="18" height="18" rx="4" ry="4" fill="#231f20"></rect><path fill="#ffffff" transform="translate(2 2)" d="M11,7v6H3V7H11 M11,6H3C2.4,6,2,6.5,2,7v6c0,0.5,0.4,1,1,1h8c0.6,0,1-0.5,1-1V7C12,6.5,11.6,6,11,6L11,6z
	 M7,3L4.5,0L2,3h2v2h1V3H7z M10,2V0H9v2H7l2.5,3L12,2H10z M7,13L7,13c-0.6,0-1-0.4-1-1v-2c0-0.5,0.4-1,1-1l0,0c0.5,0,1,0.4,1,1v2
	C8,12.6,7.6,13,7,13z M9,11H5v-1l1-1h2l1,1V11z M7,7.2c0.4,0,0.8,0.4,0.8,0.8S7.4,8.8,7,8.8S6.2,8.4,6.2,8S6.6,7.2,7,7.2z"></path></svg>