<svg xmlns="http://www.w3.org/2000/svg" viewBox="0 0 27 27" height="27" width="27"><title>elevator-white-22.svg</title><rect fill="none" x="0" y="0" width="27" height="27"></rect><rect x="0" y="0" width="27" height="27" rx="4" ry="4" fill="#231f20"></rect><path fill="#ffffff" transform="translate(2 2)" d="M18,10v11H4V10H18 M18,9H4c-0.5,0-1,0.5-1,1v11c0,0.5,0.5,1,1,1h14c0.5,0,1-0.5,1-1V10C19,9.5,18.5,9,18,9
	L18,9z"></path><path fill="#ffffff" transform="translate(2 2)" d="M14.1,1c0-1.3,1.8-1.3,1.8,0v3.9l1-1.2C17.6,3,18.8,4,18.1,4.9l-2.4,2.9c-0.4,0.4-0.9,0.4-1.2,0L12,4.9
	C11.3,4,12.5,3,13.2,3.7l1,1.2L14.1,1z"></path><path fill="#ffffff" transform="translate(2 2)" d="M6,7.1c0,1.3,1.8,1.3,1.8,0V3.2l1,1.2c0.7,0.7,1.9-0.3,1.2-1.2L7.6,0.4C7.2,0,6.7,0,6.3,0.3l-2.4,3
	C3.2,4.1,4.3,5.2,5.1,4.4l1-1.2L6,7.1z"></path><path fill="#ffffff" transform="translate(2 2)" d="M8,13H6c-0.4,0-0.5,0.6-0.5,1v1c0,0.4,0.1,1,0.5,1v3c0,1,0.6,1,1,1l0,0c0.4,0,1,0,1-1v-3
	c0.4,0,0.5-0.6,0.5-1v-1C8.5,13.6,8.4,13,8,13z"></path><path fill="#ffffff" transform="translate(2 2)" d="M7,11c0.6,0,1,0.4,1,1s-0.4,1-1,1s-1-0.4-1-1S6.4,11,7,11z"></path><path fill="#ffffff" transform="translate(2 2)" d="M12,13h-2c-0.4,0-0.5,0.6-0.5,1v1c0,0.4,0.1,1,0.5,1v3c0,1,0.6,1,1,1l0,0c0.4,0,1,0,1-1v-3
	c0.4,0,0.5-0.6,0.5-1v-1C12.5,13.6,12.4,13,12,13z"></path><path fill="#ffffff" transform="translate(2 2)" d="M11,11c0.6,0,1,0.4,1,1s-0.4,1-1,1s-1-0.4-1-1S10.4,11,11,11z"></path><path fill="#ffffff" transform="translate(2 2)" d="M16,13h-2c-0.4,0-0.5,0.6-0.5,1v1c0,0.4,0.1,1,0.5,1v3c0,1,0.6,1,1,1l0,0c0.4,0,1,0,1-1v-3
	c0.4,0,0.5-0.6,0.5-1v-1C16.5,13.6,16.4,13,16,13z"></path><path fill="#ffffff" transform="translate(2 2)" d="M15,11c0.6,0,1,0.4,1,1s-0.4,1-1,1s-1-0.4-1-1S14.4,11,15,11z"></path></svg>