<svg xmlns="http://www.w3.org/2000/svg" viewBox="0 0 18 18" height="18" width="18"><title>emergency-telephone-white-14.svg</title><rect fill="none" x="0" y="0" width="18" height="18"></rect><rect x="0" y="0" width="18" height="18" rx="4" ry="4" fill="#231f20"></rect><path fill="#ffffff" transform="translate(2 2)" d="M5,0C4.3,0.1,2.1,1.2,2,6.8c0,6,2.3,7.2,3,7.2v-4c-0.5,0-0.7-0.5-0.8-1.7c-0.1-0.8-0.1-1.5,0-2.5
	C4.2,5,4.4,4,5,4V0z M6,10h1l1,1v2l-1,1H6V10z M6,0h1l1,1v2L7,4H6V0z M10,12.2c0-0.6,0.5-1.1,1.1-1.1s1.1,0.5,1.1,1.1
	s-0.4,1.1-1.1,1.1S10,12.8,10,12.2z M10.5,9.6L10.2,1h1.7l-0.3,8.6H10.5z"></path></svg>