<svg xmlns="http://www.w3.org/2000/svg" viewBox="0 0 27 27" height="27" width="27"><title>emergencies-white-22.svg</title><rect fill="none" x="0" y="0" width="27" height="27"></rect><rect x="0" y="0" width="27" height="27" rx="4" ry="4" fill="#231f20"></rect><path fill="#ffffff" transform="translate(2 2)" d="M0.8,14.3c0.5,0.2,1.1,0.4,1.8,0.4c1.8,0,2.4-1.6,2.4-3.2l0,0c-0.5,0.7-1.1,1-2,1c-1.9,0-3-1.2-3-3.1
	c0-2.2,1.1-3.7,3.4-3.7c2.8,0,3.5,2.4,3.5,4.8c0,2.8-0.9,5.8-4.2,5.8c-0.7,0-1.4-0.1-2.2-0.4L0.8,14.3z M4.8,9.1
	c0-1-0.4-1.8-1.4-1.8C2.4,7.2,2,8.2,2,9.1c0,1,0.4,1.9,1.4,1.9S4.8,10.1,4.8,9.1z"></path><path fill="#ffffff" transform="translate(2 2)" d="M11.8,5.9h1.8v10.2h-2V8.2L9.9,9.6l-1-1.3L11.8,5.9z"></path><path fill="#ffffff" transform="translate(2 2)" d="M20.2,5.9H22v10.2h-2V8.2l-1.7,1.4l-1-1.3L20.2,5.9z"></path></svg>