<svg xmlns="http://www.w3.org/2000/svg" viewBox="0 0 18 18" height="18" width="18"><title>emergencies-white-14.svg</title><rect fill="none" x="0" y="0" width="18" height="18"></rect><rect x="0" y="0" width="18" height="18" rx="4" ry="4" fill="#231f20"></rect><path fill="#ffffff" transform="translate(2 2)" d="M0.5,9.1c0.3,0.1,0.7,0.3,1.1,0.3c1.1,0,1.5-1,1.5-2l0,0C2.9,7.8,2.5,8,1.9,8C0.7,8,0,7.2,0,6
	c0-1.4,0.7-2.3,2.2-2.3c1.8,0,2.2,1.5,2.2,3c0,1.8-0.6,3.7-2.7,3.7c-0.5,0-0.9-0.1-1.4-0.2L0.5,9.1z M3.1,5.8c0-0.6-0.3-1.2-0.9-1.2
	S1.3,5.2,1.3,5.8S1.6,7,2.2,7S3.1,6.4,3.1,5.8z"></path><path fill="#ffffff" transform="translate(2 2)" d="M7.5,3.7h1.2v6.5H7.4v-5L6.3,6.1L5.6,5.3L7.5,3.7z"></path><path fill="#ffffff" transform="translate(2 2)" d="M12.8,3.7H14v6.5h-1.3v-5l-1.1,0.9l-0.7-0.8L12.8,3.7z"></path></svg>