<svg xmlns="http://www.w3.org/2000/svg" viewBox="0 0 27 27" height="27" width="27"><title>emergency-telephone-white-22.svg</title><rect fill="none" x="0" y="0" width="27" height="27"></rect><rect x="0" y="0" width="27" height="27" rx="4" ry="4" fill="#231f20"></rect><path fill="#ffffff" transform="translate(2 2)" d="M8,0C7,0.1,3.1,1.8,3,10.7C2.9,20,7,22,8,22v-6c-0.9,0-1.1-1.1-1.3-3c-0.1-1.3-0.2-2.4,0-4
	C6.8,7.9,7.1,6,8,6V0z M9,0h2l1,1v4l-1,1H9V0z M9,16h2l1,1v4l-1,1H9V16z M15,14.9L14,1h3.6l-0.7,13.9H15z M16,17c1.1,0,2,0.9,2,2
	s-0.9,2-2,2s-2-0.9-2-2S14.9,17,16,17z"></path></svg>