<svg xmlns="http://www.w3.org/2000/svg" viewBox="0 0 18 18" height="18" width="18"><title>event-facility-white-14.svg</title><rect fill="none" x="0" y="0" width="18" height="18"></rect><rect x="0" y="0" width="18" height="18" rx="4" ry="4" fill="#231f20"></rect><path fill="#ffffff" transform="translate(2 2)" d="M14,3L7,0L0,3v11h1v-1v-2V3.7l6-2.6l6,2.6V11v2v1h1V3z M6,4h2v5H6V4z M10.9,7h-1C9.6,9.3,8.4,11,7,11
	S4.3,9.3,4.1,7h-1c0.3,2.3,1.4,4.2,2.9,4.8V13H5v1h4v-1H8v-1.2C9.5,11.2,10.7,9.3,10.9,7z M8,5h1c0-1.1-0.9-2-2-2S5,3.9,5,5h1v1H5v1
	h1v1H5c0,1.1,0.9,2,2,2s2-0.9,2-2H8V7h1V6H8V5z"></path></svg>