<svg xmlns="http://www.w3.org/2000/svg" viewBox="0 0 27 27" height="27" width="27"><title>event-facility-white-22.svg</title><rect fill="none" x="0" y="0" width="27" height="27"></rect><rect x="0" y="0" width="27" height="27" rx="4" ry="4" fill="#231f20"></rect><path fill="#ffffff" transform="translate(2 2)" d="M17,11h-1c0,3.3-2.2,6-5,6s-5-2.7-5-6H5c0,3.5,2.2,6.3,5,6.9V20l-1,1H8v1h6v-1h-1l-1-1v-2.1
	C14.8,17.3,17,14.5,17,11z"></path><path fill="#ffffff" transform="translate(2 2)" d="M12,7h2c0-1.7-1.3-3-3-3S8,5.3,8,7h2v1H8v1h2v1H8v1h2v1H8c0,1.7,1.3,3,3,3s3-1.3,3-3h-2v-1h2v-1h-2V9h2V8h-2
	V7z"></path><path fill="#ffffff" transform="translate(2 2)" d="M22,5L11,0L0,5v17h1v-1v-3V5.6l10-4.5l10,4.5V18v3v1h1V5z"></path></svg>