<svg xmlns="http://www.w3.org/2000/svg" viewBox="0 0 18 18" height="18" width="18"><title>exercise-fitness-white-14.svg</title><rect fill="none" x="0" y="0" width="18" height="18"></rect><rect x="0" y="0" width="18" height="18" rx="4" ry="4" fill="#231f20"></rect><path fill="#ffffff" transform="translate(2 2)" d="M10,3c0.6,0,1-0.4,1-1s-0.4-1-1-1S9,1.4,9,2S9.4,3,10,3z"></path><path fill="#ffffff" transform="translate(2 2)" d="M10.3,3.1H9.7L6.8,0.6c-0.2-0.2-0.5-0.2-0.7,0C5.9,0.8,5.9,1.1,6,1.3l3,2.6v8.5C9,12.8,9.2,13,9.5,13
	s0.6,0,0.9,0c0.3,0,0.6-0.2,0.6-0.6V3.9l2.9-2.6c0.2-0.2,0.2-0.5,0-0.7s-0.5-0.2-0.7,0L10.3,3.1z"></path><path fill="#ffffff" transform="translate(2 2)" d="M5.5,6.4C5.3,6.2,5.1,6.2,4.9,6.2H2.8c-0.2,0-0.4,0.1-0.6,0.2L0.1,8.5C-0.1,8.7,0,9,0.2,9.2s0.5,0.2,0.7,0
	L3,7.3v2.4H0.7c-0.3,0-0.6,0.3-0.6,0.6c0,0.2,0.1,0.3,0.2,0.4l2,2C2.5,13,2.8,13,3.1,12.9c0.3-0.2,0.4-0.5,0.2-0.8L2.2,11l0,0h3.3
	l-1.2,1.2c-0.2,0.3-0.1,0.7,0.2,0.8c0.3,0.2,0.6,0.1,0.8-0.2l2-2c0.1-0.1,0.2-0.3,0.2-0.4C7.6,10,7.3,9.7,7,9.7H5V7.2l1.8,1.9
	c0.2,0.2,0.5,0.2,0.7,0s0.2-0.5,0-0.7L5.5,6.4z"></path><path fill="#ffffff" transform="translate(2 2)" d="M4,6c0.6,0,1-0.4,1-1S4.6,4,4,4S3,4.4,3,5S3.4,6,4,6z"></path></svg>