<svg xmlns="http://www.w3.org/2000/svg" viewBox="0 0 27 27" height="27" width="27"><title>exercise-fitness-white-22.svg</title><rect fill="none" x="0" y="0" width="27" height="27"></rect><rect x="0" y="0" width="27" height="27" rx="4" ry="4" fill="#231f20"></rect><path fill="#ffffff" transform="translate(2 2)" d="M16.8,5h-2.3l-3.9-4c-0.3-0.3-0.8-0.3-1.1,0s-0.3,0.8,0,1.1L13,6v13.6c0,0.5,0.5,0.9,1,0.9s1-0.4,1-0.9V12h1
	v7.6c0,0.5,0.5,0.9,1,0.9s1-0.4,1-0.9V6l3.8-3.9c0.3-0.3,0.3-0.8,0-1.1S21,0.7,20.7,1L16.8,5z"></path><path fill="#ffffff" transform="translate(2 2)" d="M8.6,10.8c-0.2-0.2-0.6-0.4-0.9-0.4H4.4c-0.4,0-0.7,0.1-0.9,0.4L0.2,14c-0.3,0.3-0.3,0.8,0,1.1
	s0.8,0.3,1.1,0L4,13v3H1.1c-0.5,0-0.9,0.4-0.9,0.9c0,0.3,0.1,0.5,0.3,0.7l3.2,3.2C4,21.2,4.5,21.3,5,21.1c0.5-0.3,0.6-0.9,0.4-1.3
	l-2-1.8l0,0h5.2l-1.8,1.8c-0.3,0.5-0.1,1.1,0.4,1.3c0.4,0.3,1,0.1,1.3-0.3l3.2-3.2c0.2-0.2,0.3-0.4,0.3-0.7c0-0.5-0.4-0.9-0.9-0.9
	h-3v-3l2.7,2.1c0.3,0.3,0.8,0.3,1.1,0s0.3-0.8,0-1.1L8.6,10.8z"></path><path fill="#ffffff" transform="translate(2 2)" d="M6,7c0.8,0,1.5,0.7,1.5,1.5S6.8,10,6,10S4.5,9.3,4.5,8.5S5.2,7,6,7z"></path><path fill="#ffffff" transform="translate(2 2)" d="M15.5,1C16.3,1,17,1.7,17,2.5S16.3,4,15.5,4C14.7,4,14,3.3,14,2.5S14.7,1,15.5,1z"></path></svg>