<svg xmlns="http://www.w3.org/2000/svg" viewBox="0 0 18 18" height="18" width="18"><title>falling-rocks-white-14.svg</title><rect fill="none" x="0" y="0" width="18" height="18"></rect><rect x="0" y="0" width="18" height="18" rx="4" ry="4" fill="#231f20"></rect><path fill="#ffffff" transform="translate(2 2)" d="M5.9,1.5l1-0.5L6.4,0.1L5.5,0.5L5.9,1.5z M3.5,3.3L4,1.7l1.6,0.5L5.1,3.9L3.5,3.3z M5.5,2.9l2.9-0.2l0.3,2.7
	L6.6,5.7L5.7,4.5L5.5,2.9z M9.1,7.5l1,0.7l0.6-0.1l0.7-1.2l0,0l-1-0.6L9.8,6.4L9.1,7.5z M9.5,9l1.9,0.2l-0.2,1.9l-1.4-0.2L9.3,10
	L9.5,9z M7.7,9.1L2.6,3L1.5,0.3L0,0v13c0,0.4,0.6,1,1,1h9.2l-0.7-2.7L7.7,9.1 M6.9,7l0.4-0.3L6.7,5.9L6.3,6.2V7H6.9z M14,14h-2.1
	v-1.2l0.7-0.7L14,13V14z"></path></svg>