<svg xmlns="http://www.w3.org/2000/svg" viewBox="0 0 18 18" height="18" width="18"><title>family-restroom-white-14.svg</title><rect fill="none" x="0" y="0" width="18" height="18"></rect><rect x="0" y="0" width="18" height="18" rx="4" ry="4" fill="#231f20"></rect><path fill="#ffffff" transform="translate(2 2)" d="M14,4h-4v5h1v5h2V9h1V4z M3,4H1l-1,7h1v3h2v-3h1L3,4z M2.2,3H1.8C1.3,3,1,2.7,1,2.2V1.8C1,1.3,1.3,1,1.8,1
	h0.5C2.7,1,3,1.3,3,1.8v0.5C3,2.7,2.7,3,2.2,3z M7.2,7H6.8C6.3,7,6,6.7,6,6.2V5.8C6,5.3,6.3,5,6.8,5h0.5C7.7,5,8,5.3,8,5.8v0.5
	C8,6.7,7.7,7,7.2,7z M12.2,3h-0.5C11.3,3,11,2.7,11,2.2V1.8C11,1.3,11.3,1,11.8,1h0.5C12.7,1,13,1.3,13,1.8v0.5
	C13,2.7,12.7,3,12.2,3z M8.5,8H8H6H5.5v3H6v3h2v-3h0.5V8z"></path></svg>