<svg xmlns="http://www.w3.org/2000/svg" viewBox="0 0 18 18" height="18" width="18"><title>fire-extinguisher-white-14.svg</title><rect fill="none" x="0" y="0" width="18" height="18"></rect><rect x="0" y="0" width="18" height="18" rx="4" ry="4" fill="#231f20"></rect><path fill="#ffffff" transform="translate(2 2)" d="M4.8,1.4C3.7,1.6,3.4,2.2,3,2.7C2.7,3.2,2,2.8,2.3,2.3c0.2-0.5,1-1.3,1.6-1.5C3.8,0.7,4.1,0,4.7,0
	C5.2,0,6,0,6,0v1h2l4-1v3L8,2H6v1c0.5,0.1,2,0.6,2,2v8c0,0.2-0.4,1-0.8,1H3.6C3.2,14,3,13.2,3,13V5c0-1.4,1.4-1.8,1.8-1.9V1.4z"></path></svg>