<svg xmlns="http://www.w3.org/2000/svg" viewBox="0 0 27 27" height="27" width="27"><title>firewood-cutting-white-22.svg</title><rect fill="none" x="0" y="0" width="27" height="27"></rect><rect x="0" y="0" width="27" height="27" rx="4" ry="4" fill="#231f20"></rect><path fill="#ffffff" transform="translate(2 2)" d="M14.8,6.7l-3.4-3.2l2.2-2.3L20.9,8c-1.6,1.7-3,2.9-5.4,3.1L14.8,6.7z"></path><path fill="#ffffff" transform="translate(2 2)" d="M15.8,17.8c0,0.4,0.1,0.7,0.3,1.1c0.7,1.6,2.6,2.3,4.1,1.5c1.6-0.7,2.3-2.6,1.5-4.1c-0.4-1-1.3-1.6-2.3-1.8
	l-0.5,3.1L15.8,17.8z"></path><path fill="#ffffff" transform="translate(2 2)" d="M18.2,17.1l-2-2.8c-0.7,0.5-1.3,1.4-1.4,2.4L18.2,17.1z"></path><path fill="#ffffff" transform="translate(2 2)" d="M9.3,8.6l0.5-2l1.5-1.7L13.6,7L3.8,17.8c-0.8,0.8-1.4,1.9-1.7,3l-2-0.6c0.4-1.4,1.1-2.7,2.1-3.7L9.3,8.6z"></path><path fill="#ffffff" transform="translate(2 2)" d="M12.8,17.8c0.8,0.6,1.3,1.6,1.3,2.7h-3.4L12.8,17.8z"></path></svg>