<svg xmlns="http://www.w3.org/2000/svg" viewBox="0 0 27 27" height="27" width="27"><title>first-come-first-served-white-22.svg</title><rect fill="none" x="0" y="0" width="27" height="27"></rect><rect x="0" y="0" width="27" height="27" rx="4" ry="4" fill="#231f20"></rect><path fill="#ffffff" transform="translate(2 2)" d="M0.8,7.8V5.9c1.8-0.2,3-0.5,3.7-0.9s1.2-1.4,1.6-2.9H8v19.5H5.5V7.8H0.8z"></path><path fill="#ffffff" transform="translate(2 2)" d="M10.6,11.7c0,0.5,0.2,0.8,0.4,1.1c0.4,0.5,1,0.7,1.9,0.7c0.5,0,1-0.1,1.4-0.3s0.6-0.6,0.6-1.1
	c0-0.4-0.2-0.6-0.5-0.8c-0.2-0.1-0.6-0.3-1.2-0.4L12,10.6c-0.7-0.2-1.3-0.4-1.6-0.6C9.8,9.5,9.5,9,9.5,8.3c0-0.8,0.3-1.5,0.9-2
	c0.6-0.5,1.4-0.7,2.4-0.7c1.3,0,2.2,0.4,2.8,1.1c0.4,0.5,0.5,1,0.5,1.5h-1.4c0-0.3-0.1-0.6-0.4-0.9c-0.3-0.4-0.9-0.6-1.8-0.6
	c-0.6,0-1,0.1-1.3,0.3C11.1,7.3,11,7.6,11,7.9c0,0.4,0.2,0.7,0.6,0.9c0.2,0.1,0.5,0.2,1,0.3l1,0.2c1,0.2,1.8,0.5,2.1,0.7
	c0.6,0.4,0.8,0.9,0.8,1.7s-0.3,1.4-0.9,2s-1.5,0.8-2.7,0.8c-1.3,0-2.2-0.3-2.7-0.9c-0.5-0.6-0.8-1.3-0.9-2.1h1.3
	C10.6,11.5,10.6,11.7,10.6,11.7z"></path><path fill="#ffffff" transform="translate(2 2)" d="M18.2,3.4h1.5v2.4h1.4V7h-1.4v5.6c0,0.3,0.1,0.5,0.3,0.6c0.1,0.1,0.3,0.1,0.6,0.1c0.1,0,0.1,0,0.2,0
	s0.2,0,0.3,0v1.1c-0.2,0-0.3,0.1-0.5,0.1s-0.4,0-0.6,0c-0.7,0-1.1-0.2-1.4-0.5c-0.2-0.3-0.4-0.8-0.4-1.3V7H17V5.8h1.2V3.4z"></path></svg>