<svg xmlns="http://www.w3.org/2000/svg" viewBox="0 0 18 18" height="18" width="18"><title>first-come-first-served-white-14.svg</title><rect fill="none" x="0" y="0" width="18" height="18"></rect><rect x="0" y="0" width="18" height="18" rx="4" ry="4" fill="#231f20"></rect><path fill="#ffffff" transform="translate(2 2)" d="M-0.1,4.8V3.5C1,3.4,1.8,3.2,2.3,3s0.8-0.9,1-1.9h1.2v12.5H2.9V4.8H-0.1z"></path><path fill="#ffffff" transform="translate(2 2)" d="M6.4,7c0,0.3,0.1,0.5,0.2,0.7C6.9,8,7.3,8.1,7.9,8.1c0.3,0,0.7-0.1,0.9-0.2c0.3-0.1,0.4-0.4,0.4-0.7
	c0-0.2-0.1-0.4-0.3-0.5C8.7,6.6,8.5,6.5,8.1,6.4L7.3,6.2C6.8,6.1,6.5,6,6.3,5.8c-0.4-0.2-0.6-0.6-0.6-1c0-0.5,0.2-0.9,0.6-1.3
	C6.6,3.2,7.1,3,7.8,3c0.8,0,1.4,0.2,1.8,0.7c0.2,0.3,0.3,0.6,0.3,1H9c0-0.1,0-0.3-0.2-0.5S8.2,3.8,7.7,3.8C7.3,3.8,7.1,3.9,6.9,4
	C6.7,4.2,6.6,4.3,6.6,4.6C6.6,4.8,6.7,5,7,5.1c0.1,0.1,0.3,0.2,0.6,0.2l0.6,0.1C8.9,5.7,9.3,5.8,9.6,6c0.4,0.2,0.5,0.6,0.5,1.1
	S9.9,8,9.5,8.4C9.2,8.7,8.6,8.9,7.8,8.9S6.4,8.7,6.1,8.3S5.5,7.5,5.5,7H6.4z"></path><path fill="#ffffff" transform="translate(2 2)" d="M11.3,1.7h0.9v1.5h0.9V4h-0.9v3.6c0,0.2,0.1,0.3,0.2,0.4c0.1,0,0.2,0.1,0.4,0.1h0.1c0.1,0,0.1,0,0.2,0v0.7
	c-0.1,0-0.2,0.1-0.3,0.1s-0.2,0-0.4,0c-0.4,0-0.7-0.1-0.9-0.3s-0.2-0.5-0.2-0.9V3.9h-0.7V3.2h0.7V1.7z"></path></svg>