<svg xmlns="http://www.w3.org/2000/svg" viewBox="0 0 27 27" height="27" width="27"><title>fishing-license-white-22.svg</title><rect fill="none" x="0" y="0" width="27" height="27"></rect><rect x="0" y="0" width="27" height="27" rx="4" ry="4" fill="#231f20"></rect><path fill="#ffffff" transform="translate(2 2)" d="M3,4h16v2H3V4z M3,7h12v2H3V7z M3,1h16v2H3V1z M5.3,12.4c0-0.7-0.5-1.2-1.2-1.2s-1.2,0.5-1.2,1.2
	c0,0.5,0.3,0.9,0.7,1.1c0,0.3-0.1,5.7-0.1,5.7c0,0.3-0.2,0.7-0.4,0.9c-0.3,0.2-0.6,0.4-0.9,0.4s-0.6-0.1-0.9-0.4
	c-0.3-0.2-0.4-0.6-0.4-1c0,0,0.1-0.2,0.1-0.4c0.2,0.1,0.8,0.6,0.8,0.6l-0.5-3.6l-1.1,2.4C0,18.7,0,19.1,0,19.2c0,1.2,1,2.3,2.2,2.3
	c1.3,0,2.3-1,2.3-2.2l0,0c0,0,0-5.5,0-5.7C5,13.3,5.3,12.9,5.3,12.4z M7.6,14.6c0,0-0.1,0.1-0.1,0.2c0,0.1,0,0.2,0.1,0.2l3.7,1.8
	c0.2,0.1,0.2,0.2,0.2,0.3c0,0.2-0.2,0.4-0.4,0.4H7c-0.1,0-0.1,0.1-0.1,0.1v0.1c4.2,3.4,9.7,4.4,15,4.3V10.6
	C12.2,10.5,7.6,14.6,7.6,14.6z M13.5,15.5c-0.6,0-1-0.4-1-1s0.4-1,1-1s1,0.4,1,1S14.1,15.5,13.5,15.5z"></path></svg>