<?xml version="1.0" encoding="utf-8"?>
<!-- Generator: Adobe Illustrator 25.4.1, SVG Export Plug-In . SVG Version: 6.00 Build 0)  -->
<svg version="1.1" id="Layer_1" xmlns="http://www.w3.org/2000/svg" xmlns:xlink="http://www.w3.org/1999/xlink" x="0px" y="0px"
	 width="18px" height="18px" viewBox="0 0 18 18" enable-background="new 0 0 18 18" xml:space="preserve">
<path fill="#231F20" d="M4,0h10c2.2,0,4,1.8,4,4v10c0,2.2-1.8,4-4,4H4c-2.2,0-4-1.8-4-4V4C0,1.8,1.8,0,4,0z"/>
<path fill="#FFFFFF" d="M8.4,2c0.5,0,0.9,0.4,0.9,0.9S8.9,3.8,8.4,3.8S7.5,3.4,7.5,2.9S7.9,2,8.4,2z"/>
<path fill="#FFFFFF" d="M15,2l-1,0.2l-2.8,2.9L11.1,5c0,0-1,0-1.3,0C9.6,4.8,8.4,3.6,8.4,3.6C8.3,3.5,8.2,3.5,8.1,3.5
	c-0.3-0.2-0.7-0.2-0.9,0l-3.1,2C4.1,5.6,4,5.7,4,5.8V8H2v1h2v2.6c-0.2,0.4,1.1,0.8,1.5,0.8S6,11.6,6,11.6V9h2v3H2v1h7V9h1V8H6V7.3
	l2.2-1.7L9,6.3C9.1,6.4,9.4,7,9.4,7h1.2C10.8,7,11,6.8,11,6.6c0-0.1,0-0.1,0-0.1c0.8-0.7,2.6-2.3,3-2.6c0,0.7,0,9.1,0,9.1h1V3
	C15,2.9,15,2,15,2z"/>
<path fill="#FFFFFF" d="M16,16c-0.3,0-0.6-0.1-0.8-0.2c-0.3-0.1-0.6-0.5-0.9-0.5c-0.3,0-0.6,0.4-0.9,0.5c-0.2,0.1-0.5,0.2-0.8,0.2
	s-0.6-0.1-0.8-0.2c-0.3-0.1-0.6-0.5-0.9-0.5c-0.3,0-0.6,0.4-0.9,0.5C9.8,15.9,9.5,16,9.2,16s-0.6-0.1-0.8-0.2
	c-0.3-0.1-0.6-0.5-0.9-0.5s-0.6,0.4-0.9,0.5C6.4,15.9,6.1,16,5.8,16c-0.3,0-0.6-0.1-0.8-0.2c-0.3-0.1-0.6-0.5-0.9-0.5
	s-0.6,0.4-0.9,0.5C3,15.9,2.7,16,2.4,16v-1.2c0.3,0,0.6-0.1,0.8-0.2c0.3-0.1,0.6-0.5,0.9-0.5s0.6,0.4,0.9,0.5s0.5,0.2,0.8,0.2
	c0.3,0,0.6-0.1,0.8-0.2c0.3-0.1,0.6-0.5,0.9-0.5s0.6,0.4,0.9,0.5c0.3,0.1,0.5,0.2,0.8,0.2c0.3,0,0.6-0.1,0.8-0.2
	c0.3-0.1,0.6-0.5,0.9-0.5s0.6,0.4,0.9,0.5c0.3,0.1,0.5,0.2,0.8,0.2s0.6-0.1,0.8-0.2c0.3-0.1,0.6-0.5,0.9-0.5c0.3,0,0.6,0.4,0.9,0.5
	c0.3,0.1,0.5,0.2,0.8,0.2C16,14.8,16,16,16,16z"/>
</svg>
