<svg xmlns="http://www.w3.org/2000/svg" viewBox="0 0 18 18" height="18" width="18"><title>fish-ladder-white-14.svg</title><rect fill="none" x="0" y="0" width="18" height="18"></rect><rect x="0" y="0" width="18" height="18" rx="4" ry="4" fill="#231f20"></rect><path fill="#ffffff" transform="translate(2 2)" d="M2.3,3.7C2.6,3.7,3,4,3,4.4v1c0,1.1,0.9,2,2,2h1.7c0.4,0,0.7,0.3,0.7,0.7v1c0,1.1,0.9,2,2,2h1.7
	c0.4,0,0.7,0.3,0.7,0.7v2h1.3v-2c0-1.1-0.9-2-2-2H9.4C9,10,8.7,9.6,8.7,9.2v-1c0-1.1-0.9-2-2-2H5c-0.4,0-0.7-0.3-0.7-0.7v-1
	c0-1.1-0.9-2-2-2H0v1.3L2.3,3.7z"></path><path fill="#ffffff" transform="translate(2 2)" d="M5.6,0.4L5.6,0.4c0-0.2,0-0.2,0.1-0.2c0.5-0.1,2.5-0.6,5,1.3l1-0.2l1,1.4L12,2.8c1,1.5,1,3.4,0.9,4.2L14,8.8
	c0,0,0,0,0,0.1L13.9,9c0,0,0,0-0.1,0l-1.5-0.6L10.8,9c0,0,0,0-0.1,0s-0.1-0.1-0.1-0.1s0,0,0-0.1L11.7,7c0-1.8-2.1-2.7-2.6-2.8
	C8,3.8,5.6,2.2,5,0.9c0,0,0,0,0-0.1s0.1-0.2,0.2-0.2h0.1L6,1.3c0,0,0,0,0.1,0c0,0,0.1,0,0.1-0.1V1.1L5.6,0.4z"></path></svg>