<svg xmlns="http://www.w3.org/2000/svg" viewBox="0 0 18 18" height="18" width="18"><title>fishing-pier-white-14.svg</title><rect fill="none" x="0" y="0" width="18" height="18"></rect><rect x="0" y="0" width="18" height="18" rx="4" ry="4" fill="#231f20"></rect><path fill="#ffffff" transform="translate(2 2)" d="M6.4,0c0.5,0,0.9,0.4,0.9,0.9S6.9,1.8,6.4,1.8S5.5,1.4,5.5,0.9S5.9,0,6.4,0z M13.2,12.6
	c-0.3-0.1-0.5-0.2-0.8-0.2s-0.5,0.1-0.8,0.2c-0.3,0.1-0.5,0.2-0.8,0.2s-0.5-0.1-0.8-0.2c-0.3-0.1-0.5-0.2-0.8-0.2s-0.5,0.1-0.8,0.2
	c-0.3,0.1-0.5,0.2-0.8,0.2s-0.6,0-0.9-0.2c-0.3-0.1-0.5-0.2-0.8-0.2s-0.5,0.1-0.8,0.2c-0.3,0.1-0.5,0.2-0.8,0.2s-0.5-0.1-0.8-0.2
	c-0.3-0.1-0.5-0.2-0.8-0.2s-0.5,0.1-0.8,0.2c-0.3,0.1-0.5,0.2-0.8,0.2V14c0.3,0,0.5-0.1,0.8-0.2c0.3-0.1,0.5-0.2,0.8-0.2
	s0.5,0.1,0.8,0.2C3.7,13.9,4,14,4.2,14s0.5-0.1,0.8-0.2c0.3-0.1,0.5-0.2,0.8-0.2s0.5,0.1,0.8,0.2C7,13.9,7.2,14,7.5,14
	s0.5-0.1,0.8-0.2c0.3-0.1,0.5-0.2,0.8-0.2s0.5,0.1,0.8,0.2c0.3,0.1,0.5,0.2,0.8,0.2s0.5-0.1,0.8-0.2c0.3-0.1,0.5-0.2,0.8-0.2
	s0.5,0.1,0.8,0.2c0.3,0.1,0.5,0.2,0.8,0.2v-1.2C13.7,12.8,13.4,12.7,13.2,12.6z M13,0l-1,0.2L9.2,3.1L9.1,3c0,0-1,0-1.3,0
	C7.6,2.8,6.4,1.6,6.4,1.6C6.3,1.5,6.2,1.5,6.1,1.5c-0.3-0.2-0.7-0.2-0.9,0l-3.1,2C2.1,3.6,2,3.7,2,3.8V6H0v1h2v2.6
	c-0.2,0.4,1.1,0.8,1.5,0.8S4,9.6,4,9.6V7h2v3H0v1h7V7h1V6H4V5.3l2.2-1.7L7,4.3C7.1,4.4,7.4,5,7.4,5h1.2C8.8,5,9,4.8,9,4.6
	c0-0.1,0-0.1,0-0.1c0.8-0.7,2.6-2.3,3-2.6c0,0.7,0,9.1,0,9.1h1V1C13,0.9,13,0,13,0z"></path></svg>