<svg xmlns="http://www.w3.org/2000/svg" viewBox="0 0 27 27" height="27" width="27"><title>fish-cleaning-white-22.svg</title><rect fill="none" x="0" y="0" width="27" height="27"></rect><rect x="0" y="0" width="27" height="27" rx="4" ry="4" fill="#231f20"></rect><path fill="#ffffff" transform="translate(2 2)" d="M19.7,13.5l1.9-2.4V11c0-0.1-0.1-0.2-0.2-0.2h-0.1L18,12.3C6.7,7.2,1,12.5,1,12.5v0.1c0,0,0,0.1,0.1,0.1l3,2
	c0.1,0,0.1,0.1,0.1,0.2c0,0.1-0.1,0.2-0.2,0.2l-3.2-1c0,0-0.1,0-0.1,0.1c0,0,0,0,0,0.1C5.9,20.2,18,14.6,18,14.6l3.2,1.6h0.1
	c0.1,0,0.2-0.1,0.2-0.3v-0.1L19.7,13.5z M4.5,13.5c-0.6,0-1-0.4-1-1s0.4-1,1-1s1,0.4,1,1S5.1,13.5,4.5,13.5z"></path><path fill="#ffffff" transform="translate(2 2)" d="M20.5,5H14v3h6.5C21.3,8,22,7.3,22,6.5S21.3,5,20.5,5z"></path><path fill="#ffffff" transform="translate(2 2)" d="M6,8c2,0,7,0,7,0V5H0C0,5,3,8,6,8z"></path></svg>