<svg xmlns="http://www.w3.org/2000/svg" viewBox="0 0 27 27" height="27" width="27"><title>fishing-pier-white-22.svg</title><rect fill="none" x="0" y="0" width="27" height="27"></rect><rect x="0" y="0" width="27" height="27" rx="4" ry="4" fill="#231f20"></rect><path fill="#ffffff" transform="translate(2 2)" d="M10.6,0.1c0.8,0,1.4,0.6,1.4,1.4s-0.6,1.4-1.4,1.4S9.2,2.3,9.2,1.5S9.8,0.1,10.6,0.1z"></path><path fill="#ffffff" transform="translate(2 2)" d="M20.7,19.8c-0.4-0.2-0.9-0.3-1.3-0.3s-0.9,0.1-1.3,0.3c-0.4,0.2-0.9,0.3-1.3,0.3s-0.9-0.1-1.3-0.3
	c-0.4-0.2-0.9-0.3-1.3-0.3s-0.9,0.1-1.3,0.3c-0.4,0.2-0.9,0.3-1.3,0.3c-0.4,0-0.9-0.1-1.3-0.3c-0.4-0.2-0.9-0.3-1.3-0.3
	c-0.4,0-0.9,0.1-1.3,0.3c-0.4,0.2-0.9,0.3-1.3,0.3S5.5,20,5.1,19.8s-0.9-0.3-1.3-0.3s-0.9,0.1-1.3,0.3S1.4,20.1,1,20.1V22
	c0.4,0,0.9-0.1,1.3-0.3c0.4-0.2,0.9-0.3,1.3-0.3s0.9,0.1,1.3,0.3C5.4,21.9,5.8,22,6.2,22c0.4,0,0.9-0.1,1.3-0.3
	c0.4-0.2,0.9-0.3,1.3-0.3s0.9,0.1,1.3,0.3c0.4,0.2,0.9,0.3,1.3,0.3c0.4,0,0.9-0.1,1.3-0.3c0.4-0.2,0.9-0.3,1.3-0.3s0.9,0.1,1.3,0.3
	c0.4,0.2,0.9,0.3,1.3,0.3s0.9-0.1,1.3-0.3c0.4-0.2,0.9-0.3,1.3-0.3s0.9,0.1,1.3,0.3c0.4,0.2,0.9,0.3,1.3,0.3v-2
	C21.5,20,21,19.9,20.7,19.8z"></path><path fill="#ffffff" transform="translate(2 2)" d="M19.3,0.1l-4.9,5c-0.1,0-0.2-0.1-0.2-0.1s-1.5,0-1.9,0c-0.3-0.3-2.1-2.1-2.1-2.1C9.9,2.8,9.8,2.8,9.7,2.7
	c-0.4-0.3-1.1-0.3-1.4,0l-3.1,3C5.1,5.8,5,6.1,5,6.3V9H1v1h4v5.2c0,0.7,0.5,1.2,1,1.2s1-0.5,1-1.2V10h4v6H1v1h11v-7h1V9H7V8.4
	l3.2-2.7l1.3,1.1C11.6,6.9,11.8,7,12.1,7h1.1C13.7,7,14,6.7,14,6.3c0-0.1,0-0.2,0-0.2c1.2-1.1,4.3-3.8,5-4.4C19,2.8,19,17,19,17h1
	V0.2C20,0.1,19.3,0.1,19.3,0.1z"></path></svg>