<svg xmlns="http://www.w3.org/2000/svg" viewBox="0 0 18 18" height="18" width="18"><title>fish-hatchery-white-14.svg</title><rect fill="none" x="0" y="0" width="18" height="18"></rect><rect x="0" y="0" width="18" height="18" rx="4" ry="4" fill="#231f20"></rect><path fill="#ffffff" transform="translate(2 2)" d="M0.8,8.6L0.8,8.6L0.8,8.6L0.8,8.6h0.6c0,0,0.1,0,0.1-0.1l0,0L0.9,8.2l0,0l0,0l0,0c0,0,1.4-1.3,4.5,0l0.9-0.4
	l0,0c0,0,0.1,0,0.1,0.1l0,0L5.9,8.4L6.4,9l0,0c0,0,0,0.1-0.1,0.1l0,0L5.4,8.7C5.4,8.7,2.4,9.9,0.8,8.6z M1.9,8.5
	c0.1,0,0.3-0.1,0.3-0.3C2.1,8,2,7.9,1.9,7.9C1.7,7.9,1.6,8,1.6,8.2C1.6,8.3,1.7,8.5,1.9,8.5z"></path><path fill="#ffffff" transform="translate(2 2)" d="M7.8,8.6L7.8,8.6L7.8,8.6L7.8,8.6h0.6c0,0,0.1,0,0.1-0.1l0,0L7.9,8.2l0,0l0,0l0,0c0,0,1.4-1.3,4.6,0l0.9-0.4
	l0,0c0,0,0.1,0,0.1,0.1l0,0L13,8.5l0.5,0.6l0,0c0,0,0,0.1-0.1,0.1l0,0l-0.9-0.4C12.5,8.7,9.5,9.9,7.8,8.6z M8.9,8.5
	c0.1,0,0.3-0.1,0.3-0.3S9,7.9,8.9,7.9C8.7,7.9,8.6,8,8.6,8.2C8.6,8.3,8.7,8.5,8.9,8.5z"></path><path fill="#ffffff" transform="translate(2 2)" d="M4.3,11.6L4.3,11.6L4.3,11.6L4.3,11.6h0.6c0,0,0.1,0,0.1-0.1l0,0l-0.5-0.3l0,0l0,0l0,0c0,0,1.4-1.3,4.6,0
	l0.9-0.4l0,0c0,0,0.1,0,0.1,0.1l0,0l-0.5,0.6l0.5,0.6l0,0c0,0,0,0.1-0.1,0.1l0,0l-1-0.5C9,11.7,6,12.9,4.3,11.6z M5.4,11.4
	c0.1,0,0.3-0.1,0.3-0.3c0-0.1-0.1-0.3-0.3-0.3c-0.2,0-0.3,0.1-0.3,0.3C5.1,11.3,5.2,11.4,5.4,11.4z"></path><path fill="#ffffff" transform="translate(2 2)" d="M12.7,4L14,2.5V2.4c0-0.1-0.1-0.2-0.2-0.2c0,0,0,0-0.1,0l-2.2,1.1C3.8,0.2,0.2,3.4,0.2,3.4s0,0,0,0.1v0.1
	l1.4,0.6c0.1,0,0.1,0.1,0.1,0.1c0,0.1-0.1,0.1-0.1,0.1H0.1H0l0,0c4.1,3.3,11.6,0.3,11.6,0.3l2.2,1.1c0,0,0,0,0.1,0s0.2-0.1,0.2-0.2
	V5.5L12.7,4z M3,4H2V3h1V4z"></path></svg>