<svg xmlns="http://www.w3.org/2000/svg" viewBox="0 0 18 18" height="18" width="18"><title>fish-cleaning-white-14.svg</title><rect fill="none" x="0" y="0" width="18" height="18"></rect><rect x="0" y="0" width="18" height="18" rx="4" ry="4" fill="#231f20"></rect><path fill="#ffffff" transform="translate(2 2)" d="M13,3H9v2h4c0.6,0,1-0.4,1-1S13.6,3,13,3z M3,5h5V3H0L3,5z M12.5,9l1.2-1.5c0,0,0,0,0-0.1s-0.1-0.2-0.2-0.2
	c0,0,0,0-0.1,0l-2.1,1C4.1,5.6,0.6,8,0.6,8s0,0,0,0.1v0.1L3,9.4c0.1,0,0.1,0.1,0.1,0.1C3.1,9.6,3,9.6,3,9.6L0.5,9l0,0l0,0
	c3.6,4,11.1,0.6,11.1,0.6l2.1,1c0,0,0,0,0.1,0s0.2-0.1,0.2-0.2v-0.1L12.5,9z M4,9H3V8h1V9z"></path></svg>