<svg xmlns="http://www.w3.org/2000/svg" viewBox="0 0 18 18" height="18" width="18"><title>fishing-license-white-14.svg</title><rect fill="none" x="0" y="0" width="18" height="18"></rect><rect x="0" y="0" width="18" height="18" rx="4" ry="4" fill="#231f20"></rect><path fill="#ffffff" transform="translate(2 2)" d="M3.4,7.7C3.4,7.3,3.1,7,2.6,7C2.2,7,1.9,7.3,1.9,7.7c0,0.3,0.2,0.6,0.4,0.7c0,0.2,0,3.7,0,3.7
	c0,0.2-0.1,0.4-0.3,0.6C1.9,12.8,1.6,13,1.4,13S1,12.8,0.8,12.7c-0.2-0.2-0.3-0.4-0.3-0.6c0,0,0-0.1,0.1-0.3
	c0.1,0.1,0.5,0.4,0.5,0.4L0.9,9.9l-0.7,1.5C0,11.8,0,12,0,12c0,0.8,0.6,1.9,1.4,2c0.8,0,1.5-1.1,1.5-1.9l0,0c0,0,0-3.5,0-3.6
	C3.2,8.3,3.4,8.1,3.4,7.7z M4.9,9.1v0.1c0,0.1,0,0.1,0.1,0.1l2.4,1.1c0.1,0.1,0.1,0.1,0.1,0.2c0,0.1-0.1,0.3-0.2,0.3H4.5
	c0,0-0.1,0-0.1,0.1c0,0,0,0,0,0.1c2.7,2.2,6.2,2.8,9.5,2.7V6.6C7.8,6.6,4.9,9.1,4.9,9.1z M9,10H8V9h1V10z M2,1h10v1H2V1z M2,3h10v1
	H2V3z M2,5h7v1H2V5z"></path></svg>