<svg xmlns="http://www.w3.org/2000/svg" viewBox="0 0 18 18" height="18" width="18"><title>floating-dump-station-white-14.svg</title><rect fill="none" x="0" y="0" width="18" height="18"></rect><rect x="0" y="0" width="18" height="18" rx="4" ry="4" fill="#231f20"></rect><path fill="#ffffff" transform="translate(2 2)" d="M14,13c-0.3,0-0.6-0.4-0.9-0.5c-0.3-0.1-0.6-0.2-0.9-0.2c-0.3,0-0.6,0.1-0.9,0.2C11,12.6,10.7,13,10.4,13
	s-0.6-0.4-0.9-0.5c-0.3-0.1-0.6-0.2-0.9-0.2S8,12.4,7.7,12.5C7.6,12.6,7.3,13,7,13s-0.6-0.4-0.9-0.5s-0.6-0.2-0.9-0.2
	s-0.6,0.1-0.9,0.2C4.1,12.6,3.8,13,3.5,13s-0.6-0.4-0.9-0.5S2,12.3,1.7,12.3s-0.6,0.1-0.9,0.2C0.6,12.6,0.3,13,0,13v-1.3
	c0.3,0,0.6-0.4,0.9-0.5C1.1,11.1,1.4,11,1.7,11s0.6,0.1,0.9,0.2c0.3,0.1,0.6,0.5,0.9,0.5s0.6-0.4,0.9-0.5C4.6,11.1,4.9,11,5.3,11
	c0.3,0,0.6,0.1,0.9,0.2c0.3,0.1,0.6,0.5,0.9,0.5s0.6-0.4,0.9-0.5C8.1,11.1,8.4,11,8.8,11s0.6,0.1,0.9,0.2c0.3,0.1,0.6,0.5,0.9,0.5
	c0.3,0,0.6-0.4,0.9-0.5c0.3-0.1,0.6-0.2,0.9-0.2c0.3,0,0.6,0.1,0.9,0.2c0.3,0.1,0.6,0.5,0.9,0.5V13H14z M8,5V1H6v4H5l2,2l2-2H8z
	 M9,3h3v1H9V3z M2,3h3v1H2V3z M3.5,9.7c0.3,0,0.6-0.4,0.9-0.5C4.6,9.1,4.9,9,5.3,9c0.3,0,0.6,0.1,0.9,0.2C6.4,9.3,6.7,9.7,7,9.7
	s0.6-0.4,0.9-0.5C8.1,9.1,8.4,9,8.8,9s0.6,0.1,0.9,0.2c0.3,0.1,0.6,0.5,0.9,0.5c0.3,0,0.6-0.4,0.9-0.5C11.6,9.1,11.8,9.1,12,9V8V3
	h-1v5H3V3H2v6c0.2,0,0.4,0.1,0.6,0.2C2.9,9.3,3.2,9.7,3.5,9.7z"></path></svg>