<svg xmlns="http://www.w3.org/2000/svg" viewBox="0 0 18 18" height="18" width="18"><title>flower-viewing-white-14.svg</title><rect fill="none" x="0" y="0" width="18" height="18"></rect><rect x="0" y="0" width="18" height="18" rx="4" ry="4" fill="#231f20"></rect><path fill="#ffffff" transform="translate(2 2)" d="M11.5,7.6L11.5,7.6L9.3,7l2.1-0.5h0.1c0,0,2.2-0.5,1.9-2.2c0-0.2-0.1-0.5-0.3-0.8c-1.3-2.4-3.3-0.1-3.3-0.1
	L9.7,3.5L8.2,5l0.7-2.2c0,0,0.9-2.8-1.8-2.8l0,0l0,0C4.3-0.1,5.2,2.8,5.2,2.8L5.8,5L4.3,3.4l0,0c0,0-1.1-1.2-2.2-0.9
	C1.7,2.6,1.3,2.9,1,3.5c-1.4,2.3,1.5,3,1.5,3l0,0L4.7,7L2.6,7.5H2.5c0,0-2.2,0.5-1.9,2.2c0,0.2,0.1,0.5,0.3,0.8
	c1.3,2.4,3.3,0.1,3.3,0.1l0.1-0.1L5.8,9l-0.7,2.2c0,0-0.9,2.8,1.8,2.8l0,0l0,0c2.7,0.1,1.8-2.8,1.8-2.8L8.2,9l1.5,1.6l0,0
	c0,0,0.9,1,2,0.9c0.5,0,1-0.3,1.4-1C14.5,8.2,11.5,7.6,11.5,7.6z M7,8.5C6.2,8.5,5.5,7.8,5.5,7S6.2,5.5,7,5.5S8.5,6.2,8.5,7
	S7.8,8.5,7,8.5z"></path></svg>