<?xml version="1.0" encoding="utf-8"?>
<!-- Generator: Adobe Illustrator 26.3.1, SVG Export Plug-In . SVG Version: 6.00 Build 0)  -->
<svg version="1.1" id="Layer_1" xmlns="http://www.w3.org/2000/svg" xmlns:xlink="http://www.w3.org/1999/xlink" x="0px" y="0px"
	 viewBox="0 0 27 27" style="enable-background:new 0 0 27 27;" xml:space="preserve">
<style type="text/css">
	.st0{fill:none;}
	.st1{fill:#231F20;}
	.st2{fill:#FFFFFF;}
</style>
<rect class="st0" width="27" height="27"/>
<path class="st1" d="M4,0h19c2.2,0,4,1.8,4,4v19c0,2.2-1.8,4-4,4H4c-2.2,0-4-1.8-4-4V4C0,1.8,1.8,0,4,0z"/>
<path class="st2" d="M18.4,20c-0.1-0.3-0.1-0.5-0.1-0.5c2.1-1.2,3.4-3.8,3.4-3.9c0.1-0.3-0.4-0.5-0.8-0.5c-0.3,0-8.3,0-8.3,0V6H6
	v10.7c0,2.2,2.1,3,4,3.8c0.4,0.1,0.7,0.4,0.8,0.7c0.3,0.7-0.1,1.6-0.3,2L9.9,24h10.6l-0.4-0.9C20,23.1,18.6,20.5,18.4,20z"/>
<path class="st2" d="M21.1,7L21.1,7c-0.4-1.9-2.5-4.6-3.1-5c-0.5,0.4-2.2,2.6-2.9,4.5C15,6.6,15,6.7,15,6.8c0,0.1-0.1,0.1-0.1,0.2
	l0,0c-0.1,0.2-0.1,0.5-0.1,0.7c0,1.8,1.4,3.2,3.2,3.2c1.8,0,3.2-1.4,3.2-3.2C21.2,7.5,21.1,7.3,21.1,7z"/>
</svg>
