<?xml version="1.0" encoding="utf-8"?>
<!-- Generator: Adobe Illustrator 26.3.1, SVG Export Plug-In . SVG Version: 6.00 Build 0)  -->
<svg version="1.1" id="Layer_1" xmlns="http://www.w3.org/2000/svg" xmlns:xlink="http://www.w3.org/1999/xlink" x="0px" y="0px"
	 viewBox="0 0 18 18" height="18" width="18" enable-background="new 0 0 18 18" xml:space="preserve">
<path fill="#231F20" d="M4,0h10c2.2,0,4,1.8,4,4v10c0,2.2-1.8,4-4,4H4c-2.2,0-4-1.8-4-4V4C0,1.8,1.8,0,4,0z"/>
<path fill="#FFFFFF" d="M11.9,13.4c-0.1-0.2-0.1-0.3-0.1-0.3c1.3-0.7,2.2-2.4,2.2-2.5c0.1-0.2-0.2-0.4-0.5-0.4c-0.2,0-5.5,0-5.5,0
	V4.4H4v7c0,1.4,1.3,1.9,2.6,2.4c0.2,0,0.4,0.2,0.5,0.4c0.2,0.4-0.1,1-0.2,1.2L6.5,16h6.7L13,15.4C12.9,15.4,12,13.8,11.9,13.4z"/>
<path fill="#FFFFFF" d="M14.1,5.2L14.1,5.2c-0.3-1.2-1.6-3-2-3.2c-0.3,0.2-1.3,1.7-1.8,2.8c0,0.1-0.1,0.2-0.1,0.2v0.1l0,0
	c0,0.1-0.1,0.3-0.1,0.5c0,1.1,0.9,2,2,2s2-0.9,2-2C14.2,5.5,14.2,5.4,14.1,5.2z"/>
</svg>
