<svg xmlns="http://www.w3.org/2000/svg" viewBox="0 0 27 27" height="27" width="27"><title>flush-toilets-white-22.svg</title><rect fill="none" x="0" y="0" width="27" height="27"></rect><rect x="0" y="0" width="27" height="27" rx="4" ry="4" fill="#231f20"></rect><path fill="#ffffff" transform="translate(2 2)" d="M20,11.8c0.1-0.3-0.1-0.8-0.5-0.8C19.1,11,9,11,9,11V0H2v13.3c0,2.7,2.1,3.7,4.5,4.5c0.5,0.2,0.8,0.5,1,0.8
	c0.3,0.8-0.2,2-0.4,2.3l-0.6,1H19l-0.5-1c-0.1-0.1-1.6-3.2-2-3.9c-0.2-0.3-0.2-0.6-0.2-0.6C18.9,15.1,19.9,11.9,20,11.8z M5.5,9.4
	c-1.3,0-1.9-1.1-1.9-2.4c0-0.2,0-0.3,0.1-0.5c0.1-0.2,0.1-0.5,0.3-0.7C4,5.8,4.1,5.7,4.1,5.6C5.3,3.7,5.5,0,5.5,0s0.2,3.7,1.4,5.7
	C7,5.8,7.1,5.9,7.2,6c0.1,0.2,0.2,0.4,0.3,0.7c0,0.2,0.1,0.3,0.1,0.5C7.5,8.4,6.8,9.4,5.5,9.4z"></path></svg>