<svg xmlns="http://www.w3.org/2000/svg" viewBox="0 0 18 18" height="18" width="18"><title>food-cache-white-14.svg</title><rect fill="none" x="0" y="0" width="18" height="18"></rect><rect x="0" y="0" width="18" height="18" rx="4" ry="4" fill="#231f20"></rect><path fill="#ffffff" transform="translate(2 2)" d="M7,7.8c0.3-0.3,0.8-0.5,1.3-0.5c1.1,0,1.9,0.9,1.9,1.9v0.1l0,0c0,0.4-0.2,0.9-0.5,1.6c0,0-0.5,1-1,1.5l0,0
	c-0.2,0.2-0.5,0.3-0.8,0.3c-0.4,0-0.7-0.2-0.9-0.5l0,0c-0.2,0.3-0.6,0.5-0.9,0.5s-0.6-0.1-0.8-0.3l0,0c-0.4-0.5-1-1.5-1-1.5
	C4,10.3,3.9,9.8,3.8,9.3l0,0V9.2c0-1.1,0.9-1.9,1.9-1.9C6.2,7.2,6.7,7.4,7,7.8 M6.2,6.7v-1l1-1l1-1h1v1l-2,2H6.2z M13,4v9H1V4.2
	l0.3-0.1l11.6-2.9l1-0.2l-0.2-1L0.1,3.5L0.2,4H0v10h14V4H13z"></path></svg>