<?xml version="1.0" encoding="utf-8"?>
<!-- Generator: Adobe Illustrator 27.9.1, SVG Export Plug-In . SVG Version: 6.00 Build 0)  -->
<svg version="1.1" id="Layer_1" xmlns="http://www.w3.org/2000/svg" xmlns:xlink="http://www.w3.org/1999/xlink" x="0px" y="0px"
	 viewBox="0 0 18 18" enable-background="new 0 0 18 18" xml:space="preserve">
<path fill="#231F20" d="M4,0h10c2.2,0,4,1.8,4,4v10c0,2.2-1.8,4-4,4H4c-2.2,0-4-1.8-4-4V4C0,1.8,1.8,0,4,0z"/>
<path fill="#FFFFFF" d="M12.6,1.9C12,2.5,11.2,3.3,10,3.8c-2,0.8-3.8,1-3.8,1l0,0L4.1,5.2c-0.3,0-0.5,0.3-0.5,0.7
	c0,0.3,0.3,0.5,0.6,0.5h0.1l2.1-0.3l0,0l0,0l0,0C4.9,6.8,3.7,7.4,3.6,7.4C3.3,7.6,3.2,8,3.4,8.2c0.1,0.2,0.3,0.3,0.5,0.3
	c0.1,0,0.2,0,0.3-0.1c0,0,1.4-0.8,3-1.4l0,0c0,0,0,0,0,0.1l0,0C6.3,7.6,5.3,8.4,4.6,9.6c-0.2,0.2-0.1,0.6,0.2,0.8c0,0,0.2,0,0.3,0
	c0.2,0,0.4-0.1,0.5-0.3c0.4-0.6,1-1.2,1.6-1.6c0,0,1.5-1.3,3.1-1c1.6,0.3,1,1.5,0.9,2.2c-0.2,0.6,0.2,0.9,0.5,1.1c0.1,0,0.1,0,0.2,0
	c0.2,0,0.2-0.1,0.3-0.2v-0.1c0.8-3.1,2-5.3,3.2-6.8L12.6,1.9z"/>
<path fill="#FFFFFF" d="M7.5,13.1c0,0,0.1,1.5-0.3,2.4c0,0,0.4,0.5,0.8,0.5c0.6-0.1,1-0.6,1-0.6c-0.4-0.8-0.3-2.4-0.3-2.4
	s-0.3,0.1-0.6,0.1C7.9,13.2,7.5,13.1,7.5,13.1"/>
<path fill="#FFFFFF" d="M10.8,11.9c-0.7-1.8-2.7-1.7-2.7-1.7s-2-0.1-2.6,1.8c0,0,0.7,0.9,2.6,0.9C9.8,12.8,10.8,11.9,10.8,11.9"/>
<path fill="#FFFFFF" d="M3.6,13.8c0,0,0.1,0.8-0.2,1.2c0,0,0.3,0.2,0.6,0.2c0.4,0,0.6-0.2,0.6-0.2c-0.3-0.4-0.2-1.2-0.2-1.2
	s-0.2,0-0.4,0C3.8,13.8,3.6,13.8,3.6,13.8"/>
<path fill="#FFFFFF" d="M5.4,13.1C5,12.2,4,12.2,4,12.2s-1-0.1-1.4,0.9c0,0,0.3,0.4,1.4,0.4C4.9,13.6,5.4,13.1,5.4,13.1"/>
</svg>
