<?xml version="1.0" encoding="utf-8"?>
<!-- Generator: Adobe Illustrator 27.9.1, SVG Export Plug-In . SVG Version: 6.00 Build 0)  -->
<svg version="1.1" id="Layer_1" xmlns="http://www.w3.org/2000/svg" xmlns:xlink="http://www.w3.org/1999/xlink" x="0px" y="0px"
	 viewBox="0 0 27 27" enable-background="new 0 0 27 27" xml:space="preserve">
<path fill="#231F20" d="M4,0h19c2.2,0,4,1.8,4,4v19c0,2.2-1.8,4-4,4H4c-2.2,0-4-1.8-4-4V4C0,1.8,1.8,0,4,0z"/>
<path fill="#FFFFFF" d="M19.1,2.5c-0.9,1-2.2,2.2-4,2.9c-3.2,1.3-6,1.7-6,1.7l0,0L5.9,7.6c-0.5,0.1-0.8,0.5-0.8,1
	C5.2,9,5.6,9.4,6,9.4h0.1l3.4-0.5c0,0,0,0,0.1,0c0,0,0,0,0,0.1l0,0c-2.4,1-4.4,2.2-4.5,2.2c-0.5,0.3-0.7,0.8-0.4,1.3
	C4.9,12.8,5.2,13,5.5,13c0.2,0,0.3,0,0.5-0.1c0,0,2.1-1.2,4.7-2.3l0,0c0,0,0.1,0.1,0,0.1l0,0c-1.4,0.7-3,2-4.2,3.8
	c-0.3,0.4-0.1,1,0.3,1.3c0.2,0.1,0.3,0.1,0.5,0.1c0.3,0,0.6-0.1,0.8-0.4c0.7-1.1,1.6-2,2.5-2.7c0,0,2.4-2.1,4.8-1.6
	c2.5,0.5,1.5,2.3,1.4,3.4c-0.2,1.1,0.4,1.6,0.9,1.8c0.1,0,0.2,0.1,0.3,0.1c0.3,0,0.4-0.2,0.4-0.3c0-0.1,0-0.1,0.1-0.2
	c1.2-4.8,3.2-8.3,5-10.7L19.1,2.5z"/>
<path fill="#FFFFFF" d="M11.2,20.1c0,0,0.2,2.4-0.4,3.7c0,0,0.6,0.7,1.3,0.7c0.8,0,1.3-0.7,1.3-0.7c-0.6-1.3-0.4-3.7-0.4-3.7
	s-0.5,0.1-0.9,0.1C11.8,20.2,11.2,20.1,11.2,20.1"/>
<path fill="#FFFFFF" d="M16.3,18.3c-1.1-3-4.2-2.8-4.2-2.8S8.9,15.3,8,18.3c0,0,1,1.4,4.1,1.4C14.8,19.6,16.3,18.3,16.3,18.3"/>
<path fill="#FFFFFF" d="M5,21.1c0,0,0.2,1.2-0.3,1.9c0,0,0.4,0.4,1,0.4c0.6,0,1-0.4,1-0.4c-0.5-0.7-0.3-1.9-0.3-1.9S6,21.2,5.7,21.2
	S5,21.1,5,21.1"/>
<path fill="#FFFFFF" d="M7.8,20.2c-0.6-1.5-2.1-1.4-2.1-1.4S4,18.7,3.5,20.2c0,0,0.5,0.7,2.1,0.7C7,20.9,7.8,20.2,7.8,20.2"/>
</svg>
