<?xml version="1.0" encoding="utf-8"?>
<!-- Generator: Adobe Illustrator 25.4.1, SVG Export Plug-In . SVG Version: 6.00 Build 0)  -->
<svg version="1.1" id="Layer_1" xmlns="http://www.w3.org/2000/svg" xmlns:xlink="http://www.w3.org/1999/xlink" x="0px" y="0px"
	 width="18px" height="18px" viewBox="0 0 18 18" enable-background="new 0 0 18 18" xml:space="preserve">
<path fill="#231F20" d="M4,0h10c2.2,0,4,1.8,4,4v10c0,2.2-1.8,4-4,4H4c-2.2,0-4-1.8-4-4V4C0,1.8,1.8,0,4,0z"/>
<path fill="#FFFFFF" d="M13,9.5c0.8,0,1.5,0.7,1.5,1.5s-0.7,1.5-1.5,1.5s-1.5-0.7-1.5-1.5S12.2,9.5,13,9.5z"/>
<path fill="#FFFFFF" d="M5,9.5c0.8,0,1.5,0.7,1.5,1.5S5.8,12.5,5,12.5S3.5,11.8,3.5,11S4.2,9.5,5,9.5z"/>
<path fill="#FFFFFF" d="M15,8V7h-3l-1-2h-1l1,2L9,9H8L6,7H2v2.5v1h0.6c0.2-1.1,1.2-2,2.4-2c1.4,0,2.5,1.1,2.5,2.5h3
	c0-1.4,1.1-2.5,2.5-2.5c1.2,0,2.2,0.9,2.4,2H16v-1V9L15,8z"/>
</svg>
