<svg xmlns="http://www.w3.org/2000/svg" viewBox="0 0 18 18" height="18" width="18"><title>gasoline-diesel-white-14.svg</title><rect fill="none" x="0" y="0" width="18" height="18"></rect><rect x="0" y="0" width="18" height="18" rx="4" ry="4" fill="#231f20"></rect><path fill="#ffffff" transform="translate(2 2)" d="M12.9,8V5.6c0-0.6-0.2-1.1-0.6-1.5L9.7,1.5C9.5,1.5,9,2,9,2c0,0.2,1.3,1.5,1.3,1.5v2.2
	c0,0.7,0.8,1.3,1.6,1.3l0.1,4v1c0,0.7-0.5,1-1,1s-1-0.5-1-1V8c0-0.9-0.8-2-1.7-2H7V1H6v4H2V1H1v13h6V7h1c0.3,0,1,0.7,1,1v4
	c0,1,0.9,2,2,2c1,0,2-0.9,2-2C13,11.7,12.9,8,12.9,8z M6,11l-1,1H3H2V7h1h2l1,1V11z M12,6h-1V5h1V6z M2,0h4l1,1H1L2,0z M3,8h1.6
	L5,8.4v2.2L4.6,11H3V8z"></path></svg>