<?xml version="1.0" encoding="utf-8"?>
<!-- Generator: Adobe Illustrator 25.2.1, SVG Export Plug-In . SVG Version: 6.00 Build 0)  -->
<svg version="1.1" id="Layer_1" xmlns="http://www.w3.org/2000/svg" xmlns:xlink="http://www.w3.org/1999/xlink" x="0px" y="0px"
	 width="18px" height="18px" viewBox="0 0 18 18" enable-background="new 0 0 18 18" xml:space="preserve">
<path fill="#231F20" d="M4,0h10c2.21,0,4,1.79,4,4v10c0,2.21-1.79,4-4,4H4c-2.21,0-4-1.79-4-4V4C0,1.79,1.79,0,4,0z"/>
<path fill="#FFFFFF" d="M10,11.21V6.79c0.88-0.39,1.5-1.26,1.5-2.29C11.5,3.12,10.38,2,9,2S6.5,3.12,6.5,4.5
	c0,1.02,0.62,1.9,1.5,2.29v4.42c-0.88,0.39-1.5,1.26-1.5,2.29C6.5,14.88,7.62,16,9,16s2.5-1.12,2.5-2.5
	C11.5,12.48,10.88,11.6,10,11.21z"/>
</svg>
