<?xml version="1.0" encoding="utf-8"?>
<!-- Generator: Adobe Illustrator 25.2.1, SVG Export Plug-In . SVG Version: 6.00 Build 0)  -->
<svg version="1.1" id="Layer_1" xmlns="http://www.w3.org/2000/svg" xmlns:xlink="http://www.w3.org/1999/xlink" x="0px" y="0px"
	 width="27px" height="27px" viewBox="0 0 27 27" enable-background="new 0 0 27 27" xml:space="preserve">
<path fill="#231F20" d="M4,0h19c2.21,0,4,1.79,4,4v19c0,2.21-1.79,4-4,4H4c-2.21,0-4-1.79-4-4V4C0,1.79,1.79,0,4,0z"/>
<path fill="#FFFFFF" d="M15,18.18V9.82C16.16,9.4,17,8.3,17,7c0-1.66-1.34-3-3-3s-3,1.34-3,3c0,1.3,0.84,2.4,2,2.82v8.37
	c-1.16,0.41-2,1.51-2,2.82c0,1.66,1.34,3,3,3s3-1.34,3-3C17,19.7,16.16,18.6,15,18.18z"/>
</svg>
