<svg xmlns="http://www.w3.org/2000/svg" viewBox="0 0 18 18" height="18" width="18"><title>generators-white-14.svg</title><rect fill="none" x="0" y="0" width="18" height="18"></rect><rect x="0" y="0" width="18" height="18" rx="4" ry="4" fill="#231f20"></rect><path fill="#ffffff" transform="translate(2 2)" d="M2.5,8C1.1,8,0,9.1,0,10.5S1.1,13,2.5,13S5,11.9,5,10.5S3.9,8,2.5,8z M2.5,12C1.7,12,1,11.3,1,10.5
	S1.7,9,2.5,9S4,9.7,4,10.5S3.3,12,2.5,12z"></path><path fill="#ffffff" transform="translate(2 2)" d="M0,2v6.1C0.6,7.4,1.5,7,2.5,7c1.8,0,3.2,1.3,3.4,3H11v3h1v-3h2V2H0z M12,5L8,9l1-3H8l2-3h2l-1,2H12z"></path></svg>