<svg xmlns="http://www.w3.org/2000/svg" viewBox="0 0 26 26" height="26" width="26"><title>geyser-white-14.svg</title><rect fill="none" x="0" y="0" width="26" height="26"></rect><rect x="0" y="0" width="26" height="26" rx="4" ry="4" fill="#231f20"></rect><path fill="#ffffff" transform="translate(2 2)" d="M0,22h22c0,0-1.2-1.8-4.9-2.1s-2.7-1.6-4.8-1.6c-2.1,0-0.8-0.1-3,0c-2.2,0.1-2,1.5-5.2,1.8
	C0.9,20.4,0,22,0,22z"></path><path fill="#ffffff" transform="translate(2 2)" d="M17.2,4.4c0-1.4-0.7-2.8-1.9-3.6C14.5,0.3,13.6,0,12.8,0C11.3,0,10,0.7,9.1,1.9c-0.3,0-0.5-0.1-0.8-0.1
	c0,0,0,0,0,0c0,0,0,0-0.1,0c0,0,0,0-0.1,0c0,0,0,0-0.1,0c0,0,0,0,0,0v0C5.7,2,3.8,3.9,3.9,6.3c0,2.4,2,4.3,4.4,4.3c0,0,0,0,0.1,0
	h0.1L9.8,17h2.3l1.1-5.3c0.3,0.1,0.6,0.1,0.9,0.1c0,0,0,0,0,0c0,0,0,0,0,0c1.6,0,2.8-1.3,2.8-2.8c0-0.7-0.3-1.4-0.7-1.9
	C16.8,6.4,17.2,5.4,17.2,4.4z M15.4,7.9c0.3,0.3,0.5,0.8,0.5,1.2c0,1-0.8,1.8-1.9,1.8c-0.2,0-0.4,0-0.6-0.1l-1.1-0.4l-0.2,1.1
	L11.3,16h-0.7l-1.2-5.6L9.3,9.6H8.4l-0.1,0l-0.1,0c-1.8,0-3.4-1.5-3.4-3.3c0-0.9,0.3-1.8,1-2.4c0.6-0.6,1.4-1,2.3-1
	c1.9,0,3.5,1.6,3.5,3.5h1c0-1.8-1-3.3-2.5-4C10.7,1.5,11.7,1,12.8,1c0.7,0,1.4,0.2,2,0.6c0.9,0.6,1.5,1.7,1.5,2.8
	c0,0.8-0.3,1.5-0.8,2.1l-0.6,0.7L15.4,7.9z"></path></svg>