<svg xmlns="http://www.w3.org/2000/svg" viewBox="0 0 27 27" height="27" width="27"><title>golfing-white-22.svg</title><rect fill="none" x="0" y="0" width="27" height="27"></rect><rect x="0" y="0" width="27" height="27" rx="4" ry="4" fill="#231f20"></rect><path fill="#ffffff" transform="translate(2 2)" d="M17,6.8c-0.1-0.3-0.4-0.5-0.4-0.6L7,0L6.1,1.2C5.9,1.4,6,2.7,6.2,2.9C6.5,3.1,6.8,2,7,1.8L7.5,1l7.8,5.1L8.9,8
		C8.5,8,7.9,7.8,8,8.3l1.6,5.4l-4.5,6.7c-0.3,0.5-0.1,1.3,0.4,1.5c0.5,0.3,1.1-0.1,1.3-0.6l4.7-7.1l0.2,1L11,20.5
		c-0.1,0.5,0.3,1.3,0.9,1.4c0.5,0.1,1-0.6,1.1-1.1l0.7-5.4c0-0.1,0-0.4,0-0.6l-1.6-6.4l4.2-0.7C16.7,7.6,17.1,7.2,17,6.8L17,6.8z"></path><path fill="#ffffff" transform="translate(2 2)" d="M8.8,7H8.2C7.5,7,7,6.5,7,5.8V5.2C7,4.5,7.5,4,8.2,4h0.7C9.5,4,10,4.5,10,5.2v0.7C10,6.5,9.5,7,8.8,7z"></path></svg>