<svg xmlns="http://www.w3.org/2000/svg" viewBox="0 0 18 18" height="18" width="18"><title>grill-white-14.svg</title><rect fill="none" x="0" y="0" width="18" height="18"></rect><rect x="0" y="0" width="18" height="18" rx="4" ry="4" fill="#231f20"></rect><path fill="#ffffff" transform="translate(2 2)" d="M5.1,10.8c0.6,0.2,1.2,0.4,1.9,0.4s1.3-0.1,1.9-0.4L9.7,14h1.7l-1-4.1C11.4,9,12,7.5,12,6H2
	c0,1.5,0.6,3,1.6,3.9l-1,4.1h1.7L5.1,10.8z"></path><path fill="#ffffff" transform="translate(2 2)" d="M3.5,5c0,0-0.4-0.7-0.2-1.3C3.3,3.3,3.4,3.1,3.5,3c0.1-0.2,0.2-0.5,0.2-0.9c0-0.3-0.1-0.6-0.1-0.8
	C3.5,0.9,3.4,0.5,3.4,0H2.7c0,0.6,0.1,1,0.2,1.4C3,1.7,3.1,1.9,3.1,2.1c0,0.2-0.1,0.4-0.2,0.6C2.8,2.9,2.7,3.1,2.6,3.5
	C2.4,4.1,2.6,4.6,2.7,5L3.5,5L3.5,5z"></path><path fill="#ffffff" transform="translate(2 2)" d="M6,5c0,0-0.4-0.7-0.2-1.3C5.9,3.3,6,3.1,6.1,3c0.1-0.2,0.2-0.5,0.2-0.9c0-0.3-0.1-0.6-0.1-0.8
	C6.1,0.9,6,0.5,6,0H5.3c0,0.6,0.1,1,0.2,1.4c0.1,0.3,0.1,0.5,0.1,0.7c0,0.2-0.1,0.4-0.2,0.6C5.4,2.9,5.3,3.1,5.2,3.5
	C5,4.1,5.2,4.6,5.3,5L6,5L6,5z"></path><path fill="#ffffff" transform="translate(2 2)" d="M8.6,5c0,0-0.4-0.7-0.2-1.3C8.5,3.3,8.6,3.1,8.7,3c0.1-0.2,0.2-0.5,0.2-0.9c0-0.3-0.1-0.6-0.1-0.8
	C8.7,0.9,8.6,0.5,8.6,0H7.9c0,0.6,0.1,1,0.2,1.4c0.1,0.3,0.1,0.5,0.1,0.7c0,0.2-0.1,0.4-0.2,0.6C8,2.9,7.8,3.1,7.7,3.5
	C7.6,4.1,7.7,4.6,7.9,5L8.6,5L8.6,5z"></path><path fill="#ffffff" transform="translate(2 2)" d="M11.2,5c0,0-0.4-0.7-0.2-1.3c0.1-0.3,0.2-0.5,0.3-0.7c0.1-0.2,0.2-0.5,0.2-0.9c0-0.3-0.1-0.6-0.1-0.8
	c-0.1-0.3-0.2-0.7-0.2-1.3h-0.7c0,0.6,0.1,1,0.2,1.4c0.1,0.3,0.1,0.5,0.1,0.7c0,0.2-0.1,0.4-0.2,0.6c-0.1,0.2-0.2,0.4-0.3,0.8
	c-0.2,0.6,0,1.2,0.1,1.5L11.2,5L11.2,5z"></path></svg>