<?xml version="1.0" encoding="utf-8"?>
<!-- Generator: Adobe Illustrator 27.9.1, SVG Export Plug-In . SVG Version: 6.00 Build 0)  -->
<svg version="1.1" id="Layer_1" xmlns="http://www.w3.org/2000/svg" xmlns:xlink="http://www.w3.org/1999/xlink" x="0px" y="0px"
	 viewBox="0 0 18 18" enable-background="new 0 0 18 18" xml:space="preserve">
<rect fill="none" width="18" height="18"/>
<path fill="#231F20" d="M4,0h10c2.2,0,4,1.8,4,4v10c0,2.2-1.8,4-4,4H4c-2.2,0-4-1.8-4-4V4C0,1.8,1.8,0,4,0z"/>
<path fill="#FFFFFF" d="M11.9,13.4c-0.7,0-1.3,0.6-1.3,1.3s0.6,1.3,1.3,1.3s1.3-0.6,1.3-1.3S12.6,13.4,11.9,13.4 M11.9,15.2
	c-0.3,0-0.5-0.2-0.5-0.5s0.2-0.5,0.5-0.5s0.5,0.2,0.5,0.5S12.2,15.2,11.9,15.2"/>
<path fill="#FFFFFF" d="M7.7,2c0,0.1,0,0.3-0.1,0.4C7.5,2.5,7.4,2.7,7.4,2.9c0,0.2,0.1,0.4,0.2,0.5c0.1,0.1,0.2,0.3,0.2,0.5
	c0,0.2-0.1,0.3-0.2,0.5C7.5,4.5,7.4,4.7,7.4,4.9c0,0.2,0.1,0.4,0.2,0.5s0.1,0.3,0.1,0.5H7c0-0.2,0-0.3-0.1-0.5
	c0-0.1-0.2-0.3-0.2-0.5c0-0.2,0.1-0.4,0.2-0.5C7,4.2,7.1,4.1,7.1,3.9c0-0.2-0.1-0.3-0.2-0.5c0-0.2-0.2-0.3-0.2-0.5
	c0-0.2,0.1-0.4,0.2-0.5C7,2.3,7,2.1,7,2H7.7z"/>
<path fill="#FFFFFF" d="M9.4,2c0,0.1,0,0.3-0.1,0.4c0,0.1-0.2,0.3-0.2,0.5c0,0.2,0.1,0.4,0.2,0.5c0.1,0.1,0.2,0.3,0.2,0.5
	c0,0.2-0.1,0.3-0.2,0.5c0,0.1-0.2,0.3-0.2,0.5c0,0.2,0.1,0.4,0.2,0.5c0.1,0.1,0.1,0.3,0.1,0.5H8.8c0-0.2,0-0.3-0.1-0.5
	C8.6,5.3,8.5,5.1,8.5,4.9s0.1-0.4,0.2-0.5c0.1-0.2,0.2-0.3,0.2-0.5c0-0.2-0.1-0.3-0.2-0.5S8.5,3.1,8.5,2.9s0.1-0.4,0.2-0.5
	c0-0.1,0.1-0.2,0.1-0.4C8.8,2,9.4,2,9.4,2z"/>
<path fill="#FFFFFF" d="M11.2,2c0,0.1,0,0.3-0.1,0.4c-0.1,0.1-0.2,0.3-0.2,0.5c0,0.2,0.1,0.4,0.2,0.5c0.1,0.1,0.2,0.3,0.2,0.5
	c0,0.2-0.1,0.3-0.2,0.5c-0.1,0.1-0.2,0.3-0.2,0.5c0,0.2,0.1,0.4,0.2,0.5s0.1,0.3,0.1,0.5h-0.7c0-0.2,0-0.3-0.1-0.5
	c-0.1-0.1-0.2-0.3-0.2-0.5s0.1-0.4,0.2-0.5c0.1-0.2,0.2-0.3,0.2-0.5c0-0.2-0.1-0.3-0.2-0.5s-0.2-0.3-0.2-0.5s0.1-0.4,0.2-0.5
	c0-0.1,0.1-0.2,0.1-0.4C10.5,2,11.2,2,11.2,2z"/>
<path fill="#FFFFFF" d="M13.1,6.6H4.8C4.9,7.9,5.5,9,6.5,9.7l-1.1,6.1h0.7l0.6-3.5h4.5c0,0,0.1,0.6,0.1,0.8c0.2,0,0.4-0.1,0.6-0.1
	c0.1,0,0.1,0,0.1,0c0-0.2-0.6-3.3-0.6-3.3C12.4,9,13.1,7.9,13.1,6.6 M7.1,10.1c0.6,0.3,1.2,0.4,1.9,0.4s1.3-0.2,1.8-0.4l0.3,1.8H6.8
	L7.1,10.1z"/>
</svg>
