<svg xmlns="http://www.w3.org/2000/svg" viewBox="0 0 27 27" height="27" width="27"><title>grill-white-22.svg</title><rect fill="none" x="0" y="0" width="27" height="27"></rect><rect x="0" y="0" width="27" height="27" rx="4" ry="4" fill="#231f20"></rect><path fill="#ffffff" transform="translate(2 2)" d="M8.1,17C9,17.4,10,17.6,11,17.6s2-0.2,2.9-0.6l1.3,5h2.7l-1.6-6.4C18,14.1,19,12,19,9.6H3
	c0,2.4,1.1,4.6,2.8,6L4.1,22h2.7L8.1,17z"></path><path fill="#ffffff" transform="translate(2 2)" d="M5.4,7.8c0,0-0.6-1.1-0.3-2.1c0.1-0.5,0.3-0.8,0.4-1.1c0.2-0.4,0.4-0.7,0.4-1.4c0-0.4-0.1-0.9-0.2-1.3
	C5.5,1.4,5.4,0.8,5.4,0H4.3c0,0.9,0.2,1.6,0.3,2.2C4.7,2.6,4.8,3,4.8,3.3c0,0.4-0.1,0.6-0.3,0.9C4.4,4.5,4.2,4.9,4.1,5.5
	c-0.2,0.9,0,1.8,0.2,2.4L5.4,7.8L5.4,7.8z"></path><path fill="#ffffff" transform="translate(2 2)" d="M9.5,7.8c0,0-0.6-1.1-0.3-2.1c0.1-0.5,0.3-0.8,0.4-1.1c0.2-0.4,0.4-0.7,0.4-1.4c0-0.4-0.1-0.9-0.2-1.3
	C9.6,1.4,9.4,0.8,9.4,0H8.4c0,0.9,0.2,1.6,0.3,2.2C8.8,2.6,8.9,3,8.9,3.3c0,0.4-0.1,0.6-0.3,0.9C8.5,4.5,8.3,4.9,8.1,5.4
	c-0.2,0.9,0,1.8,0.2,2.4L9.5,7.8L9.5,7.8z"></path><path fill="#ffffff" transform="translate(2 2)" d="M13.5,7.8c0,0-0.6-1.1-0.3-2.1c0.1-0.5,0.3-0.8,0.4-1.1C13.8,4.3,14,3.9,14,3.3c0-0.4-0.1-0.9-0.2-1.3
	c-0.1-0.5-0.3-1.2-0.3-2h-1.1c0,0.9,0.2,1.6,0.3,2.2c0.1,0.4,0.2,0.8,0.2,1.1c0,0.4-0.1,0.6-0.3,0.9c-0.1,0.3-0.3,0.7-0.5,1.3
	c-0.2,0.9,0,1.8,0.2,2.4L13.5,7.8L13.5,7.8z"></path><path fill="#ffffff" transform="translate(2 2)" d="M17.6,7.8c0,0-0.6-1.1-0.3-2.1c0.1-0.5,0.3-0.8,0.4-1.1C17.8,4.3,18,3.9,18,3.3c0-0.4-0.1-0.9-0.2-1.3
	c-0.1-0.5-0.3-1.2-0.3-2h-1.1c0,0.9,0.2,1.6,0.3,2.2C16.9,2.6,17,3,17,3.3c0,0.4-0.1,0.6-0.3,0.9c-0.1,0.3-0.3,0.7-0.5,1.3
	c-0.2,0.9,0,1.8,0.2,2.4L17.6,7.8L17.6,7.8z"></path></svg>