<?xml version="1.0" encoding="utf-8"?>
<!-- Generator: Adobe Illustrator 27.9.1, SVG Export Plug-In . SVG Version: 6.00 Build 0)  -->
<svg version="1.1" id="Layer_1" xmlns="http://www.w3.org/2000/svg" xmlns:xlink="http://www.w3.org/1999/xlink" x="0px" y="0px"
	 viewBox="0 0 27 27" enable-background="new 0 0 27 27" xml:space="preserve">
<rect fill="none" width="27" height="27"/>
<path fill="#231F20" d="M4,0h19c2.2,0,4,1.8,4,4v19c0,2.2-1.8,4-4,4H4c-2.2,0-4-1.8-4-4V4C0,1.8,1.8,0,4,0z"/>
<path fill="#FFFFFF" d="M18.1,20.5c-1.1,0-2,0.9-2,2s0.9,2,2,2s2-0.9,2-2S19.2,20.5,18.1,20.5 M18.1,23.2c-0.4,0-0.7-0.3-0.7-0.7
	c0-0.4,0.3-0.7,0.7-0.7s0.7,0.3,0.7,0.7C18.8,22.9,18.5,23.2,18.1,23.2"/>
<path fill="#FFFFFF" d="M11.4,2.5c0,0.2-0.1,0.4-0.1,0.6C11.2,3.3,11,3.6,11,3.9c0,0.3,0.2,0.6,0.3,0.8c0.1,0.2,0.3,0.5,0.3,0.8
	S11.4,6,11.3,6.3C11.2,6.5,11,6.8,11,7.1c0,0.3,0.2,0.6,0.3,0.8c0.1,0.2,0.2,0.5,0.2,0.7h-1.1c0-0.3-0.1-0.5-0.2-0.8
	c-0.1-0.2-0.3-0.5-0.3-0.7c0-0.3,0.2-0.6,0.3-0.8c0.1-0.3,0.3-0.6,0.3-0.8c0-0.3-0.2-0.5-0.3-0.8c-0.1-0.2-0.3-0.5-0.3-0.8
	c0-0.3,0.2-0.6,0.3-0.8c0.1-0.2,0.2-0.4,0.2-0.6H11.4z"/>
<path fill="#FFFFFF" d="M14.2,2.5c0,0.2-0.1,0.4-0.1,0.6c-0.1,0.2-0.3,0.5-0.3,0.8s0.2,0.6,0.3,0.8c0.1,0.2,0.3,0.5,0.3,0.8
	S14.2,6,14.1,6.3c-0.1,0.2-0.3,0.5-0.3,0.8c0,0.3,0.2,0.6,0.3,0.8s0.2,0.5,0.2,0.8h-1.1c0-0.3-0.1-0.5-0.2-0.8
	c-0.1-0.2-0.3-0.5-0.3-0.8s0.2-0.6,0.3-0.8c0.1-0.2,0.3-0.5,0.3-0.8S13.1,5,13,4.7c-0.1-0.2-0.3-0.5-0.3-0.8s0.2-0.6,0.3-0.8
	s0.1-0.4,0.1-0.6C13.1,2.5,14.2,2.5,14.2,2.5z"/>
<path fill="#FFFFFF" d="M16.9,2.5c0,0.2-0.1,0.4-0.1,0.6c-0.1,0.2-0.3,0.5-0.3,0.8c0,0.3,0.2,0.6,0.3,0.8c0.1,0.2,0.3,0.5,0.3,0.8
	S16.9,6,16.8,6.3c-0.1,0.2-0.3,0.5-0.3,0.8c0,0.3,0.2,0.6,0.3,0.8S17,8.4,17,8.7h-1.1c0-0.3-0.1-0.5-0.2-0.8
	c-0.1-0.2-0.3-0.5-0.3-0.8s0.2-0.6,0.3-0.8C15.8,6.1,16,5.8,16,5.5S15.8,5,15.7,4.7c-0.1-0.2-0.3-0.5-0.3-0.8s0.2-0.6,0.3-0.8
	s0.1-0.4,0.1-0.6C15.8,2.5,16.9,2.5,16.9,2.5z"/>
<path fill="#FFFFFF" d="M20,9.7H6.9c0.1,2,1.1,3.8,2.6,4.9l-1.7,9.6h1.1l0.9-5.4h7c0,0,0.2,0.9,0.2,1.3c0.2-0.1,0.6-0.2,0.9-0.2
	c0.1,0,0.2,0,0.2,0c-0.1-0.3-0.9-5.2-0.9-5.2C18.9,13.5,19.9,11.7,20,9.7 M10.5,15.2c0.9,0.4,1.9,0.7,2.9,0.7s2-0.3,2.9-0.7l0.5,2.8
	h-6.7L10.5,15.2z"/>
</svg>
