<svg xmlns="http://www.w3.org/2000/svg" viewBox="0 0 27 27" height="27" width="27"><title>guided-tours-white-22.svg</title><rect fill="none" x="0" y="0" width="27" height="27"></rect><rect x="0" y="0" width="27" height="27" rx="4" ry="4" fill="#231f20"></rect><path fill="#ffffff" transform="translate(2 2)" d="M16.5,2C17.3,2,18,2.7,18,3.5S17.3,5,16.5,5C15.7,5,15,4.3,15,3.5S15.7,2,16.5,2z M4,7V6H1v1H0v1v5h1v7h1v-6
	h1v6h1v-7h1V7H4z M2.5,2C3.3,2,4,2.7,4,3.5S3.3,5,2.5,5S1,4.3,1,3.5S1.7,2,2.5,2z M10,7V6H7v1H6v1v5h1v7h1v-6h1v6h1v-7h1V7H10z
	 M8.5,2C9.3,2,10,2.7,10,3.5S9.3,5,8.5,5S7,4.3,7,3.5S7.7,2,8.5,2z M21,4v3h-1h-1V6h-5v1h-1v1v5h1V8h1v12h1v-6h1v6h1V8h1h1h1h1V4H21
	z"></path></svg>
