<svg xmlns="http://www.w3.org/2000/svg" viewBox="0 0 18 18" height="18" width="18"><title>guided-tours-white-14.svg</title><rect fill="none" x="0" y="0" width="18" height="18"></rect><rect x="0" y="0" width="18" height="18" rx="4" ry="4" fill="#231f20"></rect><path fill="#ffffff" transform="translate(2 2)" d="M10,2c0.6,0,1,0.4,1,1s-0.4,1-1,1S9,3.6,9,3S9.4,2,10,2z M5,2c0.6,0,1,0.4,1,1S5.6,4,5,4S4,3.6,4,3
	S4.4,2,5,2z M2,2c0.6,0,1,0.4,1,1S2.6,4,2,4S1,3.6,1,3S1.4,2,2,2z M1,5h2v8H1V5z M4,5h2v8H4V5z M9,5h2v8H9V5z M0,6l1-1h2h1h2l1,1v3
	H0V6z M9,5L8,6v3h1V5z M11,5h1v1h-1V5z M13,4c0-1,1-1,1,0s-1,2-1,2h-1V5C12,5,13,5,13,4"></path></svg>
