<svg xmlns="http://www.w3.org/2000/svg" viewBox="0 0 18 18" height="18" width="18"><title>hand-launch-small-boat-launch-white-14.svg</title><rect fill="none" x="0" y="0" width="18" height="18"></rect><rect x="0" y="0" width="18" height="18" rx="4" ry="4" fill="#231f20"></rect><path fill="#ffffff" transform="translate(2 2)" d="M5.1,1.9c0.5,0,0.8-0.5,0.8-0.9c0-0.5-0.5-0.8-0.9-0.8c-0.5,0-0.8,0.5-0.8,0.9C4.2,1.6,4.6,1.9,5.1,1.9z"></path><path fill="#ffffff" transform="translate(2 2)" d="M7,4.8L4.8,2.4L4.7,2.3C4.4,2,3.9,2,3.6,2.2l-2,1.2C1.3,3.6,1.1,3.9,1.1,4.2c0,0.1,0,0.1,0,0.2l0,0v0.1l0,0
	c0,0.1,0.1,0.1,0.1,0.2l0,0l0.5,1l-1,1.4C0.5,7.3,0.6,7.7,0.8,7.9C1,8,1.4,8,1.6,7.8l1.3-1.6c0,0,0,0,0-0.1c0,0,0-0.1,0.1-0.1V5.9
	V5.8V5.7l0,0c0.3,0.2,0.8,0.6,1,0.7c0,0.4,0,2,0,2c0,0.3,0.2,0.5,0.5,0.5S5,8.7,5,8.4V6.1c0-0.2-0.1-0.3-0.2-0.4L3.2,4.6l1.6-1
	l1.6,1.8c0.2,0.2,0.4,0.2,0.6,0C7.1,5.3,7.1,5,7,4.8z"></path><path fill="#ffffff" transform="translate(2 2)" d="M0.1,13.5c0.3,0,0.6-0.1,0.8-0.2c0.3-0.1,0.6-0.2,0.9-0.2s0.6,0.1,0.9,0.2c0.3,0.1,0.5,0.2,0.8,0.2
	s0.6-0.1,0.8-0.2c0.3-0.1,0.6-0.2,0.9-0.2s0.6,0.1,0.9,0.2c0.3,0.1,0.5,0.2,0.8,0.2s0.6-0.1,0.8-0.2c0.3-0.1,0.6-0.2,0.9-0.2
	s0.6,0.1,0.9,0.2c0.3,0.1,0.5,0.2,0.8,0.2s0.6-0.1,0.8-0.2c0.3-0.1,0.6-0.2,0.9-0.2c0.3,0,0.6,0.1,0.9,0.2c0.3,0.1,0.5,0.2,0.8,0.2
	v-1.3c-0.3,0-0.6-0.1-0.8-0.2c-0.3-0.1-0.6-0.2-0.9-0.2c-0.3,0-0.6,0.1-0.9,0.2c-0.3,0.1-0.5,0.2-0.8,0.2S9.7,12.1,9.5,12
	c-0.3-0.1-0.6-0.2-0.9-0.2c-0.3,0-0.6,0.1-0.9,0.2c-0.3,0.1-0.5,0.2-0.8,0.2S6.3,12.1,6.1,12c-0.3-0.1-0.6-0.2-0.9-0.2
	S4.6,11.9,4.3,12c-0.3,0.1-0.5,0.2-0.8,0.2S2.9,12.1,2.7,12c-0.3-0.1-0.6-0.2-0.9-0.2S1.2,11.9,0.9,12c-0.3,0.1-0.5,0.2-0.8,0.2
	C0.1,12.2,0.1,13.5,0.1,13.5z"></path><path fill="#ffffff" transform="translate(2 2)" d="M0.1,11.2c0.2,0,0.4-0.1,0.7-0.1c0.3-0.2,0.7-0.2,1.1-0.2s0.7,0.1,1,0.2c0.2,0.1,0.4,0.1,0.7,0.1
	c0.2,0,0.4-0.1,0.7-0.1c0.3-0.2,0.7-0.2,1.1-0.2s0.7,0.1,1,0.2c0.2,0.1,0.4,0.1,0.7,0.1c0.2,0,0.4-0.1,0.7-0.1
	C7.7,11,8,10.9,8.2,10.9L7.1,10H5.4L4.2,9.2L2,8.3L0,8.1L0.1,11.2L0.1,11.2z"></path><path fill="#ffffff" transform="translate(2 2)" d="M13.4,9.1l-3-1.4c0.2,0,0.3-0.2,0.3-0.4c0-0.2-0.2-0.4-0.4-0.4S9.9,7.1,9.9,7.3c0,0.1,0,0.1,0,0.2L6.9,6
	C6.4,5.8,5.8,6,5.6,6.5l8.3,4C14.1,9.9,13.9,9.4,13.4,9.1z M10.1,7.3c0-0.1,0.1-0.2,0.2-0.2c0.1,0,0.2,0.1,0.2,0.2s-0.1,0.2-0.2,0.2
	C10.2,7.5,10.1,7.4,10.1,7.3z"></path><path fill="#ffffff" transform="translate(2 2)" d="M5.5,6.8C5.4,7.2,5.6,7.7,6.1,7.9l6.5,3.1c0.4,0.2,0.9,0.1,1.2-0.2L5.5,6.8z"></path></svg>