<svg xmlns="http://www.w3.org/2000/svg" viewBox="0 0 27 27" height="27" width="27"><title>hang-gliding-white-22.svg</title><rect fill="none" x="0" y="0" width="27" height="27"></rect><rect x="0" y="0" width="27" height="27" rx="4" ry="4" fill="#231f20"></rect><path fill="#ffffff" transform="translate(2 2)" d="M12.7,11.3c0.6,0.2,1.2-0.1,1.4-0.7c0.2-0.6-0.1-1.2-0.7-1.4C12.8,9,12.2,9.3,12,9.9S12.1,11.1,12.7,11.3z"></path><path fill="#ffffff" transform="translate(2 2)" d="M21.6,4.2c0,0-3.7-0.4-11.4-0.4C4.6,3.8,0,4.2,0,4.2S1.9,5,1.6,7.7c0,0,2.8-0.3,3.9,2l5.2-1.6l-0.3,3.4
	L8.2,12c-0.2,0-0.4,0.1-0.5,0.3L2.8,17c-0.3,0.3-0.3,0.7,0,1s0.7,0.3,1,0l3.6-3.5l4.4-1.1l0,0l0.7-0.2l0.7,0.8
	c0.1,0.1,0.3,0.2,0.4,0.2H16c0.3,0,0.5-0.2,0.5-0.5l0,0c0-0.3-0.2-0.5-0.4-0.5L14.4,7l7.4-2.2C22.1,4.6,22.1,4.3,21.6,4.2z
	 M15.6,13.2c-0.5,0-1.4,0-1.7,0c-0.3-0.3-1.3-1.5-1.3-1.5s0,0-0.1,0c-0.3-0.3-0.7-0.5-1.1-0.4l-0.6,0.2L11.2,8l2.7-0.8L15.6,13.2z"></path></svg>