<svg xmlns="http://www.w3.org/2000/svg" viewBox="0 0 18 18" height="18" width="18"><title>hang-gliding-white-14.svg</title><rect fill="none" x="0" y="0" width="18" height="18"></rect><rect x="0" y="0" width="18" height="18" rx="4" ry="4" fill="#231f20"></rect><path fill="#ffffff" transform="translate(2 2)" d="M8.1,7.2C8.4,7.3,8.8,7.1,9,6.8C9.1,6.4,8.9,6,8.5,5.9C8.2,5.8,7.8,6,7.6,6.3C7.5,6.7,7.7,7.1,8.1,7.2z"></path><path fill="#ffffff" transform="translate(2 2)" d="M13.8,2.7c0,0-2.4-0.3-7.2-0.3C2.9,2.4,0,2.7,0,2.7s1.2,0.5,1,2.2c0,0,1.8-0.2,2.5,1.3l3.1-0.9v2.1L5.2,7.7
	C5.1,7.7,5,7.8,4.9,7.9l-3.1,2.9c-0.2,0.2-0.2,0.5,0,0.6c0.2,0.2,0.5,0.2,0.6,0l2.3-2.2l2.8-0.7l0,0H8L8.4,9c0.1,0,0.2,0.1,0.3,0.1
	h1.5c0.2,0,0.3-0.2,0.3-0.3l0,0c0-0.2-0.1-0.3-0.3-0.3l0.1-4.3L13.8,3C14.1,2.9,14.1,2.7,13.8,2.7z M9.9,8.4c-0.3,0-0.9,0-1.1,0
	C8.7,8.2,8,7.4,8,7.4l0,0C7.8,7.2,7.6,7.1,7.3,7.2L6.9,7.3V5.1L10,4.2L9.9,8.4z"></path></svg>