<?xml version="1.0" encoding="utf-8"?>
<!-- Generator: Adobe Illustrator 24.3.0, SVG Export Plug-In . SVG Version: 6.00 Build 0)  -->
<svg version="1.1" id="Layer_1" xmlns="http://www.w3.org/2000/svg" xmlns:xlink="http://www.w3.org/1999/xlink" x="0px" y="0px"
	 width="18px" height="18px" viewBox="0 0 18 18" enable-background="new 0 0 18 18" xml:space="preserve">
<path fill="#231F20" d="M4,0h10c2.2,0,4,1.8,4,4v10c0,2.2-1.8,4-4,4H4c-2.2,0-4-1.8-4-4V4C0,1.8,1.8,0,4,0z"/>
<path fill="#FFFFFF" d="M10.5,15.1c-0.5,0-1-0.4-1-0.9c0-0.2,0.1-0.5,0.2-0.8l1.2-3.7C11,9.4,11.1,9,11.1,8.8c0-0.3-0.1-0.5-0.4-0.5
	c-0.6,0-1.5,1-2.2,2c-0.8,1.2-1.5,2.5-2,3.9L6.2,15c-0.2,0-0.5,0.1-0.8,0.1c-0.3,0-0.7,0-0.8-0.1l2.7-9.9c0-0.1,0.1-0.3,0.1-0.5
	c0-0.4-0.5-0.5-1.1-0.5l0.2-0.6c0.8,0,2.2-0.3,2.9-0.5l0.3,0.2l-2.3,7.8l0.1,0c1.1-2.1,3-4,4.5-4c0.7,0,1.1,0.4,1.1,1.1
	c0,0.4-0.1,0.9-0.3,1.4l-1.2,3.3c-0.1,0.2-0.2,0.5-0.2,0.6c0,0.2,0.1,0.3,0.3,0.3c0.3,0,1.1-0.7,1.4-1.2l0.4,0.4
	C12.7,14.2,11.5,15.1,10.5,15.1z"/>
</svg>
