<svg xmlns="http://www.w3.org/2000/svg" viewBox="0 0 27 27" height="27" width="27"><title>hold-hand-rail-white-22.svg</title><rect fill="none" x="0" y="0" width="27" height="27"></rect><rect x="0" y="0" width="27" height="27" rx="4" ry="4" fill="#231f20"></rect><path fill="#ffffff" transform="translate(2 2)" d="M5.8,4.2C6.6,4,7,3.1,6.7,2.3s-1.2-1.2-2-0.9S3.5,2.6,3.8,3.3C4.1,4.1,5,4.5,5.8,4.2z"></path><path fill="#ffffff" transform="translate(2 2)" d="M17,13v3h-3v3H9v1h6v-3h3v-3h4v-1H17z"></path><path fill="#ffffff" transform="translate(2 2)" d="M11.2,12.8c0,0-0.1-0.4-0.6-0.9l-1.2-0.6l12.6-5l-0.3-0.7L8.4,10.9
	L7,10.2V7.5l1.1,1.4c0.2,0.2,0.4,0.4,0.7,0.4h2.8c0,0,0.7,0,0.7-0.7s-0.7-0.7-0.7-0.7H9.2L7.1,5.1c0,0-0.2-0.4-1.1-0.4H4.2
	c0,0-0.8-0.1-1.3,0.6L0.6,7.7c0,0-0.2,0.2-0.3,0.9L0,11.5c0,0,0,0.6,0.7,0.8c0,0,0.8,0.1,0.9-0.7l0.3-2.7L3.4,7v4.2l0.3,1.6
	l-3.4,1.4l0.3,0.7l3.3-1.3l0.6,2.8l-1,2.5c0,0-0.6,1.2,0.3,1.5c0.6,0.2,1.2-0.2,1.5-1.1l1.1-2.9c0.1-0.2,0.2-0.7,0.2-1L6,12.7
	l0.3-0.1l3.3,1.5l1.2,3.3c0.3,0.8,0.8,0.8,1.3,0.6c0.5-0.2,0.7-0.7,0.4-1.3L11.2,12.8z"></path></svg>