<svg xmlns="http://www.w3.org/2000/svg" viewBox="0 0 18 18" height="18" width="18"><title>hold-hand-rail-white-14.svg</title><rect fill="none" x="0" y="0" width="18" height="18"></rect><rect x="0" y="0" width="18" height="18" rx="4" ry="4" fill="#231f20"></rect><path fill="#ffffff" transform="translate(2 2)" d="M3.7,2.7C4.2,2.5,4.4,2,4.2,1.5C4.1,1,3.5,0.7,3,0.9S2.3,1.6,2.4,2.1C2.6,2.6,3.2,2.9,3.7,2.7z"></path><path fill="#ffffff" transform="translate(2 2)" d="M7.1,8.2c0,0-0.1-0.3-0.4-0.6L6,7.2L14,4l-0.2-0.5L5.3,7L4.4,6.5
	V4.8l0.7,0.9c0.1,0.1,0.3,0.2,0.4,0.2h1.8c0,0,0.4,0,0.4-0.5C7.8,5,7.4,5,7.4,5H5.9L4.5,3.2c0,0-0.1-0.3-0.7-0.3H2.6
	c0,0-0.5,0-0.8,0.4L0.4,4.9c0,0-0.1,0.1-0.2,0.6L0,7.3c0,0,0,0.4,0.4,0.5c0,0,0.5,0.1,0.5-0.4l0.2-1.7l1-1.2v2.7l0.2,1L0.2,9
	l0.2,0.5l2.1-0.8l0.4,1.8L2.2,12c0,0-0.4,0.8,0.2,1c0.4,0.1,0.7-0.2,1-0.7l0.7-1.8c0.1-0.1,0.1-0.4,0.1-0.7L3.8,8.1L4,8l2.1,1
	l0.8,2.1c0.2,0.5,0.5,0.5,0.8,0.4C8,11.4,8.1,11,8,10.7L7.1,8.2z"></path><path fill="#ffffff" transform="translate(2 2)" d="M11,8v2H9v2H6v1h4c0,0,0-1.8,0-2c0.2,0,2,0,2,0s0-1.8,0-2
		c0.2,0,2,0,2,0V8H11z"></path></svg>