<svg xmlns="http://www.w3.org/2000/svg" viewBox="0 0 27 27" height="27" width="27"><title>horseback-riding-white-22.svg</title><rect fill="none" x="0" y="0" width="27" height="27"></rect><rect x="0" y="0" width="27" height="27" rx="4" ry="4" fill="#231f20"></rect><path fill="#ffffff" transform="translate(2 2)" d="M22,7l-4-3V2l-2,2l-3,3.8V7l-3-1V5L9,4H8L7,5v4H1l-1,1v5h1v-4l1-1h1l-1,2v1v8l1,1l1-1v-6l3,6l1,1l1-1l-3-7h7
	v7l1,1l1-1v-8l1-2h2l2-2V7.7L21,8L22,7z M12,9h-2V7l2.8,0.9L12,9z M19,9l-1,1h-1.5L18,7l1,0.3V9z"></path><path fill="#ffffff" transform="translate(2 2)" d="M8.5,0C9.3,0,10,0.7,10,1.5S9.3,3,8.5,3S7,2.3,7,1.5S7.7,0,8.5,0z"></path></svg>