<?xml version="1.0" encoding="utf-8"?>
<!-- Generator: Adobe Illustrator 25.4.1, SVG Export Plug-In . SVG Version: 6.00 Build 0)  -->
<svg version="1.1" id="Layer_1" xmlns="http://www.w3.org/2000/svg" xmlns:xlink="http://www.w3.org/1999/xlink" x="0px" y="0px"
	 width="18px" height="18px" viewBox="0 0 18 18" enable-background="new 0 0 18 18" xml:space="preserve">
<path fill="#231F20" d="M4,0h10c2.2,0,4,1.8,4,4v10c0,2.2-1.8,4-4,4H4c-2.2,0-4-1.8-4-4V4C0,1.8,1.8,0,4,0z"/>
<path fill="#FFFFFF" d="M6,2c0.6,0,1,0.4,1,1S6.6,4,6,4S5,3.6,5,3S5.4,2,6,2z"/>
<path fill="#FFFFFF" d="M14,6V4l-4,4H7V6l2,1h1L7,5H5v3H2v4h1v4h1v-3h1l0.9,3h1L6,13v-1h4v4h1v-3l0.9,3h1L12,13v-2h3V8h1V7.1L14,6z
	 M3,10V9h1L3,10z M14,10h-2l1-2h1V10z"/>
</svg>
