<svg xmlns="http://www.w3.org/2000/svg" viewBox="0 0 18 18" height="18" width="18"><title>hunting-white-14.svg</title><rect fill="none" x="0" y="0" width="18" height="18"></rect><rect x="0" y="0" width="18" height="18" rx="4" ry="4" fill="#231f20"></rect><path fill="#ffffff" transform="translate(2 2)" d="M5.7,4h3.6v0.6H5.7V4z"></path><path fill="#ffffff" transform="translate(2 2)" d="M4.9,6.1L3.5,6C3,6,3.1,5.6,3.1,5.6H0V4.8h0.3c0,0,0,0,0.1,0L0.5,5h9.1c0.1,0,0.2,0,0.3,0.1L10.4,6H13
	c1.1,0,1,1,1,1v5h-4V8.5L8.6,9C8,9.3,7.7,9,7.7,9L5,6.8C4.6,6.5,4.9,6.1,4.9,6.1L4.9,6.1z M6.5,6.2L8,7.4l1.3-0.6
	C8.8,6.7,8.8,6.2,8.8,6.2H6.5z"></path><path fill="#ffffff" transform="translate(2 2)" d="M11.5,2C12.3,2,13,2.7,13,3.5S12.3,5,11.5,5S10,4.3,10,3.5S10.7,2,11.5,2z"></path></svg>