<svg xmlns="http://www.w3.org/2000/svg" viewBox="0 0 27 27" height="27" width="27"><title>ice-cream-white-22.svg</title><rect fill="none" x="0" y="0" width="27" height="27"></rect><rect x="0" y="0" width="27" height="27" rx="4" ry="4" fill="#231f20"></rect><path fill="#ffffff" transform="translate(2 2)" d="M7.9,5C7.3,5,6.8,5,6.3,5.3C5.4,5.8,4.7,6.8,4.7,8h2.8H11C11,6.3,9.6,5,7.9,5z M15.7,5.1c0-0.1,0-0.3,0-0.4
	C15.7,2.1,13.6,0,11,0C8.9,0,7.1,1.4,6.5,3.4c0.4-0.1,0.9-0.2,1.4-0.2c2.6,0,4.7,2.3,4.7,4.9h1.9h2.8C17.3,6.8,16.6,5.7,15.7,5.1z
	 M6.3,9h9.4L11,22L6.3,9z"></path></svg>