<?xml version="1.0" encoding="utf-8"?>
<!-- Generator: Adobe Illustrator 25.4.1, SVG Export Plug-In . SVG Version: 6.00 Build 0)  -->
<svg version="1.1" id="Layer_1" xmlns="http://www.w3.org/2000/svg" xmlns:xlink="http://www.w3.org/1999/xlink" x="0px" y="0px"
	 width="18px" height="18px" viewBox="0 0 18 18" enable-background="new 0 0 18 18" xml:space="preserve">
<path fill="#231F20" d="M4,0h10c2.2,0,4,1.8,4,4v10c0,2.2-1.8,4-4,4H4c-2.2,0-4-1.8-4-4V4C0,1.8,1.8,0,4,0z"/>
<path fill="#FFFFFF" d="M13.8,5.9l-2.6,2.5V9l1.8,1.8V14l-1,1l-0.8-0.9v-3.2L8.6,8.4V7.7l2.5-2.5L10.9,5H6L5.4,4.5L6,4h6.6l1.2,1.2
	C13.8,5.2,13.8,5.9,13.8,5.9z M14.3,2C13.6,2,13,2.6,13,3.3s0.6,1.3,1.3,1.3C15,4.5,15.6,4,15.6,3.3S15,2,14.3,2z M10.5,15.4V16h4.4
	v-1.3h-0.6v0.6L10.5,15.4L10.5,15.4z M6,16v-0.6H4.8l-2.5-2.5v1.3L4.2,16H6z M4.2,14.1l0.6,0.6l4.5-4.5L8.6,9.6H7.3l-3.2,3.2
	C4.2,12.8,4.2,14.1,4.2,14.1z"/>
</svg>
