<svg xmlns="http://www.w3.org/2000/svg" viewBox="0 0 18 18" height="18" width="18"><title>ice-skating-white-14.svg</title><rect fill="none" x="0" y="0" width="18" height="18"></rect><rect x="0" y="0" width="18" height="18" rx="4" ry="4" fill="#231f20"></rect><path fill="#ffffff" transform="translate(2 2)" d="M2,11H1H0v1h1v0.5h1v1h1V14h1h1v-1H4H3v-1H2V11z M11,6V5h1V3h-1V2h-1H9H4v1.5h5V4H8v1H7v2h1v1h1v1h1v1v3H9v1h5
	v-1h-2V9V8h-1V7h-1V6H11z M7,7H6v1H5v1H4v1H3v1v1h0.9h0.2H5v-1h1v-1h1V9h1V8H7V7z M12,3h1V2h1V1h-1V0h-1v1h-1v1h1V3z"></path></svg>