<svg xmlns="http://www.w3.org/2000/svg" viewBox="0 0 18 18" height="18" width="18"><title>ice-fishing-white-14.svg</title><rect fill="none" x="0" y="0" width="18" height="18"></rect><rect x="0" y="0" width="18" height="18" rx="4" ry="4" fill="#231f20"></rect><path fill="#ffffff" transform="translate(2 2)" d="M0,0h2v2H0V0z M5,0h9v2H5V0z M3.3,3.1C3.1,3.2,2.9,3.4,2.9,3.6s0.2,0.5,0.4,0.5v3.4C3.3,8,3,8.4,2.5,8.4
	C2.1,8.4,1.7,8,1.7,7.6c0-0.1,0-0.2,0.1-0.3l0,0l0.3,0.3L1.9,6L1.5,7.1C1.3,7.4,1.3,7.6,1.3,7.6c0,0.6,0.5,1.2,1.2,1.2
	c0.6,0,1.2-0.5,1.2-1.2V4.1C3.9,4.1,4,3.8,4,3.6S3.8,3.1,3.6,3.1V0H3.3V3.1z M4.8,9.1v0.1c0,0.1,0,0.1,0.1,0.1l2.4,1.1
	c0.1,0.1,0.1,0.1,0.1,0.2c0,0.1-0.1,0.2-0.2,0.2H4.6c-0.1,0-0.1,0-0.1,0.1c0,0,0,0,0,0.1c2.7,2.1,6.3,3,9.6,3V6.6
	C7.8,6.5,4.8,9.1,4.8,9.1z M8.5,10.5c-0.6,0-1-0.4-1-1s0.4-1,1-1s1,0.4,1,1S9.1,10.5,8.5,10.5z"></path></svg>