<svg xmlns="http://www.w3.org/2000/svg" viewBox="0 0 18 18" height="18" width="18"><title>ice-cream-white-14.svg</title><rect fill="none" x="0" y="0" width="18" height="18"></rect><rect x="0" y="0" width="18" height="18" rx="4" ry="4" fill="#231f20"></rect><path fill="#ffffff" transform="translate(2 2)" d="M5,3C4.6,3,4.3,3.1,4,3.3C3.4,3.6,3,4.3,3,5h1.8H7C7,3.9,6.1,3,5,3z M10,3.3c0-0.1,0-0.2,0-0.3
	c0-1.7-1.3-3-3-3C5.6,0,4.5,0.9,4.1,2.1C4.4,2.1,4.7,2,5,2c1.7,0,3,1.3,3,3h1.2H11C11,4.3,10.6,3.6,10,3.3z M4,6h6l-3,8L4,6z"></path></svg>