<svg xmlns="http://www.w3.org/2000/svg" viewBox="0 0 18 18" height="18" width="18"><title>in-line-skating-white-14.svg</title><rect fill="none" x="0" y="0" width="18" height="18"></rect><rect x="0" y="0" width="18" height="18" rx="4" ry="4" fill="#231f20"></rect><path fill="#ffffff" transform="translate(2 2)" d="M13,5h-1.1l-1-1.8V3.1l0,0l0,0l0,0c-0.2-0.4-0.6-0.7-1-0.7c-0.1,0-0.2,0-0.2,0L4.3,3.6C4,3.7,3.8,4,3.9,4.3
	C4,4.6,4.3,4.8,4.6,4.8L8.1,4L5.5,8.3h-2l0,0H2.6l0.6,2.5c0,0.1,0,0.1,0,0.1C3.3,11,3.5,11.1,3.6,11c0.1,0,0.1-0.1,0.1-0.2l0.4-1.2
	l0,0h1.8c0.4,0,0.7-0.1,0.8-0.4l0.8-1.4l1.8,1.8l-0.8,3h2.7c0.2,0,0.3-0.1,0.3-0.3c0-0.1-0.1-0.2-0.2-0.3l-1.1-0.6l0.6-2.2
	c0,0,0.1-0.5-0.3-0.9L9.1,7c0,0,0.8-1.3,1.3-2.1L11,5.6c0,0.1,0.1,0.2,0.2,0.3l0,0l0,0c0.1,0,0.2,0.1,0.3,0.1H13
	c0.3,0,0.6-0.2,0.6-0.5S13.4,5,13,5z M7.5,13C7.8,13,8,13.2,8,13.5S7.8,14,7.5,14S7,13.8,7,13.5S7.2,13,7.5,13z M9.5,13
	c0.3,0,0.5,0.2,0.5,0.5S9.8,14,9.5,14S9,13.8,9,13.5S9.2,13,9.5,13z M11.5,13c0.3,0,0.5,0.2,0.5,0.5S11.8,14,11.5,14
	S11,13.8,11,13.5S11.2,13,11.5,13z M1.7,8.2c0.3,0,0.5,0.2,0.5,0.5S2,9.2,1.7,9.2S1.2,9,1.2,8.7S1.4,8.2,1.7,8.2z M2.5,10
	C2.8,10,3,10.2,3,10.5S2.8,11,2.5,11S2,10.8,2,10.5S2.2,10,2.5,10z M3.3,11.8c0.3,0,0.5,0.2,0.5,0.5s-0.2,0.5-0.5,0.5
	s-0.5-0.2-0.5-0.5S3,11.8,3.3,11.8z M11.2,0c0.7,0,1.2,0.5,1.2,1.2s-0.5,1.2-1.2,1.2S10,1.9,10,1.2S10.5,0,11.2,0z"></path></svg>