<svg xmlns="http://www.w3.org/2000/svg" viewBox="0 0 27 27" height="27" width="27"><title>in-line-skating-white-22.svg</title><rect fill="none" x="0" y="0" width="27" height="27"></rect><rect x="0" y="0" width="27" height="27" rx="4" ry="4" fill="#231f20"></rect><path fill="#ffffff" transform="translate(2 2)" d="M15.9,0c-1,0-1.9,0.9-1.9,1.9s0.8,1.9,1.9,1.9c1,0,1.9-0.8,1.9-1.9C17.8,0.9,17,0,15.9,0z M20.5,8.4h-3.3
	L15.6,5c0-0.1-0.1-0.1-0.1-0.2l0,0V4.7l0,0c-0.3-0.6-0.9-1-1.6-1.1c-0.1,0-0.3,0-0.4,0l-8.3,2C4.7,5.8,4.4,6.3,4.6,6.8
	c0.1,0.5,0.6,0.8,1.1,0.7l5.6-1.3l-4.2,7H3.9l0,0H2.5l1,3.9c0,0.1,0,0.1,0.1,0.2c0.1,0.2,0.4,0.3,0.7,0.2c0.1-0.1,0.2-0.2,0.2-0.3
	L5,15.3v-0.1h2.8c0.6,0,1-0.2,1.3-0.6l1.3-2.1l2.9,2.8L12.1,20h4.2c0.3,0,0.5-0.2,0.5-0.4c0-0.2-0.1-0.4-0.3-0.4l-1.8-1l0.9-3.4
	c0,0,0.2-0.7-0.5-1.4L12.7,11c0,0,1.2-2,2-3.4l0.9,2.1c0.1,0.2,0.2,0.3,0.3,0.4l0,0l0,0c0.1,0.1,0.3,0.2,0.5,0.2h3.9
	c0.5,0,0.9-0.4,0.9-0.9C21.4,8.8,21,8.4,20.5,8.4z M16.5,20c0.3,0,0.5,0.2,0.5,0.5S16.8,21,16.5,21S16,20.8,16,20.5S16.2,20,16.5,20
	z M14.5,20c0.3,0,0.5,0.2,0.5,0.5S14.8,21,14.5,21S14,20.8,14,20.5S14.2,20,14.5,20z M12.5,20c0.3,0,0.5,0.2,0.5,0.5
	S12.8,21,12.5,21S12,20.8,12,20.5S12.2,20,12.5,20z M10.5,20c0.3,0,0.5,0.2,0.5,0.5S10.8,21,10.5,21S10,20.8,10,20.5
	S10.2,20,10.5,20z M3.6,17.8c0.3,0,0.5,0.2,0.5,0.5s-0.2,0.5-0.5,0.5s-0.5-0.2-0.5-0.5S3.3,17.8,3.6,17.8z M2.9,15.9
	c0.3,0,0.5,0.2,0.5,0.5s-0.2,0.5-0.5,0.5s-0.5-0.2-0.5-0.5S2.6,15.9,2.9,15.9z M2.1,14.1c0.3,0,0.5,0.2,0.5,0.5s-0.2,0.5-0.5,0.5
	s-0.5-0.2-0.5-0.5S1.8,14.1,2.1,14.1z M1.4,12.2c0.3,0,0.5,0.2,0.5,0.5s-0.2,0.5-0.5,0.5S0.9,13,0.9,12.7S1.1,12.2,1.4,12.2z"></path></svg>