<svg xmlns="http://www.w3.org/2000/svg" viewBox="0 0 27 27" height="27" width="27"><title>junior-ranger-program-white-22.svg</title><rect fill="none" x="0" y="0" width="27" height="27"></rect><rect x="0" y="0" width="27" height="27" rx="4" ry="4" fill="#231f20"></rect><path fill="#ffffff" transform="translate(2 2)" d="M20,3.1l-1.9-2.2c0,0-1.2,0.2-2.2,0S14.1,0,14.1,0H11H7.9C7.9,0,7,0.8,6,0.9s-2.2,0-2.2,0L2,3.1
	c0,0,0.5,0.5,0.8,0.9C3,4.3,3,4.6,3,5h16c0-0.4,0-0.7,0.2-1C19.5,3.6,20,3.1,20,3.1z M3,8c0,2.3,0,5.7,0,7.2c0,2,0.9,2.9,1.8,3.7
	s4.6,2.3,4.6,2.3L11,22l1.5-0.8c0,0,3.7-1.5,4.6-2.3s1.8-1.7,1.8-3.7c0-1.4,0-4.9,0-7.2C18.9,8,3,8,3,8z M11,19c-2.8,0-5-2.2-5-5
	s2.2-5,5-5s5,2.2,5,5S13.8,19,11,19z M11,10c2.2,0,4,1.8,4,4s-1.8,4-4,4s-4-1.8-4-4S8.8,10,11,10z M3,6h16v1H3V6z"></path></svg>