<svg xmlns="http://www.w3.org/2000/svg" viewBox="0 0 18 18" height="18" width="18"><title>junior-ranger-program-white-14.svg</title><rect fill="none" x="0" y="0" width="18" height="18"></rect><rect x="0" y="0" width="18" height="18" rx="4" ry="4" fill="#231f20"></rect><path fill="#ffffff" transform="translate(2 2)" d="M12.7,2l-1.2-1.4c0,0-0.8,0.1-1.4,0C9.6,0.5,9,0,9,0H7H5c0,0-0.6,0.5-1.2,0.6s-1.4,0-1.4,0L1.3,2
	c0,0,0.3,0.3,0.5,0.6C1.9,2.7,2,3,2,3h10c0-0.2,0.1-0.3,0.2-0.4C12.4,2.3,12.7,2,12.7,2z M7,7c1.1,0,2,0.9,2,2s-0.9,2-2,2
	s-2-0.9-2-2S5.9,7,7,7z M2,4v1h0.1c0,1.4,0,3.7,0,4.7c0,1.3,0.4,1.9,1,2.4c0.6,0.5,3,1.5,3,1.5L7,14l1-0.5c0,0,2.4-1,3-1.5
	s1-1.1,1-2.4c0-0.9,0-3.2,0-4.7l0,0V4H2z M7,12c-1.7,0-3-1.3-3-3s1.3-3,3-3s3,1.3,3,3S8.7,12,7,12z"></path></svg>