<svg xmlns="http://www.w3.org/2000/svg" viewBox="0 0 18 18" height="18" width="18"><title>kennel-white-14.svg</title><rect fill="none" x="0" y="0" width="18" height="18"></rect><rect x="0" y="0" width="18" height="18" rx="4" ry="4" fill="#231f20"></rect><path fill="#ffffff" transform="translate(2 2)" d="M1.4,14H14v-1H3V6.6l11-5V0.3L0,6.6V8l1.4-0.7V14z M7.9,9.3h2V11c0,0.3,0.2,0.5,0.5,0.5l0,0
	c0.3,0,0.5-0.2,0.5-0.5V9.3c0.2,0,0.2-0.1,0.2-0.2V7.7L9.4,6.9H5.9L5.4,6.7C5.3,6.6,5.1,6.6,5,6.8l0,0C4.9,6.9,5,7.1,5.1,7.2
	l0.7,0.4V11c0,0.3,0.2,0.5,0.5,0.5l0,0c0.3,0,0.5-0.2,0.5-0.5V9.7l0.9,1.6c0.2,0.2,0.5,0.3,0.7,0.2l0,0c0.2-0.2,0.3-0.5,0.2-0.7
	L7.9,9.3z M9.6,6.5l1.5,0.8V7h1.2l0.4-1L9.6,4.5V6.5z"></path></svg>