<svg xmlns="http://www.w3.org/2000/svg" viewBox="0 0 18 18" height="18" width="18"><title>large-print-white-14.svg</title><rect fill="none" x="0" y="0" width="18" height="18"></rect><rect x="0" y="0" width="18" height="18" rx="4" ry="4" fill="#231f20"></rect><path fill="#ffffff" transform="translate(2 2)" d="M0,2.2h0.8v3h1.8v0.7H0V2.2z"></path><path fill="#ffffff" transform="translate(2 2)" d="M3,4.1c0-0.7,0.7-0.9,1.3-0.9c0.5,0,1.2,0.1,1.2,0.8v1.4c0,0.2,0,0.5,0.1,0.6H4.8c0-0.1,0-0.2-0.1-0.3
		C4.5,5.9,4.2,6,3.9,6C3.4,6,3,5.7,3,5.2c0-0.6,0.5-0.8,0.9-0.8C4.3,4.3,4.7,4.3,4.7,4S4.5,3.6,4.2,3.6C4,3.7,3.8,3.8,3.8,4.1H3z
		 M4.7,4.6C4.6,4.7,4.4,4.7,4.1,4.8c-0.2,0-0.4,0.1-0.4,0.4s0.2,0.3,0.5,0.3c0.6,0,0.6-0.5,0.6-0.6L4.7,4.6L4.7,4.6z"></path><path fill="#ffffff" transform="translate(2 2)" d="M6.1,3.2h0.7v0.5l0,0C7,3.4,7.3,3.2,7.7,3.2c0.1,0,0.1,0,0.2,0v0.7c-0.1,0-0.2,0-0.3,0
		C7,3.8,6.9,4.2,6.9,4.7v1.2H6.1V3.2z"></path><path fill="#ffffff" transform="translate(2 2)" d="M10.8,5.8c0,0.4-0.2,1.2-1.4,1.2C8.9,7,8.2,6.8,8.2,6.1h0.7C9,6.4,9.2,6.5,9.5,6.5c0.4,0,0.6-0.3,0.6-0.7
		V5.4l0,0C9.9,5.7,9.6,5.8,9.3,5.8c-0.8,0-1.2-0.6-1.2-1.4c0-0.7,0.4-1.3,1.2-1.3c0.4,0,0.6,0.1,0.8,0.4l0,0V3.2h0.7V5.8z M10.1,4.5
		c0-0.4-0.1-0.8-0.6-0.8S8.9,4.1,8.9,4.5S9,5.3,9.5,5.3C9.9,5.3,10.1,4.9,10.1,4.5z"></path><path fill="#ffffff" transform="translate(2 2)" d="M12.1,4.8c0,0.5,0.2,0.7,0.7,0.7c0.3,0,0.5-0.2,0.6-0.3H14C13.7,5.7,13.3,6,12.7,6c-0.9,0-1.4-0.6-1.4-1.4
		s0.6-1.4,1.4-1.4c0.9,0,1.4,0.8,1.3,1.6C14,4.8,12.1,4.8,12.1,4.8z M13.3,4.3c-0.1-0.4-0.2-0.6-0.6-0.6c-0.5,0-0.6,0.4-0.6,0.6
		H13.3z"></path><path fill="#ffffff" transform="translate(2 2)" d="M1.3,8H3c0.9,0,1.3,0.6,1.3,1.2c0,0.6-0.4,1.2-1.3,1.2H2.1v1.3H1.3V8z M2.1,9.8h0.6c0.4,0,0.7-0.1,0.7-0.6
		S3.1,8.6,2.7,8.6H2.1V9.8z"></path><path fill="#ffffff" transform="translate(2 2)" d="M4.7,9.1h0.7v0.5l0,0C5.6,9.2,5.9,9,6.3,9c0.1,0,0.1,0,0.2,0v0.7c-0.1,0-0.2,0-0.3,0
		c-0.5,0-0.7,0.4-0.7,0.9v1.2H4.7V9.1z"></path><path fill="#ffffff" transform="translate(2 2)" d="M7.6,8.7H6.8V8h0.7L7.6,8.7L7.6,8.7z M6.8,9.1h0.7v2.7H6.8V9.1z"></path><path fill="#ffffff" transform="translate(2 2)" d="M8.2,9.1h0.7v0.4l0,0C9.1,9.1,9.4,9,9.7,9c0.8,0,1,0.4,1,1.1v1.7H10v-1.5c0-0.4-0.1-0.7-0.5-0.7
		s-0.6,0.2-0.6,0.8v1.4H8.2V9.1z"></path><path fill="#ffffff" transform="translate(2 2)" d="M12.3,9.1h0.5v0.5h-0.5v1.3c0,0.2,0.1,0.3,0.3,0.3c0.1,0,0.2,0,0.2,0v0.6c-0.1,0-0.3,0-0.4,0
		c-0.5,0-0.9-0.1-0.9-0.6V9.6H11V9.1h0.5V8.3h0.7L12.3,9.1L12.3,9.1z"></path></svg>