<svg xmlns="http://www.w3.org/2000/svg" viewBox="0 0 18 18" height="18" width="18"><title>laundry-white-14.svg</title><rect fill="none" x="0" y="0" width="18" height="18"></rect><rect x="0" y="0" width="18" height="18" rx="4" ry="4" fill="#231f20"></rect><path fill="#ffffff" transform="translate(2 2)" d="M2,0v3h10V0H2z M4,2H3V1h1V2z M6,2H5V1h1V2z"></path><path fill="#ffffff" transform="translate(2 2)" d="M2,4v10h10V4H2z M7,12c-1.7,0-3-1.3-3-3s1.3-3,3-3s3,1.3,3,3S8.7,12,7,12z"></path><path fill="#ffffff" transform="translate(2 2)" d="M8,7.3c-0.7,0-0.7,0.5-1.1,0.9C6.3,8.6,5.7,8.5,5.3,8C5.1,8.3,5,8.6,5,9c0,1.1,0.9,2,2,2s2-0.9,2-2C9,7.8,8,7.3,8,7.3z"></path></svg>