<svg xmlns="http://www.w3.org/2000/svg" viewBox="0 0 27 27" height="27" width="27"><title>library-white-22.svg</title><rect fill="none" x="0" y="0" width="27" height="27"></rect><rect x="0" y="0" width="27" height="27" rx="4" ry="4" fill="#231f20"></rect><path fill="#ffffff" transform="translate(2 2)" d="M11.3,0c1.9,0,3.5,1.6,3.5,3.5S13.2,7,11.3,7S7.8,5.4,7.8,3.5S9.4,0,11.3,0z"></path><path fill="#ffffff" transform="translate(2 2)" d="M14.4,7.9C16,8,16.6,9.2,16.6,9.2l5,6.9c0.2,0.3,0.3,0.7,0.3,1.1c0,1.1-0.9,2-2,2c-0.3,0-0.5-0.1-0.7-0.1
	L16,18v3H6v-3l-3.3,1c-0.2,0.1-0.5,0.1-0.7,0.1c-1.1,0-1.9-0.9-1.9-2c0-0.4,0.1-0.8,0.3-1.1l5-6.9c0,0,0.7-1.3,2.2-1.3
	C7.6,7.9,14.4,7.9,14.4,7.9z M11,19L11,19l3.9-1.3h-0.1c-2.7-0.8-1.7-4.4,1.1-3.6L16,14v-4l-5,1.9L6,10v4l0.1,0.1
	c2.7-0.8,3.8,2.8,1.1,3.6H7.1L11,19L11,19z"></path></svg>