<svg xmlns="http://www.w3.org/2000/svg" viewBox="0 0 18 18" height="18" width="18"><title>library-white-14.svg</title><rect fill="none" x="0" y="0" width="18" height="18"></rect><rect x="0" y="0" width="18" height="18" rx="4" ry="4" fill="#231f20"></rect><path fill="#ffffff" transform="translate(2 2)" d="M9.2,5c1,0,1.4,0.8,1.4,0.8l3.2,4.4c0.1,0.2,0.2,0.4,0.2,0.7c0,0.7-0.6,1.2-1.2,1.2c-0.2,0-0.3,0-0.5-0.1H10
	v2H4v-2l-2.3,0.1c-0.1,0.1-0.3,0.1-0.5,0.1C0.5,12.2,0,11.6,0,11c0-0.3,0.1-0.5,0.2-0.7l3.2-4.4c0,0,0.4-0.8,1.4-0.8
	C4.8,5,9.2,5,9.2,5z M7,12l2.5-0.7H9.4c-1.7-0.5-1-2.8,0.7-2.3L10,8l0.1-1L7,8L4,7v1L3.9,9c1.7-0.5,2.4,1.8,0.7,2.3H4.5L7,12z M7,0
	c1.1,0,2,0.9,2,2S8.1,4,7,4S5,3.1,5,2S5.9,0,7,0z"></path></svg>