<svg xmlns="http://www.w3.org/2000/svg" viewBox="0 0 18 18" height="18" width="18"><title>lifeguard-white-14.svg</title><rect fill="none" x="0" y="0" width="18" height="18"></rect><rect x="0" y="0" width="18" height="18" rx="4" ry="4" fill="#231f20"></rect><path fill="#ffffff" transform="translate(2 2)" d="M13.6,14c-0.3,0-0.6-0.1-0.8-0.2c-0.3-0.1-0.5-0.6-0.8-0.6s-0.6,0.5-0.8,0.6S10.7,14,10.4,14
	s-0.6-0.1-0.8-0.2c-0.3-0.1-0.5-0.6-0.8-0.6S8.2,13.7,8,13.8C7.6,13.9,7.3,14,7,14s-0.6-0.1-0.8-0.2c-0.3-0.1-0.5-0.6-0.8-0.6
	s-0.6,0.5-0.8,0.6C4.2,13.9,4,14,3.7,14s-0.6-0.1-0.8-0.2c-0.3-0.1-0.5-0.6-0.8-0.6s-0.6,0.5-0.8,0.6C0.9,13.9,0.6,14,0.4,14v-1.2
	c0.3,0,0.6-0.1,0.8-0.2C1.4,12.5,1.7,12,2,12s0.6,0.5,0.8,0.6s0.5,0.2,0.8,0.2s0.6-0.1,0.8-0.2C4.8,12.5,5,12,5.3,12
	s0.6,0.5,0.8,0.6c0.3,0.1,0.5,0.2,0.8,0.2s0.6-0.1,0.8-0.2c0.4-0.1,0.7-0.6,1-0.6s0.6,0.5,0.8,0.6s0.5,0.2,0.8,0.2s0.6-0.1,0.8-0.2
	c0.3-0.1,0.5-0.6,0.8-0.6s0.6,0.5,0.8,0.6s0.5,0.2,0.8,0.2L13.6,14L13.6,14z M7,0c0.6,0,1,0.4,1,1S7.6,2,7,2S6,1.6,6,1S6.4,0,7,0z
	 M9.7,4.4C9.7,4.1,9.4,4,9.2,4C9.1,4,9,4,9,4H8V3c0-0.6-0.4-1-1-1S6,2.4,6,3v1v1H5.3L4.8,1.9c0-0.3-0.3-0.5-0.6-0.4
	C4,1.6,3.8,1.8,3.8,2.1L4.5,6l-1,6h1l0.3-2h3.3l0.3,2h1l-1-6H9l0.3,1.8c0,0.2,0.3,0.4,0.5,0.4h0.1c0.3,0,0.5-0.3,0.4-0.6L9.7,4.4z
	 M5,9l0.2-1h2.7L8,9H5z M7.7,7H5.3l0.2-1h2L7.7,7z"></path></svg>