<svg xmlns="http://www.w3.org/2000/svg" viewBox="0 0 27 27" height="27" width="27"><title>life-jackets-white-22.svg</title><rect fill="none" x="0" y="0" width="27" height="27"></rect><rect x="0" y="0" width="27" height="27" rx="4" ry="4" fill="#231f20"></rect><path fill="#ffffff" transform="translate(2 2)" d="M10.2,15v5.6c0,0,0.2,1.4-1.5,1.4H1.9c-1.7,0-1.5-1.4-1.5-1.4V15H10.2z"></path><path fill="#ffffff" transform="translate(2 2)" d="M7.1,0.6C6.8,0.3,6.4,0,5.9,0H3.7C3,0,2.4,0.6,2.4,1.4c0,0.3,0.1,0.5,0.2,0.7l0,0c0.6,0.9,1,2,1,3.2
	c0,2-1.1,3.8-2.7,4.8l0,0c-0.3,0.2-0.5,0.5-0.5,0.9v2h9.9V6.7c0,0,0-0.6-0.4-1.3L7.1,0.6z"></path><path fill="#ffffff" transform="translate(2 2)" d="M14.9,0.6C15.2,0.3,15.6,0,16.1,0h2.2c0.8,0,1.4,0.6,1.4,1.4c0,0.3-0.1,0.5-0.2,0.7l0,0c-0.6,0.9-1,2-1,3.2
	c0,2,1.1,3.8,2.7,4.8l0,0c0.3,0.2,0.5,0.5,0.5,0.9v2h-9.9V6.7c0,0,0-0.6,0.4-1.3L14.9,0.6z"></path><path fill="#ffffff" transform="translate(2 2)" d="M21.7,15v5.6c0,0,0.2,1.4-1.5,1.4h-6.8c-1.7,0-1.5-1.4-1.5-1.4V15H21.7z"></path><path fill="#ffffff" transform="translate(2 2)" d="M11.8,14.6c0.3,0,0.5-0.2,0.5-0.5s-0.2-0.5-0.5-0.5h-1.6c-0.3,0-0.5,0.2-0.5,0.5s0.2,0.5,0.5,0.5H11.8z"></path></svg>