<?xml version="1.0" encoding="utf-8"?>
<!-- Generator: Adobe Illustrator 27.9.1, SVG Export Plug-In . SVG Version: 6.00 Build 0)  -->
<svg version="1.1" id="Layer_1" xmlns="http://www.w3.org/2000/svg" xmlns:xlink="http://www.w3.org/1999/xlink" x="0px" y="0px"
	 viewBox="0 0 27 27" enable-background="new 0 0 27 27" xml:space="preserve">
<rect fill="none" width="27" height="27"/>
<path fill="#231F20" d="M4,0h19c2.2,0,4,1.8,4,4v19c0,2.2-1.8,4-4,4H4c-2.2,0-4-1.8-4-4V4C0,1.8,1.8,0,4,0z"/>
<path fill="#FFFFFF" d="M23.9,24.5c-0.5,0-0.9-0.1-1.3-0.3c-0.4-0.2-0.9-0.3-1.3-0.3c-0.5,0-0.9,0.1-1.3,0.3
	c-0.4,0.2-0.8,0.3-1.3,0.3s-0.9-0.1-1.3-0.3c-0.4-0.2-0.9-0.3-1.3-0.3c-0.5,0-0.9,0.1-1.3,0.3c-0.4,0.2-0.8,0.3-1.3,0.3
	s-0.9-0.1-1.3-0.3c-0.4-0.2-0.8-0.3-1.3-0.3S10,24,9.6,24.2c-0.4,0.2-0.8,0.3-1.3,0.3S7.4,24.4,7,24.2c-0.4-0.2-0.8-0.3-1.3-0.3
	S4.8,24,4.4,24.2s-0.9,0.3-1.3,0.3v-1.9c0.5,0,0.9-0.1,1.3-0.3C4.8,22.1,5.2,22,5.7,22s0.9,0.1,1.3,0.3c0.4,0.2,0.8,0.3,1.3,0.3
	s0.9-0.1,1.3-0.3c0.4-0.2,0.8-0.3,1.3-0.3s0.9,0.1,1.3,0.3c0.4,0.2,0.8,0.3,1.3,0.3c0.4,0,0.9-0.1,1.3-0.3c0.4-0.2,0.8-0.3,1.3-0.3
	c0.5,0,0.9,0.1,1.3,0.3c0.4,0.2,0.8,0.3,1.3,0.3c0.5,0,0.9-0.1,1.3-0.3c0.4-0.2,0.9-0.3,1.3-0.3c0.5,0,0.9,0.1,1.3,0.3
	c0.4,0.2,0.8,0.3,1.3,0.3C23.9,22.6,23.9,24.5,23.9,24.5z"/>
<path fill="#FFFFFF" d="M12.5,5.1c0.7,0,1.3-0.6,1.3-1.3s-0.6-1.3-1.3-1.3s-1.3,0.6-1.3,1.3S11.8,5.1,12.5,5.1"/>
<path fill="#FFFFFF" d="M10.3,13.8h0.2l-1.9,7.5c0.2,0,0.3-0.1,0.5-0.1c0.3-0.1,0.6-0.2,0.9-0.3l0.3-1.4h6.5l0.3,1.4
	c0.3,0.1,0.6,0.2,0.9,0.3c0.2,0.1,0.3,0.1,0.5,0.1l-2.2-8.7h-5.5L9.8,7c0-0.3-0.3-0.5-0.7-0.4c-0.3,0-0.5,0.3-0.4,0.7l1.1,6.1
	C9.8,13.6,10,13.8,10.3,13.8 M11.7,13.8h1.8h1.8l0.4,1.6h-4.4L11.7,13.8z M11,16.7h5l0.4,1.6h-5.8L11,16.7z"/>
<path fill="#FFFFFF" d="M18.3,10.5c-0.1-0.6-0.5-0.8-1.1-0.8H14v-1l-0.1-1.2l-0.1-1c0-0.7-0.6-1.2-1.3-1.2s-1.2,0.6-1.2,1.3l0.3,3.9
	c0.1,0.7,0.6,1.2,1.3,1.2h4.2l0.8,3.3c0.3,1,1.8,0.6,1.5-0.4L18.3,10.5z"/>
</svg>
