<svg xmlns="http://www.w3.org/2000/svg" viewBox="0 0 18 18" height="18" width="18"><title>life-jackets-white-14.svg</title><rect fill="none" x="0" y="0" width="18" height="18"></rect><rect x="0" y="0" width="18" height="18" rx="4" ry="4" fill="#231f20"></rect><path fill="#ffffff" transform="translate(2 2)" d="M6.2,10v3.1c0,0,0.1,0.9-1,0.9h-4c-1.1,0-1-0.9-1-0.9V10H6.2z"></path><path fill="#ffffff" transform="translate(2 2)" d="M4.5,0.4C4.3,0.2,4.1,0,3.8,0H2.4C1.9,0,1.5,0.4,1.5,0.9c0,0.2,0.1,0.3,0.1,0.5l0,0c0.5,0.6,0.7,1.3,0.7,2
	c0,1.3-0.7,2.4-1.7,3.1l0,0C0.4,6.6,0.2,6.8,0.2,7.1V8h5.9V4.3c0,0,0-0.4-0.2-0.8L4.5,0.4z"></path><path fill="#ffffff" transform="translate(2 2)" d="M9.5,0.4C9.7,0.2,9.9,0,10.2,0h1.4c0.5,0,0.9,0.4,0.9,0.9c0,0.2,0,0.3-0.1,0.5l0,0c-0.4,0.6-0.7,1.3-0.7,2
	c0,1.3,0.7,2.4,1.7,3.1l0,0c0.2,0.1,0.3,0.3,0.3,0.6V8h-6V4.3c0,0,0-0.4,0.2-0.8L9.5,0.4z"></path><path fill="#ffffff" transform="translate(2 2)" d="M13.8,10v3.1c0,0,0.1,0.9-1,0.9h-4c-1.1,0-1-0.9-1-0.9V10H13.8z"></path><path fill="#ffffff" transform="translate(2 2)" d="M7.5,9.5c0.2,0,0.3-0.3,0.3-0.5S7.7,8.5,7.5,8.5h-1C6.4,8.5,6.2,8.8,6.2,9s0.1,0.5,0.3,0.5H7.5z"></path></svg>