<?xml version="1.0" encoding="utf-8"?>
<!-- Generator: Adobe Illustrator 25.4.1, SVG Export Plug-In . SVG Version: 6.00 Build 0)  -->
<svg version="1.1" id="Layer_1" xmlns="http://www.w3.org/2000/svg" xmlns:xlink="http://www.w3.org/1999/xlink" x="0px" y="0px"
	 width="18px" height="18px" viewBox="0 0 18 18" enable-background="new 0 0 18 18" xml:space="preserve">
<path fill="#231F20" d="M4,0h10c2.2,0,4,1.8,4,4v10c0,2.2-1.8,4-4,4H4c-2.2,0-4-1.8-4-4V4C0,1.8,1.8,0,4,0z"/>
<path fill="#FFFFFF" d="M9,2c0.6,0,1,0.4,1,1S9.6,4,9,4S8,3.6,8,3S8.4,2,9,2z"/>
<path fill="#FFFFFF" d="M11.7,6.4c0-0.3-0.3-0.4-0.5-0.4C11.1,6,11,6,11,6h-1V5c0-0.6-0.4-1-1-1C8.4,4,8,4.4,8,5v1v1H7.3L6.8,3.9
	c0-0.3-0.3-0.5-0.6-0.4C6,3.6,5.8,3.8,5.8,4.1L6.5,8l-1,6h1l0.3-2h3.3l0.3,2h1l-1-6H11l0.3,1.8c0,0.2,0.3,0.4,0.5,0.4h0.1
	c0.3,0,0.5-0.3,0.4-0.6L11.7,6.4z M7,11l0.2-1h2.7l0.1,1H7z M9.7,9H7.3l0.2-1h2L9.7,9z"/>
<path fill="#FFFFFF" d="M15.8,16c-0.3,0-0.6-0.1-0.8-0.2c-0.3-0.1-0.6-0.5-0.9-0.5c-0.3,0-0.6,0.4-0.9,0.5C13,15.9,12.7,16,12.4,16
	s-0.6-0.1-0.8-0.2c-0.3-0.1-0.6-0.5-0.9-0.5c-0.3,0-0.6,0.4-0.9,0.5C9.6,15.9,9.3,16,9,16s-0.6-0.1-0.8-0.2
	c-0.3-0.1-0.6-0.5-0.9-0.5s-0.6,0.4-0.9,0.5C6.2,15.9,5.9,16,5.6,16S5,15.9,4.8,15.8c-0.3-0.1-0.6-0.5-0.9-0.5S3.3,15.7,3,15.8
	C2.8,15.9,2.5,16,2.2,16v-1.2c0.3,0,0.6-0.1,0.8-0.2c0.3-0.1,0.6-0.5,0.9-0.5s0.6,0.4,0.9,0.5c0.3,0.1,0.5,0.2,0.8,0.2
	c0.3,0,0.6-0.1,0.8-0.2c0.3-0.1,0.6-0.5,0.9-0.5s0.6,0.4,0.9,0.5c0.3,0.1,0.5,0.2,0.8,0.2s0.6-0.1,0.8-0.2c0.3-0.1,0.6-0.5,0.9-0.5
	s0.6,0.4,0.9,0.5c0.3,0.1,0.5,0.2,0.8,0.2s0.6-0.1,0.8-0.2c0.3-0.1,0.6-0.5,0.9-0.5c0.3,0,0.6,0.4,0.9,0.5c0.3,0.1,0.5,0.2,0.8,0.2
	V16z"/>
</svg>
