<svg xmlns="http://www.w3.org/2000/svg" viewBox="0 0 18 18" height="18" width="18"><title>litter-receptacle-white-14.svg</title><rect fill="none" x="0" y="0" width="18" height="18"></rect><rect x="0" y="0" width="18" height="18" rx="4" ry="4" fill="#231f20"></rect><path fill="#ffffff" transform="translate(2 2)" d="M1,8h1l1,5h3l1-5h1l-1,6H2L1,8z M3,6h1v1H3V6z M4,8h1v1H4V8z M4,10h1v1H4V10z M9,5v9h1V8h1v6h1V4h1v4h1V4
	l-1-1h-2v1h-1V3H9L8,4L7,5H5v1h3L9,5z M10.5,0C11.3,0,12,0.7,12,1.5S11.3,3,10.5,3S9,2.3,9,1.5S9.7,0,10.5,0z"></path></svg>