<?xml version="1.0" encoding="utf-8"?>
<!-- Generator: Adobe Illustrator 25.4.1, SVG Export Plug-In . SVG Version: 6.00 Build 0)  -->
<svg version="1.1" id="Layer_1" xmlns="http://www.w3.org/2000/svg" xmlns:xlink="http://www.w3.org/1999/xlink" x="0px" y="0px"
	 width="18px" height="18px" viewBox="0 0 18 18" enable-background="new 0 0 18 18" xml:space="preserve">
<rect fill="none" width="18" height="18"/>
<path fill="#231F20" d="M4,0h10c2.2,0,4,1.8,4,4v10c0,2.2-1.8,4-4,4H4c-2.2,0-4-1.8-4-4V4C0,1.8,1.8,0,4,0z"/>
<path fill="#FFFFFF" d="M3,10h1l1,5h3l1-5h1l-1,6H4L3,10z M12.5,2C13.3,2,14,2.7,14,3.5S13.3,5,12.5,5S11,4.3,11,3.5S11.7,2,12.5,2z
	 M15,5h-2h-1h-1l-1,1L9,7H8H7.5C7.2,7,7,7.2,7,7.5S7.2,8,7.5,8H8h1.7H10l1-1v5.3V14v1.5c0,0.3,0.2,0.5,0.5,0.5s0.5-0.2,0.5-0.5V14
	v-1.7V10h1v2.3V14v1.5c0,0.3,0.2,0.5,0.5,0.5s0.5-0.2,0.5-0.5V14v-1.7V6h1v0.3V9v0.5c0,0.3,0.2,0.5,0.5,0.5S16,9.8,16,9.5V9V6.3V6
	L15,5z M5.5,8C5.8,8,6,8.2,6,8.5S5.8,9,5.5,9S5,8.8,5,8.5S5.2,8,5.5,8z M6.5,10C6.8,10,7,10.2,7,10.5S6.8,11,6.5,11S6,10.8,6,10.5
	S6.2,10,6.5,10z M6.5,12C6.8,12,7,12.2,7,12.5S6.8,13,6.5,13S6,12.8,6,12.5S6.2,12,6.5,12z"/>
</svg>
