<svg xmlns="http://www.w3.org/2000/svg" viewBox="0 0 27 27" height="27" width="27"><title>litter-receptacle-white-22.svg</title><rect fill="none" x="0" y="0" width="27" height="27"></rect><rect x="0" y="0" width="27" height="27" rx="4" ry="4" fill="#231f20"></rect><path fill="#ffffff" transform="translate(2 2)" d="M10.7,8H7.8c-1.1,0-1.1,1.4,0,1.4H11c0.2,0,0.5-0.1,0.7-0.4L13,6.5V21c0,0.6,0.4,1,1,1s1-0.4,1-1v-8h1v8
	c0,0.6,0.4,1,1,1s1-0.4,1-1V7h1.5v4.9c0,1.1,1.5,1.1,1.5,0V6.4C21,5.2,19.8,4,18.3,4H17v1h-2V4c-0.8,0-2,0.5-2.4,1.1L10.7,8L10.7,8z
	 M1,13h1l2,8h3l2-8h1l-2,9H3L1,13z M4,9c0.6,0,1,0.4,1,1s-0.4,1-1,1s-1-0.4-1-1S3.4,9,4,9z M6,12c0.6,0,1,0.4,1,1s-0.4,1-1,1
	s-1-0.4-1-1S5.4,12,6,12z M5,15c0.6,0,1,0.4,1,1c0,0.6-0.4,1-1,1s-1-0.4-1-1C4,15.4,4.4,15,5,15z M16,0c1.1,0,2,0.9,2,2s-0.9,2-2,2
	s-2-0.9-2-2S14.9,0,16,0z"></path></svg>