<svg xmlns="http://www.w3.org/2000/svg" viewBox="0 0 18 18" height="18" width="18"><title>live-audio-description-white-14.svg</title><rect fill="none" x="0" y="0" width="18" height="18"></rect><rect x="0" y="0" width="18" height="18" rx="4" ry="4" fill="#231f20"></rect><path fill="#ffffff" transform="translate(2 2)" d="M9,9.8v1c0.4-0.1,0.7-0.2,1-0.4V9.2C9.7,9.5,9.4,9.7,9,9.8z"></path><path fill="#ffffff" transform="translate(2 2)" d="M11,9.6C11.6,8.9,12,8,12,7s-0.4-1.9-1-2.6V7V9.6z"></path><path fill="#ffffff" transform="translate(2 2)" d="M10,4.8V3.6C9.7,3.4,9.4,3.2,9,3.1v1C9.4,4.3,9.7,4.5,10,4.8z"></path><path fill="#ffffff" transform="translate(2 2)" d="M7,8V4h1V3H7H6l-5,8h1l1.2-2H6v2h1h1v-1H7V9V8z M3.9,8L6,4.6V8H3.9z"></path></svg>