<svg xmlns="http://www.w3.org/2000/svg" viewBox="0 0 18 18" height="18" width="18"><title>lock-white-14.svg</title><rect fill="none" x="0" y="0" width="18" height="18"></rect><rect x="0" y="0" width="18" height="18" rx="4" ry="4" fill="#231f20"></rect><path fill="#ffffff" transform="translate(2 2)" d="M14,3l-1.5-3L11,3h1v5.9c-0.1,0-0.2,0-0.3,0c-0.8,0-1.2,0.5-1.5,0.8s-0.4,0.5-0.8,0.5C9,10.2,8.9,10,8.6,9.7
	C8.3,9.4,7.9,8.9,7.1,8.9S5.9,9.4,5.6,9.7c-0.3,0.3-0.5,0.5-0.8,0.5C4.5,10.2,4.3,10,4,9.7S3.3,8.9,2.5,8.9C2.3,8.9,2.1,8.9,2,9V8V0
	H1v8.7V10v1H0l1.5,3L3,11H2v-0.9C2.2,10,2.3,9.9,2.5,9.9c0.3,0,0.5,0.2,0.8,0.5s0.7,0.8,1.5,0.8s1.2-0.5,1.5-0.8s0.4-0.5,0.8-0.5
	s0.5,0.2,0.8,0.5s0.7,0.8,1.5,0.8s1.2-0.5,1.5-0.8s0.5-0.5,0.8-0.5c0.1,0,0.2,0,0.3,0.1v4h1v-3.2V9.5V3H14z"></path><path fill="#ffffff" transform="translate(2 2)" d="M7,5V3H5v2H3l1,3h5l2-3H7z"></path></svg>