<?xml version="1.0" encoding="utf-8"?>
<!-- Generator: Adobe Illustrator 25.4.1, SVG Export Plug-In . SVG Version: 6.00 Build 0)  -->
<svg version="1.1" id="Layer_1" xmlns="http://www.w3.org/2000/svg" xmlns:xlink="http://www.w3.org/1999/xlink" x="0px" y="0px"
	 width="18px" height="18px" viewBox="0 0 18 18" enable-background="new 0 0 18 18" xml:space="preserve">
<path fill="#231F20" d="M4,0h10c2.2,0,4,1.8,4,4v10c0,2.2-1.8,4-4,4H4c-2.2,0-4-1.8-4-4V4C0,1.8,1.8,0,4,0z"/>
<path fill="#FFFFFF" d="M9,7V5H7v2H5l1,2h5l2-2H9z"/>
<path fill="#FFFFFF" d="M15,5h1l-1.5-3L13,5h1v5.1h-0.1c-0.3,0-0.6,0.4-0.9,0.5c-0.2,0.1-0.5,0.2-0.8,0.2s-0.5-0.1-0.8-0.2
	c-0.3-0.1-0.6-0.5-0.9-0.5s-0.6,0.4-0.9,0.5c-0.2,0.1-0.5,0.2-0.8,0.2S8.3,10.7,8,10.6c-0.3-0.1-0.6-0.5-0.9-0.5s-0.6,0.4-0.9,0.5
	c-0.2,0.1-0.5,0.2-0.8,0.2s-0.5-0.1-0.8-0.2c-0.2-0.1-0.4-0.3-0.6-0.4V2H3v11H2l1.5,3L5,13H4v-1.6c0.2,0.1,0.4,0.3,0.6,0.4
	C4.8,11.9,5.1,12,5.4,12s0.6-0.1,0.8-0.2c0.3-0.1,0.6-0.5,0.9-0.5s0.6,0.4,0.9,0.5C8.2,11.9,8.5,12,8.8,12s0.6-0.1,0.8-0.2
	c0.3-0.1,0.6-0.5,0.9-0.5s0.6,0.4,0.9,0.5c0.2,0.1,0.5,0.2,0.8,0.2s0.6-0.1,0.8-0.2c0.3-0.1,0.6-0.5,0.9-0.5H14V16h1V5z"/>
</svg>
