<svg xmlns="http://www.w3.org/2000/svg" viewBox="0 0 27 27" height="27" width="27"><title>lock-bikes-white-22.svg</title><rect fill="none" x="0" y="0" width="27" height="27"></rect><rect x="0" y="0" width="27" height="27" rx="4" ry="4" fill="#231f20"></rect><path fill="#ffffff" transform="translate(2 2)" d="M10,10.6c-0.3,0-0.7,0-1,0.1L6.6,3C6.3,2,5.1,1.3,4.1,1.3c-0.6,0-1.9-0.2-1.9,0.8s1.3,0.7,2,0.8
	c0.4,0,0.8,0.4,0.9,0.7L5.7,5H0v1h6.1l0.4,1.2L0,13.6v1.8l6.8-6.7l0.7,2.5c-1.9,0.9-3.2,2.9-3.2,5.1c0,3.1,2.5,5.7,5.7,5.7
	s5.7-2.5,5.7-5.7S13.1,10.6,10,10.6z M10,20.5c-2.3,0-4.2-1.9-4.2-4.2c0-1.6,0.9-3,2.2-3.7l1.2,4c0.1,0.4,0.6,0.6,1,0.5
	s0.6-0.6,0.5-1l-1.2-4c0.2,0,0.4-0.1,0.5-0.1c2.3,0,4.2,1.9,4.2,4.2S12.3,20.5,10,20.5z"></path><path fill="#ffffff" transform="translate(2 2)" d="M22,3.5C22,1.6,20.4,0,18.5,0S15,1.6,15,3.5C15,3.7,15,4,15,4v5h7V4C22,4,22,3.7,22,3.5z M19,8h-1V5h1V8z
	 M20.9,4H16c0-0.2,0-0.3,0-0.5C16,2.1,17.1,1,18.5,1S21,2.1,21,3.5C21,3.7,21,3.8,20.9,4z"></path></svg>