<svg xmlns="http://www.w3.org/2000/svg" viewBox="0 0 27 27" height="27" width="27"><title>lookout-tower-white-22.svg</title><rect fill="none" x="0" y="0" width="27" height="27"></rect><rect x="0" y="0" width="27" height="27" rx="4" ry="4" fill="#231f20"></rect><path fill="#ffffff" transform="translate(2 2)" d="M14.6,7.1l-1.5,0.3l0.5,2.3L11,12.1L8.4,9.7l0.5-2.3L7.4,7.1L4.2,22h1.5l0.8-3.6l4.5-4.2l4.5,4.2l0.8,3.6h1.5L14.6,7.1z
	 M7.1,15.8l1-4.4l1.9,1.8L7.1,15.8z M12.1,13.2l1.9-1.8l0.9,4.4L12.1,13.2z"></path><path fill="#ffffff" transform="translate(2 2)" d="M16,8V3l-5-2L6,3v5H16z M7,4h8v2H7V4z"></path></svg>