<svg xmlns="http://www.w3.org/2000/svg" viewBox="0 0 18 18" height="18" width="18"><title>lounge-white-14.svg</title><rect fill="none" x="0" y="0" width="18" height="18"></rect><rect x="0" y="0" width="18" height="18" rx="4" ry="4" fill="#231f20"></rect><path fill="#ffffff" transform="translate(2 2)" d="M14,7.5C14,6.7,13.3,6,12.5,6S11,6.7,11,7.5C11,7.7,11,8,11,8v6h3V8C14,8,14,7.7,14,7.5z M3,7.5
	C3,6.7,2.3,6,1.5,6S0,6.7,0,7.5C0,7.7,0,8,0,8v6h3V8C3,8,3,7.7,3,7.5z M4,12h6v2H4V12z M4,9h6v2H4V9z M9,1H7H5C3.3,1,2,2.3,2,4v1
	c0,0,0,0,0,0.1c1.1,0.2,2,1.2,2,2.4v0.3C4.3,7.9,4.6,8,5,8h2h2c0.4,0,0.7-0.1,1-0.2V7.5c0-1.2,0.9-2.2,2-2.4c0,0,0,0,0-0.1V4
	C12,2.3,10.7,1,9,1z"></path></svg>