<svg xmlns="http://www.w3.org/2000/svg" viewBox="0 0 18 18" height="18" width="18"><title>low-vision-access-white-14.svg</title><rect fill="none" x="0" y="0" width="18" height="18"></rect><rect x="0" y="0" width="18" height="18" rx="4" ry="4" fill="#231f20"></rect><path fill="#ffffff" transform="translate(2 2)" d="M8.6,7.1L5.1,2.8C5,2.5,3.9,2.4,3.5,2.8L1.8,5.9l0.4,2.6c0.4,0.7,1.3,0,1-0.4L3,6.3l0.7-1.4v3.3L2.1,13
	c-0.3,1,1.2,1.4,1.5,0.5l1.9-5.3V5.5l-0.9-1c0-0.1,0-0.1,0-0.2c0.1,0,0.1,0,0.2,0l2.9,3.4C8.2,8.4,9.1,7.7,8.6,7.1z M7.3,12.9
	L5.6,8.7l-0.7,2l1,2.9C6.3,14.5,7.7,13.9,7.3,12.9z M11.8,13.9C11.8,13.9,11.9,13.9,11.8,13.9c0.1,0.1,0.2,0.1,0.3,0s0.1-0.2,0-0.2
	L8.9,8.1l0,0C8.8,8,8.7,8,8.6,8.1c-0.1,0.1-0.1,0.2,0,0.2L11.8,13.9z M5,0c0.6,0,1,0.4,1,1S5.6,2,5,2S4,1.6,4,1S4.4,0,5,0z"></path></svg>