<svg xmlns="http://www.w3.org/2000/svg" viewBox="0 0 18 18" height="18" width="18"><title>maps-white-14.svg</title><rect fill="none" x="0" y="0" width="18" height="18"></rect><rect x="0" y="0" width="18" height="18" rx="4" ry="4" fill="#231f20"></rect><path fill="#ffffff" transform="translate(2 2)" d="M7,0v12l7,2V2L7,0z M9,3h1v1h1v1h-1V4H9V3z M12,6v1h-1V6H12z M13.3,11.2l-1.2,0.4l-0.8-1.5l-0.9,1.2
	l-0.8-0.6l1.2-1.3L9.9,8.5L10.5,8l0.8,1l1.1-1.1l0.7,0.8L12,9.6L13.3,11.2z"></path><path fill="#ffffff" transform="translate(2 2)" d="M0,2v12l6-2V0L0,2z M3,8H2v1H1V8h1V7h1V8z M4,6H3V5h1V6z M5,4H4V3h1V4z"></path></svg>