<svg xmlns="http://www.w3.org/2000/svg" viewBox="0 0 27 27" height="27" width="27"><title>marina-white-22.svg</title><rect fill="none" x="0" y="0" width="27" height="27"></rect><rect x="0" y="0" width="27" height="27" rx="4" ry="4" fill="#231f20"></rect><path fill="#ffffff" transform="translate(2 2)" d="M21.1,9.1l-4.2,2.8c-0.4,0.3-0.4,0.8,0.1,1.1l1,0.5l-1,1.8c-0.8,2.1-2.7,4.3-5,4.7V6c1.1-0.5,2-1.7,2-3c0-1.7-1.3-3-3-3
		S8,1.4,8,3c0,1.3,0.9,2.5,2,3v14c-2.3-0.4-4.2-2.6-5-4.7l-0.9-1.9l1-0.5c0.4-0.2,0.5-0.8,0.1-1.1L0.9,9.1C0.5,8.8,0,9.1,0,9.6v4.9
		C0,15,0.5,15.2,0.9,15l1.3-0.7c0.2,0.5,0.5,1,0.8,1.6c1.1,3.5,4.1,6,8,6s6.9-2.5,8-6c0.3-0.6,0.5-1.2,0.8-1.6l1.3,0.7
		c0.4,0.2,0.9-0.1,0.9-0.5V9.6C22,9.1,21.5,8.8,21.1,9.1z M10,4V2h2v2H10z"></path></svg>