<?xml version="1.0" encoding="utf-8"?>
<!-- Generator: Adobe Illustrator 25.4.1, SVG Export Plug-In . SVG Version: 6.00 Build 0)  -->
<svg version="1.1" id="Layer_1" xmlns="http://www.w3.org/2000/svg" xmlns:xlink="http://www.w3.org/1999/xlink" x="0px" y="0px"
	 width="18px" height="18px" viewBox="0 0 18 18" enable-background="new 0 0 18 18" xml:space="preserve">
<path fill="#231F20" d="M4,0h10c2.2,0,4,1.8,4,4v10c0,2.2-1.8,4-4,4H4c-2.2,0-4-1.8-4-4V4C0,1.8,1.8,0,4,0z"/>
<path fill="#FFFFFF" d="M15.5,12.6l-0.8-4.3l-3.2,2.9l1.4,0.5l0,0C12.4,13,11.3,14,10,14.3V6.8c0.9-0.4,1.5-1.3,1.5-2.3
	C11.5,3.1,10.4,2,9,2S6.5,3.1,6.5,4.5c0,1,0.6,1.9,1.5,2.3v7.5C6.7,14,5.6,13,5.2,11.7l0,0l1.4-0.5L3.3,8.4l-0.8,4.3l1.3-0.4
	C4.5,14.4,6.6,16,9,16c2.5,0,4.5-1.6,5.3-3.8l0,0L15.5,12.6z M7.5,4.5C7.5,3.7,8.2,3,9,3s1.5,0.7,1.5,1.5S9.8,6,9,6S7.5,5.3,7.5,4.5
	z"/>
</svg>
