<svg xmlns="http://www.w3.org/2000/svg" viewBox="0 0 18 18" height="18" width="18"><title>mechanic-white-14.svg</title><rect fill="none" x="0" y="0" width="18" height="18"></rect><rect x="0" y="0" width="18" height="18" rx="4" ry="4" fill="#231f20"></rect><path fill="#ffffff" transform="translate(2 2)" d="M9.7,0C8.8,0.5,8.2,1.4,8.2,2.5c0,0.6,0.2,1.1,0.5,1.6l-6.5,8.4
	c-0.3,0.4-0.2,1,0.2,1.3s1,0.2,1.3-0.2l6.5-8.4l0,0c0.3,0.1,0.6,0.1,0.9,0.1c1.6,0,2.9-1.3,2.9-2.9c0-1.1-0.6-2-1.4-2.5v2l-1.4,1
	L9.7,2V0z"></path></svg>