<svg xmlns="http://www.w3.org/2000/svg" viewBox="0 0 27 27" height="27" width="27"><title>mechanic-white-22.svg</title><rect fill="none" x="0" y="0" width="27" height="27"></rect><rect x="0" y="0" width="27" height="27" rx="4" ry="4" fill="#231f20"></rect><path fill="#ffffff" transform="translate(2 2)" d="M14.1,0c-1.4,0.8-2.3,2.2-2.3,3.9c0,0.9,0.3,1.7,0.7,2.5L2.4,19.6
	c-0.5,0.7-0.4,1.6,0.3,2.1s1.6,0.4,2.1-0.3L15,8.2c0.4,0.1,0.9,0.2,1.4,0.2c2.5,0,4.5-2,4.5-4.5c0-1.7-0.9-3.1-2.3-3.9v3.2l-2.3,1.5
	l-2.3-1.5V0z"></path></svg>