<svg xmlns="http://www.w3.org/2000/svg" viewBox="0 0 18 18" height="18" width="18"><title>metal-detecting-white-14.svg</title><rect fill="none" x="0" y="0" width="18" height="18"></rect><rect x="0" y="0" width="18" height="18" rx="4" ry="4" fill="#231f20"></rect><path fill="#ffffff" transform="translate(2 2)" d="M14,6.8c0,0-1.9-0.1-2.8,0c-0.1,0-0.3,0.1-0.4,0.1C10,7,9.6,6.9,8.9,7C7.8,7.2,6.7,6.9,5.5,7
	c-1,0.1-2.2,0-3.3,0C1.7,6.7,0.7,6.9,0,6.9V8h14V6.8z"></path><path fill="#ffffff" transform="translate(2 2)" d="M12,0.8L9.3,3L6.7,5c0,0-0.3,0-0.7,0C5.5,5,4.8,5,4,5
	C3.8,5,3.6,5.3,3.6,5.6C3.6,5.9,3.8,6,3.9,6c1.6,0,3.3,0,4.6,0s2.1,0,2.1,0c0.1,0,0.3-0.1,0.3-0.4S10.7,5,10.6,5H9.3H8.1l2.3-1.6
	l2.3-1.9c0-0.1-0.2-0.2-0.3-0.4C12.3,0.9,12.1,0.8,12,0.8z"></path><path fill="#ffffff" transform="translate(2 2)" d="M11.1,8.5L11.1,8.5c-3.3,1.8-7,0.3-7.7,0l0,0l0,0l0,0
	c0,0,0,0-0.1,0c0,0,0,0,0,0.1C8,11.7,11.1,8.6,11.1,8.5C11.1,8.6,11.1,8.5,11.1,8.5z"></path><path fill="#ffffff" transform="translate(2 2)" d="M9.9,10.9C9.8,10.9,9.8,10.9,9.9,10.9c-2.3,1.2-4.7,0.2-5.2,0l0,0
	l0,0l0,0H4.6c0,0,0,0,0,0.1C7.7,13.1,9.8,11,9.9,10.9C9.9,11,9.9,10.9,9.9,10.9z"></path><path fill="#ffffff" transform="translate(2 2)" d="M8.6,13.2C8.6,13.1,8.5,13.1,8.6,13.2c-0.9,0.4-2.1,0.1-2.5,0H6
	c0,0,0,0,0,0.1C7.6,14.2,8.6,13.2,8.6,13.2L8.6,13.2z"></path></svg>