<?xml version="1.0" encoding="utf-8"?>
<!-- Generator: Adobe Illustrator 27.9.1, SVG Export Plug-In . SVG Version: 6.00 Build 0)  -->
<svg version="1.1" id="Layer_1" xmlns="http://www.w3.org/2000/svg" xmlns:xlink="http://www.w3.org/1999/xlink" x="0px" y="0px"
	 viewBox="0 0 18 18" enable-background="new 0 0 18 18" xml:space="preserve">
<rect fill="none" width="18" height="18"/>
<path fill="#231F20" d="M4,0h10c2.2,0,4,1.8,4,4v10c0,2.2-1.8,4-4,4H4c-2.2,0-4-1.8-4-4V4C0,1.8,1.8,0,4,0z"/>
<path fill="#FFFFFF" d="M9.7,3.6H8.3c-0.2,0-0.2-0.4,0-0.4h1.5C9.9,3.2,9.9,3.6,9.7,3.6"/>
<polygon fill="#FFFFFF" points="11,8.8 7.4,13.6 8.5,10.2 7,10.2 9.2,5.3 11,5.3 9.4,8.8 "/>
<path fill="#FFFFFF" d="M12.7,2H5.3C5,2,4.7,2.3,4.7,2.6v12.7C4.7,15.7,5,16,5.3,16h7.3c0.3,0,0.6-0.3,0.6-0.6V2.6
	C13.3,2.3,13,2,12.7,2 M12.7,15.4H5.3V2.6h7.3L12.7,15.4L12.7,15.4z"/>
</svg>
