<?xml version="1.0" encoding="utf-8"?>
<!-- Generator: Adobe Illustrator 27.9.1, SVG Export Plug-In . SVG Version: 6.00 Build 0)  -->
<svg version="1.1" id="Layer_1" xmlns="http://www.w3.org/2000/svg" xmlns:xlink="http://www.w3.org/1999/xlink" x="0px" y="0px"
	 viewBox="0 0 27 27" enable-background="new 0 0 27 27" xml:space="preserve">
<rect fill="none" width="27" height="27"/>
<path fill="#231F20" d="M4,0h19c2.2,0,4,1.8,4,4v19c0,2.2-1.8,4-4,4H4c-2.2,0-4-1.8-4-4V4C0,1.8,1.8,0,4,0z"/>
<path fill="#FFFFFF" d="M14.6,5h-2.4c-0.3,0-0.3-0.6,0-0.6h2.3C15,4.4,15,5,14.6,5"/>
<polygon fill="#FFFFFF" points="16.6,13.2 10.9,20.8 12.6,15.3 10.4,15.3 13.8,7.8 16.6,7.8 14.1,13.2 "/>
<path fill="#FFFFFF" d="M19.2,2.5H7.8c-0.5,0-1,0.5-1,1v20c0,0.5,0.5,1,1,1h11.5c0.5,0,1-0.5,1-1v-20C20.2,3,19.7,2.5,19.2,2.5
	 M19.2,23.5H7.8v-20h11.5L19.2,23.5L19.2,23.5z"/>
</svg>
