<svg xmlns="http://www.w3.org/2000/svg" viewBox="0 0 18 18" height="18" width="18"><title>mobile-device-charging-white-14.svg</title><rect fill="none" x="0" y="0" width="18" height="18"></rect><rect x="0" y="0" width="18" height="18" rx="4" ry="4" fill="#231f20"></rect><path fill="#ffffff" transform="translate(2 2)" d="M12,0v2H7.9C7.4,2,7,2.4,7,2.8v10.3C7,13.6,7.4,14,7.9,14h4.6
	c0.5,0,0.9-0.4,0.5-0.8V0H12z M11.1,11.6c0-0.1,0.1-0.3,0.3-0.3h0.6c0.1,0,0.3,0.1,0.3,0.3v0.6c0,0.1-0.1,0.3-0.3,0.3h-0.6
	c-0.1,0-0.3-0.1-0.3-0.3V11.6z M11.1,10c0-0.1,0.1-0.3,0.3-0.3h0.6c0.1,0,0.3,0.1,0.3,0.3v0.6c0,0.1-0.1,0.3-0.3,0.3h-0.6
	c-0.1,0-0.3-0.1-0.3-0.3V10z M11.1,8.4c0-0.1,0.1-0.3,0.3-0.3h0.6c0.1,0,0.3,0.1,0.3,0.3V9c0,0.1-0.1,0.3-0.3,0.3h-0.6
	c-0.1,0-0.3-0.1-0.3-0.3V8.4z M9.5,11.6c0-0.1,0.1-0.3,0.3-0.3h0.6c0.1,0,0.3,0.1,0.3,0.3v0.6c0,0.1-0.1,0.3-0.3,0.3H9.8
	c-0.1,0-0.3-0.1-0.3-0.3V11.6z M9.5,10c0-0.1,0.1-0.3,0.3-0.3h0.6c0.1,0,0.3,0.1,0.3,0.3v0.6c0,0.1-0.1,0.3-0.3,0.3H9.8
	c-0.1,0-0.3-0.1-0.3-0.3V10z M9.5,8.4c0-0.1,0.1-0.3,0.3-0.3h0.6c0.1,0,0.3,0.1,0.3,0.3V9c0,0.1-0.1,0.3-0.3,0.3H9.8
	C9.6,9.3,9.5,9.1,9.5,9V8.4z M7.9,12.1v-0.6c0-0.1,0.1-0.3,0.3-0.3h0.6c0.1,0,0.3,0.1,0.3,0.3v0.6c0,0.1-0.1,0.3-0.3,0.3H8.2
	C8,12.4,7.9,12.3,7.9,12.1z M7.9,10.6V10c0-0.1,0.1-0.3,0.3-0.3h0.6C8.9,9.8,9,9.9,9,10v0.6c0,0.1-0.1,0.3-0.3,0.3H8.2
	C8,10.8,7.9,10.7,7.9,10.6z M7.9,9V8.4c0-0.1,0.1-0.3,0.3-0.3h0.6C8.9,8.2,9,8.3,9,8.4V9c0,0.1-0.1,0.3-0.3,0.3H8.2
	C8,9.3,7.9,9.1,7.9,9z M7.9,5.9V3c0-0.1,0.1-0.3,0.3-0.3h3.7c0.1,0,0.3,0.1,0.3,0.3v2.9c0,0.1-0.1,0.3-0.3,0.3H8.2
	C8,6.2,7.9,6.1,7.9,5.9z"></path><path fill="#ffffff" transform="translate(2 2)" d="M4.9,7.4l-3.8,5.1l1.2-3.6H0.7L3,3.8h1.9L3.2,7.4H4.9z"></path></svg>