<svg xmlns="http://www.w3.org/2000/svg" viewBox="0 0 18 18" height="18" width="18"><title>motorboating-white-14.svg</title><rect fill="none" x="0" y="0" width="18" height="18"></rect><rect x="0" y="0" width="18" height="18" rx="4" ry="4" fill="#231f20"></rect><path fill="#ffffff" transform="translate(2 2)" d="M14,11c-0.3,0-0.6-0.6-0.8-0.7c-0.2-0.1-0.5-0.1-0.8-0.1s-0.6,0-0.8,0.1C11.3,10.4,11,11,10.7,11
	s-0.6-0.6-0.8-0.7c-0.2-0.1-0.5-0.1-0.8-0.1s-0.6,0-0.8,0.1C8,10.4,7.8,11,7.5,11s-0.6-0.6-0.8-0.7c-0.2-0.1-0.5-0.1-0.8-0.1
	s-0.6,0-0.8,0.1C4.8,10.4,4.5,11,4.2,11s-0.6-0.6-0.8-0.7c-0.3-0.1-0.5-0.1-0.8-0.1s-0.6,0-0.8,0.1C1.5,10.4,1.2,11,1,11V9.8
	c0.3,0,0.6-0.7,0.8-0.8s0.5,0,0.8,0s0.6,0,0.8,0.1s0.5,0.7,0.8,0.7S4.8,9.2,5,9.1C5.3,8.9,5.6,9,5.8,9c0.3,0,0.6,0,0.8,0.1
	c0.2,0.1,0.5,0.7,0.8,0.7S8,9.2,8.2,9.1C8.5,8.9,8.8,9,9.1,9s0.6,0,0.8,0.1s0.5,0.7,0.8,0.7s0.6-0.6,0.8-0.7C11.8,8.9,12.1,9,12.4,9
	c0.3,0,0.6,0,0.8,0.1s0.5,0.7,0.8,0.7V11z M10.7,5.4l2.4,0.2l-0.2-1.2l-1.7-0.1c-0.5,0-0.4,0.4-0.4,0.4L10.7,5.4z M1.8,8
	C2,7.9,2.3,7.9,2.6,7.9s0.6,0,0.8,0.1c0.2,0.1,0.5,0.2,0.8,0.2S4.8,8.2,5,8c0.2-0.1,0.5-0.2,0.8-0.2S6.4,7.9,6.6,8
	c0.2,0.1,0.5,0.2,0.8,0.2c0.4,0,0.6,0,0.9-0.2c0.2-0.1,0.5-0.2,0.8-0.2S9.7,7.9,9.9,8c0.2,0.1,0.5,0.2,0.8,0.2s0.6-0.1,0.8-0.2
	c0.2-0.1,0.5-0.2,0.8-0.2s0.6,0.1,0.8,0.2c0.2,0.1,0.5,0.2,0.8,0.2L13.1,6L3.9,5.3l1.5-1.5L4.7,3.7L3.2,5.2L0,4.9C0,6,1.5,7.8,1.8,8
	C1.8,8,1.7,8.1,1.8,8z M6,4h1v1H6V4z"></path></svg>