<?xml version="1.0" encoding="utf-8"?>
<!-- Generator: Adobe Illustrator 25.4.1, SVG Export Plug-In . SVG Version: 6.00 Build 0)  -->
<svg version="1.1" id="Layer_1" xmlns="http://www.w3.org/2000/svg" xmlns:xlink="http://www.w3.org/1999/xlink" x="0px" y="0px"
	 width="18px" height="18px" viewBox="0 0 18 18" enable-background="new 0 0 18 18" xml:space="preserve">
<path fill="#231F20" d="M4,0h10c2.2,0,4,1.8,4,4v10c0,2.2-1.8,4-4,4H4c-2.2,0-4-1.8-4-4V4C0,1.8,1.8,0,4,0z"/>
<path fill="#FFFFFF" d="M12.7,7.5l2.4,0.2l-0.2-1.2l-1.7-0.1c-0.5,0-0.4,0.4-0.4,0.4L12.7,7.5z"/>
<path fill="#FFFFFF" d="M9.2,6.5c0,0.4-0.3,0.7-0.7,0.7c-0.4,0-0.7-0.3-0.7-0.7s0.3-0.7,0.7-0.7C8.9,5.9,9.2,6.2,9.2,6.5z"/>
<path fill="#FFFFFF" d="M14.1,11.1c-0.3,0-0.6,0.4-0.9,0.5c-0.2,0.1-0.5,0.2-0.8,0.2c-0.3,0-0.5-0.1-0.8-0.2
	c-0.3-0.1-0.6-0.5-0.9-0.5s-0.6,0.4-0.9,0.5c-0.2,0.1-0.5,0.2-0.8,0.2s-0.5-0.1-0.8-0.2c-0.3-0.1-0.6-0.5-0.9-0.5s-0.6,0.4-0.9,0.5
	c-0.2,0.1-0.5,0.2-0.8,0.2c-0.3,0-0.5-0.1-0.8-0.2c-0.3-0.1-0.6-0.5-0.9-0.5c-0.3,0-0.6,0.4-0.9,0.5c-0.2,0.1-0.5,0.2-0.8,0.2V13
	c0.3,0,0.6-0.1,0.8-0.2c0.3-0.1,0.6-0.5,0.9-0.5c0.3,0,0.6,0.4,0.9,0.5C5,12.9,5.3,13,5.6,13c0.3,0,0.6-0.1,0.8-0.2
	c0.3-0.1,0.6-0.5,0.9-0.5s0.6,0.4,0.9,0.5C8.4,12.9,8.7,13,9,13s0.6-0.1,0.8-0.2c0.3-0.1,0.6-0.5,0.9-0.5s0.6,0.4,0.9,0.5
	c0.2,0.1,0.5,0.2,0.8,0.2c0.3,0,0.6-0.1,0.8-0.2c0.3-0.1,0.6-0.5,0.9-0.5c0.3,0,0.6,0.4,0.9,0.5c0.2,0.1,0.5,0.2,0.8,0.2v-1.2
	c-0.3,0-0.5-0.1-0.8-0.2C14.7,11.5,14.4,11.1,14.1,11.1z"/>
<path fill="#FFFFFF" d="M5,10.6c0,0,0.1,0.1,0.1,0.1l0.2,0.1c0.2,0.1,0.2,0.1,0.3,0.1c0.1,0,0.2,0,0.4-0.1l0.1,0l0,0
	c0,0,0.1-0.1,0.1-0.1c0.2-0.2,0.6-0.5,1.1-0.5s0.9,0.3,1.1,0.5c0,0,0.1,0.1,0.1,0.1l0.2,0.1c0.2,0.1,0.2,0.1,0.3,0.1
	c0.1,0,0.2,0,0.4-0.1l0.1,0l0,0c0,0,0.1-0.1,0.1-0.1c0.2-0.2,0.6-0.5,1.1-0.5s0.9,0.3,1.1,0.5c0,0,0.1,0.1,0.1,0.1l0.2,0.1
	c0.2,0.1,0.2,0.1,0.3,0.1c0.1,0,0.2,0,0.4-0.1l0.1,0l0,0c0,0,0.1-0.1,0.1-0.1c0.2-0.2,0.6-0.5,1.1-0.5c0.5,0,0.9,0.3,1.1,0.5
	c0,0,0.1,0.1,0.1,0.1l0.2,0.1c0.2,0.1,0.2,0.1,0.3,0.1h0.1l-0.3-2.2l-0.1-0.4L5.6,7.3l1.5-1.5L6.4,5.8L4.9,7.3L2,7
	c0,0.5,0.2,1,0.5,1.6c0.2,0.4,0.6,1,1,1.5c0.1,0,0.3-0.1,0.4-0.1C4.4,10.1,4.8,10.4,5,10.6z"/>
</svg>
