<svg xmlns="http://www.w3.org/2000/svg" viewBox="0 0 27 27" height="27" width="27"><title>motor-bike-trail-white-22.svg</title><rect fill="none" x="0" y="0" width="27" height="27"></rect><rect x="0" y="0" width="27" height="27" rx="4" ry="4" fill="#231f20"></rect><path fill="#ffffff" transform="translate(2 2)" d="M12.1,16.9c-0.3,0.3-0.7,0.5-1.1,0.5V12l4-1v2L12.1,16.9z"></path><path fill="#ffffff" transform="translate(2 2)" d="M9,5H8V4.1c0,0-0.9,0.2-1.2,0.5l-3,4.6C3.7,9.3,3.7,9.6,3.7,9.8c0,0.5,0.2,0.9,0.6,1.1l4,2.2V17
	c0,0.5,0.4,1,1,1c0.5,0,0.8-0.4,0.8-1v-4.7c0,0,0.3-0.8-0.5-1.2L7,9.8L8.8,7l1,1.5C10,8.8,10.2,9,10.5,9H13c1,0,1-1.4,0-1.4h-2l-2-3
	V5z"></path><path fill="#ffffff" transform="translate(2 2)" d="M19.9,10.7l0.1,0.2c0,0.1-0.1,0.2-0.2,0.2h-0.1c-0.4-0.2-0.7-0.3-1.2-0.3c-0.3,0-0.7,0.1-1.2,0.5l-0.4-0.9
	c0.5-0.2,1-0.4,1.5-0.4C19,10,19.4,10.3,19.9,10.7z"></path><path fill="#ffffff" transform="translate(2 2)" d="M3.2,11.4L7,13.7v0.9L2.6,12c-0.3-0.2-0.8-0.3-1.1-0.3c-0.5,0-0.3,0.1-0.7,0.3H0.7c-0.1,0-0.2-0.1-0.2-0.2
	l0.1-0.2C1.1,11.2,1,11,1.8,11C2.2,11,2.6,11.1,3.2,11.4L3.2,11.4z"></path><path fill="#ffffff" transform="translate(2 2)" d="M3.5,19.9c1.3,0,2.4-1.1,2.4-2.5s-1.1-2.5-2.4-2.5S1.1,16,1.1,17.4S2.2,19.9,3.5,19.9z M0,17.4
	c0-2,1.6-3.6,3.5-3.6S7,15.4,7,17.4S5.4,21,3.5,21S0,19.4,0,17.4z"></path><path fill="#ffffff" transform="translate(2 2)" d="M18.4,19.9c1.4,0,2.5-1.1,2.5-2.5s-1.1-2.5-2.5-2.5s-2.5,1.1-2.5,2.5S17.1,19.9,18.4,19.9z M14.8,17.4
	c0-2,1.6-3.6,3.6-3.6s3.6,1.6,3.6,3.6S20.4,21,18.4,21S14.8,19.4,14.8,17.4z"></path><path fill="#ffffff" transform="translate(2 2)" d="M17.6,13L16,9.8C15.8,9.4,15.2,9,14.7,9h-1.1c-0.2,0-0.4,0.3-0.4,0.6s0.2,0.4,0.4,0.4h1.1
	c0.2,0,0.4,0.1,0.5,0.3l1.6,2.7H17.6z"></path><path fill="#ffffff" transform="translate(2 2)" d="M10.5,0C9.1,0,8,1.1,8,2.5C8,3.1,8.2,3.6,8.5,4h0.6c0.2,0.6,0.8,1,1.4,1s1.2-0.4,1.4-1H12V3h0.9
	C13,2.8,13,2.7,13,2.5C13,1.1,11.9,0,10.5,0z"></path></svg>