<svg xmlns="http://www.w3.org/2000/svg" viewBox="0 0 18 18" height="18" width="18"><title>motor-bike-trail-white-14.svg</title><rect fill="none" x="0" y="0" width="18" height="18"></rect><rect x="0" y="0" width="18" height="18" rx="4" ry="4" fill="#231f20"></rect><path fill="#ffffff" transform="translate(2 2)" d="M13,9h-2l-1,1v2l1,1h2l1-1v-2L13,9z M13,12h-2v-2h2V12z M3,9H1l-1,1v2l1,1h2l1-1v-2L3,9z M3,12H1v-2h2V12z
	 M7,11h1l3-3V7H8L7,8V11z M5,11h1V7L5,6V5h1l1,1h1V5H7L6,4H5V3H4L3,5v2H1v1h2h2V11z M6.5,0C7.3,0,8,0.7,8,1.5S7.3,3,6.5,3
	S5,2.3,5,1.5S5.7,0,6.5,0z M13,7V6h-2l-1-1H9v1h1l1,1H13z"></path></svg>