<?xml version="1.0" encoding="utf-8"?>
<!-- Generator: Adobe Illustrator 25.4.1, SVG Export Plug-In . SVG Version: 6.00 Build 0)  -->
<svg version="1.1" id="Layer_1" xmlns="http://www.w3.org/2000/svg" xmlns:xlink="http://www.w3.org/1999/xlink" x="0px" y="0px"
	 width="18px" height="18px" viewBox="0 0 18 18" enable-background="new 0 0 18 18" xml:space="preserve">
<rect fill="none" width="18" height="18"/>
<path fill="#231F20" d="M4,0h10c2.2,0,4,1.8,4,4v10c0,2.2-1.8,4-4,4H4c-2.2,0-4-1.8-4-4V4C0,1.8,1.8,0,4,0z"/>
<path fill="#FFFFFF" d="M14,11c-1.1,0-2,0.9-2,2s0.9,2,2,2s2-0.9,2-2S15.1,11,14,11z M14,14c-0.6,0-1-0.4-1-1s0.4-1,1-1s1,0.4,1,1
	S14.6,14,14,14z"/>
<path fill="#FFFFFF" d="M4,11c-1.1,0-2,0.9-2,2s0.9,2,2,2s2-0.9,2-2S5.1,11,4,11z M4,14c-0.6,0-1-0.4-1-1s0.4-1,1-1s1,0.4,1,1
	S4.6,14,4,14z"/>
<path fill="#FFFFFF" d="M8.5,2C9.3,2,10,2.7,10,3.5S9.3,5,8.5,5S7,4.3,7,3.5S7.7,2,8.5,2z M9,13h1l3-3V9h-3l-1,1V13z M7,13h1V9L7,8
	V7h1l1,1h1V7H9L8,6H7V5H6L5,7v2H3v1h2h2V13z M15,9V8h-2l-1-1h-1v1h1l1,1H15z"/>
</svg>
