<svg xmlns="http://www.w3.org/2000/svg" viewBox="0 0 27 27" height="27" width="27"><title>newspaper-white-22.svg</title><rect fill="none" x="0" y="0" width="27" height="27"></rect><rect x="0" y="0" width="27" height="27" rx="4" ry="4" fill="#231f20"></rect><path fill="#ffffff" transform="translate(2 2)" d="M11.6,1.2v17.6c0,0,6.7,2.2,10.4,2.1V3.2C22,3.2,19.9,3.3,11.6,1.2z M21,18.1c-1.2-0.1-3.6-0.5-8-1.6v-1
	c4.4,1.1,6.8,1.5,8,1.6V18.1z M21,16.1c-1.2-0.1-3.6-0.5-8-1.6v-1c4.4,1.1,6.8,1.5,8,1.6V16.1z M21,12.1c-1.2-0.1-3.6-0.5-8-1.6v-1
	c4.4,1.1,6.8,1.5,8,1.6V12.1z M21,10.1c-1.2-0.1-3.6-0.5-8-1.6v-1c4.4,1.1,6.8,1.5,8,1.6V10.1z M21,8.1c-1.2-0.1-3.6-0.5-8-1.6v-1
	c4.4,1.1,6.8,1.5,8,1.6V8.1z M21,6.1c-1.2-0.1-3.6-0.5-8-1.6v-1c4.4,1.1,6.8,1.5,8,1.6V6.1z"></path><path fill="#ffffff" transform="translate(2 2)" d="M0,3.2v17.6c3.6,0.1,10.3-2.1,10.3-2.1V1.2C2.1,3.3,0,3.2,0,3.2z M9,16.5c-4.4,1.1-6.8,1.5-8,1.6v-1
	c1.2-0.1,3.6-0.5,8-1.6V16.5z M9,14.5c-4.4,1.1-6.8,1.5-8,1.6v-1c1.2-0.1,3.6-0.5,8-1.6V14.5z M9,12.5c-4.4,1.1-6.8,1.5-8,1.6v-1
	c1.2-0.1,3.6-0.5,8-1.6V12.5z M9,10.5c-4.4,1.1-6.8,1.5-8,1.6v-1c1.2-0.1,3.6-0.5,8-1.6V10.5z M9,6.5C4.6,7.6,2.2,8,1,8.1v-1
	C2.2,7,4.6,6.6,9,5.5V6.5z M9,4.5C4.6,5.6,2.2,6,1,6.1v-1C2.2,5,4.6,4.6,9,3.5V4.5z"></path></svg>