<svg xmlns="http://www.w3.org/2000/svg" viewBox="0 0 27 27" height="27" width="27"><title>no-mobile-devices-white-22.svg</title><rect fill="none" x="0" y="0" width="27" height="27"></rect><rect x="0" y="0" width="27" height="27" rx="4" ry="4" fill="#231f20"></rect><path fill="#ffffff" transform="translate(2 2)" d="M6,2h10v9.7l1,0.9V1c0-0.5-0.5-1-1-1H6C5.5,0,5,0.5,5,1v1l1,0.9V2z M16,20H6v-9.7L5,9.4V21c0,0.5,0.5,1,1,1
	h10c0.5,0,1-0.5,1-1v-1l-1-0.9V20z M0,0.2v2.2l22,19.4v-2.2L0,0.2z"></path></svg>