<svg xmlns="http://www.w3.org/2000/svg" viewBox="0 0 18 18" height="18" width="18"><title>open-captioning-white-14.svg</title><rect fill="none" x="0" y="0" width="18" height="18"></rect><rect x="0" y="0" width="18" height="18" rx="4" ry="4" fill="#231f20"></rect><path fill="#ffffff" transform="translate(2 2)" d="M3.3,10.1C1.4,10.1,0,9,0,7.1C0,5.1,1.4,4,3.3,4s3.3,1.1,3.3,3.1C6.7,9,5.2,10.1,3.3,10.1z M3.3,8.5
	C4,8.5,4.6,8,4.6,7.2c0-0.7-0.4-1.7-1.3-1.7S1.8,6.3,1.8,7C1.8,7.9,2.7,8.5,3.3,8.5z"></path><path fill="#ffffff" transform="translate(2 2)" d="M11.6,6.1c0,0-0.1-0.2-0.2-0.3c-0.1-0.2-0.3-0.2-0.6-0.2c-0.9,0-1,0.9-1,1.6c0,0.9,0.3,1.5,1,1.5
	c0.6,0,0.8-0.4,0.9-0.6H14c-0.2,1.5-1.6,2.2-3.2,2.2C8.9,10.1,8,9,8,7.1C8,5.1,8.8,4,10.8,4c1.6,0,3,0.7,3.2,2.1H11.6z"></path></svg>