<svg xmlns="http://www.w3.org/2000/svg" viewBox="0 0 27 27" height="27" width="27"><title>open-to-the-public-white-22.svg</title><rect fill="none" x="0" y="0" width="27" height="27"></rect><rect x="0" y="0" width="27" height="27" rx="4" ry="4" fill="#231f20"></rect><path fill="#ffffff" transform="translate(2 2)" d="M15,13v-1h-2h-1v1v1v1v2h1h2v-1h-2v-1h2v-1h-2v-1H15z"></path><path fill="#ffffff" transform="translate(2 2)" d="M17,12v5h1v-3l1,3h1v-5h-1v3l-1-3H17z"></path><path fill="#ffffff" transform="translate(2 2)" d="M8.5,12C8.3,12,8,12,8,12H7v5h1v-2c0.2,0.1,0.3,0,0.5,0c0.8,0,1.5-0.7,1.5-1.5S9.3,12,8.5,12z M9,14H8v-1h1
	V14z"></path><path fill="#ffffff" transform="translate(2 2)" d="M3.5,12C2.7,12,2,13.1,2,14.5S2.7,17,3.5,17S5,15.9,5,14.5S4.3,12,3.5,12z M4,16H3v-3h1V16z"></path><path fill="#ffffff" transform="translate(2 2)" d="M19,7l-6.5-5.7C12.4,0.6,11.8,0,11,0S9.6,0.6,9.5,1.3L3,7H0v15h22V7H19z M9.8,2.4C10.1,2.8,10.5,3,11,3
	s0.9-0.2,1.2-0.6L17.5,7h-13L9.8,2.4z M21,21H1V8h20V21z"></path></svg>