<?xml version="1.0" encoding="utf-8"?>
<!-- Generator: Adobe Illustrator 25.4.1, SVG Export Plug-In . SVG Version: 6.00 Build 0)  -->
<svg version="1.1" id="Layer_1" xmlns="http://www.w3.org/2000/svg" xmlns:xlink="http://www.w3.org/1999/xlink" x="0px" y="0px"
	 width="18px" height="18px" viewBox="0 0 18 18" enable-background="new 0 0 18 18" xml:space="preserve">
<path fill="#231F20" d="M4,0h10c2.2,0,4,1.8,4,4v10c0,2.2-1.8,4-4,4H4c-2.2,0-4-1.8-4-4V4C0,1.8,1.8,0,4,0z"/>
<path fill="#FFFFFF" d="M6.3,10.9c0,1.2-0.7,1.8-1.6,1.8S3.2,12,3.2,11c0-1.1,0.7-1.8,1.6-1.8C5.7,9.1,6.3,9.9,6.3,10.9z M3.7,10.9
	c0,0.7,0.4,1.4,1.1,1.4s1.1-0.6,1.1-1.4c0-0.7-0.4-1.4-1.1-1.4C4,9.5,3.7,10.2,3.7,10.9z"/>
<path fill="#FFFFFF" d="M6.9,9.2c0.2,0,0.5-0.1,0.8-0.1c0.4,0,0.7,0.1,0.9,0.3c0.2,0.2,0.3,0.4,0.3,0.7s-0.1,0.5-0.3,0.7
	c-0.2,0.2-0.6,0.4-1,0.4c-0.1,0-0.3,0-0.4,0v1.4H6.9V9.2z M7.3,10.9c0.1,0,0.2,0,0.4,0c0.5,0,0.8-0.3,0.8-0.7c0-0.4-0.3-0.7-0.8-0.7
	c-0.2,0-0.3,0-0.4,0V10.9z"/>
<path fill="#FFFFFF" d="M11.3,11H10v1.2h1.5v0.4h-2V9.2h1.8v0.4H10v1.1h1.3V11z"/>
<path fill="#FFFFFF" d="M12,12.6V9.2h0.5l1.1,1.7c0.3,0.4,0.4,0.8,0.6,1.1l0,0c0-0.5-0.1-0.9-0.1-1.4V9.2h0.4v3.4h-0.4L13,10.9
	c-0.2-0.4-0.5-0.8-0.6-1.1l0,0c0,0.4,0,0.8,0,1.4v1.4C12.4,12.6,12,12.6,12,12.6z"/>
<path fill="#FFFFFF" d="M14,6l-4-3.2C9.8,2.3,9.5,2,9,2S8.2,2.3,8,2.8L4,6H2v10h14V6H14z M8.4,3.8C8.6,3.9,8.8,4,9,4
	s0.4-0.1,0.6-0.2L12.4,6H5.6L8.4,3.8z M15,15H3V7h12V15z"/>
</svg>
