<svg xmlns="http://www.w3.org/2000/svg" viewBox="0 0 18 18" height="18" width="18"><title>open-to-the-public-white-14.svg</title><rect fill="none" x="0" y="0" width="18" height="18"></rect><rect x="0" y="0" width="18" height="18" rx="4" ry="4" fill="#231f20"></rect><path fill="#ffffff" transform="translate(2 2)" d="M9,7.5V7H8H7v0.5V8v0.5v1V10h1h1V9.5H8v-1h1V8H8V7.5H9z M10,10V7l1,1V7h1v3l-1-1v1H10z M5,7H4v2v1h1V9
	c0.5,0,1-0.5,1-1S5.5,7,5,7z M2,10L2,10c-0.6,0-1-0.4-1-1V8c0-0.5,0.4-1,1-1l0,0c0.5,0,1,0.4,1,1v1C3,9.6,2.6,10,2,10z M12,4L8,0.8
	C7.8,0.3,7.5,0,7,0S6.2,0.3,6,0.8L2,4H0v10h14V4H12z M6.4,1.8C6.6,1.9,6.8,2,7,2s0.4-0.1,0.6-0.2L10.4,4H3.6L6.4,1.8z M13,13H1V5h12
	V13z"></path></svg>