<svg xmlns="http://www.w3.org/2000/svg" viewBox="0 0 27 27" height="27" width="27"><title>paddle-boating-white-22.svg</title><rect fill="none" x="0" y="0" width="27" height="27"></rect><rect x="0" y="0" width="27" height="27" rx="4" ry="4" fill="#231f20"></rect><path fill="#ffffff" transform="translate(2 2)" d="M4.9,4.1c1-0.1,1.7-1,1.5-2c-0.1-1-1-1.7-2-1.5c-1,0.1-1.7,1-1.5,2C3,3.6,3.9,4.3,4.9,4.1z"></path><path fill="#ffffff" transform="translate(2 2)" d="M20.4,17.5c-0.5,0.3-0.9,0.8-1.6,0.8s-1.1-0.5-1.6-0.8c-0.4-0.3-1-0.8-1.6-0.8s-1.2,0.4-1.6,0.8
	c-0.3,0.3-0.9,0.8-1.6,0.8c-0.7,0-1.2-0.5-1.6-0.8c-0.4-0.3-0.8-0.8-1.6-0.8c-0.7,0-1.2,0.5-1.6,0.8S6.8,18.3,6,18.3
	c-0.7,0-1.2-0.5-1.6-0.8c-0.4-0.2-0.7-0.8-1.6-0.8c-0.8,0-1.2,0.5-1.6,0.8c0,0.3-1.2,0.8-1.2,0.8v1.6l0,0v1.6c0,0,1.2-0.5,1.6-0.8
	s0.8-0.8,1.6-0.8c0.9,0,1.2,0.5,1.6,0.8s0.9,0.8,1.6,0.8c0.8,0,1.2-0.5,1.6-0.8s0.8-0.8,1.6-0.8s1.2,0.5,1.6,0.8
	c0.4,0.3,0.9,0.8,1.6,0.8c0.7,0,1.2-0.5,1.6-0.8c0.4-0.3,1-0.8,1.6-0.8s1.2,0.5,1.6,0.8c0.5,0.3,0.9,0.8,1.6,0.8
	c0.6,0,1-0.5,1.6-0.8c0.5-0.3,1.6-0.8,1.6-0.8v-1.6v-1.6C22,16.7,21,17.2,20.4,17.5z"></path><path fill="#ffffff" transform="translate(2 2)" d="M21,12c-1.2,0-1.9-1.9-2.4-2.6C18.5,9.3,13.5,9,13,10.1l-2.2-2.6c0,0-0.2-0.2-0.6-0.2
	c-0.2,0-0.4,0.1-0.6,0.2L7.1,9.6L5.9,5.9l0,0C5.6,5.1,4.8,4.6,4,4.7c-1,0.1-1.7,1-1.5,2c0,0.1,0,0.2,0.1,0.3l0,0l0,0l0,0l1.3,4.5
	c0,0,0.2,0.2,0.7,0.5H0v4.7c0,0,1.2-0.5,1.6-0.8s0.8-0.8,1.6-0.8c0.9,0,1.2,0.5,1.6,0.8s0.9,0.8,1.6,0.8c0.8,0,1.2-0.5,1.6-0.8
	s0.8-0.8,1.6-0.8s1.2,0.5,1.6,0.8c0.4,0.3,0.9,0.8,1.6,0.8c0.7,0,1.2-0.5,1.6-0.8c0.4-0.3,1-0.8,1.6-0.8s1.2,0.5,1.6,0.8
	c0.1,0.1,0.3,0.2,0.4,0.3l4-4.2C22,12,21,12,21,12z M10.1,10l1.4,2h-3L10.1,10z"></path></svg>