<?xml version="1.0" encoding="utf-8"?>
<!-- Generator: Adobe Illustrator 25.4.1, SVG Export Plug-In . SVG Version: 6.00 Build 0)  -->
<svg version="1.1" id="Layer_1" xmlns="http://www.w3.org/2000/svg" xmlns:xlink="http://www.w3.org/1999/xlink" x="0px" y="0px"
	 width="18px" height="18px" viewBox="0 0 18 18" enable-background="new 0 0 18 18" xml:space="preserve">
<path fill="#231F20" d="M4,0h10c2.2,0,4,1.8,4,4v10c0,2.2-1.8,4-4,4H4c-2.2,0-4-1.8-4-4V4C0,1.8,1.8,0,4,0z"/>
<path fill="#FFFFFF" d="M5.1,5.7c0.6-0.1,1.1-0.7,1-1.3s-0.6-1.1-1.3-1c-0.6,0.1-1,0.7-1,1.3C3.9,5.3,4.5,5.8,5.1,5.7z"/>
<path fill="#FFFFFF" d="M15.6,16c-0.3,0-0.6-0.1-0.8-0.2c-0.3-0.1-0.6-0.5-0.9-0.5c-0.3,0-0.6,0.4-0.9,0.5c-0.2,0.1-0.5,0.2-0.8,0.2
	s-0.6-0.1-0.8-0.2c-0.3-0.1-0.6-0.5-0.9-0.5c-0.3,0-0.6,0.4-0.9,0.5C9.4,15.9,9.1,16,8.8,16S8.2,15.9,8,15.8
	c-0.3-0.1-0.6-0.5-0.9-0.5s-0.6,0.4-0.9,0.5C6,15.9,5.7,16,5.4,16c-0.3,0-0.6-0.1-0.8-0.2c-0.3-0.1-0.6-0.5-0.9-0.5
	s-0.6,0.4-0.9,0.5C2.6,15.9,2.3,16,2,16v-1.2c0.3,0,0.6-0.1,0.8-0.2c0.3-0.1,0.6-0.5,0.9-0.5s0.6,0.4,0.9,0.5
	c0.3,0.1,0.5,0.2,0.8,0.2c0.3,0,0.6-0.1,0.8-0.2c0.3-0.1,0.6-0.5,0.9-0.5s0.6,0.4,0.9,0.5s0.5,0.2,0.8,0.2s0.6-0.1,0.8-0.2
	c0.3-0.1,0.6-0.5,0.9-0.5s0.6,0.4,0.9,0.5c0.3,0.1,0.5,0.2,0.8,0.2s0.6-0.1,0.8-0.2c0.3-0.1,0.6-0.5,0.9-0.5c0.3,0,0.6,0.4,0.9,0.5
	c0.3,0.1,0.5,0.2,0.8,0.2C15.6,14.8,15.6,16,15.6,16z"/>
<path fill="#FFFFFF" d="M3.7,13.1c0.3,0,0.6,0.4,0.9,0.5s0.5,0.2,0.8,0.2c0.3,0,0.6-0.1,0.8-0.2c0.3-0.1,0.6-0.5,0.9-0.5
	s0.6,0.4,0.9,0.5s0.5,0.2,0.8,0.2s0.6-0.1,0.8-0.2c0.3-0.1,0.6-0.5,0.9-0.5s0.6,0.4,0.9,0.5c0.3,0.1,0.5,0.2,0.8,0.2
	s0.6-0.1,0.8-0.2c0,0,0.1,0,0.1-0.1l2.9-2.8h-0.6c-0.8,0-1.2-1.2-1.5-1.6c-0.1-0.1-3.2-0.3-3.6,0.4L8.8,7.8c0,0-0.1-0.1-0.4-0.2
	C8.3,7.6,8.2,7.7,8,7.8L6.5,9.2L5.8,6.8C5.6,6.3,5.1,6,4.5,6.1c-0.6,0-1,0.6-1,1.2c0,0.1,0,0.1,0,0.2l0.8,2.8c0,0,0.1,0.1,0.4,0.3H2
	v3.2c0.3,0,0.6-0.1,0.8-0.2C3.1,13.5,3.4,13.1,3.7,13.1z M8.5,9.4l0.8,1.3H7.4L8.5,9.4z"/>
</svg>
