<svg xmlns="http://www.w3.org/2000/svg" viewBox="0 0 18 18" height="18" width="18"><title>paddle-boating-white-14.svg</title><rect fill="none" x="0" y="0" width="18" height="18"></rect><rect x="0" y="0" width="18" height="18" rx="4" ry="4" fill="#231f20"></rect><path fill="#ffffff" transform="translate(2 2)" d="M3.1,3c0.6-0.1,1.1-0.7,1-1.3s-0.6-1.1-1.3-1c-0.6,0.1-1,0.7-1,1.3C1.9,2.6,2.5,3.1,3.1,3z"></path><path fill="#ffffff" transform="translate(2 2)" d="M13,11.5c-0.3,0.2-0.6,0.5-1,0.5c-0.5,0-0.7-0.3-1-0.5c-0.2-0.2-0.6-0.5-1-0.5s-0.7,0.3-1,0.5
	C8.8,11.7,8.4,12,8,12c-0.4,0-0.7-0.3-1-0.5S6.5,11,6,11s-0.8,0.3-1,0.5S4.5,12,4,12s-0.8-0.3-1-0.5S2.6,11,2,11
	c-0.5,0-0.8,0.3-1,0.5S0,12,0,12v1v1c0,0,0.8-0.3,1-0.5S1.5,13,2,13c0.6,0,0.8,0.3,1,0.5S3.5,14,4,14s0.8-0.3,1-0.5S5.5,13,6,13
	s0.7,0.3,1,0.5S7.6,14,8,14c0.4,0,0.8-0.3,1-0.5c0.3-0.2,0.6-0.5,1-0.5s0.8,0.3,1,0.5c0.3,0.2,0.5,0.5,1,0.5c0.4,0,0.7-0.3,1-0.5
	s1-0.5,1-0.5v-1v-1C14,11,13.3,11.3,13,11.5z"></path><path fill="#ffffff" transform="translate(2 2)" d="M13.4,8c-0.8,0-1.2-1.2-1.5-1.6c-0.1-0.1-3.2-0.3-3.6,0.4L6.8,5.1c0,0-0.1-0.1-0.4-0.2C6.3,4.9,6.2,5,6,5.1
	L4.5,6.5L3.8,4.1l0,0C3.6,3.6,3.1,3.3,2.5,3.4c-0.6,0-1,0.6-1,1.2c0,0.1,0,0.1,0,0.2l0,0l0,0l0,0l0.8,2.8c0,0,0.1,0.1,0.4,0.3H0v3
	c0,0,0.8-0.3,1-0.5C1.2,10.3,1.5,10,2,10c0.6,0,0.8,0.3,1,0.5S3.5,11,4,11s0.8-0.3,1-0.5S5.5,10,6,10s0.7,0.3,1,0.5S7.6,11,8,11
	c0.4,0,0.8-0.3,1-0.5c0.3-0.2,0.6-0.5,1-0.5s0.8,0.3,1,0.5c0.1,0.1,0.2,0.1,0.3,0.2L14,8H13.4z M6.5,6.7L7.3,8H5.4L6.5,6.7z"></path></svg>