<?xml version="1.0" encoding="utf-8"?>
<!-- Generator: Adobe Illustrator 25.2.1, SVG Export Plug-In . SVG Version: 6.00 Build 0)  -->
<svg version="1.1" id="Layer_1" xmlns="http://www.w3.org/2000/svg" xmlns:xlink="http://www.w3.org/1999/xlink" x="0px" y="0px"
	 width="27px" height="27px" viewBox="0 0 27 27" enable-background="new 0 0 27 27" xml:space="preserve">
<path fill="#231F20" d="M4,0h19c2.21,0,4,1.79,4,4v19c0,2.21-1.79,4-4,4H4c-2.21,0-4-1.79-4-4V4C0,1.79,1.79,0,4,0z"/>
<path fill="#FFFFFF" d="M16.39,6.75l3.86,3.96v10.54H9.73l-3.98-4.01V6.75H16.39 M17.13,5H4v12.96L9,23h13V10L17.13,5L17.13,5z"/>
<path fill="#FFFFFF" d="M13.69,14.33c0.76,0,1.72-0.57,1.72-1.34c0-0.76-0.64-1.34-1.4-1.34h-2.29v2.67h2.29H13.69z M13.69,10
	c1.65,0,3.31,1.34,3.31,2.99s-1.65,3.05-3.31,3.05h-1.97v2.86H10V10H13.69z"/>
</svg>
