<?xml version="1.0" encoding="utf-8"?>
<!-- Generator: Adobe Illustrator 25.2.1, SVG Export Plug-In . SVG Version: 6.00 Build 0)  -->
<svg version="1.1" id="Layer_1" xmlns="http://www.w3.org/2000/svg" xmlns:xlink="http://www.w3.org/1999/xlink" x="0px" y="0px"
	 width="18px" height="18px" viewBox="0 0 18 18" enable-background="new 0 0 18 18" xml:space="preserve">
<path fill="#231F20" d="M4,0h10c2.21,0,4,1.79,4,4v10c0,2.21-1.79,4-4,4H4c-2.21,0-4-1.79-4-4V4C0,1.79,1.79,0,4,0z"/>
<path fill="#FFFFFF" d="M9,6.01c-0.37,0-1,0-1,0H7v6h1v-2c0,0,0.63,0,1,0c1.1,0,2-0.9,2-2C11,6.91,10.1,6.01,9,6.01z M9,9.01H8v-2h1
	c0.55,0,1,0.45,1,1C10,8.56,9.55,9.01,9,9.01z"/>
<g>
	<path fill="#FFFFFF" d="M11.11,4L14,6.89V14H6.77L4,11.23V5.71v-1.7L11.11,4 M11.52,3L3,3.01v2.7v5.94L6.35,15H15V6.48L11.52,3
		L11.52,3z"/>
</g>
</svg>
