<svg xmlns="http://www.w3.org/2000/svg" viewBox="0 0 27 27" height="27" width="27"><title>passes-and-fees-white-22.svg</title><rect fill="none" x="0" y="0" width="27" height="27"></rect><rect x="0" y="0" width="27" height="27" rx="4" ry="4" fill="#231f20"></rect><path fill="#ffffff" transform="translate(2 2)" d="M6.7,1.6H6.5v1.2h0.3c0.4,0,0.7-0.1,0.7-0.6C7.4,1.8,7.1,1.6,6.7,1.6z"></path><path fill="#ffffff" transform="translate(2 2)" d="M9.4,4c0,0.2,0.2,0.3,0.5,0.3c0.2,0,0.4-0.1,0.5-0.2c0.1-0.2,0.2-0.4,0.2-0.6h-0.3C9.8,3.5,9.4,3.6,9.4,4z"></path><path fill="#ffffff" transform="translate(2 2)" d="M4,0v7h14V0H4z M6.8,3.4H6.5v1.4H5.7V1h1c0.8,0,1.6,0.2,1.6,1.1C8.2,3.1,7.6,3.4,6.8,3.4z M10.5,4.8
	c0-0.1,0-0.3,0-0.4l0,0C10.3,4.7,10,4.9,9.6,4.9c-0.5,0-1-0.3-1-0.8c0-0.4,0.2-0.7,0.5-0.8S9.7,3.1,10,3.1h0.4
	c0-0.4-0.2-0.6-0.6-0.6C9.5,2.5,9.2,2.6,9,2.8V2.2C9.2,2,9.6,2,9.9,2c0.8,0,1.2,0.4,1.2,1.2v0.4c0,0.3,0,0.5,0,0.7s0,0.4,0,0.6
	L10.5,4.8L10.5,4.8z M12.7,4.9c-0.3,0-0.6,0-0.8-0.1V4.2c0.2,0.1,0.5,0.2,0.7,0.2s0.5-0.1,0.5-0.3c0-0.5-1.3-0.2-1.3-1.2
	c0-0.6,0.5-0.9,1.1-0.9c0.3,0,0.6,0.1,0.8,0.1v0.5c-0.2-0.1-0.4-0.1-0.6-0.1c-0.2,0-0.4,0.1-0.4,0.3C12.7,3.2,14,3,14,4
	C13.8,4.6,13.2,4.9,12.7,4.9z M15.2,4.9c-0.3,0-0.6,0-0.8-0.1V4.2c0.2,0.1,0.5,0.2,0.7,0.2s0.5-0.1,0.5-0.3c0-0.5-1.3-0.2-1.3-1.2
	c0-0.6,0.5-0.9,1.1-0.9c0.4,0,0.6,0,0.8,0.1v0.5c-0.2-0.1-0.4-0.1-0.6-0.1c-0.2,0-0.4,0.1-0.4,0.3c0,0.4,1.3,0.2,1.3,1.2
	C16.4,4.6,15.8,4.9,15.2,4.9z"></path><path fill="#ffffff" transform="translate(2 2)" d="M4,8v14h14V8H4z M16,20H6v-1h10V20z M16,17H6v-1h10V17z M16,14H6v-1h10V14z M16,11H6v-1h10V11z"></path></svg>