<svg xmlns="http://www.w3.org/2000/svg" viewBox="0 0 18 18" height="18" width="18"><title>passes-and-fees-white-14.svg</title><rect fill="none" x="0" y="0" width="18" height="18"></rect><rect x="0" y="0" width="18" height="18" rx="4" ry="4" fill="#231f20"></rect><path fill="#ffffff" transform="translate(2 2)" d="M2,0v4h10V0H2z M10,3H5V2H4v1H3V1h2v1h5V3z"></path><path fill="#ffffff" transform="translate(2 2)" d="M2,5v9h10V5H2z M11,13H3v-1h8V13z M11,11H3v-1h8V11z M11,9H3V8h8V9z M11,7H3V6h8V7z"></path></svg>