<svg xmlns="http://www.w3.org/2000/svg" viewBox="0 0 27 27" height="27" width="27"><title>passport-stamps-white-22.svg</title><rect fill="none" x="0" y="0" width="27" height="27"></rect><rect x="0" y="0" width="27" height="27" rx="4" ry="4" fill="#231f20"></rect><path fill="#ffffff" transform="translate(2 2)" d="M5.1,16.3L3,10.5l1.2-0.4l2.4,2c0.6,0.5,1.2,1.1,1.7,1.6l0,0c-0.4-0.7-0.6-1.5-0.9-2.4l-0.7-2l1-0.3l2.1,5.8
	l-1.1,0.4l-2.4-2c-0.6-0.5-1.2-1.1-1.7-1.6l0,0c0.3,0.7,0.6,1.5,0.9,2.5L6.1,16L5.1,16.3z"></path><path fill="#ffffff" transform="translate(2 2)" d="M9.1,8.4C9.5,8.2,10,8,10.7,7.8c0.8-0.3,1.4-0.3,1.9-0.1c0.4,0.2,0.8,0.5,1,1.1c0.2,0.6,0.2,1.1,0,1.5
	c-0.3,0.6-0.9,1-1.6,1.3c-0.2,0.1-0.4,0.1-0.5,0.1l0.8,2.2l-1.1,0.4L9.1,8.4z M11.1,10.8c0.2,0,0.3-0.1,0.5-0.1
	c0.8-0.3,1.1-0.8,0.9-1.5c-0.2-0.6-0.8-0.8-1.5-0.6c-0.3,0.1-0.5,0.2-0.6,0.3L11.1,10.8z"></path><path fill="#ffffff" transform="translate(2 2)" d="M15.5,11.3c0.4,0.1,1,0.1,1.5-0.1c0.7-0.2,0.9-0.7,0.8-1.2c-0.2-0.4-0.5-0.6-1.4-0.6c-1.1,0-1.9-0.3-2.2-1.1
	c-0.3-1,0.2-2,1.5-2.4c0.6-0.2,1.1-0.2,1.5-0.2l0.1,0.9c-0.3,0-0.7-0.1-1.3,0.1c-0.7,0.2-0.8,0.7-0.7,1c0.2,0.4,0.6,0.5,1.5,0.6
	c1.1,0,1.8,0.4,2.1,1.2c0.3,0.9-0.1,2-1.6,2.5c-0.6,0.2-1.3,0.3-1.7,0.2L15.5,11.3z"></path><path fill="#ffffff" transform="translate(2 2)" d="M11,22C4.9,22,0,17.1,0,11S4.9,0,11,0s11,4.9,11,11S17.1,22,11,22z M11,1.3c-5.4,0-9.7,4.4-9.7,9.7
	s4.4,9.7,9.7,9.7s9.7-4.4,9.7-9.7S16.4,1.3,11,1.3z"></path></svg>