<svg xmlns="http://www.w3.org/2000/svg" viewBox="0 0 27 27" height="27" width="27"><title>pedestrian-crossing-white-22.svg</title><rect fill="none" x="0" y="0" width="27" height="27"></rect><rect x="0" y="0" width="27" height="27" rx="4" ry="4" fill="#231f20"></rect><path fill="#ffffff" transform="translate(2 2)" d="M11.8,3.3c0.9,0.1,1.7-0.6,1.8-1.5c0-0.9-0.6-1.7-1.5-1.8s-1.7,0.6-1.8,1.5S10.9,3.2,11.8,3.3z"></path><path fill="#ffffff" transform="translate(2 2)" d="M10.4,4c0.3-0.2,0.7-0.4,1.2-0.3c0.6,0,1,0.4,1.3,0.8l1.7,3.3l2.3,1.6c0.2,0.1,0.3,0.4,0.3,0.7
	c0,0.4-0.4,0.7-0.8,0.7c-0.1,0-0.2-0.1-0.3-0.1L13.6,9c-0.1-0.1-0.1-0.1-0.2-0.2l-0.6-1.2l-0.7,3.3l2.9,3.5c0.1,0.1,0.1,0.2,0.1,0.4
	l0.8,4.2c0,0.1,0,0.2,0,0.2c0,0.6-0.6,1.1-1.2,1c-0.5,0-0.9-0.4-1-0.9L13,15.4l-2.4-2.6L10,15.3c0,0.1-0.2,0.4-0.2,0.5l-2.3,3.8
	c-0.2,0.4-0.6,0.6-1,0.5c-0.6,0-1.1-0.6-1-1.2c0-0.2,0.1-0.4,0.1-0.5l2.1-3.6L9.5,7L8.2,7.8l-0.6,2.8c-0.1,0.4-0.4,0.6-0.8,0.6
	s-0.7-0.4-0.7-0.8v-0.1L6.9,7c0-0.1,0.1-0.3,0.2-0.4L10.4,4z"></path><path fill="#ffffff" transform="translate(2 2)" d="M2,16h3v1H2V16z M8,16h3v1H8V16z M14,16h3v1h-3V16z M20,16h2v1h-2V16z M0,21h3v1H0V21z M6,21h3v1H6V21z
	 M12,21h3v1h-3V21z M18,21h3v1h-3V21z"></path></svg>