<svg xmlns="http://www.w3.org/2000/svg" viewBox="0 0 18 18" height="18" width="18"><title>pedestrian-crossing-white-14.svg</title><rect fill="none" x="0" y="0" width="18" height="18"></rect><rect x="0" y="0" width="18" height="18" rx="4" ry="4" fill="#231f20"></rect><path fill="#ffffff" transform="translate(2 2)" d="M7.5,2.1c0.6,0,1.1-0.4,1.1-1S8.2,0,7.6,0c-0.5,0-1,0.4-1.1,1C6.5,1.5,6.9,2.1,7.5,2.1z M6.6,2.5
	c0.2-0.1,0.5-0.2,0.7-0.2c0.4,0,0.7,0.3,0.8,0.5l1.1,2.1l1.4,1c0.1,0.1,0.2,0.2,0.2,0.4c0,0.3-0.2,0.5-0.5,0.4c-0.1,0-0.1,0-0.2-0.1
	l-1.5-1L8.5,5.5L8.1,4.7L7.6,6.8L9.5,9c0,0.1,0.1,0.1,0.1,0.2l0.5,2.7c0,0.1,0,0.1,0,0.1c0,0.4-0.4,0.7-0.8,0.7
	c-0.3,0-0.6-0.3-0.6-0.6L8.2,9.6L6.6,8L6.3,9.6c0,0.1-0.1,0.2-0.1,0.3l-1.5,2.4c-0.1,0.2-0.4,0.4-0.7,0.3c-0.4,0-0.7-0.4-0.7-0.8
	c0-0.1,0.1-0.2,0.1-0.3l1.4-2.3l1.1-5L5.2,4.9L4.8,6.7c0,0.2-0.2,0.4-0.5,0.4S3.8,6.9,3.9,6.6c0,0,0,0,0-0.1l0.5-2.1
	c0-0.1,0.1-0.2,0.1-0.2L6.6,2.5z M0,13h2v1H0V13z M4,13h2v1H4V13z M8,13h2v1H8V13z M11,13h2v1h-2V13z M1,10h2v1H1V10z M5,10h2v1H5
	V10z M9,10h2v1H9V10z M13,10h1v1h-1V10z"></path></svg>