<svg xmlns="http://www.w3.org/2000/svg" viewBox="0 0 18 18" height="18" width="18"><title>personal-watercraft-white-14.svg</title><rect fill="none" x="0" y="0" width="18" height="18"></rect><rect x="0" y="0" width="18" height="18" rx="4" ry="4" fill="#231f20"></rect><path fill="#ffffff" transform="translate(2 2)" d="M4.5,3.2c0.6-0.1,1.1-0.6,1-1.3C5.4,1.4,4.9,0.9,4.2,1c-0.6,0.1-1.1,0.6-1,1.3C3.3,2.9,3.9,3.3,4.5,3.2z"></path><path fill="#ffffff" transform="translate(2 2)" d="M13,11.5c-0.3,0.2-0.6,0.5-1,0.5c-0.5,0-0.7-0.3-1-0.5c-0.2-0.2-0.6-0.5-1-0.5s-0.7,0.3-1,0.5
	C8.8,11.7,8.4,12,8,12c-0.4,0-0.7-0.3-1-0.5S6.5,11,6,11s-0.8,0.3-1,0.5S4.5,12,4,12s-0.8-0.3-1-0.5S2.6,11,2,11
	c-0.5,0-0.8,0.3-1,0.5S0,12,0,12v1v1c0,0,0.8-0.3,1-0.5S1.5,13,2,13c0.6,0,0.8,0.3,1,0.5S3.5,14,4,14s0.8-0.3,1-0.5S5.5,13,6,13
	s0.7,0.3,1,0.5S7.6,14,8,14c0.4,0,0.8-0.3,1-0.5c0.3-0.2,0.6-0.5,1-0.5s0.8,0.3,1,0.5c0.3,0.2,0.5,0.5,1,0.5c0.4,0,0.7-0.3,1-0.5
	s1-0.5,1-0.5v-1v-1C14,11,13.3,11.3,13,11.5z"></path><path fill="#ffffff" transform="translate(2 2)" d="M2,10c0.6,0,0.8,0.3,1,0.5c0.2,0.1,0.4,0.3,0.7,0.4c0.2,0,0.4,0,0.6,0c0.3-0.1,0.5-0.3,0.7-0.4
	C5.2,10.3,5.5,10,6,10s0.7,0.3,1,0.5C7.2,10.7,7.5,11,7.9,11C8,11,8,11,8.1,11c0.4,0,0.7-0.3,0.9-0.5c0.3-0.2,0.6-0.5,1-0.5
	s0.8,0.3,1,0.5l0.1,0.1c1.1-0.5,2.7-1.4,2.7-1.5c0.2-0.2,0.2-0.4,0-0.5c-0.1,0-4.7-2.4-4.7-2.4L8,4.7l0,0c-0.2-0.1-0.4-0.1-0.6,0
	l0,0C7.3,4.8,7.3,5,7.4,5.2l0.9,1.1l0,0L7.5,7.9L5.6,7.5L5.5,6.8l1.6-0.2c0.1,0,0.1,0,0.2-0.1C7.6,6.4,7.7,6,7.5,5.8
	C7.4,5.6,7.2,5.5,7,5.5L5.4,5.7L5.2,4.5c0-0.6-0.6-1-1.2-1C3.4,3.6,2.9,4.2,3,4.8l0.3,2.8c0,0.4,0.2,0.7,0.5,0.8L1.3,8.7l-0.8,1.9
	c0,0,0.1,0,0.2,0c0.1-0.1,0.2-0.1,0.3-0.2C1.2,10.3,1.5,10,2,10z"></path></svg>