<?xml version="1.0" encoding="utf-8"?>
<!-- Generator: Adobe Illustrator 25.4.1, SVG Export Plug-In . SVG Version: 6.00 Build 0)  -->
<svg version="1.1" id="Layer_1" xmlns="http://www.w3.org/2000/svg" xmlns:xlink="http://www.w3.org/1999/xlink" x="0px" y="0px"
	 width="18px" height="18px" viewBox="0 0 18 18" enable-background="new 0 0 18 18" xml:space="preserve">
<rect fill="none" width="18" height="18"/>
<path fill="#231F20" d="M4,0h10c2.2,0,4,1.8,4,4v10c0,2.2-1.8,4-4,4H4c-2.2,0-4-1.8-4-4V4C0,1.8,1.8,0,4,0z"/>
<path fill="#FFFFFF" d="M6.5,5.2c0.6-0.1,1.1-0.6,1-1.3C7.4,3.4,6.9,2.9,6.2,3c-0.6,0.1-1.1,0.6-1,1.3C5.3,4.9,5.9,5.3,6.5,5.2z"/>
<path fill="#FFFFFF" d="M15.6,14.5c-0.3,0-0.6-0.1-0.8-0.2c-0.3-0.1-0.6-0.5-0.9-0.5c-0.3,0-0.6,0.4-0.9,0.5
	c-0.2,0.1-0.5,0.2-0.8,0.2s-0.6-0.1-0.8-0.2c-0.3-0.1-0.6-0.5-0.9-0.5c-0.3,0-0.6,0.4-0.9,0.5c-0.2,0.1-0.5,0.2-0.8,0.2
	S8.2,14.4,8,14.3c-0.3-0.1-0.6-0.5-0.9-0.5s-0.6,0.4-0.9,0.5c-0.2,0.1-0.5,0.2-0.8,0.2c-0.3,0-0.6-0.1-0.8-0.2
	c-0.3-0.1-0.6-0.5-0.9-0.5s-0.6,0.4-0.9,0.5c-0.2,0.1-0.5,0.2-0.8,0.2v-1.2c0.3,0,0.6-0.1,0.8-0.2c0.3-0.1,0.6-0.5,0.9-0.5
	s0.6,0.4,0.9,0.5c0.3,0.1,0.5,0.2,0.8,0.2c0.3,0,0.6-0.1,0.8-0.2c0.3-0.1,0.6-0.5,0.9-0.5S7.7,13,8,13.1s0.5,0.2,0.8,0.2
	s0.6-0.1,0.8-0.2c0.3-0.1,0.6-0.5,0.9-0.5s0.6,0.4,0.9,0.5c0.3,0.1,0.5,0.2,0.8,0.2s0.6-0.1,0.8-0.2c0.3-0.1,0.6-0.5,0.9-0.5
	c0.3,0,0.6,0.4,0.9,0.5c0.3,0.1,0.5,0.2,0.8,0.2C15.6,13.3,15.6,14.5,15.6,14.5z"/>
<path fill="#FFFFFF" d="M15.8,10.6c-0.1,0-4.7-2.4-4.7-2.4L10,6.7c-0.2-0.1-0.4-0.1-0.6,0C9.3,6.8,9.3,7,9.4,7.2l0.9,1.1L9.5,9.9
	L7.6,9.5L7.5,8.8l1.6-0.2c0.1,0,0.1,0,0.2-0.1C9.6,8.4,9.7,8,9.5,7.8C9.4,7.6,9.2,7.5,9,7.5L7.4,7.7L7.2,6.5c0-0.6-0.6-1-1.2-1
	C5.4,5.6,4.9,6.2,5,6.8l0.3,2.8c0,0.4,0.2,0.7,0.5,0.8l-2.5,0.3l-0.6,1.4h0.1c0.3-0.1,0.6-0.5,0.9-0.5s0.6,0.4,0.9,0.5
	s0.5,0.2,0.8,0.2c0.3,0,0.6-0.1,0.8-0.2c0.3-0.1,0.6-0.5,0.9-0.5c0.3,0,0.6,0.4,0.9,0.5s0.5,0.2,0.8,0.2s0.6-0.1,0.8-0.2
	c0.3-0.1,0.6-0.5,0.9-0.5s0.6,0.4,0.9,0.5c0.3,0.1,0.5,0.2,0.8,0.2s0.6-0.1,0.8-0.2c0.3-0.1,0.6-0.5,0.9-0.5c0.2,0,0.4,0.2,0.6,0.3
	c0.7-0.4,1.3-0.7,1.3-0.8C16,10.9,16,10.7,15.8,10.6z"/>
</svg>
