<svg xmlns="http://www.w3.org/2000/svg" viewBox="0 0 27 27" height="27" width="27"><title>personal-watercraft-white-22.svg</title><rect fill="none" x="0" y="0" width="27" height="27"></rect><rect x="0" y="0" width="27" height="27" rx="4" ry="4" fill="#231f20"></rect><path fill="#ffffff" transform="translate(2 2)" d="M7.1,5.1c1-0.1,1.7-1,1.6-2s-1-1.7-2-1.6s-1.7,1-1.6,2S6.1,5.2,7.1,5.1z"></path><path fill="#ffffff" transform="translate(2 2)" d="M20.4,17.5c-0.5,0.3-0.9,0.8-1.6,0.8s-1.1-0.5-1.6-0.8c-0.4-0.3-1-0.8-1.6-0.8s-1.2,0.4-1.6,0.8
	c-0.3,0.3-0.9,0.8-1.6,0.8c-0.7,0-1.2-0.5-1.6-0.8c-0.4-0.3-0.8-0.8-1.6-0.8c-0.7,0-1.2,0.5-1.6,0.8S6.8,18.3,6,18.3
	c-0.7,0-1.2-0.5-1.6-0.8c-0.4-0.2-0.7-0.8-1.6-0.8c-0.8,0-1.2,0.5-1.6,0.8c0,0.3-1.2,0.8-1.2,0.8v1.6l0,0v1.6c0,0,1.2-0.5,1.6-0.8
	s0.8-0.8,1.6-0.8c0.9,0,1.2,0.5,1.6,0.8s0.9,0.8,1.6,0.8c0.8,0,1.2-0.5,1.6-0.8s0.8-0.8,1.6-0.8s1.2,0.5,1.6,0.8
	c0.4,0.3,0.9,0.8,1.6,0.8c0.7,0,1.2-0.5,1.6-0.8c0.4-0.3,1-0.8,1.6-0.8s1.2,0.5,1.6,0.8c0.5,0.3,0.9,0.8,1.6,0.8
	c0.6,0,1-0.5,1.6-0.8c0.5-0.3,1.6-0.8,1.6-0.8v-1.6v-1.6C22,16.7,21,17.2,20.4,17.5z"></path><path fill="#ffffff" transform="translate(2 2)" d="M3.1,15.7c0.9,0,1.2,0.5,1.6,0.8c0.4,0.3,0.9,0.8,1.6,0.8c0.8,0,1.2-0.5,1.6-0.8s0.8-0.8,1.6-0.8
	s1.2,0.5,1.6,0.8c0.4,0.3,0.9,0.8,1.6,0.8c0.7,0,1.2-0.5,1.6-0.8c0.4-0.3,1-0.8,1.6-0.8c0.5,0,0.9,0.3,1.3,0.6
	c1.9-0.6,4.1-1.3,4.8-1.9c0.3-0.3,0.3-0.7,0-0.9c-0.1,0-7.4-3.7-7.4-3.7l-1.8-2.4l0,0c-0.3-0.2-0.6-0.2-0.9,0l0,0
	c-0.2,0.2-0.2,0.5-0.1,0.7l1.4,1.8l0,0l-1.1,2.6l-3-0.8L9,10.6l2.5-0.3c0.1,0,0.2,0,0.3-0.1c0.4-0.2,0.6-0.7,0.4-1.1
	c-0.2-0.3-0.5-0.5-0.8-0.4L8.5,9L8.2,7.1c-0.1-1-1-1.7-2-1.6c-1,0.1-1.7,1-1.6,2l0.5,4.3c0.1,0.6,0.4,1,0.8,1.3l-4,0.5l-1.2,3.1h0.1
	c0.1,0,0.2,0,0.3,0c0.1-0.1,0.2-0.1,0.3-0.2C2,16.2,2.3,15.7,3.1,15.7z"></path></svg>