<?xml version="1.0" encoding="utf-8"?>
<!-- Generator: Adobe Illustrator 27.9.1, SVG Export Plug-In . SVG Version: 6.00 Build 0)  -->
<svg version="1.1" id="Layer_1" xmlns="http://www.w3.org/2000/svg" xmlns:xlink="http://www.w3.org/1999/xlink" x="0px" y="0px"
	 viewBox="0 0 27 27" enable-background="new 0 0 27 27" xml:space="preserve">
<rect fill="none" width="27" height="27"/>
<path fill="#231F20" d="M4,0h19c2.2,0,4,1.8,4,4v19c0,2.2-1.8,4-4,4H4c-2.2,0-4-1.8-4-4V4C0,1.8,1.8,0,4,0z"/>
<path fill="#FFFFFF" d="M10.8,16.9h5.6v5c0,0.8,0.7,1.5,1.5,1.5c0.8,0,1.5-0.7,1.5-1.5v-5c0.4,0,0.5-0.3,0.5-0.6v-3.7l-4.6-2.3H5.2
	L4,9.6C3.5,9.4,3,9.5,2.8,9.9c-0.2,0.4-0.1,0.9,0.3,1.2l2,1.2v9.7c0,0.8,0.7,1.5,1.5,1.5s1.5-0.7,1.5-1.5v-3.8l2.7,4.5
	c0.4,0.7,1.3,0.9,2,0.5s0.9-1.3,0.5-2L10.8,16.9z"/>
<polygon fill="#FFFFFF" points="15.6,9.2 19.6,11.3 19.6,10.5 23.1,10.5 24.4,7.8 15.6,3.6 "/>
</svg>
