<?xml version="1.0" encoding="utf-8"?>
<!-- Generator: Adobe Illustrator 27.9.1, SVG Export Plug-In . SVG Version: 6.00 Build 0)  -->
<svg version="1.1" id="Layer_1" xmlns="http://www.w3.org/2000/svg" xmlns:xlink="http://www.w3.org/1999/xlink" x="0px" y="0px"
	 viewBox="0 0 27 27" enable-background="new 0 0 27 27" xml:space="preserve">
<rect fill="none" width="27" height="27"/>
<path fill="#231F20" d="M4,0h19c2.2,0,4,1.8,4,4v19c0,2.2-1.8,4-4,4H4c-2.2,0-4-1.8-4-4V4C0,1.8,1.8,0,4,0z"/>
<polygon fill="#FFFFFF" points="15.2,10.6 2.5,4.5 2.5,3.3 15.6,9.6 "/>
<path fill="#FFFFFF" d="M10.9,17.1h5.6v5c0,0.8,0.7,1.5,1.5,1.5s1.5-0.7,1.5-1.5v-5c0.4,0,0.5-0.3,0.5-0.6v-3.7l-4.6-2.3H5.3
	L4.1,9.9c-0.5-0.2-1-0.1-1.2,0.3c-0.2,0.4-0.1,0.9,0.3,1.2l2,1.2v9.7c0,0.8,0.7,1.5,1.5,1.5s1.5-0.7,1.5-1.5v-3.8l2.7,4.5
	c0.4,0.7,1.3,0.9,2,0.5s0.9-1.3,0.5-2L10.9,17.1z"/>
<polygon fill="#FFFFFF" points="15.7,9.6 19.8,11.6 19.8,10.8 23.3,10.8 24.5,8.1 15.7,3.9 "/>
</svg>
