<svg xmlns="http://www.w3.org/2000/svg" viewBox="0 0 18 18" height="18" width="18"><title>photography-white-14.svg</title><rect fill="none" x="0" y="0" width="18" height="18"></rect><rect x="0" y="0" width="18" height="18" rx="4" ry="4" fill="#231f20"></rect><path fill="#ffffff" transform="translate(2 2)" d="M4.5,6C5.3,6,6,6.7,6,7.5S5.3,9,4.5,9S3,8.3,3,7.5S3.7,6,4.5,6z M12,3H5V2H2v1C0.9,3,0,3.9,0,5v5
	c0,1.1,0.9,2,2,2h10c1.1,0,2-0.9,2-2V5C14,3.9,13.1,3,12,3z M4.5,10.5c-1.7,0-3-1.3-3-3s1.3-3,3-3s3,1.3,3,3S6.2,10.5,4.5,10.5z
	 M12,5h-2V4h2V5z"></path></svg>