<svg xmlns="http://www.w3.org/2000/svg" viewBox="0 0 27 27" height="27" width="27"><title>photography-white-22.svg</title><rect fill="none" x="0" y="0" width="27" height="27"></rect><rect x="0" y="0" width="27" height="27" rx="4" ry="4" fill="#231f20"></rect><path fill="#ffffff" transform="translate(2 2)" d="M3,3h4v1H3V3z M7,9.5c1.4,0,2.5,1.1,2.5,2.5S8.4,14.5,7,14.5S4.5,13.4,4.5,12S5.6,9.5,7,9.5z M19,5H3
	C1.3,5,0,6.3,0,8v8c0,1.6,1.3,3,3,3h16c1.7,0,3-1.4,3-3V8C22,6.3,20.7,5,19,5z M7,17c-2.8,0-5-2.2-5-5s2.2-5,5-5s5,2.2,5,5
	S9.8,17,7,17z M19,9h-2c-0.5,0-1-0.5-1-1s0.5-1,1-1h2c0.5,0,1,0.5,1,1S19.5,9,19,9z"></path></svg>