<svg xmlns="http://www.w3.org/2000/svg" viewBox="0 0 27 27" height="27" width="27"><title>picnic-shelter-white-22.svg</title><rect fill="none" x="0" y="0" width="27" height="27"></rect><rect x="0" y="0" width="27" height="27" rx="4" ry="4" fill="#231f20"></rect><path fill="#ffffff" transform="translate(2 2)" d="M22,1.6V0h-1.3L0,9.9v2.2l4-1.9V22h1h1h16v-2H6V9.2L22,1.6z"></path><path fill="#ffffff" transform="translate(2 2)" d="M22,14h-2.4l-1.5-3H21V9h-3.9h-2.2h-2H9v2h2.9l-1.5,3H8v2h1.4l-1.5,3h2.2l1.5-3h6.8l1.5,3H22v-0.2L20.6,16
	H22V14z M12.6,14l1.5-3h1.8l1.5,3H12.6z"></path></svg>