<svg xmlns="http://www.w3.org/2000/svg" viewBox="0 0 18 18" height="18" width="18"><title>picnic-shelter-white-14.svg</title><rect fill="none" x="0" y="0" width="18" height="18"></rect><rect x="0" y="0" width="18" height="18" rx="4" ry="4" fill="#231f20"></rect><path fill="#ffffff" transform="translate(2 2)" d="M14,9h-1.9l-1-2H13V6h-2.4h-1H9.4h-1H6v1h1.9l-1,2H5v1h1.4l-1,2h1.1l1-2h3.9l1,2h1.1l-1-2H14V9z M8.1,9l1-2
	H10l1,2H8.1z M14,1V0h-0.2L3.1,5H3L0,6.4v1.2l3-1.4V13v1h11v-1H4V5.7L14,1z"></path></svg>