<svg xmlns="http://www.w3.org/2000/svg" viewBox="0 0 18 18" height="18" width="18"><title>pit-toilet-white-14.svg</title><rect fill="none" x="0" y="0" width="18" height="18"></rect><rect x="0" y="0" width="18" height="18" rx="4" ry="4" fill="#231f20"></rect><path fill="#ffffff" transform="translate(2 2)" d="M7,0L4,1.3V0H2v2.1L0,3v2h1v9h12V5h1V3L7,0z M7,12c-2.2,0-4-1.8-4-4s1.8-4,4-4c0.2,0,0.3,0,0.5,0.1
	C6.1,4.3,5,5.5,5,7c0,1.7,1.3,3,3,3c1.5,0,2.7-1.1,2.9-2.5C11,7.7,11,7.8,11,8C11,10.2,9.2,12,7,12z"></path></svg>