<?xml version="1.0" encoding="utf-8"?>
<!-- Generator: Adobe Illustrator 26.3.1, SVG Export Plug-In . SVG Version: 6.00 Build 0)  -->
<svg version="1.1" id="Layer_1" xmlns="http://www.w3.org/2000/svg" xmlns:xlink="http://www.w3.org/1999/xlink" x="0px" y="0px"
	 viewBox="0 0 18 18" height="18" width="18" enable-background="new 0 0 18 18" xml:space="preserve">
<path fill="#231F20" d="M4,0h10c2.2,0,4,1.8,4,4v10c0,2.2-1.8,4-4,4H4c-2.2,0-4-1.8-4-4V4C0,1.8,1.8,0,4,0z"/>
<path fill="#FFFFFF" d="M10.9,13.4c-0.1-0.2-0.1-0.3-0.1-0.3c1.3-0.7,2.2-2.4,2.2-2.5c0.1-0.2-0.2-0.4-0.5-0.4c-0.2,0-5.5,0-5.5,0
	V4.4H3v7c0,1.4,1.3,1.9,2.6,2.4c0.2,0,0.4,0.2,0.5,0.4c0.2,0.4-0.1,1-0.2,1.2L5.5,16h6.7L12,15.4C11.9,15.4,11,13.8,10.9,13.4z"/>
<path fill="#FFFFFF" d="M14.8,7.6L8.2,2.4C8.1,2.3,8,2.3,7.9,2.3S7.6,2.4,7.5,2.5C7.4,2.7,7.4,3,7.6,3.2l6.6,5.2
	c0.1,0.1,0.2,0.1,0.3,0.1s0.3-0.1,0.4-0.2C15.1,8.1,15,7.8,14.8,7.6z"/>
<path fill="#FFFFFF" d="M13.2,5.7c0-0.2,0-0.3-0.1-0.5l0,0c-0.3-1.2-1.6-3-2-3.2C11,2.1,10.5,2.8,10,3.5L13.2,6
	C13.2,5.9,13.2,5.8,13.2,5.7z"/>
<path fill="#FFFFFF" d="M9.2,5.1L9.2,5.1L9.2,5.1c0,0.2-0.1,0.4-0.1,0.6c0,1.1,0.9,2,2,2c0.5,0,0.9-0.2,1.2-0.4l-3-2.4
	C9.3,4.9,9.3,5,9.2,5.1z"/>
</svg>
