<?xml version="1.0" encoding="utf-8"?>
<!-- Generator: Adobe Illustrator 26.3.1, SVG Export Plug-In . SVG Version: 6.00 Build 0)  -->
<svg version="1.1" id="Layer_1" xmlns="http://www.w3.org/2000/svg" xmlns:xlink="http://www.w3.org/1999/xlink" x="0px" y="0px"
	 viewBox="0 0 27 27" style="enable-background:new 0 0 27 27;" xml:space="preserve">
<style type="text/css">
	.st0{fill:none;}
	.st1{fill:#231F20;}
	.st2{fill:#FFFFFF;}
</style>
<rect class="st0" width="27" height="27"/>
<path class="st1" d="M4,0h19c2.2,0,4,1.8,4,4v19c0,2.2-1.8,4-4,4H4c-2.2,0-4-1.8-4-4V4C0,1.8,1.8,0,4,0z"/>
<path class="st2" d="M17.4,20c-0.1-0.3-0.1-0.5-0.1-0.5c2.1-1.2,3.4-3.8,3.4-3.9c0.1-0.3-0.4-0.5-0.8-0.5c-0.3,0-8.3,0-8.3,0l0-9H5
	v10.7c0,2.2,2.1,3,4,3.8c0.4,0.1,0.7,0.4,0.8,0.7c0.3,0.7-0.1,1.6-0.3,2L8.9,24h10.6l-0.4-0.9C19,23.1,17.6,20.5,17.4,20z"/>
<path class="st2" d="M12.4,2.6c-0.1-0.1-0.3-0.2-0.5-0.2c-0.2,0-0.5,0.1-0.6,0.3C11,3.1,11,3.6,11.4,3.9L21.7,12
	c0.1,0.1,0.3,0.2,0.5,0.2c0.2,0,0.5-0.1,0.6-0.3c0.3-0.3,0.2-0.8-0.1-1.1L12.4,2.6z"/>
<path class="st2" d="M20.2,7.8c0-0.3,0-0.5-0.1-0.7h0c-0.4-1.9-2.5-4.6-3.1-5c-0.3,0.2-1.1,1.1-1.8,2.3l4.9,3.9
	C20.2,8,20.2,7.9,20.2,7.8z"/>
<path class="st2" d="M14,6.8c0,0.1-0.1,0.1-0.1,0.2h0c-0.1,0.2-0.1,0.5-0.1,0.7c0,1.8,1.4,3.2,3.2,3.2c0.7,0,1.3-0.2,1.8-0.6L14,6.6
	C14,6.7,14,6.8,14,6.8z"/>
</svg>
