<svg xmlns="http://www.w3.org/2000/svg" viewBox="0 0 27 27" height="27" width="27"><title>pit-toilet-white-22.svg</title><rect fill="none" x="0" y="0" width="27" height="27"></rect><rect x="0" y="0" width="27" height="27" rx="4" ry="4" fill="#231f20"></rect><path fill="#ffffff" transform="translate(2 2)" d="M11,0L5,1.6V0H3v2.2L0,3v3l2-0.5V22h18V5.5L22,6V3L11,0z M11,16c-2.2,0-4-1.8-4-4s1.8-4,4-4
	c0.2,0,0.3,0,0.5,0.1C10.1,8.3,9,9.5,9,11c0,1.7,1.3,3,3,3c1.5,0,2.7-1.1,2.9-2.5c0,0.2,0.1,0.3,0.1,0.5C15,14.2,13.2,16,11,16z"></path></svg>