<svg xmlns="http://www.w3.org/2000/svg" viewBox="0 0 18 18" height="18" width="18"><title>playground-white-14.svg</title><rect fill="none" x="0" y="0" width="18" height="18"></rect><rect x="0" y="0" width="18" height="18" rx="4" ry="4" fill="#231f20"></rect><path fill="#ffffff" transform="translate(2 2)" d="M3.2,0l3,5.1l0,0L7,4.5L4.3,0H3.2L3.2,0z M11,10.5l-2.4,1.7L9.1,13l2.4-1.7
	L11,10.5z M9.8,7.8c0.2-0.1,0.4-0.2,0.6-0.2l2.7,0c0.5,0,0.9,0.4,0.9,0.9c0,0.5-0.4,0.9-0.9,0.9l-2.2,0l-2.9,2
	c-1,0.7-1.6-0.1-1.6-0.1L4.1,9.2C3.7,8.8,3.8,7.9,4.2,7.5l3.1-2.2c0.3-0.3,0.8-0.2,1,0.1c0.3,0.3,0.2,0.8-0.1,1l-2,1.4l1.4,1.4
	L9.8,7.8z M3.2,7.6c0.8,0,1.4-0.6,1.4-1.4c0-0.8-0.6-1.4-1.4-1.4c-0.8,0-1.4,0.6-1.4,1.4C1.8,7,2.4,7.6,3.2,7.6z"></path></svg>