<svg xmlns="http://www.w3.org/2000/svg" viewBox="0 0 18 18" height="18" width="18"><title>point-of-interest-white-14.svg</title><rect fill="none" x="0" y="0" width="18" height="18"></rect><rect x="0" y="0" width="18" height="18" rx="4" ry="4" fill="#231f20"></rect><path fill="#ffffff" transform="translate(2 2)" d="M14,10h-2.3l1.6-1.6l-0.7-0.7L11,9.3V7h-1v2.3L8.4,7.7L7.7,8.4L9.3,10H7v1h2.3l-1.6,1.6l0.7,0.7l1.6-1.6V14
	h1v-2.3l1.6,1.6l0.7-0.7L11.7,11H14V10z M5,1v3.3L0.7,0H0v0.7L4.3,5H1v1h4h1V5V1H5z"></path></svg>