<svg xmlns="http://www.w3.org/2000/svg" viewBox="0 0 27 27" height="27" width="27"><title>point-of-interest-white-22.svg</title><rect fill="none" x="0" y="0" width="27" height="27"></rect><rect x="0" y="0" width="27" height="27" rx="4" ry="4" fill="#231f20"></rect><path fill="#ffffff" transform="translate(2 2)" d="M21,15h-2.6l1.8-1.8c0.4-0.4,0.4-1,0-1.4s-1-0.4-1.4,0L17,13.6V11c0-0.5-0.5-1-1-1s-1,0.5-1,1v2.6l-1.8-1.8
	c-0.4-0.4-1-0.4-1.4,0s-0.4,1,0,1.4l1.8,1.8H11c-0.5,0-1,0.5-1,1s0.5,1,1,1h2.6l-1.8,1.8c-0.4,0.4-0.4,1,0,1.4s1,0.4,1.4,0l1.8-1.8
	V21c0,0.5,0.5,1,1,1s1-0.5,1-1v-2.6l1.8,1.8c0.4,0.4,1,0.4,1.4,0s0.4-1,0-1.4L18.4,17H21c0.5,0,1-0.5,1-1S21.5,15,21,15z"></path><path fill="#ffffff" transform="translate(2 2)" d="M9,1C8.5,1,8,1.5,8,2v4.6L1.7,0.3l0,0C1.5,0.1,1.3,0,1,0C0.4,0,0,0.4,0,1c0,0.3,0.1,0.5,0.3,0.7L6.6,8H2
	C1.5,8,1,8.5,1,9s0.5,1,1,1h6h0.6H9c0.5,0,1-0.5,1-1V8.6V8V2C10,1.5,9.5,1,9,1z"></path></svg>