<svg xmlns="http://www.w3.org/2000/svg" viewBox="0 0 27 27" height="27" width="27"><title>post-office-white-22.svg</title><rect fill="none" x="0" y="0" width="27" height="27"></rect><rect x="0" y="0" width="27" height="27" rx="4" ry="4" fill="#231f20"></rect><path fill="#ffffff" transform="translate(2 2)" d="M20.7,3H1.2H0v1.2v13.5v1.2V19h22v-0.1v-1.2V4.2V3H20.7z M20.7,17H20v-1h-1v-1h-1v-1h-1v-1h-1v-1h-1v-1v-1h1V9h1V8h1V7h1V6
		h1V5h1v12H20.7z M1,5h1v1h1v1h1v1h1v1h1v1h1v1v1H6v1H5v1H4v1H3v1H2v1H1V5z M14,10h-1v1h-1v1h-2v-1H9v-1H8V9H7V8H6V7H5V6H4V5H3V4h16
		v1h-1v1h-1v1h-1v1h-1v1h-1V10z M3,17h1v-1h1v-1h1v-1h1v-1h1v-1h1v1h4v-1h1v1h1v1h1v1h1v1h1v1h1v1H3V17z"></path></svg>