<svg xmlns="http://www.w3.org/2000/svg" viewBox="0 0 27 27" height="27" width="27"><title>propane-white-22.svg</title><rect fill="none" x="0" y="0" width="27" height="27"></rect><rect x="0" y="0" width="27" height="27" rx="4" ry="4" fill="#231f20"></rect><path fill="#ffffff" transform="translate(2 2)" d="M15,4V0H7v4C4.9,4.4,3,6.3,3,8.4v7c0,2.2,1.6,4,3.7,4.4V22h8.6v-2.2c2.1-0.4,3.7-2.2,3.7-4.4v-7
	C19,6.3,17.1,4.4,15,4z M12,1h2v3h-2V1z M8,1h2v3H8V1z M13,13.6c-0.5,0.8-2.2,1.7-1.7,3.5h-1.1c-0.8-0.9-3.5-3.9-1.3-6
	c2.2-2,2.5-3.7,1.7-4.5C10.7,6.6,16.2,8.7,13,13.6z"></path></svg>