<svg xmlns="http://www.w3.org/2000/svg" viewBox="0 0 18 18" height="18" width="18"><title>propane-white-14.svg</title><rect fill="none" x="0" y="0" width="18" height="18"></rect><rect x="0" y="0" width="18" height="18" rx="4" ry="4" fill="#231f20"></rect><path fill="#ffffff" transform="translate(2 2)" d="M9.7,2.6V0H4.3v2.6C2.9,2.8,1.9,4,1.9,5.4v4.5c0,1.3,0.9,2.4,2.1,2.7c0.1,0,0,1.4,0,1.4h6c0,0-0.1-1.4,0-1.4
	c1.2-0.3,2.1-1.4,2.1-2.7V5.4C12.1,4,11.1,2.8,9.7,2.6z M8,1h1v2H8V1z M5,1h1v2H5V1z M8.3,8.6C8,9.1,6.9,9.7,7.2,10.9H6.5
	C6,10.3,4.3,8.4,5.7,7C7.1,5.8,7,4.3,6.5,3.7C6.5,3.7,10.3,5.5,8.3,8.6z"></path></svg>