<svg xmlns="http://www.w3.org/2000/svg" viewBox="0 0 27 27" height="27" width="27"><title>propane-bottle-recycling-white-22.svg</title><rect fill="none" x="0" y="0" width="27" height="27"></rect><rect x="0" y="0" width="27" height="27" rx="4" ry="4" fill="#231f20"></rect><path fill="#ffffff" transform="translate(2 2)" d="M15,4V0H7v4C4.9,4.4,3,6.3,3,8.4v7c0,2.2,1.6,4,3.7,4.4V22h8.6v-2.2c2.1-0.4,3.7-2.2,3.7-4.4v-7
	C19,6.3,17.1,4.4,15,4z M12,1h2v3h-2V1z M8,1h2v3H8V1z M10,16H7l-1.5-2.5l1.3-2.3l-1-0.6L8,10.7l1.2,1.9l-0.8-0.4l-0.7,1.3L8.2,14
	H10V16z M9.6,10.4L8,9.3l1.5-2.6h3l1.4,2.5l1-0.6l-1.2,1.9l-2.2,0.1l0.7-0.4l-0.9-1.5h-0.7L9.6,10.4z M15.1,16H12v1l-1-2l1-2v1h1.9
	l0.3-0.5L13.3,12l1.6-1.1l1.6,2.7L15.1,16z"></path></svg>