<svg xmlns="http://www.w3.org/2000/svg" viewBox="0 0 18 18" height="18" width="18"><title>propane-bottle-recycling-white-14.svg</title><rect fill="none" x="0" y="0" width="18" height="18"></rect><rect x="0" y="0" width="18" height="18" rx="4" ry="4" fill="#231f20"></rect><path fill="#ffffff" transform="translate(2 2)" d="M9.7,2.6V0H4.3v2.6C2.9,2.8,2,4,2,5.4v4.5c0,1.3,0.8,2.4,2,2.7c0.1,0,0,1.4,0,1.4h6c0,0-0.1-1.4,0-1.4
	c1.2-0.3,2-1.4,2-2.7V5.4C12,4,11.1,2.8,9.7,2.6z M8,1h1v2H8V1z M5,1h1v2H5V1z M6,9v1H5l0,0L4.2,8.7l1-1.7L6,7.6L5.2,9H6z M5.7,6.2
	l0.5-0.9h1.5l1,1.6L7.8,7.4L7,6L6.5,6.8L5.7,6.2z M9,10H7V9h1.8L8.3,8.3l0.9-0.5l0.5,0.9L9,10z"></path></svg>