<svg xmlns="http://www.w3.org/2000/svg" viewBox="0 0 27 27" height="27" width="27"><title>quagga-mussel-decontamination-station-white-22.svg</title><rect fill="none" x="0" y="0" width="27" height="27"></rect><rect x="0" y="0" width="27" height="27" rx="4" ry="4" fill="#231f20"></rect><path fill="#ffffff" transform="translate(2 2)" d="M17.7,17.5c1,0.7,2,1.3,3.2,1.7L19.5,22c-0.6-0.2-1.2-0.4-1.8-0.7c-0.1-0.1-1-0.6-2.6-1.7
	c-1.3,0.6-2.7,0.8-4.3,0.8c-3,0-5.4-0.9-7.1-2.7s-2.6-4.3-2.6-7.5S2,4.5,3.7,2.7c1.7-1.8,4-2.7,7-2.7c2.9,0,5.2,0.9,6.9,2.7
	s2.6,4.3,2.6,7.5c0,1.7-0.2,3.2-0.7,4.5C19.1,15.7,18.5,16.6,17.7,17.5z M14.5,15.3c0.5-0.6,0.9-1.3,1.1-2.2
	c0.3-0.8,0.4-1.8,0.4-2.9c0-2.3-0.5-4-1.5-5.1s-2.3-1.7-3.9-1.7S7.7,4,6.7,5.1s-1.5,2.8-1.5,5.1s0.5,4,1.5,5.2
	c1,1.1,2.3,1.7,3.8,1.7c0.6,0,1.1-0.1,1.6-0.3c-0.8-0.5-1.6-0.9-2.5-1.2l1.1-2.3C12.1,13.7,13.3,14.4,14.5,15.3z"></path></svg>