<svg xmlns="http://www.w3.org/2000/svg" viewBox="0 0 27 27" height="27" width="27"><title>quiet-white-22.svg</title><rect fill="none" x="0" y="0" width="27" height="27"></rect><rect x="0" y="0" width="27" height="27" rx="4" ry="4" fill="#231f20"></rect><path fill="#ffffff" transform="translate(2 2)" d="M12.3,0.4c-0.6,1.2-1.3,2.7-1.7,3.8L12.3,0.4z"></path><path fill="#ffffff" transform="translate(2 2)" d="M2.3,21.5l-0.7-0.7C1.8,21.1,2.1,21.4,2.3,21.5z"></path><path fill="#ffffff" transform="translate(2 2)" d="M22,0h-9.5l-0.2,0.4l0,0l-1.7,3.8c-0.1,0.3-0.2,0.6-0.3,0.8c-0.2,1.1,2.8,1.5,2.8,1.5s-0.3,1.2-0.6,1.8
	s-0.4,0.6-0.4,1s0.3,0.5,0.3,0.5l2,1.6c0,0-2.4,0.1-1.9,0.7c0.6,0.7,0.8,0.6,1.4,1.8c0.6,1.2,0.2,0.8-0.3,2.2
	c-0.2,0.5-0.3,2.6,4.6,2.7l3.8-0.1V0z"></path><path fill="#ffffff" transform="translate(2 2)" d="M10.9,21.5c0.1-0.1,0.2-0.4,0.3-0.6L10.9,21.5L10.9,21.5z"></path><path fill="#ffffff" transform="translate(2 2)" d="M11.2,20.9c0-0.2,0.1-0.4,0.1-0.7l-1-9.8c0-0.5-0.5-0.9-1.1-0.9s-1,0.4-1,0.9l0.4,5.4l-0.5,0.1L8,15.1
	c0-0.4-0.5-0.6-1.1-0.6s-1,0.4-0.9,0.7l0.2,1l-0.5,0.1l-0.1-0.6c0-0.3-0.5-0.6-1.1-0.5c-0.6,0-1,0.3-1,0.7l0.1,0.9l-0.6,0v-0.1
	c0-0.3-0.5-0.5-1.1-0.5s-1,0.4-0.9,0.9l0.4,2.6c0,0,0.1,0.6,0.4,1l0.7,0.7l0,0l0,0L2.8,22h7.9l0.2-0.4L11.2,20.9z"></path></svg>