<svg xmlns="http://www.w3.org/2000/svg" viewBox="0 0 18 18" height="18" width="18"><title>quiet-white-14.svg</title><rect fill="none" x="0" y="0" width="18" height="18"></rect><rect x="0" y="0" width="18" height="18" rx="4" ry="4" fill="#231f20"></rect><path fill="#ffffff" transform="translate(2 2)" d="M7.2,2.9l1.2-2.7C8,1.2,7.4,2.3,7.2,2.9z"></path><path fill="#ffffff" transform="translate(2 2)" d="M14,0H8.5L8.4,0.3L7.2,2.9c0,0.1-0.1,0.2-0.1,0.3C7,3.9,8.9,4.1,8.9,4.1s0.7,5.3,0.3,6.1
	c-0.2,0.4-0.2,2,4.5,1.7V12H14V0z"></path><path fill="#ffffff" transform="translate(2 2)" d="M2.1,13.7l-0.4-0.4C1.7,13.4,1.9,13.6,2.1,13.7z"></path><path fill="#ffffff" transform="translate(2 2)" d="M7.5,14v-0.3l0,0c0.1-0.2,0.2-0.4,0.2-0.9L7.2,6.6C7.1,6.3,6.8,6,6.5,6C6.1,6,5.8,6.3,5.8,6.6L6,10l-0.3,0.1
	V9.6c0-0.2-0.3-0.4-0.7-0.4c-0.4,0-0.6,0.2-0.6,0.5l0.1,0.7l-0.3,0.1L4.1,10c0-0.2-0.3-0.4-0.7-0.3c-0.4,0-0.6,0.2-0.6,0.4v0.6
	l-0.3,0.1l0,0c0-0.2-0.3-0.3-0.7-0.3s-0.6,0.3-0.6,0.6l0.2,1.7c0,0,0,0.4,0.2,0.7L2,13.9l0,0l0,0L2.4,14H7.5z"></path></svg>