<svg xmlns="http://www.w3.org/2000/svg" viewBox="0 0 27 27" height="27" width="27"><title>radiator-water-white-22.svg</title><rect fill="none" x="0" y="0" width="27" height="27"></rect><rect x="0" y="0" width="27" height="27" rx="4" ry="4" fill="#231f20"></rect><path fill="#ffffff" transform="translate(2 2)" d="M0,1c1.2,0,5.4,1.9,7,4.7L5.4,7c0,0-2-2.4-5.4-3V2V1z"></path><path fill="#ffffff" transform="translate(2 2)" d="M5,11.7C5,12.4,5.7,13,6.5,13S8,12.4,8,11.7S6.5,8,6.5,8S5,11,5,11.7z"></path><path fill="#ffffff" transform="translate(2 2)" d="M13,19c0,1.7-1.3,3-3,3s-3-1.3-3-3s1.3-3,3-3S13,17.3,13,19z M11,18H9v2h2V18z"></path><path fill="#ffffff" transform="translate(2 2)" d="M22,9V7.5h-4L15,12h-1l-3-6H9v1h1l3,6h-1l-7,1l-1,1v4h2c0-2.2,1.8-4,4-4s4,1.8,4,4h8v-6h-6l3-4H22z"></path></svg>