<?xml version="1.0" encoding="utf-8"?>
<!-- Generator: Adobe Illustrator 25.4.1, SVG Export Plug-In . SVG Version: 6.00 Build 0)  -->
<svg version="1.1" id="Layer_1" xmlns="http://www.w3.org/2000/svg" xmlns:xlink="http://www.w3.org/1999/xlink" x="0px" y="0px"
	 width="18px" height="18px" viewBox="0 0 18 18" enable-background="new 0 0 18 18" xml:space="preserve">
<path fill="#231F20" d="M4,0h10c2.2,0,4,1.8,4,4v10c0,2.2-1.8,4-4,4H4c-2.2,0-4-1.8-4-4V4C0,1.8,1.8,0,4,0z"/>
<path fill="#FFFFFF" d="M16,6v1h-2l-2,3h-0.6L14,6H16z M9,5l3,5h-1L9,6H8V5H9z M2,2l4,2L5,5L3,4H2V2z M8.5,13c0.8,0,1.5,0.7,1.5,1.5
	S9.3,16,8.5,16S7,15.3,7,14.5S7.7,13,8.5,13z M16,10h-6l-4,1l-1,1v2h1.1c0.2-1.1,1.2-2,2.4-2s2.2,0.9,2.4,2H16V10z M6,6L5,8v0.3
	C5,8.6,5.1,8.8,5.3,9C5.5,9.2,5.7,9.3,6,9.3S6.5,9.2,6.7,9C6.9,8.8,7,8.6,7,8.3V8L6,6z"/>
</svg>
