<svg xmlns="http://www.w3.org/2000/svg" viewBox="0 0 27 27" height="27" width="27"><title>radios-white-22.svg</title><rect fill="none" x="0" y="0" width="27" height="27"></rect><rect x="0" y="0" width="27" height="27" rx="4" ry="4" fill="#231f20"></rect><path fill="#ffffff" transform="translate(2 2)" d="M18,8h4v9H0V8h4V6.1C4,5.4,4.3,5,5,5h12c0.7,0,1,0.4,1,1.1V8z M17,8V6H5v2H17z M13,13v-3H9v3H13z M4.4,16.1
	c1.8,0,3.3-1.5,3.3-3.3S6.2,9.5,4.4,9.5C2.5,9.5,1,10.9,1,12.8C1,14.6,2.5,16.1,4.4,16.1z M17.7,16.1c1.8,0,3.3-1.5,3.3-3.3
	s-1.5-3.3-3.3-3.3s-3.3,1.5-3.3,3.3C14.3,14.6,15.8,16.1,17.7,16.1z"></path></svg>