<svg xmlns="http://www.w3.org/2000/svg" viewBox="0 0 18 18" height="18" width="18"><title>radios-white-14.svg</title><rect fill="none" x="0" y="0" width="18" height="18"></rect><rect x="0" y="0" width="18" height="18" rx="4" ry="4" fill="#231f20"></rect><path fill="#ffffff" transform="translate(2 2)" d="M12,5h2v5.9H0V5h2V4c0-0.5,0.5-1,1-1h8c0.5,0,1,0.5,1,1V5z M11,5V4H3v1H11z M8,8V6H6v2H8z M2.8,10.3
	c1.2,0,2.1-1,2.1-2.1C4.9,7,3.9,6,2.8,6C1.6,6,0.7,7,0.7,8.1C0.7,9.3,1.6,10.3,2.8,10.3z M11.2,10.3c1.2,0,2.1-1,2.1-2.1
	c0-1.2-1-2.1-2.1-2.1c-1.2,0-2.1,1-2.1,2.1C9.1,9.3,10.1,10.3,11.2,10.3z"></path></svg>