<svg xmlns="http://www.w3.org/2000/svg" viewBox="0 0 18 18" height="18" width="18"><title>rail-station-white-14.svg</title><rect fill="none" x="0" y="0" width="18" height="18"></rect><rect x="0" y="0" width="18" height="18" rx="4" ry="4" fill="#231f20"></rect><path fill="#ffffff" transform="translate(2 2)" d="M9.9,8.8C10.6,8.4,11,7.8,11,7V2c0-1.1-0.9-2-2-2H8v1H6V0H5C3.9,0,3,0.9,3,2v5c0,0.8,0.4,1.4,1.1,1.8L1.4,14
	h1.1L3,13h7.9l0.5,1h1.1L9.9,8.8z M10,7H9V6h1V7z M9.4,10H4.6l0.5-1H9L9.4,10z M7.5,2H9c0.5,0,1,0.5,1,1v1c0,0.5-0.5,1-1,1H7.5V2z
	 M4,3c0-0.5,0.5-1,1-1h1.5v3H5C4.5,5,4,4.5,4,4V3z M4,7V6h1v1H4z M3.6,12l0.5-1H10l0.5,1H3.6z"></path></svg>