<svg xmlns="http://www.w3.org/2000/svg" viewBox="0 0 27 27" height="27" width="27"><title>rail-station-white-22.svg</title><rect fill="none" x="0" y="0" width="27" height="27"></rect><rect x="0" y="0" width="27" height="27" rx="4" ry="4" fill="#231f20"></rect><path fill="#ffffff" transform="translate(2 2)" d="M15.4,14c0.7-0.1,1.6-1,1.6-1.8V2c0-1-1-2-1.7-2H12v1h-2V0H6.7C6,0,5,1,5,2v10.1C5,13,5.9,13.9,6.6,14l-4,8
	h1.1l1-2l0,0h12.6l0,0l1,2h1.1L15.4,14z M11.5,2H14c0.5,0,1,0.5,1,1v2c0,0.5-0.5,1-1,1h-2.5V2z M15,10v2h-2v-2H15z M7,3
	c0-0.5,0.5-1,1-1h2.5v4H8C7.5,6,7,5.5,7,5V3z M7,10h2v2H7V10z M7.7,14h6.6l1,2H6.7L7.7,14z M5.2,19l1-2h9.6l1,2H5.2z"></path></svg>