<svg xmlns="http://www.w3.org/2000/svg" viewBox="0 0 18 18" height="18" width="18"><title>ranger-led-events-white-14.svg</title><rect fill="none" x="0" y="0" width="18" height="18"></rect><rect x="0" y="0" width="18" height="18" rx="4" ry="4" fill="#231f20"></rect><path fill="#ffffff" transform="translate(2 2)" d="M10.4,5.1C10.1,4.9,9,4.4,8.6,3.8C8.2,3.2,7.4,3.1,7.1,3.1H6.9c-0.3,0-1,0-1.4,0.6C5,4.4,3.9,4.9,3.6,5.1
	C3.3,5.3,3,5.3,3,5.6v0.7v1.5c0.9-0.1,2.2-0.1,3.3-0.1c0.2,0,0.4,0,0.7,0c0.2,0,0.4,0,0.7,0c1.1,0,2.4,0.1,3.3,0.1V6.3V5.6
	C11,5.3,10.7,5.3,10.4,5.1z M0,9h14v1H0V9z"></path></svg>