<svg xmlns="http://www.w3.org/2000/svg" viewBox="0 0 27 27" height="27" width="27"><title>ranger-led-events-white-22.svg</title><rect fill="none" x="0" y="0" width="27" height="27"></rect><rect x="0" y="0" width="27" height="27" rx="4" ry="4" fill="#231f20"></rect><path fill="#ffffff" transform="translate(2 2)" d="M16.9,14.4c-1.7-0.1-3.7-0.2-5.9-0.2s-4.2,0.1-5.9,0.2C2,14.6,0,15,0,15.5c0,0.7,4.9,1.4,11,1.4
	s11-0.6,11-1.4C22,15,20,14.6,16.9,14.4z"></path><path fill="#ffffff" transform="translate(2 2)" d="M16.4,8.2c-0.5-0.3-2.2-1-2.9-2c-0.6-1-1.8-1-2.3-1h-0.4c-0.5,0-1.6,0-2.3,1c-0.7,1-2.4,1.7-2.9,2
	C5.2,8.5,5.1,8.5,5.1,9v1.4v2.1c1.5-0.1,3.1-0.2,4.9-0.2c0.4,0,0.7,0,1,0c0.3,0,0.7,0,1,0c1.7,0,3.4,0.1,4.9,0.2v-2.1V9
	C16.9,8.5,16.8,8.5,16.4,8.2z"></path></svg>