<svg xmlns="http://www.w3.org/2000/svg" viewBox="0 0 27 27" height="27" width="27"><title>rentals-white-22.svg</title><rect fill="none" x="0" y="0" width="27" height="27"></rect><rect x="0" y="0" width="27" height="27" rx="4" ry="4" fill="#231f20"></rect><path fill="#ffffff" transform="translate(2 2)" d="M22,3l-3-3v2h-6v2h6v2L22,3z"></path><path fill="#ffffff" transform="translate(2 2)" d="M15,7V5l-3,3l3,3V9h6V7H15z"></path><path fill="#ffffff" transform="translate(2 2)" d="M21,19.9L10.3,9.2C10.7,8.4,11,7.5,11,6.5C11,3.5,8.5,1,5.5,1S0,3.5,0,6.5S2.5,12,5.5,12
	c1,0,1.9-0.3,2.7-0.7L10,13v2h2l2,2v2h2l1,1v2h1.9H21V19.9z M3.5,6C2.7,6,2,5.3,2,4.5S2.7,3,3.5,3S5,3.7,5,4.5S4.3,6,3.5,6z"></path></svg>