<svg xmlns="http://www.w3.org/2000/svg" viewBox="0 0 18 18" height="18" width="18"><title>rentals-white-14.svg</title><rect fill="none" x="0" y="0" width="18" height="18"></rect><rect x="0" y="0" width="18" height="18" rx="4" ry="4" fill="#231f20"></rect><path fill="#ffffff" transform="translate(2 2)" d="M13.5,1.5L12,0v1H9v1h3v1L13.5,1.5z M10,4V3L8.5,4.5L10,6V5h3V4H10z M6.8,5.7C6.9,5.3,7,4.9,7,4.5
	C7,2.6,5.4,1,3.5,1S0,2.6,0,4.5S1.6,8,3.5,8c0.4,0,0.8-0.1,1.2-0.2L6,9v2h3l1,1v2h3v-2v-0.1L6.8,5.7z M3,4H2V3h1V4z"></path></svg>