<svg xmlns="http://www.w3.org/2000/svg" viewBox="0 0 27 27" height="27" width="27"><title>restrooms-white-22.svg</title><rect fill="none" x="0" y="0" width="27" height="27"></rect><rect x="0" y="0" width="27" height="27" rx="4" ry="4" fill="#231f20"></rect><path fill="#ffffff" transform="translate(2 2)" d="M11,2h2v18h-2V2z"></path><path fill="#ffffff" transform="translate(2 2)" d="M21,6h-5l-1,1v6h1V8h1v12h1v-6h1v6h1V8h1v5h1V7L21,6z"></path><path fill="#ffffff" transform="translate(2 2)" d="M8,7L6,6H3L1,7v1l-1,4h1l1-4h1v1l-2,6h2v5h1v-5h1v5h1v-5h2L6,9V8h1l1,4h1L8,8V7z"></path><path fill="#ffffff" transform="translate(2 2)" d="M4.5,2C5.3,2,6,2.7,6,3.5S5.3,5,4.5,5S3,4.3,3,3.5S3.7,2,4.5,2z"></path><path fill="#ffffff" transform="translate(2 2)" d="M18.5,2C19.3,2,20,2.7,20,3.5S19.3,5,18.5,5S17,4.3,17,3.5S17.7,2,18.5,2z"></path></svg>