<svg xmlns="http://www.w3.org/2000/svg" viewBox="0 0 18 18" height="18" width="18"><title>restrooms-white-14.svg</title><rect fill="none" x="0" y="0" width="18" height="18"></rect><rect x="0" y="0" width="18" height="18" rx="4" ry="4" fill="#231f20"></rect><path fill="#ffffff" transform="translate(2 2)" d="M7,1h1v13H7V1z M14,4h-4v5h1v5h2V9h1V4z M4,4H2l-2,7h2v3h2v-3h2L4,4z M3.2,3H2.8C2.3,3,2,2.7,2,2.2V1.8
	C2,1.3,2.3,1,2.8,1h0.5C3.7,1,4,1.3,4,1.8v0.5C4,2.7,3.7,3,3.2,3z M12.2,3h-0.5C11.3,3,11,2.7,11,2.2V1.8C11,1.3,11.3,1,11.8,1h0.5
	C12.7,1,13,1.3,13,1.8v0.5C13,2.7,12.7,3,12.2,3z"></path></svg>