<svg xmlns="http://www.w3.org/2000/svg" viewBox="0 0 18 18" height="18" width="18"><title>river-rafting-white-14.svg</title><rect fill="none" x="0" y="0" width="18" height="18"></rect><rect x="0" y="0" width="18" height="18" rx="4" ry="4" fill="#231f20"></rect><path fill="#ffffff" transform="translate(2 2)" d="M13,11.5c-0.3,0.2-0.6,0.5-1,0.5c-0.5,0-0.7-0.3-1-0.5c-0.2-0.2-0.6-0.5-1-0.5s-0.7,0.3-1,0.5
	C8.8,11.7,8.4,12,8,12c-0.4,0-0.7-0.3-1-0.5S6.5,11,6,11s-0.8,0.3-1,0.5S4.5,12,4,12s-0.8-0.3-1-0.5S2.6,11,2,11
	c-0.5,0-0.8,0.3-1,0.5S0,12,0,12v1v1c0,0,0.8-0.3,1-0.5S1.5,13,2,13c0.6,0,0.8,0.3,1,0.5S3.5,14,4,14s0.8-0.3,1-0.5S5.5,13,6,13
	s0.7,0.3,1,0.5S7.6,14,8,14c0.4,0,0.8-0.3,1-0.5c0.3-0.2,0.6-0.5,1-0.5s0.8,0.3,1,0.5c0.3,0.2,0.5,0.5,1,0.5c0.4,0,0.7-0.3,1-0.5
	s1-0.5,1-0.5v-1v-1C14,11,13.3,11.3,13,11.5z M2,10c0.6,0,0.8,0.3,1,0.5S3.5,11,4,11s0.8-0.3,1-0.5S5.5,10,6,10s0.7,0.3,1,0.5
	S7.6,11,8,11c0.4,0,0.8-0.3,1-0.5c0.3-0.2,0.6-0.5,1-0.5s0.8,0.3,1,0.5c0.1,0,0.1,0.1,0.2,0.2l0.9-0.3c0,0,1.9,0,1.9-1.9
	c0-0.1,0-0.1,0-0.2c-1.2,0.9-4.3,1-4.7,1H0V11c0,0,0.8-0.3,1-0.5S1.5,10,2,10z M6,6.8c-0.3,0-0.5-0.2-0.5-0.5S5.7,5.8,6,5.8l3.6-0.2
	c0.3,0,0.5,0.2,0.5,0.5S9.9,6.6,9.6,6.6L6,6.8L6,6.8z M10.9,7.3c-0.2,0.1-0.5,0.2-0.8,0.2L9.6,7.7C8.4,7.8,6.7,7.9,5.9,7.9l0,0
	l0.3-1.1l0,0l0.4-1.2l0,0l0.2-0.7L7,4.3l2.2-0.1c0.3,0,0.5-0.3,0.5-0.5c0-0.3-0.2-0.5-0.5-0.5L5.5,3.4c-0.3,0-1.3,2.1-1.3,2.1
	L3.5,7.9H0V9h9.2c1.1,0,3.9-0.3,4.7-1C13,7,12.2,6.8,10.9,7.3z M7,1c0.6,0,1,0.4,1,1S7.6,3,7,3S6,2.6,6,2S6.4,1,7,1z M10.1,9.8
	c-0.1,0-0.2-0.1-0.2-0.2l-1-6c0-0.1,0.1-0.3,0.2-0.3c0.1,0,0.3,0.1,0.3,0.2l1,6C10.4,9.6,10.3,9.7,10.1,9.8
	C10.2,9.7,10.2,9.8,10.1,9.8z"></path></svg>