<?xml version="1.0" encoding="utf-8"?>
<!-- Generator: Adobe Illustrator 25.2.1, SVG Export Plug-In . SVG Version: 6.00 Build 0)  -->
<svg version="1.1" id="Layer_1" xmlns="http://www.w3.org/2000/svg" xmlns:xlink="http://www.w3.org/1999/xlink" x="0px" y="0px"
	 width="27px" height="27px" viewBox="0 0 27 27" enable-background="new 0 0 27 27" xml:space="preserve">
<path fill="#231F20" d="M4,0h19c2.21,0,4,1.79,4,4v19c0,2.21-1.79,4-4,4H4c-2.21,0-4-1.79-4-4V4C0,1.79,1.79,0,4,0z"/>
<path fill="#FFFFFF" d="M22.43,5.36V4.57h-2.36c-0.43,0.41-0.91,1.07-1.38,1.91h-1.84c0.65-0.86,1.26-1.52,1.74-1.91h-1.84
	l-0.17,0.08C9.97,7.96,2,16.72,2,22.64v0.79h9.43c-0.04-0.65-0.03-1.29-0.01-1.93h3.04c-0.04,0.65-0.07,1.3-0.06,1.93H24v-1.03
	C22.47,17.8,22.43,9.71,22.43,5.36z M14.86,18.05h-3.05c0.3-1.58,0.73-3.1,1.26-4.51h2.82C15.47,15,15.12,16.52,14.86,18.05z
	 M16.72,10.91h-2.54c0.6-1.25,1.24-2.36,1.87-3.31h2.04C17.63,8.57,17.16,9.69,16.72,10.91z"/>
</svg>
