<?xml version="1.0" encoding="utf-8"?>
<!-- Generator: Adobe Illustrator 25.2.1, SVG Export Plug-In . SVG Version: 6.00 Build 0)  -->
<svg version="1.1" id="Layer_1" xmlns="http://www.w3.org/2000/svg" xmlns:xlink="http://www.w3.org/1999/xlink" x="0px" y="0px"
	 width="18px" height="18px" viewBox="0 0 18 18" enable-background="new 0 0 18 18" xml:space="preserve">
<path fill="#231F20" d="M4,0h10c2.21,0,4,1.79,4,4v10c0,2.21-1.79,4-4,4H4c-2.21,0-4-1.79-4-4V4C0,1.79,1.79,0,4,0z"/>
<path fill="#FFFFFF" d="M15,3.5V3h-1.5c-0.28,0.26-0.58,0.68-0.88,1.21h-1.17c0.41-0.55,0.8-0.97,1.11-1.21h-1.17l-0.11,0.05
	C7.07,5.15,2,10.73,2,14.5V15h6c-0.02-0.41-0.02-0.82-0.01-1.23h1.93C9.9,14.19,9.89,14.6,9.89,15H16v-0.66
	C15.03,11.42,15,6.27,15,3.5z M10.18,11.58H8.24c0.19-1.01,0.47-1.97,0.8-2.87h1.79C10.57,9.63,10.35,10.61,10.18,11.58z
	 M11.37,7.04H9.75c0.38-0.79,0.79-1.5,1.19-2.11h1.3C11.94,5.54,11.65,6.26,11.37,7.04z"/>
</svg>
