<svg xmlns="http://www.w3.org/2000/svg" viewBox="0 0 18 18" height="18" width="18"><title>rock-collecting-white-14.svg</title><rect fill="none" x="0" y="0" width="18" height="18"></rect><rect x="0" y="0" width="18" height="18" rx="4" ry="4" fill="#231f20"></rect><path fill="#ffffff" transform="translate(2 2)" d="M9.4,10l0.7,0.6l1.2-1.5L9.9,7.9L9.2,8.6L9.4,10z M13.5,10.9h-2.8v2.9h1.9l0.9-1V10.9z M8.5,13.9l0.9-0.3
	l-0.8-2.8l-2,0.6l-0.4,1.7L8.5,13.9z M6.5,1.5C4.4,0.3,3.2,0.2,1.3,0L1.2,0.4C3.6,1,4.3,1.5,6,2.6l0.2,1.1l-5.6,9.2
	c-0.1,0.1-0.1,0.2-0.1,0.4c0,0.5,0.4,0.8,0.8,0.8c0.3,0,0.6-0.2,0.7-0.4l5.5-9l2.2,1.4l1.1-1.9L6.5,1.5"></path></svg>