<svg xmlns="http://www.w3.org/2000/svg" viewBox="0 0 27 27" height="27" width="27"><title>rock-collecting-white-22.svg</title><rect fill="none" x="0" y="0" width="27" height="27"></rect><rect x="0" y="0" width="27" height="27" rx="4" ry="4" fill="#231f20"></rect><path fill="#ffffff" transform="translate(2 2)" d="M14.7,15.7l1.1,1l2-2.3l-2.3-2l-1,1.1L14.7,15.7z M21.2,17.2h-4.4v4.4h3l1.4-1.5V17.2z M13.3,21.9l1.5-0.5
	L13.5,17l-3.2,0.9l-0.6,2.7L13.3,21.9z M10.3,2.4C6.9,0.4,5.1,0.4,2,0L1.9,0.6C5.7,1.5,6.7,2.4,9.3,4l0.4,1.7L1,20.1
	c-0.1,0.2-0.1,0.4-0.1,0.6c0,0.7,0.6,1.3,1.3,1.3c0.5,0,0.9-0.2,1.1-0.6l8.6-14.1l3.5,2.2l1.8-3L10.3,2.4"></path></svg>