<svg xmlns="http://www.w3.org/2000/svg" viewBox="0 0 27 27" height="27" width="27"><title>rowboating-white-22.svg</title><rect fill="none" x="0" y="0" width="27" height="27"></rect><rect x="0" y="0" width="27" height="27" rx="4" ry="4" fill="#231f20"></rect><path fill="#ffffff" transform="translate(2 2)" d="M14.3,5.9c1.1,0,2-0.9,2-2s-0.9-2-2-2s-2,0.9-2,2C12.3,5,13.2,5.9,14.3,5.9z"></path><path fill="#ffffff" transform="translate(2 2)" d="M22,20c-0.5,0-0.9-0.1-1.3-0.3c-0.4-0.2-0.9-0.3-1.3-0.3c-0.5,0-0.9,0.1-1.3,0.3c-0.4,0.2-0.8,0.3-1.3,0.3
	s-0.9-0.1-1.3-0.3c-0.4-0.2-0.9-0.3-1.3-0.3c-0.5,0-0.9,0.1-1.3,0.3c-0.4,0.2-0.8,0.3-1.3,0.3s-0.9-0.1-1.3-0.3
	c-0.4-0.2-0.9-0.3-1.3-0.3c-0.5,0-0.9,0.1-1.3,0.3C7,19.9,6.6,20,6.1,20s-0.9-0.1-1.3-0.3c-0.4-0.2-0.9-0.3-1.3-0.3
	c-0.5,0-0.9,0.1-1.3,0.3C1.7,19.9,1.3,20,0.8,20v-2c0.5,0,0.9-0.1,1.3-0.3c0.4-0.2,0.9-0.3,1.3-0.3c0.5,0,0.9,0.1,1.3,0.3
	C5.1,17.9,5.5,18,6,18s0.9-0.1,1.3-0.3c0.4-0.2,0.9-0.3,1.3-0.3c0.5,0,0.9,0.1,1.3,0.3c0.4,0.2,0.8,0.3,1.3,0.3s0.9-0.1,1.3-0.3
	c0.4-0.2,0.9-0.3,1.3-0.3c0.5,0,0.9,0.1,1.3,0.3c0.4,0.2,0.8,0.3,1.3,0.3s0.9-0.1,1.3-0.3c0.4-0.2,0.9-0.3,1.3-0.3
	c0.5,0,0.9,0.1,1.3,0.3c0.4,0.2,0.8,0.3,1.3,0.3v2H22z"></path><path fill="#ffffff" transform="translate(2 2)" d="M2.1,16.1c0.4-0.2,0.8-0.3,1.3-0.3s0.9,0.1,1.3,0.3c0.4,0.2,0.8,0.3,1.3,0.3s0.9-0.1,1.3-0.3
	c0.4-0.2,0.9-0.3,1.3-0.3c0.5,0,0.9,0.1,1.3,0.3c0.4,0.2,0.8,0.3,1.3,0.3s0.9-0.1,1.3-0.3c0.3-0.1,0.5-0.2,0.8-0.3l3.4-3.9h-4.4
	l1.8-3.1l4,2.2c1.3,0.7,2.3-1,1-1.7l-5.7-3.1c-2.1-1.2-3,0.8-3,0.8l-2.9,4.9h-7.7C0.2,13.3,1.5,15.2,2.1,16.1z"></path><path fill="#ffffff" transform="translate(2 2)" d="M15,15.9c-0.2,0,0.1,0.1,0.4,0.3c0.4,0.2,0.8,0.3,1.3,0.3s0.9-0.1,1.3-0.3c0.4-0.2,0.9-0.3,1.3-0.3
	c0.5,0,0.9,0.1,1.3,0.3c0.4,0.2,0.8,0.3,1.3,0.3v-4.4h-3.6L15,15.9z"></path></svg>