<svg xmlns="http://www.w3.org/2000/svg" viewBox="0 0 18 18" height="18" width="18"><title>rowboating-white-14.svg</title><rect fill="none" x="0" y="0" width="18" height="18"></rect><rect x="0" y="0" width="18" height="18" rx="4" ry="4" fill="#231f20"></rect><path fill="#ffffff" transform="translate(2 2)" d="M9.1,3.8c0.7,0,1.2-0.6,1.2-1.2c0-0.7-0.6-1.3-1.2-1.3c-0.7,0-1.3,0.6-1.3,1.3C7.9,3.2,8.4,3.8,9.1,3.8z"></path><path fill="#ffffff" transform="translate(2 2)" d="M14,12.7c-0.3,0-0.6,0.1-0.8,0c-0.3-0.1-0.6-0.6-0.9-0.6c-0.3,0-0.6,0.3-0.9,0.4c-0.3,0.1-0.5,0.4-0.8,0.4
	s-0.6-0.3-0.8-0.4c-0.3-0.1-0.5-0.4-0.9-0.4c-0.3,0-0.6,0.3-0.9,0.4c-0.3,0.1-0.5,0.4-0.8,0.4s-0.6-0.3-0.8-0.4
	c-0.3-0.1-0.5-0.4-0.9-0.4S5,12.4,4.7,12.6C4.4,12.7,4.2,13,3.9,13s-0.6-0.3-0.8-0.4c-0.3-0.1-0.5-0.4-0.9-0.4
	c-0.3,0-0.6,0.5-0.9,0.6s-0.5,0-0.8,0v-1.2c0.3,0,0.6,0.1,0.8,0C1.6,11.5,1.9,11,2.2,11s0.6,0.3,0.9,0.4c0.3,0.1,0.5,0.4,0.8,0.4
	s0.6-0.3,0.8-0.4C5,11.3,5.3,11,5.6,11s0.6,0.3,0.9,0.4c0.3,0.1,0.5,0.4,0.8,0.4s0.6-0.3,0.8-0.4C8.4,11.3,8.7,11,9,11
	c0.3,0,0.6,0.3,0.9,0.4c0.3,0.1,0.5,0.4,0.8,0.4s0.6-0.3,0.8-0.4c0.3-0.1,0.6-0.4,0.9-0.4c0.3,0,0.6,0.5,0.9,0.6
	c0.3,0.1,0.5,0,0.8,0L14,12.7L14,12.7z"></path><path fill="#ffffff" transform="translate(2 2)" d="M1.7,10.1C2,10,1.9,9.9,2.2,9.9s0.6,0.3,0.9,0.4c0.3,0.1,0.5,0.4,0.8,0.4s0.6-0.3,0.8-0.4
	C5,10.1,5.3,9.9,5.6,9.9s0.6,0.3,0.9,0.4c0.3,0.1,0.5,0.4,0.8,0.4s0.6-0.3,0.8-0.4c0.2-0.1,0.3-0.1,0.5-0.2l2.2-2.5H8l1.1-2L11.6,7
	c0.8,0.5,1.4-0.6,0.6-1.1L8.7,4C7.3,3.2,6.8,4.4,6.8,4.4L4.9,7.6H0C0.2,8.5,1.3,9.6,1.7,10.1z"></path><path fill="#ffffff" transform="translate(2 2)" d="M9.9,10.3c0.3,0.1,0.4,0.1,0.7,0.1s0.6-0.1,0.8-0.2c0.3-0.1,0.6-0.2,0.9-0.2c0.3,0,0.6,0.1,0.9,0.2
	c0.3,0.1,0.5,0.2,0.8,0.2V7.6h-1.8C12.2,7.6,9.7,10.2,9.9,10.3z"></path></svg>