<svg xmlns="http://www.w3.org/2000/svg" viewBox="0 0 18 18" height="18" width="18"><title>rr-xing-white-14.svg</title><rect fill="none" x="0" y="0" width="18" height="18"></rect><rect x="0" y="0" width="18" height="18" rx="4" ry="4" fill="#231f20"></rect><path fill="#ffffff" transform="translate(2 2)" d="M0,5h1.1c0.7,0,1.2,0.3,1.2,1.1c0,0.5-0.4,0.9-0.9,1l0,0c0.3,0,0.4,0.2,0.5,0.5l0.7,1.6H2.2L1.6,7.8
	C1.3,7.2,1.2,7.2,0.8,7.2H0.4v2H0V5z M0.4,6.9h0.4c0.5,0,1-0.2,1-0.8c0-0.7-0.5-0.7-1.1-0.7H0.4V6.9z M11.4,5h1.1
	c0.7,0,1.2,0.3,1.2,1.1c0,0.5-0.4,0.9-0.9,1l0,0c0.3,0,0.4,0.2,0.5,0.5L14,9.2h-0.5l-0.6-1.4c-0.2-0.5-0.4-0.6-0.8-0.6h-0.3v2h-0.4
	V5L11.4,5z M11.8,6.9h0.4c0.5,0,1-0.2,1-0.8c0-0.7-0.5-0.7-1.1-0.7h-0.4v1.5H11.8z M8.4,7L14,1.4L12.6,0L7,5.6L1.4,0L0,1.4L5.6,7
	L0,12.6L1.4,14L7,8.4l5.6,5.6l1.4-1.4L8.4,7z"></path></svg>