<svg xmlns="http://www.w3.org/2000/svg" viewBox="0 0 27 27" height="27" width="27"><title>rr-xing-white-22.svg</title><rect fill="none" x="0" y="0" width="27" height="27"></rect><rect x="0" y="0" width="27" height="27" rx="4" ry="4" fill="#231f20"></rect><path fill="#ffffff" transform="translate(2 2)" d="M0.8,8.5h1.4c1,0,1.6,0.4,1.6,1.4c0,0.7-0.6,1.2-1.2,1.3l0,0c0.4,0.1,0.5,0.3,0.7,0.7l1,2.2H3.7l-0.8-1.9
	c-0.3-0.7-0.6-0.7-1.1-0.7H1.3v2.6H0.8V8.5z M1.3,10.9h0.6c0.6,0,1.4-0.2,1.4-1c0-0.9-0.6-1-1.4-1H1.3V10.9z"></path><path fill="#ffffff" transform="translate(2 2)" d="M17.8,8.5h1.4c1,0,1.6,0.4,1.6,1.4c0,0.7-0.6,1.2-1.2,1.3l0,0c0.4,0.1,0.5,0.3,0.7,0.7l1,2.2h-0.6l-0.8-1.9
	c-0.3-0.7-0.6-0.7-1.1-0.7h-0.5v2.6h-0.6C17.8,14.1,17.8,8.5,17.8,8.5z M18.3,10.9h0.6c0.6,0,1.4-0.2,1.4-1c0-0.9-0.6-1-1.4-1h-0.6
	V10.9L18.3,10.9z"></path><path fill="#ffffff" transform="translate(2 2)" d="M22.1,2.1L20,0l-8.9,8.9L2.1,0L0,2.1l8.9,9L0,20l2.1,2.1l9-8.9l8.9,8.9l2.1-2.1l-8.9-8.9L22.1,2.1z"></path></svg>