<svg xmlns="http://www.w3.org/2000/svg" viewBox="0 0 27 27" height="27" width="27"><title>rv-campground-white-22.svg</title><rect fill="none" x="0" y="0" width="27" height="27"></rect><rect x="0" y="0" width="27" height="27" rx="4" ry="4" fill="#231f20"></rect><path fill="#ffffff" transform="translate(2 2)" d="M0,12h13V9l1-1h4l3,3v1l1,1v2h-1v-1l-1-1h-3l-1,1v1H8v-1l-1-1H4l-1,1v1H0V12z M15,9v2h3v-1l-1-1H15z"></path><path fill="#ffffff" transform="translate(2 2)" d="M6.2,17H4.8C4.4,17,4,16.6,4,16.2v-1.4C4,14.4,4.4,14,4.8,14h1.4C6.6,14,7,14.4,7,14.8v1.4
		C7,16.6,6.6,17,6.2,17z M6,15H5v1h1V15z"></path><path fill="#ffffff" transform="translate(2 2)" d="M19.2,17h-1.4c-0.4,0-0.8-0.4-0.8-0.8v-1.4c0-0.4,0.4-0.8,0.8-0.8h1.4c0.4,0,0.8,0.4,0.8,0.8v1.4
		C20,16.6,19.6,17,19.2,17z M19,15h-1v1h1V15z"></path><path fill="#ffffff" transform="translate(2 2)" d="M15,4H1L0,5v6h12V8l1-1h4V6L15,4z M2,9l1-3h5l1,3H2z M15,6h-3V5h3V6z"></path></svg>