<svg xmlns="http://www.w3.org/2000/svg" viewBox="0 0 18 18" height="18" width="18"><title>rv-campground-white-14.svg</title><rect fill="none" x="0" y="0" width="18" height="18"></rect><rect x="0" y="0" width="18" height="18" rx="4" ry="4" fill="#231f20"></rect><path fill="#ffffff" transform="translate(2 2)" d="M0,3l1-1h9v1H8L7,4v2H0V3z M5,5V3.6C5,3.3,4.7,3,4.4,3H1.7C1.3,3,1,3.3,1,3.7V5H5z M8,4h3l1,1l1,1v1l1,1v2
	h-1V9l-1-1h-2L9,9v1H6V9L5,8H3L2,9v1H0V7h8V4z M9,7h3V6l-1-1H9V7z M4,9c0.6,0,1,0.4,1,1s-0.4,1-1,1s-1-0.4-1-1S3.4,9,4,9z M11,9
	c0.6,0,1,0.4,1,1s-0.4,1-1,1s-1-0.4-1-1S10.4,9,11,9z"></path></svg>