<svg xmlns="http://www.w3.org/2000/svg" viewBox="0 0 27 27" height="27" width="27"><title>rv-trailer-hookup-white-22.svg</title><rect fill="none" x="0" y="0" width="27" height="27"></rect><rect x="0" y="0" width="27" height="27" rx="4" ry="4" fill="#231f20"></rect><path fill="#ffffff" transform="translate(2 2)" d="M10,9c-1.1,0-2,0.9-2,2s0.9,2,2,2s2-0.9,2-2S11.1,9,10,9z M10,12c-0.6,0-1-0.4-1-1s0.4-1,1-1s1,0.4,1,1
	S10.6,12,10,12z"></path><path fill="#ffffff" transform="translate(2 2)" d="M7,11c0-1.7,1.3-3,3-3s3,1.3,3,3h9V9.4h-1.6V3.1c0-2-1.2-3.1-3.1-3.1H3.1C1.2,0,0,1.2,0,3.1v4.7
	C0,9.3,1.7,11,3.1,11H4l0,0c0,0.6,0,1.1-0.2,1.4c-0.1,0.1-0.2,0.2-0.3,0.3C3,13.2,2.4,13.6,1.7,14c-0.2,0.2-0.5,0.3-0.7,0.6
	c-0.6,0.7-0.7,1.8-0.2,2.7C1.2,18,2,18.8,3,18.8C4.5,19,5.5,19,6.5,19c0.2,0,0.4,0,0.6,0c0.3,0,0.5,0,0.8,0c0.5,0,0.9,0,1.4,0H15
	c0.1,1.1,0.7,2,1.5,2c0.2,0,0.5,0,0.5,0h1v-1h2.5c0.3,0,0.5-0.2,0.5-0.5S20.8,19,20.5,19H18v-1h2.5c0.3,0,0.5-0.2,0.5-0.5
	S20.8,17,20.5,17H18v-1h-1c0,0-0.3,0-0.5,0c-0.7,0-1.3,0.9-1.5,2H9.3c-0.5,0-1,0-1.4,0c-0.5,0-0.9,0-1.4,0c-1,0-2,0-3.5-0.1
	c-0.5,0-1-0.4-1.4-1c-0.3-0.5-0.3-1.2,0.1-1.5C1.8,15.3,2,15.1,2.3,15c0.7-0.4,1.3-0.9,1.9-1.4c0.2-0.1,0.3-0.3,0.5-0.5
	c0.5-0.6,0.4-1.5,0.4-2h0.1H7V11z M13,3c0-0.4,0.6-1,1-1h3c0.4,0,1,0.6,1,1v1c0,0.4-0.6,1-1,1h-3c-0.4,0-1-0.6-1-1V3z M3,4V3
	c0-0.4,0.6-1,1-1h5c0.4,0,1,0.6,1,1v1c0,0.4-0.6,1-1,1H4C3.6,5,3,4.4,3,4z"></path></svg>