<svg xmlns="http://www.w3.org/2000/svg" viewBox="0 0 18 18" height="18" width="18"><title>rv-trailer-hookup-white-14.svg</title><rect fill="none" x="0" y="0" width="18" height="18"></rect><rect x="0" y="0" width="18" height="18" rx="4" ry="4" fill="#231f20"></rect><path fill="#ffffff" transform="translate(2 2)" d="M7.9,7C7.7,6.4,7.2,6,6.5,6S5.3,6.4,5.1,7C5,7.2,5,7.3,5,7.5C5,8.3,5.7,9,6.5,9S8,8.3,8,7.5
	C8,7.3,8,7.2,7.9,7z"></path><path fill="#ffffff" transform="translate(2 2)" d="M6.5,5c1.2,0,2.2,0.9,2.4,2H14V6h-1V2c0-1.2-0.8-2-2-2H2C0.8,0,0,0.8,0,2v3c0,0.9,1.1,2,2,2h0.5
	c0,0.9-0.1,1.4-0.9,1.6C0.5,9,0.4,9.8,0.4,10.5c0,0.6,0.3,0.9,1.2,1.2C2.4,12,3.3,12,3.8,12c0.1,0,5.7,0,5.7,0s0.4,1.7,1.6,1.7
	c0.2,0,0.5,0,0.5,0v-0.8h1.3c0.1,0,0.3-0.1,0.3-0.3s-0.1-0.3-0.3-0.3h-1.3v-1.5h1.3c0.1,0,0.3-0.1,0.3-0.3s-0.1-0.3-0.3-0.3h-1.3
	V9.3c0,0-0.4,0-0.5,0c-0.8,0-1.4,0.9-1.6,1.7H4.1c-0.4,0-1.4,0.3-2.3,0c-0.7-0.2-0.7-0.3-0.7-0.5c0-0.6,0.1-1,0.7-1.2
	C3.2,8.9,3.3,7.9,3.2,7H4C4.3,5.9,5.3,5,6.5,5z M8,1.5C8,1.2,8.2,1,8.5,1h2C10.8,1,11,1.2,11,1.5v1C11,2.8,10.8,3,10.5,3h-2
	C8.2,3,8,2.8,8,2.5V1.5z M2.5,3C2.2,3,2,2.8,2,2.5v-1C2,1.2,2.2,1,2.5,1h3C5.8,1,6,1.2,6,1.5v1C6,2.8,5.8,3,5.5,3H2.5z"></path></svg>