<svg xmlns="http://www.w3.org/2000/svg" viewBox="0 0 27 27" height="27" width="27"><title>sailing-white-22.svg</title><rect fill="none" x="0" y="0" width="27" height="27"></rect><rect x="0" y="0" width="27" height="27" rx="4" ry="4" fill="#231f20"></rect><path fill="#ffffff" transform="translate(2 2)" d="M20,20l-2-1h-1l-2,1h-1l-2-1h-1l-2,1H8l-2-1H5l-2,1v2l2-1h1l2,1h1l2-1h1l2,1h1l2-1h1l2,1h1v-2H20z M14,3
	c0,0,7,4.2,7,10c0,0.3,0,1,0,1h-7V3z M13,0v14H2L13,0z M6,17l2,1h1l2-1h1l2,1h1l2-1h0.7l2.3-2H4v2.5L5,17H6z"></path></svg>