<svg xmlns="http://www.w3.org/2000/svg" viewBox="0 0 27 27" height="27" width="27"><title>sanitary-disposal-station-white-22.svg</title><rect fill="none" x="0" y="0" width="27" height="27"></rect><rect x="0" y="0" width="27" height="27" rx="4" ry="4" fill="#231f20"></rect><path fill="#ffffff" transform="translate(2 2)" d="M20,10V2l-1-1H4L3,2v8l1,1h5V9l1-1h3l1,1v2h8v-1H20z M11,5H6L5,4l1-1h5l1,1L11,5z M17,5h-2l-1-1l1-1h2l1,1
	L17,5z"></path><path fill="#ffffff" transform="translate(2 2)" d="M8,13h13l1,1v5l-1,1H1l-1-1v-5l1-1h3v1H2l-1,1v3l1,1h8l1-1v-3l-1-1H8V13z"></path><path fill="#ffffff" transform="translate(2 2)" d="M5.5,12h1v4H8l-2,2l-2-2h1.5V12z"></path><path fill="#ffffff" transform="translate(2 2)" d="M11.5,9C10.7,9,10,9.7,10,10.5s0.7,1.5,1.5,1.5s1.5-0.7,1.5-1.5S12.3,9,11.5,9z M11.5,11
	c-0.3,0-0.5-0.2-0.5-0.5s0.2-0.5,0.5-0.5s0.5,0.2,0.5,0.5S11.8,11,11.5,11z"></path></svg>