<svg xmlns="http://www.w3.org/2000/svg" viewBox="0 0 18 18" height="18" width="18"><title>sanitary-disposal-station-white-14.svg</title><rect fill="none" x="0" y="0" width="18" height="18"></rect><rect x="0" y="0" width="18" height="18" rx="4" ry="4" fill="#231f20"></rect><path fill="#ffffff" transform="translate(2 2)" d="M6,8h8v5H0V8h3v1H1v3h7V9H6V8z M7,6h1v1H7V6z M6,10H5V8H4v2H3l1.5,1.5L6,10z M13,6V2l-1-1H3L2,2v4l1,1h3
	c0,0,0-0.3,0-0.5C6,5.7,6.7,5,7.5,5S9,5.7,9,6.5C9,6.7,9,7,9,7h5V6H13z M7,3H4V2h3V3z M11,3H9V2h2V3z"></path></svg>