<svg xmlns="http://www.w3.org/2000/svg" viewBox="0 0 18 18" height="18" width="18"><title>scenic-viewpoint-white-14.svg</title><rect fill="none" x="0" y="0" width="18" height="18"></rect><rect x="0" y="0" width="18" height="18" rx="4" ry="4" fill="#231f20"></rect><path fill="#ffffff" transform="translate(2 2)" d="M4.9,7c0,0.8-0.6,1.5-1.4,1.5C2.6,8.5,2,7.8,2,7s0.6-1.5,1.4-1.5
	S4.9,6.2,4.9,7"></path><path fill="#ffffff" transform="translate(2 2)" d="M5.8,6.6v0.9L13.1,8V6L5.8,6.6"></path><path fill="#ffffff" transform="translate(2 2)" d="M4.2,4.7L5,5.1L8,1L6.3,0L4.2,4.7"></path><path fill="#ffffff" transform="translate(2 2)" d="M5.7,6.2l5.4-2.5l-1-1.7L5.3,5.4L5.7,6.2z"></path><path fill="#ffffff" transform="translate(2 2)" d="M4.2,9.3L5,8.9L8,13l-1.7,1L4.2,9.3"></path><path fill="#ffffff" transform="translate(2 2)" d="M5.3,8.6l0.4-0.8l5.4,2.5l-1,1.7L5.3,8.6"></path></svg>