<svg xmlns="http://www.w3.org/2000/svg" viewBox="0 0 27 27" height="27" width="27"><title>scenic-viewpoint-white-22.svg</title><rect fill="none" x="0" y="0" width="27" height="27"></rect><rect x="0" y="0" width="27" height="27" rx="4" ry="4" fill="#231f20"></rect><path fill="#ffffff" transform="translate(2 2)" d="M7.2,11c0,1.2-0.9,2.2-2.1,2.2S3,12.2,3,11s0.9-2.2,2.1-2.2
	C6.2,8.8,7.2,9.8,7.2,11"></path><path fill="#ffffff" transform="translate(2 2)" d="M8.6,10.4v1.3l10.6,0.8v-3L8.6,10.4"></path><path fill="#ffffff" transform="translate(2 2)" d="M6.3,7.5l1.1,0.7L11.7,2L9.3,0.5L6.3,7.5"></path><path fill="#ffffff" transform="translate(2 2)" d="M8.4,9.8L16.3,6l-1.4-2.6L7.8,8.6L8.4,9.8z"></path><path fill="#ffffff" transform="translate(2 2)" d="M6.3,14.5l1.1-0.7l4.3,6.2l-2.4,1.5L6.3,14.5"></path><path fill="#ffffff" transform="translate(2 2)" d="M7.8,13.4l0.6-1.2l7.9,3.8l-1.4,2.6L7.8,13.4"></path></svg>