<svg xmlns="http://www.w3.org/2000/svg" viewBox="0 0 18 18" height="18" width="18"><title>scuba-diving-white-14.svg</title><rect fill="none" x="0" y="0" width="18" height="18"></rect><rect x="0" y="0" width="18" height="18" rx="4" ry="4" fill="#231f20"></rect><path fill="#ffffff" transform="translate(2 2)" d="M13,11.7L12.5,11L12,10.3V9l-2-1L8,7H7L6.2,6L6,5.8L5.3,5L5,4.6L4.5,4L2,1H0v1h1l2,2l0.5,1L4,5.6L4.3,6
	L5,6.8L5.2,7L6,8l1,0.5L8,9l1,0.5l1,0.5l2,2v1h1h1v-1h-0.8L13,11.7z M9,6.3V7h2V6l-1-0.7L9,5V4H7v1l1,0.7L9,6.3z M13,7
	c0.6,0,1,0.4,1,1s-0.4,1-1,1s-1-0.4-1-1S12.4,7,13,7z"></path></svg>