<?xml version="1.0" encoding="utf-8"?>
<!-- Generator: Adobe Illustrator 25.4.1, SVG Export Plug-In . SVG Version: 6.00 Build 0)  -->
<svg version="1.1" id="Layer_1" xmlns="http://www.w3.org/2000/svg" xmlns:xlink="http://www.w3.org/1999/xlink" x="0px" y="0px"
	 width="18px" height="18px" viewBox="0 0 18 18" enable-background="new 0 0 18 18" xml:space="preserve">
<path fill="#231F20" d="M4,0h10c2.2,0,4,1.8,4,4v10c0,2.2-1.8,4-4,4H4c-2.2,0-4-1.8-4-4V4C0,1.8,1.8,0,4,0z"/>
<path fill="#FFFFFF" d="M4.5,4.9l0.6-0.6l0.1-0.1L4.5,3H2l1.9,1.9l0.3,0.3L4.5,4.9z M12.2,10L8.4,8.7L5.8,4.9L5,5.7l0.1,1l2.6,3.9
	l3.8,0.6l3.2,3.2l0.6-0.6v-0.6L12.2,10z M9.6,6.8l3.2,1.3l-0.6,1.3L9,8.1L9.6,6.8z M14.6,10.3l0.4,0.6l1-1l-0.8-0.4
	c0.1-0.6-0.3-1.1-0.8-1.3C13.7,8,13.1,8.3,12.9,9c-0.2,0.6,0.2,1.3,0.8,1.4C14,10.4,14.3,10.4,14.6,10.3z"/>
</svg>
