<svg xmlns="http://www.w3.org/2000/svg" viewBox="0 0 27 27" height="27" width="27"><title>scuba-diving-white-22.svg</title><rect fill="none" x="0" y="0" width="27" height="27"></rect><rect x="0" y="0" width="27" height="27" rx="4" ry="4" fill="#231f20"></rect><path fill="#ffffff" transform="translate(2 2)" d="M4,5l1-1l0.2-0.2L4,2H0l3,3l0.4,0.5L4,5z M16,13l-6-2L6,5L5,6L4.1,6.6L9,14l6,1l5,5l1-1v-1L16,13z M11.9,8
	l5.1,2l-0.9,2L11,10L11.9,8z M19.8,13.4l0.7,1l1.5-1.6l-1.3-0.7c0.1-0.9-0.4-1.7-1.3-2c-1-0.3-2,0.3-2.2,1.3c-0.3,1,0.3,2,1.3,2.2
	C18.9,13.7,19.4,13.6,19.8,13.4z"></path></svg>