<svg xmlns="http://www.w3.org/2000/svg" viewBox="0 0 18 18" height="18" width="18"><title>sea-lion-viewing-white-14.svg</title><rect fill="none" x="0" y="0" width="18" height="18"></rect><rect x="0" y="0" width="18" height="18" rx="4" ry="4" fill="#231f20"></rect><path fill="#ffffff" transform="translate(2 2)" d="M12,2.9v3.6c0,0.9-0.3,1.7-0.7,2.4c0.1,0.1,0.2,0.3,0.3,0.4c0.2,0.5,0.1,1.1-0.2,1.5l-1.9,1.9l-0.1,0.1
	c-0.2,0.1-0.3,0-0.4-0.2c0-0.1,0-0.1,0-0.2l0.4-2c-0.5,0.2-1,0.3-1.6,0.3H3.6c1.1,0.8,1.1,2.7,1.1,2.7c0,0.1,0,0.2-0.1,0.3
	c0,0.1-0.1,0.3-0.3,0.2l-2.5-2.4C0.6,10.7-0.4,9.4,0.1,8c0.3-1,1.3-1.4,2.2-1.5l5.3-1.1l2.3-4.1C10.2,0.7,11,0,11.5,0
	s0.9,0.6,1.2,0.9l1.1,0.2c0.1,0,0.2,0.1,0.2,0.2l-0.1,0.5c0,0.1-0.1,0.2-0.2,0.2L12,2.9z"></path></svg>