<svg xmlns="http://www.w3.org/2000/svg" viewBox="0 0 27 27" height="27" width="27"><title>sea-lion-viewing-white-22.svg</title><rect fill="none" x="0" y="0" width="27" height="27"></rect><rect x="0" y="0" width="27" height="27" rx="4" ry="4" fill="#231f20"></rect><path fill="#ffffff" transform="translate(2 2)" d="M18.9,4.6v5.7c0,1.4-0.4,2.7-1.1,3.8c0.1,0.2,0.3,0.4,0.4,0.7c0.4,0.8,0.2,1.7-0.4,2.3l-2.9,3
	c0,0.1-0.1,0.1-0.2,0.2c-0.2,0.1-0.5,0-0.6-0.2c0-0.1-0.1-0.2,0-0.3l0.6-3.1C13.8,16.9,13,17,12.1,17H5.6c1.8,1.2,1.8,3.5,1.7,3.6
	c0,0.2,0,0.3-0.1,0.4c-0.1,0.2-0.2,0.4-0.5,0.3l-4-3.1c-1.8-1.3-3.4-3.5-2.6-5.7c0.5-1.5,2-2.2,3.5-2.4L12,8.4l3.6-6.5
	C16,1.1,17.2,0.6,18,0.6c0.8,0.1,1.3,0.3,1.9,0.7l1.8,0.4c0.2,0,0.3,0.2,0.3,0.4l-0.2,0.7c-0.1,0.2-0.1,0.3-0.3,0.4L18.9,4.6z"></path></svg>