<?xml version="1.0" encoding="utf-8"?>
<!-- Generator: Adobe Illustrator 25.4.1, SVG Export Plug-In . SVG Version: 6.00 Build 0)  -->
<svg version="1.1" id="Layer_1" xmlns="http://www.w3.org/2000/svg" xmlns:xlink="http://www.w3.org/1999/xlink" x="0px" y="0px"
	 width="18px" height="18px" viewBox="0 0 18 18" enable-background="new 0 0 18 18" xml:space="preserve">
<path fill="#231F20" d="M4,0h10c2.2,0,4,1.8,4,4v10c0,2.2-1.8,4-4,4H4c-2.2,0-4-1.8-4-4V4C0,1.8,1.8,0,4,0z"/>
<path fill="#FFFFFF" d="M15.7,7.9l-2,0.6l-0.9-1c0.3-0.2,1-0.5,1.3-0.8c0.2-0.1,0.3-0.3,0.3-0.5l0.4-1.7l0.6,1.8
	c0.1,0.2,0.4,0.1,0.3-0.1L15,4.4h0.1c0.4-0.1,0.2-0.7-0.2-0.5h-0.1l-0.6-1.8c0-0.2-0.3-0.1-0.2,0.1L14.6,4h-0.1l0,0
	c-0.3,0.1-1.9,0.5-2.2,0.4c-0.3,0-0.7-0.1-1-0.1c-0.3,0-0.5,0-0.7,0.2c-0.1,0.1-1,0.6-1.8,1.2c-1,0.7-2.1,1.8-2.1,1.8L5,8
	C4.6,8,4.3,7.4,4,7.2L3.3,6.5c-0.1-0.1-0.1-0.1-0.2,0l-1,0.3C1.9,6.9,2,7,2.1,7l1.7,2.4c0.2,0.3,0.7,0.4,1,0.3L9,8.9h0.1v1.4
	l-3.2,1.1c-0.1,0-0.1,0.1-0.1,0.2c0,0,0,0.1,0.1,0.2c0,0.1,0.1,0.1,0.2,0.1c0.3,0,1.2-0.1,2.2-0.2c0.7-0.1,5.9-2,6.8-2.5
	C15.8,8.7,16,8.4,16,8.4c0-0.1,0-0.1,0-0.2L15.9,8C15.9,7.9,15.8,7.9,15.7,7.9z M9.4,10.2V8.8l3.1-1.1l0.9,1L9.4,10.2z M10.3,5
	l0.8,1C10,6.4,8.5,7,8.4,7C8.3,7,8.2,7,8.2,6.9c0-0.1,0-0.1-0.1-0.1c0-0.1,0-0.1,0-0.2C8.2,6.5,8.6,6.2,8.9,6
	C9.4,5.6,9.9,5.2,10.3,5z M12.4,4.9c0,0.1-0.1,0.5-0.1,0.5s0,0.1-0.1,0.2c-0.1,0-0.4,0.1-0.7,0.2l-0.8-1h0.1C11,4.6,11,4.6,11.3,4.6
	c0,0,0.9,0.1,1,0.1C12.3,4.8,12.4,4.8,12.4,4.9z"/>
<path fill="#FFFFFF" d="M15.6,16c-0.3,0-0.6-0.1-0.8-0.2c-0.3-0.1-0.6-0.5-0.9-0.5s-0.6,0.4-0.9,0.5c-0.2,0.1-0.5,0.2-0.8,0.2
	c-0.3,0-0.6-0.1-0.8-0.2c-0.3-0.1-0.6-0.5-0.9-0.5c-0.3,0-0.6,0.4-0.9,0.5C9.4,15.9,9.1,16,8.8,16S8.2,15.9,8,15.8
	c-0.3-0.1-0.6-0.5-0.9-0.5s-0.6,0.4-0.9,0.5C6,15.9,5.7,16,5.4,16c-0.3,0-0.6-0.1-0.8-0.2c-0.3-0.1-0.6-0.5-0.9-0.5
	s-0.6,0.4-0.9,0.5C2.6,15.9,2.3,16,2,16v-1.2c0.3,0,0.6-0.1,0.8-0.2c0.3-0.1,0.6-0.5,0.9-0.5s0.6,0.4,0.9,0.5
	c0.3,0.1,0.5,0.2,0.8,0.2s0.6-0.1,0.8-0.2c0.3-0.1,0.6-0.5,0.9-0.5s0.6,0.4,0.9,0.5c0.3,0.1,0.5,0.2,0.8,0.2c0.3,0,0.6-0.1,0.8-0.2
	c0.3-0.1,0.6-0.5,0.9-0.5c0.3,0,0.6,0.4,0.9,0.5s0.5,0.2,0.8,0.2c0.3,0,0.6-0.1,0.8-0.2c0.3-0.1,0.6-0.5,0.9-0.5
	c0.3,0,0.6,0.4,0.9,0.5c0.3,0.1,0.5,0.2,0.8,0.2C15.6,14.8,15.6,16,15.6,16z"/>
</svg>
