<svg xmlns="http://www.w3.org/2000/svg" viewBox="0 0 18 18" height="18" width="18"><title>sea-plane-white-14.svg</title><rect fill="none" x="0" y="0" width="18" height="18"></rect><rect x="0" y="0" width="18" height="18" rx="4" ry="4" fill="#231f20"></rect><path fill="#ffffff" transform="translate(2 2)" d="M12.8,13.9c-0.3,0-0.6-0.3-0.8-0.4c-0.2-0.1-0.5-0.2-0.8-0.2s-0.6,0.1-0.8,0.2c-0.2,0.1-0.5,0.4-0.8,0.4
	c-0.3,0-0.5-0.3-0.8-0.4c-0.2-0.1-0.5-0.2-0.8-0.2c-0.3,0-0.6,0.1-0.8,0.2c-0.2,0.1-0.5,0.4-0.8,0.4c-0.3,0-0.6-0.3-0.8-0.4
	c-0.2-0.1-0.5-0.2-0.8-0.2c-0.3,0-0.6,0.1-0.8,0.2c-0.2,0.1-0.5,0.4-0.8,0.4s-0.5-0.3-0.8-0.4c-0.2-0.1-0.5-0.2-0.8-0.2
	c-0.3,0-0.6,0.1-0.8,0.2c-0.2,0.1-0.5,0.4-0.8,0.4v-1.2c0.3,0,0.5-0.3,0.8-0.4c0.2-0.1,0.5-0.2,0.8-0.2c0.3,0,0.6,0.1,0.8,0.2
	c0.2,0.1,0.5,0.4,0.8,0.4s0.6-0.3,0.8-0.4c0.2-0.1,0.5-0.2,0.8-0.2c0.3,0,0.6,0.1,0.8,0.2c0.2,0.1,0.5,0.4,0.8,0.4s0.5-0.3,0.8-0.4
	c0.2-0.1,0.5-0.2,0.8-0.2c0.3,0,0.6,0.1,0.8,0.2c0.2,0.1,0.5,0.4,0.8,0.4c0.3,0,0.6-0.3,0.8-0.4c0.2-0.1,0.5-0.2,0.8-0.2
	c0.3,0,0.6,0.1,0.8,0.2c0.2,0.1,0.5,0.4,0.8,0.4V13.9z"></path><path fill="#ffffff" transform="translate(2 2)" d="M13.7,5.9l-2,0.6l-0.9-1c0.3-0.2,1-0.5,1.3-0.8c0.2-0.1,0.3-0.3,0.3-0.5l0.4-1.7l0.6,1.8c0.1,0.2,0.4,0.1,0.3-0.1l-0.7-1.8
	l0.1,0c0.4-0.1,0.2-0.7-0.2-0.5l-0.1,0l-0.6-1.8C12.2-0.1,11.9,0,12,0.2L12.6,2l-0.1,0l0,0c-0.3,0.1-1.9,0.5-2.2,0.4
	c-0.3,0-0.7-0.1-1-0.1c-0.3,0-0.5,0-0.7,0.2c-0.1,0.1-1,0.6-1.8,1.2c-1,0.7-2.1,1.8-2.1,1.8L3,6C2.6,6,2.3,5.4,2,5.2L1.3,4.5
	c-0.1-0.1-0.1-0.1-0.2,0l-1,0.3C-0.1,4.9,0,5,0.1,5l1.7,2.4c0.2,0.3,0.7,0.4,1,0.3L7,6.9l0.1,0l0,1.4L3.9,9.4
	c-0.1,0-0.1,0.1-0.1,0.2c0,0,0,0.1,0.1,0.2c0,0.1,0.1,0.1,0.2,0.1c0.3,0,1.2-0.1,2.2-0.2c0.7-0.1,5.9-2,6.8-2.5
	C13.8,6.7,14,6.4,14,6.4c0-0.1,0.1-0.1,0-0.2L13.9,6C13.9,5.9,13.8,5.9,13.7,5.9z M7.4,8.2l0-1.4l3.1-1.1l0.9,1L7.4,8.2z M8.3,3
	l0.8,1c-1.1,0.4-2.6,1-2.7,1C6.3,5,6.2,5,6.2,4.9c0-0.1,0-0.1-0.1-0.1c0-0.1,0-0.1,0-0.2c0.1-0.1,0.5-0.4,0.8-0.6
	C7.4,3.6,7.9,3.2,8.3,3z M10.4,2.9c0,0.1-0.1,0.5-0.1,0.5s0,0.1-0.1,0.2c-0.1,0-0.4,0.1-0.7,0.2l-0.8-1c0,0,0.1,0,0.1,0
	C9,2.6,9,2.6,9.3,2.6c0,0,0.9,0.1,1,0.1C10.3,2.8,10.4,2.8,10.4,2.9z"></path></svg>