<?xml version="1.0" encoding="utf-8"?>
<!-- Generator: Adobe Illustrator 27.9.1, SVG Export Plug-In . SVG Version: 6.00 Build 0)  -->
<svg version="1.1" id="Layer_1" xmlns="http://www.w3.org/2000/svg" xmlns:xlink="http://www.w3.org/1999/xlink" x="0px" y="0px"
	 viewBox="0 0 18 18" enable-background="new 0 0 18 18" xml:space="preserve">
<path fill="#231F20" d="M4,0h10c2.2,0,4,1.8,4,4v10c0,2.2-1.8,4-4,4H4c-2.2,0-4-1.8-4-4V4C0,1.8,1.8,0,4,0z"/>
<path fill="#FFFFFF" d="M15.4,13.7c-0.3,0-0.6-0.1-0.8-0.2c-0.2-0.1-0.5-0.2-0.8-0.2s-0.6,0.1-0.8,0.2c-0.2,0.1-0.5,0.2-0.8,0.2
	s-0.6-0.1-0.8-0.2c-0.2-0.1-0.5-0.2-0.8-0.2s-0.6,0.1-0.8,0.2S9.3,13.7,9,13.7s-0.6-0.1-0.8-0.2c-0.2-0.1-0.5-0.2-0.8-0.2
	s-0.6,0.1-0.8,0.2c-0.2,0.1-0.5,0.2-0.8,0.2c-0.3,0-0.6-0.1-0.8-0.2c-0.2-0.1-0.5-0.2-0.8-0.2s-0.6,0.1-0.8,0.2
	c-0.2,0.1-0.5,0.2-0.8,0.2v-1.2c0.3,0,0.6-0.1,0.8-0.2c0.2-0.1,0.5-0.2,0.8-0.2s0.6,0.1,0.8,0.2c0.2,0.1,0.5,0.2,0.8,0.2
	c0.3,0,0.6-0.1,0.8-0.2c0.2-0.1,0.5-0.2,0.8-0.2s0.6,0.1,0.8,0.2c0.2,0.1,0.5,0.2,0.8,0.2s0.6-0.1,0.8-0.2c0.2-0.1,0.5-0.2,0.8-0.2
	s0.6,0.1,0.8,0.2c0.2,0.1,0.5,0.2,0.8,0.2s0.6-0.1,0.8-0.2c0.2-0.1,0.5-0.2,0.8-0.2s0.6,0.1,0.8,0.2c0.2,0.1,0.5,0.2,0.8,0.2
	C15.4,12.5,15.4,13.7,15.4,13.7z"/>
<path fill="#FFFFFF" d="M15.9,10.4h-3.3l-0.5-1.3c0.4-0.1,1.1-0.2,1.5-0.3c0.2,0,0.4-0.2,0.4-0.3L15,7v1.9c0,0.2,0.3,0.2,0.3,0v-2
	h0.1c0.4,0,0.4-0.6,0-0.6h-0.1V4.4c0-0.2-0.3-0.2-0.3,0v1.9h-0.1l0,0c-0.3,0-1.9-0.2-2.2-0.4c-0.3-0.1-0.7-0.3-1-0.5
	c-0.2-0.1-0.4-0.1-0.7,0c-0.2,0-1.2,0.2-2.1,0.5c-1.2,0.3-2.7,1-2.7,1H4.5C4.1,6.7,4,6,3.8,5.7L3.4,4.8c0-0.1-0.1-0.1-0.2-0.1H2.1
	C1.9,4.6,2,4.8,2,4.9l0.7,2.9c0.1,0.3,0.5,0.6,0.8,0.7L8,9.1l0,0l-0.5,1.3H4.1c-0.1,0-0.1,0-0.1,0.1v0.2c0,0.1,0,0.2,0.1,0.2
	c0.3,0.1,1.1,0.3,2.1,0.6h0.1c0.3-0.1,0.7-0.2,1-0.2s0.7,0.1,1,0.2c0.2,0,0.5,0.1,0.7,0.1s0.4,0,0.6-0.1c0.3-0.1,0.7-0.2,1-0.2
	s0.7,0.1,1,0.2c0.2,0.1,0.4,0.1,0.6,0.1c0.2,0,0.4,0,0.6-0.1c0.3-0.1,0.7-0.2,1-0.2s0.6,0.1,0.9,0.2c0.8-0.3,1.1-0.5,1.1-0.5
	c0.2-0.1,0.2-0.2,0.2-0.3v-0.2C16,10.4,16,10.4,15.9,10.4 M7.9,10.4l0.5-1.3h3.3l0.5,1.3H7.9z M10.5,5.8L10.9,7H8
	C7.9,7,7.9,7,7.9,6.9V6.7c0-0.1,0-0.1,0.1-0.2c0.1,0,0.6-0.3,0.9-0.3C9.5,6,10.1,5.9,10.5,5.8 M12.5,6.4c0,0.1-0.3,0.4-0.3,0.4
	s0,0.1-0.2,0.1h-0.7l-0.4-1.2H11c0.3,0,0.4,0,0.6,0.1C11.6,5.8,12.4,6.2,12.5,6.4C12.5,6.2,12.6,6.4,12.5,6.4"/>
</svg>
