<?xml version="1.0" encoding="utf-8"?>
<!-- Generator: Adobe Illustrator 27.9.1, SVG Export Plug-In . SVG Version: 6.00 Build 0)  -->
<svg version="1.1" id="Layer_1" xmlns="http://www.w3.org/2000/svg" xmlns:xlink="http://www.w3.org/1999/xlink" x="0px" y="0px"
	 viewBox="0 0 27 27" enable-background="new 0 0 27 27" xml:space="preserve">
<rect fill="none" width="27" height="27"/>
<path fill="#231F20" d="M4,0h19c2.2,0,4,1.8,4,4v19c0,2.2-1.8,4-4,4H4c-2.2,0-4-1.8-4-4V4C0,1.8,1.8,0,4,0z"/>
<path fill="#FFFFFF" d="M23.5,21c-0.4,0-0.9-0.1-1.3-0.3c-0.4-0.2-0.8-0.3-1.3-0.3s-0.9,0.1-1.3,0.3c-0.4,0.2-0.8,0.3-1.3,0.3
	c-0.5,0-0.9-0.1-1.3-0.3c-0.4-0.2-0.8-0.3-1.3-0.3c-0.5,0-0.9,0.1-1.3,0.3S13.6,21,13.1,21c-0.4,0-0.9-0.1-1.3-0.3
	c-0.4-0.2-0.8-0.3-1.3-0.3s-0.9,0.1-1.3,0.3C8.8,20.9,8.4,21,7.9,21c-0.4,0-0.9-0.1-1.3-0.3c-0.4-0.2-0.8-0.3-1.3-0.3
	S4.4,20.5,4,20.7S3.2,21,2.7,21v-1.9c0.4,0,0.9-0.1,1.3-0.3c0.8-0.2,1.3-0.3,1.7-0.3c0.5,0,0.9,0.1,1.3,0.3c0.4,0.2,0.8,0.3,1.3,0.3
	c0.4,0,0.9-0.1,1.3-0.3c0.3-0.2,0.7-0.3,1.2-0.3s0.9,0.1,1.3,0.3c0.4,0.2,0.8,0.3,1.3,0.3c0.4,0,0.9-0.1,1.3-0.3
	c0.4-0.2,0.8-0.3,1.3-0.3s0.9,0.1,1.3,0.3s0.8,0.3,1.3,0.3s0.9-0.1,1.3-0.3c0.4-0.2,0.8-0.3,1.3-0.3s0.9,0.1,1.3,0.3
	s0.8,0.3,1.3,0.3V21C23.8,21,23.5,21,23.5,21z"/>
<path fill="#FFFFFF" d="M24.2,15.6H19l-0.8-2c0.6-0.1,1.7-0.3,2.4-0.5c0.3-0.1,0.6-0.4,0.7-0.5l1.6-2.4v3c0,0.3,0.5,0.3,0.5,0v-3
	h0.2c0.6,0,0.6-0.9,0-0.9h-0.2v-3c0-0.3-0.5-0.3-0.5,0v3h-0.1l0,0c-0.5-0.1-3-0.3-3.5-0.6s-1-0.5-1.5-0.8c-0.4-0.2-0.7-0.2-1.2-0.1
	c-0.3,0-1.8,0.3-3.4,0.7C11.3,9,9,10.1,9,10.1H6.3C5.7,9.9,5.5,8.8,5.2,8.3L4.6,6.9C4.5,6.8,4.4,6.8,4.3,6.8L2.6,6.7
	C2.3,6.7,2.4,6.9,2.4,7l1.2,4.5c0.1,0.5,0.8,1,1.3,1l6.8,1h0.1l-0.8,2H5.6c-0.1,0-0.2,0.1-0.2,0.2V16c0,0.1,0.1,0.2,0.2,0.3
	c0.4,0.1,1.8,0.5,3.3,0.9c0.1,0,0.1,0,0.2-0.1c0.5-0.2,1-0.4,1.6-0.4c0.5,0,1.1,0.1,1.6,0.3c0.3,0.1,0.7,0.2,1,0.2s0.7-0.1,1-0.2
	c0.5-0.2,1-0.4,1.6-0.4c0.5,0,1.1,0.1,1.6,0.3c0.3,0.1,0.7,0.2,1,0.2c0.3,0,0.7-0.1,1-0.2c0.5-0.2,1-0.4,1.6-0.4
	c0.5,0,1,0.1,1.5,0.3c1.3-0.4,1.8-0.8,1.8-0.8c0.1-0.1,0.2-0.2,0.2-0.3v-0.4C24.4,15.7,24.3,15.6,24.2,15.6 M11.7,15.7l0.8-2h5.2
	l0.7,2H11.7z M15.8,8.5l0.6,1.8h-4.6c-0.1,0-0.2-0.1-0.2-0.2V9.8c0-0.1,0.1-0.2,0.2-0.3c0.1-0.1,1-0.4,1.5-0.5
	C14.2,8.8,15.1,8.6,15.8,8.5 M19,9.5c-0.1,0.1-0.4,0.7-0.4,0.7s-0.1,0.1-0.3,0.1h-1.2l-0.7-2c0.1,0,0.1,0,0.1,0
	c0.4-0.1,0.6-0.1,0.9,0.1c0,0,1.3,0.7,1.4,0.7C19,9.2,19,9.3,19,9.5"/>
</svg>
