<svg xmlns="http://www.w3.org/2000/svg" viewBox="0 0 18 18" height="18" width="18"><title>self-guiding-trail-white-14.svg</title><rect fill="none" x="0" y="0" width="18" height="18"></rect><rect x="0" y="0" width="18" height="18" rx="4" ry="4" fill="#231f20"></rect><path fill="#ffffff" transform="translate(2 2)" d="M9,13h1v1H9V13z M11,13h1v1h-1V13z M13,13h1v1h-1V13z M13,11h1v1h-1V11z M13,9h1v1h-1V9z M13,7h1v1h-1V7z
	 M13,5h1v1h-1V5z M13,3h1v1h-1V3z M13,1h1v1h-1V1z M11,1h1v1h-1V1z M9,1h1v1H9V1z M6,1.5L8,3V0L6,1.5z M9,6L8,7L7,8v6h1V9l1-1l1-1V6
	H9z M3,5h1l2,2v1L4,6v3l1,5H4l-1-4H2l-1,3.9L0,14l1-5l1-2H0V4l1-1l1,1L3,5z M4,2c0.6,0,1,0.4,1,1S4.6,4,4,4S3,3.6,3,3S3.4,2,4,2z"></path></svg>