<svg xmlns="http://www.w3.org/2000/svg" viewBox="0 0 18 18" height="18" width="18"><title>sewer-hookup-white-14.svg</title><rect fill="none" x="0" y="0" width="18" height="18"></rect><rect x="0" y="0" width="18" height="18" rx="4" ry="4" fill="#231f20"></rect><path fill="#ffffff" transform="translate(2 2)" d="M0.1,1.9c0-1,2.4-1.9,5.4-1.9S11,0.9,11,1.9S8.6,3.8,5.5,3.8S0.1,3,0.1,1.9z M5.5,2.4
		c1.2,0,2.2-0.3,2.2-0.8s-1-0.8-2.2-0.8S3.4,1.2,3.4,1.6S4.3,2.4,5.5,2.4z"></path><path fill="#ffffff" transform="translate(2 2)" d="M11,3.3L11,3.3c-0.5,0.9-2.6,1.5-5.5,1.5S0.7,4.4,0.1,3.3l0,0v8.8l0,0c0.1,1,2.5,1.9,5.5,1.9
		s5.4-0.8,5.5-1.9l0,0V3.3H11z"></path><path fill="#ffffff" transform="translate(2 2)" d="M11.9,12l2,0.7V2.4l-2.3-0.9c0,0,0.3,0.3,0.3,0.6C11.9,2.7,11.9,12,11.9,12z"></path></svg>