<svg xmlns="http://www.w3.org/2000/svg" viewBox="0 0 27 27" height="27" width="27"><title>sewer-hookup-white-22.svg</title><rect fill="none" x="0" y="0" width="27" height="27"></rect><rect x="0" y="0" width="27" height="27" rx="4" ry="4" fill="#231f20"></rect><path fill="#ffffff" transform="translate(2 2)" d="M0.1,3c0-1.7,3.8-3,8.6-3s8.6,1.3,8.6,3s-3.8,3-8.6,3S0.1,4.7,0.1,3z M8.7,3.7c1.9,0,3.4-0.5,3.4-1.2
		s-1.5-1.2-3.4-1.2S5.3,1.9,5.3,2.5S6.8,3.7,8.7,3.7z"></path><path fill="#ffffff" transform="translate(2 2)" d="M17.3,5.2L17.3,5.2c-0.9,1.5-4,2.3-8.6,2.3S1,6.9,0.1,5.2l0,0V19l0,0c0.1,1.7,3.9,3,8.6,3s8.5-1.3,8.6-2.9
		l0,0V5.2z"></path><path fill="#ffffff" transform="translate(2 2)" d="M18.7,18.9l3.2,1.1V3.7l-3.6-1.4c0,0,0.4,0.5,0.4,0.9C18.8,4.2,18.7,18.9,18.7,18.9z"></path></svg>