<svg xmlns="http://www.w3.org/2000/svg" viewBox="0 0 18 18" height="18" width="18"><title>shipwreck-white-14.svg</title><rect fill="none" x="0" y="0" width="18" height="18"></rect><rect x="0" y="0" width="18" height="18" rx="4" ry="4" fill="#231f20"></rect><path fill="#ffffff" transform="translate(2 2)" d="M14,12.3c-0.3,0-0.6-0.1-0.9-0.2C12.9,12,12.6,12,12.3,12s-0.6,0.1-0.9,0.2c-0.3,0.1-0.6,0.2-0.9,0.2
	c-0.3,0-0.6-0.1-0.9-0.2C9.4,12,9.1,12,8.8,12s-0.6,0.1-0.9,0.2c-0.3,0.1-0.6,0.2-0.9,0.2s-0.6-0.1-0.9-0.2C5.9,12,5.6,12,5.2,12
	c-0.3,0-0.6,0.1-0.9,0.2c-0.3,0.1-0.6,0.2-0.9,0.2s-0.6-0.1-0.9-0.2C2.4,12,2.1,12,1.7,12c-0.3,0-0.6,0.1-0.9,0.2
	c-0.3,0.1-0.6,0.2-0.9,0.2v-1.3c0.3,0,0.6-0.1,0.9-0.2c0.3-0.1,0.6-0.2,0.9-0.2s0.6,0.1,0.9,0.2c0.3,0.1,0.6,0.2,0.9,0.2
	s0.6-0.1,0.9-0.2c0.3-0.1,0.6-0.2,0.9-0.2s0.6,0.1,0.9,0.2C6.4,11,6.7,11.1,7,11.1s0.6-0.1,0.9-0.2c0.3-0.1,0.6-0.2,0.9-0.2
	s0.6,0.1,0.9,0.2c0.3,0.1,0.6,0.2,0.9,0.2c0.3,0,0.6-0.1,0.9-0.2c0.3-0.1,0.6-0.2,0.9-0.2c0.3,0,0.6,0.1,0.9,0.2
	c0.3,0.1,0.6,0.2,0.9,0.2v1.2H14z"></path><path fill="#ffffff" transform="translate(2 2)" d="M7.5,7L6.2,4l1.3-0.5L7.2,2.6L6.3,3c0,0-0.2,0.1-0.4,0.2L5.3,1.7L4.5,2l0.6,1.5C4.5,3.8,3.8,4.1,3.8,4.1
	l0.3,0.8l1.4-0.6l1.3,3c-2.6,1.1-5.1,2.2-5,2.2c0.3,0,0.6,0.1,0.9,0.2C3,9.8,3.3,9.9,3.6,9.9s0.6-0.1,0.9-0.2
	c0.3-0.1,0.6-0.2,0.9-0.2S6,9.6,6.3,9.7C6.4,9.8,6.7,9.8,7,9.8s0.6-0.1,0.9-0.2c0.3-0.1,0.6-0.2,0.9-0.2s0.6,0.1,0.9,0.2
	c0.3,0.1,0.6,0.2,0.9,0.2c0.1,0,0.2,0,0.3,0c0.2,0,0.3,0,0.5-0.1l0,0C11.5,8.2,12.1,5,12.1,5S9.9,6,7.5,7z"></path></svg>