<svg xmlns="http://www.w3.org/2000/svg" viewBox="0 0 27 27" height="27" width="27"><title>shipwreck-white-22.svg</title><rect fill="none" x="0" y="0" width="27" height="27"></rect><rect x="0" y="0" width="27" height="27" rx="4" ry="4" fill="#231f20"></rect><path fill="#ffffff" transform="translate(2 2)" d="M22,19.4c-0.5,0-0.9-0.1-1.4-0.3c-0.4-0.2-0.9-0.3-1.4-0.3s-1,0.1-1.4,0.3c-0.4,0.2-0.9,0.3-1.4,0.3
	s-0.9-0.1-1.4-0.3c-0.4-0.2-0.9-0.3-1.4-0.3s-1,0.1-1.4,0.3c-0.4,0.2-0.9,0.3-1.4,0.3s-0.9-0.1-1.4-0.3C9,18.9,8.5,18.8,8,18.8
	s-1,0.1-1.4,0.3c-0.4,0.2-0.9,0.3-1.4,0.3s-0.9-0.1-1.4-0.3c-0.4-0.2-0.9-0.3-1.4-0.3s-1,0.1-1.4,0.3c-0.4,0.2-0.9,0.3-1.4,0.3v-2
	c0.5,0,0.9-0.1,1.4-0.3c0.4-0.2,0.9-0.3,1.4-0.3s1,0.1,1.4,0.3c0.4,0.2,0.9,0.3,1.4,0.3s0.9-0.1,1.4-0.3C7,16.9,7.5,16.8,8,16.8
	s1,0.1,1.4,0.3c0.4,0.2,0.9,0.3,1.4,0.3s0.9-0.1,1.4-0.3c0.4-0.2,0.9-0.3,1.4-0.3s1,0.1,1.4,0.3c0.4,0.2,0.9,0.3,1.4,0.3
	s0.9-0.1,1.4-0.3c0.4-0.2,0.9-0.3,1.4-0.3s1,0.1,1.4,0.3c0.4,0.2,0.9,0.3,1.4,0.3V19.4z"></path><path fill="#ffffff" transform="translate(2 2)" d="M11.8,10.9l-2-4.7l2-0.8l-0.5-1.2L10,4.7c0,0-0.3,0.1-0.7,0.3l-1-2.4L7.1,3.1l1,2.4C7,5.9,5.9,6.4,5.9,6.4
	l0.5,1.2l2.1-0.9l2,4.7c-4.1,1.7-8.1,3.4-7.8,3.4c0.5,0,1,0.1,1.4,0.3s0.9,0.3,1.4,0.3s0.9-0.1,1.4-0.3c0.4-0.2,0.9-0.3,1.4-0.3
	s1,0.1,1.4,0.3s0.9,0.3,1.4,0.3s0.9-0.1,1.4-0.3c0.4-0.2,0.9-0.3,1.4-0.3s1,0.1,1.4,0.3s0.9,0.3,1.4,0.3c0.1,0,0.3,0,0.4,0
	c0.2-0.1,0.5-0.1,0.7-0.2l0,0c0.4-2.4,1.4-7.3,1.4-7.3S15.6,9.4,11.8,10.9z"></path></svg>