<?xml version="1.0" encoding="utf-8"?>
<!-- Generator: Adobe Illustrator 25.4.1, SVG Export Plug-In . SVG Version: 6.00 Build 0)  -->
<svg version="1.1" id="Layer_1" xmlns="http://www.w3.org/2000/svg" xmlns:xlink="http://www.w3.org/1999/xlink" x="0px" y="0px"
	 width="18px" height="18px" viewBox="0 0 18 18" enable-background="new 0 0 18 18" xml:space="preserve">
<path fill="#231F20" d="M4,0h10c2.2,0,4,1.8,4,4v10c0,2.2-1.8,4-4,4H4c-2.2,0-4-1.8-4-4V4C0,1.8,1.8,0,4,0z"/>
<path fill="#FFFFFF" d="M5.8,4.5c0.2,0,0.3,0.1,0.3,0.3C6.1,5,6,5.1,5.8,5.1C5.6,5.1,5.5,5,5.5,4.8C5.5,4.6,5.6,4.5,5.8,4.5z
	 M5.7,3.3C5.9,3.3,6,3.4,6,3.6c0,0.2-0.1,0.3-0.3,0.3c-0.2,0-0.3-0.1-0.3-0.3C5.4,3.4,5.5,3.3,5.7,3.3z M5,5.3
	c0.2,0,0.3,0.1,0.3,0.3S5.2,5.9,5,5.9S4.7,5.8,4.7,5.6S4.8,5.3,5,5.3z M4.8,4.2c0,0.2,0.1,0.3,0.3,0.3s0.3-0.1,0.3-0.3
	c0-0.2-0.1-0.3-0.3-0.3C4.9,3.9,4.8,4,4.8,4.2z M6.6,5.7c0.2-0.1,0.3-0.2,0.3-0.4C6.9,5.2,6.8,5,6.6,5C6.4,5,6.2,5.2,6.2,5.4
	C6.2,5.6,6.4,5.7,6.6,5.7z M7.4,6.3c0.2,0,0.3-0.2,0.3-0.4S7.5,5.6,7.3,5.6S7,5.8,7,6S7.2,6.3,7.4,6.3z M8.7,4.5
	C8.9,4.5,9,4.6,9,4.8C9,5,8.9,5.1,8.7,5.1S8.4,5,8.4,4.8C8.4,4.6,8.5,4.5,8.7,4.5z M9.6,5.6c0.2,0,0.4-0.2,0.4-0.4
	C10,5,9.8,4.8,9.6,4.8C9.4,4.8,9.2,5,9.2,5.2C9.2,5.4,9.4,5.6,9.6,5.6z M6.7,3.7C6.9,3.7,7,3.8,7,4c0,0.2-0.1,0.3-0.3,0.3
	S6.4,4.2,6.4,4C6.4,3.8,6.5,3.7,6.7,3.7z M10.5,6C11.3,6,12,6.7,12,7.5S11.3,9,10.5,9S9,8.3,9,7.5S9.7,6,10.5,6z M4.4,4.5
	c-0.2,0-0.3,0.1-0.3,0.3c0,0.2,0.1,0.3,0.3,0.3S4.7,5,4.7,4.8C4.7,4.6,4.6,4.5,4.4,4.5z M7.7,4.7C7.9,4.7,8,4.6,8,4.4
	c0-0.2-0.1-0.3-0.3-0.3S7.4,4.2,7.4,4.4C7.4,4.6,7.5,4.7,7.7,4.7z M3.8,5.2c0.2,0,0.3,0.1,0.3,0.3S4,5.8,3.8,5.8S3.5,5.7,3.5,5.5
	S3.6,5.2,3.8,5.2z M5.6,6.1c-0.2,0-0.3,0.1-0.3,0.3c0,0.2,0.1,0.3,0.3,0.3s0.3-0.1,0.3-0.3C5.9,6.2,5.8,6.1,5.6,6.1z M5.3,8.3
	C5.4,8.1,5.2,8,5,7.9C4.8,7.9,4.6,8,4.6,8.2s0.1,0.4,0.3,0.4C5.1,8.7,5.3,8.5,5.3,8.3z M5.4,8.9C5.2,8.8,5,9,5,9.2s0.1,0.4,0.3,0.4
	c0.2,0,0.4-0.1,0.4-0.3C5.7,9.1,5.6,8.9,5.4,8.9z M6.2,6.8c0.2,0,0.3,0.1,0.3,0.3S6.4,7.4,6.2,7.4S5.9,7.3,5.9,7.1S6,6.8,6.2,6.8z
	 M7.1,7.9C7.2,7.7,7,7.5,6.8,7.5C6.6,7.4,6.4,7.6,6.4,7.8c0,0.3,0.1,0.4,0.3,0.4C6.9,8.3,7.1,8.1,7.1,7.9z M3.7,4.5
	c0-0.2-0.1-0.3-0.3-0.3S3.1,4.3,3.1,4.5s0.1,0.3,0.3,0.3S3.7,4.7,3.7,4.5z M4.3,3.3c0.2,0,0.3,0.1,0.3,0.3S4.5,3.9,4.3,3.9
	C4.1,3.9,4,3.8,4,3.6C4,3.4,4.1,3.3,4.3,3.3z M3.6,4.1c0,0.2,0.1,0.3,0.3,0.3c0.2,0,0.3-0.1,0.3-0.3c0-0.2-0.1-0.2-0.2-0.3V3.6V3
	h0.6c0,0-0.1,0.1-0.1,0.2c0,0.2,0.1,0.3,0.3,0.3c0.2,0,0.3-0.1,0.3-0.3C5.1,3.1,5.1,3,5,3V2H2v3h1V4L3.6,4.1C3.6,4,3.6,4.1,3.6,4.1z
	 M4.9,7.4c0-0.2-0.1-0.3-0.3-0.3c-0.2,0-0.3,0.1-0.3,0.3c0,0.2,0.1,0.3,0.3,0.3C4.8,7.7,4.9,7.6,4.9,7.4z M4.5,6.4
	c0-0.2-0.1-0.3-0.3-0.3C4,6.1,3.9,6.2,3.9,6.4c0,0.2,0.1,0.3,0.3,0.3C4.4,6.7,4.5,6.6,4.5,6.4z"/>
<path fill="#FFFFFF" d="M15.8,7.7c-0.2-0.2-0.5-0.2-0.7,0L12.8,10H9c0,0-1.7,1.6-2.3,2.3C6.6,12.4,6.4,13,6.9,13s1.1,0,1.6,0
	C8.8,13,9,13,9,13v3h4v-4.8c0.1,0,0.1-0.1,0.2-0.1l2.6-2.6C16,8.3,16,7.9,15.8,7.7z M12,14h-2v-1h0.5c0.3,0,0.5-0.2,0.5-0.5
	S10.8,12,10.5,12H10v-1h2V14z"/>
</svg>
