<svg xmlns="http://www.w3.org/2000/svg" viewBox="0 0 18 18" height="18" width="18"><title>shuttle-service-white-14.svg</title><rect fill="none" x="0" y="0" width="18" height="18"></rect><rect x="0" y="0" width="18" height="18" rx="4" ry="4" fill="#231f20"></rect><path fill="#ffffff" transform="translate(2 2)" d="M13,2.5L9,1v1H1v1h8v1L13,2.5z"></path><path fill="#ffffff" transform="translate(2 2)" d="M12.5,10V9.3c0-0.4-0.3-0.7-0.6-0.9L11,8.2L10,6C9.8,5.6,9.5,5,9,5H1v7h6.1c0.2-1.1,1.2-2,2.4-2
	s2.2,0.9,2.4,2H12c0.3,0,1-0.7,1-1v-1H12.5z M6,8V6h2.9C8.9,6.1,9,6.2,9,6.3l0.1,0.1L9.8,8H6z"></path><path fill="#ffffff" transform="translate(2 2)" d="M9.5,11C8.7,11,8,11.7,8,12.5S8.7,14,9.5,14s1.5-0.7,1.5-1.5S10.3,11,9.5,11z M9.5,13C9.2,13,9,12.8,9,12.5
	S9.2,12,9.5,12s0.5,0.2,0.5,0.5S9.8,13,9.5,13z"></path></svg>