<svg xmlns="http://www.w3.org/2000/svg" viewBox="0 0 26 26" height="26" width="26"><title>shuttle-service-white-22.svg</title><rect fill="none" x="0" y="0" width="26" height="26"></rect><rect x="0" y="0" width="26" height="26" rx="4" ry="4" fill="#231f20"></rect><path fill="#ffffff" transform="translate(2 2)" d="M17.9,19c-0.2-1.1-1.2-2-2.4-2s-2.2,0.9-2.4,2c0,0.2-0.1,0.3-0.1,0.5c0,1.4,1.1,2.5,2.5,2.5s2.5-1.1,2.5-2.5
	C18,19.3,18,19.2,17.9,19z M15.5,20.5c-0.6,0-1-0.4-1-1s0.4-1,1-1s1,0.4,1,1S16.1,20.5,15.5,20.5z"></path><path fill="#ffffff" transform="translate(2 2)" d="M21,4l-7-3v2H1v2h13v2L21,4z"></path><path fill="#ffffff" transform="translate(2 2)" d="M20,16v-1.3c0-0.6-0.8-1.2-1.3-1.4l-1.4-0.5L17,12.3L15.6,10L15,9c-0.1-0.2-0.8-1-1-1H1v11h11.1
	c0.2-1.7,1.7-3,3.4-3s3.2,1.3,3.4,3h0.6c0.5,0,1.4-0.5,1.4-1v-2H20z M15.9,14H12c-0.6,0-1.1-0.5-1.1-1.1V11c0-0.6,0.5-1.1,1.1-1.1
	h2.1l0.4,0.6l1.4,2.3l0.3,0.5l0.2,0.3C16.3,13.9,16.1,14,15.9,14z"></path></svg>