<svg xmlns="http://www.w3.org/2000/svg" viewBox="0 0 18 18" height="18" width="18"><title>sign-white-14.svg</title><rect fill="none" x="0" y="0" width="18" height="18"></rect><rect x="0" y="0" width="18" height="18" rx="4" ry="4" fill="#231f20"></rect><path fill="#ffffff" transform="translate(2 2)" d="M12,1H8c0-0.6-0.4-1-1-1C6.4,0,6,0.4,6,1H2C1.5,1,1,1.4,1,2v5c0,0.6,0.4,1,1,1h4v5c0,0,0,0,0,0H5v1h4v-1H8c0,0,0,0,0,0V8h4
	c0.5,0,1-0.4,1-1V2C13,1.4,12.6,1,12,1z M11,6H3V5h8V6z M11,4H3V3h8V4z"></path></svg>