<svg xmlns="http://www.w3.org/2000/svg" viewBox="0 0 27 27" height="27" width="27"><title>sign-white-22.svg</title><rect fill="none" x="0" y="0" width="27" height="27"></rect><rect x="0" y="0" width="27" height="27" rx="4" ry="4" fill="#231f20"></rect><path fill="#ffffff" transform="translate(2 2)" d="M18,2h-6V1c0-0.6-0.4-1-1-1c-0.6,0-1,0.4-1,1v1H4C3.4,2,3,2.4,3,3v7c0,0.6,0.4,1,1,1h6v9H9l-1,1v1h6v-1l-1-1h-1v-9h6
	c0.6,0,1-0.4,1-1V3C19,2.4,18.6,2,18,2z M17,9H5V8h12V9z M17,7H5V6h12V7z M17,5H5V4h12V5z"></path></svg>