<svg xmlns="http://www.w3.org/2000/svg" viewBox="0 0 18 18" height="18" width="18"><title>silence-mobile-devices-white-14.svg</title><rect fill="none" x="0" y="0" width="18" height="18"></rect><rect x="0" y="0" width="18" height="18" rx="4" ry="4" fill="#231f20"></rect><path fill="#ffffff" transform="translate(2 2)" d="M10,7c0-2.3-0.9-4.2-2.2-4.8L7,3c0.9,0,2,1.6,2,4c0,0.2,0,0.4,0,0.6l0.9,0.9C9.9,8,10,7.5,10,7z M7,11
	l0.8,0.8c0.5-0.2,1-0.7,1.3-1.3L8.4,9.8C8,10.6,7.5,11,7,11z M8.6,12.6l0.7,0.7c0.5-0.3,0.9-0.8,1.3-1.3l-0.7-0.7
	C9.5,11.8,9.1,12.3,8.6,12.6z M12,7c0-2.8-1.1-5.2-2.7-6.3L8.6,1.4C10,2.3,11,4.4,11,7c0,0.8-0.1,1.6-0.3,2.3l0.8,0.8
	C11.8,9.2,12,8.1,12,7z M6,2L4.7,3.3L6,4.6V2z M3.3,4.7L3,5H0v4h3l3,3V7.4L3.3,4.7z M0.7,0H0v0.7L13.3,14H14v-0.7L0.7,0z M13,7
	c0,1.4-0.3,2.7-0.7,3.9l0.8,0.8c0.6-1.4,0.9-3,0.9-4.7c0-2.9-1-5.4-2.5-7H10l0,0C11.8,1.3,13,3.9,13,7z M11.3,12.7
	c-0.4,0.5-0.8,0.9-1.3,1.3l0,0h1.5c0.2-0.2,0.4-0.4,0.5-0.6L11.3,12.7z"></path></svg>