<svg xmlns="http://www.w3.org/2000/svg" viewBox="0 0 27 27" height="27" width="27"><title>silence-mobile-devices-white-22.svg</title><rect fill="none" x="0" y="0" width="27" height="27"></rect><rect x="0" y="0" width="27" height="27" rx="4" ry="4" fill="#231f20"></rect><path fill="#ffffff" transform="translate(2 2)" d="M10,3L7.7,5.3L10,7.5V3z M5.3,7.7L5,8H0v6h5l5,5v-6.5L5.3,7.7z M15.7,11c0-3.5-1.3-6.5-3.2-7.4l-1.2,1.2
	c1.4,0.3,2.9,2.8,2.9,6.3c0,0.2,0,0.4,0,0.7l1.4,1.4C15.6,12.4,15.7,11.7,15.7,11z M11.3,17.3l1.2,1.2c0.7-0.4,1.3-1,1.8-1.8
	l-1.1-1.1C12.6,16.5,11.9,17.2,11.3,17.3z M18.7,11c0-4.3-1.6-7.9-4.1-9.6l-1.1,1.1c2.2,1.4,3.6,4.6,3.6,8.5c0,1.2-0.1,2.3-0.4,3.3
	l1.2,1.2C18.4,14.2,18.7,12.6,18.7,11z M13.5,19.5l1.1,1.1c0.7-0.5,1.2-1.1,1.8-1.8l-1.1-1.1C14.8,18.5,14.2,19.1,13.5,19.5z
	 M18.5,21l-1.1-1.1c-0.5,0.7-1.1,1.3-1.8,1.8L16,22h1.6C17.9,21.7,18.2,21.3,18.5,21z M20.2,11c0,2.1-0.4,4-1,5.7l1.2,1.2
	c0.9-2,1.3-4.3,1.3-6.9c0-4.6-1.6-8.5-4.1-11H16l-0.3,0.3C18.4,2.4,20.2,6.3,20.2,11z M1.1,0H0v1.1L20.9,22H22v-1.1L1.1,0z"></path></svg>