<svg xmlns="http://www.w3.org/2000/svg" viewBox="0 0 18 18" height="18" width="18"><title>skateboarding-white-14.svg</title><rect fill="none" x="0" y="0" width="18" height="18"></rect><rect x="0" y="0" width="18" height="18" rx="4" ry="4" fill="#231f20"></rect><path fill="#ffffff" transform="translate(2 2)" d="M5.4,14c0.2,0,0.4-0.2,0.4-0.4s-0.2-0.4-0.4-0.4c-0.2,0-0.4,0.2-0.4,0.4S5.2,14,5.4,14z"></path><path fill="#ffffff" transform="translate(2 2)" d="M8.5,14C8.8,14,9,13.8,9,13.6s-0.2-0.4-0.4-0.4s-0.4,0.2-0.4,0.4C8.1,13.8,8.3,14,8.5,14z"></path><path fill="#ffffff" transform="translate(2 2)" d="M4.5,12.8c0,0-0.2,0-0.2-0.3l0,0c0-0.2,0.2-0.3,0.2-0.3h4.9c0,0,0.2,0,0.2,0.3l0,0c0,0.2-0.2,0.3-0.2,0.3
	H4.5z"></path><path fill="#ffffff" transform="translate(2 2)" d="M7.3,2.8c0.6,0,1.1-0.5,1.1-1.1S7.9,0.6,7.3,0.6S6.2,1.1,6.2,1.7C6.2,2.3,6.7,2.8,7.3,2.8z"></path><path fill="#ffffff" transform="translate(2 2)" d="M2,11.6c-0.1,0.1-0.1,0.2-0.1,0.3c0,0.4,0.3,0.7,0.7,0.7c0.3,0,0.5-0.2,0.6-0.4l2.4-4.1l-1-1L2,11.6z"></path><path fill="#ffffff" transform="translate(2 2)" d="M7.1,11.4c-0.1,0.2-0.3,0.4-0.6,0.4c-0.4,0-0.7-0.3-0.7-0.7c0-0.1,0-0.2,0.1-0.3l1-1.8l-2-2
	C4.1,6.2,4.7,5.4,4.7,5.4L5.5,4H2.7C2.4,4,2.1,3.7,2.1,3.4S2.4,3,2.7,3h8.7C11.7,3,12,3.1,12,3.4S11.6,4,11.3,4H8L6.7,6.3l1.6,1.6
	C8.8,8.4,8.5,9,8.5,9L7.1,11.4z"></path></svg>