<svg xmlns="http://www.w3.org/2000/svg" viewBox="0 0 27 27" height="27" width="27"><title>skateboarding-white-22.svg</title><rect fill="none" x="0" y="0" width="27" height="27"></rect><rect x="0" y="0" width="27" height="27" rx="4" ry="4" fill="#231f20"></rect><path fill="#ffffff" transform="translate(2 2)" d="M8.3,22c0.4,0,0.6-0.3,0.6-0.6c0-0.4-0.3-0.6-0.6-0.6c-0.4,0-0.6,0.3-0.6,0.6C7.6,21.7,7.9,22,8.3,22z"></path><path fill="#ffffff" transform="translate(2 2)" d="M13.4,22c0.4,0,0.6-0.3,0.6-0.6c0-0.4-0.3-0.6-0.6-0.6c-0.4,0-0.6,0.3-0.6,0.6C12.8,21.7,13.1,22,13.4,22z"></path><path fill="#ffffff" transform="translate(2 2)" d="M7,19.9c0,0-0.4,0-0.4-0.4l0,0c0-0.4,0.4-0.4,0.4-0.4h7.7c0,0,0.4,0,0.4,0.4l0,0c0,0.4-0.4,0.4-0.4,0.4H7z"></path><path fill="#ffffff" transform="translate(2 2)" d="M12.3,3.7c1,0,1.7-0.8,1.7-1.7s-0.8-1.7-1.7-1.7S10.6,1.1,10.6,2S11.4,3.7,12.3,3.7z"></path><path fill="#ffffff" transform="translate(2 2)" d="M3.1,18.2C3,18.4,3,18.6,3,18.7c0,0.6,0.5,1.1,1.1,1.1c0.4,0,0.8-0.3,1-0.6l3.7-6.4l-1.5-1.5L3.1,18.2z"></path><path fill="#ffffff" transform="translate(2 2)" d="M11.1,18c-0.2,0.4-0.5,0.6-1,0.6c-0.6,0-1.1-0.5-1.1-1.1c0-0.2,0-0.4,0.1-0.5l1.6-2.8l-3-3.2
	C6.5,9.8,7.3,8.5,7.3,8.5L9,6H4.5C4,6,3.6,5.6,3.6,5.1S4,4.2,4.5,4.2h13.6c0.5,0,0.9,0.4,0.9,0.9S18.6,6,18.1,6h-5.2l-2.5,3.9
	l2.5,2.5c0.9,0.8,0.3,1.8,0.3,1.8L11.1,18z"></path></svg>