<svg xmlns="http://www.w3.org/2000/svg" viewBox="0 0 18 18" height="18" width="18"><title>ski-jumping-white-14.svg</title><rect fill="none" x="0" y="0" width="18" height="18"></rect><rect x="0" y="0" width="18" height="18" rx="4" ry="4" fill="#231f20"></rect><path fill="#ffffff" transform="translate(2 2)" d="M9.9,2.2c0.6,0,1.1-0.5,1.1-1.1S10.5,0,9.9,0C9.3,0,8.8,0.5,8.8,1.1S9.3,2.2,9.9,2.2z"></path><path fill="#ffffff" transform="translate(2 2)" d="M5.2,6.7l4-2.6c0.5-0.3,0.7-1,0.3-1.5C9.2,2.1,8.5,1.9,8,2.2L5.1,4.1C4.9,4.2,4.8,4.4,4.7,4.5l-3.1,6
	c-0.2,0.4,0,0.8,0.3,1c0.4,0.2,0.8,0,1-0.3L5.2,6.7z"></path><path fill="#ffffff" transform="translate(2 2)" d="M13,6.3c0.5-0.3,0.7-1,0.4-1.5L12.9,5c0.2,0.3,0.1,0.7-0.2,0.9L0.5,13.6L0.7,14L13,6.3z"></path></svg>