<svg xmlns="http://www.w3.org/2000/svg" viewBox="0 0 27 27" height="27" width="27"><title>ski-jumping-white-22.svg</title><rect fill="none" x="0" y="0" width="27" height="27"></rect><rect x="0" y="0" width="27" height="27" rx="4" ry="4" fill="#231f20"></rect><path fill="#ffffff" transform="translate(2 2)" d="M15.6,3.5c1,0,1.7-0.8,1.7-1.7c0-1-0.8-1.7-1.7-1.7c-1,0-1.7,0.8-1.7,1.7C13.8,2.7,14.6,3.5,15.6,3.5z"></path><path fill="#ffffff" transform="translate(2 2)" d="M8.2,10.5l6.3-4c0.8-0.5,1-1.6,0.5-2.4S13.4,3,12.6,3.6L8,6.5C7.7,6.7,7.5,6.9,7.4,7.1l-4.8,9.5
	c-0.3,0.6-0.1,1.2,0.5,1.5s1.2,0.1,1.5-0.5L8.2,10.5z"></path><path fill="#ffffff" transform="translate(2 2)" d="M20.4,9.9c0.8-0.5,1.1-1.6,0.6-2.4l-0.6,0.4c0.3,0.5,0.2,1.1-0.3,1.5l-19.3,12L1.2,22L20.4,9.9z"></path></svg>