<svg xmlns="http://www.w3.org/2000/svg" viewBox="0 0 27 27" height="27" width="27"><title>sledding-white-22.svg</title><rect fill="none" x="0" y="0" width="27" height="27"></rect><rect x="0" y="0" width="27" height="27" rx="4" ry="4" fill="#231f20"></rect><path fill="#ffffff" transform="translate(2 2)" d="M21.4,18.3l-2.9-1.1l-2.1-3.8c0,0-0.2-0.4-0.8-0.6L8.7,10L4.6,3C4.4,2.7,3.9,2,3.4,2C2.7,2,2,3,2,3.8
	C2,4,2.1,4.3,2.2,4.4L7.3,13l-2.7-1H3.8l-0.5,0.3l12.9,5.1l0,0l0.8,1.2c0.1,0.1,0.3,0.2,0.5,0.3l1.6,0.6c-1,1-2.5,0.6-2.5,0.6
	L1.4,14H0.5L0,14.3l16.5,6.5c1.9,0.7,3.5-1,3.5-1l0,0l0.8,0.3l0,0c0.1,0,0.2,0,0.3,0c0.5,0,0.9-0.5,0.9-1.1
	C21.9,18.7,21.8,18.5,21.4,18.3z"></path><path fill="#ffffff" transform="translate(2 2)" d="M20,11c1.1,0,2,0.9,2,2s-0.9,2-2,2s-2-0.9-2-2S18.9,11,20,11z"></path></svg>