<svg xmlns="http://www.w3.org/2000/svg" viewBox="0 0 18 18" height="18" width="18"><title>sledding-white-14.svg</title><rect fill="none" x="0" y="0" width="18" height="18"></rect><rect x="0" y="0" width="18" height="18" rx="4" ry="4" fill="#231f20"></rect><path fill="#ffffff" transform="translate(2 2)" d="M13.6,11.1l-1.8-0.7L11.5,10H11V9l-0.6-1l0,0L5.5,5.9C5.5,5.9,2.3,1,2,1C1.5,1,1,1.4,1,1.9
		C1,2,0.9,2.2,1,2.3l3,4.4l0.7,1.1L5,8.5L6.4,9L7,9.2L9,10l1,0.4l0.3,0.1l0,0l0.7,0.9l0.2,0.1l1,0.4l1.7,0.1
		c0.1-0.1,0.1-0.2,0.1-0.3C14,11.4,13.8,11.2,13.6,11.1z"></path><path fill="#ffffff" transform="translate(2 2)" d="M10.6,12.3L9.9,12H9v-0.4L7.4,11H7v-0.2L4.9,10H4V9.6L2.4,9H2V8.8L0.6,8.3L0,8.6L10.5,13
		c0.2,0,1.1-0.2,1.5-0.4v-0.5C11.4,12.5,10.6,12.3,10.6,12.3z"></path><path fill="#ffffff" transform="translate(2 2)" d="M12.9,9h-0.8C11.5,9,11,8.5,11,7.9V7.1C11,6.5,11.5,6,12.1,6h0.8C13.5,6,14,6.5,14,7.1v0.8
		C14,8.5,13.5,9,12.9,9z"></path></svg>