<svg xmlns="http://www.w3.org/2000/svg" viewBox="0 0 18 18" height="18" width="18"><title>sleeping-shelter-white-14.svg</title><rect fill="none" x="0" y="0" width="18" height="18"></rect><rect x="0" y="0" width="18" height="18" rx="4" ry="4" fill="#231f20"></rect><path fill="#ffffff" transform="translate(2 2)" d="M5,8.6c0.6,0,1,0.4,1,1s-0.4,1-1,1s-1-0.4-1-1S4.4,8.6,5,8.6z M13.2,9.2c0.4,0,0.8,0.3,0.8,0.8v2.1H8V9.2
	H13.2z M6,11H4.7c-0.3,0-0.5,0.2-0.5,0.5S4.4,12,4.7,12h1.8C6.8,12,7,11.8,7,11.5V9.6c0-0.3-0.2-0.5-0.5-0.5C6.3,9.1,6,9.3,6,9.6V11
	z M14,1V0h-0.2L0,6.4v1.2l2-1V14h12v-1H3V6.2L14,1z"></path></svg>