<svg xmlns="http://www.w3.org/2000/svg" viewBox="0 0 27 27" height="27" width="27"><title>sleeping-shelter-white-22.svg</title><rect fill="none" x="0" y="0" width="27" height="27"></rect><rect x="0" y="0" width="27" height="27" rx="4" ry="4" fill="#231f20"></rect><path fill="#ffffff" transform="translate(2 2)" d="M8.5,14c0.8,0,1.5,0.7,1.5,1.5c0,0.8-0.7,1.5-1.5,1.5S7,16.3,7,15.5C7,14.7,7.7,14,8.5,14z M20.8,15
	c0.6,0,1.2,0.3,1.2,0.9V19h-9v-4H20.8z M10.5,17.6h-2c-0.4,0-0.7,0.3-0.7,0.7c0,0.4,0.3,0.7,0.7,0.7h2.8c0.4,0,0.7-0.3,0.7-0.7v-2.9
	c0-0.4-0.3-0.7-0.7-0.7s-0.8,0.3-0.8,0.7V17.6z M22,1.6V0h-1.3L0,9.9v2.2l4-1.9V22h1h1h16v-2H6V9.2L22,1.6z"></path></svg>