<svg xmlns="http://www.w3.org/2000/svg" viewBox="0 0 18 18" height="18" width="18"><title>slippery-ramp-white-14.svg</title><rect fill="none" x="0" y="0" width="18" height="18"></rect><rect x="0" y="0" width="18" height="18" rx="4" ry="4" fill="#231f20"></rect><path fill="#ffffff" transform="translate(2 2)" d="M6.2,1.8C6.3,1.2,6,0.5,5.4,0.3C4.8,0.2,4.2,0.5,4,1.1C3.8,1.7,4.1,2.4,4.7,2.5C5.3,2.7,6,2.4,6.2,1.8z"></path><path fill="#ffffff" transform="translate(2 2)" d="M8.3,5.3L7.9,2.6L10.6,1c0.1-0.1,0.2-0.2,0.3-0.3C11,0.4,10.8,0.1,10.5,0c-0.2,0-0.3,0-0.4,0.1L6.2,2.3
	C6.1,2.4,5.9,2.5,5.8,2.6L4.3,4.8L2,4.5c-0.1,0-0.3,0.2-0.3,0.3C1.6,5.1,1.7,5.4,2,5.5c0.1,0,0.2,0.1,0.4,0l2.2,0.3
	c0.1,0,0.2-0.1,0.2-0.1l0.9-1.1L6.2,7c0.1,0.3,0.3,0.6,0.6,0.8l2,0.6L9,10.6c0,0.3,0.2,0.5,0.5,0.6c0.4,0.1,0.8-0.1,0.9-0.4
	c0-0.1,0-0.2,0-0.3L10,7.8c0-0.2-0.2-0.4-0.4-0.5L8.5,6.8l2-1.2L13,6.7l0,0c0.4,0.1,0.8-0.1,0.9-0.4c0.1-0.3,0-0.7-0.4-0.9l-2.8-1.3
	l0,0c-0.2-0.1-0.4,0-0.6,0.1L8.3,5.3z"></path><path fill="#ffffff" transform="translate(2 2)" d="M0,14h11.4L0,5.9V14z"></path></svg>