<svg xmlns="http://www.w3.org/2000/svg" viewBox="0 0 18 18" height="18" width="18"><title>slippery-steps-white-14.svg</title><rect fill="none" x="0" y="0" width="18" height="18"></rect><rect x="0" y="0" width="18" height="18" rx="4" ry="4" fill="#231f20"></rect><path fill="#ffffff" transform="translate(2 2)" d="M6.1,1.7C6.3,1.1,6,0.5,5.4,0.3S4.1,0.5,3.9,1.1C3.8,1.7,4.1,2.3,4.7,2.5S6,2.4,6.1,1.7z M8.3,5.3L7.9,2.6
	L10.5,1c0.1-0.1,0.2-0.2,0.3-0.3c0.1-0.3-0.1-0.6-0.4-0.7c-0.2,0-0.3,0-0.4,0.1L6.2,2.3C6,2.4,5.9,2.5,5.8,2.6L4.2,4.7L2,4.5
	c-0.1,0-0.3,0.2-0.3,0.3C1.6,5.1,1.7,5.4,2,5.5c0.1,0.1,0.2,0.1,0.4,0l2.2,0.3c0.1,0,0.2-0.1,0.2-0.1l0.9-1.1L6.1,7
	c0.1,0.3,0.3,0.7,0.6,0.8l2,0.6L9,10.6c0,0.3,0.2,0.5,0.5,0.6c0.4,0.1,0.8-0.1,0.9-0.4c0-0.1,0-0.2,0-0.3L10,7.8
	c0-0.2-0.2-0.4-0.4-0.5L8.5,6.8l2-1.2L13,6.7l0,0c0.4,0.1,0.8-0.1,0.9-0.4c0.1-0.4,0-0.7-0.4-0.9l-2.8-1.3l0,0c-0.2-0.1-0.4,0-0.6,0
	L8.3,5.3z M7,13v-1v-1H6H5v-1V9H4H3V8V7H2H0v1h2v1v1h1h1v1v1h1h1v2h1h2v-1H7z"></path></svg>