<svg xmlns="http://www.w3.org/2000/svg" viewBox="0 0 27 27" height="27" width="27"><title>slippery-steps-white-22.svg</title><rect fill="none" x="0" y="0" width="27" height="27"></rect><rect x="0" y="0" width="27" height="27" rx="4" ry="4" fill="#231f20"></rect><path fill="#ffffff" transform="translate(2 2)" d="M9.6,2.7c0.3-1-0.2-2-1.2-2.3c-0.9-0.3-2,0.2-2.3,1.2s0.2,2,1.2,2.3S9.4,3.7,9.6,2.7z"></path><path fill="#ffffff" transform="translate(2 2)" d="M13,8.3l-0.7-4.2l4.2-2.4c0.2-0.1,0.4-0.3,0.4-0.5c0.1-0.5-0.1-0.9-0.6-1.1c-0.2-0.1-0.5,0-0.7,0.1l-6,3.5
	c-0.1,0-0.3,0.2-0.5,0.4L6.6,7.5L3.2,7C3,7.1,2.8,7.3,2.7,7.5c-0.2,0.4,0,0.9,0.4,1.1c0.2,0.1,0.4,0.1,0.6,0L7.2,9
	c0.1,0,0.2,0,0.3-0.1L9,7.1L9.7,11c0.1,0.5,0.5,1,1,1.3l3.1,0.9l0.5,3.5c0.1,0.4,0.3,0.8,0.7,0.9c0.6,0.2,1.2-0.1,1.4-0.7
	c0.1-0.2,0.1-0.4,0-0.5L15.8,12c-0.1-0.3-0.3-0.6-0.6-0.8l-1.9-0.6l3.2-1.9l3.9,1.7c0,0,0,0,0.1,0c0.6,0.2,1.2-0.1,1.4-0.7
	c0.2-0.6-0.1-1.1-0.6-1.4l-4.4-2c0,0,0,0-0.1,0c-0.3-0.1-0.7-0.1-0.9,0.1L13,8.3z"></path><path fill="#ffffff" transform="translate(2 2)" d="M13,20v-3H9v-3H5v-3H0v2h3v3h4v3h4v3h6v-2H13z"></path></svg>