<svg xmlns="http://www.w3.org/2000/svg" viewBox="0 0 27 27" height="27" width="27"><title>smoking-area-white-22.svg</title><rect fill="none" x="0" y="0" width="27" height="27"></rect><rect x="0" y="0" width="27" height="27" rx="4" ry="4" fill="#231f20"></rect><path fill="#ffffff" transform="translate(2 2)" d="M14.3,11.8c-1.4,0-2.5-1.1-2.5-2.5c0-0.3,0-0.5,0.1-0.8c-1.7,0-3.1-1.5-3.1-3.2c0-1.8,1.4-3.2,3.2-3.2V3
	c-1.2,0-2.2,1-2.2,2.3s1,2.3,2.3,2.3c0.2,0,0.3,0,0.5,0h0.1c0.3,0,0.5,0.2,0.5,0.5c0,0.1,0,0.2-0.1,0.3c-0.2,0.3-0.3,0.6-0.3,0.9
	c0,0.9,0.7,1.6,1.6,1.6h3.3c1.3,0,2.3,1,2.3,2.3V15h-0.9v-1.8c0-0.8-0.6-1.4-1.4-1.4H14.3z"></path><path fill="#ffffff" transform="translate(2 2)" d="M15.3,8.2c0.3-0.4,0.5-1,0.5-1.6c0-1.5-1.2-2.6-2.6-2.6H13V3.1h0.2c2,0,3.6,1.6,3.6,3.6c0,0.5-0.1,1-0.3,1.5
	h0.7c2.7,0,4.8,2.2,4.8,4.8v2h-0.9v-2c0-2.2-1.7-3.9-3.9-3.9h-1.4c-0.3,0-0.5-0.2-0.5-0.5C15.2,8.4,15.2,8.3,15.3,8.2z"></path><path fill="#ffffff" transform="translate(2 2)" d="M21,16h1v4h-1V16z"></path><path fill="#ffffff" transform="translate(2 2)" d="M19,16h1v4h-1V16z"></path><path fill="#ffffff" transform="translate(2 2)" d="M0,16h18v4H0V16z"></path></svg>