<svg xmlns="http://www.w3.org/2000/svg" viewBox="0 0 18 18" height="18" width="18"><title>smoking-area-white-14.svg</title><rect fill="none" x="0" y="0" width="18" height="18"></rect><rect x="0" y="0" width="18" height="18" rx="4" ry="4" fill="#231f20"></rect><path fill="#ffffff" transform="translate(2 2)" d="M9.3,7.7C8.4,7.7,7.7,7,7.7,6.1c0-0.2,0-0.3,0.1-0.5c-1.1,0-2-0.9-2-2s0.9-2,2-2v0.6C7,2.1,6.3,2.8,6.3,3.5
	C6.3,4.3,7,5,7.8,5C7.9,5,8,5,8.1,5h0.1c0.2,0,0.3,0.2,0.3,0.3c0,0.1,0,0.1-0.1,0.2C8.3,5.7,8.3,5.9,8.3,6.1c0,0.6,0.5,1,1,1h2.1
	c0.8,0,1.5,0.7,1.5,1.5v1.2h-0.6V8.6c0-0.5-0.4-0.9-0.9-0.9C11.4,7.7,9.3,7.7,9.3,7.7z M9.8,5.4c0.2-0.3,0.3-0.6,0.3-1
	c0-0.9-0.8-1.7-1.7-1.7H8.3V2.1h0.1c1.3,0,2.3,1,2.3,2.3c0,0.3-0.1,0.7-0.2,0.9h0.4c1.7,0,3.1,1.4,3.1,3.1v1.3h-0.6V8.4
	c0-1.4-1.1-2.5-2.5-2.5H10C9.9,6,9.7,5.8,9.7,5.6C9.7,5.5,9.7,5.5,9.8,5.4z M13,11h1v2h-1V11z M11,11h1v2h-1V11z M0,11h11v2H0V11z"></path></svg>