<svg xmlns="http://www.w3.org/2000/svg" viewBox="0 0 27 27" height="27" width="27"><title>snack-bar-white-22.svg</title><rect fill="none" x="0" y="0" width="27" height="27"></rect><rect x="0" y="0" width="27" height="27" rx="4" ry="4" fill="#231f20"></rect><path fill="#ffffff" transform="translate(2 2)" d="M22,7l-1.9,14h-6L12.3,7h7.4l1.5-5.3L22,1.9L20.6,7H22z M11.4,15c0,0,0.2-2.1-2.9-2.1h-5
	c-3.2,0-2.9,2.1-2.9,2.1H11.4z M0.5,19c0,0-0.2,2,2.9,2h5c3.2,0,2.9-2,2.9-2H0.5z M10.9,17.9c0.5,0,0.9-0.4,0.9-0.9
	s-0.4-0.9-0.9-0.9h-10C0.4,16,0,16.4,0,16.9s0.4,0.9,0.9,0.9h10V17.9z"></path></svg>