<svg xmlns="http://www.w3.org/2000/svg" viewBox="0 0 18 18" height="18" width="18"><title>snack-bar-white-14.svg</title><rect fill="none" x="0" y="0" width="18" height="18"></rect><rect x="0" y="0" width="18" height="18" rx="4" ry="4" fill="#231f20"></rect><path fill="#ffffff" transform="translate(2 2)" d="M14,4.1L12.8,14H8.9L7.8,4.1h4.7l1-4.1L14,0.1l-0.9,4H14z M7.3,8c0,0,0.1-2-1.9-2H2.2c-2,0-1.9,2-1.9,2H7.3z
	 M0.3,12c0,0-0.1,2,1.9,2h3.2c2,0,1.9-2,1.9-2H0.3z M7,11c0.3,0,0.6-0.7,0.6-1S7.3,9,7,9H0.6C0.3,9,0,9.7,0,10s0.3,1,0.6,1H7z"></path></svg>