<svg xmlns="http://www.w3.org/2000/svg" viewBox="0 0 18 18" height="18" width="18"><title>snorkeling-white-14.svg</title><rect fill="none" x="0" y="0" width="18" height="18"></rect><rect x="0" y="0" width="18" height="18" rx="4" ry="4" fill="#231f20"></rect><path fill="#ffffff" transform="translate(2 2)" d="M9,3H5C3.9,3,3,3.9,3,5v3h1V5c0-0.6,0.4-1,1-1h4c0.6,0,1,0.4,1,1v3h1V5C11,3.9,10.1,3,9,3z"></path><path fill="#ffffff" transform="translate(2 2)" d="M9,8c0,0-1-2-2-2S5,8,5,8H4v1h6V8H9z"></path><path fill="#ffffff" transform="translate(2 2)" d="M12,0v9c0,0.6-0.4,1-1,1H8H6v2h2v-1h3c1.1,0,2-0.9,2-2V0H12z"></path></svg>