<svg xmlns="http://www.w3.org/2000/svg" viewBox="0 0 18 18" height="18" width="18"><title>snowboarding-white-14.svg</title><rect fill="none" x="0" y="0" width="18" height="18"></rect><rect x="0" y="0" width="18" height="18" rx="4" ry="4" fill="#231f20"></rect><path fill="#ffffff" transform="translate(2 2)" d="M11.1,2.8c0.6,0,1.2-0.5,1.2-1.2c0-0.6-0.5-1.2-1.2-1.2c-0.6,0-1.2,0.5-1.2,1.2C9.9,2.3,10.4,2.8,11.1,2.8z"></path><path fill="#ffffff" transform="translate(2 2)" d="M8.2,5.9l2.4-1.2L13,6.8C13.1,6.9,13.2,7,13.3,7c0.3,0,0.5-0.3,0.5-0.6c0-0.2-0.1-0.3-0.2-0.4l-3.2-3
	c-0.1-0.1-0.2-0.2-0.4-0.3L7.6,1.9L6.4,0.2C6.3,0.1,6.2,0,6,0C5.7,0,5.5,0.2,5.4,0.5c0,0.1,0,0.3,0.1,0.4l1.2,1.7
	c0.1,0.1,0.1,0.1,0.2,0.2l1.4,0.5L6,4.4C5.7,4.6,5.5,4.9,5.4,5.2v2l-2,1C3.1,8.3,3,8.5,2.9,8.8c0,0.4,0.3,0.7,0.7,0.7
	c0.1,0,0.2,0,0.3-0.1l2.5-1.1C6.6,8.2,6.7,8,6.8,7.8V6.5l1.8,1.6l-0.3,2.7l0,0c0,0.4,0.3,0.7,0.7,0.7s0.7-0.3,0.7-0.6L10.1,8l0,0
	c0-0.2-0.1-0.4-0.2-0.5L8.2,5.9z"></path><path fill="#ffffff" transform="translate(2 2)" d="M0.6,7.9C0.2,8,0,8.4,0.2,8.8c0.2,0.6,0.7,1.1,1.3,1.4l9.7,3.7c0.6,0.2,1.3,0.2,1.9-0.1
		c0.3-0.2,0.5-0.6,0.3-1c-0.2-0.3-0.6-0.5-1-0.3c-0.2,0.1-0.4,0.1-0.6,0L2,8.8c-0.2,0-0.4-0.2-0.5-0.4C1.4,8,1,7.8,0.6,7.9z"></path></svg>