<svg xmlns="http://www.w3.org/2000/svg" viewBox="0 0 18 18" height="18" width="18"><title>snowmobile-trail-white-14.svg</title><rect fill="none" x="0" y="0" width="18" height="18"></rect><rect x="0" y="0" width="18" height="18" rx="4" ry="4" fill="#231f20"></rect><path fill="#ffffff" transform="translate(2 2)" d="M0,12h5v1H0V12z M13,11v1H7v1h6l1-1v-1H13z M12,10h1V8l-1-1h-2L9,5H8v1h0.5L9,7v1H8H7L6,7h2V6H6V4H5.5H5H4v4
	H2l-1,3h10L12,10z M5,1c0.6,0,1,0.4,1,1S5.6,3,5,3S4,2.6,4,2S4.4,1,5,1z"></path></svg>