<svg xmlns="http://www.w3.org/2000/svg" viewBox="0 0 27 27" height="27" width="27"><title>snowmobile-trail-white-22.svg</title><rect fill="none" x="0" y="0" width="27" height="27"></rect><rect x="0" y="0" width="27" height="27" rx="4" ry="4" fill="#231f20"></rect><path fill="#ffffff" transform="translate(2 2)" d="M0,19h8v1H0V19z"></path><path fill="#ffffff" transform="translate(2 2)" d="M20,19H10v1h10l2-2v-1L20,19z"></path><path fill="#ffffff" transform="translate(2 2)" d="M16,18l5-4l-2-3h-4l-1-3h-1l1,3v1l-1,1h-1l-2-1v-1h2l1-1l-1-1h-2V7H9L8,6H7L6,7v6H4l-1,1l-2,3l1,1H16z"></path><path fill="#ffffff" transform="translate(2 2)" d="M9,2c1.1,0,2,0.9,2,2s-0.9,2-2,2S7,5.1,7,4S7.9,2,9,2z"></path></svg>