<svg xmlns="http://www.w3.org/2000/svg" viewBox="0 0 18 18" height="18" width="18"><title>souvenir-shop-white-14.svg</title><rect fill="none" x="0" y="0" width="18" height="18"></rect><rect x="0" y="0" width="18" height="18" rx="4" ry="4" fill="#231f20"></rect><path fill="#ffffff" transform="translate(2 2)" d="M4.4,5H1.9V4h2.3C3.9,3.7,3.6,3.3,3.5,2.9c0-0.3,0-0.6,0.1-0.9L0,4v6l3,1.7V5.8L4.4,5z M8.9,3.4
	c0.3-0.2,0.5-0.5,0.5-0.7s0-0.4-0.1-0.6C9.1,1.9,9,1.9,8.8,1.9C8.5,1.9,8.2,2,8,2.2C7.7,2.5,7.6,3.1,7.5,3.6C8,3.7,8.6,3.6,8.9,3.4z
	 M5,3.4c0.4,0.2,1,0.3,1.4,0.2c0-0.5-0.2-1.2-0.5-1.4C5.7,2,5.4,1.9,5.2,1.9c0,0,0,0-0.1,0C4.9,1.9,4.8,2,4.7,2.1
	C4.5,2.3,4.5,2.5,4.5,2.7C4.6,2.9,4.7,3.2,5,3.4z M7,2c0.1-0.2,0.2-0.4,0.4-0.5C7.7,1.1,8.2,1,8.6,0.9L7,0L5.4,0.9
	C5.8,1,6.2,1.2,6.6,1.5C6.7,1.6,6.9,1.8,7,2z M10.3,1.9c0.1,0.3,0.2,0.7,0.1,1C10.3,3.3,10,3.7,9.7,4h2.2v1H9.6L11,5.8v5.9l3-1.7V4
	L10.3,1.9z M7.6,5L7.6,5L7.5,7h-1V4.9L6.4,5L4,6.4v5.9L7,14l3-1.7V6.4L7.6,5z"></path></svg>