<svg xmlns="http://www.w3.org/2000/svg" viewBox="0 0 18 18" height="18" width="18"><title>stagecoach-rides-white-14.svg</title><rect fill="none" x="0" y="0" width="18" height="18"></rect><rect x="0" y="0" width="18" height="18" rx="4" ry="4" fill="#231f20"></rect><path fill="#ffffff" transform="translate(2 2)" d="M11.5,7C10.1,7,9,8.1,9,9.5s1.1,2.5,2.5,2.5S14,10.9,14,9.5S12.9,7,11.5,7z M11.5,11c-0.8,0-1.5-0.7-1.5-1.5
	S10.7,8,11.5,8S13,8.7,13,9.5S12.3,11,11.5,11z"></path><path fill="#ffffff" transform="translate(2 2)" d="M3,6C1.3,6,0,7.3,0,9s1.3,3,3,3s3-1.3,3-3S4.7,6,3,6z M3,11c-1.1,0-2-0.9-2-2s0.9-2,2-2s2,0.9,2,2
	S4.1,11,3,11z"></path><path fill="#ffffff" transform="translate(2 2)" d="M11,3V1H3L1,6c0,0,2,0.3,2,0.5C3,7.3,3.7,8,4.5,8C4.7,8,5,8,5,8h4c0,0,0.3,0,0.5,0C10.3,8,11,7.3,11,6.5
	C11,6.3,11,6,11,6V5l2-1V3H11z M5,4H4V2h1V4z M8,4H6V2h2V4z M10,4H9V2h1V4z"></path></svg>