<svg xmlns="http://www.w3.org/2000/svg" viewBox="0 0 27 27" height="27" width="27"><title>stagecoach-rides-white-22.svg</title><rect fill="none" x="0" y="0" width="27" height="27"></rect><rect x="0" y="0" width="27" height="27" rx="4" ry="4" fill="#231f20"></rect><path fill="#ffffff" transform="translate(2 2)" d="M18,11c-0.1,0-0.1,0-0.2,0c0.1-0.3,0.2-0.7,0.2-1c0-0.3,0-1,0-1l3-2V5h-3V2H5L2,9c0,0,0.6,0.1,1.3,0.3
	C1.3,10,0,11.8,0,14c0,2.8,2.2,5,5,5s5-2.2,5-5c0-0.3,0-0.7-0.1-1H14c0,0,0.3,0,0.6,0c-0.3,0.6-0.6,1.3-0.6,2c0,2.2,1.8,4,4,4
	s4-1.8,4-4S20.2,11,18,11z M5,18c-2.2,0-4-1.8-4-4s1.8-4,4-4c0,1.7,1.3,3,3,3c0.2,0,0.6,0,0.9,0C8.9,13.3,9,13.7,9,14
	C9,16.2,7.2,18,5,18z M9,7H7V4h2V7z M13,7h-3V4h3V7z M14,7V4h2v3H14z M18,18c-1.7,0-3-1.3-3-3c0-0.8,0.3-1.6,0.9-2.1
	c0.5-0.1,0.9-0.4,1.3-0.7c0.3-0.1,0.6-0.1,0.9-0.1c1.7,0,3,1.3,3,3S19.7,18,18,18z M5,13c0.6,0,1,0.4,1,1s-0.4,1-1,1s-1-0.4-1-1
	S4.4,13,5,13z M18,14.5c0.3,0,0.5,0.2,0.5,0.5s-0.2,0.5-0.5,0.5s-0.5-0.2-0.5-0.5S17.7,14.5,18,14.5z"></path></svg>