<svg xmlns="http://www.w3.org/2000/svg" viewBox="0 0 18 18" height="18" width="18"><title>star-gazing-white-14.svg</title><rect fill="none" x="0" y="0" width="18" height="18"></rect><rect x="0" y="0" width="18" height="18" rx="4" ry="4" fill="#231f20"></rect><path fill="#ffffff" transform="translate(2 2)" d="M13.4,4.7l-1.8-4l-1.5,0.7l0.1,0.4L5.4,3.9l0.2,0.5L1.3,6.3L1.6,7L0.7,7.4L1,8l0.8-0.3l0.4,0.7l4.3-1.9
	L6.7,7l4.9-2.1l0.2,0.5L13.4,4.7z M7.7,8.7h0.5V8H7.4C7.3,7.6,7,7.4,6.7,7.4C6.4,7.4,6.1,7.6,6,8H5.2v0.7h0.5L2.6,14h0.8l2.9-5.1V14
	H7V8.9l3,5.1h0.8L7.7,8.7z M1.7,1.4L2.2,0l0.5,1.4l1.4,0.5L2.7,2.4L2.2,3.7L1.7,2.4L0.3,1.9L1.7,1.4z M12.9,11.1
	c0.3,0,0.5,0,0.7-0.1c-0.8-0.2-1.3-1-1.2-1.8c0.1-0.5,0.4-1,0.9-1.2c-0.9-0.1-1.6,0.5-1.7,1.4C11.4,10.1,12,10.9,12.9,11.1z"></path></svg>