<svg xmlns="http://www.w3.org/2000/svg" viewBox="0 0 27 27" height="27" width="27"><title>star-gazing-white-22.svg</title><rect fill="none" x="0" y="0" width="27" height="27"></rect><rect x="0" y="0" width="27" height="27" rx="4" ry="4" fill="#231f20"></rect><path fill="#ffffff" transform="translate(2 2)" d="M21,7.4l-2.7-6.3l-2.5,1l0.3,0.7L8.5,6.1L8.8,7L2,9.9L2.5,11l-1.3,0.6l0.4,1l1.3-0.5l0.5,1.1l6.8-3l0.4,0.8
	l7.6-3.3l0.3,0.7L21,7.4z M12.1,13.7h0.8v-1.2h-1.3c-0.1-0.5-0.5-0.9-1.1-0.9c-0.5,0-1,0.4-1.1,0.9H8.2v1.2H9L4.1,22h1.2l4.6-8v8H11
	v-8l4.6,8h1.2L12.1,13.7z M2.7,2.2L3.5,0l0.7,2.2l2.2,0.7L4.2,3.7L3.5,5.9L2.7,3.7L0.5,2.9L2.7,2.2z M20.3,17.4
	c0.4,0.1,0.8,0,1.2-0.1c-1.3-0.3-2.1-1.6-1.9-2.9c0.1-0.9,0.6-1.6,1.3-1.9c-1.3-0.1-2.6,0.8-2.7,2.1C18,15.9,18.9,17.2,20.3,17.4z"></path></svg>