<svg xmlns="http://www.w3.org/2000/svg" viewBox="0 0 27 27" height="27" width="27"><title>stay-on-trail-white-22.svg</title><rect fill="none" x="0" y="0" width="27" height="27"></rect><rect x="0" y="0" width="27" height="27" rx="4" ry="4" fill="#231f20"></rect><path fill="#ffffff" transform="translate(2 2)" d="M11.8,3.2c0.9,0.1,1.6-0.6,1.7-1.5C13.6,0.8,13,0.1,12.1,0s-1.6,0.6-1.7,1.5C10.3,2.4,10.9,3.1,11.8,3.2z"></path><path fill="#ffffff" transform="translate(2 2)" d="M10.5,3.8c0.3-0.2,0.7-0.4,1.1-0.3c0.6,0,1,0.4,1.3,0.8l1.6,3.2L16.7,9C16.9,9.2,17,9.4,17,9.6
	c0,0.4-0.4,0.7-0.8,0.7c-0.1,0-0.2-0.1-0.3-0.1l-2.4-1.7c-0.1-0.1-0.1-0.1-0.2-0.2l-0.6-1.2L12,10.3l2.8,3.3
	c0.1,0.1,0.1,0.2,0.1,0.3l0.8,4c0,0.1,0,0.1,0,0.2c0,0.6-0.6,1-1.2,1c-0.5,0-0.9-0.4-1-0.9l-0.7-3.8l-2.3-2.5L10,14.6
	c0,0.1-0.2,0.4-0.2,0.5l-2.2,3.7c-0.2,0.3-0.6,0.6-1,0.5c-0.6,0-1-0.6-1-1.2c0-0.2,0.1-0.3,0.1-0.5l2.1-3.4l1.7-7.6L8.3,7.5
	l-0.6,2.7c-0.1,0.3-0.4,0.6-0.8,0.6S6.2,10.4,6.2,10V9.9L7,6.8c0-0.1,0.1-0.3,0.2-0.3L10.5,3.8z"></path><path fill="#ffffff" transform="translate(2 2)" d="M0,20h22v2H0V20z"></path></svg>