<svg xmlns="http://www.w3.org/2000/svg" viewBox="0 0 27 27" height="27" width="27"><title>stay-back-from-edge-cliff-white-22.svg</title><rect fill="none" x="0" y="0" width="27" height="27"></rect><rect x="0" y="0" width="27" height="27" rx="4" ry="4" fill="#231f20"></rect><path fill="#ffffff" transform="translate(2 2)" d="M9.7,2.8c0.3-1-0.2-2-1.2-2.3c-0.9-0.3-2,0.2-2.3,1.2s0.2,2,1.2,2.3S9.4,3.7,9.7,2.8z"></path><path fill="#ffffff" transform="translate(2 2)" d="M13.1,8.3l-0.7-4.2l4.2-2.4C16.8,1.6,17,1.4,17,1.2c0.1-0.5-0.1-0.9-0.6-1.1c-0.2-0.1-0.5,0-0.7,0.1l-6,3.5
	C9.5,3.8,9.3,3.9,9.2,4.1L6.7,7.5L3.2,7.1C3,7.1,2.8,7.3,2.7,7.5c-0.2,0.5,0,1,0.5,1.2c0.2,0.1,0.4,0.1,0.6,0l3.5,0.4
	c0.1,0,0.2-0.1,0.3-0.2L9,7.1L9.7,11c0.1,0.5,0.5,1,1,1.3l3.1,0.9l0.5,3.5c0.1,0.4,0.3,0.8,0.7,0.9c0.6,0.2,1.2-0.1,1.4-0.7
	c0.1-0.2,0.1-0.4,0-0.5L15.9,12c-0.1-0.3-0.3-0.6-0.6-0.8l-1.9-0.6l3.2-1.9l3.9,1.7c0,0,0,0,0.1,0c0.6,0.2,1.2-0.1,1.4-0.7
	c0.2-0.6-0.1-1.1-0.6-1.4l-4.4-2c0,0,0,0-0.1,0c-0.3-0.1-0.7-0.1-0.9,0.1L13.1,8.3z"></path><path fill="#ffffff" transform="translate(2 2)" d="M0,21.9V11.3l10.9,4.1l1,6.5C11.9,22,5.7,21.9,0,21.9z"></path></svg>