<svg xmlns="http://www.w3.org/2000/svg" viewBox="0 0 18 18" height="18" width="18"><title>stay-back-from-edge-shore-white-14.svg</title><rect fill="none" x="0" y="0" width="18" height="18"></rect><rect x="0" y="0" width="18" height="18" rx="4" ry="4" fill="#231f20"></rect><path fill="#ffffff" transform="translate(2 2)" d="M5.2,3.7c0.7,0,1.3-0.6,1.3-1.3S5.9,1.1,5.2,1.1S3.9,1.7,3.9,2.4S4.5,3.7,5.2,3.7z M13.3,5.8L9.6,4.7
	L7.9,5.6L7.2,5l2.3-2.3l0,0c0.2-0.1,0.3-0.3,0.3-0.6c0-0.4-0.3-0.7-0.7-0.7c-0.2,0-0.4,0.1-0.6,0.3L5.7,4.1L4,3.9L2.7,0.5l0,0
	C2.6,0.2,2.3,0,2,0C1.6,0,1.2,0.3,1.2,0.7c0,0.1,0,0.2,0.1,0.2l1.6,4.4l8.3,5.5c0.2,0.1,0.3,0.2,0.5,0.2c0.4,0,0.7-0.3,0.7-0.7
	c0-0.2-0.1-0.5-0.3-0.6l0,0l0,0l0,0L8.3,7.3l1.5-1l3.1,1c0.1,0.1,0.2,0.1,0.4,0.1C13.7,7.4,14,7,14,6.6S13.7,5.9,13.3,5.8z M0,14
	V7.4l5.8,2.9L7,14H0z M10.7,12.4C7.9,9.5,7.3,11,7.3,11s1.4-0.1,1.4,1.3c0,1.1-0.7,1.7-1.2,1.8h6C12.7,13.8,12,13.8,10.7,12.4z"></path></svg>