<svg xmlns="http://www.w3.org/2000/svg" viewBox="0 0 18 18" height="18" width="18"><title>stay-on-trail-white-14.svg</title><rect fill="none" x="0" y="0" width="18" height="18"></rect><rect x="0" y="0" width="18" height="18" rx="4" ry="4" fill="#231f20"></rect><path fill="#ffffff" transform="translate(2 2)" d="M7.5,2c0.6,0,1-0.4,1.1-0.9c0-0.6-0.4-1-0.9-1.1c-0.6,0-1,0.4-1.1,0.9C6.5,1.5,7,2,7.5,2z M6.7,2.4
	c0.2-0.1,0.4-0.2,0.7-0.2c0.4,0,0.6,0.2,0.8,0.5l1,2l1.4,1c0.1,0.1,0.2,0.2,0.2,0.4c0,0.3-0.2,0.4-0.5,0.4c-0.1,0-0.1,0-0.2-0.1
	l-1.5-1L8.5,5.3L8.1,4.5l-0.5,2l1.8,2.1c0,0.1,0.1,0.1,0.1,0.2l0.5,2.6c0,0.1,0,0.1,0,0.1c0,0.4-0.4,0.7-0.7,0.6
	c-0.3,0-0.5-0.3-0.6-0.5L8.2,9.3L6.7,7.7L6.4,9.3c0,0.1-0.1,0.2-0.1,0.3L4.9,12c-0.1,0.2-0.4,0.4-0.6,0.3c-0.4,0-0.7-0.4-0.6-0.7
	c0-0.1,0.1-0.2,0.1-0.3L4.9,9L6,4.2L5.3,4.8L4.9,6.5c0,0.2-0.2,0.4-0.5,0.4C4.2,6.9,4,6.6,4,6.4c0,0,0,0,0-0.1l0.4-2
	c0-0.1,0.1-0.2,0.1-0.2L6.7,2.4z M0,13h14v1H0V13z"></path></svg>