<svg xmlns="http://www.w3.org/2000/svg" viewBox="0 0 27 27" height="27" width="27"><title>stay-back-from-edge-shore-white-22.svg</title><rect fill="none" x="0" y="0" width="27" height="27"></rect><rect x="0" y="0" width="27" height="27" rx="4" ry="4" fill="#231f20"></rect><path fill="#ffffff" transform="translate(2 2)" d="M8.1,5.8c1.1,0,2-0.9,2-2s-0.9-2-2-2s-2,0.9-2,2C6.1,4.9,7,5.8,8.1,5.8z M20.9,9.2L15,7.3l-2.6,1.4l-1.1-0.9
	L15,4.1l0,0c0.3-0.2,0.4-0.5,0.4-0.9c0-0.6-0.5-1.2-1.2-1.2c-0.4,0-0.7,0.2-0.9,0.4L9,6.5L6.4,6.2L4.2,0.7l0,0C4,0.3,3.6,0,3.1,0
	C2.5,0,1.9,0.5,1.9,1.2C2,1.4,2,1.4,2,1.5l2.5,6.9l13,8.7c0.3,0.2,0.5,0.3,0.8,0.3c0.6,0,1.2-0.5,1.2-1.2c0-0.4-0.2-0.7-0.5-0.9l0,0
	l0,0c0,0,0,0-0.1,0l-5.8-3.9l2.3-1.6l4.9,1.5c0.2,0.1,0.3,0.1,0.6,0.2c0.6,0.1,1.1-0.5,1.1-1.2C21.9,9.7,21.5,9.3,20.9,9.2z M0,22
	V11.6l9.1,4.6L11,22H0z M16.8,19.5c-4.3-4.6-5.4-2.2-5.4-2.2s2.2-0.1,2.2,2c0,1.7-1.2,2.5-2,2.7H21C20,21.6,18.9,21.7,16.8,19.5z"></path></svg>