<svg xmlns="http://www.w3.org/2000/svg" viewBox="0 0 18 18" height="18" width="18"><title>store-white-14.svg</title><rect fill="none" x="0" y="0" width="18" height="18"></rect><rect x="0" y="0" width="18" height="18" rx="4" ry="4" fill="#231f20"></rect><path fill="#ffffff" transform="translate(2 2)" d="M10.8,9.1c0.3-0.3,0.8-0.5,1.3-0.5c1.1,0,1.9,0.9,1.9,1.9v0.1l0,0c0,0.4-0.2,0.9-0.5,1.6c0,0-0.5,1-1,1.5l0,0
	C12.3,13.9,12,14,11.7,14c-0.4,0-0.7-0.2-0.9-0.5l0,0c-0.2,0.3-0.6,0.5-0.9,0.5c-0.3,0-0.6-0.1-0.8-0.3l0,0c-0.4-0.5-1-1.5-1-1.5
	c-0.3-0.6-0.4-1.1-0.5-1.6l0,0v-0.1c0-1.1,0.9-1.9,1.9-1.9C9.9,8.6,10.4,8.8,10.8,9.1 M10.8,9.1c0.3-0.3,0.8-0.5,1.3-0.5
	c1.1,0,1.9,0.9,1.9,1.9v0.1l0,0c0,0.4-0.2,0.9-0.5,1.6c0,0-0.5,1-1,1.5l0,0C12.3,13.9,12,14,11.7,14c-0.4,0-0.7-0.2-0.9-0.5l0,0
	c-0.2,0.3-0.6,0.5-0.9,0.5c-0.3,0-0.6-0.1-0.8-0.3l0,0c-0.4-0.5-1-1.5-1-1.5c-0.3-0.6-0.4-1.1-0.5-1.6l0,0v-0.1
	c0-1.1,0.9-1.9,1.9-1.9C9.9,8.6,10.4,8.8,10.8,9.1 M5,2H2L1,3H0v11h6V3L5,2z M2,7H1V4h1V7z M2,0h3v1H2V0z M10,8V7l1-1l1-1h1v1l-2,2
	H10z"></path></svg>