<svg xmlns="http://www.w3.org/2000/svg" viewBox="0 0 27 27" height="27" width="27"><title>sunny-white-22.svg</title><rect fill="none" x="0" y="0" width="27" height="27"></rect><rect x="0" y="0" width="27" height="27" rx="4" ry="4" fill="#231f20"></rect><path fill="#ffffff" transform="translate(2 2)" d="M10.5,0h1v3.8h-1V0z M10.5,18.2h0.9V22h-0.9V18.2z M18.3,11.3v-1H22v1H18.3z M0,11.2v-1h3.7v1H0z M1.4,5.6
	l0.5-0.8l3.3,1.8L4.7,7.4L1.4,5.6z M5.3,1.6l0.9-0.5l2,3.2L7.3,4.8L5.3,1.6z M14.2,17.4l0.9-0.5l1.9,3.2l-0.9,0.5L14.2,17.4z
	 M17.1,14.8l0.5-0.9l3.3,1.8l-0.5,0.9L17.1,14.8z M6,20.7l-0.9-0.5l1.8-3.3l0.9,0.5L6,20.7z M1.6,16.5l-0.5-0.8l3.2-2l0.5,0.8
	L1.6,16.5z M17.5,7.8L17,6.9L20.2,5l0.5,0.9L17.5,7.8z M14.9,4.9l-0.8-0.4l1.8-3.3l0.9,0.5L14.9,4.9z M4.9,11c0-3.4,2.7-6.1,6.1-6.1
	s6.1,2.7,6.1,6.1s-2.7,6.1-6.1,6.1C7.7,17.1,4.9,14.3,4.9,11z"></path></svg>