<svg xmlns="http://www.w3.org/2000/svg" viewBox="0 0 18 18" height="18" width="18"><title>sunny-white-14.svg</title><rect fill="none" x="0" y="0" width="18" height="18"></rect><rect x="0" y="0" width="18" height="18" rx="4" ry="4" fill="#231f20"></rect><path fill="#ffffff" transform="translate(2 2)" d="M6.7,0h0.6v2.4H6.7V0z M6.7,11.6h0.6V14H6.7V11.6z M11.6,7.2V6.5H14v0.7H11.6z M0,7.1V6.5h2.4v0.6H0z
	 M0.9,3.6L1.2,3l2.1,1.2L3,4.7L0.9,3.6z M3.4,1l0.5-0.3l1.3,2L4.7,3.1L3.4,1z M9.1,11.1l0.5-0.3l1.2,2l-0.5,0.3L9.1,11.1z M10.9,9.4
	l0.3-0.5l2.1,1.1L13,10.6L10.9,9.4z M3.8,13.2l-0.6-0.3l1.2-2.1l0.5,0.3L3.8,13.2z M1,10.5L0.7,10l2-1.3L3,9.3L1,10.5z M11.1,4.9
	l-0.3-0.5l2.1-1.2l0.3,0.5L11.1,4.9z M9.5,3.1L9,2.8l1.1-2l0.6,0.3L9.5,3.1z M3.1,7c0-2.1,1.7-3.9,3.9-3.9c2.1,0,3.9,1.7,3.9,3.9
	c0,2.1-1.7,3.9-3.9,3.9C4.9,10.9,3.1,9.1,3.1,7z"></path></svg>