<svg xmlns="http://www.w3.org/2000/svg" viewBox="0 0 26 26" height="26" width="26"><title>supplies-white-22.svg</title><rect fill="none" x="0" y="0" width="26" height="26"></rect><rect x="0" y="0" width="26" height="26" rx="4" ry="4" fill="#231f20"></rect><path fill="#ffffff" transform="translate(2 2)" d="M1,20h20v1H1V20z M1,10h20v1H1V10z M8,3H7H6v1v2v1c0,0.5,0.5,1,1,1v1h1V8c0.5,0,1-0.5,1-1V6V4V3H8z M4,4V3H3
	v1C2.5,4,2,4.5,2,5v1v2v1h1h1h1V8V6V5C5,4.5,4.5,4,4,4z M19.7,3.8l-1.2-1.9l-0.8,0.5l1,1.7l-0.8,0.5l-1.1-1.7L16,3.4l1,1.7l-0.8,0.6
	L15.1,4l-0.8,0.5l1,1.7l-0.8,0.5L13.4,5l-0.8,0.5l1,1.7l-0.8,0.6l-1.1-1.7l-0.8,0.5l1.3,2.1L13,8.8l6.6-4.1L19.7,3.8z M15,18H4
	c-0.6,0-1-0.4-1-1v-3c0-0.6,0.4-1,1-1l11,1c0.6,0,1,0.4,1,1v2C16,17.6,15.6,18,15,18z M18.5,17h-1c-0.3,0-0.5-0.2-0.5-0.5v-1
	c0-0.3,0.2-0.5,0.5-0.5h1c0.3,0,0.5,0.2,0.5,0.5v1C19,16.8,18.8,17,18.5,17z"></path></svg>