<svg xmlns="http://www.w3.org/2000/svg" viewBox="0 0 18 18" height="18" width="18"><title>surfing-white-14.svg</title><rect fill="none" x="0" y="0" width="18" height="18"></rect><rect x="0" y="0" width="18" height="18" rx="4" ry="4" fill="#231f20"></rect><path fill="#ffffff" transform="translate(2 2)" d="M4,10.8c3.9,1.7,5.4,1.9,9.6,3.2c0.1,0,0.2,0,0.2-0.1s0-0.2-0.1-0.2C7,11.6,1.8,9.3,0.6,8.7
	c-0.1,0-0.3,0-0.3,0.1s0,0.3,0.1,0.3c0.3,0.1,2.2,1,2.4,1.1l-1.6,1.3c-0.1,0.2-0.1,0.4,0.1,0.5c0.1,0.1,0.3,0.1,0.4,0L4,10.8z"></path><path fill="#ffffff" transform="translate(2 2)" d="M10.3,3.1c0.6,0,1.1-0.5,1.1-1.1s-0.5-1.1-1.1-1.1S9.2,1.4,9.2,2S9.7,3.1,10.3,3.1z"></path><path fill="#ffffff" transform="translate(2 2)" d="M8,5.8l2.4-1.2l2.2,2c0.1,0.1,0.2,0.2,0.4,0.2c0.3,0,0.5-0.2,0.5-0.5c0-0.2-0.1-0.3-0.2-0.4L10.1,3
	C10,2.9,9.9,2.8,9.8,2.7L7.3,1.8L6.2,0.2C6.1,0.1,6,0,5.8,0C5.5,0,5.2,0.2,5.2,0.5c0,0.1,0,0.2,0.1,0.3l1.1,1.7
	c0.1,0.1,0.1,0.1,0.2,0.2L8,3.2L5.8,4.3C5.5,4.4,5.3,4.7,5.2,5.1v2L3.2,8C3,8.1,2.8,8.3,2.8,8.6c0,0.4,0.3,0.7,0.7,0.7
	c0.1,0,0.2,0,0.3-0.1l2.5-1.1C6.5,8,6.6,7.8,6.7,7.6V6.4L8.3,8L8,10.6l0,0c0,0.4,0.3,0.7,0.7,0.7s0.7-0.2,0.7-0.6l0.4-3l0,0
	c0-0.2-0.1-0.4-0.2-0.5L8,5.8z"></path></svg>