<svg xmlns="http://www.w3.org/2000/svg" viewBox="0 0 27 27" height="27" width="27"><title>surfing-white-22.svg</title><rect fill="none" x="0" y="0" width="27" height="27"></rect><rect x="0" y="0" width="27" height="27" rx="4" ry="4" fill="#231f20"></rect><path fill="#ffffff" transform="translate(2 2)" d="M5.6,16.5c6.2,2.6,9.1,3.4,15.7,5.5c0.1,0,0.3-0.1,0.3-0.2s-0.1-0.3-0.2-0.3C11,18.2,2.8,14.6,0.9,13.7
	c-0.2-0.1-0.4,0-0.5,0.2s0,0.4,0.2,0.5c0.5,0.2,2.7,1.1,3.1,1.3l-2.2,1.7c-0.2,0.2-0.1,0.6,0.2,0.7c0.2,0.1,0.4,0.1,0.6,0L5.6,16.5z
	"></path><path fill="#ffffff" transform="translate(2 2)" d="M16.2,4.8C17.2,4.8,18,4,18,3s-0.8-1.8-1.8-1.8S14.4,2,14.4,3C14.4,4,15.2,4.8,16.2,4.8z"></path><path fill="#ffffff" transform="translate(2 2)" d="M12.5,9.1l3.8-1.8l3.5,3.2c0.2,0.2,0.4,0.2,0.6,0.2c0.5,0,0.8-0.4,0.8-0.8c0-0.2-0.1-0.5-0.3-0.6l-5-4.6
	c-0.2-0.2-0.4-0.3-0.6-0.4l-3.9-1.4L9.7,0.3C9.6,0.2,9.4,0,9.1,0C8.7,0,8.2,0.3,8.2,0.8c0,0.2,0,0.4,0.1,0.5l1.8,2.6
	c0.1,0.1,0.2,0.2,0.3,0.3L12.5,5L9.1,6.7C8.6,7,8.3,7.5,8.2,8v3.1L5,12.6c-0.4,0.2-0.6,0.5-0.6,0.9c0,0.6,0.4,1.1,1,1.1
	c0.2,0,0.4,0,0.5-0.1l3.9-1.8c0.3-0.1,0.5-0.4,0.6-0.7v-1.9l2.7,2.4l-0.5,4.1v0.1c0,0.6,0.4,1.1,1,1.1s1.1-0.4,1.1-0.9l0.6-4.7
	c0,0,0,0,0-0.1c0-0.3-0.1-0.6-0.3-0.8L12.5,9.1z"></path></svg>