<svg xmlns="http://www.w3.org/2000/svg" viewBox="0 0 18 18" height="18" width="18"><title>swimming-white-14.svg</title><rect fill="none" x="0" y="0" width="18" height="18"></rect><rect x="0" y="0" width="18" height="18" rx="4" ry="4" fill="#231f20"></rect><path fill="#ffffff" transform="translate(2 2)" d="M14,10.5L13,11h-1l-2-1H9l-2,1H6l-2-1H3l-2,1H0v1h1l2-1h1l2,1h1l2-1h1l2,1h1l1-0.5c0-0.2,0-0.3,0-0.5
	S14,10.7,14,10.5z M1,9h9L8,5V4l3-1l1-1l-1-1L5,3l1,3L1,9z M11.5,4C12.3,4,13,4.7,13,5.5S12.3,7,11.5,7S10,6.3,10,5.5S10.7,4,11.5,4
	z"></path></svg>