<svg xmlns="http://www.w3.org/2000/svg" viewBox="0 0 27 27" height="27" width="27"><title>swimming-white-22.svg</title><rect fill="none" x="0" y="0" width="27" height="27"></rect><rect x="0" y="0" width="27" height="27" rx="4" ry="4" fill="#231f20"></rect><path fill="#ffffff" transform="translate(2 2)" d="M0,16h1l2,1h1l2-1h1l2,1h1l2-1h1l2,1h1l2-1h1l2,1h1v2h-1l-2-1h-1l-2,1h-1l-2-1h-1l-2,1H9l-2-1H6l-2,1H3l-2-1
	H0V16z M6,14h1l2,1h1l2-1h1l2,1h1l1.5-0.8L13,7l5-1l2-1V4l-2-1l-8,1L9,5v1l2,4l-8,5h1L6,14z M19.5,8c1.4,0,2.5,1.1,2.5,2.5
	S20.9,13,19.5,13S17,11.9,17,10.5S18.1,8,19.5,8z"></path></svg>