<svg xmlns="http://www.w3.org/2000/svg" viewBox="0 0 26 26" height="26" width="26"><title>table-service-white-22.svg</title><rect fill="none" x="0" y="0" width="26" height="26"></rect><rect x="0" y="0" width="26" height="26" rx="4" ry="4" fill="#231f20"></rect><path fill="#ffffff" transform="translate(2 2)" d="M5,2c1.7,0,3,1.3,3,3S6.7,8,5,8S2,6.7,2,5S3.3,2,5,2z M12,8h9v1h-9V8z M18,3V1h-3v2c0,0.5,0.5,1,1,1v2h-1v1
	h1h1h1V6h-1V4C17.5,4,18,3.5,18,3z M17.5,10H15l-2.5,4L9,9H7l-2,5L3,9H1v12h8v-7l3,3h1l3-6h1.5c0.3,0,0.5-0.2,0.5-0.5
	S17.8,10,17.5,10z"></path></svg>