<svg xmlns="http://www.w3.org/2000/svg" viewBox="0 0 18 18" height="18" width="18"><title>table-service-white-14.svg</title><rect fill="none" x="0" y="0" width="18" height="18"></rect><rect x="0" y="0" width="18" height="18" rx="4" ry="4" fill="#231f20"></rect><path fill="#ffffff" transform="translate(2 2)" d="M7,5h7v1H7V5z M3,1c1.1,0,2,0.9,2,2S4.1,5,3,5S1,4.1,1,3S1.9,1,3,1z M9,0v1c0,0.6,0.4,1,1,1v1H9v1h3V3h-1V2
	c0.6,0,1-0.4,1-1V0H9z M11.5,7h-2L8,10L6,6H4l-1,4L2,6H0v8h6V9l1.3,2h1.2L10,8h1.5C11.8,8,12,7.8,12,7.5S11.8,7,11.5,7z"></path></svg>