<svg xmlns="http://www.w3.org/2000/svg" viewBox="0 0 18 18" height="18" width="18"><title>tactile-exhibit-white-14.svg</title><rect fill="none" x="0" y="0" width="18" height="18"></rect><rect x="0" y="0" width="18" height="18" rx="4" ry="4" fill="#231f20"></rect><path fill="#ffffff" transform="translate(2 2)" d="M10.8,0.1c-0.7,0.8-1.6,1.6-3,2.2C5.4,3.2,3.4,3.5,3.4,3.5l0,0L1,3.9C0.6,4,0.3,4.3,0.4,4.7
	C0.5,5,0.7,5.2,1.1,5.2h0.1l2.4-0.4l0,0c0,0,0,0,0,0.1l0,0C1.9,5.7,0.4,6.5,0.3,6.6C0,6.8-0.1,7.2,0.1,7.5c0.1,0.2,0.4,0.3,0.6,0.3
	c0.1,0,0.2,0,0.3-0.1c0,0,1.6-0.9,3.5-1.7l0,0c0,0,0.1,0,0,0.1l0,0c-1,0.6-2.2,1.6-3,2.9c-0.2,0.3-0.1,0.8,0.2,1
	c0.1,0,0.2,0.1,0.3,0.1c0.2,0,0.4-0.1,0.6-0.3c0.5-0.8,1.2-1.5,1.9-2c0,0,1.8-1.6,3.6-1.2c1.8,0.3,1.1,1.7,1,2.5
	C9,9.9,9.4,10.3,9.7,10.4c0.1,0,0.1,0,0.2,0.1c0.2,0,0.3-0.2,0.3-0.2v-0.1c1-3.7,2.4-6.2,3.8-8L10.8,0.1z M10.5,13H9.8l-1.1-1.2
	L7.6,13H6.9l-1.8-1.8L3.3,13H2.7l-1.2-1l-1.1,1.2v0.7h6.5h6.5v-0.7l-1.6-2.1L10.5,13z"></path></svg>