<svg xmlns="http://www.w3.org/2000/svg" viewBox="0 0 27 27" height="27" width="27"><title>tactile-exhibit-white-22.svg</title><rect fill="none" x="0" y="0" width="27" height="27"></rect><rect x="0" y="0" width="27" height="27" rx="4" ry="4" fill="#231f20"></rect><path fill="#ffffff" transform="translate(2 2)" d="M16.9,0.2c-1,1.2-2.6,2.6-4.7,3.4c-3.7,1.5-7,2-7,2l0,0L1.6,6.1C1,6.2,0.6,6.7,0.7,7.3
	c0.1,0.5,0.5,0.9,1,0.9c0.1,0,0.1,0,0.2,0l3.8-0.6c0,0,0,0,0.1,0v0.1c0,0,0,0-0.1,0c-2.8,1.2-5.1,2.5-5.2,2.6
	c-0.5,0.3-0.7,0.9-0.4,1.5c0.2,0.3,0.6,0.5,0.9,0.5c0.2,0,0.4,0,0.5-0.1c0,0,2.5-1.4,5.4-2.7l0,0c0.1,0,0.1,0.1,0,0.1l0,0
	c-1.6,1-3.4,2.4-4.8,4.5c-0.3,0.5-0.2,1.2,0.3,1.5c0.2,0.1,0.4,0.2,0.6,0.2c0.4,0,0.7-0.2,0.9-0.5C5,14,6,13,7.1,12.2
	c0,0,2.8-2.5,5.6-1.9c2.9,0.5,1.8,2.7,1.6,3.9c-0.2,1.3,0.4,1.9,1,2.1c0.1,0.1,0.2,0.1,0.3,0.1c0.3,0,0.4-0.2,0.5-0.3
	c0-0.1,0-0.2,0.1-0.2c1.4-5.6,3.7-9.6,5.9-12.5L16.9,0.2z"></path><path fill="#ffffff" transform="translate(2 2)" d="M16.6,20.3h-1.1l-1.7-1.6L12,20.3H11l-2.8-2.6l-2.8,2.6h-1l-1.8-1.2L1,21v1h10h10v-1l-2.4-3.4L16.6,20.3z"></path></svg>