<svg xmlns="http://www.w3.org/2000/svg" viewBox="0 0 27 27" height="27" width="27"><title>telephone-white-22.svg</title><rect fill="none" x="0" y="0" width="27" height="27"></rect><rect x="0" y="0" width="27" height="27" rx="4" ry="4" fill="#231f20"></rect><path fill="#ffffff" transform="translate(2 2)" d="M12,0c-1,0.1-4.9,1.8-5,10.7C6.9,20,11,22,12,22v-6c-0.9,0-1.1-1.1-1.3-3c-0.1-1.3-0.2-2.4,0-4
	c0.1-1.1,0.4-3,1.3-3V0z"></path><path fill="#ffffff" transform="translate(2 2)" d="M13,0h2l1,1v4l-1,1h-2V0z"></path><path fill="#ffffff" transform="translate(2 2)" d="M13,16h2l1,1v4l-1,1h-2V16z"></path></svg>