<svg xmlns="http://www.w3.org/2000/svg" viewBox="0 0 18 18" height="18" width="18"><title>tennis-white-14.svg</title><rect fill="none" x="0" y="0" width="18" height="18"></rect><rect x="0" y="0" width="18" height="18" rx="4" ry="4" fill="#231f20"></rect><path fill="#ffffff" transform="translate(2 2)" d="M1.5,7C1.2,7,1,7.2,1,7.5S1.2,8,1.5,8S2,7.8,2,7.5S1.8,7,1.5,7z"></path><path fill="#ffffff" transform="translate(2 2)" d="M8.8,2.3c0.6,0,1.2-0.5,1.2-1.2C10,0.5,9.5,0,8.8,0C8.2,0,7.7,0.5,7.7,1.2C7.7,1.8,8.2,2.3,8.8,2.3z"></path><path fill="#ffffff" transform="translate(2 2)" d="M13.8,12.6l-1.9-2.2L11.3,7l-0.1-0.4c0,0-0.2-1.1-0.4-1.9C11.1,4.8,11.4,5,11.4,5l1,1.9
	c0.1,0.1,0.2,0.2,0.3,0.3c0.2,0,0.3,0,0.4,0c0.1-0.1,0.2-0.2,0.3-0.3c0-0.1,0-0.3,0-0.4l-1.1-2.1c0,0,0-0.1-0.1-0.1
	C12.2,4.1,12,4,12,4L9.9,2.8C9.7,2.7,9.4,2.6,9.1,2.7c-0.1,0-0.3,0-0.4,0.1c0,0-0.5,0.2-0.7,0.8L6.9,5.8c0,0-1.6,0.3-1.7,0.3l0,0
	l-1.6-1c-0.3-0.2-0.4-1-0.4-1c0-0.5-0.3-1-0.8-1.3C2,2.5,1.5,2.4,1.1,2.5C0.7,2.5,0.4,2.7,0.2,3C0.1,3.2,0,3.4,0,3.7v0.2
	c0.1,0.5,0.4,0.9,0.8,1.2s0.9,0.4,1.4,0.3h0.1c0,0,0.7-0.2,1,0c0,0,1.1,0.8,1.4,1c0,0-0.1,0.2-0.1,0.3v0.1C4.7,7.2,5,7.4,5.4,7.3
	l2-0.4l0.2-0.1c0.1-0.1,0.2-0.2,0.2-0.2l0.5-1.1c0,0,0.4,1.7,0.4,1.8L7,9.1l0,0C6.9,9.2,6.8,9.4,6.8,9.6v3.7c0,0.4,0.3,0.7,0.7,0.7
	c0.4,0,0.7-0.3,0.7-0.7c0,0,0-3,0-3.1C8.3,10,9.6,8.7,9.9,8.4c0,0.2,0.4,2.1,0.4,2.1c0,0.2,0.1,0.3,0.2,0.4l2.2,2.6
	c0.1,0.1,0.3,0.2,0.5,0.2s0.4,0,0.5-0.2c0.2-0.1,0.2-0.3,0.2-0.5C14,12.9,13.9,12.8,13.8,12.6z M2.6,4.7C2.5,4.9,2.3,5,2.1,5
	c-0.3,0.1-0.7,0-1-0.3C0.8,4.5,0.5,4.2,0.5,3.9V3.7c0-0.2,0-0.3,0.1-0.5c0.3-0.4,1-0.5,1.6-0.1C2.7,3.6,3,4.2,2.6,4.7z"></path></svg>