<svg xmlns="http://www.w3.org/2000/svg" viewBox="0 0 18 18" height="18" width="18"><title>text-telephone-service-white-14.svg</title><rect fill="none" x="0" y="0" width="18" height="18"></rect><rect x="0" y="0" width="18" height="18" rx="4" ry="4" fill="#231f20"></rect><path fill="#ffffff" transform="translate(2 2)" d="M2,12h10v2H2V12z M0,10h2v1H0V10z M3,10h2v1H3V10z M6,10h2v1H6V10z M9,10h2v1H9V10z M12,10h2v1h-2V10z M0,6
	h2v1H0V6z M3,6h2v1H3V6z M6,6h2v1H6V6z M9,6h2v1H9V6z M12,6h2v1h-2V6z M1,8h2v1H1V8z M4,8h2v1H4V8z M7,8h2v1H7V8z M10,8h2v1h-2V8z
	 M11,0H3L0,2v1v2h4V3l1-1h4l1,1v2h4V3V2L11,0z"></path></svg>