<svg xmlns="http://www.w3.org/2000/svg" viewBox="0 0 18 18" height="18" width="18"><title>theater-white-14.svg</title><rect fill="none" x="0" y="0" width="18" height="18"></rect><rect x="0" y="0" width="18" height="18" rx="4" ry="4" fill="#231f20"></rect><path fill="#ffffff" transform="translate(2 2)" d="M1,1h12v4L1,2V1z M11,12h1v2h-1V12z M9,11h3v1H9V11z M9,9h2v2H9V9z M10,8
	c0.6,0,1-0.4,1-1s-0.4-1-1-1S9,6.4,9,7S9.4,8,10,8z M7,11h1v2H7V11z M5,10h3v1H5V10z M5,8h2v2H5V8z M6,7c0.6,0,1-0.4,1-1S6.6,5,6,5
	S5,5.4,5,6S5.4,7,6,7z M3,10h1v2H3V10z M1,9h3v1H1V9z M1,7h2v2H1V7z M2,6c0.6,0,1-0.4,1-1S2.6,4,2,4S1,4.4,1,5S1.4,6,2,6z"></path></svg>