<svg xmlns="http://www.w3.org/2000/svg" viewBox="0 0 18 18" height="18" width="18"><title>theatre-arts-black-14.svg</title><rect fill="none" x="0" y="0" width="18" height="18"></rect><rect x="0" y="0" width="18" height="18" rx="4" ry="4" fill="#000"></rect><path fill="#ffffff" transform="translate(2 2)" d="M5.2,5.1c0-0.5,0-0.9,0.1-1.4C3.6,5.2,1.7,5.9,0,6.2v1.6c0,0,0,0,0-0.1c0.1-0.1,0.2-0.2,0.4-0.3
	c0.2,0,0.3,0,0.5,0.1c0.3,0.2,0.4,0.6,0.2,0.8C0.8,8.9,0.4,9.2,0,9.3v4.6c0,0,0.1,0,0.1,0.1h5.4c0.6-0.9,1.1-2.2,1.3-3.6
	C5.8,8.9,5.3,6.9,5.2,5.1z M1.7,7.2L1.7,7.2c0.1-0.3,0.5-0.4,0.8-0.3c0.1,0.1,1,0.5,1.5-0.4c0.1-0.1,0.2-0.2,0.4-0.3
	c0.2,0,0.3,0,0.5,0.1c0.1,0.1,0.2,0.2,0.3,0.4c0,0.2,0,0.3-0.1,0.5C4.7,7.9,4,8.3,3.1,8.3C2.8,8.3,2.4,8.2,2,8
	C1.9,8,1.8,7.8,1.7,7.7C1.7,7.5,1.7,7.4,1.7,7.2z M4.9,12.5c-0.5-0.1-1.5-0.2-1.9-0.1c-0.3,0.1-1,0.7-1.4,1.2
	c-0.1,0.1-0.2,0.2-0.4,0.2c-0.1,0-0.2,0-0.2-0.1c-0.2-0.1-0.3-0.3-0.2-0.6c0.4-1.4,1-2.2,1.9-2.4c1.4-0.4,2.7,1,2.8,1
	c0.2,0.2,0.2,0.4,0.1,0.6C5.4,12.5,5.2,12.6,4.9,12.5z"></path><path fill="#ffffff" transform="translate(2 2)" d="M9,10.4c1.2,0.5,3.3-0.2,5-1.6V4.7c-0.2-0.2-0.6-0.4-1-0.3c-0.1,0-0.3,0-0.4-0.1c-0.1-0.1-0.2-0.2-0.3-0.4
	c-0.1-0.3,0.2-0.7,0.5-0.7c0.5-0.1,0.9,0,1.3,0.1V2.1c-1.5-0.6-2.9-1.4-3.8-2.1H8C7.5,1.1,6.8,2.7,6.7,4.4C6.4,6.9,7.5,9.8,9,10.4z
	 M8.4,1.8c0.1-0.1,0.2-0.2,0.4-0.3c1.5-0.5,2.6,0.7,2.9,1.3c0.2,0.3,0,0.7-0.3,0.8c-0.1,0-0.2,0.1-0.3,0.1c-0.2,0-0.4-0.1-0.5-0.3
	c-0.1-0.2-0.6-1-1.5-0.7C8.8,2.8,8.5,2.6,8.4,2.3C8.3,2.2,8.3,2,8.4,1.8z M7.9,5.7c0.2-0.1,0.4,0,0.6,0.1c0,0,0.8,1,1.5,1.4
	c0.8,0.4,2.2,0.7,2.2,0.7c0.2,0,0.4,0.2,0.4,0.4c0,0.2-0.1,0.4-0.2,0.5c-0.7,0.4-1.4,0.6-2,0.6c-0.4,0-0.8-0.1-1.1-0.3
	C7.8,8.4,7.6,6.3,7.6,6.2C7.6,6,7.8,5.8,7.9,5.7z"></path></svg>