<svg xmlns="http://www.w3.org/2000/svg" viewBox="0 0 18 18" height="18" width="18"><title>things-to-do-white-14.svg</title><rect fill="none" x="0" y="0" width="18" height="18"></rect><rect x="0" y="0" width="18" height="18" rx="4" ry="4" fill="#231f20"></rect><path fill="#ffffff" transform="translate(2 2)" d="M11,12c0,0.6-0.4,1-1,1H2c-0.6,0-1-0.4-1-1V4c0-0.6,0.4-1,1-1h6.6c0.3-0.3,0.6-0.7,0.9-1H2C0.9,2,0,2.9,0,4
	v8c0,1.1,0.9,2,2,2h8c1.1,0,2-0.9,2-2V4.4c-0.3,0.4-0.7,0.9-1,1.4V12z"></path><path fill="#ffffff" transform="translate(2 2)" d="M13.2,0l0.5,0.9L13.6,1c0,0-4.1,3.9-6.5,9.9l0,0l0,0l-1.9,1.5v-0.2c0,0-0.7-3.4-2.4-4.5L2.7,7.6l1.9-1.7h0.1
	c0,0,0.7,0.3,1.4,2.5c0.6-1.1,3.2-5.4,7-8.3L13.2,0"></path></svg>