<svg xmlns="http://www.w3.org/2000/svg" viewBox="0 0 27 27" height="27" width="27"><title>ticket-sales-white-22.svg</title><rect fill="none" x="0" y="0" width="27" height="27"></rect><rect x="0" y="0" width="27" height="27" rx="4" ry="4" fill="#231f20"></rect><path fill="#ffffff" transform="translate(2 2)" d="M19,5H3c0,1.1-0.9,2-2,2v8c1.1,0,2,0.9,2,2h16c0-1.1,0.9-2,2-2V7C19.9,7,19,6.1,19,5z M19,13
	c0,1.1-0.9,2-2,2H5c-1.1,0-2-0.9-2-2V9c0-1.1,0.9-2,2-2h12c1.1,0,2,0.9,2,2V13z"></path><path fill="#ffffff" transform="translate(2 2)" d="M17,8H5C4.4,8,4,8.4,4,9v4c0,0.6,0.4,1,1,1h12c0.6,0,1-0.4,1-1V9C18,8.4,17.6,8,17,8z M14,10h-2v3h-2v-3H8V9
	h6V10z"></path></svg>