<svg xmlns="http://www.w3.org/2000/svg" viewBox="0 0 18 18" height="18" width="18"><title>tidepooling-white-14.svg</title><rect fill="none" x="0" y="0" width="18" height="18"></rect><rect x="0" y="0" width="18" height="18" rx="4" ry="4" fill="#231f20"></rect><path fill="#ffffff" transform="translate(2 2)" d="M4.7,5.4C4.8,5.4,4.8,5.4,4.7,5.4c0.4-0.1,0.7-0.3,0.9-0.6c0.1-0.2,0.2-0.5,0.2-0.7C6,3.4,6,2.6,6.2,1.9
		c0.1-0.4,0.2-0.7,0.3-1.1c0.1-0.2,0.6-1,0.9-0.7c0.1,0.1,0.1,0.4,0,0.6c-0.1,0.5,0,1,0,1.5s0.1,1,0.2,1.6s0.4,1.3,1,1.7
		C9.4,6,10.3,6.1,11.2,6c0.5,0,1-0.1,1.5-0.2c0.2,0,1.1-0.4,1.1,0c0,0.1-0.1,0.2-0.2,0.3c-0.2,0.2-0.3,0.3-0.6,0.4
		c-1.1,0.6-2.7,0.3-3.5,1.4c-1.2,1.6,0.3,3.3,1.2,4.7c0.1,0.1,0.2,0.3,0.3,0.4c0.1,0.2,0.4,0.5,0.4,0.7s0,0.3-0.2,0.4
		c-0.4,0.2-0.7-0.3-0.9-0.5C10,13.3,9.8,13,9.5,12.7c-0.6-0.7-1.2-1.3-2-1.8c-0.4-0.3-1.2-0.2-1.6-0.1C5.4,11,5,11.3,4.6,11.7
		c-0.5,0.5-1,1.1-1.5,1.5c-0.1,0.1-0.7,0.7-0.8,0.4s0.2-0.8,0.3-1.1c0.3-0.7,0.8-1.3,1.2-2c0.2-0.3,0.3-0.7,0.4-1s0.1-0.8,0-1.1
		c-0.6-1.6-2.1-2-3.4-2.8C0.7,5.5,0.5,5.4,0.4,5.3C0.3,5.2-0.1,5,0.1,4.8c0.1-0.1,0.3,0,0.5,0c0.3,0.2,0.7,0.3,1,0.4
		c0.2,0.1,0.5,0.1,0.7,0.1C3.1,5.4,3.9,5.6,4.7,5.4z"></path></svg>