<svg xmlns="http://www.w3.org/2000/svg" viewBox="0 0 27 27" height="27" width="27"><title>tidepooling-white-22.svg</title><rect fill="none" x="0" y="0" width="27" height="27"></rect><rect x="0" y="0" width="27" height="27" rx="4" ry="4" fill="#231f20"></rect><path fill="#ffffff" transform="translate(2 2)" d="M7.4,8.5c0.1,0,0.1,0,0.2,0c0.4-0.1,1-0.4,1.2-0.8C9,7.3,9.1,6.9,9.2,6.5c0.3-1.2,0.3-2.4,0.5-3.6
		c0.1-0.6,0.3-1.1,0.5-1.7c0.2-0.3,0.9-1.6,1.5-1.1c0.2,0.2,0.1,0.6,0.1,0.9c-0.1,0.7,0,1.5,0,2.3c0.1,0.8,0.2,1.6,0.3,2.5
		c0.2,1,0.7,2,1.6,2.6c1.2,0.8,2.7,1,4.1,0.8c0.8-0.1,1.6-0.2,2.4-0.4c0.3-0.1,1.7-0.6,1.7,0c0,0.2-0.2,0.4-0.3,0.5
		c-0.2,0.3-0.5,0.5-0.9,0.7c-1.8,0.9-4.2,0.4-5.5,2.2c-1.9,2.5,0.5,5.3,1.9,7.3c0.2,0.2,0.3,0.5,0.5,0.7c0.2,0.3,0.6,0.7,0.7,1.1
		c0.1,0.2-0.1,0.5-0.3,0.7c-0.6,0.4-1.1-0.4-1.4-0.8c-0.4-0.5-0.9-1-1.3-1.5c-0.9-1.1-2-2.1-3.2-2.9c-0.7-0.4-1.8-0.4-2.6-0.1
		S8,17.5,7.4,18.1c-0.8,0.8-1.6,1.7-2.4,2.4c-0.2,0.2-1.1,1-1.3,0.6c-0.2-0.5,0.3-1.3,0.5-1.7c0.5-1.1,1.3-2.1,1.9-3.1
		c0.3-0.5,0.5-1,0.7-1.6c0.1-0.5,0.2-1.2,0-1.7c-1.1-2.2-3.5-2.8-5.5-4C1.1,8.7,0.8,8.5,0.6,8.3C0.5,8.2-0.1,7.8,0.1,7.5
		c0.2-0.2,0.5-0.1,0.7,0C1.4,7.8,1.9,8,2.5,8.1c0.4,0.1,0.8,0.1,1.2,0.2C4.9,8.5,6.2,8.8,7.4,8.5z"></path></svg>