<?xml version="1.0" encoding="utf-8"?>
<!-- Generator: Adobe Illustrator 27.9.1, SVG Export Plug-In . SVG Version: 6.00 Build 0)  -->
<svg version="1.1" id="Layer_1" xmlns="http://www.w3.org/2000/svg" xmlns:xlink="http://www.w3.org/1999/xlink" x="0px" y="0px"
	 viewBox="0 0 27 27" enable-background="new 0 0 27 27" xml:space="preserve">
<path fill="#231F20" d="M4,0h19c2.2,0,4,1.8,4,4v19c0,2.2-1.8,4-4,4H4c-2.2,0-4-1.8-4-4V4C0,1.8,1.8,0,4,0z"/>
<path fill="#FFFFFF" d="M22.3,14.4c0.1-0.3-0.1-0.8-0.6-0.8H11.3v-11H4.7v13.3c0,2.7,1.9,3.7,4.3,4.5c0.5,0.2,0.8,0.5,1,0.8
	c0.3,0.8-0.2,2-0.4,2.3l-0.6,1h12.5l-0.5-1c-0.1-0.1-1.6-3.2-2-3.9c-0.2-0.3-0.2-0.6-0.2-0.6C21.4,17.7,22.2,14.5,22.3,14.4"/>
</svg>
