<?xml version="1.0" encoding="utf-8"?>
<!-- Generator: Adobe Illustrator 27.9.1, SVG Export Plug-In . SVG Version: 6.00 Build 0)  -->
<svg version="1.1" id="Layer_1" xmlns="http://www.w3.org/2000/svg" xmlns:xlink="http://www.w3.org/1999/xlink" x="0px" y="0px"
	 viewBox="0 0 18 18" enable-background="new 0 0 18 18" xml:space="preserve">
<path fill="#231F20" d="M4,0h10c2.2,0,4,1.8,4,4v10c0,2.2-1.8,4-4,4H4c-2.2,0-4-1.8-4-4V4C0,1.8,1.8,0,4,0z"/>
<path fill="#FFFFFF" d="M14.6,9.5C14.7,9.3,14.5,9,14.2,9H7.6V2H3.4v8.4c0,1.7,1.2,2.3,2.7,2.9c0.3,0.1,0.5,0.3,0.6,0.5
	c0.2,0.5-0.1,1.2-0.2,1.5L6.2,16h7.9l-0.3-0.7c0-0.1-1-2.1-1.3-2.5c-0.1-0.2-0.1-0.4-0.1-0.4C14,11.6,14.6,9.6,14.6,9.5"/>
</svg>
