<svg xmlns="http://www.w3.org/2000/svg" viewBox="0 0 18 18" height="18" width="18"><title>tornado-shelter-white-14.svg</title><rect fill="none" x="0" y="0" width="18" height="18"></rect><rect x="0" y="0" width="18" height="18" rx="4" ry="4" fill="#231f20"></rect><path fill="#ffffff" transform="translate(2 2)" d="M13.5,9.1V8l-6.4,2.9V12L8,11.6V14h6v-1H9v-1.9L13.5,9.1z M10.4,1.6H1.1c-0.2,0-0.4-0.2-0.4-0.4V0.4
	C0.7,0.2,0.9,0,1.1,0h9.3c0.2,0,0.4,0.2,0.4,0.4v0.8C10.8,1.4,10.6,1.6,10.4,1.6z M8.8,5H1.9C1.7,5,1.5,4.8,1.5,4.6V3.8
	c0-0.2,0.2-0.4,0.4-0.4h6.8c0.2,0,0.4,0.2,0.4,0.4v0.8C9.2,4.8,9,5,8.8,5z M7.2,8h-5C2,8,1.8,7.8,1.8,7.6V6.8c0-0.2,0.2-0.4,0.4-0.4
	h5c0.2,0,0.4,0.2,0.4,0.4v0.8C7.7,7.8,7.5,8,7.2,8z M5.1,11H1.6c-0.2,0-0.4-0.2-0.4-0.4V9.8c0-0.2,0.2-0.4,0.4-0.4H5
	c0.2,0,0.4,0.2,0.4,0.4v0.8C5.5,10.8,5.3,11,5.1,11z M2.8,14H0.9c-0.2,0-0.4-0.2-0.4-0.4v-0.8c0-0.2,0.2-0.4,0.4-0.4h1.9
	c0.2,0,0.4,0.2,0.4,0.4v0.8C3.2,13.8,3,14,2.8,14z"></path></svg>