<svg xmlns="http://www.w3.org/2000/svg" viewBox="0 0 27 27" height="27" width="27"><title>tornado-shelter-white-22.svg</title><rect fill="none" x="0" y="0" width="27" height="27"></rect><rect x="0" y="0" width="27" height="27" rx="4" ry="4" fill="#231f20"></rect><path fill="#ffffff" transform="translate(2 2)" d="M20.9,14.2v-1.7l-10.2,4.6v1.7l1.3-0.6V22h10v-2h-8v-2.7L20.9,14.2z"></path><path fill="#ffffff" transform="translate(2 2)" d="M16.1,2.6h-15c-0.2,0-0.4-0.2-0.4-0.4V0.4C0.7,0.2,0.9,0,1.1,0h15c0.2,0,0.4,0.2,0.4,0.4v1.7
	C16.6,2.4,16.4,2.6,16.1,2.6z"></path><path fill="#ffffff" transform="translate(2 2)" d="M13.7,7.9H2.4C2.2,7.9,2,7.7,2,7.4V5.7c0-0.2,0.2-0.4,0.4-0.4h11.2c0.2,0,0.4,0.2,0.4,0.4v1.7
	C14.1,7.7,13.9,7.9,13.7,7.9z"></path><path fill="#ffffff" transform="translate(2 2)" d="M11.2,12.6H2.9c-0.2,0-0.4-0.2-0.4-0.4v-1.7c0-0.2,0.2-0.4,0.4-0.4h8.4c0.2,0,0.4,0.2,0.4,0.4v1.7
	C11.6,12.4,11.5,12.6,11.2,12.6z"></path><path fill="#ffffff" transform="translate(2 2)" d="M7.8,17.3H2c-0.2,0-0.4-0.2-0.4-0.4v-1.7c0-0.2,0.2-0.4,0.4-0.4h5.9c0.2,0,0.4,0.2,0.4,0.4v1.7
	C8.2,17.1,8,17.3,7.8,17.3z"></path><path fill="#ffffff" transform="translate(2 2)" d="M4.2,22H0.8c-0.2,0-0.4-0.2-0.4-0.4v-1.7c0-0.2,0.2-0.4,0.4-0.4h3.4c0.2,0,0.4,0.2,0.4,0.4v1.7
	C4.7,21.8,4.5,22,4.2,22z"></path></svg>