<svg xmlns="http://www.w3.org/2000/svg" viewBox="0 0 18 18" height="18" width="18"><title>towing-white-14.svg</title><rect fill="none" x="0" y="0" width="18" height="18"></rect><rect x="0" y="0" width="18" height="18" rx="4" ry="4" fill="#231f20"></rect><path fill="#ffffff" transform="translate(2 2)" d="M11,9c0.6,0,1,0.4,1,1s-0.4,1-1,1s-1-0.4-1-1S10.4,9,11,9z M4,9c0.6,0,1,0.4,1,1s-0.4,1-1,1s-1-0.4-1-1
	S3.4,9,4,9z M13,7V4H8v3H7L3,2H2H1v3H0v1h1h1V3.2L5,7H0v3h2c0-1.1,0.9-2,2-2s2,0.9,2,2h3c0-1.1,0.9-2,2-2s2,0.9,2,2h1V8L13,7z M12,7
	H9V5h1h2V7z"></path></svg>