<svg xmlns="http://www.w3.org/2000/svg" viewBox="0 0 27 27" height="27" width="27"><title>towing-white-22.svg</title><rect fill="none" x="0" y="0" width="27" height="27"></rect><rect x="0" y="0" width="27" height="27" rx="4" ry="4" fill="#231f20"></rect><path fill="#ffffff" transform="translate(2 2)" d="M5.5,14C4.7,14,4,14.7,4,15.5C4,16.3,4.7,17,5.5,17S7,16.3,7,15.5S6.3,14,5.5,14z M6,16H5v-1h1V16z"></path><path fill="#ffffff" transform="translate(2 2)" d="M18.5,14c-0.8,0-1.5,0.7-1.5,1.5c0,0.8,0.7,1.5,1.5,1.5s1.5-0.7,1.5-1.5S19.3,14,18.5,14z M19,16h-1v-1h1V16
	z"></path><path fill="#ffffff" transform="translate(2 2)" d="M1,9h1v1H1V9z"></path><path fill="#ffffff" transform="translate(2 2)" d="M21,12v-1l-1-3h-6l-1,1v3h-1L5,4H4H3v6H2v1h1h1V5.6L8.1,12H0v3h3.1c0.2-1.1,1.2-2,2.4-2s2.2,0.9,2.4,2H16
	c0.2-1.1,1.2-2,2.4-2s2.2,0.9,2.4,2H22v-2L21,12z M15,11V9h4.2l0.8,2H15z"></path></svg>