<svg xmlns="http://www.w3.org/2000/svg" viewBox="0 0 18 18" height="18" width="18"><title>trailer-site-white-14.svg</title><rect fill="none" x="0" y="0" width="18" height="18"></rect><rect x="0" y="0" width="18" height="18" rx="4" ry="4" fill="#231f20"></rect><path fill="#ffffff" transform="translate(2 2)" d="M5.5,8.8c0.7,0,1.2,0.5,1.2,1.2s-0.5,1.2-1.2,1.2S4.3,10.7,4.3,10S4.8,8.8,5.5,8.8z M12,9c0-1,0-2.4,0-3
	c0-1,0-3-3-3C7.2,3,4.7,3,2.9,3C1,3,0,4,0,6c0,0.5,0,1.6,0,2.1C0,9,1,10,2,10c0.3,0,1.2,0,1.2,0c0-1.2,1-2.2,2.2-2.2s2.2,1,2.2,2.2
	H12h2V9H12z M5,6H3C2.5,6,2,5.5,2,5s0.5-1,1-1h2c0.5,0,1,0.5,1,1S5.5,6,5,6z M10,6H9C8.5,6,8,5.5,8,5s0.5-1,1-1h1c0.5,0,1,0.5,1,1
	S10.5,6,10,6z"></path></svg>