<?xml version="1.0" encoding="utf-8"?>
<!-- Generator: Adobe Illustrator 25.2.1, SVG Export Plug-In . SVG Version: 6.00 Build 0)  -->
<svg version="1.1" id="Layer_1" xmlns="http://www.w3.org/2000/svg" xmlns:xlink="http://www.w3.org/1999/xlink" x="0px" y="0px"
	 width="27px" height="27px" viewBox="0 0 27 27" enable-background="new 0 0 27 27" xml:space="preserve">
<path fill="#231F20" d="M4,0h19c2.21,0,4,1.79,4,4v19c0,2.21-1.79,4-4,4H4c-2.21,0-4-1.79-4-4V4C0,1.79,1.79,0,4,0z"/>
<g>
	<path fill="#FFFFFF" d="M3,24v-3c0.48,0,0.94-0.02,1.37-0.06l0.25,2.99C4.1,23.98,3.55,24,3,24z"/>
</g>
<path fill="#FFFFFF" d="M6.82,23.59l-0.7-2.92c0.88-0.21,1.65-0.53,2.3-0.94l1.61,2.53C9.11,22.85,8.03,23.3,6.82,23.59z
	 M11.87,20.68L9.6,18.72c0.5-0.58,0.87-1.27,1.1-2.06l2.88,0.85C13.22,18.72,12.65,19.78,11.87,20.68z M13.98,15.22l-2.99-0.19
	C10.99,14.85,11,14.67,11,14.5c0-0.95,0.08-1.81,0.23-2.63l2.95,0.56C14.06,13.05,14,13.75,14,14.5
	C14,14.74,13.99,14.98,13.98,15.22z M14.66,10.85l-2.75-1.21c0.5-1.13,1.21-2.12,2.11-2.92l1.99,2.24
	C15.43,9.48,14.99,10.1,14.66,10.85z M17.35,8.07L16,5.39c0.94-0.47,2.03-0.83,3.22-1.06l0.57,2.95
	C18.86,7.46,18.04,7.72,17.35,8.07z"/>
<g>
	<path fill="#FFFFFF" d="M21.6,7.05L21.4,4.05C21.9,4.02,22.44,4,23,4v3C22.51,7,22.04,7.02,21.6,7.05z"/>
</g>
</svg>
