<svg xmlns="http://www.w3.org/2000/svg" viewBox="0 0 27 27" height="27" width="27"><title>trailhead-information-white-22.svg</title><rect fill="none" x="0" y="0" width="27" height="27"></rect><rect x="0" y="0" width="27" height="27" rx="4" ry="4" fill="#231f20"></rect><path fill="#ffffff" transform="translate(2 2)" d="M20,2h-7h-2v18h2V9h7v11h2V2H20z M20,8h-7V7h7V8z M20,6h-7V5h7V6z M20,4h-7V3h7V4z"></path><path fill="#ffffff" transform="translate(2 2)" d="M5.6,4.6C6.4,4.6,7,3.9,7,3.1S6.3,1.6,5.5,1.6S4,2.3,4,3.1C4.1,3.9,4.8,4.6,5.6,4.6z"></path><path fill="#ffffff" transform="translate(2 2)" d="M3.1,4.8c0-0.2-0.1-0.4-0.3-0.5L1.6,4C1.3,4,1.1,4.1,1,4.3L0,8.6c0,0.2,0.1,0.5,0.3,0.5l1.2,0.3
	C1.8,9.5,2,9.3,2.1,9.1L3.1,4.8z"></path><path fill="#ffffff" transform="translate(2 2)" d="M0.5,19.1c0,0.1,0,0.1,0,0.2c0,0.6,0.5,1,1,1s0.9-0.3,1-0.7l1.8-7.4L6,19.6c0.1,0.5,0.5,0.8,1,0.8
	c0.6,0,1-0.5,1-1c0-0.1,0-0.2,0-0.2L5.7,9.4l0.2-0.9L6,9.2c0.1,0.4,0.5,0.5,0.5,0.5L9,10.3h0.1c0.4,0,0.7-0.3,0.7-0.7
	c0-0.3-0.2-0.6-0.5-0.7L7.2,8.4L6.6,6.1C6.4,4.8,5.1,4.8,5.1,4.8C3.9,4.8,3.6,6,3.6,6L0.5,19.1z"></path></svg>