<svg xmlns="http://www.w3.org/2000/svg" viewBox="0 0 27 27" height="27" width="27"><title>trailer-site-white-22.svg</title><rect fill="none" x="0" y="0" width="27" height="27"></rect><rect x="0" y="0" width="27" height="27" rx="4" ry="4" fill="#231f20"></rect><path fill="#ffffff" transform="translate(2 2)" d="M10,14c-1.1,0-2,0.9-2,2s0.9,2,2,2s2-0.9,2-2S11.1,14,10,14z M10,17c-0.6,0-1-0.4-1-1s0.4-1,1-1s1,0.4,1,1
	S10.6,17,10,17z"></path><path fill="#ffffff" transform="translate(2 2)" d="M21.3,15H19V8.1c0-2-1.2-4.1-3.2-4.1H3.6C1.6,4,0,6.1,0,8.1v4.6C0,14.1,1.2,16,2.7,16H7c0-1.7,1.3-3,3-3
	s3,1.3,3,3h9C22,15.6,21.7,15,21.3,15z M10,8c0,0.5-0.5,1-1,1H4C3.5,9,3,8.5,3,8V7c0-0.5,0.5-1,1-1h5c0.5,0,1,0.5,1,1V8z M17,8
	c0,0.5-0.5,1-1,1h-2c-0.5,0-1-0.5-1-1V7c0-0.5,0.5-1,1-1h2c0.5,0,1,0.5,1,1V8z"></path></svg>