<?xml version="1.0" encoding="utf-8"?>
<!-- Generator: Adobe Illustrator 25.2.1, SVG Export Plug-In . SVG Version: 6.00 Build 0)  -->
<svg version="1.1" id="Layer_1" xmlns="http://www.w3.org/2000/svg" xmlns:xlink="http://www.w3.org/1999/xlink" x="0px" y="0px"
	 width="18px" height="18px" viewBox="0 0 18 18" enable-background="new 0 0 18 18" xml:space="preserve">
<path fill="#231F20" d="M4,0h10c2.21,0,4,1.79,4,4v10c0,2.21-1.79,4-4,4H4c-2.21,0-4-1.79-4-4V4C0,1.79,1.79,0,4,0z"/>
<g>
	<path fill="#FFFFFF" d="M2.5,15.5v-2c0.32,0,0.61-0.02,0.9-0.04l0.21,1.99C3.26,15.48,2.89,15.5,2.5,15.5z"/>
</g>
<path fill="#FFFFFF" d="M5.68,14.96l-0.73-1.86c0.49-0.19,0.92-0.45,1.28-0.78l1.34,1.48C7.04,14.29,6.4,14.68,5.68,14.96z M8.91,12
	l-1.8-0.86C7.4,10.53,7.47,9.98,7.49,9.7l2,0.14C9.45,10.35,9.32,11.14,8.91,12z M9.8,8.34L7.95,7.58C8.22,6.94,8.58,6.31,9,5.74
	l1.6,1.2C10.28,7.38,10,7.86,9.8,8.34z M11.72,5.78l-1.25-1.56c0.56-0.45,1.18-0.82,1.83-1.1l0.78,1.84
	C12.59,5.17,12.14,5.44,11.72,5.78z"/>
<g>
	<path fill="#FFFFFF" d="M14.63,4.55l-0.26-1.98c0.36-0.05,0.74-0.07,1.13-0.07v2C15.2,4.5,14.91,4.52,14.63,4.55z"/>
</g>
</svg>
