<svg xmlns="http://www.w3.org/2000/svg" viewBox="0 0 18 18" height="18" width="18"><title>trailhead-white-14.svg</title><rect fill="none" x="0" y="0" width="18" height="18"></rect><rect x="0" y="0" width="18" height="18" rx="4" ry="4" fill="#231f20"></rect><path fill="#ffffff" transform="translate(2 2)" d="M3.5,13.1v0.2c0,0.4,0.3,0.8,0.8,0.8c0.4,0,0.6-0.2,0.7-0.6L6.3,8l1.3,5.5C7.7,13.8,8,14,8.4,14
	s0.8-0.3,0.8-0.8V13L7.4,5.8l0.1-0.6l0.1,0.5C7.7,6,8,6,8,6l1.8,0.5h0.1c0.3,0,0.5-0.2,0.5-0.5c0-0.2-0.2-0.5-0.4-0.5L8.5,5L8.1,3.3
	C7.9,2.3,7,2.4,7,2.4c-0.9,0-1.1,0.9-1.1,0.9L3.5,13.1z M4,6H2V2h3L4,3V6z M11,3h1v11h-1V3z M8,0c0.6,0,1,0.4,1,1S8.6,2,8,2
	S7,1.6,7,1S7.4,0,8,0z"></path></svg>