<svg xmlns="http://www.w3.org/2000/svg" viewBox="0 0 18 18" height="18" width="18"><title>trailhead-information-white-14.svg</title><rect fill="none" x="0" y="0" width="18" height="18"></rect><rect x="0" y="0" width="18" height="18" rx="4" ry="4" fill="#231f20"></rect><path fill="#ffffff" transform="translate(2 2)" d="M13,1H8H7v12h1V6h5v7h1V1H13z M13,5H8V4h5V5z M13,3H8V2h5V3z"></path><path fill="#ffffff" transform="translate(2 2)" d="M3.5,2.9C4,2.9,4.4,2.5,4.4,2c0.1-0.5-0.3-1-0.9-1C3,1,2.6,1.5,2.6,2S3,2.9,3.5,2.9z"></path><path fill="#ffffff" transform="translate(2 2)" d="M2,3.1C2,3,1.9,2.8,1.8,2.8L1,2.6c-0.1,0-0.3,0.1-0.3,0.2L0,5.5c0,0.1,0.1,0.3,0.2,0.3L1,6
		c0.1,0,0.3-0.1,0.3-0.2L2,3.1z"></path><path fill="#ffffff" transform="translate(2 2)" d="M0.3,12.2v0.1C0.3,12.7,0.6,13,1,13c0.3,0,0.6-0.2,0.6-0.5l1.1-4.7l1.1,4.7C3.9,12.7,4.2,13,4.5,13
		c0.4,0,0.7-0.3,0.7-0.7c0-0.1,0-0.1,0-0.1L3.6,6l0.1-0.5l0.1,0.4c0.1,0.3,0.3,0.3,0.3,0.3l1.5,0.4h0.1c0.2,0,0.5-0.2,0.5-0.4
		c0-0.2-0.1-0.4-0.3-0.4L4.6,5.3L4.2,3.9c-0.2-0.8-1-0.8-1-0.8c-0.8,0-1,0.8-1,0.8L0.3,12.2z"></path></svg>