<svg xmlns="http://www.w3.org/2000/svg" viewBox="0 0 27 27" height="27" width="27"><title>trailhead-white-22.svg</title><rect fill="none" x="0" y="0" width="27" height="27"></rect><rect x="0" y="0" width="27" height="27" rx="4" ry="4" fill="#231f20"></rect><path fill="#ffffff" transform="translate(2 2)" d="M7.6,3.7c0.1-0.3-0.1-0.5-0.4-0.6L5.8,2.8C5.6,2.7,5.3,2.9,5.2,3.2L4,8.2C3.9,8.4,4.1,8.7,4.4,8.8l1.4,0.3
	C6.1,9.2,6.4,9,6.4,8.8L7.6,3.7z"></path><path fill="#ffffff" transform="translate(2 2)" d="M5,20.5v0.2C5,21.5,5.5,22,6.2,22c0.6,0,1-0.4,1.2-0.9l2.1-8.7l2,8.6c0.1,0.5,0.6,0.9,1.2,0.9
	c0.7,0,1.2-0.5,1.2-1.2c0-0.1,0-0.2,0-0.3L11.1,9.1l0.2-1l0.2,0.8c0.2,0.5,0.6,0.6,0.6,0.6l2.8,0.7h0.2c0.5,0,0.8-0.4,0.8-0.8
	c0-0.4-0.3-0.7-0.6-0.8L12.9,8l-0.7-2.7C11.8,4.1,10,4,10,4C9.3,4,8.7,5.2,8.7,5.2L5,20.5z"></path><path fill="#ffffff" transform="translate(2 2)" d="M11.9,3h-0.8C10.5,3,10,2.5,10,1.9V1.1C10,0.5,10.5,0,11.1,0h0.8C12.5,0,13,0.5,13,1.1v0.8
	C13,2.5,12.5,3,11.9,3z"></path><path fill="#ffffff" transform="translate(2 2)" d="M17.8,5H19v17h-1.2V5z"></path></svg>