<svg xmlns="http://www.w3.org/2000/svg" viewBox="0 0 18 18" height="18" width="18"><title>tramway-white-14.svg</title><rect fill="none" x="0" y="0" width="18" height="18"></rect><rect x="0" y="0" width="18" height="18" rx="4" ry="4" fill="#231f20"></rect><path fill="#ffffff" transform="translate(2 2)" d="M14,1.3V0.8L0,6.1v0.5L14,1.3z M6.1,3.2c0.4,0,0.8-0.3,0.8-0.8c0-0.4-0.3-0.8-0.8-0.8C5.7,1.6,5.4,2,5.4,2.4
	S5.7,3.2,6.1,3.2z M6.1,3.2c0.4,0,0.8-0.3,0.8-0.8c0-0.4-0.3-0.8-0.8-0.8C5.7,1.6,5.4,2,5.4,2.4S5.7,3.2,6.1,3.2z M8,2.5
	c0.4,0,0.8-0.3,0.8-0.8C8.7,1.3,8.4,1,8,1C7.5,1,7.2,1.3,7.2,1.7S7.5,2.5,8,2.5z M8,2.5c0.4,0,0.8-0.3,0.8-0.8C8.7,1.3,8.4,1,8,1
	C7.5,1,7.2,1.3,7.2,1.7S7.5,2.5,8,2.5z M14,1.3V0.8L8,3.1L7,3.5L0,6.1v0.5L7,4v3H3.5C3.2,7,3,7.2,3,7.5v6C3,13.8,3.2,14,3.5,14h9
	c0.3,0,0.5-0.2,0.5-0.5v-6C13,7.2,12.8,7,12.5,7H8V3.6L14,1.3z M6,10H4V8h2V10z M10,8h2v2h-2V8z M9,8v2H7V8H9z"></path></svg>