<svg xmlns="http://www.w3.org/2000/svg" viewBox="0 0 27 27" height="27" width="27"><title>tramway-white-22.svg</title><rect fill="none" x="0" y="0" width="27" height="27"></rect><rect x="0" y="0" width="27" height="27" rx="4" ry="4" fill="#231f20"></rect><path fill="#ffffff" transform="translate(2 2)" d="M22,2V1.3L0,9.6v0.7L22,2z M9.7,5c0.7,0,1.2-0.5,1.2-1.2s-0.5-1.2-1.2-1.2S8.5,3.1,8.5,3.8
	C8.5,4.4,9,5,9.7,5z M12.5,3.9c0.7,0,1.2-0.5,1.2-1.2s-0.5-1.2-1.2-1.2S11.3,2,11.3,2.7S11.8,3.9,12.5,3.9z M11,7.2V11H5.5
	C5.2,11,5,11.2,5,11.5v9C5,20.8,5.2,21,5.5,21h12c0.3,0,0.5-0.2,0.5-0.5v-9c0-0.3-0.2-0.5-0.5-0.5H12V6.8L11,7.2z M9,14.5
	C9,14.8,8.8,15,8.5,15h-2C6.2,15,6,14.8,6,14.5v-2C6,12.2,6.2,12,6.5,12h2C8.8,12,9,12.2,9,12.5V14.5z M14,12.5
	c0-0.3,0.2-0.5,0.5-0.5h2c0.3,0,0.5,0.2,0.5,0.5v2c0,0.3-0.2,0.5-0.5,0.5h-2c-0.3,0-0.5-0.2-0.5-0.5V12.5z M12.5,12
	c0.3,0,0.5,0.2,0.5,0.5v2c0,0.3-0.2,0.5-0.5,0.5h-2c-0.3,0-0.5-0.2-0.5-0.5v-2c0-0.3,0.2-0.5,0.5-0.5H12.5z"></path></svg>