<svg xmlns="http://www.w3.org/2000/svg" viewBox="0 0 18 18" height="18" width="18"><title>trucks-white-14.svg</title><rect fill="none" x="0" y="0" width="18" height="18"></rect><rect x="0" y="0" width="18" height="18" rx="4" ry="4" fill="#231f20"></rect><path fill="#ffffff" transform="translate(2 2)" d="M12,0H2C1.4,0,1,0.4,1,1v7v4h1v1c0,0.5,0.5,1,1,1s1-0.5,1-1v-1h6v1c0,0.5,0.5,1,1,1s1-0.5,1-1v-1h1V8V1
	C13,0.4,12.6,0,12,0z M2.5,10.3c-0.4,0-0.8-0.3-0.8-0.8c0-0.4,0.3-0.8,0.8-0.8c0.4,0,0.8,0.3,0.8,0.8C3.3,9.9,2.9,10.3,2.5,10.3z
	 M10,11H4V9c0-1,0.8-1,1-1h4c0.2,0,1,0,1,1V11z M3.4,7.3l0.1-2.1c0-0.3,0.3-0.5,0.6-0.5h5.8c0.3,0,0.6,0.2,0.6,0.5l0.1,2.1H3.4z
	 M11.5,10.3c-0.4,0-0.8-0.3-0.8-0.8c0-0.4,0.3-0.8,0.8-0.8c0.4,0,0.8,0.3,0.8,0.8C12.3,9.9,11.9,10.3,11.5,10.3z"></path></svg>