<svg xmlns="http://www.w3.org/2000/svg" viewBox="0 0 27 27" height="27" width="27"><title>trucks-white-22.svg</title><rect fill="none" x="0" y="0" width="27" height="27"></rect><rect x="0" y="0" width="27" height="27" rx="4" ry="4" fill="#231f20"></rect><path fill="#ffffff" transform="translate(2 2)" d="M15,6c0.9,0,1.9,1.1,2,2v3l3,2v6h-1v1.5c0,0.8-0.7,1.5-1.5,1.5S16,21.4,16,20.5V19H6v1.5
	C6,21.4,5.3,22,4.5,22S3,21.4,3,20.5V19H2v-6l3-2V8c0.1-0.9,1.1-2,2-2H15z M4.5,16.2c0.7,0,1.2-0.5,1.2-1.2s-0.5-1.2-1.2-1.2
	S3.3,14.3,3.3,15C3.3,15.7,3.8,16.2,4.5,16.2z M15,17v-3c0-1-0.7-1-1-1H8c-0.3,0-1,0-1,1v3H15z M18.7,15c0-0.7-0.5-1.2-1.2-1.2
	s-1.2,0.5-1.2,1.2s0.5,1.2,1.2,1.2S18.7,15.7,18.7,15z M16,11V8c0-0.5-0.5-1-1-1H7C6.5,7,6,7.5,6,8v3H16z"></path><path fill="#ffffff" transform="translate(2 2)" d="M18.2,0C19.1,0,20,0.7,20,1.6V12l-2-1V8c0-2-1-3-2-3H6C5,5,4,6,4,8v3l-2,1V1.6C2,0.7,2.9,0,3.8,0H18.2z"></path></svg>