<svg xmlns="http://www.w3.org/2000/svg" viewBox="0 0 26 26" height="26" width="26"><title>tubing-black-22.svg</title><rect fill="none" x="0" y="0" width="26" height="26"></rect><rect x="0" y="0" width="26" height="26" rx="4" ry="4" fill="#000"></rect><path fill="#ffffff" transform="translate(2 2)" d="M0,19c0.5,0,1-0.1,1.3-0.3c0.4-0.2,0.9-0.3,1.4-0.3s1,0.1,1.4,0.3C4.6,19,5,19,5.5,19s1-0.1,1.3-0.3
	c0.4-0.2,0.9-0.3,1.4-0.3s1,0.1,1.4,0.3C10.1,19,10.5,19,11,19s1-0.1,1.3-0.3c0.4-0.2,0.9-0.3,1.4-0.3c0.5,0,1,0.1,1.4,0.3
	C15.6,19,16,19,16.5,19c0.5,0,1-0.1,1.3-0.3c0.4-0.2,0.9-0.3,1.4-0.3c0.5,0,1,0.1,1.4,0.3C21.1,19,21.5,19,22,19v-2
	c-0.5,0-1-0.1-1.3-0.3c-0.4-0.2-0.9-0.3-1.4-0.3c-0.5,0-1,0.1-1.4,0.3C17.4,16.9,17,17,16.5,17c-0.5,0-1-0.1-1.3-0.3
	c-0.4-0.2-0.9-0.3-1.4-0.3c-0.5,0-1,0.1-1.4,0.3C11.9,16.9,11.5,17,11,17s-1-0.1-1.3-0.3c-0.4-0.2-0.9-0.3-1.4-0.3s-1,0.1-1.4,0.3
	C6.4,16.9,6,17,5.5,17s-1-0.1-1.3-0.3c-0.4-0.2-0.9-0.3-1.4-0.3s-1,0.1-1.4,0.3C0.9,16.9,0.5,17,0,17V19z"></path><path fill="#ffffff" transform="translate(2 2)" d="M18,5c0-1.1,0.9-2,2-2c1.1,0,2,0.9,2,2c0,1.1-0.9,2-2,2
	C18.9,7,18,6.1,18,5z"></path><path fill="#ffffff" transform="translate(2 2)" d="M5.8,11c2.2,0,4.4,0,6.1,0L7.7,9C7.2,8.9,7.1,8.9,6.8,8.9l-5.4,1.5c-0.3,0.1-0.5,0.3-0.7,0.5
	c-0.1,0.3-0.2,0.5-0.1,0.8c0.2,0.6,0.8,0.9,1.4,0.8l2-0.5C4.7,10.9,5.8,11,5.8,11z"></path><path fill="#ffffff" transform="translate(2 2)" d="M16.9,8.1L14,11c2.6-0.1,4,0,4.8,0c0.4-0.6,0.8-1.1,0.8-1.1c0.4-0.7,0.7-1.5-0.2-2.2C18.1,6.7,17,8,16.9,8.1
	z"></path><path fill="#ffffff" transform="translate(2 2)" d="M4.6,15.4c0.3,0.1,0.6,0.1,0.9,0.1c0.5,0,1-0.1,1.3-0.3c0.4-0.2,0.9-0.3,1.4-0.3s1,0.1,1.4,0.3
	c0.4,0.2,0.9,0.3,1.3,0.3s1-0.1,1.3-0.3c0.4-0.2,0.9-0.3,1.4-0.3c0.5,0,1,0.1,1.4,0.3c0.4,0.2,0.9,0.3,1.3,0.3c0.5,0,1-0.1,1.3-0.3
	c0.4-0.2,0.9-0.3,1.4-0.3c0.3,0,0.7,0.1,1,0.2c0.2-0.5,0.4-1,0.3-1.5c0-0.1,0-1.5-1.3-1.9c-0.7,0.1-4.7,0.9-13.5,0.1
	c-0.2,0-1.5-0.1-1.7,1.8C4.1,13.6,4.1,14.8,4.6,15.4z"></path></svg>