<?xml version="1.0" encoding="utf-8"?>
<!-- Generator: Adobe Illustrator 25.4.1, SVG Export Plug-In . SVG Version: 6.00 Build 0)  -->
<svg version="1.1" id="Layer_1" xmlns="http://www.w3.org/2000/svg" xmlns:xlink="http://www.w3.org/1999/xlink" x="0px" y="0px"
	 width="18px" height="18px" viewBox="0 0 18 18" enable-background="new 0 0 18 18" xml:space="preserve">
<rect fill="none" width="18" height="18"/>
<path fill="#231F20" d="M4,0h10c2.2,0,4,1.8,4,4v10c0,2.2-1.8,4-4,4H4c-2.2,0-4-1.8-4-4V4C0,1.8,1.8,0,4,0z"/>
<path fill-rule="evenodd" clip-rule="evenodd" fill="#FFFFFF" d="M12.8,4.5c0-0.8,0.7-1.5,1.5-1.5s1.5,0.7,1.5,1.5S15.1,6,14.3,6
	S12.8,5.3,12.8,4.5z"/>
<path fill="#FFFFFF" d="M5.5,8.8C7,8.9,8.3,8.9,9.4,9L6.7,7.5C6.4,7.4,6.3,7.4,6.1,7.4L2.7,8.3C2.5,8.4,2.3,8.5,2.2,8.7
	C2.1,8.8,2.1,9,2.2,9.2c0.1,0.4,0.5,0.6,0.9,0.5l1.3-0.3C4.8,8.7,5.5,8.8,5.5,8.8z"/>
<path fill="#FFFFFF" d="M12.6,6.9L10.7,9c1.7,0,2.6-0.2,3-0.2c0.3-0.4,0.5-0.6,0.5-0.7c0.3-0.4,0.4-0.9-0.1-1.4
	C13.3,6,12.6,6.9,12.6,6.9z"/>
<path fill="#FFFFFF" d="M15.8,14c-0.3,0-0.6-0.1-0.8-0.2c-0.3-0.1-0.6-0.5-0.9-0.5c-0.3,0-0.6,0.4-0.9,0.5C13,13.9,12.7,14,12.4,14
	s-0.6-0.1-0.8-0.2c-0.3-0.1-0.6-0.5-0.9-0.5c-0.3,0-0.6,0.4-0.9,0.5C9.6,13.9,9.3,14,9,14s-0.6-0.1-0.8-0.2
	c-0.3-0.1-0.6-0.5-0.9-0.5s-0.6,0.4-0.9,0.5C6.2,13.9,5.9,14,5.6,14c-0.3,0-0.6-0.1-0.8-0.2c-0.3-0.1-0.6-0.5-0.9-0.5
	S3.3,13.7,3,13.8C2.8,13.9,2.5,14,2.2,14v-1.2c0.3,0,0.6-0.1,0.8-0.2c0.3-0.1,0.6-0.5,0.9-0.5s0.6,0.4,0.9,0.5s0.5,0.2,0.8,0.2
	c0.3,0,0.6-0.1,0.8-0.2c0.3-0.1,0.6-0.5,0.9-0.5s0.6,0.4,0.9,0.5s0.5,0.2,0.8,0.2s0.6-0.1,0.8-0.2c0.3-0.1,0.6-0.5,0.9-0.5
	s0.6,0.4,0.9,0.5c0.3,0.1,0.5,0.2,0.8,0.2s0.6-0.1,0.8-0.2c0.3-0.1,0.6-0.5,0.9-0.5c0.3,0,0.6,0.4,0.9,0.5c0.3,0.1,0.5,0.2,0.8,0.2
	C15.8,12.8,15.8,14,15.8,14z"/>
<path fill="#FFFFFF" d="M5.6,11.8c0.3,0,0.6-0.1,0.8-0.2c0.3-0.1,0.6-0.5,0.9-0.5s0.6,0.4,0.9,0.5s0.5,0.2,0.8,0.2s0.6-0.1,0.8-0.2
	c0.3-0.1,0.6-0.5,0.9-0.5c0.3,0,0.6,0.4,0.9,0.5c0.3,0.1,0.5,0.2,0.8,0.2s0.6-0.1,0.8-0.2c0.3-0.1,0.6-0.5,0.9-0.5
	c0.2,0,0.5,0.2,0.7,0.4c0-0.1,0-0.1,0-0.2c0-0.1,0-0.9,0-1s0-0.9-0.9-1.2c-0.4,0.1-3,0.6-8.6,0.1c-0.1,0-1,0-1.1,1.1v0.9
	c0.2,0.1,0.4,0.3,0.6,0.4C5.1,11.7,5.3,11.8,5.6,11.8z"/>
<path fill="#FFFFFF" d="M13.7,12.5c0.1,0,0.2,0,0.2,0c0.1,0,0.3-0.1,0.4-0.2c-0.1,0-0.1,0-0.2,0S13.8,12.4,13.7,12.5z"/>
</svg>
