<svg xmlns="http://www.w3.org/2000/svg" viewBox="0 0 27 27" height="27" width="27"><title>tunnel-white-22.svg</title><rect fill="none" x="0" y="0" width="27" height="27"></rect><rect x="0" y="0" width="27" height="27" rx="4" ry="4" fill="#231f20"></rect><path fill="#ffffff" transform="translate(2 2)" d="M11,8.1c-1.7,0-3,1.3-3,3V15h6v-3.9C14,9.5,12.7,8.1,11,8.1z"></path><path fill="#ffffff" transform="translate(2 2)" d="M11,0C6,0,2,4,2,9v9h2V9c0-3.9,3.1-7,7-7s7,3.1,7,7v9h2V9C20,4,16,0,11,0z"></path><path fill="#ffffff" transform="translate(2 2)" d="M9.4,19h3.2l-0.2-1H9.6L9.4,19z"></path><path fill="#ffffff" transform="translate(2 2)" d="M9,22h4l-0.3-2H9.3L9,22z"></path><path fill="#ffffff" transform="translate(2 2)" d="M9.9,16l-0.2,1h2.6l-0.2-1H9.9z"></path></svg>