<svg xmlns="http://www.w3.org/2000/svg" viewBox="0 0 18 18" height="18" width="18"><title>uneven-walkways-white-14.svg</title><rect fill="none" x="0" y="0" width="18" height="18"></rect><rect x="0" y="0" width="18" height="18" rx="4" ry="4" fill="#231f20"></rect><path fill="#ffffff" transform="translate(2 2)" d="M10.2,4c0.6,0.1,1.2-0.3,1.3-0.9s-0.3-1.2-0.9-1.3C9.9,1.7,9.3,2.1,9.2,2.7C9.1,3.3,9.5,3.9,10.2,4z M7,6.6
	l2.6-0.8l1.8,2.4c0.1,0.1,0.2,0.2,0.4,0.2c0.3,0,0.6-0.1,0.6-0.4c0-0.2,0-0.3-0.1-0.4L9.7,4.1C9.6,4,9.5,3.9,9.3,3.8L7.1,2.5V0.3
	C7,0.2,6.9,0.1,6.7,0.1C6.4,0,6.1,0.1,6,0.4c0,0.1,0,0.2,0,0.4V3c0,0.1,0.1,0.1,0.2,0.2L7.4,4L5.1,4.7C4.8,4.8,4.5,5.1,4.4,5.4
	l-0.3,2L1.9,7.9C1.7,8,1.5,8.2,1.4,8.5s0.2,0.7,0.5,0.8c0.1,0,0.2,0,0.3,0l2.6-0.7C5,8.5,5.2,8.4,5.2,8.2L5.6,7L7,8.8l-0.8,2.5l0,0
	c-0.1,0.4,0.2,0.8,0.5,0.8c0.4,0.1,0.7-0.1,0.8-0.5l0.9-2.9l0,0c0-0.2,0-0.4-0.1-0.6L7,6.6z M0,14h14v-2l-2.7,1.9L8.9,12l-1.7,1.9
	L5,12l-2.3,1.9L0,12V14z"></path></svg>