<svg xmlns="http://www.w3.org/2000/svg" viewBox="0 0 27 27" height="27" width="27"><title>uneven-walkways-white-22.svg</title><rect fill="none" x="0" y="0" width="27" height="27"></rect><rect x="0" y="0" width="27" height="27" rx="4" ry="4" fill="#231f20"></rect><path fill="#ffffff" transform="translate(2 2)" d="M16,6.3c1,0.2,1.9-0.5,2.1-1.4c0.2-1-0.5-1.9-1.4-2.1c-1-0.2-1.9,0.5-2.1,1.4C14.3,5.2,15,6.1,16,6.3z"></path><path fill="#ffffff" transform="translate(2 2)" d="M11,10.3l4-1.2l2.9,3.8c0.1,0.2,0.3,0.3,0.6,0.3c0.5,0.1,0.9-0.2,1-0.7c0-0.2,0-0.5-0.2-0.7l-4.1-5.4
	C15,6.3,14.9,6.2,14.7,6l-3.6-2V0.6c-0.1-0.2-0.3-0.4-0.5-0.4c-0.5-0.2-1,0-1.1,0.5c-0.1,0.2,0,0.4,0,0.6v3.5c0.1,0,0.2,0.1,0.3,0.2
	l1.9,1.2L8,7.3C7.5,7.5,7.1,7.9,6.9,8.5l-0.5,3.1L3,12.4c-0.4,0.1-0.7,0.4-0.8,0.8c-0.1,0.6,0.2,1.2,0.8,1.3c0.2,0,0.4,0,0.5,0
	l4.2-1.1c0.3-0.1,0.6-0.3,0.7-0.6L8.7,11l2.2,2.9l-1.2,4c0,0,0,0,0,0.1c-0.1,0.6,0.2,1.2,0.8,1.3c0.6,0.1,1.1-0.2,1.3-0.7l1.4-4.5
	c0,0,0,0,0-0.1c0.1-0.3,0-0.6-0.2-0.9L11,10.3z"></path><path fill="#ffffff" transform="translate(2 2)" d="M0,22h22v-3l-4.3,2.2L14,19l-2.7,2.3L8,19l-3.8,2.3L0,19V22z"></path></svg>