<svg xmlns="http://www.w3.org/2000/svg" viewBox="0 0 26 26" height="26" width="26"><title>utv-white-22.svg</title><rect fill="none" x="0" y="0" width="26" height="26"></rect><rect x="0" y="0" width="26" height="26" rx="4" ry="4" fill="#231f20"></rect><path fill="#ffffff" transform="translate(2 2)" d="M14.6,7.8L12,4H5.7L1.6,9.6L0.5,9.7L0,14.2l1.7,0c0.1-1.7,1.8-3.1,3.6-3.1s3.5,1.4,3.6,3.1l5,0
	c0.1-1.7,1.8-3.1,3.6-3.1c1.8,0,3.5,1.4,3.6,3.1l0.9-0.9L22,11L14.6,7.8z M12.9,11.1l-3,0c0-0.1-0.1-0.1-0.1-0.2h0.7
	c0.3,0,0.5-0.2,0.5-0.5c0-0.3-0.2-0.5-0.5-0.5H8.7C8.6,9.7,8.5,9.6,8.3,9.5L7.8,6.4c0-0.3-0.3-0.5-0.6-0.5C6.9,6,6.7,6.3,6.7,6.6
	l0.4,2.6c-0.3,0-0.5,0-0.5,0L2.9,9.4l3.1-4.5l5.4,0l2.7,3.9L12.9,11.1z"></path><path fill="#ffffff" transform="translate(2 2)" d="M7.7,15.6c0.1-0.2,0.1-0.4,0.1-0.6c0-0.2-0.1-0.4-0.1-0.6l0.5-0.2l-0.3-0.7l-0.5,0.2l0,0.1
	c-0.2-0.4-0.5-0.7-0.9-0.9l0.3-0.5l-0.7-0.3l-0.3,0.5l0.1,0c-0.2-0.1-0.4-0.1-0.7-0.1c-0.2,0-0.4,0.1-0.6,0.1l0,0l-0.2-0.6l-0.7,0.3
	l0.2,0.5C3.6,13,3.3,13.3,3,13.6l-0.5-0.2l-0.3,0.7l0.5,0.2l0,0c-0.1,0.2-0.1,0.4-0.1,0.6c0,0.2,0.1,0.5,0.1,0.7l0,0l-0.5,0.2
	l0.3,0.7l0.5-0.2l0,0C3.3,16.6,3.6,17,4,17.2l-0.2,0.5L4.5,18l0.2-0.5c0.2,0,0.4,0.1,0.5,0.1c0.2,0,0.4-0.1,0.7-0.1L6.2,18l0.7-0.3
	l-0.3-0.5c0.3-0.2,0.6-0.5,0.8-0.9l0,0L8,16.5l0.3-0.7L7.7,15.6z M6,14.9c0,0.4-0.3,0.7-0.7,0.7c-0.4,0-0.7-0.3-0.7-0.7
	s0.3-0.7,0.7-0.7C5.6,14.2,6,14.5,6,14.9z"></path><path fill="#ffffff" transform="translate(2 2)" d="M19.8,15.6c0.1-0.2,0.1-0.4,0.1-0.6c0-0.2-0.1-0.4-0.1-0.6l0.5-0.2L20,13.4l-0.5,0.2l0,0.1
	c-0.2-0.4-0.5-0.7-0.9-0.9l0.3-0.5l-0.7-0.3L18,12.5l0.1,0c-0.2-0.1-0.4-0.1-0.7-0.1c-0.2,0-0.4,0.1-0.6,0.1l0,0l-0.2-0.6l-0.7,0.3
	l0.2,0.5c-0.4,0.2-0.7,0.5-0.9,0.9l-0.5-0.2l-0.3,0.7l0.5,0.2l0,0c-0.1,0.2-0.1,0.4-0.1,0.6c0,0.2,0.1,0.5,0.1,0.7l0,0l-0.5,0.2
	l0.3,0.7l0.5-0.2l0,0c0.2,0.4,0.5,0.7,0.9,0.9l-0.2,0.5l0.7,0.3l0.2-0.5c0.2,0,0.4,0.1,0.5,0.1c0.2,0,0.4-0.1,0.7-0.1h0l0.3,0.6
	l0.7-0.3l-0.3-0.5c0.3-0.2,0.6-0.5,0.8-0.9l0,0l0.6,0.2l0.3-0.7L19.8,15.6z M18.1,15c0,0.4-0.3,0.7-0.7,0.7c-0.4,0-0.7-0.3-0.7-0.7
	s0.3-0.7,0.7-0.7C17.7,14.2,18.1,14.5,18.1,15z"></path></svg>