<svg xmlns="http://www.w3.org/2000/svg" viewBox="0 0 18 18" height="18" width="18"><title>utv-white-14.svg</title><rect fill="none" x="0" y="0" width="18" height="18"></rect><rect x="0" y="0" width="18" height="18" rx="4" ry="4" fill="#231f20"></rect><path fill="#ffffff" transform="translate(2 2)" d="M9.3,5L7.7,2.6h-4L1,6.1L0.3,6.2L0,9.1l1.1,0c0.1-1.1,1.1-2,2.3-2s2.2,0.9,2.3,2l3.2,0c0.1-1.1,1.1-2,2.3-2
	c1.1,0,2.2,0.9,2.3,2l0.6-0.6L14,7L9.3,5z M8.2,7.1l-1.9,0C6.2,7,6.2,7,6.2,6.9h0.5C6.8,6.9,7,6.8,7,6.6S6.8,6.2,6.6,6.2H5.6
	C5.5,6.2,5.4,6.1,5.3,6.1L5,4.1c0-0.2-0.2-0.3-0.4-0.3C4.4,3.8,4.3,4,4.3,4.2l0.3,1.6c-0.2,0-0.3,0-0.3,0L1.9,6l2-2.9l3.5,0L9,5.6
	L8.2,7.1z"></path><path fill="#ffffff" transform="translate(2 2)" d="M4.9,9.9C4.9,9.8,5,9.6,5,9.5c0-0.1,0-0.3-0.1-0.4L5.2,9L5,8.5L4.7,8.7l0,0C4.6,8.5,4.4,8.3,4.2,8.1l0.2-0.3
	L3.9,7.6L3.7,7.9l0,0c-0.1,0-0.3-0.1-0.4-0.1c-0.1,0-0.3,0-0.4,0.1l0,0L2.8,7.6L2.3,7.8l0.1,0.3C2.3,8.3,2.1,8.4,1.9,8.7L1.6,8.5
	L1.4,9l0.3,0.1l0,0c0,0.1-0.1,0.3-0.1,0.4c0,0.2,0,0.3,0.1,0.4l0,0l-0.3,0.1l0.2,0.4l0.3-0.1l0,0c0.1,0.2,0.3,0.4,0.6,0.6l-0.1,0.3
	l0.5,0.2L3,11.1c0.1,0,0.2,0.1,0.3,0.1c0.1,0,0.3,0,0.4-0.1l0.2,0.4l0.4-0.2l-0.2-0.3c0.2-0.1,0.4-0.3,0.5-0.5l0,0l0.4,0.1L5.2,10
	L4.9,9.9z M3.8,9.5c0,0.3-0.2,0.5-0.5,0.5c-0.3,0-0.5-0.2-0.5-0.5C2.9,9.3,3.1,9,3.3,9C3.6,9,3.8,9.3,3.8,9.5z"></path><path fill="#ffffff" transform="translate(2 2)" d="M12.6,9.9c0-0.1,0.1-0.3,0.1-0.4c0-0.1,0-0.3-0.1-0.4L12.9,9l-0.2-0.5l-0.3,0.1l0,0
	c-0.1-0.2-0.3-0.4-0.6-0.6L12,7.8l-0.4-0.2l-0.2,0.3l0,0c-0.1,0-0.3-0.1-0.4-0.1c-0.1,0-0.3,0-0.4,0.1l0,0l-0.2-0.4l-0.4,0.2
	l0.1,0.3C10,8.3,9.8,8.4,9.6,8.7L9.3,8.5L9.1,9l0.3,0.1l0,0c0,0.1-0.1,0.3-0.1,0.4c0,0.2,0,0.3,0.1,0.4l0,0l-0.3,0.1l0.2,0.4
	l0.3-0.1l0,0c0.1,0.2,0.3,0.4,0.6,0.6l-0.1,0.3l0.5,0.2l0.1-0.3c0.1,0,0.2,0.1,0.3,0.1c0.1,0,0.3,0,0.4-0.1h0l0.2,0.4l0.4-0.2
	l-0.2-0.3c0.2-0.1,0.4-0.3,0.5-0.5l0,0l0.4,0.1L13,10L12.6,9.9z M11.5,9.5c0,0.3-0.2,0.5-0.5,0.5c-0.3,0-0.5-0.2-0.5-0.5
	C10.6,9.3,10.8,9,11,9C11.3,9,11.5,9.3,11.5,9.5z"></path></svg>