<svg xmlns="http://www.w3.org/2000/svg" viewBox="0 0 18 18" height="18" width="18"><title>vehicle-ferry-white-14.svg</title><rect fill="none" x="0" y="0" width="18" height="18"></rect><rect x="0" y="0" width="18" height="18" rx="4" ry="4" fill="#231f20"></rect><path fill="#ffffff" transform="translate(2 2)" d="M5,1H2L1,3v3h1V5h3v1h1V3L5,1z M5,3H2V2h3V3z"></path><path fill="#ffffff" transform="translate(2 2)" d="M12,1H9L8,3v3h1V5h3v1h1V3L12,1z M12,3H9V2h3V3z"></path><path fill="#ffffff" transform="translate(2 2)" d="M0,6l1,2c0,0,1,1,2,1s1.1-1,2-1s1,1,2,1s1-1,2-1s1.1,1,2,1s2-1,2-1l1-2H0z"></path><path fill="#ffffff" transform="translate(2 2)" d="M3,10c1,0,1-1,2-1s1,1,2,1s1-1,2-1s1.1,1,2,1s1.3-1,2-1s1,1,1,1v2c0,0-0.1-1-1-1s-1,1-2,1s-1.1-1-2-1s-1,1-2,1s-1.1-1-2-1
	s-1.1,1-2,1s-1.1-1-2-1s-1,1-1,1v-2c0,0,0-1,1-1S2.1,10,3,10z"></path></svg>