<svg xmlns="http://www.w3.org/2000/svg" viewBox="0 0 26 26" height="26" width="26"><title>video-surveillance-white-22.svg</title><rect fill="none" x="0" y="0" width="26" height="26"></rect><rect x="0" y="0" width="26" height="26" rx="4" ry="4" fill="#231f20"></rect><path fill="#ffffff" transform="translate(2 2)" d="M13,12.3l-1.8,0.5l1.2,4.2c0.1,0.4,1.1,1,1.5,1h3v-2h-3L13,12.3z"></path><path fill="#ffffff" transform="translate(2 2)" d="M20,13v2h-2v4h2v2h2v-8H20z"></path><path fill="#ffffff" transform="translate(2 2)" d="M21.1,9.4L19,1.6L2.5,6.3c-0.2,0-0.4,0-0.5,0.1c-1.4,0.3-2,2.2-1.4,4.3C0.9,11.6,1.4,12.5,2,13
	c0.5,0.5,1.1,0.7,1.6,0.7c0.2,0,0.3,0,0.5-0.1h0.1l0.3,0.5L21.1,9.4z M2.6,12.3c-0.5-0.4-0.9-1.1-1.1-1.9C1,8.8,1.5,7.5,2.1,7.3
	c0.1,0,0.1,0,0.2,0c0.7,0,1.6,0.9,2,2.3c0.5,1.6,0,2.9-0.6,3.1C3.3,12.9,2.9,12.5,2.6,12.3z"></path></svg>