<svg xmlns="http://www.w3.org/2000/svg" viewBox="0 0 18 18" height="18" width="18"><title>video-surveillance-white-14.svg</title><rect fill="none" x="0" y="0" width="18" height="18"></rect><rect x="0" y="0" width="18" height="18" rx="4" ry="4" fill="#231f20"></rect><path fill="#ffffff" transform="translate(2 2)" d="M8.3,7.8L7.2,8.2L8,11c0,0,0.7,0,1,0h2v-1H9L8.3,7.8z"></path><path fill="#ffffff" transform="translate(2 2)" d="M12,8v1h-1v3h1v1h2V8H12z"></path><path fill="#ffffff" transform="translate(2 2)" d="M13.5,6l-1.4-5L1.3,4l0.1,0.1c-0.1,0-0.2,0-0.2,0C0.6,4.3,0.2,4.8,0,5.5C-0.1,6-0.1,6.6,0.1,7.1
	C0.5,8.2,1.3,9,2.3,9c0.2,0,0.4,0,0.5-0.1l0,0V9L13.5,6z M2.5,7.9c-0.1,0-0.1,0-0.2,0c-0.5,0-1-0.5-1.2-1.1C0.8,6,1,5.3,1.5,5.1
	c0.1,0,0.1,0,0.2,0c0.5,0,1,0.5,1.2,1.1C3.2,7,3,7.7,2.5,7.9z"></path></svg>