<svg xmlns="http://www.w3.org/2000/svg" viewBox="0 0 18 18" height="18" width="18"><title>viewing-area-white-14.svg</title><rect fill="none" x="0" y="0" width="18" height="18"></rect><rect x="0" y="0" width="18" height="18" rx="4" ry="4" fill="#231f20"></rect><path fill="#ffffff" transform="translate(2 2)" d="M1,1h5v0.4H5.6v0.5L1,3V1z M8.2,2.4c0.7,0,1.2-0.5,1.2-1.2S8.9,0,8.2,0C7.6,0,7,0.5,7,1.2S7.6,2.4,8.2,2.4z
	 M9.1,2.3C9.5,2,10,2,10.4,2.3l2.4,2.6C12.9,5,13,5.1,13,5.3V13c0,0.5-0.4,1-1,1c-0.5,0-0.9-0.4-0.9-1V6.6L8.8,4.2l-1,1
	C7.7,5.3,7.5,5.4,7.4,5.4C7.2,5.4,7,5.3,6.9,5.2L5.3,3.6C5,3.3,5.1,2.9,5.3,2.7c0.3-0.2,0.6-0.2,0.8,0.1l1.3,1.3L9.1,2.3z M4.1,2.7
	c0-0.1-0.1-0.2-0.2-0.2c-0.1,0-0.2,0.1-0.2,0.2L3,5v9h4v-2H5V5L4.1,2.7z"></path></svg>