<svg xmlns="http://www.w3.org/2000/svg" viewBox="0 0 27 27" height="27" width="27"><title>viewing-area-white-22.svg</title><rect fill="none" x="0" y="0" width="27" height="27"></rect><rect x="0" y="0" width="27" height="27" rx="4" ry="4" fill="#231f20"></rect><path fill="#ffffff" transform="translate(2 2)" d="M1,1h9v1H9v1L1,4V1z M13,3.9c1,0,1.9-0.8,1.9-1.9S14,0.1,13,0.1S11.1,0.9,11.1,2S12,3.9,13,3.9z M14.4,3.7
	c0.5-0.5,1.4-0.5,1.9,0l4.4,4.1C20.9,7.9,21,8.1,21,8.3v12.2c0,0.8-0.7,1.5-1.5,1.5S18,21.3,18,20.5v-10l-4.2-3.8l-1.5,1.5
	c-0.2,0.2-0.4,0.3-0.7,0.3s-0.5-0.1-0.7-0.3L8.3,5.6c-0.4-0.4-0.3-1,0-1.3C8.7,4,9.3,4,9.6,4.4l2,2L14.4,3.7z M6.5,4.2
	c0-0.2-0.2-0.3-0.4-0.3C5.9,3.9,5.7,4,5.7,4.2L5,8v14h6v-2H7V8L6.5,4.2z"></path></svg>