<svg xmlns="http://www.w3.org/2000/svg" viewBox="0 0 18 18" height="18" width="18"><title>volleyball-white-14.svg</title><rect fill="none" x="0" y="0" width="18" height="18"></rect><rect x="0" y="0" width="18" height="18" rx="4" ry="4" fill="#231f20"></rect><path fill="#ffffff" transform="translate(2 2)" d="M5.7,1.8C6.3,1.6,7,1.9,7.2,2.5C7.3,3.1,7,3.8,6.4,4C5.8,4.2,5.1,3.8,4.9,3.2C4.7,2.6,5.1,2,5.7,1.8z"></path><path fill="#ffffff" transform="translate(2 2)" d="M2.3,0.1c0.6-0.2,1.3,0.1,1.5,0.7S3.6,2.1,3,2.3S1.7,2.1,1.6,1.5C1.4,0.9,1.7,0.3,2.3,0.1z"></path><path fill="#ffffff" transform="translate(2 2)" d="M2.6,5.1C2.3,5.1,2,5.3,2,5.6c0,0.3,0.2,0.6,0.6,0.7h2l1.1-0.4l0.5,4.4c0,0.1,1.3,3.3,1.3,3.3
	c0.2,0.3,0.6,0.4,1,0.2c0.3-0.2,0.4-0.6,0.2-1L7.5,9.4c0,0,0.9,0.6,1.9,1.3c1.6,0.6,2.2,0.8,2.2,0.8c0.4,0.1,0.8,0,0.9-0.4
	c0.2-0.4,0-0.8-0.4-0.9L10,9.4l-1.4-1L8.1,5c0,0,1.1-0.7,1.6-1.1c0,0,0.5-0.3,0.1-1.2c-0.6-1-1.1-1.9-1.1-1.9
	C8.5,0.6,8.1,0.4,7.8,0.6C7.5,0.7,7.4,1.1,7.6,1.4l1.1,1.8L7.2,4.1l-3,1H2.6z"></path></svg>