<svg xmlns="http://www.w3.org/2000/svg" viewBox="0 0 27 27" height="27" width="27"><title>volleyball-white-22.svg</title><rect fill="none" x="0" y="0" width="27" height="27"></rect><rect x="0" y="0" width="27" height="27" rx="4" ry="4" fill="#231f20"></rect><path fill="#ffffff" transform="translate(2 2)" d="M8.9,2.8c1-0.3,2,0.2,2.3,1.2S11,6,10,6.3C9,6.6,8,6,7.7,5.1C7.4,4.1,7.9,3.1,8.9,2.8z"></path><path fill="#ffffff" transform="translate(2 2)" d="M3.6,0.1c1-0.3,2,0.2,2.3,1.2c0.3,1-0.2,2-1.2,2.3s-2-0.2-2.3-1.2S2.7,0.4,3.6,0.1z"></path><path fill="#ffffff" transform="translate(2 2)" d="M4.1,8c-0.5,0-1,0.4-1,0.9s0.3,1,0.9,1h3.1l1.8-0.6l0.9,7c0,0.2,2,5.2,2,5.2c0.3,0.5,1,0.7,1.5,0.3
	c0.5-0.3,0.7-1,0.4-1.5l-1.9-5.6c0,0,1.4,0.9,3,2c2.6,0.9,3.4,1.2,3.4,1.2c0.6,0.2,1.2,0,1.4-0.6c0.2-0.6,0-1.2-0.6-1.4l-3.3-1.2
	l-2.2-1.5l-0.8-5.4c0,0,1.7-1.2,2.6-1.7c0,0,0.8-0.5,0.1-1.8c-0.9-1.6-1.7-3-1.7-3c-0.2-0.5-0.8-0.7-1.3-0.4
	c-0.5,0.2-0.7,0.8-0.4,1.3L13.5,5l-2.1,1.5L6.7,8.1L4.1,8z"></path></svg>