<svg xmlns="http://www.w3.org/2000/svg" viewBox="0 0 27 27" height="27" width="27"><title>volume-control-telephone-white-22.svg</title><rect fill="none" x="0" y="0" width="27" height="27"></rect><rect x="0" y="0" width="27" height="27" rx="4" ry="4" fill="#231f20"></rect><path fill="#ffffff" transform="translate(2 2)" d="M7,9h0.6h0.7C8.7,9,9,8.7,9,8.3V4.4C9,4,8.7,3.7,8.3,3.7H7.7c0,0-0.6,0-0.7,0c-0.7,0-4,1.2-4,9.1
	c0,8,3.3,9.2,4,9.2h0.7h0.7C8.7,22,9,21.7,9,21.3v-3.9c0-0.4-0.3-0.7-0.7-0.7H7.7H7.1c-0.4,0-1-0.3-1-3.9C6,9.3,6.6,9,7,9z"></path><path fill="#ffffff" transform="translate(2 2)" d="M10.6,5.3c0.2,0.3,0.3,0.6,0.3,1s-0.1,0.7-0.3,1l0.7,0.6c0.4-0.4,0.6-1,0.6-1.6s-0.2-1.1-0.6-1.6L10.6,5.3z"></path><path fill="#ffffff" transform="translate(2 2)" d="M13,9.5c0.8-0.9,1.3-2,1.3-3.2S13.9,4,13.1,3.1l-0.7,0.6c0.6,0.7,1,1.6,1,2.6s-0.4,1.9-1,2.6L13,9.5z"></path><path fill="#ffffff" transform="translate(2 2)" d="M14.6,11.3c1.3-1.3,1.9-3.1,1.9-4.9s-0.7-3.5-1.9-4.9l-0.7,0.6c1.1,1.1,1.7,2.6,1.7,4.2s-0.6,3.1-1.7,4.2
	L14.6,11.3z"></path><path fill="#ffffff" transform="translate(2 2)" d="M16.3,13c1.7-1.8,2.6-4.1,2.6-6.5S18,1.8,16.3,0l-0.7,0.7c1.5,1.6,2.3,3.7,2.3,5.9s-0.8,4.3-2.4,5.9L16.3,13
	z"></path></svg>