<svg xmlns="http://www.w3.org/2000/svg" viewBox="0 0 18 18" height="18" width="18"><title>volume-control-telephone-white-14.svg</title><rect fill="none" x="0" y="0" width="18" height="18"></rect><rect x="0" y="0" width="18" height="18" rx="4" ry="4" fill="#231f20"></rect><path fill="#ffffff" transform="translate(2 2)" d="M3.6,6H4h0.5C4.8,6,5,5.5,5,5.3V2.8C5,2.6,4.8,2,4.5,2H4c0,0-0.4,0-0.5,0C3.1,2,1,3.2,1,8.2S3.1,14,3.5,14H4
	h0.5C4.8,14,5,13.8,5,13.6v-2.5C5,10.9,4.8,10,4.5,10H4H3.6c-0.2,0-0.7,0.5-0.7-1.8C2.9,5.9,3.3,6,3.6,6z M12,2h1v3h-1V2z M10,2h1v3
	h-1V2z M8,3h1v1H8V3z M6,3h1v1H6V3z M11,0h1v2h-1V0z M9,1h1v1H9V1z M9,5h1v1H9V5z M11,5h1v2h-1V5z"></path></svg>