<svg xmlns="http://www.w3.org/2000/svg" viewBox="0 0 18 18" height="18" width="18"><title>wading-white-14.svg</title><rect fill="none" x="0" y="0" width="18" height="18"></rect><rect x="0" y="0" width="18" height="18" rx="4" ry="4" fill="#231f20"></rect><path fill="#ffffff" transform="translate(2 2)" d="M7,0c0.7,0,1.3,0.6,1.3,1.3S7.7,2.6,7,2.6S5.7,2,5.7,1.3S6.3,0,7,0z M13.5,14c-0.3,0-0.6-0.1-0.8-0.2
	c-0.3-0.1-0.5-0.6-0.8-0.6s-0.6,0.5-0.8,0.6S10.6,14,10.3,14s-0.6-0.1-0.8-0.2c-0.3-0.1-0.5-0.6-0.8-0.6s-0.6,0.5-0.8,0.6
	C7.6,13.9,7.3,14,7,14s-0.6-0.1-0.8-0.2c-0.3-0.1-0.5-0.6-0.8-0.6s-0.6,0.5-0.8,0.6C4.3,13.9,4,14,3.7,14s-0.6-0.1-0.8-0.2
	c-0.3-0.1-0.5-0.6-0.8-0.6s-0.6,0.5-0.8,0.6C1,13.9,0.7,14,0.5,14v-1.2c0.3,0,0.6-0.1,0.8-0.2C1.5,12.5,1.8,12,2.1,12
	s0.6,0.5,0.8,0.6s0.5,0.2,0.8,0.2s0.6-0.1,0.8-0.2C4.8,12.5,5.1,12,5.4,12s0.6,0.5,0.8,0.6c0.2,0.1,0.5,0.2,0.8,0.2s0.6-0.1,0.8-0.2
	C8.1,12.5,8.3,12,8.6,12s0.6,0.5,0.8,0.6s0.5,0.2,0.8,0.2s0.6-0.1,0.8-0.2c0.3-0.1,0.5-0.6,0.8-0.6s0.6,0.5,0.8,0.6s0.5,0.2,0.8,0.2
	L13.5,14L13.5,14z M8.4,11.6c-0.2,0-0.7,0.4-0.9,0.4H7V8.7l1.4-0.8V11.6z M7,12c-0.2,0-1.3-0.3-1.6-0.3v-0.6H3.7L3.4,9
	c0-0.1,0-0.1,0-0.2c0-0.5,0.3-1,0.8-1.2V4.3c0-0.8,0.6-1.4,1.4-1.4h2.7c0.9,0,1.6,0.7,1.6,1.5V8C9.9,8.7,9,8.7,9,8V4.6H8.4v2.3H5.5
	V4.6H5v3c0.1,0,0.2,0.1,0.3,0.1l1.7,1V12z M3.8,9h1.5c0-0.3-0.1-0.7-0.4-0.9c-0.1,0.4-0.7,0.4-0.8,0C4,8.3,3.8,8.7,3.8,9z"></path></svg>