<?xml version="1.0" encoding="utf-8"?>
<!-- Generator: Adobe Illustrator 25.4.1, SVG Export Plug-In . SVG Version: 6.00 Build 0)  -->
<svg version="1.1" id="Layer_1" xmlns="http://www.w3.org/2000/svg" xmlns:xlink="http://www.w3.org/1999/xlink" x="0px" y="0px"
	 width="18px" height="18px" viewBox="0 0 18 18" enable-background="new 0 0 18 18" xml:space="preserve">
<path fill="#231F20" d="M4,0h10c2.2,0,4,1.8,4,4v10c0,2.2-1.8,4-4,4H4c-2.2,0-4-1.8-4-4V4C0,1.8,1.8,0,4,0z"/>
<path fill="#FFFFFF" d="M9,2c0.7,0,1.3,0.6,1.3,1.3S9.7,4.6,9,4.6C8.3,4.6,7.7,4,7.7,3.3S8.3,2,9,2z"/>
<path fill="#FFFFFF" d="M10.3,4.9H7.6c-0.8,0-1.4,0.6-1.4,1.4v3.3c-0.5,0.2-0.8,0.7-0.8,1.2c0,0.1,0,0.1,0,0.2l0.3,2.1h1.7v0.6
	C7.7,13.7,8.8,14,9,14h0.5c0.2,0,0.7-0.4,0.9-0.4V9.9L9,10.7l-1.7-1C7.2,9.7,7.1,9.6,7,9.6v-3h0.5v2.3h2.9V6.6H11V10
	c0,0.7,0.9,0.7,0.9,0V6.4C11.9,5.6,11.2,4.9,10.3,4.9z M7.3,11H5.8c0-0.3,0.2-0.7,0.3-0.9c0.1,0.4,0.7,0.4,0.8,0
	C7.2,10.3,7.3,10.7,7.3,11z"/>
<path fill="#FFFFFF" d="M15.6,16c-0.3,0-0.6-0.1-0.8-0.2c-0.3-0.1-0.6-0.5-0.9-0.5c-0.3,0-0.6,0.4-0.9,0.5c-0.2,0.1-0.5,0.2-0.8,0.2
	s-0.6-0.1-0.8-0.2c-0.3-0.1-0.6-0.5-0.9-0.5c-0.3,0-0.6,0.4-0.9,0.5C9.4,15.9,9.1,16,8.8,16S8.2,15.9,8,15.8
	c-0.3-0.1-0.6-0.5-0.9-0.5s-0.6,0.4-0.9,0.5C6,15.9,5.7,16,5.4,16s-0.6-0.1-0.8-0.2c-0.3-0.1-0.6-0.5-0.9-0.5s-0.6,0.4-0.9,0.5
	C2.6,15.9,2.3,16,2,16v-1.2c0.3,0,0.6-0.1,0.8-0.2c0.3-0.1,0.6-0.5,0.9-0.5s0.6,0.4,0.9,0.5c0.3,0.1,0.5,0.2,0.8,0.2
	c0.3,0,0.6-0.1,0.8-0.2c0.3-0.1,0.6-0.5,0.9-0.5s0.6,0.4,0.9,0.5s0.5,0.2,0.8,0.2s0.6-0.1,0.8-0.2c0.3-0.1,0.6-0.5,0.9-0.5
	s0.6,0.4,0.9,0.5c0.3,0.1,0.5,0.2,0.8,0.2s0.6-0.1,0.8-0.2c0.3-0.1,0.6-0.5,0.9-0.5c0.3,0,0.6,0.4,0.9,0.5c0.3,0.1,0.5,0.2,0.8,0.2
	V16z"/>
</svg>
