<svg xmlns="http://www.w3.org/2000/svg" viewBox="0 0 27 27" height="27" width="27"><title>wading-white-22.svg</title><rect fill="none" x="0" y="0" width="27" height="27"></rect><rect x="0" y="0" width="27" height="27" rx="4" ry="4" fill="#231f20"></rect><path fill="#ffffff" transform="translate(2 2)" d="M11,0c1.2,0,2.1,0.9,2.1,2.1S12.2,4.2,11,4.2S8.9,3.3,8.9,2.1S9.8,0,11,0z"></path><path fill="#ffffff" transform="translate(2 2)" d="M21.3,22c-0.4,0-0.9-0.1-1.3-0.3c-0.4-0.2-0.8-1-1.3-1s-0.9,0.8-1.3,1C17,21.9,16.6,22,16.1,22
	c-0.4,0-0.9-0.1-1.3-0.3c-0.4-0.2-0.8-1-1.3-1s-0.9,0.8-1.3,1C11.9,21.9,11.4,22,11,22s-0.9-0.1-1.3-0.3c-0.4-0.2-0.8-1-1.3-1
	s-0.9,0.8-1.3,1C6.7,21.9,6.3,22,5.9,22c-0.5,0-0.9-0.1-1.3-0.3c-0.4-0.2-0.8-1-1.3-1s-0.9,0.8-1.3,1C1.6,21.9,1.2,22,0.7,22v-1.9
	c0.5,0,0.9-0.1,1.3-0.3c0.4-0.2,0.8-1,1.3-1s0.9,0.8,1.3,1C5,20,5.4,20.1,5.9,20.1c0.4,0,0.9-0.1,1.3-0.3c0.4-0.2,0.8-1,1.3-1
	s0.9,0.8,1.3,1c0.4,0.2,0.8,0.3,1.3,0.3s0.9-0.1,1.3-0.3c0.4-0.2,0.8-1,1.3-1s0.9,0.8,1.3,1c0.4,0.2,0.8,0.3,1.3,0.3
	s0.9-0.1,1.3-0.3c0.4-0.2,0.8-1,1.3-1s0.9,0.8,1.3,1s0.8,0.3,1.3,0.3V22H21.3z"></path><path fill="#ffffff" transform="translate(2 2)" d="M13.2,18.3c-0.3,0-0.7,0.1-1,0.3c-0.3,0.1-0.6,0.2-0.9,0.3l0,0v-5.2l1.9-1.3V18.3z"></path><path fill="#ffffff" transform="translate(2 2)" d="M10.6,18.8c-0.3,0-0.6-0.1-0.9-0.3c-0.3-0.2-0.7-0.3-1.1-0.3v-1.6H6L5.4,14c0-0.1,0-0.2,0-0.2
	c0-0.8,0.5-1.5,1.3-1.8V6.8c0-1.3,1-2.3,2.2-2.3H13c1.3,0,2.2,1.1,2.2,2.3v5.6c0,1-1.3,1-1.3,0V7h-1v4H9V7H8v5
	c0.1,0.1,0.3,0.1,0.5,0.2l2.2,1.4L10.6,18.8z M6.2,14h2.4c0-0.4-0.2-1-0.6-1.2c-0.2,0.6-1,0.6-1.3,0C6.4,13,6.2,13.6,6.2,14z"></path></svg>