<svg xmlns="http://www.w3.org/2000/svg" viewBox="0 0 18 18" height="18" width="18"><title>walking-white-14.svg</title><rect fill="none" x="0" y="0" width="18" height="18"></rect><rect x="0" y="0" width="18" height="18" rx="4" ry="4" fill="#231f20"></rect><path fill="#ffffff" transform="translate(2 2)" d="M6.6,2.3c0.6,0,1.1-0.5,1.1-1.2C7.7,0.5,7.2,0,6.6,0S5.5,0.5,5.5,1.2C5.5,1.8,6,2.3,6.6,2.3z"></path><path fill="#ffffff" transform="translate(2 2)" d="M10.5,6L8.8,5.1L7.5,3c-0.2-0.3-0.6-0.5-1-0.5c-0.3,0-0.6,0.1-0.8,0.3l-2,2.1C3.6,5,3.5,5.1,3.5,5.2L3.3,7.4
	c0,0,0,0,0,0.1C3.3,7.8,3.5,8,3.8,8s0.5-0.2,0.5-0.5l0.2-2l0.7-0.7l-0.6,5.5l-1.2,2.6c0,0.1-0.1,0.2-0.1,0.3c0,0.4,0.4,0.8,0.8,0.7
	c0.3,0,0.5-0.2,0.7-0.4l1.3-2.8c0-0.1,0.1-0.3,0.1-0.3l0.2-1.3l1.3,4.4C7.8,13.8,8,14,8.4,14s0.8-0.4,0.8-0.8c0-0.1,0-0.1,0-0.2
	L7.3,7l0.2-2L8,5.8c0,0.1,0.1,0.1,0.1,0.1l1.8,1C10,6.9,10.1,7,10.1,7c0.3,0,0.5-0.2,0.5-0.5C10.7,6.3,10.6,6.1,10.5,6z"></path></svg>