<svg xmlns="http://www.w3.org/2000/svg" viewBox="0 0 27 27" height="27" width="27"><title>walk-on-boardwalk-white-22.svg</title><rect fill="none" x="0" y="0" width="27" height="27"></rect><rect x="0" y="0" width="27" height="27" rx="4" ry="4" fill="#231f20"></rect><path fill="#ffffff" transform="translate(2 2)" d="M11.5,2.7c0.7,0.1,1.4-0.5,1.4-1.2C13,0.7,12.4,0.1,11.7,0s-1.4,0.5-1.4,1.2C10.2,2,10.7,2.6,11.5,2.7z"></path><path fill="#ffffff" transform="translate(2 2)" d="M10.3,3.2c0.3-0.2,0.6-0.3,0.9-0.3c0.5,0,0.8,0.3,1.1,0.7l1.3,2.7l1.8,1.3c0.2,0.1,0.3,0.3,0.2,0.5
	c0,0.3-0.3,0.6-0.6,0.6c-0.1,0-0.2,0-0.3-0.1l-2-1.4c-0.1-0.1-0.1-0.1-0.2-0.2L12,6l-0.6,2.7l2.4,2.8c0.1,0.1,0.1,0.2,0.1,0.3
	l0.6,3.4c0,0.1,0,0.1,0,0.2c0,0.5-0.5,0.9-1,0.8c-0.4,0-0.7-0.3-0.8-0.7l-0.6-3.2l-1.9-2.1l-0.4,2.1c0,0.1-0.1,0.3-0.2,0.4l-1.9,3.1
	c-0.2,0.3-0.5,0.5-0.8,0.4c-0.5,0-0.9-0.5-0.8-1c0-0.1,0.1-0.3,0.1-0.4l1.7-2.9l1.4-6.4L8.6,6.3L8.1,8.6C8,8.9,7.7,9.1,7.4,9.1
	C7.1,9,6.8,8.8,6.9,8.4V8.3l0.6-2.6c0-0.1,0.1-0.2,0.2-0.3L10.3,3.2z"></path><path fill="#ffffff" transform="translate(2 2)" d="M0,17h4v2H0V17z M6,17h4v2H6V17z M12,17h4v2h-4V17z M18,17h4v2h-4V17z M4,19h2v3H4V19z M16,19h2v3h-2V19z"></path></svg>