<svg xmlns="http://www.w3.org/2000/svg" viewBox="0 0 18 18" height="18" width="18"><title>walk-on-boardwalk-white-14.svg</title><rect fill="none" x="0" y="0" width="18" height="18"></rect><rect x="0" y="0" width="18" height="18" rx="4" ry="4" fill="#231f20"></rect><path fill="#ffffff" transform="translate(2 2)" d="M7.3,1.7c0.5,0,0.9-0.3,0.9-0.8C8.3,0.4,7.9,0,7.4,0C7,0,6.6,0.3,6.5,0.8C6.5,1.3,6.8,1.7,7.3,1.7z M6.6,2.1
	C6.8,1.9,7,1.9,7.2,1.9c0.3,0,0.5,0.2,0.7,0.4L8.7,4l1.2,0.8C10,4.9,10.1,5,10,5.1c0,0.2-0.2,0.4-0.4,0.4c-0.1,0-0.1,0-0.2-0.1
	L8.2,4.6L8.1,4.5L7.8,3.8L7.4,5.5l1.5,1.8C8.9,7.4,9,7.4,9,7.5l0.4,2.2v0.1c0,0.3-0.3,0.6-0.6,0.5c-0.3,0-0.5-0.2-0.5-0.5l-0.4-2
	L6.6,6.5L6.3,7.8L6.2,8L5,10c-0.1,0.2-0.3,0.3-0.5,0.3C4.2,10.3,3.9,10,4,9.7c0-0.1,0-0.2,0-0.3l1.1-1.8l0.9-4L5.1,4L4.8,5.5
	c0,0.2-0.2,0.3-0.4,0.3C4.1,5.8,4,5.6,4,5.4c0,0,0,0,0-0.1l0.4-1.7c0-0.1,0.1-0.1,0.1-0.2L6.6,2.1z M0,11h2v1H0V11z M3,11h2v1H3V11z
	 M6,11h2v1H6V11z M9,11h2v1H9V11z M12,11h2v1h-2V11z M3,12h1v2H3V12z M10,12h1v2h-1V12z"></path></svg>