<svg xmlns="http://www.w3.org/2000/svg" viewBox="0 0 27 27" height="27" width="27"><title>walking-white-22.svg</title><rect fill="none" x="0" y="0" width="27" height="27"></rect><rect x="0" y="0" width="27" height="27" rx="4" ry="4" fill="#231f20"></rect><path fill="#ffffff" transform="translate(2 2)" d="M10.4,3.6c1,0,1.8-0.8,1.7-1.8c0-1-0.8-1.8-1.8-1.7c-1,0-1.8,0.8-1.7,1.8C8.6,2.8,9.5,3.6,10.4,3.6z"></path><path fill="#ffffff" transform="translate(2 2)" d="M16.5,9.5L13.9,8l-2.2-3.4c-0.3-0.4-0.9-0.8-1.5-0.7C9.7,4,9.3,4.2,9,4.4L5.8,7.7C5.7,7.8,5.6,8,5.6,8.1
	l-0.4,3.6v0.1c0,0.4,0.4,0.8,0.8,0.8s0.7-0.4,0.8-0.8l0.3-3.1l1.1-1.1l-1,8.6l-1.9,4.1c-0.1,0.1-0.1,0.3-0.1,0.5
	c0,0.7,0.6,1.2,1.2,1.2c0.5,0,0.9-0.3,1.1-0.7l2-4.4c0-0.1,0.2-0.4,0.2-0.5l0.2-2.1l2.1,6.9c0.2,0.5,0.6,0.8,1.2,0.8
	c0.7,0,1.2-0.6,1.2-1.2c0-0.1,0-0.1,0-0.2L11.5,11l0.4-3.1l0.8,1.3c0.1,0.1,0.1,0.2,0.2,0.2l2.8,1.6c0.1,0,0.2,0.1,0.4,0.1
	c0.4,0,0.8-0.4,0.8-0.8C16.9,9.8,16.7,9.6,16.5,9.5z"></path></svg>