<svg xmlns="http://www.w3.org/2000/svg" viewBox="0 0 18 18" height="18" width="18"><title>watch-for-falling-ice-white-14.svg</title><rect fill="none" x="0" y="0" width="18" height="18"></rect><rect x="0" y="0" width="18" height="18" rx="4" ry="4" fill="#231f20"></rect><path fill="#ffffff" transform="translate(2 2)" d="M5,7.9c-0.3,0-0.6-0.2-0.7-0.6c0-0.3,0.2-0.6,0.6-0.6c0.3,0,0.6,0.2,0.6,0.6C5.5,7.6,5.3,7.9,5,7.9z"></path><path fill="#ffffff" transform="translate(2 2)" d="M5.5,8.2C5.4,8.1,5.2,8,5.1,8C4.9,8,4.7,8.1,4.6,8.3L4,9.6l-0.8,0.6c-0.1,0-0.2,0.1-0.2,0.2
	c0,0.2,0.1,0.3,0.3,0.3h0.1l0.9-0.6c0,0,0.1,0,0.1-0.1l0.2-0.5l0.3,1.2L3.8,12v0.1l-0.3,1.5v0.1c0,0.2,0.2,0.4,0.4,0.4
	s0.3-0.2,0.4-0.3l0.3-1.4l0.9-1l0.2,0.9c0,0,0.1,0.1,0.1,0.2l0.8,1.4C6.7,13.9,6.8,14,7,14s0.4-0.2,0.4-0.4c0-0.1,0-0.1-0.1-0.2
	l-0.8-1.3L5.9,9.2l0.4,0.3l0.2,1c0,0.1,0.1,0.2,0.3,0.2c0.1,0,0.3-0.1,0.3-0.3l0,0L6.8,9.3c0-0.1,0-0.1-0.1-0.1L5.5,8.2z"></path><path fill="#ffffff" transform="translate(2 2)" d="M2.2,6.5C1.9,7,1.9,7.2,1.7,7.5c-0.3,0.4-0.4,1-0.6,1.4
	c0.1-0.2,0.2-1.5,0.3-1.8C1.4,6.9,1.7,7.2,2.2,6.5z"></path><path fill="#ffffff" transform="translate(2 2)" d="M3,5.6C2.7,5.7,2.4,4.9,2.5,5.1c0,0.2,0.6,1.6,0.7,1.8
	C3.2,6.8,3,6.2,3,5.6z"></path><path fill="#ffffff" transform="translate(2 2)" d="M1.7,8.4c0,0.3-0.3,0.7-0.3,0.9s0.3,1.1,0.4,1.4
	C1.8,10.5,1.8,9,1.7,8.4z"></path><path fill="#ffffff" transform="translate(2 2)" d="M12.9,0c-1.4,0.9-1.6,0.3-2.4,0.8C10,1.1,9.4,1.2,8.9,1.3c-1,0.1-0.7,0.6-1.8,0.6C6.1,2,5.8,1.8,4.7,2.5
	C4,3,4.1,3.1,3.2,3.2C2,3.3,1.2,3.5,1.3,4.8c0,0.4,0.2,0.7,0.1,1.6C1.3,6.9,1.8,6.8,1.9,5.9s0.1-1,0.5-1.1c0.3,0,0.6,0.6,0.7,0.3
	c0.2-0.5,0.8-0.5,1.2-0.4s0.4-0.4,1-0.5L10,7.8V14h2.8C12.9,14,13,0,12.9,0z M10,6.3L6.7,3.8L10,2.6V6.3z"></path></svg>