<svg xmlns="http://www.w3.org/2000/svg" viewBox="0 0 18 18" height="18" width="18"><title>waterskiing-white-14.svg</title><rect fill="none" x="0" y="0" width="18" height="18"></rect><rect x="0" y="0" width="18" height="18" rx="4" ry="4" fill="#231f20"></rect><path fill="#ffffff" transform="translate(2 2)" d="M8.3,12.4c0.1,0,0.2,0,0.3,0c0.3,0,0.6,0.1,0.9,0.2c0.3,0.1,0.5,0.2,0.8,0.2s0.6-0.1,0.8-0.2
	c0.3-0.1,0.6-0.2,0.9-0.2c0.3,0,0.6,0.1,0.9,0.2c0.3,0.1,0.5,0.2,0.8,0.2V14c-0.3,0-0.6-0.1-0.8-0.2c-0.3-0.1-0.6-0.2-0.9-0.2
	c-0.3,0-0.6,0.1-0.9,0.2c-0.3,0.1-0.5,0.2-0.8,0.2s-0.6-0.1-0.8-0.2c-0.3-0.1-0.6-0.2-0.9-0.2c-0.3,0-0.6,0.1-0.9,0.2
	C7.5,13.9,7.2,14,6.9,14c-0.3,0-0.6-0.1-0.8-0.2c-0.3-0.1-0.6-0.2-0.9-0.2s-0.6,0.1-0.9,0.2C4.1,13.9,3.8,14,3.5,14
	s-0.6-0.1-0.8-0.2c-0.3-0.1-0.6-0.2-0.9-0.2s-0.6,0.1-0.9,0.2S0.4,14,0.1,14v-1.3c0.3,0,0.6-0.1,0.8-0.2c0.3-0.1,0.6-0.2,0.9-0.2
	s0.6,0.1,0.9,0.2c0.3,0.1,0.5,0.2,0.8,0.2s0.6-0.1,0.8-0.2c0.2-0.1,0.3-0.1,0.5-0.2l8-1.4c0.3-0.1,0.6-0.2,0.7-0.6
	c0-0.1,0.1-0.1,0.2-0.1c0.1,0,0.2,0.1,0.2,0.2c0,0.2-0.2,0.8-1,1L8.3,12.4z M1.4,2.3c0.6,0,1.2-0.5,1.2-1.2C2.5,0.5,2,0,1.4,0
	C0.7,0,0.2,0.5,0.2,1.2C0.2,1.8,0.7,2.3,1.4,2.3z M4.8,11.7c0.1,0.3,0.4,0.5,0.7,0.5l0,0c0.4,0,0.7-0.3,0.7-0.7v-0.1L5.3,7.5
	C5.2,7.3,5,7.1,4.7,7l0,0L3.5,6.2L2.9,3.6h3.6C6.8,3.6,7,3.4,7,3.1S6.8,2.6,6.5,2.6H1.2C0.7,2.6,0.4,3,0.5,3.3l0.7,3.4
	C1.3,7,1.5,7.2,1.8,7.4l0,0L4,8.6L4.8,11.7z M7.4,3.2h6.4v0.4H7.4V3.2z"></path></svg>