<svg xmlns="http://www.w3.org/2000/svg" viewBox="0 0 27 27" height="27" width="27"><title>waterfowl-white-22.svg</title><rect fill="none" x="0" y="0" width="27" height="27"></rect><rect x="0" y="0" width="27" height="27" rx="4" ry="4" fill="#231f20"></rect><path fill="#ffffff" transform="translate(2 2)" d="M2.2,13.5l-1.4-1c0,0,5.9-1.8,9.5-1.8c2.5,0,4.6-0.7,3.8-2.1c-0.8-1.4-0.8-5.5,2.5-5.3c0,0,2.3,0,2.5,2.2
	c0,0-0.2,0.8,2.8,1.4c0,0,0.5,0.3-0.4,0.7c0,0-4.5-0.3-4.1,0.8c0,0-0.1,1,1.4,1.6c2.6,1,5.2,9.3-5.6,8.5c0,0-4.3-0.2-7.7-2.1
	c0,0-3.9-1.8-5.4-2.2L2.2,13.5z"></path></svg>