<svg xmlns="http://www.w3.org/2000/svg" viewBox="0 0 18 18" height="18" width="18"><title>water-hookup-white-14.svg</title><rect fill="none" x="0" y="0" width="18" height="18"></rect><rect x="0" y="0" width="18" height="18" rx="4" ry="4" fill="#231f20"></rect><path fill="#ffffff" transform="translate(2 2)" d="M2.2,1.9c0,0,0.1,0,0.2,0c0,0,1.7-0.4,2.1-0.5
	C4.6,1.7,4.7,1.9,5,2.1v0.8h1.2V2c0.2-0.1,0.4-0.4,0.5-0.6c0.5,0.1,2,0.5,2,0.5c0.1,0,0.2,0,0.2,0c0.5,0,0.8-0.4,0.8-0.8
	c0-0.5-0.4-0.8-0.8-0.8c-0.1,0-0.1,0-0.1,0L6.6,0.7C6.4,0.3,6,0,5.6,0c-0.5,0-0.9,0.3-1,0.7L2.3,0.2H2.2C1.7,0.2,1.4,0.6,1.4,1
	S1.7,1.9,2.2,1.9z"></path><path fill="#ffffff" transform="translate(2 2)" d="M11.5,9.6c0,0-1.4,2.5-1.4,2.6S10,12.5,10,12.7
	c0,0.7,0.8,1.3,1.5,1.3s1.5-0.6,1.5-1.3c0-0.3-0.1-0.5-0.1-0.5L11.5,9.6z"></path><path fill="#ffffff" transform="translate(2 2)" d="M12.6,8c0-0.4,0-0.7,0-1.2c0-1.8-2-1.8-2-1.8H8V4L6.5,3.4h-2L3,4v1
	H1v3h9v1h3V8H12.6z"></path></svg>