<?xml version="1.0" encoding="utf-8"?>
<!-- Generator: Adobe Illustrator 25.4.1, SVG Export Plug-In . SVG Version: 6.00 Build 0)  -->
<svg version="1.1" id="Layer_1" xmlns="http://www.w3.org/2000/svg" xmlns:xlink="http://www.w3.org/1999/xlink" x="0px" y="0px"
	 width="18px" height="18px" viewBox="0 0 18 18" enable-background="new 0 0 18 18" xml:space="preserve">
<rect fill="none" width="18" height="18"/>
<path fill="#231F20" d="M4,0h10c2.2,0,4,1.8,4,4v10c0,2.2-1.8,4-4,4H4c-2.2,0-4-1.8-4-4V4C0,1.8,1.8,0,4,0z"/>
<path fill="#FFFFFF" d="M15.6,15c-0.3,0-0.6-0.1-0.8-0.2c-0.3-0.1-0.6-0.5-0.9-0.5c-0.3,0-0.6,0.4-0.9,0.5c-0.2,0.1-0.5,0.2-0.8,0.2
	s-0.6-0.1-0.8-0.2c-0.3-0.1-0.6-0.5-0.9-0.5c-0.3,0-0.6,0.4-0.9,0.5C9.4,14.9,9.1,15,8.8,15S8.2,14.9,8,14.8
	c-0.3-0.1-0.6-0.5-0.9-0.5s-0.6,0.4-0.9,0.5C6,14.9,5.7,15,5.4,15c-0.3,0-0.6-0.1-0.8-0.2c-0.3-0.1-0.6-0.5-0.9-0.5
	s-0.6,0.4-0.9,0.5C2.6,14.9,2.3,15,2,15v-1.2c0.3,0,0.6-0.1,0.8-0.2c0.3-0.1,0.6-0.5,0.9-0.5s0.6,0.4,0.9,0.5s0.5,0.2,0.8,0.2
	c0.3,0,0.6-0.1,0.8-0.2c0.3-0.1,0.6-0.5,0.9-0.5s0.6,0.4,0.9,0.5s0.5,0.2,0.8,0.2s0.6-0.1,0.8-0.2c0.3-0.1,0.6-0.5,0.9-0.5
	s0.6,0.4,0.9,0.5c0.3,0.1,0.5,0.2,0.8,0.2s0.6-0.1,0.8-0.2c0.3-0.1,0.6-0.5,0.9-0.5c0.3,0,0.6,0.4,0.9,0.5c0.3,0.1,0.5,0.2,0.8,0.2
	C15.6,13.8,15.6,15,15.6,15z"/>
<path fill="#FFFFFF" d="M8,12.5c0.1,0,0.2,0.1,0.3,0.1l0,0c-0.6-0.5-0.7-1.3-0.8-2c0-0.2-0.1-0.3-0.1-0.5c-0.1-0.2-0.1-1-0.2-1.8
	c0-1.1-0.1-2.3-0.2-3C6.9,4.8,6.6,4.4,6.3,4h0.9C8.1,4,8.8,4.6,9,5.5c0.1,0.6,0.2,1.8,0.2,2.8c0.1,1.1,0.1,1.7,0.2,2.1
	c0,0.1,0.1,0.3,0.1,0.4c0.1,0.4,0.2,1,0.4,1.5c0.2-0.1,0.4-0.3,0.6-0.3s0.3,0.1,0.5,0.2c-0.3-0.4-0.5-1.1-0.5-1.6
	c0-0.2-0.1-0.3-0.1-0.5c-0.1-0.2-0.1-1-0.2-1.8c0-1.1-0.1-2.3-0.2-3C9.9,4.8,9.6,4.4,9.3,4h0.9c0.9,0,1.6,0.6,1.8,1.5
	c0.1,0.6,0.2,1.8,0.2,2.8c0.1,1.1,0.1,1.7,0.2,2.1c0,0.1,0.1,0.3,0.1,0.4c0.1,0.5,0.2,1.1,0.5,1.7l0,0c0.3-0.1,0.6-0.5,0.9-0.5
	c-0.2-0.4-0.3-1-0.4-1.4c0-0.2-0.1-0.3-0.1-0.5c-0.1-0.3-0.1-1.1-0.2-1.9c0-1-0.1-2.2-0.2-2.9C12.7,4,11.6,3,10.2,3h-3h-3H2v1h2.2
	C5.1,4,5.8,4.6,6,5.5c0.1,0.6,0.2,1.8,0.2,2.8c0.1,1.1,0.1,1.7,0.2,2.1c0,0.1,0.1,0.3,0.1,0.4c0.1,0.4,0.2,0.9,0.3,1.3
	C6.9,12.1,7,12,7.1,12C7.4,12,7.7,12.4,8,12.5z"/>
</svg>
