<svg xmlns="http://www.w3.org/2000/svg" viewBox="0 0 18 18" height="18" width="18"><title>waterfowl-white-14.svg</title><rect fill="none" x="0" y="0" width="18" height="18"></rect><rect x="0" y="0" width="18" height="18" rx="4" ry="4" fill="#231f20"></rect><path fill="#ffffff" transform="translate(2 2)" d="M1.4,8.6L0.5,8c0,0,3.7-1.1,6-1.1c1.6,0,2.9-0.4,2.4-1.4C8.4,4.6,8.4,2,10.5,2.1c0,0,1.4,0,1.6,1.4
	c0,0-0.1,0.5,1.8,0.9c0,0,0.3,0.2-0.3,0.5c0,0-2.9-0.2-2.6,0.5c0,0-0.1,0.6,0.9,1c1.7,0.6,3.3,5.9-3.6,5.4c0,0-2.7-0.1-4.9-1.4
	c0,0-2.5-1.1-3.5-1.4L1.4,8.6z"></path></svg>