<svg xmlns="http://www.w3.org/2000/svg" viewBox="0 0 27 27" height="27" width="27"><title>water-hookup-white-22.svg</title><rect fill="none" x="0" y="0" width="27" height="27"></rect><rect x="0" y="0" width="27" height="27" rx="4" ry="4" fill="#231f20"></rect><path fill="#ffffff" transform="translate(2 2)" d="M3.7,3c0,0,0.2,0,0.3,0c0,0,2.7-0.7,3.3-0.8c0.1,0.4,0.4,0.8,0.8,1
	v1.3h1.8V3.2c0.3-0.2,0.6-0.6,0.7-1C11.5,2.4,13.8,3,13.8,3c0.1,0,0.3,0,0.3,0c0.7,0,1.3-0.6,1.3-1.3s-0.6-1.3-1.3-1.3
	c-0.1,0-0.2,0-0.2,0l-3.3,0.7C10.3,0.5,9.7,0,9,0C8.2,0,7.6,0.5,7.3,1.2L3.9,0.4c0,0-0.1,0-0.2,0C3,0.4,2.4,1,2.4,1.7S3,3,3.7,3z"></path><path fill="#ffffff" transform="translate(2 2)" d="M18,15.1c0,0-1.9,4-1.9,4.1c0,0.2-0.1,0.5-0.1,0.7
	c0,1.1,0.9,2.1,2,2.1s2-0.9,2-2.1c0-0.4-0.2-0.8-0.2-0.8L18,15.1z"></path><path fill="#ffffff" transform="translate(2 2)" d="M20,13c0-0.6,0-1.5,0-2.2C20,8,16.6,8,16.6,8H13V6.5l-2.4-1.1H7.5
	L5,6.5V8H1v4h15v1h-1v1h6v-1H20z"></path></svg>