<svg xmlns="http://www.w3.org/2000/svg" viewBox="0 0 27 27" height="27" width="27"><title>waterskiing-white-22.svg</title><rect fill="none" x="0" y="0" width="27" height="27"></rect><rect x="0" y="0" width="27" height="27" rx="4" ry="4" fill="#231f20"></rect><path fill="#ffffff" transform="translate(2 2)" d="M13.1,19.5c0.2,0,0.3,0,0.5,0c0.5,0,1,0.1,1.4,0.3c0.4,0.2,0.9,0.3,1.3,0.3c0.5,0,0.9-0.1,1.3-0.3
	c0.4-0.2,0.9-0.3,1.4-0.3s1,0.1,1.4,0.3c0.4,0.2,0.9,0.3,1.3,0.3v2c-0.5,0-0.9-0.1-1.3-0.3c-0.4-0.2-0.9-0.3-1.4-0.3s-1,0.1-1.4,0.3
	c-0.4,0.2-0.9,0.3-1.3,0.3c-0.5,0-0.9-0.1-1.3-0.3c-0.4-0.2-0.9-0.3-1.4-0.3s-1,0.1-1.4,0.3c-0.4,0.2-0.9,0.3-1.3,0.3
	S10,22,9.6,21.8s-0.9-0.3-1.4-0.3s-1,0.1-1.4,0.3C6.4,21.9,5.9,22,5.5,22c-0.5,0-0.9-0.1-1.3-0.3c-0.4-0.2-0.9-0.3-1.4-0.3
	s-1,0.1-1.4,0.3S0.6,22,0.1,22v-2c0.5,0,0.9-0.1,1.3-0.3c0.4-0.2,0.9-0.3,1.4-0.3s1,0.1,1.4,0.3S5,20,5.5,20s0.9-0.1,1.3-0.3
	c0.2-0.1,0.5-0.2,0.7-0.2l12.6-2.2c0.4-0.1,1-0.4,1.2-0.9c0-0.1,0.2-0.1,0.3-0.1c0.2,0,0.4,0.2,0.4,0.4c0,0.3-0.2,1.2-1.6,1.5
	L13.1,19.5z"></path><path fill="#ffffff" transform="translate(2 2)" d="M2.2,3.6c1,0,1.8-0.8,1.8-1.8S3.2,0,2.2,0S0.4,0.8,0.4,1.8S1.2,3.6,2.2,3.6z"></path><path fill="#ffffff" transform="translate(2 2)" d="M7.5,18.3c0.1,0.4,0.6,0.8,1.1,0.8l0,0c0.6,0,1.2-0.5,1.2-1.2v-0.2l-1.4-6c-0.1-0.4-0.5-0.7-0.8-0.9l0,0
	l-2-1.2l-0.9-4h5.7c0.5,0,0.8-0.4,0.8-0.8c0-0.5-0.4-0.8-0.8-0.8H2C1.1,4,0.7,4.6,0.8,5.1L2,10.4c0.1,0.5,0.4,0.9,0.9,1.1l0,0l3.4,2
	L7.5,18.3z"></path><path fill="#ffffff" transform="translate(2 2)" d="M11.6,5.1h10.1v0.6H11.6V5.1z"></path></svg>