<svg xmlns="http://www.w3.org/2000/svg" viewBox="0 0 18 18" height="18" width="18"><title>webcam-white-14.svg</title><rect fill="none" x="0" y="0" width="18" height="18"></rect><rect x="0" y="0" width="18" height="18" rx="4" ry="4" fill="#231f20"></rect><path fill="#ffffff" transform="translate(2 2)" d="M9,11.7c2.3-0.8,4-3,4-5.7c0-3.3-2.7-6-6-6S1,2.7,1,6c0,2.6,1.7,4.8,4,5.7V13H2v1h10v-1H9V11.7z M3,6
	c0-2.2,1.8-4,4-4s4,1.8,4,4s-1.8,4-4,4S3,8.2,3,6z M7,4c1.1,0,2,0.9,2,2S8.1,8,7,8S5,7.1,5,6S5.9,4,7,4z"></path></svg>