<svg xmlns="http://www.w3.org/2000/svg" viewBox="0 0 27 27" height="27" width="27"><title>webcam-white-22.svg</title><rect fill="none" x="0" y="0" width="27" height="27"></rect><rect x="0" y="0" width="27" height="27" rx="4" ry="4" fill="#231f20"></rect><path fill="#ffffff" transform="translate(2 2)" d="M11,6c1.7,0,3,1.3,3,3s-1.3,3-3,3s-3-1.3-3-3S9.3,6,11,6z"></path><path fill="#ffffff" transform="translate(2 2)" d="M13,17.8c4-0.9,7-4.5,7-8.8c0-5-4-9-9-9S2,4,2,9c0,4.3,3,7.9,7,8.8V20H4v2h14v-2h-5V17.8z M5,9
	c0-3.3,2.7-6,6-6s6,2.7,6,6s-2.7,6-6,6S5,12.3,5,9z"></path></svg>