<svg xmlns="http://www.w3.org/2000/svg" viewBox="0 0 27 27" height="27" width="27"><title>whale-viewing-white-22.svg</title><rect fill="none" x="0" y="0" width="27" height="27"></rect><rect x="0" y="0" width="27" height="27" rx="4" ry="4" fill="#231f20"></rect><path fill="#ffffff" transform="translate(2 2)" d="M21.6,22c-0.5,0-0.9-0.1-1.3-0.3c-0.4-0.2-0.9-0.3-1.3-0.3c-0.5,0-0.9,0.1-1.3,0.3c-0.4,0.2-0.8,0.3-1.3,0.3
	s-0.9-0.1-1.3-0.3c-0.4-0.2-0.9-0.3-1.3-0.3c-0.5,0-0.9,0.1-1.3,0.3c-0.6,0.2-1,0.3-1.5,0.3s-0.9-0.1-1.3-0.3
	c-0.4-0.2-0.9-0.3-1.3-0.3c-0.5,0-0.9,0.1-1.3,0.3C6.6,21.9,6.2,22,5.7,22s-0.9-0.1-1.3-0.3C4,21.5,3.5,21.4,3,21.4
	s-0.9,0.1-1.3,0.3C1.3,21.9,0.9,22,0.4,22v-2c0.5,0,0.9-0.1,1.3-0.3c0.4-0.2,0.9-0.3,1.3-0.3c0.5,0,0.9,0.1,1.3,0.3
	C4.8,19.9,5.2,20,5.7,20s0.9-0.1,1.3-0.3c0.4-0.2,0.9-0.3,1.3-0.3c0.5,0,0.9,0.1,1.3,0.3c0.4,0.2,0.8,0.3,1.3,0.3s0.9-0.1,1.3-0.3
	c0.4-0.2,0.9-0.3,1.3-0.3c0.5,0,0.9,0.1,1.3,0.3c0.4,0.2,0.8,0.3,1.3,0.3c0.5,0,0.9-0.1,1.3-0.3c0.4-0.2,0.9-0.3,1.3-0.3
	c0.5,0,0.9,0.1,1.3,0.3c0.4,0.2,0.8,0.3,1.3,0.3v2H21.6z"></path><path fill="#ffffff" transform="translate(2 2)" d="M13,18c0.2,0,0.4-0.1,0.6-0.1c0.5,0,0.9,0.1,1.3,0.3c0.4,0.2,0.8,0.3,1.3,0.3s0.9-0.1,1.3-0.3
	c0.3-0.1,0.6-0.2,0.9-0.3c-0.2-5.3-5.7-9.9-5.9-10.2c-0.3-0.2-0.5-0.8-0.3-1.4L13.6,2c0.2-0.7,0.1-1.6-0.2-1.8
	c-0.2-0.1-0.6-0.3-0.8,0L9,4.2C8.2,5,8.8,5.9,8.8,5.9C7.6,5.5,6.2,5.8,5.4,6.1l-3,1.5C2.1,7.7,2,8.1,2.2,8.4
	c0.5,0.8,2.1,0.8,5.5,0.4C13,8.2,13,16.9,13,18z"></path></svg>