<svg xmlns="http://www.w3.org/2000/svg" viewBox="0 0 18 18" height="18" width="18"><title>whale-viewing-white-14.svg</title><rect fill="none" x="0" y="0" width="18" height="18"></rect><rect x="0" y="0" width="18" height="18" rx="4" ry="4" fill="#231f20"></rect><path fill="#ffffff" transform="translate(2 2)" d="M13.8,14c-0.3,0-0.6-0.1-0.8-0.2c-0.3-0.1-0.6-0.5-0.9-0.5c-0.3,0-0.6,0.4-0.9,0.5C11,13.9,10.7,14,10.4,14
	s-0.6-0.1-0.8-0.2c-0.3-0.1-0.6-0.5-0.9-0.5c-0.3,0-0.6,0.4-0.9,0.5C7.6,13.9,7.3,14,7,14s-0.6-0.1-0.8-0.2
	c-0.3-0.1-0.6-0.5-0.9-0.5s-0.6,0.4-0.9,0.5C4.2,13.9,3.9,14,3.6,14S3,13.9,2.8,13.8c-0.3-0.1-0.6-0.5-0.9-0.5S1.3,13.7,1,13.8
	C0.8,13.9,0.5,14,0.2,14v-1.2c0.3,0,0.6-0.1,0.8-0.2c0.3-0.1,0.6-0.5,0.9-0.5s0.6,0.4,0.9,0.5s0.5,0.2,0.8,0.2s0.6-0.1,0.8-0.2
	c0.3-0.1,0.6-0.5,0.9-0.5s0.6,0.4,0.9,0.5s0.5,0.2,0.8,0.2s0.6-0.1,0.8-0.2c0.3-0.1,0.6-0.5,0.9-0.5s0.6,0.4,0.9,0.5
	c0.3,0.1,0.5,0.2,0.8,0.2s0.6-0.1,0.8-0.2c0.3-0.1,0.6-0.5,0.9-0.5c0.3,0,0.6,0.4,0.9,0.5c0.3,0.1,0.5,0.2,0.8,0.2V14z"></path><path fill="#ffffff" transform="translate(2 2)" d="M8.3,11.4c0.1,0,0.3,0,0.4,0c0.3,0,0.6,0.1,0.9,0.2c0.3,0.1,0.5,0.2,0.8,0.2s0.6-0.1,0.8-0.2
	c0.2-0.1,0.4-0.1,0.6-0.2C11.7,8.1,8.2,5.1,8,4.9C7.8,4.8,7.7,4.4,7.8,4l0.8-2.8c0.1-0.4,0.1-1-0.1-1.2C8.4,0,8.1-0.1,8,0.1L5.7,2.7
	C5.2,3.2,5.6,3.8,5.6,3.8C4.9,3.5,4,3.7,3.4,3.9L1.5,4.8C1.4,4.9,1.3,5.2,1.4,5.3c0.3,0.5,1.3,0.5,3.5,0.3
	C8.3,5.2,8.3,10.7,8.3,11.4z"></path></svg>