<svg xmlns="http://www.w3.org/2000/svg" viewBox="0 0 18 18" height="18" width="18"><title>wheelchair-accessible-white-14.svg</title><rect fill="none" x="0" y="0" width="18" height="18"></rect><rect x="0" y="0" width="18" height="18" rx="4" ry="4" fill="#231f20"></rect><path fill="#ffffff" transform="translate(2 2)" d="M13,11l-3-4H7V6h2l1-1H9H7V4L6,3H5L4,4v4h1v1h5l2,3h2v-1H13z M5.5,0C6.3,0,7,0.7,7,1.5S6.3,3,5.5,3S4,2.3,4,1.5
	S4.7,0,5.5,0z M9,10L9,10c-0.3,1.7-1.7,3-3.5,3C3.6,13,2,11.4,2,9.5c0-1,0.4-1.8,1-2.4V6C1.8,6.8,1,7.9,1,9.5C1,12,3,14,5.5,14
	c2,0,3.6-1.3,4.3-3H9V10z"></path></svg>