<svg xmlns="http://www.w3.org/2000/svg" viewBox="0 0 27 27" height="27" width="27"><title>wheelchair-accessible-white-22.svg</title><rect fill="none" x="0" y="0" width="27" height="27"></rect><rect x="0" y="0" width="27" height="27" rx="4" ry="4" fill="#231f20"></rect><path fill="#ffffff" transform="translate(2 2)" d="M20,17h-1l-4-6H9V9h3l1-1l-1-1H9V6L8,5H7L6,6v6l2,2h6l4,5h2l1-1v-1H20z M13.4,17c-0.9,1.8-2.8,3-4.9,3
	c-3,0-5.5-2.5-5.5-5.5c0-1.7,0.8-3.2,2-4.2V8c-2.4,1.3-4,3.6-4,6.5C1,18.6,4.4,22,8.5,22c2.8,0,5.2-1.5,6.5-3.8V17H13.4z M8,0
	c1.1,0,2,0.9,2,2S9.1,4,8,4S6,3.1,6,2S6.9,0,8,0z"></path></svg>