<svg xmlns="http://www.w3.org/2000/svg" viewBox="0 0 18 18" height="18" width="18"><title>wi-fi-white-14.svg</title><rect fill="none" x="0" y="0" width="18" height="18"></rect><rect x="0" y="0" width="18" height="18" rx="4" ry="4" fill="#231f20"></rect><path fill="#ffffff" transform="translate(2 2)" d="M7,7.6c-1.2,0-2.3,0.5-3,1.3l1,1c0.5-0.5,1.2-0.8,2-0.8s1.5,0.3,2,0.8l1-1C9.3,8.1,8.2,7.6,7,7.6z M7,4.5
	c-2,0-3.7,0.8-5,2.1l1,1C4,6.6,5.4,6,7,6s3,0.6,4,1.6l1-1C10.7,5.3,9,4.5,7,4.5z M7,2.8c2.3,0,4.4,0.9,6,2.5l1-1
	c-1.8-1.8-4.3-2.9-7-2.9S1.8,2.5,0,4.3l1,1C2.6,3.8,4.7,2.8,7,2.8z M7,10.6c0.6,0,1,0.4,1,1s-0.4,1-1,1s-1-0.4-1-1S6.4,10.6,7,10.6z
	"></path></svg>