<svg xmlns="http://www.w3.org/2000/svg" viewBox="0 0 27 27" height="27" width="27"><title>wi-fi-white-22.svg</title><rect fill="none" x="0" y="0" width="27" height="27"></rect><rect x="0" y="0" width="27" height="27" rx="4" ry="4" fill="#231f20"></rect><path fill="#ffffff" transform="translate(2 2)" d="M11,11.9c-1.9,0-3.6,0.8-4.8,2l1.6,1.6c0.8-0.8,1.9-1.3,3.1-1.3s2.3,0.5,3.1,1.3l1.6-1.6
	C14.6,12.7,12.9,11.9,11,11.9z"></path><path fill="#ffffff" transform="translate(2 2)" d="M11,7c-3.1,0-5.9,1.3-7.9,3.3l1.6,1.6c1.6-1.6,3.8-2.6,6.2-2.6s4.6,1,6.2,2.6l1.6-1.6C16.9,8.3,14.1,7,11,7z
	"></path><path fill="#ffffff" transform="translate(2 2)" d="M11,4.5c3.7,0,7,1.5,9.4,3.9L22,6.7c-2.8-2.8-6.7-4.6-11-4.6S2.8,3.8,0,6.7l1.6,1.6C4,6,7.3,4.5,11,4.5z"></path><path fill="#ffffff" transform="translate(2 2)" d="M11,16.7c0.9,0,1.6,0.7,1.6,1.6s-0.7,1.6-1.6,1.6s-1.6-0.7-1.6-1.6S10.1,16.7,11,16.7z"></path></svg>