<svg xmlns="http://www.w3.org/2000/svg" viewBox="0 0 18 18" height="18" width="18"><title>wind-surfing-white-14.svg</title><rect fill="none" x="0" y="0" width="18" height="18"></rect><rect x="0" y="0" width="18" height="18" rx="4" ry="4" fill="#231f20"></rect><path fill="#ffffff" transform="translate(2 2)" d="M13,13h-1l-2-1H9l-2,1H6H5v-0.5L4,12H3l-2,1H0v1h1l2-1h1l2,1h1l2-1h1l2,1h1l1-0.5c0-0.2,0-0.3,0-0.5
	s0-0.3,0-0.5L13,13z M2,8H1v0.2l0.7,1.9c0.1,0.3,0.4,0.5,0.8,0.5H4l1,0.2l1.1,1.1c0.2,0.2,0.5,0.2,0.8,0c0.2-0.2,0.2-0.5,0-0.7
	L5.3,9.7C5.2,9.6,5.1,9.5,4.9,9.5H4L3,9L2.7,8H3h0.5c0,0,0.2-0.1,0.3-0.1L5,7.3V6.5l0,0H4.9L3.5,7H2V8z M8,10v0.3L8.3,11L13,8
	c-0.3-4.5-5.2-7.5-9-8L8,10L8,10z M1,5c0.6,0,1,0.4,1,1S1.6,7,1,7S0,6.6,0,6S0.4,5,1,5z"></path></svg>