<?xml version="1.0" encoding="utf-8"?>
<!-- Generator: Adobe Illustrator 27.9.1, SVG Export Plug-In . SVG Version: 6.00 Build 0)  -->
<svg version="1.1" id="Layer_1" xmlns="http://www.w3.org/2000/svg" xmlns:xlink="http://www.w3.org/1999/xlink" x="0px" y="0px"
	 viewBox="0 0 18 18" enable-background="new 0 0 18 18" xml:space="preserve">
<path fill="#231F20" d="M4,0h10c2.2,0,4,1.8,4,4v10c0,2.2-1.8,4-4,4H4c-2.2,0-4-1.8-4-4V4C0,1.8,1.8,0,4,0z"/>
<polygon fill="#FFFFFF" points="4.5,3.3 5.7,2 6.9,3.3 7.5,4.1 8.2,5 8.8,5.8 8.7,6 8.6,6.1 8.4,6.2 8.3,6.3 7.5,5.7 6.6,5 5.8,4.4 
	"/>
<polygon fill="#FFFFFF" points="5.7,11.1 4.4,9.8 5.8,8.7 6.6,8.1 7.4,7.4 8.3,6.7 8.4,6.9 8.5,7 8.7,7.1 8.8,7.3 8.1,8.1 7.5,8.9 
	6.8,9.8 "/>
<polygon fill="#FFFFFF" points="12.3,2 13.6,3.3 12.2,4.4 11.4,5 10.6,5.7 9.7,6.3 9.6,6.2 9.5,6.1 9.3,6 9.2,5.8 9.9,5 10.5,4.2 
	11.2,3.3 "/>
<polygon fill="#FFFFFF" points="13.5,9.8 12.3,11.1 11.1,9.8 10.5,8.9 9.8,8.1 9.2,7.3 9.3,7.1 9.4,7 9.6,6.9 9.7,6.7 10.5,7.4 
	11.4,8.1 12.2,8.7 "/>
<path fill="#FFFFFF" d="M10.8,10.5L9.6,9L9,8.2l0,0L8.4,9l-1.3,1.5l-0.3,1.6L6.1,16H9h2.8l-0.7-3.9L10.8,10.5z"/>
</svg>
