<svg xmlns="http://www.w3.org/2000/svg" viewBox="0 0 27 27" height="27" width="27"><title>wind-surfing-white-22.svg</title><rect fill="none" x="0" y="0" width="27" height="27"></rect><rect x="0" y="0" width="27" height="27" rx="4" ry="4" fill="#231f20"></rect><path fill="#ffffff" transform="translate(2 2)" d="M21,20l-2-1h-1l-2,1h-1l-2-1h-1l-2,1H9H8v-0.5L7,19H6l-2,1H3l-2-1v2l2,1h1l2-1h1l2,1h1l2-1h1l2,1h1l2-1h1
	l2,1h1v-2H21z M10.7,17.5l-2.5-2.4C8.1,15,7.9,15,7.7,15H5l-1-1v-1.6h1.4c0,0,0.3,0,0.4-0.1l2.3-1c0.2-0.1,0.3-0.3,0.3-0.5
	c0-0.4-0.3-0.7-0.6-0.7c-0.1,0-0.2,0-0.2,0l-2.1,1L3,11l-1,1H1.1C1,12.1,1,12.2,1,12.4c0,0.1,0,0.2,0,0.3l1.4,3.2
	c0.2,0.5,0.7,0.8,1.2,0.8h3.7l2.2,2.1c0.3,0.3,0.9,0.3,1.2,0C11.1,18.4,11.1,17.8,10.7,17.5z M7,0l7.1,18l7.9-4.9
	C21.5,5.7,13.4,0.8,7,0z M18,10c-1.5,0-6,0-6,0V9c0,0,4.5,0,6,0c1.8,0,3,2,3,2v1h-1C20,12,18.8,10,18,10z M1.5,8C2.3,8,3,8.7,3,9.5
	S2.3,11,1.5,11S0,10.3,0,9.5S0.7,8,1.5,8z"></path></svg>