<?xml version="1.0" encoding="utf-8"?>
<!-- Generator: Adobe Illustrator 27.9.1, SVG Export Plug-In . SVG Version: 6.00 Build 0)  -->
<svg version="1.1" id="Layer_1" xmlns="http://www.w3.org/2000/svg" xmlns:xlink="http://www.w3.org/1999/xlink" x="0px" y="0px"
	 viewBox="0 0 27 27" enable-background="new 0 0 27 27" xml:space="preserve">
<path fill="#231F20" d="M4,0h19c2.2,0,4,1.8,4,4v19c0,2.2-1.8,4-4,4H4c-2.2,0-4-1.8-4-4V4C0,1.8,1.8,0,4,0z"/>
<polygon fill="#FFFFFF" points="6.4,4.5 8.4,2.5 10.1,4.6 11.2,5.9 12.2,7.2 13.2,8.5 13,8.7 12.8,8.9 12.6,9.1 12.4,9.3 11.1,8.3 
	9.8,7.3 8.4,6.2 "/>
<polygon fill="#FFFFFF" points="8.3,16.8 6.3,14.8 8.4,13 9.7,12 11,11 12.4,10 12.6,10.2 12.8,10.4 13,10.6 13.2,10.8 12.1,12.1 
	11.1,13.4 10.1,14.7 "/>
<polygon fill="#FFFFFF" points="18.7,2.5 20.7,4.5 18.6,6.3 17.3,7.3 16,8.3 14.6,9.3 14.4,9.1 14.2,8.9 14,8.7 13.8,8.5 14.9,7.2 
	15.9,5.9 16.9,4.6 "/>
<polygon fill="#FFFFFF" points="20.6,14.8 18.6,16.8 16.9,14.7 15.8,13.4 14.8,12.1 13.8,10.8 14,10.6 14.2,10.4 14.4,10.2 14.6,10 
	15.9,11 17.2,12 18.6,13 "/>
<path fill="#FFFFFF" d="M16.3,15.8l-1.8-2.4l-1-1.3l0,0l-1,1.3l-1.9,2.5l-0.5,2.4L9,24.5h4.5H18l-1.1-6.1L16.3,15.8z"/>
</svg>
