<?xml version="1.0" encoding="utf-8"?>
<!-- Generator: Adobe Illustrator 25.4.1, SVG Export Plug-In . SVG Version: 6.00 Build 0)  -->
<svg version="1.1" id="Layer_1" xmlns="http://www.w3.org/2000/svg" xmlns:xlink="http://www.w3.org/1999/xlink" x="0px" y="0px"
	 width="18px" height="18px" viewBox="0 0 18 18" enable-background="new 0 0 18 18" xml:space="preserve">
<path fill="#231F20" d="M4,0h10c2.2,0,4,1.8,4,4v10c0,2.2-1.8,4-4,4H4c-2.2,0-4-1.8-4-4V4C0,1.8,1.8,0,4,0z"/>
<path fill="#FFFFFF" d="M15.6,16c-0.3,0-0.6-0.1-0.8-0.2c-0.3-0.1-0.6-0.5-0.9-0.5c-0.3,0-0.6,0.4-0.9,0.5c-0.2,0.1-0.5,0.2-0.8,0.2
	s-0.6-0.1-0.8-0.2c-0.3-0.1-0.6-0.5-0.9-0.5c-0.3,0-0.6,0.4-0.9,0.5C9.4,15.9,9.1,16,8.8,16S8.2,15.9,8,15.8
	c-0.3-0.1-0.6-0.5-0.9-0.5s-0.6,0.4-0.9,0.5C6,15.9,5.7,16,5.4,16s-0.6-0.1-0.8-0.2c-0.3-0.1-0.6-0.5-0.9-0.5s-0.6,0.4-0.9,0.5
	C2.6,15.9,2.3,16,2,16v-1.2c0.3,0,0.6-0.1,0.8-0.2c0.3-0.1,0.6-0.5,0.9-0.5s0.6,0.4,0.9,0.5s0.5,0.2,0.8,0.2c0.3,0,0.6-0.1,0.8-0.2
	c0.3-0.1,0.6-0.5,0.9-0.5s0.6,0.4,0.9,0.5s0.5,0.2,0.8,0.2s0.6-0.1,0.8-0.2c0.3-0.1,0.6-0.5,0.9-0.5s0.6,0.4,0.9,0.5
	c0.3,0.1,0.5,0.2,0.8,0.2s0.6-0.1,0.8-0.2c0.3-0.1,0.6-0.5,0.9-0.5c0.3,0,0.6,0.4,0.9,0.5c0.3,0.1,0.5,0.2,0.8,0.2
	C15.6,14.8,15.6,16,15.6,16z"/>
<path fill="#FFFFFF" d="M4,10H3v0.2l0.7,1.9c0.1,0.3,0.4,0.5,0.8,0.5H6l1,0.2l1.1,1.1c0.2,0.2,0.5,0.2,0.8,0c0.2-0.2,0.2-0.5,0-0.7
	l-1.6-1.5c-0.1-0.1-0.2-0.2-0.4-0.2H6L5,11l-0.3-1H5h0.5c0,0,0.2-0.1,0.3-0.1L7,9.3V8.5l0,0H6.9L5.5,9H4V10z"/>
<path fill="#FFFFFF" d="M10,12v0.3l0.3,0.7l4.7-3c-0.3-4.5-5.2-7.5-9-8L10,12L10,12z"/>
<path fill="#FFFFFF" d="M3,7c0.6,0,1,0.4,1,1S3.6,9,3,9S2,8.6,2,8S2.4,7,3,7z"/>
</svg>
