<svg xmlns="http://www.w3.org/2000/svg" viewBox="0 0 18 18" height="18" width="18"><title>wine-white-14.svg</title><rect fill="none" x="0" y="0" width="18" height="18"></rect><rect x="0" y="0" width="18" height="18" rx="4" ry="4" fill="#231f20"></rect><path fill="#ffffff" transform="translate(2 2)" d="M11.3,3.5c1,0.2,1.7,1.1,1.7,2.1v7.9c0,0.2-0.2,0.4-0.5,0.4H8.4C8.2,14,8,13.8,8,13.6V5.7
	c0-1,0.7-1.9,1.7-2.1V0.1h1.6V3.5z"></path><path fill="#ffffff" transform="translate(2 2)" d="M5.8,13.5L4,13v-3c3.4-1.1,1.5-5,1.1-6H1.9C1.5,5-0.3,8.9,3,10v3l-1.8,0.5c-0.1,0-0.2,0.1-0.2,0.3
	C1,13.9,1.1,14,1.2,14h4.5C5.9,14,6,13.9,6,13.8C6,13.7,5.9,13.5,5.8,13.5z"></path></svg>