<svg xmlns="http://www.w3.org/2000/svg" viewBox="0 0 27 27" height="27" width="27"><title>wine-white-22.svg</title><rect fill="none" x="0" y="0" width="27" height="27"></rect><rect x="0" y="0" width="27" height="27" rx="4" ry="4" fill="#231f20"></rect><path fill="#ffffff" transform="translate(2 2)" d="M18,5.6c1.5,0.4,3,1.7,3,3.3v12.4c0,0.4-0.6,0.7-1,0.7h-6.8c-0.4,0-1.3-0.3-1.3-0.7V8.9c0-1.6,1.5-3,3-3.3V0
	h3v5.6H18z"></path><path fill="#ffffff" transform="translate(2 2)" d="M9.4,21.3L6,20.9v-5c5.6-1.7,2.8-8,2.2-9.7H2.7c-0.6,1.7-3.3,8,2.3,9.7v5l-3.4,0.4c-0.2,0-0.3,0.2-0.3,0.4
	c0,0.2,0.2,0.3,0.4,0.3h7.6c0.2,0,0.4-0.1,0.4-0.3S9.6,21.3,9.4,21.3z"></path></svg>