<svg xmlns="http://www.w3.org/2000/svg" viewBox="0 0 18 18" height="18" width="18"><title>winter-recreation-area-white-14.svg</title><rect fill="none" x="0" y="0" width="18" height="18"></rect><rect x="0" y="0" width="18" height="18" rx="4" ry="4" fill="#231f20"></rect><path fill="#ffffff" transform="translate(2 2)" d="M6.4,13.6v-1.8l-1,0.6L4.8,12v-0.6l1.5-0.9V9.3l-1,0.7V8.7L4.2,9.3V11l-0.6,0.4l-0.5-0.3V10l-1.6,0.9
	l-0.7-0.3V9.8l1.7-0.9l-1-0.5V7.7l0.6-0.3l1.5,0.9l1.1-0.6l0,0L3.5,7l1-0.6l-1-0.6L2,6.7L1.4,6.4V5.7l1-0.6L0.8,4.2V3.5l0.6-0.3
	L3,4.1V2.9l0.5-0.3l0.6,0.3v1.8l1.1,0.6V4l1.1,0.6V3.5L4.8,2.6V2l0.5-0.3l1,0.6V0.4L7,0l0.6,0.4v1.8l1.1-0.6L9.2,2v0.6L7.6,3.5v1.2
	L8.7,4v1.3l1.1-0.6V2.8l0.5-0.3l0.6,0.3V4l1.7-0.9l0.6,0.4v0.7l-1.6,0.9l1,0.6v0.7L12,6.6l-1.6-0.9l-1,0.7l1,0.6l-1,0.7l1.1,0.6
	L12,7.4l0.5,0.4v0.6l-1,0.6l1.6,0.9v0.7l-0.7,0.3L10.9,10v1.2l-0.6,0.3l-0.5-0.3V9.4L8.7,8.8V10L7.6,9.3v1.2l1.5,0.9v0.7l-0.5,0.3
	l-1-0.6v1.8L7,14L6.4,13.6z M6,7l0.6,0.8h1L8,7L7.5,6.2h-1L6,7z"></path></svg>