<svg xmlns="http://www.w3.org/2000/svg" viewBox="0 0 27 27" height="27" width="27"><title>winter-recreation-area-white-22.svg</title><rect fill="none" x="0" y="0" width="27" height="27"></rect><rect x="0" y="0" width="27" height="27" rx="4" ry="4" fill="#231f20"></rect><path fill="#ffffff" transform="translate(2 2)" d="M10.1,21.4v-2.9l-1.6,0.9l-0.8-0.5v-1l2.4-1.4v-1.9l-1.7,1.1v-2l-1.7,1v2.7l-1,0.6l-0.8-0.5v-1.8l-2.5,1.4
	l-1.1-0.5v-1.2L4,14l-1.7-0.8v-1.1l0.9-0.5L5.6,13l1.7-1l0,0l-1.7-1l1.6-1L5.5,9l-2.4,1.4L2.3,10V9l1.6-0.9L1.3,6.7V5.5l1-0.5
	l2.5,1.5V4.6l0.8-0.5l0.9,0.5v2.8l1.7,1v-2l1.8,1V5.5L7.6,4.1v-1l0.8-0.5L10,3.5V0.6L11,0l0.9,0.6v2.9l1.7-0.9l0.8,0.6V4L12,5.5v1.9
	l1.7-1v2.1l1.8-1v-3l0.8-0.4l0.9,0.4v1.9L19.8,5l0.9,0.6v1.1l-2.6,1.5l1.6,0.9v1l-0.8,0.5L16.5,9l-1.7,1.1l1.6,1l-1.7,1l1.7,0.9
	l2.5-1.4l0.8,0.6v1L18.2,14l2.5,1.5v1.1l-1,0.5l-2.4-1.4v1.8l-1,0.5l-0.8-0.5v-2.8l-1.8-1v1.9l-1.7-1v1.9l2.4,1.4V19l-0.8,0.4
	L12,18.5v2.9L11,22L10.1,21.4z M9.4,11.1l0.9,1.3h1.6l0.7-1.3l-0.8-1.4h-1.6L9.4,11.1z"></path></svg>