<svg xmlns="http://www.w3.org/2000/svg" viewBox="0 0 27 27" height="27" width="27"><title>wood-gathering-white-22.svg</title><rect fill="none" x="0" y="0" width="27" height="27"></rect><rect x="0" y="0" width="27" height="27" rx="4" ry="4" fill="#231f20"></rect><path fill="#ffffff" transform="translate(2 2)" d="M8.5,3.6c-1,0-1.8-0.8-1.8-1.8S7.5,0,8.5,0s1.8,0.8,1.8,1.8S9.5,3.6,8.5,3.6z"></path><path fill="#ffffff" transform="translate(2 2)" d="M16.9,7c0,0-2.3,0-2.8,0c-0.3-0.3-2.1-1.9-2.5-2.4l-0.2-0.2C11,4.2,10.5,4,9.9,4H6.2C4.8,4,3.6,5.1,3.6,6.3
	v5.5c0,1.1,1.4,1.1,1.4,0V6.4h1V21c0,0.6,0.4,1,1,1s1-0.5,1-1v-8h1v8c0,0.6,0.5,1,1,1c0.6,0,1-0.5,1-1V6l2.3,2.2
	c0.1,0.1,0.3,0.2,0.5,0.2h3.1c0.4,0,0.7-0.3,0.7-0.7S17.3,7,16.9,7z"></path><path fill="#ffffff" transform="translate(2 2)" d="M5.4,9.4L1,13.9c-0.1,0.1-0.1,0.3,0,0.4c0.1,0.1,0.3,0.1,0.4,0l1-1v1.1l-1.2,1.2c-0.1,0.1-0.1,0.2,0,0.3
	s0.2,0.1,0.3,0L2.4,15v2.7c0,0.1,0.1,0.2,0.2,0.2c0.1,0,0.2-0.1,0.2-0.2v-1.4L3.5,17c0,0,0.1,0,0.2,0c0,0,0-0.1,0-0.2L2.9,16v-3.2
	l2.9-2.9L5.4,9.4z"></path><path fill="#ffffff" transform="translate(2 2)" d="M21,6.2c0.1-0.1,0.1-0.2,0-0.3c-0.1-0.1-0.2-0.1-0.3,0L19.6,7V5.9c0-0.1-0.1-0.1-0.1-0.1
	c-0.1,0-0.1,0.1-0.1,0.1v1.2l-2.7,2.7h-2.3c0,0,2.4-2.4,2.5-2.5C17,7.1,17,6.9,17,6.9V5.6L19,4h1.4c0.1,0,0.1-0.1,0.1-0.1
	c0-0.1-0.1-0.1-0.1-0.1H19l1.3-1c0.1-0.1,0.1-0.2,0-0.3s-0.2-0.1-0.3,0L18,4V1.8c0-0.1-0.1-0.2-0.2-0.2s-0.2,0.1-0.2,0.2v2.5l-1,0.8
	V3.6c0-0.1-0.1-0.2-0.2-0.2s-0.2,0.1-0.2,0.2v2.9l-4.7,4.7l0.6,0.6l1.4-1.4h5.8c0.2,0,0.3-0.1,0.3-0.3s-0.1-0.3-0.3-0.3h-2.1
	l1.1-1.1h1.9c0.1,0,0.2-0.1,0.2-0.2c0-0.1-0.1-0.2-0.2-0.2h-1.5L21,6.2z"></path></svg>