<svg xmlns="http://www.w3.org/2000/svg" viewBox="0 0 18 18" height="18" width="18"><title>wood-gathering-white-14.svg</title><rect fill="none" x="0" y="0" width="18" height="18"></rect><rect x="0" y="0" width="18" height="18" rx="4" ry="4" fill="#231f20"></rect><path fill="#ffffff" transform="translate(2 2)" d="M3.4,6L0.6,8.8c0,0.1,0,0.2,0,0.3c0.1,0.1,0.2,0.1,0.3,0l0.6-0.6v0.7L0.8,9.9c0,0,0,0.1,0,0.2
	c0,0,0.1,0,0.2,0l0.6-0.6v1.7c0,0.1,0,0.1,0.1,0.1s0.1,0,0.1-0.1v-0.9l0.4,0.4h0.1v-0.1l-0.5-0.5v-2l1.9-1.9L3.4,6z"></path><path fill="#ffffff" transform="translate(2 2)" d="M13.4,3.9c0-0.1,0-0.1,0-0.2c-0.1-0.1-0.1-0.1-0.2,0l-0.7,0.7V3.7c0-0.1,0-0.1-0.1-0.1s-0.1,0-0.1,0.1v0.8
	l-1.7,1.7H9.1c0,0,1.5-1.5,1.6-1.6s0.1-0.2,0.1-0.2V3.5l1.3-1H13c0.1,0,0.1,0,0.1-0.1c0,0,0-0.1-0.1-0.1h-0.8L13,1.6
	c0,0,0.1-0.1,0-0.2c0,0-0.1,0-0.2,0l-1.3,1V1.1c0-0.1,0-0.1-0.1-0.1s-0.1,0-0.1,0.1v1.6l-0.6,0.5V2.3c0-0.1-0.1-0.2-0.2-0.2
	c-0.1,0-0.2,0.1-0.2,0.2v1.9l-3,3l0.4,0.4l0.9-0.9h3.7c0.1,0,0.2-0.1,0.2-0.2s-0.1-0.2-0.2-0.2H11l0.7-0.7h1.2c0.1,0,0.1,0,0.1-0.1
	s-0.1-0.1-0.1-0.1h-1L13.4,3.9z"></path><path fill="#ffffff" transform="translate(2 2)" d="M5.5,0.3c0.7,0,1.2,0.5,1.2,1.2S6.2,2.7,5.5,2.7S4.3,2.2,4.3,1.5S4.8,0.3,5.5,0.3z"></path><path fill="#ffffff" transform="translate(2 2)" d="M2,4c0,0.6,0.4,1,1,1V3C2.4,3,2,3.4,2,4z"></path><path fill="#ffffff" transform="translate(2 2)" d="M3,3v1h1C4,3.4,3.6,3,3,3z"></path><path fill="#ffffff" transform="translate(2 2)" d="M11,5H9.2L7.6,3H7H6.5H4H3C2.4,3,2,3.4,2,4v3.5C2,7.8,2.2,8,2.5,8S3,7.8,3,7.5V5V4h1v4v5.5
	C4,13.8,4.2,14,4.5,14S5,13.8,5,13.5V8h1v5.5C6,13.8,6.2,14,6.5,14S7,13.8,7,13.5V8V3.8L8.8,6H11c0.3,0,0.5-0.2,0.5-0.5S11.3,5,11,5
	z"></path></svg>