<svg xmlns="http://www.w3.org/2000/svg" viewBox="0 0 18 18" height="18" width="18"><title>young-scientist-program-white-14.svg</title><rect fill="none" x="0" y="0" width="18" height="18"></rect><rect x="0" y="0" width="18" height="18" rx="4" ry="4" fill="#231f20"></rect><path fill="#ffffff" transform="translate(2 2)" d="M11.8,12c0.1-0.6,0.2-1.3,0.2-2c0-3.3-1.4-6.1-3.6-7.3l0.7-2.2L7.6,0H7.2L6.5,2L6,4L4.9,7.5l1.9,0.6l1-3.4
	c1.3,1,2.2,3,2.2,5.3H2v1h7.9c0,0.3-0.1,0.7-0.2,1H1v2h12v-2H11.8z"></path></svg>