<svg xmlns="http://www.w3.org/2000/svg" viewBox="0 0 27 27" height="27" width="27"><title>young-scientist-program-white-22.svg</title><rect fill="none" x="0" y="0" width="27" height="27"></rect><rect x="0" y="0" width="27" height="27" rx="4" ry="4" fill="#231f20"></rect><path fill="#ffffff" transform="translate(2 2)" d="M18.6,19c0.2-1,0.3-2.2,0.3-3.3c0-5.2-2.3-9.6-5.6-11.5l1-3.5L11.9,0h-0.6l-1,3.2L9.4,6.3l-1.7,5.5l3,1
	l1.6-5.5c1.9,1.5,3.2,4.3,3.4,7.7H3v2h12.5c-0.2,0.7-0.4,1.4-0.5,2H2v3h18v-3H18.6z"></path></svg>