<svg xmlns="http://www.w3.org/2000/svg" viewBox="0 0 27 27" height="27" width="27"><title>zebra-mussel-decontamination-station-white-22.svg</title><rect fill="none" x="0" y="0" width="27" height="27"></rect><rect x="0" y="0" width="27" height="27" rx="4" ry="4" fill="#231f20"></rect><path fill="#ffffff" transform="translate(2 2)" d="M19.1,21.7c-3.2,0-13.6-0.2-15.6-0.2c-1.5,0-2.1,0.1-2.8,0.1v-1.4L14.2,1.9H7.4c-3.1,0-3.6,0.9-4.3,3.8H1.6l0.7-5.6
		c4.3,0,11.1,0.2,14,0.2c1,0,2.4-0.1,3.3-0.1v1.4L6.1,19.9h7.8c3.1,0,4.1-2,4.9-4.4l1.4,0.2L19.1,21.7z"></path></svg>