<svg xmlns="http://www.w3.org/2000/svg" viewBox="0 0 18 18" height="18" width="18"><title>zebra-mussel-decontamination-station-white-14.svg</title><rect fill="none" x="0" y="0" width="18" height="18"></rect><rect x="0" y="0" width="18" height="18" rx="4" ry="4" fill="#231f20"></rect><path fill="#ffffff" transform="translate(2 2)" d="M12,13.6c-2,0-8.6-0.1-9.9-0.1c-0.9,0-1.3,0-1.8,0.1v-0.9L8.9,1.1H4.6c-2,0-2.3,0.6-2.7,2.4H1L1.4,0c2.7,0,7,0.1,8.9,0.1
		c0.6,0,1.5,0,2.1-0.1v0.9L3.8,12.5h4.9c2,0,2.6-1.3,3.1-2.8l0.9,0.1L12,13.6z"></path></svg>