<?xml version="1.0" encoding="utf-8"?>
<!-- Generator: Adobe Illustrator 18.1.1, SVG Export Plug-In . SVG Version: 6.00 Build 0)  -->
<svg version="1.1" id="Layer_1" xmlns="http://www.w3.org/2000/svg" xmlns:xlink="http://www.w3.org/1999/xlink" x="0px" y="0px"
	 width="20px" height="20px" viewBox="0 0 20 20" enable-background="new 0 0 20 20" xml:space="preserve">
<g>
	<path fill="#FFFFFF" d="M14.8,0.7c-1.9,0-3.6,1-4.5,2.5C9.3,1.6,7.4,0.6,5.4,0.6C2.4,0.6,0,3,0,6l0,0c0,2.2,1,4.9,3.8,8.1
		c2,2.3,4.2,4.1,6.3,5.4c2.1-1.3,4.3-3.1,6.3-5.4C19,10.9,20,8.3,20,6.1C20,3.1,17.7,0.7,14.8,0.7z M6.4,15.3l2.7-5.6h-4l8.7-7.2
		l-2.7,5.4h4L6.4,15.3z"/>
</g>
</svg>
