<?xml version="1.0" encoding="utf-8"?>
<!-- Generator: Adobe Illustrator 18.1.1, SVG Export Plug-In . SVG Version: 6.00 Build 0)  -->
<svg version="1.1" id="Icons" xmlns="http://www.w3.org/2000/svg" xmlns:xlink="http://www.w3.org/1999/xlink" x="0px" y="0px"
	 width="20px" height="20px" viewBox="0 0 20 20" enable-background="new 0 0 20 20" xml:space="preserve">
<g>
	<g>
		<polygon fill="#FFFFFF" points="8.2,1.8 9.1,0 10,0 10.9,1.8 10.9,7.3 20,12.7 20,14.5 19.1,14.5 11.8,11.8 10.9,11.8 10.9,17.3 
			11.8,17.3 11.8,18.2 12.7,19.1 12.7,20 11.8,20 10,19.1 9.1,19.1 7.3,20 6.4,20 6.4,19.1 7.3,18.2 7.3,17.3 8.2,17.3 8.2,11.8 
			7.3,11.8 0.9,14.5 0,14.5 0,12.7 8.2,7.3 		"/>
	</g>
</g>
</svg>
