<?xml version="1.0" encoding="utf-8"?>
<!-- Generator: Adobe Illustrator 18.1.1, SVG Export Plug-In . SVG Version: 6.00 Build 0)  -->
<svg version="1.1" id="Layer_1" xmlns="http://www.w3.org/2000/svg" xmlns:xlink="http://www.w3.org/1999/xlink" x="0px" y="0px"
	 width="20px" height="20px" viewBox="0 0 20 20" enable-background="new 0 0 20 20" xml:space="preserve">
<g>
	<g>
		<path fill="#FFFFFF" d="M15.8,6.4V3.9h-0.2c-0.7,0-1.2,0.6-1.2,1.2s0.6,1.2,1.2,1.2L15.8,6.4L15.8,6.4z"/>
		<path fill="#FFFFFF" d="M13.9,5.9l-1.1-2.2c-0.2-0.4-0.7-0.7-1.3-0.7H9.1c-0.2,0-0.4,0.2-0.4,0.4c0,0.2,0.2,0.4,0.4,0.4l2.5,0
			c0.2,0,0.4,0.1,0.5,0.3l0.7,1.4L13.9,5.9z"/>
		<path fill="#FFFFFF" d="M18.9,8.2c0.3,0.1,0.6,0.4,0.6,0.8l-1.8,0c-2.4,0-4.4,2-4.4,4.4h-6c0-1.9-1.3-3.6-3-4.2L1,8.1l0.5-0.8
			c0.2-0.3,0.5-0.5,0.9-0.5c0.1,0,0.2,0,0.2,0l7.3,2.3c0.1,0,0.2,0,0.3,0c0.3,0,0.6-0.2,0.8-0.4l1.7-2.4L18.9,8.2z"/>
		<path fill="#FFFFFF" d="M14,14.1c0-1.7,1.3-3,3-3c1.6,0,3,1.3,3,3c0,1.6-1.3,3-3,3S14,15.7,14,14.1z M17,15.2
			c0.6,0,1.1-0.5,1.1-1.1c0-0.6-0.5-1.1-1.1-1.1c-0.6,0-1.1,0.5-1.1,1.1C15.9,14.7,16.4,15.2,17,15.2z"/>
		<path fill="#FFFFFF" d="M0,13.8c0-1.8,1.5-3.3,3.3-3.3c1.8,0,3.3,1.5,3.3,3.3c0,1.8-1.5,3.3-3.3,3.3C1.5,17,0,15.6,0,13.8z
			 M3.3,15c0.7,0,1.2-0.5,1.2-1.2c0-0.7-0.5-1.2-1.2-1.2c-0.7,0-1.2,0.5-1.2,1.2C2.1,14.4,2.6,15,3.3,15z"/>
	</g>
</g>
</svg>
