<?xml version="1.0" encoding="utf-8"?>
<!-- Generator: Adobe Illustrator 18.1.1, SVG Export Plug-In . SVG Version: 6.00 Build 0)  -->
<svg version="1.1" id="Icons" xmlns="http://www.w3.org/2000/svg" xmlns:xlink="http://www.w3.org/1999/xlink" x="0px" y="0px"
	 width="20px" height="20px" viewBox="0 0 20 20" enable-background="new 0 0 20 20" xml:space="preserve">
<g>
	<path fill="#FFFFFF" d="M10.5,2.8H9.7c-0.6,0-1-0.5-1-1V1c0-0.6,0.5-1,1-1h0.7c0.6,0,1,0.5,1,1v0.7C11.5,2.3,11,2.8,10.5,2.8z"/>
	<polygon fill="#FFFFFF" points="8.7,9.3 11.5,9.3 11.5,5.6 12.4,5.6 12.4,8.4 13.3,8.4 13.3,4.7 11.5,3.7 8.7,3.7 6.8,4.7 6.8,8.4 
		7.8,8.4 7.8,5.6 8.7,5.6 	"/>
	<path fill="#FFFFFF" d="M0.4,17.2C3.3,19.1,6.6,20,10,20c3.5,0,6.8-1,9.7-2.9l-1-1.6c-2.6,1.7-5.6,2.6-8.7,2.6s-6-0.9-8.7-2.5
		L0.4,17.2z"/>
	<line fill="none" stroke="#000000" stroke-width="0.25" stroke-miterlimit="10" x1="0.3" y1="17.2" x2="0.3" y2="17.2"/>
	<path fill="#FFFFFF" d="M17.7,14c-2.3,1.5-4.9,2.3-7.7,2.3s-5.3-0.8-7.6-2.2l0.9-1.6c2,1.3,4.3,2,6.7,2s4.7-0.7,6.7-2L17.7,14z"/>
	<path fill="#FFFFFF" d="M15.8,11C14,12.1,12,12.7,10,12.7S6,12.1,4.3,11l0.9-1.6c1.5,0.9,3.1,1.5,4.7,1.5s3.3-0.5,4.7-1.4L15.8,11z
		"/>
	
		<line opacity="0.2" fill="none" stroke="#000000" stroke-width="0.25" stroke-miterlimit="10" enable-background="new    " x1="1.3" y1="18.1" x2="1.3" y2="18.1"/>
</g>
</svg>
