<?xml version="1.0" encoding="utf-8"?>
<!-- Generator: Adobe Illustrator 18.1.1, SVG Export Plug-In . SVG Version: 6.00 Build 0)  -->
<svg version="1.1" id="Layer_1" xmlns:sketch="http://www.bohemiancoding.com/sketch/ns"
	 xmlns="http://www.w3.org/2000/svg" xmlns:xlink="http://www.w3.org/1999/xlink" x="0px" y="0px" width="20px" height="20px"
	 viewBox="-87 89 20 20" enable-background="new -87 89 20 20" xml:space="preserve">
<g>
	<g id="symbol" transform="translate(5.000000, 2.000000)" sketch:type="MSLayerGroup">
		<path id="S_2_" sketch:type="MSShapeGroup" fill="#FFFFFF" d="M-85.6,99.5c0,0.6,0.1,1.1,0.3,1.5c0.2,0.4,0.5,0.8,0.8,1
			s0.8,0.5,1.2,0.6c0.5,0.1,1,0.2,1.5,0.2c0.6,0,1.1-0.1,1.5-0.2c0.4-0.1,0.7-0.3,1-0.5c0.3-0.2,0.4-0.5,0.6-0.7s0.2-0.6,0.2-0.8
			c0-0.6-0.1-1-0.4-1.3s-0.6-0.5-0.9-0.6c-0.5-0.2-1.2-0.4-1.9-0.6s-1.6-0.4-2.7-0.7c-0.7-0.2-1.2-0.4-1.6-0.7
			c-0.4-0.3-0.8-0.6-1-0.9s-0.4-0.7-0.5-1.1c-0.1-0.4-0.2-0.8-0.2-1.2c0-0.8,0.2-1.4,0.5-2c0.3-0.6,0.7-1,1.3-1.4
			c0.5-0.4,1.1-0.6,1.8-0.8c0.7-0.2,1.3-0.3,2-0.3c0.8,0,1.6,0.1,2.3,0.3c0.7,0.2,1.3,0.5,1.9,0.9c0.5,0.4,1,0.9,1.3,1.5
			s0.5,1.3,0.5,2.1h-2.7c-0.1-1-0.4-1.7-1-2.1c-0.6-0.4-1.4-0.6-2.3-0.6c-0.3,0-0.6,0-1,0.1s-0.6,0.2-0.9,0.3
			c-0.3,0.1-0.5,0.4-0.7,0.6s-0.3,0.6-0.3,1c0,0.5,0.2,1,0.5,1.3c0.3,0.3,0.8,0.5,1.3,0.7c0.1,0,0.3,0.1,0.7,0.2
			c0.4,0.1,0.8,0.2,1.3,0.4c0.5,0.1,1,0.3,1.4,0.4c0.5,0.1,0.8,0.2,1,0.3c0.5,0.2,0.9,0.4,1.3,0.6c0.4,0.3,0.7,0.6,0.9,0.9
			c0.2,0.3,0.4,0.7,0.6,1.1c0.1,0.4,0.2,0.8,0.2,1.2c0,0.9-0.2,1.6-0.5,2.2c-0.3,0.6-0.8,1.1-1.4,1.5c-0.6,0.4-1.2,0.7-1.9,0.8
			c-0.7,0.2-1.5,0.3-2.2,0.3c-0.9,0-1.7-0.1-2.5-0.3s-1.4-0.5-2-1c-0.6-0.4-1-1-1.4-1.7s-0.5-1.5-0.5-2.4H-85.6z"/>
		<rect id="Rectangle-4_2_" x="-82.6" y="87" sketch:type="MSShapeGroup" fill="#FFFFFF" width="2" height="20">
		</rect>
	</g>
	<desc>Created with Sketch.</desc>
	<title>atm-white-24</title>
</g>
</svg>
