<?xml version="1.0" encoding="utf-8"?>
<!-- Generator: Adobe Illustrator 18.1.1, SVG Export Plug-In . SVG Version: 6.00 Build 0)  -->
<svg version="1.1" id="Layer_1" xmlns="http://www.w3.org/2000/svg" xmlns:xlink="http://www.w3.org/1999/xlink" x="0px" y="0px"
	 width="20px" height="20px" viewBox="0 0 20 20" enable-background="new 0 0 20 20" xml:space="preserve">
<g>
	<g>
		<path fill="#FFFFFF" d="M15.7,6.6C16.6,5.5,18.8,5,20,6c-3-4.2-6.7-6.9-12-5.1C12.1,2.1,15,6,15.7,6.6"/>
		<path fill="#FFFFFF" d="M0,11.7c1.3-1.5,3.5-2.5,5.5-2.4c0-2,0.2-5.6,1.5-8.1C2.7,1.7,0.7,8.3,0,11.7z"/>
		<path fill="#FFFFFF" d="M14.9,19.4l-4.8-13c1.4-0.5,2.9-0.4,4.4,0.2c-2.3-2.4-3.8-3.7-6.6-4.8c-1,0.4-1.3,6.3-1.2,7.5
			c0.6-1.2,1.6-2,2.6-2.6L14,19.7L14.9,19.4z"/>
	</g>
</g>
</svg>
