<?xml version="1.0" encoding="utf-8"?>
<!-- Generator: Adobe Illustrator 18.1.1, SVG Export Plug-In . SVG Version: 6.00 Build 0)  -->
<svg version="1.1" id="Icons" xmlns="http://www.w3.org/2000/svg" xmlns:xlink="http://www.w3.org/1999/xlink" x="0px" y="0px"
	 width="20px" height="20px" viewBox="0 0 20 20" enable-background="new 0 0 20 20" xml:space="preserve">
<g>
	<g>
		<path fill="#FFFFFF" d="M3.9,17.8c1.7,0,3-1.4,3-3s-1.4-3-3-3s-3,1.4-3,3S2.3,17.8,3.9,17.8z M0,14.8c0-2.2,1.7-3.9,3.9-3.9
			s3.9,1.7,3.9,3.9s-1.7,3.9-3.9,3.9S0,17,0,14.8z"/>
		<path fill="#FFFFFF" d="M16.1,17.8c1.7,0,3-1.4,3-3s-1.4-3-3-3s-3,1.4-3,3S14.4,17.8,16.1,17.8z M12.2,14.8c0-2.2,1.7-3.9,3.9-3.9
			s3.9,1.7,3.9,3.9s-1.7,3.9-3.9,3.9S12.2,17,12.2,14.8z"/>
		<path fill="#FFFFFF" d="M12.3,9c-0.2,0-0.4-0.1-0.6-0.3l-1-1.5L8.9,9l1.8,1c0.8,0.3,0.6,1,0.6,1v4.1c0,0.4-0.3,0.9-0.9,0.9
			c-0.5,0-0.9-0.3-0.9-0.9v-3.3l-3.1-1.7C6.1,9.8,5.8,9.5,5.8,9c0-0.3,0.1-0.6,0.3-0.8l3-3c0.3-0.5,1-0.4,1-0.4c0.6,0,1,0.5,1,0.5
			l1.6,2.5h2.4C16,7.8,16,9,15.1,9H12.3L12.3,9z"/>
		<polygon fill="#FFFFFF" points="12.2,1.3 13.9,1.3 13.9,2.2 14.8,2.2 14.8,3.9 13.9,3.9 13.9,4.8 12.2,4.8 12.2,3.9 11.3,3.9 
			11.3,2.2 12.2,2.2 		"/>
	</g>
</g>
</svg>
