<?xml version="1.0" encoding="utf-8"?>
<!-- Generator: Adobe Illustrator 18.1.1, SVG Export Plug-In . SVG Version: 6.00 Build 0)  -->
<svg version="1.1" id="Icons" xmlns="http://www.w3.org/2000/svg" xmlns:xlink="http://www.w3.org/1999/xlink" x="0px" y="0px"
	 width="20px" height="20px" viewBox="0 0 20 20" enable-background="new 0 0 20 20" xml:space="preserve">
<g>
	<g>
		<path fill="#FFFFFF" d="M3.1,2.7l4,1.1l2-2.5H10L8.2,4.1L20,7.4l-0.9,3.1L6.9,7.3C2.3,5.8,3.1,2.7,3.1,2.7"/>
		<polygon fill="#FFFFFF" points="0,11.4 0,18.6 2.7,17.7 6.4,18.6 10,17.7 13.6,18.6 17.3,17.7 20,18.6 20,16.8 		"/>
		<polygon fill="#FFFFFF" points="0,6.8 0,7.7 8.2,10.5 8.2,9.5 		"/>
		<polygon fill="#FFFFFF" points="13.6,11.4 13.6,12.3 20,14.1 20,13.2 		"/>
		<path fill="#FFFFFF" d="M10.9,9.5c-1,0-1.8,0.8-1.8,1.8s0.8,1.8,1.8,1.8s1.8-0.8,1.8-1.8S11.9,9.5,10.9,9.5z M11.8,11.9
			c0,0.2-0.2,0.4-0.4,0.4h-1c-0.2,0-0.4-0.2-0.4-0.4v-1c0-0.2,0.2-0.4,0.4-0.4h1c0.2,0,0.4,0.2,0.4,0.4V11.9z"/>
	</g>
</g>
</svg>
