<?xml version="1.0" encoding="utf-8"?>
<!-- Generator: Adobe Illustrator 18.1.1, SVG Export Plug-In . SVG Version: 6.00 Build 0)  -->
<svg version="1.1" id="Icons" xmlns="http://www.w3.org/2000/svg" xmlns:xlink="http://www.w3.org/1999/xlink" x="0px" y="0px"
	 width="20px" height="20px" viewBox="0 0 20 20" enable-background="new 0 0 20 20" xml:space="preserve">
<g>
	<g>
		<path fill="#FFFFFF" d="M13.5,2.3H0v6.4h17.3V7.7L15,3.2C14.7,2.6,14.2,2.3,13.5,2.3z M3.6,7.7H0.9V5l0.9-0.9h0.9L3.6,5V7.7z
			 M7.3,7.7H4.5V5l0.9-0.9h0.9L7.3,5V7.7z M10.9,7.7H8.2V5l0.9-0.9H10L10.9,5V7.7z M12.7,7.7V4.1h0.9h0.9l1.8,3.6H12.7z"/>
		<polygon fill="#FFFFFF" points="2.7,14.1 3.6,14.1 5.5,13.2 6.4,13.2 8.2,14.1 9.1,14.1 10.9,13.2 11.8,13.2 13.6,14.1 14.5,14.1 
			16.4,13.2 17.1,13.2 20,9.5 0,9.5 0,13.2 0.9,13.2 		"/>
		<polygon fill="#FFFFFF" points="0,15 0.9,15 2.7,15.9 3.6,15.9 5.5,15 6.4,15 8.2,15.9 9.1,15.9 10.9,15 11.8,15 13.6,15.9 
			14.5,15.9 16.4,15 17.3,15 19.1,15.9 20,15.9 20,17.7 19.1,17.7 17.3,16.8 16.4,16.8 14.5,17.7 13.6,17.7 11.8,16.8 10.9,16.8 
			9.1,17.7 8.2,17.7 6.4,16.8 5.5,16.8 3.6,17.7 2.7,17.7 0.9,16.8 0,16.8 		"/>
	</g>
</g>
</svg>
