<?xml version="1.0" encoding="utf-8"?>
<!-- Generator: Adobe Illustrator 18.1.1, SVG Export Plug-In . SVG Version: 6.00 Build 0)  -->
<svg version="1.1" id="Layer_1" xmlns:sketch="http://www.bohemiancoding.com/sketch/ns"
	 xmlns="http://www.w3.org/2000/svg" xmlns:xlink="http://www.w3.org/1999/xlink" x="0px" y="0px" width="20px" height="20px"
	 viewBox="-87 89 20 20" enable-background="new -87 89 20 20" xml:space="preserve">
<g>
	<g id="bookstore" sketch:type="MSPage">
		<g id="bookstore-white-24" sketch:type="MSArtboardGroup">
			<g id="symbol" transform="translate(5.000000, 0.000000)" sketch:type="MSLayerGroup">
				<path id="Shape_6_" sketch:type="MSShapeGroup" fill="#FFFFFF" d="M-76.9,107.8c-0.5,0-0.8-0.3-0.8-0.8c0-0.5,0.3-0.8,0.8-0.8
					c0.3,0,0.5-0.2,0.5-0.5s-0.2-0.5-0.5-0.5c-1,0-1.7,0.8-1.7,1.7c0,1,0.7,1.7,1.7,1.7c0.3,0,0.5-0.2,0.5-0.5
					S-76.6,107.8-76.9,107.8L-76.9,107.8z"/>
				<path id="Shape_7_" sketch:type="MSShapeGroup" fill="#FFFFFF" d="M-87.6,105.3C-87.6,105.3-87.6,105.3-87.6,105.3
					c0,2.8,0.4,3.7,2.5,3.7l8.2,0c0.3,0,0.5-0.2,0.5-0.5s-0.2-0.5-0.5-0.5l-8.2,0c-1.4,0-1.6-0.4-1.6-2.7c0,0,0,0,0-0.1
					c0-0.3-0.2-0.5-0.5-0.5C-87.4,104.8-87.6,105-87.6,105.3L-87.6,105.3z"/>
				<path id="Shape_8_" sketch:type="MSShapeGroup" fill="#FFFFFF" d="M-87.6,96c0-0.5,4.6-4.6,4.6-4.6h4.9h0.6
					c0.5,0,0.9,0.4,0.9,0.9v13c0,0.5-0.4,0.9-0.9,0.9h-9.3c-0.5,0-0.9-0.4-0.9-0.9V96z M-83.9,92.3l-2.8,13c0,0,9.3,0,9.3,0
					c0,0,0-13,0-13C-77.4,92.3-83.9,92.3-83.9,92.3z"/>
				<path id="Rectangle-4_2_" sketch:type="MSShapeGroup" fill="#FFFFFF" d="M-87.6,95c0-0.5,0.3-1.2,0.8-1.5l5.9-4.3
					c0.4-0.3,0.8-0.1,0.8,0.4v9.7c0,0.5-0.3,1.2-0.7,1.5l-6,4.9c-0.4,0.3-0.7,0.2-0.7-0.3V95z"/>
			</g>
		</g>
	</g>
	<desc>Created with Sketch.</desc>
	<title>bookstore-white-24</title>
</g>
</svg>
