<?xml version="1.0" encoding="utf-8"?>
<!-- Generator: Adobe Illustrator 18.1.1, SVG Export Plug-In . SVG Version: 6.00 Build 0)  -->
<svg version="1.1" id="Icons" xmlns="http://www.w3.org/2000/svg" xmlns:xlink="http://www.w3.org/1999/xlink" x="0px" y="0px"
	 width="20px" height="20px" viewBox="0 0 20 20" enable-background="new 0 0 20 20" xml:space="preserve">
<g>
	<g>
		<path fill="#FFFFFF" d="M12.7,0H7.3c0,0-5.5,0.1-5.5,7.3c0,2.4,0,10,0,10h1.8V20h1.8v-2.7h9.1V20h1.8v-2.7h1.8c0,0,0-2.9,0-10
			C18.2,0.1,12.7,0,12.7,0z M6.4,1.8h7.3v0.9H6.4V1.8z M5.5,14.5H3.6v-1.8h1.8V14.5z M16.4,14.5h-1.8v-1.8h1.8V14.5z M16.4,10H3.6
			V4.7c0-0.6,0.5-1.1,1.1-1.1h10.7c0.5,0,0.9,0.4,0.9,0.9V10z"/>
	</g>
</g>
</svg>
