<?xml version="1.0" encoding="utf-8"?>
<!-- Generator: Adobe Illustrator 18.1.1, SVG Export Plug-In . SVG Version: 6.00 Build 0)  -->
<svg version="1.1" id="Icons" xmlns="http://www.w3.org/2000/svg" xmlns:xlink="http://www.w3.org/1999/xlink" x="0px" y="0px"
	 width="20px" height="20px" viewBox="0 0 20 20" enable-background="new 0 0 20 20" xml:space="preserve">
<g>
	<g>
		<path fill="#FFFFFF" d="M7.3,10C6.9,9.6,4.7,6.8,6.9,4.8C9,3,9.3,0.7,8.6,0c0,0,4,2.6,1.8,7.3c-0.7,0.8-1.6,1.8-1,3.6L7.3,10z"/>
		<path fill="#FFFFFF" d="M11.4,10.9c0-0.8-0.8-0.2,0.5-2.8c1.1-1,0.7-1.6,0.5-2.6c0,0,3.3,1.3,0.7,4.8L11.4,10.9z"/>
		<polygon fill="#FFFFFF" points="0.5,14.5 2.3,14.5 2.3,18.2 17.7,18.2 17.7,14.5 19.5,14.5 19.5,18.2 17.7,20 2.3,20 0.5,18.2 		
			"/>
		<polygon fill="#FFFFFF" points="4.1,10.9 15.9,15.5 15.9,17.3 4.1,12.7 		"/>
		<polygon fill="#FFFFFF" points="4.1,15.5 4.1,17.3 7.6,15.9 5.3,15 		"/>
		<polygon fill="#FFFFFF" points="15.9,10.9 12.4,12.3 14.7,13.2 15.9,12.7 		"/>
	</g>
</g>
</svg>
