<?xml version="1.0" encoding="utf-8"?>
<!-- Generator: Adobe Illustrator 18.1.1, SVG Export Plug-In . SVG Version: 6.00 Build 0)  -->
<svg version="1.1" id="Icons" xmlns="http://www.w3.org/2000/svg" xmlns:xlink="http://www.w3.org/1999/xlink" x="0px" y="0px"
	 width="20px" height="20px" viewBox="0 0 20 20" enable-background="new 0 0 20 20" xml:space="preserve">
<g>
	<g>
		<path fill="#FFFFFF" d="M2.7,15l1.8,0.9h0.9L7.3,15h0.9l1.8,0.9h0.9l1.8-0.9h0.9l1.8,0.9h0.9l1.8-0.9h0.2c0.1-0.1,0.1-0.2,0.2-0.1
			c0.5-0.6,0.9-1.4,0.9-2.3c0-1.9-1.5-3.4-3.4-3.4h-0.4C15.3,11,13.6,11,13.6,11H5.9l-0.6-0.4L6.8,8l1.7,1c1,0.6,1.5-0.3,1.5-0.3
			L11.8,6c0.7-1.3-0.9-2.2-1.6-1L9,6.9L6.2,5.4c-2-1.1-2.8,0.7-2.8,0.7L1.1,9.9c-0.4,0.8,0,1.1,0,1.1H0v4.9L1.8,15H2.7z"/>
		<polygon fill="#FFFFFF" points="19.1,16.8 18.2,16.8 16.4,17.7 15.5,17.7 13.6,16.8 12.7,16.8 10.9,17.7 10,17.7 8.2,16.8 
			7.3,16.8 5.5,17.7 4.5,17.7 2.7,16.8 1.8,16.8 0,17.7 0,19.5 1.8,18.6 2.7,18.6 4.5,19.5 5.5,19.5 7.3,18.6 8.2,18.6 10,19.5 
			10.9,19.5 12.7,18.6 13.6,18.6 15.5,19.5 16.4,19.5 18.2,18.6 19.1,18.6 20,19.1 20,17.3 		"/>
		<circle fill="#FFFFFF" cx="7.3" cy="2.3" r="1.8"/>
	</g>
</g>
</svg>
