<?xml version="1.0" encoding="utf-8"?>
<!-- Generator: Adobe Illustrator 18.1.1, SVG Export Plug-In . SVG Version: 6.00 Build 0)  -->
<svg version="1.1" id="Layer_1" xmlns:sketch="http://www.bohemiancoding.com/sketch/ns"
	 xmlns="http://www.w3.org/2000/svg" xmlns:xlink="http://www.w3.org/1999/xlink" x="0px" y="0px" width="20px" height="20px"
	 viewBox="-87 89 20 20" enable-background="new -87 89 20 20" xml:space="preserve">
<g>
	<path id="symbol-copy-2" sketch:type="MSShapeGroup" fill="#FFFFFF" d="M-74.2,92.4c-0.1,0.9-0.8,1.7-1.8,1.7c-1,0-1.8-0.8-1.8-1.8
		s0.8-1.8,1.8-1.8c0.7,0,1.3,0.4,1.6,1h-1.2v1H-74.2L-74.2,92.4z M-78.9,93.6c0.2-0.1,0.2-0.4,0.1-0.6l-0.8-1
		c-0.1-0.2-0.4-0.2-0.6-0.1l-3.4,2.8c-0.2,0.1-0.2,0.4-0.1,0.6l0.8,1c0.1,0.2,0.4,0.2,0.6,0.1L-78.9,93.6z M-82.3,97.6
		c-0.2,0.1-0.4,0.3-0.5,0.6c-0.1,0.2-0.2,0.4-0.2,0.7l-1,4.2l-2.7,2.6c-0.1,0.1-0.1,0.1-0.2,0.2c-0.3,0.5-0.1,1.1,0.4,1.4
		c0.4,0.2,0.9,0.2,1.2-0.1l3-2.9c0-0.1,0.1-0.1,0.1-0.2c0-0.1,0.1-0.2,0.1-0.2l0.6-2.7l2,2l0,3.4c0,0.4,0.2,0.7,0.5,0.9
		c0.5,0.3,1.1,0.1,1.4-0.4c0.1-0.2,0.1-0.4,0.1-0.6l0-3.7c0-0.3-0.1-0.5-0.3-0.7l-2.2-2.1l2.5-2l0.6,1.6c0,0.1,0.1,0.2,0.2,0.3
		l2.4,1.8c0.3,0.2,0.7,0.1,1-0.1c0.3-0.3,0.3-0.8,0-1.1c0,0,0,0,0,0l-2.1-1.6l-1-2.8c-0.2-0.4-0.4-0.7-0.8-0.9
		c-0.6-0.4-1.4-0.3-2,0.1L-82.3,97.6z M-72.7,91.5h5.7v1.9l-1,1.9l-1.9,1.9l-2.9-4.8V91.5z"/>
	<desc>Created with Sketch.</desc>
	<title>cave-white-24</title>
</g>
</svg>
