<?xml version="1.0" encoding="utf-8"?>
<!-- Generator: Adobe Illustrator 18.1.1, SVG Export Plug-In . SVG Version: 6.00 Build 0)  -->
<svg version="1.1" id="Icons" xmlns="http://www.w3.org/2000/svg" xmlns:xlink="http://www.w3.org/1999/xlink" x="0px" y="0px"
	 width="20px" height="20px" viewBox="0 0 20 20" enable-background="new 0 0 20 20" xml:space="preserve">
<g>
	<g>
		<path fill="#FFFFFF" d="M10,5.9L7.9,8.4C7.8,8.5,7.6,8.6,7.4,8.6C7,8.6,6.7,8.3,6.7,8c0-0.2,0.1-0.4,0.2-0.5l2.2-2.6
			c0.2-0.2,0.3-0.2,0.6-0.2l3-0.2c0.2,0,0.6,1.2,0.8,0.8l2.1,1.7l1.8-1.7C17.6,5.1,17.7,5,17.9,5c0.4,0,0.7,0.3,0.7,0.7
			c0,0.2-0.1,0.3-0.2,0.5l-2.1,2.1c-0.7,0.6-1.2,0.1-1.2,0.1l-1.3-1.3l-2,2.3l1.8,1.8c0,0,0.4,0.3,0.2,1l-1,4.6
			c-0.1,0.4-0.5,0.3-0.9,0.3c-0.5,0-0.9,0-0.9-0.5c0-0.1,0-0.2,0-0.2l0.9-3.8l-2.1-2l-1.8,2c0,0-0.3,0.3-1,0.3H3.5
			c-0.4,0-1-0.2-1-0.6c-0.1-0.5,0.4-1,0.8-1.1c0.1,0,0.2,0,0.2,0h3.1l4.6-5.4H10z"/>
		<rect x="0.8" y="7.6" fill="#FFFFFF" width="4.8" height="0.8"/>
		<polygon fill="#FFFFFF" points="4,18 4,18.8 18.4,18.8 19.2,18 19.2,17.2 18.4,17.2 18.4,18 		"/>
		<polygon fill="#FFFFFF" points="14.4,17.2 15.2,17.2 20,6.8 19.2,6.8 		"/>
		<polygon fill="#FFFFFF" points="0,12.4 0.8,12.4 4.8,16.4 5.6,16.4 5.6,17.2 4.8,17.2 		"/>
		<polygon fill="#FFFFFF" points="13.6,1.2 15.2,1.2 15.2,2 16,2 16,3.6 15.2,3.6 15.2,4.4 13.6,4.4 13.6,3.6 12.8,3.6 12.8,2 
			13.6,2 		"/>
	</g>
</g>
</svg>
