<?xml version="1.0" encoding="utf-8"?>
<!-- Generator: Adobe Illustrator 18.1.1, SVG Export Plug-In . SVG Version: 6.00 Build 0)  -->
<svg version="1.1" id="Layer_1" xmlns:sketch="http://www.bohemiancoding.com/sketch/ns"
	 xmlns="http://www.w3.org/2000/svg" xmlns:xlink="http://www.w3.org/1999/xlink" x="0px" y="0px" width="20px" height="20px"
	 viewBox="-87 89 20 20" enable-background="new -87 89 20 20" xml:space="preserve">
<g>
	<path id="symbol-copy-2" sketch:type="MSShapeGroup" fill="#FFFFFF" d="M-67,103.5c-0.4,0.1-0.9,0.1-1.2-0.1
		c-0.6-0.4-0.9-0.4-1.1-0.2c-0.6,0.6-1.2,0.6-1.8,0.1c-0.4-0.3-0.9-0.3-1.3,0c-0.3,0.3-0.7,0.3-1.1,0.3l0,0l-0.2-1.1
		c0.3,0.1,0.6,0.1,0.9,0c0.7-0.6,1.6-0.5,2.2,0c0.3,0.2,0.6,0.2,0.9,0c0.6-0.5,1.1-0.4,2,0.1c0.2,0.1,0.6,0.1,0.8,0V103.5L-67,103.5
		z M-67,106.4c-0.4,0.1-0.9,0.1-1.2-0.1c-0.6-0.4-0.9-0.4-1.1-0.2c-0.6,0.6-1.2,0.6-1.8,0.1c-0.4-0.3-0.9-0.3-1.3,0
		c-0.2,0.1-0.3,0.2-0.5,0.3l0,0l-0.2-1c0.1,0,0.2-0.1,0.3-0.1c0.7-0.6,1.6-0.5,2.2,0c0.3,0.2,0.6,0.2,0.9,0c0.6-0.5,1.1-0.4,2,0.1
		c0.2,0.1,0.6,0.1,0.8,0V106.4L-67,106.4z M-87,93.5h7v1h-7V93.5z M-87,95.5h7v1h-7V95.5z M-87,97.5h7v1h-7V97.5z M-87,99.5h7v1h-7
		V99.5z M-87,101.5h7v1h-7V101.5z M-87,103.5h7v1h-7V103.5z M-87,105.5h7v1h-7V105.5z M-79,91.5h2l3,15h-5V91.5z"/>
	<desc>Created with Sketch.</desc>
	<title>dam-white-24</title>
</g>
</svg>
