<?xml version="1.0" encoding="utf-8"?>
<!-- Generator: Adobe Illustrator 18.1.1, SVG Export Plug-In . SVG Version: 6.00 Build 0)  -->
<svg version="1.1" id="Icons" xmlns="http://www.w3.org/2000/svg" xmlns:xlink="http://www.w3.org/1999/xlink" x="0px" y="0px"
	 width="20px" height="20px" viewBox="0 0 20 20" enable-background="new 0 0 20 20" xml:space="preserve">
<g>
	<g>
		<path fill="#FFFFFF" d="M11.2,0.8c-1-0.6-2.4-0.4-3.1,0.6C7.7,2,7.6,2.7,7.8,3.3L9,7.1L5.4,8.2C5,8.4,4.7,8.8,4.6,9.3
			c-0.1,0.7,0.5,1.1,1.2,1.2c0.2,0,0.3,0,0.5,0L11.1,9c0.4-0.2,0.7-0.5,0.7-0.8c0-0.2,0.1-0.4,0.1-0.5L11.2,5l2.9,1.7l0.4,2.5
			c0,0.5,0.3,0.7,0.5,0.9l3.2,2.1c0.5,0.2,1.5,0.2,1.7-0.3c0.3-0.5,0.1-0.9-0.4-1.2l-3.2-1.7V6.8h-0.9V5h0.9
			c-0.4-0.7-0.5-1.4-0.9-1.6L11.2,0.8L11.2,0.8z"/>
		<polygon fill="#FFFFFF" points="0,8.6 17.2,18.6 19.1,18.6 19.1,17.7 20,17.7 20,18.6 19.1,19.5 17.2,19.5 0,9.5 		"/>
		<polygon fill="#FFFFFF" points="17.2,4.1 19.1,4.1 19.1,5 20,5 20,6.8 19.1,6.8 19.1,7.7 17.2,7.7 17.2,6.8 16.3,6.8 16.3,5 
			17.2,5 		"/>
	</g>
</g>
</svg>
