<?xml version="1.0" encoding="utf-8"?>
<!-- Generator: Adobe Illustrator 18.1.1, SVG Export Plug-In . SVG Version: 6.00 Build 0)  -->
<svg version="1.1" id="Icons" xmlns="http://www.w3.org/2000/svg" xmlns:xlink="http://www.w3.org/1999/xlink" x="0px" y="0px"
	 width="20px" height="20px" viewBox="0 0 20 20" enable-background="new 0 0 20 20" xml:space="preserve">
<g>
	<g>
		<polygon fill="#FFFFFF" points="18.2,0 16.4,0 13.6,18.2 6.4,18.2 3.6,0 1.8,0 5,20 15,20 		"/>
		<polygon fill="#FFFFFF" points="5.5,0 6.4,0 6.4,0.9 8.2,0.9 8.2,0 9.1,0 9.1,0.9 10.9,0.9 10.9,0 11.8,0 11.8,0.9 13.6,0.9 
			13.6,0 14.5,0 14.5,1.8 13.6,1.8 13.6,2.7 11.8,2.7 11.8,1.8 10.9,1.8 10.9,2.7 9.1,2.7 9.1,1.8 8.2,1.8 8.2,2.7 6.4,2.7 6.4,1.8 
			5.5,1.8 		"/>
	</g>
</g>
</svg>
