<?xml version="1.0" encoding="utf-8"?>
<!-- Generator: Adobe Illustrator 18.1.1, SVG Export Plug-In . SVG Version: 6.00 Build 0)  -->
<svg version="1.1" id="Icons" xmlns="http://www.w3.org/2000/svg" xmlns:xlink="http://www.w3.org/1999/xlink" x="0px" y="0px"
	 width="20px" height="20px" viewBox="0 0 20 20" enable-background="new 0 0 20 20" xml:space="preserve">
<g>
	<g>
		<path fill="#FFFFFF" d="M14.4,17.6c0-1.1,0.7-1.8,1.6-1.8c1.1,0,1.6,0.7,1.6,1.8c0,0.9-0.7,1.8-1.6,1.8
			C14.9,19.3,14.4,18.6,14.4,17.6z M15.1,13.5L14.1,0h3.5l-0.7,13.5H15.1z"/>
	</g>
	<g>
		<path fill="#FFFFFF" d="M6.9,0C6,0.1,2.5,1.6,2.4,9.8C2.2,18.2,6,20,6.9,20v-5.4c-0.8,0-1.1-0.9-1.2-2.7c-0.1-1.2-0.1-2.2,0-3.6
			c0.1-1.1,0.4-2.7,1.2-2.7V0z"/>
		<polygon fill="#FFFFFF" points="8.2,0 9.6,0 10.6,0.9 10.6,4.6 9.6,5.4 8.2,5.9 		"/>
		<polygon fill="#FFFFFF" points="8.2,14.1 9.6,14.6 10.6,15.4 10.6,19.1 9.6,20 8.2,20 		"/>
	</g>
</g>
</svg>
