<?xml version="1.0" encoding="utf-8"?>
<!-- Generator: Adobe Illustrator 18.1.1, SVG Export Plug-In . SVG Version: 6.00 Build 0)  -->
<svg version="1.1" id="Icons" xmlns="http://www.w3.org/2000/svg" xmlns:xlink="http://www.w3.org/1999/xlink" x="0px" y="0px"
	 width="20px" height="20px" viewBox="0 0 20 20" enable-background="new 0 0 20 20" xml:space="preserve">
<g>
	<g>
		<path fill="#FFFFFF" d="M5.6,12.4l-0.1,0.2l0.1,0.2l3.5,0.9c0.2,0.1,0.2,0.9,0,0.9H5.6l-0.1,0.1v0.1c3.9,3.1,8.3,4.4,13.6,4.4V8.2
			C10,8.2,5.6,12.4,5.6,12.4z M11.8,12.7h-0.9v-0.9h0.9V12.7z"/>
		<path fill="#FFFFFF" d="M17.3,0.9c-3,0-5.2,1.4-8.4,4.1C8.8,5,8.5,4.9,8.5,4.9c-0.5,0-0.9,0.5-0.9,0.9c0,0,0,0.2,0.1,0.3
			C7.4,6.2,4.9,8.6,4.9,8.6l-2.1,2.3c-0.2,0.2-0.6,0-0.9,0s-0.5,0-0.7-0.3C1,10.5,0.9,10.2,0.9,9.9S1,9.4,1.2,9.1
			c0,0,0.2-0.1,0.3-0.2c0,0.2,0.1,0.8,0.1,0.8l2.1-2.4L1.4,8.1C0.9,8.3,0.7,8.5,0.6,8.5c-0.7,0.6-0.8,1.6-0.1,2.6
			c1.4,0.5,0.8,0.5,2.3,0.6l0.9-0.9l1.6-1.6c0,0,2.6-2.5,2.7-2.5c0.1,0,0.4,0.1,0.4,0.1c0.5,0,0.9-0.5,0.9-0.9c0,0,0-0.2,0-0.3
			c3.2-2.6,5.2-3.8,8-3.8c0.5,0,2.7,0,2.7,0V0.9H17.3z"/>
	</g>
</g>
</svg>
