<?xml version="1.0" encoding="utf-8"?>
<!-- Generator: Adobe Illustrator 18.1.1, SVG Export Plug-In . SVG Version: 6.00 Build 0)  -->
<svg version="1.1" id="Layer_1" xmlns="http://www.w3.org/2000/svg" xmlns:xlink="http://www.w3.org/1999/xlink" x="0px" y="0px"
	 width="20px" height="20px" viewBox="0 0 20 20" enable-background="new 0 0 20 20" xml:space="preserve">
<g>
	<g>
		<g>
			<path fill="#FFFFFF" d="M12.7,5.5c0,0-0.7,2.7-3.6,2.7C9.1,8.2,8.9,6.2,12.7,5.5z"/>
			<path fill="#FFFFFF" d="M10,10.3c0.5-0.5,1.1-0.8,1.9-0.8c1.5,0,2.7,1.2,2.7,2.7l0,0.2h0c0,0.6-0.2,1.3-0.7,2.2
				c0,0-0.7,1.5-1.3,2.1l-0.1,0.1c-0.3,0.3-0.7,0.5-1.1,0.5c-0.5,0-1-0.5-1.3-0.9c-0.3,0.4-0.8,0.9-1.3,0.9c-0.4,0-0.9-0.2-1.1-0.5
				l-0.1-0.1c-0.6-0.7-1.3-2.1-1.3-2.1c-0.4-0.9-0.6-1.6-0.7-2.2h0l0-0.2c0-1.5,1.2-2.7,2.7-2.7C8.9,9.5,9.5,9.8,10,10.3"/>
		</g>
		<polygon fill="#FFFFFF" points="18.2,5.5 18.2,18.2 1.8,18.2 1.8,6.3 19.8,1.8 19.4,0 0,4.8 0.2,5.5 0,5.5 0,18.2 0,18.6 0,20 
			20,20 20,18.6 20,18.2 20,5.5 		"/>
	</g>
</g>
</svg>
