<?xml version="1.0" encoding="utf-8"?>
<!-- Generator: Adobe Illustrator 18.1.1, SVG Export Plug-In . SVG Version: 6.00 Build 0)  -->
<svg version="1.1" id="Icons" xmlns="http://www.w3.org/2000/svg" xmlns:xlink="http://www.w3.org/1999/xlink" x="0px" y="0px"
	 width="20px" height="20px" viewBox="0 0 20 20" enable-background="new 0 0 20 20" xml:space="preserve">
<g>
	<g>
		<polygon fill="#FFFFFF" points="14.5,20 15.5,20 16.4,18.7 16.4,0.5 15.5,0 13.6,0 13.6,0.9 12.7,0.9 12.7,11.8 14.5,11.8 		"/>
		<polygon fill="#FFFFFF" points="5.5,19.1 6.4,20 7.3,19.1 7.3,8.2 8.2,7.3 9.1,6.4 9.1,0 8.2,0 8.2,5 6.8,5.5 6.8,0 5.9,0 
			5.9,5.5 4.5,5 4.5,0 3.6,0 3.6,6.4 4.5,7.3 5.5,8.2 		"/>
	</g>
</g>
</svg>
