<?xml version="1.0" encoding="utf-8"?>
<!-- Generator: Adobe Illustrator 18.1.1, SVG Export Plug-In . SVG Version: 6.00 Build 0)  -->
<svg version="1.1" id="Icons" xmlns="http://www.w3.org/2000/svg" xmlns:xlink="http://www.w3.org/1999/xlink" x="0px" y="0px"
	 width="20px" height="20px" viewBox="0 0 20 20" enable-background="new 0 0 20 20" xml:space="preserve">
<g>
	<g>
		<polygon fill="#FFFFFF" points="19.1,10.5 19.1,7.7 13.6,7.7 11.8,5 10.9,5 12.7,7.7 10.9,9.5 8.2,9.5 6.4,7.7 0,7.7 0,13.2 
			0.9,13.2 1.8,13.2 1.8,12.3 1.8,11.4 2.7,11.4 2.7,10.5 6.4,10.5 6.4,11.4 7.3,11.4 7.3,12.3 7.3,13.2 8.2,13.2 11.8,13.2 
			12.7,13.2 12.7,12.3 12.7,11.4 13.6,11.4 13.6,10.5 17.3,10.5 17.3,11.4 18.2,11.4 18.2,12.3 18.2,13.2 19.1,13.2 20,13.2 
			20,11.4 		"/>
		<path fill="#FFFFFF" d="M4.5,11.4c-1,0-1.8,0.8-1.8,1.8S3.5,15,4.5,15s1.8-0.8,1.8-1.8S5.5,11.4,4.5,11.4z M5.5,13.5
			c0,0.3-0.3,0.5-0.5,0.5H4.2c-0.3,0-0.5-0.3-0.5-0.5v-0.8c0-0.2,0.3-0.5,0.5-0.5H5c0.2,0,0.5,0.3,0.5,0.5V13.5z"/>
		<path fill="#FFFFFF" d="M15.5,11.4c-1,0-1.8,0.8-1.8,1.8s0.8,1.8,1.8,1.8s1.8-0.8,1.8-1.8S16.5,11.4,15.5,11.4z M16.4,13.5
			c0,0.3-0.3,0.5-0.5,0.5H15c-0.3,0-0.5-0.3-0.5-0.5v-0.8c0-0.3,0.3-0.5,0.5-0.5h0.8c0.3,0,0.5,0.3,0.5,0.5V13.5z"/>
	</g>
</g>
</svg>
