<?xml version="1.0" encoding="utf-8"?>
<!-- Generator: Adobe Illustrator 18.1.1, SVG Export Plug-In . SVG Version: 6.00 Build 0)  -->
<svg version="1.1" id="Icons" xmlns="http://www.w3.org/2000/svg" xmlns:xlink="http://www.w3.org/1999/xlink" x="0px" y="0px"
	 width="20px" height="20px" viewBox="0 0 20 20" enable-background="new 0 0 20 20" xml:space="preserve">
<g>
	<g>
		<path fill="#FFFFFF" d="M17.3,13.1L17.3,13.1v-1.4V5.6c0-0.6-0.4-1.2-0.8-1.6l-2.8-2.6c-0.2,0-0.7,0.4-0.7,0.4
			c0,0.2,1.4,1.6,1.4,1.6v2.4c0,0.8,0.7,1.6,1.5,1.6l0.5-0.2v4.5v1.5l0.9,4.6c0,0.7-0.8,1.2-1.4,1.2c-0.5,0-1.4-0.5-1.4-0.9v-8.1
			c0-1-0.5-1.9-1.5-1.9h-2.2V0.9H10V0H2.7v0.9H1.8V20h9.1V9.5h2.2c0.4,0,0.5,0.3,0.5,0.6v8.1c0,1.1,1.1,1.8,2.3,1.8
			c1.1,0,2.3-0.7,2.3-1.8C18.2,17.9,17.3,13.1,17.3,13.1z M16.4,6.4h-0.9V4.5h0.9V6.4z M9.5,5.3L8.7,6H4L3.2,5.3V2L4,1.2h4.7L9.5,2
			V5.3z"/>
	</g>
</g>
</svg>
