<?xml version="1.0" encoding="utf-8"?>
<!-- Generator: Adobe Illustrator 18.1.1, SVG Export Plug-In . SVG Version: 6.00 Build 0)  -->
<svg version="1.1" id="Icons" xmlns="http://www.w3.org/2000/svg" xmlns:xlink="http://www.w3.org/1999/xlink" x="0px" y="0px"
	 width="20px" height="20px" viewBox="0 0 20 20" enable-background="new 0 0 20 20" xml:space="preserve">
<g>
	<g>
		<path fill="#FFFFFF" d="M15.5,6.2c-0.1-0.3-0.4-0.5-0.4-0.5L6.4,0L5.6,1.1C5.4,1.3,5.5,2.5,5.6,2.6c0.3,0.2,0.5-0.8,0.7-1l0.5-0.7
			l7.1,4.6L8.1,7.3c-0.4,0-0.9-0.2-0.8,0.3l1.5,4.9l-4.1,6.1C4.4,19,4.6,19.7,5,19.9c0.5,0.3,1-0.1,1.2-0.5l4.3-6.5l0.2,0.9L10,18.6
			c-0.1,0.5,0.3,1.2,0.8,1.3c0.5,0.1,0.9-0.5,1-1l0.6-4.9c0-0.1,0-0.4,0-0.5L11,7.6L14.8,7C15.2,6.9,15.6,6.5,15.5,6.2L15.5,6.2z"/>
		<path fill="#FFFFFF" d="M8,6.4H7.5c-0.6,0-1.1-0.5-1.1-1.1V4.7c0-0.6,0.5-1.1,1.1-1.1h0.6c0.5,0,1,0.5,1,1.1v0.6
			C9.1,5.9,8.6,6.4,8,6.4z"/>
	</g>
</g>
</svg>
