<?xml version="1.0" encoding="utf-8"?>
<!-- Generator: Adobe Illustrator 18.1.1, SVG Export Plug-In . SVG Version: 6.00 Build 0)  -->
<svg version="1.1" id="Layer_1" xmlns="http://www.w3.org/2000/svg" xmlns:xlink="http://www.w3.org/1999/xlink" x="0px" y="0px"
	 width="20px" height="20px" viewBox="0 0 20 20" enable-background="new 0 0 20 20" xml:space="preserve">
<g>
	<g>
		<path fill="#FFFFFF" d="M19.8,2.8c-1.1,0-1.6,0-1.9,1.4l-2.3,10.6c-0.1,0.7-0.2,1.4-0.2,1.7c0,0.8,0.6,0.8,1.5,0.8l-0.2,1
			c-0.4,0-2.4-0.1-3.5-0.1c-0.5,0-2.5,0.1-3.4,0.1l0.2-1.1c1.2,0,1.7,0,2-1.7l1.1-5.1H6.7l-0.8,4c-0.2,0.8-0.3,1.6-0.3,2.1
			c0,0.6,0.4,0.7,1.3,0.7l-0.2,1.1c-0.5,0-2.6,0-3.4,0c-0.5,0-2.5,0-3.3,0l0.2-1.1c1.2,0,1.8,0,2.2-1.8L4.5,5.3
			C4.6,4.9,4.7,4,4.7,3.8c0-1.1-0.8-1.1-1.8-1.1L3,1.7c1,0,2.8,0.1,3.6,0.1c0.5,0,2.4-0.1,3.2-0.1L9.7,2.8c-1.1,0-1.4,0-1.7,1.4L7,9
			h6.5l0.7-3.5c0.1-0.8,0.2-1.5,0.2-2c0-0.8-0.5-0.8-1.5-0.8l0.2-1.1c0.8,0,2.7,0.1,3.3,0.1c0.7,0,2.3-0.1,3.5-0.1L19.8,2.8z"/>
	</g>
</g>
</svg>
