<?xml version="1.0" encoding="utf-8"?>
<!-- Generator: Adobe Illustrator 18.1.1, SVG Export Plug-In . SVG Version: 6.00 Build 0)  -->
<svg version="1.1" id="Icons" xmlns="http://www.w3.org/2000/svg" xmlns:xlink="http://www.w3.org/1999/xlink" x="0px" y="0px"
	 width="20px" height="20px" viewBox="0 0 20 20" enable-background="new 0 0 20 20" xml:space="preserve">
<g>
	<g>
		<polygon fill="#FFFFFF" points="18.2,6.4 18.2,8.2 16.4,10 14.5,10 14.5,9.1 16.4,9.1 17.3,8.2 17.3,6.4 		"/>
		<path fill="#FFFFFF" d="M16.4,3.6V1.8l-1.8,1.8l-2.7,3.5V6.4L9.1,5.5V4.5L8.2,3.6H7.3L6.4,4.5v3.6H0.9L0,9.1v4.5h0.9V10l0.9-0.9
			h0.9l-0.9,1.8v0.9v7.3L2.7,20l0.9-0.9v-5.5l2.7,5.5L7.3,20l0.9-0.9l-2.7-6.4h6.4v6.4l0.9,0.9l0.9-0.9v-7.3l2.7-5.5l2.7,0.9L20,6.4
			L16.4,3.6z M9.1,8.2V6.4l2.5,0.8l-0.7,1H9.1z"/>
		<circle fill="#FFFFFF" cx="7.7" cy="1.4" r="1.4"/>
	</g>
</g>
</svg>
