<?xml version="1.0" encoding="utf-8"?>
<!-- Generator: Adobe Illustrator 18.1.1, SVG Export Plug-In . SVG Version: 6.00 Build 0)  -->
<svg version="1.1" id="Icons" xmlns="http://www.w3.org/2000/svg" xmlns:xlink="http://www.w3.org/1999/xlink" x="0px" y="0px"
	 width="20px" height="20px" viewBox="0 0 20 20" enable-background="new 0 0 20 20" xml:space="preserve">
<g>
	<g>
		<polygon fill="#FFFFFF" points="18.6,20 12.3,20 12.3,19.1 17.7,19.1 17.7,18.2 18.6,18.2 18.6,19.1 		"/>
		<polygon fill="#FFFFFF" points="10.5,11.8 9.5,11.8 9.5,10.9 7.7,10.9 7.7,11.8 6.8,11.8 6.8,12.7 5.9,12.7 5.9,13.6 5,13.6 
			5,14.5 4.1,14.5 4.1,15.5 3.2,15.5 3.2,17.3 4.1,17.3 4.1,18.2 5,18.2 5,17.3 5.9,17.3 5.9,16.4 6.8,16.4 6.8,15.5 7.7,15.5 
			7.7,14.5 8.6,14.5 8.6,13.6 9.5,13.6 9.5,12.7 10.5,12.7 		"/>
		<polygon fill="#FFFFFF" points="5.9,2.7 5,3.6 5.9,4.5 12.3,4.5 12.3,5.5 11.4,5.5 11.4,6.4 10.5,6.4 10.5,7.3 9.5,7.3 9.5,10 
			10.5,10 10.5,10.9 11.4,10.9 11.4,11.8 12.3,11.8 12.3,12.7 13.2,12.7 13.2,13.6 13.2,17.3 14.1,18.2 15,18.2 15.9,17.3 
			15.9,11.8 15,11.8 15,10.9 14.1,10.9 14.1,10 13.2,10 13.2,9.1 14.1,9.1 14.1,8.2 15,8.2 15,7.3 15.9,7.3 15.9,6.4 16.8,6.4 
			16.8,3.6 15.9,3.6 15.9,2.7 		"/>
		<polygon fill="#FFFFFF" points="16.8,0 18.6,0 18.6,0.9 19.5,0.9 19.5,2.7 18.6,2.7 18.6,3.6 16.8,3.6 16.8,2.7 15.9,2.7 
			15.9,0.9 16.8,0.9 		"/>
		<polygon fill="#FFFFFF" points="3.2,20 5.9,20 5.9,19.1 4.1,19.1 4.1,18.2 3.2,18.2 3.2,17.3 2.3,17.3 2.3,16.4 1.4,16.4 
			1.4,15.5 0.5,15.5 0.5,17.3 1.4,17.3 1.4,18.2 2.3,18.2 2.3,19.1 3.2,19.1 		"/>
	</g>
</g>
</svg>
