<?xml version="1.0" encoding="utf-8"?>
<!-- Generator: Adobe Illustrator 18.1.1, SVG Export Plug-In . SVG Version: 6.00 Build 0)  -->
<svg version="1.1" id="Icons" xmlns="http://www.w3.org/2000/svg" xmlns:xlink="http://www.w3.org/1999/xlink" x="0px" y="0px"
	 width="20px" height="20px" viewBox="0 0 20 20" enable-background="new 0 0 20 20" xml:space="preserve">
<g>
	<g>
		<g>
			<path fill="#FFFFFF" d="M8.8,12.9v-1.1c0-0.3,0-0.5,0.1-0.7c0-0.2,0.1-0.4,0.2-0.5c0.1-0.2,0.2-0.3,0.4-0.5
				c0.1-0.2,0.3-0.4,0.5-0.5l1.5-1.5c0.3-0.3,0.5-0.7,0.5-1.2S11.6,6,11.4,5.7c-0.4-0.3-0.7-0.5-1.3-0.5s-1,0.2-1.3,0.5
				C8.5,6.1,8.3,6.5,8.2,7.1L5.7,6.9C5.8,6.3,6,5.7,6.2,5.3c0.3-0.5,0.5-0.9,0.9-1.2s0.8-0.5,1.4-0.7s1.1-0.3,1.6-0.3
				c0.5,0,1.1,0.1,1.6,0.3s0.9,0.4,1.3,0.7c0.4,0.3,0.6,0.7,0.8,1.2s0.3,1,0.3,1.6c0,0.5-0.1,0.8-0.2,1.1c-0.1,0.3-0.3,0.6-0.5,0.9
				c-0.2,0.3-0.5,0.5-0.6,0.7c-0.3,0.3-0.5,0.5-0.8,0.7c-0.2,0.2-0.4,0.3-0.5,0.5c-0.1,0.1-0.3,0.3-0.3,0.4
				c-0.1,0.1-0.2,0.3-0.2,0.5S11,12,11,12.3V13L8.8,12.9L8.8,12.9z M8.5,15.5c0-0.4,0.2-0.7,0.5-1.1C9.2,14.1,9.5,14,10,14
				c0.4,0,0.7,0.2,1.1,0.5c0.3,0.3,0.5,0.6,0.5,1s-0.2,0.7-0.5,1.1C10.8,16.8,10.5,17,10,17c-0.2,0-0.4,0-0.5-0.1
				c-0.2-0.1-0.4-0.2-0.5-0.3c-0.2-0.1-0.3-0.3-0.4-0.5C8.5,15.9,8.5,15.7,8.5,15.5z"/>
		</g>
		<path fill="#FFFFFF" d="M16.4,1.8c1,0,1.8,0.8,1.8,1.8v12.7c0,1-0.8,1.8-1.8,1.8H3.6c-1,0-1.8-0.8-1.8-1.8V3.6
			c0-1,0.8-1.8,1.8-1.8H16.4 M16.4,0H3.6C1.6,0,0,1.6,0,3.6v12.7c0,2,1.6,3.6,3.6,3.6h12.7c2,0,3.6-1.6,3.6-3.6V3.6
			C20,1.6,18.4,0,16.4,0L16.4,0z"/>
	</g>
</g>
</svg>
