<?xml version="1.0" encoding="utf-8"?>
<!-- Generator: Adobe Illustrator 18.1.1, SVG Export Plug-In . SVG Version: 6.00 Build 0)  -->
<svg version="1.1" id="Layer_1" xmlns="http://www.w3.org/2000/svg" xmlns:xlink="http://www.w3.org/1999/xlink" x="0px" y="0px"
	 width="20px" height="20px" viewBox="0 0 20 20" enable-background="new 0 0 20 20" xml:space="preserve">
<g>
	<g>
		<polygon fill="#FFFFFF" points="1.9,8.3 5.6,2.1 3.7,2.1 0,8.3 0,18 1.9,18 		"/>
		<polygon fill="#FFFFFF" points="16.3,8.3 20,2.1 18.1,2.1 14.4,8.3 14.4,18 16.3,18 		"/>
		<polygon fill="none" points="6.1,5.7 13.4,5.7 13.9,4.8 6.6,4.8 		"/>
		<polygon fill="none" points="5,7.5 12.3,7.5 12.8,6.6 5.6,6.6 		"/>
		<path fill="#FFFFFF" d="M6.6,2L2.9,8.3h10.8L17.4,2H6.6z M12.3,7.5H5l0.5-0.9h7.3L12.3,7.5z M13.4,5.7H6.1l0.5-0.9h7.3L13.4,5.7z
			 M7.2,3.9L7.7,3H15l-0.5,0.9H7.2z"/>
		<polygon fill="none" points="5,7.5 12.3,7.5 12.8,6.6 5.6,6.6 		"/>
	</g>
</g>
</svg>
