<?xml version="1.0" encoding="utf-8"?>
<!-- Generator: Adobe Illustrator 18.1.1, SVG Export Plug-In . SVG Version: 6.00 Build 0)  -->
<svg version="1.1" id="Layer_1" xmlns="http://www.w3.org/2000/svg" xmlns:xlink="http://www.w3.org/1999/xlink" x="0px" y="0px"
	 width="20px" height="20px" viewBox="0 0 20 20" enable-background="new 0 0 20 20" xml:space="preserve">
<g>
	<g>
		<rect x="7.3" y="0.9" fill="none" width="1.8" height="1.8"/>
		<path fill="#FFFFFF" d="M2.7,0v3.6h14.5V0H2.7z M5.5,2.7H3.6V0.9h1.8V2.7z M9.1,2.7H7.3V0.9h1.8V2.7z"/>
		<path fill="#FFFFFF" d="M2.7,4.5V20h14.5V4.5H2.7z M10,17.3c-3,0-5.5-2.4-5.5-5.5S7,6.4,10,6.4s5.5,2.4,5.5,5.5S13,17.3,10,17.3z"
			/>
		<path fill="#FFFFFF" d="M5.9,10c-0.5-0.3-0.4,1.2-0.4,1.8c0,2.5,2,4.5,4.5,4.5s4.5-2,4.5-4.5c0-0.6,0.1-1.4-0.4-1.8
			C9.3,6.1,10.8,13.4,5.9,10z"/>
	</g>
</g>
</svg>
