<?xml version="1.0" encoding="utf-8"?>
<!-- Generator: Adobe Illustrator 18.1.1, SVG Export Plug-In . SVG Version: 6.00 Build 0)  -->
<svg version="1.1" id="Layer_1" xmlns="http://www.w3.org/2000/svg" xmlns:xlink="http://www.w3.org/1999/xlink" x="0px" y="0px"
	 width="20px" height="20px" viewBox="0 0 20 20" enable-background="new 0 0 20 20" xml:space="preserve">
<g>
	<g>
		<circle fill="#FFFFFF" cx="10.1" cy="3.6" r="3.1"/>
		<path fill="#FFFFFF" d="M13.1,7.4c1.4,0,2,1.2,2,1.2l4.6,6.3c0.2,0.3,0.3,0.6,0.3,1c0,1-0.8,1.8-1.8,1.8c-0.2,0-0.5-0.1-0.7-0.1
			l-2.8-0.8v2.8H5.2v-2.8l-2.8,0.8c-0.2,0.1-0.4,0.1-0.7,0.1c-1,0-1.8-0.8-1.8-1.8c0-0.4,0.1-0.7,0.3-1l4.6-6.3c0,0,0.6-1.1,2-1.2
			C6.9,7.4,13.1,7.4,13.1,7.4z M10,17.6L10,17.6l3.6-1.2l-0.1,0c-2.5-0.7-1.5-4,1-3.3l0.3,0.1V9.6L10,11.1L5.2,9.6v3.7l0.3-0.1
			c2.5-0.7,3.4,2.5,1,3.3l-0.1,0L10,17.6L10,17.6z"/>
	</g>
</g>
</svg>
