<?xml version="1.0" encoding="utf-8"?>
<!-- Generator: Adobe Illustrator 18.1.1, SVG Export Plug-In . SVG Version: 6.00 Build 0)  -->
<svg version="1.1" id="Icons" xmlns="http://www.w3.org/2000/svg" xmlns:xlink="http://www.w3.org/1999/xlink" x="0px" y="0px"
	 width="20px" height="20px" viewBox="0 0 20 20" enable-background="new 0 0 20 20" xml:space="preserve">
<g>
	<g>
		<path fill="#FFFFFF" d="M9.7,7.3H7.1c-1,0-1,1.3,0,1.3H10c0.2,0,0.5-0.1,0.6-0.4l1.2-2.3v13.2c0,0.5,0.4,0.9,0.9,0.9
			s0.9-0.4,0.9-0.9v-7.3h0.9v7.3c0,0.5,0.4,0.9,0.9,0.9c0.5,0,0.9-0.4,0.9-0.9V6.4h1.4v4.5c0,1,1.4,1,1.4,0v-5
			c0-1.1-1.1-2.2-2.5-2.2h-1.2v0.9h-1.8V3.6c-0.7,0-1.8,0.5-2.2,1L9.7,7.3L9.7,7.3z"/>
		<polygon fill="#FFFFFF" points="0.9,11.8 1.8,11.8 3.6,19.1 6.4,19.1 8.2,11.8 9.1,11.8 7.3,20 2.7,20 		"/>
		<polygon fill="#FFFFFF" points="13.6,0 15.5,0 15.5,0.9 16.4,0.9 16.4,2.7 15.5,2.7 15.5,3.6 13.6,3.6 13.6,2.7 12.7,2.7 
			12.7,0.9 13.6,0.9 		"/>
		<circle fill="#FFFFFF" cx="3.6" cy="9.1" r="0.9"/>
		<circle fill="#FFFFFF" cx="5.5" cy="11.8" r="0.9"/>
		<circle fill="#FFFFFF" cx="4.5" cy="14.5" r="0.9"/>
	</g>
</g>
</svg>
