<?xml version="1.0" encoding="utf-8"?>
<!-- Generator: Adobe Illustrator 18.1.1, SVG Export Plug-In . SVG Version: 6.00 Build 0)  -->
<svg version="1.1" id="Layer_1" xmlns:sketch="http://www.bohemiancoding.com/sketch/ns"
	 xmlns="http://www.w3.org/2000/svg" xmlns:xlink="http://www.w3.org/1999/xlink" x="0px" y="0px" width="20px" height="20px"
	 viewBox="-87 89 20 20" enable-background="new -87 89 20 20" xml:space="preserve">
<g>
	<path id="symbol-copy-2" sketch:type="MSShapeGroup" fill="#FFFFFF" d="M-81.7,109l0.3-1.5l0,0l0.5-0.5l3.9-4.5l3.9,4.5l0.5,0.5
		l0.3,1.5h1.5l-2.8-13h1.5v-5h-10v5h1.5l-2.8,13H-81.7L-81.7,109z M-79.3,97.6l0.3-1.6l0,0h3.9l0,0l0.3,1.6l-0.4,0.4l-1.9,2.2
		l-1.9-2.2L-79.3,97.6L-79.3,97.6z M-79.7,99.4l-1.1,5.1l2.8-3.2L-79.7,99.4L-79.7,99.4z M-73.2,104.5l-1.1-5.1l-1.7,1.9
		L-73.2,104.5L-73.2,104.5z M-77,89l5,2h-10L-77,89z M-80,92h6v2h-6V92z"/>
	<desc>Created with Sketch.</desc>
	<title>lookout-tower-white-24</title>
</g>
</svg>
