<?xml version="1.0" encoding="utf-8"?>
<!-- Generator: Adobe Illustrator 18.1.1, SVG Export Plug-In . SVG Version: 6.00 Build 0)  -->
<svg version="1.1" id="Icons" xmlns="http://www.w3.org/2000/svg" xmlns:xlink="http://www.w3.org/1999/xlink" x="0px" y="0px"
	 width="20px" height="20px" viewBox="0 0 20 20" enable-background="new 0 0 20 20" xml:space="preserve">
<g>
	<g>
		<path fill="#FFFFFF" d="M19.2,8.3l-3.8,2.5c-0.4,0.3-0.4,0.7,0.1,1l0.9,0.5L15.5,14c-0.7,1.9-2.5,3.9-4.5,4.3V5.5
			c1-0.5,1.8-1.5,1.8-2.7C12.7,1.2,11.5,0,10,0S7.3,1.3,7.3,2.8C7.3,4,8.1,5,9.1,5.5v12.7C7,17.9,5.3,15.9,4.5,14l-0.8-1.7l0.9-0.5
			c0.4-0.2,0.5-0.7,0.1-1L0.8,8.3C0.5,8,0,8.3,0,8.8v4.5c0,0.5,0.5,0.6,0.8,0.5L2,13c0.2,0.5,0.5,0.9,0.7,1.5c1,3.2,3.7,5.5,7.3,5.5
			s6.3-2.3,7.3-5.5c0.3-0.5,0.5-1.1,0.7-1.5l1.2,0.6c0.4,0.2,0.8-0.1,0.8-0.5V8.8C20,8.3,19.5,8,19.2,8.3z M9.1,3.7V1.9h1.8v1.8H9.1
			z"/>
	</g>
</g>
</svg>
