<?xml version="1.0" encoding="utf-8"?>
<!-- Generator: Adobe Illustrator 18.1.1, SVG Export Plug-In . SVG Version: 6.00 Build 0)  -->
<svg version="1.1" id="Icons" xmlns="http://www.w3.org/2000/svg" xmlns:xlink="http://www.w3.org/1999/xlink" x="0px" y="0px"
	 width="20px" height="20px" viewBox="0 0 20 20" enable-background="new 0 0 20 20" xml:space="preserve">
<g>
	<g>
		<path fill="#FFFFFF" d="M11,15.8c-0.3,0.3-0.6,0.5-1,0.5v-4.9l3.6-0.9v1.8L11,15.8z"/>
		<path fill="#FFFFFF" d="M8.2,5H7.3V4.2c0,0-0.8,0.2-1.1,0.5L3.5,8.8C3.4,8.9,3.4,9.2,3.4,9.4c0,0.5,0.2,0.8,0.5,1l3.6,2v3.5
			c0,0.5,0.4,0.9,0.9,0.9c0.5,0,0.7-0.4,0.7-0.9v-4.3c0,0,0.3-0.7-0.5-1.1L6.4,9.4L8,6.8l0.9,1.4c0.2,0.3,0.4,0.5,0.6,0.5h2.3
			c0.9,0,0.9-1.3,0-1.3H10L8.2,4.6V5z"/>
		<path fill="#FFFFFF" d="M18.1,10.2l0.1,0.2c0,0.1-0.1,0.2-0.2,0.2h-0.1c-0.4-0.2-0.6-0.3-1.1-0.3c-0.3,0-0.6,0.1-1.1,0.5l-0.4-0.8
			c0.5-0.2,0.9-0.4,1.4-0.4C17.3,9.5,17.6,9.8,18.1,10.2z"/>
		<path fill="#FFFFFF" d="M2.9,10.8l3.5,2.1v0.8l-4-2.4c-0.3-0.2-0.7-0.3-1-0.3c-0.5,0-0.3,0.1-0.6,0.3H0.6c-0.1,0-0.2-0.1-0.2-0.2
			L0.5,11c0.5-0.4,0.4-0.5,1.1-0.5C2,10.5,2.4,10.5,2.9,10.8L2.9,10.8z"/>
		<path fill="#FFFFFF" d="M3.2,18.5c1.2,0,2.2-1,2.2-2.3c0-1.3-1-2.3-2.2-2.3S1,15,1,16.3C1,17.5,2,18.5,3.2,18.5z M0,16.3
			C0,14.5,1.5,13,3.2,13s3.2,1.5,3.2,3.3s-1.5,3.3-3.2,3.3S0,18.1,0,16.3z"/>
		<path fill="#FFFFFF" d="M16.7,18.5c1.3,0,2.3-1,2.3-2.3c0-1.3-1-2.3-2.3-2.3s-2.3,1-2.3,2.3C14.5,17.5,15.5,18.5,16.7,18.5z
			 M13.5,16.3c0-1.8,1.5-3.3,3.3-3.3s3.3,1.5,3.3,3.3s-1.5,3.3-3.3,3.3S13.5,18.1,13.5,16.3z"/>
		<path fill="#FFFFFF" d="M16,12.3l-1.5-2.9c-0.2-0.4-0.7-0.7-1.2-0.7h-1c-0.2,0-0.4,0.3-0.4,0.5c0,0.3,0.2,0.4,0.4,0.4h1
			c0.2,0,0.4,0.1,0.5,0.3l1.5,2.5H16z"/>
		<path fill="#FFFFFF" d="M10.9,3.2h0.8c0.1-0.2,0.1-0.3,0.1-0.5c0-1.3-1-2.3-2.3-2.3s-2.3,1-2.3,2.3c0,0.5,0.2,1,0.5,1.4h3.2V3.2z"
			/>
		<circle fill="#FFFFFF" cx="9.5" cy="3.6" r="1.4"/>
	</g>
</g>
</svg>
