<?xml version="1.0" encoding="utf-8"?>
<!-- Generator: Adobe Illustrator 18.1.1, SVG Export Plug-In . SVG Version: 6.00 Build 0)  -->
<svg version="1.1" id="Icons" xmlns="http://www.w3.org/2000/svg" xmlns:xlink="http://www.w3.org/1999/xlink" x="0px" y="0px"
	 width="20px" height="20px" viewBox="0 0 20 20" enable-background="new 0 0 20 20" xml:space="preserve">
<g>
	<g>
		<polygon fill="#000000" points="2.7,10.5 2.7,18.6 3.6,18.6 3.6,19.5 4.5,19.5 4.5,18.6 5.5,18.6 5.5,15.9 8.2,19.5 9.1,19.5
			10,17.7 7.3,14.1 12.7,14.1 12.7,18.6 13.6,18.6 13.6,19.5 14.5,19.5 14.5,18.6 15.5,18.6 15.5,9.5 11.8,7.7 2.7,7.7 1.8,6.8
			0.9,7.7 		"/>
		<polygon fill="#000000" points="11.8,5.9 11.8,0.5 12.7,0.5 12.7,1.4 20,5 20,6.8 15.5,7.7 		"/>
	</g>
</g>
</svg>
