<?xml version="1.0" encoding="utf-8"?>
<!-- Generator: Adobe Illustrator 18.1.1, SVG Export Plug-In . SVG Version: 6.00 Build 0)  -->
<svg version="1.1" id="Layer_1" xmlns:sketch="http://www.bohemiancoding.com/sketch/ns"
	 xmlns="http://www.w3.org/2000/svg" xmlns:xlink="http://www.w3.org/1999/xlink" x="0px" y="0px" width="20px" height="20px"
	 viewBox="-87 89 20 20" enable-background="new -87 89 20 20" xml:space="preserve">
<g>
	<path id="symbol-copy-2" sketch:type="MSShapeGroup" fill="#FFFFFF" d="M-84.7,101.5c1.3,0,2.3-1,2.3-2.2c0-1.2-1-2.2-2.3-2.2
		c-1.3,0-2.3,1-2.3,2.2C-87,100.5-86,101.5-84.7,101.5z M-72,105.3c0.1-0.1,0.2,0,0.3,0l0.4,0.6c0.1,0.1,0,0.2-0.1,0.3l-3.1,2.2
		c-0.1,0.1-0.2,0-0.3,0l-0.4-0.6c-0.1-0.1,0-0.2,0.1-0.3L-72,105.3z M-75.5,102.5l-1.2-2.1l-0.6,0.5l1.2,2.1L-75.5,102.5z
		 M-78.4,97.7l-4.7-8l-0.9,0l5,8.5L-78.4,97.7z M-73.9,101.9c0.3-0.2,0.6-0.3,0.9-0.3l4.4,0c0.9,0,1.5,0.7,1.5,1.5
		c0,0.8-0.7,1.5-1.5,1.5l-3.7,0l-4.7,3.2c-1.7,1.2-2.7-0.1-2.7-0.1l-3.7-3.6c-0.6-0.7-0.5-2.1,0.3-2.7l5.1-3.5
		c0.5-0.4,1.3-0.3,1.7,0.1c0.4,0.5,0.4,1.2-0.2,1.6l-3.3,2.3l2.3,2.2L-73.9,101.9z"/>
	<desc>Created with Sketch.</desc>
	<title>playground-white-24</title>
</g>
</svg>
