<?xml version="1.0" encoding="utf-8"?>
<!-- Generator: Adobe Illustrator 18.1.1, SVG Export Plug-In . SVG Version: 6.00 Build 0)  -->
<svg version="1.1" id="Icons" xmlns="http://www.w3.org/2000/svg" xmlns:xlink="http://www.w3.org/1999/xlink" x="0px" y="0px"
	 width="20px" height="20px" viewBox="0 0 20 20" enable-background="new 0 0 20 20" xml:space="preserve">
<g>
	<g>
		<path fill="#FFFFFF" d="M18.8,2.7H1.1H0v1.1v12.3v1.1v0.1h20v-0.1v-1.1V3.8V2.7H18.8z M18.8,15.5h-0.6v-0.9h-0.9v-0.9h-0.9v-0.9
			h-0.9v-0.9h-0.9v-0.9h-0.9V10V9.1h0.9V8.2h0.9V7.3h0.9V6.4h0.9V5.5h0.9V4.5h0.7L18.8,15.5L18.8,15.5z M1.1,4.5h0.7v0.9h0.9v0.9
			h0.9v0.9h0.9v0.9h0.9v0.9h0.9V10v0.9H5.5v0.9H4.5v0.9H3.6v0.9H2.7v0.9H1.8v0.9H1.1V4.5z M12.7,9.1h-0.9V10h-0.9v0.9H9.1V10H8.2
			V9.1H7.3V8.2H6.4V7.3H5.5V6.4H4.5V5.5H3.6V4.5H2.7V3.8h14.5v0.7h-0.9v0.9h-0.9v0.9h-0.9v0.9h-0.9v0.9h-0.9V9.1z M2.7,15.5h0.9
			v-0.9h0.9v-0.9h0.9v-0.9h0.9v-0.9h0.9v-0.9h0.9v0.9h3.6v-0.9h0.9v0.9h0.9v0.9h0.9v0.9h0.9v0.9h0.9v0.9h0.9v0.7H2.7V15.5z"/>
	</g>
</g>
</svg>
