<?xml version="1.0" encoding="utf-8"?>
<!-- Generator: Adobe Illustrator 18.1.1, SVG Export Plug-In . SVG Version: 6.00 Build 0)  -->
<svg version="1.1" id="Icons" xmlns="http://www.w3.org/2000/svg" xmlns:xlink="http://www.w3.org/1999/xlink" x="0px" y="0px"
	 width="20px" height="20px" viewBox="0 0 20 20" enable-background="new 0 0 20 20" xml:space="preserve">
<g>
	<g>
		<path fill="#FFFFFF" d="M0,0.5c1.1,0,4.9,1.7,6.4,4.3L4.9,5.9c0,0-1.8-2.2-4.9-2.7V1.4V0.5z"/>
		<path fill="#FFFFFF" d="M4.5,10.2c0,0.6,0.6,1.2,1.4,1.2s1.4-0.5,1.4-1.2S5.9,6.8,5.9,6.8S4.5,9.5,4.5,10.2z"/>
		<polygon fill="#FFFFFF" points="3.6,16.8 3.6,13.2 4.5,12.3 10.9,11.4 20,11.4 20,16.8 12.7,16.8 12.7,15 11.8,15 11.8,14.1 
			10.9,14.1 10.9,13.2 7.3,13.2 7.3,14.1 6.4,14.1 6.4,15 5.5,15 5.5,16.8 		"/>
		<polygon fill="#FFFFFF" points="14.5,11.4 17.3,7.7 20,7.7 20,6.4 16.4,6.4 13.6,10.5 12.7,10.5 10,5 8.2,5 8.2,5.9 9.1,5.9 
			11.8,11.4 		"/>
		<path fill="#FFFFFF" d="M11.8,16.8c0,1.5-1.2,2.7-2.7,2.7s-2.7-1.2-2.7-2.7s1.2-2.7,2.7-2.7S11.8,15.3,11.8,16.8z M10,15.9H8.2
			v1.8H10V15.9z"/>
	</g>
</g>
</svg>
