<?xml version="1.0" encoding="utf-8"?>
<!-- Generator: Adobe Illustrator 18.1.1, SVG Export Plug-In . SVG Version: 6.00 Build 0)  -->
<svg version="1.1" id="Icons" xmlns="http://www.w3.org/2000/svg" xmlns:xlink="http://www.w3.org/1999/xlink" x="0px" y="0px"
	 width="20px" height="20px" viewBox="0 0 20 20" enable-background="new 0 0 20 20" xml:space="preserve">
<g>
	<g>
		<path fill="#FFFFFF" d="M13.6,20v-1.3v-0.5h2.5c0.2,0,0.5,0,0.6-0.1s0.4-0.3,0.5-0.5c0,0,1.1-1.6,1.9-3.1c-0.2,0.1-5.5,0-5.5,0
			v-0.6v-1.8l-2.8,4.2L13.6,20z"/>
		<path fill="#FFFFFF" d="M0,8.9l1.3,0.4l0.5,0.2L1,11.8c-0.1,0.2-0.1,0.5-0.1,0.6C1,12.7,1.1,12.8,1.2,13c0,0,1.3,2.2,2.4,3.4v-1.8
			l0.9-1.8l0.6-2.3l0.5,0.2l1.7,0.5L4.4,7.3L0,8.9z"/>
		<path fill="#FFFFFF" d="M16.5,13.6c0.5,0,1.9,0,1.9,0c0.3,0,0.3,0.1,0.5,0c0.2-0.1,0.5-0.5,0.7-0.7c0.3-0.5,0.5-1,0.2-1.5
			c0,0-2.2-3.5-2.5-4.2c-0.5,0.4-2.2,1.6-2.7,2C15,9.8,16.2,13.3,16.5,13.6z"/>
		<path fill="#FFFFFF" d="M17.5,1.9l-1.1,0.7L16,2.8l-1.4-2.2c-0.1-0.2-0.3-0.4-0.5-0.5c-0.1,0-0.3-0.1-0.5-0.1c0,0-1.9-0.1-3.6,0
			c0.2,0.2,2.9,4.6,2.9,4.6L12.3,5l-1.5,0.9l5,0.2L17.5,1.9z"/>
		<path fill="#FFFFFF" d="M10,3.2C9.8,2.9,9,1.6,9,1.6C8.8,1.4,8.9,1.3,8.7,1.1C8.4,1,7.9,0.9,7.6,0.9c-0.5,0-1,0.2-1.3,0.6
			c0,0-1.8,3.7-2.2,4.4c0.6,0.3,2.5,0.9,3.1,1.3C7.6,6.6,9.8,3.6,10,3.2z"/>
		<path fill="#FFFFFF" d="M4.5,14.6c0.1,1.2,0,1.5,0,1.8c0,0.3-0.1,0.6,0,0.9c0.3,0.5,0.4,0.9,0.9,0.9c0,0,3.8,0,4.5,0
			c0-0.7,0-3,0-3.6C9.3,14.6,5.4,14.6,4.5,14.6z"/>
	</g>
</g>
</svg>
