<?xml version="1.0" encoding="utf-8"?>
<!-- Generator: Adobe Illustrator 18.1.1, SVG Export Plug-In . SVG Version: 6.00 Build 0)  -->
<svg version="1.1" id="Icons" xmlns="http://www.w3.org/2000/svg" xmlns:xlink="http://www.w3.org/1999/xlink" x="0px" y="0px"
	 width="20px" height="20px" viewBox="0 0 20 20" enable-background="new 0 0 20 20" xml:space="preserve">
<g>
	<g>
		<rect x="10" y="1.8" fill="#FFFFFF" width="1.8" height="16.4"/>
		<polygon fill="#FFFFFF" points="19.1,6.4 19.1,5.5 18.2,5.5 17.3,5.5 16.4,5.5 15.5,5.5 14.5,5.5 14.5,6.4 13.6,6.4 13.6,7.3 
			13.6,11.8 14.5,11.8 14.5,7.3 15.5,7.3 15.5,18.2 16.4,18.2 16.4,12.7 17.3,12.7 17.3,18.2 18.2,18.2 18.2,7.3 19.1,7.3 
			19.1,11.8 20,11.8 20,7.3 20,6.4 		"/>
		<polygon fill="#FFFFFF" points="7.3,6.4 5.5,5.5 2.7,5.5 0.9,6.4 0.9,7.3 0,10.9 0.9,10.9 1.8,7.3 2.7,7.3 2.7,8.2 0.9,13.6 
			2.7,13.6 2.7,18.2 3.6,18.2 3.6,13.6 4.5,13.6 4.5,18.2 5.5,18.2 5.5,13.6 7.3,13.6 5.5,8.2 5.5,7.3 6.4,7.3 7.3,10.9 8.2,10.9 
			7.3,7.3 		"/>
		<circle fill="#FFFFFF" cx="4.1" cy="3.2" r="1.4"/>
		<circle fill="#FFFFFF" cx="16.8" cy="3.2" r="1.4"/>
	</g>
</g>
</svg>
