<?xml version="1.0" encoding="utf-8"?>
<!-- Generator: Adobe Illustrator 18.1.1, SVG Export Plug-In . SVG Version: 6.00 Build 0)  -->
<svg version="1.1" id="Layer_1" xmlns="http://www.w3.org/2000/svg" xmlns:xlink="http://www.w3.org/1999/xlink" x="0px" y="0px"
	 width="20px" height="20px" viewBox="0 0 20 20" enable-background="new 0 0 20 20" xml:space="preserve">
<g>
	<g>
		<g>
			<path fill="#FFFFFF" d="M0.7,7.7H2C2.9,7.7,3.5,8,3.5,9c0,0.7-0.5,1.1-1.1,1.2v0c0.4,0.1,0.5,0.3,0.7,0.6l0.9,2H3.3L2.6,11
				c-0.3-0.7-0.5-0.7-1-0.7H1.2v2.4H0.7V7.7z M1.2,9.9h0.5C2.3,9.9,3,9.7,3,9c0-0.8-0.6-0.9-1.3-0.9H1.2V9.9z"/>
		</g>
		<g>
			<path fill="#FFFFFF" d="M16.1,7.7h1.3c0.9,0,1.5,0.4,1.5,1.3c0,0.7-0.5,1.1-1.1,1.2v0c0.4,0.1,0.5,0.3,0.7,0.6l0.9,2h-0.5L18,11
				c-0.3-0.7-0.5-0.7-1-0.7h-0.4v2.4h-0.5L16.1,7.7L16.1,7.7z M16.6,9.9h0.5c0.6,0,1.3-0.2,1.3-0.9c0-0.8-0.6-0.9-1.3-0.9h-0.5
				L16.6,9.9L16.6,9.9z"/>
		</g>
		<polygon fill="#FFFFFF" points="20,1.9 18.1,0 10,8.1 1.9,0 0,1.9 8.1,10 0,18.1 1.9,20 10,11.9 18.1,20 20,18.1 11.9,10 		"/>
	</g>
</g>
</svg>
