<?xml version="1.0" encoding="utf-8"?>
<!-- Generator: Adobe Illustrator 18.1.1, SVG Export Plug-In . SVG Version: 6.00 Build 0)  -->
<svg version="1.1" id="Icons" xmlns="http://www.w3.org/2000/svg" xmlns:xlink="http://www.w3.org/1999/xlink" x="0px" y="0px"
	 width="20px" height="20px" viewBox="0 0 20 20" enable-background="new 0 0 20 20" xml:space="preserve">
<g>
	<g>
		<path fill="#FFFFFF" d="M0,11.4h11.8V8.6l0.9-0.9h3.6v0.9h0.9v0.9h0.9v0.9h0.9v0.9l0.9,0.9v1.8h-0.9v-0.9h-0.9v-0.9h-2.7v0.9h-0.9
			v0.9H7.3v-0.9H6.4v-0.9H3.6v0.9H2.7v0.9H0V11.4z M13.6,8.6v1.8h2.7V9.5h-0.9V8.6H13.6z"/>
		<path fill="#FFFFFF" d="M5.6,15.9H4.4c-0.4,0-0.7-0.4-0.7-0.7v-1.3c0-0.4,0.4-0.7,0.7-0.7h1.3c0.4,0,0.7,0.4,0.7,0.7v1.3
			C6.4,15.5,6,15.9,5.6,15.9z M5.5,14.1H4.5V15h0.9V14.1z"/>
		<path fill="#FFFFFF" d="M17.5,15.9h-1.3c-0.4,0-0.7-0.4-0.7-0.7v-1.3c0-0.4,0.4-0.7,0.7-0.7h1.3c0.4,0,0.7,0.4,0.7,0.7v1.3
			C18.2,15.5,17.8,15.9,17.5,15.9z M17.3,14.1h-0.9V15h0.9V14.1z"/>
		<path fill="#FFFFFF" d="M14.5,5.9V5l-0.9-0.9H0.9V5H0v5.5h10.9V7.7h0.9V6.8h3.6V5.9H14.5z M1.8,8.6l0.9-2.7h4.5l0.9,2.7H1.8z
			 M13.6,5.9h-2.7V5h2.7V5.9z"/>
	</g>
</g>
</svg>
