<?xml version="1.0" encoding="utf-8"?>
<!-- Generator: Adobe Illustrator 18.1.1, SVG Export Plug-In . SVG Version: 6.00 Build 0)  -->
<svg version="1.1" id="Icons" xmlns="http://www.w3.org/2000/svg" xmlns:xlink="http://www.w3.org/1999/xlink" x="0px" y="0px"
	 width="20px" height="20px" viewBox="0 0 20 20" enable-background="new 0 0 20 20" xml:space="preserve">
<g>
	<g>
		<polygon fill="#FFFFFF" points="17.7,18.2 15.9,17.3 15,17.3 13.2,18.2 12.3,18.2 10.5,17.3 9.5,17.3 7.7,18.2 6.8,18.2 5,17.3 
			4.1,17.3 2.3,18.2 2.3,20 4.1,19.1 5,19.1 6.8,20 7.7,20 9.5,19.1 10.5,19.1 12.3,20 13.2,20 15,19.1 15.9,19.1 17.7,20 18.6,20 
			18.6,18.2 		"/>
		<path fill="#FFFFFF" d="M12.3,2.7c0,0,6.4,3.8,6.4,9.1c0,0.3,0,0.9,0,0.9h-6.4V2.7z"/>
		<polygon fill="#FFFFFF" points="11.4,0 11.4,12.7 1.4,12.7 		"/>
		<polygon fill="#FFFFFF" points="5,15.5 6.8,16.4 7.7,16.4 9.5,15.5 10.5,15.5 12.3,16.4 13.2,16.4 15,15.5 15.6,15.5 17.7,13.6 
			3.2,13.6 3.2,15.9 4.1,15.5 		"/>
	</g>
</g>
</svg>
