<?xml version="1.0" encoding="utf-8"?>
<!-- Generator: Adobe Illustrator 18.1.1, SVG Export Plug-In . SVG Version: 6.00 Build 0)  -->
<svg version="1.1" id="Icons" xmlns="http://www.w3.org/2000/svg" xmlns:xlink="http://www.w3.org/1999/xlink" x="0px" y="0px"
	 width="20px" height="20px" viewBox="0 0 20 20" enable-background="new 0 0 20 20" xml:space="preserve">
<g>
	<g>
		<path fill="#FFFFFF" d="M18.2,9.5V2.3h-0.9V1.4H3.6v0.9H2.7v7.3h0.9v0.9h4.5V8.6h0.9V7.7h2.7v0.9h0.9v1.8H20V9.5H18.2z M10,5H5.5
			L4.5,4.1l0.9-0.9H10l0.9,0.9L10,5z M15.5,5h-1.8l-0.9-0.9l0.9-0.9h1.8l0.9,0.9L15.5,5z"/>
		<path fill="#FFFFFF" d="M9.1,8.6h2.7v2.7H9.1V8.6z M10,10.5h0.9V9.5H10V10.5z"/>
		<polygon fill="#FFFFFF" points="7.3,12.3 19.1,12.3 20,13.2 20,17.7 19.1,18.6 0.9,18.6 0,17.7 0,13.2 0.9,12.3 3.6,12.3 
			3.6,13.2 1.8,13.2 0.9,14.1 0.9,16.8 1.8,17.7 9.1,17.7 10,16.8 10,14.1 9.1,13.2 7.3,13.2 		"/>
		<polygon fill="#FFFFFF" points="5,11.4 5.9,11.4 5.9,15 7.3,15 5.5,16.8 3.6,15 5,15 		"/>
	</g>
</g>
</svg>
