<?xml version="1.0" encoding="utf-8"?>
<!-- Generator: Adobe Illustrator 18.1.1, SVG Export Plug-In . SVG Version: 6.00 Build 0)  -->
<svg version="1.1" id="Layer_1" xmlns:sketch="http://www.bohemiancoding.com/sketch/ns"
	 xmlns="http://www.w3.org/2000/svg" xmlns:xlink="http://www.w3.org/1999/xlink" x="0px" y="0px" width="20px" height="20px"
	 viewBox="-87 89 20 20" enable-background="new -87 89 20 20" xml:space="preserve">
<g>
	<g id="viewpoint" transform="translate(4.000000, 0.000000)" sketch:type="MSLayerGroup">
		<path id="Fill-3_2_" sketch:type="MSShapeGroup" fill="#FFFFFF" d="M-84.7,99c0,1.2-0.9,2.1-2,2.1c-1.1,0-2-0.9-2-2.1
			c0-1.2,0.9-2.1,2-2.1C-85.6,96.9-84.7,97.8-84.7,99"/>
		<path id="Fill-4_2_" sketch:type="MSShapeGroup" fill="#FFFFFF" d="M-83.4,98.4v1.3l10,0.8v-2.8L-83.4,98.4"/>
		<path id="Fill-5_2_" sketch:type="MSShapeGroup" fill="#FFFFFF" d="M-85.5,95.7l1,0.6l4.1-5.9l-2.3-1.4L-85.5,95.7"/>
		<path id="Fill-6_2_" sketch:type="MSShapeGroup" fill="#FFFFFF" d="M-83.5,97.8l7.4-3.6l-1.3-2.5l-6.7,5L-83.5,97.8z"/>
		<path id="Fill-7_2_" sketch:type="MSShapeGroup" fill="#FFFFFF" d="M-85.5,102.3l1-0.6l4.1,5.9l-2.3,1.4L-85.5,102.3"/>
		<path id="Fill-8_2_" sketch:type="MSShapeGroup" fill="#FFFFFF" d="M-84.1,101.3l0.6-1.1l7.4,3.6l-1.3,2.5L-84.1,101.3"/>
	</g>
	<desc>Created with Sketch.</desc>
	<title>scenic-viewpoint-white-24</title>
</g>
</svg>
