<?xml version="1.0" encoding="utf-8"?>
<!-- Generator: Adobe Illustrator 18.1.1, SVG Export Plug-In . SVG Version: 6.00 Build 0)  -->
<svg version="1.1" id="Icons" xmlns="http://www.w3.org/2000/svg" xmlns:xlink="http://www.w3.org/1999/xlink" x="0px" y="0px"
	 width="20px" height="20px" viewBox="0 0 20 20" enable-background="new 0 0 20 20" xml:space="preserve">
<g>
	<g>
		<polygon fill="#FFFFFF" points="3.6,4.5 4.5,4.5 4.5,3.6 4.8,3.6 3.6,1.8 0,1.8 2.7,4.5 3.4,5.5 3.6,5.5 		"/>
		<polygon fill="#FFFFFF" points="14.5,11.8 9.1,10 5.5,4.5 4.5,4.5 4.5,5.5 3.6,5.5 3.6,5.9 8.2,12.7 13.6,13.6 18.2,18.2 
			19.1,17.3 19.1,16.4 		"/>
		<polygon fill="#FFFFFF" points="10.8,7.3 15.5,9.1 14.6,10.9 10,9.1 		"/>
		<path fill="#FFFFFF" d="M18,12.2l0.6,0.9l1.4-1.5L18.8,11c0.1-0.8-0.4-1.5-1.2-1.8c-0.9-0.3-1.8,0.3-2,1.2c-0.3,0.9,0.3,1.8,1.2,2
			C17.2,12.5,17.6,12.4,18,12.2z"/>
	</g>
</g>
</svg>
