<?xml version="1.0" encoding="utf-8"?>
<!-- Generator: Adobe Illustrator 18.1.1, SVG Export Plug-In . SVG Version: 6.00 Build 0)  -->
<svg version="1.1" id="Layer_1" xmlns="http://www.w3.org/2000/svg" xmlns:xlink="http://www.w3.org/1999/xlink" x="0px" y="0px"
	 width="20px" height="20px" viewBox="0 0 20 20" enable-background="new 0 0 20 20" xml:space="preserve">
<g>
	<g>
		<path fill="#FFFFFF" d="M18.3,19.9c-0.4,0-0.8-0.5-1.1-0.6C16.8,19.1,16.5,19,16,19c-0.4,0-0.8,0.1-1.2,0.3
			c-0.3,0.2-0.7,0.6-1.1,0.6c-0.4,0-0.8-0.5-1.1-0.6c-0.4-0.2-0.8-0.3-1.2-0.3c-0.4,0-0.8,0.1-1.2,0.3c-0.3,0.2-0.7,0.6-1.1,0.6
			S8.4,19.4,8,19.3C7.7,19.1,7.3,19,6.9,19c-0.4,0-0.8,0.1-1.2,0.3c-0.3,0.2-0.7,0.6-1.1,0.6c-0.4,0-0.8-0.5-1.1-0.6
			C3.1,19.1,2.7,19,2.3,19c-0.4,0-0.8,0.1-1.2,0.3c-0.3,0.2-0.7,0.6-1.1,0.6v-1.7c0.4,0,0.8-0.5,1.1-0.6c0.4-0.2,0.7-0.3,1.2-0.3
			c0.4,0,0.8,0.1,1.2,0.3c0.3,0.1,0.7,0.6,1.1,0.6c0.4,0,0.8-0.5,1.1-0.6c0.4-0.2,0.7-0.3,1.2-0.3c0.4,0,0.8,0.1,1.2,0.3
			c0.3,0.1,0.7,0.6,1.1,0.6s0.8-0.5,1.1-0.6c0.4-0.2,0.7-0.3,1.2-0.3c0.4,0,0.8,0.1,1.2,0.3c0.3,0.1,0.7,0.6,1.1,0.6
			c0.4,0,0.8-0.5,1.1-0.6c0.4-0.2,0.7-0.3,1.2-0.3c0.4,0,0.8,0.1,1.2,0.3c0.3,0.1,0.7,0.6,1.1,0.6L18.3,19.9L18.3,19.9z"/>
		<path fill="#FFFFFF" d="M19.6,8.6l-2.9,0.9L15.5,8c0.5-0.3,1.4-0.8,1.9-1.1c0.2-0.1,0.4-0.5,0.4-0.7l0.6-2.5l0.9,2.5
			c0.1,0.3,0.5,0.1,0.4-0.2l-0.9-2.6l0.2-0.1c0.5-0.2,0.2-0.9-0.3-0.8l-0.2,0.1l-0.9-2.5C17.4,0,17,0.1,17.1,0.4L18,2.9l-0.1,0l0,0
			c-0.5,0.1-2.7,0.7-3.1,0.6c-0.5-0.1-1-0.2-1.5-0.2c-0.4-0.1-0.6,0-1,0.3c-0.2,0.1-1.4,0.9-2.6,1.7c-1.4,1-3.1,2.6-3.1,2.6L4.3,8.7
			c-0.6,0-1.1-0.8-1.5-1.2l-1-0.9c-0.1-0.1-0.2-0.1-0.3,0L0.1,7C-0.1,7,0,7.2,0.1,7.3l2.4,3.5c0.3,0.4,1,0.6,1.4,0.5L10,10l0.1,0
			l0,1.9l-4.5,1.7c-0.1,0-0.2,0.1-0.1,0.2c0,0,0.1,0.2,0.1,0.3c0,0.1,0.1,0.2,0.3,0.2c0.4,0,1.6-0.1,3.1-0.3
			c0.9-0.2,8.4-2.8,9.8-3.5c1-0.8,1.3-1.2,1.3-1.2C20,9.2,20,9.1,20,9l-0.1-0.3C19.8,8.6,19.8,8.5,19.6,8.6z M10.6,11.7l0-1.9
			L15,8.2l1.3,1.5L10.6,11.7z M11.8,4.4l1.1,1.4C11.3,6.3,9.2,7.1,9,7.2c-0.1,0-0.2,0-0.2-0.1c0-0.1,0-0.1-0.1-0.2
			c0-0.1,0-0.2,0.1-0.3c0.1-0.1,0.7-0.6,1.1-0.9C10.6,5.2,11.3,4.7,11.8,4.4z M14.8,4.3c0,0.1-0.1,0.7-0.1,0.7s0,0.1-0.2,0.2
			c-0.2,0.1-0.5,0.2-1,0.4l-1.2-1.5c0,0,0.1-0.1,0.1-0.1c0.3-0.2,0.4-0.2,0.8-0.2c0,0,1.3,0.2,1.4,0.2C14.8,4,14.9,4.1,14.8,4.3z"/>
	</g>
</g>
</svg>
