<?xml version="1.0" encoding="utf-8"?>
<!-- Generator: Adobe Illustrator 18.1.1, SVG Export Plug-In . SVG Version: 6.00 Build 0)  -->
<svg version="1.1" id="Icons" xmlns="http://www.w3.org/2000/svg" xmlns:xlink="http://www.w3.org/1999/xlink" x="0px" y="0px"
	 width="20px" height="20px" viewBox="0 0 20 20" enable-background="new 0 0 20 20" xml:space="preserve">
<g>
	<g>
		<path fill="#FFFFFF" d="M2.5,4.8L1.5,4.5C1.2,4.5,1,4.6,0.9,4.8L0,8.7c0,0.2,0.1,0.4,0.3,0.5l1.1,0.3c0.2,0,0.3,0,0.4-0.2V6.8h0.6
			l0.4-1.2V5h0.1C2.7,4.9,2.6,4.8,2.5,4.8z"/>
		<path fill="#FFFFFF" d="M8.3,9L6.4,8.5L5.8,6.4C5.2,5.9,4.5,5.9,4.5,5.9c-0.4,0-0.6,0.7-0.8,0.9H3L2.7,8v1.5H2.4l-2.1,8.7l0,0v0.2
			c0,0.5,0.5,0.9,0.9,0.9s0.8-0.3,0.9-0.6L3.7,12l1.5,6.7c0.1,0.5,0.5,0.7,0.9,0.7c0.5,0,0.9-0.5,0.9-0.9v-0.2L5,9.5l0.2-0.8
			l0.1,0.6c0.1,0.4,0.5,0.5,0.5,0.5l2.2,0.5H8c0.4,0,0.6-0.3,0.6-0.6C8.7,9.3,8.5,9.1,8.3,9z"/>
		<polygon fill="#FFFFFF" points="10.9,0.5 10.9,4.1 8.2,2.3 		"/>
		<path fill="#FFFFFF" d="M10.9,19.5c0,0,0-5.8,0-6.5c0.4-0.4,2.8-3,2.8-3c0.2-0.2,0.2-0.4,0.2-0.5c0-0.2-0.1-0.4-0.2-0.5
			c-0.3-0.3-0.8-0.3-1.1,0l-3.5,3.3v7.3H10.9z"/>
		<path fill="#FFFFFF" d="M13.6,19.5L13.6,19.5c-0.5,0-0.9-0.4-0.9-0.9c0-0.5,0.4-0.9,0.9-0.9s0.9,0.4,0.9,0.9
			C14.5,19.2,14.2,19.5,13.6,19.5z"/>
		<path fill="#FFFFFF" d="M16.4,19.5L16.4,19.5c-0.5,0-0.9-0.4-0.9-0.9c0-0.5,0.4-0.9,0.9-0.9c0.5,0,0.9,0.4,0.9,0.9
			C17.3,19.2,16.9,19.5,16.4,19.5z"/>
		<path fill="#FFFFFF" d="M19.1,16.8L19.1,16.8c-0.5,0-0.9-0.4-0.9-0.9s0.4-0.9,0.9-0.9c0.5,0,0.9,0.4,0.9,0.9S19.6,16.8,19.1,16.8z
			"/>
		<path fill="#FFFFFF" d="M19.1,19.5L19.1,19.5c-0.5,0-0.9-0.4-0.9-0.9c0-0.5,0.4-0.9,0.9-0.9c0.5,0,0.9,0.4,0.9,0.9
			C20,19.2,19.6,19.5,19.1,19.5z"/>
		<path fill="#FFFFFF" d="M19.1,14.1L19.1,14.1c-0.5,0-0.9-0.4-0.9-0.9s0.4-0.9,0.9-0.9c0.5,0,0.9,0.4,0.9,0.9S19.6,14.1,19.1,14.1z
			"/>
		<path fill="#FFFFFF" d="M19.1,5.9L19.1,5.9c-0.5,0-0.9-0.4-0.9-0.9s0.4-0.9,0.9-0.9C19.6,4.1,20,4.5,20,5S19.6,5.9,19.1,5.9z"/>
		<path fill="#FFFFFF" d="M13.6,3.2L13.6,3.2c-0.5,0-0.9-0.4-0.9-0.9s0.4-0.9,0.9-0.9s0.9,0.4,0.9,0.9S14.2,3.2,13.6,3.2z"/>
		<path fill="#FFFFFF" d="M16.4,3.2L16.4,3.2c-0.5,0-0.9-0.4-0.9-0.9s0.4-0.9,0.9-0.9c0.5,0,0.9,0.4,0.9,0.9S16.9,3.2,16.4,3.2z"/>
		<path fill="#FFFFFF" d="M19.1,8.6L19.1,8.6c-0.5,0-0.9-0.4-0.9-0.9c0-0.5,0.4-0.9,0.9-0.9c0.5,0,0.9,0.4,0.9,0.9
			C20,8.3,19.6,8.6,19.1,8.6z"/>
		<path fill="#FFFFFF" d="M19.1,3.2L19.1,3.2c-0.5,0-0.9-0.4-0.9-0.9s0.4-0.9,0.9-0.9c0.5,0,0.9,0.4,0.9,0.9S19.6,3.2,19.1,3.2z"/>
		<path fill="#FFFFFF" d="M19.1,11.4L19.1,11.4c-0.5,0-0.9-0.4-0.9-0.9c0-0.5,0.4-0.9,0.9-0.9c0.5,0,0.9,0.4,0.9,0.9
			C20,11,19.6,11.4,19.1,11.4z"/>
		<path fill="#FFFFFF" d="M5.2,5H4.8C4.2,5,3.6,4.5,3.6,3.8V3.5c0-0.6,0.5-1.2,1.2-1.2h0.4c0.6,0,1.2,0.5,1.2,1.2v0.4
			C6.4,4.5,5.8,5,5.2,5z"/>
	</g>
</g>
</svg>
