<?xml version="1.0" encoding="utf-8"?>
<!-- Generator: Adobe Illustrator 18.1.1, SVG Export Plug-In . SVG Version: 6.00 Build 0)  -->
<svg version="1.1" id="Icons" xmlns="http://www.w3.org/2000/svg" xmlns:xlink="http://www.w3.org/1999/xlink" x="0px" y="0px"
	 width="20px" height="20px" viewBox="0 0 20 20" enable-background="new 0 0 20 20" xml:space="preserve">
<g>
	<g>
		<path fill="#FFFFFF" d="M4.5,11.6C4.4,12,4.6,12.3,5,12.4c0.4,0.1,0.6-0.2,0.7-0.5c0.1-0.4-0.2-0.6-0.5-0.7S4.5,11.3,4.5,11.6z"/>
		<path fill="#FFFFFF" d="M5,10.2c0.1-0.4-0.2-0.6-0.5-0.6S3.9,9.7,3.8,10c-0.1,0.4,0.2,0.6,0.5,0.6C4.6,10.7,4.9,10.5,5,10.2z"/>
		<circle fill="#FFFFFF" cx="3.7" cy="8.5" r="0.5"/>
		<circle fill="#FFFFFF" cx="3.1" cy="6.9" r="0.5"/>
		<circle fill="#FFFFFF" cx="2.5" cy="5.4" r="0.5"/>
		<circle fill="#FFFFFF" cx="1.8" cy="3.7" r="0.5"/>
		<path fill="#FFFFFF" d="M6.7,9.4C6.7,9,7,8.7,7.4,8.8c0.4,0,0.6,0.3,0.5,0.6c0,0.4-0.3,0.6-0.6,0.5C7,10,6.7,9.7,6.7,9.4z"/>
		<circle fill="#FFFFFF" cx="6.4" cy="8.1" r="0.5"/>
		<circle fill="#FFFFFF" cx="5.5" cy="6.8" r="0.5"/>
		<circle fill="#FFFFFF" cx="4.5" cy="5.5" r="0.5"/>
		<circle fill="#FFFFFF" cx="3.5" cy="4.3" r="0.5"/>
		<circle fill="#FFFFFF" cx="2.5" cy="3" r="0.5"/>
		<path fill="#FFFFFF" d="M8.5,6.7c-0.4,0-0.6-0.3-0.6-0.5c0-0.4,0.3-0.6,0.5-0.6C8.7,5.5,9,5.8,9,6.1C9,6.5,8.7,6.7,8.5,6.7z"/>
		<path fill="#FFFFFF" d="M7.7,5.2c0,0.3-0.2,0.5-0.5,0.6C6.8,5.9,6.5,5.5,6.5,5.2s0.3-0.5,0.5-0.6C7.4,4.5,7.6,4.8,7.7,5.2z"/>
		<path fill="#FFFFFF" d="M6.4,4.2c0,0.3-0.2,0.5-0.5,0.5c-0.3,0-0.5-0.2-0.5-0.5c0-0.3,0.3-0.5,0.5-0.5C6.1,3.6,6.4,3.9,6.4,4.2z"
			/>
		<circle fill="#FFFFFF" cx="4.5" cy="3.3" r="0.5"/>
		<circle fill="#FFFFFF" cx="3.3" cy="2.3" r="0.5"/>
		<circle fill="#FFFFFF" cx="4" cy="1.5" r="0.5"/>
		<circle fill="#FFFFFF" cx="5.7" cy="2.2" r="0.5"/>
		<circle fill="#FFFFFF" cx="7.4" cy="2.9" r="0.5"/>
		<circle fill="#FFFFFF" cx="9" cy="3.5" r="0.5"/>
		<circle fill="#FFFFFF" cx="10.6" cy="4.3" r="0.5"/>
		<polygon fill="#FFFFFF" points="0,0.9 0.9,0.9 0.9,0 4.5,0 4.5,0.9 3.6,0.9 3.6,1.8 2.7,1.8 2.7,2.7 1.8,2.7 1.8,3.6 0.9,3.6 
			0.9,4.5 0,4.5 		"/>
		<circle fill="#FFFFFF" cx="10.5" cy="8.6" r="2.3"/>
		<path fill="#FFFFFF" d="M12.7,11.8v-0.9h0.9V10h0.9V9.1h0.9V8.2h0.9V7.3h0.9V6.4h0.9V5.5h0.9L20,6.4v0.9v0.9h-0.9v0.9h-0.9V10
			h-0.9v0.9h-0.9v0.9h-0.9v0.9h-0.9V20H8.2v-3.6H4.5v-1.8h0.9v-0.9h0.9v-0.9h0.9v-0.9H12.7z M9.1,14.5H10v1.8H9.1v0.9h1.8v-3.6H9.1
			V14.5z"/>
	</g>
</g>
</svg>
