<?xml version="1.0" encoding="utf-8"?>
<!-- Generator: Adobe Illustrator 18.1.1, SVG Export Plug-In . SVG Version: 6.00 Build 0)  -->
<svg version="1.1" id="Layer_1" xmlns:sketch="http://www.bohemiancoding.com/sketch/ns"
	 xmlns="http://www.w3.org/2000/svg" xmlns:xlink="http://www.w3.org/1999/xlink" x="0px" y="0px" width="20px" height="20px"
	 viewBox="-87 89 20 20" enable-background="new -87 89 20 20" xml:space="preserve">
<g>
	<path id="symbol-copy-2" sketch:type="MSShapeGroup" fill="#FFFFFF" d="M-76.1,99v8.2l0,0h0.9l0.9,0.9v0.9h-5.5v-0.9l0.9-0.9h0.9
		V99h-5.5c-0.5,0-0.9-0.4-0.9-0.9v-6.4c0-0.5,0.4-0.9,0.9-0.9h5.5v-0.9c0-0.5,0.4-0.9,0.9-0.9c0.5,0,0.9,0.4,0.9,0.9v0.9h5.5
		c0.5,0,0.9,0.4,0.9,0.9v6.4c0,0.5-0.4,0.9-0.9,0.9H-76.1L-76.1,99z M-82.5,92.6h10.9v0.9h-10.9V92.6z M-82.5,94.5h10.9v0.9h-10.9
		V94.5z M-82.5,96.3h10.9v0.9h-10.9V96.3z"/>
	<desc>Created with Sketch.</desc>
	<title>sign-white-24</title>
</g>
</svg>
