<?xml version="1.0" encoding="utf-8"?>
<!-- Generator: Adobe Illustrator 18.1.1, SVG Export Plug-In . SVG Version: 6.00 Build 0)  -->
<svg version="1.1" id="Icons" xmlns="http://www.w3.org/2000/svg" xmlns:xlink="http://www.w3.org/1999/xlink" x="0px" y="0px"
	 width="20px" height="20px" viewBox="0 0 20 20" enable-background="new 0 0 20 20" xml:space="preserve">
<g>
	<g>
		<path fill="#FFFFFF" d="M19.4,16.2l-2.6-1l-1.1-2h-0.3v-0.5l-0.5-1c0,0-0.2-0.4-0.7-0.5L7.9,8.7L4.2,2.3C4,2.1,3.5,1.4,3.1,1.4
			C2.4,1.4,1.8,2.3,1.8,3c0,0.2,0.1,0.5,0.2,0.5l4.6,7.8l-2.4-0.9H3.4L3,10.7l11.7,4.6l0,0l0.4,0.5h0.4v0.5c0.1,0.1,0.3,0.2,0.5,0.3
			l1.4,0.5c-0.9,0.9-2.3,0.5-2.3,0.5l-0.3-0.1h-0.3v-0.1L1.3,12.3H0.5L0,12.5l14.9,5.9c1.7,0.6,3.2-0.9,3.2-0.9l0,0l0.7,0.3l0,0
			c0.1,0,0.2,0,0.3,0c0.5,0,0.9-0.4,0.9-0.9C19.9,16.6,19.7,16.3,19.4,16.2z"/>
		<circle fill="#FFFFFF" cx="18.1" cy="11.4" r="1.8"/>
	</g>
</g>
</svg>
