<?xml version="1.0" encoding="utf-8"?>
<!-- Generator: Adobe Illustrator 18.1.1, SVG Export Plug-In . SVG Version: 6.00 Build 0)  -->
<svg version="1.1" id="Icons" xmlns="http://www.w3.org/2000/svg" xmlns:xlink="http://www.w3.org/1999/xlink" x="0px" y="0px"
	 width="20px" height="20px" viewBox="0 0 20 20" enable-background="new 0 0 20 20" xml:space="preserve">
<g>
	<g>
		<rect y="17.3" fill="#FFFFFF" width="7.3" height="0.9"/>
		<polygon fill="#FFFFFF" points="18.2,17.3 9.1,17.3 9.1,18.2 18.2,18.2 20,16.4 20,15.5 		"/>
		<polygon fill="#FFFFFF" points="14.5,16.4 19.1,12.7 17.3,10 13.6,10 12.7,7.3 11.8,7.3 12.7,10 12.7,10.9 11.8,11.8 10.9,11.8 
			9.1,10.9 9.1,10 10.9,10 11.8,9.1 10.9,8.2 9.1,8.2 9.1,6.4 8.2,6.4 7.3,6.4 7.3,5.5 6.4,5.5 6.4,6.4 5.5,6.4 5.5,11.8 3.6,11.8 
			2.7,12.7 0.9,15.5 1.8,16.4 		"/>
		<polygon fill="#FFFFFF" points="9.1,4.5 10,4.5 10,2.7 9.1,2.7 9.1,1.8 7.3,1.8 7.3,2.7 6.4,2.7 6.4,4.5 7.3,4.5 7.3,5.5 9.1,5.5 
					"/>
	</g>
</g>
</svg>
