<?xml version="1.0" encoding="utf-8"?>
<!-- Generator: Adobe Illustrator 18.1.1, SVG Export Plug-In . SVG Version: 6.00 Build 0)  -->
<svg version="1.1" id="Layer_1" xmlns:sketch="http://www.bohemiancoding.com/sketch/ns"
	 xmlns="http://www.w3.org/2000/svg" xmlns:xlink="http://www.w3.org/1999/xlink" x="0px" y="0px" width="20px" height="20px"
	 viewBox="-87 89 20 20" enable-background="new -87 89 20 20" xml:space="preserve">
<g>
	<path fill="#FFFFFF" d="M-71.6,93.5h-2.6l2.4-0.9c0.2-0.1,0.3-0.4,0.3-0.6c-0.1-0.2-0.4-0.3-0.6-0.3l-2.5,1l2.1-2.1
		c0.2-0.2,0.2-0.5,0-0.6c-0.2-0.2-0.5-0.2-0.6,0l-2.9,2.9v-3c0-0.5-0.4-0.9-0.9-0.9c-0.5,0-0.9,0.4-0.9,0.9v3l-2.9-2.9
		c-0.2-0.2-0.5-0.2-0.6,0c-0.2,0.2-0.2,0.5,0,0.6l2.1,2.1l-2.5-1c-0.2-0.1-0.5,0-0.6,0.3c-0.1,0.2,0,0.5,0.3,0.6l2.4,0.9h-2.6
		c-0.5,0-0.9,0.4-0.9,0.9v13.6c0,0.5,0.4,0.9,0.9,0.9h10.9c0.5,0,0.9-0.4,0.9-0.9V94.5C-70.6,94-71,93.5-71.6,93.5z M-77.9,107.2
		h-3.6v-6.4h3.6V107.2z M-77.9,99h-3.6v-3.6h3.6V99z M-72.5,107.2h-3.6v-6.4h3.6V107.2z M-72.4,99h-3.6v-3.6h3.6V99z"/>
</g>
</svg>
