<?xml version="1.0" encoding="utf-8"?>
<!-- Generator: Adobe Illustrator 18.1.1, SVG Export Plug-In . SVG Version: 6.00 Build 0)  -->
<svg version="1.1" id="Layer_1" xmlns="http://www.w3.org/2000/svg" xmlns:xlink="http://www.w3.org/1999/xlink" x="0px" y="0px"
	 width="20px" height="20px" viewBox="0 0 20 20" enable-background="new 0 0 20 20" xml:space="preserve">
<g>
	<path fill="#FFFFFF" d="M19.4,4.7V2c0-1.1-0.7-2-1.8-2s-1.8,0.9-1.8,2v2.7c-1.8,0.1-3.9,0.6-4.6,0.8c-4.9,1.1-8.4,2.6-9,3
		C1.1,9,0.4,10.2,1.5,11s8.9,1.2,8.5,3c-0.5,1.8-7.5,5.5-9.6,6h14.2c0,0,4.6-3.8,4.9-4.9c0.8-2.7-0.8-3.7-3.4-4.2
		c-2.5-0.5-6.6-1.2-7.1-1.5C8.4,9.1,8.1,8.7,8.5,8.3C10.5,6.3,18.5,5.2,19.4,4.7z"/>
</g>
</svg>
