<?xml version="1.0" encoding="utf-8"?>
<!-- Generator: Adobe Illustrator 18.1.1, SVG Export Plug-In . SVG Version: 6.00 Build 0)  -->
<svg version="1.1" id="Icons" xmlns="http://www.w3.org/2000/svg" xmlns:xlink="http://www.w3.org/1999/xlink" x="0px" y="0px"
	 width="20px" height="20px" viewBox="0 0 20 20" enable-background="new 0 0 20 20" xml:space="preserve">
<g>
	<g>
		<polygon fill="#FFFFFF" points="2.3,8.2 2.3,20 19.5,20 19.5,18.2 4.1,18.2 4.1,7.3 		"/>
		<polygon fill="#FFFFFF" points="0.5,7.3 0.5,8.6 19.5,1.4 19.5,0 		"/>
		<polygon fill="#FFFFFF" points="6.8,9.1 6.8,10 5.9,10 5.9,12.7 6.8,12.7 6.8,10.9 7.7,10.9 7.7,11.8 6.8,13.6 6.8,17.3 7.7,17.3 
			7.7,13.6 8.6,13.6 9.5,17.3 10.5,17.3 9.5,12.7 13.2,12.7 13.2,17.3 14.1,17.3 14.1,11.8 16.8,8.2 18.6,9.1 18.6,8.2 16.8,6.4 
			16.8,5.5 13.2,9.1 		"/>
	</g>
</g>
</svg>
