<?xml version="1.0" encoding="utf-8"?>
<!-- Generator: Adobe Illustrator 18.1.1, SVG Export Plug-In . SVG Version: 6.00 Build 0)  -->
<svg version="1.1" id="Icons" xmlns="http://www.w3.org/2000/svg" xmlns:xlink="http://www.w3.org/1999/xlink" x="0px" y="0px"
	 width="20px" height="20px" viewBox="0 0 20 20" enable-background="new 0 0 20 20" xml:space="preserve">
<g>
	<g>
		<path fill="#FFFFFF" d="M18.2,8.2c0,0-0.7,2.7-3.6,2.7C14.5,10.9,14.4,9,18.2,8.2z"/>
		<path fill="#FFFFFF" d="M15.5,13c0.5-0.5,1.2-0.8,1.9-0.8c1.5,0,2.6,1.2,2.6,2.7v0.2l0,0c-0.1,0.5-0.3,1.4-0.6,2.2
			c0,0-0.7,1.5-1.4,2.1l-0.1,0.1c-0.3,0.3-0.7,0.5-1.2,0.5c-0.5,0-1-0.5-1.4-0.9c-0.3,0.5-0.8,0.9-1.4,0.9c-0.5,0-0.8-0.2-1.2-0.5
			l-0.1-0.1c-0.6-0.6-1.4-2.1-1.4-2.1c-0.5-0.9-0.6-1.6-0.6-2.2l0,0v-0.2c0-1.5,1.2-2.7,2.6-2.7C14.3,12.3,15,12.5,15.5,13"/>
		<polygon fill="#FFFFFF" points="3.6,0 7.3,0 7.3,1.8 3.6,1.8 		"/>
		<path fill="#FFFFFF" d="M6.4,2.7H2.7c0,0-0.6,0.2-1.1,0.6L0.2,5.3C0.1,5.5,0,5.4,0,5.5v13.5C0,19.5,0.5,20,0.9,20h7.3
			c0.4,0,0.9-0.5,0.9-0.9V5.5C9.1,5.5,8.7,3,6.4,2.7z M3.6,3.6v4.5H2.7v0.9H1.8L0.9,10V9.1V5.5h0.9V4.5h0.9L3.6,3.6z"/>
	</g>
</g>
</svg>
