<?xml version="1.0" encoding="utf-8"?>
<!-- Generator: Adobe Illustrator 18.1.1, SVG Export Plug-In . SVG Version: 6.00 Build 0)  -->
<svg version="1.1" id="Icons" xmlns="http://www.w3.org/2000/svg" xmlns:xlink="http://www.w3.org/1999/xlink" x="0px" y="0px"
	 width="20px" height="20px" viewBox="0 0 20 20" enable-background="new 0 0 20 20" xml:space="preserve">
<g>
	<g>
		<polygon fill="#FFFFFF" points="0,14.5 0.9,14.5 2.7,15.5 3.6,15.5 5.5,14.5 6.4,14.5 8.2,15.5 9.1,15.5 10.9,14.5 11.8,14.5 
			13.6,15.5 14.5,15.5 16.4,14.5 17.3,14.5 19.1,15.5 20,15.5 20,17.3 19.1,17.3 17.3,16.4 16.4,16.4 14.5,17.3 13.6,17.3 
			11.8,16.4 10.9,16.4 9.1,17.3 8.2,17.3 6.4,16.4 5.5,16.4 3.6,17.3 2.7,17.3 0.9,16.4 0,16.4 		"/>
		<polygon fill="#FFFFFF" points="5.5,12.7 6.4,12.7 8.2,13.6 9.1,13.6 10.9,12.7 11.8,12.7 13.6,13.6 14.5,13.6 15.9,12.9 
			11.8,6.4 16.4,5.5 18.2,4.5 18.2,3.6 16.4,2.7 9.1,3.6 8.2,4.5 8.2,5.5 10,9.1 2.7,13.6 3.6,13.6 		"/>
		<circle fill="#FFFFFF" cx="17.7" cy="9.5" r="2.3"/>
	</g>
</g>
</svg>
