<?xml version="1.0" encoding="utf-8"?>
<!-- Generator: Adobe Illustrator 18.1.1, SVG Export Plug-In . SVG Version: 6.00 Build 0)  -->
<svg version="1.1" id="Icons" xmlns="http://www.w3.org/2000/svg" xmlns:xlink="http://www.w3.org/1999/xlink" x="0px" y="0px"
	 width="20px" height="20px" viewBox="0 0 20 20" enable-background="new 0 0 20 20" xml:space="preserve">
<g>
	<g>
		<path fill="#FFFFFF" d="M10.5,0C9.5,0.1,6,1.6,5.9,9.7C5.8,18.2,9.5,20,10.5,20v-5.5c-0.8,0-1-1-1.2-2.7c-0.1-1.2-0.2-2.2,0-3.6
			c0.1-1,0.4-2.7,1.2-2.7V0z"/>
		<polygon fill="#FFFFFF" points="11.4,0 13.2,0 14.1,0.9 14.1,4.5 13.2,5.5 11.4,5.5 		"/>
		<polygon fill="#FFFFFF" points="11.4,14.5 13.2,14.5 14.1,15.5 14.1,19.1 13.2,20 11.4,20 		"/>
	</g>
</g>
</svg>
