<?xml version="1.0" encoding="utf-8"?>
<!-- Generator: Adobe Illustrator 18.1.1, SVG Export Plug-In . SVG Version: 6.00 Build 0)  -->
<svg version="1.1" id="Layer_1" xmlns:sketch="http://www.bohemiancoding.com/sketch/ns"
	 xmlns="http://www.w3.org/2000/svg" xmlns:xlink="http://www.w3.org/1999/xlink" x="0px" y="0px" width="20px" height="20px"
	 viewBox="-87 89 20 20" enable-background="new -87 89 20 20" xml:space="preserve">
<g>
	<path id="symbol-copy-2" sketch:type="MSShapeGroup" fill="#FFFFFF" d="M-87,89h20v8l-20-6V89z M-68,106h1v3h-1V106z M-71,102h2v4
		h-2V102z M-69,105h2v1h-2V105z M-70,101c0.6,0,1-0.4,1-1s-0.4-1-1-1s-1,0.4-1,1S-70.6,101-70,101z M-73,103h1v5h-1V103z M-72,107h3
		v1h-3V107z M-75,104h1v3h-1V104z M-78,100h2v4h-2V100z M-76,103h2v1h-2V103z M-77,99c0.6,0,1-0.4,1-1s-0.4-1-1-1s-1,0.4-1,1
		S-77.6,99-77,99z M-80,101h1v5h-1V101z M-79,105h3v1h-3V105z M-82,102h1v3h-1V102z M-85,98h2v4h-2V98z M-83,101h2v1h-2V101z
		 M-84,97c0.6,0,1-0.4,1-1s-0.4-1-1-1s-1,0.4-1,1S-84.6,97-84,97z M-87,99h1v5h-1V99z M-86,103h3v1h-3V103z"/>
	<desc>Created with Sketch.</desc>
	<title>theater-white-24</title>
</g>
</svg>
