<?xml version="1.0" encoding="utf-8"?>
<!-- Generator: Adobe Illustrator 18.1.1, SVG Export Plug-In . SVG Version: 6.00 Build 0)  -->
<svg version="1.1" id="Icons" xmlns="http://www.w3.org/2000/svg" xmlns:xlink="http://www.w3.org/1999/xlink" x="0px" y="0px"
	 width="20px" height="20px" viewBox="0 0 20 20" enable-background="new 0 0 20 20" xml:space="preserve">
<g>
	<g>
		<path fill="#FFFFFF" d="M6.5,3.4c0.1-0.3-0.1-0.5-0.4-0.5L4.8,2.5C4.6,2.5,4.4,2.6,4.3,2.9L3.2,7.5C3.1,7.6,3.3,7.9,3.6,8l1.3,0.3
			C5.1,8.4,5.4,8.2,5.4,8L6.5,3.4z"/>
		<path fill="#FFFFFF" d="M4.1,18.6v0.2c0,0.7,0.5,1.2,1.1,1.2c0.5,0,0.9-0.4,1.1-0.8l1.9-7.9l1.8,7.8c0.1,0.5,0.5,0.8,1.1,0.8
			c0.6,0,1.1-0.5,1.1-1.1c0-0.1,0-0.2,0-0.3L9.6,8.3l0.2-0.9L10,8.1c0.2,0.5,0.5,0.5,0.5,0.5l2.5,0.6h0.2c0.5,0,0.7-0.4,0.7-0.7
			c0-0.4-0.3-0.6-0.5-0.7l-2.2-0.5l-0.6-2.5c-0.4-1.1-2-1.2-2-1.2C8,3.6,7.5,4.7,7.5,4.7L4.1,18.6z"/>
		<path fill="#FFFFFF" d="M10.4,2.7H9.6c-0.5,0-1-0.5-1-1V1c0-0.5,0.5-1,1-1h0.7c0.5,0,1,0.5,1,1v0.7C11.4,2.3,10.9,2.7,10.4,2.7z"
			/>
		<rect x="15.7" y="4.5" fill="#FFFFFF" width="1.1" height="15.5"/>
	</g>
</g>
</svg>
