<?xml version="1.0" encoding="utf-8"?>
<!-- Generator: Adobe Illustrator 18.1.1, SVG Export Plug-In . SVG Version: 6.00 Build 0)  -->
<svg version="1.1" id="Layer_1" xmlns="http://www.w3.org/2000/svg" xmlns:xlink="http://www.w3.org/1999/xlink" x="0px" y="0px"
	 width="20px" height="20px" viewBox="0 0 20 20" enable-background="new 0 0 20 20" xml:space="preserve">
<g>
	<g>
		<path fill="#FFFFFF" d="M11.8,6.4H10c-1,0-1,1.8,0,1.8h2.7c0.2,0,0.9-1.8,0.9-1.8v12.7c0,0.5,0.4,0.9,0.9,0.9
			c0.5,0,0.9-0.4,0.9-0.9v-7.3h0.9v7.3c0,0.5,0.4,0.9,0.9,0.9s0.9-0.4,0.9-0.9V6.4h0.9v4.5c0,1,0.5,1,0.9,0V5.5
			c0-1.1-1.5-0.9-2.7-0.9h-2.7c-0.7,0-1.4,0.3-1.8,0.9L11.8,6.4z"/>
		<path fill="#FFFFFF" d="M2.7,14.5c1.4,0,2.7,1.3,2.7,2.7V20h1.8l3.2-8.1l0-2.7l-9.3,0l-0.2,5.3H2.7z"/>
		<path fill="#FFFFFF" d="M8.8,5.3L8.8,5.3L8.4,5.4L8.2,5.1l0,0L7.8,5.3L7.7,4.9l0,0L7.3,5.1L7.1,4.7h0L6.8,4.9L6.6,4.5v0L6.2,4.7
			L6,4.3L4.9,7.5C4.8,7.7,5,8,5.2,8.1L7,8.7c0.3,0.1,0.5,0,0.6-0.3L8.8,5.3z"/>
		<polygon fill="#FFFFFF" points="7.2,2.1 6.7,1.6 0.6,8.8 1.1,9.3 		"/>
		<circle fill="#FFFFFF" cx="16.4" cy="1.8" r="1.8"/>
		<path fill="#FFFFFF" d="M2.3,15.5c-1.3,0-2.3,1-2.3,2.3S1,20,2.3,20s2.3-1,2.3-2.3S3.5,15.5,2.3,15.5z M2.3,19.1
			c-0.8,0-1.4-0.6-1.4-1.4c0-0.8,0.6-1.4,1.4-1.4s1.4,0.6,1.4,1.4C3.6,18.5,3,19.1,2.3,19.1z"/>
	</g>
</g>
</svg>
