<?xml version="1.0" encoding="utf-8"?>
<!-- Generator: Adobe Illustrator 18.1.1, SVG Export Plug-In . SVG Version: 6.00 Build 0)  -->
<svg version="1.1" id="Layer_1" xmlns:sketch="http://www.bohemiancoding.com/sketch/ns"
	 xmlns="http://www.w3.org/2000/svg" xmlns:xlink="http://www.w3.org/1999/xlink" x="0px" y="0px" width="20px" height="20px"
	 viewBox="-87 89 20 20" enable-background="new -87 89 20 20" xml:space="preserve">
<g>
	<g id="HFC-Tunnel" transform="translate(2.000000, 0.000000)" sketch:type="MSLayerGroup">
		<path id="Fill-3_2_" sketch:type="MSShapeGroup" fill="#FFFFFF" d="M-81.9,102.4v-3.5c0-1.4,1.2-2.5,2.7-2.5
			c1.5,0,2.7,1.1,2.7,2.5v3.5H-81.9"/>
		<path id="Fill-4_2_" sketch:type="MSShapeGroup" fill="#FFFFFF" d="M-79,90.9c3.9,0,7,3,7,6.7v8.6h2l0-8.6c0-4.7-4-8.6-9-8.6
			c-5,0-9,3.8-9,8.6l0,8.6l2,0v-8.6C-86,93.9-82.9,90.9-79,90.9"/>
		<path id="Fill-5_2_" sketch:type="MSShapeGroup" fill="#FFFFFF" d="M-78.7,103.1h-1.1l-0.1,0.7h1.4L-78.7,103.1"/>
		<path id="Fill-6_2_" sketch:type="MSShapeGroup" fill="#FFFFFF" d="M-78.3,105h-1.7l-0.2,1.1h2.1L-78.3,105"/>
		<path id="Fill-7_2_" sketch:type="MSShapeGroup" fill="#FFFFFF" d="M-77.9,107.5h-2.7l-0.3,1.5h3.2L-77.9,107.5"/>
	</g>
	<desc>Created with Sketch.</desc>
	<title>tunnel-white-24</title>
</g>
</svg>
