<?xml version="1.0" encoding="utf-8"?>
<!-- Generator: Adobe Illustrator 18.1.1, SVG Export Plug-In . SVG Version: 6.00 Build 0)  -->
<svg version="1.1" id="Layer_1" xmlns="http://www.w3.org/2000/svg" xmlns:xlink="http://www.w3.org/1999/xlink" x="0px" y="0px"
	 width="20px" height="20px" viewBox="0 0 20 20" enable-background="new 0 0 20 20" xml:space="preserve">
<g>
	<g>
		<path fill="#FFFFFF" d="M20,16.8c-0.4,0-0.9-0.5-1.2-0.7c-0.4-0.2-0.8-0.3-1.3-0.3c-0.4,0-0.9,0.1-1.3,0.3
			c-0.4,0.2-0.8,0.7-1.2,0.7c-0.4,0-0.9-0.5-1.2-0.7c-0.4-0.2-0.8-0.3-1.3-0.3c-0.4,0-0.9,0.1-1.3,0.3c-0.4,0.2-0.8,0.7-1.2,0.7
			s-0.9-0.5-1.2-0.7C8.4,16,8,15.8,7.5,15.8c-0.5,0-0.9,0.1-1.3,0.3c-0.4,0.2-0.8,0.7-1.2,0.7c-0.4,0-0.9-0.5-1.2-0.7
			c-0.4-0.2-0.8-0.3-1.3-0.3c-0.5,0-0.9,0.1-1.3,0.3c-0.4,0.2-0.8,0.5-1.2,0.7v-2c0.4-0.2,0.9-0.3,1.2-0.5c0.4-0.2,0.8-0.3,1.3-0.3
			c0.4,0,0.9,0.1,1.3,0.3c0.4,0.2,0.8,0.3,1.2,0.3c0.4,0,0.9-0.1,1.2-0.3c0.4-0.2,0.8-0.3,1.3-0.3s0.9,0.1,1.3,0.3
			c0.4,0.2,0.8,0.3,1.2,0.3c0.4,0,0.9-0.1,1.2-0.3c0.4-0.2,0.8-0.3,1.3-0.3c0.5,0,0.9,0.1,1.3,0.3c0.4,0.2,0.8,0.3,1.2,0.3
			c0.4,0,0.9-0.1,1.2-0.3c0.4-0.2,0.8-0.3,1.3-0.3c0.5,0,0.9,0.1,1.3,0.3c0.4,0.2,0.8,0.3,1.2,0.3L20,16.8z"/>
		<path fill="#FFFFFF" d="M17.6,9.4c0.2-0.1,0.4-0.3,0.4-0.6V8.3h0.6v-2l0,0c0-0.4-0.3-0.8-0.7-0.9l-0.7-1.7
			c-0.1-0.3-0.4-0.4-0.6-0.4h-3.7c-0.3,0-0.5,0.2-0.6,0.4l-0.7,1.7c-0.4,0.1-0.7,0.5-0.7,0.9l0,0v2h0.6v0.6c0,0.2,0.1,0.5,0.4,0.6
			H8.3c0.2-0.1,0.4-0.3,0.4-0.6l0-0.6h0.6v-2l0,0c0-0.4-0.3-0.8-0.7-0.9L7.9,3.6C7.8,3.4,7.5,3.2,7.2,3.2H3.6C3.3,3.2,3,3.4,2.9,3.6
			L2.2,5.3C1.8,5.4,1.5,5.8,1.5,6.2l0,0v2h0.6v0.6c0,0.2,0.1,0.5,0.4,0.6H0V11h1.7l1.4,1.6c0.2,0.1,0.5,0.1,0.7,0.2
			C4.1,13,4.6,13.1,5,13.1c0.4,0,0.9-0.1,1.2-0.3c0.4-0.2,0.8-0.3,1.3-0.3s0.9,0.1,1.3,0.3c0.4,0.2,0.8,0.3,1.2,0.3
			c0.4,0,0.9-0.1,1.2-0.3c0.4-0.2,0.8-0.3,1.3-0.3c0.5,0,0.9,0.1,1.3,0.3c0.4,0.2,0.8,0.3,1.2,0.3c0.4,0,0.9-0.1,1.2-0.3
			c0.3-0.1,0.6-0.2,0.9-0.3l1.3-1.6H20V9.4H17.6z M3,9.4c0.2-0.1,0.4-0.3,0.4-0.6l0-0.6h4.1v0.6c0,0.2,0.1,0.5,0.4,0.6H3z M12.2,9.4
			c0.2-0.1,0.4-0.3,0.4-0.6V8.3h4.1v0.6c0,0.2,0.1,0.5,0.4,0.6H12.2z M2.7,5.9l0.7-2.1c0-0.1,0.1-0.1,0.2-0.1h3.6
			c0.1,0,0.2,0.1,0.2,0.1l0.8,2.1v0.9H7.3V5.9H3.6v0.9H2.7V5.9z M11.8,5.9l0.8-2.1c0-0.1,0.1-0.1,0.2-0.1h3.6c0.1,0,0.2,0.1,0.2,0.1
			l0.7,2.1v0.9h-0.9V5.9h-3.6v0.9h-0.9V5.9z"/>
	</g>
</g>
</svg>
