<?xml version="1.0" encoding="utf-8"?>
<!-- Generator: Adobe Illustrator 18.1.1, SVG Export Plug-In . SVG Version: 6.00 Build 0)  -->
<svg version="1.1" id="Layer_1" xmlns:sketch="http://www.bohemiancoding.com/sketch/ns"
	 xmlns="http://www.w3.org/2000/svg" xmlns:xlink="http://www.w3.org/1999/xlink" x="0px" y="0px" width="20px" height="20px"
	 viewBox="-87 89 20 20" enable-background="new -87 89 20 20" xml:space="preserve">
<g>
	<g>
		<path fill="#FFFFFF" d="M-75.2,105.2c3.6-0.8,6.4-4.1,6.4-8c0-4.5-3.7-8.2-8.2-8.2s-8.2,3.7-8.2,8.2c0,3.9,2.7,7.2,6.4,8v2h-4.5
			v1.8h12.7v-1.8h-4.5V105.2z M-82.5,97.2c0-3,2.4-5.5,5.5-5.5c3,0,5.5,2.4,5.5,5.5c0,3-2.4,5.5-5.5,5.5
			C-80,102.6-82.5,100.2-82.5,97.2z"/>
		<circle fill="#FFFFFF" cx="-77" cy="97.2" r="2.7"/>
	</g>
</g>
</svg>
