<?xml version="1.0" encoding="utf-8"?>
<!-- Generator: Adobe Illustrator 18.1.1, SVG Export Plug-In . SVG Version: 6.00 Build 0)  -->
<svg version="1.1" id="Icons" xmlns="http://www.w3.org/2000/svg" xmlns:xlink="http://www.w3.org/1999/xlink" x="0px" y="0px"
	 width="20px" height="20px" viewBox="0 0 20 20" enable-background="new 0 0 20 20" xml:space="preserve">
<g>
	<g>
		<polygon fill="#FFFFFF" points="18.2,15.5 17.3,15.5 13.6,10 8.2,10 8.2,8.2 10.9,8.2 11.8,7.3 10.9,6.4 8.2,6.4 8.2,5.5 7.3,4.5 
			6.4,4.5 5.5,5.5 5.5,10.9 7.3,12.7 12.7,12.7 16.4,17.3 18.2,17.3 19.1,16.4 19.1,15.5 		"/>
		<path fill="#FFFFFF" d="M12.2,15.5c-0.8,1.6-2.5,2.7-4.5,2.7c-2.7,0-5-2.3-5-5c0-1.5,0.7-2.9,1.8-3.8V7.3
			c-2.2,1.2-3.6,3.3-3.6,5.9C0.9,16.9,4,20,7.7,20c2.5,0,4.7-1.4,5.9-3.5v-1.1H12.2z"/>
		<polygon fill="#FFFFFF" points="6.4,0 8.2,0 8.2,0.9 9.1,0.9 9.1,2.7 8.2,2.7 8.2,3.6 6.4,3.6 6.4,2.7 5.5,2.7 5.5,0.9 6.4,0.9 		
			"/>
	</g>
</g>
</svg>
