<?xml version="1.0" encoding="utf-8"?>
<!-- Generator: Adobe Illustrator 18.1.1, SVG Export Plug-In . SVG Version: 6.00 Build 0)  -->
<svg version="1.1" id="Layer_1" xmlns="http://www.w3.org/2000/svg" xmlns:xlink="http://www.w3.org/1999/xlink" x="0px" y="0px"
	 width="20px" height="20px" viewBox="0 0 20 20" enable-background="new 0 0 20 20" xml:space="preserve">
<g>
	<g>
		<path fill="#FFFFFF" d="M5.1,18.2v-7.3H3.3v7.3c0,0.3-0.7,0.9-0.9,0.9V20H6v-0.9C5.8,19,5.1,18.5,5.1,18.2z"/>
		<path fill="#FFFFFF" d="M8.3,4.5c0.8,1.2,1.3,2.6,1.3,4.2c0,1.5-0.5,3-1.3,4.2l1.4,0.9c1-1.5,1.6-3.2,1.6-5.1
			c0-1.9-0.6-3.7-1.6-5.1L8.3,4.5z"/>
		<path fill="#FFFFFF" d="M11,2.7c1.2,1.7,1.8,3.7,1.8,6c0,2.2-0.7,4.2-1.8,5.9l1.4,0.9c1.3-2,2.1-4.3,2.1-6.9
			c0-2.6-0.8-4.9-2.1-6.9L11,2.7z"/>
		<path fill="#FFFFFF" d="M13.6,0.9c1.5,2.2,2.4,4.9,2.4,7.7c0,2.9-0.9,5.5-2.4,7.7l1.4,0.9c1.7-2.5,2.6-5.4,2.6-8.6
			c0-3.2-1-6.2-2.7-8.7L13.6,0.9z"/>
		<circle fill="#FFFFFF" cx="4.2" cy="8.1" r="1.8"/>
	</g>
</g>
</svg>
