<?xml version="1.0" encoding="utf-8"?>
<!-- Generator: Adobe Illustrator 18.1.1, SVG Export Plug-In . SVG Version: 6.00 Build 0)  -->
<svg version="1.1" id="Icons" xmlns="http://www.w3.org/2000/svg" xmlns:xlink="http://www.w3.org/1999/xlink" x="0px" y="0px"
	 width="20px" height="20px" viewBox="0 0 20 20" enable-background="new 0 0 20 20" xml:space="preserve">
<g>
	<g>
		<polygon fill="#FFFFFF" points="19.1,17.8 17.4,17 16.5,17 14.8,17.8 13.9,17.8 12.2,17 11.3,17 9.6,17.8 8.7,17.8 7.8,17.8 
			7.8,17.4 7,17 6.1,17 4.3,17.8 3.5,17.8 1.7,17 1.7,18.7 3.5,19.6 4.3,19.6 6.1,18.7 7,18.7 8.7,19.6 9.6,19.6 11.3,18.7 
			12.2,18.7 13.9,19.6 14.8,19.6 16.5,18.7 17.4,18.7 19.1,19.6 20,19.6 20,17.8 		"/>
		<path fill="#FFFFFF" d="M9.3,15.7l-2.2-2.1c-0.1-0.1-0.3-0.1-0.4-0.1H4.3L4,12.6H3.5v-0.9h0.2l-0.2-0.5h1.2c0,0,0.3,0,0.3-0.1
			l2-0.9c0.2-0.1,0.3-0.3,0.3-0.4c0-0.3-0.3-0.6-0.5-0.6c-0.1,0-0.2,0-0.2,0l-1.8,0.9H2.2c-0.1,0-0.2,0-0.3,0.1v0.7H1
			C0.9,11,0.9,11,0.9,11.2c0,0.1,0,0.2,0,0.3l1.2,2.8c0.2,0.4,0.6,0.7,1,0.7h3.2l1.9,1.8c0.3,0.3,0.8,0.3,1,0
			C9.7,16.4,9.7,15.9,9.3,15.7z"/>
		<path fill="#FFFFFF" d="M6.1,0.4l6.2,15.7l6.9-4.3C18.7,5.4,11.7,1.1,6.1,0.4z M15.7,9.1c-1.3,0-5.2,0-5.2,0V8.3c0,0,3.9,0,5.2,0
			c1.6,0,2.6,1.7,2.6,1.7v0.9h-0.9C17.4,10.9,16.3,9.1,15.7,9.1z"/>
		<circle fill="#FFFFFF" cx="1.3" cy="8.7" r="1.3"/>
	</g>
</g>
</svg>
