<?xml version="1.0" encoding="utf-8"?>
<!-- Generator: Adobe Illustrator 18.1.1, SVG Export Plug-In . SVG Version: 6.00 Build 0)  -->
<svg version="1.1" id="Layer_1" xmlns="http://www.w3.org/2000/svg" xmlns:xlink="http://www.w3.org/1999/xlink" x="0px" y="0px"
	 viewBox="0 0 12 12" enable-background="new 0 0 12 12" xml:space="preserve">
<path opacity="0.2" d="M9.635,2.071C8.774,2.071,8.02,3.323,7.591,4C7.17,3.284,6.325,2,5.434,2C4.096,2,3,3.084,3,4.422v0
	c0,1.003,0.458,2.2,1.701,3.639C5.003,8.411,5.322,8.728,5.647,9.03L7,7H5l5-4L8,6h2L5.911,9.271
	c0.536,0.471,1.086,0.881,1.623,1.21c0.955-0.585,1.94-1.405,2.816-2.42c1.214-1.406,1.654-2.58,1.649-3.568
	C12,3.156,10.973,2.071,9.635,2.071z"/>
<path fill="#FFFFFF" d="M8.635,1.071C7.774,1.071,7.02,2.323,6.591,3C6.17,2.284,5.325,1,4.434,1C3.096,1,2,2.084,2,3.422v0
	c0,1.003,0.458,2.2,1.701,3.639C4.003,7.411,4.322,7.728,4.647,8.03L6,6H4l5-4L7,5h2L4.911,8.271
	c0.536,0.471,1.086,0.881,1.623,1.21c0.955-0.585,1.94-1.405,2.816-2.42c1.214-1.406,1.654-2.58,1.649-3.568
	C11,2.156,9.973,1.071,8.635,1.071z"/>
</svg>
