<?xml version="1.0" encoding="utf-8"?>
<!-- Generator: Adobe Illustrator 18.1.1, SVG Export Plug-In . SVG Version: 6.00 Build 0)  -->
<svg version="1.1" id="Layer_1" xmlns="http://www.w3.org/2000/svg" xmlns:xlink="http://www.w3.org/1999/xlink" x="0px" y="0px"
	 viewBox="0 0 18 18" enable-background="new 0 0 18 18" xml:space="preserve">
<path fill="#FFFFFF" d="M12.584,2.103c-1.243,0-2.332,0.65-2.953,1.628C9.023,2.696,7.802,2,6.516,2C4.584,2,3,3.566,3,5.499v0
	c0,1.449,0.661,3.178,2.457,5.257c1.266,1.465,2.713,2.65,4.093,3.495c1.38-0.845,2.802-2.03,4.068-3.495
	c1.753-2.03,2.389-3.726,2.382-5.154C16,3.669,14.516,2.103,12.584,2.103z M8,11l1-3H6l5-4l-1,3h3L8,11z"/>
</svg>
