<?xml version="1.0" encoding="utf-8"?>
<!-- Generator: Adobe Illustrator 18.1.1, SVG Export Plug-In . SVG Version: 6.00 Build 0)  -->
<svg version="1.1" id="Layer_1" xmlns="http://www.w3.org/2000/svg" xmlns:xlink="http://www.w3.org/1999/xlink" x="0px" y="0px"
	 viewBox="0 0 24 24" enable-background="new 0 0 24 24" xml:space="preserve">
<path fill="#FFFFFF" d="M16.533,3.135c-1.626,0-3.05,0.851-3.861,2.128C11.877,3.911,10.28,3,8.598,3C6.071,3,4,5.048,4,7.575v0
	c0,1.895,0.865,4.156,3.213,6.874c1.655,1.916,3.548,3.466,5.352,4.571c1.804-1.105,3.665-2.655,5.32-4.571
	c2.293-2.655,3.124-4.873,3.115-6.74C21,5.183,19.06,3.135,16.533,3.135z M9.473,15.55L11.792,11h-3.4l7.394-6.383L13.492,9h3.4
	L9.473,15.55z"/>
</svg>
