<?xml version="1.0" encoding="utf-8"?>
<!-- Generator: Adobe Illustrator 21.1.0, SVG Export Plug-In . SVG Version: 6.00 Build 0)  -->
<svg version="1.1" id="Layer_1" xmlns="http://www.w3.org/2000/svg" xmlns:xlink="http://www.w3.org/1999/xlink" x="0px" y="0px"
	 width="24px" height="24px" viewBox="0 0 24 24" enable-background="new 0 0 24 24" xml:space="preserve">
<g>
	<path fill="#FFFFFF" d="M12.5,18.8l-0.6-1.1H9.5c-0.1-0.2,0.1-0.6,0.1-0.6c0.5-0.6,2.1-1.3,2.1-1.3l-0.4-6.2L5,9.3
		c-1.1-0.1-1-1-1-1c0-0.6,1.1-0.7,1.1-0.7l6.2-0.7L11.8,5h-0.8V4.8h1.2l0.4-0.6l0.4,0.6h1.2V5h-0.8l0.5,1.8l6.2,0.7
		c0,0,1.1,0.2,1.1,0.7c0,0,0.1,0.7-1,0.8l-6.3,0.5l-0.5,6.3c0,0,1.6,0.7,2.1,1.3c0,0,0.2,0.4,0.1,0.6H13L12.5,18.8"/>
</g>
</svg>
