<?xml version="1.0" encoding="utf-8"?>
<!-- Generator: Adobe Illustrator 21.1.0, SVG Export Plug-In . SVG Version: 6.00 Build 0)  -->
<svg version="1.1" id="Layer_1" xmlns="http://www.w3.org/2000/svg" xmlns:xlink="http://www.w3.org/1999/xlink" x="0px" y="0px"
	 width="12px" height="12px" viewBox="0 0 12 12" enable-background="new 0 0 12 12" xml:space="preserve">
<g>
	<path d="M6.5,9.4L6.2,8.8H4.9C4.8,8.7,5,8.5,5,8.5c0.3-0.3,1.1-0.7,1.1-0.7L5.9,4.5L2.5,4.3C1.9,4.2,2,3.8,2,3.8
		c0-0.3,0.6-0.4,0.6-0.4L5.9,3l0.3-1H5.7V1.9h0.6l0.2-0.3l0.2,0.3h0.6v0.1H6.9l0.3,1l3.3,0.4c0,0,0.6,0.1,0.6,0.4
		c0,0,0.1,0.4-0.5,0.4L7.1,4.5L6.9,7.8c0,0,0.8,0.4,1.1,0.7c0,0,0.1,0.2,0.1,0.3H6.8L6.5,9.4"/>
</g>
</svg>
