<?xml version="1.0" encoding="utf-8"?>
<!-- Generator: Adobe Illustrator 21.1.0, SVG Export Plug-In . SVG Version: 6.00 Build 0)  -->
<svg version="1.1" id="Layer_1" xmlns="http://www.w3.org/2000/svg" xmlns:xlink="http://www.w3.org/1999/xlink" x="0px" y="0px"
	 width="18px" height="18px" viewBox="0 0 18 18" enable-background="new 0 0 18 18" xml:space="preserve">
<g>
	<path fill="#FFFFFF" d="M9.5,14.1L9,13.3H7.2c-0.1-0.2,0.1-0.5,0.1-0.5c0.4-0.5,1.6-1,1.6-1L8.6,7.1L3.7,6.8C2.9,6.7,3,6,3,6
		c0-0.5,0.8-0.6,0.8-0.6l4.7-0.6l0.4-1.4H8.3V3.3h0.9l0.3-0.5l0.3,0.5h0.9v0.2h-0.6l0.4,1.4l4.7,0.6c0,0,0.8,0.2,0.8,0.6
		c0,0,0.1,0.6-0.7,0.6l-4.8,0.4l-0.4,4.8c0,0,1.2,0.6,1.6,1c0,0,0.2,0.3,0.1,0.5H9.9L9.5,14.1"/>
</g>
</svg>
