<?xml version="1.0" encoding="utf-8"?>
<!-- Generator: Adobe Illustrator 18.1.1, SVG Export Plug-In . SVG Version: 6.00 Build 0)  -->
<svg version="1.1" xmlns="http://www.w3.org/2000/svg" xmlns:xlink="http://www.w3.org/1999/xlink" x="0px" y="0px"
	 viewBox="0 0 24 24" enable-background="new 0 0 24 24" xml:space="preserve">
	 <polygon points="11,4.5 11.7,3 12.5,3 13.3,4.5 13.3,9.2 21,13.8 21,15.4 20.2,15.4 14,13 13.3,13 13.3,17.7 14,17.7 14,18.5 
			14.8,19.2 14.8,20 14,20 12.5,19.2 11.7,19.2 10.2,20 9.4,20 9.4,19.2 10.2,18.5 10.2,17.7 11,17.7 11,13 10.2,13 4.8,15.4 
			4,15.4 4,13.8 11,9.2 		"/>
	
</svg>
