<?xml version="1.0" encoding="utf-8"?>
<!-- Generator: Adobe Illustrator 18.1.1, SVG Export Plug-In . SVG Version: 6.00 Build 0)  -->
<svg version="1.1" id="Layer_1" xmlns="http://www.w3.org/2000/svg" xmlns:xlink="http://www.w3.org/1999/xlink" x="0px" y="0px"
	 viewBox="0 0 18 18" enable-background="new 0 0 18 18" xml:space="preserve">
<g>
	<path fill="#231F20" d="M5.535,9c-1.381,0-2.5,1.119-2.5,2.5c0,1.381,1.119,2.5,2.5,2.5c1.381,0,2.5-1.119,2.5-2.5
		C8.035,10.119,6.915,9,5.535,9z M5.535,12.5c-0.552,0-1-0.448-1-1c0-0.552,0.448-1,1-1c0.552,0,1,0.448,1,1
		C6.535,12.052,6.087,12.5,5.535,12.5z"/>
	<path fill="#231F20" d="M13.535,9c-1.381,0-2.5,1.119-2.5,2.5c0,1.381,1.119,2.5,2.5,2.5c1.381,0,2.5-1.119,2.5-2.5
		C16.035,10.119,14.915,9,13.535,9z M13.535,12.5c-0.552,0-1-0.448-1-1c0-0.552,0.448-1,1-1c0.552,0,1,0.448,1,1
		C14.535,12.052,14.087,12.5,13.535,12.5z"/>
	<path fill="#231F20" d="M14.143,6.179V4.321h-0.15c-0.446,0-1.707,0.483-1.707,0.929c0,0.446,1.261,0.929,1.707,0.929H14.143z"/>
	<path fill="#231F20" d="M12.286,5.286l-0.706-1.41c-0.156-0.289-0.46-0.484-0.814-0.484H9.129c-0.153,0-0.491,0.93-0.338,0.93
		l1.637-0.002c0.133,0,0.335,0.364,0.393,0.49l0.512,0.938L12.286,5.286z"/>
	<path fill="#231F20" d="M15.021,7.485c0.214,0.061,0.37,0.258,0.37,0.491L14.2,7.977c-1.569,0-3.771,1.275-3.771,2.844H8.571
		c0-1.261-1.621-2.33-2.755-2.703L3.678,7.414l0.354-0.542C4.157,6.683,4.376,6.559,4.62,6.559c0.056,0,0.107,0.004,0.153,0.014
		L9.5,7.355c0.059,0.017,0.119,0.028,0.184,0.028c0.215,0,0.402-0.109,0.514-0.276l1.121-0.87L15.021,7.485z"/>
</g>
</svg>
