<?xml version="1.0" encoding="utf-8"?>
<!-- Generator: Adobe Illustrator 18.1.1, SVG Export Plug-In . SVG Version: 6.00 Build 0)  -->
<svg version="1.1" id="Layer_1" xmlns="http://www.w3.org/2000/svg" xmlns:xlink="http://www.w3.org/1999/xlink" x="0px" y="0px"
	 viewBox="0 0 12 12" enable-background="new 0 0 12 12" xml:space="preserve">
<g>
	<path fill="#231F20" d="M3.731,5.71C2.775,5.71,2,6.485,2,7.441c0,0.956,0.775,1.731,1.731,1.731c0.956,0,1.731-0.775,1.731-1.731
		C5.462,6.485,4.687,5.71,3.731,5.71z M3.731,8.133c-0.382,0-0.692-0.31-0.692-0.692c0-0.382,0.31-0.692,0.692-0.692
		c0.382,0,0.692,0.31,0.692,0.692C4.423,7.823,4.113,8.133,3.731,8.133z"/>
	<path fill="#231F20" d="M9.269,5.71c-0.956,0-1.731,0.775-1.731,1.731c0,0.956,0.775,1.731,1.731,1.731
		C10.225,9.172,11,8.397,11,7.441C11,6.485,10.225,5.71,9.269,5.71z M9.269,8.133c-0.382,0-0.692-0.31-0.692-0.692
		c0-0.382,0.31-0.692,0.692-0.692c0.382,0,0.692,0.31,0.692,0.692C9.962,7.823,9.652,8.133,9.269,8.133z"/>
	<path fill="#231F20" d="M9.69,3.757V2.471H9.587c-0.309,0-1.182,0.334-1.182,0.643c0,0.309,0.873,0.643,1.182,0.643H9.69z"/>
	<path fill="#231F20" d="M8.405,3.139L7.916,2.163c-0.108-0.2-0.318-0.335-0.564-0.335H6.219c-0.106,0-0.34,0.644-0.234,0.644
		l1.133-0.001c0.092,0,0.232,0.252,0.272,0.339l0.354,0.649L8.405,3.139z"/>
	<path fill="#231F20" d="M10.299,4.661c0.148,0.042,0.256,0.179,0.256,0.34L9.73,5.002c-1.086,0-2.611,0.883-2.611,1.969H5.833
		c0-0.873-1.122-1.613-1.907-1.872L2.445,4.612l0.245-0.375C2.777,4.106,2.928,4.02,3.098,4.02c0.039,0,0.074,0.003,0.106,0.01
		l3.272,0.542c0.041,0.012,0.082,0.019,0.128,0.019c0.149,0,0.279-0.075,0.356-0.191l0.776-0.602L10.299,4.661z"/>
</g>
</svg>
