<?xml version="1.0" encoding="utf-8"?>
<!-- Generator: Adobe Illustrator 18.1.1, SVG Export Plug-In . SVG Version: 6.00 Build 0)  -->
<svg version="1.1" id="Layer_1" xmlns="http://www.w3.org/2000/svg" xmlns:xlink="http://www.w3.org/1999/xlink" x="0px" y="0px"
	 viewBox="0 0 24 24" enable-background="new 0 0 24 24" xml:space="preserve">
<g>
	<path fill="#FFFFFF" d="M18.571,8.464V6.036h-0.196c-0.583,0-2.232,0.631-2.232,1.214c0,0.584,1.649,1.214,2.232,1.214H18.571z"/>
	<path fill="#FFFFFF" d="M16.143,7.297L15.22,5.454c-0.205-0.378-0.601-0.632-1.064-0.632h-2.141c-0.2,0-0.642,1.216-0.441,1.216
		l2.141-0.002c0.174,0,0.439,0.477,0.514,0.64l0.669,1.226L16.143,7.297z"/>
	<path fill="#FFFFFF" d="M19.72,10.173c0.279,0.08,0.484,0.338,0.484,0.642l-1.558,0.002c-2.052,0-4.932,1.667-4.932,3.719h-2.429
		c0-1.649-2.12-3.047-3.603-3.535L4.886,10.08L5.35,9.372c0.164-0.247,0.449-0.41,0.769-0.41c0.073,0,0.14,0.005,0.2,0.018
		l6.181,1.023c0.077,0.022,0.156,0.036,0.241,0.036c0.281,0,0.526-0.143,0.672-0.361l1.466-1.138L19.72,10.173z"/>
	<path fill="#FFFFFF" d="M7.036,12.107C5.359,12.107,4,13.466,4,15.143c0,1.677,1.359,3.036,3.036,3.036
		c1.677,0,3.036-1.359,3.036-3.036C10.071,13.466,8.712,12.107,7.036,12.107z M7.036,16.357c-0.671,0-1.214-0.544-1.214-1.214
		c0-0.671,0.544-1.214,1.214-1.214c0.671,0,1.214,0.544,1.214,1.214C8.25,15.814,7.706,16.357,7.036,16.357z"/>
	<path fill="#FFFFFF" d="M17.964,12.107c-1.677,0-3.036,1.359-3.036,3.036c0,1.677,1.359,3.036,3.036,3.036
		c1.677,0,3.036-1.359,3.036-3.036C21,13.466,19.641,12.107,17.964,12.107z M17.964,16.357c-0.671,0-1.214-0.544-1.214-1.214
		c0-0.671,0.544-1.214,1.214-1.214c0.671,0,1.214,0.544,1.214,1.214C19.179,15.814,18.635,16.357,17.964,16.357z"/>
</g>
</svg>
