<?xml version="1.0" encoding="utf-8"?>
<!-- Generator: Adobe Illustrator 18.1.1, SVG Export Plug-In . SVG Version: 6.00 Build 0)  -->
<svg version="1.1" xmlns="http://www.w3.org/2000/svg" xmlns:xlink="http://www.w3.org/1999/xlink" x="0px" y="0px"
	 viewBox="0 0 18 18" enable-background="new 0 0 18 18" xml:space="preserve">
	<path fill="#FFFFFF" d="M12.9,10c-1,0.6-2.2,1-3.4,1c-1.3,0-2.4-0.4-3.4-0.9l-0.8,1c1.2,0.7,2.6,1.2,4.2,1.2c1.6,0,3-0.4,4.2-1.2
			L12.9,10z"/>
	<path fill="#FFFFFF" d="M13.9,12.4c-1.3,0.9-2.8,1.4-4.4,1.4c-1.6,0-3.1-0.5-4.4-1.3l-0.7,1c1.5,1,3.2,1.6,5.1,1.6
			c1.9,0,3.7-0.6,5.1-1.6L13.9,12.4z"/>
	<polygon fill="#FFFFFF" points="7.2,5.7 6.2,6.6 6.2,8.5 7.2,8.5 7.2,6.6 8.1,6.6 8.1,9.4 10.9,9.4 10.9,6.6 11.8,6.6 11.8,8.5 
			12.8,8.5 12.8,6.6 11.8,5.7 		"/>
	<path fill="#FFFFFF" d="M9.5,4.8L9.5,4.8c-0.8,0-1.4-0.6-1.4-1.4S8.7,2,9.5,2s1.4,0.6,1.4,1.4S10.3,4.8,9.5,4.8z"/>
	
</svg>
