<?xml version="1.0" encoding="utf-8"?>
<!-- Generator: Adobe Illustrator 21.1.0, SVG Export Plug-In . SVG Version: 6.00 Build 0)  -->
<svg version="1.1" id="Layer_1" xmlns="http://www.w3.org/2000/svg" xmlns:xlink="http://www.w3.org/1999/xlink" x="0px" y="0px"
	 width="18px" height="18px" viewBox="0 0 18 18" enable-background="new 0 0 18 18" xml:space="preserve">
<polygon points="7.5,5.2 6.7,6.1 6.7,7.7 7.5,7.7 7.5,6.1 8.3,6.1 8.3,8.5 10.7,8.5 10.7,6.1 11.5,6.1 11.5,7.7 12.3,7.7 12.3,6.1 
	11.5,5.2 "/>
<path d="M9.5,4.4L9.5,4.4c-0.7,0-1.2-0.6-1.2-1.2S8.8,2,9.5,2s1.2,0.6,1.2,1.2S10.2,4.4,9.5,4.4z"/>
<path d="M5.4,9.3l-0.8,1.6c0,0,3.9,0.8,4.9,0.8s4.9-0.8,4.9-0.8l-0.8-1.6c0,0-3,0.7-4.1,0.7S5.4,9.3,5.4,9.3z"/>
<path d="M3.8,12.6L3,14.2c0,0,5.2,0.8,6.5,0.8s6.5-0.8,6.5-0.8l-0.8-1.6c0,0-4.4,0.9-5.7,0.9S3.8,12.6,3.8,12.6z"/>
</svg>
