<?xml version="1.0" encoding="utf-8"?>
<!-- Generator: Adobe Illustrator 21.1.0, SVG Export Plug-In . SVG Version: 6.00 Build 0)  -->
<svg version="1.1" id="Layer_1" xmlns="http://www.w3.org/2000/svg" xmlns:xlink="http://www.w3.org/1999/xlink" x="0px" y="0px"
	 width="24px" height="24px" viewBox="0 0 24 24" enable-background="new 0 0 24 24" xml:space="preserve">
<path d="M12.8,5.3h-0.6c-0.5,0-0.8-0.4-0.8-0.9V3.8c0-0.5,0.4-0.8,0.9-0.8c0,0,0,0,0,0h0.6c0.5,0,0.8,0.4,0.8,0.8v0.6
	C13.7,4.9,13.3,5.3,12.8,5.3L12.8,5.3z"/>
<polygon points="11.3,10.7 13.7,10.7 13.7,7.6 15,7.6 15,10 16,10 16,6.9 13.7,6.1 11.3,6.1 9,6.9 9,10 10,10 10,7.6 11.3,7.6 "/>
<path fill="#231F20" d="M21,19.5l-0.5-1.6c-2.7,0.3-5.4,0.5-8,0.5c-2.7,0-5.3-0.1-8-0.5L4,19.5c2.8,0.3,5.7,0.5,8.5,0.5
	C15.3,20,18.2,19.8,21,19.5z"/>
<path fill="#231F20" d="M5.5,14.8L5,16.4c2.4,0.2,4.9,0.4,7.5,0.4s5.1-0.2,7.5-0.4l-0.5-1.6c-2.3,0.2-4.7,0.4-7,0.4
	C10.2,15.2,7.8,15.1,5.5,14.8z"/>
<path fill="#231F20" d="M12.5,13.7c2.2,0,4.3-0.1,6.5-0.3l-0.5-1.6c-1.9,0.2-3.9,0.3-6,0.3s-4-0.2-5.9-0.3l-0.5,1.6
	C8.1,13.6,10.3,13.7,12.5,13.7z"/>
</svg>
