<?xml version="1.0" encoding="utf-8"?>
<!-- Generator: Adobe Illustrator 21.1.0, SVG Export Plug-In . SVG Version: 6.00 Build 0)  -->
<svg version="1.1" id="Layer_1" xmlns="http://www.w3.org/2000/svg" xmlns:xlink="http://www.w3.org/1999/xlink" x="0px" y="0px"
	 width="12px" height="12px" viewBox="0 0 12 12" enable-background="new 0 0 12 12" xml:space="preserve">
<polygon points="5.1,3.2 4.5,3.8 4,5 5,5 5.1,3.8 6,3.8 6,6 7,6 7,3.8 7.9,3.8 8,5 9,5 8.5,3.8 7.9,3.2 "/>
<path d="M6.5,2.7L6.5,2.7C6,2.7,5.7,2.3,5.7,1.8S6,1,6.5,1s0.8,0.4,0.8,0.8S7,2.7,6.5,2.7z"/>
<rect x="4" y="7" width="5" height="1"/>
<rect x="4" y="9" width="5" height="1"/>
<polygon points="2,9 4,10 4,9 3,8 "/>
<polygon points="11,9 9,10 9,9 10,8 "/>
<polygon points="3,7 4,8 4,7 4,6 3,6 "/>
<polygon points="10,6 9,6 9,7 9,8 10,7 "/>
<circle cx="6.5" cy="2" r="1"/>
</svg>
