<?xml version="1.0" encoding="utf-8"?>
<!-- Generator: Adobe Illustrator 21.1.0, SVG Export Plug-In . SVG Version: 6.00 Build 0)  -->
<svg version="1.1" id="Layer_1" xmlns="http://www.w3.org/2000/svg" xmlns:xlink="http://www.w3.org/1999/xlink" x="0px" y="0px"
	 width="24px" height="24px" viewBox="0 0 24 24" enable-background="new 0 0 24 24" xml:space="preserve">
<path d="M9,3h2.2l1.4,2.3L14,3h2l-2.2,3.4l2.4,3.6H14l-1.6-2.6L10.9,10H8.8l2.4-3.6L9,3z"/>
<path d="M16.5,14.5l-1.7-2.1v1.8c-0.4,0-0.6-0.1-1-0.1l-1.3-1.7l-0.1,1.8c-0.4,0-0.8,0-1.2,0.1l-1-1.3v1.6C9.8,14.8,9.3,14.9,9,15
	l-1.1-1.2v1.8c-0.2,0.1-0.5,0.4-0.7,0.5c-0.2-0.2-0.5-0.4-0.7-0.6c-0.5-0.4-1.8-0.6-2.4-1l1.5,2.1L4,18.7c0.6-0.2,1.9-0.6,2.4-1
	c0.2-0.1,0.5-0.4,0.7-0.6C8.7,18.2,11.3,20,14,20c1.9,0,3.5-1.5,4.9-2.1l0.5,1.6l0.6-2.2c0.4-0.2,0.6-0.5,1-0.7
	C20,15.6,18.4,14.9,16.5,14.5z M17,17h-1v-1h1V17z"/>
</svg>
