<?xml version="1.0" encoding="utf-8"?>
<!-- Generator: Adobe Illustrator 21.1.0, SVG Export Plug-In . SVG Version: 6.00 Build 0)  -->
<svg version="1.1" id="Layer_1" xmlns="http://www.w3.org/2000/svg" xmlns:xlink="http://www.w3.org/1999/xlink" x="0px" y="0px"
	 width="18px" height="18px" viewBox="0 0 18 18" enable-background="new 0 0 18 18" xml:space="preserve">
<path fill="#FFFFFF" d="M6.5,2h1.9l1.2,2l1.2-2h1.7l-1.9,2.9L12.7,8h-1.9L9.4,5.8L8.1,8H6.3l2.1-3.1L6.5,2z"/>
<path fill="#FFFFFF" d="M12.6,10.8l-1.3-1.6v1.4c-0.3,0-0.5-0.1-0.7-0.1l-1-1.3l-0.1,1.4c-0.3,0-0.6,0-0.9,0.1l-0.7-1v1.2
	c-0.3,0.1-0.6,0.2-0.9,0.3L6,10.3v1.4c-0.2,0.1-0.4,0.3-0.6,0.4c-0.2-0.2-0.4-0.3-0.6-0.5c-0.4-0.3-1.4-0.5-1.9-0.7l1.1,1.6L3,14
	c0.5-0.2,1.5-0.5,1.9-0.7C5,13.1,5.2,13,5.4,12.8C6.6,13.6,8,15,10,15c1.5,0,3.3-1.1,4.4-1.6l0.4,1.2l0.5-1.7
	c0.3-0.2,0.5-0.4,0.7-0.6C15.3,11.7,14,11.1,12.6,10.8z M13,13h-1v-1h1V13z"/>
</svg>
