<?xml version="1.0" encoding="utf-8"?>
<!-- Generator: Adobe Illustrator 21.1.0, SVG Export Plug-In . SVG Version: 6.00 Build 0)  -->
<svg version="1.1" id="Layer_1" xmlns="http://www.w3.org/2000/svg" xmlns:xlink="http://www.w3.org/1999/xlink" x="0px" y="0px"
	 width="12px" height="12px" viewBox="0 0 12 12" enable-background="new 0 0 12 12" xml:space="preserve">
<path fill="#FFFFFF" d="M4.5,1h1.3l0.8,1.3L7.4,1h1.1L7.2,2.9L8.6,5H7.4L6.4,3.5L5.6,5H4.4l1.4-2.1L4.5,1z"/>
<path fill="#FFFFFF" d="M9,7L7.7,6v1C7.5,7,7.4,6.9,7.2,6.9L6.5,6L6.4,7C6.2,7,6,7,5.8,7L5.3,6.3v0.8C5.1,7.2,4.8,7.3,4.6,7.4
	L4.1,6.7v1C3.9,7.8,3.8,7.9,3.7,7.9C3.5,7.8,3.4,7.8,3.3,7.6C3,7.4,2.3,7.3,2,7.1l0.8,1.1L2,9.3C2.3,9.2,3,9,3.3,8.8
	c0.1-0.1,0.3-0.2,0.4-0.3C4.5,9,5.6,10,7,10c1,0,2.1-0.8,2.9-1.1l0.3,0.8l0.3-1.2c0.2-0.1,0.3-0.3,0.5-0.4C10.5,7.7,10,7.2,9,7z
	 M9,8H8V7h1V8z"/>
</svg>
