<?xml version="1.0" encoding="UTF-8" standalone="no"?>
<svg width="18px" height="18px" viewBox="0 0 18 18" version="1.1" xmlns="http://www.w3.org/2000/svg" xmlns:xlink="http://www.w3.org/1999/xlink" xmlns:sketch="http://www.bohemiancoding.com/sketch/ns">
    <!-- Generator: Sketch 3.3.3 (12072) - http://www.bohemiancoding.com/sketch -->
    <title>atm-black-18</title>
    <desc>Created with Sketch.</desc>
    <defs></defs>
    <g id="atm" stroke="none" stroke-width="1" fill="none" fill-rule="evenodd" sketch:type="MSPage">
        <g id="atm-black-18" sketch:type="MSArtboardGroup" fill="#000000">
            <g id="symbol" sketch:type="MSLayerGroup" transform="translate(5.000000, 2.000000)">
                <path d="M1.82926829,8.24146341 C1.82926829,8.64146541 1.89756029,8.98292541 2.03414634,9.26585366 C2.17073239,9.5487819 2.36097439,9.7804869 2.60487805,9.96097561 C2.84878171,10.1414643 3.12926671,10.2731703 3.44634146,10.3560976 C3.76341622,10.4390248 4.10731522,10.4804878 4.47804878,10.4804878 C4.87805078,10.4804878 5.21951078,10.4341468 5.50243902,10.3414634 C5.78536727,10.24878 6.01463327,10.129269 6.1902439,9.98292683 C6.36585454,9.83658463 6.49268254,9.66829363 6.57073171,9.47804878 C6.64878088,9.28780393 6.68780488,9.09512293 6.68780488,8.9 C6.68780488,8.499998 6.59756188,8.204879 6.41707317,8.01463415 C6.23658446,7.82438929 6.03902546,7.69024429 5.82439024,7.61219512 C5.45365668,7.47560907 5.02195368,7.34634207 4.52926829,7.22439024 C4.0365829,7.10243841 3.4292719,6.94390341 2.70731707,6.74878049 C2.25853434,6.63170673 1.88536734,6.47804973 1.58780488,6.28780488 C1.29024241,6.09756002 1.05365941,5.88536702 0.87804878,5.65121951 C0.702438146,5.417072 0.578049146,5.168294 0.504878049,4.90487805 C0.431706951,4.6414621 0.395121951,4.3731721 0.395121951,4.1 C0.395121951,3.5731681 0.504876951,3.1170751 0.724390244,2.73170732 C0.943903537,2.34633954 1.23414454,2.02683054 1.59512195,1.77317073 C1.95609937,1.51951093 2.36585137,1.33170793 2.82439024,1.2097561 C3.28292912,1.08780427 3.74633912,1.02682927 4.21463415,1.02682927 C4.76097834,1.02682927 5.27560734,1.09756027 5.75853659,1.23902439 C6.24146583,1.38048851 6.66585183,1.59268151 7.03170732,1.87560976 C7.3975628,2.158538 7.6878038,2.507315 7.90243902,2.92195122 C8.11707424,3.33658744 8.22439024,3.81707044 8.22439024,4.36341463 L6.39512195,4.36341463 C6.34634122,3.69024054 6.11707522,3.21463554 5.70731707,2.93658537 C5.29755893,2.6585352 4.77561293,2.5195122 4.14146341,2.5195122 C3.9268282,2.5195122 3.7073182,2.5414632 3.48292683,2.58536585 C3.25853546,2.62926851 3.05365946,2.70243851 2.86829268,2.80487805 C2.6829259,2.90731759 2.5292689,3.04634059 2.40731707,3.22195122 C2.28536524,3.39756185 2.22439024,3.61707185 2.22439024,3.8804878 C2.22439024,4.25122137 2.33902324,4.54146237 2.56829268,4.75121951 C2.79756212,4.96097666 3.09755912,5.11951166 3.46829268,5.22682927 C3.50731727,5.23658541 3.66097427,5.27804841 3.92926829,5.35121951 C4.19756232,5.42439061 4.49755932,5.50487761 4.82926829,5.59268293 C5.16097727,5.68048824 5.48536427,5.76585324 5.80243902,5.84878049 C6.11951378,5.93170773 6.34634078,5.99268273 6.48292683,6.03170732 C6.82439195,6.13902493 7.12194995,6.28536493 7.37560976,6.47073171 C7.62926956,6.65609849 7.84146256,6.86829149 8.01219512,7.10731707 C8.18292768,7.34634266 8.30975568,7.60243766 8.39268293,7.87560976 C8.47561017,8.14878185 8.51707317,8.42194985 8.51707317,8.69512195 C8.51707317,9.28049073 8.39756217,9.78048573 8.15853659,10.195122 C7.919511,10.6097582 7.60488,10.9487792 7.21463415,11.2121951 C6.82438829,11.4756111 6.38049029,11.6682921 5.88292683,11.7902439 C5.38536337,11.9121957 4.87805137,11.9731707 4.36097561,11.9731707 C3.76585068,11.9731707 3.20488068,11.9000007 2.67804878,11.7536585 C2.15121688,11.6073163 1.69268488,11.3829283 1.30243902,11.0804878 C0.912193171,10.7780473 0.600001171,10.3902463 0.365853659,9.91707317 C0.131706146,9.44390007 0.00975614634,8.88536907 0,8.24146341 L1.82926829,8.24146341 Z" id="S" sketch:type="MSShapeGroup"></path>
                <rect id="Rectangle-4" sketch:type="MSShapeGroup" x="4" y="0" width="1" height="13"></rect>
            </g>
        </g>
    </g>
</svg>