<?xml version="1.0" encoding="utf-8"?>
<!-- Generator: Adobe Illustrator 21.0.2, SVG Export Plug-In . SVG Version: 6.00 Build 0)  -->
<svg version="1.1" id="Layer_1" xmlns:sketch="http://www.bohemiancoding.com/sketch/ns"
	 xmlns="http://www.w3.org/2000/svg" xmlns:xlink="http://www.w3.org/1999/xlink" x="0px" y="0px" width="18px" height="18px"
	 viewBox="0 0 18 18" enable-background="new 0 0 18 18" xml:space="preserve">
<path id="S" sketch:type="MSShapeGroup" fill="#FFFFFF" d="M7.1,10.2c0,0.4,0.1,0.7,0.2,1s0.3,0.5,0.6,0.7c0.2,0.2,0.5,0.3,0.8,0.4
	c0.3,0.1,0.7,0.1,1,0.1c0.4,0,0.7,0,1-0.1c0.3-0.1,0.5-0.2,0.7-0.4c0.2-0.1,0.3-0.3,0.4-0.5c0.1-0.2,0.1-0.4,0.1-0.6
	c0-0.4-0.1-0.7-0.3-0.9s-0.4-0.3-0.6-0.4c-0.4-0.1-0.8-0.3-1.3-0.4S8.7,8.9,7.9,8.7C7.5,8.6,7.1,8.5,6.8,8.3
	C6.5,8.1,6.3,7.9,6.1,7.7S5.8,7.2,5.7,6.9S5.6,6.4,5.6,6.1c0-0.5,0.1-1,0.3-1.4c0.2-0.4,0.5-0.7,0.9-1c0.4-0.3,0.8-0.4,1.2-0.6
	C8.5,3.1,9,3,9.5,3C10,3,10.5,3.1,11,3.2s0.9,0.4,1.3,0.6c0.4,0.3,0.7,0.6,0.9,1c0.2,0.4,0.3,0.9,0.3,1.4h-1.8
	c0-0.7-0.3-1.1-0.7-1.4C10.5,4.7,10,4.5,9.4,4.5c-0.2,0-0.4,0-0.7,0.1S8.3,4.7,8.1,4.8C7.9,4.9,7.8,5,7.6,5.2S7.5,5.6,7.5,5.9
	c0,0.4,0.1,0.7,0.3,0.9C8,7,8.3,7.1,8.7,7.2c0,0,0.2,0.1,0.5,0.1s0.6,0.2,0.9,0.2s0.7,0.2,1,0.3S11.6,8,11.7,8
	c0.3,0.1,0.6,0.3,0.9,0.4s0.5,0.4,0.6,0.6s0.3,0.5,0.4,0.8c0.1,0.3,0.1,0.5,0.1,0.8c0,0.6-0.1,1.1-0.4,1.5c-0.2,0.4-0.6,0.8-0.9,1
	c-0.4,0.3-0.8,0.5-1.3,0.6c-0.5,0.1-1,0.2-1.5,0.2c-0.6,0-1.2-0.1-1.7-0.2c-0.5-0.1-1-0.4-1.4-0.7c-0.4-0.3-0.7-0.7-0.9-1.2
	s-0.4-1-0.4-1.7H7.1z"/>
<rect id="Rectangle-4" x="9.2" y="2" sketch:type="MSShapeGroup" fill="#FFFFFF" width="1" height="13">
</rect>
</svg>
