<?xml version="1.0" encoding="UTF-8" standalone="no"?>
<svg width="24px" height="24px" viewBox="0 0 24 24" version="1.1" xmlns="http://www.w3.org/2000/svg" xmlns:xlink="http://www.w3.org/1999/xlink" xmlns:sketch="http://www.bohemiancoding.com/sketch/ns">
    <!-- Generator: Sketch 3.3.3 (12072) - http://www.bohemiancoding.com/sketch -->
    <title>atm-black-24</title>
    <desc>Created with Sketch.</desc>
    <defs></defs>
    <g id="atm" stroke="none" stroke-width="1" fill="none" fill-rule="evenodd" sketch:type="MSPage">
        <g id="atm-black-24" sketch:type="MSArtboardGroup" fill="#000000">
            <g id="symbol" sketch:type="MSLayerGroup" transform="translate(6.000000, 3.000000)">
                <path d="M2.82820856,10.5681818 C2.82820856,11.0432288 2.90931291,11.4487505 3.07152406,11.7847594 C3.23373521,12.1207682 3.45966878,12.3959437 3.74933155,12.6102941 C4.03899432,12.8246446 4.3721015,12.9810601 4.7486631,13.0795455 C5.1252247,13.1780308 5.53364307,13.2272727 5.97393048,13.2272727 C6.44897742,13.2272727 6.85449921,13.1722376 7.19050802,13.0621658 C7.52651683,12.9520939 7.79879575,12.8101613 8.00735294,12.6363636 C8.21591013,12.462566 8.36653251,12.2627017 8.4592246,12.0367647 C8.55191668,11.8108277 8.59826203,11.5819976 8.59826203,11.3502674 C8.59826203,10.8752204 8.49108842,10.5247337 8.27673797,10.2987968 C8.06238752,10.0728598 7.8277642,9.9135477 7.57286096,9.82085561 C7.13257356,9.65864447 6.61987815,9.5051255 6.03475936,9.36029412 C5.44964057,9.21546273 4.7283911,9.02718476 3.8709893,8.79545455 C3.33800981,8.65641642 2.89483243,8.47393161 2.54144385,8.24799465 C2.18805527,8.02205769 1.9070866,7.77005487 1.69852941,7.49197861 C1.48997222,7.21390235 1.34224642,6.91845076 1.25534759,6.60561497 C1.16844876,6.29277918 1.125,5.97415492 1.125,5.64973262 C1.125,5.02406104 1.25534629,4.48239979 1.51604278,4.02473262 C1.77673927,3.56706545 2.12143279,3.18761291 2.55013369,2.88636364 C2.97883459,2.58511436 3.46546074,2.36207737 4.01002674,2.21724599 C4.55459274,2.07241461 5.10494374,2 5.66109626,2 C6.30994086,2 6.92112013,2.08400094 7.49465241,2.25200535 C8.06818469,2.42000975 8.57219034,2.67201258 9.00668449,3.00802139 C9.44117864,3.3440302 9.78587217,3.75824174 10.0407754,4.25066845 C10.2956786,4.74309515 10.4231283,5.31372225 10.4231283,5.96256684 L8.25066845,5.96256684 C8.1927359,5.16309761 7.92045698,4.59826368 7.43382353,4.26804813 C6.94719008,3.93783257 6.32732106,3.77272727 5.57419786,3.77272727 C5.31929463,3.77272727 5.05860205,3.79879653 4.7921123,3.85093583 C4.52562255,3.90307513 4.28230948,3.98997265 4.06216578,4.11163102 C3.84202207,4.23328938 3.65953727,4.39839468 3.51470588,4.60695187 C3.3698745,4.81550906 3.29745989,5.07620164 3.29745989,5.38903743 C3.29745989,5.82932484 3.43359935,6.17401836 3.70588235,6.42312834 C3.97816535,6.67223832 4.33444521,6.8605163 4.77473262,6.98796791 C4.82107866,6.99955443 5.00356347,7.04879636 5.32219251,7.13569519 C5.64082156,7.22259402 5.99710142,7.3181813 6.39104278,7.42245989 C6.78498414,7.52673849 7.17022985,7.62811894 7.54679144,7.72660428 C7.92335304,7.82508962 8.19273537,7.89750422 8.35494652,7.94385027 C8.7604744,8.07130189 9.11385767,8.24509694 9.41510695,8.46524064 C9.71635623,8.68538434 9.96835906,8.93738717 10.171123,9.22125668 C10.3738869,9.5051262 10.5245093,9.80926754 10.6229947,10.1336898 C10.72148,10.4581121 10.7707219,10.7825296 10.7707219,11.1069519 C10.7707219,11.8021425 10.6287893,12.3959423 10.3449198,12.888369 C10.0610503,13.3807957 9.68739091,13.7834209 9.22393048,14.0962567 C8.76047005,14.4090925 8.23329172,14.6379226 7.64237968,14.782754 C7.05146763,14.9275854 6.44897811,15 5.83489305,15 C5.1281159,15 4.46190152,14.9131025 3.83622995,14.7393048 C3.21055837,14.5655072 2.66600053,14.2990214 2.20254011,13.9398396 C1.73907968,13.5806577 1.3683169,13.1201008 1.09024064,12.5581551 C0.812164385,11.9962093 0.667335174,11.3328915 0.655748663,10.5681818 L2.82820856,10.5681818 Z" id="S" sketch:type="MSShapeGroup"></path>
                <rect id="Rectangle-4" sketch:type="MSShapeGroup" x="5" y="0" width="2" height="17"></rect>
            </g>
        </g>
    </g>
</svg>