<?xml version="1.0" encoding="utf-8"?>
<!-- Generator: Adobe Illustrator 21.0.2, SVG Export Plug-In . SVG Version: 6.00 Build 0)  -->
<svg version="1.1" id="Layer_1" xmlns:sketch="http://www.bohemiancoding.com/sketch/ns"
	 xmlns="http://www.w3.org/2000/svg" xmlns:xlink="http://www.w3.org/1999/xlink" x="0px" y="0px" width="24px" height="24px"
	 viewBox="0 0 24 24" style="enable-background:new 0 0 24 24;" xml:space="preserve">
<path id="S" sketch:type="MSShapeGroup" d="M9.6,13.6c0,0.5,0.1,0.9,0.2,1.2c0.2,0.3,0.4,0.6,0.7,0.8s0.6,0.4,1,0.5
	c0.4,0.1,0.8,0.1,1.2,0.1c0.5,0,0.9-0.1,1.2-0.2c0.3-0.1,0.6-0.3,0.8-0.4s0.4-0.4,0.5-0.6c0.1-0.2,0.1-0.5,0.1-0.7
	c0-0.5-0.1-0.8-0.3-1.1s-0.4-0.4-0.7-0.5c-0.4-0.2-1-0.3-1.5-0.5c-0.6-0.1-1.3-0.3-2.2-0.6c-0.5-0.1-1-0.3-1.3-0.5s-0.6-0.5-0.8-0.8
	S8.1,9.9,8,9.6C8,9.3,7.9,9,7.9,8.6C7.9,8,8,7.5,8.3,7s0.6-0.8,1-1.1c0.4-0.3,0.9-0.5,1.5-0.7C11.3,5.1,11.9,5,12.4,5
	c0.6,0,1.3,0.1,1.8,0.3c0.6,0.2,1.1,0.4,1.5,0.8s0.8,0.8,1,1.2c0.3,0.5,0.4,1.1,0.4,1.7H15c-0.1-0.8-0.3-1.4-0.8-1.7
	s-1.1-0.5-1.9-0.5c-0.3,0-0.5,0-0.8,0.1c-0.3,0.1-0.5,0.1-0.7,0.3c-0.2,0.1-0.4,0.3-0.5,0.5s-0.2,0.5-0.2,0.8c0,0.4,0.1,0.8,0.4,1
	c0.3,0.2,0.6,0.4,1.1,0.6c0,0,0.2,0.1,0.5,0.1s0.7,0.2,1.1,0.3c0.4,0.1,0.8,0.2,1.2,0.3c0.4,0.1,0.6,0.2,0.8,0.2
	c0.4,0.1,0.8,0.3,1.1,0.5c0.3,0.2,0.6,0.5,0.8,0.8c0.2,0.3,0.4,0.6,0.5,0.9s0.1,0.6,0.1,1c0,0.7-0.1,1.3-0.4,1.8
	c-0.3,0.5-0.7,0.9-1.1,1.2c-0.5,0.3-1,0.5-1.6,0.7c-0.6,0.1-1.2,0.2-1.8,0.2c-0.7,0-1.4-0.1-2-0.3C10,17.6,9.5,17.3,9,16.9
	c-0.5-0.4-0.8-0.8-1.1-1.4c-0.3-0.6-0.4-1.2-0.4-2H9.6z"/>
<rect id="Rectangle-4" x="11.8" y="3" sketch:type="MSShapeGroup" width="2" height="17">
</rect>
</svg>
