<?xml version="1.0" encoding="utf-8"?>
<!-- Generator: Adobe Illustrator 21.0.2, SVG Export Plug-In . SVG Version: 6.00 Build 0)  -->
<svg version="1.1" id="Layer_1" xmlns:sketch="http://www.bohemiancoding.com/sketch/ns"
	 xmlns="http://www.w3.org/2000/svg" xmlns:xlink="http://www.w3.org/1999/xlink" x="0px" y="0px" width="12px" height="12px"
	 viewBox="0 0 12 12" enable-background="new 0 0 12 12" xml:space="preserve">
<path id="S" sketch:type="MSShapeGroup" fill="#FFFFFF" d="M4.8,6.6c0,0.3,0,0.5,0.1,0.7s0.2,0.3,0.4,0.4C5.4,7.8,5.6,7.9,5.8,8
	C6,8,6.2,8,6.5,8C6.7,8,7,8,7.1,8c0.2-0.1,0.3-0.1,0.4-0.2s0.2-0.2,0.2-0.3S7.9,7.2,7.9,7c0-0.3-0.1-0.4-0.2-0.6
	c-0.1,0-0.2-0.1-0.4-0.2C7.1,6.1,6.8,6.1,6.5,6S5.8,5.8,5.4,5.7C5.1,5.6,4.8,5.5,4.6,5.4C4.5,5.3,4.3,5.1,4.2,5C4.1,4.8,4,4.7,4,4.5
	S3.9,4.2,3.9,4c0-0.3,0.1-0.6,0.2-0.9c0.1-0.2,0.3-0.4,0.6-0.6c0.2-0.2,0.5-0.3,0.8-0.4C5.7,2.1,6,2,6.3,2s0.7,0,1,0.1
	s0.6,0.2,0.8,0.4C8.3,2.7,8.5,3,8.7,3.2c0.1,0.3,0.2,0.6,0.2,0.9H7.7c0-0.4-0.2-0.7-0.4-0.9S6.7,3,6.3,3C6.1,3,6,3,5.9,3
	C5.7,3,5.6,3.1,5.5,3.2c-0.2,0-0.3,0.1-0.3,0.2S5.1,3.7,5.1,3.8c0,0.2,0.1,0.4,0.2,0.6c0.1,0.1,0.3,0.2,0.6,0.3c0,0,0.1,0,0.3,0.1
	c0.2,0,0.4,0.1,0.6,0.2c0.1,0,0.3,0,0.5,0.1s0.3,0.1,0.4,0.1C8,5.3,8.2,5.4,8.3,5.5c0.2,0.1,0.3,0.3,0.4,0.4S8.9,6.2,9,6.4
	s0.1,0.3,0.1,0.5c0,0.4-0.1,0.7-0.2,1C8.7,8.1,8.5,8.3,8.2,8.5S7.7,8.8,7.4,8.9C7.1,9,6.7,9,6.4,9C6,9,5.7,9,5.3,8.9
	C5,8.8,4.7,8.6,4.5,8.4S4,8,3.9,7.7C3.7,7.4,3.6,7,3.6,6.6H4.8z"/>
<rect id="Rectangle-4" x="6" y="1" sketch:type="MSShapeGroup" fill="#FFFFFF" width="1" height="9">
</rect>
</svg>
