<?xml version="1.0" encoding="UTF-8" standalone="no"?>
<svg width="12px" height="12px" viewBox="0 0 12 12" version="1.1" xmlns="http://www.w3.org/2000/svg" xmlns:xlink="http://www.w3.org/1999/xlink" xmlns:sketch="http://www.bohemiancoding.com/sketch/ns">
    <!-- Generator: Sketch 3.3.3 (12072) - http://www.bohemiancoding.com/sketch -->
    <title>atm-black-12</title>
    <desc>Created with Sketch.</desc>
    <defs></defs>
    <g id="atm" stroke="none" stroke-width="1" fill="none" fill-rule="evenodd" sketch:type="MSPage">
        <g id="atm-black-12" sketch:type="MSArtboardGroup" fill="#000000">
            <g id="symbol" sketch:type="MSLayerGroup" transform="translate(3.000000, 0.000000)">
                <path d="M1.79865821,6.62278271 C1.79865821,6.87759681 1.84216241,7.09511779 1.9291721,7.27535216 C2.0161818,7.45558653 2.13737205,7.60319005 2.29274651,7.71816714 C2.44812097,7.83314424 2.62679891,7.91704519 2.8287857,7.96987251 C3.0307725,8.02269982 3.2498472,8.04911308 3.48601637,8.04911308 C3.74083048,8.04911308 3.95835145,8.01959238 4.13858582,7.96055008 C4.31882019,7.90150779 4.46486999,7.82537545 4.5767396,7.73215078 C4.68860921,7.6389261 4.76940271,7.53171934 4.81912254,7.41052726 C4.86884236,7.28933518 4.8937019,7.1665912 4.8937019,7.04229164 C4.8937019,6.78747753 4.83621422,6.59947726 4.72123712,6.47828518 C4.60626002,6.35709311 4.4804086,6.27163844 4.34367908,6.22191861 C4.10750991,6.13490892 3.83250124,6.05256169 3.51864484,5.97487446 C3.20478844,5.89718723 2.81791185,5.79619535 2.35800346,5.67189579 C2.07211446,5.59731605 1.8343951,5.49943161 1.64483827,5.37823953 C1.45528143,5.25704746 1.30457047,5.12187371 1.19270086,4.97271423 C1.08083125,4.82355475 1.00159147,4.66507518 0.954979131,4.49727077 C0.908366794,4.32946636 0.885060976,4.15855702 0.885060976,3.98453763 C0.885060976,3.6489288 0.954978432,3.35838293 1.09481544,3.11289129 C1.23465245,2.86739965 1.41954528,2.66386216 1.64949948,2.50227273 C1.87945367,2.34068329 2.14047884,2.22104676 2.43258282,2.14335953 C2.7246868,2.0656723 3.01989384,2.02682927 3.3182128,2.02682927 C3.66625158,2.02682927 3.99408676,2.07188718 4.30172819,2.16200437 C4.60936961,2.25212155 4.87971711,2.3872953 5.11277879,2.56752967 C5.34584048,2.74776404 5.53073331,2.96994618 5.66746283,3.23408276 C5.80419235,3.49821933 5.87255608,3.80430242 5.87255608,4.1523412 L4.70725349,4.1523412 C4.6761786,3.7235077 4.5301288,3.42053206 4.26909971,3.24340518 C4.00807063,3.0662783 3.67557428,2.97771619 3.27160069,2.97771619 C3.13487117,2.97771619 2.99503626,2.99169968 2.85209176,3.01966708 C2.70914726,3.04763448 2.57863467,3.09424612 2.46055008,3.15950339 C2.3424655,3.22476066 2.24458106,3.31332277 2.16689383,3.42519238 C2.0892066,3.53706199 2.05036357,3.6768969 2.05036357,3.84470132 C2.05036357,4.08087049 2.12338847,4.26576332 2.26944046,4.39938535 C2.41549245,4.53300739 2.60660016,4.63399927 2.84276934,4.70236403 C2.86762925,4.70857901 2.96551369,4.73499227 3.13642559,4.7816046 C3.30733749,4.82821694 3.49844521,4.87948974 3.70975447,4.93542455 C3.92106373,4.99135935 4.12770865,5.0457396 4.32969545,5.09856691 C4.53168224,5.15139423 4.67617832,5.19023726 4.76318801,5.21509717 C4.98071225,5.28346193 5.17026625,5.37668521 5.33185568,5.49476979 C5.49344511,5.61285438 5.62861886,5.74802813 5.73738098,5.9002951 C5.8461431,6.05256206 5.92693661,6.21570279 5.97976392,6.38972219 C6.03259124,6.56374158 6.0590045,6.73775836 6.0590045,6.91177775 C6.0590045,7.28467644 5.98287216,7.6031893 5.83060519,7.86732588 C5.67833822,8.13146245 5.47790818,8.34742971 5.22930905,8.51523412 C4.98070992,8.68303853 4.69793265,8.80578251 4.38096876,8.88346974 C4.06400487,8.96115697 3.74083085,9 3.411437,9 C3.03232333,9 2.67496744,8.95338836 2.33935861,8.86016369 C2.00374979,8.76693901 1.71165019,8.62399666 1.46305106,8.43133233 C1.21445193,8.23866801 1.01557561,7.99162633 0.866416134,7.69019988 C0.717256656,7.38877344 0.639570593,7.03297127 0.633355615,6.62278271 L1.79865821,6.62278271 Z" id="S" sketch:type="MSShapeGroup"></path>
                <rect id="Rectangle-4" sketch:type="MSShapeGroup" x="3" y="0.973170732" width="1" height="9.02682927"></rect>
            </g>
        </g>
    </g>
</svg>