<?xml version="1.0" encoding="utf-8"?>
<!-- Generator: Adobe Illustrator 18.1.1, SVG Export Plug-In . SVG Version: 6.00 Build 0)  -->
<svg version="1.1" id="Layer_1" xmlns="http://www.w3.org/2000/svg" xmlns:xlink="http://www.w3.org/1999/xlink" x="0px" y="0px"
	 viewBox="0 0 18 18" enable-background="new 0 0 18 18" xml:space="preserve">
<path d="M16,6.035c-1.874-2.618-4.176-4.332-7.387-3.451c1.718,0.392,3.605,2.279,4.842,3.631C14.142,5.658,15.336,5.438,16,6.035z"
	/>
<path fill="none" d="M10.299,4.387C9.648,3.892,9.073,3.556,8.602,3.389C9.04,3.562,9.655,3.925,10.299,4.387z"/>
<path d="M12.651,6.551c-0.842-0.893-1.64-1.622-2.352-2.164C9.655,3.925,9.04,3.562,8.602,3.389
	c-0.057-0.02-0.121-0.051-0.175-0.066C8.301,3.285,8.19,3.263,8.117,3.278C8.105,3.281,8.094,3.292,8.083,3.297
	C7.513,4.421,7.46,5.847,7.41,7.356C7.402,7.591,7.393,7.827,7.383,8.063c0.385-0.655,0.928-1.162,1.554-1.504l2.989,8.124
	l0.704-0.259l-3-8.154C10.585,5.966,11.652,6.013,12.651,6.551z"/>
<path d="M7.435,2.919C4.721,3.331,3.442,7.534,3,9.715c0.831-0.979,2.314-1.668,3.628-1.528c0.013-0.285,0.023-0.571,0.032-0.855
	C6.711,5.789,6.771,4.202,7.435,2.919z"/>
</svg>
