<?xml version="1.0" encoding="utf-8"?>
<!-- Generator: Adobe Illustrator 18.1.1, SVG Export Plug-In . SVG Version: 6.00 Build 0)  -->
<svg version="1.1" id="Layer_1" xmlns="http://www.w3.org/2000/svg" xmlns:xlink="http://www.w3.org/1999/xlink" x="0px" y="0px"
	 viewBox="0 0 12 12" enable-background="new 0 0 12 12" xml:space="preserve">
<path d="M11,3.782C9.703,1.969,8.109,0.783,5.886,1.393c1.19,0.271,2.496,1.578,3.352,2.514C9.714,3.521,10.541,3.368,11,3.782z"/>
<path fill="none" d="M7.053,2.641C6.602,2.298,6.204,2.066,5.878,1.95C6.182,2.07,6.607,2.321,7.053,2.641z"/>
<path d="M8.682,4.139C8.099,3.521,7.547,3.016,7.053,2.641C6.607,2.321,6.182,2.07,5.878,1.95c-0.04-0.014-0.084-0.035-0.121-0.046
	C5.67,1.878,5.593,1.863,5.543,1.873c-0.008,0.002-0.016,0.01-0.024,0.013c-0.394,0.778-0.432,1.765-0.466,2.81
	C5.048,4.859,5.041,5.023,5.035,5.186c0.266-0.453,0.642-0.805,1.076-1.041L8.18,9.769L8.668,9.59L6.59,3.944
	C7.251,3.734,7.99,3.767,8.682,4.139z"/>
<path d="M5.071,1.624C3.192,1.91,2.306,4.82,2,6.33c0.575-0.678,1.602-1.155,2.512-1.058C4.521,5.074,4.528,4.877,4.534,4.68
	C4.569,3.612,4.611,2.513,5.071,1.624z"/>
</svg>
