<?xml version="1.0" encoding="utf-8"?>
<!-- Generator: Adobe Illustrator 21.0.2, SVG Export Plug-In . SVG Version: 6.00 Build 0)  -->
<svg version="1.1"
	 id="svg27435" inkscape:version="0.48.2 r9819" sodipodi:docname="bear-black-18.svg" xmlns:cc="http://creativecommons.org/ns#" xmlns:dc="http://purl.org/dc/elements/1.1/" xmlns:inkscape="http://www.inkscape.org/namespaces/inkscape" xmlns:rdf="http://www.w3.org/1999/02/22-rdf-syntax-ns#" xmlns:sodipodi="http://sodipodi.sourceforge.net/DTD/sodipodi-0.dtd" xmlns:svg="http://www.w3.org/2000/svg"
	 xmlns="http://www.w3.org/2000/svg" xmlns:xlink="http://www.w3.org/1999/xlink" x="0px" y="0px" width="18px" height="18px"
	 viewBox="0 0 18 18" enable-background="new 0 0 18 18" xml:space="preserve">
<path id="path3853" inkscape:connector-curvature="0" d="M13.3,4.7c0,0,0.4-0.5,0.6-0.5C14.2,4.3,14,4.9,14,4.9
	c0.6,0.1,0.8,0.9,1.8,1c0.4,0,0,1-1,1.2c-1.4,0.3-2.4,1-2.6,1.4c-0.1,0.3-0.8,2.9-0.5,3.4c0,0,0.6,0.1,0.3,0.7
	c-0.1,0.1-1.3,0.1-1.4-0.2c0-0.1-0.3-1.1-0.3-1.1c-0.3,0.3-0.3,0.7,0,0.9c0.2,0.2-0.2,0.6-0.8,0.5c-0.7-0.2-0.7-2.1-0.7-2.8
	c0,0-1.3,0.5-2.6,0.2c0,0-0.2,1.6-0.1,1.7c0.1,0.1,0.6,0.4,0.2,0.7c-0.2,0.3-0.8,0.2-1,0c-0.4-0.4-0.8-2-0.8-2S4.1,11.9,4.1,12
	c0.4,0.4,0.2,0.8-0.3,0.8c0,0-0.7,0.1-0.9-0.5c0,0,0.2-3.3,0.1-4c-0.3-1.6,3-2.4,3.5-2.4c0.8-0.1,2.6-0.1,2.9-0.2
	c0.2-0.1,0.7-0.4,1.1-0.4c0.3-0.1,0.7,0.1,0.9,0c0.3,0,1-0.4,1-0.4s0-0.5,0.3-0.6C12.9,4.3,13.3,4.7,13.3,4.7L13.3,4.7z"/>
</svg>
