<?xml version="1.0" encoding="utf-8"?>
<!-- Generator: Adobe Illustrator 21.0.2, SVG Export Plug-In . SVG Version: 6.00 Build 0)  -->
<svg version="1.1"
	 id="svg27349" inkscape:version="0.48.2 r9819" sodipodi:docname="bear-black-24.svg" xmlns:cc="http://creativecommons.org/ns#" xmlns:dc="http://purl.org/dc/elements/1.1/" xmlns:inkscape="http://www.inkscape.org/namespaces/inkscape" xmlns:rdf="http://www.w3.org/1999/02/22-rdf-syntax-ns#" xmlns:sodipodi="http://sodipodi.sourceforge.net/DTD/sodipodi-0.dtd" xmlns:svg="http://www.w3.org/2000/svg"
	 xmlns="http://www.w3.org/2000/svg" xmlns:xlink="http://www.w3.org/1999/xlink" x="0px" y="0px" width="24px" height="24px"
	 viewBox="0 0 24 24" enable-background="new 0 0 24 24" xml:space="preserve">
<path id="path3845" inkscape:connector-curvature="0" d="M17.4,6.5c0,0,0.5-0.7,0.8-0.6c0.4,0.1,0.2,0.9,0.2,0.9
	c0.7,0.1,1.1,1.2,2.4,1.3c0.5,0,0,1.3-1.3,1.5c-1.8,0.4-3.2,1.3-3.3,1.9c-0.1,0.3-1.1,3.8-0.7,4.4c0,0,0.8,0.2,0.4,0.9
	c-0.1,0.2-1.7,0.1-1.8-0.2c0-0.1-0.4-1.4-0.4-1.4c-0.4,0.4-0.3,0.9-0.1,1.2c0.2,0.3-0.3,0.8-1,0.6c-0.9-0.3-0.9-2.7-0.9-3.7
	c0,0-1.7,0.6-3.5,0.3c0,0-0.2,2.1-0.1,2.3c0.1,0.1,0.7,0.5,0.3,1c-0.3,0.3-1.1,0.3-1.3,0c-0.5-0.5-1.1-2.6-1.1-2.6S5.4,16,5.5,16.1
	c0.5,0.5,0.2,1.1-0.4,1.1c0,0-0.9,0.2-1.1-0.7c0,0,0.2-4.4,0.1-5.3C3.7,9.1,8,8.1,8.6,8c1-0.1,3.5-0.1,3.7-0.2
	c0.3-0.1,0.9-0.5,1.4-0.6c0.4-0.1,0.9,0.1,1.2,0c0.3-0.1,1.3-0.5,1.3-0.5s0-0.7,0.4-0.8C16.9,6,17.4,6.5,17.4,6.5L17.4,6.5z"/>
</svg>
