<?xml version="1.0" encoding="utf-8"?>
<!-- Generator: Adobe Illustrator 21.0.2, SVG Export Plug-In . SVG Version: 6.00 Build 0)  -->
<svg version="1.1"
	 id="svg27498" inkscape:version="0.48.2 r9819" sodipodi:docname="bear-black-12.svg" xmlns:cc="http://creativecommons.org/ns#" xmlns:dc="http://purl.org/dc/elements/1.1/" xmlns:inkscape="http://www.inkscape.org/namespaces/inkscape" xmlns:rdf="http://www.w3.org/1999/02/22-rdf-syntax-ns#" xmlns:sodipodi="http://sodipodi.sourceforge.net/DTD/sodipodi-0.dtd" xmlns:svg="http://www.w3.org/2000/svg"
	 xmlns="http://www.w3.org/2000/svg" xmlns:xlink="http://www.w3.org/1999/xlink" x="0px" y="0px" width="12px" height="12px"
	 viewBox="0 0 12 12" enable-background="new 0 0 12 12" xml:space="preserve">
<path id="path3766" inkscape:connector-curvature="0" fill="#FFFFFF" d="M9.2,3.4c0,0,0.3-0.4,0.5-0.4c0.2,0.1,0.1,0.6,0.1,0.6
	c0.5,0.1,0.7,0.8,1.5,0.8c0.3,0,0,0.8-0.8,0.9c-1.1,0.2-2,0.8-2.1,1.2C8.3,6.7,7.7,8.9,8,9.3c0,0,0.5,0.1,0.3,0.6
	C8.2,10,7.2,9.9,7.1,9.7c0-0.1-0.3-0.9-0.3-0.9c-0.2,0.3-0.2,0.6,0,0.8c0.1,0.2-0.2,0.5-0.7,0.4C5.6,9.8,5.5,8.3,5.5,7.7
	c0,0-1.1,0.4-2.2,0.2c0,0-0.1,1.3-0.1,1.4c0.1,0.1,0.5,0.3,0.2,0.6c-0.2,0.2-0.7,0.2-0.8,0C2.4,9.6,2,8.3,2,8.3s-0.3,1-0.3,1.1
	C2.1,9.7,1.9,10,1.5,10c0,0-0.6,0.1-0.7-0.4c0,0,0.1-2.7,0-3.3C0.6,5,3.3,4.4,3.7,4.4C4.3,4.3,5.8,4.3,6,4.2
	c0.2-0.1,0.6-0.3,0.9-0.3c0.2,0,0.6,0.1,0.8,0c0.2,0,0.8-0.3,0.8-0.3s0-0.4,0.2-0.5C8.9,3.1,9.2,3.4,9.2,3.4z"/>
</svg>
