<?xml version="1.0" encoding="utf-8"?>
<!-- Generator: Adobe Illustrator 21.0.2, SVG Export Plug-In . SVG Version: 6.00 Build 0)  -->
<svg version="1.1" id="Layer_1" xmlns="http://www.w3.org/2000/svg" xmlns:xlink="http://www.w3.org/1999/xlink" x="0px" y="0px"
	 width="18px" height="18px" viewBox="0 0 18 18" enable-background="new 0 0 18 18" xml:space="preserve">
<path d="M13.5,9c-1.4,0-2.5,1.1-2.5,2.5s1.1,2.5,2.5,2.5s2.5-1.1,2.5-2.5S14.9,9,13.5,9z M13.5,13c-0.8,0-1.5-0.7-1.5-1.5
	s0.7-1.5,1.5-1.5s1.5,0.7,1.5,1.5S14.3,13,13.5,13z"/>
<path d="M5.5,9C4.1,9,3,10.1,3,11.5S4.1,14,5.5,14S8,12.9,8,11.5S6.9,9,5.5,9z M5.5,13C4.7,13,4,12.3,4,11.5S4.7,10,5.5,10
	S7,10.7,7,11.5S6.3,13,5.5,13z"/>
<circle cx="11.6" cy="4.4" r="1"/>
<path d="M9.5,12.5C9.2,12.5,9,12.3,9,12V9.8L7.2,8.4C7.1,8.3,7,8.2,7,8V7c0-0.2,0.1-0.4,0.3-0.4l2-1c0.2-0.1,0.5,0,0.6,0.2L10.8,7
	H12c0.3,0,0.5,0.2,0.5,0.5S12.3,8,12,8h-1.5c-0.2,0-0.3-0.1-0.4-0.2L9.3,6.6L8,7.3v0.4l1.8,1.4C9.9,9.2,10,9.3,10,9.5V12
	C10,12.3,9.8,12.5,9.5,12.5z"/>
</svg>
