<?xml version="1.0" encoding="utf-8"?>
<!-- Generator: Adobe Illustrator 21.0.2, SVG Export Plug-In . SVG Version: 6.00 Build 0)  -->
<svg version="1.1" id="Layer_1" xmlns="http://www.w3.org/2000/svg" xmlns:xlink="http://www.w3.org/1999/xlink" x="0px" y="0px"
	 width="24px" height="24px" viewBox="0 0 24 24" enable-background="new 0 0 24 24" xml:space="preserve">
<path d="M17.5,12c-1.9,0-3.5,1.6-3.5,3.5s1.6,3.5,3.5,3.5s3.5-1.6,3.5-3.5S19.4,12,17.5,12z M17.5,18c-1.4,0-2.5-1.1-2.5-2.5
	s1.1-2.5,2.5-2.5s2.5,1.1,2.5,2.5S18.9,18,17.5,18z"/>
<path d="M7.5,12C5.6,12,4,13.6,4,15.5S5.6,19,7.5,19s3.5-1.6,3.5-3.5S9.4,12,7.5,12z M7.5,18C6.1,18,5,16.9,5,15.5S6.1,13,7.5,13
	s2.5,1.1,2.5,2.5S8.9,18,7.5,18z"/>
<path d="M12.5,16.8c-0.4,0-0.8-0.3-0.8-0.8v-3.1l-2.2-1.8c-0.2-0.1-0.3-0.3-0.3-0.5c0-0.2,0-0.4,0.2-0.6l2.5-3
	c0.1-0.2,0.3-0.3,0.5-0.3c0.2,0,0.4,0.1,0.6,0.2l1.8,1.8h2.7c0.4,0,0.8,0.3,0.8,0.8s-0.3,0.8-0.8,0.8h-3c-0.2,0-0.4-0.1-0.5-0.2
	l-1.4-1.4l-1.5,1.8l1.9,1.5c0.2,0.1,0.3,0.4,0.3,0.6V16C13.2,16.4,12.9,16.8,12.5,16.8z"/>
<circle cx="15" cy="6" r="1.5"/>
</svg>
