<?xml version="1.0" encoding="utf-8"?>
<!-- Generator: Adobe Illustrator 21.0.2, SVG Export Plug-In . SVG Version: 6.00 Build 0)  -->
<svg version="1.1" id="Layer_1" xmlns="http://www.w3.org/2000/svg" xmlns:xlink="http://www.w3.org/1999/xlink" x="0px" y="0px"
	 width="12px" height="12px" viewBox="0 0 12 12" enable-background="new 0 0 12 12" xml:space="preserve">
<path d="M4,6C2.9,6,2,6.9,2,8s0.9,2,2,2s2-0.9,2-2S5.1,6,4,6z M4,9C3.4,9,3,8.6,3,8s0.4-1,1-1s1,0.4,1,1S4.6,9,4,9z"/>
<path d="M9,6C7.9,6,7,6.9,7,8s0.9,2,2,2s2-0.9,2-2S10.1,6,9,6z M9,9C8.4,9,8,8.6,8,8s0.4-1,1-1s1,0.4,1,1S9.6,9,9,9z"/>
<circle cx="8" cy="2.5" r="0.8"/>
<g>
	<path d="M6.5,8.5C6.2,8.5,6,8.3,6,8V6.2l-1-1C4.9,5.1,4.8,4.9,4.8,4.8V4.4C4.8,4.2,4.9,4.1,5,4l1.2-0.9C6.4,3,6.7,3,6.9,3.1L7.7,4
		H9c0.3,0,0.5,0.2,0.5,0.5S9.3,5,9,5H7.5C7.4,5,7.2,4.9,7.1,4.9L6.5,4.2L5.8,4.6l1,1C6.9,5.7,7,5.9,7,6v2C7,8.3,6.8,8.5,6.5,8.5z"/>
</g>
</svg>
