<?xml version="1.0" encoding="utf-8"?>
<!-- Generator: Adobe Illustrator 21.0.2, SVG Export Plug-In . SVG Version: 6.00 Build 0)  -->
<svg version="1.1" id="Layer_1" xmlns="http://www.w3.org/2000/svg" xmlns:xlink="http://www.w3.org/1999/xlink" x="0px" y="0px"
	 width="12px" height="12px" viewBox="0 0 12 12" enable-background="new 0 0 12 12" xml:space="preserve">
<path fill="#FFFFFF" d="M9.7,5V3.2L8.4,2H2v3v2h7.5L11,5H9.7z M7.7,2.6l0.8,0.9V4H7l0-1.4H7.7z M5,3h1v1H5V3z M3,3h1v1H3V3z"/>
<path fill="#FFFFFF" d="M11,8.1l-0.6,0.3H9.7L8.4,7.8H7.8L6.5,8.4H5.9L4.6,7.8H3.9L2.6,8.4H2V9h0.6l1.3-0.6h0.6L5.9,9h0.6l1.3-0.6
	h0.6L9.7,9h0.6L11,8.7c0-0.1,0-0.2,0-0.3C11,8.3,11,8.2,11,8.1z"/>
</svg>
