<?xml version="1.0" encoding="utf-8"?>
<!-- Generator: Adobe Illustrator 21.0.2, SVG Export Plug-In . SVG Version: 6.00 Build 0)  -->
<svg version="1.1" id="Layer_1" xmlns="http://www.w3.org/2000/svg" xmlns:xlink="http://www.w3.org/1999/xlink" x="0px" y="0px"
	 width="18px" height="18px" viewBox="0 0 18 18" enable-background="new 0 0 18 18" xml:space="preserve">
<polygon fill="#FFFFFF" points="3,8 3,11 13.5,11 16,8 "/>
<path fill="#FFFFFF" d="M12,3.4H3V7h11V5.5L12,3.4z M4,6V4h1v2H4z M6,6V4h1v2H6z M9,6H8V4h1V6z M12,6h-2V4h1L12,6z"/>
<path fill="#FFFFFF" d="M16,12.2l-0.9,0.5h-0.9l-1.9-0.9h-0.9l-1.9,0.9H8.6l-1.9-0.9H5.8l-1.9,0.9H3v0.9h0.9l1.9-0.9h0.9l1.9,0.9
	h0.9l1.9-0.9h0.9l1.9,0.9h0.9l0.9-0.5c0-0.2,0-0.3,0-0.5C16,12.5,16,12.4,16,12.2z"/>
</svg>
