<?xml version="1.0" encoding="utf-8"?>
<!-- Generator: Adobe Illustrator 21.0.2, SVG Export Plug-In . SVG Version: 6.00 Build 0)  -->
<svg version="1.1" id="Layer_1" xmlns="http://www.w3.org/2000/svg" xmlns:xlink="http://www.w3.org/1999/xlink" x="0px" y="0px"
	 width="24px" height="24px" viewBox="0 0 24 24" enable-background="new 0 0 24 24" xml:space="preserve">
<path d="M15.5,4.9H4v5.4h14.7V9.6l-1.9-3.9C16.5,5.2,16,4.9,15.5,4.9z M7.1,9.6H4.8V7.2l0.8-0.8h0.8l0.8,0.8v2.4H7.1z M10.2,9.6H7.9
	V7.2l0.8-0.8h0.8l0.8,0.8v2.4H10.2z M13.3,9.6H11V7.2l0.8-0.8h0.8l0.8,0.8v2.4H13.3z M14.8,9.6V6.5h0.8h0.8l1.5,3.1H14.8z"/>
<polygon points="6.3,15 7.1,15 8.6,14.2 9.4,14.2 11,15 11.7,15 13.3,14.2 14,14.2 15.6,15 16.4,15 17.9,14.2 18.5,14.2 21,11.1 
	4,11.1 4,14.2 4.8,14.2 "/>
<polygon points="4,15.8 4.8,15.8 6.3,16.5 7.1,16.5 8.6,15.8 9.4,15.8 11,16.5 11.7,16.5 13.3,15.8 14,15.8 15.6,16.5 16.4,16.5 
	17.9,15.8 18.7,15.8 20.2,16.5 21,16.5 21,18.1 20.2,18.1 18.7,17.3 17.9,17.3 16.4,18.1 15.6,18.1 14,17.3 13.3,17.3 11.7,18.1 
	11,18.1 9.4,17.3 8.6,17.3 7.1,18.1 6.3,18.1 4.8,17.3 4,17.3 "/>
</svg>
