<?xml version="1.0" encoding="utf-8"?>
<!-- Generator: Adobe Illustrator 21.0.2, SVG Export Plug-In . SVG Version: 6.00 Build 0)  -->
<svg version="1.1" id="Layer_1" xmlns="http://www.w3.org/2000/svg" xmlns:xlink="http://www.w3.org/1999/xlink" x="0px" y="0px"
	 width="24px" height="24px" viewBox="0 0 24 24" enable-background="new 0 0 24 24" xml:space="preserve">
<path d="M6.6,5.4L10,6.2l1.7-2.1h0.8L11,6.6l10,2.7l-0.8,2.7L9.9,9.2C5.9,8.1,6.6,5.4,6.6,5.4"/>
<polygon points="4,12.8 4,18.9 6.3,18.2 9.4,18.9 12.5,18.2 15.6,18.9 18.7,18.2 21,18.9 21,17.4 "/>
<polygon points="4,8.9 4,9.7 11,11.9 11,11.2 "/>
<polygon points="15.6,12.8 15.6,13.4 21,15.1 21,14.2 "/>
<path d="M13.3,11.2c-0.9,0-1.5,0.7-1.5,1.5c0,0.9,0.7,1.5,1.5,1.5c0.9,0,1.5-0.7,1.5-1.5S14.1,11.2,13.3,11.2z"/>
</svg>
