<?xml version="1.0" encoding="utf-8"?>
<!-- Generator: Adobe Illustrator 21.0.2, SVG Export Plug-In . SVG Version: 6.00 Build 0)  -->
<svg version="1.1" id="Layer_1" xmlns:sketch="http://www.bohemiancoding.com/sketch/ns"
	 xmlns="http://www.w3.org/2000/svg" xmlns:xlink="http://www.w3.org/1999/xlink" x="0px" y="0px" width="18px" height="18px"
	 viewBox="0 0 18 18" enable-background="new 0 0 18 18" xml:space="preserve">
<rect id="Rectangle-10" x="11.2" y="13.1" sketch:type="MSShapeGroup" width="0.9" height="0.9">
</rect>
<path id="Rectangle-11" sketch:type="MSShapeGroup" d="M6,12.2h0.9v1.6V15H6V12.2z"/>
<path id="Rectangle-12" sketch:type="MSShapeGroup" d="M7,14h5c0.6,0,1,0.2,1,0.5l0,0c0,0.3-0.4,0.5-1,0.5H7c-0.6,0-1-0.2-1-0.5l0,0
	C6,14.3,6.4,14,7,14z"/>
<path id="Shape" sketch:type="MSShapeGroup" d="M6.9,4.8L6.9,4.8v7.4c0,0,0,0,0,0h5.3c0,0,0,0,0,0V4.8c0,0,0,0,0,0L6.9,4.8
	C6.9,4.8,6.9,4.8,6.9,4.8L6.9,4.8L6.9,4.8z M6.9,4.8c0,0,1.3-0.9,1.7-0.9h3.5c0.5,0,0.9,0.4,0.9,0.9v7.4c0,0.5-0.4,0.9-0.9,0.9H6.9
	c-0.5,0-0.9-0.4-0.9-0.9V6.6L6.9,4.8z"/>
<path id="Rectangle-4" sketch:type="MSShapeGroup" d="M6,6.1c0-0.6,0.3-1.3,0.8-1.6l2.8-2.3C10,1.9,10.4,2,10.4,2.6v5.5
	c0,0.6-0.3,1.3-0.7,1.7l-2.9,2.6C6.3,12.8,6,12.6,6,12.1V6.1z"/>
</svg>
