<?xml version="1.0" encoding="UTF-8" standalone="no"?>
<svg width="12px" height="12px" viewBox="0 0 12 12" version="1.1" xmlns="http://www.w3.org/2000/svg" xmlns:xlink="http://www.w3.org/1999/xlink" xmlns:sketch="http://www.bohemiancoding.com/sketch/ns">
    <!-- Generator: Sketch 3.3.3 (12072) - http://www.bohemiancoding.com/sketch -->
    <title>bookstore-black-12</title>
    <desc>Created with Sketch.</desc>
    <defs></defs>
    <g id="bookstore" stroke="none" stroke-width="1" fill="none" fill-rule="evenodd" sketch:type="MSPage">
        <g id="bookstore-black-12" sketch:type="MSArtboardGroup" fill="#000000">
            <g id="symbol" sketch:type="MSLayerGroup" transform="translate(3.000000, 1.000000)">
                <path d="M0,2.99732269 C0,2.44651658 0.398159027,1.80092049 0.887729645,1.55613518 L3.11227036,0.443864822 C3.6025499,0.19872505 4,0.437881351 4,1.00292933 L4,5.99707067 C4,6.55097324 3.60184097,7.19518434 3.10232192,7.44005708 L0.897678077,8.52081104 C0.401904165,8.76384786 0,8.50414612 0,7.96354544 L0,2.99732269 Z" id="Rectangle-4" sketch:type="MSShapeGroup"></path>
                <path d="M0.999640365,2.99691379 L0.999640365,2.99691379 L0.999640365,8.00308621 C0.999640365,7.99784685 1.00229577,8.00061072 1.0019832,8.00061072 L4.99622056,8.00061072 C5.00302604,8.00061072 4.9985634,8.0052701 4.9985634,8.00308621 L4.9985634,2.99691379 C4.9985634,3.00215315 4.99590799,2.99938928 4.99622056,2.99938928 L1.0019832,2.99938928 C0.995177721,2.99938928 0.999640365,2.9947299 0.999640365,2.99691379 L0.999640365,2.99691379 Z M0,2.87240137 C0,2.3905874 0.375326872,2 0.859653711,2 L5.14034629,2 C5.61511992,2 6,2.39640677 6,2.87240137 L6,8.12759863 C6,8.6094126 5.62467313,9 5.14034629,9 L0.859653711,9 C0.384880076,9 0,8.60359323 0,8.12759863 L0,2.87240137 L0,2.87240137 Z" id="Shape" sketch:type="MSShapeGroup"></path>
            </g>
        </g>
    </g>
</svg>