<?xml version="1.0" encoding="UTF-8" standalone="no"?>
<svg width="24px" height="24px" viewBox="0 0 24 24" version="1.1" xmlns="http://www.w3.org/2000/svg" xmlns:xlink="http://www.w3.org/1999/xlink" xmlns:sketch="http://www.bohemiancoding.com/sketch/ns">
    <!-- Generator: Sketch 3.3.3 (12072) - http://www.bohemiancoding.com/sketch -->
    <title>bookstore-black-24</title>
    <desc>Created with Sketch.</desc>
    <defs></defs>
    <g id="bookstore" stroke="none" stroke-width="1" fill="none" fill-rule="evenodd" sketch:type="MSPage">
        <g id="bookstore-black-24" sketch:type="MSArtboardGroup" fill="#000000">
            <g id="symbol" sketch:type="MSLayerGroup" transform="translate(7.400000, 2.600000)">
                <path d="M9.1503268,16.2580645 C8.86146928,16.2580645 8.68842388,16.038199 8.69091813,15.6815421 C8.69342123,15.3236214 8.87301917,15.0967742 9.1503268,15.0967742 C9.46617592,15.0967742 9.72222222,14.8368105 9.72222222,14.516129 C9.72222222,14.1954476 9.46617592,13.9354839 9.1503268,13.9354839 C8.18070493,13.9354839 7.5537715,14.7273531 7.54715611,15.6732966 C7.54049591,16.6256483 8.16518349,17.4193548 9.1503268,17.4193548 C9.46617592,17.4193548 9.72222222,17.1593911 9.72222222,16.8387097 C9.72222222,16.5180282 9.46617592,16.2580645 9.1503268,16.2580645 L9.1503268,16.2580645 Z" id="Shape" sketch:type="MSShapeGroup"></path>
                <path d="M0.0205791363,15.0998508 C0.0257209635,16.0850993 0.468894353,16.7690734 1.1803178,17.1372018 C1.59259906,17.3505381 1.99303411,17.4195119 2.28787662,17.4193548 L2.28798191,17.4193547 L9.17075097,17.4211504 C9.48660008,17.4212328 9.74271216,17.1613359 9.74279331,16.8406545 C9.74287446,16.519973 9.48689396,16.2599425 9.17104484,16.2598602 L2.28772864,16.2580645 L2.28717615,16.2580647 C2.15703469,16.258134 1.92222469,16.2176887 1.69969346,16.1025392 C1.35850279,15.9259889 1.16715631,15.6306733 1.16435393,15.0936976 C1.16268038,14.7730206 0.905280985,14.514438 0.589436297,14.5161372 C0.27359161,14.5178363 0.0189055833,14.7791738 0.0205791363,15.0998508 L0.0205791363,15.0998508 Z" id="Shape" sketch:type="MSShapeGroup"></path>
                <path d="M1.14379085,5.80695774 C1.14379085,5.67127966 1.26073745,5.44025127 1.37179011,5.35985313 L4.91410252,2.79534616 L4.58207473,2.90322581 L8.58099117,2.90322581 C8.58161268,2.90322581 8.57843137,2.90000451 8.57843137,2.90249773 L8.57843137,13.9362119 C8.57843137,13.9352924 8.57824143,13.9354839 8.57415132,13.9354839 L1.1480709,13.9354839 C1.14386997,13.9354839 1.14379085,13.9354043 1.14379085,13.9349777 L1.14379085,5.80695774 L1.14379085,5.80695774 Z M0,5.80695774 L0,13.9349777 C0,14.5791147 0.514460986,15.0967742 1.1480709,15.0967742 L8.57415132,15.0967742 C9.20809371,15.0967742 9.72222222,14.5785446 9.72222222,13.9362119 L9.72222222,2.90249773 C9.72222222,2.25794076 9.21262272,1.74193548 8.58099117,1.74193548 L4.58207473,1.74193548 L4.39905938,1.74193548 L4.25004694,1.84981513 L0.70773453,4.41432211 C0.295328237,4.71288946 0,5.29631136 0,5.80695774 L0,5.80695774 Z" id="Shape" sketch:type="MSShapeGroup"></path>
                <path d="M0,5.64730587 C0,5.0938367 0.356247914,4.38210795 0.796740458,4.0568484 L5.49410921,0.588312887 C5.93413682,0.263396652 6.29084967,0.449784856 6.29084967,1.0008026 L6.29084967,8.87016514 C6.29084967,9.42289315 5.95262627,10.1519298 5.51946802,10.5117542 L0.771381652,14.4559877 C0.34535933,14.8098843 0,14.6476815 0,14.0946296 L0,5.64730587 Z" id="Rectangle-4" sketch:type="MSShapeGroup"></path>
            </g>
        </g>
    </g>
</svg>