<?xml version="1.0" encoding="utf-8"?>
<!-- Generator: Adobe Illustrator 21.0.2, SVG Export Plug-In . SVG Version: 6.00 Build 0)  -->
<svg version="1.1" id="Layer_1" xmlns:sketch="http://www.bohemiancoding.com/sketch/ns"
	 xmlns="http://www.w3.org/2000/svg" xmlns:xlink="http://www.w3.org/1999/xlink" x="0px" y="0px" width="24px" height="24px"
	 viewBox="0 0 24 24" enable-background="new 0 0 24 24" xml:space="preserve">
<path id="Shape" sketch:type="MSShapeGroup" fill="#FFFFFF" d="M16.8,18.8c-0.3,0-0.5-0.2-0.5-0.6c0-0.4,0.2-0.6,0.5-0.6
	c0.3,0,0.6-0.3,0.6-0.6s-0.3-0.6-0.6-0.6c-1,0-1.6,0.8-1.6,1.7c0,1,0.6,1.7,1.6,1.7c0.3,0,0.6-0.3,0.6-0.6
	C17.4,19.1,17.1,18.8,16.8,18.8L16.8,18.8z"/>
<path id="Shape_1_" sketch:type="MSShapeGroup" fill="#FFFFFF" d="M7.6,17.7c0,1,0.4,1.7,1.2,2C9.2,19.9,9.6,20,9.9,20h0l6.9,0
	c0.3,0,0.6-0.3,0.6-0.6c0-0.3-0.3-0.6-0.6-0.6l-6.9,0h0c-0.1,0-0.4,0-0.6-0.2c-0.3-0.2-0.5-0.5-0.5-1c0-0.3-0.3-0.6-0.6-0.6
	S7.6,17.4,7.6,17.7L7.6,17.7z"/>
<path id="Shape_2_" sketch:type="MSShapeGroup" fill="#FFFFFF" d="M8.8,8.4C8.8,8.2,8.9,8,9,7.9l3.5-2.6l-0.3,0.1h4c0,0,0,0,0,0v11
	c0,0,0,0,0,0H8.8c0,0,0,0,0,0V8.4L8.8,8.4z M7.6,8.4v8.1c0,0.6,0.5,1.2,1.1,1.2h7.4c0.6,0,1.1-0.5,1.1-1.2v-11
	c0-0.6-0.5-1.2-1.1-1.2h-4H12l-0.1,0.1L8.3,7C7.9,7.3,7.6,7.9,7.6,8.4L7.6,8.4z"/>
<path id="Rectangle-4" sketch:type="MSShapeGroup" fill="#FFFFFF" d="M7.6,8.2C7.6,7.7,8,7,8.4,6.6l4.7-3.5c0.4-0.3,0.8-0.1,0.8,0.4
	v7.9c0,0.6-0.3,1.3-0.8,1.6L8.4,17c-0.4,0.4-0.8,0.2-0.8-0.4V8.2z"/>
</svg>
