<?xml version="1.0" encoding="utf-8"?>
<!-- Generator: Adobe Illustrator 21.1.0, SVG Export Plug-In . SVG Version: 6.00 Build 0)  -->
<svg version="1.1" id="Layer_1" xmlns="http://www.w3.org/2000/svg" xmlns:xlink="http://www.w3.org/1999/xlink" x="0px" y="0px"
	 width="24px" height="24px" viewBox="0 0 24 24" style="enable-background:new 0 0 24 24;" xml:space="preserve">
<style type="text/css">
	.st0{fill:#FFFFFF;}
</style>
<path class="st0" d="M14.8,3h-4.6c0,0-4.6,0.1-4.6,6.2c0,2,0,8.5,0,8.5L7,18v2h2v-2h7v2h2v-2l1.3-0.3c0,0,0-2.4,0-8.5
	C19.5,3.1,14.8,3,14.8,3z M9.4,4.5h6.2v0.8H9.4V4.5z M9,16H7v-2h2V16z M18,16h-2v-2h2V16z M17.9,11.5H7.1V7c0-0.5,0.4-0.9,0.9-0.9
	h9.1c0.4,0,0.8,0.3,0.8,0.8V11.5z"/>
</svg>
