<?xml version="1.0" encoding="utf-8"?>
<!-- Generator: Adobe Illustrator 21.1.0, SVG Export Plug-In . SVG Version: 6.00 Build 0)  -->
<svg version="1.1" id="Layer_1" xmlns="http://www.w3.org/2000/svg" xmlns:xlink="http://www.w3.org/1999/xlink" x="0px" y="0px"
	 width="18px" height="18px" viewBox="0 0 18 18" style="enable-background:new 0 0 18 18;" xml:space="preserve">
<path d="M13.8,2.9L11.9,2H7.2L5.4,2.9L4,4v9h1v2h1v-2h7v2h1v-2h1l0-9L13.8,2.9z M7.2,2.9h4.6v0.9H7.2V2.9z M6,11H5v-1h1
	C6,10,6,11,6,11z M14,11h-1v-1h1V11z M13.8,8.5H5.4V5.7l0.9-0.9h6.5l0.9,0.9L13.8,8.5L13.8,8.5z"/>
</svg>
