<?xml version="1.0" encoding="utf-8"?>
<!-- Generator: Adobe Illustrator 21.1.0, SVG Export Plug-In . SVG Version: 6.00 Build 0)  -->
<svg version="1.1" id="Layer_1" xmlns="http://www.w3.org/2000/svg" xmlns:xlink="http://www.w3.org/1999/xlink" x="0px" y="0px"
	 width="24px" height="24px" viewBox="0 0 24 24" style="enable-background:new 0 0 24 24;" xml:space="preserve">
<path d="M10.2,11.5C9.9,11.2,8,8.8,9.9,7.1c1.7-1.6,2-3.5,1.4-4.1c0,0,3.4,2.3,1.5,6.2c-0.6,0.7-1.4,1.5-0.8,3.1L10.2,11.5z"/>
<path d="M13.7,12.3c0-0.7-0.7-0.1,0.4-2.4C15,9,14.7,8.5,14.4,7.6c0,0,2.8,1.1,0.7,4.1L13.7,12.3z"/>
<polygon points="4,15 6,15 6,18 19,18 19,15 21,15 21,18 19.1,20 5.9,20 4,18 "/>
<polygon points="7.5,12.3 17.5,16.1 17.5,17.7 7.5,13.8 "/>
<polygon points="7.5,16.1 7.5,17.7 10.5,16.5 8.5,15.8 "/>
<polygon points="17.5,12.3 14.5,13.4 16.5,14.2 17.5,13.8 "/>
</svg>
