<?xml version="1.0" encoding="utf-8"?>
<!-- Generator: Adobe Illustrator 21.1.0, SVG Export Plug-In . SVG Version: 6.00 Build 0)  -->
<svg version="1.1" id="Layer_1" xmlns="http://www.w3.org/2000/svg" xmlns:xlink="http://www.w3.org/1999/xlink" x="0px" y="0px"
	 width="18px" height="18px" viewBox="0 0 18 18" style="enable-background:new 0 0 18 18;" xml:space="preserve">
<polygon points="3,11 5,11 5,14 14,14 14,11 16,11 16,14 14.6,15 4.4,15 3,14 "/>
<polyline points="7.2,10.9 8.1,10.9 9,11.7 10,11.7 10.9,12.4 11.8,12.4 12.8,13.1 13.7,13.1 13.7,12.4 12.8,12.4 11.8,11.7 
	10.9,11.7 10,10.9 9,10.9 8.1,10.2 7.2,10.2 6.2,9.4 5.3,9.4 5.3,10.2 6.2,10.2 7.2,10.9 "/>
<polygon points="10,9.4 10.9,9.4 10.9,8.5 11.8,8.5 12.8,7.6 11.8,5.7 11.8,4.8 10.9,4.8 10.9,7.6 10,7.6 "/>
<polygon points="9,9.4 8.1,9.4 8.1,8.5 6.2,7.6 7.2,4.8 8.1,3.9 9,2.9 9,2 10,2 10,4.8 9,7.6 "/>
<rect x="12" y="9" width="2" height="1"/>
<rect x="5" y="12" width="2" height="1"/>
</svg>
