<?xml version="1.0" encoding="utf-8"?>
<!-- Generator: Adobe Illustrator 21.1.0, SVG Export Plug-In . SVG Version: 6.00 Build 0)  -->
<svg version="1.1" id="Layer_1" xmlns="http://www.w3.org/2000/svg" xmlns:xlink="http://www.w3.org/1999/xlink" x="0px" y="0px"
	 width="12px" height="12px" viewBox="0 0 12 12" style="enable-background:new 0 0 12 12;" xml:space="preserve">
<polygon points="2,7 3,7 3,9 10,9 10,7 11,7 11,9 10,10 3,10 2,9 "/>
<polyline points="4.9,7.2 5.5,7.2 6.2,7.7 6.8,7.7 7.5,8.2 8.1,8.2 8.8,8.7 9.4,8.7 9.4,8.2 8.8,8.2 8.1,7.7 7.5,7.7 6.8,7.2 
	6.2,7.2 5.5,6.7 4.9,6.7 4.3,6.1 3.6,6.1 3.6,6.7 4.3,6.7 4.9,7.2 "/>
<polygon points="6.8,6.1 7.5,6.1 7.5,5.5 8.1,5.5 8.8,4.9 8.1,3.6 8.1,2.9 7.5,2.9 7.5,4.9 6.8,4.9 "/>
<polygon points="6,6 5,6 5,5 4.3,4.9 4.9,2.9 5.5,2.3 6,2 6,1 7,1 7,3 6.2,4.9 "/>
<rect x="8" y="6" width="1" height="1"/>
<rect x="4" y="8" width="1" height="1"/>
</svg>
