<?xml version="1.0" encoding="utf-8"?>
<!-- Generator: Adobe Illustrator 21.1.0, SVG Export Plug-In . SVG Version: 6.00 Build 0)  -->
<svg version="1.1" id="Layer_1" xmlns="http://www.w3.org/2000/svg" xmlns:xlink="http://www.w3.org/1999/xlink" x="0px" y="0px"
	 width="24px" height="24px" viewBox="0 0 24 24" enable-background="new 0 0 24 24" xml:space="preserve">
<path d="M6.3,15.8l1.5,0.8h0.8l1.5-0.8H11l1.5,0.8h0.8l1.5-0.8h0.8l1.5,0.8h0.8l1.5-0.8h0.2c0.1-0.1,0.1-0.1,0.2-0.1
	c0.5-0.5,0.8-1.2,0.8-1.9c0-1.6-1.3-2.9-2.9-2.9h-0.3c-0.4,1.4-1.8,1.5-1.8,1.5H9L8.5,12l1.3-2.2l1.4,0.8c0.9,0.6,1.3-0.2,1.3-0.2
	L14,8.1c0.6-1-0.7-1.9-1.3-0.8l-1,1.7L9.3,7.6c-1.7-1-2.4,0.6-2.4,0.6L5,11.4c-0.3,0.7,0,1,0,1H4.1v4.1l1.5-0.8h0.7V15.8z"/>
<polygon points="20.2,17.3 19.5,17.3 17.9,18.1 17.1,18.1 15.6,17.3 14.8,17.3 13.3,18.1 12.5,18.1 11,17.3 10.2,17.3 8.6,18.1 
	7.9,18.1 6.3,17.3 5.5,17.3 4,18.1 4,19.6 5.5,18.8 6.3,18.8 7.9,19.6 8.6,19.6 10.2,18.8 11,18.8 12.5,19.6 13.3,19.6 14.8,18.8 
	15.6,18.8 17.1,19.6 17.9,19.6 19.5,18.8 20.2,18.8 21,19.2 21,17.7 "/>
<circle cx="10.2" cy="4.9" r="1.5"/>
</svg>
