<?xml version="1.0" encoding="utf-8"?>
<!-- Generator: Adobe Illustrator 21.1.0, SVG Export Plug-In . SVG Version: 6.00 Build 0)  -->
<svg version="1.1" id="Layer_1" xmlns="http://www.w3.org/2000/svg" xmlns:xlink="http://www.w3.org/1999/xlink" x="0px" y="0px"
	 width="18px" height="18px" viewBox="0 0 18 18" enable-background="new 0 0 18 18" xml:space="preserve">
<path fill="#FFFFFF" d="M16,13.1l-0.9,0.5h-0.9l-1.9-0.9h-0.9l-1.9,0.9H8.6l-1.9-0.9H5.8l-1.9,0.9H3V15h0.9l1.9-1.4h0.9L8.6,15h0.9
	l1.9-1.4h0.9l1.8,1.4h0.8l1.1-1c0-0.2,0-0.3,0-0.5C16,13.4,16,13.3,16,13.1z"/>
<rect x="6.7" y="2" fill="#FFFFFF" width="1.9" height="2.4"/>
<polygon fill="#FFFFFF" points="4,11.8 5.9,10.8 6.8,10.8 8.6,11.8 9.6,11.8 11.4,10.8 12.4,10.8 14.2,11.8 15.1,11.8 16,9.9 
	14.1,8 13.2,7.6 13.2,9 6.7,9 6.7,8 9.5,8 11.4,7.1 11.4,5.2 10,5.7 9.5,6.6 8.1,6.6 6.7,5.2 5.8,5.2 3,9 3,11.8 "/>
</svg>
