<?xml version="1.0" encoding="utf-8"?>
<!-- Generator: Adobe Illustrator 21.1.0, SVG Export Plug-In . SVG Version: 6.00 Build 0)  -->
<svg version="1.1" id="Layer_1" xmlns="http://www.w3.org/2000/svg" xmlns:xlink="http://www.w3.org/1999/xlink" x="0px" y="0px"
	 width="12px" height="12px" viewBox="0 0 12 12" enable-background="new 0 0 12 12" xml:space="preserve">
<path fill="#FFFFFF" d="M11,8.8l-0.6,0.3H9.7L8.4,8.4H7.8L6.5,9.1H5.9L4.6,8.4H3.9L2.6,9.1H2v0.6h0.6l1.3-0.6h0.6l1.3,0.6h0.6
	l1.4-0.6h0.6l1.3,0.6h0.6L11,9.4c0-0.1,0-0.2,0-0.3S11,8.9,11,8.8z"/>
<rect x="4" y="1" fill="#FFFFFF" width="2" height="2"/>
<polygon fill="#FFFFFF" points="2.7,7.8 4,7.1 4.6,7.1 5.9,7.8 6.6,7.8 7.8,7.1 8.5,7.1 9.8,7.8 10.4,7.8 11,6.5 10,5 9,5 9,6 5,6 
	5,5 8,5 8,5 8,3 7,3 7,4 5,4 4.6,3.2 3.9,3.2 2,5.8 2,7.8 "/>
</svg>
