<?xml version="1.0" encoding="UTF-8" standalone="no"?>
<svg width="12px" height="12px" viewBox="0 0 12 12" version="1.1" xmlns="http://www.w3.org/2000/svg" xmlns:xlink="http://www.w3.org/1999/xlink" xmlns:sketch="http://www.bohemiancoding.com/sketch/ns">
    <!-- Generator: Sketch 3.3.3 (12072) - http://www.bohemiancoding.com/sketch -->
    <title>cave-white-12</title>
    <desc>Created with Sketch.</desc>
    <defs></defs>
    <g id="cave" stroke="none" stroke-width="1" fill="none" fill-rule="evenodd" sketch:type="MSPage">
        <g id="cave-white-12" sketch:type="MSArtboardGroup" fill="#FFFFFF">
            <path d="M6,2 L7,2 L7,3 L6,3 L6,2 Z M8,2 L11,2 L11,3 L8,3 L8,2 Z M9,3 L11,3 L11,4 L9,4 L9,3 Z M10,4 L11,4 L11,5 L10,5 L10,4 Z M4,3 L5,3 L5,4 L4,4 L4,3 Z M3,4 L4,4 L4,5 L3,5 L3,4 Z M6,4 L7,4 L7,5 L6,5 L6,4 Z M4,5 L5,5 L5,8 L4,8 L4,5 Z M3,8 L4,8 L4,9 L3,9 L3,8 Z M2,9 L3,9 L3,10 L2,10 L2,9 Z M6,7 L7,7 L7,10 L6,10 L6,7 Z M7,5 L8,5 L8,6 L7,6 L7,5 Z M8,6 L9,6 L9,7 L8,7 L8,6 Z M5,4 L6,4 L6,7 L5,7 L5,4 Z" id="symbol" sketch:type="MSShapeGroup"></path>
        </g>
    </g>
</svg>