<?xml version="1.0" encoding="UTF-8" standalone="no"?>
<svg width="18px" height="18px" viewBox="0 0 18 18" version="1.1" xmlns="http://www.w3.org/2000/svg" xmlns:xlink="http://www.w3.org/1999/xlink" xmlns:sketch="http://www.bohemiancoding.com/sketch/ns">
    <!-- Generator: Sketch 3.3.3 (12072) - http://www.bohemiancoding.com/sketch -->
    <title>cave-black-18</title>
    <desc>Created with Sketch.</desc>
    <defs></defs>
    <g id="cave" stroke="none" stroke-width="1" fill="none" fill-rule="evenodd" sketch:type="MSPage">
        <g id="cave-black-18" sketch:type="MSArtboardGroup" fill="#000000">
            <path d="M7.16893424,6.00362963 C7.28737868,5.90809259 7.30471202,5.73840741 7.20793424,5.62433333 L6.69226757,4.99835185 C6.5954898,4.88142593 6.42360091,4.86431481 6.30804535,4.95842593 L4.10093424,6.73085185 C3.98537868,6.82496296 3.96515646,6.99464815 4.0604898,7.11157407 L4.57760091,7.73898148 C4.67293424,7.85305556 4.84482313,7.86874074 4.96326757,7.77748148 L7.16893424,6.00362963 Z M6.03683688,8.51040741 C5.91261465,8.60451852 5.80572577,8.7242963 5.72339243,8.86688889 C5.64394799,9.00235185 5.59628132,9.1477963 5.57461465,9.29181481 L4.94483688,11.9682778 L3.2100591,13.6180741 C3.16239243,13.6622778 3.1190591,13.7121852 3.08872577,13.7706481 C2.90528132,14.0857778 3.0150591,14.486463 3.33717021,14.6675556 C3.59283688,14.813 3.90917021,14.7673704 4.11572577,14.5805741 L6.04550354,12.7411296 C6.07294799,12.7069074 6.09894799,12.6712593 6.12061465,12.6313333 C6.14950354,12.5814259 6.17261465,12.5315185 6.18561465,12.4787593 L6.57850354,10.7819074 L7.86983688,12.0524074 L7.86694799,14.1941481 C7.86694799,14.4222963 7.98683688,14.6418889 8.2020591,14.7645185 C8.52128132,14.9427593 8.92717021,14.8343889 9.11061465,14.5206852 C9.17272577,14.4051852 9.20017021,14.2854074 9.19439243,14.1670556 L9.19728132,11.7857593 C9.2030591,11.6146481 9.14094799,11.4478148 9.02250354,11.3194815 L7.63150354,9.96342593 L9.23194799,8.66868519 L9.60172577,9.67966667 C9.6320591,9.74668519 9.67972577,9.808 9.73894799,9.85505556 L11.2686147,11.0000741 C11.4751702,11.1255556 11.7510591,11.0913333 11.922948,10.9102407 C12.1208369,10.7020556 12.1092813,10.3726667 11.8983924,10.1787407 C11.8926147,10.173037 11.883948,10.1673333 11.8781702,10.1616296 L10.5377258,9.15064815 L9.9180591,7.35398148 C9.81839243,7.11727778 9.64361465,6.91194444 9.40094799,6.77505556 C8.98928132,6.54405556 8.49528132,6.57685185 8.12839243,6.82211111 L6.03683688,8.51040741 Z M9.66071429,5.89166669 C10.3017591,5.89166669 10.8214286,5.37865963 10.8214286,4.74583336 C10.8214286,4.11300708 10.3017591,3.60000002 9.66071429,3.60000002 C9.01966949,3.60000002 8.5,4.11300708 8.5,4.74583336 C8.5,5.37865963 9.01966949,5.89166669 9.66071429,5.89166669 Z M12,4 L16,4 L16,5 L15,7 L14,8 L12,5 L12,4 Z" id="symbol" sketch:type="MSShapeGroup"></path>
        </g>
    </g>
</svg>