<?xml version="1.0" encoding="UTF-8" standalone="no"?>
<svg width="24px" height="24px" viewBox="0 0 24 24" version="1.1" xmlns="http://www.w3.org/2000/svg" xmlns:xlink="http://www.w3.org/1999/xlink" xmlns:sketch="http://www.bohemiancoding.com/sketch/ns">
    <!-- Generator: Sketch 3.3.3 (12072) - http://www.bohemiancoding.com/sketch -->
    <title>cave-white-24</title>
    <desc>Created with Sketch.</desc>
    <defs></defs>
    <g id="cave" stroke="none" stroke-width="1" fill="none" fill-rule="evenodd" sketch:type="MSPage">
        <g id="cave-white-24" sketch:type="MSArtboardGroup" fill="#FFFFFF">
            <path d="M14.8682681,6 C14.684464,6.65000507 14.1014748,7.125 13.4107143,7.125 C12.5724249,7.125 11.8928571,6.42544492 11.8928571,5.5625 C11.8928571,4.69955508 12.5724249,4 13.4107143,4 C14.0563731,4 14.6078746,4.41499249 14.8272407,5 L14,5 L14,6 L14.8682681,6 L14.8682681,6 Z M10.9076667,6.73222222 C11.0625556,6.60194444 11.0852222,6.37055556 10.9586667,6.215 L10.2843333,5.36138889 C10.1577778,5.20194444 9.933,5.17861111 9.78188889,5.30694444 L6.89566667,7.72388889 C6.74455556,7.85222222 6.71811111,8.08361111 6.84277778,8.24305556 L7.519,9.09861111 C7.64366667,9.25416667 7.86844444,9.27555556 8.02333333,9.15111111 L10.9076667,6.73222222 Z M8.05733333,10.1505556 C7.89488889,10.2788889 7.75511111,10.4422222 7.64744444,10.6366667 C7.54355556,10.8213889 7.48122222,11.0197222 7.45288889,11.2161111 L6.62933333,14.8658333 L4.36077778,17.1155556 C4.29844444,17.1758333 4.24177778,17.2438889 4.20211111,17.3236111 C3.96222222,17.7533333 4.10577778,18.2997222 4.527,18.5466667 C4.86133333,18.745 5.275,18.6827778 5.54511111,18.4280556 L8.06866667,15.9197222 C8.10455556,15.8730556 8.13855556,15.8244444 8.16688889,15.77 C8.20466667,15.7019444 8.23488889,15.6338889 8.25188889,15.5619444 L8.76566667,13.2480556 L10.4543333,14.9805556 L10.4505556,17.9011111 C10.4505556,18.2122222 10.6073333,18.5116667 10.8887778,18.6788889 C11.3062222,18.9219444 11.837,18.7741667 12.0768889,18.3463889 C12.1581111,18.1888889 12.194,18.0255556 12.1864444,17.8641667 L12.1902222,14.6169444 C12.1977778,14.3836111 12.1165556,14.1561111 11.9616667,13.9811111 L10.1426667,12.1319444 L12.2355556,10.3663889 L12.7191111,11.745 C12.7587778,11.8363889 12.8211111,11.92 12.8985556,11.9841667 L14.8988889,13.5455556 C15.169,13.7166667 15.5297778,13.67 15.7545556,13.4230556 C16.0133333,13.1391667 15.9982222,12.69 15.7224444,12.4255556 C15.7148889,12.4177778 15.7035556,12.41 15.696,12.4022222 L13.9431111,11.0236111 L13.1327778,8.57361111 C13.0024444,8.25083333 12.7738889,7.97083333 12.4565556,7.78416667 C11.9182222,7.46916667 11.2722222,7.51388889 10.7924444,7.84833333 L8.05733333,10.1505556 Z M16,5 L21,5 L21,7 L20,9 L19,10 L16,6 L16,5 Z" id="symbol" sketch:type="MSShapeGroup"></path>
        </g>
    </g>
</svg>