<?xml version="1.0" encoding="utf-8"?>
<!-- Generator: Adobe Illustrator 21.1.0, SVG Export Plug-In . SVG Version: 6.00 Build 0)  -->
<svg version="1.1" id="Layer_1" xmlns:sketch="http://www.bohemiancoding.com/sketch/ns"
	 xmlns="http://www.w3.org/2000/svg" xmlns:xlink="http://www.w3.org/1999/xlink" x="0px" y="0px" width="18px" height="18px"
	 viewBox="0 0 18 18" enable-background="new 0 0 18 18" xml:space="preserve">
<path id="symbol" sketch:type="MSShapeGroup" d="M7.2,5.3c0.1-0.1,0.1-0.3,0-0.4L6.7,4.3c-0.1-0.1-0.3-0.1-0.4,0L4.1,6
	C4,6.1,4,6.3,4.1,6.4L4.6,7c0.1,0.1,0.3,0.1,0.4,0L7.2,5.3z M6,7.8C5.9,7.9,5.8,8,5.7,8.1C5.6,8.3,5.6,8.4,5.6,8.6l-0.6,2.7
	l-1.7,1.6c0,0-0.1,0.1-0.1,0.2c-0.2,0.3-0.1,0.7,0.2,0.9c0.3,0.1,0.6,0.1,0.8-0.1L6,12c0,0,0.1-0.1,0.1-0.1c0,0,0.1-0.1,0.1-0.2
	l0.4-1.7l1.3,1.3l0,2.1c0,0.2,0.1,0.4,0.3,0.6c0.3,0.2,0.7,0.1,0.9-0.2c0.1-0.1,0.1-0.2,0.1-0.4l0-2.4c0-0.2-0.1-0.3-0.2-0.5
	L7.6,9.2l1.6-1.3l0.4,1c0,0.1,0.1,0.1,0.1,0.2l1.5,1.1c0.2,0.1,0.5,0.1,0.7-0.1c0.2-0.2,0.2-0.5,0-0.7c0,0,0,0,0,0l-1.3-1L9.9,6.6
	C9.8,6.4,9.6,6.2,9.4,6C9,5.8,8.5,5.9,8.1,6.1L6,7.8z M9.7,5.2c0.6,0,1.2-0.5,1.2-1.1s-0.5-1.1-1.2-1.1S8.5,3.4,8.5,4S9,5.2,9.7,5.2
	z M12,3.3h4v1l-1,2l-1,1l-2-3V3.3z"/>
</svg>
