<?xml version="1.0" encoding="utf-8"?>
<!-- Generator: Adobe Illustrator 21.1.0, SVG Export Plug-In . SVG Version: 6.00 Build 0)  -->
<svg version="1.1" id="Layer_1" xmlns:sketch="http://www.bohemiancoding.com/sketch/ns"
	 xmlns="http://www.w3.org/2000/svg" xmlns:xlink="http://www.w3.org/1999/xlink" x="0px" y="0px" width="24px" height="24px"
	 viewBox="0 0 24 24" enable-background="new 0 0 24 24" xml:space="preserve">
<title>cave-black-24</title>
<desc>Created with Sketch.</desc>
<g id="cave" sketch:type="MSPage">
	<g id="cave-black-24" sketch:type="MSArtboardGroup">
		<path id="symbol" sketch:type="MSShapeGroup" fill="#FFFFFF" d="M15,6c-0.2,0.7-0.9,1.2-1.6,1.2c-0.8,0-1.5-0.7-1.5-1.6
			S12.6,4,13.4,4C14,4.1,14.8,4.4,15,5h-1v1H15z M10.9,6.8c0.1-0.1,0.1-0.3,0-0.5l-0.7-0.9c-0.1-0.2-0.4-0.2-0.5-0.1L6.9,7.8
			C6.7,8,6.7,8.2,6.8,8.3l0.7,0.9C7.6,9.4,7.8,9.4,8,9.3L10.9,6.8z M8,10.3c-0.2,0.1-0.3,0.3-0.4,0.5s-0.2,0.4-0.2,0.6L6.6,15
			l-2.3,2.2c-0.1,0.1-0.1,0.1-0.2,0.2c-0.2,0.4-0.1,1,0.3,1.2c0.3,0.2,0.7,0.1,1-0.1L8,16l0.1-0.1c0-0.1,0.1-0.1,0.1-0.2l0.5-2.3
			l1.7,1.7V18c0,0.3,0.2,0.6,0.4,0.8c0.4,0.2,0.9,0.1,1.2-0.3c0.1-0.2,0.1-0.3,0.1-0.5v-3.2c0-0.2-0.1-0.5-0.2-0.6l-1.8-1.8l2.1-1.8
			l0.5,1.4c0,0.1,0.1,0.2,0.2,0.2l2,1.6c0.3,0.2,0.6,0.1,0.9-0.1c0.3-0.3,0.2-0.7,0-1l0,0L14,11.3l-0.8-2.4
			c-0.1-0.3-0.4-0.6-0.7-0.8c-0.5-0.3-1.2-0.3-1.7,0.1L8,10.3z M16,5h5v2.1l-1,2l-1,1L16,6V5z"/>
	</g>
</g>
</svg>
