<?xml version="1.0" encoding="utf-8"?>
<!-- Generator: Adobe Illustrator 21.1.0, SVG Export Plug-In . SVG Version: 6.00 Build 0)  -->
<svg version="1.1" id="Layer_1" xmlns:sketch="http://www.bohemiancoding.com/sketch/ns"
	 xmlns="http://www.w3.org/2000/svg" xmlns:xlink="http://www.w3.org/1999/xlink" x="0px" y="0px" width="12px" height="12px"
	 viewBox="0 0 12 12" enable-background="new 0 0 12 12" xml:space="preserve">
<rect x="6" y="2" width="1" height="1"/>
<polygon points="8,2 8,3 9,3 9,4 10,4 10,5 11,5 11,4 11,3 11,2 "/>
<rect x="4" y="3" width="1" height="1"/>
<rect x="3" y="4" width="1" height="1"/>
<rect x="3" y="8" width="1" height="1"/>
<rect x="2" y="9" width="1" height="1"/>
<rect x="6" y="7" width="1" height="3"/>
<rect x="7" y="5" width="1" height="1"/>
<rect x="8" y="6" width="1" height="1"/>
<polygon points="6,4 5,4 5,5 4,5 4,8 5,8 5,7 6,7 6,5 7,5 7,4 "/>
</svg>
