<?xml version="1.0" encoding="utf-8"?>
<!-- Generator: Adobe Illustrator 21.1.0, SVG Export Plug-In . SVG Version: 6.00 Build 0)  -->
<svg version="1.1" id="Layer_1" xmlns="http://www.w3.org/2000/svg" xmlns:xlink="http://www.w3.org/1999/xlink" x="0px" y="0px"
	 width="12px" height="12px" viewBox="0 0 12 12" enable-background="new 0 0 12 12" xml:space="preserve">
<path d="M6.3,2.9L5.3,4c0,0.1-0.1,0.2-0.2,0.2C4.9,4.2,4.8,4,4.8,3.9s0-0.2,0.1-0.2L6,2.5c0-0.2,0.1-0.2,0.2-0.2h1.5
	c0.1,0,0,0.6,0.1,0.6L9,3.4l0.8-0.8c0.1,0,0.1-0.1,0.2-0.1c0.2,0,0.3,0.1,0.3,0.3c0,0.1,0,0.2-0.1,0.2l-1,1C8.9,4.3,8.7,4,8.7,4
	L8.2,3.5l-1,1.4l0.9,0.6c0,0,0.2,0.2,0.1,0.5L7.8,8.1c0,0.2-0.3,0.6-0.5,0.6C7,8.7,6.9,8.2,6.9,8V7.9l0.4-1.8l-1-1l-0.9,1
	c0,0-0.1,0-0.5,0H3.2C3,6.1,2.7,6.1,2.6,6c0-0.3,0.3-0.5,0.5-0.5h0.1h2L6.9,3L6.3,2.9z"/>
<polygon points="3.3,9.4 3.3,10 10.4,10 11,9.4 11,8.7 10.4,8.7 10.4,9.4 "/>
<polygon points="2,6.8 2.6,6.8 4.6,8.7 3.9,8.7 "/>
<polygon points="8.4,8.7 9.1,8.7 11,3.6 10.4,3.6 "/>
<rect x="7.8" y="1" width="1.3" height="1.3"/>
</svg>
