<?xml version="1.0" encoding="utf-8"?>
<!-- Generator: Adobe Illustrator 21.1.0, SVG Export Plug-In . SVG Version: 6.00 Build 0)  -->
<svg version="1.1" id="Layer_1" xmlns="http://www.w3.org/2000/svg" xmlns:xlink="http://www.w3.org/1999/xlink" x="0px" y="0px"
	 width="24px" height="24px" viewBox="0 0 24 24" enable-background="new 0 0 24 24" xml:space="preserve">
<path fill="#FFFFFF" d="M12.5,8l-1.8,2.1c-0.1,0.1-0.3,0.2-0.4,0.2c-0.3,0-0.6-0.3-0.6-0.6c0-0.2,0.1-0.3,0.2-0.4l1.9-2.2
	c0.1-0.1,0.3-0.2,0.4-0.2l2.6-0.1c0.2,0,0.5,1,0.7,0.7L17.3,9l1.5-1.5c0.1-0.1,0.2-0.1,0.4-0.1c0.3,0,0.6,0.3,0.6,0.6
	c0,0.1,0,0.3-0.1,0.4L17.9,10c-0.5,0.5-1,0.1-1,0.1L15.8,9l-1.7,2l1.6,1.6c0,0,0.3,0.3,0.1,0.9L15,17.3c-0.1,0.3-0.4,0.3-0.7,0.3
	c-0.4,0-0.7,0-0.7-0.4c0-0.1,0-0.1,0-0.2l0.7-3.2l-1.8-1.7L11,13.8c0,0-0.2,0.3-0.9,0.3H7c-0.3,0-0.8-0.2-0.9-0.5
	c-0.1-0.4,0.3-0.8,0.7-0.9c0.1,0,0.1,0,0.2,0h2.7l3.9-4.6L12.5,8z"/>
<rect x="4.7" y="9.5" fill="#FFFFFF" width="4.1" height="0.7"/>
<polygon fill="#FFFFFF" points="7.4,18.3 7.4,19 19.6,19 20.3,18.3 20.3,17.6 19.6,17.6 19.6,18.3 "/>
<polygon fill="#FFFFFF" points="16.2,17.6 16.9,17.6 21,8.8 20.3,8.8 "/>
<polygon fill="#FFFFFF" points="4,13.5 4.7,13.5 8.1,16.9 8.8,16.9 8.8,17.6 8.1,17.6 "/>
<polygon fill="#FFFFFF" points="15.6,4 16.9,4 16.9,4.7 17.6,4.7 17.6,6.1 16.9,6.1 16.9,6.7 15.6,6.7 15.6,6.1 14.9,6.1 14.9,4.7 
	15.6,4.7 "/>
</svg>
