<?xml version="1.0" encoding="utf-8"?>
<!-- Generator: Adobe Illustrator 21.1.0, SVG Export Plug-In . SVG Version: 6.00 Build 0)  -->
<svg version="1.1" id="Layer_1" xmlns="http://www.w3.org/2000/svg" xmlns:xlink="http://www.w3.org/1999/xlink" x="0px" y="0px"
	 width="18px" height="18px" viewBox="0 0 18 18" enable-background="new 0 0 18 18" xml:space="preserve">
<path fill="#FFFFFF" d="M9.2,4.8L7.8,6.4C7.7,6.5,7.6,6.6,7.5,6.6C7.2,6.6,7,6.4,7,6.1C7,6,7,5.9,7.1,5.8L8.7,4
	C8.8,3.9,8.9,3.9,9,3.9h2.2c0.2,0,0,0.8,0.1,0.9l1.8,0.7l1.2-1.2c0.1-0.1,0.2-0.1,0.3-0.1c0.3,0,0.5,0.2,0.5,0.5
	c0,0.1,0,0.2-0.1,0.3l-1.4,1.4c-0.4,0.4-0.8,0.1-0.8,0.1l-0.9-0.9l-1.5,2l1.4,0.8c0,0,0.3,0.2,0.1,0.7l-0.5,3.1
	c-0.1,0.3-0.5,0.9-0.7,0.9c-0.3,0-0.6-0.7-0.6-1V12l0.6-2.6L9.2,8L8,9.4c0,0-0.2,0.1-0.7,0H4.8c-0.3,0-0.8,0-0.9-0.3
	c0-0.3,0.4-0.6,0.7-0.7l0.1,0.1l2.9-0.1L10,4.8L9.2,4.8z"/>
<polygon fill="#FFFFFF" points="4.9,14.1 4.9,15 15.1,15 16,14.1 16,13.1 15.1,13.1 15.1,14.1 "/>
<polygon fill="#FFFFFF" points="3,10.4 3.9,10.4 6.7,13.1 5.8,13.1 "/>
<polygon fill="#FFFFFF" points="12.3,13.1 13.2,13.1 16,5.7 15.1,5.7 "/>
<rect x="11.4" y="2" fill="#FFFFFF" width="1.9" height="1.9"/>
</svg>
