<?xml version="1.0" encoding="utf-8"?>
<!-- Generator: Adobe Illustrator 21.1.0, SVG Export Plug-In . SVG Version: 6.00 Build 0)  -->
<svg version="1.1" id="Layer_1" xmlns:sketch="http://www.bohemiancoding.com/sketch/ns"
	 xmlns="http://www.w3.org/2000/svg" xmlns:xlink="http://www.w3.org/1999/xlink" x="0px" y="0px" width="18px" height="18px"
	 viewBox="0 0 18 18" enable-background="new 0 0 18 18" xml:space="preserve">
<path id="symbol" sketch:type="MSShapeGroup" d="M16,12.1c-0.4,0.1-0.8,0-1.2-0.3c-0.4-0.3-0.9-0.3-1.3,0C13.4,11.9,13.2,12,13,12
	l0,0V11c0,0,0,0,0.1,0c0.7-0.6,1.6-0.5,2.2,0c0.2,0.2,0.5,0.2,0.7,0.1V12.1z M16,15c-0.4,0.1-0.8,0-1.2-0.3c-0.4-0.3-0.9-0.3-1.3,0
	c-0.2,0.1-0.3,0.2-0.5,0.3l0,0v-1.1c0,0,0,0,0.1,0c0.7-0.6,1.6-0.5,2.2,0c0.2,0.2,0.5,0.2,0.7,0.1V15L16,15z M3,4h4v1H3V4z M3,6h4v1
	H3V6z M3,8h4v1H3V8z M3,10h4v1H3V10z M3,12h4v1H3V12z M3,14h4v1H3V14z M8,2h1.5L12,15H8V2z"/>
</svg>
