<?xml version="1.0" encoding="UTF-8" standalone="no"?>
<svg width="12px" height="12px" viewBox="0 0 12 12" version="1.1" xmlns="http://www.w3.org/2000/svg" xmlns:xlink="http://www.w3.org/1999/xlink" xmlns:sketch="http://www.bohemiancoding.com/sketch/ns">
    <!-- Generator: Sketch 3.3.3 (12072) - http://www.bohemiancoding.com/sketch -->
    <title>dam-black-12</title>
    <desc>Created with Sketch.</desc>
    <defs></defs>
    <g id="dam" stroke="none" stroke-width="1" fill="none" fill-rule="evenodd" sketch:type="MSPage">
        <g id="dam-black-12" sketch:type="MSArtboardGroup" fill="#000000">
            <path d="M2,9 L4,9 L4,10 L2,10 L2,9 Z M2,7 L4,7 L4,8 L2,8 L2,7 Z M2,5 L4,5 L4,6 L2,6 L2,5 Z M2,3 L4,3 L4,4 L2,4 L2,3 Z M5,1 L6,1 L8,10 L5,10 L5,1 Z M9,7 L11,7 L11,8 L9,8 L9,7 Z M9,9 L11,9 L11,10 L9,10 L9,9 Z" id="Rectangle-11-Copy-4" sketch:type="MSShapeGroup"></path>
        </g>
    </g>
</svg>