<?xml version="1.0" encoding="utf-8"?>
<!-- Generator: Adobe Illustrator 21.1.0, SVG Export Plug-In . SVG Version: 6.00 Build 0)  -->
<svg version="1.1" id="Layer_1" xmlns:sketch="http://www.bohemiancoding.com/sketch/ns"
	 xmlns="http://www.w3.org/2000/svg" xmlns:xlink="http://www.w3.org/1999/xlink" x="0px" y="0px" width="24px" height="24px"
	 viewBox="0 0 24 24" enable-background="new 0 0 24 24" xml:space="preserve">
<path id="symbol" sketch:type="MSShapeGroup" fill="#FFFFFF" d="M21,16c-0.1,0-0.1-0.1-0.2-0.1c-0.6-0.4-0.9-0.4-1.1-0.2
	c-0.6,0.6-1.2,0.6-1.8,0.1c-0.2-0.2-0.5-0.3-0.8-0.2l0,0v-1c0.5,0,0.9,0.1,1.3,0.4c0.3,0.2,0.6,0.2,0.9,0c0.5-0.5,1.1-0.4,1.9,0V16
	L21,16z M21,18.9c-0.1,0-0.1-0.1-0.2-0.1c-0.6-0.4-0.9-0.4-1.1-0.2c-0.6,0.6-1.2,0.6-1.8,0.1c-0.2-0.2-0.5-0.3-0.8-0.2l0,0v-1
	c0.5,0,0.9,0.1,1.3,0.4c0.3,0.2,0.6,0.2,0.9,0c0.5-0.5,1.1-0.4,1.9,0V18.9L21,18.9z M11,4h2l3,15h-5V4z M4,18h6v1H4V18z M4,16h6v1H4
	V16z M4,14h6v1H4V14z M4,12h6v1H4V12z M4,10h6v1H4V10z M4,8h6v1H4V8z M4,6h6v1H4V6z"/>
</svg>
