<?xml version="1.0" encoding="UTF-8" standalone="no"?>
<svg width="24px" height="24px" viewBox="0 0 24 24" version="1.1" xmlns="http://www.w3.org/2000/svg" xmlns:xlink="http://www.w3.org/1999/xlink" xmlns:sketch="http://www.bohemiancoding.com/sketch/ns">
    <!-- Generator: Sketch 3.3.3 (12072) - http://www.bohemiancoding.com/sketch -->
    <title>dam-white-24</title>
    <desc>Created with Sketch.</desc>
    <defs></defs>
    <g id="dam" stroke="none" stroke-width="1" fill="none" fill-rule="evenodd" sketch:type="MSPage">
        <g id="dam-white-24" sketch:type="MSArtboardGroup" fill="#FFFFFF">
            <path d="M21,16.972362 C20.9282753,16.9461744 20.8597193,16.9138843 20.7953342,16.875329 C20.1998274,16.5187262 19.8939623,16.4469679 19.664864,16.6619746 C19.0681824,17.2219552 18.4179017,17.2123889 17.8402898,16.7602571 C17.6012951,16.5731815 17.3004697,16.4860608 17,16.5393716 L17,16.5393716 L17,15.532001 C17.4655694,15.4838386 17.9243399,15.63218 18.2976129,15.9243634 C18.5897205,16.1530137 18.8501206,16.1568445 19.1493278,15.8760411 C19.6961587,15.3628449 20.2197778,15.4433816 21,15.8835163 L21,16.972362 L21,16.972362 Z M21,19.8723616 C20.9282753,19.846174 20.8597193,19.8138839 20.7953342,19.7753286 C20.1998274,19.4187258 19.8939623,19.3469675 19.664864,19.5619742 C19.0681824,20.1219548 18.4179017,20.1123885 17.8402898,19.6602567 C17.6012951,19.4731811 17.3004697,19.3860604 17,19.4393713 L17,19.4393713 L17,18.4320007 C17.4655694,18.3838382 17.9243399,18.5321796 18.2976129,18.824363 C18.5897205,19.0530133 18.8501206,19.0568441 19.1493278,18.7760407 C19.6961587,18.2628446 20.2197778,18.3433813 21,18.7835159 L21,19.8723616 L21,19.8723616 Z M11,5 L13,5 L16,20 L11,20 L11,5 Z M4,19 L10,19 L10,20 L4,20 L4,19 Z M4,17 L10,17 L10,18 L4,18 L4,17 Z M4,15 L10,15 L10,16 L4,16 L4,15 Z M4,13 L10,13 L10,14 L4,14 L4,13 Z M4,11 L10,11 L10,12 L4,12 L4,11 Z M4,9 L10,9 L10,10 L4,10 L4,9 Z M4,7 L10,7 L10,8 L4,8 L4,7 Z" id="symbol-copy" sketch:type="MSShapeGroup"></path>
        </g>
    </g>
</svg>