<?xml version="1.0" encoding="utf-8"?>
<!-- Generator: Adobe Illustrator 21.1.0, SVG Export Plug-In . SVG Version: 6.00 Build 0)  -->
<svg version="1.1" id="Layer_1" xmlns="http://www.w3.org/2000/svg" xmlns:xlink="http://www.w3.org/1999/xlink" x="0px" y="0px"
	 width="18px" height="18px" viewBox="0 0 18 18" enable-background="new 0 0 18 18" xml:space="preserve">
<g id="icons">
	<g>
		<path d="M9.7,3.2C9.1,2.7,8.3,2.9,7.9,3.5C7.7,3.9,7.6,4.3,7.7,4.6l0.7,2.3L6.3,7.6C6,7.7,5.8,8,5.8,8.3C5.7,8.7,6.1,9,6.5,9.1
			c0.1,0,0.2,0,0.3,0l2.7-1c0.2-0.1,0-0.3,0-0.5c0-0.1,0,0.1,0,0V5.7l1.9,0.9l0.3,1.6c0,0.3,0.1,0.5,0.3,0.6l2.3,1.3
			c0.2,0.1,0.6,0,0.7-0.2c0.1-0.2,0-0.6-0.2-0.7l-1.8-1l-0.2-2.7c0-0.3-0.2-0.6-0.5-0.8L9.7,3.2z"/>
		<polygon points="3,7.6 3,8.5 11.4,14 15,14 15,13 11.4,13 		"/>
		<rect x="14" y="5" width="2" height="2"/>
	</g>
</g>
<g id="guides">
</g>
</svg>
