<?xml version="1.0" encoding="utf-8"?>
<!-- Generator: Adobe Illustrator 21.1.0, SVG Export Plug-In . SVG Version: 6.00 Build 0)  -->
<svg version="1.1" id="Layer_1" xmlns="http://www.w3.org/2000/svg" xmlns:xlink="http://www.w3.org/1999/xlink" x="0px" y="0px"
	 width="24px" height="24px" viewBox="0 0 24 24" enable-background="new 0 0 24 24" xml:space="preserve">
<path fill="#FFFFFF" d="M13.4,3.7c-0.9-0.6-2-0.4-2.6,0.5c-0.3,0.5-0.4,1.1-0.3,1.6l1,3.2l-3,1c-0.4,0.1-0.7,0.5-0.7,0.9
	c-0.1,0.6,0.4,0.9,1,1c0.1,0,0.2,0,0.4,0l4.1-1.3c0.3-0.1,0.6-0.4,0.7-0.7c0-0.2,0.1-0.3,0-0.5l-0.6-2.2l2.5,1.5l0.3,2.1
	c0,0.4,0.2,0.6,0.5,0.8l2.7,1.8c0.4,0.2,1.3,0.2,1.5-0.2s0.1-0.8-0.3-1l-2.7-1.5v-2h-0.8V7.3h0.8c-0.3-0.6-0.4-1.1-0.8-1.4L13.4,3.7
	L13.4,3.7z"/>
<polygon fill="#FFFFFF" points="3.9,10.3 18.6,18.8 20.1,18.8 20.1,18.1 20.9,18.1 20.9,18.8 20.1,19.6 18.6,19.6 3.9,11.1 "/>
<g id="guides">
</g>
<circle fill="#FFFFFF" cx="20" cy="8" r="1.5"/>
</svg>
