<?xml version="1.0" encoding="utf-8"?>
<!-- Generator: Adobe Illustrator 21.1.0, SVG Export Plug-In . SVG Version: 6.00 Build 0)  -->
<svg version="1.1" id="Layer_1" xmlns="http://www.w3.org/2000/svg" xmlns:xlink="http://www.w3.org/1999/xlink" x="0px" y="0px"
	 width="12px" height="12px" viewBox="0 0 12 12" enable-background="new 0 0 12 12" xml:space="preserve">
<g id="icons">
	<g>
		<path d="M6.7,1.8c-0.4-0.3-1-0.2-1.3,0.3C5.2,2.3,5.2,2.6,5.3,2.8l0.5,1.6L4.3,4.9C4.1,5,4,5.1,3.9,5.3c0,0.3,0.2,0.5,0.5,0.6
			c0.1,0,0.1,0,0.2,0l1.9-0.7c0.1-0.1,0-0.2,0-0.3c0-0.1,0,0,0,0V3.6l1.3,0.6L8,5.3c0,0.2,0.1,0.3,0.2,0.4l1.6,0.9
			c0.2,0.1,0.4,0,0.5-0.1c0.1-0.2,0-0.4-0.1-0.5L8.9,5.3L8.8,3.4c0-0.2-0.1-0.4-0.3-0.5L6.7,1.8z"/>
		<polygon points="2,4.9 2,5.5 7.8,9.4 10.4,9.4 10.4,8.7 7.8,8.7 		"/>
		<rect x="9.7" y="2.9" width="1.3" height="1.3"/>
	</g>
</g>
<g id="guides">
</g>
</svg>
