<?xml version="1.0" encoding="utf-8"?>
<!-- Generator: Adobe Illustrator 21.1.0, SVG Export Plug-In . SVG Version: 6.00 Build 0)  -->
<svg version="1.1" id="Layer_1" xmlns="http://www.w3.org/2000/svg" xmlns:xlink="http://www.w3.org/1999/xlink" x="0px" y="0px"
	 width="12px" height="12px" viewBox="0 0 12 12" enable-background="new 0 0 12 12" xml:space="preserve">
<g id="icons">
	<g>
		<polygon fill="#FFFFFF" points="9,1 8,1 8,2 7,2 7,1 6,1 6,2 5,2 5,1 4,1 4,2 5,2 5,3 6,3 6,2 7,2 7,3 8,3 8,2 9,2 		"/>
		<polygon fill="#FFFFFF" points="3,1 3.6,1 3.6,2.3 4.9,9.4 8.1,9.4 9.4,2.3 9.4,1 10,1 8.8,10 4.3,10 		"/>
	</g>
</g>
<g id="guides">
</g>
</svg>
