<?xml version="1.0" encoding="utf-8"?>
<!-- Generator: Adobe Illustrator 21.1.0, SVG Export Plug-In . SVG Version: 6.00 Build 0)  -->
<svg version="1.1" id="Layer_1" xmlns="http://www.w3.org/2000/svg" xmlns:xlink="http://www.w3.org/1999/xlink" x="0px" y="0px"
	 width="24px" height="24px" viewBox="0 0 24 24" enable-background="new 0 0 24 24" xml:space="preserve">
<g id="icons">
	<g>
		<polygon fill="#FFFFFF" points="19.5,3 17.9,3 15.6,18.5 9.4,18.5 7.1,3 5.5,3 8.3,20 16.7,20 		"/>
		<polygon fill="#FFFFFF" points="8.6,3 9.4,3 9.4,3.8 11,3.8 11,3 11.7,3 11.7,3.8 13.3,3.8 13.3,3 14,3 14,3.8 15.6,3.8 15.6,3 
			16.4,3 16.4,4.5 15.6,4.5 15.6,5.3 14,5.3 14,4.5 13.3,4.5 13.3,5.3 11.7,5.3 11.7,4.5 11,4.5 11,5.3 9.4,5.3 9.4,4.5 8.6,4.5 		
			"/>
	</g>
</g>
<g id="guides">
</g>
</svg>
