<?xml version="1.0" encoding="utf-8"?>
<!-- Generator: Adobe Illustrator 21.1.0, SVG Export Plug-In . SVG Version: 6.00 Build 0)  -->
<svg version="1.1" id="Layer_1" xmlns="http://www.w3.org/2000/svg" xmlns:xlink="http://www.w3.org/1999/xlink" x="0px" y="0px"
	 width="18px" height="18px" viewBox="0 0 18 18" enable-background="new 0 0 18 18" xml:space="preserve">
<g id="icons">
	<g>
		<polygon points="12.8,2 12,2 12,3 10,3 10,2 9,2 9,3 7,3 7,2 6.2,2 6.2,3.9 7.2,3.9 7.2,4.8 9,4.8 9,3.9 10,3.9 10,4.8 11.8,4.8 
			11.8,3.9 12.8,3.9 12.8,2.9 		"/>
		<polygon points="4.4,2 5.3,2 5.3,3.9 7.2,14.1 11.8,14.1 13.7,3.9 13.7,2 14.6,2 12.8,15 6.2,15 		"/>
	</g>
</g>
<g id="guides">
</g>
</svg>
