<?xml version="1.0" encoding="utf-8"?>
<!-- Generator: Adobe Illustrator 18.1.1, SVG Export Plug-In . SVG Version: 6.00 Build 0)  -->
<svg version="1.1" id="Icons" xmlns="http://www.w3.org/2000/svg" xmlns:xlink="http://www.w3.org/1999/xlink" x="0px" y="0px"
	 viewBox="0 0 18 18" enable-background="new 0 0 18 18" xml:space="preserve">
<g>
	<path d="M6.8,2C6.2,2.1,4.1,3.1,4,8.3C4,13.8,6.2,15,6.8,15v-3.7c-0.5,0-0.7-0.5-0.8-1.6C5.9,8.9,5.9,8.2,6,7.3
		c0.1-0.7,0.2-1.6,0.8-1.6V2z"/>
	<polygon points="8,11 9,11 10,12 10,14 9,15 8,15 	"/>
	<polygon points="8,2 9,2 9.6,2.9 9.6,4.8 9,6 8,6 	"/>
</g>
<g>
	<path d="M12,14.1c0-0.6,0.5-1.1,1.1-1.1c0.6,0,1.1,0.5,1.1,1.1c0,0.6-0.4,1.1-1.1,1.1C12.4,15.2,12,14.7,12,14.1z M12.5,11.5
		l-0.3-8.6h1.7l-0.3,8.6H12.5z"/>
</g>
</svg>
