<?xml version="1.0" encoding="utf-8"?>
<!-- Generator: Adobe Illustrator 21.1.0, SVG Export Plug-In . SVG Version: 6.00 Build 0)  -->
<svg version="1.1" id="Icons" xmlns="http://www.w3.org/2000/svg" xmlns:xlink="http://www.w3.org/1999/xlink" x="0px" y="0px"
	 width="18px" height="18px" viewBox="0 0 18 18" enable-background="new 0 0 18 18" xml:space="preserve">
<g>
	<path fill="#FFFFFF" d="M7.2,2C6.6,2.1,4.6,3.1,4.5,8.2c0,5.4,2.2,6.6,2.8,6.6v-3.6c-0.5,0-0.7-0.5-0.8-1.6c-0.1-0.8-0.1-1.5,0-2.4
		c0.1-0.7,0.2-1.6,0.8-1.6V2z"/>
	<polygon fill="#FFFFFF" points="8.4,10.9 9.4,10.9 10.4,11.8 10.4,13.8 9.4,14.8 8.4,14.8 	"/>
	<polygon fill="#FFFFFF" points="8.4,2 9.4,2 10,2.9 10,4.8 9.4,5.9 8.4,5.9 	"/>
</g>
<g>
	<path fill="#FFFFFF" d="M12.4,13.9c0-0.6,0.5-1.1,1.1-1.1c0.6,0,1.1,0.5,1.1,1.1c0,0.6-0.4,1.1-1.1,1.1
		C12.7,15,12.4,14.5,12.4,13.9z M12.8,11.4l-0.3-8.5h1.7l-0.3,8.5H12.8z"/>
</g>
</svg>
