<?xml version="1.0" encoding="utf-8"?>
<!-- Generator: Adobe Illustrator 18.1.1, SVG Export Plug-In . SVG Version: 6.00 Build 0)  -->
<svg version="1.1" id="Icons" xmlns="http://www.w3.org/2000/svg" xmlns:xlink="http://www.w3.org/1999/xlink" x="0px" y="0px"
	 viewBox="0 0 24 24" enable-background="new 0 0 24 24" xml:space="preserve">
<g>
	<path fill="#FFFFFF" d="M9.9,3C9.1,3.1,6.1,4.4,6,11.3C5.9,18.5,9.1,20,9.9,20v-4.6c-0.7,0-0.9-0.8-1-2.3c-0.1-1-0.1-1.9,0-3.1
		c0.1-0.9,0.3-2.3,1-2.3V3z"/>
	<polygon fill="#FFFFFF" points="11,3 12.2,3 13,3.8 13,6.9 12.2,7.6 11,8 	"/>
	<polygon fill="#FFFFFF" points="11,15 12.2,15.4 13,16.1 13,19.2 12.2,20 11,20 	"/>
</g>
<g>
	<path fill="#FFFFFF" d="M16.2,18c0-0.9,0.6-1.5,1.4-1.5c0.9,0,1.4,0.6,1.4,1.5c0,0.8-0.6,1.5-1.4,1.5C16.7,19.4,16.2,18.8,16.2,18z
		 M16.8,14.5L16,3h3l-0.6,11.5H16.8z"/>
</g>
</svg>
