<?xml version="1.0" encoding="utf-8"?>
<!-- Generator: Adobe Illustrator 18.1.1, SVG Export Plug-In . SVG Version: 6.00 Build 0)  -->
<svg version="1.1" id="Icons" xmlns="http://www.w3.org/2000/svg" xmlns:xlink="http://www.w3.org/1999/xlink" x="0px" y="0px"
	 viewBox="0 0 12 12" enable-background="new 0 0 12 12" xml:space="preserve">
<g>
	<path fill="#FFFFFF" d="M5,1C4.6,1,3.2,1.8,3.1,5.4C3.1,9.2,4.6,10,5,10V7C4.6,7,4.6,7.1,4.5,6.3c-0.1-0.5-0.1-1,0-1.6
		C4.6,4.2,4.6,4,5,4V1z"/>
	<polygon fill="#FFFFFF" points="5.6,7 7,8.1 7,9 5.6,10 	"/>
	<polygon fill="#FFFFFF" points="5.6,1 7,2 7,2.9 5.6,4 	"/>
</g>
<g>
	<path fill="#FFFFFF" d="M8.7,9.3c0-0.5,0.3-0.8,0.8-0.8c0.5,0,0.8,0.3,0.8,0.8c0,0.5-0.3,0.8-0.8,0.8C9,10.1,8.7,9.8,8.7,9.3z
		 M9.1,7.5L8.9,1.2h1.2L9.9,7.5H9.1z"/>
</g>
</svg>
