<?xml version="1.0" encoding="utf-8"?>
<!-- Generator: Adobe Illustrator 18.1.1, SVG Export Plug-In . SVG Version: 6.00 Build 0)  -->
<svg version="1.1" id="Layer_1" xmlns="http://www.w3.org/2000/svg" xmlns:xlink="http://www.w3.org/1999/xlink" x="0px" y="0px"
	 viewBox="0 0 18 18" enable-background="new 0 0 18 18" xml:space="preserve">
<g opacity="0.2">
	<rect x="7" y="7" fill="none" width="2" height="4"/>
	<path d="M15,15v-4h1V8h-3v3h1v4h-4V7h2L8,3L4,7h2v8H4v1h13v-1H15z M9,7v4H7V7H9z"/>
</g>
<g>
	<rect x="6" y="6" fill="none" width="2" height="4"/>
	<path d="M14,14v-4h1V7h-3v3h1v4H9V6h2L7,2L3,6h2v8H3v1h13v-1H14z M8,6v4H6V6H8z"/>
</g>
</svg>
