<?xml version="1.0" encoding="utf-8"?>
<!-- Generator: Adobe Illustrator 18.1.1, SVG Export Plug-In . SVG Version: 6.00 Build 0)  -->
<svg version="1.1" id="Layer_1" xmlns="http://www.w3.org/2000/svg" xmlns:xlink="http://www.w3.org/1999/xlink" x="0px" y="0px"
	 viewBox="0 0 18 18" enable-background="new 0 0 18 18" xml:space="preserve">
<polygon opacity="0.2" points="15,3 9,3 9,5 15,5 15,14 9,14 9,16 15,16 17,16 17,3 "/>
<polygon opacity="0.2" points="13,9.5 9,6 9,8 4,8 4,11 9,11 9,13 "/>
<polygon fill="#FFFFFF" points="14,2 8,2 8,4 14,4 14,13 8,13 8,15 14,15 16,15 16,2 "/>
<polygon fill="#FFFFFF" points="12,8.5 8,5 8,7 3,7 3,10 8,10 8,12 "/>
</svg>
