<?xml version="1.0" encoding="utf-8"?>
<!-- Generator: Adobe Illustrator 18.1.1, SVG Export Plug-In . SVG Version: 6.00 Build 0)  -->
<svg version="1.1" id="Layer_1" xmlns="http://www.w3.org/2000/svg" xmlns:xlink="http://www.w3.org/1999/xlink" x="0px" y="0px"
	 viewBox="0 0 24 24" enable-background="new 0 0 24 24" xml:space="preserve">
<g opacity="0.2">
	<rect x="8" y="10" fill="none" width="4" height="6"/>
	<path d="M19,21v-6h1v-4h-3v4h1v6h-5V9h2l-5-5L5,9h2v12H5v1h17v-1H19z M8,16v-6h4v6H8z"/>
</g>
<g>
	<rect x="7" y="9" fill="none" width="4" height="6"/>
	<path d="M18,20v-6h1v-4h-3v4h1v6h-5V8h2L9,3L4,8h2v12H4v1h17v-1H18z M7,15V9h4v6H7z"/>
</g>
</svg>
