<?xml version="1.0" encoding="utf-8"?>
<!-- Generator: Adobe Illustrator 21.1.0, SVG Export Plug-In . SVG Version: 6.00 Build 0)  -->
<svg version="1.1" id="Layer_1" xmlns="http://www.w3.org/2000/svg" xmlns:xlink="http://www.w3.org/1999/xlink" x="0px" y="0px"
	 width="18px" height="18px" viewBox="0 0 18 18" enable-background="new 0 0 18 18" xml:space="preserve">
<path fill="#FFFFFF" d="M6.8,10.1v0.1l0.1,0.1l2.7,0.5V12H6.7v0.3c0,0,5.6,2.2,9.3,2.2V7.9C10,7.9,6.8,10.1,6.8,10.1z M12,11h-1v-1
	h1V11z"/>
<polygon fill="#FFFFFF" points="16,2.4 16,3.3 12.3,3.3 9.5,5.1 4.9,9.8 3.9,9.8 3,8.9 3,7.9 3,6.1 3.9,6.1 4.9,6.1 4.9,7.9 3.9,7 
	3.9,8.9 4.9,8.9 9.5,4.2 12.3,2.4 "/>
</svg>
