<?xml version="1.0" encoding="utf-8"?>
<!-- Generator: Adobe Illustrator 21.1.0, SVG Export Plug-In . SVG Version: 6.00 Build 0)  -->
<svg version="1.1" id="Layer_1" xmlns="http://www.w3.org/2000/svg" xmlns:xlink="http://www.w3.org/1999/xlink" x="0px" y="0px"
	 width="12px" height="12px" viewBox="0 0 12 12" enable-background="new 0 0 12 12" xml:space="preserve">
<path d="M4.6,6.6L4.6,6.6v0.2l1.9,0.3V8h-2c1.7,1.5,4,1.7,6.5,1.7V5.2C6.9,5.2,4.6,6.6,4.6,6.6z M7,7V6h1v1H7z"/>
<polygon points="11,1.3 11,2 8.4,2 6.5,3.2 3.3,6.5 2.6,6.5 2,5.8 2,5.2 2,3.9 2.6,3 3.3,3 3.3,4 2.6,4.5 2.6,5.8 3.3,5.8 6.5,2.6 
	8.4,1.3 "/>
</svg>
