<?xml version="1.0" encoding="utf-8"?>
<!-- Generator: Adobe Illustrator 21.1.0, SVG Export Plug-In . SVG Version: 6.00 Build 0)  -->
<svg version="1.1" id="Layer_1" xmlns="http://www.w3.org/2000/svg" xmlns:xlink="http://www.w3.org/1999/xlink" x="0px" y="0px"
	 width="24px" height="24px" viewBox="0 0 24 24" enable-background="new 0 0 24 24" xml:space="preserve">
<path fill="#FFFFFF" d="M8.7,13.4l-0.1,0.1l0.1,0.2l3,0.8c0.1,0.1,0.2,1.4,0,1.4H8.6v0.1C11.9,18.8,15.5,19,20,19v-9
	C12.3,10,8.7,13.4,8.7,13.4z M14,14h-1v-1h1V14z"/>
<path fill="#FFFFFF" d="M18.7,4c-2.6,0-4.4,1-7.2,3.3c-0.1,0-0.3-0.1-0.3-0.1c-0.4,0-0.8,0.4-0.8,0.8c0,0,0,0.1,0,0.2
	c-0.1,0.1-2.3,2.1-2.3,2.1l-1.8,2c-0.2,0.2-0.5,0-0.8,0c-0.2,0-0.5,0-0.6-0.2c-0.2-0.2-0.2-0.4-0.2-0.6c0-0.2,0.1-0.5,0.3-0.7
	c0,0,0.1-0.1,0.3-0.1c0,0.2,0.1,0.7,0.1,0.7l1.8-2.1l-2,0.6c-0.5,0.2-0.6,0.4-0.7,0.4c-0.6,0.6-0.7,1.4-0.1,2.2
	c1.1,0.4,0.7,0.4,1.9,0.5l0.8-0.8l1.4-1.4c0,0,2.3-2.1,2.3-2.2c0.1,0,0.3,0.1,0.3,0.1c0.4,0,0.8-0.4,0.8-0.8c0,0,0-0.1,0-0.2
	c2.7-2.2,4.4-3,6.8-3c0.5,0,2.3,0,2.3,0V4H18.7z"/>
</svg>
