<?xml version="1.0" encoding="utf-8"?>
<!-- Generator: Adobe Illustrator 21.1.0, SVG Export Plug-In . SVG Version: 6.00 Build 0)  -->
<svg version="1.1" id="Layer_1" xmlns="http://www.w3.org/2000/svg" xmlns:xlink="http://www.w3.org/1999/xlink" x="0px" y="0px"
	 width="18px" height="18px" viewBox="0 0 18 18" enable-background="new 0 0 18 18" xml:space="preserve">
<path d="M10,8.8c0.3-0.3,0.8-0.5,1.3-0.5c1.1,0,1.9,0.9,1.9,1.9l0,0.1h0c0,0.4-0.2,0.9-0.5,1.6c0,0-0.5,1-1,1.5l0,0
	c-0.2,0.2-0.5,0.3-0.8,0.3c-0.4,0-0.7-0.2-0.9-0.5h0c-0.2,0.3-0.6,0.5-0.9,0.5c-0.3,0-0.6-0.1-0.8-0.3l0,0c-0.4-0.5-1-1.5-1-1.5
	c-0.3-0.6-0.4-1.1-0.5-1.6h0l0-0.1c0-1.1,0.9-1.9,1.9-1.9C9.2,8.2,9.7,8.4,10,8.8"/>
<polygon points="9.2,7.7 9.2,6.7 10.2,5.7 11.2,4.7 12.2,4.7 12.2,5.7 10.2,7.7 "/>
<polygon points="15,6 15,14 4,14 4,5.7 4.3,5.6 15.9,3 15.7,2 15,2 3,4.6 3,5.5 3,15 16,15 16,6 "/>
</svg>
