<?xml version="1.0" encoding="utf-8"?>
<!-- Generator: Adobe Illustrator 18.1.1, SVG Export Plug-In . SVG Version: 6.00 Build 0)  -->
<svg version="1.1" id="Layer_1" xmlns="http://www.w3.org/2000/svg" xmlns:xlink="http://www.w3.org/1999/xlink" x="0px" y="0px"
	 viewBox="0 0 18 18" enable-background="new 0 0 18 18" xml:space="preserve">
<g opacity="0.2">
	<path d="M11.002,10.259c0.343-0.34,0.812-0.544,1.333-0.544c1.05,0,1.905,0.851,1.905,1.903l-0.002,0.113h-0.004
		c-0.033,0.412-0.164,0.923-0.474,1.558c0,0-0.533,1.021-0.962,1.49l-0.039,0.037c-0.207,0.208-0.498,0.34-0.814,0.34
		c-0.388,0-0.731-0.188-0.939-0.48H11c-0.209,0.292-0.552,0.48-0.939,0.48c-0.319,0-0.607-0.129-0.816-0.34l-0.039-0.037
		c-0.425-0.469-0.962-1.49-0.962-1.49c-0.31-0.635-0.441-1.15-0.471-1.558H7.766l-0.005-0.113c0-1.052,0.854-1.903,1.908-1.903
		C10.186,9.714,10.655,9.919,11.002,10.259"/>
	<polygon points="10.239,9.154 10.239,8.154 11.239,7.154 12.239,6.154 13.239,6.154 13.239,7.154 11.239,9.154 	"/>
</g>
<polygon opacity="0.2" points="16,7 16,16 5,16 5,7.19 5.299,7.115 16.913,3.97 16.671,3 16.671,3 16.031,3 4,6.062 4,7 4,17 17,17 
	17,7 "/>
<g>
	<path fill="#FFFFFF" d="M10.002,9.259c0.343-0.34,0.812-0.544,1.333-0.544c1.05,0,1.905,0.851,1.905,1.903l-0.002,0.113h-0.004
		c-0.033,0.412-0.164,0.923-0.474,1.558c0,0-0.533,1.021-0.962,1.49l-0.039,0.037c-0.207,0.208-0.498,0.34-0.814,0.34
		c-0.388,0-0.731-0.188-0.939-0.48H10c-0.209,0.292-0.552,0.48-0.939,0.48c-0.319,0-0.607-0.129-0.816-0.34l-0.039-0.037
		c-0.425-0.469-0.962-1.49-0.962-1.49c-0.31-0.635-0.441-1.15-0.471-1.558H6.766l-0.005-0.113c0-1.052,0.854-1.903,1.908-1.903
		C9.186,8.714,9.655,8.919,10.002,9.259"/>
	<polygon fill="#FFFFFF" points="9.239,8.154 9.239,7.154 10.239,6.154 11.239,5.154 12.239,5.154 12.239,6.154 10.239,8.154 	"/>
</g>
<polygon fill="#FFFFFF" points="15,6 15,15 4,15 4,6.19 4.299,6.115 15.913,2.97 15.671,2 15.671,2 15.031,2 3,5.062 3,6 3,16 
	16,16 16,6 "/>
</svg>
