<?xml version="1.0" encoding="utf-8"?>
<!-- Generator: Adobe Illustrator 21.1.0, SVG Export Plug-In . SVG Version: 6.00 Build 0)  -->
<svg version="1.1" id="Layer_1" xmlns="http://www.w3.org/2000/svg" xmlns:xlink="http://www.w3.org/1999/xlink" x="0px" y="0px"
	 width="24px" height="24px" viewBox="0 0 24 24" enable-background="new 0 0 24 24" xml:space="preserve">
<polygon points="16.4,20 17.1,20 17.9,18.9 17.9,3.5 17.1,3 15.6,3 15.6,3.8 15,3.8 15,13 16.4,13 "/>
<polygon points="9,20 10,20 10,10 11,9.2 11.9,8.4 11.9,3 11,3 11,7.3 10,7.6 10,3 9,3 9,7.6 7.9,7.3 7.9,3 7.1,3 7.1,8.4 7.9,9.2 
	9,10 "/>
</svg>
