<?xml version="1.0" encoding="utf-8"?>
<!-- Generator: Adobe Illustrator 21.1.0, SVG Export Plug-In . SVG Version: 6.00 Build 0)  -->
<svg version="1.1" id="Layer_1" xmlns="http://www.w3.org/2000/svg" xmlns:xlink="http://www.w3.org/1999/xlink" x="0px" y="0px"
	 width="12px" height="12px" viewBox="0 0 12 12" enable-background="new 0 0 12 12" xml:space="preserve">
<path d="M6.5,6C6.7,5.8,7,5.7,7.4,5.7c0.7,0,1.2,0.5,1.2,1.2l0,0.1h0c0,0.3-0.1,0.6-0.3,1c0,0-0.3,0.7-0.6,1l0,0
	C7.5,9.1,7.3,9.2,7.1,9.2C6.9,9.2,6.6,9,6.5,8.8h0C6.4,9,6.1,9.2,5.9,9.2c-0.2,0-0.4-0.1-0.5-0.2l0,0C5.1,8.6,4.7,8,4.7,8
	c-0.2-0.4-0.3-0.7-0.3-1h0l0-0.1c0-0.7,0.5-1.2,1.2-1.2C6,5.7,6.3,5.8,6.5,6"/>
<polygon points="6,5.3 6,4.7 6.7,4 7.3,3.4 7.9,3.4 7.9,4 6.7,5.3 "/>
<polygon points="10,4 10,9 3,9 3,3.7 11,1.6 10.8,1 2.1,3.5 2,4 2,10 11,10 11,4 "/>
</svg>
