<?xml version="1.0" encoding="utf-8"?>
<!-- Generator: Adobe Illustrator 21.1.0, SVG Export Plug-In . SVG Version: 6.00 Build 0)  -->
<svg version="1.1" id="Layer_1" xmlns="http://www.w3.org/2000/svg" xmlns:xlink="http://www.w3.org/1999/xlink" x="0px" y="0px"
	 width="24px" height="24px" viewBox="0 0 24 24" enable-background="new 0 0 24 24" xml:space="preserve">
<path d="M14.8,7.6c0,0-0.6,2.3-3.1,2.3C11.7,9.9,11.5,8.3,14.8,7.6z"/>
<path d="M12.5,11.7c0.4-0.4,1-0.7,1.6-0.7c1.3,0,2.3,1,2.3,2.3l0,0.1h0c0,0.5-0.2,1.1-0.6,1.9c0,0-0.6,1.2-1.1,1.8l0,0
	c-0.2,0.3-0.6,0.4-1,0.4c-0.5,0-0.9-0.4-1.1-0.8c-0.2,0.4-0.7,0.8-1.1,0.8c-0.4,0-0.7-0.2-1-0.4l0,0c-0.5-0.6-1.1-1.8-1.1-1.8
	c-0.4-0.8-0.5-1.4-0.6-1.9h0l0-0.1c0-1.3,1-2.3,2.3-2.3C11.5,11.1,12,11.3,12.5,11.7"/>
<polygon points="19,8 19,18 6,18 6,8.3 21,4.5 20.6,3 4,7 4,8 4,20 21,20 21,8 "/>
</svg>
