<?xml version="1.0" encoding="utf-8"?>
<!-- Generator: Adobe Illustrator 18.1.1, SVG Export Plug-In . SVG Version: 6.00 Build 0)  -->
<svg version="1.1" id="Layer_1" xmlns="http://www.w3.org/2000/svg" xmlns:xlink="http://www.w3.org/1999/xlink" x="0px" y="0px"
	 viewBox="0 0 12 12" enable-background="new 0 0 12 12" xml:space="preserve">
<g opacity="0.2">
	<path d="M7.501,7.004c0.221-0.218,0.522-0.35,0.857-0.35c0.675,0,1.225,0.547,1.225,1.223L9.581,7.949H9.579
		C9.558,8.214,9.473,8.543,9.274,8.951c0,0-0.343,0.656-0.618,0.958L8.631,9.932c-0.133,0.134-0.32,0.218-0.523,0.218
		c-0.249,0-0.47-0.121-0.604-0.309H7.5c-0.134,0.188-0.355,0.309-0.604,0.309c-0.205,0-0.39-0.083-0.525-0.218L6.347,9.908
		C6.074,9.607,5.728,8.951,5.728,8.951C5.529,8.543,5.445,8.212,5.426,7.949H5.421L5.418,7.877c0-0.676,0.549-1.223,1.227-1.223
		C6.977,6.654,7.278,6.785,7.501,7.004"/>
	<polygon points="7.011,6.293 7.011,5.651 7.654,5.008 8.297,4.365 8.939,4.365 8.939,5.008 7.654,6.293 	"/>
</g>
<polygon opacity="0.2" points="11,5 11,10 4,10 4,4.693 4.014,4.646 11.41,2.779 11.989,2.624 11.811,2 3.067,4.495 3.103,5 3,5 
	3,11 12,11 12,5 "/>
<g>
	<path d="M6.501,6.004c0.221-0.218,0.522-0.35,0.857-0.35c0.675,0,1.225,0.547,1.225,1.223L8.581,6.949H8.579
		C8.558,7.214,8.473,7.543,8.274,7.951c0,0-0.343,0.656-0.618,0.958L7.631,8.932C7.498,9.066,7.31,9.151,7.107,9.151
		c-0.249,0-0.47-0.121-0.604-0.309H6.5C6.366,9.03,6.145,9.151,5.896,9.151c-0.205,0-0.39-0.083-0.525-0.218L5.347,8.908
		C5.074,8.607,4.728,7.951,4.728,7.951C4.529,7.543,4.445,7.212,4.426,6.949H4.421L4.418,6.877c0-0.676,0.549-1.223,1.227-1.223
		C5.977,5.654,6.278,5.785,6.501,6.004"/>
	<polygon points="6.011,5.293 6.011,4.651 6.654,4.008 7.297,3.365 7.939,3.365 7.939,4.008 6.654,5.293 	"/>
</g>
<polygon points="10,4 10,9 3,9 3,3.693 3.014,3.646 10.41,1.779 10.989,1.624 10.811,1 2.067,3.495 2.103,4 2,4 2,10 11,10 11,4 "/>
</svg>
