<?xml version="1.0" encoding="utf-8"?>
<!-- Generator: Adobe Illustrator 21.1.0, SVG Export Plug-In . SVG Version: 6.00 Build 0)  -->
<svg version="1.1" id="Layer_1" xmlns="http://www.w3.org/2000/svg" xmlns:xlink="http://www.w3.org/1999/xlink" x="0px" y="0px"
	 width="24px" height="24px" viewBox="0 0 24 24" enable-background="new 0 0 24 24" xml:space="preserve">
<polygon fill="#FFFFFF" points="21,14 20,14 18,12 16,12 14,14 11,14 9,12 7,12 5,14 4,14 4,9 9.1,9 11,11 14,11 15,9 20,9 20,12 
	21,12 "/>
<polygon fill="#FFFFFF" points="16,9 14,6 13,6 15,9 "/>
<path fill="#FFFFFF" d="M8,13c-1.1,0-2,0.9-2,2s0.9,2,2,2s2-0.9,2-2S9.1,13,8,13z M8,16c-0.6,0-1-0.4-1-1s0.4-1,1-1s1,0.4,1,1
	S8.6,16,8,16z"/>
<path fill="#FFFFFF" d="M17,13c-1.1,0-2,0.9-2,2s0.9,2,2,2s2-0.9,2-2S18.1,13,17,13z M17,16c-0.6,0-1-0.4-1-1s0.4-1,1-1s1,0.4,1,1
	S17.6,16,17,16z"/>
</svg>
