<?xml version="1.0" encoding="utf-8"?>
<!-- Generator: Adobe Illustrator 21.1.0, SVG Export Plug-In . SVG Version: 6.00 Build 0)  -->
<svg version="1.1" id="Layer_1" xmlns="http://www.w3.org/2000/svg" xmlns:xlink="http://www.w3.org/1999/xlink" x="0px" y="0px"
	 width="12px" height="12px" viewBox="0 0 12 12" enable-background="new 0 0 12 12" xml:space="preserve">
<path fill="#FFFFFF" d="M10,3.6c0-0.3-0.8-0.5-1-0.7L7.8,1.7c-0.1,0-0.3,0.2-0.3,0.2c0,0.1,0.6,0.7,0.6,0.7v1c0,0.4,0.4,0.7,0.8,0.7
	l0.5,0l0,4.3v0.9c0,0.3-0.2,0-0.5,0c-0.2,0-0.5,0.2-0.5,0V5.7C8.4,5.3,8,5,7.6,5H7V1.5H6.5V1H3.7v0.5H3V10h4V6l0.4-0.5
	C7.6,5.5,8,5.6,8,5.8v3.3C8,9.6,8.4,10,8.9,10S10,9.6,10,9.1C10,8.9,10,3.6,10,3.6z M8.9,3.8H8.4V3.4h0.5V3.8z M6,2v2H4V2H6z"/>
</svg>
