<?xml version="1.0" encoding="utf-8"?>
<!-- Generator: Adobe Illustrator 21.1.0, SVG Export Plug-In . SVG Version: 6.00 Build 0)  -->
<svg version="1.1" id="Layer_1" xmlns="http://www.w3.org/2000/svg" xmlns:xlink="http://www.w3.org/1999/xlink" x="0px" y="0px"
	 width="24px" height="24px" viewBox="0 0 24 24" enable-background="new 0 0 24 24" xml:space="preserve">
<path d="M20,7.8c0-0.6-1.5-1-2-1.4l-2.4-2.2c-0.2,0-0.6,0.3-0.6,0.3c0,0.2,1.2,1.4,1.2,1.4v2c0,0.7,0.6,1.4,1.3,1.4L19,9.2v9
	c0,0.6-0.9,1-1.4,1c-0.4,0-0.6-0.4-0.6-0.8v-6.8c0-0.8-0.9-1.6-1.8-1.6H13V3.8h-1V3H6v0.8H5V20h8v-9h2.1c0.3,0,0.9,0.3,0.9,0.6v6.8
	c0,0.9,0.5,1.6,1.5,1.6c0.9,0,2.5-0.6,2.5-1.6C20,18.2,20,7.8,20,7.8z M18,8h-1V7h1V8z M11,8H7L6,7.4V4.7L7,4h4l1,0.7v2.7L11,8z"/>
</svg>
