<?xml version="1.0" encoding="utf-8"?>
<!-- Generator: Adobe Illustrator 21.1.0, SVG Export Plug-In . SVG Version: 6.00 Build 0)  -->
<svg version="1.1" id="Layer_1" xmlns="http://www.w3.org/2000/svg" xmlns:xlink="http://www.w3.org/1999/xlink" x="0px" y="0px"
	 width="18px" height="18px" viewBox="0 0 18 18" enable-background="new 0 0 18 18" xml:space="preserve">
<path d="M15,5.8C15,5.3,11.4,3,11.4,3C11.3,3,11,3.3,11,3.3c0,0.1,0.9,1,0.9,1v1.5C11.9,6.3,13.5,7,14,7l0,7c0,0.5-0.7,0.4-1.1,0.4
	c-0.3,0-1-0.1-1-0.4V8.8c0-0.6-0.3-1.4-0.9-1.4H10V2.7H9V2H5v0.7l-1,0V15h6V8.1h0.9c0.2,0,0.1,0.5,0.1,0.7v4.8
	c0,0.7,1.2,1.3,1.9,1.3c0.7,0,2.1-0.6,2.1-1.4C14.9,13.4,15,5.8,15,5.8z M9,6H5V3h4V6z"/>
</svg>
