<?xml version="1.0" encoding="utf-8"?>
<!-- Generator: Adobe Illustrator 21.1.0, SVG Export Plug-In . SVG Version: 6.00 Build 0)  -->
<svg version="1.1" id="Layer_1" xmlns="http://www.w3.org/2000/svg" xmlns:xlink="http://www.w3.org/1999/xlink" x="0px" y="0px"
	 width="18px" height="18px" viewBox="0 0 18 18" enable-background="new 0 0 18 18" xml:space="preserve">
<polygon points="11.4,6.6 7.6,7.6 8.6,9.4 7.6,10.4 5.8,15 6.7,15 8.6,11.3 9.5,11.3 9.5,15 10.4,15 11.4,10.4 10.4,7.6 11.4,7.6 
	13.2,6.6 "/>
<rect x="7" y="5" width="2" height="2"/>
<rect x="12" y="6" width="1" height="1"/>
<rect x="11" y="5" width="1" height="1"/>
<rect x="10" y="4" width="1" height="1"/>
<rect x="9" y="3" width="1" height="1"/>
<polygon points="6,2 6,3 6,4 7,4 7,3 9,3 9,2 "/>
</svg>
