<?xml version="1.0" encoding="utf-8"?>
<!-- Generator: Adobe Illustrator 18.1.1, SVG Export Plug-In . SVG Version: 6.00 Build 0)  -->
<svg version="1.1" id="Layer_1" xmlns="http://www.w3.org/2000/svg" xmlns:xlink="http://www.w3.org/1999/xlink" x="0px" y="0px"
	 viewBox="0 0 24 24" enable-background="new 0 0 24 24" xml:space="preserve">
<g>
	<path d="M20.517,4.878c-0.917,0-1.346,0-1.599,1.131l-1.911,8.854c-0.117,0.624-0.195,1.17-0.195,1.443
		c0,0.683,0.507,0.683,1.287,0.683l-0.156,0.877c-0.292,0-1.989-0.059-2.886-0.059c-0.41,0-2.048,0.059-2.808,0.059l0.156-0.877
		c0.975,0,1.404-0.02,1.697-1.404l0.936-4.251H9.616l-0.702,3.354c-0.156,0.683-0.253,1.326-0.253,1.755
		c0,0.507,0.351,0.546,1.092,0.546l-0.156,0.877c-0.429,0-2.165-0.039-2.847-0.039c-0.429,0-2.106,0.039-2.75,0.039l0.175-0.877
		c1.034,0,1.521-0.039,1.833-1.462l1.755-8.542C7.842,6.633,7.939,5.95,7.939,5.755c0-0.877-0.702-0.877-1.541-0.877L6.535,4
		c0.858,0,2.379,0.059,3.022,0.059C9.987,4.059,11.547,4,12.269,4l-0.137,0.878c-0.956,0-1.209,0-1.443,1.15L9.87,10.104h5.421
		l0.624-2.945c0.117-0.683,0.195-1.248,0.195-1.638c0-0.644-0.429-0.644-1.248-0.644L15.018,4c0.644,0,2.243,0.059,2.769,0.059
		C18.333,4.059,19.698,4,20.712,4L20.517,4.878z"/>
</g>
</svg>
