<?xml version="1.0" encoding="utf-8"?>
<!-- Generator: Adobe Illustrator 21.1.0, SVG Export Plug-In . SVG Version: 6.00 Build 0)  -->
<svg version="1.1" id="Layer_1" xmlns="http://www.w3.org/2000/svg" xmlns:xlink="http://www.w3.org/1999/xlink" x="0px" y="0px"
	 width="18px" height="18px" viewBox="0 0 18 18" enable-background="new 0 0 18 18" xml:space="preserve">
<path fill="#FFFFFF" d="M15.7,3.7c-0.7,0-1,0-1.2,0.9L13,11.4c-0.1,0.5-0.1,0.9-0.1,1.1c0,0.5,0.4,0.5,1,0.5l-0.1,0.7
	c-0.2,0-1.5,0-2.2,0c-0.3,0-1.6,0-2.2,0L9.5,13c0.8,0,1.1,0,1.3-1.1l0.7-3.3H7.3l-0.5,2.6c-0.1,0.5-0.2,1-0.2,1.4
	C6.6,13,6.9,13,7.4,13l-0.1,0.7c-0.3,0-1.7,0-2.2,0c-0.3,0-1.6,0-2.1,0L3.1,13c0.8,0,1.2,0,1.4-1.1l1.3-6.6C6,5,6,4.5,6,4.3
	c0-0.7-0.5-0.7-1.2-0.7L4.9,3c0.7,0,1.8,0,2.3,0c0.3,0,1.5,0,2.1,0L9.3,3.7c-0.7,0-0.9,0-1.1,0.9L7.5,7.7h4.2l0.5-2.3
	c0.1-0.5,0.1-1,0.1-1.3c0-0.5-0.3-0.5-1-0.5L11.5,3c0.5,0,1.7,0,2.1,0c0.4,0,1.5,0,2.2,0L15.7,3.7z"/>
</svg>
