<?xml version="1.0" encoding="utf-8"?>
<!-- Generator: Adobe Illustrator 21.1.0, SVG Export Plug-In . SVG Version: 6.00 Build 0)  -->
<svg version="1.1" id="Layer_1" xmlns="http://www.w3.org/2000/svg" xmlns:xlink="http://www.w3.org/1999/xlink" x="0px" y="0px"
	 width="24px" height="24px" viewBox="0 0 24 24" enable-background="new 0 0 24 24" xml:space="preserve">
<path fill="#FFFFFF" d="M20.5,4.9c-0.9,0-1.3,0-1.6,1.1L17,14.9c-0.1,0.6-0.2,1.2-0.2,1.4c0,0.7,0.5,0.7,1.3,0.7l-0.2,0.9
	c-0.3,0-2-0.1-2.9-0.1c-0.4,0-2,0.1-2.8,0.1l0.2-0.9c1,0,1.4,0,1.7-1.4l0.9-4.3H9.6l-0.7,3.4c-0.2,0.7-0.3,1.3-0.3,1.8
	C8.7,16.9,9,17,9.8,17l-0.2,0.9c-0.4,0-2.2,0-2.8,0c-0.4,0-2.1,0-2.8,0L4.2,17c1,0,1.5,0,1.8-1.5L7.8,7c0.1-0.4,0.2-1,0.2-1.2
	c0-0.9-0.7-0.9-1.5-0.9L6.5,4c0.9,0,2.4,0.1,3,0.1c0.4,0,2-0.1,2.7-0.1l-0.1,0.9c-1,0-1.2,0-1.4,1.2l-0.8,4.1h5.4l0.6-2.9
	c0.1-0.7,0.2-1.2,0.2-1.6c0-0.6-0.4-0.6-1.2-0.6L15,4c0.6,0,2.2,0.1,2.8,0.1c0.5,0,1.9-0.1,2.9-0.1L20.5,4.9z"/>
</svg>
