<?xml version="1.0" encoding="utf-8"?>
<!-- Generator: Adobe Illustrator 21.1.0, SVG Export Plug-In . SVG Version: 6.00 Build 0)  -->
<svg version="1.1" id="Layer_1" xmlns="http://www.w3.org/2000/svg" xmlns:xlink="http://www.w3.org/1999/xlink" x="0px" y="0px"
	 width="12px" height="12px" viewBox="0 0 12 12" enable-background="new 0 0 12 12" xml:space="preserve">
<path fill="#FFFFFF" d="M10.9,2.2c-0.5,0-0.7,0-0.9,0.6L9,7.6C8.9,8,8.9,8.2,8.9,8.4c0,0.4,0.3,0.4,0.7,0.4L9.5,9.2
	c-0.2,0-1.1,0-1.6,0c-0.2,0-1.1,0-1.5,0l0.1-0.5c0.5,0,0.8,0,0.9-0.8l0.5-2.3H5L4.6,7.5C4.6,7.9,4.5,8.2,4.5,8.5
	c0,0.3,0.2,0.3,0.6,0.3L5,9.2c-0.2,0-1.2,0-1.5,0c-0.2,0-1.1,0-1.5,0l0.1-0.5c0.6,0,0.8,0,1-0.8L4,3.4c0-0.2,0.1-0.6,0.1-0.7
	c0-0.5-0.4-0.5-0.8-0.5l0.1-0.5c0.5,0,1.3,0,1.6,0c0.2,0,1.1,0,1.5,0L6.4,2.2c-0.5,0-0.7,0-0.8,0.6L5.2,5.1h2.9l0.3-1.6
	c0.1-0.4,0.1-0.7,0.1-0.9c0-0.3-0.2-0.3-0.7-0.3l0.1-0.5c0.3,0,1.2,0,1.5,0c0.3,0,1,0,1.6,0L10.9,2.2z"/>
</svg>
