<?xml version="1.0" encoding="utf-8"?>
<!-- Generator: Adobe Illustrator 18.1.1, SVG Export Plug-In . SVG Version: 6.00 Build 0)  -->
<svg version="1.1" id="Layer_1" xmlns="http://www.w3.org/2000/svg" xmlns:xlink="http://www.w3.org/1999/xlink" x="0px" y="0px"
	 viewBox="0 0 12 12" enable-background="new 0 0 12 12" xml:space="preserve">
<g>
	<path d="M10.892,2.24c-0.493,0-0.724,0-0.86,0.609L9.002,7.615c-0.062,0.336-0.104,0.63-0.104,0.777
		c0,0.367,0.272,0.367,0.692,0.367L9.506,9.232c-0.157,0-1.07-0.031-1.554-0.031c-0.22,0-1.102,0.031-1.512,0.031l0.084-0.473
		c0.525,0,0.756-0.01,0.914-0.756l0.504-2.288H5.023L4.646,7.521C4.562,7.888,4.509,8.235,4.509,8.465
		c0,0.273,0.189,0.294,0.588,0.294L5.013,9.232c-0.23,0-1.165-0.021-1.532-0.021c-0.231,0-1.134,0.021-1.48,0.021l0.095-0.473
		c0.556,0,0.818-0.021,0.986-0.787l0.945-4.598c0.042-0.189,0.094-0.556,0.094-0.662c0-0.472-0.378-0.472-0.83-0.472l0.074-0.472
		c0.462,0,1.281,0.031,1.627,0.031c0.23,0,1.07-0.031,1.459-0.031L6.378,2.24c-0.515,0-0.651,0-0.777,0.62L5.16,5.054h2.918
		l0.336-1.585C8.478,3.101,8.52,2.796,8.52,2.586c0-0.346-0.231-0.346-0.672-0.346l0.084-0.472c0.346,0,1.207,0.031,1.49,0.031
		c0.294,0,1.029-0.031,1.575-0.031L10.892,2.24z"/>
</g>
</svg>
