<?xml version="1.0" encoding="utf-8"?>
<!-- Generator: Adobe Illustrator 18.1.1, SVG Export Plug-In . SVG Version: 6.00 Build 0)  -->
<svg version="1.1" id="Layer_1" xmlns="http://www.w3.org/2000/svg" xmlns:xlink="http://www.w3.org/1999/xlink" x="0px" y="0px"
	 viewBox="0 0 18 18" enable-background="new 0 0 18 18" xml:space="preserve">
<g>
	<path d="M15.705,3.675c-0.705,0-1.035,0-1.23,0.87l-1.47,6.81c-0.09,0.48-0.15,0.9-0.15,1.11c0,0.525,0.39,0.525,0.99,0.525
		l-0.12,0.675c-0.225,0-1.53-0.045-2.22-0.045c-0.315,0-1.575,0.045-2.16,0.045l0.12-0.675c0.75,0,1.08-0.015,1.305-1.08l0.72-3.27
		H7.32l-0.54,2.58c-0.12,0.525-0.195,1.02-0.195,1.35c0,0.39,0.27,0.42,0.84,0.42l-0.12,0.675c-0.33,0-1.665-0.03-2.19-0.03
		c-0.33,0-1.62,0.03-2.115,0.03l0.135-0.675c0.795,0,1.17-0.03,1.41-1.125l1.35-6.57C5.955,5.025,6.03,4.5,6.03,4.35
		c0-0.675-0.54-0.675-1.185-0.675L4.95,3c0.66,0,1.83,0.045,2.325,0.045C7.605,3.045,8.805,3,9.36,3L9.255,3.675
		c-0.735,0-0.93,0-1.11,0.885l-0.63,3.135h4.17l0.48-2.265c0.09-0.525,0.15-0.96,0.15-1.26c0-0.495-0.33-0.495-0.96-0.495L11.475,3
		c0.495,0,1.725,0.045,2.13,0.045c0.42,0,1.47-0.045,2.25-0.045L15.705,3.675z"/>
</g>
</svg>
