<?xml version="1.0" encoding="utf-8"?>
<!-- Generator: Adobe Illustrator 21.1.0, SVG Export Plug-In . SVG Version: 6.00 Build 0)  -->
<svg version="1.1" id="Layer_1" xmlns="http://www.w3.org/2000/svg" xmlns:xlink="http://www.w3.org/1999/xlink" x="0px" y="0px"
	 width="24px" height="24px" viewBox="0 0 24 24" enable-background="new 0 0 24 24" xml:space="preserve">
<polygon fill="#FFFFFF" points="19.5,8.4 19.5,10 17.9,11.5 16.4,11.5 16.4,10.7 17.9,10.7 18.7,10 18.7,8.4 "/>
<path fill="#FFFFFF" d="M17.9,6.1V4.5L16.4,6L14,9V8.4l-2.3-0.8V6.9L11,6.1h-0.8L9.4,6.9V10H4.8L4,10.7v3.9h0.8v-3.1l0.8-0.8h0.8
	l-0.8,1.5V13v6.2L6.3,20l0.8-0.8v-4.6l2.3,4.6l0.8,0.8l0.8-0.8l-2.3-5.4H14v5.4l0.8,0.8l0.8-0.8V13l2.3-4.6l2.3,0.8L21,8.4L17.9,6.1
	z M11.7,10V8.4l2.2,0.7L13.3,10H11.7z"/>
<circle fill="#FFFFFF" cx="10.6" cy="4.2" r="1.2"/>
</svg>
