<?xml version="1.0" encoding="utf-8"?>
<!-- Generator: Adobe Illustrator 21.1.0, SVG Export Plug-In . SVG Version: 6.00 Build 0)  -->
<svg version="1.1" id="Layer_1" xmlns="http://www.w3.org/2000/svg" xmlns:xlink="http://www.w3.org/1999/xlink" x="0px" y="0px"
	 width="12px" height="12px" viewBox="0 0 12 12" enable-background="new 0 0 12 12" xml:space="preserve">
<rect x="4.7" y="1" fill="#FFFFFF" width="1.1" height="1.1"/>
<path fill="#FFFFFF" d="M9.2,3.8V2.7L7,4.9H5.8V3.8l1.1,0.6V3.8L5.8,3.2V2.7H5.3H4.7v2.2H2.5v2.8h0.6V10h0.6V7.8h0.6L5,10h1L4.7,7.8
	V7.2h2.8V10h0.6V7.2l0.3-1.1h0.3h0.6h0.6V5.5V4.9h0.6V4.4L9.2,3.8z M3,6.1V5.5h0.6L3,6.1z M9.2,5.5H8.7H8.5l0.1-0.6h0.6V5.5z"/>
</svg>
