<?xml version="1.0" encoding="utf-8"?>
<!-- Generator: Adobe Illustrator 21.1.0, SVG Export Plug-In . SVG Version: 6.00 Build 0)  -->
<svg version="1.1" id="Layer_1" xmlns="http://www.w3.org/2000/svg" xmlns:xlink="http://www.w3.org/1999/xlink" x="0px" y="0px"
	 width="18px" height="18px" viewBox="0 0 18 18" enable-background="new 0 0 18 18" xml:space="preserve">
<polygon fill="#FFFFFF" points="5,12 3,12 3,13 4,13 4,14 5,14 5,15 8,15 8,14 6,14 6,13 5,13 "/>
<polygon fill="#FFFFFF" points="13,7 14,7 14,5 13,5 13,4 7,4 7,5 11,5 11,6 10,6 10,8 10,9 11,9 11,10 12,10 12,14 11,14 11,15 
	16,15 16,14.1 14,14 14,9 13,9 "/>
<polygon fill="#FFFFFF" points="9,9 8,9 8,10 7,10 7,11 6,11 6,13 8,13 8,12 9,12 9,11 10,11 10,10 10,9 "/>
<polygon fill="#FFFFFF" points="14,5 15,5 15,4 16,4 16,3 15,3 15,2 14,2 14,3 13,3 13,4 14,4 "/>
</svg>
