<?xml version="1.0" encoding="utf-8"?>
<!-- Generator: Adobe Illustrator 21.1.0, SVG Export Plug-In . SVG Version: 6.00 Build 0)  -->
<svg version="1.1" id="Layer_1" xmlns="http://www.w3.org/2000/svg" xmlns:xlink="http://www.w3.org/1999/xlink" x="0px" y="0px"
	 width="24px" height="24px" viewBox="0 0 24 24" enable-background="new 0 0 24 24" xml:space="preserve">
<circle fill="#FFFFFF" cx="19.5" cy="4.5" r="1.5"/>
<rect x="9" y="5" fill="#FFFFFF" width="8" height="2"/>
<rect x="15" y="19" fill="#FFFFFF" width="5" height="1"/>
<rect x="19" y="18" fill="#FFFFFF" width="1" height="2"/>
<polygon fill="#FFFFFF" points="8,20 8,19 6.9,19 "/>
<polygon fill="#FFFFFF" points="18,8 17,5 9,5 8,6 9,7 15,7 12,10 12.8,11.2 16,14.4 16,18 18,18 18,13.6 14.9,10.5 "/>
<polygon fill="#FFFFFF" points="4.4,15.6 4,16 4,16.2 7.1,20 8,20 "/>
<rect x="6" y="13.5" transform="matrix(0.7071 -0.7071 0.7071 0.7071 -7.4706 10.9645)" fill="#FFFFFF" width="7.1" height="2"/>
</svg>
