<?xml version="1.0" encoding="utf-8"?>
<!-- Generator: Adobe Illustrator 21.1.0, SVG Export Plug-In . SVG Version: 6.00 Build 0)  -->
<svg version="1.1" xmlns="http://www.w3.org/2000/svg" xmlns:xlink="http://www.w3.org/1999/xlink" x="0px" y="0px" width="12px"
	 height="12px" viewBox="0 0 12 12" enable-background="new 0 0 12 12" xml:space="preserve">
<g id="Layer_1" display="none">
	<path display="inline" d="M6,6.9V6.3C6,6.1,6,6,6,5.9s0.1-0.2,0.1-0.3c0-0.1,0.1-0.2,0.2-0.3S6.5,5.1,6.6,5C6.8,5,6.9,4.9,7,4.8
		s0.2-0.2,0.3-0.3c0.1-0.1,0.1-0.2,0.2-0.3s0-0.2,0-0.4c0-0.1,0-0.3-0.1-0.4c0-0.1-0.1-0.2-0.2-0.2C7.1,3.1,7,3,6.9,3
		S6.7,2.9,6.5,2.9C6.2,2.9,6,3,5.8,3.2C5.6,3.3,5.5,3.6,5.5,3.9L4.6,3.8c0.1-0.5,0.3-0.9,0.7-1.2C5.6,2.3,6,2.1,6.6,2.1
		c0.3,0,0.5,0,0.7,0.1s0.4,0.2,0.6,0.3C8,2.7,8.1,2.9,8.2,3.1c0.1,0.2,0.1,0.4,0.1,0.7c0,0.2,0,0.4-0.1,0.6c0,0.2-0.1,0.3-0.2,0.5
		L7.4,5.4L7.3,5.5C7.2,5.6,7.2,5.7,7.1,5.7S7,5.9,7,5.9C7,6,6.9,6,6.9,6.1s0,0.2,0,0.3v0.4L6,6.9L6,6.9z M5.9,8.1
		c0-0.1,0-0.3,0.1-0.4c0.1-0.1,0.3-0.2,0.4-0.2c0.2,0,0.3,0.1,0.4,0.2C7,7.8,7,8,7,8.1c0,0.2,0,0.3-0.1,0.4C6.8,8.7,6.6,8.7,6.5,8.7
		c-0.2,0-0.3,0-0.5-0.2C5.9,8.4,5.9,8.3,5.9,8.1z"/>
	<path display="inline" d="M8.4,1.6c1.1,0,1.9,0.9,1.9,1.9v3.9c0,1.1-0.9,1.9-1.9,1.9H4.6c-1.1,0-1.9-0.9-1.9-1.9V3.6
		c0-1.1,0.9-1.9,1.9-1.9L8.4,1.6 M8.4,1H4.6C3.2,1,2,2.2,2,3.6v3.9C2,8.8,3.2,10,4.6,10h3.9C9.8,10,11,8.8,11,7.4V3.6
		C11,2.2,9.8,1,8.4,1L8.4,1z"/>
</g>
<g id="Layer_2">
	<path fill="#FFFFFF" d="M6,6.9V6.3c0-0.2,0-0.3,0-0.4c0-0.1,0.1-0.2,0.1-0.3s0.1-0.2,0.2-0.3c0.1-0.1,0.2-0.2,0.3-0.3
		C6.8,5,6.8,4.9,6.9,4.8C7,4.7,7.1,4.6,7.2,4.5c0.1-0.1,0.1-0.2,0.2-0.3C7.5,4.1,7.5,4,7.5,3.8c0-0.1,0-0.3-0.1-0.4S7.3,3.2,7.2,3.1
		S7,3,6.9,2.9c-0.1,0-0.2-0.1-0.4-0.1C6.2,2.9,6,3,5.8,3.1C5.6,3.3,5.5,3.6,5.5,3.9L4.6,3.8c0.1-0.5,0.3-0.9,0.7-1.2
		C5.6,2.3,6,2.1,6.5,2.1c0.3,0,0.5,0,0.7,0.1c0.2,0.1,0.4,0.2,0.6,0.3C8,2.7,8.1,2.9,8.2,3.1s0.1,0.4,0.1,0.7c0,0.2,0,0.4-0.1,0.6
		C8.2,4.5,8.1,4.7,8,4.9L7.4,5.4L7.3,5.5C7.2,5.6,7.2,5.7,7.1,5.7C7,5.8,7,5.8,7,5.9c0,0.1-0.1,0.1-0.1,0.2c0,0.1,0,0.2,0,0.3v0.4H6
		z M5.9,8.5c0-0.2,0.1-0.3,0.2-0.4s0.3-0.2,0.4-0.2c0.2,0,0.3,0.1,0.4,0.2S7,8.3,7,8.5S7,8.8,6.9,8.9S6.6,9.1,6.5,9.1
		C6.3,9.1,6.1,9,6,8.9S5.9,8.6,5.9,8.5z"/>
	<path fill="#FFFFFF" d="M8.4,1.7c1.1,0,1.9,0.8,1.9,1.8v3.9c0,1.1-0.9,1.9-1.9,1.9H4.6c-1.1,0-1.9-0.9-1.9-1.9V3.6
		c0-1.1,0.9-1.9,1.9-1.9H8.4 M8.4,1H4.6C3.2,1,2,2.2,2,3.6v3.9C2,8.8,3.2,10,4.6,10h3.9C9.8,10,11,8.8,11,7.4V3.6
		C11,2.2,9.8,1,8.4,1L8.4,1z"/>
</g>
</svg>
