<?xml version="1.0" encoding="utf-8"?>
<!-- Generator: Adobe Illustrator 21.1.0, SVG Export Plug-In . SVG Version: 6.00 Build 0)  -->
<svg version="1.1" id="Layer_1" xmlns="http://www.w3.org/2000/svg" xmlns:xlink="http://www.w3.org/1999/xlink" x="0px" y="0px"
	 width="24px" height="24px" viewBox="0 0 24 24" enable-background="new 0 0 24 24" xml:space="preserve">
<path fill="#FFFFFF" d="M11.5,14v-0.9c0-0.2,0-0.4,0-0.6c0-0.2,0.1-0.3,0.1-0.5c0.1-0.1,0.2-0.3,0.3-0.4c0.1-0.1,0.3-0.3,0.4-0.4
	l1.2-1.3c0.3-0.3,0.4-0.6,0.4-1.1c0-0.4-0.1-0.8-0.4-1c-0.3-0.3-0.6-0.4-1-0.4c-0.5,0-0.8,0.2-1.1,0.5C11.2,8.2,11,8.6,11,9L8.9,8.8
	c0.1-0.5,0.2-1,0.4-1.4s0.5-0.7,0.8-1s0.7-0.5,1.1-0.6c0.4-0.1,0.9-0.2,1.4-0.2s0.9,0.1,1.4,0.2c0.4,0.1,0.8,0.3,1.1,0.6
	c0.3,0.3,0.5,0.6,0.7,1s0.3,0.8,0.3,1.4c0,0.4,0,0.7-0.1,0.9c-0.1,0.3-0.2,0.5-0.4,0.7S15.3,10.8,15,11c-0.2,0.2-0.4,0.4-0.7,0.6
	c-0.2,0.1-0.3,0.3-0.4,0.4c-0.1,0.1-0.2,0.2-0.3,0.3s-0.1,0.2-0.2,0.4c0,0.1,0,0.3,0,0.5V14H11.5z M11.2,16.4c0-0.3,0.1-0.6,0.4-0.9
	s0.6-0.4,0.9-0.4c0.3,0,0.6,0.1,0.9,0.4c0.3,0.2,0.4,0.5,0.4,0.9c0,0.3-0.1,0.6-0.4,0.9c-0.3,0.2-0.6,0.4-0.9,0.4
	c-0.2,0-0.3,0-0.5-0.1s-0.3-0.2-0.4-0.3c-0.1-0.1-0.2-0.2-0.3-0.4C11.2,16.7,11.2,16.6,11.2,16.4z"/>
<path fill="#FFFFFF" d="M17.9,4.6c0.9,0,1.5,0.6,1.5,1.4v10.8c0,0.9-0.7,1.5-1.5,1.5H7.1c-0.9,0-1.5-0.7-1.5-1.5V6.1
	c0-0.9,0.7-1.5,1.5-1.5H17.9 M17.9,3H7.1C5.4,3,4,4.4,4,6.1v10.8C4,18.6,5.4,20,7.1,20h10.8c1.7,0,3.1-1.4,3.1-3.1V6.1
	C21,4.4,19.6,3,17.9,3L17.9,3z"/>
</svg>
