<?xml version="1.0" encoding="utf-8"?>
<!-- Generator: Adobe Illustrator 21.1.0, SVG Export Plug-In . SVG Version: 6.00 Build 0)  -->
<svg version="1.1" id="Layer_1" xmlns="http://www.w3.org/2000/svg" xmlns:xlink="http://www.w3.org/1999/xlink" x="0px" y="0px"
	 width="18px" height="18px" viewBox="0 0 18 18" enable-background="new 0 0 18 18" xml:space="preserve">
<path d="M8.8,10.5V9.7c0-0.2,0-0.4,0.1-0.6C8.9,9,9,8.8,9,8.7c0.1-0.1,0.2-0.2,0.3-0.4C9.4,8.2,9.6,8,9.7,7.9
	c0.1-0.1,0.3-0.3,0.4-0.4c0.1-0.1,0.3-0.3,0.4-0.4c0.1-0.1,0.2-0.3,0.3-0.5s0.1-0.3,0.1-0.5s0-0.4-0.1-0.6s-0.2-0.3-0.3-0.4
	s-0.3-0.2-0.4-0.3c-0.2,0-0.4-0.1-0.6-0.1c-0.4,0-0.8,0.1-1,0.4S8.1,5.7,8,6.2L6.7,6c0.1-0.8,0.4-1.3,0.9-1.8
	c0.5-0.4,1.2-0.6,1.9-0.6c0.4,0,0.7,0.1,1,0.2c0.3,0.1,0.6,0.3,0.8,0.5C11.7,4.5,11.8,4.7,12,5s0.2,0.6,0.2,1c0,0.3,0,0.6-0.1,0.9
	c-0.1,0.2-0.2,0.5-0.4,0.7l-0.8,0.8l-0.1,0.1c-0.1,0.1-0.2,0.2-0.3,0.3S10.4,9,10.3,9.1c0,0.1-0.1,0.2-0.1,0.3s0,0.3,0,0.5v0.6
	C10.2,10.5,8.8,10.5,8.8,10.5z M8.6,12.5c0-0.2,0.1-0.4,0.3-0.6c0.2-0.2,0.4-0.3,0.6-0.3s0.4,0.1,0.6,0.3c0.2,0.2,0.3,0.4,0.3,0.6
	s-0.1,0.4-0.3,0.6c-0.2,0.2-0.4,0.3-0.6,0.3S9,13.3,8.8,13.1C8.7,12.9,8.6,12.7,8.6,12.5z"/>
<path d="M12.3,2.9c1.5,0,2.8,1.2,2.8,2.8v5.6c0,1.5-1.2,2.8-2.8,2.8H6.7c-1.5,0-2.8-1.2-2.8-2.8V5.7c0-1.5,1.2-2.8,2.8-2.8L12.3,2.9
	 M12.3,2H6.7C4.7,2,3,3.7,3,5.7v5.6c0,2,1.7,3.7,3.7,3.7h5.6c2,0,3.7-1.7,3.7-3.7V5.7C16,3.7,14.3,2,12.3,2L12.3,2z"/>
</svg>
