<?xml version="1.0" encoding="utf-8"?>
<!-- Generator: Adobe Illustrator 18.1.1, SVG Export Plug-In . SVG Version: 6.00 Build 0)  -->
<svg version="1.1" id="Layer_1" xmlns="http://www.w3.org/2000/svg" xmlns:xlink="http://www.w3.org/1999/xlink" x="0px" y="0px"
	 viewBox="0 0 12 12" enable-background="new 0 0 12 12" xml:space="preserve">
<polygon opacity="0.2" points="4,2 4,4 5,4 5,3 6,3 6,4 7,4 7,3 8,3 8,4 11,4 11,2 "/>
<rect x="5" y="3" opacity="0.2" fill="#FFFFFF" width="1" height="1"/>
<rect x="7" y="3" opacity="0.2" fill="#FFFFFF" width="1" height="1"/>
<polygon opacity="0.2" fill="none" points="7,8 8,8 8,7 9,7 9,6 6,6 6,7 5,7 5,9 6,9 6,10 9,10 9,9 7,9 "/>
<polygon opacity="0.2" points="8,7 8,8 7,8 7,9 9,9 9,7 "/>
<path opacity="0.2" d="M4,5v6h7V5H4z M10,9H9v1H6V9H5V7h1V6h3v1h1V9z"/>
<polygon fill="#FFFFFF" points="3,1 3,3 4,3 4,2 5,2 5,3 6,3 6,2 7,2 7,3 10,3 10,1 "/>
<rect x="4" y="2" fill="#FFFFFF" width="1" height="1"/>
<rect x="6" y="2" fill="#FFFFFF" width="1" height="1"/>
<polygon fill="none" points="6,7 7,7 7,6 8,6 8,5 5,5 5,6 4,6 4,8 5,8 5,9 8,9 8,8 6,8 "/>
<polygon fill="#FFFFFF" points="7,6 7,7 6,7 6,8 8,8 8,6 "/>
<path fill="#FFFFFF" d="M3,4v6h7V4H3z M9,8H8v1H5V8H4V6h1V5h3v1h1V8z"/>
</svg>
