<?xml version="1.0" encoding="utf-8"?>
<!-- Generator: Adobe Illustrator 18.1.1, SVG Export Plug-In . SVG Version: 6.00 Build 0)  -->
<svg version="1.1" id="Layer_1" xmlns="http://www.w3.org/2000/svg" xmlns:xlink="http://www.w3.org/1999/xlink" x="0px" y="0px"
	 viewBox="0 0 18 18" enable-background="new 0 0 18 18" xml:space="preserve">
<circle opacity="0.2" fill="#FFFFFF" cx="10" cy="11" r="3"/>
<rect x="9" y="4" opacity="0.2" fill="none" width="1" height="1"/>
<path opacity="0.2" d="M6,3v3h8V3H6z M8,5H7V4h1V5z M10,5H9V4h1V5z"/>
<path opacity="0.2" d="M12,11c0,1.105-0.895,2-2,2s-2-0.895-2-2c0-0.365,0.268-1.001,0.268-1.001
	c1.565,0.667,1.732-1.291,2.85-0.658C11.677,9.658,12,10.31,12,11z"/>
<path opacity="0.2" d="M6,7v9h8V7H6z M10,14c-1.657,0-3-1.343-3-3s1.343-3,3-3s3,1.343,3,3S11.657,14,10,14z"/>
<path d="M5,6v9h8V6H5z M9,13c-1.657,0-3-1.343-3-3s1.343-3,3-3s3,1.343,3,3S10.657,13,9,13z"/>
<rect x="8" y="3" fill="none" width="1" height="1"/>
<path d="M5,2v3h8V2H5z M7,4H6V3h1V4z M9,4H8V3h1V4z"/>
<path d="M11,10c0,1.105-0.895,2-2,2s-2-0.895-2-2c0-0.365,0.268-1.001,0.268-1.001C8.833,9.667,9,7.708,10.118,8.342
	C10.677,8.658,11,9.31,11,10z"/>
</svg>
