<?xml version="1.0" encoding="utf-8"?>
<!-- Generator: Adobe Illustrator 21.1.0, SVG Export Plug-In . SVG Version: 6.00 Build 0)  -->
<svg version="1.1" id="Layer_1" xmlns="http://www.w3.org/2000/svg" xmlns:xlink="http://www.w3.org/1999/xlink" x="0px" y="0px"
	 width="24px" height="24px" viewBox="0 0 24 24" enable-background="new 0 0 24 24" xml:space="preserve">
<path fill="#FFFFFF" d="M6,3v4h13V3H6z M9,6H7V4h2V6z M12,6h-2V4h2V6z"/>
<path fill="#FFFFFF" d="M6,8v12h13V8H6z M12.5,18c-2.2,0-4-1.8-4-4s1.8-4,4-4s4,1.8,4,4S14.7,18,12.5,18z"/>
<path fill="#FFFFFF" d="M12.5,17c1.7,0,3-1.3,3-3h-6C9.5,15.7,10.8,17,12.5,17z"/>
</svg>
