<?xml version="1.0" encoding="utf-8"?>
<!-- Generator: Adobe Illustrator 21.1.0, SVG Export Plug-In . SVG Version: 6.00 Build 0)  -->
<svg version="1.1" id="Layer_1" xmlns="http://www.w3.org/2000/svg" xmlns:xlink="http://www.w3.org/1999/xlink" x="0px" y="0px"
	 width="12px" height="12px" viewBox="0 0 12 12" enable-background="new 0 0 12 12" xml:space="preserve">
<polygon fill="#FFFFFF" points="3,1 3,3 4,3 4,2 5,2 5,3 6,3 6,2 7,2 7,3 10,3 10,1 "/>
<polygon fill="#FFFFFF" points="7,6 7,7 6,7 6,8 8,8 8,6 "/>
<path fill="#FFFFFF" d="M3,4v6h7V4H3z M9,8H8v1H5V8H4V6h1V5h3v1h1V8z"/>
</svg>
