<?xml version="1.0" encoding="utf-8"?>
<!-- Generator: Adobe Illustrator 21.1.0, SVG Export Plug-In . SVG Version: 6.00 Build 0)  -->
<svg version="1.1" id="Layer_1" xmlns="http://www.w3.org/2000/svg" xmlns:xlink="http://www.w3.org/1999/xlink" x="0px" y="0px"
	 width="18px" height="18px" viewBox="0 0 18 18" enable-background="new 0 0 18 18" xml:space="preserve">
<path fill="#FFFFFF" d="M5,6v9h9V6H5z M9.5,13c-1.7,0-3-1.3-3-3s1.3-3,3-3s3,1.3,3,3S11.2,13,9.5,13z"/>
<path fill="#FFFFFF" d="M5,2v3h9V2H5z M7,4H6V3h1V4z M9,4H8V3h1V4z"/>
<path fill="#FFFFFF" d="M9.5,12c1.1,0,2-0.9,2-2h-4C7.5,11.1,8.4,12,9.5,12z"/>
</svg>
