<?xml version="1.0" encoding="utf-8"?>
<!-- Generator: Adobe Illustrator 18.1.1, SVG Export Plug-In . SVG Version: 6.00 Build 0)  -->
<svg version="1.1" id="Layer_1" xmlns="http://www.w3.org/2000/svg" xmlns:xlink="http://www.w3.org/1999/xlink" x="0px" y="0px"
	 viewBox="0 0 24 24" enable-background="new 0 0 24 24" xml:space="preserve">
<circle fill="#231F20" cx="12.557" cy="6.03" r="2.644"/>
<path fill="#231F20" d="M15.125,9.319c1.208,0.043,1.717,1.01,1.717,1.01l3.902,5.35C20.905,15.919,21,16.207,21,16.52
	c0,0.832-0.675,1.507-1.507,1.507c-0.2,0-0.383-0.043-0.554-0.109l-2.354-0.654v2.349H8.413v-2.349l-2.354,0.654
	c-0.167,0.066-0.354,0.109-0.554,0.109C4.673,18.028,4,17.353,4,16.52c0-0.314,0.093-0.602,0.261-0.842l3.897-5.35
	c0,0,0.511-0.968,1.714-1.01H15.125z M12.5,17.971L12.5,17.971l3.048-1.011l-0.066-0.014c-2.104-0.618-1.289-3.4,0.816-2.779
	l0.288,0.1v-3.139L12.5,12.462l-4.087-1.334v3.139l0.288-0.1c2.104-0.621,2.925,2.161,0.818,2.779L9.45,16.96L12.5,17.971
	L12.5,17.971z"/>
</svg>
