<?xml version="1.0" encoding="utf-8"?>
<!-- Generator: Adobe Illustrator 18.1.1, SVG Export Plug-In . SVG Version: 6.00 Build 0)  -->
<svg version="1.1" id="Layer_1" xmlns="http://www.w3.org/2000/svg" xmlns:xlink="http://www.w3.org/1999/xlink" x="0px" y="0px"
	 viewBox="0 0 18 18" enable-background="new 0 0 18 18" xml:space="preserve">
<circle fill="#FFFFFF" cx="9.544" cy="4.317" r="2.022"/>
<path fill="#FFFFFF" d="M11.507,6.832c0.924,0.033,1.313,0.773,1.313,0.773l2.984,4.091C15.927,11.879,16,12.099,16,12.339
	c0,0.636-0.516,1.153-1.153,1.153c-0.153,0-0.293-0.033-0.424-0.084l-1.8-0.5v1.796H6.375v-1.796l-1.8,0.5
	c-0.127,0.051-0.271,0.084-0.424,0.084C3.515,13.492,3,12.976,3,12.339c0-0.24,0.071-0.46,0.2-0.644l2.98-4.091
	c0,0,0.391-0.74,1.311-0.773H11.507z M9.5,13.448L9.5,13.448l2.331-0.773l-0.051-0.011c-1.609-0.473-0.985-2.6,0.624-2.125
	l0.22,0.076v-2.4L9.5,9.236l-3.125-1.02v2.4l0.22-0.076c1.609-0.475,2.236,1.653,0.626,2.125l-0.053,0.011L9.5,13.448L9.5,13.448z"
	/>
</svg>
