<?xml version="1.0" encoding="utf-8"?>
<!-- Generator: Adobe Illustrator 18.1.1, SVG Export Plug-In . SVG Version: 6.00 Build 0)  -->
<svg version="1.1" id="Layer_1" xmlns="http://www.w3.org/2000/svg" xmlns:xlink="http://www.w3.org/1999/xlink" x="0px" y="0px"
	 viewBox="0 0 12 12" enable-background="new 0 0 12 12" xml:space="preserve">
<circle fill="#FFFFFF" cx="6.53" cy="2.604" r="1.4"/>
<path fill="#FFFFFF" d="M7.89,4.345C8.529,4.368,8.798,4.88,8.798,4.88l2.066,2.832C10.95,7.839,11,7.992,11,8.158
	c0,0.441-0.357,0.798-0.798,0.798c-0.106,0-0.203-0.023-0.293-0.058L8.662,8.552v1.244H4.336V8.552L3.09,8.898
	C3.002,8.933,2.903,8.956,2.797,8.956C2.356,8.956,2,8.598,2,8.158c0-0.166,0.049-0.319,0.138-0.446L4.202,4.88
	c0,0,0.271-0.512,0.908-0.535H7.89z M6.5,8.926L6.5,8.926l1.614-0.535L8.078,8.383c-1.114-0.327-0.682-1.8,0.432-1.471l0.152,0.053
	V5.303L6.5,6.009L4.336,5.303v1.662l0.152-0.053c1.114-0.329,1.548,1.144,0.433,1.471L4.885,8.391L6.5,8.926L6.5,8.926z"/>
</svg>
