<?xml version="1.0" encoding="utf-8"?>
<!-- Generator: Adobe Illustrator 21.1.0, SVG Export Plug-In . SVG Version: 6.00 Build 0)  -->
<svg version="1.1" id="Layer_1" xmlns="http://www.w3.org/2000/svg" xmlns:xlink="http://www.w3.org/1999/xlink" x="0px" y="0px"
	 width="12px" height="12px" viewBox="0 0 12 12" style="enable-background:new 0 0 12 12;" xml:space="preserve">
<polygon points="2,6.1 2.7,6.1 3.3,9.4 4.7,9.4 5.4,6.1 6,6.1 5.4,10 2.7,10 "/>
<rect x="3.6" y="4.9" width="0.6" height="0.6"/>
<rect x="4.3" y="6.1" width="0.6" height="0.6"/>
<rect x="4.3" y="7.4" width="0.6" height="0.6"/>
<polygon points="8,4 7,10 8,10 8,7 9,7 9,10 10,10 9,4 10,4 10,6 11,6 11,3.6 10,2.9 8.8,2.9 8.1,2.9 7.5,2.9 6.2,4 5,4 5,5 7,5 
	7,4 "/>
<circle cx="8.4" cy="2" r="1"/>
</svg>
