<?xml version="1.0" encoding="utf-8"?>
<!-- Generator: Adobe Illustrator 21.1.0, SVG Export Plug-In . SVG Version: 6.00 Build 0)  -->
<svg version="1.1" id="Layer_1" xmlns="http://www.w3.org/2000/svg" xmlns:xlink="http://www.w3.org/1999/xlink" x="0px" y="0px"
	 width="18px" height="18px" viewBox="0 0 18 18" style="enable-background:new 0 0 18 18;" xml:space="preserve">
<polygon points="3,9.4 3.9,9.4 4.8,14.1 7.6,14.1 8.5,9.4 9.5,9.4 8.5,15 3.9,15 "/>
<rect x="5" y="7.6" width="0.9" height="0.9"/>
<rect x="6" y="9.4" width="0.9" height="0.9"/>
<rect x="6" y="11.3" width="0.9" height="0.9"/>
<polygon points="11,6.6 11,15 12,15 12,9.4 13,9.4 13,15 14,15 14,5.7 15,5.7 15,9.4 16,9.4 16,5.7 14.6,4.8 12.8,4.8 12.8,5.7 
	11.8,5.7 11.8,4.8 10.9,4.8 10,5.7 9,6.6 7.2,6.6 7.2,7.6 10,7.6 10,6.6 "/>
<circle cx="12.3" cy="3.4" r="1.4"/>
</svg>
