<?xml version="1.0" encoding="utf-8"?>
<!-- Generator: Adobe Illustrator 21.1.0, SVG Export Plug-In . SVG Version: 6.00 Build 0)  -->
<svg version="1.1" id="Layer_1" xmlns="http://www.w3.org/2000/svg" xmlns:xlink="http://www.w3.org/1999/xlink" x="0px" y="0px"
	 width="24px" height="24px" viewBox="0 0 24 24" style="enable-background:new 0 0 24 24;" xml:space="preserve">
<path d="M8.9,9.2c-0.9,0-0.9,1.1,0,1.1h2.5c0.2,0,0.4-0.1,0.5-0.3L13,8.4V13h5V8.4h1v4.4c0,0.8,1,0.8,1,0V8c0-0.9-0.7-1.9-1.8-1.9
	h-1.9v0.8h-1.5V6.1c-0.7,0-1.7,0.4-2,0.9l-1.7,2.2H8.9z"/>
<polygon points="5,13 5.8,13 7.3,19.2 9.3,19.2 10.9,13 11.6,13 10.1,20 6.6,20 "/>
<circle cx="7" cy="10.7" r="0.8"/>
<circle cx="8.5" cy="13" r="0.8"/>
<circle cx="7.8" cy="15.4" r="0.8"/>
<circle cx="15.5" cy="4.5" r="1.5"/>
<rect x="13" y="13" width="2" height="7"/>
<rect x="16" y="13" width="2" height="7"/>
</svg>
