<?xml version="1.0" encoding="utf-8"?>
<!-- Generator: Adobe Illustrator 19.2.0, SVG Export Plug-In . SVG Version: 6.00 Build 0)  -->
<svg version="1.1" xmlns="http://www.w3.org/2000/svg" xmlns:xlink="http://www.w3.org/1999/xlink" x="0px" y="0px"
	 viewBox="0 0 12 12" style="enable-background:new 0 0 12 12;" xml:space="preserve">
<style type="text/css">
	.st0{fill:#FFFFFF;}
	.st1{opacity:0.5;}
	.st2{opacity:0.75;}
	.st3{fill:#E6E6E6;}
	.st4{display:none;}
	.st5{opacity:0.1;}
	.st6{opacity:0.2;}
</style>
<g id="builder_white_12">
</g>
<g id="builder_white_18">
</g>
<g id="builder_white_24">
</g>
<g id="buiilder_black_12">
	<path d="M8,4.2h1V3.6V2.3L6.5,1L3.9,2.3v1.3v0.6h1L3.7,10h0.6l0.2-1l1.9-1.7L8.3,9l0.2,1h0.6L8,4.2z M4.5,2.9h3.9v0.6H4.5V2.9z
		 M4.8,7.9l0.3-1.7l0.8,0.7L4.8,7.9z M5.3,5.5l0.2-1.2h1.8l0.2,1.2l-1.1,1L5.3,5.5z M6.9,6.9l0.8-0.7l0.3,1.7L6.9,6.9z"/>
</g>
<g id="builder_black_18">
</g>
<g id="builder_black_24">
</g>
<g id="standalone_slate_16">
</g>
<g id="standalone_slate_24">
</g>
<g id="standalone_slate_32">
</g>
<g id="standalone_white_16">
</g>
<g id="standalone_white_24_1_">
</g>
<g id="standalone_white_32">
</g>
<g id="standalone_black_16_1_">
</g>
<g id="standalone_black_24">
</g>
<g id="standalone_black_32">
</g>
<g id="HFC">
</g>
<g id="Labels">
</g>
<g id="Guildes">
</g>
</svg>
