<?xml version="1.0" encoding="utf-8"?>
<!-- Generator: Adobe Illustrator 21.1.0, SVG Export Plug-In . SVG Version: 6.00 Build 0)  -->
<svg version="1.1" id="Layer_1" xmlns:sketch="http://www.bohemiancoding.com/sketch/ns"
	 xmlns="http://www.w3.org/2000/svg" xmlns:xlink="http://www.w3.org/1999/xlink" x="0px" y="0px" width="24px" height="24px"
	 viewBox="0 0 24 24" enable-background="new 0 0 24 24" xml:space="preserve">
<rect x="10" y="5" fill="none" width="5" height="2"/>
<polygon fill="none" points="14.2,9 10.8,9 10.6,10.3 12.5,12.5 14.4,10.3 "/>
<rect x="10" y="5" fill="none" width="5" height="2"/>
<polygon fill="none" points="13.3,13.5 15.7,16.2 14.8,11.9 "/>
<polygon fill="none" points="14.2,9 10.8,9 10.6,10.3 12.5,12.5 14.4,10.3 "/>
<rect x="10" y="5" fill="none" width="5" height="2"/>
<path d="M15.5,9H17V4.7L12.5,3L8,4.7V9h1.5L7.2,20h1.3l0.3-1.3l0.4-0.4l3.3-3.8l3.3,3.8l0.4,0.4l0.3,1.3h1.3L15.5,9z M10,5h5v2h-5V5
	z M9.3,16.2l0.9-4.3l1.4,1.6L9.3,16.2z M10.6,10.3L10.8,9h3.3l0.3,1.3l-1.9,2.2L10.6,10.3z M13.3,13.5l1.4-1.6l0.9,4.3L13.3,13.5z"
	/>
</svg>
