<?xml version="1.0" encoding="UTF-8" standalone="no"?>
<svg width="12px" height="12px" viewBox="0 0 12 12" version="1.1" xmlns="http://www.w3.org/2000/svg" xmlns:xlink="http://www.w3.org/1999/xlink" xmlns:sketch="http://www.bohemiancoding.com/sketch/ns">
    <!-- Generator: Sketch 3.3.3 (12072) - http://www.bohemiancoding.com/sketch -->
    <title>lookout-tower-white-12</title>
    <desc>Created with Sketch.</desc>
    <defs></defs>
    <g id="lookout-tower" stroke="none" stroke-width="1" fill="none" fill-rule="evenodd" sketch:type="MSPage">
        <g id="lookout-tower-white-12" sketch:type="MSArtboardGroup" fill="#FFFFFF">
            <path d="M5.24186889,10 L5.59452285,8 L5.59452285,8 L7.50041467,8 L7.85306863,10 L8.86849524,10 L7.98686034,5 L9,5 L9,2 L4,2 L4,5 L5.10807718,5 L4.22644227,10 L5.24186889,10 Z M4.88921492,12 L4.88441234,12.0272368 L4.72994483,12 L4.88921492,12 Z M8.36499268,12 L8.21052517,12.0272368 L8.20572259,12 L8.36499268,12 Z M5.77084983,7 L6.12350379,5 L6.12350379,5 L6.97143373,5 L6.97143373,5 L7.32408769,7 L5.77084983,7 L5.77084983,7 Z M6.5,1 L9,2 L4,2 L6.5,1 Z M5,3 L8,3 L8,4 L5,4 L5,3 Z" id="symbol" sketch:type="MSShapeGroup"></path>
        </g>
    </g>
</svg>