<?xml version="1.0" encoding="UTF-8" standalone="no"?>
<svg width="24px" height="24px" viewBox="0 0 24 24" version="1.1" xmlns="http://www.w3.org/2000/svg" xmlns:xlink="http://www.w3.org/1999/xlink" xmlns:sketch="http://www.bohemiancoding.com/sketch/ns">
    <!-- Generator: Sketch 3.3.3 (12072) - http://www.bohemiancoding.com/sketch -->
    <title>lookout-tower-white-24</title>
    <desc>Created with Sketch.</desc>
    <defs></defs>
    <g id="lookout-tower" stroke="none" stroke-width="1" fill="none" fill-rule="evenodd" sketch:type="MSPage">
        <g id="lookout-tower-white-24" sketch:type="MSArtboardGroup" fill="#FFFFFF">
            <path d="M8.30348426,20 L8.57036087,18.7444442 L8.57036087,18.7444442 L8.96380248,18.2947967 L12.3090348,14.471674 L15.6542672,18.2947967 L16.0477088,18.7444442 L16.3145854,20 L17.6180697,20 L15.2693197,8.95 L16.5590348,8.95 L16.5590348,4.7 L8.05903484,4.7 L8.05903484,8.95 L9.34875001,8.95 L7,20 L8.30348426,20 L8.30348426,20 Z M10.3628822,10.3112944 L10.6522343,8.95 L10.6522343,8.95 L13.9658354,8.95 L13.9658354,8.95 L14.2551875,10.3112944 L13.9542672,10.6552033 L12.3090348,12.5354689 L10.6638025,10.6552033 L10.3628822,10.3112944 L10.3628822,10.3112944 Z M10.0317647,11.8690796 L9.11396799,16.1869738 L11.4619451,13.5035714 L10.0317647,11.8690796 L10.0317647,11.8690796 Z M15.5041017,16.1869738 L14.5863049,11.8690796 L13.1561246,13.5035714 L15.5041017,16.1869738 L15.5041017,16.1869738 Z M12.3090348,3 L16.5590348,4.7 L8.05903484,4.7 L12.3090348,3 Z M9.75903484,5.55 L14.8590348,5.55 L14.8590348,7.25 L9.75903484,7.25 L9.75903484,5.55 Z" id="symbol-copy-2" sketch:type="MSShapeGroup"></path>
        </g>
    </g>
</svg>