<?xml version="1.0" encoding="utf-8"?>
<!-- Generator: Adobe Illustrator 19.2.0, SVG Export Plug-In . SVG Version: 6.00 Build 0)  -->
<svg version="1.1" xmlns="http://www.w3.org/2000/svg" xmlns:xlink="http://www.w3.org/1999/xlink" x="0px" y="0px"
	 viewBox="0 0 18 18" style="enable-background:new 0 0 18 18;" xml:space="preserve">
<style type="text/css">
	.st0{fill:#FFFFFF;}
	.st1{opacity:0.5;}
	.st2{opacity:0.75;}
	.st3{fill:#E6E6E6;}
	.st4{display:none;}
	.st5{opacity:0.1;}
	.st6{opacity:0.2;}
</style>
<g id="builder_white_12">
</g>
<g id="builder_white_18">
	<path class="st0" d="M11.7,6.6h1.5V5.7V3.9L9.5,2L5.8,3.9v1.9v0.9h1.5L5.6,15h0.9l0.3-1.4l2.7-2.4l2.7,2.4l0.3,1.4h0.9L11.7,6.6z
		 M6.7,4.8h5.6v0.9H6.7V4.8z M7.2,12l0.5-2.5l1.1,1L7.2,12z M7.9,8.4l0.4-1.8h2.6l0.4,1.8L9.5,9.9L7.9,8.4z M10.2,10.6l1.1-1
		l0.5,2.5L10.2,10.6z"/>
</g>
<g id="builder_white_24">
</g>
<g id="buiilder_black_12">
</g>
<g id="builder_black_18">
</g>
<g id="builder_black_24">
</g>
<g id="standalone_slate_16">
</g>
<g id="standalone_slate_24">
</g>
<g id="standalone_slate_32">
</g>
<g id="standalone_white_16">
</g>
<g id="standalone_white_24_1_">
</g>
<g id="standalone_white_32">
</g>
<g id="standalone_black_16_1_">
</g>
<g id="standalone_black_24">
</g>
<g id="standalone_black_32">
</g>
<g id="HFC">
</g>
<g id="Labels">
</g>
<g id="Guildes">
</g>
</svg>
