<?xml version="1.0" encoding="UTF-8" standalone="no"?>
<svg width="18px" height="18px" viewBox="0 0 18 18" version="1.1" xmlns="http://www.w3.org/2000/svg" xmlns:xlink="http://www.w3.org/1999/xlink" xmlns:sketch="http://www.bohemiancoding.com/sketch/ns">
    <!-- Generator: Sketch 3.3.3 (12072) - http://www.bohemiancoding.com/sketch -->
    <title>lookout-tower-black-18</title>
    <desc>Created with Sketch.</desc>
    <defs></defs>
    <g id="lookout-tower" stroke="none" stroke-width="1" fill="none" fill-rule="evenodd" sketch:type="MSPage">
        <g id="lookout-tower-black-18" sketch:type="MSArtboardGroup" fill="#000000">
            <path d="M6.66171075,15 L7.36701867,11 L7.36701867,11 L10.6329813,11 L11.3382893,15 L12.3537159,15 L10.9431,7 L12,7 L12,4 L6,4 L6,7 L7.05689998,7 L5.64628413,15 L6.66171075,15 Z M7.54334565,10 L8.07232659,7 L8.07232659,7 L9.92767341,7 L9.92767341,7 L10.4566544,10 L7.54334565,10 L7.54334565,10 Z M9,3 L12,4 L6,4 L9,3 Z M7,5 L11,5 L11,6 L7,6 L7,5 Z" id="symbol" sketch:type="MSShapeGroup"></path>
        </g>
    </g>
</svg>