<?xml version="1.0" encoding="utf-8"?>
<!-- Generator: Adobe Illustrator 19.2.0, SVG Export Plug-In . SVG Version: 6.00 Build 0)  -->
<svg version="1.1" xmlns="http://www.w3.org/2000/svg" xmlns:xlink="http://www.w3.org/1999/xlink" x="0px" y="0px"
	 viewBox="0 0 24 24" style="enable-background:new 0 0 24 24;" xml:space="preserve">
<style type="text/css">
	.st0{fill:#FFFFFF;}
	.st1{opacity:0.5;}
	.st2{opacity:0.75;}
	.st3{fill:#E6E6E6;}
	.st4{display:none;}
	.st5{opacity:0.1;}
	.st6{opacity:0.2;}
</style>
<g id="builder_white_12">
</g>
<g id="builder_white_18">
</g>
<g id="builder_white_24">
	<path class="st0" d="M15.4,8.7h0.4H17v-4L13,3L9,4.7v4h1.1h0.4L8,20h1.2l0.3-1.4l3.5-4.2l3.5,4.2l0.3,1.4H18L15.4,8.7z M10.2,5.3
		h5.7v2.3h-5.7V5.3z M10,16.2l0.9-4.2l1.3,1.5L10,16.2z M13,12.7l-1.7-2l0.5-2h2.5l0.5,2L13,12.7z M13.7,13.6l1.3-1.5l0.9,4.1
		L13.7,13.6z"/>
</g>
<g id="buiilder_black_12">
</g>
<g id="builder_black_18">
</g>
<g id="builder_black_24">
</g>
<g id="standalone_slate_16">
</g>
<g id="standalone_slate_24">
</g>
<g id="standalone_slate_32">
</g>
<g id="standalone_white_16">
</g>
<g id="standalone_white_24_1_">
</g>
<g id="standalone_white_32">
</g>
<g id="standalone_black_16_1_">
</g>
<g id="standalone_black_24">
</g>
<g id="standalone_black_32">
</g>
<g id="HFC">
</g>
<g id="Labels">
</g>
<g id="Guildes">
</g>
</svg>
