<?xml version="1.0" encoding="utf-8"?>
<!-- Generator: Adobe Illustrator 21.1.0, SVG Export Plug-In . SVG Version: 6.00 Build 0)  -->
<svg version="1.1" id="Layer_1" xmlns="http://www.w3.org/2000/svg" xmlns:xlink="http://www.w3.org/1999/xlink" x="0px" y="0px"
	 width="12px" height="12px" viewBox="0 0 12 12" enable-background="new 0 0 12 12" xml:space="preserve">
<path d="M10.4,7.4L9.7,4.9L7.8,6.8l1.3,0.6C8.8,8.1,7.8,8.8,7,9V3h1V2H7V1H6v1H5v1h1v6C5.4,8.9,4.2,8.1,3.9,7.4l1.3-0.6L3.3,4.9
	L2.6,7.4h1.1L3.4,7.5c0.4,1.2,1.3,2.1,2.5,2.4V10h1.3V9.9c1.2-0.3,2.1-1.2,2.5-2.4L9.3,7.4H10.4z"/>
</svg>
