<?xml version="1.0" encoding="utf-8"?>
<!-- Generator: Adobe Illustrator 21.1.0, SVG Export Plug-In . SVG Version: 6.00 Build 0)  -->
<svg version="1.1" id="Layer_1" xmlns="http://www.w3.org/2000/svg" xmlns:xlink="http://www.w3.org/1999/xlink" x="0px" y="0px"
	 width="18px" height="18px" viewBox="0 0 18 18" enable-background="new 0 0 18 18" xml:space="preserve">
<path fill="#FFFFFF" d="M15.1,11.3l-0.9-3.7L12,10.4l1.2,0.9c-0.4,1-1.8,1.8-2.8,2.1V5.7V4.8L12,5V3l-1.6-0.1V2H8.6v0.9L7,3v2
	l1.4-0.2v0.9v7.7c-1-0.3-2.4-1.1-2.8-2.1L7,10.4L4.8,7.6l-0.9,3.7h1.5l-0.5,0.2c0.5,1.7,1.9,3.1,3.6,3.4V15h1.9v-0.1
	c1.7-0.4,3.1-1.7,3.6-3.4l-0.5-0.2H15.1z M9.8,4.8H9.1c-0.3,0-0.5-0.2-0.5-0.5V3.4c0-0.3,0.2-0.5,0.5-0.5h0.9c0.3,0,0.5,0.2,0.5,0.5
	v0.9C10.3,4.6,10.1,4.8,9.8,4.8z"/>
</svg>
