<?xml version="1.0" encoding="UTF-8" standalone="no"?>
<svg width="12px" height="12px" viewBox="0 0 12 12" version="1.1" xmlns="http://www.w3.org/2000/svg" xmlns:xlink="http://www.w3.org/1999/xlink" xmlns:sketch="http://www.bohemiancoding.com/sketch/ns">
    <!-- Generator: Sketch 3.3.3 (12072) - http://www.bohemiancoding.com/sketch -->
    <title>mechanic-white-12</title>
    <desc>Created with Sketch.</desc>
    <defs></defs>
    <g id="mechanic" stroke="none" stroke-width="1" fill="none" fill-rule="evenodd" sketch:type="MSPage">
        <g id="mechanic-white-12" sketch:type="MSArtboardGroup" fill="#FFFFFF">
            <path d="M7.64446282,1 C7.09165212,1.31978372 6.71972305,1.91748357 6.71972305,2.60205211 C6.71972305,2.97175145 6.82819654,3.31611545 7.01505253,3.60505312 L2.84118875,9.00652389 C2.63300323,9.27594044 2.68264079,9.6631134 2.95205734,9.87129892 C3.22147388,10.0794844 3.60864685,10.0298469 3.81683236,9.76043032 L7.99051499,4.35919399 L7.99051499,4.35919399 C8.17256177,4.4191137 8.36709637,4.45153166 8.5692026,4.45153166 C9.59064194,4.45153166 10.4186821,3.62349146 10.4186821,2.60205211 C10.4186821,1.91748357 10.0467531,1.31978372 9.49394237,1 L9.49394237,2.29380552 L8.5692026,2.9102987 L7.64446282,2.29380552 L7.64446282,1 Z" id="Symbol" sketch:type="MSShapeGroup"></path>
        </g>
    </g>
</svg>