<?xml version="1.0" encoding="UTF-8" standalone="no"?>
<svg width="24px" height="24px" viewBox="0 0 24 24" version="1.1" xmlns="http://www.w3.org/2000/svg" xmlns:xlink="http://www.w3.org/1999/xlink" xmlns:sketch="http://www.bohemiancoding.com/sketch/ns">
    <!-- Generator: Sketch 3.3.3 (12072) - http://www.bohemiancoding.com/sketch -->
    <title>mechanic-white-24</title>
    <desc>Created with Sketch.</desc>
    <defs></defs>
    <g id="mechanic" stroke="none" stroke-width="1" fill="none" fill-rule="evenodd" sketch:type="MSPage">
        <g id="mechanic-white-24" sketch:type="MSArtboardGroup" fill="#FFFFFF">
            <path d="M14.3159531,3 C13.2717551,3.60403592 12.5692224,4.73302453 12.5692224,6.02609843 C12.5692224,6.7244194 12.7741168,7.37488473 13.127067,7.92065589 L5.24310205,18.123434 C4.84986275,18.6323319 4.94362258,19.3636587 5.4525205,19.756898 C5.96141842,20.1501373 6.69274513,20.0563774 7.08598443,19.5474795 L14.9696072,9.3451442 L14.9696072,9.3451442 C15.3134733,9.45832588 15.6809276,9.51955979 16.0626838,9.51955979 C17.9920692,9.51955979 19.5561451,7.95548387 19.5561451,6.02609843 C19.5561451,4.73302453 18.8536124,3.60403592 17.8094144,3 L17.8094144,5.44385487 L16.0626838,6.60834199 L14.3159531,5.44385487 L14.3159531,3 Z" id="Symbol" sketch:type="MSShapeGroup"></path>
        </g>
    </g>
</svg>