<?xml version="1.0" encoding="utf-8"?>
<!-- Generator: Adobe Illustrator 21.1.0, SVG Export Plug-In . SVG Version: 6.00 Build 0)  -->
<svg version="1.1" id="Layer_1" xmlns:sketch="http://www.bohemiancoding.com/sketch/ns"
	 xmlns="http://www.w3.org/2000/svg" xmlns:xlink="http://www.w3.org/1999/xlink" x="0px" y="0px" width="24px" height="24px"
	 viewBox="0 0 24 24" enable-background="new 0 0 24 24" xml:space="preserve">
<path id="Symbol" sketch:type="MSShapeGroup" d="M14.5,3c-1,0.6-1.7,1.7-1.7,3c0,0.7,0.2,1.3,0.6,1.9L5.5,18.1
	c-0.4,0.5-0.3,1.2,0.2,1.6c0.5,0.4,1.2,0.3,1.6-0.2l7.9-10.2l0,0c0.3,0.1,0.7,0.2,1.1,0.2c1.9,0,3.5-1.6,3.5-3.5
	c0-1.3-0.7-2.4-1.7-3v2.4l-1.7,1.2l-1.7-1.2V3z"/>
</svg>
