<?xml version="1.0" encoding="UTF-8" standalone="no"?>
<svg width="18px" height="18px" viewBox="0 0 18 18" version="1.1" xmlns="http://www.w3.org/2000/svg" xmlns:xlink="http://www.w3.org/1999/xlink" xmlns:sketch="http://www.bohemiancoding.com/sketch/ns">
    <!-- Generator: Sketch 3.3.3 (12072) - http://www.bohemiancoding.com/sketch -->
    <title>mechanic-black-18</title>
    <desc>Created with Sketch.</desc>
    <defs></defs>
    <g id="mechanic" stroke="none" stroke-width="1" fill="none" fill-rule="evenodd" sketch:type="MSPage">
        <g id="mechanic-black-18" sketch:type="MSArtboardGroup" fill="#000000">
            <path d="M10.8364518,2 C10.0379474,2.46190982 9.50071656,3.32525405 9.50071656,4.31407527 C9.50071656,4.84808543 9.65740048,5.34550009 9.92730358,5.76285451 L3.89838923,13.564979 C3.59767682,13.9541362 3.66937552,14.513386 4.05853275,14.8140984 C4.44768998,15.1148108 5.00693982,15.0431121 5.30765223,14.6539549 L11.3363049,6.85216909 L11.3363049,6.85216909 C11.5992614,6.93871979 11.8802558,6.98554572 12.172187,6.98554572 C13.6475994,6.98554572 14.8436575,5.78948766 14.8436575,4.31407527 C14.8436575,3.32525405 14.3064266,2.46190982 13.5079222,2 L13.5079222,3.8688302 L12.172187,4.75932035 L10.8364518,3.8688302 L10.8364518,2 Z" id="Symbol" sketch:type="MSShapeGroup"></path>
        </g>
    </g>
</svg>