<?xml version="1.0" encoding="utf-8"?>
<!-- Generator: Adobe Illustrator 21.1.0, SVG Export Plug-In . SVG Version: 6.00 Build 0)  -->
<svg version="1.1" id="Layer_1" xmlns="http://www.w3.org/2000/svg" xmlns:xlink="http://www.w3.org/1999/xlink" x="0px" y="0px"
	 width="24px" height="24px" viewBox="0 0 24 24" enable-background="new 0 0 24 24" xml:space="preserve">
<path d="M13.3,16.5c-0.2,0.2-0.5,0.4-0.8,0.4v-4.2l3.1-0.8v1.5L13.3,16.5z"/>
<path d="M11,7.2h-0.8V6.5c0,0-0.7,0.2-0.9,0.4L7,10.4c-0.1,0.2-0.1,0.3-0.1,0.5c0,0.4,0.2,0.7,0.5,0.9l3.1,1.7v2.9
	c0,0.4,0.3,0.8,0.7,0.8s0.6-0.3,0.6-0.8v-3.7c0,0,0.3-0.6-0.4-0.9l-1.9-1l1.4-2.1l0.7,1.2c0.1,0.2,0.4,0.4,0.5,0.4H14
	c0.8,0,0.8-1.1,0-1.1h-1.6L11,7V7.2z"/>
<path d="M19.4,11.7v0.1c0,0.1-0.1,0.2-0.2,0.2H19c-0.3-0.1-0.5-0.2-0.9-0.2c-0.3,0-0.6,0.1-0.9,0.4L17,11.4c0.4-0.1,0.8-0.3,1.1-0.3
	C18.7,11.1,19,11.3,19.4,11.7z"/>
<path d="M6.5,12.2L9.4,14v0.7l-3.4-2c-0.3-0.1-0.6-0.2-0.9-0.2c-0.4,0-0.2,0.1-0.5,0.2H4.5c-0.1,0-0.2-0.1-0.2-0.2v-0.1
	c0.4-0.4,0.4-0.5,0.9-0.5S6,11.9,6.5,12.2L6.5,12.2z"/>
<path d="M17.6,13.4L16.4,11c-0.2-0.3-0.6-0.7-1-0.7h-0.9c-0.2,0-0.3,0.3-0.3,0.4s0.1,0.3,0.3,0.3h0.9c0.1,0,0.3,0.1,0.4,0.2l1.3,2.1
	h0.5V13.4z"/>
<path d="M13.2,5.3h0.7c0-0.1,0-0.3,0-0.4c0-1.1-0.9-1.9-1.9-1.9s-1.9,0.9-1.9,1.9c0,0.4,0.2,0.8,0.4,1.2h2.7V5.3z"/>
<circle cx="12.1" cy="6.1" r="1.2"/>
<path d="M18,14c-1.7,0-3,1.3-3,3s1.3,3,3,3s3-1.3,3-3S19.7,14,18,14z M18,19c-1.1,0-2-0.9-2-2s0.9-2,2-2s2,0.9,2,2S19.1,19,18,19z"
	/>
<path d="M7,14c-1.7,0-3,1.3-3,3s1.3,3,3,3s3-1.3,3-3S8.7,14,7,14z M7,19c-1.1,0-2-0.9-2-2s0.9-2,2-2s2,0.9,2,2S8.1,19,7,19z"/>
</svg>
