<?xml version="1.0" encoding="utf-8"?>
<!-- Generator: Adobe Illustrator 21.1.0, SVG Export Plug-In . SVG Version: 6.00 Build 0)  -->
<svg version="1.1" id="Layer_1" xmlns="http://www.w3.org/2000/svg" xmlns:xlink="http://www.w3.org/1999/xlink" x="0px" y="0px"
	 width="18px" height="18px" viewBox="0 0 18 18" enable-background="new 0 0 18 18" xml:space="preserve">
<path d="M10.1,12.4c-0.2,0.2-0.4,0.3-0.6,0.3V9.5L11.7,9l0.6,0.9L10.1,12.4z"/>
<path d="M7.6,5.2L7.6,5.2H7L5.3,7.8C5.2,7.9,5.2,8,5.2,8.1c0,0.3,0.1,0.5,0.4,0.7l2.1,1.3v2.2c0,0.3,0.5,0.6,0.8,0.6
	s0.1-0.3,0.1-0.6V9.6c0,0,0.5-0.4,0-0.7L7.1,8.1l1.1-1.6l0.6,0.9C8.9,7.6,9,7.6,9.2,7.6h1.5c0.6,0,0.6-0.8,0-0.8H9.5L8.6,6.2h-1V5.2
	z"/>
<path d="M15.1,8l-0.3,0.8l-0.1,0.1h0.4c-0.3-0.1-0.9-0.2-1.2-0.2c-0.2,0-0.4,0-0.7,0.2l-0.3-0.4c0.3-0.1,0.6-0.2,0.9-0.2
	C14.2,8.2,14.8,7.8,15.1,8z"/>
<path d="M4.9,9.1l2.5,1.4V11L4.6,9.5C4.4,9.2,4.1,9.2,3.9,9.2c-0.3,0-0.5,0.1-0.7,0.2l0,0L3,9.2V9.1c0.3-0.3,0.6-0.4,1-0.4
	C4.3,8.9,4.6,8.9,4.9,9.1z"/>
<path d="M13.4,10.1l-1-2.1c-0.1-0.2-0.4-0.4-0.7-0.4H11c-0.1,0-0.2,0.1-0.2,0.2s0.1,0.2,0.2,0.2h0.7c0.1,0,0.2,0.1,0.3,0.2l1,2
	L13.4,10.1z"/>
<path d="M6.7,12.6c0,1-0.8,1.9-1.9,1.9S3,13.6,3,12.6s0.8-1.9,1.9-1.9S6.7,11.6,6.7,12.6z M5.8,11.8H3.9v1.9h1.9V11.8z"/>
<path d="M16,12.6c0,1-0.8,1.9-1.9,1.9s-1.9-0.8-1.9-1.9c0-1.1,0.8-1.9,1.9-1.9S16,11.6,16,12.6z M15.1,11.8h-1.9v1.9h1.9V11.8z"/>
<path d="M9.2,5.2H8.9C8.2,5.2,7.6,4.7,7.6,4V3.7c0-0.7,0.5-1.2,1.2-1.2h0.4c0.7,0,1.2,0.5,1.2,1.2V4C10.4,4.7,9.9,5.2,9.2,5.2z"/>
</svg>
