<?xml version="1.0" encoding="utf-8"?>
<!-- Generator: Adobe Illustrator 21.1.0, SVG Export Plug-In . SVG Version: 6.00 Build 0)  -->
<svg version="1.1" id="Layer_1" xmlns="http://www.w3.org/2000/svg" xmlns:xlink="http://www.w3.org/1999/xlink" x="0px" y="0px"
	 width="12px" height="12px" viewBox="0 0 12 12" enable-background="new 0 0 12 12" xml:space="preserve">
<path fill="#FFFFFF" d="M6.9,8.1C6.8,8.2,6.7,8.3,6.5,8.3V6.1L8,5.8l0.4,0.7L6.9,8.1z"/>
<path fill="#FFFFFF" d="M5,3L4.8,3.2L3.6,4.9c0,0.1-0.1,0.2-0.1,0.3c0,0.2,0.1,0.4,0.2,0.5l1.5,0.9v1.5c0,0.2,0.3,0.4,0.6,0.4
	C6,8.6,6,7,5.9,5.8l-1-0.5l0.7-1.1L6,4.6c0.1,0.1,0.2,0.2,0.3,0.2h1c0.4,0,0.4-0.5,0-0.5H6.5L6,4H5V3z"/>
<path fill="#FFFFFF" d="M9.5,7C8.7,7,8,7.7,8,8.5S8.7,10,9.5,10S11,9.3,11,8.5S10.3,7,9.5,7z M10,9H9V8h1V9z"/>
<path fill="#FFFFFF" d="M3.5,7C2.7,7,2,7.7,2,8.5S2.7,10,3.5,10S5,9.3,5,8.5S4.3,7,3.5,7z M4,9H3V8h1V9z"/>
<circle fill="#FFFFFF" cx="6" cy="2" r="1"/>
<rect x="8" y="5" fill="#FFFFFF" width="2" height="1"/>
</svg>
