<?xml version="1.0" encoding="UTF-8" standalone="no"?>
<svg width="12px" height="12px" viewBox="0 0 12 12" version="1.1" xmlns="http://www.w3.org/2000/svg" xmlns:xlink="http://www.w3.org/1999/xlink" xmlns:sketch="http://www.bohemiancoding.com/sketch/ns">
    <!-- Generator: Sketch 3.3.3 (12072) - http://www.bohemiancoding.com/sketch -->
    <title>museum-black-12</title>
    <desc>Created with Sketch.</desc>
    <defs></defs>
    <g id="museum" stroke="none" stroke-width="1" fill="none" fill-rule="evenodd" sketch:type="MSPage">
        <g id="museum-black-12" sketch:type="MSArtboardGroup" fill="#000000">
            <path d="M2,3.45454545 L11,3.45454545 L11,4.18181818 L2,4.18181818 L2,3.45454545 Z M2.75,8.54545455 L10.25,8.54545455 L11,9.27272727 L2,9.27272727 L2.75,8.54545455 Z M2.75,3.45454545 L6.5,2 L10.25,3.45454545 L2.75,3.45454545 Z M2.75,4.18181818 L3.5,4.18181818 L3.5,8.54545455 L2.75,8.54545455 L2.75,4.18181818 Z M5,4.18181818 L5.75,4.18181818 L5.75,8.54545455 L5,8.54545455 L5,4.18181818 Z M7.25,4.18181818 L8,4.18181818 L8,8.54545455 L7.25,8.54545455 L7.25,4.18181818 Z M9.5,4.18181818 L10.25,4.18181818 L10.25,8.54545455 L9.5,8.54545455 L9.5,4.18181818 Z M2,9.27272727 L11,9.27272727 L11,10 L2,10 L2,9.27272727 Z" id="symbol" sketch:type="MSShapeGroup"></path>
        </g>
    </g>
</svg>