<?xml version="1.0" encoding="UTF-8" standalone="no"?>
<svg width="18px" height="18px" viewBox="0 0 18 18" version="1.1" xmlns="http://www.w3.org/2000/svg" xmlns:xlink="http://www.w3.org/1999/xlink" xmlns:sketch="http://www.bohemiancoding.com/sketch/ns">
    <!-- Generator: Sketch 3.3.3 (12072) - http://www.bohemiancoding.com/sketch -->
    <title>museum-black-18</title>
    <desc>Created with Sketch.</desc>
    <defs></defs>
    <g id="museum" stroke="none" stroke-width="1" fill="none" fill-rule="evenodd" sketch:type="MSPage">
        <g id="museum-black-18" sketch:type="MSArtboardGroup" fill="#000000">
            <path d="M3,5 L15,5 L15,6 L3,6 L3,5 Z M4,12 L14,12 L15,13 L3,13 L4,12 Z M4,5 L9,3 L14,5 L4,5 Z M4,6 L5,6 L5,12 L4,12 L4,6 Z M7,6 L8,6 L8,12 L7,12 L7,6 Z M10,6 L11,6 L11,12 L10,12 L10,6 Z M13,6 L14,6 L14,12 L13,12 L13,6 Z M3,13 L15,13 L15,14 L3,14 L3,13 Z" id="symbol" sketch:type="MSShapeGroup"></path>
        </g>
    </g>
</svg>