<?xml version="1.0" encoding="utf-8"?>
<!-- Generator: Adobe Illustrator 21.1.0, SVG Export Plug-In . SVG Version: 6.00 Build 0)  -->
<svg version="1.1" xmlns="http://www.w3.org/2000/svg" xmlns:xlink="http://www.w3.org/1999/xlink" x="0px" y="0px" width="24px"
	 height="24px" viewBox="0 0 24 24" enable-background="new 0 0 24 24" xml:space="preserve">
<g id="Layer_1" xmlns:sketch="http://www.bohemiancoding.com/sketch/ns">
	<rect x="4" y="7" fill="#FFFFFF" width="17" height="2"/>
	<polygon fill="#FFFFFF" points="4.8,17 20.1,17 21,18.6 21,19 4,19 4,18.6 	"/>
	<polygon fill="#FFFFFF" points="5.7,7 12.5,4 19.3,7 	"/>
	<rect x="5" y="8.8" fill="#FFFFFF" width="2.6" height="8.2"/>
	<rect x="9.9" y="8.8" fill="#FFFFFF" width="1.7" height="8.2"/>
	<rect x="13.4" y="8.8" fill="#FFFFFF" width="1.7" height="8.2"/>
	<rect x="17.5" y="8.8" fill="#FFFFFF" width="2.5" height="8.2"/>
</g>
<g id="Layer_2" display="none">
	<rect display="inline" fill="#FFFFFF" width="24" height="24"/>
</g>
<g id="Layer_3" display="none">
	<rect x="5.5" y="6.5" display="inline" width="2" height="10"/>
	<rect x="9.5" y="6.5" display="inline" width="2" height="10"/>
	<rect x="13.5" y="6.5" display="inline" width="2" height="10"/>
	<rect x="17.5" y="6.5" display="inline" width="2" height="10"/>
</g>
</svg>
