<?xml version="1.0" encoding="utf-8"?>
<!-- Generator: Adobe Illustrator 21.1.0, SVG Export Plug-In . SVG Version: 6.00 Build 0)  -->
<svg version="1.1" id="Layer_1" xmlns="http://www.w3.org/2000/svg" xmlns:xlink="http://www.w3.org/1999/xlink" x="0px" y="0px"
	 width="12px" height="12px" viewBox="0 0 12 12" enable-background="new 0 0 12 12" xml:space="preserve">
<polygon fill="#FFFFFF" points="8.4,5.2 8.4,4.9 7.8,4.5 3.3,4.5 3.3,3.9 2.6,3.9 3,5.2 3,9 4,9.7 4,6.9 5.9,9.7 6.5,9 5.2,7 8,7 
	8,9 9,9.7 9,5.2 "/>
<polygon fill="#FFFFFF" points="8.4,2 8.4,1.3 8,1.3 8,3.9 8.4,3.9 8.4,4.2 9.1,4.5 11,4.5 11,3.2 "/>
<polygon fill="#FFFFFF" points="2,1.3 7.8,3.9 7.8,4.5 2,2 "/>
</svg>
