<?xml version="1.0" encoding="utf-8"?>
<!-- Generator: Adobe Illustrator 21.1.0, SVG Export Plug-In . SVG Version: 6.00 Build 0)  -->
<svg version="1.1" id="Layer_1" xmlns="http://www.w3.org/2000/svg" xmlns:xlink="http://www.w3.org/1999/xlink" x="0px" y="0px"
	 width="24px" height="24px" viewBox="0 0 24 24" enable-background="new 0 0 24 24" xml:space="preserve">
<polygon fill="#FFFFFF" points="6,11.9 6,18.8 7,19.6 8,18.8 8,15.6 11,19.6 11.7,19.6 12.5,18.1 10.2,15 15,15 15,18.8 16,19.6 
	17,18.8 17,11.1 14,9.6 6.3,9.6 5.5,8.8 4.8,9.6 "/>
<polygon fill="#FFFFFF" points="14,8 14,3.4 14.8,3.4 14.8,4.2 21,7.2 21,8.8 17.1,9.6 "/>
<polygon fill="#FFFFFF" points="4,3.4 4,4.5 14,9.2 14,8 "/>
</svg>
