<?xml version="1.0" encoding="UTF-8" standalone="no"?>
<svg width="12px" height="12px" viewBox="0 0 12 12" version="1.1" xmlns="http://www.w3.org/2000/svg" xmlns:xlink="http://www.w3.org/1999/xlink" xmlns:sketch="http://www.bohemiancoding.com/sketch/ns">
    <!-- Generator: Sketch 3.3.3 (12072) - http://www.bohemiancoding.com/sketch -->
    <title>playground-black-12</title>
    <desc>Created with Sketch.</desc>
    <defs></defs>
    <g id="playground" stroke="none" stroke-width="1" fill="none" fill-rule="evenodd" sketch:type="MSPage">
        <g id="playground-black-12" sketch:type="MSArtboardGroup" fill="#000000">
            <g id="Group" sketch:type="MSLayerGroup" transform="translate(2.000000, 1.000000)">
                <path d="M1.17439184,5.23164564 C1.66885285,5.23164564 2.06982807,4.81093955 2.06982807,4.29214749 C2.06982807,3.7745372 1.66885285,3.35501287 1.17439184,3.35501287 C0.681057159,3.35501287 0.281208275,3.7745372 0.281208275,4.29214749 C0.281208275,4.81093955 0.681057159,5.23164564 1.17439184,5.23164564" id="Fill-3-Copy" sketch:type="MSShapeGroup"></path>
                <path d="M5.45559072,5.40654592 C5.5614662,5.32618633 5.68311037,5.26355312 5.82164956,5.26355312 L7.56183695,5.26591664 C7.89973742,5.26591664 8.17343679,5.55426575 8.17343679,5.9076116 C8.17343679,6.26332096 7.89973742,6.54930655 7.56183695,6.54930655 L6.10886495,6.54694304 L4.25491774,7.92014661 C3.60164351,8.41412174 3.20517363,7.87169451 3.20517363,7.87169451 L1.74994896,6.34368055 C1.50666063,6.03642329 1.55847203,5.45263451 1.8513191,5.19501112 L3.86520587,3.68945057 C4.06569348,3.51455029 4.36304589,3.54173074 4.53199612,3.74972026 C4.69982002,3.96007331 4.67278798,4.27323935 4.47230037,4.4493214 L3.18377327,5.4384534 L4.10962054,6.3992232 L5.45559072,5.40654592" id="Fill-7-Copy" sketch:type="MSShapeGroup"></path>
            </g>
            <path d="M3.16169499,1 L5.11930596,4.57810782 L5.11930596,4.57810782 L5.6607268,4.19900087 L3.91052824,1 L3.16169499,1 L3.16169499,1 Z M8.24358878,8.26196017 L6.666562,9.43690868 L7.01616128,9.96166992 L8.58043443,8.80809559 L8.24358878,8.26196017 Z M7.45559072,6.40654592 C7.5614662,6.32618633 7.68311037,6.26355312 7.82164956,6.26355312 L9.56183695,6.26591664 C9.89973742,6.26591664 10.1734368,6.55426575 10.1734368,6.9076116 C10.1734368,7.26332096 9.89973742,7.54930655 9.56183695,7.54930655 L8.10886495,7.54694304 L6.25491774,8.92014661 C5.60164351,9.41412174 5.20517363,8.87169451 5.20517363,8.87169451 L3.74994896,7.34368055 C3.50666063,7.03642329 3.55847203,6.45263451 3.8513191,6.19501112 L5.86520587,4.68945057 C6.06569348,4.51455029 6.36304589,4.54173074 6.53199612,4.74972026 C6.69982002,4.96007331 6.67278798,5.27323935 6.47230037,5.4493214 L5.18377327,6.4384534 L6.10962054,7.3992232 L7.45559072,6.40654592 Z M3.17439184,6.23164564 C3.66885285,6.23164564 4.06982807,5.81093955 4.06982807,5.29214749 C4.06982807,4.7745372 3.66885285,4.35501287 3.17439184,4.35501287 C2.68105716,4.35501287 2.28120828,4.7745372 2.28120828,5.29214749 C2.28120828,5.81093955 2.68105716,6.23164564 3.17439184,6.23164564 Z" id="symbol" sketch:type="MSShapeGroup"></path>
        </g>
    </g>
</svg>