<?xml version="1.0" encoding="utf-8"?>
<!-- Generator: Adobe Illustrator 21.1.0, SVG Export Plug-In . SVG Version: 6.00 Build 0)  -->
<svg version="1.1" id="Layer_1" xmlns:sketch="http://www.bohemiancoding.com/sketch/ns"
	 xmlns="http://www.w3.org/2000/svg" xmlns:xlink="http://www.w3.org/1999/xlink" x="0px" y="0px" width="18px" height="18px"
	 viewBox="0 0 18 18" enable-background="new 0 0 18 18" xml:space="preserve">
<polygon fill="#FFFFFF" points="4.8,2 7.7,7.1 7.7,7.1 8.6,6.5 5.9,2 4.8,2 "/>
<polygon fill="#FFFFFF" points="12.6,12.5 10.2,14.2 10.7,15 13.1,13.3 "/>
<path fill="#FFFFFF" d="M8.7,13.3c-0.2,0-0.4-0.2-0.4-0.2L6,10.8c-0.1-0.1-0.1-0.3-0.1-0.5C6,10.2,6,10,6.1,9.9l3.1-2.2
	c0.1-0.1,0.1-0.1,0.2-0.1c0.1,0,0.1,0,0.2,0.1c0,0.1,0.1,0.1,0,0.2c0,0,0,0.1-0.1,0.1L7.1,9.8l2.2,2.1l2.4-1.7
	c0.1-0.1,0.2-0.1,0.3-0.1l2.7,0c0.2,0,0.4,0.2,0.4,0.4c0,0.2-0.2,0.4-0.4,0.4l-2.4,0l-3,2.1C9.1,13.2,8.9,13.3,8.7,13.3z"/>
<circle fill="#FFFFFF" cx="4.5" cy="8.5" r="1.5"/>
</svg>
