<?xml version="1.0" encoding="UTF-8" standalone="no"?>
<svg width="24px" height="24px" viewBox="0 0 24 24" version="1.1" xmlns="http://www.w3.org/2000/svg" xmlns:xlink="http://www.w3.org/1999/xlink" xmlns:sketch="http://www.bohemiancoding.com/sketch/ns">
    <!-- Generator: Sketch 3.3.3 (12072) - http://www.bohemiancoding.com/sketch -->
    <title>playground-black-24</title>
    <desc>Created with Sketch.</desc>
    <defs></defs>
    <g id="playground" stroke="none" stroke-width="1" fill="none" fill-rule="evenodd" sketch:type="MSPage">
        <g id="playground-black-24" sketch:type="MSArtboardGroup" fill="#000000">
            <path d="M6.067625,13.1188571 C7.11710938,13.1188571 7.96817188,12.3051429 7.96817188,11.3017143 C7.96817188,10.3005714 7.11710938,9.48914286 6.067625,9.48914286 C5.02053125,9.48914286 4.17185938,10.3005714 4.17185938,11.3017143 C4.17185938,12.3051429 5.02053125,13.1188571 6.067625,13.1188571 Z M16.7106875,16.2388571 C16.7991406,16.1817143 16.9162813,16.1977143 16.9808281,16.28 L17.33225,16.744 C17.3920156,16.824 17.3728906,16.9405714 17.2892188,17.0022857 L14.712125,18.792 C14.6284531,18.8514286 14.5065313,18.8331429 14.4419844,18.7531429 L14.0905625,18.2868571 C14.0307969,18.2068571 14.0499219,18.0902857 14.1335938,18.0285714 L16.7106875,16.2388571 Z M13.7965156,13.9302857 L12.7733281,12.216 L12.2378281,12.5908571 L13.258625,14.3142857 L13.7965156,13.9302857 Z M11.4106719,9.92571429 L7.4350625,3.25142857 L6.67484375,3.256 L10.868,10.3051429 L11.4106719,9.92571429 Z M15.1543906,13.4571429 C15.3791094,13.3017143 15.6372969,13.1805714 15.9313438,13.1805714 L19.6248594,13.1851429 C20.3420469,13.1851429 20.9229688,13.7428571 20.9229688,14.4262857 C20.9229688,15.1142857 20.3420469,15.6674286 19.6248594,15.6674286 L16.5409531,15.6628571 L12.6059844,18.3188571 C11.2194219,19.2742857 10.3779219,18.2251429 10.3779219,18.2251429 L7.28923438,15.2697143 C6.77285938,14.6754286 6.88282813,13.5462857 7.50439063,13.048 L11.7788281,10.136 C12.2043594,9.79771429 12.8354844,9.85028571 13.1940781,10.2525714 C13.5502813,10.6594286 13.4929063,11.2651429 13.067375,11.6057143 L10.3325,13.5188571 L12.2975938,15.3771429 L15.1543906,13.4571429 Z" id="symbol" sketch:type="MSShapeGroup"></path>
        </g>
    </g>
</svg>