<?xml version="1.0" encoding="utf-8"?>
<!-- Generator: Adobe Illustrator 21.1.0, SVG Export Plug-In . SVG Version: 6.00 Build 0)  -->
<svg version="1.1" id="Layer_1" xmlns:sketch="http://www.bohemiancoding.com/sketch/ns"
	 xmlns="http://www.w3.org/2000/svg" xmlns:xlink="http://www.w3.org/1999/xlink" x="0px" y="0px" width="24px" height="24px"
	 viewBox="0 0 24 24" enable-background="new 0 0 24 24" xml:space="preserve">
<path d="M16.7,16.7c0.1-0.1,0.2,0,0.3,0l0.4,0.5c0.1,0.1,0,0.2,0,0.3l-2.6,1.8c-0.1,0.1-0.2,0-0.3,0L14,18.7c-0.1-0.1,0-0.2,0-0.3
	L16.7,16.7z"/>
<polygon points="13.7,14.4 12.7,12.7 12.2,13.1 13.2,14.8 "/>
<polygon points="11.4,10.4 7.4,3.7 6.6,3.7 10.8,10.8 "/>
<path d="M11.4,18.7c-0.4,0-0.7-0.3-0.7-0.3l-3.1-3c-0.1-0.1-0.2-0.4-0.2-0.7c0-0.3,0.2-0.6,0.4-0.7L12,11c0.1-0.1,0.2-0.1,0.4-0.1
	c0.2,0,0.3,0.1,0.4,0.2c0.1,0.1,0.1,0.2,0.1,0.3c0,0.1-0.1,0.2-0.2,0.3l-3.2,2.2l2.7,2.6l3.2-2.1c0.2-0.1,0.3-0.2,0.5-0.2l3.7,0
	c0.4,0,0.8,0.3,0.8,0.7s-0.4,0.7-0.8,0.7l-3.2,0l-4.1,2.7C12,18.6,11.7,18.7,11.4,18.7z"/>
<circle cx="6" cy="12" r="1.5"/>
</svg>
