<?xml version="1.0" encoding="utf-8"?>
<!-- Generator: Adobe Illustrator 21.1.0, SVG Export Plug-In . SVG Version: 6.00 Build 0)  -->
<svg version="1.1" id="Layer_1" xmlns:sketch="http://www.bohemiancoding.com/sketch/ns"
	 xmlns="http://www.w3.org/2000/svg" xmlns:xlink="http://www.w3.org/1999/xlink" x="0px" y="0px" width="12px" height="12px"
	 viewBox="0 0 12 12" enable-background="new 0 0 12 12" xml:space="preserve">
<path id="Fill-3-Copy" sketch:type="MSShapeGroup" fill="#FFFFFF" d="M3.4,6.3c0.5,0,0.9-0.4,0.9-0.9c0-0.5-0.4-0.9-0.9-0.9
	C3,4.4,2.6,4.8,2.6,5.3C2.6,5.8,3,6.3,3.4,6.3"/>
<polygon fill="#FFFFFF" points="3.4,1 5.4,4.6 5.4,4.6 5.9,4.2 4.2,1 3.4,1 "/>
<path fill="#FFFFFF" d="M7.7,6C7.8,5.9,8,6,8.1,6h1.7c0.3,0,0.6,0.1,0.6,0.5c0,0.4-0.3,0.5-0.6,0.5H8.4c0,0-1.7,1.1-2.3,1.5
	C5.6,8.8,5.3,8.7,5,8.4c-0.2-0.3-1-1-1-1C3.8,7.1,3.8,6.5,4.1,6.2l2-1.5c0.2-0.2,0.5-0.1,0.7,0.1C7,5,6.9,5.3,6.7,5.5l-1.3,1L6.4,7
	L7.7,6z"/>
<ellipse fill="#FFFFFF" cx="3.4" cy="5.3" rx="0.9" ry="0.9"/>
<rect x="7" y="9" fill="#FFFFFF" width="1" height="1"/>
<rect x="8" y="8" fill="#FFFFFF" width="1" height="1"/>
</svg>
