<?xml version="1.0" encoding="UTF-8" standalone="no"?>
<svg width="18px" height="18px" viewBox="0 0 18 18" version="1.1" xmlns="http://www.w3.org/2000/svg" xmlns:xlink="http://www.w3.org/1999/xlink" xmlns:sketch="http://www.bohemiancoding.com/sketch/ns">
    <!-- Generator: Sketch 3.3.3 (12072) - http://www.bohemiancoding.com/sketch -->
    <title>playground-white-18</title>
    <desc>Created with Sketch.</desc>
    <defs></defs>
    <g id="playground" stroke="none" stroke-width="1" fill="none" fill-rule="evenodd" sketch:type="MSPage">
        <g id="playground-white-18" sketch:type="MSArtboardGroup" fill="#FFFFFF">
            <path d="M4.79573055,2 L7.76299458,7.08965775 L7.76299458,7.08965775 L8.58497909,6.51409801 L5.95326566,2 L4.79573055,2 L4.79573055,2 Z M12.6512451,12.5343628 L10.213501,14.2387695 L10.7539063,15 L13.171936,13.3265991 L12.6512451,12.5343628 Z M11.4331696,9.84285714 C11.5968304,9.72628571 11.7848661,9.63542857 11.9990179,9.63542857 L14.6889732,9.63885714 C15.2112946,9.63885714 15.634375,10.0571429 15.634375,10.5697143 C15.634375,11.0857143 15.2112946,11.5005714 14.6889732,11.5005714 L12.4429911,11.4971429 L9.5771875,13.4891429 C8.56736607,14.2057143 7.95450893,13.4188571 7.95450893,13.4188571 L5.70504464,11.2022857 C5.32897321,10.7565714 5.4090625,9.90971429 5.86174107,9.536 L8.97477679,7.352 C9.2846875,7.09828571 9.74433036,7.13771429 10.0054911,7.43942857 C10.2649107,7.74457143 10.223125,8.19885714 9.91321429,8.45428571 L7.92142857,9.88914286 L9.35258929,11.2828571 L11.4331696,9.84285714 Z M4.81535714,9.58914286 C5.5796875,9.58914286 6.19950893,8.97885714 6.19950893,8.22628571 C6.19950893,7.47542857 5.5796875,6.86685714 4.81535714,6.86685714 C4.05276786,6.86685714 3.4346875,7.47542857 3.4346875,8.22628571 C3.4346875,8.97885714 4.05276786,9.58914286 4.81535714,9.58914286 Z" id="symbol" sketch:type="MSShapeGroup"></path>
        </g>
    </g>
</svg>