<?xml version="1.0" encoding="utf-8"?>
<!-- Generator: Adobe Illustrator 21.1.0, SVG Export Plug-In . SVG Version: 6.00 Build 0)  -->
<svg version="1.1" id="Layer_1" xmlns="http://www.w3.org/2000/svg" xmlns:xlink="http://www.w3.org/1999/xlink" x="0px" y="0px"
	 width="12px" height="12px" viewBox="0 0 12 12" enable-background="new 0 0 12 12" xml:space="preserve">
<polygon fill="#FFFFFF" points="3,9 4,9 4,8 5,8 5,7 7,7 7,8 8,8 8,9 11,9 11,6 7,6 4.6,6.8 3,7.4 "/>
<polygon fill="#FFFFFF" points="11,3.6 11,4.2 9.7,4.2 8.4,6.1 8.4,5.5 9.7,3.6 "/>
<polygon fill="#FFFFFF" points="7,3 9,6 8,6 7,4 6,4 6,3 "/>
<polygon fill="#FFFFFF" points="2,1 4.6,2.3 3.9,2.9 2.6,2.3 2,2.3 "/>
<polygon fill="#FFFFFF" points="4.6,3.6 5,4 5,5 4,5 4,4 "/>
<rect x="5" y="8" fill="#FFFFFF" width="2" height="2"/>
</svg>
