<?xml version="1.0" encoding="utf-8"?>
<!-- Generator: Adobe Illustrator 21.1.0, SVG Export Plug-In . SVG Version: 6.00 Build 0)  -->
<svg version="1.1" id="Layer_1" xmlns="http://www.w3.org/2000/svg" xmlns:xlink="http://www.w3.org/1999/xlink" x="0px" y="0px"
	 width="24px" height="24px" viewBox="0 0 24 24" enable-background="new 0 0 24 24" xml:space="preserve">
<path fill="#FFFFFF" d="M4,3c1,0,4.2,1.5,5.4,3.6l-1.3,1c0,0-1.5-1.8-4.1-2.3V3.8L4,3z"/>
<path fill="#FFFFFF" d="M7.9,10.9c0,0.6,0.5,1,1.2,1c0.6,0,1.2-0.5,1.2-1c0-0.6-1.2-2.9-1.2-2.9S7.9,10.3,7.9,10.9z"/>
<polygon fill="#FFFFFF" points="7.1,17.3 7.1,14.2 7.9,13.4 13.3,12.7 21,12.7 21,17.3 15,17.3 15,16 14,16 14,15 13,15 13,14 
	10,14 10,15 9,15 9,16 8,16 8,17.3 "/>
<polygon fill="#FFFFFF" points="16.4,12.7 18.7,9 21,9 21,8 17.9,8 15.6,11.9 14.8,11.9 12.5,7.2 11,7.2 11,8 11.7,8 14,12.7 "/>
<path fill="#FFFFFF" d="M11.5,15C10.1,15,9,16.1,9,17.5s1.1,2.5,2.5,2.5s2.5-1.1,2.5-2.5S12.9,15,11.5,15z M11.5,19
	c-0.8,0-1.5-0.7-1.5-1.5s0.7-1.5,1.5-1.5s1.5,0.7,1.5,1.5S12.3,19,11.5,19z"/>
</svg>
