<?xml version="1.0" encoding="utf-8"?>
<!-- Generator: Adobe Illustrator 21.1.0, SVG Export Plug-In . SVG Version: 6.00 Build 0)  -->
<svg version="1.1" id="Layer_1" xmlns="http://www.w3.org/2000/svg" xmlns:xlink="http://www.w3.org/1999/xlink" x="0px" y="0px"
	 width="18px" height="18px" viewBox="0 0 18 18" enable-background="new 0 0 18 18" xml:space="preserve">
<polygon points="5,13 6,13 6,12 7,12 7,11 10,11 10,12 11,12 11,13 16,13 16,9.4 10.4,9.4 6.7,10.4 5.8,11.3 "/>
<polygon points="16,5.7 16,6.6 14.1,6.6 12.3,9.4 12.3,8.5 14.1,5.7 "/>
<polygon points="9.5,4.8 12.3,9.4 11.4,9.4 9.5,5.7 8.6,5.7 8.6,4.8 "/>
<polygon points="3,2 6.7,3.9 5.8,4.8 3.9,3.9 3,3.9 "/>
<polygon points="6.7,5.7 7.6,7.6 7.6,8.5 5.8,8.5 5.8,7.6 "/>
<circle cx="8.5" cy="13.5" r="1.5"/>
</svg>
