<?xml version="1.0" encoding="utf-8"?>
<!-- Generator: Adobe Illustrator 21.1.0, SVG Export Plug-In . SVG Version: 6.00 Build 0)  -->
<svg version="1.1" id="Layer_1" xmlns="http://www.w3.org/2000/svg" xmlns:xlink="http://www.w3.org/1999/xlink" x="0px" y="0px"
	 width="12px" height="12px" viewBox="0 0 12 12" enable-background="new 0 0 12 12" xml:space="preserve">
<path fill="#FFFFFF" d="M2,4.6L2.7,5l0.2,0.1L2.3,6c0,0.1-0.1,0.2-0.1,0.3c0,0.1,0,0.2,0.1,0.3c0,0,0.5,0.8,0.9,1.5
	c0-0.1,0.1-0.2,0.1-0.3l1.1-1.8L4.6,6l0.7,0.4L4.2,4.6L2,4.6z"/>
<path fill="#FFFFFF" d="M4.1,7.2C4,7.4,3.6,7.9,3.6,7.9C3.6,8.1,3.5,8.2,3.5,8.3s0,0.2,0.1,0.3C3.7,8.8,4,8.9,4.2,8.9
	c0,0,1.5,0,1.8,0c0-0.3,0-1.4,0-1.7C5.7,7.2,4.3,7.2,4.1,7.2z"/>
<path fill="#FFFFFF" d="M9.8,1.8L9.1,2.2L8.9,2.3L8.3,1.4c0-0.1-0.1-0.2-0.2-0.2C8.1,1.1,8,1.1,7.9,1.1c0,0-1,0-1.7,0
	c0.1,0.1,0.1,0.1,0.2,0.2l1.1,1.8L7.2,3.3L6.5,3.7h2.2L9.8,1.8z"/>
<path fill="#FFFFFF" d="M8.2,9.9V9.1V8.9l1.1,0c0.1,0,0.2,0,0.3-0.1c0.1,0,0.1-0.1,0.2-0.2c0,0,0.5-0.8,0.9-1.5c-0.1,0-0.2,0-0.3,0
	l-2.1,0V7l0-0.8L7.2,8L8.2,9.9z"/>
<path fill="#FFFFFF" d="M6.5,2.3C6.4,2.1,6,1.5,6,1.5C6,1.4,5.9,1.3,5.8,1.3C5.7,1.2,5.6,1.2,5.5,1.2C5.2,1.2,5,1.3,4.9,1.5
	c0,0-0.5,0.9-0.9,1.5l1,0v1c0.1,0.1,0.3,0.1,0.3,0.2C5.5,4,6.4,2.4,6.5,2.3z"/>
<path fill="#FFFFFF" d="M10.9,5.8c0,0-0.6-1.1-0.9-1.6V5H8.4c0.3,0.5,1,1.7,1,1.8c0.2,0,0.9,0,0.9,0c0.1,0,0.2,0,0.3-0.1
	c0.1-0.1,0.2-0.1,0.2-0.2C11,6.3,11,6,10.9,5.8z"/>
</svg>
