<?xml version="1.0" encoding="utf-8"?>
<!-- Generator: Adobe Illustrator 21.1.0, SVG Export Plug-In . SVG Version: 6.00 Build 0)  -->
<svg version="1.1" id="Layer_1" xmlns="http://www.w3.org/2000/svg" xmlns:xlink="http://www.w3.org/1999/xlink" x="0px" y="0px"
	 width="12px" height="12px" viewBox="0 0 12 12" enable-background="new 0 0 12 12" xml:space="preserve">
<rect x="6" y="1" fill="#FFFFFF" width="1" height="9"/>
<polygon fill="#FFFFFF" points="11,3 8,3 8,6.5 9,6.5 9,10 10,10 10,6.5 11,6.5 "/>
<polygon fill="#FFFFFF" points="4,3 3,3 2,8 3,8 3,10 4,10 4,8 5,8 "/>
<path fill="#FFFFFF" d="M3.7,2.6H3.3c-0.3,0-0.5-0.2-0.5-0.5V1.8c0-0.3,0.2-0.5,0.5-0.5h0.3c0.3,0,0.5,0.2,0.5,0.5v0.3
	C4.2,2.4,4,2.6,3.7,2.6z"/>
<path fill="#FFFFFF" d="M9.6,2.6H9.4C9,2.6,8.9,2.4,8.9,2.1V1.8c0-0.3,0.2-0.5,0.5-0.5h0.3c0.3,0,0.5,0.2,0.5,0.5v0.3
	C10.1,2.4,9.9,2.6,9.6,2.6z"/>
</svg>
