<?xml version="1.0" encoding="utf-8"?>
<!-- Generator: Adobe Illustrator 21.1.0, SVG Export Plug-In . SVG Version: 6.00 Build 0)  -->
<svg version="1.1" id="Layer_1" xmlns="http://www.w3.org/2000/svg" xmlns:xlink="http://www.w3.org/1999/xlink" x="0px" y="0px"
	 width="18px" height="18px" viewBox="0 0 18 18" enable-background="new 0 0 18 18" xml:space="preserve">
<rect x="9.5" y="2.4" width="0.9" height="12.1"/>
<polygon points="16,5.1 12.3,5.1 12.3,9.8 13.2,9.8 13.2,14.4 15.1,14.4 15.1,9.8 16,9.8 "/>
<polygon points="6.7,5.1 4.9,5.1 3,11.8 4.9,11.8 4.9,14.4 6.7,14.4 6.7,11.8 8.6,11.8 "/>
<path d="M6,4.2H5.6c-0.4,0-0.7-0.3-0.7-0.7V3.1c0-0.4,0.3-0.7,0.7-0.7H6c0.4,0,0.7,0.3,0.7,0.7v0.5C6.7,3.9,6.4,4.2,6,4.2z"/>
<path d="M14.4,4.2h-0.5c-0.4,0-0.7-0.3-0.7-0.7V3.1c0-0.4,0.3-0.7,0.7-0.7h0.5c0.4,0,0.7,0.3,0.7,0.7v0.5
	C15.1,3.9,14.8,4.2,14.4,4.2z"/>
</svg>
