<?xml version="1.0" encoding="utf-8"?>
<!-- Generator: Adobe Illustrator 21.1.0, SVG Export Plug-In . SVG Version: 6.00 Build 0)  -->
<svg version="1.1" id="Layer_1" xmlns="http://www.w3.org/2000/svg" xmlns:xlink="http://www.w3.org/1999/xlink" x="0px" y="0px"
	 width="24px" height="24px" viewBox="0 0 24 24" enable-background="new 0 0 24 24" xml:space="preserve">
<rect x="12.4" y="3.6" width="1.2" height="15.8"/>
<polygon points="21,7 16,7 16,13.3 17,13.3 17,19.3 20,19.3 20,13.3 21,13.3 "/>
<polygon points="9,7 6,7 4,15.8 6,15.8 6,19.3 9,19.3 9,15.8 11,15.8 "/>
<path d="M7.8,5.9H7.2C6.7,5.9,6.3,5.5,6.3,5V4.5c0-0.5,0.4-0.9,0.9-0.9h0.5c0.5,0,0.9,0.4,0.9,0.9v0.7C8.7,5.5,8.3,5.9,7.8,5.9z"/>
<path d="M18.8,5.9h-0.7c-0.5,0-0.9-0.4-0.9-0.9V4.5c0-0.5,0.4-0.9,0.9-0.9h0.7c0.5,0,0.9,0.4,0.9,0.9v0.7
	C19.7,5.5,19.3,5.9,18.8,5.9z"/>
</svg>
