<?xml version="1.0" encoding="utf-8"?>
<!-- Generator: Adobe Illustrator 21.1.0, SVG Export Plug-In . SVG Version: 6.00 Build 0)  -->
<svg version="1.1" id="Layer_1" xmlns="http://www.w3.org/2000/svg" xmlns:xlink="http://www.w3.org/1999/xlink" x="0px" y="0px"
	 width="24px" height="24px" viewBox="0 0 24 24" enable-background="new 0 0 24 24" xml:space="preserve">
<g>
	<path fill="#FFFFFF" d="M4,9h1.3c0.9,0,1.4,0.4,1.4,1.3c0,0.6-0.5,1.1-1.1,1.1v0c0.4,0,0.5,0.3,0.6,0.6l0.8,1.9H6.5l-0.7-1.7
		c-0.3-0.6-0.5-0.7-1-0.7H4.5v2.3H4V9z M4.5,11.2H5c0.6,0,1.2-0.2,1.2-0.9c0-0.8-0.6-0.8-1.2-0.8H4.5V11.2z"/>
</g>
<g>
	<path fill="#FFFFFF" d="M17.9,9h1.3c0.9,0,1.4,0.4,1.4,1.3c0,0.6-0.5,1.1-1.1,1.1v0c0.4,0,0.5,0.3,0.6,0.6l0.8,1.9h-0.5l-0.7-1.7
		c-0.3-0.6-0.5-0.7-1-0.7h-0.4v2.3h-0.5L17.9,9L17.9,9z M18.4,11.2h0.5c0.6,0,1.2-0.2,1.2-0.9c0-0.8-0.6-0.8-1.2-0.8h-0.5L18.4,11.2
		L18.4,11.2z"/>
</g>
<polygon fill="#FFFFFF" points="21,4.4 19.6,3 12.5,10.1 5.4,3 4,4.4 11.1,11.5 4,18.6 5.4,20 12.5,12.9 19.6,20 21,18.6 13.9,11.5 
	"/>
</svg>
