<?xml version="1.0" encoding="utf-8"?>
<!-- Generator: Adobe Illustrator 21.1.0, SVG Export Plug-In . SVG Version: 6.00 Build 0)  -->
<svg version="1.1" id="Layer_1" xmlns="http://www.w3.org/2000/svg" xmlns:xlink="http://www.w3.org/1999/xlink" x="0px" y="0px"
	 width="12px" height="12px" viewBox="0 0 12 12" enable-background="new 0 0 12 12" xml:space="preserve">
<g>
	<path fill="#FFFFFF" d="M2,4h0.7c0.5,0,0.8,0.2,0.8,0.7c0,0.4-0.3,0.6-0.6,0.6v0c0.2,0,0.3,0.1,0.4,0.3l0.5,1.1H3.5L3,5.8
		C2.9,5.5,2.8,5.5,2.5,5.5H2.3v1.3H2V4z M2.3,5.2h0.3c0.3,0,0.7-0.1,0.7-0.5c0-0.5-0.3-0.5-0.7-0.5H2.3V5.2z"/>
</g>
<g>
	<path fill="#FFFFFF" d="M9.2,4H10c0.5,0,0.8,0.2,0.8,0.7c0,0.4-0.3,0.6-0.6,0.6v0c0.2,0,0.3,0.1,0.4,0.3L11,6.8h-0.3l-0.4-0.9
		C10.1,5.5,10,5.5,9.7,5.5H9.5v1.3H9.2V4z M9.5,5.2h0.3c0.3,0,0.7-0.1,0.7-0.5c0-0.5-0.3-0.5-0.7-0.5H9.5V5.2z"/>
</g>
<polygon fill="#FFFFFF" points="11,1.7 10.3,1 6.5,4.8 2.7,1 2,1.7 5.8,5.5 2,9.3 2.7,10 6.5,6.2 10.3,10 11,9.3 7.2,5.5 "/>
</svg>
