<?xml version="1.0" encoding="utf-8"?>
<!-- Generator: Adobe Illustrator 18.1.1, SVG Export Plug-In . SVG Version: 6.00 Build 0)  -->
<svg version="1.1" id="Layer_1" xmlns="http://www.w3.org/2000/svg" xmlns:xlink="http://www.w3.org/1999/xlink" x="0px" y="0px"
	 viewBox="0 0 12 12" enable-background="new 0 0 12 12" xml:space="preserve">
<g opacity="0.2">
	<path d="M3,5h0.72c0.496,0,0.819,0.212,0.819,0.724c0,0.359-0.275,0.6-0.619,0.644v0.008c0.224,0.027,0.271,0.147,0.359,0.336
		L4.755,7.79H4.451L4.048,6.847c-0.16-0.36-0.28-0.372-0.544-0.372H3.276V7.79H3V5z M3.276,6.235h0.292
		c0.323,0,0.695-0.124,0.695-0.512c0-0.456-0.324-0.484-0.704-0.484H3.276V6.235z"/>
</g>
<g opacity="0.2">
	<path d="M10.245,5h0.72c0.496,0,0.819,0.212,0.819,0.724c0,0.359-0.275,0.6-0.619,0.644v0.008c0.224,0.027,0.271,0.147,0.359,0.336
		L12,7.79h-0.304l-0.403-0.943c-0.16-0.36-0.28-0.372-0.544-0.372h-0.228V7.79h-0.276V5z M10.521,6.235h0.292
		c0.323,0,0.695-0.124,0.695-0.512c0-0.456-0.324-0.484-0.704-0.484h-0.283V6.235z"/>
</g>
<polygon opacity="0.2" points="12,2.707 11.293,2 7.5,5.793 3.707,2 3,2.707 6.793,6.5 3,10.293 3.707,11 7.5,7.207 11.293,11 
	12,10.293 8.207,6.5 "/>
<g>
	<path d="M2,4h0.72c0.496,0,0.819,0.212,0.819,0.724c0,0.359-0.275,0.6-0.619,0.644v0.008c0.224,0.027,0.271,0.147,0.359,0.336
		L3.755,6.79H3.451L3.048,5.847c-0.16-0.36-0.28-0.372-0.544-0.372H2.276V6.79H2V4z M2.276,5.235h0.292
		c0.323,0,0.695-0.124,0.695-0.512c0-0.456-0.324-0.484-0.704-0.484H2.276V5.235z"/>
</g>
<g>
	<path d="M9.245,4h0.72c0.496,0,0.819,0.212,0.819,0.724c0,0.359-0.275,0.6-0.619,0.644v0.008c0.224,0.027,0.271,0.147,0.359,0.336
		L11,6.79h-0.304l-0.403-0.943c-0.16-0.36-0.28-0.372-0.544-0.372H9.521V6.79H9.245V4z M9.521,5.235h0.292
		c0.323,0,0.695-0.124,0.695-0.512c0-0.456-0.324-0.484-0.704-0.484H9.521V5.235z"/>
</g>
<polygon points="11,1.707 10.293,1 6.5,4.793 2.707,1 2,1.707 5.793,5.5 2,9.293 2.707,10 6.5,6.207 10.293,10 11,9.293 7.207,5.5 
	"/>
</svg>
