<?xml version="1.0" encoding="utf-8"?>
<!-- Generator: Adobe Illustrator 18.1.1, SVG Export Plug-In . SVG Version: 6.00 Build 0)  -->
<svg version="1.1" id="Layer_1" xmlns="http://www.w3.org/2000/svg" xmlns:xlink="http://www.w3.org/1999/xlink" x="0px" y="0px"
	 viewBox="0 0 24 24" enable-background="new 0 0 24 24" xml:space="preserve">
<g opacity="0.2">
	<path d="M5,10h1.261c0.868,0,1.436,0.371,1.436,1.268c0,0.631-0.483,1.051-1.085,1.128v0.014c0.392,0.049,0.476,0.26,0.63,0.589
		l0.834,1.891H7.543l-0.708-1.653c-0.28-0.63-0.49-0.651-0.952-0.651H5.483v2.305H5V10z M5.483,12.164h0.512
		c0.566,0,1.218-0.217,1.218-0.896c0-0.798-0.566-0.848-1.232-0.848H5.483V12.164z"/>
</g>
<g opacity="0.2">
	<path d="M18.925,10h1.261c0.868,0,1.436,0.371,1.436,1.268c0,0.631-0.483,1.051-1.085,1.128v0.014
		c0.392,0.049,0.476,0.26,0.63,0.589L22,14.889h-0.532l-0.708-1.653c-0.28-0.63-0.49-0.651-0.952-0.651h-0.399v2.305h-0.483V10z
		 M19.408,12.164h0.512c0.566,0,1.218-0.217,1.218-0.896c0-0.798-0.566-0.848-1.232-0.848h-0.497V12.164z"/>
</g>
<polygon opacity="0.2" points="22,5.414 20.586,4 13.5,11.086 6.414,4 5,5.414 12.086,12.5 5,19.586 6.414,21 13.5,13.914 
	20.586,21 22,19.586 14.914,12.5 "/>
<g>
	<path d="M4,9h1.261c0.868,0,1.436,0.371,1.436,1.268c0,0.631-0.483,1.051-1.085,1.128v0.014c0.392,0.049,0.476,0.26,0.63,0.589
		l0.834,1.891H6.543l-0.708-1.653c-0.28-0.63-0.49-0.651-0.952-0.651H4.483v2.305H4V9z M4.483,11.164h0.512
		c0.566,0,1.218-0.217,1.218-0.896c0-0.798-0.566-0.848-1.232-0.848H4.483V11.164z"/>
</g>
<g>
	<path d="M17.925,9h1.261c0.868,0,1.436,0.371,1.436,1.268c0,0.631-0.483,1.051-1.085,1.128v0.014
		c0.392,0.049,0.476,0.26,0.63,0.589L21,13.889h-0.532l-0.708-1.653c-0.28-0.63-0.49-0.651-0.952-0.651h-0.399v2.305h-0.483V9z
		 M18.408,11.164h0.512c0.566,0,1.218-0.217,1.218-0.896c0-0.798-0.566-0.848-1.232-0.848h-0.497V11.164z"/>
</g>
<polygon points="21,4.414 19.586,3 12.5,10.086 5.414,3 4,4.414 11.086,11.5 4,18.586 5.414,20 12.5,12.914 19.586,20 21,18.586 
	13.914,11.5 "/>
</svg>
