<?xml version="1.0" encoding="utf-8"?>
<!-- Generator: Adobe Illustrator 21.1.0, SVG Export Plug-In . SVG Version: 6.00 Build 0)  -->
<svg version="1.1" id="Layer_1" xmlns="http://www.w3.org/2000/svg" xmlns:xlink="http://www.w3.org/1999/xlink" x="0px" y="0px"
	 width="18px" height="18px" viewBox="0 0 18 18" enable-background="new 0 0 18 18" xml:space="preserve">
<g>
	<path d="M3,6h1.1c0.7,0,1.2,0.3,1.2,1.1c0,0.5-0.4,0.9-0.9,1v0c0.3,0,0.4,0.2,0.5,0.5l0.7,1.6H5.2L4.6,8.8C4.3,8.2,4.2,8.2,3.8,8.2
		H3.4v2H3V6z M3.4,7.9h0.4c0.5,0,1-0.2,1-0.8c0-0.7-0.5-0.7-1.1-0.7H3.4V7.9z"/>
</g>
<g>
	<path d="M13.4,6h1.1c0.7,0,1.2,0.3,1.2,1.1c0,0.5-0.4,0.9-0.9,1v0c0.3,0,0.4,0.2,0.5,0.5l0.7,1.6h-0.5l-0.6-1.4
		c-0.2-0.5-0.4-0.6-0.8-0.6h-0.3v2h-0.4L13.4,6L13.4,6z M13.8,7.9h0.4c0.5,0,1-0.2,1-0.8c0-0.7-0.5-0.7-1.1-0.7h-0.4V7.9z"/>
</g>
<polygon points="16,2.7 15.3,2 9.5,7.8 3.7,2 3,2.7 8.8,8.5 3,14.3 3.7,15 9.5,9.2 15.3,15 16,14.3 10.2,8.5 "/>
</svg>
