<?xml version="1.0" encoding="utf-8"?>
<!-- Generator: Adobe Illustrator 18.1.1, SVG Export Plug-In . SVG Version: 6.00 Build 0)  -->
<svg version="1.1" id="Layer_1" xmlns="http://www.w3.org/2000/svg" xmlns:xlink="http://www.w3.org/1999/xlink" x="0px" y="0px"
	 viewBox="0 0 18 18" enable-background="new 0 0 18 18" xml:space="preserve">
<g opacity="0.2">
	<path d="M4,7h1.08C5.823,7,6.31,7.317,6.31,8.085c0,0.54-0.414,0.899-0.93,0.966v0.012c0.336,0.042,0.407,0.222,0.539,0.504
		l0.714,1.619H6.177L5.571,9.771c-0.239-0.54-0.42-0.558-0.815-0.558H4.414v1.973H4V7z M4.414,8.853h0.438
		c0.486,0,1.044-0.186,1.044-0.768c0-0.684-0.486-0.726-1.056-0.726H4.414V8.853z"/>
</g>
<g opacity="0.2">
	<path d="M14.367,7h1.08c0.743,0,1.229,0.317,1.229,1.085c0,0.54-0.414,0.899-0.93,0.966v0.012c0.336,0.042,0.407,0.222,0.539,0.504
		L17,11.186h-0.456l-0.605-1.415c-0.239-0.54-0.42-0.558-0.815-0.558h-0.342v1.973h-0.414V7z M14.781,8.853h0.438
		c0.486,0,1.044-0.186,1.044-0.768c0-0.684-0.486-0.726-1.056-0.726h-0.426V8.853z"/>
</g>
<polygon opacity="0.2" points="17,3.707 16.293,3 10.5,8.793 4.707,3 4,3.707 9.793,9.5 4,15.293 4.707,16 10.5,10.207 16.293,16 
	17,15.293 11.207,9.5 "/>
<g>
	<path d="M3,6h1.08C4.823,6,5.31,6.317,5.31,7.085c0,0.54-0.414,0.899-0.93,0.966v0.012c0.336,0.042,0.407,0.222,0.539,0.504
		l0.714,1.619H5.177L4.571,8.771c-0.239-0.54-0.42-0.558-0.815-0.558H3.414v1.973H3V6z M3.414,7.853h0.438
		c0.486,0,1.044-0.186,1.044-0.768c0-0.684-0.486-0.726-1.056-0.726H3.414V7.853z"/>
</g>
<g>
	<path d="M13.367,6h1.08c0.743,0,1.229,0.317,1.229,1.085c0,0.54-0.414,0.899-0.93,0.966v0.012c0.336,0.042,0.407,0.222,0.539,0.504
		L16,10.186h-0.456l-0.605-1.415c-0.239-0.54-0.42-0.558-0.815-0.558h-0.342v1.973h-0.414V6z M13.781,7.853h0.438
		c0.486,0,1.044-0.186,1.044-0.768c0-0.684-0.486-0.726-1.056-0.726h-0.426V7.853z"/>
</g>
<polygon points="16,2.707 15.293,2 9.5,7.793 3.707,2 3,2.707 8.793,8.5 3,14.293 3.707,15 9.5,9.207 15.293,15 16,14.293 
	10.207,8.5 "/>
</svg>
