<?xml version="1.0" encoding="utf-8"?>
<!-- Generator: Adobe Illustrator 21.1.0, SVG Export Plug-In . SVG Version: 6.00 Build 0)  -->
<svg version="1.1" id="Layer_1" xmlns="http://www.w3.org/2000/svg" xmlns:xlink="http://www.w3.org/1999/xlink" x="0px" y="0px"
	 width="12px" height="12px" viewBox="0 0 12 12" enable-background="new 0 0 12 12" xml:space="preserve">
<path d="M2,3.2L3,2h5.4v1H7L6,4v1H2V3.2z M5.2,3.7C5.2,3.5,5.2,3,5,3H3C2.8,3,2.7,3.5,2.7,3.7L3,4h2L5.2,3.7z"/>
<path d="M7,4h2l2,2.5V8H2V6h5V4z M8,6h1l0.1-0.8L9,5H8V6z"/>
<rect x="3" y="7" width="2" height="2"/>
<rect x="8" y="7" width="2" height="2"/>
</svg>
