<?xml version="1.0" encoding="utf-8"?>
<!-- Generator: Adobe Illustrator 21.1.0, SVG Export Plug-In . SVG Version: 6.00 Build 0)  -->
<svg version="1.1" id="Layer_1" xmlns="http://www.w3.org/2000/svg" xmlns:xlink="http://www.w3.org/1999/xlink" x="0px" y="0px"
	 width="18px" height="18px" viewBox="0 0 18 18" enable-background="new 0 0 18 18" xml:space="preserve">
<rect x="6" y="11" fill="#FFFFFF" width="2" height="2"/>
<rect x="12" y="11" fill="#FFFFFF" width="2" height="2"/>
<path fill="#FFFFFF" d="M3,5.2L4,4h8.3v1.2h-1.9l-0.9,1V8H3V5.2z M7.6,7.1V5.9c0-0.3-0.3-0.6-0.6-0.6H4.6C4.3,5.3,4,5.6,4,5.9v1.2
	C4,7.1,7.6,7.1,7.6,7.1z"/>
<path fill="#FFFFFF" d="M10.4,6.2h2.8L16,9.9V12h-1v-1h-1v-1h-2v1h-1v1H9v-1H8v-1H6v1H5v1H3V9h7.4V6.2z M11.4,9h1.9V8l-0.9-0.9h-0.9
	V9H11.4z"/>
</svg>
