<?xml version="1.0" encoding="utf-8"?>
<!-- Generator: Adobe Illustrator 21.1.0, SVG Export Plug-In . SVG Version: 6.00 Build 0)  -->
<svg version="1.1" id="Layer_1" xmlns="http://www.w3.org/2000/svg" xmlns:xlink="http://www.w3.org/1999/xlink" x="0px" y="0px"
	 width="24px" height="24px" viewBox="0 0 24 24" enable-background="new 0 0 24 24" xml:space="preserve">
<polygon points="19.1,18.5 17.5,17.7 16.8,17.7 15.2,18.5 14.4,18.5 12.9,17.7 12.1,17.7 10.6,18.5 9.8,18.5 8.2,17.7 7.5,17.7 
	5.9,18.5 5.9,20 7.5,19.2 8.2,19.2 9.8,20 10.6,20 12.1,19.2 12.9,19.2 14.4,20 15.2,20 16.8,19.2 17.5,19.2 19.1,20 19.8,20 
	19.8,18.5 "/>
<path d="M15,5.3c0,0,4.8,3.3,4.8,7.7c0,0.3,0,0.8,0,0.8H15V5.3z"/>
<polygon points="13.7,3 14,13.8 5.2,13.8 "/>
<polygon points="8.2,16.1 9.8,16.9 10.6,16.9 12.1,16.1 12.9,16.1 14.4,16.9 15.2,16.9 16.8,16.1 17.3,16.1 19.1,15 6.7,15 
	6.7,16.5 7.5,16.1 "/>
</svg>
