<?xml version="1.0" encoding="utf-8"?>
<!-- Generator: Adobe Illustrator 21.1.0, SVG Export Plug-In . SVG Version: 6.00 Build 0)  -->
<svg version="1.1" id="Layer_1" xmlns="http://www.w3.org/2000/svg" xmlns:xlink="http://www.w3.org/1999/xlink" x="0px" y="0px"
	 width="18px" height="18px" viewBox="0 0 18 18" enable-background="new 0 0 18 18" xml:space="preserve">
<path d="M11,3.9c0,0,4.1,2.2,4.1,4.6c0,0.6,0,0.5,0,0.5H11V3.9z"/>
<polygon points="10,2 10,9 3.9,9 "/>
<polygon points="5,10 15.1,10 14,12 5,12 "/>
<polygon points="14.1,14.1 12.3,13.1 11.4,13.1 9.5,14.1 8.6,14.1 6.7,13.1 5.8,13.1 3.9,14.1 3.9,15 5.8,14.1 6.7,14.1 8.6,15 
	9.5,15 11.4,14.1 12.3,14.1 14.1,15 15.1,15 15.1,14.1 "/>
</svg>
