<?xml version="1.0" encoding="utf-8"?>
<!-- Generator: Adobe Illustrator 21.1.0, SVG Export Plug-In . SVG Version: 6.00 Build 0)  -->
<svg version="1.1" id="Layer_1" xmlns="http://www.w3.org/2000/svg" xmlns:xlink="http://www.w3.org/1999/xlink" x="0px" y="0px"
	 width="12px" height="12px" viewBox="0 0 12 12" enable-background="new 0 0 12 12" xml:space="preserve">
<path d="M8,2.3c0,0,2.4,1.6,2.4,3.2c0,0.4,0,0.5,0,0.5H8V2.3z"/>
<polygon points="7,1 7,6 2.6,6 "/>
<polygon points="3,7 10.4,7 9,8 3,8 "/>
<polygon points="9.7,9.4 8.4,8.7 7.8,8.7 6.5,9.4 5.9,9.4 4.6,8.7 3.9,8.7 2.6,9.4 2.6,10 3.9,9.4 4.6,9.4 5.9,10 6.5,10 7.8,9.4 
	8.4,9.4 9.7,10 10.4,10 10.4,9.4 "/>
</svg>
