<?xml version="1.0" encoding="utf-8"?>
<!-- Generator: Adobe Illustrator 21.1.0, SVG Export Plug-In . SVG Version: 6.00 Build 0)  -->
<svg version="1.1" id="Layer_1" xmlns="http://www.w3.org/2000/svg" xmlns:xlink="http://www.w3.org/1999/xlink" x="0px" y="0px"
	 width="24px" height="24px" viewBox="0 0 24 24" enable-background="new 0 0 24 24" xml:space="preserve">
<path fill="#FFFFFF" d="M20,11V5l-1-1H7L6,5v6l1.1,1H11v-2l1-1h2l1,1v2h6v-1H20z M12.5,7.3H8.6L7.9,6.5l0.8-0.8h3.9l0.8,0.8
	L12.5,7.3z M17.1,7.3h-1.5l-0.8-0.8l0.8-0.8h1.5l0.8,0.8L17.1,7.3z"/>
<polygon fill="#FFFFFF" points="10,13 20,13 21,14 21,18 20,19 5,19 4,18 4,14.2 5,13 7,13 7,14 6,14 5,15 5,17.3 5.8,18 12,18 
	13,17 13,15 12,14 10,14 "/>
<polygon fill="#FFFFFF" points="8,13 9,13 9,15.8 10,15.8 8.5,17.3 7.1,15.8 8,15.8 "/>
<circle fill="#FFFFFF" cx="13" cy="11.5" r="1.5"/>
</svg>
