<?xml version="1.0" encoding="utf-8"?>
<!-- Generator: Adobe Illustrator 21.1.0, SVG Export Plug-In . SVG Version: 6.00 Build 0)  -->
<svg version="1.1" id="Layer_1" xmlns="http://www.w3.org/2000/svg" xmlns:xlink="http://www.w3.org/1999/xlink" x="0px" y="0px"
	 width="12px" height="12px" viewBox="0 0 12 12" enable-background="new 0 0 12 12" xml:space="preserve">
<path d="M10,4V2L9,1H4L3,2v2l1,1l2,0V4h1v1h4V4H10z M6,3H5V2h1V3z M8,3H7V2h1V3z"/>
<polygon points="6,6 11,6 11,10 2,10 2,6 4,6 4,7 3,7 3,9 7,9 7,7 6,7 "/>
<rect x="6.2" y="5.2" width="0.6" height="0.6"/>
<rect x="4.6" y="6.1" width="0.6" height="2.2"/>
<rect x="4.3" y="7.4" width="1.3" height="0.6"/>
</svg>
