<?xml version="1.0" encoding="utf-8"?>
<!-- Generator: Adobe Illustrator 21.1.0, SVG Export Plug-In . SVG Version: 6.00 Build 0)  -->
<svg version="1.1" id="Layer_1" xmlns="http://www.w3.org/2000/svg" xmlns:xlink="http://www.w3.org/1999/xlink" x="0px" y="0px"
	 width="18px" height="18px" viewBox="0 0 18 18" enable-background="new 0 0 18 18" xml:space="preserve">
<path d="M15,7V4l-1-1H6L5,4v3l1,1h3V7h2v1h5V7H15z M9,5H7V4h2V5z M13,5h-2V4h2V5z"/>
<polygon points="9,9 16,9 16,14 3,14 3,9 6,9 6,10 4,10 4,13 11,13 11,10 9,10 "/>
<rect x="9.5" y="7.5" width="1" height="1"/>
<rect x="7" y="9" width="1" height="3.5"/>
<rect x="6" y="11" width="3" height="1"/>
</svg>
