<?xml version="1.0" encoding="UTF-8" standalone="no"?>
<svg width="12px" height="12px" viewBox="0 0 12 12" version="1.1" xmlns="http://www.w3.org/2000/svg" xmlns:xlink="http://www.w3.org/1999/xlink" xmlns:sketch="http://www.bohemiancoding.com/sketch/ns">
    <!-- Generator: Sketch 3.3.3 (12072) - http://www.bohemiancoding.com/sketch -->
    <title>scenic-viewpoint-black-12</title>
    <desc>Created with Sketch.</desc>
    <defs></defs>
    <g id="scenic-viewpoint" stroke="none" stroke-width="1" fill="none" fill-rule="evenodd" sketch:type="MSPage">
        <g id="scenic-viewpoint-black-12" sketch:type="MSArtboardGroup" fill="#1A1918">
            <g id="viewpoint-copy" sketch:type="MSLayerGroup" transform="translate(3.000000, 1.000000)">
                <path d="M1.93148958,4.51017931 C1.93148958,5.00772414 1.5456875,5.41191724 1.06983333,5.41191724 C0.594927083,5.41191724 0.209125,5.00772414 0.209125,4.51017931 C0.209125,4.01164138 0.594927083,3.60744828 1.06983333,3.60744828 C1.5456875,3.60744828 1.93148958,4.01164138 1.93148958,4.51017931" id="Fill-3" sketch:type="MSShapeGroup"></path>
                <path d="M2.49455208,4.23707586 L2.49455208,4.78228966 L6.8635,5.12093793 L6.8635,3.89842759 L2.49455208,4.23707586" id="Fill-4" sketch:type="MSShapeGroup"></path>
                <path d="M1.55895833,3.08110345 L2.00827083,3.3552 L3.79130208,0.800937931 L2.78271875,0.19017931 L1.55895833,3.08110345" id="Fill-5" sketch:type="MSShapeGroup"></path>
                <path d="M2.43483333,4.00171034 L5.67102083,2.43062069 L5.08710417,1.37197241 L2.17510417,3.5289931 L2.43483333,4.00171034 Z" id="Fill-6" sketch:type="MSShapeGroup"></path>
                <path d="M1.55895833,5.93726897 L2.00827083,5.66416552 L3.79130208,8.21842759 L2.78271875,8.82918621 L1.55895833,5.93726897" id="Fill-7" sketch:type="MSShapeGroup"></path>
                <path d="M2.17510417,5.49037241 L2.43483333,5.01765517 L5.67102083,6.58874483 L5.08710417,7.6473931 L2.17510417,5.49037241" id="Fill-8" sketch:type="MSShapeGroup"></path>
            </g>
            <g id="viewpoint" sketch:type="MSLayerGroup" transform="translate(3.000000, 1.000000)">
                <path d="M1.93148958,4.51017931 C1.93148958,5.00772414 1.5456875,5.41191724 1.06983333,5.41191724 C0.594927083,5.41191724 0.209125,5.00772414 0.209125,4.51017931 C0.209125,4.01164138 0.594927083,3.60744828 1.06983333,3.60744828 C1.5456875,3.60744828 1.93148958,4.01164138 1.93148958,4.51017931" id="Fill-3" sketch:type="MSShapeGroup"></path>
                <path d="M2.49455208,4.23707586 L2.49455208,4.78228966 L6.8635,5.12093793 L6.8635,3.89842759 L2.49455208,4.23707586" id="Fill-4" sketch:type="MSShapeGroup"></path>
                <path d="M1.55895833,3.08110345 L2.00827083,3.3552 L3.79130208,0.800937931 L2.78271875,0.19017931 L1.55895833,3.08110345" id="Fill-5" sketch:type="MSShapeGroup"></path>
                <path d="M2.43483333,4.00171034 L5.67102083,2.43062069 L5.08710417,1.37197241 L2.17510417,3.5289931 L2.43483333,4.00171034 Z" id="Fill-6" sketch:type="MSShapeGroup"></path>
                <path d="M1.55895833,5.93726897 L2.00827083,5.66416552 L3.79130208,8.21842759 L2.78271875,8.82918621 L1.55895833,5.93726897" id="Fill-7" sketch:type="MSShapeGroup"></path>
                <path d="M2.17510417,5.49037241 L2.43483333,5.01765517 L5.67102083,6.58874483 L5.08710417,7.6473931 L2.17510417,5.49037241" id="Fill-8" sketch:type="MSShapeGroup"></path>
            </g>
        </g>
    </g>
</svg>