<?xml version="1.0" encoding="UTF-8" standalone="no"?>
<svg width="18px" height="18px" viewBox="0 0 18 18" version="1.1" xmlns="http://www.w3.org/2000/svg" xmlns:xlink="http://www.w3.org/1999/xlink" xmlns:sketch="http://www.bohemiancoding.com/sketch/ns">
    <!-- Generator: Sketch 3.3.3 (12072) - http://www.bohemiancoding.com/sketch -->
    <title>scenic-viewpoint-white-18</title>
    <desc>Created with Sketch.</desc>
    <defs></defs>
    <g id="scenic-viewpoint" stroke="none" stroke-width="1" fill="none" fill-rule="evenodd" sketch:type="MSPage">
        <g id="scenic-viewpoint-white-18" sketch:type="MSArtboardGroup" fill="#FFFFFF">
            <g id="viewpoint" sketch:type="MSLayerGroup" transform="translate(4.000000, 2.000000)">
                <path d="M2.75927083,6.51470345 C2.75927083,7.23337931 2.208125,7.81721379 1.52833333,7.81721379 C0.849895833,7.81721379 0.29875,7.23337931 0.29875,6.51470345 C0.29875,5.7945931 0.849895833,5.21075862 1.52833333,5.21075862 C2.208125,5.21075862 2.75927083,5.7945931 2.75927083,6.51470345" id="Fill-3" sketch:type="MSShapeGroup"></path>
                <path d="M3.56364583,6.12022069 L3.56364583,6.90775172 L9.805,7.39691034 L9.805,5.63106207 L3.56364583,6.12022069" id="Fill-4" sketch:type="MSShapeGroup"></path>
                <path d="M2.22708333,4.45048276 L2.86895833,4.8464 L5.41614583,1.15691034 L3.9753125,0.274703448 L2.22708333,4.45048276" id="Fill-5" sketch:type="MSShapeGroup"></path>
                <path d="M3.47833333,5.78024828 L8.10145833,3.51089655 L7.26729167,1.98173793 L3.10729167,5.09743448 L3.47833333,5.78024828 Z" id="Fill-6" sketch:type="MSShapeGroup"></path>
                <path d="M2.22708333,8.57605517 L2.86895833,8.18157241 L5.41614583,11.8710621 L3.9753125,12.753269 L2.22708333,8.57605517" id="Fill-7" sketch:type="MSShapeGroup"></path>
                <path d="M3.10729167,7.93053793 L3.47833333,7.24772414 L8.10145833,9.51707586 L7.26729167,11.0462345 L3.10729167,7.93053793" id="Fill-8" sketch:type="MSShapeGroup"></path>
            </g>
        </g>
    </g>
</svg>