<?xml version="1.0" encoding="UTF-8" standalone="no"?>
<svg width="24px" height="24px" viewBox="0 0 24 24" version="1.1" xmlns="http://www.w3.org/2000/svg" xmlns:xlink="http://www.w3.org/1999/xlink" xmlns:sketch="http://www.bohemiancoding.com/sketch/ns">
    <!-- Generator: Sketch 3.3.3 (12072) - http://www.bohemiancoding.com/sketch -->
    <title>scenic-viewpoint-black-24</title>
    <desc>Created with Sketch.</desc>
    <defs></defs>
    <g id="scenic-viewpoint" stroke="none" stroke-width="1" fill="none" fill-rule="evenodd" sketch:type="MSPage">
        <g id="scenic-viewpoint-black-24" sketch:type="MSArtboardGroup" fill="#1A1918">
            <g id="viewpoint" sketch:type="MSLayerGroup" transform="translate(6.000000, 3.000000)">
                <path d="M3.58705208,8.51922759 C3.58705208,9.45903448 2.8705625,10.2225103 1.98683333,10.2225103 C1.10486458,10.2225103 0.388375,9.45903448 0.388375,8.51922759 C0.388375,7.57754483 1.10486458,6.81406897 1.98683333,6.81406897 C2.8705625,6.81406897 3.58705208,7.57754483 3.58705208,8.51922759" id="Fill-3" sketch:type="MSShapeGroup"></path>
                <path d="M4.63273958,8.00336552 L4.63273958,9.03321379 L12.7465,9.67288276 L12.7465,7.36369655 L4.63273958,8.00336552" id="Fill-4" sketch:type="MSShapeGroup"></path>
                <path d="M2.89520833,5.81986207 L3.72964583,6.3376 L7.04098958,1.51288276 L5.16790625,0.359227586 L2.89520833,5.81986207" id="Fill-5" sketch:type="MSShapeGroup"></path>
                <path d="M4.52183333,7.55878621 L10.5318958,4.59117241 L9.44747917,2.59150345 L4.03947917,6.66587586 L4.52183333,7.55878621 Z" id="Fill-6" sketch:type="MSShapeGroup"></path>
                <path d="M2.89520833,11.2148414 L3.72964583,10.6989793 L7.04098958,15.5236966 L5.16790625,16.6773517 L2.89520833,11.2148414" id="Fill-7" sketch:type="MSShapeGroup"></path>
                <path d="M4.03947917,10.3707034 L4.52183333,9.4777931 L10.5318958,12.4454069 L9.44747917,14.4450759 L4.03947917,10.3707034" id="Fill-8" sketch:type="MSShapeGroup"></path>
            </g>
        </g>
    </g>
</svg>