<?xml version="1.0" encoding="utf-8"?>
<!-- Generator: Adobe Illustrator 21.1.0, SVG Export Plug-In . SVG Version: 6.00 Build 0)  -->
<svg version="1.1" id="Layer_1" xmlns:sketch="http://www.bohemiancoding.com/sketch/ns"
	 xmlns="http://www.w3.org/2000/svg" xmlns:xlink="http://www.w3.org/1999/xlink" x="0px" y="0px" width="12px" height="12px"
	 viewBox="0 0 12 12" enable-background="new 0 0 12 12" xml:space="preserve">
<path fill="#FFFFFF" d="M6,6l4,0.1V4.9L6,5c0,0.1,0,0.4,0,0.5C6,5.6,6,5.9,6,6z"/>
<path fill="#FFFFFF" d="M6.8,1.6L5.7,1L4.6,3.6C4.8,3.7,5,3.8,5.2,3.9L6.8,1.6z"/>
<path fill="#FFFFFF" d="M8.7,3.3L8.1,2.2L5.5,4.2c0.1,0.2,0.3,0.4,0.4,0.6L8.7,3.3z"/>
<path fill="#FFFFFF" d="M5.7,10l1.1-0.6L5.2,7.1C5,7.2,4.8,7.3,4.6,7.4L5.7,10z"/>
<path fill="#FFFFFF" d="M8.1,8.8l0.6-1.1L5.8,6.3C5.8,6.5,5.6,6.7,5.5,6.8L8.1,8.8z"/>
<rect x="3" y="5" fill="#FFFFFF" width="2" height="1"/>
</svg>
