<?xml version="1.0" encoding="utf-8"?>
<!-- Generator: Adobe Illustrator 21.1.0, SVG Export Plug-In . SVG Version: 6.00 Build 0)  -->
<svg version="1.1" id="Layer_1" xmlns="http://www.w3.org/2000/svg" xmlns:xlink="http://www.w3.org/1999/xlink" x="0px" y="0px"
	 width="18px" height="18px" viewBox="0 0 18 18" enable-background="new 0 0 18 18" xml:space="preserve">
<polygon points="5.4,5 6,5 6,4.4 6.1,4.4 5.4,3.2 3,3.2 4.7,5 5.1,5.5 5.4,5.5 "/>
<polygon points="12.4,9.6 9,9 6.5,5 6,5 6,5.5 5.4,5.5 5.4,5.8 8.3,10.2 11.8,10.9 14.8,13.8 15.3,13.2 15.3,12.6 "/>
<polygon points="10.2,6.2 13.1,7.4 12.7,8.6 9.7,7.4 "/>
<path d="M14.6,9.9l0.5,0.5l0.9-1l-0.8-0.4c0.1-0.5-0.2-1-0.8-1.1c-0.5-0.2-1.1,0.2-1.3,0.8C13,9.3,13.3,9.9,13.9,10
	C14.1,10.1,14.4,10,14.6,9.9"/>
</svg>
