<?xml version="1.0" encoding="utf-8"?>
<!-- Generator: Adobe Illustrator 21.1.0, SVG Export Plug-In . SVG Version: 6.00 Build 0)  -->
<svg version="1.1" id="Layer_1" xmlns="http://www.w3.org/2000/svg" xmlns:xlink="http://www.w3.org/1999/xlink" x="0px" y="0px"
	 width="24px" height="24px" viewBox="0 0 24 24" enable-background="new 0 0 24 24" xml:space="preserve">
<path d="M19.6,19.9c-0.3,0-0.7-0.4-1-0.5c-0.3-0.1-0.6-0.2-1-0.2s-0.7,0.1-1,0.2c-0.3,0.1-0.6,0.5-1,0.5c-0.3,0-0.7-0.4-1-0.5
	c-0.3-0.1-0.6-0.2-1-0.2c-0.4,0-0.7,0.1-1,0.2c-0.3,0.1-0.6,0.5-1,0.5c-0.3,0-0.7-0.4-1-0.5c-0.3-0.1-0.6-0.2-1-0.2
	c-0.4,0-0.7,0.1-1,0.2c-0.3,0.1-0.6,0.5-1,0.5s-0.7-0.4-1-0.5c-0.3-0.1-0.6-0.2-1-0.2c-0.4,0-0.7,0.1-1,0.2c-0.3,0.1-0.6,0.5-1,0.5
	v-1.4c0.3,0,0.7-0.4,1-0.5c0.3-0.1,0.6-0.2,1-0.2c0.3,0,0.7,0.1,1,0.2c0.3,0.1,0.6,0.5,1,0.5c0.3,0,0.7-0.4,1-0.5
	c0.3-0.1,0.6-0.2,1-0.2s0.7,0.1,1,0.2c0.3,0.1,0.6,0.5,1,0.5c0.3,0,0.7-0.4,1-0.5c0.3-0.1,0.6-0.2,1-0.2c0.3,0,0.7,0.1,1,0.2
	c0.3,0.1,0.6,0.5,1,0.5c0.3,0,0.7-0.4,1-0.5c0.3-0.1,0.6-0.2,1-0.2c0.4,0,0.7,0.1,1,0.2c0.3,0.1,0.6,0.5,1,0.5L19.6,19.9L19.6,19.9z
	"/>
<path d="M20.7,10.3l-2.5,0.8l-1.1-1.3c0.4-0.2,1.2-0.7,1.6-1c0.2-0.1,0.3-0.4,0.3-0.6l0.5-2.1l0.8,2.1c0.1,0.2,0.4,0.1,0.4-0.1
	L19.9,6l0.2-0.1c0.4-0.2,0.2-0.8-0.2-0.6l-0.2,0.1l-0.8-2.1c-0.1-0.2-0.4-0.1-0.4,0.1l0.8,2.1l-0.1,0l0,0C18.8,5.6,17,6.1,16.6,6
	c-0.4-0.1-0.9-0.1-1.3-0.2c-0.4,0-0.5,0-0.9,0.2c-0.2,0.1-1.2,0.7-2.2,1.4C11,8.3,9.6,9.7,9.6,9.7l-1.9,0.7c-0.5,0-1-0.7-1.3-1
	L5.6,8.6c-0.1-0.1-0.2-0.1-0.2,0L4.1,8.9C3.9,9,4,9.1,4.1,9.2l2,3c0.2,0.3,0.9,0.5,1.2,0.4l5.2-1l0.1,0l0,1.6l-3.9,1.4
	c-0.1,0-0.2,0.1-0.1,0.2c0,0,0.1,0.1,0.1,0.2c0,0.1,0.1,0.1,0.2,0.1c0.4,0,1.4-0.1,2.6-0.2c0.8-0.2,7.1-2.4,8.3-3
	c0.8-0.7,1.1-1,1.1-1c0.1-0.1,0.1-0.2,0-0.3l-0.1-0.3C20.9,10.3,20.8,10.3,20.7,10.3z M13,13l0-1.6l3.7-1.4l1.1,1.2L13,13z
	 M14.1,6.7L15,7.9c-1.4,0.5-3.2,1.2-3.3,1.2c-0.1,0-0.2,0-0.2-0.1s0-0.1-0.1-0.2c0-0.1,0-0.2,0.1-0.2c0.1-0.1,0.6-0.5,0.9-0.8
	C13,7.4,13.6,7,14.1,6.7z M16.6,6.6c0,0.1-0.1,0.6-0.1,0.6s0,0.1-0.2,0.2c-0.2,0.1-0.5,0.2-0.8,0.3l-1-1.2c0,0,0.1,0,0.1-0.1
	c0.3-0.2,0.4-0.2,0.6-0.2c0,0,1.1,0.1,1.2,0.2C16.5,6.4,16.6,6.5,16.6,6.6z"/>
</svg>
