<?xml version="1.0" encoding="utf-8"?>
<!-- Generator: Adobe Illustrator 18.1.1, SVG Export Plug-In . SVG Version: 6.00 Build 0)  -->
<svg version="1.1" id="Layer_1" xmlns="http://www.w3.org/2000/svg" xmlns:xlink="http://www.w3.org/1999/xlink" x="0px" y="0px"
	 viewBox="0 0 12 12" enable-background="new 0 0 12 12" xml:space="preserve">
<path fill="#FFFFFF" d="M10.248,9.913c-0.18,0-0.355-0.205-0.509-0.272C9.581,9.567,9.403,9.524,9.216,9.524
	c-0.187,0-0.365,0.043-0.523,0.117C8.54,9.708,8.365,9.913,8.185,9.913c-0.178,0-0.353-0.205-0.507-0.272
	C7.518,9.567,7.34,9.524,7.155,9.524c-0.187,0-0.365,0.043-0.523,0.117C6.477,9.708,6.304,9.913,6.124,9.913
	c-0.18,0-0.355-0.205-0.509-0.272C5.457,9.567,5.279,9.524,5.092,9.524c-0.187,0-0.365,0.043-0.523,0.117
	C4.416,9.708,4.241,9.913,4.061,9.913c-0.18,0-0.353-0.205-0.506-0.272c-0.16-0.074-0.338-0.117-0.523-0.117
	c-0.187,0-0.365,0.043-0.523,0.117C2.353,9.708,2.18,9.913,2,9.913V9.152c0.18,0,0.353-0.205,0.509-0.272
	c0.158-0.074,0.336-0.117,0.523-0.117c0.184,0,0.363,0.043,0.523,0.117C3.708,8.948,3.88,9.152,4.061,9.152
	c0.18,0,0.355-0.205,0.509-0.272c0.158-0.074,0.336-0.117,0.523-0.117c0.187,0,0.365,0.043,0.523,0.117
	c0.154,0.068,0.328,0.272,0.509,0.272c0.18,0,0.353-0.205,0.508-0.272C6.79,8.806,6.969,8.763,7.155,8.763
	c0.185,0,0.363,0.043,0.523,0.117c0.154,0.068,0.328,0.272,0.507,0.272c0.18,0,0.355-0.205,0.508-0.272
	C8.851,8.806,9.03,8.763,9.216,8.763c0.187,0,0.365,0.043,0.523,0.117c0.154,0.068,0.328,0.272,0.509,0.272V9.913z"/>
<path fill="#FFFFFF" d="M10.837,4.815L9.537,5.229L8.97,4.564c0.216-0.12,0.622-0.347,0.845-0.508
	C9.913,3.99,9.982,3.838,9.99,3.763l0.265-1.12l0.412,1.131c0.046,0.127,0.235,0.058,0.189-0.069L10.43,2.538l0.081-0.029
	c0.227-0.083,0.103-0.424-0.124-0.341l-0.081,0.029L9.895,1.068C9.848,0.94,9.66,1.009,9.706,1.136l0.411,1.129l-0.056,0.02l0,0
	C9.852,2.34,8.865,2.584,8.647,2.556C8.427,2.527,8.194,2.487,7.98,2.461c-0.196-0.023-0.29,0.018-0.458,0.114
	C7.426,2.632,6.87,2.961,6.343,3.319c-0.649,0.441-1.38,1.179-1.38,1.179L3.954,4.869C3.699,4.885,3.451,4.487,3.281,4.332
	l-0.441-0.42C2.806,3.877,2.755,3.88,2.71,3.895L2.052,4.09C1.954,4.12,2.02,4.187,2.05,4.229l1.071,1.57
	c0.116,0.176,0.452,0.263,0.647,0.214l2.743-0.547l0.033-0.012L6.539,6.326L4.497,7.072C4.447,7.09,4.416,7.132,4.433,7.18
	c0,0,0.027,0.075,0.048,0.131c0.02,0.054,0.066,0.079,0.13,0.075C4.797,7.375,5.352,7.33,6.007,7.258
	c0.422-0.089,3.766-1.261,4.399-1.578c0.438-0.345,0.564-0.543,0.564-0.543c0.027-0.045,0.04-0.087,0.022-0.137l-0.049-0.135
	C10.924,4.814,10.887,4.797,10.837,4.815z M6.766,6.244l0.005-0.873l1.975-0.719L9.31,5.313L6.766,6.244z M7.328,2.936L7.82,3.551
	c-0.719,0.262-1.694,0.617-1.757,0.64C6.024,4.205,5.975,4.197,5.953,4.137c-0.022-0.06-0.022-0.06-0.034-0.094
	C5.9,3.99,5.91,3.952,5.948,3.912c0.045-0.045,0.317-0.288,0.491-0.408C6.754,3.291,7.09,3.08,7.328,2.936z M8.676,2.882
	C8.667,2.929,8.619,3.197,8.619,3.197S8.612,3.263,8.523,3.295C8.442,3.325,8.282,3.383,8.082,3.456L7.557,2.798
	c0.018-0.011,0.038-0.022,0.05-0.029C7.755,2.682,7.809,2.663,7.948,2.68c0,0,0.598,0.077,0.639,0.084
	C8.637,2.769,8.687,2.821,8.676,2.882z"/>
</svg>
