<?xml version="1.0" encoding="utf-8"?>
<!-- Generator: Adobe Illustrator 21.1.0, SVG Export Plug-In . SVG Version: 6.00 Build 0)  -->
<svg version="1.1" id="Layer_1" xmlns="http://www.w3.org/2000/svg" xmlns:xlink="http://www.w3.org/1999/xlink" x="0px" y="0px"
	 width="18px" height="18px" viewBox="0 0 18 18" enable-background="new 0 0 18 18" xml:space="preserve">
<path d="M14.9,14.9c-0.3,0-1.2-0.9-1.5-0.9c-0.3,0-1.2,0.9-1.5,0.9c-0.3,0-1.2-0.9-1.5-0.9c-0.3,0-1.2,0.9-1.5,0.9
	c-0.3,0-1.2-0.9-1.5-0.9S6.2,14.9,6,14.9S4.8,14,4.5,14c-0.3,0-1.2,0.9-1.5,0.9v-1.1c0.3,0,1.2-0.8,1.5-0.8c0.3,0,1.2,0.8,1.5,0.8
	S7.2,13,7.5,13c0.3,0,1.2,0.8,1.5,0.8s1.2-0.8,1.5-0.8c0.3,0,1.2,0.8,1.5,0.8c0.3,0,1.2-0.8,1.5-0.8s1.2,0.8,1.5,0.8L14.9,14.9
	L14.9,14.9z"/>
<path d="M15.8,7.6l-1.9,0.6l-0.8-1C13.4,7,14,6.7,14.3,6.5c0.1-0.1,0.2-0.3,0.3-0.4l0.4-1.6l0.6,1.6c0.1,0.2,0.3,0.1,0.3-0.1
	l-0.6-1.7l0.1,0c0.3-0.1,0.1-0.6-0.2-0.5l-0.1,0l-0.6-1.6c-0.1-0.2-0.3-0.1-0.3,0.1l0.6,1.6l-0.1,0l0,0c-0.3,0.1-1.7,0.4-2,0.4
	c-0.3,0-0.7-0.1-1-0.1c-0.3,0-0.4,0-0.7,0.2C10.8,4.4,10,4.9,9.3,5.4c-0.9,0.6-2,1.7-2,1.7L5.8,7.7c-0.4,0-0.7-0.6-1-0.8L4.2,6.3
	c-0.1-0.1-0.1,0-0.2,0l-1,0.3c-0.1,0,0,0.1,0,0.2L4.6,9c0.2,0.3,0.7,0.4,0.9,0.3l4-0.8l0,0l0,1.3l-2.9,1.1c-0.1,0-0.1,0.1-0.1,0.2
	c0,0,0,0.1,0.1,0.2c0,0.1,0.1,0.1,0.2,0.1c0.3,0,1.1-0.1,2-0.2c0.6-0.1,5.4-1.8,6.4-2.3C15.8,8.3,16,8,16,8C16,8,16,7.9,16,7.8
	l-0.1-0.2C15.9,7.6,15.8,7.5,15.8,7.6z M9.9,9.6l0-1.3l2.9-1l0.8,1L9.9,9.6z M10.7,4.9l0.7,0.9c-1,0.4-2.4,0.9-2.5,0.9
	c-0.1,0-0.1,0-0.2-0.1c0-0.1,0-0.1-0.1-0.1c0-0.1,0-0.1,0-0.2c0.1-0.1,0.5-0.4,0.7-0.6C9.9,5.4,10.4,5.1,10.7,4.9z M12.6,4.8
	c0,0.1-0.1,0.5-0.1,0.5s0,0.1-0.1,0.1c-0.1,0-0.3,0.1-0.6,0.2L11,4.7c0,0,0.1,0,0.1,0c0.2-0.1,0.3-0.2,0.5-0.1c0,0,0.9,0.1,0.9,0.1
	C12.6,4.6,12.7,4.7,12.6,4.8z"/>
</svg>
