<?xml version="1.0" encoding="utf-8"?>
<!-- Generator: Adobe Illustrator 18.1.1, SVG Export Plug-In . SVG Version: 6.00 Build 0)  -->
<svg version="1.1" id="Layer_1" xmlns="http://www.w3.org/2000/svg" xmlns:xlink="http://www.w3.org/1999/xlink" x="0px" y="0px"
	 viewBox="0 0 24 24" enable-background="new 0 0 24 24" xml:space="preserve">
<path d="M19.579,19.836c-0.341,0-0.67-0.387-0.961-0.514c-0.298-0.14-0.635-0.221-0.988-0.221c-0.353,0-0.69,0.081-0.988,0.221
	c-0.291,0.128-0.62,0.514-0.96,0.514c-0.337,0-0.666-0.387-0.957-0.514c-0.302-0.14-0.639-0.221-0.988-0.221
	c-0.352,0-0.69,0.081-0.988,0.221c-0.294,0.128-0.62,0.514-0.96,0.514c-0.341,0-0.67-0.387-0.961-0.514
	c-0.298-0.14-0.635-0.221-0.988-0.221c-0.352,0-0.689,0.081-0.988,0.221c-0.291,0.128-0.62,0.514-0.961,0.514
	s-0.666-0.387-0.957-0.514C6.634,19.182,6.297,19.1,5.949,19.1c-0.353,0-0.69,0.081-0.988,0.221C4.666,19.449,4.341,19.836,4,19.836
	v-1.437c0.341,0,0.666-0.387,0.961-0.514c0.298-0.14,0.635-0.221,0.988-0.221c0.348,0,0.686,0.081,0.988,0.221
	c0.291,0.128,0.616,0.514,0.957,0.514s0.67-0.387,0.961-0.514c0.298-0.14,0.635-0.221,0.988-0.221c0.353,0,0.69,0.081,0.988,0.221
	c0.291,0.128,0.62,0.514,0.961,0.514c0.341,0,0.666-0.387,0.96-0.514c0.298-0.14,0.635-0.221,0.988-0.221
	c0.349,0,0.686,0.081,0.988,0.221c0.291,0.128,0.62,0.514,0.957,0.514c0.341,0,0.67-0.387,0.96-0.514
	c0.298-0.14,0.635-0.221,0.988-0.221c0.352,0,0.689,0.081,0.988,0.221c0.291,0.128,0.62,0.514,0.961,0.514V19.836z"/>
<path d="M20.693,10.206l-2.457,0.781l-1.071-1.255c0.408-0.227,1.176-0.655,1.596-0.96c0.185-0.125,0.316-0.412,0.33-0.553
	l0.5-2.115l0.778,2.137c0.087,0.24,0.444,0.11,0.357-0.13l-0.803-2.206l0.153-0.056c0.43-0.156,0.195-0.801-0.234-0.644
	l-0.153,0.056l-0.776-2.133c-0.087-0.24-0.444-0.11-0.357,0.13l0.776,2.133l-0.105,0.038l0,0c-0.396,0.103-2.26,0.563-2.671,0.51
	C16.14,5.885,15.7,5.81,15.295,5.76c-0.37-0.043-0.548,0.035-0.865,0.216c-0.18,0.107-1.231,0.728-2.226,1.404
	c-1.226,0.834-2.607,2.226-2.607,2.226l-1.905,0.702C7.209,10.339,6.741,9.586,6.42,9.295L5.588,8.501
	C5.522,8.434,5.425,8.441,5.34,8.468l-1.242,0.37C3.912,8.893,4.037,9.02,4.094,9.098l2.023,2.965
	c0.22,0.332,0.853,0.497,1.223,0.404l5.181-1.032l0.062-0.023l-0.01,1.648l-3.857,1.408c-0.095,0.034-0.153,0.113-0.119,0.204
	c0,0,0.052,0.142,0.09,0.248c0.037,0.102,0.124,0.149,0.245,0.141c0.351-0.021,1.4-0.106,2.636-0.242
	c0.798-0.168,7.114-2.383,8.309-2.981c0.826-0.651,1.065-1.027,1.065-1.027c0.051-0.085,0.076-0.164,0.042-0.258l-0.093-0.255
	C20.857,10.204,20.787,10.172,20.693,10.206z M13.003,12.905l0.01-1.648l3.731-1.358l1.065,1.249L13.003,12.905z M14.063,6.657
	l0.93,1.162c-1.358,0.494-3.199,1.165-3.32,1.208c-0.073,0.026-0.165,0.011-0.206-0.102c-0.041-0.113-0.041-0.113-0.065-0.178
	c-0.036-0.098-0.017-0.171,0.054-0.246c0.085-0.084,0.598-0.543,0.927-0.77C12.98,7.327,13.614,6.928,14.063,6.657z M16.61,6.554
	c-0.017,0.089-0.109,0.596-0.109,0.596s-0.013,0.124-0.18,0.185c-0.153,0.056-0.455,0.166-0.834,0.303l-0.992-1.242
	c0.034-0.02,0.071-0.042,0.095-0.055c0.278-0.163,0.38-0.2,0.643-0.168c0,0,1.129,0.146,1.208,0.158
	C16.537,6.342,16.631,6.44,16.61,6.554z"/>
</svg>
