<?xml version="1.0" encoding="utf-8"?>
<!-- Generator: Adobe Illustrator 18.1.1, SVG Export Plug-In . SVG Version: 6.00 Build 0)  -->
<svg version="1.1" id="Layer_1" xmlns="http://www.w3.org/2000/svg" xmlns:xlink="http://www.w3.org/1999/xlink" x="0px" y="0px"
	 viewBox="0 0 18 18" enable-background="new 0 0 18 18" xml:space="preserve">
<path d="M14.913,14.874c-0.261,0-0.512-0.296-0.735-0.393c-0.228-0.107-0.486-0.169-0.755-0.169c-0.27,0-0.527,0.062-0.755,0.169
	c-0.222,0.098-0.474,0.393-0.734,0.393c-0.258,0-0.51-0.296-0.732-0.393c-0.231-0.107-0.489-0.169-0.755-0.169
	c-0.269,0-0.527,0.062-0.755,0.169c-0.225,0.098-0.474,0.393-0.734,0.393c-0.261,0-0.512-0.296-0.735-0.393
	c-0.228-0.107-0.486-0.169-0.755-0.169c-0.269,0-0.527,0.062-0.755,0.169c-0.222,0.098-0.474,0.393-0.735,0.393
	s-0.509-0.296-0.732-0.393c-0.231-0.107-0.489-0.169-0.755-0.169c-0.27,0-0.527,0.062-0.755,0.169
	C3.51,14.579,3.261,14.874,3,14.874v-1.099c0.261,0,0.51-0.296,0.735-0.393c0.228-0.107,0.486-0.169,0.755-0.169
	c0.266,0,0.524,0.062,0.755,0.169c0.222,0.098,0.471,0.393,0.732,0.393s0.512-0.296,0.735-0.393
	c0.228-0.107,0.486-0.169,0.755-0.169c0.27,0,0.527,0.062,0.755,0.169c0.222,0.098,0.474,0.393,0.735,0.393
	c0.261,0,0.509-0.296,0.734-0.393c0.228-0.107,0.486-0.169,0.755-0.169c0.267,0,0.524,0.062,0.755,0.169
	c0.222,0.098,0.474,0.393,0.732,0.393c0.261,0,0.512-0.296,0.734-0.393c0.228-0.107,0.486-0.169,0.755-0.169
	c0.269,0,0.527,0.062,0.755,0.169c0.222,0.098,0.474,0.393,0.735,0.393V14.874z"/>
<path d="M15.765,7.511l-1.879,0.597l-0.819-0.96c0.312-0.173,0.899-0.501,1.221-0.734c0.142-0.096,0.242-0.315,0.253-0.423
	l0.382-1.617l0.595,1.634c0.067,0.184,0.34,0.084,0.273-0.099l-0.614-1.687l0.117-0.043c0.328-0.12,0.149-0.612-0.179-0.493
	l-0.117,0.043l-0.594-1.631c-0.067-0.184-0.34-0.084-0.273,0.099l0.594,1.631l-0.081,0.029l0,0c-0.302,0.078-1.728,0.43-2.042,0.39
	c-0.318-0.042-0.654-0.099-0.964-0.138c-0.283-0.033-0.419,0.026-0.662,0.165c-0.137,0.081-0.942,0.557-1.702,1.074
	C8.336,5.987,7.28,7.052,7.28,7.052L5.823,7.588C5.454,7.612,5.096,7.036,4.851,6.813L4.214,6.207
	C4.164,6.156,4.09,6.16,4.025,6.181l-0.95,0.283c-0.142,0.042-0.047,0.14-0.003,0.2l1.547,2.268c0.168,0.254,0.652,0.38,0.935,0.309
	L9.516,8.45l0.047-0.017L9.556,9.694l-2.949,1.077c-0.072,0.026-0.117,0.087-0.091,0.156c0,0,0.04,0.109,0.069,0.189
	c0.028,0.078,0.095,0.114,0.188,0.108c0.268-0.016,1.071-0.081,2.016-0.185c0.61-0.128,5.44-1.822,6.354-2.28
	c0.632-0.498,0.814-0.785,0.814-0.785c0.039-0.065,0.058-0.125,0.032-0.198l-0.071-0.195C15.891,7.509,15.837,7.484,15.765,7.511z
	 M9.884,9.574l0.008-1.261l2.853-1.038l0.814,0.955L9.884,9.574z M10.695,4.797l0.711,0.889C10.368,6.063,8.96,6.576,8.868,6.609
	C8.812,6.629,8.742,6.617,8.71,6.531c-0.031-0.086-0.031-0.086-0.05-0.136C8.633,6.319,8.648,6.264,8.702,6.206
	C8.767,6.141,9.16,5.791,9.412,5.617C9.867,5.309,10.352,5.004,10.695,4.797z M12.643,4.718C12.63,4.786,12.56,5.174,12.56,5.174
	s-0.01,0.095-0.138,0.141c-0.117,0.043-0.348,0.127-0.637,0.232l-0.759-0.95c0.026-0.016,0.054-0.032,0.073-0.042
	c0.213-0.125,0.291-0.153,0.492-0.129c0,0,0.863,0.111,0.924,0.121C12.587,4.556,12.659,4.63,12.643,4.718z"/>
</svg>
