<?xml version="1.0" encoding="utf-8"?>
<!-- Generator: Adobe Illustrator 21.1.0, SVG Export Plug-In . SVG Version: 6.00 Build 0)  -->
<svg version="1.1" id="Layer_1" xmlns="http://www.w3.org/2000/svg" xmlns:xlink="http://www.w3.org/1999/xlink" x="0px" y="0px"
	 width="12px" height="12px" viewBox="0 0 12 12" enable-background="new 0 0 12 12" xml:space="preserve">
<path fill="#FFFFFF" d="M10.2,10c-0.2,0-0.4-0.2-0.5-0.3C9.6,9.6,9.4,9.6,9.2,9.6s-0.4,0-0.5,0.1C8.5,9.8,8.4,10,8.2,10
	C8,10,7.8,9.8,7.7,9.7C7.5,9.6,7.3,9.6,7.2,9.6c-0.2,0-0.4,0-0.5,0.1C6.5,9.8,6.3,10,6.1,10S5.8,9.8,5.6,9.7
	C5.5,9.6,5.3,9.6,5.1,9.6s-0.4,0-0.5,0.1C4.4,9.8,4.2,10,4.1,10c-0.2,0-0.4-0.2-0.5-0.3C3.4,9.6,3.2,9.6,3,9.6c-0.2,0-0.4,0-0.5,0.1
	C2.4,9.8,2.2,10,2,10V9.2c0.2,0,0.4-0.2,0.5-0.3C2.7,8.8,2.8,8.8,3,8.8c0.2,0,0.4,0,0.5,0.1C3.7,9,3.9,9.2,4.1,9.2
	c0.2,0,0.4-0.2,0.5-0.3c0.2-0.1,0.3-0.1,0.5-0.1s0.4,0,0.5,0.1C5.8,9,5.9,9.2,6.1,9.2c0.2,0,0.4-0.2,0.5-0.3C6.8,8.8,7,8.8,7.2,8.8
	c0.2,0,0.4,0,0.5,0.1C7.8,9,8,9.2,8.2,9.2c0.2,0,0.4-0.2,0.5-0.3C8.9,8.8,9,8.8,9.2,8.8c0.2,0,0.4,0,0.5,0.1
	c0.2,0.1,0.3,0.3,0.5,0.3C10.2,9.2,10.2,10,10.2,10z"/>
<path fill="#FFFFFF" d="M10.8,4.9L9.5,5.3L9,4.6c0.2-0.1,0.6-0.3,0.8-0.5C9.9,4,10,3.9,10,3.8l0.3-1.1l0.4,1.1
	c0,0.1,0.2,0.1,0.2-0.1l-0.4-1.2l0.1,0c0.2-0.1,0.1-0.4-0.1-0.3l-0.1,0L9.9,1.1c0-0.1-0.2-0.1-0.2,0.1l0.4,1.1l-0.1,0l0,0
	C9.9,2.4,8.9,2.6,8.6,2.6C8.4,2.6,8.2,2.5,8,2.5c-0.2,0-0.3,0-0.5,0.1C7.4,2.7,6.9,3,6.3,3.4C5.7,3.8,5,4.5,5,4.5L4,4.9
	c-0.3,0-0.5-0.4-0.7-0.5L2.8,4c0,0-0.1,0-0.1,0L2.1,4.1C2,4.2,2,4.2,2,4.3l1.1,1.6C3.2,6,3.6,6.1,3.8,6.1l2.7-0.5l0,0l0,0.9l-2,0.7
	c-0.1,0-0.1,0.1-0.1,0.1c0,0,0,0.1,0,0.1c0,0.1,0.1,0.1,0.1,0.1c0.2,0,0.7-0.1,1.4-0.1C6.4,7.2,9.8,6,10.4,5.7
	C10.8,5.4,11,5.2,11,5.2c0,0,0-0.1,0-0.1l0-0.1C10.9,4.9,10.9,4.8,10.8,4.9z M6.8,6.3l0-0.9l2-0.7l0.6,0.7L6.8,6.3z M7.3,3l0.5,0.6
	C7.1,3.9,6.1,4.2,6.1,4.2c0,0-0.1,0-0.1-0.1s0-0.1,0-0.1c0-0.1,0-0.1,0-0.1c0,0,0.3-0.3,0.5-0.4C6.8,3.3,7.1,3.1,7.3,3z M8.7,2.9
	c0,0-0.1,0.3-0.1,0.3s0,0.1-0.1,0.1c-0.1,0-0.2,0.1-0.4,0.2L7.6,2.8c0,0,0,0,0.1,0c0.1-0.1,0.2-0.1,0.3-0.1c0,0,0.6,0.1,0.6,0.1
	C8.6,2.8,8.7,2.9,8.7,2.9z"/>
</svg>
