<?xml version="1.0" encoding="utf-8"?>
<!-- Generator: Adobe Illustrator 21.1.0, SVG Export Plug-In . SVG Version: 6.00 Build 0)  -->
<svg version="1.1" id="Layer_1" xmlns="http://www.w3.org/2000/svg" xmlns:xlink="http://www.w3.org/1999/xlink" x="0px" y="0px"
	 width="12px" height="12px" viewBox="0 0 12 12" enable-background="new 0 0 12 12" xml:space="preserve">
<rect x="8" y="9" width="1" height="1"/>
<rect x="10" y="9" width="1" height="1"/>
<rect x="10" y="7" width="1" height="1"/>
<rect x="10" y="5" width="1" height="1"/>
<rect x="10" y="3" width="1" height="1"/>
<rect x="10" y="1" width="1" height="1"/>
<rect x="8" y="1" width="1" height="1"/>
<rect x="6" y="1" width="1" height="2"/>
<rect x="6" y="7" width="1" height="3"/>
<polygon points="8,5 9,5 7,7 6,7 "/>
<polygon points="5,4 5,2 4,2 4,4 "/>
<polygon points="3.9,4.2 4.6,4.2 5.9,5.5 5.9,6.1 4.6,4.9 4.6,6.8 5,10 4,10 3.9,7.4 3.3,7.4 2.6,9.9 2,10 2.6,6.8 3.3,5.5 2,5.5 
	2,3.6 2.6,2.9 3.3,3.6 "/>
</svg>
