<?xml version="1.0" encoding="utf-8"?>
<!-- Generator: Adobe Illustrator 21.1.0, SVG Export Plug-In . SVG Version: 6.00 Build 0)  -->
<svg version="1.1" id="Layer_1" xmlns="http://www.w3.org/2000/svg" xmlns:xlink="http://www.w3.org/1999/xlink" x="0px" y="0px"
	 width="18px" height="18px" viewBox="0 0 18 18" enable-background="new 0 0 18 18" xml:space="preserve">
<rect x="11" y="14" width="1" height="1"/>
<rect x="13" y="14" width="1" height="1"/>
<rect x="15" y="14" width="1" height="1"/>
<rect x="15" y="12" width="1" height="1"/>
<rect x="15" y="10" width="1" height="1"/>
<rect x="15" y="8" width="1" height="1"/>
<rect x="15" y="6" width="1" height="1"/>
<rect x="15" y="3" width="1" height="1"/>
<rect x="13" y="3" width="1" height="1"/>
<rect x="11" y="3" width="1" height="1"/>
<rect x="9" y="2" width="1" height="3"/>
<rect x="8" y="3" width="1" height="1"/>
<rect x="9" y="11" width="1" height="4"/>
<polygon points="11,8 12,8 10,11 9,11 "/>
<polygon points="8,6 8,4 6,4 6,6 "/>
<polygon points="5.8,6.6 6.7,6.6 8.6,8.5 8.6,9.4 6.7,7.6 6.7,10.4 7.6,15 6.7,15 5.8,11.3 4.9,11.3 3.9,14.9 3,15 3.9,10.4 
	4.9,8.5 3,8.5 3,5.7 3.9,4.8 4.9,5.7 "/>
</svg>
