<?xml version="1.0" encoding="utf-8"?>
<!-- Generator: Adobe Illustrator 21.1.0, SVG Export Plug-In . SVG Version: 6.00 Build 0)  -->
<svg version="1.1" id="Layer_1" xmlns="http://www.w3.org/2000/svg" xmlns:xlink="http://www.w3.org/1999/xlink" x="0px" y="0px"
	 width="24px" height="24px" viewBox="0 0 24 24" enable-background="new 0 0 24 24" xml:space="preserve">
<path fill="#FFFFFF" d="M6.2,7.1l-1-0.2C5,6.8,4.8,6.9,4.8,7.1L4,10.4c0,0.2,0.1,0.3,0.2,0.4l1,0.2c0.1,0,0.3,0,0.3-0.1V8.8h0.5
	l0.2-1V7.2h0C6.3,7.2,6.3,7.1,6.2,7.1"/>
<path fill="#FFFFFF" d="M11,10.6l-1.6-0.4L9,8.4C8.4,8,7.8,8,7.8,8C7.5,8,7.3,8.6,7.1,8.8H6.6l-0.2,1v1.3H6l-1.8,7.4l0,0l0,0.2
	c0,0.4,0.4,0.8,0.8,0.8c0.4,0,0.7-0.2,0.8-0.6l1.4-5.7l1.3,5.7c0.1,0.3,0.4,0.6,0.8,0.6c0.4,0,0.8-0.4,0.8-0.8l0-0.2L8.2,11l0.2-0.7
	l0.1,0.5c0.1,0.3,0.4,0.4,0.4,0.4l1.9,0.5l0.1,0c0.3,0,0.5-0.2,0.5-0.5C11.5,10.9,11.3,10.7,11,10.6"/>
<polygon fill="#FFFFFF" points="13.3,3.4 13.3,6.5 11,4.9 "/>
<path fill="#FFFFFF" d="M13,19.6v-5.5c0.5-0.5,2.3-2.2,2.7-2.6c0.1-0.1,0.2-0.3,0.2-0.5c0-0.2-0.1-0.3-0.2-0.5
	c-0.3-0.3-0.7-0.3-0.9,0L12,13.4v6.2L13,19.6z"/>
<path fill="#FFFFFF" d="M15.6,19.6L15.6,19.6c-0.4,0-0.8-0.3-0.8-0.8c0-0.4,0.3-0.8,0.8-0.8c0.4,0,0.8,0.3,0.8,0.8
	C16.4,19.3,16,19.6,15.6,19.6"/>
<path fill="#FFFFFF" d="M17.9,19.6L17.9,19.6c-0.4,0-0.8-0.3-0.8-0.8c0-0.4,0.3-0.8,0.8-0.8c0.4,0,0.8,0.3,0.8,0.8
	C18.7,19.3,18.3,19.6,17.9,19.6"/>
<path fill="#FFFFFF" d="M20.2,17.3L20.2,17.3c-0.4,0-0.8-0.3-0.8-0.8c0-0.4,0.3-0.8,0.8-0.8c0.4,0,0.8,0.3,0.8,0.8
	C21,16.9,20.7,17.3,20.2,17.3"/>
<path fill="#FFFFFF" d="M20.2,19.6L20.2,19.6c-0.4,0-0.8-0.3-0.8-0.8c0-0.4,0.3-0.8,0.8-0.8c0.4,0,0.8,0.3,0.8,0.8
	C21,19.3,20.7,19.6,20.2,19.6"/>
<path fill="#FFFFFF" d="M20.2,15L20.2,15c-0.4,0-0.8-0.3-0.8-0.8s0.3-0.8,0.8-0.8c0.4,0,0.8,0.3,0.8,0.8C21,14.6,20.7,15,20.2,15"/>
<path fill="#FFFFFF" d="M20.2,8L20.2,8c-0.4,0-0.8-0.3-0.8-0.8c0-0.4,0.3-0.8,0.8-0.8c0.4,0,0.8,0.3,0.8,0.8C21,7.7,20.7,8,20.2,8"
	/>
<path fill="#FFFFFF" d="M15.6,5.7L15.6,5.7c-0.4,0-0.8-0.3-0.8-0.8c0-0.4,0.3-0.8,0.8-0.8c0.4,0,0.8,0.3,0.8,0.8
	C16.4,5.4,16,5.7,15.6,5.7"/>
<path fill="#FFFFFF" d="M17.9,5.7L17.9,5.7c-0.4,0-0.8-0.3-0.8-0.8c0-0.4,0.3-0.8,0.8-0.8c0.4,0,0.8,0.3,0.8,0.8
	C18.7,5.4,18.3,5.7,17.9,5.7"/>
<path fill="#FFFFFF" d="M20.2,10.3L20.2,10.3c-0.4,0-0.8-0.3-0.8-0.8s0.3-0.8,0.8-0.8c0.4,0,0.8,0.3,0.8,0.8
	C21,10,20.7,10.3,20.2,10.3"/>
<path fill="#FFFFFF" d="M20.2,5.7L20.2,5.7c-0.4,0-0.8-0.3-0.8-0.8c0-0.4,0.3-0.8,0.8-0.8c0.4,0,0.8,0.3,0.8,0.8
	C21,5.4,20.7,5.7,20.2,5.7"/>
<path fill="#FFFFFF" d="M20.2,12.7L20.2,12.7c-0.4,0-0.8-0.3-0.8-0.8c0-0.4,0.3-0.8,0.8-0.8c0.4,0,0.8,0.3,0.8,0.8
	C21,12.3,20.7,12.7,20.2,12.7"/>
<path fill="#FFFFFF" d="M8.4,7.2H8.1c-0.6,0-1-0.5-1-1V5.9c0-0.6,0.5-1,1-1h0.3c0.6,0,1,0.5,1,1v0.3C9.4,6.8,9,7.2,8.4,7.2"/>
</svg>
