<?xml version="1.0" encoding="utf-8"?>
<!-- Generator: Adobe Illustrator 21.1.0, SVG Export Plug-In . SVG Version: 6.00 Build 0)  -->
<svg version="1.1" id="Layer_1" xmlns="http://www.w3.org/2000/svg" xmlns:xlink="http://www.w3.org/1999/xlink" x="0px" y="0px"
	 width="18px" height="18px" viewBox="0 0 18 18" enable-background="new 0 0 18 18" xml:space="preserve">
<path fill="#FFFFFF" d="M5.8,8.7c0,0.2,0.1,0.4,0.3,0.4c0.2,0,0.4-0.1,0.4-0.3c0-0.2-0.1-0.4-0.3-0.4C6,8.4,5.8,8.5,5.8,8.7"/>
<path fill="#FFFFFF" d="M6.1,7.9c0-0.2-0.1-0.3-0.3-0.4c-0.2,0-0.3,0.1-0.4,0.3c0,0.2,0.1,0.3,0.3,0.4C5.9,8.2,6.1,8.1,6.1,7.9"/>
<path fill="#FFFFFF" d="M5.4,6.7c0.2,0,0.3,0.1,0.3,0.3c0,0.2-0.1,0.3-0.3,0.3C5.2,7.3,5.1,7.1,5.1,7C5.1,6.8,5.2,6.7,5.4,6.7"/>
<path fill="#FFFFFF" d="M5,5.8c0.2,0,0.3,0.1,0.3,0.3c0,0.2-0.1,0.3-0.3,0.3c-0.2,0-0.3-0.1-0.3-0.3C4.8,5.9,4.9,5.8,5,5.8"/>
<path fill="#FFFFFF" d="M4.7,5C4.8,5,5,5.1,5,5.2c0,0.2-0.1,0.3-0.3,0.3S4.4,5.4,4.4,5.2C4.4,5.1,4.5,5,4.7,5"/>
<path fill="#FFFFFF" d="M4.3,4.1c0.1,0,0.3,0.1,0.3,0.3S4.5,4.6,4.3,4.6S4.1,4.5,4.1,4.4S4.2,4.1,4.3,4.1"/>
<path fill="#FFFFFF" d="M7.1,7.4c0-0.2,0.2-0.3,0.4-0.3c0.2,0,0.3,0.2,0.3,0.4c0,0.2-0.2,0.3-0.4,0.3C7.2,7.8,7,7.6,7.1,7.4"/>
<path fill="#FFFFFF" d="M6.9,6.4c0.2,0,0.3,0.1,0.3,0.3c0,0.2-0.1,0.3-0.3,0.3c-0.2,0-0.3-0.1-0.3-0.3C6.5,6.6,6.7,6.4,6.9,6.4"/>
<path fill="#FFFFFF" d="M6.3,5.7c0.2,0,0.3,0.1,0.3,0.3S6.5,6.3,6.3,6.3S6,6.2,6,6C6,5.9,6.2,5.7,6.3,5.7"/>
<path fill="#FFFFFF" d="M5.8,5.1c0.2,0,0.3,0.1,0.3,0.3c0,0.2-0.1,0.3-0.3,0.3c-0.2,0-0.3-0.1-0.3-0.3C5.5,5.2,5.6,5.1,5.8,5.1"/>
<path fill="#FFFFFF" d="M5.3,4.4c0.1,0,0.3,0.1,0.3,0.3S5.4,4.9,5.3,4.9S5,4.8,5,4.6S5.1,4.4,5.3,4.4"/>
<path fill="#FFFFFF" d="M4.7,3.7C4.9,3.7,5,3.8,5,3.9c0,0.1-0.1,0.3-0.3,0.3c-0.1,0-0.3-0.1-0.3-0.3C4.5,3.8,4.6,3.7,4.7,3.7"/>
<path fill="#FFFFFF" d="M8,6C7.8,6,7.6,5.9,7.6,5.7c0-0.2,0.1-0.3,0.3-0.4c0.2,0,0.3,0.1,0.3,0.3C8.3,5.8,8.2,6,8,6"/>
<path fill="#FFFFFF" d="M7.6,5.1c0,0.2-0.1,0.3-0.3,0.3c-0.2,0-0.3-0.1-0.3-0.3c0-0.2,0.1-0.3,0.3-0.3C7.4,4.8,7.6,4.9,7.6,5.1"/>
<path fill="#FFFFFF" d="M6.9,4.6c0,0.2-0.1,0.3-0.3,0.3c-0.2,0-0.3-0.1-0.3-0.3c0-0.2,0.1-0.3,0.3-0.3C6.7,4.3,6.8,4.4,6.9,4.6"/>
<path fill="#FFFFFF" d="M5.9,3.8c0.2,0,0.3,0.1,0.3,0.3S6,4.3,5.9,4.3c-0.2,0-0.3-0.1-0.3-0.3C5.6,3.9,5.7,3.8,5.9,3.8"/>
<path fill="#FFFFFF" d="M5.2,3.3c0.1,0,0.3,0.1,0.3,0.3c0,0.1-0.1,0.3-0.3,0.3C5,3.8,4.9,3.7,4.9,3.5C4.9,3.4,5,3.3,5.2,3.3"/>
<path fill="#FFFFFF" d="M5.6,2.9c0.1,0,0.3,0.1,0.3,0.3c0,0.1-0.1,0.3-0.3,0.3c-0.1,0-0.3-0.1-0.3-0.3C5.3,3,5.4,2.9,5.6,2.9"/>
<path fill="#FFFFFF" d="M6.5,3.2c0.1,0,0.3,0.1,0.3,0.3c0,0.2-0.1,0.3-0.3,0.3c-0.2,0-0.3-0.1-0.3-0.3C6.2,3.3,6.3,3.2,6.5,3.2"/>
<path fill="#FFFFFF" d="M7.4,3.6c0.2,0,0.3,0.1,0.3,0.3S7.5,4.2,7.4,4.2C7.2,4.2,7.1,4,7.1,3.9C7.1,3.7,7.2,3.6,7.4,3.6"/>
<path fill="#FFFFFF" d="M8.3,3.9c0.2,0,0.3,0.1,0.3,0.3c0,0.2-0.1,0.3-0.3,0.3C8.1,4.5,8,4.4,8,4.2C8,4.1,8.1,3.9,8.3,3.9"/>
<path fill="#FFFFFF" d="M9.2,4.3c0.2,0,0.3,0.1,0.3,0.3c0,0.2-0.1,0.3-0.3,0.3C9,4.9,8.9,4.8,8.9,4.6S9,4.3,9.2,4.3"/>
<path fill="#FFFFFF" d="M10.1,4.7c0.2,0,0.3,0.1,0.3,0.3c0,0.2-0.1,0.3-0.3,0.3C9.9,5.3,9.8,5.2,9.8,5C9.8,4.8,9.9,4.7,10.1,4.7"/>
<polygon fill="#FFFFFF" points="3,2 5.8,2 5.8,2.9 4.9,2.9 4.9,3.9 3.9,3.9 3.9,4.8 3,4.8 "/>
<path fill="#FFFFFF" d="M12.3,9.4L15,6.6h1l-0.9,0.9l-1.9,1.9V15H9.5v-2.8H6.7l2.8-2.8H12.3z M10.4,11.3h0.9v0.9h-0.9v0.9h1.9v-2.8
	h-1.9C10.4,10.4,10.4,11.3,10.4,11.3z"/>
<path fill="#FFFFFF" d="M12.4,7c0,0.8-0.6,1.4-1.4,1.4c-0.8,0-1.4-0.6-1.4-1.4s0.6-1.4,1.4-1.4C11.8,5.6,12.4,6.2,12.4,7"/>
</svg>
