<?xml version="1.0" encoding="utf-8"?>
<!-- Generator: Adobe Illustrator 21.1.0, SVG Export Plug-In . SVG Version: 6.00 Build 0)  -->
<svg version="1.1" id="Layer_1" xmlns="http://www.w3.org/2000/svg" xmlns:xlink="http://www.w3.org/1999/xlink" x="0px" y="0px"
	 width="12px" height="12px" viewBox="0 0 12 12" enable-background="new 0 0 12 12" xml:space="preserve">
<path fill="#FFFFFF" d="M3.9,5.6c0,0.1,0.1,0.2,0.2,0.3c0.1,0,0.3-0.1,0.3-0.2c0-0.1-0.1-0.2-0.2-0.3C4.1,5.4,4,5.5,3.9,5.6"/>
<path fill="#FFFFFF" d="M4.1,5.1c0-0.1-0.1-0.2-0.2-0.3C3.8,4.8,3.7,4.9,3.7,5c0,0.1,0.1,0.2,0.2,0.3C4,5.3,4.1,5.2,4.1,5.1"/>
<path fill="#FFFFFF" d="M3.7,4.2c0.1,0,0.2,0.1,0.2,0.2c0,0.1-0.1,0.2-0.2,0.2c-0.1,0-0.2-0.1-0.2-0.2C3.5,4.3,3.5,4.2,3.7,4.2"/>
<path fill="#FFFFFF" d="M3.4,3.6c0.1,0,0.2,0.1,0.2,0.2C3.6,3.9,3.5,4,3.4,4S3.2,3.9,3.2,3.8C3.2,3.7,3.3,3.6,3.4,3.6"/>
<path fill="#FFFFFF" d="M3.2,3c0.1,0,0.2,0.1,0.2,0.2S3.3,3.4,3.2,3.4C3.1,3.4,3,3.3,3,3.2C3,3.1,3.1,3,3.2,3"/>
<path fill="#FFFFFF" d="M2.9,2.5c0.1,0,0.2,0.1,0.2,0.2c0,0.1-0.1,0.2-0.2,0.2S2.7,2.7,2.7,2.6C2.7,2.5,2.8,2.5,2.9,2.5"/>
<path fill="#FFFFFF" d="M4.8,4.8c0-0.1,0.1-0.2,0.2-0.2c0.1,0,0.2,0.1,0.2,0.2C5.3,4.9,5.2,5,5,5C4.9,5,4.8,4.9,4.8,4.8"/>
<path fill="#FFFFFF" d="M4.7,4.1c0.1,0,0.2,0.1,0.2,0.2c0,0.1-0.1,0.2-0.2,0.2c-0.1,0-0.2-0.1-0.2-0.2C4.5,4.2,4.6,4.1,4.7,4.1"/>
<path fill="#FFFFFF" d="M4.3,3.6c0.1,0,0.2,0.1,0.2,0.2S4.4,4,4.3,4C4.2,4,4.1,3.9,4.1,3.8C4.1,3.7,4.2,3.6,4.3,3.6"/>
<path fill="#FFFFFF" d="M3.9,3.1c0.1,0,0.2,0.1,0.2,0.2c0,0.1-0.1,0.2-0.2,0.2c-0.1,0-0.2-0.1-0.2-0.2C3.7,3.2,3.8,3.1,3.9,3.1"/>
<path fill="#FFFFFF" d="M3.6,2.6c0.1,0,0.2,0.1,0.2,0.2C3.8,2.9,3.7,3,3.6,3C3.5,3,3.4,2.9,3.4,2.8C3.4,2.7,3.5,2.6,3.6,2.6"/>
<path fill="#FFFFFF" d="M3.2,2.2c0.1,0,0.2,0.1,0.2,0.2c0,0.1-0.1,0.2-0.2,0.2C3.1,2.5,3,2.4,3,2.3C3,2.2,3.1,2.2,3.2,2.2"/>
<path fill="#FFFFFF" d="M5.4,3.8c-0.1,0-0.2-0.1-0.2-0.2c0-0.1,0.1-0.2,0.2-0.2c0.1,0,0.2,0.1,0.2,0.2C5.7,3.6,5.6,3.8,5.4,3.8"/>
<path fill="#FFFFFF" d="M5.2,3.2c0,0.1-0.1,0.2-0.2,0.2c-0.1,0-0.2-0.1-0.2-0.2c0-0.1,0.1-0.2,0.2-0.2C5.1,2.9,5.2,3,5.2,3.2"/>
<path fill="#FFFFFF" d="M4.7,2.8C4.7,2.9,4.6,3,4.5,3C4.4,3,4.3,2.9,4.3,2.8c0-0.1,0.1-0.2,0.2-0.2C4.6,2.6,4.7,2.7,4.7,2.8"/>
<path fill="#FFFFFF" d="M4,2.2c0.1,0,0.2,0.1,0.2,0.2S4.1,2.6,4,2.6c-0.1,0-0.2-0.1-0.2-0.2S3.9,2.2,4,2.2"/>
<path fill="#FFFFFF" d="M3.5,1.9c0.1,0,0.2,0.1,0.2,0.2c0,0.1-0.1,0.2-0.2,0.2S3.3,2.2,3.3,2.1C3.3,2,3.4,1.9,3.5,1.9"/>
<path fill="#FFFFFF" d="M3.8,1.6C3.9,1.6,4,1.7,4,1.8S3.9,1.9,3.8,1.9c-0.1,0-0.2-0.1-0.2-0.2C3.6,1.7,3.7,1.6,3.8,1.6"/>
<path fill="#FFFFFF" d="M4.4,1.8c0.1,0,0.2,0.1,0.2,0.2c0,0.1-0.1,0.2-0.2,0.2C4.3,2.2,4.2,2.1,4.2,2C4.2,1.9,4.3,1.8,4.4,1.8"/>
<path fill="#FFFFFF" d="M5,2.1c0.1,0,0.2,0.1,0.2,0.2S5.1,2.5,5,2.5c-0.1,0-0.2-0.1-0.2-0.2C4.8,2.2,4.9,2.1,5,2.1"/>
<path fill="#FFFFFF" d="M5.7,2.3c0.1,0,0.2,0.1,0.2,0.2c0,0.1-0.1,0.2-0.2,0.2S5.5,2.7,5.5,2.6C5.5,2.4,5.5,2.3,5.7,2.3"/>
<path fill="#FFFFFF" d="M6.3,2.6c0.1,0,0.2,0.1,0.2,0.2C6.5,2.9,6.4,3,6.3,3C6.2,3,6.1,2.9,6.1,2.8C6.1,2.7,6.2,2.6,6.3,2.6"/>
<path fill="#FFFFFF" d="M6.9,2.8c0.1,0,0.2,0.1,0.2,0.2S7,3.3,6.9,3.3c-0.1,0-0.2-0.1-0.2-0.2S6.8,2.8,6.9,2.8"/>
<polygon fill="#FFFFFF" points="2,1 3.9,1 3.9,1.6 3.3,1.6 3.3,2.3 2.6,2.3 2.6,2.9 2,2.9 "/>
<path fill="#FFFFFF" d="M8,6.1l3-1.9v0.6L9,6.1V10H6.5V8.1H4.6l1.9-1.9H8z M7.1,7.4h0.6v0.6H7.1v0.6h1.3V6.8H7.1V7.4z"/>
<path fill="#FFFFFF" d="M8.5,4.5c0,0.5-0.4,1-1,1c-0.5,0-1-0.4-1-1s0.4-1,1-1C8,3.5,8.5,4,8.5,4.5"/>
</svg>
