<?xml version="1.0" encoding="utf-8"?>
<!-- Generator: Adobe Illustrator 21.1.0, SVG Export Plug-In . SVG Version: 6.00 Build 0)  -->
<svg version="1.1" id="Layer_1" xmlns="http://www.w3.org/2000/svg" xmlns:xlink="http://www.w3.org/1999/xlink" x="0px" y="0px"
	 width="24px" height="24px" viewBox="0 0 24 24" enable-background="new 0 0 24 24" xml:space="preserve">
<path d="M7.8,12.9c0,0.3,0.2,0.6,0.4,0.6c0.3,0,0.6-0.2,0.6-0.4c0-0.3-0.2-0.6-0.4-0.6C8.1,12.4,7.8,12.6,7.8,12.9"/>
<path d="M8.2,11.7c0-0.3-0.1-0.5-0.4-0.6c-0.3,0-0.5,0.1-0.6,0.4c0,0.3,0.1,0.5,0.4,0.6C7.9,12.1,8.2,11.9,8.2,11.7"/>
<path d="M7.2,9.8c0.3,0,0.5,0.2,0.5,0.5s-0.2,0.5-0.5,0.5s-0.5-0.2-0.5-0.5C6.7,10,6.9,9.8,7.2,9.8"/>
<path d="M6.6,8.5c0.2,0,0.4,0.2,0.4,0.4c0,0.2-0.2,0.4-0.4,0.4c-0.2,0-0.4-0.2-0.4-0.4C6.2,8.7,6.4,8.5,6.6,8.5"/>
<path d="M6.1,7.1c0.2,0,0.4,0.2,0.4,0.4C6.5,7.8,6.3,8,6.1,8C5.8,8,5.7,7.8,5.7,7.6C5.7,7.3,5.8,7.1,6.1,7.1"/>
<path d="M5.5,5.8c0.2,0,0.4,0.2,0.4,0.4S5.7,6.6,5.5,6.6c-0.2,0-0.4-0.2-0.4-0.4C5.1,6,5.3,5.8,5.5,5.8"/>
<path d="M9.7,11c0-0.3,0.3-0.5,0.5-0.5c0.3,0,0.5,0.3,0.5,0.5c0,0.3-0.3,0.5-0.5,0.5C9.9,11.5,9.7,11.3,9.7,11"/>
<path d="M9.4,9.4c0.3,0,0.5,0.2,0.5,0.5c0,0.3-0.2,0.5-0.5,0.5c-0.3,0-0.5-0.2-0.5-0.5C8.9,9.6,9.2,9.4,9.4,9.4"/>
<path d="M8.6,8.4c0.3,0,0.5,0.2,0.5,0.5c0,0.3-0.2,0.5-0.5,0.5c-0.3,0-0.5-0.2-0.5-0.5C8.1,8.6,8.4,8.4,8.6,8.4"/>
<path d="M7.8,7.3c0.2,0,0.4,0.2,0.4,0.4C8.2,8,8,8.2,7.8,8.2C7.5,8.2,7.4,8,7.4,7.7C7.4,7.5,7.6,7.3,7.8,7.3"/>
<path d="M7,6.2c0.2,0,0.4,0.2,0.4,0.4c0,0.2-0.2,0.4-0.4,0.4S6.6,6.9,6.6,6.6C6.6,6.4,6.7,6.2,7,6.2"/>
<path d="M6.2,5.2c0.2,0,0.4,0.2,0.4,0.4C6.6,5.8,6.4,6,6.2,6C5.9,6,5.8,5.8,5.8,5.6C5.8,5.3,5.9,5.2,6.2,5.2"/>
<path d="M11.2,8.7c-0.3,0-0.5-0.2-0.5-0.5c0-0.3,0.2-0.5,0.5-0.5c0.3,0,0.5,0.2,0.5,0.5C11.7,8.5,11.4,8.7,11.2,8.7"/>
<path d="M10.5,7.4c0,0.3-0.2,0.5-0.5,0.5c-0.3,0-0.5-0.2-0.5-0.5c0-0.3,0.2-0.5,0.5-0.5C10.3,6.9,10.5,7.1,10.5,7.4"/>
<path d="M9.4,6.5C9.4,6.8,9.2,7,9,7C8.7,7,8.5,6.8,8.5,6.6c0-0.3,0.2-0.5,0.4-0.5C9.2,6.1,9.4,6.3,9.4,6.5"/>
<path d="M7.9,5.3c0.2,0,0.4,0.2,0.4,0.4c0,0.2-0.2,0.4-0.4,0.4C7.6,6.2,7.5,6,7.5,5.7C7.5,5.5,7.6,5.3,7.9,5.3"/>
<path d="M6.8,4.5c0.2,0,0.4,0.2,0.4,0.4S7,5.3,6.8,5.3S6.4,5.1,6.4,4.9S6.6,4.5,6.8,4.5"/>
<path d="M7.4,3.9c0.2,0,0.4,0.2,0.4,0.4c0,0.2-0.2,0.4-0.4,0.4S7,4.5,7,4.3C7,4.1,7.2,3.9,7.4,3.9"/>
<path d="M8.8,4.5c0.2,0,0.4,0.2,0.4,0.4c0,0.2-0.2,0.4-0.4,0.4c-0.2,0-0.4-0.2-0.4-0.4C8.4,4.6,8.6,4.5,8.8,4.5"/>
<path d="M10.2,5c0.2,0,0.4,0.2,0.4,0.4c0,0.2-0.2,0.4-0.4,0.4c-0.2,0-0.4-0.2-0.4-0.4S10,5,10.2,5"/>
<path d="M11.6,5.6c0.3,0,0.5,0.2,0.5,0.5s-0.2,0.5-0.5,0.5c-0.3,0-0.5-0.2-0.5-0.5C11.2,5.8,11.4,5.6,11.6,5.6"/>
<path d="M13,6.1c0.3,0,0.5,0.2,0.5,0.5c0,0.3-0.2,0.5-0.5,0.5c-0.3,0-0.5-0.2-0.5-0.5C12.6,6.3,12.8,6.1,13,6.1"/>
<polygon points="4,4 5,4 5,3 8,3 8,4 7,4 7,5 6,5 6,6 5,6 5,7 4,7 "/>
<path d="M15,10c0,1.1-0.9,2-2,2c-1.1,0-2-0.9-2-2s0.9-2,2-2C14.1,8,15,8.9,15,10"/>
<path d="M14.8,13l5.4-5.4L21,8.4v0.8L16,14v6h-5v-3H8v-1.6l2.2-2.4L14.8,13L14.8,13z M12,15h1v2h-1v1h2v-4h-2C12,14,12,15,12,15z"/>
</svg>
