<?xml version="1.0" encoding="UTF-8" standalone="no"?>
<svg width="24px" height="24px" viewBox="0 0 24 24" version="1.1" xmlns="http://www.w3.org/2000/svg" xmlns:xlink="http://www.w3.org/1999/xlink" xmlns:sketch="http://www.bohemiancoding.com/sketch/ns">
    <!-- Generator: Sketch 3.3.3 (12072) - http://www.bohemiancoding.com/sketch -->
    <title>sign-black-24</title>
    <desc>Created with Sketch.</desc>
    <defs></defs>
    <g id="sign" stroke="none" stroke-width="1" fill="none" fill-rule="evenodd" sketch:type="MSPage">
        <g id="sign-black-24" sketch:type="MSArtboardGroup" fill="#000000">
            <path d="M13,13 L13,19 L14,19 L14,20 L10,20 L10,19 L11,19 L11,19 L11,13 L5.00087166,13 C4.4481055,13 4,12.5536886 4,12.0024554 L4,4.99754465 C4,4.44661595 4.44463086,4 5.00087166,4 L11,4 C11,3.44769743 11.4438648,3 12,3 C12.5522847,3 13,3.45470893 13,3.9999602 L18.9991283,4 C19.5518945,4 20,4.4463114 20,4.99754465 L20,12.0024554 C20,12.553384 19.5553691,13 18.9991283,13 L13,13 Z M6,6 L18,6 L18,7 L6,7 L6,6 Z M6,8 L18,8 L18,9 L6,9 L6,8 Z M6,10 L18,10 L18,11 L6,11 L6,10 Z" id="symbol" sketch:type="MSShapeGroup"></path>
        </g>
    </g>
</svg>