<?xml version="1.0" encoding="utf-8"?>
<!-- Generator: Adobe Illustrator 21.1.0, SVG Export Plug-In . SVG Version: 6.00 Build 0)  -->
<svg version="1.1" id="Layer_1" xmlns:sketch="http://www.bohemiancoding.com/sketch/ns"
	 xmlns="http://www.w3.org/2000/svg" xmlns:xlink="http://www.w3.org/1999/xlink" x="0px" y="0px" width="24px" height="24px"
	 viewBox="0 0 24 24" enable-background="new 0 0 24 24" xml:space="preserve">
<path fill="#FFFFFF" d="M19,4l-5.5,0c0-0.5-0.4-1-1-1c-0.6,0-1,0.4-1,1H6C5.4,4,5,4.4,5,5v7c0,0.6,0.4,1,1,1h5.5v6h-1v1h4v-1h-1v-6
	H19c0.6,0,1-0.4,1-1V5C20,4.4,19.6,4,19,4z M18,11H7v-1h11V11z M18,9H7V8h11V9z M18,7H7V6h11V7z"/>
</svg>
