<?xml version="1.0" encoding="utf-8"?>
<!-- Generator: Adobe Illustrator 21.1.0, SVG Export Plug-In . SVG Version: 6.00 Build 0)  -->
<svg version="1.1" id="Layer_1" xmlns:sketch="http://www.bohemiancoding.com/sketch/ns"
	 xmlns="http://www.w3.org/2000/svg" xmlns:xlink="http://www.w3.org/1999/xlink" x="0px" y="0px" width="18px" height="18px"
	 viewBox="0 0 18 18" enable-background="new 0 0 18 18" xml:space="preserve">
<path fill="#FFFFFF" d="M14,3h-3.5v0c0-0.6-0.4-1-1-1c-0.6,0-1,0.4-1,1v0H5C4.5,3,4,3.4,4,4v5c0,0.6,0.4,1,1,1h3.5v4h-1v1h4v-1h-1
	v-4H14c0.5,0,1-0.4,1-1V4C15,3.4,14.6,3,14,3z M13,8H6V7h7V8z M13,6H6V5h7V6z"/>
</svg>
