<?xml version="1.0" encoding="UTF-8" standalone="no"?>
<svg width="18px" height="18px" viewBox="0 0 18 18" version="1.1" xmlns="http://www.w3.org/2000/svg" xmlns:xlink="http://www.w3.org/1999/xlink" xmlns:sketch="http://www.bohemiancoding.com/sketch/ns">
    <!-- Generator: Sketch 3.3.3 (12072) - http://www.bohemiancoding.com/sketch -->
    <title>sign-black-18</title>
    <desc>Created with Sketch.</desc>
    <defs></defs>
    <g id="sign" stroke="none" stroke-width="1" fill="none" fill-rule="evenodd" sketch:type="MSPage">
        <g id="sign-black-18" sketch:type="MSArtboardGroup" fill="#000000">
            <path d="M10,10 L10,14 L11,14 L11,15 L7,15 L7,14 L8,14 L8,14 L8,10 L4.00247329,10 C3.44882258,10 3,9.56211865 3,8.99707067 L3,4.00292933 C3,3.44902676 3.45576096,3 4.00247329,3 L8,3 L8,2.99850233 C8,2.44704472 8.44386482,2 9,2 C9.55228475,2 10,2.44748943 10,2.99850233 L10,3 L13.9975267,3 C14.5511774,3 15,3.43788135 15,4.00292933 L15,8.99707067 C15,9.55097324 14.544239,10 13.9975267,10 L10,10 L10,10 Z M5,5 L13,5 L13,6 L5,6 L5,5 Z M5,7 L13,7 L13,8 L5,8 L5,7 Z" id="symbol" sketch:type="MSShapeGroup"></path>
        </g>
    </g>
</svg>