<?xml version="1.0" encoding="utf-8"?>
<!-- Generator: Adobe Illustrator 21.1.0, SVG Export Plug-In . SVG Version: 6.00 Build 0)  -->
<svg version="1.1" id="Layer_1" xmlns="http://www.w3.org/2000/svg" xmlns:xlink="http://www.w3.org/1999/xlink" x="0px" y="0px"
	 width="18px" height="18px" viewBox="0 0 18 18" enable-background="new 0 0 18 18" xml:space="preserve">
<g id="icons">
	<path fill="#FFFFFF" d="M15.6,12.3L14,12v-1h-1v-1l-0.3-0.5l0,0l-4.5-2c0,0-3-4.5-3.3-4.5c-0.4,0-0.9,0.4-0.9,0.8
		c0,0.1-0.1,0.3,0,0.4l2.4,3.4l0.4,0.6l0.6,1l0.3,0.6l4.6,1.8l0.3,0.1h0l0.7,0.8l1,0.5h1.7C16,13.1,16,13,16,12.9
		C16,12.6,15.9,12.4,15.6,12.3"/>
	<path fill="#FFFFFF" d="M12.8,13.4L3.5,9.7L3,10l9.7,4.1c0.2,0,1-0.2,1.4-0.4v-0.5C13.5,13.6,12.8,13.4,12.8,13.4"/>
	<path fill="#FFFFFF" d="M14.2,10.4c-0.6,0-1-0.5-1-1V8.6c0-0.6,0.5-1,1-1H15c0.6,0,1,0.5,1,1v0.8c0,0.6-0.5,1-1,1H14.2z"/>
</g>
</svg>
