<?xml version="1.0" encoding="utf-8"?>
<!-- Generator: Adobe Illustrator 21.1.0, SVG Export Plug-In . SVG Version: 6.00 Build 0)  -->
<svg version="1.1" id="Layer_1" xmlns="http://www.w3.org/2000/svg" xmlns:xlink="http://www.w3.org/1999/xlink" x="0px" y="0px"
	 width="12px" height="12px" viewBox="0 0 12 12" enable-background="new 0 0 12 12" xml:space="preserve">
<path fill="#FFFFFF" d="M10.8,8.2L9.6,7.7L9.1,7.4V6.8L8.7,6.2l0,0L8.4,5.9L5.6,4.8c0,0-2.1-3.8-2.3-3.8C3,1,2.5,1.4,2.5,1.8
	c0,0.1,0.1,0.6,0.1,0.7l1.9,2.8L5,6l0.2,0.1l1.3,0.8l1.3,0.5l0.7,0.3l0.2,0.1h0l0.2,0.3l0.3,0.3l0.1,0.1l0.7,0.3l1.1,0.1
	C11,8.7,11,8.6,11,8.5C11,8.4,10.9,8.2,10.8,8.2"/>
<path fill="#FFFFFF" d="M8.8,8.9L8.4,8.7L7.8,8.5L5.2,7.4L2.4,6.3L2,6.5L8.7,10c0.1,0,0.7-0.8,1-0.9V8.7C9.3,9,8.8,8.9,8.8,8.9"/>
<path fill="#FFFFFF" d="M9.7,7C9.3,7,9,6.7,9,6.3V5.7C9,5.4,9.3,5,9.7,5h0.5C10.7,5,11,5.4,11,5.7v0.5C11,6.7,10.7,7,10.3,7"/>
</svg>
