<?xml version="1.0" encoding="utf-8"?>
<!-- Generator: Adobe Illustrator 21.1.0, SVG Export Plug-In . SVG Version: 6.00 Build 0)  -->
<svg version="1.1" id="Layer_1" xmlns="http://www.w3.org/2000/svg" xmlns:xlink="http://www.w3.org/1999/xlink" x="0px" y="0px"
	 width="24px" height="24px" viewBox="0 0 24 24" enable-background="new 0 0 24 24" xml:space="preserve">
<path fill="#FFFFFF" d="M20.5,16.8l-2.2-0.9L16.7,13c0,0-0.1-0.3-0.6-0.5l-5.3-2.1L7.6,5C7.4,4.7,7,4.2,6.6,4.2
	c-0.6,0-1.1,0.8-1.1,1.4c0,0.2,0.1,0.4,0.2,0.5l3.9,6.7l-2.1-0.8H6.9l-0.4,0.2l10,3.9h0l0.6,0.9c0.1,0.1,0.2,0.2,0.4,0.3l1.2,0.5
	c-0.8,0.8-1.9,0.5-1.9,0.5l-0.3-0.1h-0.2V18L5.1,13.4H4.4L4,13.7l12.7,5c1.5,0.5,2.7-0.8,2.7-0.8v0l0.6,0.2c0.1,0,0.1,0,0.2,0
	c0.4,0,0.7-0.3,0.7-0.7C21,17.1,20.8,16.9,20.5,16.8"/>
<path fill="#FFFFFF" d="M21,12.5c0,0.8-0.7,1.5-1.5,1.5c-0.8,0-1.5-0.7-1.5-1.5c0-0.8,0.7-1.5,1.5-1.5C20.3,11,21,11.7,21,12.5"/>
</svg>
