<?xml version="1.0" encoding="utf-8"?>
<!-- Generator: Adobe Illustrator 21.1.0, SVG Export Plug-In . SVG Version: 6.00 Build 0)  -->
<svg version="1.1" id="Layer_1" xmlns="http://www.w3.org/2000/svg" xmlns:xlink="http://www.w3.org/1999/xlink" x="0px" y="0px"
	 width="18px" height="18px" viewBox="0 0 18 18" enable-background="new 0 0 18 18" xml:space="preserve">
<rect x="3" y="13" fill="#FFFFFF" width="5" height="1"/>
<polygon fill="#FFFFFF" points="15,12 15,13 10,13 10,14 15,14 16,13 16,12 "/>
<polygon fill="#FFFFFF" points="14,11 15,11 15,9 14,9 14,8 12.3,7.6 11.8,7.6 11.4,6.6 10.4,6.6 10,7 10.9,7.6 11.4,8.5 11.4,9.4 
	10.4,9.4 9.5,9.4 8.6,8.5 10,8 10,7 8.6,7 8.6,5.7 8.1,5.7 7.6,5.7 6.7,5.7 6.7,9.4 4.9,9.4 3.9,12 13.2,12 "/>
<rect x="7" y="3" fill="#FFFFFF" width="2" height="2"/>
</svg>
