<?xml version="1.0" encoding="utf-8"?>
<!-- Generator: Adobe Illustrator 21.1.0, SVG Export Plug-In . SVG Version: 6.00 Build 0)  -->
<svg version="1.1" id="Layer_1" xmlns="http://www.w3.org/2000/svg" xmlns:xlink="http://www.w3.org/1999/xlink" x="0px" y="0px"
	 width="12px" height="12px" viewBox="0 0 12 12" enable-background="new 0 0 12 12" xml:space="preserve">
<g id="icons">
	<rect x="2" y="8" width="3" height="1"/>
	<polygon points="10,7 10,8 6,8 6,9 10,9 11,8 11,7 	"/>
	<polygon points="9.7,6.4 10.4,6.4 10.4,5.1 9.7,5.1 9.7,4.5 8.4,4.5 8.4,3.9 8.1,3.9 7.8,3.2 7.1,3.2 7.1,3.9 7.5,3.9 7.8,4.5 
		7.8,5.1 7.1,5.1 6.5,5.1 5.9,4.5 7.1,4.5 7.1,3.9 5.9,3.9 6,3 4.6,3 4.6,5.1 3.3,5.1 2.6,7 9.1,7 	"/>
	<rect x="5" y="2" width="1" height="1"/>
</g>
</svg>
