<?xml version="1.0" encoding="utf-8"?>
<!-- Generator: Adobe Illustrator 21.1.0, SVG Export Plug-In . SVG Version: 6.00 Build 0)  -->
<svg version="1.1" id="Layer_1" xmlns="http://www.w3.org/2000/svg" xmlns:xlink="http://www.w3.org/1999/xlink" x="0px" y="0px"
	 width="24px" height="24px" viewBox="0 0 24 24" enable-background="new 0 0 24 24" xml:space="preserve">
<rect x="4" y="17.7" width="6.2" height="0.8"/>
<polygon points="19.5,17.7 11.7,17.7 11.7,18.5 19.5,18.5 21,16.9 21,16.1 "/>
<polygon points="16.4,16.9 20.2,13.8 18.7,11.5 15.6,11.5 14.8,9.2 14,9.2 14.8,11.5 14.8,12.3 14,13 13.3,13 11.7,12.3 11.7,11.5 
	13.3,11.5 14,10.7 13.3,10 11.7,10 11.7,8.4 11,8.4 10.2,8.4 10.2,7.6 9.4,7.6 9.4,8.4 8.6,8.4 8.6,13 7.1,13 6.3,13.8 4.8,16.1 
	5.5,16.9 "/>
<circle cx="11" cy="6" r="1.5"/>
</svg>
