<?xml version="1.0" encoding="UTF-8" standalone="no"?>
<svg width="24px" height="24px" viewBox="0 0 24 24" version="1.1" xmlns="http://www.w3.org/2000/svg" xmlns:xlink="http://www.w3.org/1999/xlink" xmlns:sketch="http://www.bohemiancoding.com/sketch/ns">
    <!-- Generator: Sketch 3.3.3 (12072) - http://www.bohemiancoding.com/sketch -->
    <title>souvenir-black-24</title>
    <desc>Created with Sketch.</desc>
    <defs></defs>
    <g id="souvenir-shop" stroke="none" stroke-width="1" fill="none" fill-rule="evenodd" sketch:type="MSPage">
        <g id="souvenir-black-24" sketch:type="MSArtboardGroup" fill="#000000">
            <path d="M9.41886117,6 L7.9955775,6 C7.44483697,6 7,6.45078007 7,7.00684547 L7,18.9931545 C7,19.5500512 7.44573523,20 7.9955775,20 L17.0044225,20 C17.555163,20 18,19.5492199 18,18.9931545 L18,7.00684547 C18,6.44994876 17.5542648,6 17.0044225,6 L15.5811388,6 L15.5811388,6 L15.6581139,5.97434165 C15.9200855,5.88701776 16.0616655,5.60385778 15.9743416,5.34188612 C15.8870178,5.07991446 15.6038578,4.93833446 15.3418861,5.02565835 L14.3512296,5.35587719 L14.8535534,4.85355339 C15.0488155,4.65829124 15.0488155,4.34170876 14.8535534,4.14644661 C14.6582912,3.95118446 14.3417088,3.95118446 14.1464466,4.14644661 L13,5.29289322 L13,3.49044323 C13,3.21494281 12.7761424,3 12.5,3 C12.2319336,3 12,3.21957891 12,3.49044323 L12,5.29289322 L10.8535534,4.14644661 C10.6582912,3.95118446 10.3417088,3.95118446 10.1464466,4.14644661 C9.95118446,4.34170876 9.95118446,4.65829124 10.1464466,4.85355339 L10.6487704,5.35587719 L9.65811388,5.02565835 C9.39614222,4.93833446 9.11298224,5.07991446 9.02565835,5.34188612 C8.93833446,5.60385778 9.07991446,5.88701776 9.34188612,5.97434165 L9.41886117,6 Z M8.5,12 L8.5,7.5 L12,7.5 L12,7.5 L12,12 L8.5,12 L8.5,12 Z M8.5,13 L8.5,18.5 L12,18.5 L12,13 L8.5,13 L8.5,13 Z M16.5,12 L16.5,7.5 L13,7.5 L13,12 L16.5,12 L16.5,12 Z M16.5,13 L16.5,18.5 L13,18.5 L13,13 L16.5,13 Z" id="symbol" sketch:type="MSShapeGroup"></path>
        </g>
    </g>
</svg>