<?xml version="1.0" encoding="utf-8"?>
<!-- Generator: Adobe Illustrator 21.1.0, SVG Export Plug-In . SVG Version: 6.00 Build 0)  -->
<svg version="1.1" id="Layer_1" xmlns:sketch="http://www.bohemiancoding.com/sketch/ns"
	 xmlns="http://www.w3.org/2000/svg" xmlns:xlink="http://www.w3.org/1999/xlink" x="0px" y="0px" width="12px" height="12px"
	 viewBox="0 0 12 12" enable-background="new 0 0 12 12" xml:space="preserve">
<path d="M9,3H8.6l0.1-0.1C9,2.8,9.1,2.5,8.9,2.3C8.8,2,8.5,1.9,8.3,2.1L7,2.7V1.5C7,1.2,6.8,1,6.5,1S6,1.2,6,1.5v1.2L4.7,2.1
	C4.5,1.9,4.2,2,4.1,2.3C3.9,2.5,4,2.8,4.3,2.9L4.4,3H4C3.4,3,3,3.4,3,4v5c0,0.6,0.4,1,1,1h5c0.6,0,1-0.4,1-1V4C10,3.4,9.6,3,9,3z
	 M6,9H4V7h2V9z M6,6H4V4h2V6z M9,9H7V7h2V9z M9,6H7V4h2V6z"/>
</svg>
