<?xml version="1.0" encoding="utf-8"?>
<!-- Generator: Adobe Illustrator 21.1.0, SVG Export Plug-In . SVG Version: 6.00 Build 0)  -->
<svg version="1.1" id="Layer_1" xmlns:sketch="http://www.bohemiancoding.com/sketch/ns"
	 xmlns="http://www.w3.org/2000/svg" xmlns:xlink="http://www.w3.org/1999/xlink" x="0px" y="0px" width="24px" height="24px"
	 viewBox="0 0 24 24" enable-background="new 0 0 24 24" xml:space="preserve">
<path fill="#FFFFFF" d="M17,6h-1.4h0.1C16,5.9,16.1,5.6,16,5.4c-0.1-0.3-0.4-0.4-0.6-0.3l-1,0.3l0.5-0.5c0.2-0.2,0.2-0.5,0-0.7
	s-0.5-0.2-0.7,0L13,5.3V3.5C13,3.2,12.8,3,12.5,3S12,3.2,12,3.5v1.8l-1.1-1.1c-0.2-0.2-0.5-0.2-0.7,0s-0.2,0.5,0,0.7l0.5,0.5L9.7,5
	C9.4,4.9,9.1,5.1,9,5.3C8.9,5.6,9.1,5.9,9.3,6h0.1H8C7.4,6,7,6.5,7,7v12c0,0.6,0.4,1,1,1h9c0.6,0,1-0.5,1-1V7C18,6.4,17.6,6,17,6z
	 M12,18.5H8.5V13H12V18.5z M12,12H8.5V7.5H12V12z M16.5,18.5H13V13h3.5V18.5z M16.5,12H13V7.5h3.5V12z"/>
</svg>
