<?xml version="1.0" encoding="UTF-8" standalone="no"?>
<svg width="18px" height="18px" viewBox="0 0 18 18" version="1.1" xmlns="http://www.w3.org/2000/svg" xmlns:xlink="http://www.w3.org/1999/xlink" xmlns:sketch="http://www.bohemiancoding.com/sketch/ns">
    <!-- Generator: Sketch 3.3.3 (12072) - http://www.bohemiancoding.com/sketch -->
    <title>souvenir-white-18</title>
    <desc>Created with Sketch.</desc>
    <defs></defs>
    <g id="souvenir-shop" stroke="none" stroke-width="1" fill="none" fill-rule="evenodd" sketch:type="MSPage">
        <g id="souvenir-white-18" sketch:type="MSArtboardGroup" fill="#FFFFFF">
            <path d="M8.29289322,5 L5.99754465,5 C5.4463114,5 5,5.44565467 5,5.99539757 L5,14.0046024 C5,14.5443356 5.44661595,15 5.99754465,15 L13.0024554,15 C13.5536886,15 14,14.5543453 14,14.0046024 L14,5.99539757 C14,5.4556644 13.553384,5 13.0024554,5 L10.7071068,5 L10.7071068,5 L11.8535534,3.85355339 C12.0488155,3.65829124 12.0488155,3.34170876 11.8535534,3.14644661 C11.6582912,2.95118446 11.3417088,2.95118446 11.1464466,3.14644661 L10,4.29289322 L10,2.49374104 C10,2.22563934 9.77614237,2 9.5,2 C9.23193359,2 9,2.22105539 9,2.49374104 L9,4.29289322 L7.85355339,3.14644661 C7.65829124,2.95118446 7.34170876,2.95118446 7.14644661,3.14644661 C6.95118446,3.34170876 6.95118446,3.65829124 7.14644661,3.85355339 L8.29289322,5 Z M9,10 L9,14 L6,14 L6,6 L9,6 L9,6 L9,9 L6,9 L6,10 L9,10 L9,10 Z M10,10 L10,14 L13,14 L13,6 L10,6 L10,9 L13,9 L13,10 L10,10 Z" id="symbol" sketch:type="MSShapeGroup"></path>
        </g>
    </g>
</svg>