<?xml version="1.0" encoding="UTF-8" standalone="no"?>
<svg width="12px" height="12px" viewBox="0 0 12 12" version="1.1" xmlns="http://www.w3.org/2000/svg" xmlns:xlink="http://www.w3.org/1999/xlink" xmlns:sketch="http://www.bohemiancoding.com/sketch/ns">
    <!-- Generator: Sketch 3.3.3 (12072) - http://www.bohemiancoding.com/sketch -->
    <title>souvenir-black-12</title>
    <desc>Created with Sketch.</desc>
    <defs></defs>
    <g id="souvenir-shop" stroke="none" stroke-width="1" fill="none" fill-rule="evenodd" sketch:type="MSPage">
        <g id="souvenir-black-12" sketch:type="MSArtboardGroup" fill="#000000">
            <path d="M4.38196601,3 L4.00292933,3 C3.43788135,3 3,3.44902676 3,4.00292933 L3,8.99707067 C3,9.56211865 3.44902676,10 4.00292933,10 L8.99707067,10 C9.56211865,10 10,9.55097324 10,8.99707067 L10,4.00292933 C10,3.43788135 9.55097324,3 8.99707067,3 L8.61803399,3 L8.61803399,3 L8.7236068,2.9472136 C8.97059605,2.82371897 9.07070822,2.52338245 8.9472136,2.2763932 C8.82371897,2.02940395 8.52338245,1.92929178 8.2763932,2.0527864 L7,2.69098301 L7,1.50966585 C7,1.22247314 6.77614237,1 6.5,1 C6.23193359,1 6,1.22818517 6,1.50966585 L6,2.69098301 L4.7236068,2.0527864 C4.47661755,1.92929178 4.17628103,2.02940395 4.0527864,2.2763932 C3.92929178,2.52338245 4.02940395,2.82371897 4.2763932,2.9472136 L4.38196601,3 Z M6,7 L6,9 L4,9 L4,4 L6,4 L6,4 L6,6 L4,6 L4,7 L6,7 L6,7 Z M7,7 L7,9 L9,9 L9,4 L7,4 L7,4 L7,6 L9,6 L9,7 L7,7 L7,7 Z" id="symbol" sketch:type="MSShapeGroup"></path>
        </g>
    </g>
</svg>