<?xml version="1.0" encoding="utf-8"?>
<!-- Generator: Adobe Illustrator 21.1.0, SVG Export Plug-In . SVG Version: 6.00 Build 0)  -->
<svg version="1.1" id="Layer_1" xmlns:sketch="http://www.bohemiancoding.com/sketch/ns"
	 xmlns="http://www.w3.org/2000/svg" xmlns:xlink="http://www.w3.org/1999/xlink" x="0px" y="0px" width="18px" height="18px"
	 viewBox="0 0 18 18" enable-background="new 0 0 18 18" xml:space="preserve">
<path d="M13,5h-2.3l1.1-1.1c0.2-0.2,0.2-0.5,0-0.7s-0.5-0.2-0.7,0L10,4.3V2.5C10,2.2,9.8,2,9.5,2S9,2.2,9,2.5v1.8L7.9,3.1
	C7.7,3,7.3,3,7.1,3.1C7,3.3,7,3.7,7.1,3.9L8.3,5H6C5.4,5,5,5.4,5,6v8c0,0.5,0.4,1,1,1h7c0.6,0,1-0.4,1-1V6C14,5.5,13.6,5,13,5z
	 M9,14H6v-4h3V14z M9,9H6V6h3V9z M13,14h-3v-4h3V14z M13,9h-3V6h3V9z"/>
</svg>
