<?xml version="1.0" encoding="utf-8"?>
<!-- Generator: Adobe Illustrator 21.1.0, SVG Export Plug-In . SVG Version: 6.00 Build 0)  -->
<svg version="1.1" id="Layer_1" xmlns="http://www.w3.org/2000/svg" xmlns:xlink="http://www.w3.org/1999/xlink" x="0px" y="0px"
	 width="12px" height="12px" viewBox="0 0 12 12" enable-background="new 0 0 12 12" xml:space="preserve">
<path fill="#FFFFFF" d="M7.6,3.1H6.8C5.8,3.2,3.3,4.6,3,4.8C2.5,5.1,2.2,5.6,2.7,5.9s4,0.6,3.8,1.3C6.3,8.1,3.1,9.8,2.2,10h6.4
	c0,0,2-1.7,2.2-2.2c0.4-1.2-0.4-1.7-1.5-1.9C8.1,5.7,6.2,5.4,6,5.2S5.3,4.9,5.5,4.7C6.4,3.8,7.6,3.4,7.6,3.1z"/>
<g>
	<path fill="#FFFFFF" d="M6.7,3.1c0-0.3-0.2-0.7-0.5-0.9c-0.6-0.3-1.5-0.3-2.1,0L3.6,1.4c0.9-0.5,2.2-0.5,3.1,0c0.6,0.4,1,1,1,1.7
		L6.7,3.1z"/>
</g>
<g>
	<path fill="#FFFFFF" d="M7.7,3.1l-1-0.1c0-0.7,0.4-1.4,1-1.7c0.9-0.5,2.2-0.5,3.1,0l-0.5,0.9c-0.6-0.3-1.5-0.3-2.1,0
		C7.8,2.4,7.7,2.8,7.7,3.1z"/>
</g>
</svg>
