<?xml version="1.0" encoding="utf-8"?>
<!-- Generator: Adobe Illustrator 21.1.0, SVG Export Plug-In . SVG Version: 6.00 Build 0)  -->
<svg version="1.1" id="Layer_1" xmlns="http://www.w3.org/2000/svg" xmlns:xlink="http://www.w3.org/1999/xlink" x="0px" y="0px"
	 width="18px" height="18px" viewBox="0 0 18 18" enable-background="new 0 0 18 18" xml:space="preserve">
<g>
	<path fill="#FFFFFF" d="M11.6,5.1h-1c0-1.4,0.6-2.4,1.6-2.8c1.2-0.5,2.7-0.1,3.8,1.1l-0.7,0.7c-0.9-0.9-2-1.2-2.8-0.9
		C11.9,3.4,11.6,4.1,11.6,5.1z"/>
</g>
<g>
	<path fill="#FFFFFF" d="M11.6,5.1h-1c0-1-0.4-1.7-1-1.9c-0.8-0.3-1.9,0-2.8,0.9L6.1,3.3c1.2-1.2,2.7-1.6,3.9-1.1
		C11,2.7,11.6,3.7,11.6,5.1z"/>
</g>
<path fill="#FFFFFF" d="M13.2,9.1c-1.6-0.3-4.3-0.8-4.6-1C8.2,7.9,7.8,7.6,8,7.4c1.3-1.3,2.5-1.9,3.5-2.3h-1c-1,0.1-1.9,0.4-2.4,0.5
	C5,6.6,4.5,7,4.1,7.5C3.6,8,3,8.6,3.7,9.1c0.7,0.5,5.8,0.8,5.5,1.9C8.9,12.2,4.4,14.6,3,15h9.2c0,0,3-2.5,3.2-3.2
	C15.9,10,14.8,9.4,13.2,9.1z"/>
</svg>
