<?xml version="1.0" encoding="utf-8"?>
<!-- Generator: Adobe Illustrator 18.1.1, SVG Export Plug-In . SVG Version: 6.00 Build 0)  -->
<svg version="1.1" id="Layer_1" xmlns="http://www.w3.org/2000/svg" xmlns:xlink="http://www.w3.org/1999/xlink" x="0px" y="0px"
	 viewBox="0 0 24 24" enable-background="new 0 0 24 24" xml:space="preserve">
<path d="M20,6.967V4.708C20,3.765,19.443,3,18.5,3S17,3.757,17,4.7v2.267c-1,0.097-3.211,0.532-3.863,0.679
	C8.989,8.579,6.035,9.875,5.5,10.17c-0.871,0.48-1.462,1.462-0.502,2.181s7.615,1.049,7.195,2.548C11.773,16.397,5.798,19.58,4,20
	h12.077c0,0,3.871-3.255,4.15-4.143c0.719-2.294-0.719-3.177-2.877-3.596c-2.158-0.42-5.634-1.019-6.054-1.259
	c-0.42-0.24-0.845-0.638-0.516-0.956C12.517,8.365,19,7.461,20,6.967z"/>
</svg>
