<?xml version="1.0" encoding="utf-8"?>
<!-- Generator: Adobe Illustrator 18.1.1, SVG Export Plug-In . SVG Version: 6.00 Build 0)  -->
<svg version="1.1" id="Layer_1" xmlns="http://www.w3.org/2000/svg" xmlns:xlink="http://www.w3.org/1999/xlink" x="0px" y="0px"
	 viewBox="0 0 12 12" enable-background="new 0 0 12 12" xml:space="preserve">
<path d="M10,3.1V1.904C10,1.405,9.999,1,9.5,1S9,1.401,9,1.9v1.2C8,3.151,7.241,3.382,6.896,3.459C4.7,3.953,3.107,4.64,2.823,4.796
	C2.362,5.05,2.035,5.57,2.543,5.95s4.024,0.555,3.802,1.349C6.122,8.092,2.952,9.778,2,10h6.394c0,0,2.049-1.723,2.197-2.193
	c0.381-1.214-0.381-1.682-1.523-1.904C7.925,5.681,6.084,5.363,5.862,5.236C5.64,5.109,5.179,4.899,5.354,4.73
	C6.274,3.84,10,3.362,10,3.1z"/>
</svg>
