<?xml version="1.0" encoding="utf-8"?>
<!-- Generator: Adobe Illustrator 21.1.0, SVG Export Plug-In . SVG Version: 6.00 Build 0)  -->
<svg version="1.1" id="Layer_1" xmlns="http://www.w3.org/2000/svg" xmlns:xlink="http://www.w3.org/1999/xlink" x="0px" y="0px"
	 width="24px" height="24px" viewBox="0 0 24 24" enable-background="new 0 0 24 24" xml:space="preserve">
<path fill="#FFFFFF" d="M16.1,6.3l-0.8-0.3c-1,0.1-2.3,0.8-3,1c-4,2-5.9,2.9-6.5,3.2c-0.9,0.5-1.5,1.5-0.5,2.2c1,0.7,7.6,1,7.2,2.5
	c-0.4,1.5-6.4,4.7-8.2,5.1h12c0,0,3.9-3.2,4.1-4.1c0.7-2.3-0.7-3.2-2.9-3.6c-2.1-0.4-5.6-1-6-1.3c-0.4-0.2-0.8-0.6-0.5-1
	C12.8,8.4,15.1,6.8,16.1,6.3z"/>
<g>
	<path fill="#FFFFFF" d="M16.1,6.3h-1c0-1.2-0.3-2-0.9-2.3c-0.7-0.3-1.9,0.2-2.9,1.3l-0.7-0.7c1.4-1.4,2.9-1.9,4-1.5
		C15.3,3.4,16.1,4.2,16.1,6.3z"/>
</g>
<g>
	<path fill="#FFFFFF" d="M16.1,6.3h-1c0-2.1,0.8-2.9,1.5-3.2c1.1-0.5,2.6,0.1,4,1.5l-0.7,0.7c-1-1-2.2-1.5-2.9-1.3
		C16.5,4.3,16.1,5.1,16.1,6.3z"/>
</g>
</svg>
