<?xml version="1.0" encoding="utf-8"?>
<!-- Generator: Adobe Illustrator 21.1.0, SVG Export Plug-In . SVG Version: 6.00 Build 0)  -->
<svg version="1.1" id="Layer_1" xmlns="http://www.w3.org/2000/svg" xmlns:xlink="http://www.w3.org/1999/xlink" x="0px" y="0px"
	 width="24px" height="24px" viewBox="0 0 24 24" enable-background="new 0 0 24 24" xml:space="preserve">
<polygon points="6,9 6,20 20.6,20 20.6,18.5 7.5,18.5 7.5,9.2 "/>
<polygon points="4.4,9.2 4.4,10.3 20.6,4.2 20.6,3 "/>
<polygon points="9.8,10.7 9.8,11.5 9,11.5 9,13.8 9.8,13.8 9.8,12.3 10.6,12.3 10.6,13 9.8,14.6 9.8,17.7 10.6,17.7 10.6,14.6 
	11.3,14.6 12.1,17.7 12.9,17.7 12.1,13.8 15.2,13.8 15.2,17.7 16,17.7 16,13 18.3,10 19.8,10.7 19.8,10 18.3,8.4 18.3,7.6 
	15.2,10.7 "/>
</svg>
