<?xml version="1.0" encoding="utf-8"?>
<!-- Generator: Adobe Illustrator 21.1.0, SVG Export Plug-In . SVG Version: 6.00 Build 0)  -->
<svg version="1.1" id="Layer_1" xmlns="http://www.w3.org/2000/svg" xmlns:xlink="http://www.w3.org/1999/xlink" x="0px" y="0px"
	 width="18px" height="18px" viewBox="0 0 18 18" enable-background="new 0 0 18 18" xml:space="preserve">
<polygon points="3.5,6.6 3.5,7.6 15.5,2.9 15.5,2 "/>
<polygon points="5.3,14.1 5.3,6.6 4.4,6.6 4.4,15 15.5,15 15.5,14.1 "/>
<polygon points="7.2,13.1 8.1,13.1 8.1,12.2 8.1,10.4 9,11.3 9,12.2 9,13.1 10,13.1 10,11.3 9,10.4 11.8,10.4 11.8,13.1 12.8,13.1 
	12.8,9.4 13.7,7.6 15.5,7.6 13.7,5.7 10.9,8.5 7.2,8.5 "/>
</svg>
