<?xml version="1.0" encoding="utf-8"?>
<!-- Generator: Adobe Illustrator 21.1.0, SVG Export Plug-In . SVG Version: 6.00 Build 0)  -->
<svg version="1.1" id="Layer_1" xmlns="http://www.w3.org/2000/svg" xmlns:xlink="http://www.w3.org/1999/xlink" x="0px" y="0px"
	 width="12px" height="12px" viewBox="0 0 12 12" enable-background="new 0 0 12 12" xml:space="preserve">
<polygon fill="#FFFFFF" points="2.3,4.2 2.3,4.9 10.7,1.6 10.7,1 "/>
<polygon fill="#FFFFFF" points="4,9 4,4 3,5 3,10 10.7,10 10.7,9 "/>
<polygon fill="#FFFFFF" points="4.9,8.7 5.5,8.7 5.5,8.1 5.5,6.8 6.2,7.4 6.2,8.1 6.2,8.7 6.8,8.7 6.8,7.4 6.2,6.8 8.1,6.8 8.1,8.7 
	8.8,8.7 8.8,6.1 9.4,4.9 10.7,4.9 9.4,3.6 7.5,5.5 4.9,5.5 "/>
</svg>
