<?xml version="1.0" encoding="utf-8"?>
<!-- Generator: Adobe Illustrator 21.1.0, SVG Export Plug-In . SVG Version: 6.00 Build 0)  -->
<svg version="1.1" id="Layer_1" xmlns="http://www.w3.org/2000/svg" xmlns:xlink="http://www.w3.org/1999/xlink" x="0px" y="0px"
	 width="24px" height="24px" viewBox="0 0 24 24" enable-background="new 0 0 24 24" xml:space="preserve">
<path d="M19.5,10c0,0-0.6,2.3-3.1,2.3C16.4,12.3,16.2,10.6,19.5,10"/>
<path d="M17.1,14.1c0.4-0.4,1-0.7,1.6-0.7c1.3,0,2.3,1,2.3,2.3l0,0.1h0c0,0.5-0.2,1.1-0.6,1.9c0,0-0.6,1.2-1.1,1.8l0,0
	c-0.2,0.3-0.6,0.4-1,0.4c-0.5,0-0.9-0.4-1.1-0.8C16.9,19.6,16.5,20,16,20c-0.4,0-0.7-0.2-1-0.4l0,0c-0.5-0.6-1.1-1.8-1.1-1.8
	c-0.4-0.8-0.5-1.4-0.6-1.9h0l0-0.1c0-1.3,1-2.3,2.3-2.3C16.2,13.4,16.7,13.6,17.1,14.1"/>
<polygon points="7,3 10,3 10,4.5 7,4.5 "/>
<path d="M9.4,5.3H6.3C6.3,5.3,4,6.8,4,7v12c0,0.3,0.7,1,1,1h6c0.3,0,1-0.7,1-1V7C12,7,11.4,5.5,9.4,5.3 M7,7v3l-2,1V8L7,7z"/>
</svg>
