<?xml version="1.0" encoding="utf-8"?>
<!-- Generator: Adobe Illustrator 21.1.0, SVG Export Plug-In . SVG Version: 6.00 Build 0)  -->
<svg version="1.1" id="Layer_1" xmlns="http://www.w3.org/2000/svg" xmlns:xlink="http://www.w3.org/1999/xlink" x="0px" y="0px"
	 width="18px" height="18px" viewBox="0 0 18 18" enable-background="new 0 0 18 18" xml:space="preserve">
<path fill="#FFFFFF" d="M13,10.5c0.3-0.3,0.8-0.5,1.2-0.5c1,0,1.8,0.8,1.8,1.8l0,0.1h0c0,0.4-0.2,0.9-0.4,1.4c0,0-0.5,0.9-0.9,1.4
	l0,0c-0.2,0.2-0.5,0.3-0.8,0.3c-0.4,0-0.7-0.2-0.9-0.4h0c-0.2,0.3-0.5,0.4-0.9,0.4c-0.3,0-0.6-0.1-0.8-0.3l0,0
	c-0.4-0.4-0.9-1.4-0.9-1.4c-0.3-0.6-0.4-1.1-0.4-1.4h0l0-0.1c0-1,0.8-1.8,1.8-1.8C12.2,9.9,12.7,10.1,13,10.5"/>
<path fill="#FFFFFF" d="M8,3.9H5L4,5H3v10h6V5L8,3.9z M5,9H4V6h1V9z"/>
<rect x="5" y="2" fill="#FFFFFF" width="3" height="1"/>
<polygon fill="#FFFFFF" points="12.3,9.4 12.3,8.5 13.2,7.6 14.1,6.6 15.1,6.6 15.1,7.6 13.2,9.4 "/>
</svg>
