<?xml version="1.0" encoding="utf-8"?>
<!-- Generator: Adobe Illustrator 21.1.0, SVG Export Plug-In . SVG Version: 6.00 Build 0)  -->
<svg version="1.1" id="Layer_1" xmlns="http://www.w3.org/2000/svg" xmlns:xlink="http://www.w3.org/1999/xlink" x="0px" y="0px"
	 width="12px" height="12px" viewBox="0 0 12 12" enable-background="new 0 0 12 12" xml:space="preserve">
<path fill="#FFFFFF" d="M8.9,6.9c0.2-0.2,0.5-0.4,0.9-0.4c0.7,0,1.2,0.5,1.2,1.2v0.1h0c0,0.3-0.1,0.6-0.3,1c0,0-0.3,0.7-0.6,1l0,0
	C9.9,9.9,9.7,10,9.5,10c-0.2,0-0.5-0.1-0.6-0.3h0C8.8,9.9,8.6,10,8.3,10c-0.2,0-0.4-0.1-0.5-0.2l0,0c-0.3-0.3-0.6-1-0.6-1
	c-0.2-0.4-0.3-0.7-0.3-1h0l0-0.1c0-0.7,0.5-1.2,1.2-1.2C8.4,6.5,8.7,6.6,8.9,6.9"/>
<path fill="#FFFFFF" d="M8.9,6.9c0.2-0.2,0.5-0.4,0.9-0.4c0.7,0,1.2,0.5,1.2,1.2v0.1h0c0,0.3-0.1,0.6-0.3,1c0,0-0.3,0.7-0.6,1l0,0
	C9.9,9.9,9.7,10,9.5,10c-0.2,0-0.5-0.1-0.6-0.3h0C8.8,9.9,8.6,10,8.3,10c-0.2,0-0.4-0.1-0.5-0.2l0,0c-0.3-0.3-0.6-1-0.6-1
	c-0.2-0.4-0.3-0.7-0.3-1h0l0-0.1c0-0.7,0.5-1.2,1.2-1.2C8.4,6.5,8.7,6.6,8.9,6.9"/>
<path fill="#FFFFFF" d="M5.2,2.3H3.8L3,3H2v7h4V3L5.2,2.3z M4,5H3V4h1V5z"/>
<rect x="3.5" y="1" fill="#FFFFFF" width="1.9" height="0.6"/>
<polygon fill="#FFFFFF" points="8.4,6.1 8.4,5.5 9.1,4.9 9.7,4.2 10.4,4.2 10.4,4.9 9.1,6.1 "/>
</svg>
