<?xml version="1.0" encoding="utf-8"?>
<!-- Generator: Adobe Illustrator 21.1.0, SVG Export Plug-In . SVG Version: 6.00 Build 0)  -->
<svg version="1.1" id="Layer_1" xmlns="http://www.w3.org/2000/svg" xmlns:xlink="http://www.w3.org/1999/xlink" x="0px" y="0px"
	 width="12px" height="12px" viewBox="0 0 12 12" enable-background="new 0 0 12 12" xml:space="preserve">
<polygon points="10,8.1 9.4,8.4 8.7,8.4 7.4,7.8 6.8,7.8 5.5,8.4 4.9,8.4 3.6,7.8 2.9,7.8 1.6,8.4 1,8.4 1,9 1.6,9 2.9,8.4 3.6,8.4 
	4.9,9 5.5,9 6.8,8.4 7.4,8.4 8.7,9 9.4,9 10,8.7 10,8.4 "/>
<polygon points="1.6,7.1 7.4,7.1 6.1,4.5 6.1,3.9 8.1,3.2 8.7,2.6 8.1,2 4.2,3.2 4.9,5.2 "/>
<path d="M9.4,4.9c0,0.5-0.4,1-1,1c-0.5,0-1-0.4-1-1c0-0.5,0.4-1,1-1C8.9,3.9,9.4,4.3,9.4,4.9"/>
</svg>
