<?xml version="1.0" encoding="utf-8"?>
<!-- Generator: Adobe Illustrator 21.1.0, SVG Export Plug-In . SVG Version: 6.00 Build 0)  -->
<svg version="1.1" id="Layer_1" xmlns="http://www.w3.org/2000/svg" xmlns:xlink="http://www.w3.org/1999/xlink" x="0px" y="0px"
	 width="18px" height="18px" viewBox="0 0 18 18" enable-background="new 0 0 18 18" xml:space="preserve">
<polygon fill="#FFFFFF" points="16,12.2 15.1,12.7 14.1,12.7 12.3,11.8 11.4,11.8 9.5,12.7 8.6,12.7 6.7,11.8 5.8,11.8 3.9,12.7 
	3,12.7 3,13.6 3.9,13.6 5.8,12.7 6.7,12.7 8.6,13.6 9.5,13.6 11.4,12.7 12.3,12.7 14.1,13.6 15.1,13.6 16,13.1 16,12.7 "/>
<polygon fill="#FFFFFF" points="3.9,10.8 12.3,10.8 10.4,7.1 10.4,6.2 13.2,5.2 14.1,4.3 13.2,3.4 7.6,5.2 8.6,8 "/>
<path fill="#FFFFFF" d="M15.1,7.6c0,0.8-0.6,1.4-1.4,1.4c-0.8,0-1.4-0.6-1.4-1.4s0.6-1.4,1.4-1.4C14.4,6.2,15.1,6.8,15.1,7.6"/>
</svg>
