<?xml version="1.0" encoding="utf-8"?>
<!-- Generator: Adobe Illustrator 21.1.0, SVG Export Plug-In . SVG Version: 6.00 Build 0)  -->
<svg version="1.1" id="Layer_1" xmlns="http://www.w3.org/2000/svg" xmlns:xlink="http://www.w3.org/1999/xlink" x="0px" y="0px"
	 width="24px" height="24px" viewBox="0 0 24 24" enable-background="new 0 0 24 24" xml:space="preserve">
<path d="M12.9,3C12.1,3.1,9.1,4.4,9,11.3c-0.1,7.2,3.1,8.7,3.9,8.7v-4.6c-0.7,0-0.9-0.8-1-2.3c-0.1-1-0.1-1.9,0-3.1
	c0.1-0.9,0.3-2.3,1-2.3V3z"/>
<polygon points="13.7,3 15.2,3 16,3.8 16,6.9 15.2,7.6 13.7,7.6 "/>
<polygon points="13.7,15.4 15.2,15.4 16,16.1 16,19.2 15.2,20 13.7,20 "/>
</svg>
