<?xml version="1.0" encoding="utf-8"?>
<!-- Generator: Adobe Illustrator 21.1.0, SVG Export Plug-In . SVG Version: 6.00 Build 0)  -->
<svg version="1.1" id="Layer_1" xmlns="http://www.w3.org/2000/svg" xmlns:xlink="http://www.w3.org/1999/xlink" x="0px" y="0px"
	 width="18px" height="18px" viewBox="0 0 18 18" enable-background="new 0 0 18 18" xml:space="preserve">
<path d="M9.8,2c-0.6,0.1-2.9,1.1-3,6.3c-0.1,5.5,2.3,6.7,3,6.7v-3.5c-0.5,0-0.7-0.6-0.8-1.8C8.9,8.9,8.9,8.2,9,7.3
	c0.1-0.7,0.2-1.8,0.8-1.8V2z"/>
<polygon points="10.4,2 11.6,2 12.2,2.6 12.2,5 11.6,5.5 10.4,5.5 "/>
<polygon points="10.4,11.5 11.6,11.5 12.2,12 12.2,14.4 11.6,15 10.4,15 "/>
</svg>
