<?xml version="1.0" encoding="utf-8"?>
<!-- Generator: Adobe Illustrator 21.1.0, SVG Export Plug-In . SVG Version: 6.00 Build 0)  -->
<svg version="1.1" id="Layer_1" xmlns="http://www.w3.org/2000/svg" xmlns:xlink="http://www.w3.org/1999/xlink" x="0px" y="0px"
	 width="12px" height="12px" viewBox="0 0 12 12" enable-background="new 0 0 12 12" xml:space="preserve">
<path d="M5.5,1C5.1,1,3.6,1.8,3.6,5.4c0,3.8,1.5,4.6,1.9,4.6V7.4C5.1,7.4,5,7.1,5,6.3c-0.1-0.5-0.1-1,0-1.6C5,4.2,5.1,3.6,5.5,3.6V1
	z"/>
<polygon points="6.1,7.4 6.8,7.4 7.4,8.1 7.4,9.4 6.8,10 6.1,10 "/>
<polygon points="6.1,1 6.8,1 7.4,1.6 7.4,2.9 6.8,3.6 6.1,3.6 "/>
</svg>
