<?xml version="1.0" encoding="utf-8"?>
<!-- Generator: Adobe Illustrator 21.1.0, SVG Export Plug-In . SVG Version: 6.00 Build 0)  -->
<svg version="1.1" id="Layer_1" xmlns:sketch="http://www.bohemiancoding.com/sketch/ns"
	 xmlns="http://www.w3.org/2000/svg" xmlns:xlink="http://www.w3.org/1999/xlink" x="0px" y="0px" width="24px" height="24px"
	 viewBox="0 0 24 24" enable-background="new 0 0 24 24" xml:space="preserve">
<polygon fill="#FFFFFF" points="4,3 21,3 21,10 4,5 "/>
<rect x="20" y="17" fill="#FFFFFF" width="1" height="3"/>
<rect x="18" y="16" fill="#FFFFFF" width="3" height="1"/>
<rect x="16" y="15" fill="#FFFFFF" width="1" height="4"/>
<rect x="17" y="18" fill="#FFFFFF" width="2" height="1"/>
<rect x="18" y="14" fill="#FFFFFF" width="2" height="2"/>
<circle fill="#FFFFFF" cx="19" cy="12" r="1"/>
<rect x="14" y="15" fill="#FFFFFF" width="1" height="3"/>
<rect x="12" y="14" fill="#FFFFFF" width="3" height="1"/>
<rect x="10" y="13" fill="#FFFFFF" width="1" height="4"/>
<rect x="11" y="16" fill="#FFFFFF" width="2" height="1"/>
<rect x="12" y="12" fill="#FFFFFF" width="2" height="2"/>
<circle fill="#FFFFFF" cx="13" cy="10" r="1"/>
<rect x="8" y="13" fill="#FFFFFF" width="1" height="3"/>
<rect x="6" y="12" fill="#FFFFFF" width="3" height="1"/>
<rect x="4" y="11" fill="#FFFFFF" width="1" height="4"/>
<rect x="5" y="14" fill="#FFFFFF" width="2" height="1"/>
<rect x="6" y="10" fill="#FFFFFF" width="2" height="2"/>
<circle fill="#FFFFFF" cx="7" cy="8" r="1"/>
</svg>
