<?xml version="1.0" encoding="UTF-8" standalone="no"?>
<svg width="18px" height="18px" viewBox="0 0 18 18" version="1.1" xmlns="http://www.w3.org/2000/svg" xmlns:xlink="http://www.w3.org/1999/xlink" xmlns:sketch="http://www.bohemiancoding.com/sketch/ns">
    <!-- Generator: Sketch 3.3.3 (12072) - http://www.bohemiancoding.com/sketch -->
    <title>theater-white-18</title>
    <desc>Created with Sketch.</desc>
    <defs></defs>
    <g id="theater" stroke="none" stroke-width="1" fill="none" fill-rule="evenodd" sketch:type="MSPage">
        <g id="theater-white-18" sketch:type="MSArtboardGroup" fill="#FFFFFF">
            <path d="M3,2 L16,2 L16,6 L3,3 L3,2 Z M14,13 L15,13 L15,15 L14,15 L14,13 Z M12,12 L15,12 L15,13 L12,13 L12,12 Z M12,10 L14,10 L14,12 L12,12 L12,10 Z M13,9 C13.5522847,9 14,8.55228475 14,8 C14,7.44771525 13.5522847,7 13,7 C12.4477153,7 12,7.44771525 12,8 C12,8.55228475 12.4477153,9 13,9 Z M10,12 L11,12 L11,14 L10,14 L10,12 Z M8,11 L11,11 L11,12 L8,12 L8,11 Z M8,9 L10,9 L10,11 L8,11 L8,9 Z M9,8 C9.55228475,8 10,7.55228475 10,7 C10,6.44771525 9.55228475,6 9,6 C8.44771525,6 8,6.44771525 8,7 C8,7.55228475 8.44771525,8 9,8 Z M6,11 L7,11 L7,13 L6,13 L6,11 Z M4,10 L7,10 L7,11 L4,11 L4,10 Z M4,8 L6,8 L6,10 L4,10 L4,8 Z M5,7 C5.55228475,7 6,6.55228475 6,6 C6,5.44771525 5.55228475,5 5,5 C4.44771525,5 4,5.44771525 4,6 C4,6.55228475 4.44771525,7 5,7 Z" id="symbol" sketch:type="MSShapeGroup"></path>
        </g>
    </g>
</svg>