<?xml version="1.0" encoding="UTF-8" standalone="no"?>
<svg width="24px" height="24px" viewBox="0 0 24 24" version="1.1" xmlns="http://www.w3.org/2000/svg" xmlns:xlink="http://www.w3.org/1999/xlink" xmlns:sketch="http://www.bohemiancoding.com/sketch/ns">
    <!-- Generator: Sketch 3.3.3 (12072) - http://www.bohemiancoding.com/sketch -->
    <title>theater-white-24</title>
    <desc>Created with Sketch.</desc>
    <defs></defs>
    <g id="theater" stroke="none" stroke-width="1" fill="none" fill-rule="evenodd" sketch:type="MSPage">
        <g id="theater-white-24" sketch:type="MSArtboardGroup" fill="#FFFFFF">
            <path d="M4,3 L21,3 L21,10 L4,5 L4,3 Z M20,17 L21,17 L21,20 L20,20 L20,17 Z M18,16 L21,16 L21,17 L18,17 L18,16 Z M16,15 L17,15 L17,19 L16,19 L16,15 Z M17,18 L19,18 L19,19 L17,19 L17,18 Z M18,14 L20,14 L20,16 L18,16 L18,14 Z M19,13 C19.5522847,13 20,12.5522847 20,12 C20,11.4477153 19.5522847,11 19,11 C18.4477153,11 18,11.4477153 18,12 C18,12.5522847 18.4477153,13 19,13 Z M14,15 L15,15 L15,18 L14,18 L14,15 Z M12,14 L15,14 L15,15 L12,15 L12,14 Z M10,13 L11,13 L11,17 L10,17 L10,13 Z M11,16 L13,16 L13,17 L11,17 L11,16 Z M12,12 L14,12 L14,14 L12,14 L12,12 Z M13,11 C13.5522847,11 14,10.5522847 14,10 C14,9.44771525 13.5522847,9 13,9 C12.4477153,9 12,9.44771525 12,10 C12,10.5522847 12.4477153,11 13,11 Z M8,13 L9,13 L9,16 L8,16 L8,13 Z M6,12 L9,12 L9,13 L6,13 L6,12 Z M4,11 L5,11 L5,15 L4,15 L4,11 Z M5,14 L7,14 L7,15 L5,15 L5,14 Z M6,10 L8,10 L8,12 L6,12 L6,10 Z M7,9 C7.55228475,9 8,8.55228475 8,8 C8,7.44771525 7.55228475,7 7,7 C6.44771525,7 6,7.44771525 6,8 C6,8.55228475 6.44771525,9 7,9 Z" id="symbol" sketch:type="MSShapeGroup"></path>
        </g>
    </g>
</svg>