<?xml version="1.0" encoding="UTF-8" standalone="no"?>
<svg width="12px" height="12px" viewBox="0 0 12 12" version="1.1" xmlns="http://www.w3.org/2000/svg" xmlns:xlink="http://www.w3.org/1999/xlink" xmlns:sketch="http://www.bohemiancoding.com/sketch/ns">
    <!-- Generator: Sketch 3.3.3 (12072) - http://www.bohemiancoding.com/sketch -->
    <title>theater-black-12</title>
    <desc>Created with Sketch.</desc>
    <defs></defs>
    <g id="theater" stroke="none" stroke-width="1" fill="none" fill-rule="evenodd" sketch:type="MSPage">
        <g id="theater-black-12" sketch:type="MSArtboardGroup" fill="#000000">
            <path d="M11,1 L11,4 L2,1 L11,1 Z M9,8 L10,8 L10,10 L9,10 L9,8 Z M8,7 L9,7 L9,9 L8,9 L8,7 Z M8,5 L9,5 L9,6 L8,6 L8,5 Z M6,7 L7,7 L7,9 L6,9 L6,7 Z M5,6 L6,6 L6,8 L5,8 L5,6 Z M5,4 L6,4 L6,5 L5,5 L5,4 Z M3,6 L4,6 L4,8 L3,8 L3,6 Z M2,5 L3,5 L3,7 L2,7 L2,5 Z M2,3 L3,3 L3,4 L2,4 L2,3 Z" id="symbol" sketch:type="MSShapeGroup"></path>
        </g>
    </g>
</svg>