<?xml version="1.0" encoding="utf-8"?>
<!-- Generator: Adobe Illustrator 21.1.0, SVG Export Plug-In . SVG Version: 6.00 Build 0)  -->
<svg version="1.1" id="Layer_1" xmlns="http://www.w3.org/2000/svg" xmlns:xlink="http://www.w3.org/1999/xlink" x="0px" y="0px"
	 width="24px" height="24px" viewBox="0 0 24 24" enable-background="new 0 0 24 24" xml:space="preserve">
<path d="M9.5,5.9c0.1-0.2-0.1-0.4-0.3-0.5L8.1,5.2c-0.2,0-0.4,0.1-0.5,0.3L6.7,9.3C6.7,9.5,6.8,9.7,7,9.8L8.1,10
	c0.2,0.1,0.4-0.1,0.5-0.3L9.5,5.9z"/>
<path d="M7.5,18.9l0,0.2c0,0.5,0.4,0.9,0.9,0.9c0.4,0,0.8-0.3,0.9-0.7l1.6-6.7l1.5,6.6c0.1,0.4,0.5,0.7,0.9,0.7
	c0.5,0,0.9-0.4,0.9-0.9c0-0.1,0-0.1,0-0.2L12.2,10l0.2-0.8l0.1,0.6c0.1,0.4,0.5,0.4,0.5,0.4l2.2,0.6l0.1,0c0.4,0,0.6-0.3,0.6-0.6
	c0-0.3-0.2-0.6-0.5-0.6l-1.9-0.5L13,7c-0.3-0.9-1.7-0.9-1.7-0.9c-0.6,0-1,0.9-1,0.9L7.5,18.9z"/>
<path d="M12.8,5.3h-0.6c-0.5,0-0.9-0.4-0.9-0.9V3.9c0-0.5,0.4-0.9,0.9-0.9h0.6c0.5,0,0.9,0.4,0.9,0.9v0.6
	C13.7,4.9,13.3,5.3,12.8,5.3"/>
<rect x="17.3" y="6.9" width="0.9" height="13.1"/>
</svg>
