<?xml version="1.0" encoding="utf-8"?>
<!-- Generator: Adobe Illustrator 21.1.0, SVG Export Plug-In . SVG Version: 6.00 Build 0)  -->
<svg version="1.1" id="Layer_1" xmlns="http://www.w3.org/2000/svg" xmlns:xlink="http://www.w3.org/1999/xlink" x="0px" y="0px"
	 width="12px" height="12px" viewBox="0 0 12 12" enable-background="new 0 0 12 12" xml:space="preserve">
<path fill="#FFFFFF" d="M2.9,9.4l0,0.1c0,0.3,0.2,0.5,0.5,0.5c0.2,0,0.4-0.2,0.5-0.4l0.9-3.5l0.8,3.5C5.6,9.8,5.8,10,6.1,10
	c0.3,0,0.5-0.2,0.5-0.5l0-0.1L5.4,4.7l0.1-0.4l0.1,0.3c0.1,0.2,0.3,0.2,0.3,0.2L7,5.2l0.1,0c0.2,0,0.3-0.2,0.3-0.3
	c0-0.2-0.1-0.3-0.3-0.3l-1-0.3L5.9,3.1C5.7,2.5,5.2,2.5,5.2,2.5c-0.6,0-0.7,0.6-0.7,0.6L2.9,9.4z"/>
<rect x="5.2" y="1" fill="#FFFFFF" width="1.3" height="1.3"/>
<polygon fill="#FFFFFF" points="3.2,4.9 2,4.9 2,2.3 3.9,2.3 3.2,2.9 "/>
<rect x="8" y="3" fill="#FFFFFF" width="1" height="7"/>
</svg>
