<?xml version="1.0" encoding="utf-8"?>
<!-- Generator: Adobe Illustrator 18.1.1, SVG Export Plug-In . SVG Version: 6.00 Build 0)  -->
<svg version="1.1" id="Layer_1" xmlns="http://www.w3.org/2000/svg" xmlns:xlink="http://www.w3.org/1999/xlink" x="0px" y="0px"
	 viewBox="0 0 24 24" enable-background="new 0 0 24 24" xml:space="preserve">
<path fill="#FFFFFF" d="M14.045,8.409H12.5c-0.813,0-0.813,1.545,0,1.545h2.318c0.173,0,0.773-1.545,0.773-1.545v10.818
	c0,0.423,0.358,0.773,0.781,0.773s0.765-0.342,0.765-0.765v-6.19h0.773v6.182c0,0.423,0.358,0.773,0.781,0.773
	c0.423,0,0.765-0.342,0.765-0.765V8.409h0.773v3.864c0,0.821,0.386,0.869,0.773,0V7.636c0-0.906-1.255-0.773-2.318-0.773h-2.318
	c-0.612,0-1.232,0.294-1.545,0.773L14.045,8.409z"/>
<path fill="#FFFFFF" d="M6.318,15.364c1.228,0,2.318,1.09,2.318,2.318V20h1.545l2.711-6.847l0.012-2.262l-7.946,0.004l-0.185,4.469
	H6.318z"/>
<path fill="#FFFFFF" d="M11.439,7.473L11.439,7.473l-0.314,0.153l-0.149-0.31l0,0l-0.31,0.149l-0.149-0.31l0,0l-0.31,0.149
	l-0.153-0.31h0.004L9.744,7.146L9.596,6.833v0.004l-0.31,0.149L9.137,6.667L8.195,9.352C8.118,9.57,8.235,9.811,8.452,9.884
	l1.522,0.527c0.217,0.076,0.455-0.04,0.531-0.258L11.439,7.473z"/>
<rect x="7.018" y="3.622" transform="matrix(0.7642 0.645 -0.645 0.7642 6.6413 -2.9135)" fill="#FFFFFF" width="0.574" height="8.007"/>
<circle fill="#FFFFFF" cx="17.909" cy="4.545" r="1.545"/>
<path fill="#FFFFFF" d="M5.932,16.136C4.865,16.136,4,17.001,4,18.068C4,19.135,4.865,20,5.932,20s1.932-0.865,1.932-1.932
	C7.864,17.001,6.999,16.136,5.932,16.136z M5.932,19.227c-0.64,0-1.159-0.519-1.159-1.159s0.519-1.159,1.159-1.159
	s1.159,0.519,1.159,1.159S6.572,19.227,5.932,19.227z"/>
</svg>
