<?xml version="1.0" encoding="utf-8"?>
<!-- Generator: Adobe Illustrator 18.1.1, SVG Export Plug-In . SVG Version: 6.00 Build 0)  -->
<svg version="1.1" id="Layer_1" xmlns="http://www.w3.org/2000/svg" xmlns:xlink="http://www.w3.org/1999/xlink" x="0px" y="0px"
	 viewBox="0 0 18 18" enable-background="new 0 0 18 18" xml:space="preserve">
<polygon points="16,4.786 12.285,4.786 12.285,5.714 12.285,9.429 12.285,14.071 13.214,14.071 13.214,9.429 14.142,9.429 
	14.142,14.071 15.071,14.071 15.071,9.429 16,9.429 "/>
<path d="M14.368,3.857h-0.452c-0.388,0-0.703-0.315-0.703-0.703V2.702C13.214,2.315,13.528,2,13.916,2h0.452
	c0.388,0,0.703,0.315,0.703,0.702v0.452C15.071,3.542,14.756,3.857,14.368,3.857z"/>
<path d="M4.773,10.526c0.939,0,1.773,0.834,1.773,1.773v1.773h1.182L9.8,8.835l0.009-1.73L3.733,7.108l-0.142,3.418H4.773z"/>
<rect x="5.308" y="1.547" transform="matrix(0.7642 0.645 -0.645 0.7642 4.2762 -2.4783)" width="0.439" height="6.123"/>
<path d="M4.477,11.117C3.661,11.117,3,11.778,3,12.594c0,0.816,0.661,1.477,1.477,1.477s1.477-0.661,1.477-1.477
	C5.954,11.778,5.293,11.117,4.477,11.117z M4.477,13.481c-0.49,0-0.886-0.397-0.886-0.886c0-0.49,0.397-0.886,0.886-0.886
	s0.886,0.397,0.886,0.886C5.364,13.084,4.967,13.481,4.477,13.481z"/>
<polygon points="12.285,4.786 10.428,5.714 8.571,4.786 8.571,5.714 10.583,6.63 12.285,5.714 "/>
<rect x="7" y="5.071" width="0.929" height="0.929"/>
</svg>
