<?xml version="1.0" encoding="utf-8"?>
<!-- Generator: Adobe Illustrator 18.1.1, SVG Export Plug-In . SVG Version: 6.00 Build 0)  -->
<svg version="1.1" id="Layer_1" xmlns="http://www.w3.org/2000/svg" xmlns:xlink="http://www.w3.org/1999/xlink" x="0px" y="0px"
	 viewBox="0 0 12 12" enable-background="new 0 0 12 12" xml:space="preserve">
<polygon fill="#FFFFFF" points="11,2.929 8.429,2.929 8.429,3.572 8.429,6.143 8.429,9.357 9.071,9.357 9.071,6.143 9.714,6.143 
	9.714,9.357 10.357,9.357 10.357,6.143 11,6.143 "/>
<path fill="#FFFFFF" d="M9.871,2.286H9.558c-0.269,0-0.486-0.218-0.486-0.487V1.486C9.071,1.218,9.289,1,9.558,1h0.313
	c0.269,0,0.486,0.218,0.486,0.486v0.313C10.357,2.068,10.139,2.286,9.871,2.286z"/>
<path fill="#FFFFFF" d="M3.227,6.903c0.65,0,1.227,0.577,1.227,1.227v1.227h0.818l1.435-3.625l0.006-1.198L2.507,4.537L2.409,6.903
	H3.227z"/>
<rect x="3.598" y="0.686" transform="matrix(0.7642 0.645 -0.645 0.7642 2.6943 -1.7569)" fill="#FFFFFF" width="0.304" height="4.239"/>
<path fill="#FFFFFF" d="M3.023,7.312C2.458,7.312,2,7.77,2,8.335C2,8.9,2.458,9.357,3.023,9.357S4.045,8.9,4.045,8.335
	C4.045,7.77,3.588,7.312,3.023,7.312z M3.023,8.948c-0.339,0-0.614-0.275-0.614-0.614c0-0.339,0.275-0.614,0.614-0.614
	s0.614,0.275,0.614,0.614C3.636,8.674,3.362,8.948,3.023,8.948z"/>
<polygon fill="#FFFFFF" points="8.429,2.929 7.143,3.572 5.857,2.929 5.857,3.572 7.25,4.205 8.429,3.572 "/>
<rect x="4.769" y="3.126" fill="#FFFFFF" width="0.643" height="0.643"/>
</svg>
