<?xml version="1.0" encoding="utf-8"?>
<!-- Generator: Adobe Illustrator 21.1.0, SVG Export Plug-In . SVG Version: 6.00 Build 0)  -->
<svg version="1.1" id="Layer_1" xmlns="http://www.w3.org/2000/svg" xmlns:xlink="http://www.w3.org/1999/xlink" x="0px" y="0px"
	 width="24px" height="24px" viewBox="0 0 24 24" enable-background="new 0 0 24 24" xml:space="preserve">
<path d="M14,8.4h-1.5c-0.8,0-0.8,1.5,0,1.5h2.3C15,10,16,9,16,9l-0.4,10.2c0,0.4,0.4,0.8,0.8,0.8s0.6-0.6,0.6-1v-6h1v6
	c0,0.4,0.3,1,0.7,1s0.8-0.3,0.8-0.8V8.4h0.8v3.9c0,0.8,0.4,0.6,0.8-0.3V8c0-0.9-1.3-1.1-2.3-1.1h-2.3c-0.6,0-1.2,0.3-1.5,0.8L14,8.4
	z"/>
<path d="M6.3,15.4c1.2,0,2.3,1.1,2.3,2.3V20h1.5l2.7-6.8L13,11H5v4.4C5,15.4,6.3,15.4,6.3,15.4z"/>
<path d="M11.4,7.5L11.4,7.5l-0.3,0.2L11,7.3l0,0l-0.3,0.1l-0.1-0.3l0,0l-0.3,0.1L10.1,7h0L9.7,7.1L9.6,6.8v0L9.3,7L9.1,6.7L8.2,9.4
	c-0.1,0.2,0,0.5,0.3,0.5l1.5,0.5c0.2,0.1,0.5,0,0.5-0.3L11.4,7.5z"/>
<rect x="3.3" y="7.3" transform="matrix(0.645 -0.7642 0.7642 0.645 -3.234 8.2898)" width="8" height="0.6"/>
<circle cx="18" cy="4.5" r="1.5"/>
<path d="M5.9,16.1C4.9,16.1,4,17,4,18.1C4,19.1,4.9,20,5.9,20s1.9-0.9,1.9-1.9C7.9,17,7,16.1,5.9,16.1z M5.9,19.2
	c-0.6,0-1.2-0.5-1.2-1.2s0.5-1.2,1.2-1.2s1.2,0.5,1.2,1.2S6.6,19.2,5.9,19.2z"/>
</svg>
