<?xml version="1.0" encoding="utf-8"?>
<!-- Generator: Adobe Illustrator 21.1.0, SVG Export Plug-In . SVG Version: 6.00 Build 0)  -->
<svg version="1.1" id="Layer_1" xmlns="http://www.w3.org/2000/svg" xmlns:xlink="http://www.w3.org/1999/xlink" x="0px" y="0px"
	 width="12px" height="12px" viewBox="0 0 12 12" enable-background="new 0 0 12 12" xml:space="preserve">
<polygon fill="#FFFFFF" points="11,3 8,3 8,6 8,10 9,10 9,7 10,7 10,10 11,10 11,6.1 "/>
<path fill="#FFFFFF" d="M9.7,3H9.3C8.8,3,8.5,2.7,8.5,2.2V1.8C8.5,1.3,8.8,1,9.3,1h0.5c0.4,0,0.8,0.3,0.8,0.8v0.5
	C10.5,2.7,10.2,3,9.7,3z"/>
<path fill="#FFFFFF" d="M3.2,7.5c0.6,0,1.2,0.6,1.2,1.2V10h0.8l1.4-3.6l0-1.2l-4.2,0L2.4,7.5H3.2z"/>
<rect x="1.6" y="2.7" transform="matrix(0.645 -0.7642 0.7642 0.645 -0.8127 3.8622)" fill="#FFFFFF" width="4.2" height="0.3"/>
<path fill="#FFFFFF" d="M3,8C2.5,8,2,8.4,2,9s0.5,1,1,1s1-0.5,1-1S3.6,8,3,8z M3,9.6C2.7,9.6,2.4,9.3,2.4,9c0-0.3,0.3-0.6,0.6-0.6
	S3.6,8.6,3.6,9C3.6,9.3,3.4,9.6,3,9.6z"/>
<polygon fill="#FFFFFF" points="8,3 7.1,3.6 5.9,2.9 5.9,3.6 7.2,4.2 8,3.6 "/>
<rect x="4.8" y="3.1" fill="#FFFFFF" width="0.6" height="0.6"/>
</svg>
