<?xml version="1.0" encoding="utf-8"?>
<!-- Generator: Adobe Illustrator 21.1.0, SVG Export Plug-In . SVG Version: 6.00 Build 0)  -->
<svg version="1.1" id="Layer_1" xmlns="http://www.w3.org/2000/svg" xmlns:xlink="http://www.w3.org/1999/xlink" x="0px" y="0px"
	 width="18px" height="18px" viewBox="0 0 18 18" enable-background="new 0 0 18 18" xml:space="preserve">
<polygon fill="#FFFFFF" points="16,4.8 12.3,4.8 12,5.7 12,9.4 12,15 13,15 13,10 14,10 14,15 15,15 15,9 16,9 "/>
<path fill="#FFFFFF" d="M14.4,3.9h-0.5c-0.4,0-0.7-0.3-0.7-0.7V2.7c0-0.4,0.3-0.7,0.7-0.7h0.5c0.4,0,0.7,0.3,0.7,0.7v0.5
	C15.1,3.5,14.8,3.9,14.4,3.9z"/>
<path fill="#FFFFFF" d="M4.8,10.5c0.9,0,1.8,0.8,1.8,1.8V15h1.2l2.1-6.2l0-1.7l-6.1,0l-0.1,3.4H4.8z"/>
<rect x="2.5" y="4.4" transform="matrix(0.645 -0.7642 0.7642 0.645 -1.5595 5.8605)" fill="#FFFFFF" width="6.1" height="0.4"/>
<path fill="#FFFFFF" d="M4.5,12C3.7,12,3,12.7,3,13.5S3.7,15,4.5,15S6,14.3,6,13.5C6,12.7,5.3,12,4.5,12z M4.5,14.4
	c-0.5,0-0.9-0.4-0.9-0.9c0-0.5,0.4-0.9,0.9-0.9s0.9,0.4,0.9,0.9C5.4,14,5,14.4,4.5,14.4z"/>
<polygon fill="#FFFFFF" points="12.3,4.8 10.4,5.7 8.6,4.8 8.6,5.7 10.6,6.6 12.3,5.7 "/>
<rect x="7" y="5.1" fill="#FFFFFF" width="0.9" height="0.9"/>
</svg>
