<?xml version="1.0" encoding="UTF-8" standalone="no"?>
<svg width="24px" height="24px" viewBox="0 0 24 24" version="1.1" xmlns="http://www.w3.org/2000/svg" xmlns:xlink="http://www.w3.org/1999/xlink" xmlns:sketch="http://www.bohemiancoding.com/sketch/ns">
    <!-- Generator: Sketch 3.3.3 (12072) - http://www.bohemiancoding.com/sketch -->
    <title>tunnel-white-24</title>
    <desc>Created with Sketch.</desc>
    <defs></defs>
    <g id="tunnel" stroke="none" stroke-width="1" fill="none" fill-rule="evenodd" sketch:type="MSPage">
        <g id="tunnel-white-24" sketch:type="MSArtboardGroup" fill="#FFFFFF">
            <g id="HFC-Tunnel" sketch:type="MSLayerGroup" transform="translate(5.000000, 3.000000)">
                <path d="M5.26881988,11.2206207 L5.26881988,8.39427586 C5.26881988,7.2462069 6.24149068,6.31406897 7.4489441,6.31406897 C8.64968944,6.31406897 9.62236025,7.2462069 9.62236025,8.39427586 L9.62236025,11.2206207 L5.26881988,11.2206207" id="Fill-3" sketch:type="MSShapeGroup"></path>
                <path d="M7.60546584,1.81372414 C10.767205,1.81372414 13.3296894,4.2637931 13.3296894,7.28682759 L13.3296894,14.3441379 L14.9597516,14.3441379 L14.9552795,7.28682759 C14.9552795,3.40862069 11.6616149,0.263724138 7.60546584,0.263724138 C3.54708075,0.263724138 0.255652174,3.40862069 0.255652174,7.28682759 L0.251180124,14.3484138 L1.87900621,14.3441379 L1.87900621,7.28682759 C1.87900621,4.2637931 4.44372671,1.81372414 7.60546584,1.81372414" id="Fill-4" sketch:type="MSShapeGroup"></path>
                <path d="M7.88944099,11.8256552 L7.00173913,11.8256552 L6.89440994,12.42 L8.00347826,12.42 L7.88944099,11.8256552" id="Fill-5" sketch:type="MSShapeGroup"></path>
                <path d="M8.16447205,13.3286207 L6.73565217,13.3286207 L6.57018634,14.218 L8.32099379,14.218 L8.16447205,13.3286207" id="Fill-6" sketch:type="MSShapeGroup"></path>
                <path d="M8.53565217,15.4173793 L6.35552795,15.4173793 L6.14534161,16.6082069 L8.75254658,16.6082069 L8.53565217,15.4173793" id="Fill-7" sketch:type="MSShapeGroup"></path>
            </g>
        </g>
    </g>
</svg>