<?xml version="1.0" encoding="utf-8"?>
<!-- Generator: Adobe Illustrator 21.1.0, SVG Export Plug-In . SVG Version: 6.00 Build 0)  -->
<svg version="1.1" id="Layer_1" xmlns:sketch="http://www.bohemiancoding.com/sketch/ns"
	 xmlns="http://www.w3.org/2000/svg" xmlns:xlink="http://www.w3.org/1999/xlink" x="0px" y="0px" width="12px" height="12px"
	 viewBox="0 0 12 12" enable-background="new 0 0 12 12" xml:space="preserve">
<path id="Fill-3" sketch:type="MSShapeGroup" fill="#FFFFFF" d="M5.3,7V5.5c0-0.6,0.5-1.1,1.1-1.1c0.6,0,1.1,0.5,1.1,1.1V7H5.3"/>
<path id="Fill-4" sketch:type="MSShapeGroup" fill="#FFFFFF" d="M6.5,1.9c1.6,0,2.9,1.3,2.9,3v3.9h0.8l0-3.9C10.3,2.7,8.6,1,6.5,1
	C4.4,1,2.7,2.7,2.7,4.9l0,3.9l0.8,0V4.9C3.6,3.2,4.9,1.9,6.5,1.9"/>
<path id="Fill-5" sketch:type="MSShapeGroup" fill="#FFFFFF" d="M6.6,7.4H6.2L6.1,7.7h0.6L6.6,7.4"/>
<path id="Fill-6" sketch:type="MSShapeGroup" fill="#FFFFFF" d="M6.8,8.2H6.1L6,8.7h0.9L6.8,8.2"/>
<path id="Fill-7" sketch:type="MSShapeGroup" fill="#FFFFFF" d="M7,9.3H5.9L5.7,10h1.3L7,9.3"/>
</svg>
