<?xml version="1.0" encoding="utf-8"?>
<!-- Generator: Adobe Illustrator 21.1.0, SVG Export Plug-In . SVG Version: 6.00 Build 0)  -->
<svg version="1.1" id="Layer_1" xmlns:sketch="http://www.bohemiancoding.com/sketch/ns"
	 xmlns="http://www.w3.org/2000/svg" xmlns:xlink="http://www.w3.org/1999/xlink" x="0px" y="0px" width="24px" height="24px"
	 viewBox="0 0 24 24" enable-background="new 0 0 24 24" xml:space="preserve">
<path id="Fill-3" sketch:type="MSShapeGroup" d="M10,14v-3c0-1.2,1.2-2.5,2.5-2.5c1.2,0,2.5,1.3,2.5,2.5v3"/>
<path id="Fill-4" sketch:type="MSShapeGroup" d="M12.5,4.6c3.3,0,6,2.5,6,5.7V18H20l0-7.7c0.1-4-3.3-7.3-7.5-7.3C8.3,3,5,6,5,10.3
	V18h1.5v-7.7C6.5,7.2,9.2,4.6,12.5,4.6"/>
<path id="Fill-5" sketch:type="MSShapeGroup" d="M13,15H12l-0.1,0.6h1.2L13,15"/>
<path id="Fill-6" sketch:type="MSShapeGroup" d="M13.2,16.6h-1.5l-0.2,0.9h1.8L13.2,16.6"/>
<path id="Fill-7" sketch:type="MSShapeGroup" d="M13.6,18.8h-2.3L11.1,20h2.7L13.6,18.8"/>
</svg>
