<?xml version="1.0" encoding="UTF-8" standalone="no"?>
<svg width="18px" height="18px" viewBox="0 0 18 18" version="1.1" xmlns="http://www.w3.org/2000/svg" xmlns:xlink="http://www.w3.org/1999/xlink" xmlns:sketch="http://www.bohemiancoding.com/sketch/ns">
    <!-- Generator: Sketch 3.3.3 (12072) - http://www.bohemiancoding.com/sketch -->
    <title>tunnel-white-18</title>
    <desc>Created with Sketch.</desc>
    <defs></defs>
    <g id="tunnel" stroke="none" stroke-width="1" fill="none" fill-rule="evenodd" sketch:type="MSPage">
        <g id="tunnel-white-18" sketch:type="MSArtboardGroup" fill="#FFFFFF">
            <g id="HFC-Tunnel" sketch:type="MSLayerGroup" transform="translate(4.000000, 2.000000)">
                <path d="M3.86380124,8.10378161 L3.86380124,6.06253257 C3.86380124,5.23337165 4.57709317,4.56016092 5.46255901,4.56016092 C6.34310559,4.56016092 7.05639752,5.23337165 7.05639752,6.06253257 L7.05639752,8.10378161 L3.86380124,8.10378161" id="Fill-3" sketch:type="MSShapeGroup"></path>
                <path d="M5.57734161,1.30991188 C7.89595031,1.30991188 9.77510559,3.07940613 9.77510559,5.26270881 L9.77510559,10.3596552 L10.9704845,10.3596552 L10.967205,5.26270881 C10.967205,2.46178161 8.55185093,0.190467433 5.57734161,0.190467433 C2.60119255,0.190467433 0.187478261,2.46178161 0.187478261,5.26270881 L0.184198758,10.3627433 L1.37793789,10.3596552 L1.37793789,5.26270881 C1.37793789,3.07940613 3.25873292,1.30991188 5.57734161,1.30991188" id="Fill-4" sketch:type="MSShapeGroup"></path>
                <path d="M5.78559006,8.54075096 L5.1346087,8.54075096 L5.05590062,8.97 L5.86921739,8.97 L5.78559006,8.54075096" id="Fill-5" sketch:type="MSShapeGroup"></path>
                <path d="M5.9872795,9.62622605 L4.93947826,9.62622605 L4.81813665,10.2685556 L6.10206211,10.2685556 L5.9872795,9.62622605" id="Fill-6" sketch:type="MSShapeGroup"></path>
                <path d="M6.25947826,11.1347739 L4.6607205,11.1347739 L4.50658385,11.9948161 L6.41853416,11.9948161 L6.25947826,11.1347739" id="Fill-7" sketch:type="MSShapeGroup"></path>
            </g>
        </g>
    </g>
</svg>