<?xml version="1.0" encoding="utf-8"?>
<!-- Generator: Adobe Illustrator 21.1.0, SVG Export Plug-In . SVG Version: 6.00 Build 0)  -->
<svg version="1.1" id="Layer_1" xmlns:sketch="http://www.bohemiancoding.com/sketch/ns"
	 xmlns="http://www.w3.org/2000/svg" xmlns:xlink="http://www.w3.org/1999/xlink" x="0px" y="0px" width="18px" height="18px"
	 viewBox="0 0 18 18" enable-background="new 0 0 18 18" xml:space="preserve">
<path id="Fill-3" sketch:type="MSShapeGroup" d="M7.6,10.7V8.5c0-0.9,0.8-1.7,1.8-1.7c1,0,1.8,0.7,1.8,1.7v2.2H7.6"/>
<path id="Fill-4" sketch:type="MSShapeGroup" d="M9.5,3.2c2.6,0,4.6,1.9,4.6,4.4v5.6h1.3l0-5.6c0-3.1-2.7-5.6-5.9-5.6
	C6.2,2,3.6,4.5,3.6,7.6l0,5.6l1.3,0V7.6C4.9,5.2,6.9,3.2,9.5,3.2"/>
<path id="Fill-5" sketch:type="MSShapeGroup" d="M9.7,11.2H9l-0.1,0.5h0.9L9.7,11.2"/>
<path id="Fill-6" sketch:type="MSShapeGroup" d="M10,12.4H8.8l-0.1,0.7h1.4L10,12.4"/>
<path id="Fill-7" sketch:type="MSShapeGroup" d="M10.3,14.1H8.5L8.3,15h2.1L10.3,14.1"/>
</svg>
