<?xml version="1.0" encoding="utf-8"?>
<!-- Generator: Adobe Illustrator 21.1.0, SVG Export Plug-In . SVG Version: 6.00 Build 0)  -->
<svg version="1.1" id="Layer_1" xmlns="http://www.w3.org/2000/svg" xmlns:xlink="http://www.w3.org/1999/xlink" x="0px" y="0px"
	 width="24px" height="24px" viewBox="0 0 24 24" enable-background="new 0 0 24 24" xml:space="preserve">
<path fill="#FFFFFF" d="M21,17.3c-0.4,0-0.7-0.4-1-0.6c-0.3-0.2-0.7-0.2-1.1-0.2c-0.4,0-0.7,0.1-1.1,0.2c-0.3,0.1-0.7,0.6-1,0.6
	c-0.4,0-0.7-0.4-1-0.6c-0.3-0.2-0.7-0.2-1.1-0.2c-0.4,0-0.7,0.1-1.1,0.2c-0.3,0.1-0.7,0.6-1.1,0.6s-0.7-0.4-1-0.6
	c-0.3-0.2-0.7-0.2-1.1-0.2s-0.8,0.1-1.1,0.2c-0.3,0.1-0.7,0.6-1,0.6c-0.4,0-0.7-0.4-1-0.6c-0.3-0.2-0.7-0.2-1.1-0.2
	c-0.4,0-0.8,0.1-1.1,0.2c-0.3,0.1-0.7,0.4-1,0.6v-1.7c0.4-0.2,0.7-0.2,1-0.4C5.4,15.1,5.7,15,6.1,15c0.4,0,0.7,0.1,1.1,0.2
	c0.3,0.1,0.7,0.2,1,0.2c0.4,0,0.7-0.1,1-0.2C9.6,15.1,10,15,10.4,15s0.8,0.1,1.1,0.2c0.3,0.1,0.7,0.2,1,0.2s0.7-0.1,1.1-0.2
	c0.3-0.2,0.7-0.2,1.1-0.2c0.4,0,0.8,0.1,1.1,0.2c0.3,0.1,0.7,0.2,1,0.2s0.7-0.1,1-0.2c0.3-0.2,0.7-0.2,1.1-0.2
	c0.4,0,0.8,0.1,1.1,0.2c0.3,0.1,0.7,0.2,1,0.2L21,17.3z"/>
<path fill="#FFFFFF" d="M18.7,11c0.2-0.1,0.3-0.1,0.3-0.5V10h0.8V8.3l0,0c0-0.4-0.3-0.7-0.6-0.8l-0.6-1.5c-0.1-0.2-0.3-0.4-0.5-0.4
	h-3.1c-0.2,0-0.5,0.1-0.5,0.4l-0.6,1.5c-0.3,0.1-0.6,0.4-0.6,0.8l0,0V10H14v0.5c0,0.3,0.2,0.4,0.4,0.5h-3.6c0.2-0.1,0.3-0.1,0.3-0.5
	l0-0.5h0.9V8.3l0,0c0-0.4-0.3-0.7-0.6-0.8l-0.6-1.5c-0.1-0.2-0.3-0.4-0.5-0.4H7c-0.2,0-0.5,0.1-0.5,0.4L5.9,7.5
	C5.5,7.6,5.3,7.9,5.3,8.3l0,0V10H6v0.5c0,0.3,0.1,0.4,0.3,0.5H4v1.3h1.4l1.2,1.4c0.2,0,0.4,0.1,0.6,0.2c0.3,0.1,0.7,0.2,1,0.2
	c0.4,0,0.7-0.1,1-0.2c0.3-0.2,0.7-0.2,1.1-0.2c0.4,0,0.8,0.1,1.1,0.2c0.3,0.1,0.7,0.2,1,0.2s0.7-0.1,1.1-0.2
	c0.3-0.2,0.7-0.2,1.1-0.2c0.4,0,0.8,0.1,1.1,0.2c0.3,0.1,0.7,0.2,1,0.2s0.7-0.1,1-0.2c0.2-0.1,0.5-0.2,0.7-0.2l1.1-1.4H21V11H18.7z
	 M6.7,11C6.9,10.9,7,10.8,7,10.5L7,10h3v0.5c0,0.3,0.1,0.4,0.3,0.5H6.7z M14.7,11c0.2-0.1,0.3-0.2,0.3-0.5V10h3v0.5
	c0,0.3,0.1,0.4,0.3,0.5H14.7z M6,8l0.9-1.8c0-0.1,0.1-0.1,0.2-0.1h3c0.1,0,0.1,0,0.2,0.1L11,8v1h-1V8H7v1H6V8z M14,8l0.8-1.8
	c0-0.1,0.1-0.1,0.2-0.1h3c0.1,0,0.1,0,0.2,0.1L19,8v1h-1V8h-3v1h-1V8z"/>
</svg>
