<?xml version="1.0" encoding="utf-8"?>
<!-- Generator: Adobe Illustrator 18.1.1, SVG Export Plug-In . SVG Version: 6.00 Build 0)  -->
<svg version="1.1" id="Layer_1" xmlns="http://www.w3.org/2000/svg" xmlns:xlink="http://www.w3.org/1999/xlink" x="0px" y="0px"
	 viewBox="0 0 24 24" enable-background="new 0 0 24 24" xml:space="preserve">
<path d="M21,17.295c-0.368,0-0.732-0.439-1.05-0.579c-0.326-0.152-0.694-0.245-1.079-0.245c-0.381,0-0.749,0.093-1.075,0.245
	c-0.322,0.14-0.677,0.579-1.05,0.579c-0.372,0-0.728-0.439-1.045-0.579c-0.326-0.152-0.694-0.245-1.079-0.245
	c-0.381,0-0.749,0.093-1.075,0.245c-0.322,0.14-0.677,0.579-1.05,0.579s-0.728-0.439-1.045-0.579
	c-0.326-0.152-0.694-0.245-1.079-0.245c-0.385,0-0.753,0.093-1.079,0.245c-0.317,0.14-0.673,0.579-1.045,0.579
	c-0.372,0-0.728-0.439-1.045-0.579c-0.33-0.152-0.698-0.245-1.079-0.245c-0.385,0-0.753,0.093-1.079,0.245
	c-0.317,0.14-0.673,0.41-1.045,0.579l0-1.665c0.372-0.169,0.728-0.249,1.045-0.393c0.326-0.153,0.694-0.241,1.079-0.241
	c0.381,0,0.749,0.089,1.079,0.241c0.317,0.144,0.673,0.224,1.045,0.224c0.372,0,0.728-0.08,1.045-0.224
	c0.326-0.153,0.694-0.241,1.079-0.241c0.385,0,0.753,0.089,1.079,0.241c0.317,0.144,0.673,0.224,1.045,0.224s0.728-0.08,1.05-0.224
	c0.326-0.153,0.694-0.241,1.075-0.241c0.385,0,0.753,0.089,1.079,0.241c0.317,0.144,0.673,0.224,1.045,0.224
	c0.372,0,0.728-0.08,1.05-0.224c0.326-0.153,0.694-0.241,1.075-0.241c0.385,0,0.753,0.089,1.079,0.241
	c0.317,0.144,0.677,0.224,1.045,0.224L21,17.295z"/>
<path d="M18.922,11.016c0.178-0.085,0.301-0.262,0.301-0.474v-0.525h0.533V8.303l0,0c0-0.372-0.254-0.686-0.597-0.779L18.55,6.069
	c-0.089-0.216-0.301-0.364-0.546-0.364h-3.132c-0.245,0-0.457,0.148-0.546,0.364l-0.609,1.456c-0.343,0.093-0.597,0.406-0.597,0.779
	l0,0v1.714h0.533v0.525c0,0.211,0.123,0.389,0.301,0.474h-2.882c0.178-0.085,0.305-0.262,0.305-0.474l-0.004-0.525h0.533V8.303l0,0
	c0-0.372-0.254-0.686-0.597-0.779l-0.61-1.456c-0.089-0.216-0.301-0.364-0.546-0.364H7.022c-0.245,0-0.457,0.148-0.546,0.364
	l-0.61,1.456C5.523,7.618,5.27,7.931,5.27,8.303l0,0v1.714h0.533v0.525c0,0.211,0.123,0.389,0.301,0.474H4v1.331h1.439l1.172,1.367
	c0.207,0.042,0.406,0.11,0.592,0.195c0.317,0.144,0.673,0.224,1.045,0.224c0.372,0,0.728-0.08,1.045-0.224
	c0.326-0.152,0.694-0.241,1.079-0.241c0.385,0,0.753,0.089,1.079,0.241c0.317,0.144,0.673,0.224,1.045,0.224s0.728-0.08,1.05-0.224
	c0.326-0.152,0.694-0.241,1.075-0.241c0.385,0,0.753,0.089,1.079,0.241c0.317,0.144,0.673,0.224,1.045,0.224
	c0.372,0,0.728-0.08,1.05-0.224c0.224-0.106,0.47-0.178,0.728-0.216l1.143-1.363H21v-1.314H18.922z M6.543,11.016
	c0.178-0.085,0.305-0.262,0.305-0.474l-0.004-0.525h3.487v0.525c0,0.211,0.123,0.389,0.301,0.474H6.543z M14.394,11.016
	c0.178-0.085,0.301-0.262,0.301-0.474v-0.525h3.487v0.525c0,0.211,0.123,0.389,0.301,0.474H14.394z M6.318,8.023l0.598-1.785
	c0.021-0.063,0.08-0.11,0.152-0.11h3.039c0.072,0,0.131,0.046,0.156,0.11l0.691,1.785v0.773h-0.773V8.023H7.091v0.773H6.318V8.023z
	 M14.045,8.023l0.721-1.785c0.021-0.063,0.08-0.11,0.152-0.11h3.038c0.072,0,0.131,0.046,0.152,0.11l0.572,1.785v0.773h-0.773V8.023
	h-3.091v0.773h-0.773V8.023z"/>
</svg>
