<?xml version="1.0" encoding="utf-8"?>
<!-- Generator: Adobe Illustrator 21.1.0, SVG Export Plug-In . SVG Version: 6.00 Build 0)  -->
<svg version="1.1" id="Layer_1" xmlns="http://www.w3.org/2000/svg" xmlns:xlink="http://www.w3.org/1999/xlink" x="0px" y="0px"
	 width="18px" height="18px" viewBox="0 0 18 18" enable-background="new 0 0 18 18" xml:space="preserve">
<path d="M3,8l0.9,1.7c0,0,1.7,0.9,2.6,0.9s0.9-0.9,1.7-0.9s0.9,0.9,1.7,0.9s0.9-0.9,1.7-0.9s0.9,0.9,1.7,0.9s1.7-0.9,1.7-0.9L16,8H3
	z"/>
<path d="M6.5,12.3c0.9,0,0.9-0.9,1.7-0.9s0.9,0.9,1.7,0.9s0.9-0.9,1.7-0.9s0.9,0.9,1.7,0.9s1.1-0.9,1.7-0.9c0.6,0,0.9,0.9,0.9,0.9
	V14c0,0-0.1-0.9-0.9-0.9S14.2,14,13.4,14s-0.9-0.9-1.7-0.9S10.8,14,9.9,14S9,13.1,8.2,13.1S7.3,14,6.5,14s-0.9-0.9-1.7-0.9
	S3,14,3,14v-1.7c0,0,0.9-0.9,1.7-0.9S5.7,12.3,6.5,12.3z"/>
<path d="M14,3h-3l-1,2v3h1V7h3v1h1V5L14,3z M14,5h-3V4h3V5z"/>
<path d="M8,3H5L4,5v3h1V7h3v1h1V5L8,3z M8,5H5V4h3V5z"/>
</svg>
