<?xml version="1.0" encoding="utf-8"?>
<!-- Generator: Adobe Illustrator 18.1.1, SVG Export Plug-In . SVG Version: 6.00 Build 0)  -->
<svg version="1.1" id="Layer_1" xmlns="http://www.w3.org/2000/svg" xmlns:xlink="http://www.w3.org/1999/xlink" x="0px" y="0px"
	 viewBox="0 0 12 12" enable-background="new 0 0 12 12" xml:space="preserve">
<path d="M5,2H4L3,3.054v2h1v-1h1v1h1V3L5,2z"/>
<path d="M9,2H8L7.002,3.018L7,5h1V4h1v1h1V3L9,2z"/>
<path d="M2,5l1,2c0,0,0.956-1,1.5-1s1.4,1,2,1s1.419-1,2-1S10,7,10,7l1-2H2z"/>
<path d="M6.5,8c0.581,0,1.419-1,2-1S10,7.8,10,7.8V9c0,0-0.938-1-1.5-1s-1.4,1-2,1s-1.456-1-2-1S3,9.054,3,9.054v-1.2
	C3,7.854,3.9,7,4.5,7S5.919,8,6.5,8z"/>
</svg>
