<svg id="Layer_1" data-name="Layer 1" xmlns="http://www.w3.org/2000/svg" width="18" height="18" viewBox="0 0 18 18">
  <title>a</title>
  <path d="M3,8L3.87,9.73a8.73,8.73,0,0,0,2.6.87c0.87,0,.95-0.87,1.73-0.87s0.87,0.87,1.73.87,0.89-.87,1.73-0.87,0.92,0.87,1.73.87a3.25,3.25,0,0,0,1.73-.87L16,8H3Z" style="fill: #fff"/>
  <path d="M6.47,11.53c0.87,0,.87-0.87,1.73-0.87s0.89,0.87,1.73.87,0.89-.87,1.73-0.87,0.95,0.87,1.73.87,1.14-.87,1.73-0.87a1.2,1.2,0,0,1,.87.87v1.73a0.9,0.9,0,0,0-.87-0.87c-0.81,0-.89.87-1.73,0.87s-0.92-.87-1.73-0.87-0.87.87-1.73,0.87S9,12.4,8.2,12.4s-0.95.87-1.73,0.87S5.52,12.4,4.73,12.4A3.38,3.38,0,0,0,3,13.27V11.53a3,3,0,0,1,1.73-.87C5.6,10.67,5.65,11.53,6.47,11.53Z" style="fill: #fff"/>
  <path d="M14,3H11L10,5V8h1V7h3V8h1V5Zm0,2H11V4h3V5Z" style="fill: #fff"/>
  <path d="M8,3H5L4,5V8H5V7H8V8H9V5ZM8,5H5V4H8V5Z" style="fill: #fff"/>
</svg>
