<?xml version="1.0" encoding="utf-8"?>
<!-- Generator: Adobe Illustrator 21.1.0, SVG Export Plug-In . SVG Version: 6.00 Build 0)  -->
<svg version="1.1" id="Layer_1" xmlns="http://www.w3.org/2000/svg" xmlns:xlink="http://www.w3.org/1999/xlink" x="0px" y="0px"
	 width="12px" height="12px" viewBox="0 0 12 12" enable-background="new 0 0 12 12" xml:space="preserve">
<path d="M5,2H4L3,3.1V5h1V4h1v1h1V3L5,2z"/>
<path d="M9,2H8L7,3l0,2h1V4h1v1h1V3L9,2z"/>
<path d="M2,5l1,2c0,0,1-1,1.5-1s1.4,1,2,1s1.4-1,2-1S10,7,10,7l1-2H2z"/>
<path d="M6.5,8c0.6,0,1.4-1,2-1S10,7.8,10,7.8V9c0,0-0.9-1-1.5-1s-1.4,1-2,1S5,8,4.5,8S3,9,3,9V7.9C3,7.9,3.9,7,4.5,7S5.9,8,6.5,8z"
	/>
</svg>
