<?xml version="1.0" encoding="utf-8"?>
<!-- Generator: Adobe Illustrator 18.1.1, SVG Export Plug-In . SVG Version: 6.00 Build 0)  -->
<svg version="1.1" id="Layer_1" xmlns="http://www.w3.org/2000/svg" xmlns:xlink="http://www.w3.org/1999/xlink" x="0px" y="0px"
	 viewBox="0 0 400 400" enable-background="new 0 0 400 400" xml:space="preserve">
<path fill="#FFFFFF" d="M350,288.2c-6.1,0-12.2-7.3-17.5-9.7c-5.4-2.5-11.6-4.1-18-4.1c-6.4,0-12.5,1.6-17.9,4.1
	c-5.4,2.3-11.3,9.7-17.5,9.7c-6.2,0-12.1-7.3-17.4-9.7c-5.4-2.5-11.6-4.1-18-4.1c-6.3,0-12.5,1.6-17.9,4.1
	c-5.4,2.3-11.3,9.7-17.5,9.7c-6.2,0-12.1-7.3-17.4-9.7c-5.4-2.5-11.6-4.1-18-4.1s-12.6,1.6-18,4.1c-5.3,2.3-11.2,9.7-17.4,9.7
	c-6.2,0-12.1-7.3-17.4-9.7c-5.5-2.5-11.6-4.1-18-4.1c-6.4,0-12.5,1.6-18,4.1c-5.3,2.3-11.2,6.8-17.4,9.7v-27.8
	c6.2-2.8,12.1-4.1,17.4-6.6c5.4-2.6,11.6-4,18-4c6.3,0,12.5,1.5,18,4c5.3,2.4,11.2,3.7,17.4,3.7c6.2,0,12.1-1.3,17.4-3.7
	c5.4-2.6,11.6-4,18-4s12.6,1.5,18,4c5.3,2.4,11.2,3.7,17.4,3.7s12.1-1.3,17.5-3.7c5.4-2.6,11.6-4,17.9-4c6.4,0,12.6,1.5,18,4
	c5.3,2.4,11.2,3.7,17.4,3.7c6.2,0,12.1-1.3,17.5-3.7c5.4-2.6,11.6-4,17.9-4c6.4,0,12.5,1.5,18,4c5.3,2.4,11.3,3.7,17.4,3.7
	L350,288.2z"/>
<path fill="#FFFFFF" d="M315.4,183.6c3-1.4,5-4.4,5-7.9v-8.8h8.9v-28.6l0,0c0-6.2-4.2-11.4-10-13l-10.1-24.3c-1.5-3.6-5-6.1-9.1-6.1
	h-52.2c-4.1,0-7.6,2.5-9.1,6.1l-10.2,24.3c-5.7,1.5-9.9,6.8-9.9,13l0,0V167h8.9v8.7c0,3.5,2.1,6.5,5,7.9h-48c3-1.4,5.1-4.4,5.1-7.9
	l-0.1-8.7h8.9v-28.6l0,0c0-6.2-4.2-11.4-10-13l-10.2-24.3c-1.5-3.6-5-6.1-9.1-6.1H117c-4.1,0-7.6,2.5-9.1,6.1l-10.2,24.3
	c-5.7,1.6-9.9,6.8-9.9,13l0,0v28.6h8.9v8.8c0,3.5,2.1,6.5,5,7.9H66.7v22.2h24l19.5,22.8c3.4,0.7,6.8,1.8,9.9,3.2
	c5.3,2.4,11.2,3.7,17.4,3.7s12.1-1.3,17.4-3.7c5.4-2.5,11.6-4,18-4c6.4,0,12.6,1.5,18,4c5.3,2.4,11.2,3.7,17.4,3.7
	s12.1-1.3,17.5-3.7c5.4-2.5,11.6-4,17.9-4c6.4,0,12.6,1.5,18,4c5.3,2.4,11.2,3.7,17.4,3.7c6.2,0,12.1-1.3,17.5-3.7
	c3.7-1.8,7.8-3,12.1-3.6l19-22.7H350v-21.9H315.4z M109.1,183.6c3-1.4,5.1-4.4,5.1-7.9l-0.1-8.8h58.1v8.8c0,3.5,2.1,6.5,5,7.9H109.1
	z M239.9,183.6c3-1.4,5-4.4,5-7.9v-8.8H303v8.8c0,3.5,2,6.5,5,7.9H239.9z M105.3,133.7l10-29.8c0.3-1.1,1.3-1.8,2.5-1.8h50.7
	c1.2,0,2.2,0.8,2.6,1.8l11.5,29.8v12.9h-12.9v-12.9h-51.5v12.9h-12.9V133.7z M234.1,133.7l12-29.8c0.3-1.1,1.3-1.8,2.5-1.8h50.6
	c1.2,0,2.2,0.8,2.5,1.8l9.5,29.8v12.9h-12.9v-12.9h-51.5v12.9h-12.9L234.1,133.7L234.1,133.7z"/>
</svg>
