<svg id="Layer_1" data-name="Layer 1" xmlns="http://www.w3.org/2000/svg" width="24" height="24" viewBox="0 0 24 24">
  <title>a</title>
  <path d="M21,17.3a3.29,3.29,0,0,1-1-.58,2.49,2.49,0,0,0-2.15,0,3.29,3.29,0,0,1-1,.58,3.23,3.23,0,0,1-1-.58,2.49,2.49,0,0,0-2.15,0,3.29,3.29,0,0,1-1,.58,3.22,3.22,0,0,1-1-.58,2.49,2.49,0,0,0-2.16,0,3.23,3.23,0,0,1-1,.58,3.23,3.23,0,0,1-1-.58,2.58,2.58,0,0,0-1.08-.25A2.56,2.56,0,0,0,5,16.72c-0.32.14-.67,0.41-1,0.58V15.63c0.37-.17.73-0.25,1-0.39A2.55,2.55,0,0,1,6.12,15a2.58,2.58,0,0,1,1.08.24,2.55,2.55,0,0,0,2.09,0,2.53,2.53,0,0,1,2.16,0,2.53,2.53,0,0,0,1,.22,2.57,2.57,0,0,0,1-.22,2.52,2.52,0,0,1,2.15,0,2.53,2.53,0,0,0,1,.22,2.57,2.57,0,0,0,1-.22,2.52,2.52,0,0,1,2.15,0,2.55,2.55,0,0,0,1,.22V17.3Z" style="fill: #fff"/>
  <path d="M18.92,11a0.52,0.52,0,0,0,.3-0.47V10h0.53V8.3h0a0.81,0.81,0,0,0-.6-0.78L18.55,6.07A0.59,0.59,0,0,0,18,5.7H14.87a0.59,0.59,0,0,0-.55.36L13.72,7.52a0.81,0.81,0,0,0-.6.78h0V10h0.53v0.52A0.52,0.52,0,0,0,14,11H11.07a0.53,0.53,0,0,0,.3-0.47V10h0.53V8.3h0a0.81,0.81,0,0,0-.6-0.78L10.7,6.07a0.59,0.59,0,0,0-.55-0.36H7a0.59,0.59,0,0,0-.55.36L5.87,7.52a0.81,0.81,0,0,0-.6.78h0V10H5.8v0.52a0.52,0.52,0,0,0,.3.47H4v1.33H5.44l1.17,1.37a2.78,2.78,0,0,1,.59.19,2.55,2.55,0,0,0,2.09,0,2.53,2.53,0,0,1,2.16,0,2.53,2.53,0,0,0,1,.22,2.57,2.57,0,0,0,1-.22,2.52,2.52,0,0,1,2.15,0,2.53,2.53,0,0,0,1,.22,2.56,2.56,0,0,0,1-.22,2.58,2.58,0,0,1,.73-0.22l1.14-1.36H21V11H18.92ZM6.54,11a0.53,0.53,0,0,0,.3-0.47V10h3.49v0.52a0.52,0.52,0,0,0,.3.47H6.54Zm7.85,0a0.52,0.52,0,0,0,.3-0.47V10h3.49v0.52a0.52,0.52,0,0,0,.3.47H14.39ZM6.32,8l0.6-1.78a0.16,0.16,0,0,1,.15-0.11h3a0.17,0.17,0,0,1,.16.11L11,8V8.8H10.18V8H7.09V8.8H6.32V8ZM14,8l0.72-1.78a0.16,0.16,0,0,1,.15-0.11h3a0.16,0.16,0,0,1,.15.11L18.68,8V8.8H17.91V8H14.82V8.8H14V8Z" style="fill: #fff"/>
</svg>
