<?xml version="1.0" encoding="utf-8"?>
<!-- Generator: Adobe Illustrator 18.1.1, SVG Export Plug-In . SVG Version: 6.00 Build 0)  -->
<svg version="1.1" id="Layer_1" xmlns="http://www.w3.org/2000/svg" xmlns:xlink="http://www.w3.org/1999/xlink" x="0px" y="0px"
	 viewBox="0 0 400 400" enable-background="new 0 0 400 400" xml:space="preserve">
<path fill="#FFFFFF" d="M66.7,177.8l19.3,38.5c0,0,38.5,19.3,57.8,19.3s21.1-19.3,38.5-19.3s19.3,19.3,38.5,19.3
	s19.9-19.3,38.5-19.3s20.5,19.3,38.5,19.3c18.1,0,38.5-19.3,38.5-19.3l19.3-38.5H66.7z"/>
<path fill="#FFFFFF" d="M143.7,256.3c19.3,0,19.3-19.3,38.5-19.3s19.9,19.3,38.5,19.3s19.9-19.3,38.5-19.3s21.1,19.3,38.5,19.3
	c17.4,0,25.3-19.3,38.5-19.3c13.2,0,19.3,19.3,19.3,19.3v38.5c0,0-1.2-19.3-19.3-19.3s-19.9,19.3-38.5,19.3s-20.4-19.2-38.5-19.2
	c-18,0-19.3,19.3-38.5,19.3s-20.5-19.3-38.5-19.3s-21.1,19.3-38.5,19.3s-21.1-19.3-38.5-19.3s-38.5,19.3-38.5,19.3v-38.5
	c0,0,19.3-19.3,38.5-19.3S125.6,256.3,143.7,256.3z"/>
<path fill="#FFFFFF" d="M311.1,66.7h-66.7l-22.2,44.4v66.7h22.2v-22.2h66.7v22.2h22.2v-66.7L311.1,66.7z M311.1,111.1h-66.7V88.9
	h66.7V111.1z"/>
<path fill="#FFFFFF" d="M177.8,66.7h-66.7l-22.2,44.4v66.7h22.2v-22.2h66.7v22.2H200v-66.7L177.8,66.7z M177.8,111.1h-66.7V88.9
	h66.7V111.1z"/>
</svg>
