<?xml version="1.0" encoding="utf-8"?>
<!-- Generator: Adobe Illustrator 21.1.0, SVG Export Plug-In . SVG Version: 6.00 Build 0)  -->
<svg version="1.1" id="Layer_1" xmlns="http://www.w3.org/2000/svg" xmlns:xlink="http://www.w3.org/1999/xlink" x="0px" y="0px"
	 width="24px" height="24px" viewBox="0 0 24 24" enable-background="new 0 0 24 24" xml:space="preserve">
<polygon points="19.5,13 14,9.4 14,6.1 15.6,6.1 15.6,6.9 17.9,6.9 17.9,3.8 15.6,3.8 15.6,3 14,3 13.3,3 13.3,8.9 12.5,8.4 5.5,13 
	4.8,13 4.8,13.8 6.3,13.8 6.3,20 18.7,20 18.7,13.8 20.2,13.8 20.2,13 "/>
<polygon fill="#00ED57" points="14,17.7 12.5,19.2 11,19.2 11.7,14.6 11,14.6 11.7,13.8 14,13.8 13.3,14.6 12.8,17.7 "/>
<polygon fill="#00ED57" points="14,11.9 14,12.6 14,13 13.6,13 12.9,13 12.5,13 12.5,12.6 12.5,11.5 12.9,11.5 13.6,11.5 14,11.5 
	"/>
</svg>
