<?xml version="1.0" encoding="utf-8"?>
<!-- Generator: Adobe Illustrator 21.1.0, SVG Export Plug-In . SVG Version: 6.00 Build 0)  -->
<svg version="1.1" id="Layer_1" xmlns="http://www.w3.org/2000/svg" xmlns:xlink="http://www.w3.org/1999/xlink" x="0px" y="0px"
	 width="24px" height="24px" viewBox="0 0 24 24" enable-background="new 0 0 24 24" xml:space="preserve">
<path d="M17,9.1c0-2.2,0-6.4-2.6-6.4h-3.8H7.8H6.8H4v1.5h2.8C7.6,4.2,8,5.9,8,9.1c0,3.4,1.5,5.4,3,7.1l1.1-1
	c-1.6-1.7-2.6-3.3-2.6-6.1c0-1.4,0-3.5-0.6-4.9h1.8c0.8,0,1.1,1.7,1.1,4.9c0,3,1.2,4.9,2.1,6l1.2-0.9c-0.8-1-1.8-2.6-1.8-5.1
	c0-1.4,0-3.5-0.6-4.9h1.8c0.8,0,1.1,1.7,1.1,4.9c0,3.4,1.5,5.4,3,7.1l1.1-1C18.1,13.5,17,11.9,17,9.1z"/>
<path d="M18.6,18.3c-1.2,0-2.4-2.4-3.6-2.4s-2.4,2.4-3.6,2.4s-2.4-2.4-3.6-2.4S4,18.3,4,18.3v1.2c0,0,2.4-2.4,3.6-2.4
	s2.4,2.4,3.6,2.4s2.4-2.4,3.6-2.4s2.4,2.4,3.6,2.4c0.6,0,1.7-0.7,2.4-1.3V17C20.3,17.6,19.2,18.3,18.6,18.3z"/>
</svg>
