<?xml version="1.0" encoding="utf-8"?>
<!-- Generator: Adobe Illustrator 21.1.0, SVG Export Plug-In . SVG Version: 6.00 Build 0)  -->
<svg version="1.1" id="Layer_1" xmlns="http://www.w3.org/2000/svg" xmlns:xlink="http://www.w3.org/1999/xlink" x="0px" y="0px"
	 width="18px" height="18px" viewBox="0 0 18 18" enable-background="new 0 0 18 18" xml:space="preserve">
<path fill="#FFFFFF" d="M12.9,6.7c0-1.7,0-4.8-1.9-4.8H8.1H5.9H5.2H3v1h2.2c0.9,0,0.9,2.9,0.9,3.8c0,2.6,1.1,4.1,2.3,5.4l0.7-0.7
	c-1.2-1.3-2-2.6-2-4.7c0-1.1,0-2.8-0.5-3.8h1.5C9,2.9,9,5.7,9,6.7c0,1.8,0.5,3.2,1.6,4.6l0.8-0.6c-1-1.2-1.4-2.4-1.4-4
	c0-1.1,0-2.8-0.5-3.8h1.5c0.9,0,0.9,2.9,0.9,3.8c0,2.6,1.1,4.1,2.3,5.4l0.7-0.7C13.7,10.1,12.9,8.8,12.9,6.7z"/>
<path fill="#FFFFFF" d="M14.1,13.7c-0.9,0-1.9-1.9-2.8-1.9c-0.9,0-1.9,1.9-2.8,1.9s-1.9-1.9-2.8-1.9S3,13.7,3,13.7v0.9
	c0,0,1.9-1.9,2.8-1.9s1.9,1.9,2.8,1.9s1.9-1.9,2.8-1.9c0.9,0,1.9,1.9,2.8,1.9c0.5,0,1.3-0.6,1.9-1v-0.9
	C15.4,13.2,14.6,13.7,14.1,13.7z"/>
</svg>
