<?xml version="1.0" encoding="utf-8"?>
<!-- Generator: Adobe Illustrator 21.1.0, SVG Export Plug-In . SVG Version: 6.00 Build 0)  -->
<svg version="1.1" id="Layer_1" xmlns="http://www.w3.org/2000/svg" xmlns:xlink="http://www.w3.org/1999/xlink" x="0px" y="0px"
	 width="12px" height="12px" viewBox="0 0 12 12" enable-background="new 0 0 12 12" xml:space="preserve">
<path d="M9,4.5C9,3.3,9,1,7.5,1h-2H4H3.5H3H2v1h1h0.5C3.7,2,4,2.3,4,4.5c0,1.8,0.8,2.9,1.6,3.8l0.7-0.7C5.5,6.8,5,5.9,5,4.5
	C5,3.8,5,2.8,4.7,2h0.8C5.7,2,6,2.3,6,4.5c0,1.6,0.7,2.7,1.1,3.3l0.8-0.6C7.5,6.6,7,5.8,7,4.5C7,3.8,7,2.8,6.7,2h0.8
	C7.7,2,8,2.3,8,4.5c0,1.8,0.8,2.9,1.6,3.8l0.7-0.7C9.5,6.8,9,5.9,9,4.5z"/>
<path d="M9.7,9.4c-0.6,0-1.3-1.3-1.9-1.3S6.5,9.4,5.9,9.4S4.6,8.1,3.9,8.1S2,9.4,2,9.4V10c0,0,1.3-1.3,1.9-1.3S5.2,10,5.9,10
	s1.3-1.3,1.9-1.3S9.1,10,9.7,10c0.3,0,0.9-0.4,1.3-0.7V8.6C10.6,9,10,9.4,9.7,9.4z"/>
</svg>
