<?xml version="1.0" encoding="UTF-8" standalone="no"?>
<svg width="24px" height="24px" viewBox="0 0 24 24" version="1.1" xmlns="http://www.w3.org/2000/svg" xmlns:xlink="http://www.w3.org/1999/xlink" xmlns:sketch="http://www.bohemiancoding.com/sketch/ns">
    <!-- Generator: Sketch 3.3.3 (12072) - http://www.bohemiancoding.com/sketch -->
    <title>webcam-black-24</title>
    <desc>Created with Sketch.</desc>
    <defs></defs>
    <g id="webcam" stroke="none" stroke-width="1" fill="none" fill-rule="evenodd" sketch:type="MSPage">
        <g id="webcam-black-24" sketch:type="MSArtboardGroup" fill="#000000">
            <path d="M13.9444444,15.9287153 L13.9444444,17.5454545 L17.5555556,17.5454545 L17.5555556,19 L7.44444444,19 L7.44444444,17.5454545 L11.0555556,17.5454545 L11.0555556,17.5454545 L11.0555556,15.9287153 C8.16090521,15.2672911 6,12.6604908 6,9.54545455 C6,5.93049982 8.91014913,3 12.5,3 C16.0898509,3 19,5.93049982 19,9.54545455 C19,12.6604908 16.8390948,15.2672911 13.9444444,15.9287153 L13.9444444,15.9287153 Z M12.5,11.7272727 C13.696617,11.7272727 14.6666667,10.7504395 14.6666667,9.54545455 C14.6666667,8.34046964 13.696617,7.36363636 12.5,7.36363636 C11.303383,7.36363636 10.3333333,8.34046964 10.3333333,9.54545455 C10.3333333,10.7504395 11.303383,11.7272727 12.5,11.7272727 Z M8.16666667,9.54545455 C8.16666667,7.13548473 10.1067661,5.18181818 12.5,5.18181818 C14.8932339,5.18181818 16.8333333,7.13548473 16.8333333,9.54545455 C16.8333333,11.9554244 14.8932339,13.9090909 12.5,13.9090909 C10.1067661,13.9090909 8.16666667,11.9554244 8.16666667,9.54545455 Z" id="Webcam" sketch:type="MSShapeGroup"></path>
        </g>
    </g>
</svg>