<?xml version="1.0" encoding="UTF-8" standalone="no"?>
<svg width="12px" height="12px" viewBox="0 0 12 12" version="1.1" xmlns="http://www.w3.org/2000/svg" xmlns:xlink="http://www.w3.org/1999/xlink" xmlns:sketch="http://www.bohemiancoding.com/sketch/ns">
    <!-- Generator: Sketch 3.3.3 (12072) - http://www.bohemiancoding.com/sketch -->
    <title>webcam-white-12</title>
    <desc>Created with Sketch.</desc>
    <defs></defs>
    <g id="webcam" stroke="none" stroke-width="1" fill="none" fill-rule="evenodd" sketch:type="MSPage">
        <g id="webcam-white-12" sketch:type="MSArtboardGroup" fill="#FFFFFF">
            <path d="M7.27777778,8.27240237 L7.27777778,9.18181818 L9.22222222,9.18181818 L9.22222222,10 L3.77777778,10 L3.77777778,9.18181818 L5.72222222,9.18181818 L5.72222222,9.18181818 L5.72222222,8.27240237 C4.16356435,7.90035124 3,6.43402605 3,4.68181818 C3,2.64840615 4.56700338,1 6.5,1 C8.43299662,1 10,2.64840615 10,4.68181818 C10,6.43402605 8.83643565,7.90035124 7.27777778,8.27240237 L7.27777778,8.27240237 Z M6.5,5.90909091 C7.14433221,5.90909091 7.66666667,5.35962219 7.66666667,4.68181818 C7.66666667,4.00401417 7.14433221,3.45454545 6.5,3.45454545 C5.85566779,3.45454545 5.33333333,4.00401417 5.33333333,4.68181818 C5.33333333,5.35962219 5.85566779,5.90909091 6.5,5.90909091 Z M4.16666667,4.68181818 C4.16666667,3.32621016 5.21133558,2.22727273 6.5,2.22727273 C7.78866442,2.22727273 8.83333333,3.32621016 8.83333333,4.68181818 C8.83333333,6.0374262 7.78866442,7.13636364 6.5,7.13636364 C5.21133558,7.13636364 4.16666667,6.0374262 4.16666667,4.68181818 Z" id="Webcam" sketch:type="MSShapeGroup"></path>
        </g>
    </g>
</svg>