<?xml version="1.0" encoding="utf-8"?>
<!-- Generator: Adobe Illustrator 21.1.0, SVG Export Plug-In . SVG Version: 6.00 Build 0)  -->
<svg version="1.1" id="Layer_1" xmlns:sketch="http://www.bohemiancoding.com/sketch/ns"
	 xmlns="http://www.w3.org/2000/svg" xmlns:xlink="http://www.w3.org/1999/xlink" x="0px" y="0px" width="18px" height="18px"
	 viewBox="0 0 18 18" enable-background="new 0 0 18 18" xml:space="preserve">
<ellipse cx="9.5" cy="7.3" rx="1.8" ry="1.8"/>
<path d="M10.7,12.5C13.2,12,15,9.8,15,7.3C15,4.4,12.5,2,9.5,2S4,4.4,4,7.3c0,2.5,1.8,4.6,4.3,5.2V14H5v1h9v-1h-3.3V12.5z M5.8,7.3
	c0-2,1.6-3.5,3.7-3.5s3.7,1.6,3.7,3.5c0,2-1.6,3.5-3.7,3.5S5.8,9.3,5.8,7.3z"/>
</svg>
