<?xml version="1.0" encoding="UTF-8" standalone="no"?>
<svg width="18px" height="18px" viewBox="0 0 18 18" version="1.1" xmlns="http://www.w3.org/2000/svg" xmlns:xlink="http://www.w3.org/1999/xlink" xmlns:sketch="http://www.bohemiancoding.com/sketch/ns">
    <!-- Generator: Sketch 3.3.3 (12072) - http://www.bohemiancoding.com/sketch -->
    <title>webcam-white-18</title>
    <desc>Created with Sketch.</desc>
    <defs></defs>
    <g id="webcam" stroke="none" stroke-width="1" fill="none" fill-rule="evenodd" sketch:type="MSPage">
        <g id="webcam-white-18" sketch:type="MSArtboardGroup" fill="#FFFFFF">
            <path d="M10.7222222,12.5045812 L10.7222222,13.8181818 L13.7777778,13.8181818 L13.7777778,15 L5.22222222,15 L5.22222222,13.8181818 L8.27777778,13.8181818 L8.27777778,13.8181818 L8.27777778,12.5045812 C5.82845826,11.967174 4,9.84914874 4,7.31818182 C4,4.3810311 6.46243388,2 9.5,2 C12.5375661,2 15,4.3810311 15,7.31818182 C15,9.84914874 13.1715417,11.967174 10.7222222,12.5045812 L10.7222222,12.5045812 Z M9.5,9.09090909 C10.512522,9.09090909 11.3333333,8.29723206 11.3333333,7.31818182 C11.3333333,6.33913158 10.512522,5.54545455 9.5,5.54545455 C8.48747796,5.54545455 7.66666667,6.33913158 7.66666667,7.31818182 C7.66666667,8.29723206 8.48747796,9.09090909 9.5,9.09090909 Z M5.83333333,7.31818182 C5.83333333,5.36008134 7.47495592,3.77272727 9.5,3.77272727 C11.5250441,3.77272727 13.1666667,5.36008134 13.1666667,7.31818182 C13.1666667,9.27628229 11.5250441,10.8636364 9.5,10.8636364 C7.47495592,10.8636364 5.83333333,9.27628229 5.83333333,7.31818182 Z" id="Webcam" sketch:type="MSShapeGroup"></path>
        </g>
    </g>
</svg>