<?xml version="1.0" encoding="utf-8"?>
<!-- Generator: Adobe Illustrator 21.1.0, SVG Export Plug-In . SVG Version: 6.00 Build 0)  -->
<svg version="1.1" id="Layer_1" xmlns="http://www.w3.org/2000/svg" xmlns:xlink="http://www.w3.org/1999/xlink" x="0px" y="0px"
	 width="24px" height="24px" viewBox="0 0 24 24" enable-background="new 0 0 24 24" xml:space="preserve">
<polygon points="19.4,16.1 18.7,16.1 15.6,11.5 11.3,11.5 11.3,10 13.3,10 14,9.2 13.3,8.4 11.3,8.4 11.3,7.6 10.2,6.9 9.4,6.9 
	9,7.6 9,12.3 10.2,13.8 14.8,13.8 17.9,17.7 19.4,17.7 20.2,16.9 20.2,16.1 "/>
<path d="M14.3,16.1c-0.7,1.4-2.1,2.3-3.8,2.3c-2.3,0-4.2-1.9-4.2-4.2c0-1.3,0.6-2.5,1.5-3.3V9.2c-1.8,1-3.1,2.8-3.1,5
	c0,3.2,2.6,5.8,5.8,5.8c1.8,0,3.4-0.8,4.4-2.1v-1.8H14.3z"/>
<circle cx="10" cy="4.5" r="1.5"/>
</svg>
