<?xml version="1.0" encoding="utf-8"?>
<!-- Generator: Adobe Illustrator 21.1.0, SVG Export Plug-In . SVG Version: 6.00 Build 0)  -->
<svg version="1.1" id="Layer_1" xmlns="http://www.w3.org/2000/svg" xmlns:xlink="http://www.w3.org/1999/xlink" x="0px" y="0px"
	 width="12px" height="12px" viewBox="0 0 12 12" enable-background="new 0 0 12 12" xml:space="preserve">
<polygon fill="#FFFFFF" points="10,8.1 8.5,6 6.2,6 6.2,4.9 7.5,4.9 8.1,4.2 7.5,4.2 6.2,4.2 6.2,3.6 5.5,2.9 4.9,2.9 4.3,3.6 4,6 
	5,6 5,7 8,7 9.4,8.7 10.7,8.7 10.7,8.1 "/>
<path fill="#FFFFFF" d="M6.2,2c0,0.5-0.4,1-1,1c-0.5,0-1-0.4-1-1c0-0.5,0.4-1,1-1C5.7,1,6.2,1.4,6.2,2"/>
<path fill="#FFFFFF" d="M7.5,7.4L7.5,7.4C7.3,8.5,6.3,9.4,5.2,9.4C4,9.4,3,8.4,3,7.1c0-0.6,0.2-1.2,0.6-1.6V4.9
	C2.8,5.4,2.3,6.1,2.3,7.1c0,1.6,1.3,2.9,2.9,2.9c1.3,0,2.3-0.8,2.7-1.9H7.5V7.4z"/>
</svg>
