<?xml version="1.0" encoding="utf-8"?>
<!-- Generator: Adobe Illustrator 21.1.0, SVG Export Plug-In . SVG Version: 6.00 Build 0)  -->
<svg version="1.1" id="Layer_1" xmlns="http://www.w3.org/2000/svg" xmlns:xlink="http://www.w3.org/1999/xlink" x="0px" y="0px"
	 width="18px" height="18px" viewBox="0 0 18 18" enable-background="new 0 0 18 18" xml:space="preserve">
<polygon points="14.6,12.2 12.2,9 9,9 9,7.6 10.9,7.6 11.8,6.6 10.9,6.6 9,6.6 9,5.7 8.1,4.8 7.2,4.8 6.2,5.7 6.2,9.4 7.2,9.4 
	7.2,10.4 11.8,10.4 13.7,13.1 15.5,13.1 15.5,12.2 "/>
<circle cx="7.5" cy="3.5" r="1.5"/>
<path d="M10.9,11.3L10.9,11.3c-0.3,1.6-1.6,2.8-3.2,2.8c-1.8,0-3.2-1.5-3.2-3.2c0-0.9,0.4-1.7,0.9-2.3v-1c-1.1,0.8-1.9,1.8-1.9,3.3
	c0,2.3,1.9,4.2,4.2,4.2c1.8,0,3.4-1.2,4-2.8h-0.7C10.9,12.2,10.9,11.3,10.9,11.3z"/>
</svg>
