<?xml version="1.0" encoding="utf-8"?>
<!-- Generator: Adobe Illustrator 18.1.1, SVG Export Plug-In . SVG Version: 6.00 Build 0)  -->
<svg version="1.1" id="Layer_1" xmlns="http://www.w3.org/2000/svg" xmlns:xlink="http://www.w3.org/1999/xlink" x="0px" y="0px"
	 viewBox="0 0 12 12" enable-background="new 0 0 12 12" xml:space="preserve">
<polygon fill="#FFFFFF" points="4,4 3,4 3,5 2,5 2,6 3,6 3,10 4,10 4,6 5,6 5,5 4,5 "/>
<path fill="#FFFFFF" d="M4.869,3.175C5.264,3.752,6,4.247,6,5c0,0.746-0.733,1.641-1.122,2.217l0.674,0.454C6.03,6.966,7,5.913,7,5
	c0-0.92-0.974-1.571-1.455-2.279L4.869,3.175z"/>
<path fill="#FFFFFF" d="M6.846,2.311C7.407,3.134,8,3.93,8,5c0,1.064-0.59,2.252-1.145,3.074l0.658,0.458C8.16,7.581,9,6.235,9,5
	c0-1.237-0.842-2.188-1.488-3.14L6.846,2.311z"/>
<path fill="#FFFFFF" d="M9.046,1.453c0.727,1.069,1.15,2.36,1.15,3.748c0,1.388-0.422,2.675-1.146,3.742L9.717,9.39
	C10.528,8.195,11,6.753,11,5.201C11,3.645,10.523,2.198,9.709,1L9.046,1.453z"/>
</svg>
