<?xml version="1.0" encoding="utf-8"?>
<!-- Generator: Adobe Illustrator 18.1.1, SVG Export Plug-In . SVG Version: 6.00 Build 0)  -->
<svg version="1.1" id="Layer_1" xmlns="http://www.w3.org/2000/svg" xmlns:xlink="http://www.w3.org/1999/xlink" x="0px" y="0px"
	 viewBox="0 0 24 24" enable-background="new 0 0 24 24" xml:space="preserve">
<path d="M7,18v-6H6v6c0,0.279-0.744,1.191-0.963,1.227V20H8v-1C7.777,18.96,7,18.271,7,18z"/>
<path d="M9,6.815c0.693,1.012,1.097,2.237,1.097,3.557c0,1.308-0.399,2.523-1.081,3.533l1.182,0.796
	c0.838-1.237,1.324-2.727,1.324-4.329c0-1.614-0.494-3.112-1.336-4.353L9,6.815z"/>
<path d="M12.312,5.3c0.984,1.444,1.555,3.187,1.555,5.064c0,1.867-0.567,3.602-1.539,5.044l1.154,0.804
	c1.134-1.668,1.794-3.681,1.794-5.848c0-2.17-0.664-4.185-1.796-5.856L12.312,5.3z"/>
<path d="M15.572,3.794c1.276,1.875,2.017,4.139,2.017,6.574c0,2.434-0.741,4.691-2.011,6.564l1.172,0.784
	C18.172,15.62,19,13.092,19,10.368C19,7.639,18.164,5.102,16.736,3L15.572,3.794z"/>
<circle cx="6.5" cy="9.5" r="1.5"/>
</svg>
