<?xml version="1.0" encoding="utf-8"?>
<!-- Generator: Adobe Illustrator 21.1.0, SVG Export Plug-In . SVG Version: 6.00 Build 0)  -->
<svg version="1.1" id="Layer_1" xmlns="http://www.w3.org/2000/svg" xmlns:xlink="http://www.w3.org/1999/xlink" x="0px" y="0px"
	 width="18px" height="18px" viewBox="0 0 18 18" enable-background="new 0 0 18 18" xml:space="preserve">
<g>
	<path d="M9.5,9c-1.1,0-2.1,0.4-2.8,1.2l1,1c0.5-0.5,1.1-0.8,1.9-0.8c0.7,0,1.4,0.3,1.9,0.8l1-1C11.6,9.5,10.6,9,9.5,9z"/>
	<path d="M9.5,6.2C7.7,6.2,6,6.9,4.8,8.1l1,1c0.9-0.9,2.3-1.5,3.7-1.5s2.7,0.6,3.7,1.5l1-1C13,6.9,11.3,6.2,9.5,6.2z"/>
	<path d="M9.5,4.6c2.2,0,4.1,0.9,5.5,2.3l1-1c-1.7-1.7-4-2.7-6.5-2.7C7,3.3,4.7,4.3,3,6l1,1C5.4,5.5,7.3,4.6,9.5,4.6z"/>
	<circle cx="9.5" cy="12.8" r="0.9"/>
</g>
</svg>
