<?xml version="1.0" encoding="utf-8"?>
<!-- Generator: Adobe Illustrator 21.1.0, SVG Export Plug-In . SVG Version: 6.00 Build 0)  -->
<svg version="1.1" id="Layer_1" xmlns="http://www.w3.org/2000/svg" xmlns:xlink="http://www.w3.org/1999/xlink" x="0px" y="0px"
	 width="24px" height="24px" viewBox="0 0 24 24" enable-background="new 0 0 24 24" xml:space="preserve">
<g>
	<path fill="#FFFFFF" d="M12.5,12.2c-1.4,0-2.7,0.6-3.7,1.5l1.3,1.3c0.6-0.6,1.5-1,2.4-1c0.9,0,1.8,0.4,2.4,1l1.3-1.3
		C15.2,12.8,13.9,12.2,12.5,12.2z"/>
	<path fill="#FFFFFF" d="M12.5,8.4c-2.4,0-4.5,1-6.1,2.5l1.3,1.3c1.2-1.2,2.9-2,4.8-2c1.9,0,3.6,0.8,4.8,2l1.3-1.3
		C17,9.4,14.9,8.4,12.5,8.4z"/>
	<path fill="#FFFFFF" d="M12.5,6.5c2.8,0,5.4,1.1,7.2,3L21,8.2c-2.2-2.2-5.2-3.5-8.5-3.5C9.2,4.7,6.2,6,4,8.2l1.3,1.3
		C7.1,7.6,9.7,6.5,12.5,6.5z"/>
	<circle fill="#FFFFFF" cx="12.5" cy="17.1" r="1.2"/>
</g>
</svg>
