<?xml version="1.0" encoding="utf-8"?>
<!-- Generator: Adobe Illustrator 21.1.0, SVG Export Plug-In . SVG Version: 6.00 Build 0)  -->
<svg version="1.1" id="Layer_1" xmlns="http://www.w3.org/2000/svg" xmlns:xlink="http://www.w3.org/1999/xlink" x="0px" y="0px"
	 width="12px" height="12px" viewBox="0 0 12 12" enable-background="new 0 0 12 12" xml:space="preserve">
<g>
	<path d="M6.5,5.9c-0.8,0-1.5,0.3-2,0.8l0.7,0.7C5.5,7,6,6.8,6.5,6.8s1,0.2,1.3,0.5l0.7-0.7C8,6.2,7.3,5.9,6.5,5.9z"/>
	<path d="M6.5,3.9c-1.3,0-2.4,0.5-3.2,1.3L4,5.9c0.7-0.7,1.6-1.1,2.6-1.1s1.9,0.4,2.6,1.1l0.7-0.7C8.9,4.4,7.8,3.9,6.5,3.9z"/>
	<path d="M6.5,2.8c1.5,0,2.8,0.6,3.8,1.6L11,3.7C9.8,2.6,8.3,1.9,6.5,1.9S3.2,2.6,2,3.7l0.7,0.7C3.7,3.4,5,2.8,6.5,2.8z"/>
	<circle cx="6.5" cy="8.5" r="0.7"/>
</g>
</svg>
