<?xml version="1.0" encoding="utf-8"?>
<!-- Generator: Adobe Illustrator 21.1.0, SVG Export Plug-In . SVG Version: 6.00 Build 0)  -->
<svg version="1.1" id="Layer_1" xmlns="http://www.w3.org/2000/svg" xmlns:xlink="http://www.w3.org/1999/xlink" x="0px" y="0px"
	 width="18px" height="18px" viewBox="0 0 18 18" enable-background="new 0 0 18 18" xml:space="preserve">
<polygon points="15.4,13.6 14.3,13 13.7,13 12.6,13.6 12,13.6 10.9,13 10.3,13 9.2,13.6 8.7,13.6 8.1,13.6 8.1,13.3 7.5,13 7,13 
	5.8,13.6 5.3,13.6 4.1,13 4.1,14.2 5.3,14.7 5.8,14.7 7,14.2 7.5,14.2 8.7,14.7 9.2,14.7 10.3,14.2 10.9,14.2 12,14.7 12.6,14.7 
	13.7,14.2 14.3,14.2 15.4,14.7 16,14.7 16,13.6 "/>
<path d="M9.1,12.2l-1.4-1.3c-0.1-0.1-0.2-0.1-0.3-0.1H5.8l-0.2-0.6H5.3V9.6h0.1L5.3,9.3H6c0,0,0.2,0,0.2-0.1l1.3-0.6
	c0.1-0.1,0.2-0.2,0.2-0.3c0-0.2-0.2-0.4-0.4-0.4c-0.1,0-0.1,0-0.1,0L6.1,8.5H4.3c-0.1,0-0.1,0-0.2,0v0.5H3.6c0,0.1,0,0.1,0,0.2
	c0,0.1,0,0.1,0,0.2l0.8,1.8c0.1,0.3,0.4,0.5,0.7,0.5h2.1l1.2,1.2c0.2,0.2,0.5,0.2,0.7,0C9.3,12.7,9.3,12.4,9.1,12.2"/>
<path d="M7,2.3l4,10.2l4.4-2.8C15.2,5.5,10.6,2.8,7,2.3 M13.2,7.9H9.8V7.4h3.4c1,0,1.7,1.1,1.7,1.1v0.6h-0.6
	C14.3,9.1,13.6,7.9,13.2,7.9"/>
<path d="M4.7,7.7c0,0.5-0.4,0.8-0.8,0.8S3,8.1,3,7.7s0.4-0.8,0.8-0.8C4.3,6.8,4.7,7.2,4.7,7.7"/>
</svg>
