<?xml version="1.0" encoding="utf-8"?>
<!-- Generator: Adobe Illustrator 21.1.0, SVG Export Plug-In . SVG Version: 6.00 Build 0)  -->
<svg version="1.1" id="Layer_1" xmlns="http://www.w3.org/2000/svg" xmlns:xlink="http://www.w3.org/1999/xlink" x="0px" y="0px"
	 width="24px" height="24px" viewBox="0 0 24 24" enable-background="new 0 0 24 24" xml:space="preserve">
<polygon fill="#FFFFFF" points="20.3,18.2 18.8,17.4 18,17.4 16.6,18.2 15.8,18.2 14.3,17.4 13.6,17.4 12.1,18.2 11.4,18.2 
	10.7,18.2 10.7,17.8 9.9,17.4 9.2,17.4 7.7,18.2 7,18.2 5.5,17.4 5.5,18.9 7,19.6 7.7,19.6 9.2,18.9 9.9,18.9 11.4,19.6 12.1,19.6 
	13.6,18.9 14.3,18.9 15.8,19.6 16.6,19.6 18,18.9 18.8,18.9 20.3,19.6 21,19.6 21,18.2 "/>
<path fill="#FFFFFF" d="M11.9,16.3l-1.8-1.8c-0.1-0.1-0.2-0.1-0.4-0.1h-2l-0.3-0.7H7V13h0.2L7,12.5h1c0,0,0.2,0,0.3-0.1l1.7-0.8
	c0.1-0.1,0.2-0.2,0.2-0.4c0-0.3-0.2-0.5-0.5-0.5c-0.1,0-0.1,0-0.2,0L8,11.5H5.7c-0.1,0-0.2,0-0.3,0v0.7H4.8c0,0.1,0,0.2,0,0.3
	c0,0.1,0,0.2,0,0.2l1,2.3c0.2,0.4,0.5,0.6,0.9,0.6h2.8l1.6,1.5c0.3,0.2,0.7,0.2,0.9,0C12.2,17,12.2,16.5,11.9,16.3"/>
<path fill="#FFFFFF" d="M9.2,3.4l5.3,13.3l5.8-3.6C19.9,7.6,13.9,4,9.2,3.4 M17.3,10.8h-4.4V10h4.4c1.3,0,2.2,1.5,2.2,1.5v0.7h-0.7
	C18.8,12.2,17.9,10.8,17.3,10.8"/>
<path fill="#FFFFFF" d="M6.2,10.4c0,0.6-0.5,1.1-1.1,1.1C4.5,11.5,4,11,4,10.4c0-0.6,0.5-1.1,1.1-1.1C5.7,9.3,6.2,9.8,6.2,10.4"/>
</svg>
