<?xml version="1.0" encoding="utf-8"?>
<!-- Generator: Adobe Illustrator 21.1.0, SVG Export Plug-In . SVG Version: 6.00 Build 0)  -->
<svg version="1.1" id="Layer_1" xmlns="http://www.w3.org/2000/svg" xmlns:xlink="http://www.w3.org/1999/xlink" x="0px" y="0px"
	 width="12px" height="12px" viewBox="0 0 12 12" enable-background="new 0 0 12 12" xml:space="preserve">
<polygon fill="#FFFFFF" points="10.4,9.4 9.7,9.4 8.4,8.2 7.8,8.2 6.5,9.4 5.9,9.4 4.6,8.2 3.9,8.2 2.6,9.4 2,9.4 2,10 2.6,10 
	3.9,8.8 4.6,8.8 5.9,10 6.5,10 7.8,8.8 8.4,8.8 9.7,10 10.4,10 11,9.7 11,9.4 11,9 "/>
<path fill="#FFFFFF" d="M3.3,6.1H2.6v0.1l0.4,1.2c0.1,0.2,0.3,0.3,0.5,0.3h1v0.3h0.6V7.9l0.7,0.7c0.1,0.1,0.4,0.1,0.5,0
	c0.1-0.1,0.1-0.4,0-0.5l-1-0.9C5.3,7.2,5.3,7.1,5.2,7.1H4.6V6.8H3.9V6.6L3.7,6.2h0.2h0.3c0,0,0.1,0,0.2-0.1l0.8-0.3V5.2l0,0l-0.1,0
	L4.3,5.5h-1V6.1z"/>
<path fill="#FFFFFF" d="M7.1,7.4v0.2l0.2,0.5l3-1.9C10.2,3.3,7,1.3,4.6,1L7.1,7.4L7.1,7.4z"/>
<rect x="2" y="4.2" fill="#FFFFFF" width="1.3" height="1.3"/>
</svg>
