<?xml version="1.0" encoding="utf-8"?>
<!-- Generator: Adobe Illustrator 20.0.0, SVG Export Plug-In . SVG Version: 6.00 Build 0)  -->
<svg version="1.1" id="Layer_1" xmlns="http://www.w3.org/2000/svg" xmlns:xlink="http://www.w3.org/1999/xlink" x="0px" y="0px"
	 width="30px" height="30px" viewBox="0 0 30 30" style="enable-background:new 0 0 30 30;" xml:space="preserve">
<g>
	<path fill="#231F20" d="M22.1,1.1c-2.9,0-5.4,1.5-6.8,3.8c-1.4-2.4-4.2-4-7.2-4C3.7,0.9,0,4.5,0,8.9v0c0,3.3,1.5,7.3,5.7,12.1
		c2.9,3.4,6.3,6.1,9.4,8.1c3.2-2,6.5-4.7,9.4-8.1c4-4.7,5.5-8.6,5.5-11.9C30,4.7,26.6,1.1,22.1,1.1z M9.7,23.2l4.1-8.3h-6l13-11
		l-4,8h6L9.7,23.2z"/>
</g>
</svg>
