<?xml version="1.0" encoding="utf-8"?>
<!-- Generator: Adobe Illustrator 21.1.0, SVG Export Plug-In . SVG Version: 6.00 Build 0)  -->
<svg version="1.1" id="Layer_1" xmlns="http://www.w3.org/2000/svg" xmlns:xlink="http://www.w3.org/1999/xlink" x="0px" y="0px"
	 width="14px" height="14px" viewBox="0 0 14 14" enable-background="new 0 0 14 14" xml:space="preserve">
<path fill="#FFFFFF" d="M10.3,0.5C9,0.5,7.8,1.2,7.1,2.3c-0.7-1.1-2-1.9-3.4-1.9C1.7,0.4,0,2.1,0,4.2l0,0c0,1.6,0.7,3.4,2.6,5.7
	C4,11.5,5.5,12.8,7,13.7c1.5-0.9,3-2.2,4.4-3.8c1.9-2.2,2.6-4,2.6-5.6C14,2.2,12.4,0.5,10.3,0.5z M4,10.4l2-4H3.1l6.9-5l-2,4h3
	L4,10.4z"/>
</svg>
