<?xml version="1.0" encoding="utf-8"?>
<!-- Generator: Adobe Illustrator 18.1.1, SVG Export Plug-In . SVG Version: 6.00 Build 0)  -->
<svg version="1.1" id="Layer_1" xmlns="http://www.w3.org/2000/svg" xmlns:xlink="http://www.w3.org/1999/xlink" x="0px" y="0px"
	 viewBox="0 0 32 32" enable-background="new 0 0 32 32" xml:space="preserve">
<path opacity="0.5" d="M24.117,2.237c-2.869,0-5.382,1.501-6.814,3.756C15.9,3.607,13.082,2,10.114,2C5.655,2,2,5.615,2,10.073
	v0.001c0,3.344,1.526,7.334,5.67,12.131c2.921,3.382,6.261,6.116,9.445,8.066c3.184-1.95,6.467-4.685,9.388-8.066
	c4.046-4.685,5.513-8.599,5.497-11.894C32,5.852,28.576,2.237,24.117,2.237z M11.658,24.295L15.75,16h-6L22.798,5l-4.048,8h6
	L11.658,24.295z"/>
<path opacity="0.75" d="M23.117,1.237c-2.869,0-5.382,1.501-6.814,3.756C14.9,2.607,12.082,1,9.114,1C4.655,1,1,4.615,1,9.073v0.001
	c0,3.344,1.526,7.334,5.67,12.131c2.921,3.382,6.261,6.116,9.445,8.066c3.184-1.95,6.467-4.685,9.388-8.066
	C29.549,16.52,31.016,12.606,31,9.311C31,4.852,27.576,1.237,23.117,1.237z M10.658,23.295L14.75,15h-6L21.798,4l-4.048,8h6
	L10.658,23.295z"/>
<path fill="#E6E6E6" d="M22.117,0.237c-2.869,0-5.382,1.501-6.814,3.756C13.9,1.607,11.082,0,8.114,0C3.655,0,0,3.615,0,8.073v0.001
	c0,3.344,1.526,7.334,5.67,12.131c2.921,3.382,6.261,6.116,9.445,8.066c3.184-1.95,6.467-4.685,9.388-8.066
	C28.549,15.52,30.016,11.606,30,8.311C30,3.852,26.576,0.237,22.117,0.237z M9.658,22.295L13.75,14h-6L20.798,3l-4.048,8h6
	L9.658,22.295z"/>
</svg>
