<?xml version="1.0" encoding="utf-8"?>
<!-- Generator: Adobe Illustrator 18.1.1, SVG Export Plug-In . SVG Version: 6.00 Build 0)  -->
<svg version="1.1" id="Layer_1" xmlns="http://www.w3.org/2000/svg" xmlns:xlink="http://www.w3.org/1999/xlink" x="0px" y="0px"
	 viewBox="0 0 16 16" enable-background="new 0 0 16 16" xml:space="preserve">
<path opacity="0.1" d="M12.321,2.111c-1.339,0-2.512,0.7-3.18,1.753C8.487,2.75,7.172,2,5.786,2C3.706,2,2,3.687,2,5.768v0
	c0,1.561,0.712,3.422,2.646,5.661c1.363,1.578,2.922,2.854,4.408,3.764c1.486-0.91,3.018-2.186,4.381-3.764
	C15.323,9.243,16.007,7.416,16,5.878C16,3.798,14.402,2.111,12.321,2.111z M6,12l2-4H5.083L12,3l-2,4h3L6,12z"/>
<path opacity="0.2" d="M11.321,1.111c-1.339,0-2.512,0.7-3.18,1.753C7.487,1.75,6.172,1,4.786,1C2.706,1,1,2.687,1,4.768v0
	c0,1.561,0.712,3.422,2.646,5.661c1.363,1.578,2.922,2.854,4.408,3.764c1.486-0.91,3.018-2.186,4.381-3.764
	C14.323,8.243,15.007,6.416,15,4.878C15,2.798,13.402,1.111,11.321,1.111z M5,11l2-4H4.083L11,2L9,6h3L5,11z"/>
<path d="M10.321,0.111c-1.339,0-2.512,0.7-3.18,1.753C6.487,0.75,5.172,0,3.786,0C1.706,0,0,1.687,0,3.768v0
	C0,5.329,0.712,7.19,2.646,9.429c1.363,1.578,2.922,2.854,4.408,3.764c1.486-0.91,3.018-2.186,4.381-3.764
	C13.323,7.243,14.007,5.416,14,3.878C14,1.798,12.402,0.111,10.321,0.111z M4,10l2-4H3.083L10,1L8,5h3L4,10z"/>
</svg>
