<?xml version="1.0" encoding="utf-8"?>
<!-- Generator: Adobe Illustrator 18.1.1, SVG Export Plug-In . SVG Version: 6.00 Build 0)  -->
<svg version="1.1" id="Layer_1" xmlns="http://www.w3.org/2000/svg" xmlns:xlink="http://www.w3.org/1999/xlink" x="0px" y="0px"
	 viewBox="0 0 24 24" enable-background="new 0 0 24 24" xml:space="preserve">
<path opacity="0.5" d="M18.219,2.174c-2.104,0-3.947,1.101-4.997,2.754C12.193,3.178,10.127,2,7.95,2C4.68,2,2,4.651,2,7.921v0
	c0,2.453,1.119,5.378,4.158,8.896c2.142,2.48,4.592,4.485,6.927,5.915c2.335-1.43,4.742-3.435,6.884-5.915
	c2.967-3.436,4.043-6.306,4.031-8.723C24,4.825,21.489,2.174,18.219,2.174z M9.083,18.183L12.083,12h-4.4l9.569-7.967L14.283,10h4.4
	L9.083,18.183z"/>
<path opacity="0.75" d="M17.219,1.174c-2.104,0-3.947,1.101-4.997,2.754C11.193,2.178,9.127,1,6.95,1C3.68,1,1,3.651,1,6.921v0
	c0,2.453,1.119,5.378,4.158,8.896c2.142,2.48,4.592,4.485,6.927,5.915c2.335-1.43,4.742-3.435,6.884-5.915
	c2.967-3.436,4.043-6.306,4.031-8.723C23,3.825,20.489,1.174,17.219,1.174z M8.083,17.183L11.083,11h-4.4l9.569-7.967L13.283,9h4.4
	L8.083,17.183z"/>
<path fill="#E6E6E6" d="M16.219,0.174c-2.104,0-3.947,1.101-4.997,2.754C10.193,1.178,8.127,0,5.95,0C2.68,0,0,2.651,0,5.921v0
	c0,2.453,1.119,5.378,4.158,8.896c2.142,2.48,4.592,4.485,6.927,5.915c2.335-1.43,4.742-3.435,6.884-5.915
	c2.967-3.436,4.043-6.306,4.031-8.723C22,2.825,19.489,0.174,16.219,0.174z M7.083,16.183L10.083,10h-4.4l9.569-7.967L12.283,8h4.4
	L7.083,16.183z"/>
</svg>
