<?xml version="1.0" encoding="utf-8"?>
<!-- Generator: Adobe Illustrator 20.0.0, SVG Export Plug-In . SVG Version: 6.00 Build 0)  -->
<svg version="1.1" id="Layer_1" xmlns="http://www.w3.org/2000/svg" xmlns:xlink="http://www.w3.org/1999/xlink" x="0px" y="0px"
	 width="22px" height="22px" viewBox="0 0 22 22" style="enable-background:new 0 0 22 22;" xml:space="preserve">
<g>
	<path fill="#FFFFFF" d="M16.2,0.8c-2.1,0-3.9,1.1-5,2.8c-1-1.8-3.1-2.9-5.3-2.9C2.7,0.6,0,3.3,0,6.6l0,0c0,2.5,1.1,5.4,4.2,8.9
		c2.1,2.5,4.6,4.5,6.9,5.9c2.3-1.4,4.7-3.4,6.9-5.9c3-3.4,4-6.3,4-8.7C22,3.5,19.5,0.8,16.2,0.8z M7.1,16.8l3-6.2H5.7l9.6-8l-3,6
		h4.4L7.1,16.8z"/>
</g>
</svg>
