<?xml version="1.0" encoding="utf-8"?>
<!-- Generator: Adobe Illustrator 27.9.1, SVG Export Plug-In . SVG Version: 6.00 Build 0)  -->
<svg version="1.1" id="Layer_1" xmlns="http://www.w3.org/2000/svg" xmlns:xlink="http://www.w3.org/1999/xlink" x="0px" y="0px"
	 viewBox="0 0 14 14" enable-background="new 0 0 14 14" xml:space="preserve">
<g>
	<path  d="M13.7,12.4c-0.3,0-0.6-0.1-0.9-0.2C12.6,12.1,12.3,12,12,12c-0.3,0-0.6,0.1-0.9,0.2s-0.6,0.2-0.9,0.2
		c-0.3,0-0.6-0.1-0.9-0.2C9.1,12.1,8.9,12,8.6,12c-0.3,0-0.6,0.1-0.9,0.2c-0.3,0.1-0.6,0.2-0.9,0.2S6.3,12.3,6,12.2
		C5.7,12.1,5.4,12,5.1,12s-0.6,0.1-0.9,0.2c-0.3,0.1-0.6,0.2-0.9,0.2s-0.6-0.1-0.9-0.2C2.3,12.1,2,12,1.7,12s-0.6,0.1-0.9,0.2
		S0.3,12.4,0,12.4v-1.2c0.3,0,0.6-0.1,0.9-0.2c0.7-0.1,1-0.2,1.2-0.2S2.7,10.9,3,11c0.3,0.1,0.6,0.2,0.9,0.2s0.6-0.1,0.9-0.2
		c0.2-0.1,0.5-0.2,0.8-0.2S6,10.9,6.3,11c0.3,0.1,0.6,0.2,0.9,0.2S7.7,11.1,8,11c0.2-0.1,0.5-0.2,0.8-0.2c0.3,0,0.6,0.1,0.9,0.2
		c0.3,0.1,0.6,0.2,0.9,0.2c0.3,0,0.6-0.1,0.9-0.2c0.3-0.1,0.6-0.2,0.9-0.2s0.6,0.1,0.9,0.2c0.3,0.1,0.6,0.2,0.9,0.2v1.2H13.7z"/>
	<path  d="M1.7,9.7c0.2,0,0.3-0.1,0.5-0.1c0.3,0,0.6,0.1,0.9,0.2S3.6,10,3.9,10s0.6-0.1,0.9-0.2
		c0.1-0.1,0.4-0.1,0.7-0.1S6,9.8,6.3,9.9C6.6,10,6.9,10,7.1,10S7.7,10,8,9.9s0.6-0.2,0.9-0.2c0.3,0,0.6,0.1,0.9,0.2
		C10,10,10.3,10,10.6,10c0.3,0,0.6-0.1,0.9-0.2c0.3-0.1,0.6-0.2,0.9-0.2c0.3,0,0.6,0.1,0.9,0.2C13.4,10,13.7,10,14,10V7.8H0.7
		C0.4,7.8,0.4,8.9,1.7,9.7"/>
	<polygon  points="10.2,7.3 11,1.6 12.1,1.6 12.1,7.3 	"/>
	<path  d="M12.6,2.4c0-0.1,0-0.3,0.2-0.3L13.4,2c0.2-0.1,0.3,0.1,0.3,0.2v3.3c0,0.2-0.1,0.3-0.2,0.3L12.9,6
		c-0.1,0-0.2-0.1-0.2-0.2L12.6,2.4L12.6,2.4z"/>
</g>
</svg>
