<?xml version="1.0" encoding="utf-8"?>
<!-- Generator: Adobe Illustrator 25.4.1, SVG Export Plug-In . SVG Version: 6.00 Build 0)  -->
<svg version="1.1" id="Layer_1" xmlns="http://www.w3.org/2000/svg" xmlns:xlink="http://www.w3.org/1999/xlink" x="0px" y="0px"
	 width="14px" height="14px" viewBox="0 0 14 14" enable-background="new 0 0 14 14" xml:space="preserve">
<path fill="#231F20" d="M14,3.6L14,3.6c0-0.1-0.2-0.1-0.4-0.2C13.7,3.2,14,2.7,14,2.2c0-0.8-0.4-1.5-0.6-1.5c-0.2,0-0.5,0.7-0.5,1.5
	c0,0.5,0.2,0.9,0.3,1.2c-0.1,0-0.8,0-1.2,0V0.7h-1.2l-0.8,6h2V3.8c0.5,0,1.1,0,1.2,0c-0.1,0.3-0.4,0.7-0.4,1.2
	c0,0.8,0.3,1.5,0.5,1.5C13.6,6.4,14,5.7,14,4.9c0-0.5-0.3-0.9-0.4-1.2C13.8,3.7,14,3.6,14,3.6z"/>
<path fill="#231F20" d="M13.9,13c-0.3,0-0.6-0.1-0.8-0.2c-0.3-0.1-0.6-0.5-0.9-0.5c-0.3,0-0.6,0.4-0.9,0.5c-0.2,0.1-0.5,0.2-0.8,0.2
	s-0.6-0.1-0.8-0.2c-0.3-0.1-0.6-0.5-0.9-0.5c-0.3,0-0.6,0.4-0.9,0.5C7.7,12.9,7.4,13,7.1,13s-0.6-0.1-0.8-0.2
	c-0.3-0.1-0.6-0.5-0.9-0.5s-0.6,0.4-0.9,0.5C4.3,12.9,4,13,3.7,13s-0.6-0.1-0.8-0.2c-0.3-0.1-0.6-0.5-0.9-0.5s-0.6,0.4-0.9,0.5
	C0.9,12.9,0.6,13,0.3,13v-1.2c0.3,0,0.6-0.1,0.8-0.2c0.3-0.1,0.6-0.5,0.9-0.5s0.6,0.4,0.9,0.5s0.5,0.2,0.8,0.2s0.6-0.1,0.8-0.2
	c0.3-0.1,0.6-0.5,0.9-0.5s0.6,0.4,0.9,0.5s0.5,0.2,0.8,0.2s0.6-0.1,0.8-0.2c0.3-0.1,0.6-0.5,0.9-0.5s0.6,0.4,0.9,0.5
	c0.3,0.1,0.5,0.2,0.8,0.2s0.6-0.1,0.8-0.2c0.3-0.1,0.6-0.5,0.9-0.5c0.3,0,0.6,0.4,0.9,0.5c0.3,0.1,0.5,0.2,0.8,0.2V13z"/>
<path fill="#231F20" d="M3.7,10.8c-0.3-0.1-0.7-0.2-1-0.3c0.1,0,0.1,0.1,0.2,0.1C3.2,10.7,3.4,10.8,3.7,10.8z"/>
<path fill="#231F20" d="M0,7.7c0,0,0.6,1.4,2,2.4l0,0c0.2,0,0.5,0.3,0.7,0.4c0.3,0.1,0.6,0.2,1,0.3c0.3,0,0.6-0.1,0.8-0.2
	c0.3-0.1,0.6-0.5,0.9-0.5s0.6,0.4,0.9,0.5s0.5,0.2,0.8,0.2s0.6-0.1,0.8-0.2c0.3-0.1,0.6-0.5,0.9-0.5c0.3,0,0.6,0.4,0.9,0.5
	c0.3,0.1,0.5,0.2,0.8,0.2s0.6-0.1,0.8-0.2c0.3-0.1,0.6-0.5,0.9-0.5s0.6,0.4,0.9,0.5c0.3,0.1,0.5,0.2,0.8,0.2V7.7
	C13.9,7.7,0,7.7,0,7.7z"/>
</svg>
