<?xml version="1.0" encoding="utf-8"?>
<!-- Generator: Adobe Illustrator 27.9.1, SVG Export Plug-In . SVG Version: 6.00 Build 0)  -->
<svg version="1.1" id="Layer_1" xmlns="http://www.w3.org/2000/svg" xmlns:xlink="http://www.w3.org/1999/xlink" x="0px" y="0px"
	 viewBox="0 0 22 22" enable-background="new 0 0 22 22" xml:space="preserve">
<path fill="#FFFFFF" d="M22,19.9c-0.5,0-0.9-0.1-1.3-0.3c-0.4-0.2-0.9-0.3-1.4-0.3s-1,0.1-1.4,0.3c-0.4,0.2-0.9,0.3-1.3,0.3
	c-0.5,0-0.9-0.1-1.3-0.3c-0.4-0.2-0.9-0.3-1.4-0.3s-1,0.1-1.4,0.3c-0.4,0.2-0.9,0.3-1.3,0.3c-0.5,0-0.9-0.1-1.3-0.3
	c-0.4-0.2-0.9-0.3-1.4-0.3s-1,0.1-1.4,0.3c-0.4,0.2-0.9,0.3-1.3,0.3c-0.5,0-0.9-0.1-1.3-0.3c-0.4-0.2-0.9-0.3-1.4-0.3
	s-1,0.1-1.4,0.3c-0.4,0.2-0.9,0.3-1.3,0.3v-2c0.5,0,0.9-0.1,1.3-0.3c0.4-0.2,0.9-0.3,1.4-0.3s1,0.1,1.4,0.3c0.4,0.2,0.9,0.3,1.3,0.3
	c0.5,0,0.9-0.1,1.3-0.3c0.4-0.2,0.9-0.3,1.4-0.3s1,0.1,1.4,0.3c0.4,0.2,0.9,0.3,1.3,0.3c0.5,0,0.9-0.1,1.3-0.3
	c0.4-0.2,0.9-0.3,1.4-0.3s1,0.1,1.4,0.3c0.4,0.2,0.9,0.3,1.3,0.3c0.5,0,0.9-0.1,1.3-0.3c0.4-0.2,0.9-0.3,1.4-0.3s1,0.1,1.4,0.3
	c0.4,0.2,0.9,0.3,1.3,0.3V19.9z"/>
<path fill="#FFFFFF" d="M2.1,15.4c0.3-0.1,0.5-0.1,0.8-0.1c0.5,0,1,0.1,1.4,0.3s0.9,0.3,1.3,0.3c0.5,0,0.9-0.1,1.3-0.3
	s0.9-0.3,1.4-0.3s1,0.1,1.4,0.3s0.9,0.3,1.3,0.3c0.5,0,0.9-0.1,1.3-0.3c0.4-0.2,0.9-0.3,1.4-0.3s1,0.1,1.4,0.3s0.9,0.3,1.3,0.3
	c0.5,0,0.9-0.1,1.3-0.3s0.9-0.3,1.4-0.3s1,0.1,1.4,0.3s0.9,0.3,1.3,0.3v-3.7h-22C0,12.2,0,14.2,2.1,15.4"/>
<polygon fill="#FFFFFF" points="16.1,11.5 17.5,2.1 19.3,2.1 19.3,11.5 "/>
<path fill="#FFFFFF" d="M20.2,3.5c0-0.1,0.1-0.4,0.2-0.5l1.1-0.4C21.9,2.5,22,2.8,22,3v5.4c0,0.3-0.2,0.5-0.4,0.5l-1.1,0.4
	c-0.2,0.1-0.4-0.2-0.4-0.3V3.5H20.2z"/>
</svg>
