<?xml version="1.0" encoding="utf-8"?>
<!-- Generator: Adobe Illustrator 21.0.2, SVG Export Plug-In . SVG Version: 6.00 Build 0)  -->
<svg version="1.1" id="Layer_1" xmlns="http://www.w3.org/2000/svg" xmlns:xlink="http://www.w3.org/1999/xlink" x="0px" y="0px"
	 width="14px" height="14px" viewBox="0 0 14 14" style="enable-background:new 0 0 14 14;" xml:space="preserve">
<g>
	<path fill="#231F20" d="M7,13.1l-0.5-0.9h-2c-0.1-0.2,0.1-0.5,0.1-0.5c0.4-0.5,1.7-1.1,1.7-1.1L6,5.5L0.8,5.2C-0.1,5.1,0,4.4,0,4.4
		c0-0.5,0.9-0.6,0.9-0.6L6,3.2l0.4-1.5H5.7V1.5h1L7,1l0.3,0.5h1v0.2H7.6L8,3.2l5.1,0.6c0,0,0.9,0.2,0.9,0.6c0,0,0.1,0.6-0.8,0.7
		L8,5.5l-0.4,5.2c0,0,1.3,0.6,1.7,1.1c0,0,0.2,0.3,0.1,0.5h-2L7,13.1"/>
</g>
</svg>
