<?xml version="1.0" encoding="utf-8"?>
<!-- Generator: Adobe Illustrator 21.0.2, SVG Export Plug-In . SVG Version: 6.00 Build 0)  -->
<svg version="1.1" id="Layer_1" xmlns="http://www.w3.org/2000/svg" xmlns:xlink="http://www.w3.org/1999/xlink" x="0px" y="0px"
	 width="22px" height="22px" viewBox="0 0 22 22" style="enable-background:new 0 0 22 22;" xml:space="preserve">
<g>
	<path fill="#231F20" d="M11,20.1l-0.8-1.4H7.1c-0.1-0.2,0.1-0.8,0.1-0.8c0.6-0.8,2.7-1.7,2.7-1.7L9.4,8L1.3,7.6C-0.1,7.4,0,6.4,0,6.4
		c0-0.8,1.4-1,1.4-1l8.1-0.9L10,2.1H8.9V1.7h1.5L11,1l0.5,0.7h1.5v0.3H12l0.6,2.4l8.1,0.9c0,0,1.4,0.2,1.4,1c0,0,0.1,1-1.3,1.2
		L12.6,8L12,16.2c0,0,2.1,0.9,2.7,1.7c0,0,0.2,0.5,0.1,0.8h-3.1L11,20.1"/>
</g>
</svg>
