<?xml version="1.0" encoding="utf-8"?>
<!-- Generator: Adobe Illustrator 21.0.2, SVG Export Plug-In . SVG Version: 6.00 Build 0)  -->
<svg version="1.1" id="Layer_1" xmlns="http://www.w3.org/2000/svg" xmlns:xlink="http://www.w3.org/1999/xlink" x="0px" y="0px"
	 width="30px" height="30px" viewBox="0 0 30 30" style="enable-background:new 0 0 30 30;" xml:space="preserve">
<g>
	<path fill="#231F20" d="M15,28l-1.1-1.9H9.7C9.6,25.7,9.9,25,9.9,25c0.9-1.1,3.7-2.3,3.7-2.3l-0.9-11.1L1.7,10.9C-0.1,10.7,0,9.4,0,9.4
		C0,8.3,1.9,8,1.9,8l11-1.2l0.8-3.3h-1.5V3h2l0.9-1l0.7,1h2v0.5h-1.5l0.8,3.3l11,1.2c0,0,1.9,0.3,1.9,1.4c0,0,0.1,1.3-1.7,1.6
		l-11.1,0.7l-0.9,11.1c0,0,2.8,1.2,3.7,2.3c0,0,0.3,0.7,0.2,1.1h-4.2L15,28"/>
</g>
</svg>
