<?xml version="1.0" encoding="utf-8"?>
<!-- Generator: Adobe Illustrator 18.1.1, SVG Export Plug-In . SVG Version: 6.00 Build 0)  -->
<svg version="1.1" id="Icons" xmlns="http://www.w3.org/2000/svg" xmlns:xlink="http://www.w3.org/1999/xlink" x="0px" y="0px"
	 viewBox="0 0 24 24" enable-background="new 0 0 24 24" xml:space="preserve">
<g opacity="0.1">
	<polygon points="11,4 12,2 13,2 14,4 14,10 24,16 24,18 23,18 15,15 14,15 14,21 15,21 15,22 16,23 16,24 15,24 13,23 12,23 10,24 
		9,24 9,23 10,22 10,21 11,21 11,15 10,15 3,18 2,18 2,16 11,10 	"/>
</g>
<g opacity="0.2">
	<polygon points="10,3 11,1 12,1 13,3 13,9 23,15 23,17 22,17 14,14 13,14 13,20 14,20 14,21 15,22 15,23 14,23 12,22 11,22 9,23 
		8,23 8,22 9,21 9,20 10,20 10,14 9,14 2,17 1,17 1,15 10,9 	"/>
</g>
<g>
	<polygon points="9,2 10,0 11,0 12,2 12,8 22,14 22,16 21,16 13,13 12,13 12,19 13,19 13,20 14,21 14,22 13,22 11,21 10,21 8,22 
		7,22 7,21 8,20 8,19 9,19 9,13 8,13 1,16 0,16 0,14 9,8 	"/>
</g>
</svg>
