<?xml version="1.0" encoding="utf-8"?>
<!-- Generator: Adobe Illustrator 22.0.1, SVG Export Plug-In . SVG Version: 6.00 Build 0)  -->
<svg version="1.1" id="Layer_1" xmlns="http://www.w3.org/2000/svg" xmlns:xlink="http://www.w3.org/1999/xlink" x="0px" y="0px"
	 width="14px" height="14px" viewBox="0 0 14 14" enable-background="new 0 0 14 14" xml:space="preserve">
<path fill="#FFFFFF" d="M12,3.8c0.9,0.2,2,1,2,2v7.3c0,0.2-0.8,0.9-1,0.9H9c-0.2,0-1-0.7-1-0.9V6c0-1,1.1-2,2-2.2V0h2V3.8z"/>
<path fill="#FFFFFF" d="M5.8,13L4,12.5V8.1l3-3.6H0l3,3.6v4.5L1.1,13c0,0-0.3,0.6-0.3,1h5.2C6.1,13.6,5.8,13,5.8,13z"/>
</svg>
