<?xml version="1.0" encoding="utf-8"?>
<!-- Generator: Adobe Illustrator 22.0.1, SVG Export Plug-In . SVG Version: 6.00 Build 0)  -->
<svg version="1.1" id="Layer_1" xmlns="http://www.w3.org/2000/svg" xmlns:xlink="http://www.w3.org/1999/xlink" x="0px" y="0px"
	 width="22px" height="22px" viewBox="0 0 22 22" enable-background="new 0 0 22 22" xml:space="preserve">
<path fill="#FFFFFF" d="M19,6c1.4,0.3,3,1.6,3,3.1V20c0,0.4-0.6,1-1,1h-6c-0.4,0-1-0.6-1-1V9.1c0-1.5,1.6-2.8,3-3.1V1h2V6z"/>
<path fill="#FFFFFF" d="M10.4,20.3l-3.7-0.7v-6.9l5.5-5.6H0l5.5,5.6v6.9l-3.7,0.7c0,0-0.4,0.1-0.4,0.7h9.5C10.8,20.4,10.4,20.3,10.4,20.3z"/>
</svg>
