<?xml version="1.0" encoding="utf-8"?>
<!-- Generator: Adobe Illustrator 22.0.1, SVG Export Plug-In . SVG Version: 6.00 Build 0)  -->
<svg version="1.1" id="Layer_1" xmlns="http://www.w3.org/2000/svg" xmlns:xlink="http://www.w3.org/1999/xlink" x="0px" y="0px"
	 width="30px" height="30px" viewBox="0 0 30 30" enable-background="new 0 0 30 30" xml:space="preserve">
<path d="M27,8c1.9,0.5,3,2.3,3,4.4V28c0,0.5-0.5,1-1,1h-8c-0.5,0-1-0.5-1-1V12.4c0-2,1.1-3.9,3-4.4V1h4V8z"/>
<path d="M15,28l-5-1V17l8-8H0l8,8v10l-5,1c0,0-1,0.1-1,1h14C16,28.1,15,28,15,28z"/>
</svg>
