<?xml version="1.0" encoding="utf-8"?>
<!-- Generator: Adobe Illustrator 18.1.1, SVG Export Plug-In . SVG Version: 6.00 Build 0)  -->
<svg version="1.1" id="Layer_1" xmlns="http://www.w3.org/2000/svg" xmlns:xlink="http://www.w3.org/1999/xlink" x="0px" y="0px"
	 viewBox="0 0 24 24" enable-background="new 0 0 24 24" xml:space="preserve">
<g opacity="0.5">
	<path fill="#231F20" d="M19.401,9.068V6.337h-0.254c-0.754,0-1.364,0.611-1.364,1.366c0,0.755,0.61,1.366,1.364,1.366H19.401z"/>
	<path fill="#231F20" d="M17.341,8.446L16.146,6.06c-0.265-0.49-0.778-0.818-1.378-0.818h-2.771c-0.259,0-0.466,0.208-0.466,0.467
		c0,0.259,0.207,0.466,0.466,0.466l2.771-0.003c0.225,0,0.474,0.153,0.571,0.365l0.762,1.522L17.341,8.446z"/>
	<path fill="#231F20" d="M22.842,10.998c0.361,0.104,0.626,0.437,0.626,0.83l-2.016,0.002c-2.656,0-4.811,2.158-4.811,4.813h-6.568
		c0-2.134-1.388-3.944-3.307-4.575l-3.619-1.191l0.6-0.917c0.212-0.32,0.581-0.53,0.995-0.53c0.094,0,0.181,0.007,0.259,0.024
		l8.063,2.5c0.1,0.029,0.202,0.047,0.312,0.047c0.364,0,0.681-0.184,0.869-0.467l1.833-2.648L22.842,10.998z"/>
	<path fill="#231F20" d="M17.443,17.479c0-1.815,1.469-3.279,3.278-3.279c1.81,0,3.279,1.464,3.279,3.279
		c0,1.81-1.469,3.279-3.279,3.279C18.912,20.758,17.443,19.289,17.443,17.479z M20.721,18.706c0.681,0,1.228-0.552,1.228-1.227
		c0-0.68-0.547-1.227-1.228-1.227c-0.673,0-1.22,0.547-1.22,1.227C19.501,18.154,20.048,18.706,20.721,18.706z"/>
	<path fill="#231F20" d="M2,17.128c0-1.988,1.613-3.605,3.606-3.605c1.995,0,3.603,1.617,3.603,3.605
		c0,1.993-1.608,3.609-3.603,3.609C3.613,20.737,2,19.121,2,17.128z M5.614,18.478c0.741,0,1.346-0.601,1.346-1.347
		c0-0.746-0.605-1.349-1.346-1.349c-0.749,0-1.349,0.602-1.349,1.349C4.265,17.877,4.865,18.478,5.614,18.478z"/>
</g>
<g opacity="0.75">
	<path fill="#231F20" d="M18.401,8.068V5.337h-0.254c-0.754,0-1.364,0.611-1.364,1.366c0,0.755,0.61,1.366,1.364,1.366H18.401z"/>
	<path fill="#231F20" d="M16.341,7.446L15.146,5.06c-0.265-0.49-0.778-0.818-1.378-0.818h-2.771c-0.259,0-0.466,0.208-0.466,0.467
		c0,0.259,0.207,0.466,0.466,0.466l2.771-0.003c0.225,0,0.474,0.153,0.571,0.365l0.762,1.522L16.341,7.446z"/>
	<path fill="#231F20" d="M21.842,9.998c0.361,0.104,0.626,0.437,0.626,0.83l-2.016,0.002c-2.656,0-4.811,2.158-4.811,4.813H9.073
		c0-2.134-1.388-3.944-3.307-4.575L2.147,9.878l0.6-0.917c0.212-0.32,0.581-0.53,0.995-0.53c0.094,0,0.181,0.007,0.259,0.024
		l8.063,2.5c0.1,0.029,0.202,0.047,0.312,0.047c0.364,0,0.681-0.184,0.869-0.467l1.833-2.648L21.842,9.998z"/>
	<path fill="#231F20" d="M16.443,16.479c0-1.815,1.469-3.279,3.278-3.279c1.81,0,3.279,1.464,3.279,3.279
		c0,1.81-1.469,3.279-3.279,3.279C17.912,19.758,16.443,18.289,16.443,16.479z M19.721,17.706c0.681,0,1.228-0.552,1.228-1.227
		c0-0.68-0.547-1.227-1.228-1.227c-0.673,0-1.22,0.547-1.22,1.227C18.501,17.154,19.048,17.706,19.721,17.706z"/>
	<path fill="#231F20" d="M1,16.128c0-1.988,1.613-3.605,3.606-3.605c1.995,0,3.603,1.617,3.603,3.605
		c0,1.993-1.608,3.609-3.603,3.609C2.613,19.737,1,18.121,1,16.128z M4.614,17.478c0.741,0,1.346-0.601,1.346-1.347
		c0-0.746-0.605-1.349-1.346-1.349c-0.749,0-1.349,0.602-1.349,1.349C3.265,16.877,3.865,17.478,4.614,17.478z"/>
</g>
<g>
	<path fill="#E6E6E6" d="M17.401,7.068V4.337h-0.254c-0.754,0-1.364,0.611-1.364,1.366c0,0.755,0.61,1.366,1.364,1.366H17.401z"/>
	<path fill="#E6E6E6" d="M15.341,6.446L14.146,4.06c-0.265-0.49-0.778-0.818-1.378-0.818H9.998c-0.259,0-0.466,0.208-0.466,0.467
		c0,0.259,0.207,0.466,0.466,0.466l2.771-0.003c0.225,0,0.474,0.153,0.571,0.365l0.762,1.522L15.341,6.446z"/>
	<path fill="#E6E6E6" d="M20.842,8.998c0.361,0.104,0.626,0.437,0.626,0.83l-2.016,0.002c-2.656,0-4.811,2.158-4.811,4.813H8.073
		c0-2.134-1.388-3.944-3.307-4.575L1.147,8.878l0.6-0.917c0.212-0.32,0.581-0.53,0.995-0.53c0.094,0,0.181,0.007,0.259,0.024
		l8.063,2.5c0.1,0.029,0.202,0.047,0.312,0.047c0.364,0,0.681-0.184,0.869-0.467l1.833-2.648L20.842,8.998z"/>
	<path fill="#E6E6E6" d="M15.443,15.479c0-1.815,1.469-3.279,3.278-3.279S22,13.665,22,15.479c0,1.81-1.469,3.279-3.279,3.279
		S15.443,17.289,15.443,15.479z M18.721,16.706c0.681,0,1.228-0.552,1.228-1.227c0-0.68-0.547-1.227-1.228-1.227
		c-0.673,0-1.22,0.547-1.22,1.227C17.501,16.154,18.048,16.706,18.721,16.706z"/>
	<path fill="#E6E6E6" d="M0,15.128c0-1.988,1.613-3.605,3.606-3.605c1.995,0,3.603,1.617,3.603,3.605
		c0,1.993-1.608,3.609-3.603,3.609C1.613,18.737,0,17.121,0,15.128z M3.614,16.478c0.741,0,1.346-0.601,1.346-1.347
		c0-0.746-0.605-1.349-1.346-1.349c-0.749,0-1.349,0.602-1.349,1.349C2.265,15.877,2.865,16.478,3.614,16.478z"/>
</g>
</svg>
