<?xml version="1.0" encoding="utf-8"?>
<!-- Generator: Adobe Illustrator 18.1.1, SVG Export Plug-In . SVG Version: 6.00 Build 0)  -->
<svg version="1.1" id="Layer_1" xmlns="http://www.w3.org/2000/svg" xmlns:xlink="http://www.w3.org/1999/xlink" x="0px" y="0px"
	 viewBox="0 0 32 32" enable-background="new 0 0 32 32" xml:space="preserve">
<g opacity="0.1">
	<g>
		<path d="M25.729,11.638V7.914h-0.346c-1.029,0-1.861,0.834-1.861,1.862c0,1.03,0.832,1.862,1.861,1.862H25.729z"/>
	</g>
	<path d="M22.919,10.79l-1.628-3.253c-0.361-0.668-1.06-1.116-1.878-1.116h-3.778c-0.353,0-0.636,0.284-0.636,0.637
		c0,0.354,0.282,0.636,0.636,0.636l3.778-0.004c0.307,0,0.646,0.209,0.778,0.498l1.039,2.075L22.919,10.79z"/>
	<path d="M30.422,14.27c0.493,0.141,0.853,0.596,0.853,1.132l-2.75,0.003c-3.621,0-6.56,2.943-6.56,6.564H13.01
		c0-2.91-1.893-5.378-4.51-6.239l-4.935-1.625l0.818-1.25c0.289-0.436,0.793-0.723,1.357-0.723c0.129,0,0.246,0.009,0.354,0.032
		l10.995,3.408c0.136,0.039,0.275,0.064,0.425,0.064c0.497,0,0.928-0.252,1.186-0.637l2.5-3.61L30.422,14.27z"/>
	<path d="M23.058,23.108c0-2.475,2.004-4.471,4.471-4.471S32,20.633,32,23.108c0,2.468-2.003,4.471-4.471,4.471
		S23.058,25.576,23.058,23.108z M27.529,24.781c0.928,0,1.675-0.753,1.675-1.673c0-0.927-0.746-1.673-1.675-1.673
		c-0.918,0-1.664,0.746-1.664,1.673C25.865,24.028,26.611,24.781,27.529,24.781z"/>
	<path d="M2,22.63c0-2.71,2.2-4.915,4.918-4.915c2.721,0,4.914,2.205,4.914,4.915c0,2.718-2.193,4.921-4.914,4.921
		C4.2,27.551,2,25.347,2,22.63z M6.928,24.47c1.011,0,1.835-0.819,1.835-1.837c0-1.018-0.825-1.839-1.835-1.839
		c-1.021,0-1.839,0.821-1.839,1.839C5.089,23.651,5.907,24.47,6.928,24.47z"/>
</g>
<g opacity="0.2">
	<g>
		<path d="M24.729,10.638V6.914h-0.346c-1.029,0-1.861,0.834-1.861,1.862c0,1.03,0.832,1.862,1.861,1.862H24.729z"/>
	</g>
	<path d="M21.919,9.79l-1.628-3.253c-0.361-0.668-1.06-1.116-1.878-1.116h-3.778c-0.353,0-0.636,0.284-0.636,0.637
		c0,0.354,0.282,0.636,0.636,0.636l3.778-0.004c0.307,0,0.646,0.209,0.778,0.498l1.039,2.075L21.919,9.79z"/>
	<path d="M29.422,13.27c0.493,0.141,0.853,0.596,0.853,1.132l-2.75,0.003c-3.621,0-6.56,2.943-6.56,6.564H12.01
		c0-2.91-1.893-5.378-4.51-6.239l-4.935-1.625l0.818-1.25c0.289-0.436,0.793-0.723,1.357-0.723c0.129,0,0.246,0.009,0.354,0.032
		l10.995,3.408c0.136,0.039,0.275,0.064,0.425,0.064c0.497,0,0.928-0.252,1.186-0.637l2.5-3.61L29.422,13.27z"/>
	<path d="M22.058,22.108c0-2.475,2.004-4.471,4.471-4.471S31,19.633,31,22.108c0,2.468-2.003,4.471-4.471,4.471
		S22.058,24.576,22.058,22.108z M26.529,23.781c0.928,0,1.675-0.753,1.675-1.673c0-0.927-0.746-1.673-1.675-1.673
		c-0.918,0-1.664,0.746-1.664,1.673C24.865,23.028,25.611,23.781,26.529,23.781z"/>
	<path d="M1,21.63c0-2.71,2.2-4.915,4.918-4.915c2.721,0,4.914,2.205,4.914,4.915c0,2.718-2.193,4.921-4.914,4.921
		C3.2,26.551,1,24.347,1,21.63z M5.928,23.47c1.011,0,1.835-0.819,1.835-1.837c0-1.018-0.825-1.839-1.835-1.839
		c-1.021,0-1.839,0.821-1.839,1.839C4.089,22.651,4.907,23.47,5.928,23.47z"/>
</g>
<g>
	<g>
		<path d="M23.729,9.638V5.914h-0.346c-1.029,0-1.861,0.834-1.861,1.862c0,1.03,0.832,1.862,1.861,1.862H23.729z"/>
	</g>
	<path d="M20.919,8.79l-1.628-3.253c-0.361-0.668-1.06-1.116-1.878-1.116h-3.778c-0.353,0-0.636,0.284-0.636,0.637
		c0,0.354,0.282,0.636,0.636,0.636l3.778-0.004c0.307,0,0.646,0.209,0.778,0.498l1.039,2.075L20.919,8.79z"/>
	<path d="M28.422,12.27c0.493,0.141,0.853,0.596,0.853,1.132l-2.75,0.003c-3.621,0-6.56,2.943-6.56,6.564H11.01
		c0-2.91-1.893-5.378-4.51-6.239l-4.935-1.625l0.818-1.25c0.289-0.436,0.793-0.723,1.357-0.723c0.129,0,0.246,0.009,0.354,0.032
		l10.995,3.408c0.136,0.039,0.275,0.064,0.425,0.064c0.497,0,0.928-0.252,1.186-0.637l2.5-3.61L28.422,12.27z"/>
	<path d="M21.058,21.108c0-2.475,2.004-4.471,4.471-4.471S30,18.633,30,21.108c0,2.468-2.003,4.471-4.471,4.471
		S21.058,23.576,21.058,21.108z M25.529,22.781c0.928,0,1.675-0.753,1.675-1.673c0-0.927-0.746-1.673-1.675-1.673
		c-0.918,0-1.664,0.746-1.664,1.673C23.865,22.028,24.611,22.781,25.529,22.781z"/>
	<path d="M0,20.63c0-2.71,2.2-4.915,4.918-4.915c2.721,0,4.914,2.205,4.914,4.915c0,2.718-2.193,4.921-4.914,4.921
		C2.2,25.551,0,23.347,0,20.63z M4.928,22.47c1.011,0,1.835-0.819,1.835-1.837c0-1.018-0.825-1.839-1.835-1.839
		c-1.021,0-1.839,0.821-1.839,1.839C3.089,21.651,3.907,22.47,4.928,22.47z"/>
</g>
</svg>
