<?xml version="1.0" encoding="utf-8"?>
<!-- Generator: Adobe Illustrator 21.1.0, SVG Export Plug-In . SVG Version: 6.00 Build 0)  -->
<svg version="1.1" id="Layer_1" xmlns="http://www.w3.org/2000/svg" xmlns:xlink="http://www.w3.org/1999/xlink" x="0px" y="0px"
	 width="14px" height="14px" viewBox="0 0 14 14" enable-background="new 0 0 14 14" xml:space="preserve">
<title>all-terrain-trail-14-rev</title>
<g>
	<path fill="#FFFFFF" d="M12,4.5v-2h-0.2c-0.4,0-1.8,0.5-1.8,1s1.4,1,1.8,1H12z"/>
	<path fill="#FFFFFF" d="M10,3.5L9.2,2C9,1.7,8.7,1.5,8.4,1.5H6.6c-0.2,0-0.5,1-0.4,1H8c0.1,0,0.4,0.4,0.4,0.5L9,4L10,3.5z"/>
	<path fill="#FFFFFF" d="M12.9,5.9c0.2,0.1,0.4,0.3,0.4,0.5H12c-1.6,0-4,1.4-4,3.1H6C6,8.1,4.3,7,3,6.6L0.7,5.8l0.4-0.6
		C1.2,5,1.5,4.9,1.7,4.9h0.2L7,5.8h0.2c0.2,0,0.4-0.1,0.6-0.3L9,4.6L12.9,5.9z"/>
	<path fill="#FFFFFF" d="M2.5,7.5C1.1,7.5,0,8.6,0,10s1.1,2.5,2.5,2.5S5,11.4,5,10S3.9,7.5,2.5,7.5z M2.5,11c-0.5,0.1-0.9-0.3-1-0.8
		c0-0.1,0-0.1,0-0.2C1.4,9.5,1.8,9.1,2.3,9c0.1,0,0.1,0,0.2,0c0.5-0.1,0.9,0.3,1,0.8c0,0.1,0,0.1,0,0.2c0.1,0.5-0.3,0.9-0.8,1
		C2.6,11,2.6,11,2.5,11z"/>
	<path fill="#FFFFFF" d="M11.5,7.5C10.1,7.5,9,8.6,9,10s1.1,2.5,2.5,2.5S14,11.4,14,10S12.9,7.5,11.5,7.5z M11.5,11
		c-0.5,0.1-0.9-0.3-1-0.8c0-0.1,0-0.1,0-0.2c0-0.6,0.4-1,1-1s1,0.4,1,1c0.1,0.5-0.3,0.9-0.8,1C11.6,11,11.6,11,11.5,11z"/>
</g>
</svg>
