<?xml version="1.0" encoding="utf-8"?>
<!-- Generator: Adobe Illustrator 21.1.0, SVG Export Plug-In . SVG Version: 6.00 Build 0)  -->
<svg version="1.1" id="Layer_1" xmlns="http://www.w3.org/2000/svg" xmlns:xlink="http://www.w3.org/1999/xlink" x="0px" y="0px"
	 width="30px" height="30px" viewBox="0 0 30 30" enable-background="new 0 0 30 30" xml:space="preserve">
<path fill="#FFFFFF" d="M23.7,9.2V5.5h-0.3c-1,0-1.9,0.8-1.9,1.9c0,1,0.8,1.9,1.9,1.9C23.4,9.2,23.7,9.2,23.7,9.2z"/>
<path fill="#FFFFFF" d="M20.9,8.4l-1.6-3.3C18.9,4.4,18.2,4,17.4,4h-3.8C13.3,4,13,4.3,13,4.6c0,0.4,0.3,0.6,0.6,0.6h3.8
	c0.3,0,0.6,0.2,0.8,0.5l1,2.1L20.9,8.4z"/>
<path fill="#FFFFFF" d="M28.4,11.8c0.5,0.1,0.9,0.6,0.9,1.1h-2.8c-3.6,0-6.6,2.9-6.6,6.6h-9c0-2.9-1.9-5.4-4.5-6.2l-4.9-1.6l0.8-1.2
	C2.7,10,3.2,9.7,3.7,9.7c0.1,0,0.2,0,0.4,0l11,3.4c0.1,0,0.3,0.1,0.4,0.1c0.5,0,0.9-0.3,1.2-0.6L19.2,9L28.4,11.8z"/>
<path fill="#FFFFFF" d="M21.1,20.7c0-2.5,2-4.5,4.5-4.5s4.5,2,4.5,4.5s-2,4.5-4.5,4.5S21.1,23.2,21.1,20.7z M25.5,22.4
	c0.9,0,1.7-0.8,1.7-1.7c0-0.9-0.7-1.7-1.7-1.7c-0.9,0-1.7,0.7-1.7,1.7C23.9,21.6,24.6,22.4,25.5,22.4z"/>
<path fill="#FFFFFF" d="M0,20.2c0-2.7,2.2-4.9,4.9-4.9s4.9,2.2,4.9,4.9s-2.2,4.9-4.9,4.9S0,22.9,0,20.2z M4.9,22
	c1,0,1.8-0.8,1.8-1.8s-0.8-1.8-1.8-1.8s-1.8,0.8-1.8,1.8C3.1,21.2,3.9,22,4.9,22z"/>
</svg>
