<?xml version="1.0" encoding="utf-8"?>
<!-- Generator: Adobe Illustrator 18.1.1, SVG Export Plug-In . SVG Version: 6.00 Build 0)  -->
<svg version="1.1" id="Layer_1" xmlns="http://www.w3.org/2000/svg" xmlns:xlink="http://www.w3.org/1999/xlink" x="0px" y="0px"
	 viewBox="0 0 16 16" enable-background="new 0 0 16 16" xml:space="preserve">
<g opacity="0.5">
	<path fill="#231F20" d="M14,6V4h-0.162C13.358,4,12,4.52,12,5c0,0.481,1.358,1,1.838,1H14z"/>
	<path fill="#231F20" d="M12,5.039l-0.76-1.518C11.072,3.209,10.745,3,10.364,3H8.6C8.435,3,8.072,4.002,8.237,4.002L10,4
		c0.143,0,0.361,0.392,0.423,0.527l0.551,1.01L12,5.039z"/>
	<path fill="#231F20" d="M14.946,7.407c0.23,0.066,0.398,0.278,0.398,0.528l-1.283,0.002C12.371,7.937,10,9.31,10,11H8
		c0-1.358-1.746-2.51-2.967-2.911L2.73,7.33l0.382-0.583C3.246,6.544,3.481,6.41,3.745,6.41c0.06,0,0.115,0.004,0.165,0.015L9,7.267
		c0.063,0.018,0.128,0.03,0.198,0.03C9.43,7.297,9.632,7.18,9.752,7l1.207-0.937L14.946,7.407z"/>
	<path fill="#231F20" d="M4.5,9C3.119,9,2,10.119,2,11.5C2,12.881,3.119,14,4.5,14C5.881,14,7,12.881,7,11.5C7,10.119,5.881,9,4.5,9
		z M4.5,12.5c-0.552,0-1-0.448-1-1c0-0.552,0.448-1,1-1c0.552,0,1,0.448,1,1C5.5,12.052,5.052,12.5,4.5,12.5z"/>
	<path fill="#231F20" d="M13.5,9c-1.381,0-2.5,1.119-2.5,2.5c0,1.381,1.119,2.5,2.5,2.5c1.381,0,2.5-1.119,2.5-2.5
		C16,10.119,14.881,9,13.5,9z M13.5,12.5c-0.552,0-1-0.448-1-1c0-0.552,0.448-1,1-1c0.552,0,1,0.448,1,1
		C14.5,12.052,14.052,12.5,13.5,12.5z"/>
</g>
<g opacity="0.75">
	<path fill="#231F20" d="M13,5V3h-0.162C12.358,3,11,3.52,11,4c0,0.481,1.358,1,1.838,1H13z"/>
	<path fill="#231F20" d="M11,4.039l-0.76-1.518C10.072,2.209,9.745,2,9.364,2H7.6C7.435,2,7.072,3.002,7.237,3.002L9,3
		c0.143,0,0.361,0.392,0.423,0.527l0.551,1.01L11,4.039z"/>
	<path fill="#231F20" d="M13.946,6.407c0.23,0.066,0.398,0.278,0.398,0.528l-1.283,0.002C11.371,6.937,9,8.31,9,10H7
		c0-1.358-1.746-2.51-2.967-2.911L1.73,6.33l0.382-0.583C2.246,5.544,2.481,5.41,2.745,5.41c0.06,0,0.115,0.004,0.165,0.015L8,6.267
		c0.063,0.018,0.128,0.03,0.198,0.03C8.43,6.297,8.632,6.18,8.752,6l1.207-0.937L13.946,6.407z"/>
	<path fill="#231F20" d="M3.5,8C2.119,8,1,9.119,1,10.5C1,11.881,2.119,13,3.5,13C4.881,13,6,11.881,6,10.5C6,9.119,4.881,8,3.5,8z
		 M3.5,11.5c-0.552,0-1-0.448-1-1c0-0.552,0.448-1,1-1c0.552,0,1,0.448,1,1C4.5,11.052,4.052,11.5,3.5,11.5z"/>
	<path fill="#231F20" d="M12.5,8C11.119,8,10,9.119,10,10.5c0,1.381,1.119,2.5,2.5,2.5c1.381,0,2.5-1.119,2.5-2.5
		C15,9.119,13.881,8,12.5,8z M12.5,11.5c-0.552,0-1-0.448-1-1c0-0.552,0.448-1,1-1c0.552,0,1,0.448,1,1
		C13.5,11.052,13.052,11.5,12.5,11.5z"/>
</g>
<g>
	<path fill="#E6E6E6" d="M12,4V2h-0.162C11.358,2,10,2.52,10,3c0,0.481,1.358,1,1.838,1H12z"/>
	<path fill="#E6E6E6" d="M10,3.039L9.24,1.521C9.072,1.209,8.745,1,8.364,1H6.6C6.435,1,6.072,2.002,6.237,2.002L8,2
		c0.143,0,0.361,0.392,0.423,0.527l0.551,1.01L10,3.039z"/>
	<path fill="#E6E6E6" d="M12.946,5.407c0.23,0.066,0.398,0.278,0.398,0.528l-1.283,0.002C10.371,5.937,8,7.31,8,9H6
		c0-1.358-1.746-2.51-2.967-2.911L0.73,5.33l0.382-0.583C1.246,4.544,1.481,4.41,1.745,4.41c0.06,0,0.115,0.004,0.165,0.015L7,5.267
		c0.063,0.018,0.128,0.03,0.198,0.03C7.43,5.297,7.632,5.18,7.752,5l1.207-0.937L12.946,5.407z"/>
	<path fill="#E6E6E6" d="M2.5,7C1.119,7,0,8.119,0,9.5C0,10.881,1.119,12,2.5,12C3.881,12,5,10.881,5,9.5C5,8.119,3.881,7,2.5,7z
		 M2.5,10.5c-0.552,0-1-0.448-1-1c0-0.552,0.448-1,1-1c0.552,0,1,0.448,1,1C3.5,10.052,3.052,10.5,2.5,10.5z"/>
	<path fill="#E6E6E6" d="M11.5,7C10.119,7,9,8.119,9,9.5c0,1.381,1.119,2.5,2.5,2.5c1.381,0,2.5-1.119,2.5-2.5
		C14,8.119,12.881,7,11.5,7z M11.5,10.5c-0.552,0-1-0.448-1-1c0-0.552,0.448-1,1-1c0.552,0,1,0.448,1,1
		C12.5,10.052,12.052,10.5,11.5,10.5z"/>
</g>
</svg>
