<svg id="Icons" xmlns="http://www.w3.org/2000/svg" width="30" height="30" viewBox="0 0 30 30">
  <title>amphitheater-30-rev</title>
  <polygon fill="#FFFFFF" points="12 14 17 14 17 8 18 8 18 13 20 13 20 7 18 5 11 5 9 7 9 13 11 13 11 8 12 8 12 14"/>
  <circle fill="#FFFFFF" cx="14.5" cy="2" r="2"/>
  <path d="M30,29l-.9-2.8a108.2,108.2,0,0,1-14.2.9A127.4,127.4,0,0,1,.8,26.3L0,29.1A119.7,119.7,0,0,0,15,30,104,104,0,0,0,30,29Z" fill="#FFFFFF"/>
  <path d="M2.6,20.9l-.9,2.9a112,112,0,0,0,13.2.7c4.6,0,9-.3,13.3-.7l-.9-2.9a123.6,123.6,0,0,1-12.4.7C10.7,21.5,6.6,21.3,2.6,20.9Z" fill="#FFFFFF"/>
  <path d="M15,18.9c4,0,7.8-.2,11.5-.5l-.9-2.9c-3.4.3-7,.5-10.7.5s-7.1-.2-10.5-.5l-.9,2.9C7.2,18.7,11,18.9,15,18.9Z" fill="#FFFFFF"/>
</svg>
