<?xml version="1.0" encoding="utf-8"?>
<!-- Generator: Adobe Illustrator 21.1.0, SVG Export Plug-In . SVG Version: 6.00 Build 0)  -->
<svg version="1.1" id="Icons" xmlns="http://www.w3.org/2000/svg" xmlns:xlink="http://www.w3.org/1999/xlink" x="0px" y="0px"
	 width="22px" height="22px" viewBox="0 0 22 22" enable-background="new 0 0 22 22" xml:space="preserve">
<path fill="#FFFFFF" d="M10.9,3h-0.8C9.5,3,9,2.5,9,1.9V1.1C9,0.5,9.5,0,10.1,0c0,0,0,0,0,0h0.8C11.5,0,12,0.5,12,1.1v0.8C12,2.5,11.5,3,10.9,3
	L10.9,3z"/>
<polygon fill="#FFFFFF" points="9,10 12,10 12,6 13,6 13,9 14,9 14,5 12,4 9,4 7,5 7,9 8,9 8,6 9,6 "/>
<path fill="#FFFFFF" d="M22,21.3l-0.6-2.1c-3.5,0.4-6.9,0.6-10.4,0.6c-3.4,0-6.9-0.2-10.3-0.6L0,21.3C3.7,21.7,7.3,22,11,22
	C14.7,22,18.3,21.7,22,21.3z"/>
<path fill="#FFFFFF" d="M1.9,15.3l-0.6,2.1c3.1,0.3,6.3,0.5,9.7,0.5s6.6-0.2,9.7-0.5l-0.6-2.1c-3,0.3-6.1,0.5-9.1,0.5
	C8,15.8,4.9,15.6,1.9,15.3z"/>
<path fill="#FFFFFF" d="M11,13.9c2.8,0,5.6-0.1,8.4-0.4l-0.6-2.1c-2.5,0.2-5.1,0.4-7.8,0.4s-5.2-0.2-7.7-0.4l-0.6,2.1
	C5.3,13.7,8.1,13.9,11,13.9z"/>
</svg>
