<?xml version="1.0" encoding="utf-8"?>
<!-- Generator: Adobe Illustrator 21.1.0, SVG Export Plug-In . SVG Version: 6.00 Build 0)  -->
<svg version="1.1" id="Icons" xmlns="http://www.w3.org/2000/svg" xmlns:xlink="http://www.w3.org/1999/xlink" x="0px" y="0px"
	 width="14px" height="14px" viewBox="0 0 14 14" enable-background="new 0 0 14 14" xml:space="preserve">
<polygon fill="#231F20" points="4.8,3 3.9,4.4 3.9,6.1 4.8,6.1 4.8,4 6,4 6,7 8,7 8,4 9.2,4 9.2,6.1 10.1,6.1 10.1,4.4 9.2,3 "/>
<path fill="#231F20" d="M7,2.6L7,2.6C6.3,2.6,5.7,2,5.7,1.3S6.3,0,7,0s1.3,0.6,1.3,1.3S7.7,2.6,7,2.6z"/>
<path fill="#231F20" d="M2.6,7.9L1.8,9.6c0,0,4.2,0.9,5.2,0.9s5.2-0.9,5.2-0.9l-0.9-1.8c0,0-3.2,0.7-4.4,0.7S2.6,7.9,2.6,7.9z"/>
<path fill="#231F20" d="M0.9,11.4L0,13.1c0,0,5.6,0.9,7,0.9s7-0.9,7-0.9l-0.9-1.8c0,0-4.7,1-6.1,1S0.9,11.4,0.9,11.4z"/>
</svg>
