<?xml version="1.0" encoding="utf-8"?>
<!-- Generator: Adobe Illustrator 18.1.1, SVG Export Plug-In . SVG Version: 6.00 Build 0)  -->
<svg version="1.1" id="Icons" xmlns="http://www.w3.org/2000/svg" xmlns:xlink="http://www.w3.org/1999/xlink" x="0px" y="0px"
	 viewBox="0 0 32 32" enable-background="new 0 0 32 32" xml:space="preserve">
<g opacity="0.1">
	<path d="M23.5,16c-2,1.3-4.4,2.1-7,2.1c-2.6,0-5-0.8-7-2.1l-1.6,2.3c2.4,1.6,5.4,2.6,8.5,2.6c3.2,0,6.1-0.9,8.6-2.6L23.5,16z"/>
	<path d="M26.5,20.7c-2.8,1.9-6.3,3-10,3c-3.7,0-7.1-1.1-9.9-3L5,23c3.3,2.2,7.3,3.5,11.5,3.5c4.3,0,8.2-1.3,11.5-3.5L26.5,20.7z"/>
	<path d="M29.4,25.4c-3.7,2.5-8.2,3.9-13,3.9c-4.8,0-9.2-1.4-12.9-3.9L2,27.6c4.1,2.7,9.1,4.4,14.5,4.4c5.4,0,10.4-1.6,14.5-4.4
		L29.4,25.4z"/>
	<polygon points="14,16 19,16 19,10 20,10 20,15 22,15 22,9 20,7 13,7 11,9 11,15 13,15 13,10 14,10 	"/>
	<circle cx="16.5" cy="4" r="2"/>
</g>
<g opacity="0.2">
	<path d="M22.5,15c-2,1.3-4.4,2.1-7,2.1c-2.6,0-5-0.8-7-2.1l-1.6,2.3c2.4,1.6,5.4,2.6,8.5,2.6c3.2,0,6.1-0.9,8.6-2.6L22.5,15z"/>
	<path d="M25.5,19.7c-2.8,1.9-6.3,3-10,3c-3.7,0-7.1-1.1-9.9-3L4,22c3.3,2.2,7.3,3.5,11.5,3.5c4.3,0,8.2-1.3,11.5-3.5L25.5,19.7z"/>
	<path d="M28.4,24.4c-3.7,2.5-8.2,3.9-13,3.9c-4.8,0-9.2-1.4-12.9-3.9L1,26.6c4.1,2.7,9.1,4.4,14.5,4.4c5.4,0,10.4-1.6,14.5-4.4
		L28.4,24.4z"/>
	<polygon points="13,15 18,15 18,9 19,9 19,14 21,14 21,8 19,6 12,6 10,8 10,14 12,14 12,9 13,9 	"/>
	<circle cx="15.5" cy="3" r="2"/>
</g>
<g>
	<path d="M21.5,14c-2,1.3-4.4,2.1-7,2.1c-2.6,0-5-0.8-7-2.1l-1.6,2.3c2.4,1.6,5.4,2.6,8.5,2.6c3.2,0,6.1-0.9,8.6-2.6L21.5,14z"/>
	<path d="M24.5,18.7c-2.8,1.9-6.3,3-10,3c-3.7,0-7.1-1.1-9.9-3L3,21c3.3,2.2,7.3,3.5,11.5,3.5c4.3,0,8.2-1.3,11.5-3.5L24.5,18.7z"/>
	<path d="M27.4,23.4c-3.7,2.5-8.2,3.9-13,3.9c-4.8,0-9.2-1.4-12.9-3.9L0,25.6C4.1,28.4,9.1,30,14.5,30c5.4,0,10.4-1.6,14.5-4.4
		L27.4,23.4z"/>
	<polygon points="12,14 17,14 17,8 18,8 18,13 20,13 20,7 18,5 11,5 9,7 9,13 11,13 11,8 12,8 	"/>
	<circle cx="14.5" cy="2" r="2"/>
</g>
</svg>
