<?xml version="1.0" encoding="utf-8"?>
<!-- Generator: Adobe Illustrator 22.0.1, SVG Export Plug-In . SVG Version: 6.00 Build 0)  -->
<svg version="1.1" id="Layer_1" xmlns="http://www.w3.org/2000/svg" xmlns:xlink="http://www.w3.org/1999/xlink" x="0px" y="0px"
	 width="22px" height="22px" viewBox="0 0 22 22" style="enable-background:new 0 0 22 22;" xml:space="preserve">
<rect fill="#FFFFFF" x="3" y="4" width="16" height="2"/>
<rect fill="#FFFFFF" x="3" y="7" width="12" height="2"/>
<rect fill="#FFFFFF" x="3" y="1" width="16" height="2"/>
<path fill="#FFFFFF" d="M16.2,13.2L14,10.7V13c-0.4,0-0.8-0.1-1.2-0.1L11,10.6L10.9,13c-0.5,0-1,0.1-1.5,0.2L8,11.4v2.1c-0.5,0.2-1.1,0.3-1.6,0.5
	L5,12.3v2.3c-0.4,0.2-0.7,0.4-1,0.7c-0.3-0.2-0.6-0.5-0.9-0.7c-0.7-0.4-2.3-0.9-3.1-1.2L1.8,16L0,18.7c0.8-0.4,2.5-0.8,3.1-1.2
	C3.5,17.2,3.7,17,4,16.7c2,1.5,5,2.5,8.5,2.5c2.6,0,4.9-0.6,6.8-1.4l0.7,2.1l0.8-2.9c0.4-0.3,0.9-0.6,1.2-0.9
	C20.7,14.7,18.6,13.8,16.2,13.2z M16.5,16.5c-0.6,0-1-0.4-1-1s0.4-1,1-1s1,0.4,1,1S17.1,16.5,16.5,16.5z"/>
</svg>
