<?xml version="1.0" encoding="utf-8"?>
<!-- Generator: Adobe Illustrator 21.1.0, SVG Export Plug-In . SVG Version: 6.00 Build 0)  -->
<svg version="1.1" id="Layer_1" xmlns="http://www.w3.org/2000/svg" xmlns:xlink="http://www.w3.org/1999/xlink" x="0px" y="0px"
	 width="14px" height="14px" viewBox="0 0 14 14" enable-background="new 0 0 14 14" xml:space="preserve">
<path fill="#231F20" d="M4,0h1.9l1.2,2l1.2-2H10L8.1,2.9L10.2,6H8.3L6.9,3.8L5.6,6H3.8l2.1-3.1L4,0z"/>
<path fill="#231F20" d="M10.3,9.1L8.9,7.4v1.5c-0.3,0-0.5-0.1-0.8-0.1L7,7.4L6.9,8.9c-0.3,0-0.7,0-1,0.1L5.1,7.9v1.3
	c-0.3,0.1-0.7,0.2-1,0.3l-0.9-1V10c-0.2,0.1-0.4,0.3-0.6,0.4C2.4,10.2,2.2,10.1,2,9.9C1.6,9.6,0.5,9.4,0,9.1l1.2,1.7L0,12.5
	c0.5-0.2,1.6-0.5,2-0.8c0.2-0.1,0.4-0.3,0.6-0.5c1.3,0.9,3.2,1.6,5.4,1.6c1.6,0,3.1-0.4,4.3-0.9l0.4,1.3l0.5-1.8
	c0.3-0.2,0.5-0.4,0.8-0.6C13.2,10,11.9,9.4,10.3,9.1z M11,11h-1v-1h1V11z"/>
</svg>
