<?xml version="1.0" encoding="utf-8"?>
<!-- Generator: Adobe Illustrator 21.1.0, SVG Export Plug-In . SVG Version: 6.00 Build 0)  -->
<svg version="1.1" id="Layer_1" xmlns="http://www.w3.org/2000/svg" xmlns:xlink="http://www.w3.org/1999/xlink" x="0px" y="0px"
	 width="30px" height="30px" viewBox="0 0 30 30" enable-background="new 0 0 30 30" xml:space="preserve">
<path fill="#FFFFFF" d="M22.1,19.4l-3-3.5V19c-0.6,0-1.1-0.1-1.7-0.1l-2.4-3l-0.2,3.2c-0.7,0.1-1.4,0.1-2.1,0.2L10.8,17l-0.1,2.8
	C10,20,9.2,20.2,8.6,20.5l-1.9-2.3v3.2c-0.5,0.3-0.9,0.6-1.3,0.9c-0.4-0.3-0.8-0.7-1.3-1c-0.9-0.6-3.2-1.2-4.3-1.7l2.5,3.6L0,26.8
	c1.1-0.5,3.3-1,4.3-1.7c0.5-0.3,0.8-0.7,1.3-1c2.7,2,6.8,3.4,11.6,3.4c3.5,0,6.7-0.8,9.2-2l0.9,2.8l1.1-3.9c0.6-0.4,1.2-0.8,1.6-1.2
	C28.2,21.4,25.4,20.1,22.1,19.4z M23,23.5c-0.8,0-1.5-0.7-1.5-1.5s0.7-1.5,1.5-1.5s1.5,0.7,1.5,1.5S23.8,23.5,23,23.5z"/>
<path fill="#FFFFFF" d="M8.7,0h4l2.6,4.2L17.7,0h3.6l-3.9,6.2l4.4,6.8h-4l-2.9-4.8l-3,4.8H8.2l4.5-6.8L8.7,0z"/>
</svg>
