<?xml version="1.0" encoding="utf-8"?>
<!-- Generator: Adobe Illustrator 22.0.1, SVG Export Plug-In . SVG Version: 6.00 Build 0)  -->
<svg version="1.1" id="Layer_1" xmlns="http://www.w3.org/2000/svg" xmlns:xlink="http://www.w3.org/1999/xlink" x="0px" y="0px"
	 width="30px" height="30px" viewBox="0 0 30 30" style="enable-background:new 0 0 30 30;" xml:space="preserve">
<rect fill="#FFFFFF" x="4" y="6" width="22" height="2"/>
<rect fill="#FFFFFF" x="4" y="10" width="16" height="2"/>
<rect fill="#FFFFFF" x="4" y="2" width="22" height="2"/>
<path fill="#FFFFFF" d="M22.1,18.4l-3-3.5V18c-0.6,0-1.1-0.1-1.7-0.1l-2.4-3l-0.2,3.2c-0.7,0.1-1.4,0.1-2.1,0.2L10.8,16l-0.1,2.8
	C10,19,9.2,19.2,8.6,19.5l-1.9-2.3v3.2c-0.5,0.3-0.9,0.6-1.3,0.9c-0.4-0.3-0.8-0.7-1.3-1c-0.9-0.6-3.2-1.2-4.3-1.7l2.5,3.6L0,25.8
	c1.1-0.5,3.3-1,4.3-1.7c0.5-0.3,0.8-0.7,1.3-1c2.7,2,6.8,3.4,11.6,3.4c3.5,0,6.7-0.8,9.2-2l0.9,2.8l1.1-3.9c0.6-0.4,1.2-0.8,1.6-1.2
	C28.2,20.4,25.4,19.1,22.1,18.4z M23,22.5c-0.8,0-1.5-0.7-1.5-1.5s0.7-1.5,1.5-1.5s1.5,0.7,1.5,1.5S23.8,22.5,23,22.5z"/>
</svg>
