<?xml version="1.0" encoding="utf-8"?>
<!-- Generator: Adobe Illustrator 22.1.0, SVG Export Plug-In . SVG Version: 6.00 Build 0)  -->
<svg version="1.1" id="Layer_1" xmlns="http://www.w3.org/2000/svg" xmlns:xlink="http://www.w3.org/1999/xlink" x="0px" y="0px"
	 width="14px" height="14px" viewBox="0 0 14 14" enable-background="new 0 0 14 14" xml:space="preserve">
<rect x="3" y="3" width="3" height="1"/>
<circle cx="6" cy="2" r="1"/>
<path d="M11,3c-0.1-1.1-0.4-2.1-0.8-2.8C10.1,0.1,10,0.1,10,0H9.6L9.5,0.2L7,2.6V3v1v0.4l2.5,2.5l0.4,0.4c0,0,0.1-0.1,0.1-0.1L10,7
	C10,7,10.1,6.9,10.1,6.8C10.6,6.1,10.9,5.1,11,4h0L11,3L11,3z M9.8,0.6C10.2,1.2,10.4,2,10.5,3H7.4L9.8,0.6z M9.8,6.4L7.4,4h3.1
	C10.4,5,10.2,5.8,9.8,6.4z"/>
<path d="M8,13.4L8,13.4L7,9V5V4c0,0.6-0.4,1-1,1H4v3.9l0,0L3,13.3c0,0.1,0,0.1,0,0.2C3,13.8,3.2,14,3.5,14c0.2,0,0.4-0.1,0.5-0.3
	l0,0L5.3,9h0.5L7,13.6l0,0c0,0.2,0.2,0.4,0.5,0.4C7.8,14,8,13.8,8,13.4C8,13.5,8,13.4,8,13.4z"/>
</svg>
