<?xml version="1.0" encoding="utf-8"?>
<!-- Generator: Adobe Illustrator 22.1.0, SVG Export Plug-In . SVG Version: 6.00 Build 0)  -->
<svg version="1.1" id="Layer_1" xmlns="http://www.w3.org/2000/svg" xmlns:xlink="http://www.w3.org/1999/xlink" x="0px" y="0px"
	 width="22px" height="22px" viewBox="0 0 22 22" enable-background="new 0 0 22 22" xml:space="preserve">
<path fill="#FFFFFF" d="M8.9,4.7c1,0,1.8-0.8,1.8-1.8S9.9,1,8.9,1c-1,0-1.8,0.8-1.8,1.8S7.9,4.7,8.9,4.7z"/>
<path fill="#FFFFFF" d="M9.4,6.6c1.1,0,1.1-1.4,0-1.4H4.8c-1.1,0-1.1,1.4,0,1.4H9.4C9.4,6.6,9.4,6.6,9.4,6.6z"/>
<path fill="#FFFFFF" d="M16,0.4c0,0-0.3-0.4-0.3-0.4l-4.8,4.8c0.2,0.3,0.4,0.6,0.4,1c0,1-0.8,1.7-1.8,1.7H7v6.1c0,0-1.6,7.1-1.6,7.1
	c-0.1,0.6,0.3,1.1,0.8,1.2c0.6,0.1,1.1-0.2,1.2-0.8l1.5-7.4v0h0.7v0l1.5,7.4c0.1,0.6,0.6,0.9,1.2,0.8c0.5-0.1,0.9-0.6,0.8-1.2
	l-1.4-7.2v-6l4,4c0,0,0.3-0.4,0.3-0.4c1.3-1.5,2-3.4,2-5.5C18,3.8,17.3,1.9,16,0.4z M9.6,13.8L9.6,13.8C9.6,13.8,9.6,13.8,9.6,13.8
	L9.6,13.8z M11.2,5.1C12.3,4.1,14.3,2,15.3,1c1,1.2,1.6,2.6,1.7,4.1H11.2z M15.3,10.7c-0.9-0.9-2.6-2.6-3.7-3.7V6.6h5.5
	C16.9,8.1,16.3,9.5,15.3,10.7z"/>
</svg>
