<?xml version="1.0" encoding="utf-8"?>
<!-- Generator: Adobe Illustrator 22.1.0, SVG Export Plug-In . SVG Version: 6.00 Build 0)  -->
<svg version="1.1" id="Layer_1" xmlns="http://www.w3.org/2000/svg" xmlns:xlink="http://www.w3.org/1999/xlink" x="0px" y="0px"
	 width="30px" height="30px" viewBox="0 0 30 30" enable-background="new 0 0 30 30" xml:space="preserve">
<path d="M12.2,6.4c1.4,0,2.5-1.1,2.5-2.5s-1.1-2.5-2.5-2.5c-1.4,0-2.5,1.1-2.5,2.5S10.8,6.4,12.2,6.4z"/>
<path fill="none" d="M20.9,1.4c-1.4,1.4-4.2,4.2-5.6,5.6h8C23.1,4.9,22.3,3,20.9,1.4z"/>
<path fill="none" d="M13.1,18.8L13.1,18.8C13.1,18.8,13.1,18.8,13.1,18.8L13.1,18.8z"/>
<path fill="none" d="M15.9,9.5c1.5,1.5,3.8,3.8,5.1,5.1c1.3-1.6,2.2-3.5,2.4-5.6h-7.4V9.5z"/>
<path d="M21.8,0.5c0,0-0.5-0.5-0.5-0.5l-6.8,6.8c0.2,0.3,0.4,0.7,0.4,1.1c0,0.7-0.4,1.5-1.2,1.8C13.3,10,13.2,10,12.8,10H9v8.6
	c0,0,0,0,0,0l-1.6,9.7c-0.1,0.8,0.3,1.5,1.1,1.6c0.8,0.2,1.5-0.3,1.6-1.1l2-10v0h0.9v0l2,10c0.2,0.8,0.9,1.2,1.6,1.1
	c0.7-0.1,1.2-0.9,1.1-1.6l-1.9-9.8v-8.2l5.5,5.5c0,0,0.5-0.5,0.5-0.5c1.8-2.1,2.8-4.7,2.8-7.4C24.6,5.2,23.6,2.6,21.8,0.5z
	 M13.1,18.8L13.1,18.8C13.1,18.8,13.1,18.8,13.1,18.8L13.1,18.8z M15.3,7c1.5-1.5,4.2-4.2,5.6-5.6C22.3,3,23.1,4.9,23.3,7H15.3z
	 M20.9,14.5c-1.2-1.2-3.5-3.5-5.1-5.1V8.9h7.4C23.1,11,22.3,12.9,20.9,14.5z"/>
<path d="M12.8,7H6.6c-1.5,0-1.5,1.9,0,1.9h6.2c0,0,0,0,0,0C14.2,8.9,14.2,7,12.8,7z"/>
</svg>
