<?xml version="1.0" encoding="utf-8"?>
<!-- Generator: Adobe Illustrator 27.9.1, SVG Export Plug-In . SVG Version: 6.00 Build 0)  -->
<svg version="1.1" id="Layer_1" xmlns="http://www.w3.org/2000/svg" xmlns:xlink="http://www.w3.org/1999/xlink" x="0px" y="0px"
	 viewBox="0 0 22 22" enable-background="new 0 0 22 22" xml:space="preserve">
<g>
	<path  d="M13.5,15c0,0-0.1,0-0.1,0c-0.6-0.2-1.2-0.5-1.3-1.3c-0.1-0.7,0.2-1.1,0.7-1.6c0.4-0.5,0.8-0.9,1.2-1.4
		c1.6-2,1.1-5-0.1-6.5c0,0,0,0,0,0c-1.2-1.4-2.7-2.4-5.5-2.4c-1.6,0-3.1,0.7-4,1.3C4.3,3,4.1,3.1,4,3.2C3.9,3.2,3.8,3.3,3.8,3.4
		C3.5,3.6,3.3,3.7,3.3,3.7C1.3,5.4,0,8.1,0,11.1c0,5.1,3.7,9.2,8.4,9.2c2.1,0,4.2-0.9,5.8-2.5c0.3-0.3,0.5-0.8,0.6-1.3
		c0-0.1,0-0.2,0-0.2C14.7,15.6,14.1,15.2,13.5,15 M3.3,6.5C4,5.8,5,5.6,5.5,6.2c0.5,0.5,0.4,1.5-0.3,2.2C4.5,9.1,3.5,9.2,3,8.7
		C2.5,8.2,2.6,7.2,3.3,6.5 M3.6,14.5c-0.7,0.2-1.5-0.4-1.8-1.4c-0.3-1,0.1-1.9,0.8-2.1c0.7-0.2,1.5,0.4,1.8,1.4
		C4.7,13.4,4.4,14.3,3.6,14.5 M8.1,17.7c-0.4,0.6-1.4,0.8-2.2,0.3c-0.9-0.5-1.3-1.4-0.9-2.1c0.4-0.6,1.4-0.8,2.2-0.3
		C8,16.2,8.4,17.1,8.1,17.7 M9,6.4C8,6.4,7.2,5.8,7.2,5S8,3.7,9,3.7c1,0,1.8,0.6,1.8,1.4S10,6.4,9,6.4"/>
	<path  d="M21.1,7.3c0,0-1.9,1.7-3.1-1.1c0,0-0.9-2.6,3.5-4.6c0,0-0.3,1,0,2l0.3,1C21.9,4.7,22.4,6.2,21.1,7.3"/>
	<path  d="M19.7,20.3c1.6,1.1,1.5-12.1,1.5-12.1s-0.5,0.6-1.3,0.6c-0.6,0-1.1-0.2-1.3-0.6
		C18.6,8.2,18.2,19.2,19.7,20.3"/>
</g>
</svg>
