<?xml version="1.0" encoding="utf-8"?>
<!-- Generator: Adobe Illustrator 28.2.0, SVG Export Plug-In . SVG Version: 6.00 Build 0)  -->
<svg version="1.1" id="Layer_1" xmlns="http://www.w3.org/2000/svg" xmlns:xlink="http://www.w3.org/1999/xlink" x="0px" y="0px"
	 width="14px" height="14px" viewBox="0 0 14 14" enable-background="new 0 0 14 14" xml:space="preserve">
<g>
	<path fill="#231F20" d="M8.6,9.6C8.6,9.6,8.6,9.5,8.6,9.6C8.1,9.4,7.7,9.2,7.7,8.7c0-0.4,0.2-0.7,0.4-1c0.3-0.3,0.5-0.6,0.8-0.9
		c1-1.3,0.7-3.2-0.1-4.1l0,0C8,1.7,7.1,1.1,5.3,1.1c-1,0-2,0.4-2.5,0.8C2.7,1.9,2.6,2,2.6,2C2.5,2,2.5,2.1,2.4,2.1
		C2.2,2.3,2.1,2.4,2.1,2.4C0.8,3.4,0,5.1,0,7.1C0,10.4,2.4,13,5.3,13C6.7,13,8,12.4,9,11.4c0.2-0.2,0.3-0.5,0.4-0.8
		c0-0.1,0-0.1,0-0.2C9.3,9.9,9,9.7,8.6,9.6 M2.1,4.1c0.4-0.4,1.1-0.5,1.4-0.2s0.2,1-0.2,1.4C2.9,5.8,2.2,5.9,1.9,5.5
		C1.6,5.2,1.7,4.6,2.1,4.1 M2.3,9.2c-0.5,0.1-1-0.3-1.1-0.9C1,7.7,1.3,7.1,1.7,7c0.5-0.1,1,0.3,1.1,0.9C3,8.5,2.8,9.1,2.3,9.2
		 M5.1,11.3c-0.2,0.4-0.9,0.5-1.4,0.2s-0.8-0.9-0.6-1.3C3.4,9.7,4,9.7,4.6,10C5.1,10.3,5.4,10.9,5.1,11.3 M5.7,4.1
		c-0.6,0-1.1-0.4-1.1-0.9s0.5-0.9,1.1-0.9s1.1,0.4,1.1,0.9S6.4,4.1,5.7,4.1"/>
	<path fill="#231F20" d="M13.4,4.6c0,0-1.2,1.1-2-0.7c0,0-0.6-1.7,2.2-2.9c0,0-0.2,0.7,0,1.3L13.9,3C13.9,3,14.3,3.9,13.4,4.6"/>
	<path fill="#231F20" d="M12.6,12.9c1,0.7,0.9-7.7,0.9-7.7s-0.3,0.4-0.8,0.4c-0.4,0-0.7-0.1-0.8-0.4C11.8,5.2,11.6,12.2,12.6,12.9"
		/>
</g>
</svg>
