<?xml version="1.0" encoding="utf-8"?>
<!-- Generator: Adobe Illustrator 21.1.0, SVG Export Plug-In . SVG Version: 6.00 Build 0)  -->
<svg version="1.1" id="Layer_1" xmlns="http://www.w3.org/2000/svg" xmlns:xlink="http://www.w3.org/1999/xlink" x="0px" y="0px"
	 width="30px" height="30px" viewBox="0 0 30 30" enable-background="new 0 0 30 30" xml:space="preserve">
<path d="M3.265,13.354l-1.026,3.372H0L3.812,4.831h2.769l3.868,11.895H8.1l-1.078-3.372H3.265z M6.671,11.715L5.734,8.784
	C5.507,8.061,5.311,7.248,5.135,6.56H5.1C4.925,7.248,4.729,8.078,4.536,8.784l-0.92,2.931H6.671z"/>
<path d="M12.095,5.006c0.83-0.158,2.028-0.265,3.282-0.265c1.712,0,2.858,0.282,3.671,0.954c0.654,0.548,1.023,1.378,1.023,2.4
	c0,1.536-1.04,2.576-2.17,2.965v0.052c0.864,0.32,1.378,1.147,1.66,2.297c0.386,1.481,0.706,2.858,0.933,3.316h-2.221
	c-0.179-0.355-0.479-1.322-0.796-2.807c-0.355-1.553-0.899-2.046-2.135-2.084h-1.095v4.89h-2.152V5.006z M14.248,10.248h1.288
	c1.467,0,2.366-0.775,2.366-1.96c0-1.288-0.899-1.904-2.311-1.904c-0.689,0-1.13,0.052-1.343,0.103V10.248z"/>
<path d="M24.404,6.649h-3.389V4.831H30v1.818h-3.427v10.077h-2.17V6.649z"/>
<path d="M2.179,24.121c0,0,10.621-6.615,25.641-3.381l-3.416,4.518c0,0-10.688-4.73-21.534-0.008L2.179,24.121z"/>
</svg>
