<?xml version="1.0" encoding="utf-8"?>
<!-- Generator: Adobe Illustrator 21.1.0, SVG Export Plug-In . SVG Version: 6.00 Build 0)  -->
<svg version="1.1" id="Layer_1" xmlns="http://www.w3.org/2000/svg" xmlns:xlink="http://www.w3.org/1999/xlink" x="0px" y="0px"
	 width="22px" height="22px" viewBox="0 0 22 22" enable-background="new 0 0 22 22" xml:space="preserve">
<path d="M2.394,9.793l-0.753,2.473H0l2.796-8.723h2.031l2.836,8.723H5.94L5.15,9.793H2.394z M4.892,8.591L4.205,6.442
	C4.038,5.912,3.894,5.315,3.766,4.81H3.74C3.612,5.315,3.468,5.924,3.326,6.442L2.652,8.591H4.892z"/>
<path d="M8.87,3.671c0.609-0.116,1.488-0.194,2.407-0.194c1.255,0,2.096,0.207,2.692,0.7c0.48,0.402,0.75,1.01,0.75,1.76
	c0,1.126-0.763,1.889-1.591,2.174v0.038c0.634,0.235,1.01,0.841,1.217,1.685c0.283,1.086,0.518,2.096,0.684,2.432h-1.629
	c-0.131-0.26-0.351-0.97-0.583-2.058c-0.26-1.139-0.659-1.5-1.566-1.528h-0.803v3.586H8.87V3.671z M10.448,7.515h0.945
	c1.076,0,1.735-0.568,1.735-1.437c0-0.945-0.659-1.397-1.695-1.397c-0.505,0-0.828,0.038-0.985,0.076V7.515z"/>
<path d="M17.896,4.876h-2.485V3.543H22v1.333h-2.513v7.39h-1.591V4.876z"/>
<path d="M1.598,17.689c0,0,7.789-4.851,18.804-2.479l-2.505,3.314c0,0-7.838-3.469-15.792-0.006L1.598,17.689z"/>
</svg>
