<?xml version="1.0" encoding="utf-8"?>
<!-- Generator: Adobe Illustrator 21.1.0, SVG Export Plug-In . SVG Version: 6.00 Build 0)  -->
<svg version="1.1" id="Layer_1" xmlns="http://www.w3.org/2000/svg" xmlns:xlink="http://www.w3.org/1999/xlink" x="0px" y="0px"
	 width="14px" height="14px" viewBox="0 0 14 14" enable-background="new 0 0 14 14" xml:space="preserve">
<path d="M11,3H9V2h5v1h-2v5h-1V3z"/>
<path d="M1.017,11.257c0,0,4.957-3.087,11.966-1.578l-1.594,2.109c0,0-4.988-2.207-10.049-0.004L1.017,11.257z"/>
<path d="M3,2H1L0,3v5h1V6h2v2h1V3L3,2z M3,5H1V3h2V5z"/>
<path d="M10.707,8L8.354,5.646L9,5V3L8,2H6H5v6h1V6h1.293l2,2H10.707z M6,3h2v2H7.707H7.05H6V3z"/>
</svg>
