<?xml version="1.0" encoding="utf-8"?>
<!-- Generator: Adobe Illustrator 22.0.1, SVG Export Plug-In . SVG Version: 6.00 Build 0)  -->
<svg version="1.1" id="Layer_1" xmlns="http://www.w3.org/2000/svg" xmlns:xlink="http://www.w3.org/1999/xlink" x="0px" y="0px"
	 width="30px" height="30px" viewBox="0 0 30 30" enable-background="new 0 0 30 30" xml:space="preserve">
<polygon points="14,17 12,17 10,28 5,28 3,17 1,17 3.6,30 11.4,30 "/>
<rect x="6" y="22" width="2" height="2"/>
<rect x="8" y="24" width="2" height="2"/>
<rect x="7" y="26" width="2" height="2"/>
<rect x="5" y="26" width="2" height="2"/>
<rect x="4" y="20" width="2" height="2"/>
<rect x="8" y="20" width="2" height="2"/>
<rect x="6" y="18" width="2" height="2"/>
<rect x="4" y="16" width="2" height="2"/>
<rect x="8" y="16" width="2" height="2"/>
<rect x="9" y="9" width="2" height="2"/>
<rect x="7" y="13" width="2" height="2"/>
<rect x="12" y="10" width="2" height="2"/>
<rect x="14" y="6" width="2" height="2"/>
<polygon points="17,4 17,12 26,11 26,5 "/>
</svg>
