<?xml version="1.0" encoding="utf-8"?>
<!-- Generator: Adobe Illustrator 22.0.1, SVG Export Plug-In . SVG Version: 6.00 Build 0)  -->
<svg version="1.1" id="Layer_1" xmlns="http://www.w3.org/2000/svg" xmlns:xlink="http://www.w3.org/1999/xlink" x="0px" y="0px"
	 width="14px" height="14px" viewBox="0 0 14 14" enable-background="new 0 0 14 14" xml:space="preserve">
<polygon points="0,8 1,8 2,13 5,13 6,8 7,8 6,14 1,14 "/>
<rect x="6" y="5" width="1" height="1"/>
<rect x="4" y="5" width="1" height="1"/>
<rect x="4" y="7" width="1" height="1"/>
<rect x="2" y="7" width="1" height="1"/>
<rect x="6" y="3" width="1" height="1"/>
<rect x="3" y="8" width="1" height="1"/>
<rect x="2" y="12" width="1" height="1"/>
<rect x="3" y="12" width="1" height="1"/>
<rect x="3" y="10" width="1" height="1"/>
<rect x="4" y="9" width="1" height="1"/>
<rect x="4" y="11" width="1" height="1"/>
<rect x="2" y="9" width="1" height="1"/>
<polygon points="8,2 8,6 12,5 12,3 "/>
</svg>
