<?xml version="1.0" encoding="utf-8"?>
<!-- Generator: Adobe Illustrator 22.0.1, SVG Export Plug-In . SVG Version: 6.00 Build 0)  -->
<svg version="1.1" id="Layer_1" xmlns="http://www.w3.org/2000/svg" xmlns:xlink="http://www.w3.org/1999/xlink" x="0px" y="0px"
	 width="14px" height="14px" viewBox="0 0 14 14" enable-background="new 0 0 14 14" xml:space="preserve">
<g>
	<path fill="#FFFFFF" d="M12.8,0h-0.9L9.2,2.9C9.6,3,9.9,3.2,10.1,3.5c0.4,0.4,0.8,0.9,1,1.5L14,1.8V1.2C14,0.6,13.4,0,12.8,0z"/>
</g>
<path fill="#FFFFFF" d="M3.7,8.7L0,12.7v0.1C0,13.4,0.6,14,1.2,14h1.4l3.2-3.4C4.9,10.3,4.1,9.6,3.7,8.7z"/>
<path fill="#FFFFFF" d="M10.7,7C10.7,5,9.1,3.3,7,3.3S3.3,5,3.3,7h0.9c0-1.5,1.3-2.8,2.8-2.8S9.8,5.5,9.8,7c0,0.3-0.1,0.6-0.1,0.8
	c-0.7,0.7-1.7,2.2-1.7,3.4c0,0.5-0.2,1.4-0.9,1.4c-0.3,0-0.5,0.2-0.5,0.5c0,0.3,0.2,0.5,0.5,0.5c1.2,0,1.9-1.2,1.9-2.3
	c0-0.8,0.8-2.1,1.5-2.8c0.1-0.1,0.1-0.1,0.1-0.2l0,0C10.7,7.9,10.7,7.5,10.7,7z"/>
<rect fill="#FFFFFF" x="12" y="11" width="1" height="3"/>
<rect fill="#FFFFFF" x="11" y="10" width="3" height="1"/>
</svg>
