<?xml version="1.0" encoding="utf-8"?>
<!-- Generator: Adobe Illustrator 22.0.1, SVG Export Plug-In . SVG Version: 6.00 Build 0)  -->
<svg version="1.1" id="Layer_1" xmlns="http://www.w3.org/2000/svg" xmlns:xlink="http://www.w3.org/1999/xlink" x="0px" y="0px"
	 width="30px" height="30px" viewBox="0 0 30 30" enable-background="new 0 0 30 30" xml:space="preserve">
<g>
	<path fill="#FFFFFF" d="M27.3,0h-1.9l-5.6,6.1c0.7,0.4,1.3,0.8,1.9,1.4c0.9,0.9,1.6,2,2.1,3.2L30,3.9V2.6C30,1.2,28.8,0,27.3,0z"/>
</g>
<path fill="#FFFFFF" d="M7.9,18.7L0,27.1v0.1c0,1.5,1.2,2.6,2.6,2.6h3l6.8-7.3C10.5,21.9,8.8,20.5,7.9,18.7z"/>
<path fill="#FFFFFF" d="M23,15c0-4.4-3.6-8-8-8s-8,3.6-8,8h2c0-3.3,2.7-6,6-6s6,2.7,6,6c0,0.6-0.1,1.2-0.3,1.8C19.2,18.4,17,21.6,17,24
	c0,1-0.4,3-2,3c-0.6,0-1,0.4-1,1s0.4,1,1,1c2.6,0,4-2.5,4-5c0-1.6,1.7-4.5,3.2-5.9c0.1-0.1,0.2-0.2,0.2-0.4l0,0
	C22.8,16.9,23,16,23,15z"/>
<rect fill="#FFFFFF" x="24" y="23" width="2" height="7"/>
<rect fill="#FFFFFF" x="21" y="22" width="8" height="2"/>
</svg>
