<?xml version="1.0" encoding="utf-8"?>
<!-- Generator: Adobe Illustrator 20.0.0, SVG Export Plug-In . SVG Version: 6.00 Build 0)  -->
<svg version="1.1" id="Layer_1" xmlns:sketch="http://www.bohemiancoding.com/sketch/ns"
	 xmlns="http://www.w3.org/2000/svg" xmlns:xlink="http://www.w3.org/1999/xlink" x="0px" y="0px" width="30px" height="30px"
	 viewBox="0 0 30 30" style="enable-background:new 0 0 30 30;" xml:space="preserve">
<g>
	<rect fill="#FFFFFF" x="14" width="2" height="30"/>
	<g>
		<path fill="#FFFFFF" d="M9.5,18.8c0.2,1.1,0.5,1.8,1,2.4c0.9,1,2.4,1.4,4.6,1.4c1.3,0,2.3-0.1,3.2-0.4c1.5-0.5,2.3-1.4,2.3-2.7
			c0-0.8-0.4-1.4-1.1-1.8c-0.8-0.4-1.9-0.8-3.6-1.1L13,16.1c-2.7-0.5-4.6-1.1-5.6-1.8c-1.7-1.1-2.6-2.7-2.6-5c0-2.1,0.8-3.8,2.5-5.2
			s4.2-2.1,7.5-2.1c2.7,0,5.1,0.6,7,1.9c1.9,1.3,3,3.2,3,5.6h-5.2c-0.1-1.4-0.8-2.4-2.1-3c-0.9-0.4-1.9-0.6-3.2-0.6
			c-1.4,0-2.6,0.3-3.4,0.8S9.7,8.1,9.7,9c0,0.8,0.4,1.4,1.3,1.9c0.5,0.3,1.7,0.6,3.4,1l4.5,1c2,0.4,3.5,1,4.5,1.7
			c1.5,1.1,2.3,2.7,2.3,4.7c0,2.1-0.9,3.9-2.7,5.3c-1.8,1.4-4.4,2.1-7.7,2.1c-3.4,0-6-0.7-8-2.1c-1.9-1.4-2.9-3.3-2.9-5.7H9.5z"/>
	</g>
</g>
</svg>
