<?xml version="1.0" encoding="UTF-8" standalone="no"?>
<svg width="16px" height="16px" viewBox="0 0 16 16" version="1.1" xmlns="http://www.w3.org/2000/svg" xmlns:xlink="http://www.w3.org/1999/xlink" xmlns:sketch="http://www.bohemiancoding.com/sketch/ns">
    <!-- Generator: Sketch 3.3.3 (12072) - http://www.bohemiancoding.com/sketch -->
    <title>atm-white-16</title>
    <desc>Created with Sketch.</desc>
    <defs></defs>
    <g id="atm" stroke="none" stroke-width="1" fill="none" fill-rule="evenodd" sketch:type="MSPage">
        <g id="atm-white-16" sketch:type="MSArtboardGroup">
            <g id="symbol-copy-2" sketch:type="MSLayerGroup" transform="translate(5.000000, 4.000000)" fill="#000000" fill-opacity="0.5">
                <path d="M2.14371658,7.59090909 C2.14371658,7.95632981 2.20610455,8.26826965 2.33088235,8.52673797 C2.45566016,8.78520628 2.62945521,8.99687975 2.85227273,9.16176471 C3.07509024,9.32664967 3.33132654,9.44696932 3.6209893,9.52272727 C3.91065207,9.59848523 4.22482005,9.63636364 4.56350267,9.63636364 C4.9289234,9.63636364 5.24086324,9.59402894 5.49933155,9.50935829 C5.75779987,9.42468763 5.96724519,9.31550869 6.1276738,9.18181818 C6.28810241,9.04812767 6.40396578,8.8943859 6.47526738,8.72058824 C6.54656898,8.54679057 6.58221925,8.37076738 6.58221925,8.19251337 C6.58221925,7.82709265 6.49977801,7.5574875 6.33489305,7.38368984 C6.17000809,7.20989218 5.98952861,7.08734439 5.7934492,7.01604278 C5.45476658,6.89126497 5.06038549,6.77317346 4.61029412,6.66176471 C4.16020274,6.55035595 3.60539545,6.40552674 2.94585561,6.22727273 C2.53587139,6.12032032 2.19496571,5.97994739 1.92312834,5.80614973 C1.65129098,5.63235207 1.43516123,5.43850374 1.27473262,5.22459893 C1.11430401,5.01069412 1.00066878,4.78342366 0.933823529,4.54278075 C0.866978275,4.30213783 0.83355615,4.05704225 0.83355615,3.80748663 C0.83355615,3.3262008 0.933822527,2.9095383 1.13435829,2.55748663 C1.33489405,2.20543496 1.60004291,1.9135484 1.92981283,1.68181818 C2.25958275,1.45008797 2.63391056,1.27852106 3.05280749,1.1671123 C3.47170441,1.05570354 3.89505134,1 4.32286096,1 C4.82197219,1 5.29211009,1.06461611 5.73328877,1.19385027 C6.17446745,1.32308443 6.5621641,1.51693275 6.89639037,1.77540107 C7.23061664,2.03386939 7.49576551,2.35249365 7.69184492,2.73128342 C7.88792433,3.1100732 7.98596257,3.54901711 7.98596257,4.04812834 L6.31483957,4.04812834 C6.27027607,3.43315201 6.06083075,2.99866437 5.68649733,2.74465241 C5.3121639,2.49064044 4.83534158,2.36363636 4.25601604,2.36363636 C4.05993663,2.36363636 3.85940388,2.38368964 3.65441176,2.42379679 C3.44941965,2.46390394 3.26225575,2.5307482 3.09291444,2.62433155 C2.92357313,2.71791491 2.7832002,2.84491898 2.67179144,3.00534759 C2.56038269,3.1657762 2.50467914,3.36630896 2.50467914,3.60695187 C2.50467914,3.94563449 2.6094018,4.21078336 2.81885027,4.40240642 C3.02829873,4.59402948 3.30236016,4.73885869 3.64104278,4.8368984 C3.67669358,4.8458111 3.81706651,4.88368951 4.06216578,4.95053476 C4.30726504,5.01738001 4.58132647,5.09090869 4.88435829,5.17112299 C5.18739011,5.2513373 5.48373295,5.32932226 5.77339572,5.40508021 C6.06305849,5.48083817 6.27027567,5.53654171 6.39505348,5.57219251 C6.70699799,5.67023222 6.97883128,5.80392072 7.2105615,5.97326203 C7.44229171,6.14260334 7.63614004,6.33645167 7.7921123,6.55481283 C7.94808456,6.773174 8.06394793,7.00712888 8.13970588,7.25668449 C8.21546384,7.50624011 8.25334225,7.75579198 8.25334225,8.00534759 C8.25334225,8.54010963 8.1441633,8.99687868 7.92580214,9.37566845 C7.70744098,9.75445822 7.4200107,10.0641699 7.06350267,10.3048128 C6.70699465,10.5454557 6.30147286,10.7214789 5.84692513,10.8328877 C5.39237741,10.9442965 4.92892393,11 4.4565508,11 C3.91287607,11 3.40040348,10.9331557 2.91911765,10.7994652 C2.43783182,10.6657747 2.01894118,10.4607857 1.66243316,10.184492 C1.30592513,9.90819826 1.02072299,9.55392373 0.806818182,9.12165775 C0.592913369,8.68939178 0.481506283,8.17914733 0.472593583,7.59090909 L2.14371658,7.59090909 Z" id="S" sketch:type="MSShapeGroup"></path>
                <rect id="Rectangle-7" sketch:type="MSShapeGroup" x="4" y="0" width="1" height="12"></rect>
            </g>
            <g id="symbol-copy" sketch:type="MSLayerGroup" transform="translate(4.000000, 3.000000)" fill="#000000" fill-opacity="0.75">
                <path d="M2.14371658,7.59090909 C2.14371658,7.95632981 2.20610455,8.26826965 2.33088235,8.52673797 C2.45566016,8.78520628 2.62945521,8.99687975 2.85227273,9.16176471 C3.07509024,9.32664967 3.33132654,9.44696932 3.6209893,9.52272727 C3.91065207,9.59848523 4.22482005,9.63636364 4.56350267,9.63636364 C4.9289234,9.63636364 5.24086324,9.59402894 5.49933155,9.50935829 C5.75779987,9.42468763 5.96724519,9.31550869 6.1276738,9.18181818 C6.28810241,9.04812767 6.40396578,8.8943859 6.47526738,8.72058824 C6.54656898,8.54679057 6.58221925,8.37076738 6.58221925,8.19251337 C6.58221925,7.82709265 6.49977801,7.5574875 6.33489305,7.38368984 C6.17000809,7.20989218 5.98952861,7.08734439 5.7934492,7.01604278 C5.45476658,6.89126497 5.06038549,6.77317346 4.61029412,6.66176471 C4.16020274,6.55035595 3.60539545,6.40552674 2.94585561,6.22727273 C2.53587139,6.12032032 2.19496571,5.97994739 1.92312834,5.80614973 C1.65129098,5.63235207 1.43516123,5.43850374 1.27473262,5.22459893 C1.11430401,5.01069412 1.00066878,4.78342366 0.933823529,4.54278075 C0.866978275,4.30213783 0.83355615,4.05704225 0.83355615,3.80748663 C0.83355615,3.3262008 0.933822527,2.9095383 1.13435829,2.55748663 C1.33489405,2.20543496 1.60004291,1.9135484 1.92981283,1.68181818 C2.25958275,1.45008797 2.63391056,1.27852106 3.05280749,1.1671123 C3.47170441,1.05570354 3.89505134,1 4.32286096,1 C4.82197219,1 5.29211009,1.06461611 5.73328877,1.19385027 C6.17446745,1.32308443 6.5621641,1.51693275 6.89639037,1.77540107 C7.23061664,2.03386939 7.49576551,2.35249365 7.69184492,2.73128342 C7.88792433,3.1100732 7.98596257,3.54901711 7.98596257,4.04812834 L6.31483957,4.04812834 C6.27027607,3.43315201 6.06083075,2.99866437 5.68649733,2.74465241 C5.3121639,2.49064044 4.83534158,2.36363636 4.25601604,2.36363636 C4.05993663,2.36363636 3.85940388,2.38368964 3.65441176,2.42379679 C3.44941965,2.46390394 3.26225575,2.5307482 3.09291444,2.62433155 C2.92357313,2.71791491 2.7832002,2.84491898 2.67179144,3.00534759 C2.56038269,3.1657762 2.50467914,3.36630896 2.50467914,3.60695187 C2.50467914,3.94563449 2.6094018,4.21078336 2.81885027,4.40240642 C3.02829873,4.59402948 3.30236016,4.73885869 3.64104278,4.8368984 C3.67669358,4.8458111 3.81706651,4.88368951 4.06216578,4.95053476 C4.30726504,5.01738001 4.58132647,5.09090869 4.88435829,5.17112299 C5.18739011,5.2513373 5.48373295,5.32932226 5.77339572,5.40508021 C6.06305849,5.48083817 6.27027567,5.53654171 6.39505348,5.57219251 C6.70699799,5.67023222 6.97883128,5.80392072 7.2105615,5.97326203 C7.44229171,6.14260334 7.63614004,6.33645167 7.7921123,6.55481283 C7.94808456,6.773174 8.06394793,7.00712888 8.13970588,7.25668449 C8.21546384,7.50624011 8.25334225,7.75579198 8.25334225,8.00534759 C8.25334225,8.54010963 8.1441633,8.99687868 7.92580214,9.37566845 C7.70744098,9.75445822 7.4200107,10.0641699 7.06350267,10.3048128 C6.70699465,10.5454557 6.30147286,10.7214789 5.84692513,10.8328877 C5.39237741,10.9442965 4.92892393,11 4.4565508,11 C3.91287607,11 3.40040348,10.9331557 2.91911765,10.7994652 C2.43783182,10.6657747 2.01894118,10.4607857 1.66243316,10.184492 C1.30592513,9.90819826 1.02072299,9.55392373 0.806818182,9.12165775 C0.592913369,8.68939178 0.481506283,8.17914733 0.472593583,7.59090909 L2.14371658,7.59090909 Z" id="S" sketch:type="MSShapeGroup"></path>
                <rect id="Rectangle-7" sketch:type="MSShapeGroup" x="4" y="0" width="1" height="12"></rect>
            </g>
            <g id="symbol" sketch:type="MSLayerGroup" transform="translate(3.000000, 2.000000)" fill="#FFFFFF">
                <path d="M2.14371658,7.59090909 C2.14371658,7.95632981 2.20610455,8.26826965 2.33088235,8.52673797 C2.45566016,8.78520628 2.62945521,8.99687975 2.85227273,9.16176471 C3.07509024,9.32664967 3.33132654,9.44696932 3.6209893,9.52272727 C3.91065207,9.59848523 4.22482005,9.63636364 4.56350267,9.63636364 C4.9289234,9.63636364 5.24086324,9.59402894 5.49933155,9.50935829 C5.75779987,9.42468763 5.96724519,9.31550869 6.1276738,9.18181818 C6.28810241,9.04812767 6.40396578,8.8943859 6.47526738,8.72058824 C6.54656898,8.54679057 6.58221925,8.37076738 6.58221925,8.19251337 C6.58221925,7.82709265 6.49977801,7.5574875 6.33489305,7.38368984 C6.17000809,7.20989218 5.98952861,7.08734439 5.7934492,7.01604278 C5.45476658,6.89126497 5.06038549,6.77317346 4.61029412,6.66176471 C4.16020274,6.55035595 3.60539545,6.40552674 2.94585561,6.22727273 C2.53587139,6.12032032 2.19496571,5.97994739 1.92312834,5.80614973 C1.65129098,5.63235207 1.43516123,5.43850374 1.27473262,5.22459893 C1.11430401,5.01069412 1.00066878,4.78342366 0.933823529,4.54278075 C0.866978275,4.30213783 0.83355615,4.05704225 0.83355615,3.80748663 C0.83355615,3.3262008 0.933822527,2.9095383 1.13435829,2.55748663 C1.33489405,2.20543496 1.60004291,1.9135484 1.92981283,1.68181818 C2.25958275,1.45008797 2.63391056,1.27852106 3.05280749,1.1671123 C3.47170441,1.05570354 3.89505134,1 4.32286096,1 C4.82197219,1 5.29211009,1.06461611 5.73328877,1.19385027 C6.17446745,1.32308443 6.5621641,1.51693275 6.89639037,1.77540107 C7.23061664,2.03386939 7.49576551,2.35249365 7.69184492,2.73128342 C7.88792433,3.1100732 7.98596257,3.54901711 7.98596257,4.04812834 L6.31483957,4.04812834 C6.27027607,3.43315201 6.06083075,2.99866437 5.68649733,2.74465241 C5.3121639,2.49064044 4.83534158,2.36363636 4.25601604,2.36363636 C4.05993663,2.36363636 3.85940388,2.38368964 3.65441176,2.42379679 C3.44941965,2.46390394 3.26225575,2.5307482 3.09291444,2.62433155 C2.92357313,2.71791491 2.7832002,2.84491898 2.67179144,3.00534759 C2.56038269,3.1657762 2.50467914,3.36630896 2.50467914,3.60695187 C2.50467914,3.94563449 2.6094018,4.21078336 2.81885027,4.40240642 C3.02829873,4.59402948 3.30236016,4.73885869 3.64104278,4.8368984 C3.67669358,4.8458111 3.81706651,4.88368951 4.06216578,4.95053476 C4.30726504,5.01738001 4.58132647,5.09090869 4.88435829,5.17112299 C5.18739011,5.2513373 5.48373295,5.32932226 5.77339572,5.40508021 C6.06305849,5.48083817 6.27027567,5.53654171 6.39505348,5.57219251 C6.70699799,5.67023222 6.97883128,5.80392072 7.2105615,5.97326203 C7.44229171,6.14260334 7.63614004,6.33645167 7.7921123,6.55481283 C7.94808456,6.773174 8.06394793,7.00712888 8.13970588,7.25668449 C8.21546384,7.50624011 8.25334225,7.75579198 8.25334225,8.00534759 C8.25334225,8.54010963 8.1441633,8.99687868 7.92580214,9.37566845 C7.70744098,9.75445822 7.4200107,10.0641699 7.06350267,10.3048128 C6.70699465,10.5454557 6.30147286,10.7214789 5.84692513,10.8328877 C5.39237741,10.9442965 4.92892393,11 4.4565508,11 C3.91287607,11 3.40040348,10.9331557 2.91911765,10.7994652 C2.43783182,10.6657747 2.01894118,10.4607857 1.66243316,10.184492 C1.30592513,9.90819826 1.02072299,9.55392373 0.806818182,9.12165775 C0.592913369,8.68939178 0.481506283,8.17914733 0.472593583,7.59090909 L2.14371658,7.59090909 Z" id="S" sketch:type="MSShapeGroup"></path>
                <rect id="Rectangle-7" sketch:type="MSShapeGroup" x="4" y="0" width="1" height="12"></rect>
            </g>
        </g>
    </g>
</svg>