<?xml version="1.0" encoding="utf-8"?>
<!-- Generator: Adobe Illustrator 20.0.0, SVG Export Plug-In . SVG Version: 6.00 Build 0)  -->
<svg version="1.1" id="Layer_1" xmlns:sketch="http://www.bohemiancoding.com/sketch/ns"
	 xmlns="http://www.w3.org/2000/svg" xmlns:xlink="http://www.w3.org/1999/xlink" x="0px" y="0px" width="14px" height="14px"
	 viewBox="0 0 14 14" style="enable-background:new 0 0 14 14;" xml:space="preserve">
<g>
	<path fill="#231F20" d="M4.4,8.8c0.1,0.5,0.2,0.9,0.5,1.1C5.3,10.3,6,10.6,7,10.6c0.6,0,1.1-0.1,1.5-0.2c0.7-0.2,1.1-0.6,1.1-1.3
		c0-0.4-0.2-0.6-0.5-0.8C8.7,8.1,8.2,7.9,7.4,7.8L6.1,7.5C4.8,7.3,3.9,7,3.5,6.7C2.6,6.2,2.2,5.4,2.2,4.4c0-1,0.4-1.8,1.2-2.4
		s2-1,3.5-1c1.3,0,2.4,0.3,3.3,0.9c0.9,0.6,1.4,1.5,1.4,2.6H9.2c0-0.6-0.4-1.1-1-1.4C7.8,3,7.3,2.9,6.7,2.9C6.1,2.9,5.6,3,5.2,3.2
		s-0.6,0.6-0.6,1c0,0.4,0.2,0.7,0.6,0.9c0.2,0.1,0.8,0.3,1.6,0.4L8.9,6c0.9,0.2,1.6,0.5,2.1,0.8C11.6,7.3,12,8,12,9
		c0,1-0.4,1.8-1.3,2.5c-0.8,0.7-2,1-3.6,1c-1.6,0-2.8-0.3-3.7-1C2.5,10.8,2,9.9,2,8.8H4.4z"/>
</g>
<rect fill="#231F20" x="6" width="2" height="14"/>
</svg>
