<?xml version="1.0" encoding="UTF-8" standalone="no"?>
<svg width="32px" height="32px" viewBox="0 0 32 32" version="1.1" xmlns="http://www.w3.org/2000/svg" xmlns:xlink="http://www.w3.org/1999/xlink" xmlns:sketch="http://www.bohemiancoding.com/sketch/ns">
    <!-- Generator: Sketch 3.3.3 (12072) - http://www.bohemiancoding.com/sketch -->
    <title>atm-slate-32</title>
    <desc>Created with Sketch.</desc>
    <defs></defs>
    <g id="atm" stroke="none" stroke-width="1" fill="none" fill-rule="evenodd" sketch:type="MSPage">
        <g id="atm-slate-32" sketch:type="MSArtboardGroup">
            <g id="symbol-copy-2" sketch:type="MSLayerGroup" transform="translate(9.000000, 4.000000)" fill="#000000" fill-opacity="0.5">
                <path d="M3.6671123,17.4630909 C3.6671123,18.2649701 3.80401646,18.9494909 4.07782888,19.5166738 C4.3516413,20.0838567 4.73301716,20.5483529 5.22196791,20.9101765 C5.71091867,21.272 6.2732036,21.5360295 6.90883957,21.7022727 C7.54447555,21.868516 8.23388577,21.9516364 8.97709091,21.9516364 C9.77897014,21.9516364 10.4634909,21.8587371 11.0306738,21.6729358 C11.5978567,21.4871345 12.0574635,21.2475523 12.409508,20.9541818 C12.7615526,20.6608114 13.0158031,20.3234404 13.1722674,19.9420588 C13.3287316,19.5606772 13.4069626,19.1744119 13.4069626,18.7832513 C13.4069626,17.9813721 13.2260535,17.3897506 12.8642299,17.008369 C12.5024064,16.6269874 12.1063622,16.3580685 11.6760856,16.2016043 C10.9328804,15.9277919 10.0674506,15.6686518 9.07977005,15.4241765 C8.09208954,15.1797011 6.87462043,14.8618879 5.4273262,14.4707273 C4.52765682,14.2360309 3.77957339,13.9279966 3.18305348,13.546615 C2.58653356,13.1652334 2.11225844,12.7398526 1.7602139,12.2704599 C1.40816936,11.8010672 1.15880822,11.3023449 1.01212299,10.7742781 C0.865437769,10.2462113 0.792096257,9.7083735 0.792096257,9.16074866 C0.792096257,8.10461504 1.01212079,7.19029085 1.45217647,6.41774866 C1.89223215,5.64520648 2.47407481,5.0046906 3.19772193,4.49618182 C3.92136904,3.98767304 4.74279398,3.61118661 5.66202139,3.36671123 C6.5812488,3.12223585 7.5102413,3 8.44902674,3 C9.54427642,3 10.575947,3.14179359 11.5440695,3.42538503 C12.512192,3.70897646 13.3629536,4.13435724 14.0963797,4.70154011 C14.8298058,5.26872298 15.4116485,5.96791206 15.8419251,6.79912834 C16.2722018,7.63034462 16.4873369,8.59356315 16.4873369,9.68881283 L12.8202246,9.68881283 C12.7224344,8.33930876 12.2628276,7.3858691 11.4413904,6.82846524 C10.6199531,6.27106138 9.5736142,5.99236364 8.30234225,5.99236364 C7.87206558,5.99236364 7.43201651,6.03636854 6.98218182,6.12437968 C6.53234713,6.21239081 6.12163466,6.35907384 5.75003209,6.56443316 C5.37842951,6.76979247 5.07039516,7.04849022 4.82591979,7.40053476 C4.58144441,7.7525793 4.45920856,8.19262838 4.45920856,8.72069519 C4.45920856,9.46390033 4.68901196,10.045743 5.14862567,10.4662406 C5.60823937,10.8867383 6.20963978,11.2045515 6.95284492,11.4196898 C7.03107704,11.4392479 7.33911139,11.5223683 7.87695722,11.6690535 C8.41480305,11.8157387 9.01620345,11.97709 9.68117647,12.1531123 C10.3461495,12.3291346 10.9964442,12.5002648 11.6320802,12.666508 C12.2677162,12.8327513 12.7224336,12.9549871 12.996246,13.0332193 C13.680777,13.2483576 14.277288,13.5417236 14.7857968,13.9133262 C15.2943056,14.2849288 15.7196863,14.7103095 16.0619519,15.1894813 C16.4042174,15.668653 16.658468,16.1820436 16.8247112,16.7296684 C16.9909545,17.2772933 17.0740749,17.8249099 17.0740749,18.3725348 C17.0740749,19.5460166 16.8344926,20.5483506 16.3553209,21.3795668 C15.8761491,22.2107831 15.2454121,22.8904145 14.4630909,23.4184813 C13.6807697,23.9465481 12.7908927,24.3328134 11.7934332,24.5772888 C10.7959736,24.8217641 9.77897131,24.944 8.74239572,24.944 C7.54935589,24.944 6.42478603,24.797317 5.36865241,24.5039465 C4.31251878,24.2105761 3.39330516,23.7607481 2.61098396,23.1544492 C1.82866276,22.5481503 1.20281518,21.7707302 0.73342246,20.8221658 C0.264029739,19.8736013 0.0195580301,18.7539209 0,17.4630909 L3.6671123,17.4630909 Z" id="S" sketch:type="MSShapeGroup"></path>
                <rect id="Rectangle-1" sketch:type="MSShapeGroup" x="8" y="0" width="2" height="28"></rect>
            </g>
            <g id="symbol-copy" sketch:type="MSLayerGroup" transform="translate(8.000000, 3.000000)" fill="#000000" fill-opacity="0.75">
                <path d="M3.6671123,17.4630909 C3.6671123,18.2649701 3.80401646,18.9494909 4.07782888,19.5166738 C4.3516413,20.0838567 4.73301716,20.5483529 5.22196791,20.9101765 C5.71091867,21.272 6.2732036,21.5360295 6.90883957,21.7022727 C7.54447555,21.868516 8.23388577,21.9516364 8.97709091,21.9516364 C9.77897014,21.9516364 10.4634909,21.8587371 11.0306738,21.6729358 C11.5978567,21.4871345 12.0574635,21.2475523 12.409508,20.9541818 C12.7615526,20.6608114 13.0158031,20.3234404 13.1722674,19.9420588 C13.3287316,19.5606772 13.4069626,19.1744119 13.4069626,18.7832513 C13.4069626,17.9813721 13.2260535,17.3897506 12.8642299,17.008369 C12.5024064,16.6269874 12.1063622,16.3580685 11.6760856,16.2016043 C10.9328804,15.9277919 10.0674506,15.6686518 9.07977005,15.4241765 C8.09208954,15.1797011 6.87462043,14.8618879 5.4273262,14.4707273 C4.52765682,14.2360309 3.77957339,13.9279966 3.18305348,13.546615 C2.58653356,13.1652334 2.11225844,12.7398526 1.7602139,12.2704599 C1.40816936,11.8010672 1.15880822,11.3023449 1.01212299,10.7742781 C0.865437769,10.2462113 0.792096257,9.7083735 0.792096257,9.16074866 C0.792096257,8.10461504 1.01212079,7.19029085 1.45217647,6.41774866 C1.89223215,5.64520648 2.47407481,5.0046906 3.19772193,4.49618182 C3.92136904,3.98767304 4.74279398,3.61118661 5.66202139,3.36671123 C6.5812488,3.12223585 7.5102413,3 8.44902674,3 C9.54427642,3 10.575947,3.14179359 11.5440695,3.42538503 C12.512192,3.70897646 13.3629536,4.13435724 14.0963797,4.70154011 C14.8298058,5.26872298 15.4116485,5.96791206 15.8419251,6.79912834 C16.2722018,7.63034462 16.4873369,8.59356315 16.4873369,9.68881283 L12.8202246,9.68881283 C12.7224344,8.33930876 12.2628276,7.3858691 11.4413904,6.82846524 C10.6199531,6.27106138 9.5736142,5.99236364 8.30234225,5.99236364 C7.87206558,5.99236364 7.43201651,6.03636854 6.98218182,6.12437968 C6.53234713,6.21239081 6.12163466,6.35907384 5.75003209,6.56443316 C5.37842951,6.76979247 5.07039516,7.04849022 4.82591979,7.40053476 C4.58144441,7.7525793 4.45920856,8.19262838 4.45920856,8.72069519 C4.45920856,9.46390033 4.68901196,10.045743 5.14862567,10.4662406 C5.60823937,10.8867383 6.20963978,11.2045515 6.95284492,11.4196898 C7.03107704,11.4392479 7.33911139,11.5223683 7.87695722,11.6690535 C8.41480305,11.8157387 9.01620345,11.97709 9.68117647,12.1531123 C10.3461495,12.3291346 10.9964442,12.5002648 11.6320802,12.666508 C12.2677162,12.8327513 12.7224336,12.9549871 12.996246,13.0332193 C13.680777,13.2483576 14.277288,13.5417236 14.7857968,13.9133262 C15.2943056,14.2849288 15.7196863,14.7103095 16.0619519,15.1894813 C16.4042174,15.668653 16.658468,16.1820436 16.8247112,16.7296684 C16.9909545,17.2772933 17.0740749,17.8249099 17.0740749,18.3725348 C17.0740749,19.5460166 16.8344926,20.5483506 16.3553209,21.3795668 C15.8761491,22.2107831 15.2454121,22.8904145 14.4630909,23.4184813 C13.6807697,23.9465481 12.7908927,24.3328134 11.7934332,24.5772888 C10.7959736,24.8217641 9.77897131,24.944 8.74239572,24.944 C7.54935589,24.944 6.42478603,24.797317 5.36865241,24.5039465 C4.31251878,24.2105761 3.39330516,23.7607481 2.61098396,23.1544492 C1.82866276,22.5481503 1.20281518,21.7707302 0.73342246,20.8221658 C0.264029739,19.8736013 0.0195580301,18.7539209 0,17.4630909 L3.6671123,17.4630909 Z" id="S" sketch:type="MSShapeGroup"></path>
                <rect id="Rectangle-1" sketch:type="MSShapeGroup" x="8" y="0" width="2" height="28"></rect>
            </g>
            <g id="symbol" sketch:type="MSLayerGroup" transform="translate(7.000000, 2.000000)" fill="#E6E6E6">
                <path d="M3.6671123,17.4630909 C3.6671123,18.2649701 3.80401646,18.9494909 4.07782888,19.5166738 C4.3516413,20.0838567 4.73301716,20.5483529 5.22196791,20.9101765 C5.71091867,21.272 6.2732036,21.5360295 6.90883957,21.7022727 C7.54447555,21.868516 8.23388577,21.9516364 8.97709091,21.9516364 C9.77897014,21.9516364 10.4634909,21.8587371 11.0306738,21.6729358 C11.5978567,21.4871345 12.0574635,21.2475523 12.409508,20.9541818 C12.7615526,20.6608114 13.0158031,20.3234404 13.1722674,19.9420588 C13.3287316,19.5606772 13.4069626,19.1744119 13.4069626,18.7832513 C13.4069626,17.9813721 13.2260535,17.3897506 12.8642299,17.008369 C12.5024064,16.6269874 12.1063622,16.3580685 11.6760856,16.2016043 C10.9328804,15.9277919 10.0674506,15.6686518 9.07977005,15.4241765 C8.09208954,15.1797011 6.87462043,14.8618879 5.4273262,14.4707273 C4.52765682,14.2360309 3.77957339,13.9279966 3.18305348,13.546615 C2.58653356,13.1652334 2.11225844,12.7398526 1.7602139,12.2704599 C1.40816936,11.8010672 1.15880822,11.3023449 1.01212299,10.7742781 C0.865437769,10.2462113 0.792096257,9.7083735 0.792096257,9.16074866 C0.792096257,8.10461504 1.01212079,7.19029085 1.45217647,6.41774866 C1.89223215,5.64520648 2.47407481,5.0046906 3.19772193,4.49618182 C3.92136904,3.98767304 4.74279398,3.61118661 5.66202139,3.36671123 C6.5812488,3.12223585 7.5102413,3 8.44902674,3 C9.54427642,3 10.575947,3.14179359 11.5440695,3.42538503 C12.512192,3.70897646 13.3629536,4.13435724 14.0963797,4.70154011 C14.8298058,5.26872298 15.4116485,5.96791206 15.8419251,6.79912834 C16.2722018,7.63034462 16.4873369,8.59356315 16.4873369,9.68881283 L12.8202246,9.68881283 C12.7224344,8.33930876 12.2628276,7.3858691 11.4413904,6.82846524 C10.6199531,6.27106138 9.5736142,5.99236364 8.30234225,5.99236364 C7.87206558,5.99236364 7.43201651,6.03636854 6.98218182,6.12437968 C6.53234713,6.21239081 6.12163466,6.35907384 5.75003209,6.56443316 C5.37842951,6.76979247 5.07039516,7.04849022 4.82591979,7.40053476 C4.58144441,7.7525793 4.45920856,8.19262838 4.45920856,8.72069519 C4.45920856,9.46390033 4.68901196,10.045743 5.14862567,10.4662406 C5.60823937,10.8867383 6.20963978,11.2045515 6.95284492,11.4196898 C7.03107704,11.4392479 7.33911139,11.5223683 7.87695722,11.6690535 C8.41480305,11.8157387 9.01620345,11.97709 9.68117647,12.1531123 C10.3461495,12.3291346 10.9964442,12.5002648 11.6320802,12.666508 C12.2677162,12.8327513 12.7224336,12.9549871 12.996246,13.0332193 C13.680777,13.2483576 14.277288,13.5417236 14.7857968,13.9133262 C15.2943056,14.2849288 15.7196863,14.7103095 16.0619519,15.1894813 C16.4042174,15.668653 16.658468,16.1820436 16.8247112,16.7296684 C16.9909545,17.2772933 17.0740749,17.8249099 17.0740749,18.3725348 C17.0740749,19.5460166 16.8344926,20.5483506 16.3553209,21.3795668 C15.8761491,22.2107831 15.2454121,22.8904145 14.4630909,23.4184813 C13.6807697,23.9465481 12.7908927,24.3328134 11.7934332,24.5772888 C10.7959736,24.8217641 9.77897131,24.944 8.74239572,24.944 C7.54935589,24.944 6.42478603,24.797317 5.36865241,24.5039465 C4.31251878,24.2105761 3.39330516,23.7607481 2.61098396,23.1544492 C1.82866276,22.5481503 1.20281518,21.7707302 0.73342246,20.8221658 C0.264029739,19.8736013 0.0195580301,18.7539209 0,17.4630909 L3.6671123,17.4630909 Z" id="S" sketch:type="MSShapeGroup"></path>
                <rect id="Rectangle-1" sketch:type="MSShapeGroup" x="8" y="0" width="2" height="28"></rect>
            </g>
        </g>
    </g>
</svg>