<?xml version="1.0" encoding="UTF-8" standalone="no"?>
<svg width="24px" height="24px" viewBox="0 0 24 24" version="1.1" xmlns="http://www.w3.org/2000/svg" xmlns:xlink="http://www.w3.org/1999/xlink" xmlns:sketch="http://www.bohemiancoding.com/sketch/ns">
    <!-- Generator: Sketch 3.3.3 (12072) - http://www.bohemiancoding.com/sketch -->
    <title>atm-slate-24</title>
    <desc>Created with Sketch.</desc>
    <defs></defs>
    <g id="atm" stroke="none" stroke-width="1" fill="none" fill-rule="evenodd" sketch:type="MSPage">
        <g id="atm-slate-24" sketch:type="MSArtboardGroup">
            <g id="symbol-copy-2" sketch:type="MSLayerGroup" transform="translate(7.000000, 4.000000)" fill="#000000" fill-opacity="0.5">
                <path d="M3.09625668,12.5454545 C3.09625668,13.1301277 3.19607743,13.6292314 3.39572193,14.0427807 C3.59536642,14.4563301 3.8734385,14.7950076 4.22994652,15.0588235 C4.58645455,15.3226395 4.99643262,15.5151509 5.45989305,15.6363636 C5.92335348,15.7575764 6.42602225,15.8181818 6.96791444,15.8181818 C7.55258759,15.8181818 8.05169134,15.7504463 8.46524064,15.6149733 C8.87878995,15.4795002 9.21390246,15.3048139 9.47058824,15.0909091 C9.72727401,14.8770043 9.9126554,14.6310174 10.026738,14.3529412 C10.1408205,14.0748649 10.197861,13.7932278 10.197861,13.5080214 C10.197861,12.9233482 10.065955,12.49198 9.80213904,12.2139037 C9.5383231,11.9358275 9.24955594,11.739751 8.93582888,11.6256684 C8.39393668,11.426024 7.76292695,11.2370775 7.04278075,11.0588235 C6.32263455,10.8805695 5.43494289,10.6488428 4.37967914,10.3636364 C3.72370439,10.1925125 3.17825529,9.96791583 2.74331551,9.68983957 C2.30837572,9.41176332 1.96256813,9.10160599 1.70588235,8.75935829 C1.44919658,8.41711059 1.26738021,8.05347786 1.16042781,7.6684492 C1.0534754,7.28342053 1,6.89126759 1,6.49197861 C1,5.72192128 1.1604262,5.05526128 1.48128342,4.49197861 C1.80214064,3.92869594 2.22637882,3.46167743 2.7540107,3.09090909 C3.28164257,2.72014075 3.88056706,2.44563369 4.55080214,2.26737968 C5.22103722,2.08912567 5.8983923,2 6.5828877,2 C7.38146567,2 8.13368631,2.10338578 8.83957219,2.31016043 C9.54545807,2.51693508 10.1657727,2.82709241 10.7005348,3.24064171 C11.2352968,3.65419102 11.659535,4.16398984 11.973262,4.77005348 C12.2869891,5.37611711 12.4438503,6.07842738 12.4438503,6.87700535 L9.77005348,6.87700535 C9.69875187,5.89304321 9.36363936,5.19786299 8.76470588,4.79144385 C8.16577241,4.38502471 7.40285668,4.18181818 6.47593583,4.18181818 C6.16220877,4.18181818 5.84135636,4.21390342 5.51336898,4.27807487 C5.1853816,4.34224631 4.88591936,4.44919711 4.61497326,4.59893048 C4.34402717,4.74866385 4.11943048,4.95187037 3.94117647,5.20855615 C3.76292246,5.46524193 3.67379679,5.78609433 3.67379679,6.17112299 C3.67379679,6.71301519 3.84135305,7.13725337 4.17647059,7.44385027 C4.51158813,7.75044717 4.95008642,7.9821739 5.49197861,8.13903743 C5.54901989,8.15329775 5.77361658,8.21390321 6.1657754,8.32085561 C6.55793422,8.42780802 6.99643251,8.5454539 7.48128342,8.67379679 C7.96613433,8.80213968 8.44028289,8.92691561 8.90374332,9.04812834 C9.36720374,9.16934107 9.69875123,9.25846674 9.89839572,9.31550802 C10.397507,9.47237155 10.8324402,9.68627316 11.2032086,9.95721925 C11.5739769,10.2281653 11.8841342,10.5383227 12.1336898,10.8877005 C12.3832455,11.2370784 12.5686268,11.6114062 12.6898396,12.0106952 C12.8110523,12.4099842 12.8716578,12.8092672 12.8716578,13.2085561 C12.8716578,14.0641754 12.6969714,14.7950059 12.3475936,15.4010695 C11.9982157,16.0071332 11.5383273,16.5026719 10.9679144,16.8877005 C10.3975016,17.2727292 9.74866674,17.5543663 9.02139037,17.7326203 C8.29411401,17.9108743 7.55258845,18 6.79679144,18 C5.92691187,18 5.10695572,17.8930492 4.3368984,17.6791444 C3.56684107,17.4652396 2.89661604,17.1372571 2.32620321,16.6951872 C1.75579037,16.2531172 1.29946695,15.686278 0.957219251,14.9946524 C0.614971551,14.3030268 0.436720214,13.4866357 0.422459893,12.5454545 L3.09625668,12.5454545 Z" id="S" sketch:type="MSShapeGroup"></path>
                <rect id="Rectangle-4" sketch:type="MSShapeGroup" x="6" y="0" width="2" height="20"></rect>
            </g>
            <g id="symbol-copy" sketch:type="MSLayerGroup" transform="translate(6.000000, 3.000000)" fill="#000000" fill-opacity="0.75">
                <path d="M3.09625668,12.5454545 C3.09625668,13.1301277 3.19607743,13.6292314 3.39572193,14.0427807 C3.59536642,14.4563301 3.8734385,14.7950076 4.22994652,15.0588235 C4.58645455,15.3226395 4.99643262,15.5151509 5.45989305,15.6363636 C5.92335348,15.7575764 6.42602225,15.8181818 6.96791444,15.8181818 C7.55258759,15.8181818 8.05169134,15.7504463 8.46524064,15.6149733 C8.87878995,15.4795002 9.21390246,15.3048139 9.47058824,15.0909091 C9.72727401,14.8770043 9.9126554,14.6310174 10.026738,14.3529412 C10.1408205,14.0748649 10.197861,13.7932278 10.197861,13.5080214 C10.197861,12.9233482 10.065955,12.49198 9.80213904,12.2139037 C9.5383231,11.9358275 9.24955594,11.739751 8.93582888,11.6256684 C8.39393668,11.426024 7.76292695,11.2370775 7.04278075,11.0588235 C6.32263455,10.8805695 5.43494289,10.6488428 4.37967914,10.3636364 C3.72370439,10.1925125 3.17825529,9.96791583 2.74331551,9.68983957 C2.30837572,9.41176332 1.96256813,9.10160599 1.70588235,8.75935829 C1.44919658,8.41711059 1.26738021,8.05347786 1.16042781,7.6684492 C1.0534754,7.28342053 1,6.89126759 1,6.49197861 C1,5.72192128 1.1604262,5.05526128 1.48128342,4.49197861 C1.80214064,3.92869594 2.22637882,3.46167743 2.7540107,3.09090909 C3.28164257,2.72014075 3.88056706,2.44563369 4.55080214,2.26737968 C5.22103722,2.08912567 5.8983923,2 6.5828877,2 C7.38146567,2 8.13368631,2.10338578 8.83957219,2.31016043 C9.54545807,2.51693508 10.1657727,2.82709241 10.7005348,3.24064171 C11.2352968,3.65419102 11.659535,4.16398984 11.973262,4.77005348 C12.2869891,5.37611711 12.4438503,6.07842738 12.4438503,6.87700535 L9.77005348,6.87700535 C9.69875187,5.89304321 9.36363936,5.19786299 8.76470588,4.79144385 C8.16577241,4.38502471 7.40285668,4.18181818 6.47593583,4.18181818 C6.16220877,4.18181818 5.84135636,4.21390342 5.51336898,4.27807487 C5.1853816,4.34224631 4.88591936,4.44919711 4.61497326,4.59893048 C4.34402717,4.74866385 4.11943048,4.95187037 3.94117647,5.20855615 C3.76292246,5.46524193 3.67379679,5.78609433 3.67379679,6.17112299 C3.67379679,6.71301519 3.84135305,7.13725337 4.17647059,7.44385027 C4.51158813,7.75044717 4.95008642,7.9821739 5.49197861,8.13903743 C5.54901989,8.15329775 5.77361658,8.21390321 6.1657754,8.32085561 C6.55793422,8.42780802 6.99643251,8.5454539 7.48128342,8.67379679 C7.96613433,8.80213968 8.44028289,8.92691561 8.90374332,9.04812834 C9.36720374,9.16934107 9.69875123,9.25846674 9.89839572,9.31550802 C10.397507,9.47237155 10.8324402,9.68627316 11.2032086,9.95721925 C11.5739769,10.2281653 11.8841342,10.5383227 12.1336898,10.8877005 C12.3832455,11.2370784 12.5686268,11.6114062 12.6898396,12.0106952 C12.8110523,12.4099842 12.8716578,12.8092672 12.8716578,13.2085561 C12.8716578,14.0641754 12.6969714,14.7950059 12.3475936,15.4010695 C11.9982157,16.0071332 11.5383273,16.5026719 10.9679144,16.8877005 C10.3975016,17.2727292 9.74866674,17.5543663 9.02139037,17.7326203 C8.29411401,17.9108743 7.55258845,18 6.79679144,18 C5.92691187,18 5.10695572,17.8930492 4.3368984,17.6791444 C3.56684107,17.4652396 2.89661604,17.1372571 2.32620321,16.6951872 C1.75579037,16.2531172 1.29946695,15.686278 0.957219251,14.9946524 C0.614971551,14.3030268 0.436720214,13.4866357 0.422459893,12.5454545 L3.09625668,12.5454545 Z" id="S" sketch:type="MSShapeGroup"></path>
                <rect id="Rectangle-4" sketch:type="MSShapeGroup" x="6" y="0" width="2" height="20"></rect>
            </g>
            <g id="symbol" sketch:type="MSLayerGroup" transform="translate(5.000000, 2.000000)" fill="#E6E6E6">
                <path d="M3.09625668,12.5454545 C3.09625668,13.1301277 3.19607743,13.6292314 3.39572193,14.0427807 C3.59536642,14.4563301 3.8734385,14.7950076 4.22994652,15.0588235 C4.58645455,15.3226395 4.99643262,15.5151509 5.45989305,15.6363636 C5.92335348,15.7575764 6.42602225,15.8181818 6.96791444,15.8181818 C7.55258759,15.8181818 8.05169134,15.7504463 8.46524064,15.6149733 C8.87878995,15.4795002 9.21390246,15.3048139 9.47058824,15.0909091 C9.72727401,14.8770043 9.9126554,14.6310174 10.026738,14.3529412 C10.1408205,14.0748649 10.197861,13.7932278 10.197861,13.5080214 C10.197861,12.9233482 10.065955,12.49198 9.80213904,12.2139037 C9.5383231,11.9358275 9.24955594,11.739751 8.93582888,11.6256684 C8.39393668,11.426024 7.76292695,11.2370775 7.04278075,11.0588235 C6.32263455,10.8805695 5.43494289,10.6488428 4.37967914,10.3636364 C3.72370439,10.1925125 3.17825529,9.96791583 2.74331551,9.68983957 C2.30837572,9.41176332 1.96256813,9.10160599 1.70588235,8.75935829 C1.44919658,8.41711059 1.26738021,8.05347786 1.16042781,7.6684492 C1.0534754,7.28342053 1,6.89126759 1,6.49197861 C1,5.72192128 1.1604262,5.05526128 1.48128342,4.49197861 C1.80214064,3.92869594 2.22637882,3.46167743 2.7540107,3.09090909 C3.28164257,2.72014075 3.88056706,2.44563369 4.55080214,2.26737968 C5.22103722,2.08912567 5.8983923,2 6.5828877,2 C7.38146567,2 8.13368631,2.10338578 8.83957219,2.31016043 C9.54545807,2.51693508 10.1657727,2.82709241 10.7005348,3.24064171 C11.2352968,3.65419102 11.659535,4.16398984 11.973262,4.77005348 C12.2869891,5.37611711 12.4438503,6.07842738 12.4438503,6.87700535 L9.77005348,6.87700535 C9.69875187,5.89304321 9.36363936,5.19786299 8.76470588,4.79144385 C8.16577241,4.38502471 7.40285668,4.18181818 6.47593583,4.18181818 C6.16220877,4.18181818 5.84135636,4.21390342 5.51336898,4.27807487 C5.1853816,4.34224631 4.88591936,4.44919711 4.61497326,4.59893048 C4.34402717,4.74866385 4.11943048,4.95187037 3.94117647,5.20855615 C3.76292246,5.46524193 3.67379679,5.78609433 3.67379679,6.17112299 C3.67379679,6.71301519 3.84135305,7.13725337 4.17647059,7.44385027 C4.51158813,7.75044717 4.95008642,7.9821739 5.49197861,8.13903743 C5.54901989,8.15329775 5.77361658,8.21390321 6.1657754,8.32085561 C6.55793422,8.42780802 6.99643251,8.5454539 7.48128342,8.67379679 C7.96613433,8.80213968 8.44028289,8.92691561 8.90374332,9.04812834 C9.36720374,9.16934107 9.69875123,9.25846674 9.89839572,9.31550802 C10.397507,9.47237155 10.8324402,9.68627316 11.2032086,9.95721925 C11.5739769,10.2281653 11.8841342,10.5383227 12.1336898,10.8877005 C12.3832455,11.2370784 12.5686268,11.6114062 12.6898396,12.0106952 C12.8110523,12.4099842 12.8716578,12.8092672 12.8716578,13.2085561 C12.8716578,14.0641754 12.6969714,14.7950059 12.3475936,15.4010695 C11.9982157,16.0071332 11.5383273,16.5026719 10.9679144,16.8877005 C10.3975016,17.2727292 9.74866674,17.5543663 9.02139037,17.7326203 C8.29411401,17.9108743 7.55258845,18 6.79679144,18 C5.92691187,18 5.10695572,17.8930492 4.3368984,17.6791444 C3.56684107,17.4652396 2.89661604,17.1372571 2.32620321,16.6951872 C1.75579037,16.2531172 1.29946695,15.686278 0.957219251,14.9946524 C0.614971551,14.3030268 0.436720214,13.4866357 0.422459893,12.5454545 L3.09625668,12.5454545 Z" id="S" sketch:type="MSShapeGroup"></path>
                <rect id="Rectangle-4" sketch:type="MSShapeGroup" x="6" y="0" width="2" height="20"></rect>
            </g>
        </g>
    </g>
</svg>