<?xml version="1.0" encoding="utf-8"?>
<!-- Generator: Adobe Illustrator 20.0.0, SVG Export Plug-In . SVG Version: 6.00 Build 0)  -->
<svg version="1.1" id="Layer_1" xmlns:sketch="http://www.bohemiancoding.com/sketch/ns"
	 xmlns="http://www.w3.org/2000/svg" xmlns:xlink="http://www.w3.org/1999/xlink" x="0px" y="0px" width="22px" height="22px"
	 viewBox="0 0 22 22" style="enable-background:new 0 0 22 22;" xml:space="preserve">
<g>
	<polygon fill="#FFFFFF" points="11.9,22 10,22 10,0 12,0 	"/>
	<g>
		<path fill="#FFFFFF" d="M6.9,13.8c0.1,0.8,0.4,1.4,0.7,1.7c0.7,0.7,1.8,1,3.4,1c1,0,1.7-0.1,2.3-0.3c1.1-0.4,1.7-1,1.7-2c0-0.6-0.3-1-0.8-1.3
			c-0.6-0.3-1.4-0.6-2.6-0.8l-2-0.4c-2-0.4-3.4-0.8-4.1-1.3c-1.3-0.8-1.9-2-1.9-3.7c0-1.5,0.6-2.8,1.9-3.8s3.1-1.5,5.5-1.5
			c2,0,3.7,0.5,5.1,1.4c1.4,0.9,2.2,2.3,2.2,4.1h-3.8c-0.1-1-0.6-1.7-1.5-2.2c-0.6-0.3-1.4-0.4-2.3-0.4c-1,0-1.9,0.2-2.5,0.6
			C7.4,5.4,7.1,6,7.1,6.6c0,0.6,0.3,1.1,0.9,1.4c0.4,0.2,1.2,0.4,2.5,0.7l3.3,0.7c1.5,0.3,2.5,0.7,3.3,1.2c1.1,0.8,1.7,2,1.7,3.5
			c0,1.5-0.7,2.8-2,3.9c-1.3,1-3.2,1.5-5.6,1.5c-2.5,0-4.4-0.5-5.9-1.5c-1.4-1-2.1-2.4-2.1-4.2H6.9z"/>
	</g>
</g>
</svg>
