<?xml version="1.0" encoding="utf-8"?>
<!-- Generator: Adobe Illustrator 22.0.1, SVG Export Plug-In . SVG Version: 6.00 Build 0)  -->
<svg version="1.1" id="Layer_1_1_" xmlns="http://www.w3.org/2000/svg" xmlns:xlink="http://www.w3.org/1999/xlink" x="0px" y="0px"
	 width="22px" height="22px" viewBox="0 0 22 22" style="enable-background:new 0 0 22 22;" xml:space="preserve">
<path d="M18,4c1.4,0,3,3,3,7s-1.6,7-3,7H4c-1.4,0-3-3-3-7s1.6-7,3-7H18 M18,3H4c-2.2,0-4,3.5-4,8s1.8,8,4,8h14c2.2,0,4-3.5,4-8
	S20.2,3,18,3L18,3z"/>
<path d="M12.6,14.6c2,0,2.4-1.6,2.4-3.5c0-2-0.4-3.6-2.4-3.6l0,0H10v7.1H12.6 M12.4,9.1c1,0,0.9,0.8,0.9,1.9c0,1,0.2,1.9-0.9,1.9
	h-0.9V9.1H12.4z"/>
<path d="M6.8,7.5l-5.1,7.1H4l0.6-0.9h2.9v0.9H9V7.5H6.8z M7.4,12.1H5.5l1.9-2.5V12.1z"/>
<path d="M19.3,7.4h-0.2h-0.4h-0.2c1,1,1.6,2.3,1.6,3.7c0,1.2-0.4,2.4-1.2,3.4H19h0.4h0.2c0.7-1,1.1-2.1,1.1-3.4S20.2,8.5,19.3,7.4z"
	/>
<path d="M17.5,7.4h-0.2h-0.4h-0.2c1,1,1.6,2.3,1.6,3.7c0,1.2-0.4,2.4-1.2,3.4h0.2h0.4h0.2c0.7-1,1.1-2.1,1.1-3.4
	C18.9,9.8,18.4,8.5,17.5,7.4z"/>
<path d="M15.8,7.4h-0.2h-0.4H15c1,1,1.5,2.3,1.5,3.7c0,1.2-0.4,2.4-1.2,3.4h0.2h0.4H16c0.7-1,1.1-2.1,1.1-3.4S16.6,8.5,15.8,7.4z"/>
</svg>
