<?xml version="1.0" encoding="utf-8"?>
<!-- Generator: Adobe Illustrator 21.1.0, SVG Export Plug-In . SVG Version: 6.00 Build 0)  -->
<svg version="1.1" id="Layer_1" xmlns="http://www.w3.org/2000/svg" xmlns:xlink="http://www.w3.org/1999/xlink" x="0px" y="0px"
	 width="30px" height="30px" viewBox="0 0 30 30" enable-background="new 0 0 30 30" xml:space="preserve">
<g>
	<path fill="#FFFFFF" d="M30,22.687h-2.985v-7.166c0-6.362-5.391-11.539-12.016-11.539c-6.62,0-12.007,5.177-12.007,11.539l-0.006,1.491
		c-0.004,2.086-0.004,5.675-0.004,5.675H0c0-3.841,0-5.977,0.13-7.166H0.01C0.01,7.513,6.733,1,14.998,1
		C23.269,1,30,7.513,30,15.521V22.687z"/>
</g>
<path fill="#FFFFFF" d="M8.311,28.223H4.393v-11.24h3.917C10.335,22.198,8.311,28.223,8.311,28.223"/>
<path fill="#FFFFFF" d="M21.617,16.983h3.917v11.24h-3.917C19.592,23.007,21.617,16.983,21.617,16.983"/>
</svg>
