<?xml version="1.0" encoding="utf-8"?>
<!-- Generator: Adobe Illustrator 22.0.1, SVG Export Plug-In . SVG Version: 6.00 Build 0)  -->
<svg version="1.1" id="Layer_1_1_" xmlns="http://www.w3.org/2000/svg" xmlns:xlink="http://www.w3.org/1999/xlink" x="0px" y="0px"
	 width="14px" height="14px" viewBox="0 0 14 14" style="enable-background:new 0 0 14 14;" xml:space="preserve">
<path fill="#FFFFFF" d="M11.8,11c-0.1,0.1-0.2,0-0.3,0h-9C2,11,1,9.6,1,7s1-4,1.5-4h9c0.1,0,0.2-0.1,0.3,0H13c-0.4-0.7-1-1-1.6-1h-9
	C1.1,2,0,4.2,0,7s1.1,5,2.5,5h9c0.6,0,1.1-0.3,1.6-1H11.8z"/>
<path fill="#FFFFFF" d="M8,10c1.2,0,1.4-1.7,1.4-3c0-1.2-0.2-3-1.4-3l0,0H6v6H8 M7.9,5c0.7,0,0.6,1.3,0.6,2c0,1,0.2,1.5-0.6,2H7V5H7.9z"/>
<path fill="#FFFFFF" d="M4.3,4l-3.2,6h1.1l0.5-1h1.4v1H5V4H4.3z M4.2,8H3l1.2-1.9V8z"/>
<path fill="#FFFFFF" d="M10,4h1c0,0,1,2,1,3s-1,3-1,3h-1c0,0,1-2,1-3S10,4,10,4z"/>
<path fill="#FFFFFF" d="M12,4h1c0,0,1,2,1,3s-1,3-1,3h-1c0,0,1-2,1-3S12,4,12,4z"/>
</svg>
