<?xml version="1.0" encoding="utf-8"?>
<!-- Generator: Adobe Illustrator 21.1.0, SVG Export Plug-In . SVG Version: 6.00 Build 0)  -->
<svg version="1.1" id="Layer_1" xmlns="http://www.w3.org/2000/svg" xmlns:xlink="http://www.w3.org/1999/xlink" x="0px" y="0px"
	 width="14px" height="14px" viewBox="0 0 14 14" enable-background="new 0 0 14 14" xml:space="preserve">
<g>
	<path fill="#FFFFFF" d="M14,11.121h-1.393V7.776c0-2.969-2.516-5.385-5.608-5.385c-3.089,0-5.603,2.416-5.603,5.385L1.393,8.472
		c-0.002,0.974-0.002,2.648-0.002,2.648H0c0-1.792,0-2.789,0.061-3.344H0.004C0.004,4.039,3.142,1,6.999,1
		C10.859,1,14,4.039,14,7.776V11.121z"/>
</g>
<path fill="#FFFFFF" d="M3.878,13.704H2.05V8.459h1.828C4.823,10.893,3.878,13.704,3.878,13.704"/>
<path fill="#FFFFFF" d="M10.088,8.459h1.828v5.245h-1.828C9.143,11.27,10.088,8.459,10.088,8.459"/>
</svg>
