<?xml version="1.0" encoding="utf-8"?>
<!-- Generator: Adobe Illustrator 22.0.1, SVG Export Plug-In . SVG Version: 6.00 Build 0)  -->
<svg version="1.1" id="Layer_1_1_" xmlns="http://www.w3.org/2000/svg" xmlns:xlink="http://www.w3.org/1999/xlink" x="0px" y="0px"
	 width="30px" height="30px" viewBox="0 0 30 30" style="enable-background:new 0 0 30 30;" xml:space="preserve">
<path fill="#FFFFFF" d="M24.6,5C26.7,5,29,9.1,29,15s-2.3,10-4.4,10H5.4C3.3,25,1,20.9,1,15S3.3,5,5.4,5H24.6 M24.6,4H5.4C2.4,4,0,8.9,0,15
	s2.4,11,5.4,11h19.2c3,0,5.4-4.9,5.4-11S27.6,4,24.6,4L24.6,4z"/>
<path fill="#FFFFFF" d="M15.9,19.8c2.7,0,4.8-2.2,4.8-4.8c0-2.7-2.2-4.8-4.8-4.8l0,0h-3v9.7L15.9,19.8 M15.6,12.4c1.4,0,2.6,1.2,2.6,2.6
	s-1.1,2.6-2.6,2.6h-0.7v-5.2C14.9,12.4,15.6,12.4,15.6,12.4z"/>
<path fill="#FFFFFF" d="M9.2,10.2l-6.9,9.7h3.1l0.8-1.3h3.5v1.3h2.1v-9.7H9.2z M9.8,16.6H7.5l2.2-3.5v3.5H9.8z"/>
<path fill="#FFFFFF" d="M26.4,10.2h-0.3h-0.6h-0.3c1.3,1.3,2.1,3.2,2.1,5.1c0,1.7-0.6,3.3-1.7,4.6h0.3h0.5h0.3c1-1.3,1.5-2.9,1.5-4.6
	C28.2,13.4,27.6,11.6,26.4,10.2z"/>
<path fill="#FFFFFF" d="M23.9,10.2h-0.3H23h-0.3c1.3,1.3,2.1,3.2,2.1,5.1c0,1.7-0.6,3.3-1.7,4.6h0.3H24h0.3c1-1.3,1.5-2.9,1.5-4.6
	C25.8,13.4,25.1,11.6,23.9,10.2z"/>
<path fill="#FFFFFF" d="M21.5,10.2h-0.3h-0.6h-0.3c1.3,1.3,2.1,3.2,2.1,5.1c0,1.7-0.6,3.3-1.7,4.6H21h0.5h0.3c1-1.3,1.5-2.9,1.5-4.6
	C23.4,13.4,22.7,11.6,21.5,10.2z"/>
</svg>
