<?xml version="1.0" encoding="utf-8"?>
<!-- Generator: Adobe Illustrator 21.1.0, SVG Export Plug-In . SVG Version: 6.00 Build 0)  -->
<svg version="1.1" id="Layer_1" xmlns="http://www.w3.org/2000/svg" xmlns:xlink="http://www.w3.org/1999/xlink" x="0px" y="0px"
	 width="22px" height="22px" viewBox="0 0 22 22" enable-background="new 0 0 22 22" xml:space="preserve">
<g>
	<path d="M22,16.904h-2.189v-5.255c0-4.666-3.953-8.462-8.812-8.462c-4.855,0-8.805,3.796-8.805,8.462l-0.004,1.093
		c-0.003,1.53-0.003,4.162-0.003,4.162H0c0-2.816,0-4.383,0.095-5.255H0.007C0.007,5.776,4.937,1,10.999,1
		C17.064,1,22,5.776,22,11.649V16.904z"/>
</g>
<path d="M6.094,20.963H3.222v-8.242h2.873C7.579,16.545,6.094,20.963,6.094,20.963"/>
<path d="M15.853,12.721h2.873v8.242h-2.873C14.368,17.139,15.853,12.721,15.853,12.721"/>
</svg>
