<?xml version="1.0" encoding="utf-8"?>
<!-- Generator: Adobe Illustrator 22.1.0, SVG Export Plug-In . SVG Version: 6.00 Build 0)  -->
<svg version="1.1" id="Layer_1" xmlns="http://www.w3.org/2000/svg" xmlns:xlink="http://www.w3.org/1999/xlink" x="0px" y="0px"
	 width="14px" height="14px" viewBox="0 0 14 14" enable-background="new 0 0 14 14" xml:space="preserve">
<path fill="#FFFFFF" d="M14,6.8L14,6.8c0-0.8-0.5-1.5-1.3-1.7l-1.3-3.1C11.3,1.7,10.8,1,10.3,1H3.7c-0.5,0-1,0.7-1.1,1.1L1.3,5.2C0.5,5.4,0,6,0,6.8
	v0V9v1h1v2c0,0.6,0.4,1,1,1s1-0.4,1-1v-2h8v2c0,0.6,0.4,1,1,1s1-0.4,1-1v-2h1V9h0L14,6.8z M12.7,7.5c0,0.6-0.5,1.1-1.1,1.1
	c-0.6,0-1.1-0.5-1.1-1.1c0-0.6,0.5-1.1,1.1-1.1C12.2,6.4,12.7,6.9,12.7,7.5z M3.5,2.5C3.5,2.3,3.6,2,3.8,2h6.4
	c0.2,0,0.3,0.3,0.3,0.5L11.6,5H2.4L3.5,2.5z M2.5,6.4c0.6,0,1.1,0.5,1.1,1.1c0,0.6-0.5,1.1-1.1,1.1c-0.6,0-1.1-0.5-1.1-1.1
	C1.4,6.9,1.9,6.4,2.5,6.4z"/>
</svg>
