<?xml version="1.0" encoding="utf-8"?>
<!-- Generator: Adobe Illustrator 22.1.0, SVG Export Plug-In . SVG Version: 6.00 Build 0)  -->
<svg version="1.1" id="Layer_1" xmlns="http://www.w3.org/2000/svg" xmlns:xlink="http://www.w3.org/1999/xlink" x="0px" y="0px"
	 width="22px" height="22px" viewBox="0 0 22 22" enable-background="new 0 0 22 22" xml:space="preserve">
<path fill="#FFFFFF" d="M22,10.7L22,10.7c0-1.2-0.8-2.3-2-2.6l-2-4.8c-0.3-0.7-1-1.2-1.8-1.2H5.8C5,2.1,4.3,2.6,4,3.3L2,8.1c-1.1,0.3-2,1.3-2,2.6v0
	V14v2h2v2c0,0,0,0.3,0,0.5C2,19.3,2.7,20,3.5,20S5,19.3,5,18.5C5,18.3,5,18,5,18v-2h12v2c0,0,0,0.3,0,0.5c0,0.8,0.7,1.5,1.5,1.5
	s1.5-0.7,1.5-1.5c0-0.2,0-0.5,0-0.5v-2h2v-2h0L22,10.7z M3.5,13C2.7,13,2,12.3,2,11.5S2.7,10,3.5,10S5,10.7,5,11.5S4.3,13,3.5,13z
	 M3.7,8l1.7-4.2C5.5,3.7,5.7,3.5,6,3.5H16c0.2,0,0.4,0.2,0.5,0.4L18.3,8H3.7z M18.5,13c-0.8,0-1.5-0.7-1.5-1.5s0.7-1.5,1.5-1.5
	s1.5,0.7,1.5,1.5S19.3,13,18.5,13z"/>
</svg>
