<?xml version="1.0" encoding="utf-8"?>
<!-- Generator: Adobe Illustrator 22.0.1, SVG Export Plug-In . SVG Version: 6.00 Build 0)  -->
<svg version="1.1" id="Layer_1" xmlns="http://www.w3.org/2000/svg" xmlns:xlink="http://www.w3.org/1999/xlink" x="0px" y="0px"
	 width="14px" height="14px" viewBox="0 0 14 14" enable-background="new 0 0 14 14" xml:space="preserve">
<polygon points="14,7 11,4 11,6 8,6 8,8 11,8 11,10 "/>
<path d="M4,0v2h4v3c0.5,0,1.2,0,2,0V0H4z"/>
<path d="M8,12H4v2h6V9C9.2,9,8.5,9,8,9V12z"/>
<polygon points="4,7 4,6 4,5 5,5 5,4 5,3 4,3 4,4 3,4 3,5 2,5 2,6 1,6 1,7 0,7 0,8 3,8 3,9 3,10 2,10 2,11 2,12 3,12 3,11 4,11 
	4,10 5,10 5,9 6,9 6,8 7,8 7,7 "/>
</svg>
