<?xml version="1.0" encoding="utf-8"?>
<!-- Generator: Adobe Illustrator 22.1.0, SVG Export Plug-In . SVG Version: 6.00 Build 0)  -->
<svg version="1.1" id="Layer_1" xmlns="http://www.w3.org/2000/svg" xmlns:xlink="http://www.w3.org/1999/xlink" x="0px" y="0px"
	 width="30px" height="30px" viewBox="0 0 30 30" enable-background="new 0 0 30 30" xml:space="preserve">
<path fill="#FFFFFF" d="M30,14.6L30,14.6c0-1.7-1.1-3.1-2.7-3.5l-2.8-6.4c-0.4-1-1.4-1.6-2.5-1.6H7.9c-1.1,0-2.1,0.7-2.5,1.6l-2.8,6.4
	C1.1,11.5,0,12.9,0,14.6v0V19v3h2v2c0,0,0,0.3,0,0.5C2,25.9,3.1,27,4.5,27S7,25.9,7,24.5C7,24.3,7,24,7,24v-2h16v2c0,0,0,0.3,0,0.5
	c0,1.4,1.1,2.5,2.5,2.5s2.5-1.1,2.5-2.5c0-0.2,0-0.5,0-0.5v-2h2v-3h0L30,14.6z M27,16c0,1.1-0.9,2-2,2s-2-0.9-2-2c0-1.1,0.9-2,2-2
	S27,14.9,27,16z M7.4,5.5C7.5,5.2,7.8,5,8.1,5h13.7c0.3,0,0.6,0.2,0.7,0.5l2.4,5.5H5.1L7.4,5.5z M5,14c1.1,0,2,0.9,2,2
	c0,1.1-0.9,2-2,2s-2-0.9-2-2C3,14.9,3.9,14,5,14z"/>
</svg>
