<?xml version="1.0" encoding="utf-8"?>
<!-- Generator: Adobe Illustrator 22.0.1, SVG Export Plug-In . SVG Version: 6.00 Build 0)  -->
<svg version="1.1" id="Layer_1" xmlns="http://www.w3.org/2000/svg" xmlns:xlink="http://www.w3.org/1999/xlink" x="0px" y="0px"
	 width="30px" height="30px" viewBox="0 0 30 30" style="enable-background:new 0 0 30 30;" xml:space="preserve">
<g>
	<g>
		<ellipse cx="15" cy="4.2" rx="4.2" ry="4.2"/>
	</g>
	<g>
		<path d="M15,17.3h-4.5v-3.2l-3.4,3.4c-1.5,1.5-3.7-0.4-2.1-2l5.7-5.7c0.5-0.5,1-0.7,1.8-0.7H15l0,0h2.5c0.8,0,1.3,0.3,1.8,0.7
			l5.7,5.7c1.5,1.5-0.7,3.5-2.1,2l-3.5-3.5v3.2H15L15,17.3z"/>
	</g>
	<g>
		<path d="M19.4,19l-3.4,3.4l2.5,2.5L16,27.4c-1.5,1.5,0.6,3.6,2.1,2.1l4-4.2c0.9-0.9,1.1-2.5,0.2-3.4C22.3,21.9,19.4,19,19.4,19z"
			/>
	</g>
	<g>
		<path d="M10.5,19l3.4,3.4l-2.5,2.5l2.5,2.5c1.5,1.5-0.6,3.6-2.1,2.1l-4-4.2c-0.9-0.9-1.1-2.5-0.2-3.4L10.5,19z"/>
	</g>
</g>
</svg>
