<?xml version="1.0" encoding="utf-8"?>
<!-- Generator: Adobe Illustrator 22.0.1, SVG Export Plug-In . SVG Version: 6.00 Build 0)  -->
<svg version="1.1" id="Layer_1" xmlns="http://www.w3.org/2000/svg" xmlns:xlink="http://www.w3.org/1999/xlink" x="0px" y="0px"
	 width="22px" height="22px" viewBox="0 0 22 22" style="enable-background:new 0 0 22 22;" xml:space="preserve">
<g>
	<g>
		<ellipse cx="11" cy="3.1" rx="3.1" ry="3.1"/>
	</g>
	<g>
		<path d="M11,12.7H7.7v-2.4l-2.5,2.5c-1.1,1.1-2.7-0.3-1.5-1.5l4.2-4.2c0.3-0.3,0.7-0.5,1.3-0.5H11l0,0h1.9c0.6,0,1,0.2,1.3,0.5
			l4.2,4.2c1.1,1.1-0.5,2.6-1.5,1.5l-2.6-2.6v2.4H11L11,12.7z"/>
	</g>
	<g>
		<path d="M14.3,13.9l-2.5,2.5l1.8,1.8l-1.9,1.9c-1.1,1.1,0.4,2.7,1.5,1.5l2.9-3.1c0.6-0.6,0.8-1.8,0.1-2.5
			C16.4,16,14.3,13.9,14.3,13.9z"/>
	</g>
	<g>
		<path d="M7.7,13.9l2.5,2.5l-1.8,1.8l1.9,1.9c1.1,1.1-0.4,2.7-1.6,1.5l-2.9-3.1c-0.6-0.6-0.8-1.8-0.1-2.5L7.7,13.9z"/>
	</g>
</g>
</svg>
