<?xml version="1.0" encoding="utf-8"?>
<!-- Generator: Adobe Illustrator 22.0.1, SVG Export Plug-In . SVG Version: 6.00 Build 0)  -->
<svg version="1.1" id="Layer_1" xmlns="http://www.w3.org/2000/svg" xmlns:xlink="http://www.w3.org/1999/xlink" x="0px" y="0px"
	 width="14px" height="14px" viewBox="0 0 14 14" style="enable-background:new 0 0 14 14;" xml:space="preserve">
<g>
	<g>
		<ellipse fill="#FFFFFF" cx="7" cy="2" rx="2" ry="2"/>
	</g>
	<g>
		<path fill="#FFFFFF" d="M5,8l0-1.4L4.6,7L4,7l0,0.5L3.3,8.2C2.6,8.9,1.6,8,2.3,7.3L5,4.6c0.2-0.2,0.5-0.3,0.8-0.3H7l0,0h1.2
			c0.4,0,0.6,0.1,0.9,0.3l2.7,2.7c0.7,0.7-0.3,1.6-1,0.9L10,7.5L10,7L9.5,7L9,6.5V8H5z"/>
	</g>
	<g>
		<path fill="#FFFFFF" d="M9.1,8.9l-1.6,1.6l1.2,1.2l-1.2,1.2c-0.7,0.7,0.3,1.7,1,1l1.9-1.9c0.4-0.4,0.5-1.2,0.1-1.6C10.4,10.2,9.1,8.9,9.1,8.9z"/>
	</g>
	<g>
		<path fill="#FFFFFF" d="M4.9,8.9l1.6,1.6l-1.2,1.2l1.2,1.2c0.7,0.7-0.3,1.7-1,1l-1.9-1.9c-0.4-0.4-0.5-1.2-0.1-1.6L4.9,8.9z"/>
	</g>
</g>
</svg>
