<?xml version="1.0" encoding="utf-8"?>
<!-- Generator: Adobe Illustrator 22.1.0, SVG Export Plug-In . SVG Version: 6.00 Build 0)  -->
<svg version="1.1" id="Layer_1" xmlns="http://www.w3.org/2000/svg" xmlns:xlink="http://www.w3.org/1999/xlink" x="0px" y="0px"
	 width="22px" height="22px" viewBox="0 0 22 22" enable-background="new 0 0 22 22" xml:space="preserve">
<circle fill="#FFFFFF" cx="13" cy="4" r="1.7"/>
<path fill="#FFFFFF" d="M17.6,20.4L15,12.9l0-5.8c0-0.8-0.8-0.7-0.8-0.7h-2.5H11c0,0-0.1,0-0.4,0.2L8.8,7.6L6.9,5.7C6.5,5.3,6,5.3,5.6,5.6
	C5.2,5.9,5.2,6.5,5.5,6.9L8,9.3c0.2,0.2,0.4,0.3,0.7,0.3c0.2,0,0.4-0.1,0.5-0.2L11,8.5v4.3l-2.5,7.5c-0.2,0.7,0.2,1.3,0.9,1.5
	c0.7,0.2,1.3-0.2,1.5-0.9l2.2-6.5l2.2,6.5c0.2,0.7,0.9,1,1.5,0.9C17.3,21.7,17.7,21,17.6,20.4z"/>
<path fill="#FFFFFF" d="M5.1,7.7c0.1,0.1,0.2,0.1,0.3,0l0,0c0.1-0.1,0.1-0.2,0-0.3L5,6.9c-0.1-0.1-0.2-0.1-0.3,0l0,0C4.5,7,4.5,7.1,4.6,7.2L5.1,7.7
	z"/>
<path fill="#FFFFFF" d="M9.7,2.1L6.9,5.2l0.3,0.3l3.2-2.7l2.1-1.9c0.1-0.1,0.1-0.2,0.1-0.3c0-0.3-0.2-0.5-0.5-0.5c-0.1,0-0.3,0.1-0.4,0.1L9.7,2.1z"
	/>
</svg>
