<?xml version="1.0" encoding="utf-8"?>
<!-- Generator: Adobe Illustrator 22.1.0, SVG Export Plug-In . SVG Version: 6.00 Build 0)  -->
<svg version="1.1" id="Layer_1" xmlns="http://www.w3.org/2000/svg" xmlns:xlink="http://www.w3.org/1999/xlink" x="0px" y="0px"
	 width="14px" height="14px" viewBox="0 0 14 14" enable-background="new 0 0 14 14" xml:space="preserve">
<circle cx="8.5" cy="2.5" r="1.1"/>
<path d="M11.4,13L10,8.3V4.5C10,4,9.5,4,9.5,4H7.4H7c0,0-0.1,0-0.3,0.1L5.6,4.9L4.4,3.6C4.2,3.4,3.8,3.4,3.6,3.6
	C3.3,3.8,3.3,4.1,3.5,4.4l1.6,1.6C5.2,6,5.3,6.1,5.5,6.1c0.1,0,0.2,0,0.3-0.1L7,5.4v2.8L5.6,13c-0.1,0.4,0.1,0.8,0.6,1
	c0.4,0.1,0.8-0.1,1-0.6l1.4-4.1l1.4,4.1c0.1,0.4,0.5,0.7,1,0.6C11.3,13.9,11.5,13.4,11.4,13z"/>
<path d="M3.2,4.9c0.1,0.1,0.1,0.1,0.2,0l0,0c0.1-0.1,0.1-0.1,0-0.2L3.2,4.4C3.1,4.3,3,4.3,3,4.4l0,0c-0.1,0.1-0.1,0.1,0,0.2L3.2,4.9
	z"/>
<path d="M6.2,1.4L4.4,3.3l0.2,0.2l2-1.7l1.3-1.2C8,0.5,8,0.4,8,0.3C8,0.2,7.9,0,7.7,0C7.6,0,7.5,0,7.4,0.1L6.2,1.4z"/>
</svg>
