<?xml version="1.0" encoding="utf-8"?>
<!-- Generator: Adobe Illustrator 22.1.0, SVG Export Plug-In . SVG Version: 6.00 Build 0)  -->
<svg version="1.1" id="Layer_1" xmlns="http://www.w3.org/2000/svg" xmlns:xlink="http://www.w3.org/1999/xlink" x="0px" y="0px"
	 width="30px" height="30px" viewBox="0 0 30 30" enable-background="new 0 0 30 30" xml:space="preserve">
<path d="M24.2,27.9L21,17.8l-0.1-8.1c0-1.1-1.1-1-1.1-1h-3.9H15c0,0-0.2,0-0.6,0.3L12,10.4L9.4,7.8C8.9,7.3,8.2,7.2,7.7,7.6
	C7.2,8.1,7.1,8.8,7.6,9.3l3.3,3.3c0.2,0.2,0.5,0.4,0.9,0.4c0.3,0,0.5-0.1,0.7-0.2l2.5-1.2v5.9l-3.2,10.3c-0.2,0.9,0.3,1.8,1.2,2.1
	c0.9,0.2,1.8-0.3,2.1-1.2l2.9-8.9l3,8.9c0.2,0.9,1.2,1.4,2.1,1.2C23.9,29.7,24.4,28.8,24.2,27.9z"/>
<path d="M7,10.5c0.1,0.1,0.3,0.1,0.4,0l0,0c0.1-0.1,0.1-0.3,0-0.4L6.8,9.4c-0.1-0.1-0.3-0.1-0.4,0l0,0c-0.1,0.1-0.1,0.3,0,0.4
	L7,10.5z"/>
<path d="M13.2,2.9L9.4,7.1l0.5,0.5l4.3-3.7L17,1.2c0.1-0.1,0.2-0.3,0.2-0.5c0-0.4-0.3-0.7-0.7-0.7c-0.2,0-0.4,0.1-0.5,0.2L13.2,2.9z
	"/>
<circle cx="17.5" cy="5.5" r="2.2"/>
</svg>
