<?xml version="1.0" encoding="utf-8"?>
<!-- Generator: Adobe Illustrator 20.0.0, SVG Export Plug-In . SVG Version: 6.00 Build 0)  -->
<svg version="1.1" id="Layer_1" xmlns="http://www.w3.org/2000/svg" xmlns:xlink="http://www.w3.org/1999/xlink" x="0px" y="0px"
	 width="22px" height="22px" viewBox="0 0 22 22" style="enable-background:new 0 0 22 22;" xml:space="preserve">
<g>
	<g>
		<path fill="#FFFFFF" d="M17.3,7.3c1-1.2,3.4-1.8,4.7-0.7C18.7,2,14.6-1,8.8,1C13.3,2.4,16.5,6.6,17.3,7.3"/>
		<path fill="#FFFFFF" d="M0,12.8c1.4-1.6,3.8-2.8,6-2.6C6,8,6.2,4.1,7.6,1.3C2.9,1.9,0.8,9.1,0,12.8z"/>
		<path fill="#FFFFFF" d="M16.3,21.3L11.1,7c1.5-0.5,3.2-0.5,4.8,0.2C13.4,4.7,11.7,3.2,8.6,2c-1.1,0.4-1.4,6.9-1.3,8.3C7.9,9,9,8,10.2,7.4
			l5.2,14.2L16.3,21.3z"/>
	</g>
</g>
</svg>
