<?xml version="1.0" encoding="utf-8"?>
<!-- Generator: Adobe Illustrator 18.1.1, SVG Export Plug-In . SVG Version: 6.00 Build 0)  -->
<svg version="1.1" id="Layer_1" xmlns="http://www.w3.org/2000/svg" xmlns:xlink="http://www.w3.org/1999/xlink" x="0px" y="0px"
	 viewBox="0 0 32 32" enable-background="new 0 0 32 32" xml:space="preserve">
<g opacity="0.5">
	<path d="M2,19.009c2.002-2.36,5.652-4.015,8.781-3.493c0.351-4.297-0.139-8.319,2.006-12.278C6.137,3.676,3.05,13.83,2,19.009"/>
	<path d="M25.569,11.47c1.397-1.662,4.7-2.51,6.431-0.953C27.481,4.204,21.891,0.151,13.948,2.848
		C20.16,4.739,24.512,10.534,25.569,11.47"/>
	<path d="M24.318,11.727c-2.173-3.031-9.004-7.874-10.509-7.571c-1.606,0.32-2.048,9.414-1.901,11.367
		c0.952-1.787,2.409-3.135,4.095-3.973l6.931,18.862l0.945-0.237l-6.994-19.008C19.201,10.308,21.856,10.385,24.318,11.727z"/>
</g>
<g opacity="0.75">
	<path d="M1,18.009c2.002-2.36,5.652-4.015,8.781-3.493c0.351-4.297-0.139-8.319,2.006-12.278C5.137,2.676,2.05,12.83,1,18.009"/>
	<path d="M24.569,10.47c1.397-1.662,4.7-2.51,6.431-0.953C26.481,3.204,20.891-0.849,12.948,1.848
		C19.16,3.739,23.512,9.534,24.569,10.47"/>
	<path d="M23.318,10.727c-2.173-3.031-9.004-7.874-10.509-7.571c-1.606,0.32-2.048,9.414-1.901,11.367
		c0.952-1.787,2.409-3.135,4.095-3.973l6.931,18.862l0.945-0.237l-6.994-19.008C18.2,9.308,20.856,9.385,23.318,10.727z"/>
</g>
<g>
	<path fill="#E6E6E6" d="M0,17.009c2.002-2.36,5.652-4.015,8.781-3.493c0.351-4.297-0.139-8.319,2.006-12.278
		C4.137,1.676,1.05,11.83,0,17.009"/>
	<path fill="#E6E6E6" d="M23.569,9.47c1.397-1.662,4.7-2.51,6.431-0.953C25.481,2.204,19.891-1.849,11.948,0.848
		C18.16,2.739,22.512,8.534,23.569,9.47"/>
	<path fill="#E6E6E6" d="M22.318,9.727c-2.173-3.031-9.004-7.874-10.509-7.571c-1.606,0.32-2.048,9.414-1.901,11.367
		c0.952-1.787,2.409-3.135,4.095-3.973l6.931,18.862l0.945-0.237L14.885,9.167C17.201,8.308,19.856,8.385,22.318,9.727z"/>
</g>
</svg>
