<?xml version="1.0" encoding="utf-8"?>
<!-- Generator: Adobe Illustrator 18.1.1, SVG Export Plug-In . SVG Version: 6.00 Build 0)  -->
<svg version="1.1" id="Layer_1" xmlns="http://www.w3.org/2000/svg" xmlns:xlink="http://www.w3.org/1999/xlink" x="0px" y="0px"
	 viewBox="0 0 16 16" enable-background="new 0 0 16 16" xml:space="preserve">
<g opacity="0.1">
	<path d="M7.144,1.428C6.615,2.584,6.46,5.821,6.398,7.407c0.519-0.675,1.305-1.433,1.907-1.813l3.21,8.728l0.938-0.346L9.228,5.208
		c0.822-0.182,1.94,0.031,2.893,0.392C10.625,4.029,8.198,1.811,7.144,1.428z"/>
	<path d="M5.636,7.628C5.734,5.03,5.917,2.321,6.473,1.092C3.726,1.806,2.462,6.657,2,8.938c0.809-1.579,2.19-1.65,3.642-1.082
		C5.635,7.832,5.626,7.811,5.627,7.778L5.636,7.628z"/>
	<polygon points="6.003,8 6.003,8 6.003,8 	"/>
	<path d="M7.953,1c1.688,0.987,4.336,3.655,5.225,4.639c0.579-1.036,1.697-1.615,2.821-0.664C14.073,2.284,11.144,1.062,7.953,1z"/>
	<path fill="#FFFFFF" d="M5.999,8C6,8,6.001,8,6.002,8c0,0,0,0,0.001,0C6.002,7.99,6.002,7.971,6.001,7.96C6,7.973,6,7.987,5.999,8z
		"/>
</g>
<g opacity="0.2">
	<path d="M6.144,1.428C5.615,2.584,5.46,5.821,5.398,7.407c0.519-0.675,1.305-1.433,1.907-1.813l3.21,8.728l0.938-0.346L8.228,5.208
		c0.822-0.182,1.94,0.031,2.893,0.392C9.625,4.029,7.198,1.811,6.144,1.428z"/>
	<path d="M4.636,7.628C4.734,5.03,4.917,2.321,5.473,1.092C2.726,1.806,1.462,6.657,1,8.938c0.809-1.579,2.19-1.65,3.642-1.082
		C4.635,7.832,4.626,7.811,4.627,7.778L4.636,7.628z"/>
	<polygon points="5.003,8 5.003,8 5.003,8 	"/>
	<path d="M6.953,1c1.688,0.987,4.336,3.655,5.225,4.639c0.579-1.036,1.697-1.615,2.821-0.664C13.073,2.284,10.144,1.062,6.953,1z"/>
	<path fill="#FFFFFF" d="M4.999,8C5,8,5.001,8,5.002,8c0,0,0,0,0.001,0C5.002,7.99,5.002,7.971,5.001,7.96C5,7.973,5,7.987,4.999,8z
		"/>
</g>
<g>
	<path d="M5.146,0.428C4.616,1.584,4.462,4.821,4.4,6.407c0.519-0.675,1.305-1.433,1.907-1.813l3.21,8.728l0.938-0.346L7.229,4.208
		c0.822-0.182,1.94,0.031,2.893,0.392C8.626,3.029,6.199,0.811,5.146,0.428z"/>
	<path d="M3.637,6.628C3.736,4.03,3.918,1.321,4.474,0.092C1.728,0.806,0.463,5.657,0.001,7.938c0.809-1.579,2.19-1.65,3.642-1.082
		C3.637,6.832,3.627,6.811,3.628,6.778L3.637,6.628z"/>
	<polygon points="4.004,7 4.004,7 4.004,7 	"/>
	<path d="M5.954,0c1.688,0.987,4.336,3.655,5.225,4.639C11.758,3.603,12.876,3.023,14,3.975C12.074,1.284,9.145,0.062,5.954,0z"/>
	<path fill="#FFFFFF" d="M4.001,7c0.001,0,0.002,0,0.003,0c0,0,0,0,0.001,0C4.003,6.99,4.003,6.971,4.003,6.96
		C4.002,6.973,4.002,6.987,4.001,7z"/>
</g>
</svg>
