<?xml version="1.0" encoding="utf-8"?>
<!-- Generator: Adobe Illustrator 20.0.0, SVG Export Plug-In . SVG Version: 6.00 Build 0)  -->
<svg version="1.1" id="Layer_1" xmlns="http://www.w3.org/2000/svg" xmlns:xlink="http://www.w3.org/1999/xlink" x="0px" y="0px"
	 width="30px" height="30px" viewBox="0 0 30 30" style="enable-background:new 0 0 30 30;" xml:space="preserve">
<g>
	<g>
		<path fill="#231F20" d="M0,17.8c2-2.4,5.7-4,8.8-3.5C9.1,10,8.6,6,10.8,2C4.1,2.5,1,12.6,0,17.8"/>
		<path fill="#231F20" d="M23.6,10.3c1.4-1.7,4.7-2.5,6.4-1C25.5,3,19.9-1.1,11.9,1.6C18.2,3.5,22.5,9.3,23.6,10.3"/>
		<path fill="#231F20" d="M22.3,10.5c-2.2-3-9-7.9-10.5-7.6c-1.6,0.3-2,9.4-1.9,11.4c1-1.8,2.4-3.1,4.1-4l6.9,18.9l0.9-0.2l-7-19
			C17.2,9.1,19.9,9.2,22.3,10.5z"/>
	</g>
</g>
</svg>
