<?xml version="1.0" encoding="utf-8"?>
<!-- Generator: Adobe Illustrator 21.1.0, SVG Export Plug-In . SVG Version: 6.00 Build 0)  -->
<svg version="1.1" id="Layer_1" xmlns="http://www.w3.org/2000/svg" xmlns:xlink="http://www.w3.org/1999/xlink" x="0px" y="0px"
	 width="14px" height="14px" viewBox="0 0 14 14" enable-background="new 0 0 14 14" xml:space="preserve">
<title>beach-access-14-rev</title>
<g>
	<path fill="#231F20" d="M5.1,0.8c-0.5,2-0.7,4-0.7,6C4.9,6.1,5.6,5.5,6.3,5l3.2,8.7l0.9-0.3L7.2,4.5c1-0.2,2,0,2.9,0.4
		C8.6,3.4,6.2,1.2,5.1,0.8z"/>
	<path fill="#231F20" d="M3.6,7c0.1-2.6,0.3-5.3,0.8-6.5C1.7,1.1,0.5,6,0,8.3c0.8-1.6,2.2-1.7,3.6-1.1l0,0V7z"/>
	<path fill="#231F20" d="M4,7.3"/>
	<path fill="#231F20" d="M6,0.3c1.9,1.4,3.6,2.9,5.2,4.6c0.6-1,1.7-1.6,2.8-0.7C12.1,1.7,9.1,0.3,6,0.3z"/>
	<path fill="#231F20" d="M4,7.3"/>
</g>
</svg>
