<?xml version="1.0" encoding="utf-8"?>
<!-- Generator: Adobe Illustrator 22.0.1, SVG Export Plug-In . SVG Version: 6.00 Build 0)  -->
<svg version="1.1" id="Layer_1" xmlns="http://www.w3.org/2000/svg" xmlns:xlink="http://www.w3.org/1999/xlink" x="0px" y="0px"
	 width="30px" height="30px" viewBox="0 0 30 30" enable-background="new 0 0 30 30" xml:space="preserve">
<polygon fill="#FFFFFF" points="30,4 30,1 16,1 16,29 30,29 30,26 19,26 19,4 "/>
<path fill="#FFFFFF" d="M28.5,9.2c0,0-0.2,3.9-3.7,3.6C24.8,12.8,24.4,9.5,28.5,9.2z"/>
<path fill="#FFFFFF" d="M25.7,14.3c0.5-0.4,1.1-0.7,1.8-0.7c1.4,0,2.5,1.1,2.5,2.5c0,0.1,0,0.1,0,0.1h0c0,0.5-0.2,1.2-0.6,2.1c0,0-0.7,1.3-1.3,2
	l-0.1,0c-0.3,0.3-0.7,0.4-1.1,0.4c-0.5,0-1-0.2-1.2-0.6h0c-0.3,0.4-0.7,0.6-1.2,0.6c-0.4,0-0.8-0.2-1.1-0.4l-0.1,0
	c-0.6-0.6-1.3-2-1.3-2c-0.4-0.8-0.6-1.5-0.6-2.1h0c0-0.1,0-0.1,0-0.1c0-1.4,1.1-2.5,2.5-2.5C24.7,13.6,25.3,13.9,25.7,14.3"/>
<path fill="#FFFFFF" d="M13.3,13.6L10,11.8c0-0.1,0-0.1,0-0.2C10,10.3,9.1,9.3,8,9l-1-0.1C7,8.7,7,8.5,7,8.4c0-1.1-0.9-2-2-2c-1.1,0-2,0.9-2,2
	c0,0.1,0,0.1,0,0.2L0,9v14.6l3.8-4.4l7.6-0.9c0.8-0.1,1.5-0.6,1.9-1.2l0.8-1.9c0.1-0.2,0.1-0.3,0.1-0.5
	C14.1,14.2,13.8,13.7,13.3,13.6z"/>
</svg>
