<?xml version="1.0" encoding="utf-8"?>
<!-- Generator: Adobe Illustrator 22.0.1, SVG Export Plug-In . SVG Version: 6.00 Build 0)  -->
<svg version="1.1" id="Layer_1" xmlns="http://www.w3.org/2000/svg" xmlns:xlink="http://www.w3.org/1999/xlink" x="0px" y="0px"
	 width="14px" height="14px" viewBox="0 0 14 14" enable-background="new 0 0 14 14" xml:space="preserve">
<path fill="#FFFFFF" d="M4,4V3c0-0.4-1.6-0.3-2-0.3c0,0,1,1.3-0.5,2.2C1.8,4.7,0,5.1,0,5.5v0.7V14h4V6.2V5.5c0-0.4-0.1-1-0.5-1C3.9,4.5,4,4.4,4,4z"
	/>
<rect fill="#FFFFFF" x="5" y="3" width="2" height="1"/>
<rect fill="#FFFFFF" x="7" y="2" width="1" height="1"/>
<rect fill="#FFFFFF" x="7" y="4" width="1" height="1"/>
<rect fill="#FFFFFF" x="8" y="3" width="1" height="1"/>
<rect fill="#FFFFFF" x="9" y="2" width="1" height="1"/>
<rect fill="#FFFFFF" x="9" y="4" width="1" height="1"/>
<rect fill="#FFFFFF" x="8" y="1" width="1" height="1"/>
<rect fill="#FFFFFF" x="10" y="1" width="1" height="1"/>
<rect fill="#FFFFFF" x="11" width="1" height="1"/>
<rect fill="#FFFFFF" x="11" y="6" width="1" height="1"/>
<rect fill="#FFFFFF" x="12" y="3" width="1" height="1"/>
<rect fill="#FFFFFF" x="10" y="3" width="1" height="1"/>
<rect fill="#FFFFFF" x="10" y="5" width="1" height="1"/>
<path fill="#FFFFFF" d="M1.5,2C0.7,2,0,2.7,0,3.5S0.7,5,1.5,5S3,4.3,3,3.5S2.3,2,1.5,2z M2,4H1V3h1V4z"/>
</svg>
