<?xml version="1.0" encoding="utf-8"?>
<!-- Generator: Adobe Illustrator 22.0.1, SVG Export Plug-In . SVG Version: 6.00 Build 0)  -->
<svg version="1.1" id="Layer_1" xmlns="http://www.w3.org/2000/svg" xmlns:xlink="http://www.w3.org/1999/xlink" x="0px" y="0px"
	 width="14px" height="14px" viewBox="0 0 14 14" enable-background="new 0 0 14 14" xml:space="preserve">
<path d="M5,4V3c0-0.4-1.6-0.3-2-0.3c0,0,1,1.3-0.5,2.2C2.8,4.7,1,5.1,1,5.5v0.7V14h4V6.2V5.5c0-0.4-0.1-1-0.5-1C4.9,4.5,5,4.4,5,4z"
	/>
<rect x="6" y="3" width="2" height="1"/>
<rect x="8" y="2" width="1" height="1"/>
<rect x="8" y="4" width="1" height="1"/>
<rect x="9" y="3" width="1" height="1"/>
<rect x="10" y="2" width="1" height="1"/>
<rect x="10" y="4" width="1" height="1"/>
<rect x="9" y="1" width="1" height="1"/>
<rect x="11" y="1" width="1" height="1"/>
<rect x="12" width="1" height="1"/>
<rect x="12" y="6" width="1" height="1"/>
<rect x="13" y="3" width="1" height="1"/>
<rect x="11" y="3" width="1" height="1"/>
<rect x="11" y="5" width="1" height="1"/>
<rect x="9" y="5" width="1" height="9"/>
<path d="M2.5,2C1.7,2,1,2.7,1,3.5S1.7,5,2.5,5S4,4.3,4,3.5S3.3,2,2.5,2z M3,4H2V3h1V4z"/>
<g>
	<path d="M7.5,11.2c0,0.3,0.1,0.6,0.2,0.8c0.1,0.2,0.3,0.4,0.5,0.5c0.2,0.1,0.4,0.2,0.6,0.3c0.2,0.1,0.5,0.1,0.8,0.1
		c0.3,0,0.6,0,0.8-0.1c0.2-0.1,0.4-0.2,0.6-0.3c0.1-0.1,0.3-0.3,0.3-0.5c0.1-0.2,0.1-0.4,0.1-0.6c0-0.3-0.1-0.5-0.2-0.7
		c-0.1-0.2-0.3-0.3-0.5-0.4c-0.2-0.1-0.4-0.2-0.7-0.3C9.8,10,9.5,9.9,9.2,9.9C9,9.8,8.7,9.7,8.4,9.7C8.2,9.6,7.9,9.4,7.7,9.3
		C7.5,9.2,7.4,9,7.2,8.7C7.1,8.5,7.1,8.2,7.1,7.9c0-0.2,0.1-0.5,0.2-0.7c0.1-0.2,0.3-0.4,0.5-0.6c0.2-0.2,0.5-0.3,0.8-0.4
		C8.7,6,9.1,5.9,9.5,5.9c0.4,0,0.8,0.1,1.1,0.2c0.3,0.1,0.6,0.3,0.8,0.5c0.2,0.2,0.4,0.4,0.5,0.7c0.1,0.3,0.1,0.5,0.1,0.8h-0.6
		c0-0.3,0-0.5-0.1-0.7C11,7.2,10.9,7,10.7,6.9c-0.2-0.1-0.4-0.2-0.6-0.3C9.9,6.5,9.7,6.5,9.5,6.5c-0.3,0-0.6,0-0.9,0.1
		C8.4,6.8,8.2,6.9,8,7C7.9,7.2,7.8,7.4,7.8,7.5c-0.1,0.2-0.1,0.4,0,0.6c0,0.2,0.1,0.4,0.3,0.6C8.2,8.8,8.3,8.9,8.5,9
		C8.8,9.1,9,9.2,9.3,9.2C9.5,9.3,9.8,9.3,10,9.4s0.5,0.1,0.8,0.2c0.2,0.1,0.5,0.2,0.7,0.3s0.3,0.3,0.5,0.6c0.1,0.2,0.2,0.5,0.2,0.9
		c0,0.7-0.2,1.2-0.7,1.5c-0.5,0.4-1.1,0.6-1.9,0.6c-0.4,0-0.7,0-1-0.1s-0.6-0.2-0.8-0.4c-0.2-0.2-0.4-0.4-0.5-0.7s-0.2-0.6-0.2-1
		H7.5z"/>
</g>
</svg>
