<?xml version="1.0" encoding="utf-8"?>
<!-- Generator: Adobe Illustrator 22.1.0, SVG Export Plug-In . SVG Version: 6.00 Build 0)  -->
<svg version="1.1" id="Layer_1" xmlns="http://www.w3.org/2000/svg" xmlns:xlink="http://www.w3.org/1999/xlink" x="0px" y="0px"
	 width="14px" height="14px" viewBox="0 0 14 14" enable-background="new 0 0 14 14" xml:space="preserve">
<path d="M1.5,7.4C1.3,7.1,1.2,6.7,1.1,6.3c0,0-0.1,0-0.1,0c-0.3,0-0.6-0.3-0.6-0.6c0-0.2,0.1-0.4,0.3-0.5l1.7-1.2
	c0.4-0.2,0.8-0.4,1.2-0.4l4.2,0l3.1-0.5c0,0,0,0,0,0c0-0.3,0.2-0.6,0.6-0.6S12,2.8,12,3.2c0,0,0,0.1,0,0.1l0.3,0
	c0.3,0.1,0.6,0.4,0.6,0.7c0,0,0,0,0,0.1l0.9,0.5C13.9,4.7,14,4.8,14,4.9C14,5,14,5,14,5.1l-0.2,0.5c-0.1,0.2-0.3,0.3-0.5,0.3
	l-2.1,0.3L9.2,8.4l1.5,2.4l0.7,0.3c0.1,0.1,0.2,0.2,0.2,0.4c0,0.2-0.2,0.4-0.4,0.4l-1.4,0c-0.4,0-0.7-0.2-0.8-0.5L7.4,8.8l-2.6,0
	l0.9,2l0.7,0.3c0.1,0.1,0.2,0.2,0.2,0.4c0,0.2-0.2,0.4-0.4,0.4l-1.4,0c-0.3,0-0.6-0.2-0.8-0.4L2.7,8.9l-1.2,1.4l-0.1,0.6l0.3,0.2
	c0.1,0,0.1,0.1,0.1,0.1C2,11.4,2,11.6,1.8,11.8c-0.1,0.1-0.2,0.1-0.3,0.1l-0.3,0c-0.2,0-0.3-0.1-0.4-0.2l-0.7-1.2
	C0,10.3,0,10.2,0,10c0-0.2,0.1-0.5,0.2-0.6L1.5,7.4z"/>
<path d="M1.5,7.4C1.3,7.1,1.2,6.7,1.1,6.3c0,0-0.1,0-0.1,0c-0.3,0-0.6-0.3-0.6-0.6c0-0.2,0.1-0.4,0.3-0.5l1.7-1.2
	c0.4-0.2,0.8-0.4,1.2-0.4l4.2,0l3.1-0.5c0,0,0,0,0,0c0-0.3,0.2-0.6,0.6-0.6S12,2.8,12,3.2c0,0,0,0.1,0,0.1l0.3,0
	c0.3,0.1,0.6,0.4,0.6,0.7c0,0,0,0,0,0.1l0.9,0.5C13.9,4.7,14,4.8,14,4.9C14,5,14,5,14,5.1l-0.2,0.5c-0.1,0.2-0.3,0.3-0.5,0.3
	l-2.1,0.3L9.2,8.4l1.5,2.4l0.7,0.3c0.1,0.1,0.2,0.2,0.2,0.4c0,0.2-0.2,0.4-0.4,0.4l-1.4,0c-0.4,0-0.7-0.2-0.8-0.5L7.4,8.8l-2.6,0
	l0.9,2l0.7,0.3c0.1,0.1,0.2,0.2,0.2,0.4c0,0.2-0.2,0.4-0.4,0.4l-1.4,0c-0.3,0-0.6-0.2-0.8-0.4L2.7,8.9l-1.2,1.4l-0.1,0.6l0.3,0.2
	c0.1,0,0.1,0.1,0.1,0.1C2,11.4,2,11.6,1.8,11.8c-0.1,0.1-0.2,0.1-0.3,0.1l-0.3,0c-0.2,0-0.3-0.1-0.4-0.2l-0.7-1.2
	C0,10.3,0,10.2,0,10c0-0.2,0.1-0.5,0.2-0.6L1.5,7.4z"/>
</svg>
