<?xml version="1.0" encoding="utf-8"?>
<!-- Generator: Adobe Illustrator 22.0.1, SVG Export Plug-In . SVG Version: 6.00 Build 0)  -->
<svg version="1.1" id="Layer_1" xmlns="http://www.w3.org/2000/svg" xmlns:xlink="http://www.w3.org/1999/xlink" x="0px" y="0px"
	 width="14px" height="14px" viewBox="0 0 14 14" enable-background="new 0 0 14 14" xml:space="preserve">
<polygon fill="#FFFFFF" points="14,2 14,1 8,1 8,13 14,13 14,12 9,12 9,2 "/>
<path fill="#FFFFFF" d="M13.3,4.3c0,0-0.1,1.8-1.7,1.7C11.6,6,11.4,4.4,13.3,4.3z"/>
<path fill="#FFFFFF" d="M12.8,6.6c0.6,0,1.2,0.3,1.2,1c0,0,0,0,0,0.1h0c0,0.3-0.1,0.6-0.3,1c0,0-0.3,0.6-0.6,0.9l0,0c-0.1,0.1-0.3,0.2-0.5,0.2
	c-0.2,0-0.5-0.1-0.6-0.3h0c-0.1,0.2-0.3,0.3-0.6,0.3c-0.2,0-0.4-0.1-0.5-0.2l0,0c-0.3-0.3-0.6-0.9-0.6-0.9c-0.2-0.4-0.3-0.7-0.3-1h0
	c0,0,0,0,0-0.1c0-0.6,0.5-1,1.2-1c0.3,0,0.6,0.2,0.8,0.4C12,7,12.5,6.6,12.8,6.6z"/>
<path fill="#FFFFFF" d="M6.2,6.3L4.7,5.5c0,0,0-0.1,0-0.1c0-0.6-0.4-1.1-1-1.2L3.2,4.1c0-0.1,0-0.2,0-0.2C3.3,3.4,2.8,3,2.3,3
	C1.8,3,1.4,3.4,1.4,3.9c0,0,0,0.1,0,0.1L0,4.2V11L1.8,9l3.5-0.4C5.7,8.5,6,8.3,6.2,8l0.4-0.9c0-0.1,0-0.2,0-0.2
	C6.6,6.6,6.4,6.4,6.2,6.3z"/>
</svg>
