<?xml version="1.0" encoding="utf-8"?>
<!-- Generator: Adobe Illustrator 22.1.0, SVG Export Plug-In . SVG Version: 6.00 Build 0)  -->
<svg version="1.1" id="Layer_1" xmlns="http://www.w3.org/2000/svg" xmlns:xlink="http://www.w3.org/1999/xlink" x="0px" y="0px"
	 width="30px" height="30px" viewBox="0 0 30 30" enable-background="new 0 0 30 30" xml:space="preserve">
<path d="M3.3,15.9c-0.5-0.7-0.8-1.5-0.9-2.4c-0.1,0-0.2,0-0.3,0c-0.7,0-1.3-0.6-1.3-1.3c0-0.4,0.2-0.8,0.6-1.1l3.6-2.5
	c0.8-0.5,1.7-0.8,2.6-0.8l9,0l6.6-1.1c0,0,0-0.1,0-0.1c0-0.7,0.5-1.2,1.2-1.2c0.7,0,1.2,0.5,1.2,1.2c0,0.1,0,0.2,0,0.3l0.6,0.1
	c0.7,0.1,1.2,0.8,1.2,1.5c0,0,0,0.1,0,0.1l2,1.1c0.3,0.1,0.5,0.4,0.5,0.7c0,0.1,0,0.2-0.1,0.3L29.4,12c-0.2,0.4-0.7,0.7-1.1,0.7
	l-4.5,0.5L19.7,18l2.3,4l1.5,0.7c0.2,0.2,0.4,0.4,0.4,0.8c0,0.5-0.4,0.9-0.9,0.9l-2.9,0c-0.8,0-1.4-0.4-1.7-1l-2.5-4.5l-5.7,0l2,3.1
	l1.5,0.7c0.3,0.2,0.5,0.5,0.5,0.8c0,0.5-0.4,0.9-0.9,0.9l-2.9,0c-0.7,0-1.4-0.4-1.7-1L5.8,19l-1.9,1.9l-0.2,1.2l0.6,0.4
	c0.1,0.1,0.2,0.1,0.3,0.2c0.3,0.4,0.3,1-0.1,1.3c-0.2,0.1-0.4,0.2-0.6,0.2l-1.3,0c-0.4,0-0.7-0.2-0.9-0.5l-1.5-2.6
	C0.1,20.9,0,20.6,0,20.2c0-0.5,0.2-1,0.5-1.3L3.3,15.9z"/>
</svg>
