<?xml version="1.0" encoding="utf-8"?>
<!-- Generator: Adobe Illustrator 22.0.1, SVG Export Plug-In . SVG Version: 6.00 Build 0)  -->
<svg version="1.1" id="Layer_1" xmlns="http://www.w3.org/2000/svg" xmlns:xlink="http://www.w3.org/1999/xlink" x="0px" y="0px"
	 width="30px" height="30px" viewBox="0 0 30 30" enable-background="new 0 0 30 30" xml:space="preserve">
<g>
	<path fill="#FFFFFF" d="M18.1,23.9c0.1,0.6,0.2,1,0.5,1.3c0.4,0.5,1.2,0.8,2.3,0.8c0.7,0,1.2-0.1,1.6-0.2c0.8-0.3,1.2-0.8,1.2-1.5
		c0-0.4-0.2-0.8-0.6-1c-0.4-0.2-1-0.4-1.8-0.6l-1.4-0.3c-1.4-0.3-2.3-0.6-2.8-1c-0.9-0.6-1.3-1.5-1.3-2.8c0-1.2,0.4-2.1,1.3-2.9
		s2.1-1.2,3.8-1.2c1.4,0,2.6,0.4,3.5,1.1c1,0.7,1.5,1.8,1.5,3.2h-2.6c0-0.8-0.4-1.3-1-1.7c-0.4-0.2-1-0.3-1.6-0.3
		c-0.7,0-1.3,0.1-1.7,0.4s-0.6,0.7-0.6,1.2c0,0.5,0.2,0.8,0.6,1c0.3,0.2,0.8,0.3,1.7,0.5l2.3,0.5c1,0.2,1.7,0.5,2.2,0.9
		c0.8,0.6,1.2,1.5,1.2,2.6c0,1.2-0.5,2.2-1.4,2.9c-0.9,0.8-2.2,1.2-3.9,1.2c-1.7,0-3-0.4-4-1.2c-1-0.8-1.5-1.8-1.5-3.2H18.1z"/>
</g>
<path fill="#FFFFFF" d="M12,7.8V6.2C12,5.3,10.9,4,10,4H7v0.1C6.4,3.4,5.5,3,4.5,3C2.6,3,1,4.6,1,6.5c0,1.7,1.2,3.1,2.7,3.4c-0.4,0.3-0.7,0.7-0.7,1
	v1.6V30h9V12.5v-1.6c0-0.9-1.2-1.6-2.1-1.6C10.8,9.4,12,8.6,12,7.8z M3,6.5C3,5.7,3.7,5,4.5,5S6,5.7,6,6.5S5.3,8,4.5,8S3,7.3,3,6.5z
	"/>
<rect fill="#FFFFFF" x="13" y="6" width="2" height="1"/>
<rect fill="#FFFFFF" x="15" y="5" width="2" height="1"/>
<rect fill="#FFFFFF" x="15" y="7" width="2" height="1"/>
<rect fill="#FFFFFF" x="23" y="2" width="1" height="1"/>
<rect fill="#FFFFFF" x="23" y="10" width="1" height="1"/>
<rect fill="#FFFFFF" x="21" y="11" width="1" height="1"/>
<rect fill="#FFFFFF" x="25" y="3" width="1" height="1"/>
<rect fill="#FFFFFF" x="25" y="9" width="1" height="1"/>
<rect fill="#FFFFFF" x="29" y="6" width="1" height="1"/>
<rect fill="#FFFFFF" x="21" y="6" width="2" height="1"/>
<rect fill="#FFFFFF" x="21" y="1" width="1" height="1"/>
<rect fill="#FFFFFF" x="24" y="6" width="2" height="1"/>
<rect fill="#FFFFFF" x="27" y="6" width="1" height="1"/>
<rect fill="#FFFFFF" x="19" y="7" width="2" height="1"/>
<rect fill="#FFFFFF" x="19" y="5" width="2" height="1"/>
<rect fill="#FFFFFF" x="21" y="9" width="1" height="1"/>
<rect fill="#FFFFFF" x="21" y="3" width="1" height="1"/>
<rect fill="#FFFFFF" x="23" y="4" width="1" height="1"/>
<rect fill="#FFFFFF" x="23" y="8" width="1" height="1"/>
<rect fill="#FFFFFF" x="24" y="0" width="1" height="1"/>
<rect fill="#FFFFFF" x="24" y="12" width="1" height="1"/>
<rect fill="#FFFFFF" x="17" y="6" width="2" height="1"/>
<rect fill="#FFFFFF" x="17" y="4" width="2" height="1"/>
<rect fill="#FFFFFF" x="17" y="8" width="2" height="1"/>
<rect fill="#FFFFFF" x="19" y="3" width="1" height="1"/>
<rect fill="#FFFFFF" x="19" y="9" width="1" height="1"/>
<rect fill="#FFFFFF" x="26" y="1" width="1" height="1"/>
<rect fill="#FFFFFF" x="26" y="11" width="1" height="1"/>
<rect fill="#FFFFFF" x="28" y="3" width="1" height="1"/>
<rect fill="#FFFFFF" x="28" y="9" width="1" height="1"/>
<rect fill="#FFFFFF" x="26" y="7" width="1" height="1"/>
<rect fill="#FFFFFF" x="26" y="5" width="1" height="1"/>
<rect fill="#FFFFFF" x="20" y="13" width="2" height="17"/>
</svg>
