<?xml version="1.0" encoding="utf-8"?>
<!-- Generator: Adobe Illustrator 22.0.1, SVG Export Plug-In . SVG Version: 6.00 Build 0)  -->
<svg version="1.1" id="Layer_1" xmlns="http://www.w3.org/2000/svg" xmlns:xlink="http://www.w3.org/1999/xlink" x="0px" y="0px"
	 width="22px" height="22px" viewBox="0 0 22 22" enable-background="new 0 0 22 22" xml:space="preserve">
<rect fill="#FFFFFF" x="9" y="4" width="2" height="1"/>
<rect fill="#FFFFFF" x="11" y="3" width="2" height="1"/>
<rect fill="#FFFFFF" x="11" y="5" width="2" height="1"/>
<rect fill="#FFFFFF" x="13" y="6" width="1" height="1"/>
<rect fill="#FFFFFF" x="15" y="7" width="1" height="1"/>
<rect fill="#FFFFFF" x="17" y="8" width="1" height="1"/>
<rect fill="#FFFFFF" x="17" y="0" width="1" height="1"/>
<rect fill="#FFFFFF" x="15" y="1" width="1" height="1"/>
<rect fill="#FFFFFF" x="13" y="2" width="1" height="1"/>
<rect fill="#FFFFFF" x="18" y="2" width="1" height="1"/>
<rect fill="#FFFFFF" x="19" y="4" width="1" height="1"/>
<rect fill="#FFFFFF" x="18" y="6" width="1" height="1"/>
<rect fill="#FFFFFF" x="17" y="4" width="1" height="1"/>
<rect fill="#FFFFFF" x="16" y="3" width="1" height="1"/>
<rect fill="#FFFFFF" x="14" y="3" width="1" height="1"/>
<rect fill="#FFFFFF" x="15" y="4" width="1" height="1"/>
<rect fill="#FFFFFF" x="16" y="5" width="1" height="1"/>
<rect fill="#FFFFFF" x="13" y="4" width="1" height="1"/>
<rect fill="#FFFFFF" x="14" y="5" width="1" height="1"/>
<path fill="#FFFFFF" d="M8,5.5V4.4c0-0.6-0.5-1.2-1.2-1.2H5.3C4.9,2.5,4.2,2,3.3,2C2,2,0.9,3.1,0.9,4.4S2,6.7,3.3,6.7C2.6,6.7,2,7.4,2,8v1v13h6V9.1
	V8c0-0.6-0.5-1.3-1.2-1.3C7.5,6.7,8,6.2,8,5.5z M2.1,4.4c0-0.6,0.5-1.2,1.2-1.2c0.2,0,0.4,0.1,0.6,0.2c0.3,0.2,0.6,0.6,0.6,1
	c0,0.6-0.5,1.2-1.2,1.2S2.1,5,2.1,4.4z"/>
<polygon fill="#FFFFFF" points="11.9,16.5 12.6,15.2 13.4,15.6 12.1,13.8 9.9,13.6 10.9,14.2 9.6,16.5 11,19 14,19 14,17 12.2,17 "/>
<polygon fill="#FFFFFF" points="16.2,13.1 15.5,13.5 17.7,13.4 18.9,11.5 17.9,12.1 16.5,9.6 13.5,9.6 12,12.3 13.6,13.4 14.7,11.6 15.3,11.6 "/>
<polygon fill="#FFFFFF" points="17.3,15 18.2,16.6 17.9,17 16,17 16,16 15,18 16,20 16,19 19.1,19 20.5,16.6 19,13.9 "/>
</svg>
