<?xml version="1.0" encoding="utf-8"?>
<!-- Generator: Adobe Illustrator 22.0.1, SVG Export Plug-In . SVG Version: 6.00 Build 0)  -->
<svg version="1.1" id="Layer_1" xmlns="http://www.w3.org/2000/svg" xmlns:xlink="http://www.w3.org/1999/xlink" x="0px" y="0px"
	 width="30px" height="30px" viewBox="0 0 30 30" enable-background="new 0 0 30 30" xml:space="preserve">
<path d="M11,7.8V6.2C11,5.3,9.9,4,9,4H6v0.1C5.4,3.4,4.5,3,3.5,3C1.6,3,0,4.6,0,6.5c0,1.7,1.2,3.1,2.7,3.4c-0.4,0.3-0.7,0.7-0.7,1
	v1.6V30h9V12.5v-1.6c0-0.9-1.2-1.6-2.1-1.6C9.8,9.4,11,8.6,11,7.8z M2,6.5C2,5.7,2.7,5,3.5,5S5,5.7,5,6.5S4.3,8,3.5,8S2,7.3,2,6.5z"
	/>
<rect x="12" y="6" width="2" height="1"/>
<rect x="14" y="5" width="2" height="1"/>
<rect x="14" y="7" width="2" height="1"/>
<rect x="22" y="2" width="1" height="1"/>
<rect x="22" y="10" width="1" height="1"/>
<rect x="20" y="11" width="1" height="1"/>
<rect x="24" y="3" width="1" height="1"/>
<rect x="24" y="9" width="1" height="1"/>
<rect x="28" y="6" width="1" height="1"/>
<rect x="20" y="6" width="2" height="1"/>
<rect x="20" y="1" width="1" height="1"/>
<rect x="23" y="6" width="2" height="1"/>
<rect x="26" y="6" width="1" height="1"/>
<rect x="18" y="7" width="2" height="1"/>
<rect x="18" y="5" width="2" height="1"/>
<rect x="20" y="9" width="1" height="1"/>
<rect x="20" y="3" width="1" height="1"/>
<rect x="22" y="4" width="1" height="1"/>
<rect x="22" y="8" width="1" height="1"/>
<rect x="23" y="0" width="1" height="1"/>
<rect x="23" y="12" width="1" height="1"/>
<rect x="16" y="6" width="2" height="1"/>
<rect x="16" y="4" width="2" height="1"/>
<rect x="16" y="8" width="2" height="1"/>
<rect x="18" y="3" width="1" height="1"/>
<rect x="18" y="9" width="1" height="1"/>
<rect x="25" y="1" width="1" height="1"/>
<rect x="25" y="11" width="1" height="1"/>
<rect x="27" y="3" width="1" height="1"/>
<rect x="27" y="9" width="1" height="1"/>
<rect x="25" y="7" width="1" height="1"/>
<rect x="25" y="5" width="1" height="1"/>
</svg>
