<?xml version="1.0" encoding="utf-8"?>
<!-- Generator: Adobe Illustrator 22.0.1, SVG Export Plug-In . SVG Version: 6.00 Build 0)  -->
<svg version="1.1" id="Layer_1" xmlns="http://www.w3.org/2000/svg" xmlns:xlink="http://www.w3.org/1999/xlink" x="0px" y="0px"
	 width="22px" height="22px" viewBox="0 0 22 22" enable-background="new 0 0 22 22" xml:space="preserve">
<rect fill="#FFFFFF" x="8" y="4" width="2" height="1"/>
<rect fill="#FFFFFF" x="10" y="3" width="2" height="1"/>
<rect fill="#FFFFFF" x="10" y="5" width="2" height="1"/>
<rect fill="#FFFFFF" x="12" y="6" width="1" height="1"/>
<rect fill="#FFFFFF" x="14" y="7" width="1" height="1"/>
<rect fill="#FFFFFF" x="16" y="8" width="1" height="1"/>
<rect fill="#FFFFFF" x="16" y="0" width="1" height="1"/>
<rect fill="#FFFFFF" x="14" y="1" width="1" height="1"/>
<rect fill="#FFFFFF" x="12" y="2" width="1" height="1"/>
<rect fill="#FFFFFF" x="17" y="2" width="1" height="1"/>
<rect fill="#FFFFFF" x="18" y="4" width="1" height="1"/>
<rect fill="#FFFFFF" x="17" y="6" width="1" height="1"/>
<rect fill="#FFFFFF" x="16" y="4" width="1" height="1"/>
<rect fill="#FFFFFF" x="15" y="3" width="1" height="1"/>
<rect fill="#FFFFFF" x="13" y="3" width="1" height="1"/>
<rect fill="#FFFFFF" x="14" y="4" width="1" height="1"/>
<rect fill="#FFFFFF" x="15" y="5" width="1" height="1"/>
<rect fill="#FFFFFF" x="12" y="4" width="1" height="1"/>
<rect fill="#FFFFFF" x="13" y="5" width="1" height="1"/>
<path fill="#FFFFFF" d="M7,5.5V4.4c0-0.6-0.5-1.2-1.2-1.2H4.3C3.9,2.5,3.2,2,2.3,2C1,2-0.1,3.1-0.1,4.4S1,6.7,2.3,6.7C1.6,6.7,1,7.4,1,8v1v13h6V9.1
	V8c0-0.6-0.5-1.3-1.2-1.3C6.5,6.7,7,6.2,7,5.5z M1.1,4.4c0-0.6,0.5-1.2,1.2-1.2c0.2,0,0.4,0.1,0.6,0.2c0.3,0.2,0.6,0.6,0.6,1
	c0,0.6-0.5,1.2-1.2,1.2S1.1,5,1.1,4.4z"/>
</svg>
