<?xml version="1.0" encoding="utf-8"?>
<!-- Generator: Adobe Illustrator 25.4.1, SVG Export Plug-In . SVG Version: 6.00 Build 0)  -->
<svg version="1.1" id="Layer_1" xmlns="http://www.w3.org/2000/svg" xmlns:xlink="http://www.w3.org/1999/xlink" x="0px" y="0px"
	 width="14px" height="14px" viewBox="0 0 14 14" enable-background="new 0 0 14 14" xml:space="preserve">
<path fill="#231F20" d="M5,4V3c0-0.3-0.7-0.3-1.3-0.3C3.5,2.3,3,2,2.5,2C1.7,2,1,2.7,1,3.5c0,0.6,0.5,1.2,1.1,1.4C1.6,5,1,5.3,1,5.5
	v0.7V14h4V6.2V5.5c0-0.4-0.1-1-0.5-1C4.9,4.5,5,4.4,5,4z M2,3h1v1H2V3z M6.5,3C6.8,3,7,3.2,7,3.5S6.8,4,6.5,4S6,3.8,6,3.5
	S6.2,3,6.5,3z M7.5,3C7.8,3,8,3.2,8,3.5S7.8,4,7.5,4S7,3.8,7,3.5S7.2,3,7.5,3z M8.5,2C8.8,2,9,2.2,9,2.5S8.8,3,8.5,3S8,2.8,8,2.5
	S8.2,2,8.5,2z M9.5,3C9.8,3,10,3.2,10,3.5S9.8,4,9.5,4S9,3.8,9,3.5S9.2,3,9.5,3z M9.5,1C9.8,1,10,1.2,10,1.5S9.8,2,9.5,2
	S9,1.8,9,1.5S9.2,1,9.5,1z M10.5,2C10.8,2,11,2.2,11,2.5S10.8,3,10.5,3S10,2.8,10,2.5S10.2,2,10.5,2z M10.5,4C10.8,4,11,4.2,11,4.5
	S10.8,5,10.5,5S10,4.8,10,4.5S10.2,4,10.5,4z M11.5,1C11.8,1,12,1.2,12,1.5S11.8,2,11.5,2S11,1.8,11,1.5S11.2,1,11.5,1z M12.5,0
	C12.8,0,13,0.2,13,0.5S12.8,1,12.5,1S12,0.8,12,0.5S12.2,0,12.5,0z M12.5,6C12.8,6,13,6.2,13,6.5S12.8,7,12.5,7S12,6.8,12,6.5
	S12.2,6,12.5,6z M11.5,3C11.8,3,12,3.2,12,3.5S11.8,4,11.5,4S11,3.8,11,3.5S11.2,3,11.5,3z M13.5,3C13.8,3,14,3.2,14,3.5
	S13.8,4,13.5,4S13,3.8,13,3.5S13.2,3,13.5,3z M11.5,5C11.8,5,12,5.2,12,5.5S11.8,6,11.5,6S11,5.8,11,5.5S11.2,5,11.5,5z M8.5,4
	C8.8,4,9,4.2,9,4.5S8.8,5,8.5,5S8,4.8,8,4.5S8.2,4,8.5,4z"/>
</svg>
