<?xml version="1.0" encoding="utf-8"?>
<!-- Generator: Adobe Illustrator 22.0.1, SVG Export Plug-In . SVG Version: 6.00 Build 0)  -->
<svg version="1.1" id="Layer_1" xmlns="http://www.w3.org/2000/svg" xmlns:xlink="http://www.w3.org/1999/xlink" x="0px" y="0px"
	 width="14px" height="14px" viewBox="0 0 14 14" enable-background="new 0 0 14 14" xml:space="preserve">
<path d="M5,4V3c0-0.4-1.6-0.3-2-0.3c0,0,1,1.3-0.5,2.2C2.8,4.7,1,5.1,1,5.5v0.7V14h4V6.2V5.5c0-0.4-0.1-1-0.5-1C4.9,4.5,5,4.4,5,4z"
	/>
<rect x="6" y="3" width="2" height="1"/>
<rect x="8" y="2" width="1" height="1"/>
<rect x="8" y="4" width="1" height="1"/>
<rect x="9" y="3" width="1" height="1"/>
<rect x="10" y="2" width="1" height="1"/>
<rect x="10" y="4" width="1" height="1"/>
<rect x="9" y="1" width="1" height="1"/>
<rect x="11" y="1" width="1" height="1"/>
<rect x="12" width="1" height="1"/>
<rect x="12" y="6" width="1" height="1"/>
<rect x="13" y="3" width="1" height="1"/>
<rect x="11" y="3" width="1" height="1"/>
<rect x="11" y="5" width="1" height="1"/>
<path d="M2.5,2C1.7,2,1,2.7,1,3.5S1.7,5,2.5,5S4,4.3,4,3.5S3.3,2,2.5,2z M3,4H2V3h1V4z"/>
<polygon points="11.5,8.5 10,7 10,8 7,8 7,9 10,9 10,10 "/>
<polygon points="8,11 8,10 6.5,11.5 8,13 8,12 11,12 11,11 "/>
</svg>
