<?xml version="1.0" encoding="utf-8"?>
<!-- Generator: Adobe Illustrator 22.0.1, SVG Export Plug-In . SVG Version: 6.00 Build 0)  -->
<svg version="1.1" id="Layer_1" xmlns="http://www.w3.org/2000/svg" xmlns:xlink="http://www.w3.org/1999/xlink" x="0px" y="0px"
	 width="22px" height="22px" viewBox="0 0 22 22" enable-background="new 0 0 22 22" xml:space="preserve">
<path d="M18.9,6.7c0,0-0.1,2.9-2.7,2.7C16.2,9.4,15.9,7,18.9,6.7z"/>
<path d="M16.9,10.5c0.3-0.3,0.8-0.5,1.3-0.5c1,0,1.8,0.8,1.8,1.8c0,0,0,0.1,0,0.1h0c0,0.4-0.2,0.9-0.5,1.5c0,0-0.5,1-0.9,1.4l0,0
	c-0.2,0.2-0.5,0.3-0.8,0.3c-0.4,0-0.7-0.2-0.9-0.5h0c-0.2,0.3-0.5,0.5-0.9,0.5c-0.3,0-0.6-0.1-0.8-0.3l0,0c-0.4-0.5-0.9-1.4-0.9-1.4
	c-0.3-0.6-0.4-1.1-0.5-1.5h0c0,0,0-0.1,0-0.1c0-1,0.8-1.8,1.8-1.8C16.1,10,16.5,10.2,16.9,10.5"/>
<path d="M9.8,9.9L7.4,8.6c0-0.1,0-0.1,0-0.2c0-0.9-0.7-1.7-1.5-1.9L5.1,6.5c0-0.1,0.1-0.3,0.1-0.4c0-0.8-0.7-1.5-1.5-1.5
	c-0.8,0-1.5,0.7-1.5,1.5c0,0,0,0.1,0,0.1L0,6.6v10.7l2.8-3.2l5.5-0.7c0.6-0.1,1.1-0.4,1.4-0.9l0.6-1.4c0.1-0.1,0.1-0.2,0.1-0.4
	C10.4,10.4,10.1,10.1,9.8,9.9z"/>
<polygon points="22,18.5 21,19 21,4 22,3.5 "/>
<polygon points="12,19 11,18.5 11,3.5 12,4 "/>
<path d="M21.7,18c-0.8,0.6-2.8,1-5.2,1s-4.4-0.4-5.2-1c-0.2,0.2-0.3,0.3-0.3,0.5c0,0.8,2.5,1.5,5.5,1.5s5.5-0.7,5.5-1.5
	C22,18.3,21.9,18.2,21.7,18z"/>
<ellipse cx="16.5" cy="3.5" rx="5.5" ry="1.5"/>
</svg>
