<?xml version="1.0" encoding="utf-8"?>
<!-- Generator: Adobe Illustrator 22.1.0, SVG Export Plug-In . SVG Version: 6.00 Build 0)  -->
<svg version="1.1" id="Layer_1" xmlns="http://www.w3.org/2000/svg" xmlns:xlink="http://www.w3.org/1999/xlink" x="0px" y="0px"
	 width="22px" height="22px" viewBox="0 0 22 22" enable-background="new 0 0 22 22" xml:space="preserve">
<path d="M2.4,11.7c-0.3-0.5-0.6-1.1-0.6-1.8c-0.1,0-0.1,0-0.2,0C1,9.9,0.6,9.5,0.6,9c0-0.3,0.2-0.6,0.4-0.8l2.7-1.9
	C4.3,6,4.9,5.8,5.6,5.8l6.6,0L17.1,5c0,0,0-0.1,0-0.1c0-0.5,0.4-0.9,0.9-0.9s0.9,0.4,0.9,0.9c0,0.1,0,0.2,0,0.2l0.4,0.1
	c0.5,0.1,0.9,0.6,0.9,1.1c0,0,0,0.1,0,0.1l1.4,0.8C21.8,7.3,22,7.5,22,7.8c0,0.1,0,0.2,0,0.2l-0.4,0.8c-0.2,0.3-0.5,0.5-0.8,0.5
	l-3.3,0.4l-3,3.5l1.7,2.9l1.1,0.5c0.2,0.1,0.3,0.3,0.3,0.6c0,0.4-0.3,0.7-0.7,0.7l-2.2,0c-0.6,0-1-0.3-1.3-0.8l-1.8-3.3l-4.2,0
	l1.5,2.3l1.1,0.5c0.2,0.1,0.3,0.3,0.3,0.6c0,0.4-0.3,0.7-0.7,0.7l-2.2,0c-0.5,0-1-0.3-1.2-0.7l-2-3.2l-1.4,1.4l-0.1,0.9l0.5,0.3
	c0.1,0,0.2,0.1,0.2,0.2c0.2,0.3,0.2,0.7-0.1,1c-0.1,0.1-0.3,0.2-0.4,0.2l-0.9,0c-0.3,0-0.5-0.2-0.7-0.4l-1.1-1.9
	C0.1,15.3,0,15.1,0,14.8c0-0.4,0.1-0.7,0.4-1L2.4,11.7z"/>
</svg>
