<?xml version="1.0" encoding="utf-8"?>
<!-- Generator: Adobe Illustrator 22.0.1, SVG Export Plug-In . SVG Version: 6.00 Build 0)  -->
<svg version="1.1" id="Layer_1" xmlns="http://www.w3.org/2000/svg" xmlns:xlink="http://www.w3.org/1999/xlink" x="0px" y="0px"
	 width="30px" height="30px" viewBox="0 0 30 30" enable-background="new 0 0 30 30" xml:space="preserve">
<path fill="#FFFFFF" d="M25.5,9.2c0,0-0.2,3.9-3.7,3.6C21.8,12.8,21.4,9.5,25.5,9.2z"/>
<path fill="#FFFFFF" d="M22.7,14.3c0.5-0.4,1.1-0.7,1.8-0.7c1.4,0,2.5,1.1,2.5,2.5c0,0.1,0,0.1,0,0.1h0c0,0.5-0.2,1.2-0.6,2.1c0,0-0.7,1.3-1.3,2
	l-0.1,0c-0.3,0.3-0.7,0.4-1.1,0.4c-0.5,0-1-0.2-1.2-0.6h0c-0.3,0.4-0.7,0.6-1.2,0.6c-0.4,0-0.8-0.2-1.1-0.4l-0.1,0
	c-0.6-0.6-1.3-2-1.3-2c-0.4-0.8-0.6-1.5-0.6-2.1h0c0-0.1,0-0.1,0-0.1c0-1.4,1.1-2.5,2.5-2.5C21.7,13.6,22.3,13.9,22.7,14.3"/>
<path fill="#FFFFFF" d="M13.3,13.6L10,11.8c0-0.1,0-0.1,0-0.2C10,10.3,9.1,9.3,8,9l-1-0.1C7,8.7,7,8.5,7,8.4c0-1.1-0.9-2-2-2c-1.1,0-2,0.9-2,2
	c0,0.1,0,0.1,0,0.2L0,9v14.6l3.8-4.4l7.6-0.9c0.8-0.1,1.5-0.6,1.9-1.2l0.8-1.9c0.1-0.2,0.1-0.3,0.1-0.5
	C14.1,14.2,13.8,13.7,13.3,13.6z"/>
<path fill="#FFFFFF" d="M22.5,2C18.4,2,15,3.1,15,4.5v21c0,1.4,3.4,2.5,7.5,2.5s7.5-1.1,7.5-2.5v-21C30,3.1,26.6,2,22.5,2z M17,25.2v-19
	C18.4,6.7,20.3,7,22.5,7s4.1-0.3,5.5-0.8v19c-1.4,0.5-3.3,0.8-5.5,0.8S18.4,25.7,17,25.2z"/>
</svg>
