<?xml version="1.0" encoding="utf-8"?>
<!-- Generator: Adobe Illustrator 21.1.0, SVG Export Plug-In . SVG Version: 6.00 Build 0)  -->
<svg version="1.1" id="Layer_1" xmlns="http://www.w3.org/2000/svg" xmlns:xlink="http://www.w3.org/1999/xlink" x="0px" y="0px"
	 width="30px" height="30px" viewBox="0 0 30 30" enable-background="new 0 0 30 30" xml:space="preserve">
<path d="M9.946,10.365c-0.558-3.582,4.606-4.666,5.434-1.009l1.41,7.014l5.248,0.012c1.531,0,2.326,1.224,2.326,2.359v9.533
	c0,2.317-3.299,2.303-3.299-0.042c0-2.175,0-7.421,0-7.421h-6.7c-1.563,0-2.545-1.072-2.787-2.298L9.946,10.365z"/>
<ellipse transform="matrix(0.0038 -1 1 0.0038 9.2714 15.4886)" cx="12.409" cy="3.091" rx="3.092" ry="3.092"/>
<path d="M5.671,14.12c-0.363-1.991,2.252-2.466,2.615-0.475l1.159,6.244c0.26,1.298,1.21,2.415,2.568,2.819
	c0.419,0.121,0.851,0.137,1.265,0.167l3.787,0.019c2.01-0.009,2,2.643-0.023,2.633l-3.983-0.019c-0.609,0-1.224-0.084-1.838-0.265
	c-2.354-0.7-3.997-2.645-4.429-4.904L5.671,14.12z"/>
</svg>
