<?xml version="1.0" encoding="utf-8"?>
<!-- Generator: Adobe Illustrator 21.1.0, SVG Export Plug-In . SVG Version: 6.00 Build 0)  -->
<svg version="1.1" id="Layer_1" xmlns="http://www.w3.org/2000/svg" xmlns:xlink="http://www.w3.org/1999/xlink" x="0px" y="0px"
	 width="22px" height="22px" viewBox="0 0 22 22" enable-background="new 0 0 22 22" xml:space="preserve">
<path d="M7.293,7.601c-0.409-2.627,3.378-3.422,3.985-0.74l1.034,5.143l3.849,0.009c1.123,0,1.706,0.897,1.706,1.73v6.991
	c0,1.699-2.419,1.689-2.419-0.031c0-1.595,0-5.442,0-5.442h-4.913c-1.146,0-1.866-0.786-2.044-1.685L7.293,7.601z"/>
<ellipse transform="matrix(0.0038 -1 1 0.0038 6.7991 11.3583)" cx="9.1" cy="2.267" rx="2.267" ry="2.267"/>
<path d="M4.158,10.354c-0.266-1.46,1.651-1.808,1.917-0.348l0.85,4.579c0.191,0.952,0.887,1.771,1.883,2.068
	c0.307,0.089,0.624,0.101,0.928,0.123l2.777,0.014c1.474-0.007,1.467,1.938-0.017,1.931l-2.921-0.014
	c-0.447,0-0.897-0.061-1.348-0.194c-1.726-0.514-2.931-1.94-3.248-3.596L4.158,10.354z"/>
</svg>
