<?xml version="1.0" encoding="utf-8"?>
<!-- Generator: Adobe Illustrator 21.1.0, SVG Export Plug-In . SVG Version: 6.00 Build 0)  -->
<svg version="1.1" id="Layer_1" xmlns="http://www.w3.org/2000/svg" xmlns:xlink="http://www.w3.org/1999/xlink" x="0px" y="0px"
	 width="14px" height="14px" viewBox="0 0 14 14" enable-background="new 0 0 14 14" xml:space="preserve">
<path d="M4.787,4.823c-0.406-1.658,2.004-2.164,2.39-0.457l0.658,3.273l2.449,0.005c0.714,0,1.086,0.571,1.086,1.101v4.449
	c0,1.081-1.539,1.075-1.539-0.02c0-1.015,0-3.463,0-3.463H6.887c-0.729,0-1.37-0.5-1.338-1.087L4.787,4.823z"/>
<ellipse transform="matrix(0.0038 -1 1 0.0038 5.033 7.937)" cx="6.5" cy="1.442" rx="1.443" ry="1.443"/>
<g>
	<g>
		<path d="M7.943,12c-0.066,0.025-1.816-0.013-2.705-0.125c-1.052-0.133-1.646-1.149-1.908-1.743C3.15,9.72,2.759,7.422,2.644,6.728
			c-0.045-0.272,0.139-0.53,0.411-0.575c0.273-0.048,0.53,0.139,0.575,0.411c0.229,1.374,0.522,2.935,0.618,3.169
			c0.14,0.319,0.527,1.193,1.111,1.268c0.818,0.104,2.57,0,2.588,0c0.276,0.002,0.499,0.228,0.497,0.504
			C8.441,11.778,8.217,12,7.943,12z"/>
	</g>
</g>
</svg>
