<?xml version="1.0" encoding="utf-8"?>
<!-- Generator: Adobe Illustrator 18.1.1, SVG Export Plug-In . SVG Version: 6.00 Build 0)  -->
<svg version="1.1" id="Icons" xmlns="http://www.w3.org/2000/svg" xmlns:xlink="http://www.w3.org/1999/xlink" x="0px" y="0px"
	 viewBox="0 0 32 32" enable-background="new 0 0 32 32" xml:space="preserve">
<g opacity="0.1">
	<path d="M8,29c2.8,0,5-2.2,5-5c0-2.8-2.2-5-5-5c-2.8,0-5,2.2-5,5C3,26.8,5.2,29,8,29z M2,24c0-3.3,2.7-6,6-6c3.3,0,6,2.7,6,6
		c0,3.3-2.7,6-6,6C4.7,30,2,27.3,2,24z"/>
	<path d="M26,29c2.8,0,5-2.2,5-5c0-2.8-2.2-5-5-5c-2.8,0-5,2.2-5,5C21,26.8,23.2,29,26,29z M20,24c0-3.3,2.7-6,6-6c3.3,0,6,2.7,6,6
		c0,3.3-2.7,6-6,6C22.7,30,20,27.3,20,24z"/>
	<path d="M19.2,14.5l-1.5-2.3l-3.1,3l2.8,1.5c1.2,0.6,1,1.6,1,1.6v6.4c0,0.7-0.6,1.3-1.3,1.3c-0.7,0-1.3-0.6-1.3-1.3v-5.1L11,16.8
		c-0.6-0.3-1-1-1-1.7c0-0.5,0.2-0.9,0.5-1.3L15,9h2l1,1l2.8,3.3l3.8,0c1.4,0,1.4,1.7,0,1.7h-4L19.2,14.5z"/>
	<polygon points="18,4 21,4 21,5 22,5 22,8 21,8 21,9 18,9 18,8 17,8 17,5 18,5 	"/>
</g>
<g opacity="0.2">
	<path d="M7,28c2.8,0,5-2.2,5-5c0-2.8-2.2-5-5-5c-2.8,0-5,2.2-5,5C2,25.8,4.2,28,7,28z M1,23c0-3.3,2.7-6,6-6c3.3,0,6,2.7,6,6
		c0,3.3-2.7,6-6,6C3.7,29,1,26.3,1,23z"/>
	<path d="M25,28c2.8,0,5-2.2,5-5c0-2.8-2.2-5-5-5c-2.8,0-5,2.2-5,5C20,25.8,22.2,28,25,28z M19,23c0-3.3,2.7-6,6-6c3.3,0,6,2.7,6,6
		c0,3.3-2.7,6-6,6C21.7,29,19,26.3,19,23z"/>
	<path d="M18.2,13.5l-1.5-2.3l-3.1,3l2.8,1.5c1.2,0.6,1,1.6,1,1.6v6.4c0,0.7-0.6,1.3-1.3,1.3c-0.7,0-1.3-0.6-1.3-1.3v-5.1L10,15.8
		c-0.6-0.3-1-1-1-1.7c0-0.5,0.2-0.9,0.5-1.3L14,8h2l1,1l2.8,3.3l3.8,0c1.4,0,1.4,1.7,0,1.7h-4L18.2,13.5z"/>
	<polygon points="17,3 20,3 20,4 21,4 21,7 20,7 20,8 17,8 17,7 16,7 16,4 17,4 	"/>
</g>
<g>
	<path d="M6,27c2.8,0,5-2.2,5-5c0-2.8-2.2-5-5-5c-2.8,0-5,2.2-5,5C1,24.8,3.2,27,6,27z M0,22c0-3.3,2.7-6,6-6c3.3,0,6,2.7,6,6
		c0,3.3-2.7,6-6,6C2.7,28,0,25.3,0,22z"/>
	<path d="M24,27c2.8,0,5-2.2,5-5c0-2.8-2.2-5-5-5c-2.8,0-5,2.2-5,5C19,24.8,21.2,27,24,27z M18,22c0-3.3,2.7-6,6-6c3.3,0,6,2.7,6,6
		c0,3.3-2.7,6-6,6C20.7,28,18,25.3,18,22z"/>
	<path d="M17.2,12.5l-1.5-2.3l-3.1,3l2.8,1.5c1.2,0.6,1,1.6,1,1.6v6.4c0,0.7-0.6,1.3-1.3,1.3c-0.7,0-1.3-0.6-1.3-1.3v-5.1L9,14.8
		c-0.6-0.3-1-1-1-1.7c0-0.5,0.2-0.9,0.5-1.3L13,7h2l1,1l2.8,3.3l3.8,0c1.4,0,1.4,1.7,0,1.7h-4L17.2,12.5z"/>
	<polygon points="16,2 19,2 19,3 20,3 20,6 19,6 19,7 16,7 16,6 15,6 15,3 16,3 	"/>
</g>
</svg>
