<?xml version="1.0" encoding="utf-8"?>
<!-- Generator: Adobe Illustrator 27.9.1, SVG Export Plug-In . SVG Version: 6.00 Build 0)  -->
<svg version="1.1" id="Icons" xmlns="http://www.w3.org/2000/svg" xmlns:xlink="http://www.w3.org/1999/xlink" x="0px" y="0px"
	 viewBox="0 0 22 22" enable-background="new 0 0 22 22" xml:space="preserve">
<path  d="M4.4,19.5c2,0,3.6-1.6,3.6-3.6s-1.6-3.6-3.6-3.6c-2,0-3.6,1.6-3.6,3.6S2.5,19.5,4.4,19.5 M0,15.8
	c0-2.5,2-4.4,4.4-4.4c2.5,0,4.5,2,4.5,4.4c0,2.5-2,4.4-4.5,4.4C2,20.3,0,18.3,0,15.8"/>
<path  d="M17.6,19.5c2,0,3.6-1.6,3.6-3.6c0-2-1.6-3.6-3.6-3.6c-2,0-3.6,1.6-3.6,3.6C13.9,17.9,15.5,19.5,17.6,19.5
	 M13.1,15.9c0-2.5,2-4.4,4.5-4.4c2.5,0,4.4,2,4.4,4.4c0,2.5-2,4.4-4.4,4.4C15.1,20.3,13.1,18.3,13.1,15.9"/>
<path  d="M13.1,5c0.9,0,1.7-0.7,1.7-1.7c0-0.9-0.8-1.7-1.7-1.7c-0.9,0-1.7,0.8-1.7,1.7C11.4,4.3,12.2,5,13.1,5"/>
<path  d="M13.2,9.1c-0.2,0-0.5-0.1-0.7-0.4L11.4,7L9.2,9.2l2.1,1.1c0.9,0.4,0.7,1.2,0.7,1.2v4.7c0,0.5-0.4,1-1,1
	c-0.5,0-1-0.4-1-1v-3.8l-3.6-2C6,10.1,5.7,9.7,5.7,9.1c0-0.4,0.1-0.7,0.4-0.9l3.5-3.5c0.4-0.5,1.1-0.4,1.1-0.4
	c0.7,0,1.1,0.6,1.1,0.6l1.8,2.9l2.8,0c1,0,1,1.3,0,1.3H13.2z"/>
</svg>
