<?xml version="1.0" encoding="utf-8"?>
<!-- Generator: Adobe Illustrator 20.0.0, SVG Export Plug-In . SVG Version: 6.00 Build 0)  -->
<svg version="1.1" id="Icons" xmlns="http://www.w3.org/2000/svg" xmlns:xlink="http://www.w3.org/1999/xlink" x="0px" y="0px"
	 width="30px" height="30px" viewBox="0 0 30 30" style="enable-background:new 0 0 30 30;" xml:space="preserve">
<g>
	<path fill="#231F20" d="M17.2,12.5l-1.5-2.3l-3.1,3l2.8,1.5c1.2,0.6,1,1.6,1,1.6v6.4c0,0.7-0.6,1.3-1.3,1.3s-1.3-0.6-1.3-1.3v-5.1L9,14.8
		c-0.6-0.3-1-1-1-1.7c0-0.5,0.2-0.9,0.5-1.3L13,7h2l1,1l2.8,3.3h3.8c1.4,0,1.4,1.7,0,1.7h-4L17.2,12.5z"/>
	<path fill="#231F20" d="M24,27c2.8,0,5-2.2,5-5s-2.2-5-5-5s-5,2.2-5,5S21.2,27,24,27z M18,22c0-3.3,2.7-6,6-6s6,2.7,6,6s-2.7,6-6,6S18,25.3,18,22z
		"/>
	<path fill="#231F20" d="M6,27c2.8,0,5-2.2,5-5s-2.2-5-5-5s-5,2.2-5,5S3.2,27,6,27z M0,22c0-3.3,2.7-6,6-6s6,2.7,6,6s-2.7,6-6,6S0,25.3,0,22z"/>
	<circle fill="#231F20" cx="17.5" cy="4.5" r="2.5"/>
</g>
</svg>
