<?xml version="1.0" encoding="utf-8"?>
<!-- Generator: Adobe Illustrator 28.2.0, SVG Export Plug-In . SVG Version: 6.00 Build 0)  -->
<svg version="1.1" id="Icons" xmlns="http://www.w3.org/2000/svg" xmlns:xlink="http://www.w3.org/1999/xlink" x="0px" y="0px"
	 width="14px" height="14px" viewBox="0 0 14 14" enable-background="new 0 0 14 14" xml:space="preserve">
<g>
	<path fill="#231F20" d="M2.6,8.3c1,0,1.8,0.8,1.8,1.8s-0.8,1.8-1.8,1.8S0.9,11,0.9,10.1S1.7,8.3,2.6,8.3 M2.6,7.4
		C1.1,7.4,0,8.6,0,10.1s1.1,2.6,2.6,2.6s2.6-1.1,2.6-2.6S4.1,7.4,2.6,7.4L2.6,7.4z"/>
</g>
<g>
	<path fill="#231F20" d="M11.4,8.3c1,0,1.8,0.8,1.8,1.8s-0.8,1.8-1.8,1.8S9.6,11,9.6,10.1S10.4,8.3,11.4,8.3 M11.4,7.4
		c-1.5,0-2.6,1.1-2.6,2.6s1.1,2.6,2.6,2.6S14,11.5,14,10S12.9,7.4,11.4,7.4L11.4,7.4z"/>
</g>
<path fill="#231F20" d="M8.3,3.5c0.6,0,1.1-0.5,1.1-1.1S8.9,1.3,8.3,1.3S7.2,1.8,7.2,2.4C7.3,3,7.8,3.5,8.3,3.5"/>
<path fill="#231F20" d="M8.4,6C8.2,6,8.1,6,7.9,5.8L7.3,4.7L5.8,6.1l1.3,0.7c0.5,0.3,0.5,0.7,0.5,0.7v3c0,0.3-0.3,0.6-0.6,0.6
	c-0.3,0-0.6-0.3-0.6-0.6V8.1L4.1,6.9C3.8,6.7,3.6,6.4,3.6,6.1c0-0.2,0.1-0.4,0.2-0.6l2.3-2.3C6.4,2.9,6.8,3,6.8,3
	c0.5,0,0.7,0.4,0.7,0.4l1.2,1.8h1.8c0.6,0,0.6,0.8,0,0.8H8.4z"/>
</svg>
