<?xml version="1.0" encoding="utf-8"?>
<!-- Generator: Adobe Illustrator 21.1.0, SVG Export Plug-In . SVG Version: 6.00 Build 0)  -->
<svg version="1.1" id="Icons" xmlns="http://www.w3.org/2000/svg" xmlns:xlink="http://www.w3.org/1999/xlink" x="0px" y="0px"
	 width="14px" height="14px" viewBox="0 0 14 14" enable-background="new 0 0 14 14" xml:space="preserve">
<circle fill="#231F20" cx="9.2" cy="2.6" r="1.3"/>
<path fill="#231F20" d="M8.6,7C8.4,6.5,8.3,6.4,8.2,6.2l-0.7-1L6.3,6.6l1.1,0.6C8,7.3,7.9,7.8,8,7.8v2.6c-0.1,0.3-0.4,0.5-0.7,0.5
	c-0.3,0-0.5-0.3-0.3-0.5V8.3L4.8,7.2C4.5,7.1,4.4,6.8,4.4,6.5c0-0.2,0.1-0.3,0.2-0.5l2-2c0.3-0.3,0.6-0.3,0.6-0.3
	C7.6,3.7,7.8,4,7.8,4l1,2h1.6c0.5-0.2,0.5,0.5,0,1H8.6L8.6,7z"/>
<g>
	<path fill="#231F20" d="M2.6,8.3c1,0,1.8,0.8,1.8,1.8s-0.8,1.8-1.8,1.8S0.9,11,0.9,10.1S1.7,8.3,2.6,8.3 M2.6,7.4
		C1.1,7.4,0,8.6,0,10.1s1.1,2.6,2.6,2.6s2.6-1.1,2.6-2.6S4.1,7.4,2.6,7.4L2.6,7.4z"/>
</g>
<g>
	<path fill="#231F20" d="M11.4,8.3c1,0,1.8,0.8,1.8,1.8s-0.8,1.8-1.8,1.8S9.6,11,9.6,10.1S10.4,8.3,11.4,8.3 M11.4,7.4
		c-1.5,0-2.6,1.1-2.6,2.6s1.1,2.6,2.6,2.6s2.6-1.1,2.6-2.6S12.9,7.4,11.4,7.4L11.4,7.4z"/>
</g>
</svg>
