<?xml version="1.0" encoding="utf-8"?>
<!-- Generator: Adobe Illustrator 22.0.1, SVG Export Plug-In . SVG Version: 6.00 Build 0)  -->
<svg version="1.1" id="Layer_1" xmlns="http://www.w3.org/2000/svg" xmlns:xlink="http://www.w3.org/1999/xlink" x="0px" y="0px"
	 width="14px" height="14px" viewBox="0 0 14 14" enable-background="new 0 0 14 14" xml:space="preserve">
<path d="M6.415,6.298c-0.228,0-0.451,0.024-0.666,0.062L4.108,1.16C3.89,0.476,3.113,0.019,2.428,0.014
	C1.997,0.01,1.17-0.127,1.17,0.54c0,0.708,0.887,0.498,1.32,0.52c0.239,0.013,0.56,0.256,0.634,0.487L3.536,3H0l0,0.981h3.87
	L3.92,4.061L0,8.014c0.044,0.475-0.002,0.982,0,1.46l4.279-4.281l0.467,1.488C3.456,7.304,2.563,8.62,2.563,10.15
	c0,2.127,1.725,3.85,3.852,3.85c2.127,0,3.852-1.723,3.852-3.85C10.267,8.021,8.542,6.298,6.415,6.298 M6.415,13.005
	c-1.577,0-2.855-1.278-2.855-2.855c0-1.083,0.606-2.012,1.492-2.496l0.84,2.673c0.088,0.278,0.387,0.429,0.665,0.341
	c0.274-0.088,0.431-0.387,0.343-0.663L6.054,7.329c0.121-0.015,0.237-0.037,0.362-0.037c1.577,0,2.855,1.28,2.855,2.857
	C9.271,11.727,7.993,13.005,6.415,13.005"/>
<polygon points="13.5,1.5 12,0 12,1 9,1 9,2 12,2 12,3 "/>
<polygon points="10,4 10,3 8.5,4.5 10,6 10,5 13,5 13,4 "/>
</svg>
