<?xml version="1.0" encoding="utf-8"?>
<!-- Generator: Adobe Illustrator 22.0.1, SVG Export Plug-In . SVG Version: 6.00 Build 0)  -->
<svg version="1.1" id="Layer_1" xmlns="http://www.w3.org/2000/svg" xmlns:xlink="http://www.w3.org/1999/xlink" x="0px" y="0px"
	 width="30px" height="30px" viewBox="0 0 30 30" enable-background="new 0 0 30 30" xml:space="preserve">
<path fill="#FFFFFF" d="M13.747,13.495c-0.489,0-0.966,0.051-1.428,0.133L8.802,2.487C8.337,1.02,6.67,0.042,5.203,0.03
	C4.28,0.022,2.508-0.271,2.508,1.157c0,1.518,1.901,1.068,2.828,1.115c0.513,0.027,1.201,0.548,1.358,1.045l0.884,2.789H0V8.37
	h8.293l0.106,0.332L0,17.173c0.094,1.017-0.004,2.105,0,3.13l9.17-9.174l1.002,3.188c-2.766,1.334-4.679,4.155-4.679,7.433
	c0,4.558,3.697,8.25,8.254,8.25c4.557,0,8.254-3.693,8.254-8.25C22.001,17.188,18.304,13.495,13.747,13.495 M13.747,27.868
	c-3.38,0-6.119-2.738-6.119-6.118c0-2.32,1.299-4.311,3.196-5.348l1.799,5.727c0.188,0.595,0.829,0.919,1.424,0.731
	c0.587-0.188,0.923-0.829,0.735-1.42l-1.811-5.735c0.258-0.031,0.509-0.078,0.775-0.078c3.38,0,6.118,2.742,6.118,6.122
	C19.865,25.13,17.127,27.868,13.747,27.868"/>
<polygon fill="#FFFFFF" points="30,4 25,0 25,3 17,3 17,5 25,5 25,8 "/>
<polygon fill="#FFFFFF" points="20,9 20,6 15,10 20,14 20,11 28,11 28,9 "/>
</svg>
