<?xml version="1.0" encoding="utf-8"?>
<!-- Generator: Adobe Illustrator 22.0.1, SVG Export Plug-In . SVG Version: 6.00 Build 0)  -->
<svg version="1.1" id="Layer_1" xmlns="http://www.w3.org/2000/svg" xmlns:xlink="http://www.w3.org/1999/xlink" x="0px" y="0px"
	 width="30px" height="30px" viewBox="0 0 30 30" enable-background="new 0 0 30 30" xml:space="preserve">
<path fill="#FFFFFF" d="M21.9,5.4l-2.3,0.8l-2.6-1.7c-0.1,0.9,0.2,2.7,2,3.4c0.5,0.3,1.8,0.7,2.4,1.2c0.7,0.7,0.7,0.8,1.4,3l3.4,10.8
	c0.2,0.7,0.9,1.1,1.6,0.9c0.7-0.2,1.1-0.9,0.9-1.6L24.4,8.6c-0.3-0.9-0.2-2.1,0.1-3c0.5-1.6-0.1-3.3-1.6-4.2
	c-1.2-0.7-2.7-0.8-3.7-0.2l2.5,1.7L21.9,5.4z"/>
<path fill="#FFFFFF" d="M13.7,13.5c-0.5,0-1,0.1-1.4,0.1L8.8,2.5C8.3,1,6.7,0,5.2,0C4.3,0,2.5-0.3,2.5,1.2c0,1.5,1.9,1.1,2.8,1.1
	c0.5,0,1.2,0.5,1.4,1l0.9,2.8H0v2.3h8.3l0.1,0.3L0,17.2c0.1,1,0,2.1,0,3.1l9.2-9.2l1,3.2c-2.8,1.3-4.7,4.2-4.7,7.4
	c0,4.6,3.7,8.3,8.3,8.3c4.6,0,8.3-3.7,8.3-8.3C22,17.2,18.3,13.5,13.7,13.5 M13.7,27.9c-3.4,0-6.1-2.7-6.1-6.1
	c0-2.3,1.3-4.3,3.2-5.3l1.8,5.7c0.2,0.6,0.8,0.9,1.4,0.7c0.6-0.2,0.9-0.8,0.7-1.4L13,15.7c0.3,0,0.5-0.1,0.8-0.1
	c3.4,0,6.1,2.7,6.1,6.1C19.9,25.1,17.1,27.9,13.7,27.9"/>
</svg>
