<?xml version="1.0" encoding="utf-8"?>
<!-- Generator: Adobe Illustrator 22.0.1, SVG Export Plug-In . SVG Version: 6.00 Build 0)  -->
<svg version="1.1" id="Layer_1" xmlns="http://www.w3.org/2000/svg" xmlns:xlink="http://www.w3.org/1999/xlink" x="0px" y="0px"
	 width="14px" height="14px" viewBox="0 0 14 14" enable-background="new 0 0 14 14" xml:space="preserve">
<path d="M10.5,3L9.5,3.4L8.3,2.6c0,0.4,0.1,1.2,0.9,1.6c0.2,0.1,0.8,0.3,1.1,0.6c0.3,0.3,0.3,0.4,0.6,1.4l1.6,4.9
	c0.1,0.3,0.4,0.5,0.7,0.4c0.3-0.1,0.5-0.4,0.4-0.7l-2-6.2c-0.1-0.4-0.1-0.9,0-1.4c0.2-0.7-0.1-1.5-0.7-1.9c-0.5-0.3-1.2-0.4-1.7-0.1
	l1.2,0.8L10.5,3z"/>
<path d="M6.4,6.3c-0.2,0-0.5,0-0.7,0.1L4.1,1.2C3.9,0.5,3.1,0,2.4,0C2,0,1.2-0.1,1.2,0.5c0,0.7,0.9,0.5,1.3,0.5
	c0.2,0,0.6,0.3,0.6,0.5L3.5,3H0l0,1h3.9l0,0.1L0,8c0,0.5,0,1,0,1.5l4.3-4.3l0.5,1.5c-1.3,0.6-2.2,1.9-2.2,3.5c0,2.1,1.7,3.9,3.9,3.9
	c2.1,0,3.9-1.7,3.9-3.9C10.3,8,8.5,6.3,6.4,6.3 M6.4,13c-1.6,0-2.9-1.3-2.9-2.9c0-1.1,0.6-2,1.5-2.5l0.8,2.7
	c0.1,0.3,0.4,0.4,0.7,0.3C6.8,10.6,7,10.3,6.9,10L6.1,7.3c0.1,0,0.2,0,0.4,0c1.6,0,2.9,1.3,2.9,2.9C9.3,11.7,8,13,6.4,13"/>
</svg>
