<?xml version="1.0" encoding="utf-8"?>
<!-- Generator: Adobe Illustrator 22.0.1, SVG Export Plug-In . SVG Version: 6.00 Build 0)  -->
<svg version="1.1" id="Layer_1" xmlns="http://www.w3.org/2000/svg" xmlns:xlink="http://www.w3.org/1999/xlink" x="0px" y="0px"
	 width="22px" height="22px" viewBox="0 0 22 22" enable-background="new 0 0 22 22" xml:space="preserve">
<path d="M10.081,9.896c-0.359,0-0.709,0.037-1.047,0.098l-2.579-8.17C6.113,0.748,4.891,0.031,3.816,0.022
	C3.139,0.016,1.839-0.199,1.839,0.848c0,1.113,1.394,0.783,2.074,0.818c0.376,0.02,0.881,0.402,0.996,0.766L5.557,4H0l0,2h6.082
	l0.077,0.382L0,12.593c0.069,0.746-0.003,1.543,0,2.295l6.724-6.727l0.734,2.338c-2.028,0.978-3.431,3.047-3.431,5.451
	c0,3.342,2.711,6.05,6.053,6.05c3.342,0,6.053-2.708,6.053-6.05C16.134,12.605,13.423,9.896,10.081,9.896 M10.081,20.436
	c-2.479,0-4.487-2.008-4.487-4.487c0-1.701,0.952-3.161,2.344-3.922l1.32,4.2c0.138,0.436,0.608,0.674,1.044,0.536
	c0.43-0.138,0.677-0.608,0.539-1.041l-1.328-4.206c0.189-0.023,0.373-0.057,0.568-0.057c2.479,0,4.487,2.011,4.487,4.49
	C14.568,18.428,12.56,20.436,10.081,20.436"/>
<polygon points="22,3 19,0 19,2 13,2 13,4 19,4 19,6 "/>
<polygon points="15,7 15,5 12,8 15,11 15,9 21,9 21,7 "/>
</svg>
