<?xml version="1.0" encoding="utf-8"?>
<!-- Generator: Adobe Illustrator 22.0.1, SVG Export Plug-In . SVG Version: 6.00 Build 0)  -->
<svg version="1.1" id="Layer_1" xmlns="http://www.w3.org/2000/svg" xmlns:xlink="http://www.w3.org/1999/xlink" x="0px" y="0px"
	 width="22px" height="22px" viewBox="0 0 22 22" enable-background="new 0 0 22 22" xml:space="preserve">
<path fill="#FFFFFF" d="M16.3,3.7l-1.7,0.6L12.7,3c-0.1,0.6,0.2,2,1.4,2.5c0.3,0.2,1.4,0.5,1.7,0.9c0.5,0.5,0.5,0.6,1,2.2l2.5,7.9
	c0.1,0.5,0.7,0.8,1.2,0.7c0.5-0.1,0.8-0.7,0.7-1.2l-3.2-10c-0.2-0.6-0.2-1.5,0-2.2C18.5,2.8,18,1.5,17,0.8c-0.8-0.6-2-0.6-2.7-0.2
	l1.9,1.2L16.3,3.7z"/>
<path fill="#FFFFFF" d="M10.1,9.9c-0.4,0-0.7,0-1,0.1L6.5,1.8C6.1,0.7,4.9,0,3.8,0c-0.7,0-2-0.2-2,0.8c0,1.1,1.4,0.8,2.1,0.8c0.4,0,0.9,0.4,1,0.8
	L5.6,4H0l0,2h6.1l0.1,0.4L0,12.6c0.1,0.7,0,1.5,0,2.3l6.7-6.7l0.7,2.3c-2,1-3.4,3-3.4,5.5c0,3.3,2.7,6.1,6.1,6.1
	c3.3,0,6.1-2.7,6.1-6.1C16.1,12.6,13.4,9.9,10.1,9.9 M10.1,20.4c-2.5,0-4.5-2-4.5-4.5c0-1.7,1-3.2,2.3-3.9l1.3,4.2
	c0.1,0.4,0.6,0.7,1,0.5c0.4-0.1,0.7-0.6,0.5-1l-1.3-4.2c0.2,0,0.4-0.1,0.6-0.1c2.5,0,4.5,2,4.5,4.5C14.6,18.4,12.6,20.4,10.1,20.4"
	/>
</svg>
