<?xml version="1.0" encoding="utf-8"?>
<!-- Generator: Adobe Illustrator 22.0.1, SVG Export Plug-In . SVG Version: 6.00 Build 0)  -->
<svg version="1.1" id="Layer_1" xmlns="http://www.w3.org/2000/svg" xmlns:xlink="http://www.w3.org/1999/xlink" x="0px" y="0px"
	 width="22px" height="22px" viewBox="0 0 22 22" enable-background="new 0 0 22 22" xml:space="preserve">
<path d="M13.7,13.1c-0.4,0-0.7-0.3-0.7-0.7V4.1h6.3L22,15.4l0,0.7v5c0,0.4-0.3,0.7-0.7,0.7h-6.1c-0.4,0-1.1-0.3-1.1-0.7v-8H13.7z"/>
<path d="M8.3,13.1c0.4,0,0.7-0.3,0.7-0.7V4.1H2.7L0,15.4l0,0.7v5c0,0.4,0.3,0.7,0.7,0.7h6.1c0.4,0,1.1-0.3,1.1-0.7v-8H8.3z"/>
<rect x="5" y="0" width="4" height="3"/>
<rect x="13" y="0" width="4" height="3"/>
<rect x="10" y="4" width="2" height="8"/>
</svg>
