<?xml version="1.0" encoding="utf-8"?>
<!-- Generator: Adobe Illustrator 22.0.1, SVG Export Plug-In . SVG Version: 6.00 Build 0)  -->
<svg version="1.1" id="Layer_1" xmlns="http://www.w3.org/2000/svg" xmlns:xlink="http://www.w3.org/1999/xlink" x="0px" y="0px"
	 width="14px" height="14px" viewBox="0 0 14 14" enable-background="new 0 0 14 14" xml:space="preserve">
<path fill="#FFFFFF" d="M9.5,8.3C9.2,8.3,9,8.1,9,7.9L9,3h3l2,6.8l0,0.5v3.2c0,0.2-0.2,0.4-0.4,0.4l-3.2,0c-0.2,0-0.4-0.2-0.4-0.4V8.3H9.5z"/>
<path fill="#FFFFFF" d="M4.5,8.3C4.8,8.3,5,8.1,5,7.9L5,3H2L0,9.8l0,0.5v3.2c0,0.2,0.2,0.4,0.4,0.4h3.2c0.2,0,0.4-0.2,0.4-0.4V8.3H4.5z"/>
<rect fill="#FFFFFF" x="6.3" y="2.6" width="1.4" height="4.9"/>
<rect fill="#FFFFFF" x="3" width="3" height="2"/>
<rect fill="#FFFFFF" x="8" width="3" height="2"/>
</svg>
