<?xml version="1.0" encoding="utf-8"?>
<!-- Generator: Adobe Illustrator 22.0.1, SVG Export Plug-In . SVG Version: 6.00 Build 0)  -->
<svg version="1.1" id="Layer_1" xmlns="http://www.w3.org/2000/svg" xmlns:xlink="http://www.w3.org/1999/xlink" x="0px" y="0px"
	 width="30px" height="30px" viewBox="0 0 30 30" enable-background="new 0 0 30 30" xml:space="preserve">
<path fill="#FFFFFF" d="M18.7,17.9c-0.5,0-0.7-0.4-0.7-1V6h8l4,15l0,1v6.8c0,0.5-0.4,1-1,1h-8.4c-0.5,0-0.6-0.4-0.6-1V17.9H18.7z"/>
<path fill="#FFFFFF" d="M11.3,17.9c0.5,0,0.7-0.4,0.7-1V6H4L0,21l0,1v6.8c0,0.5,0.4,1,1,1h8.4c0.5,0,0.7-0.4,0.7-1V17.9H11.3z"/>
<rect fill="#FFFFFF" x="7" y="0" width="5" height="4"/>
<rect fill="#FFFFFF" x="18" y="0" width="5" height="4"/>
<rect fill="#FFFFFF" x="14" y="6" width="2" height="11"/>
</svg>
