<?xml version="1.0" encoding="utf-8"?>
<!-- Generator: Adobe Illustrator 18.1.1, SVG Export Plug-In . SVG Version: 6.00 Build 0)  -->
<svg version="1.1" id="Icons" xmlns="http://www.w3.org/2000/svg" xmlns:xlink="http://www.w3.org/1999/xlink" x="0px" y="0px"
	 viewBox="0 0 32 32" enable-background="new 0 0 32 32" xml:space="preserve">
<g opacity="0.5">
	<path d="M6.6,6.2l6,1.6L16,5l1.2,0.8l-3.3,2.3l18.2,5L30.7,18l-18.2-5C5.4,10.9,6.6,6.2,6.6,6.2"/>
	<polygon points="2,17 32,26 32,28 28,27 26,27 22,28 18,27 16,27 12,28 8,27 6,27 2,28 	"/>
	<polygon points="2,12 15,16 15,17 2,13 	"/>
	<polygon points="22,18 22,19 31,22 31,21 	"/>
	<path d="M21,18.5c0,1.4-1.1,2.5-2.5,2.5S16,19.9,16,18.5s1.1-2.5,2.5-2.5S21,17.1,21,18.5z M18.5,17c-0.8,0-1.5,0.7-1.5,1.5
		s0.7,1.5,1.5,1.5c0.8,0,1.5-0.7,1.5-1.5S19.3,17,18.5,17z"/>
</g>
<g opacity="0.75">
	<path d="M5.6,5.2l6,1.6L15,4l1.2,0.8l-3.3,2.3l18.2,5L29.7,17l-18.2-5C4.4,9.9,5.6,5.2,5.6,5.2"/>
	<polygon points="1,16 31,25 31,27 27,26 25,26 21,27 17,26 15,26 11,27 7,26 5,26 1,27 	"/>
	<polygon points="1,11 14,15 14,16 1,12 	"/>
	<polygon points="21,17 21,18 30,21 30,20 	"/>
	<path d="M20,17.5c0,1.4-1.1,2.5-2.5,2.5S15,18.9,15,17.5s1.1-2.5,2.5-2.5S20,16.1,20,17.5z M17.5,16c-0.8,0-1.5,0.7-1.5,1.5
		s0.7,1.5,1.5,1.5c0.8,0,1.5-0.7,1.5-1.5S18.3,16,17.5,16z"/>
</g>
<g>
	<path fill="#E6E6E6" d="M4.6,4.2l6,1.6L14,3l1.2,0.8l-3.3,2.3l18.2,5L28.7,16l-18.2-5C3.4,8.9,4.6,4.2,4.6,4.2"/>
	<polygon fill="#E6E6E6" points="0,15 30,24 30,26 26,25 24,25 20,26 16,25 14,25 10,26 6,25 4,25 0,26 	"/>
	<polygon fill="#E6E6E6" points="0,10 13,14 13,15 0,11 	"/>
	<polygon fill="#E6E6E6" points="20,16 20,17 29,20 29,19 	"/>
	<path fill="#E6E6E6" d="M19,16.5c0,1.4-1.1,2.5-2.5,2.5S14,17.9,14,16.5s1.1-2.5,2.5-2.5S19,15.1,19,16.5z M16.5,15
		c-0.8,0-1.5,0.7-1.5,1.5s0.7,1.5,1.5,1.5c0.8,0,1.5-0.7,1.5-1.5S17.3,15,16.5,15z"/>
</g>
</svg>
