<?xml version="1.0" encoding="utf-8"?>
<!-- Generator: Adobe Illustrator 18.1.1, SVG Export Plug-In . SVG Version: 6.00 Build 0)  -->
<svg version="1.1" id="Icons" xmlns="http://www.w3.org/2000/svg" xmlns:xlink="http://www.w3.org/1999/xlink" x="0px" y="0px"
	 viewBox="0 0 16 16" enable-background="new 0 0 16 16" xml:space="preserve">
<g opacity="0.5">
	<polygon points="16,13 16,12 13,11.1 13,12 	"/>
	<polygon points="2,8 2,9 9,11 9,10 	"/>
	<polygon points="4.8,6.8 6,7 6.7,7.3 15,9.7 15.4,8.4 16,6.7 7,4.2 8.9,2 8,2 6,3.8 3,3 	"/>
	<polygon points="2,16 2,11 16,15 16,16 	"/>
	<rect x="10" y="10" width="2" height="2"/>
</g>
<g opacity="0.75">
	<polygon points="15,12 15,11 12,10.1 12,11 	"/>
	<polygon points="1,7 1,8 8,10 8,9 	"/>
	<polygon points="3.8,5.8 5,6 5.7,6.3 14,8.7 14.4,7.4 15,5.7 6,3.2 7.9,1 7,1 5,2.8 2,2 	"/>
	<polygon points="1,15 1,10 15,14 15,15 	"/>
	<rect x="9" y="9" width="2" height="2"/>
</g>
<g>
	<polygon fill="#FFFFFF" points="14,11 14,10 11,9.1 11,10 	"/>
	<polygon fill="#FFFFFF" points="0,6 0,7 7,9 7,8 	"/>
	<polygon fill="#FFFFFF" points="2.8,4.8 4,5 4.7,5.3 13,7.7 13.4,6.4 14,4.7 5,2.2 6.9,0 6,0 4,1.8 1,1 	"/>
	<polygon fill="#FFFFFF" points="0,14 0,9 14,13 14,14 	"/>
	<rect x="8" y="8" fill="#FFFFFF" width="2" height="2"/>
</g>
</svg>
