<?xml version="1.0" encoding="utf-8"?>
<!-- Generator: Adobe Illustrator 22.0.1, SVG Export Plug-In . SVG Version: 6.00 Build 0)  -->
<svg version="1.1" id="Layer_1" xmlns="http://www.w3.org/2000/svg" xmlns:xlink="http://www.w3.org/1999/xlink" x="0px" y="0px"
	 width="22px" height="22px" viewBox="0 0 22 22" enable-background="new 0 0 22 22" xml:space="preserve">
<path d="M16.9,15.9l3.7,0.3l-0.3-1.9l-2.7-0.2c-0.7,0-0.6,0.7-0.6,0.7L16.9,15.9z"/>
<path d="M10.1,15.3c0.7,0,1.2-0.6,1.2-1.2c0-0.7-0.6-1.2-1.2-1.2c-0.7,0-1.2,0.6-1.2,1.2C8.9,14.8,9.5,15.3,10.1,15.3z"/>
<path d="M2.3,20.2c0.2,0,0.3-0.1,0.5-0.2c0.4-0.2,0.8-0.3,1.3-0.3c0.5,0,0.9,0.1,1.3,0.3c0.4,0.2,0.8,0.3,1.3,0.3
	c0.4,0,0.9-0.1,1.3-0.3c0.4-0.2,0.8-0.3,1.3-0.3c0.5,0,0.9,0.1,1.3,0.3c0.4,0.2,0.8,0.3,1.3,0.3c0.4,0,0.9-0.1,1.3-0.3
	c0.4-0.2,0.8-0.3,1.3-0.3c0.5,0,0.9,0.1,1.3,0.3c0.4,0.2,0.8,0.3,1.3,0.3c0.4,0,0.9-0.1,1.3-0.3c0.4-0.2,0.8-0.3,1.3-0.3
	c0.5,0,0.9,0.1,1.3,0.3c0.4,0.2,0.8,0.3,1.3,0.3l-0.4-3.4L5.7,15.6L8,13.2l-1.1-0.1l-2.3,2.4L0,15.1C0,16.8,1.9,19.7,2.3,20.2
	L2.3,20.2z"/>
<rect x="3" y="4" width="16" height="2"/>
<rect x="3" y="7" width="12" height="2"/>
<rect x="3" y="1" width="16" height="2"/>
</svg>
