<?xml version="1.0" encoding="utf-8"?>
<!-- Generator: Adobe Illustrator 24.3.0, SVG Export Plug-In . SVG Version: 6.00 Build 0)  -->
<svg version="1.1" id="Layer_1" xmlns="http://www.w3.org/2000/svg" xmlns:xlink="http://www.w3.org/1999/xlink" x="0px" y="0px"
	 width="14px" height="14px" viewBox="0 0 14 14" enable-background="new 0 0 14 14" xml:space="preserve">
<path fill="#FFFFFF" d="M10.7,6.1l2.4,0.2l-0.2-1.2L11.2,5c-0.5,0-0.4,0.4-0.4,0.4L10.7,6.1z"/>
<path fill="#FFFFFF" d="M6.5,5.7c0.4,0,0.8-0.4,0.8-0.8c0-0.4-0.4-0.8-0.8-0.8C6,4.2,5.7,4.5,5.7,5C5.7,5.4,6,5.7,6.5,5.7z"/>
<path fill="#FFFFFF" d="M13.6,7.2l-0.1-0.4L3.6,5.9l1.5-1.5L4.4,4.3L2.9,5.8L0,5.6c0,0.5,0.2,1,0.5,1.6c0.4,0.8,0.8,1.4,1,1.6
	c0.1,0,0.2-0.1,0.3-0.1c0.3-0.1,0.5-0.2,0.8-0.2c0.3,0,0.6,0.1,0.8,0.2c0.2,0.1,0.5,0.2,0.8,0.2S4.8,8.8,5,8.7
	c0.3-0.1,0.5-0.2,0.8-0.2s0.6,0.1,0.8,0.2c0.2,0.1,0.5,0.2,0.8,0.2c0.3,0,0.6-0.1,0.8-0.2C8.5,8.6,8.7,8.5,9,8.5s0.6,0.1,0.8,0.2
	c0.2,0.1,0.5,0.2,0.8,0.2c0.3,0,0.6-0.1,0.8-0.2c0.3-0.1,0.5-0.2,0.8-0.2s0.6,0.1,0.8,0.2c0.2,0.1,0.5,0.2,0.8,0.2L13.6,7.2z"/>
<path fill="#FFFFFF" d="M13,9.7c-0.2-0.1-0.5-0.2-0.8-0.2s-0.5,0.1-0.8,0.2c-0.2,0.1-0.5,0.2-0.8,0.2c-0.3,0-0.6-0.1-0.8-0.2
	C9.6,9.6,9.3,9.5,9,9.5S8.5,9.6,8.2,9.7C8,9.8,7.7,9.9,7.4,9.9c-0.3,0-0.6-0.1-0.8-0.2C6.4,9.6,6.1,9.5,5.8,9.5S5.3,9.6,5,9.7
	C4.8,9.8,4.5,9.9,4.2,9.9S3.6,9.8,3.4,9.7C3.2,9.6,2.9,9.5,2.6,9.5c-0.3,0-0.5,0.1-0.8,0.2c-0.1,0-0.2,0.1-0.3,0.1
	c0.4-0.1-0.5,0.3-1,0.3c0.1,0.2,0.2,0.3,0.3,0.4l0.3,0.3h0.4c0.2,0,0.4-0.1,0.5-0.1l0.1,0l0.2-0.1c0.2-0.1,0.2-0.1,0.3-0.1
	c0.1,0,0.2,0,0.4,0.1c0.2,0.1,0.7,0.3,1.2,0.3c0.5,0,0.9-0.2,1.2-0.3l0.1,0c0.2-0.1,0.2-0.1,0.3-0.1c0.1,0,0.2,0,0.4,0.1
	c0.2,0.1,0.7,0.3,1.2,0.3c0.5,0,0.9-0.2,1.2-0.3l0.1,0c0.2-0.1,0.2-0.1,0.3-0.1c0.1,0,0.2,0,0.4,0.1c0.2,0.1,0.7,0.3,1.2,0.3
	c0.5,0,0.9-0.2,1.2-0.3l0.1,0c0.2-0.1,0.2-0.1,0.3-0.1c0.1,0,0.2,0,0.4,0.1c0.2,0.1,0.7,0.3,1.2,0.3v-1C13.5,9.9,13.2,9.8,13,9.7z"
	/>
</svg>
