<?xml version="1.0" encoding="utf-8"?>
<!-- Generator: Adobe Illustrator 22.0.1, SVG Export Plug-In . SVG Version: 6.00 Build 0)  -->
<svg version="1.1" id="Layer_1" xmlns="http://www.w3.org/2000/svg" xmlns:xlink="http://www.w3.org/1999/xlink" x="0px" y="0px"
	 width="30px" height="30px" viewBox="0 0 30 30" enable-background="new 0 0 30 30" xml:space="preserve">
<path fill="#FFFFFF" d="M23,21.6l5.1,0.4l-0.4-2.6l-3.7-0.3c-1,0-0.9,1-0.9,1L23,21.6z"/>
<path fill="#FFFFFF" d="M13.8,20.9c0.9,0,1.7-0.8,1.7-1.7c0-0.9-0.8-1.7-1.7-1.7c-0.9,0-1.7,0.8-1.7,1.7C12.1,20.1,12.9,20.9,13.8,20.9z"/>
<path fill="#FFFFFF" d="M3.2,27.5c0.2-0.1,0.4-0.1,0.6-0.2c0.5-0.3,1.1-0.4,1.8-0.4c0.6,0,1.2,0.1,1.8,0.4c0.5,0.2,1.1,0.4,1.7,0.4
	c0.6,0,1.2-0.1,1.7-0.4c0.5-0.3,1.1-0.4,1.8-0.4c0.6,0,1.2,0.1,1.8,0.4c0.5,0.2,1.1,0.4,1.7,0.4c0.6,0,1.2-0.1,1.7-0.4
	c0.5-0.3,1.1-0.4,1.8-0.4c0.6,0,1.2,0.1,1.8,0.4c0.5,0.2,1.1,0.4,1.7,0.4c0.6,0,1.2-0.1,1.7-0.4c0.5-0.3,1.1-0.4,1.8-0.4
	c0.6,0,1.2,0.1,1.8,0.4c0.5,0.2,1.1,0.4,1.7,0.4l-0.6-4.6L7.7,21.2l3.2-3.2l-1.6-0.1l-3.2,3.2L0,20.6C0,23,2.6,26.9,3.2,27.5
	L3.2,27.5z"/>
<rect fill="#FFFFFF" x="4" y="6" width="22" height="2"/>
<rect fill="#FFFFFF" x="4" y="10" width="16" height="2"/>
<rect fill="#FFFFFF" x="4" y="2" width="22" height="2"/>
</svg>
