<?xml version="1.0" encoding="utf-8"?>
<!-- Generator: Adobe Illustrator 22.0.1, SVG Export Plug-In . SVG Version: 6.00 Build 0)  -->
<svg version="1.1" id="Layer_1" xmlns="http://www.w3.org/2000/svg" xmlns:xlink="http://www.w3.org/1999/xlink" x="0px" y="0px"
	 width="14px" height="14px" viewBox="0 0 14 14" enable-background="new 0 0 14 14" xml:space="preserve">
<g>
	<path fill="#FFFFFF" d="M7.5,7.8C6.6,8,6.1,8.9,6.4,9.7c0.2,0.8,1.1,1.3,1.9,1.1c0.8-0.2,1.3-1.1,1.1-1.9C9.2,8.1,8.3,7.6,7.5,7.8z M8.1,10
		c-0.4,0.1-0.7-0.1-0.8-0.5C7.1,9.1,7.4,8.8,7.7,8.7c0.4-0.1,0.7,0.1,0.8,0.5C8.6,9.5,8.4,9.9,8.1,10z"/>
	<path fill="#FFFFFF" d="M4.3,7H14l0-3H4.4l1.3-1.9l-0.6,0L3.8,4H0.6C0.6,4,0.6,6.9,4.3,7z"/>
	<polygon fill="#FFFFFF" points="0.6,4.9 0.6,4.9 0.6,4.9 	"/>
	<path fill="#FFFFFF" d="M9.6,8.1c0.1,0.2,0.2,0.4,0.3,0.6l4.1,0l0-0.6L9.6,8.1z"/>
	<path fill="#FFFFFF" d="M0.1,8.7h0.6v1.9H0.2v0.4h1.5v-0.4H1.1V8.7h4.8C6,8.5,6.1,8.3,6.2,8.1H0L0.1,8.7z"/>
</g>
</svg>
