<?xml version="1.0" encoding="utf-8"?>
<!-- Generator: Adobe Illustrator 18.1.1, SVG Export Plug-In . SVG Version: 6.00 Build 0)  -->
<svg version="1.1" id="Icons" xmlns="http://www.w3.org/2000/svg" xmlns:xlink="http://www.w3.org/1999/xlink" x="0px" y="0px"
	 viewBox="0 0 24 24" enable-background="new 0 0 24 24" xml:space="preserve">
<g opacity="0.1">
	<path d="M5.4,5.5l4.4,1.2L12,4h1l-2,3l13,3.6L23,14L9.6,10.5C4.5,8.9,5.4,5.5,5.4,5.5"/>
	<polygon points="2,15 2,23 5,22 9,23 13,22 17,23 21,22 24,23 24,21 	"/>
	<polygon points="2,10 2,11 11,14 11,13 	"/>
	<polygon points="17,15 17,16 24,18 24,17 	"/>
	<path d="M14,13c-1.1,0-2,0.9-2,2s0.9,2,2,2c1.1,0,2-0.9,2-2S15.1,13,14,13z M15,15.6c0,0.2-0.2,0.4-0.4,0.4h-1.1
		c-0.2,0-0.4-0.2-0.4-0.4v-1.1c0-0.2,0.2-0.4,0.4-0.4h1.1c0.2,0,0.4,0.2,0.4,0.4V15.6z"/>
</g>
<g opacity="0.2">
	<path d="M4.4,4.5l4.4,1.2L11,3h1l-2,3l13,3.6L22,13L8.6,9.5C3.5,7.9,4.4,4.5,4.4,4.5"/>
	<polygon points="1,14 1,22 4,21 8,22 12,21 16,22 20,21 23,22 23,20 	"/>
	<polygon points="1,9 1,10 10,13 10,12 	"/>
	<polygon points="16,14 16,15 23,17 23,16 	"/>
	<path d="M13,12c-1.1,0-2,0.9-2,2s0.9,2,2,2c1.1,0,2-0.9,2-2S14.1,12,13,12z M14,14.6c0,0.2-0.2,0.4-0.4,0.4h-1.1
		c-0.2,0-0.4-0.2-0.4-0.4v-1.1c0-0.2,0.2-0.4,0.4-0.4h1.1c0.2,0,0.4,0.2,0.4,0.4V14.6z"/>
</g>
<g>
	<path d="M3.4,3.5l4.4,1.2L10,2h1L9,5l13,3.6L21,12L7.6,8.5C2.5,6.9,3.4,3.5,3.4,3.5"/>
	<polygon points="0,13 0,21 3,20 7,21 11,20 15,21 19,20 22,21 22,19 	"/>
	<polygon points="0,8 0,9 9,12 9,11 	"/>
	<polygon points="15,13 15,14 22,16 22,15 	"/>
	<path d="M12,11c-1.1,0-2,0.9-2,2s0.9,2,2,2c1.1,0,2-0.9,2-2S13.1,11,12,11z M13,13.6c0,0.2-0.2,0.4-0.4,0.4h-1.1
		c-0.2,0-0.4-0.2-0.4-0.4v-1.1c0-0.2,0.2-0.4,0.4-0.4h1.1c0.2,0,0.4,0.2,0.4,0.4V13.6z"/>
</g>
</svg>
