<?xml version="1.0" encoding="utf-8"?>
<!-- Generator: Adobe Illustrator 20.0.0, SVG Export Plug-In . SVG Version: 6.00 Build 0)  -->
<svg version="1.1" id="Icons" xmlns="http://www.w3.org/2000/svg" xmlns:xlink="http://www.w3.org/1999/xlink" x="0px" y="0px"
	 width="14px" height="14px" viewBox="0 0 14 14" style="enable-background:new 0 0 14 14;" xml:space="preserve">
<g>
	<g>
		<polygon fill="#231F20" points="0,6 0,9 12,9 12,8 13,8 13,7 14,7 14,6 		"/>
		<path fill="#231F20" d="M11,3V2h-1V1H0v4h12V3H11z M2,4H1V2h1V4z M4,4H3V2h1V4z M6,4H5V2h1V4z M10,4H8V2h1v1h1V4z"/>
		<path fill="#231F20" d="M14,10.5L13,11h-1l-2-1H9l-2,1H6l-2-1H3l-2,1H0v1h1l2-1h1l2,1h1l2-1h1l2,1h1l1-0.5c0-0.2,0-0.3,0-0.5S14,10.7,14,10.5z"/>
	</g>
</g>
</svg>
