<?xml version="1.0" encoding="utf-8"?>
<!-- Generator: Adobe Illustrator 22.0.1, SVG Export Plug-In . SVG Version: 6.00 Build 0)  -->
<svg version="1.1" id="Layer_1" xmlns="http://www.w3.org/2000/svg" xmlns:xlink="http://www.w3.org/1999/xlink" x="0px" y="0px"
	 width="22px" height="22px" viewBox="0 0 22 22" enable-background="new 0 0 22 22" xml:space="preserve">
<g>
	<path fill="#FFFFFF" d="M11.7,12.3c-1.3,0.4-2.1,1.7-1.8,3c0.4,1.3,1.7,2.1,3,1.8c1.3-0.4,2.1-1.7,1.8-3C14.4,12.7,13.1,11.9,11.7,12.3z
		 M12.7,15.7c-0.6,0.1-1.1-0.2-1.3-0.7c-0.1-0.6,0.2-1.1,0.7-1.3c0.6-0.1,1.1,0.2,1.3,0.7C13.6,14.9,13.2,15.5,12.7,15.7z"/>
	<path fill="#FFFFFF" d="M6.8,11H22l0-4H6.9L9,4H8L5.9,7h-5C0.9,7.1,0.9,10.8,6.8,11z"/>
	<polygon fill="#FFFFFF" points="0.9,7.7 0.9,7.7 0.9,7.7 	"/>
	<path fill="#FFFFFF" d="M15.1,12.7c0.2,0.3,0.3,0.6,0.4,0.9l6.4,0l0-0.9L15.1,12.7z"/>
	<path fill="#FFFFFF" d="M0.2,13.6h0.9v2.9H0.3v0.6h2.4v-0.6H1.8v-2.9h7.6c0.1-0.3,0.2-0.7,0.4-0.9H0L0.2,13.6z"/>
</g>
</svg>
