<?xml version="1.0" encoding="utf-8"?>
<!-- Generator: Adobe Illustrator 20.0.0, SVG Export Plug-In . SVG Version: 6.00 Build 0)  -->
<svg version="1.1" id="Icons" xmlns="http://www.w3.org/2000/svg" xmlns:xlink="http://www.w3.org/1999/xlink" x="0px" y="0px"
	 width="30px" height="30px" viewBox="0 0 30 30" style="enable-background:new 0 0 30 30;" xml:space="preserve">
<g>
	<g>
		<polygon fill="#FFFFFF" points="0,23.7 2,23 3,23 6,24 7,24 10,23 11,23 14,24 15,24 18,23 19,23 22,24 23,24 26,23 27,23 30,24 30,21 27,20 
			26,20 23,21 22,21 19,20 18,20 15,21 14,21 11,20 10,20 7,21 6,21 3,20 2,20 0,20.7 		"/>
		<path fill="#FFFFFF" d="M20.8,4H0v8h26v-1l-3.3-5C22.2,5.4,21.6,4,20.8,4z M5,11H2V7l1-1h1l1,1V11z M10,11H7V7l1-1h1l1,1V11z M15,11h-3V7l1-1h1
			l1,1V11z M24,11h-5l-1-3V6h3l3,4V11z"/>
		<polygon fill="#FFFFFF" points="3,18 6,19 7,19 10,18 11,18 14,19 15,19 18,18 19,18 22,19 23,19 25.8,18.1 30,13 0,13 0,18.7 2,18 		"/>
	</g>
</g>
</svg>
