<?xml version="1.0" encoding="utf-8"?>
<!-- Generator: Adobe Illustrator 22.0.1, SVG Export Plug-In . SVG Version: 6.00 Build 0)  -->
<svg version="1.1" id="Layer_1" xmlns="http://www.w3.org/2000/svg" xmlns:xlink="http://www.w3.org/1999/xlink" x="0px" y="0px"
	 width="14px" height="14px" viewBox="0 0 14 14" enable-background="new 0 0 14 14" xml:space="preserve">
<path d="M10.7,10.1l2.4,0.2l-0.2-1.2l-1.7-0.1c-0.5,0-0.4,0.4-0.4,0.4L10.7,10.1z"/>
<path d="M6.5,9.7c0.4,0,0.8-0.4,0.8-0.8c0-0.4-0.4-0.8-0.8-0.8C6,8.2,5.7,8.5,5.7,9C5.7,9.4,6,9.7,6.5,9.7z"/>
<path d="M1.5,12.8c0.1,0,0.2-0.1,0.3-0.1c0.3-0.1,0.5-0.2,0.8-0.2c0.3,0,0.6,0.1,0.8,0.2c0.2,0.1,0.5,0.2,0.8,0.2
	c0.3,0,0.6-0.1,0.8-0.2c0.3-0.1,0.5-0.2,0.8-0.2c0.3,0,0.6,0.1,0.8,0.2c0.2,0.1,0.5,0.2,0.8,0.2c0.3,0,0.6-0.1,0.8-0.2
	c0.3-0.1,0.5-0.2,0.8-0.2c0.3,0,0.6,0.1,0.8,0.2c0.2,0.1,0.5,0.2,0.8,0.2c0.3,0,0.6-0.1,0.8-0.2c0.3-0.1,0.5-0.2,0.8-0.2
	c0.3,0,0.6,0.1,0.8,0.2c0.2,0.1,0.5,0.2,0.8,0.2l-0.3-2.1L3.6,9.9l1.5-1.5L4.4,8.3L2.9,9.8L0,9.6C0,10.7,1.2,12.5,1.5,12.8L1.5,12.8
	z"/>
<rect x="2" y="1" width="10" height="1"/>
<rect x="2" y="3" width="10" height="1"/>
<rect x="2" y="5" width="7" height="1"/>
</svg>
