<?xml version="1.0" encoding="utf-8"?>
<!-- Generator: Adobe Illustrator 22.0.1, SVG Export Plug-In . SVG Version: 6.00 Build 0)  -->
<svg version="1.1" id="Layer_1" xmlns="http://www.w3.org/2000/svg" xmlns:xlink="http://www.w3.org/1999/xlink" x="0px" y="0px"
	 width="30px" height="30px" viewBox="0 0 30 30" enable-background="new 0 0 30 30" xml:space="preserve">
<g>
	<path fill="#FFFFFF" d="M16,16.7c-1.8,0.5-2.9,2.3-2.4,4.2c0.5,1.8,2.3,2.9,4.2,2.4c1.8-0.5,2.9-2.3,2.4-4.2C19.7,17.3,17.8,16.2,16,16.7z
		 M17.3,21.4c-0.8,0.2-1.5-0.3-1.8-1c-0.2-0.8,0.3-1.5,1-1.8c0.8-0.2,1.5,0.3,1.8,1C18.5,20.4,18,21.2,17.3,21.4z"/>
	<path fill="#FFFFFF" d="M9.3,15.5L30,15.7l0-5.5L9.4,10l2.8-3.4l-1.3,0L8,10l-6.8,0C1.3,10.1,1.3,15.3,9.3,15.5z"/>
	<polygon fill="#FFFFFF" points="1.3,10.5 1.2,10.5 1.3,10.5 	"/>
	<path fill="#FFFFFF" d="M20.6,17.3c0.2,0.4,0.4,0.8,0.6,1.3l8.8,0l0-1.3L20.6,17.3z"/>
	<path fill="#FFFFFF" d="M0.3,18.6h1.2v4H0.4v0.8h3.2v-0.8H2.4v-4h10.3c0.1-0.4,0.3-0.9,0.6-1.3H0L0.3,18.6z"/>
</g>
</svg>
