<?xml version="1.0" encoding="utf-8"?>
<!-- Generator: Adobe Illustrator 20.0.0, SVG Export Plug-In . SVG Version: 6.00 Build 0)  -->
<svg version="1.1" id="Icons" xmlns="http://www.w3.org/2000/svg" xmlns:xlink="http://www.w3.org/1999/xlink" x="0px" y="0px"
	 width="30px" height="30px" viewBox="0 0 30 30" style="enable-background:new 0 0 30 30;" xml:space="preserve">
<g>
	<g>
		<path fill="#231F20" d="M4.6,4.7l6,1.6L14,3.5l1.2,0.8l-3.3,2.3l18.1,5l-1.3,4.9l-18.2-5C3.4,9.4,4.6,4.7,4.6,4.7"/>
		<polygon fill="#231F20" points="0,15.5 30,24.5 30,26.5 26,25.5 24,25.5 20,26.5 16,25.5 14,25.5 10,26.5 6,25.5 4,25.5 0,26.5 		"/>
		<polygon fill="#231F20" points="0,10.5 13,14.5 13,15.5 0,11.5 		"/>
		<polygon fill="#231F20" points="20,16.5 20,17.5 29,20.5 29,19.5 		"/>
		<path fill="#231F20" d="M19,17c0,1.4-1.1,2.5-2.5,2.5S14,18.4,14,17s1.1-2.5,2.5-2.5S19,15.6,19,17z M16.5,15.5c-0.8,0-1.5,0.7-1.5,1.5
			s0.7,1.5,1.5,1.5c0.8,0,1.5-0.7,1.5-1.5S17.3,15.5,16.5,15.5z"/>
	</g>
</g>
</svg>
