<?xml version="1.0" encoding="utf-8"?>
<!-- Generator: Adobe Illustrator 20.0.0, SVG Export Plug-In . SVG Version: 6.00 Build 0)  -->
<svg version="1.1" id="Icons" xmlns="http://www.w3.org/2000/svg" xmlns:xlink="http://www.w3.org/1999/xlink" x="0px" y="0px"
	 width="22px" height="22px" viewBox="0 0 22 22" style="enable-background:new 0 0 22 22;" xml:space="preserve">
<g>
	<g>
		<path fill="#FFFFFF" d="M3.4,3l4.4,1.2L10,1.5h1l-2,3l13,3.6l-1,3.4L7.6,8C2.5,6.4,3.4,3,3.4,3"/>
		<polygon fill="#FFFFFF" points="0,12.5 0,20.5 3,19.5 7,20.5 11,19.5 15,20.5 19,19.5 22,20.5 22,18.5 		"/>
		<polygon fill="#FFFFFF" points="0,7.5 0,8.5 9,11.5 9,10.5 		"/>
		<polygon fill="#FFFFFF" points="15,12.5 15,13.5 22,15.5 22,14.5 		"/>
		<path fill="#FFFFFF" d="M12,10.5c-1.1,0-2,0.9-2,2s0.9,2,2,2s2-0.9,2-2S13.1,10.5,12,10.5z M13,13.1c0,0.2-0.2,0.4-0.4,0.4h-1.1
			c-0.2,0-0.4-0.2-0.4-0.4V12c0-0.2,0.2-0.4,0.4-0.4h1.1c0.2,0,0.4,0.2,0.4,0.4V13.1z"/>
	</g>
</g>
</svg>
