<?xml version="1.0" encoding="UTF-8" standalone="no"?>
<svg width="32px" height="32px" viewBox="0 0 32 32" version="1.1" xmlns="http://www.w3.org/2000/svg" xmlns:xlink="http://www.w3.org/1999/xlink" xmlns:sketch="http://www.bohemiancoding.com/sketch/ns">
    <!-- Generator: Sketch 3.3.3 (12072) - http://www.bohemiancoding.com/sketch -->
    <title>bookstore-slate-32</title>
    <desc>Created with Sketch.</desc>
    <defs></defs>
    <g id="bookstore" stroke="none" stroke-width="1" fill="none" fill-rule="evenodd" sketch:type="MSPage">
        <g id="bookstore-slate-32" sketch:type="MSArtboardGroup">
            <g id="symbol-copy-2" sketch:type="MSLayerGroup" transform="translate(9.000000, 2.000000)" fill="#000000">
                <path d="M16,28 C15.494912,28 15.1923297,27.6213427 15.1966911,27.0071002 C15.201068,26.3906813 15.5151078,26 16,26 C16.5522847,26 17,25.5522847 17,25 C17,24.4477153 16.5522847,24 16,24 C14.3045469,24 13.208309,25.3637747 13.1967415,26.9928998 C13.1850957,28.633061 14.2774066,30 16,30 C16.5522847,30 17,29.5522847 17,29 C17,28.4477153 16.5522847,28 16,28 L16,28 Z" id="Shape" sketch:type="MSShapeGroup"></path>
                <path d="M0.0359840897,26.0052986 C0.0449749419,27.7021155 0.819895269,28.8800708 2.06386998,29.5140698 C2.78477321,29.8814824 3.4849625,30.0002705 4.0005157,29.9999999 L4.0006998,29.9999998 L16.0357131,30.0030924 C16.5879978,30.0032343 17.0358281,29.5556341 17.03597,29.0033494 C17.0361119,28.4510647 16.5885117,28.0032344 16.036227,28.0030925 L4.00025693,28 L3.99929087,28.0000003 C3.77172922,28.0001197 3.36114717,27.9304638 2.97203543,27.7321508 C2.37543917,27.428092 2.04085617,26.9194928 2.03595601,25.9947014 C2.03302969,25.4424244 1.58294847,24.9970877 1.03067147,25.000014 C0.478394472,25.0029404 0.0330577629,25.4530216 0.0359840897,26.0052986 L0.0359840897,26.0052986 Z" id="Shape" sketch:type="MSShapeGroup"></path>
                <path d="M2,10.0008717 C2,9.76720385 2.20448948,9.36932164 2.39867299,9.23085818 L8.59265927,4.81420727 L8.01208496,5 L15.004476,5 C15.0055627,5 15,4.99445221 15,4.99874609 L15,24.0012539 C15,23.9996703 14.9996679,24 14.992516,24 L2.00748397,24 C2.00013835,24 2,23.9998629 2,23.9991283 L2,10.0008717 L2,10.0008717 Z M0,10.0008717 L0,23.9991283 C0,25.1084753 0.899571781,26 2.00748397,26 L14.992516,26 C16.1010096,26 17,25.1074935 17,24.0012539 L17,4.99874609 C17,3.88867575 16.1089289,3 15.004476,3 L8.01208496,3 L7.69206954,3 L7.43151066,3.18579273 L1.23752438,7.60244364 C0.516402518,8.11664295 0,9.12142512 0,10.0008717 L0,10.0008717 Z" id="Shape" sketch:type="MSShapeGroup"></path>
                <path d="M0,8.99339768 C0,8.44475929 0.365989685,7.73382568 0.808856264,7.4117409 L10.1911437,0.588259101 C10.6378627,0.263372571 11,0.454708934 11,0.999960201 L11,16.0000398 C11,16.5523026 10.6587297,17.2792212 10.2265014,17.6328625 L0.773498639,25.3671375 C0.346307137,25.7166578 0,25.5550537 0,25.0066023 L0,8.99339768 Z" id="Rectangle-4" sketch:type="MSShapeGroup"></path>
            </g>
            <g id="symbol-copy" sketch:type="MSLayerGroup" transform="translate(8.000000, 1.000000)" fill="#000000">
                <path d="M16,28 C15.494912,28 15.1923297,27.6213427 15.1966911,27.0071002 C15.201068,26.3906813 15.5151078,26 16,26 C16.5522847,26 17,25.5522847 17,25 C17,24.4477153 16.5522847,24 16,24 C14.3045469,24 13.208309,25.3637747 13.1967415,26.9928998 C13.1850957,28.633061 14.2774066,30 16,30 C16.5522847,30 17,29.5522847 17,29 C17,28.4477153 16.5522847,28 16,28 L16,28 Z" id="Shape" sketch:type="MSShapeGroup"></path>
                <path d="M0.0359840897,26.0052986 C0.0449749419,27.7021155 0.819895269,28.8800708 2.06386998,29.5140698 C2.78477321,29.8814824 3.4849625,30.0002705 4.0005157,29.9999999 L4.0006998,29.9999998 L16.0357131,30.0030924 C16.5879978,30.0032343 17.0358281,29.5556341 17.03597,29.0033494 C17.0361119,28.4510647 16.5885117,28.0032344 16.036227,28.0030925 L4.00025693,28 L3.99929087,28.0000003 C3.77172922,28.0001197 3.36114717,27.9304638 2.97203543,27.7321508 C2.37543917,27.428092 2.04085617,26.9194928 2.03595601,25.9947014 C2.03302969,25.4424244 1.58294847,24.9970877 1.03067147,25.000014 C0.478394472,25.0029404 0.0330577629,25.4530216 0.0359840897,26.0052986 L0.0359840897,26.0052986 Z" id="Shape" sketch:type="MSShapeGroup"></path>
                <path d="M2,10.0008717 C2,9.76720385 2.20448948,9.36932164 2.39867299,9.23085818 L8.59265927,4.81420727 L8.01208496,5 L15.004476,5 C15.0055627,5 15,4.99445221 15,4.99874609 L15,24.0012539 C15,23.9996703 14.9996679,24 14.992516,24 L2.00748397,24 C2.00013835,24 2,23.9998629 2,23.9991283 L2,10.0008717 L2,10.0008717 Z M0,10.0008717 L0,23.9991283 C0,25.1084753 0.899571781,26 2.00748397,26 L14.992516,26 C16.1010096,26 17,25.1074935 17,24.0012539 L17,4.99874609 C17,3.88867575 16.1089289,3 15.004476,3 L8.01208496,3 L7.69206954,3 L7.43151066,3.18579273 L1.23752438,7.60244364 C0.516402518,8.11664295 0,9.12142512 0,10.0008717 L0,10.0008717 Z" id="Shape" sketch:type="MSShapeGroup"></path>
                <path d="M0,8.99339768 C0,8.44475929 0.365989685,7.73382568 0.808856264,7.4117409 L10.1911437,0.588259101 C10.6378627,0.263372571 11,0.454708934 11,0.999960201 L11,16.0000398 C11,16.5523026 10.6587297,17.2792212 10.2265014,17.6328625 L0.773498639,25.3671375 C0.346307137,25.7166578 0,25.5550537 0,25.0066023 L0,8.99339768 Z" id="Rectangle-4" sketch:type="MSShapeGroup"></path>
            </g>
            <g id="symbol" sketch:type="MSLayerGroup" transform="translate(7.000000, 0.000000)" fill="#E6E6E6">
                <path d="M16,28 C15.494912,28 15.1923297,27.6213427 15.1966911,27.0071002 C15.201068,26.3906813 15.5151078,26 16,26 C16.5522847,26 17,25.5522847 17,25 C17,24.4477153 16.5522847,24 16,24 C14.3045469,24 13.208309,25.3637747 13.1967415,26.9928998 C13.1850957,28.633061 14.2774066,30 16,30 C16.5522847,30 17,29.5522847 17,29 C17,28.4477153 16.5522847,28 16,28 L16,28 Z" id="Shape" sketch:type="MSShapeGroup"></path>
                <path d="M0.0359840897,26.0052986 C0.0449749419,27.7021155 0.819895269,28.8800708 2.06386998,29.5140698 C2.78477321,29.8814824 3.4849625,30.0002705 4.0005157,29.9999999 L4.0006998,29.9999998 L16.0357131,30.0030924 C16.5879978,30.0032343 17.0358281,29.5556341 17.03597,29.0033494 C17.0361119,28.4510647 16.5885117,28.0032344 16.036227,28.0030925 L4.00025693,28 L3.99929087,28.0000003 C3.77172922,28.0001197 3.36114717,27.9304638 2.97203543,27.7321508 C2.37543917,27.428092 2.04085617,26.9194928 2.03595601,25.9947014 C2.03302969,25.4424244 1.58294847,24.9970877 1.03067147,25.000014 C0.478394472,25.0029404 0.0330577629,25.4530216 0.0359840897,26.0052986 L0.0359840897,26.0052986 Z" id="Shape" sketch:type="MSShapeGroup"></path>
                <path d="M2,10.0008717 C2,9.76720385 2.20448948,9.36932164 2.39867299,9.23085818 L8.59265927,4.81420727 L8.01208496,5 L15.004476,5 C15.0055627,5 15,4.99445221 15,4.99874609 L15,24.0012539 C15,23.9996703 14.9996679,24 14.992516,24 L2.00748397,24 C2.00013835,24 2,23.9998629 2,23.9991283 L2,10.0008717 L2,10.0008717 Z M0,10.0008717 L0,23.9991283 C0,25.1084753 0.899571781,26 2.00748397,26 L14.992516,26 C16.1010096,26 17,25.1074935 17,24.0012539 L17,4.99874609 C17,3.88867575 16.1089289,3 15.004476,3 L8.01208496,3 L7.69206954,3 L7.43151066,3.18579273 L1.23752438,7.60244364 C0.516402518,8.11664295 0,9.12142512 0,10.0008717 L0,10.0008717 Z" id="Shape" sketch:type="MSShapeGroup"></path>
                <path d="M0,8.99339768 C0,8.44475929 0.365989685,7.73382568 0.808856264,7.4117409 L10.1911437,0.588259101 C10.6378627,0.263372571 11,0.454708934 11,0.999960201 L11,16.0000398 C11,16.5523026 10.6587297,17.2792212 10.2265014,17.6328625 L0.773498639,25.3671375 C0.346307137,25.7166578 0,25.5550537 0,25.0066023 L0,8.99339768 Z" id="Rectangle-4" sketch:type="MSShapeGroup"></path>
            </g>
        </g>
    </g>
</svg>