<?xml version="1.0" encoding="utf-8"?>
<!-- Generator: Adobe Illustrator 20.0.0, SVG Export Plug-In . SVG Version: 6.00 Build 0)  -->
<svg version="1.1" id="Layer_1" xmlns:sketch="http://www.bohemiancoding.com/sketch/ns"
	 xmlns="http://www.w3.org/2000/svg" xmlns:xlink="http://www.w3.org/1999/xlink" x="0px" y="0px" width="22px" height="22px"
	 viewBox="0 0 22 22" style="enable-background:new 0 0 22 22;" xml:space="preserve">
<g id="symbol" transform="translate(5.000000, 0.000000)" sketch:type="MSLayerGroup">
	<path fill="#231F20" id="Shape_6_" sketch:type="MSShapeGroup" d="M11.6,20.7c-0.6,0-0.9-0.4-0.9-0.9c0-0.5,0.3-0.9,0.9-0.9c0.3,0,0.5-0.2,0.5-0.5
		S11.9,18,11.6,18c-1.1,0-1.9,0.8-1.9,1.9c0,1,0.7,1.9,1.9,1.9c0.3,0,0.5-0.2,0.5-0.5S11.9,20.7,11.6,20.7L11.6,20.7z"/>
	<path fill="#231F20" id="Shape_7_" sketch:type="MSShapeGroup" d="M0,18C0,18,0,18,0,18c0,3.1,0.5,4,2.7,4l8.9,0c0.3,0,0.5-0.2,0.5-0.5
		c0-0.3-0.2-0.5-0.5-0.5H3c-1.5,0-2-0.5-2-3c0,0,0,0,0-0.1c0-0.3-0.2-0.5-0.5-0.5S0,17.7,0,18L0,18z"/>
	<path fill="#231F20" id="Shape_8_" sketch:type="MSShapeGroup" d="M0,8c0-0.6,5-5,5-5h5h1c0.6,0,1,0.4,1,1v14c0,0.6-0.4,1-1,1H1c-0.6,0-1-0.4-1-1
		V8z M4,4L1,18c0,0,10,0,10,0c0,0,0-14,0-14C11,4,4,4,4,4z"/>
	<path fill="#231F20" id="Rectangle-4_2_" sketch:type="MSShapeGroup" d="M0,6.8c0-0.5,0.4-1.3,0.8-1.6l6.4-4.7C7.7,0.2,8,0.4,8,1v10
		c0,0.6-0.3,1.7-0.7,2.1l-6.5,5.3C0.4,18.8,0,18.6,0,18V6.8z"/>
</g>
</svg>
