<?xml version="1.0" encoding="utf-8"?>
<!-- Generator: Adobe Illustrator 22.0.1, SVG Export Plug-In . SVG Version: 6.00 Build 0)  -->
<svg version="1.1" id="Layer_1" xmlns="http://www.w3.org/2000/svg" xmlns:xlink="http://www.w3.org/1999/xlink" x="0px" y="0px"
	 width="30px" height="30px" viewBox="0 0 30 30" enable-background="new 0 0 30 30" xml:space="preserve">
<path d="M1.5,26.2c0,0,0-0.6,0-0.7c0.9,0,6,0,8.3,0c-0.1,0.3-0.2,0.6-0.3,0.9c-0.1,0.4,0,0.8,0.1,1.1l-6.9,0
	C2.1,27.4,1.5,26.9,1.5,26.2z M11,10c0,1.3,0,12.7,0,14c-0.9,0-6,0-8.1,0l5.4-4.5l0-9.5C8.8,9.9,10.5,10,11,10z M12.3,27.5h-0.4
	c-0.2-0.2-0.3-2-0.1-2l0.6,0c0.3-0.1,0.5-0.4,0.5-0.7l0-15.6c0-0.4-0.3-0.8-0.8-0.8c0,0-3,0-3.9,0c0-0.7,0-1.7,0-1.7
	c0-0.3-0.2-0.6-0.5-0.7C7.5,5.8,7.2,5.9,7,6.1l-5.3,5.2C0.8,12.2,0,14,0,15.3l0,10.9C0,27.7,1.2,29,2.8,29l9.5,0
	c0.4,0,0.8-0.5,0.8-1C13,28,12.7,27.5,12.3,27.5z"/>
<path d="M28,8h-2.5l2.9-1.2c0.3-0.1,0.5-0.5,0.3-0.8c-0.1-0.3-0.5-0.5-0.8-0.3c0,0-1.6,0.7-3.3,1.3c1.3-1.3,2.7-2.7,2.7-2.7
	c0.1-0.1,0.2-0.3,0.2-0.4c0-0.2-0.1-0.3-0.2-0.4c-0.2-0.2-0.6-0.2-0.9,0l-3.8,3.7l0-5.3c0-0.3-0.3-0.6-0.6-0.6h0
	c-0.3,0-0.6,0.3-0.6,0.6c0,0,0,3.5,0,5.3c-1.2-1.2-3.4-3.4-3.4-3.4c-0.2-0.2-0.6-0.2-0.9,0c-0.2,0.2-0.2,0.6,0,0.9l2.3,2.4l-3.4-1.3
	c-0.3-0.1-0.7,0-0.8,0.3c-0.1,0.3,0,0.7,0.3,0.8L18.7,8H16c-1.1,0-2,0.9-2,2v6v2v9c0,1.1,0.9,2,2,2h5h2h5c1.1,0,2-0.9,2-2v-9v-2v-6
	C30,8.9,29.1,8,28,8z M21,27h-5v-9h5V27z M21,16h-5v-6h5V16z M28,27h-5v-9h5V27z M28,16h-5v-6h5V16z"/>
</svg>
