<?xml version="1.0" encoding="utf-8"?>
<!-- Generator: Adobe Illustrator 20.0.0, SVG Export Plug-In . SVG Version: 6.00 Build 0)  -->
<svg version="1.1" id="Layer_1" xmlns:sketch="http://www.bohemiancoding.com/sketch/ns"
	 xmlns="http://www.w3.org/2000/svg" xmlns:xlink="http://www.w3.org/1999/xlink" x="0px" y="0px" width="14px" height="14px"
	 viewBox="0 0 14 14" style="enable-background:new 0 0 14 14;" xml:space="preserve">
<g id="symbol" transform="translate(4.000000, 0.000000)" sketch:type="MSLayerGroup">
	<rect fill="#FFFFFF" id="Rectangle-10_2_" x="5" y="12" sketch:type="MSShapeGroup" width="1" height="1">
	</rect>
	<path fill="#FFFFFF" id="Rectangle-11_2_" sketch:type="MSShapeGroup" d="M-1,11h1v1.7V14h-1V11z"/>
	<path fill="#FFFFFF" id="Rectangle-12_2_" sketch:type="MSShapeGroup" d="M0,13h6c0.6,0,1,0.2,1,0.5l0,0C7,13.8,6.6,14,6,14H0c-0.6,0-1-0.2-1-0.5
		l0,0C-1,13.2-0.6,13,0,13z"/>
	<path fill="#FFFFFF" id="Shape_2_" sketch:type="MSShapeGroup" d="M0,3L0,3v8c0,0,0,0,0,0h6c0,0,0,0,0,0V3c0,0,0,0,0,0L0,3C0,3,0,3,0,3L0,3L0,3z
		 M0,3c0,0,1.5-1,2-1h4c0.6,0,1,0.5,1,1v8c0,0.5-0.5,1-1,1H0c-0.6,0-1-0.5-1-1V5L0,3z"/>
	<path fill="#FFFFFF" id="Rectangle-4_2_" sketch:type="MSShapeGroup" d="M-1,4.4c0-0.6,0.4-1.3,0.8-1.6l3.4-2.6C3.6-0.2,4,0,4,0.6v6.1
		C4,7.2,3.7,8,3.2,8.3l-3.5,3C-0.7,11.7-1,11.5-1,11V4.4z"/>
</g>
</svg>
