<?xml version="1.0" encoding="utf-8"?>
<!-- Generator: Adobe Illustrator 22.0.1, SVG Export Plug-In . SVG Version: 6.00 Build 0)  -->
<svg version="1.1" id="Layer_1" xmlns="http://www.w3.org/2000/svg" xmlns:xlink="http://www.w3.org/1999/xlink" x="0px" y="0px"
	 width="14px" height="14px" viewBox="0 0 14 14" enable-background="new 0 0 14 14" xml:space="preserve">
<path d="M0.9,12.4C0.9,12.4,1,12,1,12c0.4,0,2.9,0,4,0c-0.1,0.1-0.3,0.3-0.3,0.5c0,0.2,0,0.4,0,0.5l-3.2,0C1.2,13,0.9,12.7,0.9,12.4
	z M5,5.1c0,0.6,0,5.3,0,5.9c-0.4,0-2.9,0-2.9,0l1.8-1.5l0-4.5C4.1,5.1,4.8,5.1,5,5.1z M5.4,13.3H5.3c-0.1-0.1-0.1-0.2-0.1-0.4
	c0-0.3,0.2-0.5,0.3-0.5v0c0.1,0,0.2-0.2,0.2-0.3l0-7.3c0-0.2-0.2-0.4-0.4-0.4c0,0-1.1,0-1.5,0c0-0.3,0-0.8,0-0.8
	c0-0.1-0.1-0.3-0.2-0.3c-0.1-0.1-0.3,0-0.4,0.1L0.8,5.8C0.4,6.2,0,7,0,7.6l0,5.1C0,13.4,0.6,14,1.3,14l4.1,0c0.2,0,0.4-0.2,0.4-0.4
	v0C5.8,13.5,5.6,13.3,5.4,13.3z"/>
<path d="M13,4h-1.3l1.2-1.2l-0.7-0.7L11,3.3V1h-1v2.3L8.8,2.1L8.1,2.8L9.3,4H8C7.5,4,7,4.5,7,5v3v1v4c0,0.5,0.5,1,1,1h2h1h2
	c0.5,0,1-0.5,1-1V9V8V5C14,4.5,13.5,4,13,4z M10,13H8V9h2V13z M10,8H8V5h2V8z M13,13h-2V9h2V13z M13,8h-2V5h2V8z"/>
</svg>
