<?xml version="1.0" encoding="utf-8"?>
<!-- Generator: Adobe Illustrator 22.0.1, SVG Export Plug-In . SVG Version: 6.00 Build 0)  -->
<svg version="1.1" id="Layer_1" xmlns="http://www.w3.org/2000/svg" xmlns:xlink="http://www.w3.org/1999/xlink" x="0px" y="0px"
	 width="22px" height="22px" viewBox="0 0 22 22" enable-background="new 0 0 22 22" xml:space="preserve">
<path d="M1.1,19.2c0,0,0-0.5,0-0.5c0.7,0,4.4,0,6.1,0c-0.1,0.2-0.2,0.4-0.2,0.6c-0.1,0.3,0,0.4,0,0.7H2C1.5,20,1.1,19.7,1.1,19.2z
	 M8,7c0,1,0,10,0,11c-0.7,0-4.4,0-6,0l4-3.8V7C6.4,7,7.7,7,8,7z M8.5,19.9H8.3c-0.2-0.2-0.2-0.2-0.2-0.4c0.1-0.4,0.4-0.8,0.5-0.9v0
	C8.9,18.6,9,18.4,9,18.1V6.7c0-0.3-0.2-0.6-0.5-0.6c0,0-1.8,0-2.4,0c0-0.5,0-1.3,0-1.3c0-0.2-0.1-0.4-0.3-0.5
	c-0.2-0.1-0.4,0-0.6,0.1L1.2,8.3C0.6,9,0,10.3,0,11.2L0,19c0,1.1,0.9,2,2,2l6.5,0c0.3,0,0.6-0.2,0.6-0.5v0.2
	C9.1,20.4,8.9,19.9,8.5,19.9z"/>
<path d="M21,6h-2l2.1-0.9c0.2-0.1,0.3-0.4,0.2-0.6c-0.1-0.2-0.4-0.3-0.6-0.2c0,0-1.2,0.5-2.4,1c1-1,2-1.9,2-1.9
	c0.1-0.1,0.1-0.2,0.1-0.3c0-0.1,0-0.2-0.1-0.3c-0.2-0.2-0.5-0.2-0.6,0L17,5.4l0-3.9c0-0.2-0.2-0.4-0.4-0.4h0c-0.2,0-0.4,0.2-0.4,0.4
	c0,0,0,2.6,0,3.9c-0.9-0.9-2.5-2.5-2.5-2.5c-0.2-0.2-0.5-0.2-0.6,0c-0.2,0.2-0.2,0.5,0,0.6l1.7,1.7l-2.5-1c-0.2-0.1-0.5,0-0.6,0.2
	c-0.1,0.2,0,0.5,0.2,0.6L14,6h-2c-0.5,0-1,0.5-1,1v5v1v7c0,0.5,0.5,1,1,1h4h1h4c0.5,0,1-0.5,1-1v-7v-1V7C22,6.5,21.5,6,21,6z M16,20
	h-4v-7h4V20z M16,12h-4V7h4V12z M21,20h-4v-7h4V20z M21,12h-4V7h4V12z"/>
</svg>
