<?xml version="1.0" encoding="UTF-8" standalone="no"?>
<svg width="24px" height="24px" viewBox="0 0 24 24" version="1.1" xmlns="http://www.w3.org/2000/svg" xmlns:xlink="http://www.w3.org/1999/xlink" xmlns:sketch="http://www.bohemiancoding.com/sketch/ns">
    <!-- Generator: Sketch 3.3.3 (12072) - http://www.bohemiancoding.com/sketch -->
    <title>bookstore-black-24</title>
    <desc>Created with Sketch.</desc>
    <defs></defs>
    <g id="bookstore" stroke="none" stroke-width="1" fill="none" fill-rule="evenodd" sketch:type="MSPage">
        <g id="bookstore-black-24" sketch:type="MSArtboardGroup" fill="#000000">
            <g id="symbol-copy-2" sketch:type="MSLayerGroup" transform="translate(7.000000, 2.000000)">
                <path d="M12.5384615,20.75 C11.9734659,20.75 11.6498472,20.3873737 11.6538787,19.8789648 C11.6579178,19.369609 11.9897221,19 12.5384615,19 C12.8146039,19 13.0384615,18.7761424 13.0384615,18.5 C13.0384615,18.2238576 12.8146039,18 12.5384615,18 C11.4131248,18 10.6621132,18.8365795 10.6539102,19.8710352 C10.6456513,20.9125288 11.3930361,21.75 12.5384615,21.75 C12.8146039,21.75 13.0384615,21.5261424 13.0384615,21.25 C13.0384615,20.9738576 12.8146039,20.75 12.5384615,20.75 L12.5384615,20.75 Z" id="Shape" sketch:type="MSShapeGroup"></path>
                <path d="M0.961546363,18.0028109 C0.961731075,18.0358639 0.961731075,18.0358639 0.961913386,18.0688105 C0.978535357,21.0693465 1.41280488,22.0311016 3.65119118,22.0273831 L12.538257,22.0310199 C12.8143993,22.0311328 13.0383485,21.8073668 13.0384615,21.5312245 C13.0385745,21.2550821 12.8148084,21.0311329 12.5386661,21.03102 L3.65056512,21.0273839 C2.18158574,21.0298231 1.97580718,20.5740956 1.96189804,18.0632709 C1.96171572,18.0303228 1.96171572,18.0303228 1.96153056,17.9971891 C1.95997815,17.7210511 1.73486558,17.4984555 1.45872757,17.5000079 C1.18258956,17.5015603 0.95999395,17.7266729 0.961546363,18.0028109 L0.961546363,18.0028109 Z" id="Shape" sketch:type="MSShapeGroup"></path>
                <path d="M1,8.00087166 C1,7.4481055 6.00247329,3 6.00247329,3 L11.3046875,3 L11.9975267,3 C12.5511774,3 13,3.44463086 13,4.00087166 L13,17.9991283 C13,18.5518945 12.544239,19 11.9975267,19 L2.00247329,19 C1.44882258,19 1,18.5553691 1,17.9991283 L1,8.00087166 Z M5.00013122,4.00087166 L2.00013122,17.9991283 C2.00013122,18.000987 11.9975267,18 11.9975267,18 C11.9957712,18 12,4.00087166 12,4.00087166 C12,3.99901302 5.00013122,4.00087166 5.00013122,4.00087166 Z" id="Shape" sketch:type="MSShapeGroup"></path>
                <path d="M1,6.85881206 C1,6.31086529 1.36453152,5.59934355 1.81110799,5.27185414 L8.18889201,0.594812528 C8.63685458,0.26630664 9,0.443695267 9,0.99912597 L9,11.4675407 C9,12.0193427 8.65625,12.7502604 8.23292637,13.0995024 L1.76707363,18.4338309 C1.34343056,18.7833365 1,18.627479 1,18.0745213 L1,6.85881206 Z" id="Rectangle-4" sketch:type="MSShapeGroup"></path>
            </g>
            <g id="symbol-copy" sketch:type="MSLayerGroup" transform="translate(6.000000, 1.000000)">
                <path d="M12.5384615,20.75 C11.9734659,20.75 11.6498472,20.3873737 11.6538787,19.8789648 C11.6579178,19.369609 11.9897221,19 12.5384615,19 C12.8146039,19 13.0384615,18.7761424 13.0384615,18.5 C13.0384615,18.2238576 12.8146039,18 12.5384615,18 C11.4131248,18 10.6621132,18.8365795 10.6539102,19.8710352 C10.6456513,20.9125288 11.3930361,21.75 12.5384615,21.75 C12.8146039,21.75 13.0384615,21.5261424 13.0384615,21.25 C13.0384615,20.9738576 12.8146039,20.75 12.5384615,20.75 L12.5384615,20.75 Z" id="Shape" sketch:type="MSShapeGroup"></path>
                <path d="M0.961546363,18.0028109 C0.961731075,18.0358639 0.961731075,18.0358639 0.961913386,18.0688105 C0.978535357,21.0693465 1.41280488,22.0311016 3.65119118,22.0273831 L12.538257,22.0310199 C12.8143993,22.0311328 13.0383485,21.8073668 13.0384615,21.5312245 C13.0385745,21.2550821 12.8148084,21.0311329 12.5386661,21.03102 L3.65056512,21.0273839 C2.18158574,21.0298231 1.97580718,20.5740956 1.96189804,18.0632709 C1.96171572,18.0303228 1.96171572,18.0303228 1.96153056,17.9971891 C1.95997815,17.7210511 1.73486558,17.4984555 1.45872757,17.5000079 C1.18258956,17.5015603 0.95999395,17.7266729 0.961546363,18.0028109 L0.961546363,18.0028109 Z" id="Shape" sketch:type="MSShapeGroup"></path>
                <path d="M1,8.00087166 C1,7.4481055 6.00247329,3 6.00247329,3 L11.3046875,3 L11.9975267,3 C12.5511774,3 13,3.44463086 13,4.00087166 L13,17.9991283 C13,18.5518945 12.544239,19 11.9975267,19 L2.00247329,19 C1.44882258,19 1,18.5553691 1,17.9991283 L1,8.00087166 Z M5.00013122,4.00087166 L2.00013122,17.9991283 C2.00013122,18.000987 11.9975267,18 11.9975267,18 C11.9957712,18 12,4.00087166 12,4.00087166 C12,3.99901302 5.00013122,4.00087166 5.00013122,4.00087166 Z" id="Shape" sketch:type="MSShapeGroup"></path>
                <path d="M1,6.85881206 C1,6.31086529 1.36453152,5.59934355 1.81110799,5.27185414 L8.18889201,0.594812528 C8.63685458,0.26630664 9,0.443695267 9,0.99912597 L9,11.4675407 C9,12.0193427 8.65625,12.7502604 8.23292637,13.0995024 L1.76707363,18.4338309 C1.34343056,18.7833365 1,18.627479 1,18.0745213 L1,6.85881206 Z" id="Rectangle-4" sketch:type="MSShapeGroup"></path>
            </g>
            <g id="symbol" sketch:type="MSLayerGroup" transform="translate(5.000000, 0.000000)">
                <path d="M12.5384615,20.75 C11.9734659,20.75 11.6498472,20.3873737 11.6538787,19.8789648 C11.6579178,19.369609 11.9897221,19 12.5384615,19 C12.8146039,19 13.0384615,18.7761424 13.0384615,18.5 C13.0384615,18.2238576 12.8146039,18 12.5384615,18 C11.4131248,18 10.6621132,18.8365795 10.6539102,19.8710352 C10.6456513,20.9125288 11.3930361,21.75 12.5384615,21.75 C12.8146039,21.75 13.0384615,21.5261424 13.0384615,21.25 C13.0384615,20.9738576 12.8146039,20.75 12.5384615,20.75 L12.5384615,20.75 Z" id="Shape" sketch:type="MSShapeGroup"></path>
                <path d="M0.961546363,18.0028109 C0.961731075,18.0358639 0.961731075,18.0358639 0.961913386,18.0688105 C0.978535357,21.0693465 1.41280488,22.0311016 3.65119118,22.0273831 L12.538257,22.0310199 C12.8143993,22.0311328 13.0383485,21.8073668 13.0384615,21.5312245 C13.0385745,21.2550821 12.8148084,21.0311329 12.5386661,21.03102 L3.65056512,21.0273839 C2.18158574,21.0298231 1.97580718,20.5740956 1.96189804,18.0632709 C1.96171572,18.0303228 1.96171572,18.0303228 1.96153056,17.9971891 C1.95997815,17.7210511 1.73486558,17.4984555 1.45872757,17.5000079 C1.18258956,17.5015603 0.95999395,17.7266729 0.961546363,18.0028109 L0.961546363,18.0028109 Z" id="Shape" sketch:type="MSShapeGroup"></path>
                <path d="M1,8.00087166 C1,7.4481055 6.00247329,3 6.00247329,3 L11.3046875,3 L11.9975267,3 C12.5511774,3 13,3.44463086 13,4.00087166 L13,17.9991283 C13,18.5518945 12.544239,19 11.9975267,19 L2.00247329,19 C1.44882258,19 1,18.5553691 1,17.9991283 L1,8.00087166 Z M5.00013122,4.00087166 L2.00013122,17.9991283 C2.00013122,18.000987 11.9975267,18 11.9975267,18 C11.9957712,18 12,4.00087166 12,4.00087166 C12,3.99901302 5.00013122,4.00087166 5.00013122,4.00087166 Z" id="Shape" sketch:type="MSShapeGroup"></path>
                <path d="M1,6.85881206 C1,6.31086529 1.36453152,5.59934355 1.81110799,5.27185414 L8.18889201,0.594812528 C8.63685458,0.26630664 9,0.443695267 9,0.99912597 L9,11.4675407 C9,12.0193427 8.65625,12.7502604 8.23292637,13.0995024 L1.76707363,18.4338309 C1.34343056,18.7833365 1,18.627479 1,18.0745213 L1,6.85881206 Z" id="Rectangle-4" sketch:type="MSShapeGroup"></path>
            </g>
        </g>
    </g>
</svg>