<?xml version="1.0" encoding="utf-8"?>
<!-- Generator: Adobe Illustrator 20.0.0, SVG Export Plug-In . SVG Version: 6.00 Build 0)  -->
<svg version="1.1" id="Layer_1" xmlns:sketch="http://www.bohemiancoding.com/sketch/ns"
	 xmlns="http://www.w3.org/2000/svg" xmlns:xlink="http://www.w3.org/1999/xlink" x="0px" y="0px" width="30px" height="30px"
	 viewBox="0 0 30 30" style="enable-background:new 0 0 30 30;" xml:space="preserve">
<g id="symbol" transform="translate(7.000000, 0.000000)" sketch:type="MSLayerGroup">
	<path fill="#FFFFFF" id="Shape_6_" sketch:type="MSShapeGroup" d="M16,28c-0.5,0-0.8-0.4-0.8-1c0-0.6,0.3-1,0.8-1c0.6,0,1-0.4,1-1s-0.4-1-1-1
		c-1.7,0-2.8,1.4-2.8,3c0,1.6,1.1,3,2.8,3c0.6,0,1-0.4,1-1S16.6,28,16,28L16,28z"/>
	<path fill="#FFFFFF" id="Shape_7_" sketch:type="MSShapeGroup" d="M0,26c0,1.7,0.8,2.9,2,3.5C2.8,29.9,3.5,30,4,30h12c0.6,0,1-0.4,1-1
		c0-0.6-0.4-1-1-1L4,28h0c-0.2,0-0.6-0.1-1-0.3C2.4,27.4,2,26.9,2,26c0-0.6-0.5-1-1-1C0.5,25,0,25.5,0,26L0,26z"/>
	<path fill="#FFFFFF" id="Shape_8_" sketch:type="MSShapeGroup" d="M2,10c0-0.2,0.2-0.6,0.4-0.8l6.2-4.4L8,5h7c0,0,0,0,0,0v19c0,0,0,0,0,0H2
		c0,0,0,0,0,0V10L2,10z M0,10v14c0,1.1,0.9,2,2,2h13c1.1,0,2-0.9,2-2V5c0-1.1-0.9-2-2-2H8H7.7L7.4,3.2L1.2,7.6C0.5,8.1,0,9.1,0,10
		L0,10z"/>
	<path fill="#FFFFFF" id="Rectangle-4_2_" sketch:type="MSShapeGroup" d="M0,9c0-0.5,0.4-1.3,0.8-1.6l9.4-6.8C10.6,0.3,11,0.5,11,1v15
		c0,0.6-0.3,1.3-0.8,1.6l-9.5,7.7C0.3,25.7,0,25.6,0,25V9z"/>
</g>
</svg>
