<?xml version="1.0" encoding="utf-8"?>
<!-- Generator: Adobe Illustrator 21.1.0, SVG Export Plug-In . SVG Version: 6.00 Build 0)  -->
<svg version="1.1" id="Layer_1" xmlns="http://www.w3.org/2000/svg" xmlns:xlink="http://www.w3.org/1999/xlink" x="0px" y="0px"
	 width="14px" height="14px" viewBox="0 0 14 14" enable-background="new 0 0 14 14" xml:space="preserve">
<path fill="#000000" d="M0.8,0c0.8,0,3.9,1.1,4.9,2.9L4.6,3.8c0,0-1.6-1.6-3.8-2V0z"/>
<path fill="#000000" d="M4.6,6.7c0,0.5,0.4,0.9,0.9,0.9c0.5,0,0.9-0.4,0.9-0.9C6.4,6.2,5.5,5,5.5,5S4.6,6.2,4.6,6.7z"/>
<path fill="#000000" d="M10.2,2C10.1,2,10,1.8,10,1.7l0,0c0-0.1,0.1-0.2,0.1-0.2c-0.1,0-0.1-0.1-0.1-0.2l0,0C10,1.2,10.1,1,10.3,1
	h1.5C11.9,1,12,1.2,12,1.3l0,0c0,0.1-0.1,0.2-0.1,0.2c0.1,0,0.1,0.1,0.1,0.2l0,0C12,1.8,11.9,2,11.8,2l1.1,3.5C13,5.8,13,6.1,13,6.3
	v7.2c0,0.3-0.2,0.5-0.5,0.5h-3c-0.3,0-0.5-0.2-0.5-0.5V6.3c0-0.3,0-0.6,0.1-0.8L10.2,2z"/>
</svg>
