<?xml version="1.0" encoding="utf-8"?>
<!-- Generator: Adobe Illustrator 22.1.0, SVG Export Plug-In . SVG Version: 6.00 Build 0)  -->
<svg version="1.1" id="Layer_1" xmlns="http://www.w3.org/2000/svg" xmlns:xlink="http://www.w3.org/1999/xlink" x="0px" y="0px"
	 width="14px" height="14px" viewBox="0 0 14 14" enable-background="new 0 0 14 14" xml:space="preserve">
<path d="M5,4.6c0.9,0.2,0.9,1,0.9,1.9v7.1c0,0.2-0.2,0.4-0.4,0.4H1.4C1.2,14,1,13.8,1,13.6V6.5c0-0.9,0.1-1.7,1-1.9V2h3V4.6z"/>
<rect x="2" width="3" height="1"/>
<path d="M9.9,2C9.8,2,9.7,1.9,9.7,1.7c0-0.1,0.1-0.2,0.1-0.2c-0.1,0-0.1-0.1-0.1-0.2c0-0.1,0.1-0.2,0.3-0.2h1.3
	c0.1,0,0.3,0.1,0.3,0.2c0,0.1-0.1,0.2-0.1,0.2c0.1,0,0.1,0.1,0.1,0.2c0,0.1-0.1,0.2-0.2,0.2l1.6,3.5C13,5.8,13,6.1,13,6.4v7.1
	c0,0.3-0.2,0.5-0.5,0.5H8.8c-0.3,0-0.5-0.2-0.5-0.5V6.4c0-0.3,0-0.6,0.1-0.8L9.9,2z"/>
</svg>
