<?xml version="1.0" encoding="utf-8"?>
<!-- Generator: Adobe Illustrator 22.1.0, SVG Export Plug-In . SVG Version: 6.00 Build 0)  -->
<svg version="1.1" id="Layer_1" xmlns="http://www.w3.org/2000/svg" xmlns:xlink="http://www.w3.org/1999/xlink" x="0px" y="0px"
	 width="22px" height="22px" viewBox="0 0 22 22" enable-background="new 0 0 22 22" xml:space="preserve">
<path fill="#FFFFFF" d="M7,7c1.4,0.3,2,1.5,2,3l0,11.4C9,21.7,8.7,22,8.3,22H2.7C2.3,22,2,21.7,2,21.4L2,10c0-1.5,0.6-2.7,2-3V2h3V7z"/>
<rect fill="#FFFFFF" x="4" y="0" width="3" height="1"/>
<path fill="#FFFFFF" d="M15.6,2.4c-0.2,0-0.3-0.2-0.3-0.4c0-0.1,0.1-0.3,0.2-0.3c-0.1-0.1-0.2-0.2-0.2-0.3c0-0.2,0.2-0.3,0.4-0.3h2
	c0.2,0,0.4,0.1,0.4,0.3c0,0.1-0.1,0.3-0.2,0.3C18,1.7,18.1,1.8,18.1,2c0,0.2-0.1,0.4-0.3,0.4l1.9,6.3c0.2,0.4,0.2,0.9,0.2,1.3v11.2
	c0,0.4-0.4,0.8-0.8,0.8h-5.4c-0.4,0-0.8-0.3-0.8-0.8V10c0-0.5,0-0.9,0.2-1.3L15.6,2.4z"/>
</svg>
