<?xml version="1.0" encoding="utf-8"?>
<!-- Generator: Adobe Illustrator 22.0.1, SVG Export Plug-In . SVG Version: 6.00 Build 0)  -->
<svg version="1.1" id="Layer_1" xmlns="http://www.w3.org/2000/svg" xmlns:xlink="http://www.w3.org/1999/xlink" x="0px" y="0px"
	 width="22px" height="22px" viewBox="0 0 22 22" enable-background="new 0 0 22 22" xml:space="preserve">
<path fill="#FFFFFF" d="M1.5,0c1.3,0,6.1,1.8,7.7,4.6L7.5,6c0,0-2.6-2.5-6-3.1V0z"/>
<path fill="#FFFFFF" d="M7.4,10.6c0,0.8,0.7,1.5,1.5,1.5c0.8,0,1.5-0.7,1.5-1.5S8.9,6.4,8.9,6.4S7.4,9.7,7.4,10.6z"/>
<path fill="#FFFFFF" d="M16.3,2.5c-0.2,0-0.3-0.2-0.3-0.4l0,0c0-0.1,0.1-0.3,0.2-0.3C16.1,1.7,16,1.5,16,1.4l0,0
	C16,1.2,16.2,1,16.4,1h2.2C18.8,1,19,1.2,19,1.4l0,0c0,0.1-0.1,0.3-0.2,0.3C18.9,1.8,19,1.9,19,2.1l0,0c0,0.2-0.1,0.4-0.3,0.4
	l2.1,6.2C20.9,9.1,21,9.5,21,10v11.3c0,0.4-0.3,0.8-0.8,0.8h-5.5c-0.4,0-0.8-0.3-0.8-0.8V10c0-0.5,0.1-0.9,0.2-1.3L16.3,2.5z"/>
</svg>
