<?xml version="1.0" encoding="utf-8"?>
<!-- Generator: Adobe Illustrator 22.0.1, SVG Export Plug-In . SVG Version: 6.00 Build 0)  -->
<svg version="1.1" id="Layer_1" xmlns="http://www.w3.org/2000/svg" xmlns:xlink="http://www.w3.org/1999/xlink" x="0px" y="0px"
	 width="30px" height="30px" viewBox="0 0 30 30" enable-background="new 0 0 30 30" xml:space="preserve">
<path fill="#FFFFFF" d="M2.1,0c1.7,0,8.3,2.5,10.5,6.3l-2.3,1.9c0,0-3.5-3.3-8.2-4.2C2.1,4,2.1,0,2.1,0z"/>
<path fill="#FFFFFF" d="M10.1,14.4c0,1.1,0.9,2,2,2s2-0.9,2-2s-2-5.8-2-5.8S10.1,13.3,10.1,14.4z"/>
<path fill="#FFFFFF" d="M21.6,3.1c-0.3,0-0.5-0.3-0.5-0.5l0,0c0-0.2,0.1-0.4,0.3-0.5c-0.2-0.1-0.3-0.3-0.3-0.5l0,0
	c0-0.3,0.2-0.5,0.5-0.5h2.6c0.3,0,0.5,0.2,0.5,0.5l0,0c0,0.2-0.1,0.4-0.3,0.5c0.2,0.1,0.3,0.3,0.3,0.5l0,0c0,0.3-0.2,0.5-0.5,0.5
	l3.2,8.7c0.2,0.6,0.3,1.2,0.3,1.8V29c0,0.6-0.5,1-1.1,1h-7.7c-0.6,0-1-0.5-1-1V13.6c0-0.6,0.1-1.3,0.3-1.8L21.6,3.1z"/>
</svg>
