<?xml version="1.0" encoding="utf-8"?>
<!-- Generator: Adobe Illustrator 22.1.0, SVG Export Plug-In . SVG Version: 6.00 Build 0)  -->
<svg version="1.1" id="Layer_1" xmlns="http://www.w3.org/2000/svg" xmlns:xlink="http://www.w3.org/1999/xlink" x="0px" y="0px"
	 width="30px" height="30px" viewBox="0 0 30 30" enable-background="new 0 0 30 30" xml:space="preserve">
<path d="M9,9.8c2.1,0.5,3,2.2,3,4.1v15.2c0,0.8-0.5,0.8-1,0.8H3c-0.5,0-0.9-0.4-1-0.8V13.9c0.1-2,1.5-3.7,3-4.1V3h4V9.8z"/>
<rect x="5" y="0" width="4" height="2"/>
<path d="M21.6,3c-0.3,0-0.5-0.3-0.5-0.5c0-0.2,0.1-0.4,0.3-0.5c-0.2-0.1-0.3-0.3-0.3-0.5c0-0.3,0.2-0.5,0.5-0.5h2.7
	c0.3,0,0.5,0.2,0.5,0.5c0,0.2-0.1,0.4-0.3,0.5c0.2,0.1,0.3,0.3,0.3,0.5c0,0.3-0.2,0.5-0.5,0.5l3.3,8.7c0.2,0.6,0.3,1.2,0.3,1.8v15.4
	c0,0.6-0.5,1.1-1.1,1.1h-7.9c-0.6,0-1.1-0.5-1.1-1.1V13.5c0-0.6,0.1-1.3,0.3-1.8L21.6,3z"/>
</svg>
