<?xml version="1.0" encoding="utf-8"?>
<!-- Generator: Adobe Illustrator 22.0.1, SVG Export Plug-In . SVG Version: 6.00 Build 0)  -->
<svg version="1.1" id="Layer_1" xmlns="http://www.w3.org/2000/svg" xmlns:xlink="http://www.w3.org/1999/xlink" x="0px" y="0px"
	 width="14px" height="14px" viewBox="0 0 14 14" enable-background="new 0 0 14 14" xml:space="preserve">
<path fill="#FFFFFF" d="M0.8,0c0.8,0,3.9,1.1,4.9,2.9L4.6,3.8c0,0-1.6-1.6-3.8-2C0.8,1.8,0.8,0,0.8,0z"/>
<path fill="#FFFFFF" d="M4.6,6.7c0,0.5,0.4,0.9,0.9,0.9s0.9-0.4,0.9-0.9S5.5,5,5.5,5S4.6,6.2,4.6,6.7z"/>
<path fill="#FFFFFF" d="M10.2,2C10.1,2,10,1.8,10,1.7l0,0c0-0.1,0.1-0.2,0.1-0.2C10,1.5,10,1.4,10,1.3l0,0C10,1.2,10.1,1,10.3,1h1.5
	C11.9,1,12,1.2,12,1.3l0,0c0,0.1-0.1,0.2-0.1,0.2C12,1.5,12,1.6,12,1.7l0,0C12,1.8,11.9,2,11.8,2l1.1,3.5C13,5.8,13,6.1,13,6.3v7.2
	c0,0.3-0.2,0.5-0.5,0.5h-3C9.2,14,9,13.8,9,13.5V6.3C9,6,9,5.7,9.1,5.5L10.2,2z"/>
</svg>
