<?xml version="1.0" encoding="utf-8"?>
<!-- Generator: Adobe Illustrator 22.0.1, SVG Export Plug-In . SVG Version: 6.00 Build 0)  -->
<svg version="1.1" id="Layer_1" xmlns="http://www.w3.org/2000/svg" xmlns:xlink="http://www.w3.org/1999/xlink" x="0px" y="0px"
	 width="22px" height="22px" viewBox="0 0 22 22" enable-background="new 0 0 22 22" xml:space="preserve">
<g>
	<path fill="#FFFFFF" d="M1.6,17.6h2c0.8,0,1.4,0.3,1.4,1.1c0,0.4-0.2,0.7-0.6,0.9c0.5,0.1,0.8,0.6,0.8,1.1c0,0.9-0.7,1.2-1.5,1.2H1.6V17.6z
		 M2.5,19.4h1c0.3,0,0.6-0.2,0.6-0.5c0-0.4-0.3-0.5-0.6-0.5H2.5V19.4z M2.5,21.2h1c0.4,0,0.7-0.1,0.7-0.6C4.2,20.2,4,20,3.6,20h-1
		V21.2z"/>
	<path fill="#FFFFFF" d="M5.9,18.8h0.8v0.6h0c0.2-0.4,0.6-0.7,1-0.7c0.1,0,0.1,0,0.2,0v0.8c-0.1,0-0.2,0-0.3,0c-0.6,0-0.8,0.4-0.8,1v1.4H5.9V18.8z"
		/>
	<path fill="#FFFFFF" d="M8.5,19.8c0-0.8,0.8-1,1.5-1c0.6,0,1.4,0.1,1.4,0.9v1.6c0,0.3,0,0.6,0.1,0.7h-0.9c0-0.1-0.1-0.2-0.1-0.3
		c-0.3,0.3-0.7,0.4-1,0.4c-0.6,0-1.1-0.3-1.1-0.9c0-0.7,0.5-0.9,1.1-0.9c0.5-0.1,1-0.1,1-0.4c0-0.4-0.3-0.4-0.6-0.4
		c-0.3,0-0.5,0.1-0.6,0.5H8.5z M10.4,20.4c-0.1,0.1-0.4,0.1-0.7,0.2c-0.3,0.1-0.5,0.1-0.5,0.5c0,0.3,0.3,0.4,0.5,0.4
		c0.7,0,0.7-0.5,0.7-0.7V20.4z"/>
	<path fill="#FFFFFF" d="M13,18.3h-0.9v-0.7H13V18.3z M12.2,18.8H13v3.1h-0.9V18.8z"/>
	<path fill="#FFFFFF" d="M14,17.6h0.9v4.3H14V17.6z"/>
	<path fill="#FFFFFF" d="M15.7,17.6h0.9v4.3h-0.9V17.6z"/>
	<path fill="#FFFFFF" d="M18.2,20.6c0,0.5,0.3,0.8,0.8,0.8c0.3,0,0.6-0.2,0.7-0.4h0.8c-0.2,0.7-0.8,1-1.5,1c-1,0-1.6-0.7-1.6-1.6
		c0-0.9,0.6-1.6,1.6-1.6c1.1,0,1.6,0.9,1.5,1.9H18.2z M19.6,20c-0.1-0.4-0.3-0.7-0.7-0.7c-0.5,0-0.7,0.4-0.7,0.7H19.6z"/>
</g>
<circle fill="#FFFFFF" cx="15.5" cy="2.5" r="1.5"/>
<circle fill="#FFFFFF" cx="6.5" cy="2.5" r="1.5"/>
<circle fill="#FFFFFF" cx="6.5" cy="8.5" r="1.5"/>
<circle fill="#FFFFFF" cx="15.5" cy="8.5" r="1.5"/>
<circle fill="#FFFFFF" cx="6.5" cy="14.5" r="1.5"/>
<circle fill="#FFFFFF" cx="15.5" cy="14.5" r="1.5"/>
</svg>
