<?xml version="1.0" encoding="utf-8"?>
<!-- Generator: Adobe Illustrator 22.0.1, SVG Export Plug-In . SVG Version: 6.00 Build 0)  -->
<svg version="1.1" id="Layer_1" xmlns="http://www.w3.org/2000/svg" xmlns:xlink="http://www.w3.org/1999/xlink" x="0px" y="0px"
	 width="30px" height="30px" viewBox="0 0 30 30" enable-background="new 0 0 30 30" xml:space="preserve">
<g>
	<path d="M2.2,23h2.8c1.1,0,1.9,0.4,1.9,1.5c0,0.6-0.3,1-0.8,1.2c0.7,0.2,1.1,0.8,1.1,1.5c0,1.2-1,1.7-2.1,1.7H2.2V23z M3.4,25.4
		h1.3c0.4,0,0.8-0.2,0.8-0.7c0-0.6-0.4-0.7-0.9-0.7H3.4V25.4z M3.4,27.9h1.4c0.5,0,1-0.2,1-0.8c0-0.6-0.4-0.8-0.9-0.8H3.4V27.9z"/>
	<path d="M8.1,24.6h1.1v0.8h0c0.2-0.5,0.8-0.9,1.4-0.9c0.1,0,0.2,0,0.2,0v1.1c-0.1,0-0.3,0-0.4,0c-0.9,0-1.2,0.6-1.2,1.4v1.9H8.1
		V24.6z"/>
	<path d="M11.5,25.9c0.1-1.1,1-1.4,2-1.4c0.8,0,1.9,0.2,1.9,1.2v2.2c0,0.4,0,0.8,0.1,0.9h-1.2c0-0.1-0.1-0.3-0.1-0.4
		c-0.4,0.4-0.9,0.5-1.4,0.5c-0.8,0-1.4-0.4-1.4-1.3c0-1,0.7-1.2,1.4-1.3c0.7-0.1,1.4-0.1,1.4-0.6c0-0.5-0.3-0.6-0.8-0.6
		c-0.4,0-0.7,0.2-0.8,0.6H11.5z M14.2,26.8c-0.2,0.2-0.6,0.2-1,0.2c-0.4,0.1-0.7,0.2-0.7,0.6c0,0.4,0.3,0.5,0.7,0.5
		c0.9,0,0.9-0.7,0.9-1V26.8z"/>
	<path d="M17.8,24h-1.2v-1h1.2V24z M16.6,24.6h1.2v4.2h-1.2V24.6z"/>
	<path d="M19,23h1.2v5.9H19V23z"/>
	<path d="M21.4,23h1.2v5.9h-1.2V23z"/>
	<path d="M24.8,27c0,0.7,0.4,1.1,1,1.1c0.5,0,0.8-0.3,0.9-0.5h1c-0.3,1-1,1.4-2,1.4c-1.3,0-2.2-0.9-2.2-2.2c0-1.3,0.9-2.2,2.2-2.2
		c1.4,0,2.1,1.2,2.1,2.5H24.8z M26.7,26.3c-0.1-0.6-0.4-0.9-0.9-0.9c-0.7,0-1,0.6-1,0.9H26.7z"/>
</g>
<circle cx="9" cy="3" r="2"/>
<circle cx="21" cy="3" r="2"/>
<circle cx="9" cy="11" r="2"/>
<circle cx="9" cy="19" r="2"/>
<circle cx="21" cy="19" r="2"/>
<circle cx="21" cy="11" r="2"/>
</svg>
