<?xml version="1.0" encoding="utf-8"?>
<!-- Generator: Adobe Illustrator 24.2.0, SVG Export Plug-In . SVG Version: 6.00 Build 0)  -->
<svg version="1.1" id="Layer_1" xmlns="http://www.w3.org/2000/svg" xmlns:xlink="http://www.w3.org/1999/xlink" x="0px" y="0px"
	 width="22px" height="22px" viewBox="0 0 22 22" enable-background="new 0 0 22 22" xml:space="preserve">
<circle  cx="11" cy="3.6" r="3.6"/>
<path  d="M18.2,12c-0.6-1-1.1-2-1.7-2.7c-0.4-0.4-0.8-0.7-1.4-0.9c-0.3-0.1-0.7-0.2-1.1-0.2H8.4
	c-0.7,0-1.3,0.2-1.7,0.5C5.4,9.5,4.8,11,4.1,12.5c-0.6,1.2-1.3,2.6-1.4,4.1c-0.1,1.5,0.5,2.8,1.4,3.6c1,0.9,3.5,2,5.5,1.9
	c1.2-0.1,2.3-0.5,2.7-1.4c0.5-1.2-0.5-1.9-1.4-2c-0.9-0.1-2,0-2.9-0.2c-0.4-0.1-0.8-0.2-1.2-0.3c-0.4-0.1-0.8-0.3-0.9-0.6
	c0.4-0.2,1-0.1,1.6-0.2c0.4-0.1,1.2-0.2,1.2-0.6c0-0.2-0.3-0.7-0.4-1c-0.3-0.8-0.5-2.4,0.8-2.1c0.7,0.1,0.9,0.9,1.2,1.4
	c0.8,1.3,1.7,2.4,3.9,2.2c-0.4,0.5-1.1,0.8-1.2,1.6c-0.1,1,0.7,1.5,1.5,1.5c1.7,0,2.8-1.1,3.7-2c0.6-0.7,1.2-1.6,1.2-2.9
	C19.4,14,18.8,12.9,18.2,12z M13.6,16c-1.2,0-2.1-1-2.1-2.1s1-2.1,2.1-2.1s2.1,1,2.1,2.1S14.8,16,13.6,16z"/>
</svg>
