<?xml version="1.0" encoding="utf-8"?>
<!-- Generator: Adobe Illustrator 24.2.0, SVG Export Plug-In . SVG Version: 6.00 Build 0)  -->
<svg version="1.1" id="Layer_1" xmlns="http://www.w3.org/2000/svg" xmlns:xlink="http://www.w3.org/1999/xlink" x="0px" y="0px"
	 width="14px" height="14px" viewBox="0 0 14 14" enable-background="new 0 0 14 14" xml:space="preserve">
<circle  cx="7" cy="2" r="2"/>
<path  d="M12,9c-0.1-0.5-0.7-1.5-1-2c-0.4-0.6-1.3-1.7-2-2C8.1,4.6,5.9,4.6,5,5C4.7,5.1,4.3,5.8,4,6
	C3.8,6.3,3.2,6.7,3,7C2.7,7.5,2.1,8.5,2,9c-0.1,0.5-0.1,1.5,0,2c0.1,0.5,0.7,1.5,1,2c0.2,0.3,1,1,1,1h3c0.6,0,1-0.4,1-1s-0.4-1-1-1
	H4v-1h2V9h1v1h1.1C8.1,9.8,8,9.7,8,9.5C8,8.7,8.7,8,9.5,8S11,8.7,11,9.5S10.3,11,9.5,11c-0.1,0,0.2,0,0.4,0c0,0,0.1,0,0.1,0
	c0,0,0,0,0,0c0,0-0.1,0-0.1,0C9.4,11.1,9,11.5,9,12c0,0.6,0.4,1,1,1l1-1c0.3-0.5,0.9-1.5,1-2C12.1,9.8,12.1,9.2,12,9z"/>
</svg>
