<?xml version="1.0" encoding="utf-8"?>
<!-- Generator: Adobe Illustrator 22.0.1, SVG Export Plug-In . SVG Version: 6.00 Build 0)  -->
<svg version="1.1" id="Layer_1" xmlns="http://www.w3.org/2000/svg" xmlns:xlink="http://www.w3.org/1999/xlink" x="0px" y="0px"
	 width="22px" height="22px" viewBox="0 0 22 22" enable-background="new 0 0 22 22" xml:space="preserve">
<path d="M1,1v17l6,4V5L1,1z M6,17.3l-4-2.7v-7l4,2.7V17.3z M6,8.3L2,5.7v-2l4,2.7V8.3z"/>
<path d="M15,1v17l6,4V5L15,1z M20,18.3l-4-2.7v-2l4,2.7V18.3z M20,14.3l-4-2.7v-7l4,2.7V14.3z"/>
<path d="M8,5v17l6-4V1L8,5z M13,16.7l-4,2.7v-2l4-2.7V16.7z M13,13.7l-4,2.7v-2l4-2.7V13.7z M13,10.7l-4,2.7v-2l4-2.7V10.7z M13,5.7
	L9,8.3v-2l4-2.7V5.7z"/>
</svg>
