<?xml version="1.0" encoding="utf-8"?>
<!-- Generator: Adobe Illustrator 22.0.1, SVG Export Plug-In . SVG Version: 6.00 Build 0)  -->
<svg version="1.1" id="Layer_1" xmlns="http://www.w3.org/2000/svg" xmlns:xlink="http://www.w3.org/1999/xlink" x="0px" y="0px"
	 width="30px" height="30px" viewBox="0 0 30 30" enable-background="new 0 0 30 30" xml:space="preserve">
<path d="M1,1v24l8,5V6L1,1z M7,24.8l-4-2.5v-9l4,2.5V24.8z M7,11.8L3,9.2v-3l4,2.5V11.8z"/>
<path d="M21,1v24l8,5V6L21,1z M27,23.8l-4-2.5v-3l4,2.5V23.8z M27,17.8l-4-2.5v-9l4,2.5V17.8z"/>
<path d="M11,6v24l8-5V1L11,6z M17,23.2l-4,2.5v-3l4-2.5V23.2z M17,19.2l-4,2.5v-3l4-2.5V19.2z M17,15.2l-4,2.5v-3l4-2.5V15.2z
	 M17,9.2l-4,2.5v-3l4-2.5V9.2z"/>
</svg>
