<?xml version="1.0" encoding="utf-8"?>
<!-- Generator: Adobe Illustrator 22.0.1, SVG Export Plug-In . SVG Version: 6.00 Build 0)  -->
<svg version="1.1" id="Layer_1" xmlns="http://www.w3.org/2000/svg" xmlns:xlink="http://www.w3.org/1999/xlink" x="0px" y="0px"
	 width="14px" height="14px" viewBox="0 0 14 14" enable-background="new 0 0 14 14" xml:space="preserve">
<path fill="#FFFFFF" d="M0,0v11l4,3V3L0,0z M3,11.2L1,9.8v-4l2,1.5V11.2z M3,5.2L1,3.8v-1l2,1.5V5.2z"/>
<path fill="#FFFFFF" d="M10,0v11l4,3V3L10,0z M13,11.2l-2-1.5v-1l2,1.5V11.2z M13,8.2l-2-1.5v-4l2,1.5V8.2z"/>
<path fill="#FFFFFF" d="M5,3v11l4-3V0L5,3z M8,10.8l-2,1.5v-1l2-1.5V10.8z M8,8.8l-2,1.5v-1l2-1.5V8.8z M8,6.8L6,8.2v-1l2-1.5V6.8z M8,3.8L6,5.2v-1
	l2-1.5V3.8z"/>
</svg>
