<?xml version="1.0" encoding="utf-8"?>
<!-- Generator: Adobe Illustrator 25.2.1, SVG Export Plug-In . SVG Version: 6.00 Build 0)  -->
<svg version="1.1" id="Layer_1" xmlns="http://www.w3.org/2000/svg" xmlns:xlink="http://www.w3.org/1999/xlink" x="0px" y="0px"
	 width="22px" height="22px" viewBox="0 0 22 22" enable-background="new 0 0 22 22" xml:space="preserve">
<path fill="#FFFFFF" d="M20.38,17.17V4.83C21.32,4.48,22,3.57,22,2.5C22,1.12,20.88,0,19.5,0c-1.07,0-1.98,0.68-2.33,1.63H4.83
	C4.48,0.68,3.57,0,2.5,0C1.12,0,0,1.12,0,2.5c0,1.07,0.68,1.98,1.63,2.33v1.33C0.68,6.52,0,7.43,0,8.5C0,9.88,1.12,11,2.5,11
	c1.07,0,1.98-0.68,2.33-1.63h3.33c0.25,0.67,0.78,1.21,1.46,1.46v6.33C8.68,17.52,8,18.43,8,19.5c0,1.38,1.12,2.5,2.5,2.5
	c1.07,0,1.98-0.68,2.33-1.63h4.33C17.52,21.32,18.43,22,19.5,22c1.38,0,2.5-1.12,2.5-2.5C22,18.43,21.32,17.52,20.38,17.17z
	 M17.17,18.63h-4.33c-0.25-0.67-0.78-1.21-1.46-1.46v-6.33C12.32,10.48,13,9.57,13,8.5C13,7.12,11.88,6,10.5,6
	C9.43,6,8.52,6.68,8.17,7.63H4.83C4.58,6.95,4.05,6.42,3.38,6.17V4.83c0.67-0.25,1.21-0.78,1.46-1.46h12.33
	c0.25,0.67,0.78,1.21,1.46,1.46v12.33C17.95,17.42,17.42,17.95,17.17,18.63z M9.75,8.5c0-0.41,0.34-0.75,0.75-0.75
	s0.75,0.34,0.75,0.75c0,0.41-0.34,0.75-0.75,0.75S9.75,8.91,9.75,8.5z M19.5,1.75c0.41,0,0.75,0.34,0.75,0.75
	c0,0.41-0.34,0.75-0.75,0.75s-0.75-0.34-0.75-0.75C18.75,2.09,19.09,1.75,19.5,1.75z M2.5,1.75c0.41,0,0.75,0.34,0.75,0.75
	c0,0.41-0.34,0.75-0.75,0.75S1.75,2.91,1.75,2.5C1.75,2.09,2.09,1.75,2.5,1.75z M2.5,9.25c-0.41,0-0.75-0.34-0.75-0.75
	c0-0.41,0.34-0.75,0.75-0.75S3.25,8.09,3.25,8.5C3.25,8.91,2.91,9.25,2.5,9.25z M10.5,20.25c-0.41,0-0.75-0.34-0.75-0.75
	c0-0.41,0.34-0.75,0.75-0.75s0.75,0.34,0.75,0.75C11.25,19.91,10.91,20.25,10.5,20.25z M19.5,20.25c-0.41,0-0.75-0.34-0.75-0.75
	c0-0.41,0.34-0.75,0.75-0.75s0.75,0.34,0.75,0.75C20.25,19.91,19.91,20.25,19.5,20.25z"/>
</svg>
