<?xml version="1.0" encoding="utf-8"?>
<!-- Generator: Adobe Illustrator 25.2.1, SVG Export Plug-In . SVG Version: 6.00 Build 0)  -->
<svg version="1.1" id="Layer_1" xmlns="http://www.w3.org/2000/svg" xmlns:xlink="http://www.w3.org/1999/xlink" x="0px" y="0px"
	 width="14px" height="14px" viewBox="0 0 14 14" enable-background="new 0 0 14 14" xml:space="preserve">
<g>
	<path  d="M13,11.09V2.91c0.58-0.21,1-0.76,1-1.41C14,0.67,13.33,0,12.5,0c-0.65,0-1.2,0.42-1.41,1H2.91
		C2.7,0.42,2.15,0,1.5,0C0.67,0,0,0.67,0,1.5c0,0.65,0.42,1.2,1,1.41v1.18C0.42,4.3,0,4.85,0,5.5C0,6.33,0.67,7,1.5,7
		c0.65,0,1.2-0.42,1.41-1h2.18C5.24,6.42,5.58,6.76,6,6.91v4.18c-0.58,0.21-1,0.76-1,1.41C5,13.33,5.67,14,6.5,14
		c0.65,0,1.2-0.42,1.41-1h3.18c0.21,0.58,0.76,1,1.41,1c0.83,0,1.5-0.67,1.5-1.5C14,11.85,13.58,11.3,13,11.09z M12.5,1
		C12.78,1,13,1.22,13,1.5C13,1.78,12.78,2,12.5,2S12,1.78,12,1.5C12,1.22,12.22,1,12.5,1z M1.5,1C1.78,1,2,1.22,2,1.5
		C2,1.78,1.78,2,1.5,2S1,1.78,1,1.5C1,1.22,1.22,1,1.5,1z M1.5,6C1.22,6,1,5.78,1,5.5C1,5.22,1.22,5,1.5,5S2,5.22,2,5.5
		C2,5.78,1.78,6,1.5,6z M6.5,13C6.22,13,6,12.78,6,12.5C6,12.22,6.22,12,6.5,12S7,12.22,7,12.5C7,12.78,6.78,13,6.5,13z M6,5.5
		C6,5.22,6.22,5,6.5,5S7,5.22,7,5.5C7,5.78,6.78,6,6.5,6S6,5.78,6,5.5z M11.09,12H7.91C7.76,11.58,7.42,11.24,7,11.09V6.91
		C7.58,6.7,8,6.15,8,5.5C8,4.67,7.33,4,6.5,4C5.85,4,5.3,4.42,5.09,5H2.91C2.76,4.58,2.42,4.24,2,4.09V2.91
		C2.42,2.76,2.76,2.42,2.91,2h8.18c0.15,0.42,0.48,0.76,0.91,0.91v8.18C11.58,11.24,11.24,11.58,11.09,12z M12.5,13
		c-0.28,0-0.5-0.22-0.5-0.5c0-0.28,0.22-0.5,0.5-0.5s0.5,0.22,0.5,0.5C13,12.78,12.78,13,12.5,13z"/>
</g>
</svg>
