<?xml version="1.0" encoding="utf-8"?>
<!-- Generator: Adobe Illustrator 25.2.1, SVG Export Plug-In . SVG Version: 6.00 Build 0)  -->
<svg version="1.1" id="Layer_1" xmlns="http://www.w3.org/2000/svg" xmlns:xlink="http://www.w3.org/1999/xlink" x="0px" y="0px"
	 width="22px" height="22px" viewBox="0 0 22 22" enable-background="new 0 0 22 22" xml:space="preserve">
<path  d="M4.24,19.04c0.16-0.09,0.32-0.19,0.47-0.28c1.63,1.04,3.55,1.61,5.5,1.61c1.96,0,3.88-0.57,5.51-1.61
	c0.4,0.24,0.83,0.47,1.3,0.68c1.37,0.62,2.78,0.93,4.19,0.93c0.26,0,0.52-0.02,0.79-0.04v-1.6c-0.26,0.02-0.52,0.07-0.79,0.07
	c-1.27,0-2.46-0.3-3.54-0.79c-0.7-0.32-1.37-0.7-1.96-1.18c-1.49,1.23-3.41,1.98-5.5,1.98s-4.01-0.74-5.5-1.98
	c-0.39,0.32-0.81,0.6-1.25,0.85C2.43,18.26,1.25,18.63,0,18.74v1.57C1.49,20.2,2.94,19.78,4.24,19.04z"/>
<path  d="M17.77,1.37l-3.56-1.19c-0.36-0.12-0.76-0.09-1.09,0.09c-0.33,0.18-0.58,0.48-0.69,0.85L10.5,7.88L5.23,15.2
	l0.49,0.4c1.26,1.04,2.86,1.62,4.5,1.62s3.24-0.57,4.5-1.62l1-0.83l1,0.83c0.23,0.19,0.47,0.34,0.72,0.5l-0.75-6.09l1.98-6.95
	C18.87,2.35,18.48,1.6,17.77,1.37z M16.19,6.03l-0.1-0.81c-0.18-1.46-1.94-1.98-2.92-0.99l0.72-2.5l3.22,1.07L16.19,6.03z"/>
</svg>
