<?xml version="1.0" encoding="utf-8"?>
<!-- Generator: Adobe Illustrator 25.2.1, SVG Export Plug-In . SVG Version: 6.00 Build 0)  -->
<svg version="1.1" id="Layer_1" xmlns="http://www.w3.org/2000/svg" xmlns:xlink="http://www.w3.org/1999/xlink" x="0px" y="0px"
	 width="14px" height="14px" viewBox="0 0 14 14" enable-background="new 0 0 14 14" xml:space="preserve">
<path fill="#FFFFFF" d="M2.7,12.16c0.1-0.06,0.2-0.12,0.3-0.18C4.04,12.64,5.26,13,6.5,13c1.25,0,2.47-0.36,3.51-1.03
	c0.25,0.15,0.53,0.3,0.83,0.43C11.7,12.8,12.6,13,13.5,13c0.17,0,0.33-0.01,0.5-0.02v-1.02C13.83,11.97,13.67,12,13.5,12
	c-0.81,0-1.56-0.19-2.26-0.5c-0.45-0.2-0.87-0.45-1.24-0.75C9.05,11.53,7.83,12,6.5,12S3.95,11.53,3,10.74
	c-0.25,0.2-0.51,0.38-0.79,0.54C1.54,11.66,0.8,11.89,0,11.97v1C0.95,12.89,1.87,12.63,2.7,12.16z"/>
<path fill="#FFFFFF" d="M11.31,0.91L9.04,0.15C8.81,0.08,8.56,0.1,8.35,0.21C8.13,0.32,7.98,0.52,7.91,0.75l-1.23,4.3L3.33,9.71
	l0.31,0.26C4.44,10.63,5.46,11,6.5,11s2.06-0.37,2.86-1.03L10,9.45l0.64,0.53c0.14,0.12,0.3,0.22,0.46,0.32l-0.48-3.87l1.26-4.42
	C12.01,1.54,11.76,1.06,11.31,0.91z M10.3,3.87l-0.06-0.51C10.12,2.43,9,2.1,8.38,2.73l0.46-1.59l2.05,0.68L10.3,3.87z"/>
</svg>
