<?xml version="1.0" encoding="utf-8"?>
<!-- Generator: Adobe Illustrator 20.0.0, SVG Export Plug-In . SVG Version: 6.00 Build 0)  -->
<svg version="1.1" id="Icons" xmlns="http://www.w3.org/2000/svg" xmlns:xlink="http://www.w3.org/1999/xlink" x="0px" y="0px"
	 width="22px" height="22px" viewBox="0 0 22 22" style="enable-background:new 0 0 22 22;" xml:space="preserve">
<g>
	<path fill="#231F20" d="M14,0H8c0,0-6,0.1-6,8c0,2.6,0,11,0,11h2v3h2v-3h10v3h2v-3h2c0,0,0-3.2,0-11C20,0.1,14,0,14,0z M7,2h8v1H7V2z M6,16H4v-2h2
		V16z M18,16h-2v-2h2V16z M18,11H4V5.2C4,4.5,4.5,4,5.2,4H17c0.6,0,1,0.4,1,1V11z"/>
</g>
</svg>
