<?xml version="1.0" encoding="utf-8"?>
<!-- Generator: Adobe Illustrator 20.0.0, SVG Export Plug-In . SVG Version: 6.00 Build 0)  -->
<svg version="1.1" id="Icons" xmlns="http://www.w3.org/2000/svg" xmlns:xlink="http://www.w3.org/1999/xlink" x="0px" y="0px"
	 width="30px" height="30px" viewBox="0 0 30 30" style="enable-background:new 0 0 30 30;" xml:space="preserve">
<g>
	<path fill="#FFFFFF" d="M26,3l-3-2l-5-1h-6L7,1L4,3l-1,8v15h2v3l1,1h1l1-1v-3h14v3l1,1h1l1-1v-3h2V11L26,3z M8,3h1V2h12v1h1v1H8V3z M8,21l-1,1H6
		l-1-1v-1l1-1h1l1,1V21z M25,21l-1,1h-1l-1-1v-1l1-1h1l1,1V21z M24,15H6l-1-1l1-7l1-1h16l1,1l1,7L24,15z"/>
</g>
</svg>
