<?xml version="1.0" encoding="utf-8"?>
<!-- Generator: Adobe Illustrator 18.1.1, SVG Export Plug-In . SVG Version: 6.00 Build 0)  -->
<svg version="1.1" id="Icons" xmlns="http://www.w3.org/2000/svg" xmlns:xlink="http://www.w3.org/1999/xlink" x="0px" y="0px"
	 viewBox="0 0 24 24" enable-background="new 0 0 24 24" xml:space="preserve">
<g opacity="0.1">
	<path d="M16,2h-6c0,0-6,0.1-6,8c0,2.6,0,11,0,11h2v3h2v-3h10v3h2v-3h2c0,0,0-3.2,0-11C22,2.1,16,2,16,2z M9,4h8v1H9V4z M8,18H6v-2
		h2V18z M20,18h-2v-2h2V18z M20,13H6V7.2C6,6.5,6.5,6,7.2,6H19c0.6,0,1,0.4,1,1V13z"/>
</g>
<g opacity="0.2">
	<path d="M15,1H9c0,0-6,0.1-6,8c0,2.6,0,11,0,11h2v3h2v-3h10v3h2v-3h2c0,0,0-3.2,0-11C21,1.1,15,1,15,1z M8,3h8v1H8V3z M7,17H5v-2h2
		V17z M19,17h-2v-2h2V17z M19,12H5V6.2C5,5.5,5.5,5,6.2,5H18c0.6,0,1,0.4,1,1V12z"/>
</g>
<g>
	<path d="M14,0H8c0,0-6,0.1-6,8c0,2.6,0,11,0,11h2v3h2v-3h10v3h2v-3h2c0,0,0-3.2,0-11C20,0.1,14,0,14,0z M7,2h8v1H7V2z M6,16H4v-2h2
		V16z M18,16h-2v-2h2V16z M18,11H4V5.2C4,4.5,4.5,4,5.2,4H17c0.6,0,1,0.4,1,1V11z"/>
</g>
</svg>
