<?xml version="1.0" encoding="utf-8"?>
<!-- Generator: Adobe Illustrator 22.0.1, SVG Export Plug-In . SVG Version: 6.00 Build 0)  -->
<svg version="1.1" id="Layer_1" xmlns="http://www.w3.org/2000/svg" xmlns:xlink="http://www.w3.org/1999/xlink" x="0px" y="0px"
	 width="14px" height="14px" viewBox="0 0 14 14" enable-background="new 0 0 14 14" xml:space="preserve">
<path d="M10.7,0c0.3,0,0.6,0.3,0.6,0.6v1.9C11.3,2.8,11,3,10.7,3c-0.3,0-0.6-0.3-0.6-0.6V0.6C10.1,0.3,10.4,0,10.7,0"/>
<g>
	<g>
		<path d="M7,6.3h1v5.5H6.8V7.5L5.9,8.3L5.4,7.5L7,6.3z"/>
	</g>
	<path d="M12,1.7v0.7c0,0.7-0.6,1.3-1.3,1.3S9.5,3.1,9.5,2.5V1.7H4.5v0.7c0,0.7-0.6,1.3-1.3,1.3C2.6,3.7,2,3.1,2,2.5V1.7H0.2v3.1V14
		h13.6V4.8V1.7H12z M13.1,10.6l-2.7,2.7H0.9V4.8h12.1V10.6z"/>
	<path d="M3.3,0c0.3,0,0.6,0.3,0.6,0.6v1.9C3.9,2.8,3.6,3,3.3,3C3,3,2.7,2.8,2.7,2.5V0.6C2.7,0.3,3,0,3.3,0"/>
	<path d="M10.7,0c0.3,0,0.6,0.3,0.6,0.6v1.9C11.3,2.8,11,3,10.7,3c-0.3,0-0.6-0.3-0.6-0.6V0.6C10.1,0.3,10.4,0,10.7,0"/>
</g>
</svg>
