<?xml version="1.0" encoding="utf-8"?>
<!-- Generator: Adobe Illustrator 22.0.1, SVG Export Plug-In . SVG Version: 6.00 Build 0)  -->
<svg version="1.1" id="Layer_1" xmlns="http://www.w3.org/2000/svg" xmlns:xlink="http://www.w3.org/1999/xlink" x="0px" y="0px"
	 width="30px" height="30px" viewBox="0 0 30 30" enable-background="new 0 0 30 30" xml:space="preserve">
<path d="M23,0c0.7,0,1.3,0.6,1.3,1.3v4c0,0.7-0.6,1.3-1.3,1.3c-0.7,0-1.3-0.6-1.3-1.3v-4C21.7,0.6,22.3,0,23,0"/>
<g>
	<g>
		<path d="M14.9,13.4H17v11.7h-2.3v-9l-2,1.6l-1.2-1.5L14.9,13.4z"/>
	</g>
	<path d="M25.6,3.7v1.6C25.6,6.7,24.4,8,23,8c-1.5,0-2.7-1.2-2.7-2.7V3.7H9.7v1.6C9.7,6.7,8.5,8,7,8C5.6,8,4.4,6.7,4.4,5.3V3.7h-4
		v6.7V30h29.2V10.4V3.7H25.6z M28,22.7l-5.8,5.7H2v-18h26V22.7z"/>
	<path d="M7,0c0.7,0,1.3,0.6,1.3,1.3v4C8.3,6,7.7,6.5,7,6.5C6.4,6.5,5.8,6,5.8,5.3v-4C5.8,0.6,6.4,0,7,0"/>
	<path d="M23,0c0.7,0,1.3,0.6,1.3,1.3v4c0,0.7-0.6,1.3-1.3,1.3c-0.7,0-1.3-0.6-1.3-1.3v-4C21.7,0.6,22.3,0,23,0"/>
</g>
</svg>
