<?xml version="1.0" encoding="utf-8"?>
<!-- Generator: Adobe Illustrator 22.0.1, SVG Export Plug-In . SVG Version: 6.00 Build 0)  -->
<svg version="1.1" id="Layer_1" xmlns="http://www.w3.org/2000/svg" xmlns:xlink="http://www.w3.org/1999/xlink" x="0px" y="0px"
	 width="22px" height="22px" viewBox="0 0 22 22" enable-background="new 0 0 22 22" xml:space="preserve">
<path d="M16.8,0c0.5,0,0.9,0.4,0.9,0.9v2.9c0,0.5-0.4,0.9-0.9,0.9c-0.5,0-0.9-0.4-0.9-0.9V0.9C15.9,0.4,16.3,0,16.8,0"/>
<g>
	<g>
		<path d="M10.9,9.8h1.5v8.6h-1.7v-6.6L9.3,13l-0.9-1.1L10.9,9.8z"/>
	</g>
	<path d="M18.8,2.7v1.2c0,1.1-0.9,2-2,2s-2-0.9-2-2V2.7H7.1v1.2c0,1.1-0.9,2-2,2c-1.1,0-2-0.9-2-2V2.7H0.3v4.9V22h21.4V7.6V2.7H18.8
		z M20.5,16.6l-4.3,4.2H1.5V7.6h19.1V16.6z"/>
	<path d="M5.2,0c0.5,0,0.9,0.4,0.9,0.9v2.9c0,0.5-0.4,0.9-0.9,0.9c-0.5,0-0.9-0.4-0.9-0.9V0.9C4.2,0.4,4.7,0,5.2,0"/>
	<path d="M16.8,0c0.5,0,0.9,0.4,0.9,0.9v2.9c0,0.5-0.4,0.9-0.9,0.9c-0.5,0-0.9-0.4-0.9-0.9V0.9C15.9,0.4,16.3,0,16.8,0"/>
</g>
</svg>
