<?xml version="1.0" encoding="utf-8"?>
<!-- Generator: Adobe Illustrator 18.1.1, SVG Export Plug-In . SVG Version: 6.00 Build 0)  -->
<svg version="1.1" id="Icons" xmlns="http://www.w3.org/2000/svg" xmlns:xlink="http://www.w3.org/1999/xlink" x="0px" y="0px"
	 viewBox="0 0 32 32" enable-background="new 0 0 32 32" xml:space="preserve">
<g opacity="0.1">
	<path d="M12,17.2c-0.6-0.7-4.4-5.1-0.5-8.9C14.7,5,15.2,2.3,14.1,1c0,0,8.2,3.4,3.4,11.2c-0.8,1.3-2.6,2.5-1.5,5.8L12,17.2z"/>
	<path d="M17,18c0-1.2,0.1-3.1,1.7-4.7c1.3-1.5,1.8-3.8,1.9-4.6c0,0,4.3,2.4,0,8.4L17,18z"/>
	<polygon points="2,23 5,23 5,28 6,29 27,29 28,28 28,23 31,23 31,30 29,32 4,32 2,30 	"/>
	<polygon points="8,18 25,24 25,28 8,22 	"/>
	<polygon points="19.3,20 25,22 25,18 	"/>
	<polygon points="8,28 13.7,26 8,24 	"/>
</g>
<g opacity="0.2">
	<path d="M11,16.2c-0.6-0.7-4.4-5.1-0.5-8.9C13.7,4,14.2,1.3,13.1,0c0,0,8.2,3.4,3.4,11.2c-0.8,1.3-2.6,2.5-1.5,5.8L11,16.2z"/>
	<path d="M16,17c0-1.2,0.1-3.1,1.7-4.7c1.3-1.5,1.8-3.8,1.9-4.6c0,0,4.3,2.4,0,8.4L16,17z"/>
	<polygon points="1,22 4,22 4,27 5,28 26,28 27,27 27,22 30,22 30,29 28,31 3,31 1,29 	"/>
	<polygon points="7,17 24,23 24,27 7,21 	"/>
	<polygon points="18.3,19 24,21 24,17 	"/>
	<polygon points="7,27 12.7,25 7,23 	"/>
</g>
<g>
	<path d="M10,15.2c-0.6-0.7-4.4-5.1-0.5-8.9C12.7,3,13.2,0.3,12.1-1c0,0,8.2,3.4,3.4,11.2c-0.8,1.3-2.6,2.5-1.5,5.8L10,15.2z"/>
	<path d="M15,16c0-1.2,0.1-3.1,1.7-4.7c1.3-1.5,1.8-3.8,1.9-4.6c0,0,4.3,2.4,0,8.4L15,16z"/>
	<polygon points="0,21 3,21 3,26 4,27 25,27 26,26 26,21 29,21 29,28 27,30 2,30 0,28 	"/>
	<polygon points="6,16 23,22 23,26 6,20 	"/>
	<polygon points="17.3,18 23,20 23,16 	"/>
	<polygon points="6,26 11.7,24 6,22 	"/>
</g>
</svg>
