<?xml version="1.0" encoding="utf-8"?>
<!-- Generator: Adobe Illustrator 27.9.1, SVG Export Plug-In . SVG Version: 6.00 Build 0)  -->
<svg version="1.1" id="Icons" xmlns="http://www.w3.org/2000/svg" xmlns:xlink="http://www.w3.org/1999/xlink" x="0px" y="0px"
	 viewBox="0 0 22 22" enable-background="new 0 0 22 22" xml:space="preserve">
<path fill="#FFFFFF" d="M2.6,16.4H0.8V20c0,1.1,1,2,2.2,2h16c1.2,0,2.2-0.9,2.2-2v-3.6h-1.8v3.2c0,0.4-0.4,0.7-0.8,0.7H3.4
	c-0.4,0-0.8-0.3-0.8-0.7C2.6,19.6,2.6,16.4,2.6,16.4z"/>
<polygon fill="#FFFFFF" points="17.2,18.8 17.2,16 4.8,11.8 4.8,14.7 "/>
<path fill="#FFFFFF" d="M7.7,11.8c-0.4-0.5-3.2-3.7-0.4-6.6C9.6,2.9,10,1,9.2,0c0,0,6,2.5,2.5,8.2c-0.6,1-2.1,2.1-1.3,4.5L7.7,11.8z
	"/>
<path fill="#FFFFFF" d="M11.4,12.6c-0.1-0.5-0.7-1.5,1.1-3.6c0.9-1.1,1.3-2.8,1.4-3.4c0,0,3.1,1.8,0,6.2L11.4,12.6z"/>
<polygon fill="#FFFFFF" points="12,13.3 17.2,11.6 17.2,14.4 16.3,14.7 "/>
<polygon fill="#FFFFFF" points="9.9,17.3 4.8,19.1 4.8,16.2 5.7,15.9 "/>
</svg>
