<?xml version="1.0" encoding="utf-8"?>
<!-- Generator: Adobe Illustrator 20.0.0, SVG Export Plug-In . SVG Version: 6.00 Build 0)  -->
<svg version="1.1" id="Icons" xmlns="http://www.w3.org/2000/svg" xmlns:xlink="http://www.w3.org/1999/xlink" x="0px" y="0px"
	 width="14px" height="14px" viewBox="0 0 14 14" style="enable-background:new 0 0 14 14;" xml:space="preserve">
<g>
	<polygon fill="#FFFFFF" points="0,10 1,10 1,13 13,13 13,10 14,10 14,13 13,14 1,14 0,13 	"/>
	<polygon fill="#FFFFFF" points="4,9 5,9 6,10 7,10 8,11 9,11 10,12 12,12 12,11 10,11 9,10 8,10 7,9 6,9 5,8 4,8 3,7 2,7 2,8 3,8 	"/>
	<polygon fill="#FFFFFF" points="8,8 9,8 9,7 10,7 11,6 10,4 10,3 9,3 9,6 8,6 	"/>
	<polygon fill="#FFFFFF" points="7,8 6,8 6,7 4,6 5,3 6,2 7,1 7,0 8,0 7,3 7,6 	"/>
	<rect fill="#FFFFFF" x="10" y="8" width="2" height="1"/>
	<rect fill="#FFFFFF" x="2" y="11" width="2" height="1"/>
</g>
</svg>
