<?xml version="1.0" encoding="utf-8"?>
<!-- Generator: Adobe Illustrator 27.9.1, SVG Export Plug-In . SVG Version: 6.00 Build 0)  -->
<svg version="1.1" id="Icons" xmlns="http://www.w3.org/2000/svg" xmlns:xlink="http://www.w3.org/1999/xlink" x="0px" y="0px"
	 viewBox="0 0 14 14" enable-background="new 0 0 14 14" xml:space="preserve">
<path  d="M1.7,10.4H0.5v2.3c0,0.7,0.6,1.3,1.4,1.3h10.2c0.8,0,1.4-0.6,1.4-1.3v-2.3h-1.2v2c0,0.3-0.1,0.5-0.3,0.5H2
	c-0.3,0-0.3-0.3-0.3-0.5V10.4z"/>
<polygon  points="10.9,12 10.9,10.2 3.1,7.5 3.1,9.3 "/>
<path  d="M4.9,7.5C4.6,7.2,2.8,5.2,4.6,3.4C6.1,1.9,6.4,0.6,5.8,0c0,0,3.8,1.6,1.6,5.2C7,5.9,6.1,6.6,6.6,8.1L4.9,7.5
	z"/>
<path  d="M7.2,8c-0.1-0.3-0.4-1,0.7-2.3C8.5,5,8.7,4,8.8,3.6c0,0,2,1.1,0,3.9L7.2,8z"/>
<polygon  points="7.7,8.5 10.9,7.4 10.9,9.2 10.4,9.4 "/>
<polygon  points="6.3,11 3.1,12.1 3.1,10.3 3.6,10.1 "/>
</svg>
