<?xml version="1.0" encoding="utf-8"?>
<!-- Generator: Adobe Illustrator 18.1.1, SVG Export Plug-In . SVG Version: 6.00 Build 0)  -->
<svg version="1.1" id="Icons" xmlns="http://www.w3.org/2000/svg" xmlns:xlink="http://www.w3.org/1999/xlink" x="0px" y="0px"
	 viewBox="0 0 32 32" enable-background="new 0 0 32 32" xml:space="preserve">
<g opacity="0.5">
	<path d="M25,30L15,10L5,30H2v2h26v-2H25z M9,30l6-11.3L21,30H9z"/>
</g>
<polygon opacity="0.5" points="19,5.9 17.5,8.9 27,28 30,28 "/>
<polygon opacity="0.5" points="22.7,2 21.4,4.7 31,24 32,24 32,20.1 "/>
<g opacity="0.75">
	<path d="M24,29L14,9L4,29H1v2h26v-2H24z M8,29l6-11.3L20,29H8z"/>
</g>
<polygon opacity="0.75" points="18,4.9 16.5,7.9 26,27 29,27 "/>
<polygon opacity="0.75" points="21.7,1 20.4,3.7 30,23 32,23 32,21 "/>
<g>
	<path fill="#E6E6E6" d="M23,28L13,8L3,28H0v2h26v-2H23z M7,28l6-11.3L19,28H7z"/>
</g>
<polygon fill="#E6E6E6" points="17,3.9 15.5,6.9 25,26 28,26 "/>
<polygon fill="#E6E6E6" points="20.7,0 19.4,2.7 29,22 32,22 "/>
</svg>
