<?xml version="1.0" encoding="utf-8"?>
<!-- Generator: Adobe Illustrator 20.0.0, SVG Export Plug-In . SVG Version: 6.00 Build 0)  -->
<svg version="1.1" id="Icons" xmlns="http://www.w3.org/2000/svg" xmlns:xlink="http://www.w3.org/1999/xlink" x="0px" y="0px"
	 width="22px" height="22px" viewBox="0 0 22 22" style="enable-background:new 0 0 22 22;" xml:space="preserve">
<g>
	<path fill="#231F20" d="M8.6,11c-0.4-0.4-2.8-3.5-0.4-5.7c2.3-2,2.6-4.5,1.9-5.3c0,0,4.4,2.9,2,8c-0.8,0.9-1.8,2-1.1,4L8.6,11z"/>
	<path fill="#231F20" d="M13.1,12c0-0.9-0.9-0.2,0.5-3.1c1.2-1.1,0.8-1.8,0.5-2.9c0,0,3.6,1.4,0.8,5.3L13.1,12z"/>
	<polygon fill="#231F20" points="0,16 2,16 2,20 20,20 20,16 22,16 22,20 20,22 2,22 0,20 	"/>
	<polygon fill="#231F20" points="4,12 18,17 18,19 4,14 	"/>
	<polygon fill="#231F20" points="4,17 4,19 7.9,17.5 5.3,16.5 	"/>
	<polygon fill="#231F20" points="18.9,12 15,13.5 17.6,14.5 18.9,14 	"/>
</g>
</svg>
