<?xml version="1.0" encoding="utf-8"?>
<!-- Generator: Adobe Illustrator 18.1.1, SVG Export Plug-In . SVG Version: 6.00 Build 0)  -->
<svg version="1.1" id="Icons" xmlns="http://www.w3.org/2000/svg" xmlns:xlink="http://www.w3.org/1999/xlink" x="0px" y="0px"
	 viewBox="0 0 16 16" enable-background="new 0 0 16 16" xml:space="preserve">
<g opacity="0.5">
	<polygon points="2,12 3,12 3,15 14,15 14,12 15,12 15,15 14,16 3,16 2,15 	"/>
	<polyline points="6,11.6 7,11.6 8,12.4 9,12.4 10,13.2 11,13.2 12,14 13,14 13,13.2 12,13.2 11,12.4 10,12.4 9,11.6 8,11.6 7,10.8 
		6,10.8 5,10 4,10 4,10.8 5,10.8 6,11.6 	"/>
	<polygon points="9,10 10,10 10,9 11,9 12,8 11,6 11,5 10,5 10,8 9,8 	"/>
	<polygon points="8,10 7,10 7,9 5,8 6,5 7,4 8,3 8,2 9,2 9,5 8,8 	"/>
	<rect x="11" y="10" width="2" height="1"/>
	<rect x="4" y="13" width="2" height="1"/>
</g>
<g opacity="0.75">
	<polygon points="1,11 2,11 2,14 13,14 13,11 14,11 14,14 13,15 2,15 1,14 	"/>
	<polyline points="5,10.6 6,10.6 7,11.4 8,11.4 9,12.2 10,12.2 11,13 12,13 12,12.2 11,12.2 10,11.4 9,11.4 8,10.6 7,10.6 6,9.8 
		5,9.8 4,9 3,9 3,9.8 4,9.8 5,10.6 	"/>
	<polygon points="8,9 9,9 9,8 10,8 11,7 10,5 10,4 9,4 9,7 8,7 	"/>
	<polygon points="7,9 6,9 6,8 4,7 5,4 6,3 7,2 7,1 8,1 8,4 7,7 	"/>
	<rect x="10" y="9" width="2" height="1"/>
	<rect x="3" y="12" width="2" height="1"/>
</g>
<g>
	<polygon fill="#FFFFFF" points="0,10 1,10 1,13 12,13 12,10 13,10 13,13 12,14 1,14 0,13 	"/>
	<polyline fill="#FFFFFF" points="4,9.6 5,9.6 6,10.4 7,10.4 8,11.2 9,11.2 10,12 11,12 11,11.2 10,11.2 9,10.4 8,10.4 7,9.6 6,9.6 
		5,8.8 4,8.8 3,8 2,8 2,8.8 3,8.8 4,9.6 	"/>
	<polygon fill="#FFFFFF" points="7,8 8,8 8,7 9,7 10,6 9,4 9,3 8,3 8,6 7,6 	"/>
	<polygon fill="#FFFFFF" points="6,8 5,8 5,7 3,6 4,3 5,2 6,1 6,0 7,0 7,3 6,6 	"/>
	<rect x="9" y="8" fill="#FFFFFF" width="2" height="1"/>
	<rect x="2" y="11" fill="#FFFFFF" width="2" height="1"/>
</g>
</svg>
