<?xml version="1.0" encoding="utf-8"?>
<!-- Generator: Adobe Illustrator 20.0.0, SVG Export Plug-In . SVG Version: 6.00 Build 0)  -->
<svg version="1.1" id="Icons" xmlns="http://www.w3.org/2000/svg" xmlns:xlink="http://www.w3.org/1999/xlink" x="0px" y="0px"
	 width="30px" height="30px" viewBox="0 0 30 30" style="enable-background:new 0 0 30 30;" xml:space="preserve">
<g>
	<path fill="#231F20" d="M10,15.2c-0.6-0.7-4.4-5.1-0.5-8.9C12.7,3,13.1,1.3,12,0c0,0,8.3,2.4,3.5,10.2c-0.8,1.3-2.6,2.5-1.5,5.8L10,15.2z"/>
	<path fill="#231F20" d="M16,16c0-1.2,0.1-3.1,1.7-4.7c1.3-1.5,1.8-3.8,1.9-4.6c0,0,4.3,2.4,0,8.4L16,16z"/>
	<polygon fill="#231F20" points="0,21 3,21 3,26 4,27 26,27 27,26 27,21 30,21 30,28 28,30 2,30 0,28 	"/>
	<polygon fill="#231F20" points="6,16 24,22 24,26 6,20 	"/>
	<polygon fill="#231F20" points="18,18 24,20 24,16 	"/>
	<polygon fill="#231F20" points="6,26 11.7,24 6,22 	"/>
</g>
</svg>
