<?xml version="1.0" encoding="utf-8"?>
<!-- Generator: Adobe Illustrator 18.1.1, SVG Export Plug-In . SVG Version: 6.00 Build 0)  -->
<svg version="1.1" id="Icons" xmlns="http://www.w3.org/2000/svg" xmlns:xlink="http://www.w3.org/1999/xlink" x="0px" y="0px"
	 viewBox="0 0 16 16" enable-background="new 0 0 16 16" xml:space="preserve">
<polygon opacity="0.5" points="13.2,2 13,2.4 12.6,3.2 16,9.2 16,7.7 16,6.9 "/>
<polygon opacity="0.75" points="13,2.4 12.2,1 11.6,2.2 16,10 16,9.2 16,7.7 "/>
<polygon opacity="0.5" points="10.2,4.8 15.7,14.5 16,14.5 16,12.7 10.9,3.7 "/>
<g opacity="0.5">
	<path d="M14,15L8.5,5.2L3,15H2v1l13,0v-1H14z M6,15l2.5-5.3L11,15H6z"/>
</g>
<g opacity="0.75">
	<path d="M13,14L7.5,4.2L2,14H1v1l13,0v-1H13z M5,14l2.5-5.3L10,14H5z"/>
</g>
<polygon opacity="0.75" points="15.4,12.5 15.3,12.3 9.9,2.7 9.2,3.8 14.7,13.5 15.9,13.5 "/>
<g>
	<path fill="#E6E6E6" d="M12,13L6.5,3.2L1,13H0v1l13,0v-1H12z M4,13l2.5-5.3L9,13H4z"/>
</g>
<polygon fill="#E6E6E6" points="14.4,11.5 14.3,11.3 8.9,1.7 8.2,2.8 13.7,12.5 14.9,12.5 "/>
<polygon fill="#E6E6E6" points="11.2,0 10.6,1.2 16,10.8 16,8.4 "/>
</svg>
