<?xml version="1.0" encoding="utf-8"?>
<!-- Generator: Adobe Illustrator 22.0.1, SVG Export Plug-In . SVG Version: 6.00 Build 0)  -->
<svg version="1.1" id="Layer_1" xmlns="http://www.w3.org/2000/svg" xmlns:xlink="http://www.w3.org/1999/xlink" x="0px" y="0px"
	 width="14px" height="14px" viewBox="0 0 14 14" enable-background="new 0 0 14 14" xml:space="preserve">
<path d="M8.5,6l4.8-0.6c0,0,0.3-0.1,0.7,0.3l-0.2-2.1c-0.3,0.3-0.6,0.3-0.6,0.3L4,4c-0.8,0-1,0.7-1,1.1C2.9,5,2.8,4.9,2.6,4.9
	c-0.2,0-0.4,0.2-0.4,0.4s0.2,0.4,0.4,0.4C2.8,5.8,3,5.7,3,5.6c0,0.2,0.2,0.6,0.5,0.8L2,8.9L1.1,9V8.7L0,8.8l0.1,1.5L2.8,10l1.5-2.4
	L5,6.4l0.4-0.1L8.5,6z"/>
<path d="M7,5C5.3,5,4,6.3,4,8s1.3,3,3,3s3-1.3,3-3S8.7,5,7,5z M7,10c-1.1,0-2-0.9-2-2c0-1.1,0.9-2,2-2s2,0.9,2,2C9,9.1,8.1,10,7,10z
	"/>
<rect x="6.8" y="6" width="0.5" height="4"/>
<rect x="6.8" y="6" transform="matrix(9.094953e-11 -1 1 9.094953e-11 -1 15)" width="0.5" height="4"/>
</svg>
