<?xml version="1.0" encoding="utf-8"?>
<!-- Generator: Adobe Illustrator 22.0.1, SVG Export Plug-In . SVG Version: 6.00 Build 0)  -->
<svg version="1.1" id="Layer_1" xmlns="http://www.w3.org/2000/svg" xmlns:xlink="http://www.w3.org/1999/xlink" x="0px" y="0px"
	 width="30px" height="30px" viewBox="0 0 30 30" enable-background="new 0 0 30 30" xml:space="preserve">
<path d="M29.7,7.5c-0.6,0.7-1.3,0.7-1.3,0.7L8.6,8.6c-1.8,0.1-2.1,1.5-2.2,2.3c-0.2-0.3-0.5-0.4-0.8-0.4c-0.5,0-1,0.4-1,1
	c0,0.5,0.4,1,1,1c0.4,0,0.7-0.2,0.8-0.5c0.1,0.5,0.3,1.3,1,1.8L4.3,19l-1.8,0.2v-0.6L0,18.8L0.3,22L6,21.3l3.1-5.1l1.6-2.4l1.1,0.5
	l1.9,1.9c-0.1,0.2-0.2,0.4-0.3,0.6H10v0.6h3.4c0,0.2,0.1,0.5,0.2,0.7l-2.3,2.3l0.4,0.4l2.3-2.3c0.2,0.1,0.4,0.2,0.7,0.3V22h0.6v-3.4
	c0.2-0.1,0.4-0.2,0.6-0.3l2.4,2.4l0.4-0.4l-2.4-2.4c0.1-0.2,0.2-0.4,0.2-0.6H20v-0.6h-3.6c0-0.2-0.1-0.3-0.2-0.5l2.5-2.5l-0.3-0.3
	l10.2-1.9c0,0,0.7-0.1,1.4,0.5L29.7,7.5z M14.7,13.9v1.7c-0.2,0-0.4,0.1-0.5,0.2l-1.6-1.6L14.7,13.9z M15.8,15.8
	c-0.1-0.1-0.3-0.2-0.5-0.2v-1.8l2.9-0.4L15.8,15.8z"/>
<path d="M15,11c-3.3,0-6,2.7-6,6s2.7,6,6,6s6-2.7,6-6S18.3,11,15,11z M15,21c-2.2,0-4-1.8-4-4c0-2.2,1.8-4,4-4s4,1.8,4,4
	C19,19.2,17.2,21,15,21z"/>
</svg>
