<?xml version="1.0" encoding="utf-8"?>
<!-- Generator: Adobe Illustrator 22.0.1, SVG Export Plug-In . SVG Version: 6.00 Build 0)  -->
<svg version="1.1" id="Layer_1" xmlns="http://www.w3.org/2000/svg" xmlns:xlink="http://www.w3.org/1999/xlink" x="0px" y="0px"
	 width="22px" height="22px" viewBox="0 0 22 22" enable-background="new 0 0 22 22" xml:space="preserve">
<path fill="#FFFFFF" d="M21.8,5.5c-0.4,0.5-1,0.5-1,0.5L6.3,6.3C5,6.4,4.8,7.4,4.7,8C4.6,7.8,4.4,7.7,4.1,7.7C3.8,7.7,3.4,8,3.4,8.4
	s0.3,0.7,0.7,0.7c0.3,0,0.5-0.2,0.6-0.4C4.8,9.1,5,9.7,5.5,10l-2.4,3.9l-1.3,0.1v-0.4L0,13.8l0.2,2.4l4.2-0.5l2.3-3.8l1.2-1.8
	l0.3,0.2l1.4,1.4c-0.1,0.1-0.2,0.3-0.2,0.4H6.8v0.4h2.5c0,0.2,0.1,0.3,0.2,0.5l-1.7,1.7l0.3,0.3l1.7-1.7c0.1,0.1,0.3,0.2,0.5,0.2V16
	h0.4v-2.5c0.2,0,0.3-0.1,0.4-0.2l1.8,1.8l0.3-0.3L11.4,13c0.1-0.1,0.1-0.3,0.1-0.4h2.6v-0.4h-2.6c0-0.1,0.3-0.5,0.2-0.7l1.5-1.6
	L13,9.7l8-1.3c0,0,0.5-0.1,1,0.4L21.8,5.5z M10.3,10v1.2c-0.1,0-0.3,0.1-0.4,0.1l-1.2-1.2L10.3,10z M11.1,11.4
	c-0.1-0.1-0.2-0.1-0.4-0.1V10L13,9.7L11.1,11.4z"/>
<path fill="#FFFFFF" d="M10.5,8C8,8,6,10,6,12.5S8,17,10.5,17s4.5-2,4.5-4.5S13,8,10.5,8z M10.5,16C8.6,16,7,14.4,7,12.5S8.6,9,10.5,9
	s3.5,1.6,3.5,3.5S12.4,16,10.5,16z"/>
</svg>
