<?xml version="1.0" encoding="utf-8"?>
<!-- Generator: Adobe Illustrator 24.2.0, SVG Export Plug-In . SVG Version: 6.00 Build 0)  -->
<svg version="1.1" id="Layer_1" xmlns="http://www.w3.org/2000/svg" xmlns:xlink="http://www.w3.org/1999/xlink" x="0px" y="0px"
	 width="22px" height="22px" viewBox="0 0 22 22" enable-background="new 0 0 22 22" xml:space="preserve">
<path  d="M20.9,2c-0.7-2-2.5-2.5-5.7-1.5C12,1.4,0,5.3,0,5.3l0,5.1l3-0.9l2.3-0.7c0,0.2,0,0.4,0.2,0.6l1.1,1.1
	c0.1,0.1,0.3,0.2,0.5,0.2c0,0,0,0,0,0l1.8-0.1c-0.1,0.3-0.1,0.6-0.2,1.1L8,17.7l-1.4,3c0,0.1-0.1,0.3-0.1,0.4c0,0.5,0.4,0.9,0.9,0.9
	c0.4,0,0.6-0.2,0.8-0.5l1.5-3.3c0-0.1,0.1-0.3,0.1-0.4l0.2-1.6l1.5,5.1c0.1,0.4,0.5,0.6,0.9,0.6c0.5,0,0.9-0.4,0.9-0.9
	c0-0.1,0-0.1,0-0.2l-2.1-7.1l0.3-2c0.1-0.6,0.1-1.1,0.1-1.5L13.6,9c0.1-0.1,0.2-0.2,0.3-0.4l0.6-2c0-0.1,0-0.2,0-0.2L13,6.8L12.7,8
	l-1.8,1.1L7.3,9.3L6.8,8.8l0,0L6.4,8.4L7.8,8l7.7-2.5c0,0,1.7-0.5,2.7,1.1l0.4-0.1C20.5,5.9,21.7,4,20.9,2z"/>
<path  d="M10.3,8.8c0.7,0,1.3-0.6,1.3-1.4c0,0,0-0.1,0-0.1L9.1,8.1C9.3,8.5,9.8,8.8,10.3,8.8z"/>
</svg>
