<?xml version="1.0" encoding="utf-8"?>
<!-- Generator: Adobe Illustrator 20.0.0, SVG Export Plug-In . SVG Version: 6.00 Build 0)  -->
<svg version="1.1" id="Icons" xmlns="http://www.w3.org/2000/svg" xmlns:xlink="http://www.w3.org/1999/xlink" x="0px" y="0px"
	 width="30px" height="30px" viewBox="0 0 30 30" style="enable-background:new 0 0 30 30;" xml:space="preserve">
<g>
	<circle fill="#231F20" cx="10.5" cy="3.5" r="2.5"/>
	<polygon fill="#231F20" points="0,26.7 2,26 3,26 6,27 7,27 10,26 11,26 14,27 15,27 18,26 19,26 22,27 23,27 26,26 27,26 30,27 30,24 27,23 
		26,23 23,24 22,24 19,23 18,23 15,24 14,24 11,23 10,23 7,24 6,24 3,23 2,23 0,23.7 	"/>
	<path fill="#231F20" d="M3,21l3,1h1l3-1h1l3,1h1l3-1h1l3,1h1l3-1h1l1.1,0.4c0.7-0.9,1.1-1.9,1.1-3.1c0-2.8-2.3-5.1-5.1-5.1l-0.6,0.1
		C23,15.8,21,16,21,16H9l-1.1-0.7l2.3-3.9l2.6,1.5c1.5,1,2.3-0.4,2.3-0.4l2.6-4.2c1.1-1.8-1.3-3.2-2.4-1.4l-1.8,2.9L9.3,7.4
		c-3-1.6-4.2,1.1-4.2,1.1l-3.3,5.7c-0.6,1.2-0.1,1.7-0.1,1.7H0v5.7L2,21H3z"/>
</g>
</svg>
