<?xml version="1.0" encoding="utf-8"?>
<!-- Generator: Adobe Illustrator 18.1.1, SVG Export Plug-In . SVG Version: 6.00 Build 0)  -->
<svg version="1.1" id="Icons" xmlns="http://www.w3.org/2000/svg" xmlns:xlink="http://www.w3.org/1999/xlink" x="0px" y="0px"
	 viewBox="0 0 24 24" enable-background="new 0 0 24 24" xml:space="preserve">
<g opacity="0.5">
	<path d="M5,19l2,1h1l2-1h1l2,1h1l2-1h1l2,1h1l2-1h0.2c0.1-0.1,0.1-0.2,0.2-0.1c0.6-0.7,1-1.5,1-2.5c0-2.1-1.7-3.7-3.7-3.7l-0.4,0
		c-0.5,1.9-2.3,1.9-2.3,1.9l-8.5,0l-0.7-0.4l1.7-2.9l1.9,1.1c1.1,0.7,1.7-0.3,1.7-0.3L15,9.1C15.8,7.7,14,6.7,13.2,8l-1.3,2.1
		L8.8,8.4C6.6,7.2,5.7,9.2,5.7,9.2l-2.5,4.2c-0.4,0.9,0,1.2,0,1.2l-1.2,0V20l2-1H5z"/>
	<polygon points="23,21 22,21 20,22 19,22 17,21 16,21 14,22 13,22 11,21 10,21 8,22 7,22 5,21 4,21 2,22 2,24 4,23 5,23 7,24 8,24 
		10,23 11,23 13,24 14,24 16,23 17,23 19,24 20,24 22,23 23,23 24,23.5 24,21.5 	"/>
	<circle cx="10" cy="5" r="2"/>
</g>
<g opacity="0.75">
	<path d="M4,18l2,1h1l2-1h1l2,1h1l2-1h1l2,1h1l2-1h0.2c0.1-0.1,0.1-0.2,0.2-0.1c0.6-0.7,1-1.5,1-2.5c0-2.1-1.7-3.7-3.7-3.7l-0.4,0
		c-0.5,1.9-2.3,1.9-2.3,1.9l-8.5,0l-0.7-0.4l1.7-2.9l1.9,1.1c1.1,0.7,1.7-0.3,1.7-0.3L14,8.1C14.8,6.7,13,5.7,12.2,7l-1.3,2.1
		L7.8,7.4C5.6,6.2,4.7,8.2,4.7,8.2l-2.5,4.2c-0.4,0.9,0,1.2,0,1.2l-1.2,0V19l2-1H4z"/>
	<polygon points="22,20 21,20 19,21 18,21 16,20 15,20 13,21 12,21 10,20 9,20 7,21 6,21 4,20 3,20 1,21 1,23 3,22 4,22 6,23 7,23 
		9,22 10,22 12,23 13,23 15,22 16,22 18,23 19,23 21,22 22,22 23,22.5 23,20.5 	"/>
	<circle cx="9" cy="4" r="2"/>
</g>
<g>
	<path fill="#E6E6E6" d="M3,17l2,1h1l2-1h1l2,1h1l2-1h1l2,1h1l2-1h0.2c0.1-0.1,0.1-0.2,0.2-0.1c0.6-0.7,1-1.5,1-2.5
		c0-2.1-1.7-3.7-3.7-3.7l-0.4,0c-0.5,1.9-2.3,1.9-2.3,1.9l-8.5,0l-0.7-0.4l1.7-2.9l1.9,1.1c1.1,0.7,1.7-0.3,1.7-0.3L13,7.1
		C13.8,5.7,12,4.7,11.2,6L9.9,8.1L6.8,6.4C4.6,5.2,3.7,7.2,3.7,7.2l-2.5,4.2c-0.4,0.9,0,1.2,0,1.2l-1.2,0V18l2-1H3z"/>
	<polygon fill="#E6E6E6" points="21,19 20,19 18,20 17,20 15,19 14,19 12,20 11,20 9,19 8,19 6,20 5,20 3,19 2,19 0,20 0,22 2,21 
		3,21 5,22 6,22 8,21 9,21 11,22 12,22 14,21 15,21 17,22 18,22 20,21 21,21 22,21.5 22,19.5 	"/>
	<circle fill="#E6E6E6" cx="8" cy="3" r="2"/>
</g>
</svg>
