<?xml version="1.0" encoding="utf-8"?>
<!-- Generator: Adobe Illustrator 25.4.1, SVG Export Plug-In . SVG Version: 6.00 Build 0)  -->
<svg version="1.1" id="Icons" xmlns="http://www.w3.org/2000/svg" xmlns:xlink="http://www.w3.org/1999/xlink" x="0px" y="0px"
	 width="14px" height="14px" viewBox="0 0 14 14" enable-background="new 0 0 14 14" xml:space="preserve">
<path fill="#ffffff" d="M5.2,3H4.7C4.3,3,4,2.7,4,2.2V1.8C4,1.3,4.3,1,4.8,1h0.5C5.7,1,6,1.3,6,1.8v0.5C6,2.7,5.7,3,5.2,3z"/>
<path fill="#ffffff" d="M8.8,4.1C8.6,4,8.3,4,8.1,4.1L6.5,5.8L4.9,4.2L4.7,4H3.5H3L1,7v1h3L3,7l1.3-2l1.8,1.8C6.2,7,6.3,7,6.5,7
	s0.3,0,0.4-0.1l2-2C9,4.7,9,4.3,8.8,4.1z"/>
<path fill="#ffffff" d="M13.6,13.5c-0.3,0-0.6-0.1-0.8-0.2c-0.3-0.1-0.6-0.5-0.9-0.5c-0.3,0-0.6,0.4-0.9,0.5
	c-0.2,0.1-0.5,0.2-0.8,0.2s-0.6-0.1-0.8-0.2c-0.3-0.1-0.6-0.5-0.9-0.5c-0.3,0-0.6,0.4-0.9,0.5c-0.2,0.1-0.5,0.2-0.8,0.2
	S6.2,13.4,6,13.3c-0.3-0.1-0.6-0.5-0.9-0.5s-0.6,0.4-0.9,0.5c-0.2,0.1-0.5,0.2-0.8,0.2s-0.6-0.1-0.8-0.2c-0.3-0.1-0.6-0.5-0.9-0.5
	s-0.6,0.4-0.9,0.5c-0.2,0.1-0.5,0.2-0.8,0.2v-1.2c0.3,0,0.6-0.1,0.8-0.2c0.3-0.1,0.6-0.5,0.9-0.5s0.6,0.4,0.9,0.5s0.5,0.2,0.8,0.2
	s0.6-0.1,0.8-0.2c0.3-0.1,0.6-0.5,0.9-0.5S5.7,12,6,12.1s0.5,0.2,0.8,0.2s0.6-0.1,0.8-0.2c0.3-0.1,0.6-0.5,0.9-0.5s0.6,0.4,0.9,0.5
	c0.3,0.1,0.5,0.2,0.8,0.2s0.6-0.1,0.8-0.2c0.3-0.1,0.6-0.5,0.9-0.5c0.3,0,0.6,0.4,0.9,0.5c0.3,0.1,0.5,0.2,0.8,0.2
	C13.6,12.3,13.6,13.5,13.6,13.5z"/>
<path fill="#ffffff" d="M1.7,10.6c0.3,0,0.6,0.4,0.9,0.5s0.5,0.2,0.8,0.2s0.6-0.1,0.8-0.2c0.3-0.1,0.6-0.5,0.9-0.5S5.7,11,6,11.1
	s0.5,0.2,0.8,0.2s0.6-0.1,0.8-0.2c0.3-0.1,0.6-0.5,0.9-0.5s0.6,0.4,0.9,0.5c0.3,0.1,0.5,0.2,0.8,0.2s0.6-0.1,0.8-0.2
	c0.3-0.1,0.6-0.5,0.9-0.5c0.2,0,0.5,0.2,0.7,0.4c0,0,0.4,0,0.7-0.3c0.4-0.5,0.7-1,0.7-1.6C14,7.7,12.9,7,11.6,7h-0.3
	C11,8.2,9.8,8,9.8,8H0v3.3c0.3,0,0.6-0.1,0.8-0.2C1.1,11,1.4,10.6,1.7,10.6z"/>
</svg>
