<?xml version="1.0" encoding="utf-8"?>
<!-- Generator: Adobe Illustrator 20.0.0, SVG Export Plug-In . SVG Version: 6.00 Build 0)  -->
<svg version="1.1" id="Icons" xmlns="http://www.w3.org/2000/svg" xmlns:xlink="http://www.w3.org/1999/xlink" x="0px" y="0px"
	 width="22px" height="22px" viewBox="0 0 22 22" style="enable-background:new 0 0 22 22;" xml:space="preserve">
<g>
	<path fill="#231F20" d="M3,17l2,1h1l2-1h1l2,1h1l2-1h1l2,1h1l2-1h0.2c0.1-0.1,0.1-0.2,0.2-0.1c0.6-0.7,1-1.5,1-2.5c0-2.1-1.7-3.7-3.7-3.7h-0.4
		c-0.5,1.9-2.3,1.9-2.3,1.9H6.5l-0.7-0.4l1.7-2.9l1.9,1.1c1.1,0.7,1.7-0.3,1.7-0.3l1.9-3c0.8-1.4-1-2.4-1.8-1.1L9.9,8.1L6.8,6.4
		C4.6,5.2,3.7,7.2,3.7,7.2l-2.5,4.2c-0.4,0.9,0,1.2,0,1.2H0V18l2-1H3z"/>
	<polygon fill="#231F20" points="21,19 20,19 18,20 17,20 15,19 14,19 12,20 11,20 9,19 8,19 6,20 5,20 3,19 2,19 0,20 0,22 2,21 3,21 5,22 6,22 
		8,21 9,21 11,22 12,22 14,21 15,21 17,22 18,22 20,21 21,21 22,21.5 22,19.5 	"/>
	<circle fill="#231F20" cx="8" cy="3" r="2"/>
</g>
</svg>
