<?xml version="1.0" encoding="utf-8"?>
<!-- Generator: Adobe Illustrator 20.0.0, SVG Export Plug-In . SVG Version: 6.00 Build 0)  -->
<svg version="1.1" id="Icons" xmlns="http://www.w3.org/2000/svg" xmlns:xlink="http://www.w3.org/1999/xlink" x="0px" y="0px"
	 width="14px" height="14px" viewBox="0 0 14 14" style="enable-background:new 0 0 14 14;" xml:space="preserve">
<g>
	<path fill="#FFFFFF" d="M14,12.5L13,13h-1l-2-1H9l-2,1H6l-2-1H3l-2,1H0v1h1l2-1h1l2,1h1l2-1h1l2,1h1l1-0.5c0-0.2,0-0.3,0-0.5S14,12.7,14,12.5z"/>
	<rect fill="#FFFFFF" x="4" y="1" width="2" height="2"/>
	<polygon fill="#FFFFFF" points="1.1,11 3.1,10 4.1,10 6.1,11 7.1,11 9.1,10 10.1,10 12.1,11 13,11 14,9 12,7 11,6.5 11,8 4,8 4,7 7,7 9,6 9,4 
		7.5,4.5 7,5.5 5.5,5.5 4,4 3,4 0,8 0,11 	"/>
</g>
</svg>
