<?xml version="1.0" encoding="utf-8"?>
<!-- Generator: Adobe Illustrator 22.1.0, SVG Export Plug-In . SVG Version: 6.00 Build 0)  -->
<svg version="1.1" id="Layer_1" xmlns="http://www.w3.org/2000/svg" xmlns:xlink="http://www.w3.org/1999/xlink" x="0px" y="0px"
	 width="30px" height="30px" viewBox="0 0 30 30" enable-background="new 0 0 30 30" xml:space="preserve">
<path fill="#FFFFFF" d="M19.7,2.1c-0.3,0-0.5-0.3-0.5-0.5l0,0c0-0.2,0.1-0.4,0.3-0.5c-0.2-0.1-0.3-0.3-0.3-0.5l0,0c0-0.3,0.2-0.6,0.6-0.6h3.4
	c0.3,0,0.6,0.2,0.6,0.6l0,0c0,0.2-0.1,0.4-0.3,0.5c0.2,0.1,0.3,0.3,0.3,0.5l0,0c0,0.3-0.2,0.5-0.5,0.5l3.3,9
	c0.2,0.6,0.3,1.2,0.3,1.9v16c0,0.6-0.5,1.1-1.1,1.1h-8.7c-0.6,0-1.1-0.5-1.1-1.1v-16c0-0.7,0.1-1.3,0.3-1.9L19.7,2.1z"/>
<path fill="#FFFFFF" d="M6.5,11.7c0,0.1,0.1,0.2,0.1,0.3c0,0.4-0.3,0.7-0.7,0.7c-0.1,0-0.3-0.1-0.4-0.1l-1.8-1.5c-0.2-0.2-0.3-0.5-0.3-0.9
	C3.3,9.6,3.9,9,4.6,9c0.5,0,1,0.3,1.2,0.8L6.5,11.7z M5,11.5c0.1,0.1,0.2,0.1,0.3,0.1c0.2,0,0.4-0.2,0.4-0.4c0-0.1,0-0.1-0.1-0.2
	l-0.4-1C5.1,9.8,4.9,9.6,4.6,9.6C4.3,9.6,4,9.9,4,10.3c0,0.2,0.1,0.3,0.2,0.4L5,11.5z"/>
<path fill="#FFFFFF" d="M12.6,13c0.2,0,0.4,0.2,0.4,0.4v0.2c0,0.2-0.2,0.4-0.4,0.4l-0.4,0c0.4,0.3,0.8,0.8,0.8,1.3v13.4c0,0.7-0.6,1.2-1.2,1.2H4.3
	C3.6,30,3,29.4,3,28.8l0-13.4c0-0.6,0.3-1,0.8-1.3l-0.4,0C3.2,14,3,13.9,3,13.6v-0.2C3,13.2,3.2,13,3.4,13H12.6z"/>
</svg>
