<?xml version="1.0" encoding="utf-8"?>
<!-- Generator: Adobe Illustrator 22.1.0, SVG Export Plug-In . SVG Version: 6.00 Build 0)  -->
<svg version="1.1" id="Layer_1" xmlns="http://www.w3.org/2000/svg" xmlns:xlink="http://www.w3.org/1999/xlink" x="0px" y="0px"
	 width="14px" height="14px" viewBox="0 0 14 14" enable-background="new 0 0 14 14" xml:space="preserve">
<path fill="#FFFFFF" d="M9.7,1c-0.1,0-0.2-0.1-0.2-0.3l0,0c0-0.1,0.1-0.2,0.1-0.2c-0.1,0-0.1-0.1-0.1-0.2l0,0C9.5,0.1,9.6,0,9.7,0h1.5
	c0.1,0,0.3,0.1,0.3,0.3l0,0c0,0.1-0.1,0.2-0.1,0.2c0.1,0,0.1,0.1,0.1,0.2l0,0c0,0.1-0.1,0.2-0.2,0.3l1.6,4.2C12.9,5.4,13,5.7,13,6
	v7.4c0,0.3-0.2,0.5-0.5,0.5H8.5C8.2,14,8,13.8,8,13.5V6c0-0.3,0-0.6,0.1-0.9L9.7,1z"/>
<path fill="#FFFFFF" d="M2.6,5.3c0,0,0,0.1,0,0.1c0,0.2-0.2,0.3-0.3,0.3c-0.1,0-0.1,0-0.2-0.1L1.3,5C1.2,4.9,1.1,4.8,1.1,4.6C1.1,4.3,1.4,4,1.7,4
	C2,4,2.2,4.1,2.3,4.4L2.6,5.3z M1.9,5.2c0,0,0.1,0,0.1,0c0.1,0,0.2-0.1,0.2-0.2c0,0,0-0.1,0-0.1L2,4.5c0-0.1-0.2-0.2-0.3-0.2
	c-0.2,0-0.3,0.1-0.3,0.3c0,0.1,0,0.2,0.1,0.2L1.9,5.2z"/>
<path fill="#FFFFFF" d="M5.7,6c0.1,0,0.2,0.1,0.2,0.2v0.2c0,0.1-0.1,0.2-0.2,0.2l-0.2,0c0.2,0.1,0.4,0.4,0.4,0.6L6,13c0,0.3-0.7,1-1,1H2
	c-0.3,0-1-0.7-1-1l0-5.8c0-0.3,0.1-0.5,0.4-0.6l-0.2,0C1.1,6.6,1,6.5,1,6.4V6.2C1,6.1,1.1,6,1.2,6H5.7z"/>
</svg>
