<?xml version="1.0" encoding="utf-8"?>
<!-- Generator: Adobe Illustrator 22.1.0, SVG Export Plug-In . SVG Version: 6.00 Build 0)  -->
<svg version="1.1" id="Layer_1" xmlns="http://www.w3.org/2000/svg" xmlns:xlink="http://www.w3.org/1999/xlink" x="0px" y="0px"
	 width="22px" height="22px" viewBox="0 0 22 22" enable-background="new 0 0 22 22" xml:space="preserve">
<path d="M14.7,1.5c-0.2,0-0.3-0.2-0.3-0.4l0,0c0-0.2,0.1-0.3,0.2-0.4c-0.1-0.1-0.2-0.2-0.2-0.4l0,0c0-0.2,0.2-0.4,0.4-0.4h2.5
	c0.2,0,0.4,0.2,0.4,0.4l0,0c0,0.2-0.1,0.3-0.2,0.4c0.1,0.1,0.2,0.2,0.2,0.4l0,0c0,0.2-0.2,0.4-0.3,0.4l2.4,6.6C19.9,8.5,20,9,20,9.5
	v11.7c0,0.4-0.4,0.8-0.8,0.8h-6.4c-0.4,0-0.8-0.4-0.8-0.8V9.5c0-0.5,0.1-1,0.2-1.4L14.7,1.5z"/>
<path d="M4.8,8c0,0.1,0,0.1,0,0.2c0,0.3-0.2,0.5-0.5,0.5c-0.1,0-0.2,0-0.3-0.1L2.7,7.6C2.5,7.4,2.4,7.2,2.4,7c0-0.5,0.4-1,1-1
	c0.4,0,0.7,0.2,0.9,0.6L4.8,8z M3.7,7.9c0,0,0.1,0.1,0.2,0.1C4,8,4.2,7.8,4.2,7.7c0,0,0-0.1,0-0.1L3.8,6.8C3.7,6.6,3.6,6.5,3.4,6.5
	C3.1,6.5,2.9,6.7,2.9,7c0,0.1,0,0.2,0.1,0.3L3.7,7.9z"/>
<path d="M9.7,9C9.8,9,10,9.1,10,9.3V10c0,0.2-0.1,0.3-0.3,0.3l-0.3,0c0.3,0.2,0.6,0.6,0.6,1v9.8c0,0.5-0.4,0.9-0.9,0.9H3
	c-0.5,0-1-0.5-1-1l0-9.7c0-0.4,0.2-0.8,0.6-1l-0.3,0C2.1,10.3,2,10.2,2,10V9.3C2,9.1,2.1,9,2.3,9H9.7z"/>
</svg>
