<?xml version="1.0" encoding="UTF-8" standalone="no"?>
<svg width="24px" height="24px" viewBox="0 0 24 24" version="1.1" xmlns="http://www.w3.org/2000/svg" xmlns:xlink="http://www.w3.org/1999/xlink" xmlns:sketch="http://www.bohemiancoding.com/sketch/ns">
    <!-- Generator: Sketch 3.3.3 (12072) - http://www.bohemiancoding.com/sketch -->
    <title>cave-black-24</title>
    <desc>Created with Sketch.</desc>
    <defs></defs>
    <g id="cave" stroke="none" stroke-width="1" fill="none" fill-rule="evenodd" sketch:type="MSPage">
        <g id="cave-black-24" sketch:type="MSArtboardGroup" fill="#000000">
            <path d="M16.4958994,7 C16.4315762,7.97725398 15.6185303,8.75 14.625,8.75 C13.5894661,8.75 12.75,7.91053391 12.75,6.875 C12.75,5.83946609 13.5894661,5 14.625,5 C15.344511,5 15.969365,5.40527458 16.2837384,6 L15,6 L15,7 L16.4958994,7 L16.4958994,7 Z M11.533,8.27866667 C11.7243333,8.12233333 11.7523333,7.84466667 11.596,7.658 L10.763,6.63366667 C10.6066667,6.44233333 10.329,6.41433333 10.1423333,6.56833333 L6.577,9.46866667 C6.39033333,9.62266667 6.35766667,9.90033333 6.51166667,10.0916667 L7.347,11.1183333 C7.501,11.305 7.77866667,11.3306667 7.97,11.1813333 L11.533,8.27866667 Z M8.012,12.3806667 C7.81133333,12.5346667 7.63866667,12.7306667 7.50566667,12.964 C7.37733333,13.1856667 7.30033333,13.4236667 7.26533333,13.6593333 L6.248,18.039 L3.44566667,20.7386667 C3.36866667,20.811 3.29866667,20.8926667 3.24966667,20.9883333 C2.95333333,21.504 3.13066667,22.1596667 3.651,22.456 C4.064,22.694 4.575,22.6193333 4.90866667,22.3136667 L8.026,19.3036667 C8.07033333,19.2476667 8.11233333,19.1893333 8.14733333,19.124 C8.194,19.0423333 8.23133333,18.9606667 8.25233333,18.8743333 L8.887,16.0976667 L10.973,18.1766667 L10.9683333,21.6813333 C10.9683333,22.0546667 11.162,22.414 11.5096667,22.6146667 C12.0253333,22.9063333 12.681,22.729 12.9773333,22.2156667 C13.0776667,22.0266667 13.122,21.8306667 13.1126667,21.637 L13.1173333,17.7403333 C13.1266667,17.4603333 13.0263333,17.1873333 12.835,16.9773333 L10.588,14.7583333 L13.1733333,12.6396667 L13.7706667,14.294 C13.8196667,14.4036667 13.8966667,14.504 13.9923333,14.581 L16.4633333,16.4546667 C16.797,16.66 17.2426667,16.604 17.5203333,16.3076667 C17.84,15.967 17.8213333,15.428 17.4806667,15.1106667 C17.4713333,15.1013333 17.4573333,15.092 17.448,15.0826667 L15.2826667,13.4283333 L14.2816667,10.4883333 C14.1206667,10.101 13.8383333,9.765 13.4463333,9.541 C12.7813333,9.163 11.9833333,9.21666667 11.3906667,9.618 L8.012,12.3806667 Z M18,6 L24,6 L24,8 L23,10 L21,12 L18,7 L18,6 Z" id="symbol" fill-opacity="0.1" sketch:type="MSShapeGroup"></path>
            <path d="M15.4958994,6 C15.4315762,6.97725398 14.6185303,7.75 13.625,7.75 C12.5894661,7.75 11.75,6.91053391 11.75,5.875 C11.75,4.83946609 12.5894661,4 13.625,4 C14.344511,4 14.969365,4.40527458 15.2837384,5 L14,5 L14,6 L15.4958994,6 L15.4958994,6 Z M10.533,7.27866667 C10.7243333,7.12233333 10.7523333,6.84466667 10.596,6.658 L9.763,5.63366667 C9.60666667,5.44233333 9.329,5.41433333 9.14233333,5.56833333 L5.577,8.46866667 C5.39033333,8.62266667 5.35766667,8.90033333 5.51166667,9.09166667 L6.347,10.1183333 C6.501,10.305 6.77866667,10.3306667 6.97,10.1813333 L10.533,7.27866667 Z M7.012,11.3806667 C6.81133333,11.5346667 6.63866667,11.7306667 6.50566667,11.964 C6.37733333,12.1856667 6.30033333,12.4236667 6.26533333,12.6593333 L5.248,17.039 L2.44566667,19.7386667 C2.36866667,19.811 2.29866667,19.8926667 2.24966667,19.9883333 C1.95333333,20.504 2.13066667,21.1596667 2.651,21.456 C3.064,21.694 3.575,21.6193333 3.90866667,21.3136667 L7.026,18.3036667 C7.07033333,18.2476667 7.11233333,18.1893333 7.14733333,18.124 C7.194,18.0423333 7.23133333,17.9606667 7.25233333,17.8743333 L7.887,15.0976667 L9.973,17.1766667 L9.96833333,20.6813333 C9.96833333,21.0546667 10.162,21.414 10.5096667,21.6146667 C11.0253333,21.9063333 11.681,21.729 11.9773333,21.2156667 C12.0776667,21.0266667 12.122,20.8306667 12.1126667,20.637 L12.1173333,16.7403333 C12.1266667,16.4603333 12.0263333,16.1873333 11.835,15.9773333 L9.588,13.7583333 L12.1733333,11.6396667 L12.7706667,13.294 C12.8196667,13.4036667 12.8966667,13.504 12.9923333,13.581 L15.4633333,15.4546667 C15.797,15.66 16.2426667,15.604 16.5203333,15.3076667 C16.84,14.967 16.8213333,14.428 16.4806667,14.1106667 C16.4713333,14.1013333 16.4573333,14.092 16.448,14.0826667 L14.2826667,12.4283333 L13.2816667,9.48833333 C13.1206667,9.101 12.8383333,8.765 12.4463333,8.541 C11.7813333,8.163 10.9833333,8.21666667 10.3906667,8.618 L7.012,11.3806667 Z M17,5 L23,5 L23,7 L22,9 L20,11 L17,6 L17,5 Z" id="symbol-copy" fill-opacity="0.2" sketch:type="MSShapeGroup"></path>
            <path d="M14.4958994,5 C14.4315762,5.97725398 13.6185303,6.75 12.625,6.75 C11.5894661,6.75 10.75,5.91053391 10.75,4.875 C10.75,3.83946609 11.5894661,3 12.625,3 C13.344511,3 13.969365,3.40527458 14.2837384,4 L13,4 L13,5 L14.4958994,5 L14.4958994,5 Z M9.533,6.27866667 C9.72433333,6.12233333 9.75233333,5.84466667 9.596,5.658 L8.763,4.63366667 C8.60666667,4.44233333 8.329,4.41433333 8.14233333,4.56833333 L4.577,7.46866667 C4.39033333,7.62266667 4.35766667,7.90033333 4.51166667,8.09166667 L5.347,9.11833333 C5.501,9.305 5.77866667,9.33066667 5.97,9.18133333 L9.533,6.27866667 Z M6.012,10.3806667 C5.81133333,10.5346667 5.63866667,10.7306667 5.50566667,10.964 C5.37733333,11.1856667 5.30033333,11.4236667 5.26533333,11.6593333 L4.248,16.039 L1.44566667,18.7386667 C1.36866667,18.811 1.29866667,18.8926667 1.24966667,18.9883333 C0.953333333,19.504 1.13066667,20.1596667 1.651,20.456 C2.064,20.694 2.575,20.6193333 2.90866667,20.3136667 L6.026,17.3036667 C6.07033333,17.2476667 6.11233333,17.1893333 6.14733333,17.124 C6.194,17.0423333 6.23133333,16.9606667 6.25233333,16.8743333 L6.887,14.0976667 L8.973,16.1766667 L8.96833333,19.6813333 C8.96833333,20.0546667 9.162,20.414 9.50966667,20.6146667 C10.0253333,20.9063333 10.681,20.729 10.9773333,20.2156667 C11.0776667,20.0266667 11.122,19.8306667 11.1126667,19.637 L11.1173333,15.7403333 C11.1266667,15.4603333 11.0263333,15.1873333 10.835,14.9773333 L8.588,12.7583333 L11.1733333,10.6396667 L11.7706667,12.294 C11.8196667,12.4036667 11.8966667,12.504 11.9923333,12.581 L14.4633333,14.4546667 C14.797,14.66 15.2426667,14.604 15.5203333,14.3076667 C15.84,13.967 15.8213333,13.428 15.4806667,13.1106667 C15.4713333,13.1013333 15.4573333,13.092 15.448,13.0826667 L13.2826667,11.4283333 L12.2816667,8.48833333 C12.1206667,8.101 11.8383333,7.765 11.4463333,7.541 C10.7813333,7.163 9.98333333,7.21666667 9.39066667,7.618 L6.012,10.3806667 Z M16,4 L22,4 L22,6 L21,8 L19,10 L16,5 L16,4 Z" id="symbol-copy-2" sketch:type="MSShapeGroup"></path>
        </g>
    </g>
</svg>