<?xml version="1.0" encoding="UTF-8" standalone="no"?>
<svg width="32px" height="32px" viewBox="0 0 32 32" version="1.1" xmlns="http://www.w3.org/2000/svg" xmlns:xlink="http://www.w3.org/1999/xlink" xmlns:sketch="http://www.bohemiancoding.com/sketch/ns">
    <!-- Generator: Sketch 3.3.3 (12072) - http://www.bohemiancoding.com/sketch -->
    <title>cave-white-32</title>
    <desc>Created with Sketch.</desc>
    <defs></defs>
    <g id="cave" stroke="none" stroke-width="1" fill="none" fill-rule="evenodd" sketch:type="MSPage">
        <g id="cave-white-32" sketch:type="MSArtboardGroup">
            <path d="M21.9499909,8 C21.7183558,6.85887984 20.709479,6 19.5,6 C18.1192881,6 17,7.11928813 17,8.5 C17,8.67123292 17.0172151,8.83844503 17.0500091,9 L17.0500091,9 L19,9 L19,10 L17.4998169,10 C17.9559201,10.6072234 18.6820911,11 19.5,11 C20.709479,11 21.7183558,10.1411202 21.9499909,9 L19,9 L19,8 L21.9499909,8 Z M15.3773333,10.3715556 C15.6324444,10.1631111 15.6697778,9.79288889 15.4613333,9.544 L14.3506667,8.17822222 C14.1422222,7.92311111 13.772,7.88577778 13.5231111,8.09111111 L8.76933333,11.9582222 C8.52044444,12.1635556 8.47688889,12.5337778 8.68222222,12.7888889 L9.796,14.1577778 C10.0013333,14.4066667 10.3715556,14.4408889 10.6266667,14.2417778 L15.3773333,10.3715556 Z M10.6826667,15.8408889 C10.4151111,16.0462222 10.1848889,16.3075556 10.0075556,16.6186667 C9.83644444,16.9142222 9.73377778,17.2315556 9.68711111,17.5457778 L8.33066667,23.3853333 L4.59422222,26.9848889 C4.49155556,27.0813333 4.39822222,27.1902222 4.33288889,27.3177778 C3.93777778,28.0053333 4.17422222,28.8795556 4.868,29.2746667 C5.41866667,29.592 6.1,29.4924444 6.54488889,29.0848889 L10.7013333,25.0715556 C10.7604444,24.9968889 10.8164444,24.9191111 10.8631111,24.832 C10.9253333,24.7231111 10.9751111,24.6142222 11.0031111,24.4991111 L11.8493333,20.7968889 L14.6306667,23.5688889 L14.6244444,28.2417778 C14.6244444,28.7395556 14.8826667,29.2186667 15.3462222,29.4862222 C16.0337778,29.8751111 16.908,29.6386667 17.3031111,28.9542222 C17.4368889,28.7022222 17.496,28.4408889 17.4835556,28.1826667 L17.4897778,22.9871111 C17.5022222,22.6137778 17.3684444,22.2497778 17.1133333,21.9697778 L14.1173333,19.0111111 L17.5644444,16.1862222 L18.3608889,18.392 C18.4262222,18.5382222 18.5288889,18.672 18.6564444,18.7746667 L21.9511111,21.2728889 C22.396,21.5466667 22.9902222,21.472 23.3604444,21.0768889 C23.7866667,20.6226667 23.7617778,19.904 23.3075556,19.4808889 C23.2951111,19.4684444 23.2764444,19.456 23.264,19.4435556 L20.3768889,17.2377778 L19.0422222,13.3177778 C18.8275556,12.8013333 18.4511111,12.3533333 17.9284444,12.0546667 C17.0417778,11.5506667 15.9777778,11.6222222 15.1875556,12.1573333 L10.6826667,15.8408889 Z M25,7 L32,7 L32,10 L31,13 L29,15 L24,8 L25,7 Z" id="symbol" fill-opacity="0.5" fill="#000000" sketch:type="MSShapeGroup"></path>
            <path d="M20.9499909,7 C20.7183558,5.85887984 19.709479,5 18.5,5 C17.1192881,5 16,6.11928813 16,7.5 C16,7.67123292 16.0172151,7.83844503 16.0500091,8 L16.0500091,8 L18,8 L18,9 L16.4998169,9 C16.9559201,9.60722335 17.6820911,10 18.5,10 C19.709479,10 20.7183558,9.14112016 20.9499909,8 L18,8 L18,7 L20.9499909,7 Z M14.3773333,9.37155556 C14.6324444,9.16311111 14.6697778,8.79288889 14.4613333,8.544 L13.3506667,7.17822222 C13.1422222,6.92311111 12.772,6.88577778 12.5231111,7.09111111 L7.76933333,10.9582222 C7.52044444,11.1635556 7.47688889,11.5337778 7.68222222,11.7888889 L8.796,13.1577778 C9.00133333,13.4066667 9.37155556,13.4408889 9.62666667,13.2417778 L14.3773333,9.37155556 Z M9.68266667,14.8408889 C9.41511111,15.0462222 9.18488889,15.3075556 9.00755556,15.6186667 C8.83644444,15.9142222 8.73377778,16.2315556 8.68711111,16.5457778 L7.33066667,22.3853333 L3.59422222,25.9848889 C3.49155556,26.0813333 3.39822222,26.1902222 3.33288889,26.3177778 C2.93777778,27.0053333 3.17422222,27.8795556 3.868,28.2746667 C4.41866667,28.592 5.1,28.4924444 5.54488889,28.0848889 L9.70133333,24.0715556 C9.76044444,23.9968889 9.81644444,23.9191111 9.86311111,23.832 C9.92533333,23.7231111 9.97511111,23.6142222 10.0031111,23.4991111 L10.8493333,19.7968889 L13.6306667,22.5688889 L13.6244444,27.2417778 C13.6244444,27.7395556 13.8826667,28.2186667 14.3462222,28.4862222 C15.0337778,28.8751111 15.908,28.6386667 16.3031111,27.9542222 C16.4368889,27.7022222 16.496,27.4408889 16.4835556,27.1826667 L16.4897778,21.9871111 C16.5022222,21.6137778 16.3684444,21.2497778 16.1133333,20.9697778 L13.1173333,18.0111111 L16.5644444,15.1862222 L17.3608889,17.392 C17.4262222,17.5382222 17.5288889,17.672 17.6564444,17.7746667 L20.9511111,20.2728889 C21.396,20.5466667 21.9902222,20.472 22.3604444,20.0768889 C22.7866667,19.6226667 22.7617778,18.904 22.3075556,18.4808889 C22.2951111,18.4684444 22.2764444,18.456 22.264,18.4435556 L19.3768889,16.2377778 L18.0422222,12.3177778 C17.8275556,11.8013333 17.4511111,11.3533333 16.9284444,11.0546667 C16.0417778,10.5506667 14.9777778,10.6222222 14.1875556,11.1573333 L9.68266667,14.8408889 Z M24,6 L31,6 L31,9 L30,12 L28,14 L23,7 L24,6 Z" id="symbol-copy" fill-opacity="0.75" fill="#000000" sketch:type="MSShapeGroup"></path>
            <path d="M19.9499909,6 C19.7183558,4.85887984 18.709479,4 17.5,4 C16.1192881,4 15,5.11928813 15,6.5 C15,6.67123292 15.0172151,6.83844503 15.0500091,7 L15.0500091,7 L17,7 L17,8 L15.4998169,8 C15.9559201,8.60722335 16.6820911,9 17.5,9 C18.709479,9 19.7183558,8.14112016 19.9499909,7 L17,7 L17,6 L19.9499909,6 Z M13.3773333,8.37155556 C13.6324444,8.16311111 13.6697778,7.79288889 13.4613333,7.544 L12.3506667,6.17822222 C12.1422222,5.92311111 11.772,5.88577778 11.5231111,6.09111111 L6.76933333,9.95822222 C6.52044444,10.1635556 6.47688889,10.5337778 6.68222222,10.7888889 L7.796,12.1577778 C8.00133333,12.4066667 8.37155556,12.4408889 8.62666667,12.2417778 L13.3773333,8.37155556 Z M8.68266667,13.8408889 C8.41511111,14.0462222 8.18488889,14.3075556 8.00755556,14.6186667 C7.83644444,14.9142222 7.73377778,15.2315556 7.68711111,15.5457778 L6.33066667,21.3853333 L2.59422222,24.9848889 C2.49155556,25.0813333 2.39822222,25.1902222 2.33288889,25.3177778 C1.93777778,26.0053333 2.17422222,26.8795556 2.868,27.2746667 C3.41866667,27.592 4.1,27.4924444 4.54488889,27.0848889 L8.70133333,23.0715556 C8.76044444,22.9968889 8.81644444,22.9191111 8.86311111,22.832 C8.92533333,22.7231111 8.97511111,22.6142222 9.00311111,22.4991111 L9.84933333,18.7968889 L12.6306667,21.5688889 L12.6244444,26.2417778 C12.6244444,26.7395556 12.8826667,27.2186667 13.3462222,27.4862222 C14.0337778,27.8751111 14.908,27.6386667 15.3031111,26.9542222 C15.4368889,26.7022222 15.496,26.4408889 15.4835556,26.1826667 L15.4897778,20.9871111 C15.5022222,20.6137778 15.3684444,20.2497778 15.1133333,19.9697778 L12.1173333,17.0111111 L15.5644444,14.1862222 L16.3608889,16.392 C16.4262222,16.5382222 16.5288889,16.672 16.6564444,16.7746667 L19.9511111,19.2728889 C20.396,19.5466667 20.9902222,19.472 21.3604444,19.0768889 C21.7866667,18.6226667 21.7617778,17.904 21.3075556,17.4808889 C21.2951111,17.4684444 21.2764444,17.456 21.264,17.4435556 L18.3768889,15.2377778 L17.0422222,11.3177778 C16.8275556,10.8013333 16.4511111,10.3533333 15.9284444,10.0546667 C15.0417778,9.55066667 13.9777778,9.62222222 13.1875556,10.1573333 L8.68266667,13.8408889 Z M23,5 L30,5 L30,8 L29,11 L27,13 L22,6 L23,5 Z" id="symbol-copy-2" fill="#FFFFFF" sketch:type="MSShapeGroup"></path>
        </g>
    </g>
</svg>