<?xml version="1.0" encoding="UTF-8" standalone="no"?>
<svg width="16px" height="16px" viewBox="0 0 16 16" version="1.1" xmlns="http://www.w3.org/2000/svg" xmlns:xlink="http://www.w3.org/1999/xlink" xmlns:sketch="http://www.bohemiancoding.com/sketch/ns">
    <!-- Generator: Sketch 3.3.3 (12072) - http://www.bohemiancoding.com/sketch -->
    <title>cave-black-16</title>
    <desc>Created with Sketch.</desc>
    <defs></defs>
    <g id="cave" stroke="none" stroke-width="1" fill="none" fill-rule="evenodd" sketch:type="MSPage">
        <g id="cave-black-16" sketch:type="MSArtboardGroup" fill="#000000">
            <path d="M7.16893424,6.00362963 C7.28737868,5.90809259 7.30471202,5.73840741 7.20793424,5.62433333 L6.69226757,4.99835185 C6.5954898,4.88142593 6.42360091,4.86431481 6.30804535,4.95842593 L4.10093424,6.73085185 C3.98537868,6.82496296 3.96515646,6.99464815 4.0604898,7.11157407 L4.57760091,7.73898148 C4.67293424,7.85305556 4.84482313,7.86874074 4.96326757,7.77748148 L7.16893424,6.00362963 Z M5.6368369,8.51040741 C5.51261468,8.60451852 5.40572579,8.7242963 5.32339246,8.86688889 C5.24394801,9.00235185 5.19628135,9.1477963 5.17461468,9.29181481 L4.5448369,11.9682778 L2.81005912,13.6180741 C2.76239246,13.6622778 2.71905912,13.7121852 2.68872579,13.7706481 C2.50528135,14.0857778 2.61505912,14.486463 2.93717023,14.6675556 C3.1928369,14.813 3.50917023,14.7673704 3.71572579,14.5805741 L5.64550357,12.7411296 C5.67294801,12.7069074 5.69894801,12.6712593 5.72061468,12.6313333 C5.74950357,12.5814259 5.77261468,12.5315185 5.78561468,12.4787593 L6.17850357,10.7819074 L7.4698369,12.0524074 L7.46694801,14.1941481 C7.46694801,14.4222963 7.5868369,14.6418889 7.80205912,14.7645185 C8.12128135,14.9427593 8.52717023,14.8343889 8.71061468,14.5206852 C8.77272579,14.4051852 8.80017023,14.2854074 8.79439246,14.1670556 L8.79728135,11.7857593 C8.80305912,11.6146481 8.74094801,11.4478148 8.62250357,11.3194815 L7.23150357,9.96342593 L8.83194801,8.66868519 L9.20172579,9.67966667 C9.23205912,9.74668519 9.27972579,9.808 9.33894801,9.85505556 L10.8686147,11.0000741 C11.0751702,11.1255556 11.3510591,11.0913333 11.522948,10.9102407 C11.7208369,10.7020556 11.7092813,10.3726667 11.4983925,10.1787407 C11.4926147,10.173037 11.483948,10.1673333 11.4781702,10.1616296 L10.1377258,9.15064815 L9.51805912,7.35398148 C9.41839246,7.11727778 9.24361468,6.91194444 9.00094801,6.77505556 C8.58928135,6.54405556 8.09528135,6.57685185 7.72839246,6.82211111 L5.6368369,8.51040741 Z M9.66071429,5.89166669 C10.3017591,5.89166669 10.8214286,5.37865963 10.8214286,4.74583336 C10.8214286,4.11300708 10.3017591,3.60000002 9.66071429,3.60000002 C9.01966949,3.60000002 8.5,4.11300708 8.5,4.74583336 C8.5,5.37865963 9.01966949,5.89166669 9.66071429,5.89166669 Z M12,4 L16,4 L16,5 L15,7 L14,8 L12,5 L12,4 Z" id="symbol" fill-opacity="0.1" sketch:type="MSShapeGroup"></path>
            <path d="M6.16893424,5.00362963 C6.28737868,4.90809259 6.30471202,4.73840741 6.20793424,4.62433333 L5.69226757,3.99835185 C5.5954898,3.88142593 5.42360091,3.86431481 5.30804535,3.95842593 L3.10093424,5.73085185 C2.98537868,5.82496296 2.96515646,5.99464815 3.0604898,6.11157407 L3.57760091,6.73898148 C3.67293424,6.85305556 3.84482313,6.86874074 3.96326757,6.77748148 L6.16893424,5.00362963 Z M4.6368369,7.51040741 C4.51261468,7.60451852 4.40572579,7.7242963 4.32339246,7.86688889 C4.24394801,8.00235185 4.19628135,8.1477963 4.17461468,8.29181481 L3.5448369,10.9682778 L1.81005912,12.6180741 C1.76239246,12.6622778 1.71905912,12.7121852 1.68872579,12.7706481 C1.50528135,13.0857778 1.61505912,13.486463 1.93717023,13.6675556 C2.1928369,13.813 2.50917023,13.7673704 2.71572579,13.5805741 L4.64550357,11.7411296 C4.67294801,11.7069074 4.69894801,11.6712593 4.72061468,11.6313333 C4.74950357,11.5814259 4.77261468,11.5315185 4.78561468,11.4787593 L5.17850357,9.78190741 L6.4698369,11.0524074 L6.46694801,13.1941481 C6.46694801,13.4222963 6.5868369,13.6418889 6.80205912,13.7645185 C7.12128135,13.9427593 7.52717023,13.8343889 7.71061468,13.5206852 C7.77272579,13.4051852 7.80017023,13.2854074 7.79439246,13.1670556 L7.79728135,10.7857593 C7.80305912,10.6146481 7.74094801,10.4478148 7.62250357,10.3194815 L6.23150357,8.96342593 L7.83194801,7.66868519 L8.20172579,8.67966667 C8.23205912,8.74668519 8.27972579,8.808 8.33894801,8.85505556 L9.86861468,10.0000741 C10.0751702,10.1255556 10.3510591,10.0913333 10.522948,9.91024074 C10.7208369,9.70205556 10.7092813,9.37266667 10.4983925,9.17874074 C10.4926147,9.17303704 10.483948,9.16733333 10.4781702,9.16162963 L9.13772579,8.15064815 L8.51805912,6.35398148 C8.41839246,6.11727778 8.24361468,5.91194444 8.00094801,5.77505556 C7.58928135,5.54405556 7.09528135,5.57685185 6.72839246,5.82211111 L4.6368369,7.51040741 Z M8.66071429,4.89166669 C9.30175908,4.89166669 9.82142857,4.37865963 9.82142857,3.74583336 C9.82142857,3.11300708 9.30175908,2.60000002 8.66071429,2.60000002 C8.01966949,2.60000002 7.5,3.11300708 7.5,3.74583336 C7.5,4.37865963 8.01966949,4.89166669 8.66071429,4.89166669 Z M11,3 L15,3 L15,4 L14,6 L13,7 L11,4 L11,3 Z" id="symbol-copy" fill-opacity="0.2" sketch:type="MSShapeGroup"></path>
            <path d="M5.16893424,4.00362963 C5.28737868,3.90809259 5.30471202,3.73840741 5.20793424,3.62433333 L4.69226757,2.99835185 C4.5954898,2.88142593 4.42360091,2.86431481 4.30804535,2.95842593 L2.10093424,4.73085185 C1.98537868,4.82496296 1.96515646,4.99464815 2.0604898,5.11157407 L2.57760091,5.73898148 C2.67293424,5.85305556 2.84482313,5.86874074 2.96326757,5.77748148 L5.16893424,4.00362963 Z M3.6368369,6.51040741 C3.51261468,6.60451852 3.40572579,6.7242963 3.32339246,6.86688889 C3.24394801,7.00235185 3.19628135,7.1477963 3.17461468,7.29181481 L2.5448369,9.96827778 L0.810059123,11.6180741 C0.762392457,11.6622778 0.719059123,11.7121852 0.68872579,11.7706481 C0.505281345,12.0857778 0.615059123,12.486463 0.937170234,12.6675556 C1.1928369,12.813 1.50917023,12.7673704 1.71572579,12.5805741 L3.64550357,10.7411296 C3.67294801,10.7069074 3.69894801,10.6712593 3.72061468,10.6313333 C3.74950357,10.5814259 3.77261468,10.5315185 3.78561468,10.4787593 L4.17850357,8.78190741 L5.4698369,10.0524074 L5.46694801,12.1941481 C5.46694801,12.4222963 5.5868369,12.6418889 5.80205912,12.7645185 C6.12128135,12.9427593 6.52717023,12.8343889 6.71061468,12.5206852 C6.77272579,12.4051852 6.80017023,12.2854074 6.79439246,12.1670556 L6.79728135,9.78575926 C6.80305912,9.61464815 6.74094801,9.44781481 6.62250357,9.31948148 L5.23150357,7.96342593 L6.83194801,6.66868519 L7.20172579,7.67966667 C7.23205912,7.74668519 7.27972579,7.808 7.33894801,7.85505556 L8.86861468,9.00007407 C9.07517023,9.12555556 9.35105912,9.09133333 9.52294801,8.91024074 C9.7208369,8.70205556 9.70928135,8.37266667 9.49839246,8.17874074 C9.49261468,8.17303704 9.48394801,8.16733333 9.47817023,8.16162963 L8.13772579,7.15064815 L7.51805912,5.35398148 C7.41839246,5.11727778 7.24361468,4.91194444 7.00094801,4.77505556 C6.58928135,4.54405556 6.09528135,4.57685185 5.72839246,4.82211111 L3.6368369,6.51040741 Z M7.66071429,3.89166669 C8.30175908,3.89166669 8.82142857,3.37865963 8.82142857,2.74583336 C8.82142857,2.11300708 8.30175908,1.60000002 7.66071429,1.60000002 C7.01966949,1.60000002 6.5,2.11300708 6.5,2.74583336 C6.5,3.37865963 7.01966949,3.89166669 7.66071429,3.89166669 Z M10,2 L14,2 L14,3 L13,5 L12,6 L10,3 L10,2 Z" id="symbol-copy-2" sketch:type="MSShapeGroup"></path>
        </g>
    </g>
</svg>