<?xml version="1.0" encoding="utf-8"?>
<!-- Generator: Adobe Illustrator 21.1.0, SVG Export Plug-In . SVG Version: 6.00 Build 0)  -->
<svg version="1.1" id="Layer_1" xmlns:sketch="http://www.bohemiancoding.com/sketch/ns"
	 xmlns="http://www.w3.org/2000/svg" xmlns:xlink="http://www.w3.org/1999/xlink" x="0px" y="0px" width="22px" height="22px"
	 viewBox="0 0 22 22" enable-background="new 0 0 22 22" xml:space="preserve">
<path fill="#231F20" d="M8.9,5.1C9.1,4.9,9.2,4.6,9,4.4l-0.9-1C8,3.1,7.7,3.1,7.5,3.3L3.7,6.4C3.5,6.5,3.4,6.8,3.6,7l0.9,1.1
	C4.7,8.3,5,8.3,5.2,8.2L8.9,5.1z"/>
<path fill="#231F20" d="M5.2,9.4C5,9.6,4.8,9.8,4.7,10.1c-0.1,0.2-0.2,0.5-0.3,0.7l-1.1,4.6l-3,2.9c-0.1,0.1-0.2,0.2-0.2,0.3
	c-0.3,0.5-0.1,1.2,0.4,1.6c0.4,0.3,1,0.2,1.3-0.1l3.3-3.2c0-0.1,0.1-0.1,0.1-0.2s0.1-0.2,0.1-0.3L6,13.5l3,2.6v3.7
	c0,0.4,0.2,0.8,0.6,1c0.5,0.3,1.2,0.1,1.6-0.4c0.1-0.2,0.2-0.4,0.1-0.6v-4.1c0-0.3-0.1-0.6-0.3-0.8L8,12l2.7-2.2l0.6,1.8
	c0.1,0.1,0.1,0.2,0.2,0.3l2.6,2c0.4,0.2,0.8,0.2,1.1-0.2s0.3-0.9,0-1.3l0,0l-2.3-1.8l-1.1-3.1c-0.2-0.4-0.5-0.8-0.9-1
	c-0.6-0.5-1.5-0.4-2.1,0L5.2,9.4z"/>
<path fill="#231F20" d="M15.4,3.7c-0.1-0.1-0.1-0.2-0.1-0.3c0-0.2,0.2-0.4,0.4-0.4h5.7c0.6,0,0.9,1.6,0.5,2.9
	c-0.4,1.2-1.4,2.7-1.9,2.2L15.4,3.7z"/>
<path fill="#231F20" d="M13,3h1.7c-0.3-0.6-1-1-1.7-1c-1.1,0-2,0.9-2,2s0.9,2,2,2s2-0.9,2-2h-2V3z"/>
</svg>
