<?xml version="1.0" encoding="utf-8"?>
<!-- Generator: Adobe Illustrator 21.1.0, SVG Export Plug-In . SVG Version: 6.00 Build 0)  -->
<svg version="1.1" id="Layer_1" xmlns:sketch="http://www.bohemiancoding.com/sketch/ns"
	 xmlns="http://www.w3.org/2000/svg" xmlns:xlink="http://www.w3.org/1999/xlink" x="0px" y="0px" width="30px" height="30px"
	 viewBox="0 0 30 30" enable-background="new 0 0 30 30" xml:space="preserve">
<path fill="#231F20" d="M19.9,5c-0.2-1.1-1.2-2-2.4-2C16.1,3,15,4.1,15,5.5c0,0.2,0,0.3,0.1,0.5l0,0H17v1h-1.5c0.5,0.6,1.2,1,2,1
	c1.2,0,2.2-0.9,2.4-2H17V5H19.9z"/>
<path fill="#231F20" d="M12.2,7.1c0.3-0.2,0.3-0.6,0.1-0.9l-1.2-1.5c-0.2-0.3-0.6-0.3-0.9-0.1L5,8.8C4.7,9,4.7,9.4,4.9,9.7l1.2,1.5
	c0.2,0.3,0.6,0.3,0.9,0.1L12.2,7.1z"/>
<path fill="#231F20" d="M7.1,13c-0.3,0.2-0.5,0.5-0.7,0.8s-0.3,0.7-0.3,1l-1.5,6.3L0.5,25c-0.1,0.1-0.2,0.2-0.3,0.4
	c-0.4,0.7-0.2,1.7,0.6,2.1c0.6,0.3,1.3,0.2,1.8-0.2L7.1,23c0.1-0.1,0.1-0.2,0.2-0.3c0.1-0.1,0.1-0.2,0.2-0.4l0.9-4l3,3v5.1
	c0,0.5,0.3,1.1,0.8,1.4c0.7,0.4,1.7,0.2,2.1-0.6c0.1-0.3,0.2-0.6,0.2-0.8v-5.6c0-0.4-0.1-0.8-0.4-1.1l-3.2-3.2l3.7-3.1l0.9,2.4
	c0.1,0.2,0.2,0.3,0.3,0.4l3.6,2.7c0.5,0.3,1.1,0.2,1.5-0.2c0.5-0.5,0.4-1.3-0.1-1.7l0,0l-3.1-2.4l-1.5-4.3c-0.2-0.6-0.6-1-1.2-1.4
	c-1-0.5-2.1-0.5-3,0.1L7.1,13z"/>
<path fill="#231F20" d="M21,5.1c-0.1-0.1-0.2-0.2-0.2-0.4c0-0.3,0.2-0.5,0.5-0.5H29c0.8,0,1.3,2.2,0.7,4c-0.5,1.6-2,3.7-2.7,3
	L21,5.1z"/>
</svg>
