<?xml version="1.0" encoding="utf-8"?>
<!-- Generator: Adobe Illustrator 21.1.0, SVG Export Plug-In . SVG Version: 6.00 Build 0)  -->
<svg version="1.1" id="Layer_1" xmlns:sketch="http://www.bohemiancoding.com/sketch/ns"
	 xmlns="http://www.w3.org/2000/svg" xmlns:xlink="http://www.w3.org/1999/xlink" x="0px" y="0px" width="14px" height="14px"
	 viewBox="0 0 14 14" enable-background="new 0 0 14 14" xml:space="preserve">
<path fill="#FFFFFF" d="M5.7,3.3c0.1-0.1,0.1-0.3,0-0.4L5.2,2.2C5.1,2,4.9,2,4.7,2.1l-2.4,2c-0.1,0.1-0.1,0.3,0,0.4l0.6,0.7
	c0.1,0.1,0.3,0.1,0.4,0L5.7,3.3z"/>
<path fill="#FFFFFF" d="M3.3,6C3.2,6.1,3.1,6.3,3,6.4C2.9,6.6,2.8,6.7,2.8,6.9l-0.7,3l-1.9,1.8c-0.1,0-0.1,0.1-0.1,0.2
	c-0.2,0.3-0.1,0.8,0.3,1c0.2,0.1,0.6,0,0.8-0.2l2.1-2l0.1-0.1c0-0.1,0.1-0.1,0.1-0.2l0.4-1.9l1.6,1.4v2.4c0,0.3,0.1,0.5,0.4,0.6
	c0.3,0.2,0.8,0.1,1-0.3C7,12.5,7,12.4,7,12.2V9.6c0-0.2-0.1-0.4-0.2-0.5L5.1,7.6l1.7-1.4l0.5,1.3c0,0.1,0.1,0.1,0.2,0.2L9.2,9
	c0.2,0.1,0.5,0,0.6-0.2C10,8.6,10,8.2,9.8,8c0,0-0.1-0.1-0.1-0.2l-1.3-1l-0.9-2C7.4,4.5,7.2,4.3,7,4.1C6.5,3.9,6,3.9,5.6,4.2L3.3,6z
	"/>
<path fill="#FFFFFF" d="M10,3c0,0,0.9-1,1-1h2c0.4,0,1.1,1,0.9,1.8c-0.2,0.8-0.9,1.7-1.2,1.4L10,3z"/>
<circle fill="#FFFFFF" cx="8.5" cy="2.5" r="1.5"/>
</svg>
