<?xml version="1.0" encoding="utf-8"?>
<!-- Generator: Adobe Illustrator 24.2.0, SVG Export Plug-In . SVG Version: 6.00 Build 0)  -->
<svg version="1.1" id="Layer_1" xmlns="http://www.w3.org/2000/svg" xmlns:xlink="http://www.w3.org/1999/xlink" x="0px" y="0px"
	 width="22px" height="22px" viewBox="0 0 22 22" enable-background="new 0 0 22 22" xml:space="preserve">
<path fill="#FFFFFF" d="M18.8,3.2l-1.4,1.4C19,6.3,20,8.5,20,11s-1,4.7-2.6,6.4l1.4,1.4c2-2,3.2-4.7,3.2-7.8C22,8,20.8,5.2,18.8,3.2
	z"/>
<path fill="#FFFFFF" d="M2,11c0-2.5,1-4.7,2.6-6.4L3.2,3.2C1.2,5.2,0,8,0,11c0,3,1.2,5.8,3.2,7.8l1.4-1.4C3,15.7,2,13.5,2,11z"/>
<path fill="#FFFFFF" d="M6.1,15.9l1.4-1.4C6.6,13.6,6,12.4,6,11c0-1.4,0.6-2.6,1.5-3.5L6.1,6.1C4.8,7.3,4,9.1,4,11
	S4.8,14.7,6.1,15.9z"/>
<path fill="#FFFFFF" d="M16,11c0,1.4-0.6,2.6-1.5,3.5l1.4,1.4c1.3-1.3,2.1-3,2.1-4.9c0-1.9-0.8-3.7-2.1-4.9l-1.4,1.4
	C15.4,8.4,16,9.6,16,11z"/>
<path fill="#FFFFFF" d="M12,13.8c1.2-0.4,2-1.5,2-2.8c0-1.7-1.3-3-3-3s-3,1.3-3,3c0,1.3,0.8,2.4,2,2.8L8.9,20H8v2h0.6h1h2.9h1H14v-2
	h-0.9L12,13.8z M9.9,20l1.1-6c0,0,0,0,0,0s0,0,0,0l1.1,6H9.9z"/>
</svg>
