<?xml version="1.0" encoding="utf-8"?>
<!-- Generator: Adobe Illustrator 22.1.0, SVG Export Plug-In . SVG Version: 6.00 Build 0)  -->
<svg version="1.1" id="Layer_1" xmlns="http://www.w3.org/2000/svg" xmlns:xlink="http://www.w3.org/1999/xlink" x="0px" y="0px"
	 width="22px" height="22px" viewBox="0 0 22 22" enable-background="new 0 0 22 22" xml:space="preserve">
<path d="M19,16.6c0.8-0.3,1.3-1.2,1-2l-0.6,0.2c0.2,0.5-0.1,1-0.6,1.2L2.9,21.4L3.1,22L19,16.6z"/>
<path d="M4.3,7.2C5.2,6.9,5.7,6,5.5,5.1C5.2,4.3,4.3,3.8,3.4,4C2.5,4.3,2,5.2,2.3,6.1C2.5,7,3.5,7.5,4.3,7.2z"/>
<path d="M3.7,9.5c-0.9-1.7,1.6-3,2.6-1.4L8,11.5l3.4-1c0.6-0.2,1.3,0.5,1.3,1.2l0,4.9c0,1.2-1.8,1.2-1.8,0c0-1.1,0-3.5,0-3.5
	l-3.6,1.1c-0.8,0.2-1.4-0.2-1.7-0.7L3.7,9.5z"/>
<rect x="8" y="0" width="1" height="10"/>
<path d="M2,11.7c-0.5-1,0.8-1.6,1.3-0.6l1.5,3c0.3,0.6,1,1.1,1.7,1.1c0.2,0,0.5-0.1,0.7-0.1l1.9-0.6c1-0.3,1.4,1.1,0.4,1.4l-2,0.6
	c-0.3,0.1-0.6,0.1-1,0.1c-1.3,0-2.5-0.7-3-1.8L2,11.7z"/>
</svg>
