<?xml version="1.0" encoding="utf-8"?>
<!-- Generator: Adobe Illustrator 22.1.0, SVG Export Plug-In . SVG Version: 6.00 Build 0)  -->
<svg version="1.1" id="Layer_1" xmlns="http://www.w3.org/2000/svg" xmlns:xlink="http://www.w3.org/1999/xlink" x="0px" y="0px"
	 width="30px" height="30px" viewBox="0 0 30 30" enable-background="new 0 0 30 30" xml:space="preserve">
<path fill="#FFFFFF" d="M25.9,22.6c1.1-0.4,1.8-1.6,1.4-2.7l-0.8,0.3c0.2,0.7-0.2,1.4-0.8,1.6L3.9,29.2L4.2,30L25.9,22.6z"/>
<path fill="#FFFFFF" d="M5.9,9.8C7.1,9.5,7.8,8.2,7.4,7C7.1,5.8,5.8,5.1,4.6,5.5C3.4,5.8,2.8,7.1,3.1,8.3C3.5,9.5,4.7,10.2,5.9,9.8z"/>
<path fill="#FFFFFF" d="M5,12.9C3.8,10.7,7.2,8.8,8.5,11l2.5,4.7l4.7-1.3c0.8-0.2,1.8,0.6,1.8,1.6l0,6.6c0,1.6-2.4,1.7-2.4,0c0-1.5,0-4.8,0-4.8
	l-4.9,1.5c-1.1,0.3-1.9-0.2-2.4-1L5,12.9z"/>
<rect fill="#FFFFFF" x="11" y="0" width="2" height="14"/>
<path fill="#FFFFFF" d="M2.7,16c-0.7-1.3,1.1-2.2,1.7-0.9l2.1,4.1C7,20.1,7.9,20.7,9,20.7c0.3,0,0.6-0.1,0.9-0.1l2.7-0.8c1.4-0.4,2,1.4,0.5,1.9
	l-2.8,0.8c-0.4,0.1-0.9,0.2-1.3,0.2c-1.8,0-3.3-1-4.1-2.5L2.7,16z"/>
</svg>
