<?xml version="1.0" encoding="utf-8"?>
<!-- Generator: Adobe Illustrator 22.1.0, SVG Export Plug-In . SVG Version: 6.00 Build 0)  -->
<svg version="1.1" id="Layer_1" xmlns="http://www.w3.org/2000/svg" xmlns:xlink="http://www.w3.org/1999/xlink" x="0px" y="0px"
	 width="14px" height="14px" viewBox="0 0 14 14" enable-background="new 0 0 14 14" xml:space="preserve">
<path d="M12.1,10.5c0.5-0.2,0.8-0.7,0.6-1.3l-0.4,0.1c0.1,0.3-0.1,0.7-0.4,0.8L1.8,13.6L2,14L12.1,10.5z"/>
<path d="M2.8,4.6c0.6-0.2,0.9-0.7,0.7-1.3C3.3,2.7,2.7,2.4,2.2,2.6C1.6,2.7,1.3,3.3,1.5,3.9C1.6,4.4,2.2,4.7,2.8,4.6z"/>
<path d="M2.3,6C1.8,5,3.4,4.1,4,5.2l1.1,2.2l2.2-0.6C7.6,6.6,8.1,7,8.1,7.5l0,3.1c0,0.8-1.1,0.8-1.1,0c0-0.7,0-2.3,0-2.3L4.7,9
	C4.2,9.1,3.8,8.9,3.6,8.5L2.3,6z"/>
<rect x="5.4" width="0.5" height="6"/>
<path d="M1.3,7.5C1,6.8,1.8,6.4,2.1,7l1,1.9c0.2,0.4,0.6,0.7,1.1,0.7c0.1,0,0.3,0,0.4-0.1l1.2-0.4C6.5,9,6.8,9.9,6.1,10.1l-1.3,0.4
	c-0.2,0.1-0.4,0.1-0.6,0.1c-0.8,0-1.6-0.5-1.9-1.2L1.3,7.5z"/>
</svg>
