<?xml version="1.0" encoding="utf-8"?>
<!-- Generator: Adobe Illustrator 22.0.1, SVG Export Plug-In . SVG Version: 6.00 Build 0)  -->
<svg version="1.1" id="Layer_1" xmlns="http://www.w3.org/2000/svg" xmlns:xlink="http://www.w3.org/1999/xlink" x="0px" y="0px"
	 width="22px" height="22px" viewBox="0 0 22 22" enable-background="new 0 0 22 22" xml:space="preserve">
<path d="M2.5,9.4c-0.1,0.2-0.2,0.4-0.2,0.7c0,0.1,0,0.2,0,0.4L2.4,16l-1.9,4.1c-0.1,0.1-0.1,0.3-0.1,0.4c-0.1,0.7,0.4,1.3,1,1.4
	c0.5,0.1,1-0.2,1.3-0.6l2.1-4.5c0-0.1,0.1-0.2,0.1-0.3c0-0.1,0-0.1,0-0.2l0-3.4l3.2,1.4l0.5,3.4c0.1,0.5,0.5,0.9,1,1
	c0.7,0.1,1.3-0.4,1.4-1c0-0.1,0-0.2,0-0.3l-0.6-4.1c-0.1-0.4-0.3-0.7-0.7-0.9L6.8,11l1.8-3.2l0.9,1.2C9.7,9,9.8,9.1,10,9.2l3.5,1
	c0.5,0.1,0.9-0.1,1.1-0.6c0.2-0.5,0-1.1-0.5-1.3c0,0,0,0,0,0l-3-0.9L8.7,4.7C8.3,4.3,7.9,4.1,7.3,4C6.4,3.8,5.5,4.3,5.1,5L2.5,9.4z"
	/>
<path d="M12.5,17.4l-0.2,1.7l-6,1.5l0.1,1H21c0.5,0,0.9-0.4,0.9-0.9l0-19.7l-2-0.5l-1.2,5.2l-1.9,0.8l-1.7,4.8l1.6,3.7l-0.5,1.4
	L12.5,17.4z"/>
<ellipse transform="matrix(0.9871 -0.1602 0.1602 0.9871 -0.1902 1.3795)" cx="8.5" cy="1.9" rx="1.9" ry="1.9"/>
<path d="M4.7,4c0.1-0.3,0.1-0.6-0.2-0.7L3.6,2.8C3.4,2.6,3.1,2.7,2.9,3L0.1,7.8C0,8,0.1,8.4,0.3,8.5L1.2,9C1.5,9.2,1.8,9.1,2,8.8
	L4.7,4z"/>
</svg>
