<?xml version="1.0" encoding="utf-8"?>
<!-- Generator: Adobe Illustrator 22.0.1, SVG Export Plug-In . SVG Version: 6.00 Build 0)  -->
<svg version="1.1" id="Layer_1" xmlns="http://www.w3.org/2000/svg" xmlns:xlink="http://www.w3.org/1999/xlink" x="0px" y="0px"
	 width="14px" height="14px" viewBox="0 0 14 14" enable-background="new 0 0 14 14" xml:space="preserve">
<path d="M1.6,6C1.5,6.1,1.5,6.3,1.5,6.4c0,0.1,0,0.2,0,0.2l0.1,3.5l-1.2,2.6c0,0.1-0.1,0.2-0.1,0.3c-0.1,0.4,0.2,0.8,0.7,0.9
	c0.3,0.1,0.7-0.1,0.8-0.4L3,10.7c0-0.1,0.1-0.1,0.1-0.2c0,0,0-0.1,0-0.1l0-2.2l2.1,0.9l0.3,2.1c0.1,0.3,0.3,0.6,0.7,0.6
	C6.6,11.9,7,11.6,7,11.2c0-0.1,0-0.1,0-0.2L6.6,8.4c0-0.2-0.2-0.5-0.4-0.6L4.4,7l1.2-2l0.6,0.7c0.1,0.1,0.1,0.1,0.2,0.2l2.2,0.6
	c0.3,0.1,0.6-0.1,0.7-0.4c0.1-0.3,0-0.7-0.3-0.8c0,0,0,0,0,0L7,4.7L5.5,3C5.3,2.8,5,2.6,4.7,2.5C4.1,2.4,3.5,2.7,3.2,3.2L1.6,6z"/>
<path d="M8,11.1l-0.1,1.1L4,13.1l0,0.7h9.3c0.3,0,0.6-0.3,0.6-0.6l0-12.6l-1.3-0.3l-0.7,3.3l-1.2,0.5l-1.1,3l1,2.3l-0.3,0.9L8,11.1z
	"/>
<circle cx="5.4" cy="1.2" r="1.2"/>
<path d="M3,2.6c0.1-0.2,0-0.4-0.1-0.5L2.3,1.8c-0.2-0.1-0.4,0-0.5,0.1L0.1,5C0,5.1,0,5.3,0.2,5.4l0.6,0.3c0.2,0.1,0.4,0,0.5-0.1
	L3,2.6z"/>
</svg>
