<?xml version="1.0" encoding="utf-8"?>
<!-- Generator: Adobe Illustrator 22.0.1, SVG Export Plug-In . SVG Version: 6.00 Build 0)  -->
<svg version="1.1" id="Layer_1" xmlns="http://www.w3.org/2000/svg" xmlns:xlink="http://www.w3.org/1999/xlink" x="0px" y="0px"
	 width="30px" height="30px" viewBox="0 0 30 30" enable-background="new 0 0 30 30" xml:space="preserve">
<path fill="#FFFFFF" d="M3.4,12.8c-0.1,0.3-0.2,0.6-0.3,0.9c0,0.2,0,0.3,0,0.5l0.1,7.6l-2.6,5.6c-0.1,0.2-0.2,0.4-0.2,0.6C0.3,29,0.9,29.8,1.9,30
	c0.7,0.1,1.4-0.3,1.7-0.9l2.9-6.2c0.1-0.1,0.1-0.3,0.1-0.5c0-0.1,0-0.2,0-0.2l0-4.7l4.4,1.9l0.7,4.6c0.1,0.7,0.7,1.2,1.4,1.3
	c0.9,0.1,1.8-0.5,1.9-1.4c0-0.2,0-0.3,0-0.5L14.2,18c-0.1-0.5-0.5-1-1-1.2l-4-1.8l2.5-4.4l1.2,1.6c0.1,0.1,0.3,0.3,0.5,0.3l4.8,1.4
	c0.6,0.1,1.3-0.2,1.5-0.8c0.3-0.7-0.1-1.5-0.7-1.8c0,0,0,0-0.1,0l-4.1-1.2l-3.1-3.7c-0.5-0.5-1.1-0.8-1.8-1C8.7,5.2,7.5,5.8,6.9,6.9
	L3.4,12.8z"/>
<path fill="#FFFFFF" d="M17.1,23.7L16.8,26l-8.2,2l0.1,1.4h20c0.7,0,1.3-0.6,1.3-1.3l0-26.9l-2.7-0.6l-1.6,7.1L23,8.7l-2.3,6.5l2.2,5l-0.6,1.9
	L17.1,23.7z"/>
<ellipse fill="#FFFFFF" transform="matrix(0.9871 -0.1602 0.1602 0.9871 -0.2593 1.8811)" cx="11.5" cy="2.5" rx="2.5" ry="2.5"/>
<path fill="#FFFFFF" d="M6.5,5.5c0.2-0.3,0.1-0.8-0.3-1L5,3.8C4.6,3.6,4.2,3.7,4,4.1l-3.8,6.6c-0.2,0.3-0.1,0.8,0.3,1l1.2,0.7
	c0.3,0.2,0.8,0.1,1-0.3L6.5,5.5z"/>
</svg>
