<?xml version="1.0" encoding="utf-8"?>
<!-- Generator: Adobe Illustrator 22.0.1, SVG Export Plug-In . SVG Version: 6.00 Build 0)  -->
<svg version="1.1" id="Layer_1" xmlns="http://www.w3.org/2000/svg" xmlns:xlink="http://www.w3.org/1999/xlink" x="0px" y="0px"
	 width="14px" height="14px" viewBox="0 0 14 14" enable-background="new 0 0 14 14" xml:space="preserve">
<path d="M4.2,5.9c0-0.3-0.1-0.5-0.2-0.6C3.8,5.2,3.6,5.1,3.3,5.1C2.4,5.1,2,6,2,6.7c0,0.9,0.7,1.5,1.3,1.5c0.6,0,0.8-0.1,0.9-0.5
	l2.1,0c-0.2,1.8-1.4,2.1-3,2.1C1.4,9.7,0,8.7,0,6.7c0-2,1.4-3.1,3.3-3.1c1.6,0,2.8,0.6,3,2.3L4.2,5.9z"/>
<path d="M11.8,5.9c0-0.3-0.1-0.5-0.2-0.6c-0.1-0.2-0.3-0.2-0.6-0.2c-0.9,0-1.3,0.9-1.3,1.6c0,0.9,0.7,1.5,1.3,1.5
	c0.6,0,0.8-0.1,0.9-0.5l2.1,0c-0.2,1.8-1.4,2.1-3,2.1c-1.9,0-3.3-1.1-3.3-3c0-2,1.4-3.1,3.3-3.1c1.6,0,2.8,0.6,3,2.3L11.8,5.9z"/>
</svg>
