<?xml version="1.0" encoding="utf-8"?>
<!-- Generator: Adobe Illustrator 22.0.1, SVG Export Plug-In . SVG Version: 6.00 Build 0)  -->
<svg version="1.1" id="Layer_1" xmlns="http://www.w3.org/2000/svg" xmlns:xlink="http://www.w3.org/1999/xlink" x="0px" y="0px"
	 width="22px" height="22px" viewBox="0 0 22 22" enable-background="new 0 0 22 22" xml:space="preserve">
<path fill="#FFFFFF" d="M6.6,9.9c0-0.4-0.2-0.7-0.4-0.9C5.9,8.7,5.6,8.6,5.2,8.6c-1.4,0-1.6,1.4-1.6,2.5c0,1.4,0.5,2.3,1.6,2.3
	c0.9,0,1.3-0.6,1.4-1.4h3.7c-0.3,2.8-2.6,3.8-5.1,3.8c-3,0-5.2-1.7-5.2-4.8C0,8,2.2,6.2,5.2,6.2c2.4,0,4.8,1,5,3.8H6.6z"/>
<path fill="#FFFFFF" d="M18.2,9.9c0-0.4-0.2-0.7-0.4-0.9c-0.2-0.2-0.5-0.4-0.9-0.4c-1.4,0-1.6,1.4-1.6,2.5c0,1.4,0.5,2.3,1.6,2.3
	c0.9,0,1.3-0.6,1.4-1.4H22c-0.3,2.8-2.6,3.8-5.1,3.8c-3,0-5.2-1.7-5.2-4.8c0-3.1,2.2-4.9,5.2-4.9c2.5,0,4.8,1,5,3.8H18.2z"/>
</svg>
