<?xml version="1.0" encoding="utf-8"?>
<!-- Generator: Adobe Illustrator 22.0.1, SVG Export Plug-In . SVG Version: 6.00 Build 0)  -->
<svg version="1.1" id="Layer_1" xmlns="http://www.w3.org/2000/svg" xmlns:xlink="http://www.w3.org/1999/xlink" x="0px" y="0px"
	 width="30px" height="30px" viewBox="0 0 30 30" enable-background="new 0 0 30 30" xml:space="preserve">
<path fill="#FFFFFF" d="M8.9,13.5c0-0.5-0.2-1-0.5-1.3c-0.3-0.3-0.7-0.5-1.3-0.5c-1.9,0-2.2,1.9-2.2,3.4c0,1.9,0.7,3.1,2.2,3.1
	c1.3,0,1.8-0.9,1.9-1.9h5c-0.4,3.8-3.5,5.2-6.9,5.2c-4,0-7.1-2.3-7.1-6.5c0-4.3,3-6.7,7.1-6.7c3.3,0,6.5,1.4,6.8,5.1H8.9z"/>
<path fill="#FFFFFF" d="M24.9,13.5c0-0.5-0.2-1-0.5-1.3c-0.3-0.3-0.7-0.5-1.3-0.5c-1.9,0-2.2,1.9-2.2,3.4c0,1.9,0.7,3.1,2.2,3.1
	c1.3,0,1.8-0.9,1.9-1.9h5c-0.4,3.8-3.5,5.2-7,5.2c-4,0-7.1-2.3-7.1-6.5c0-4.3,3-6.7,7.1-6.7c3.3,0,6.5,1.4,6.9,5.1H24.9z"/>
</svg>
