<?xml version="1.0" encoding="utf-8"?>
<!-- Generator: Adobe Illustrator 22.0.1, SVG Export Plug-In . SVG Version: 6.00 Build 0)  -->
<svg version="1.1" id="Layer_1" xmlns="http://www.w3.org/2000/svg" xmlns:xlink="http://www.w3.org/1999/xlink" x="0px" y="0px"
	 width="22px" height="22px" viewBox="0 0 22 22" enable-background="new 0 0 22 22" xml:space="preserve">
<g>
	<path fill="#FFFFFF" d="M4.1,7.8H2.6V7C2.5,6.9,2.3,6.8,2.2,6.7C1.7,6.5,0.9,6.1,0.9,5.2s0.8-1.3,1.3-1.5c0.1,0,0.2-0.1,0.3-0.2
		C2.4,3.5,2.3,3.4,2.2,3.4C1.7,3.1,0.9,2.7,0.9,1.8V1h1.5v0.8C2.5,1.9,2.7,2,2.9,2c0.5,0.2,1.3,0.6,1.3,1.5S3.3,4.8,2.9,5.1
		c-0.1,0-0.2,0.1-0.3,0.2c0.1,0.1,0.2,0.1,0.3,0.2C3.3,5.6,4.1,6,4.1,6.9V7.8z"/>
</g>
<g>
	<path fill="#FFFFFF" d="M9.2,7.8H7.7V7C7.6,6.9,7.4,6.8,7.3,6.7C6.8,6.5,6,6.1,6,5.2s0.8-1.3,1.3-1.5c0.1,0,0.2-0.1,0.3-0.2
		C7.5,3.5,7.4,3.4,7.3,3.4C6.8,3.1,6,2.7,6,1.8V1h1.5v0.8C7.6,1.9,7.8,2,8,2c0.5,0.2,1.3,0.6,1.3,1.5S8.4,4.8,8,5.1
		c-0.1,0-0.2,0.1-0.3,0.2C7.7,5.3,7.9,5.4,8,5.4C8.4,5.6,9.2,6,9.2,6.9V7.8z"/>
</g>
<g>
	<path fill="#FFFFFF" d="M14.3,7.8h-1.5V7c-0.1-0.1-0.3-0.2-0.4-0.2c-0.5-0.2-1.3-0.6-1.3-1.5s0.8-1.3,1.3-1.5c0.1,0,0.2-0.1,0.3-0.2
		c-0.1-0.1-0.2-0.1-0.3-0.2c-0.5-0.2-1.3-0.6-1.3-1.5V1h1.5v0.8C12.7,1.9,12.9,2,13,2c0.5,0.2,1.3,0.6,1.3,1.5S13.5,4.8,13,5.1
		c-0.1,0-0.2,0.1-0.3,0.2c0.1,0.1,0.2,0.1,0.3,0.2c0.5,0.2,1.3,0.6,1.3,1.5V7.8z"/>
</g>
<path fill="#FFFFFF" d="M20,11h-4V9H1v11c0,0,0,0.3,0,0.5C1,21.3,1.7,22,2.5,22C2.7,22,3,22,3,22h11c0,0,0.3,0,0.5,0c0.8,0,1.5-0.7,1.5-1.5
	c0-0.2,0-0.5,0-0.5h4c0.6,0,1-0.4,1-1v-7C21,11.4,20.6,11,20,11z M19,18h-3v-5h3V18z"/>
</svg>
