<?xml version="1.0" encoding="utf-8"?>
<!-- Generator: Adobe Illustrator 22.0.1, SVG Export Plug-In . SVG Version: 6.00 Build 0)  -->
<svg version="1.1" id="Layer_1" xmlns="http://www.w3.org/2000/svg" xmlns:xlink="http://www.w3.org/1999/xlink" x="0px" y="0px"
	 width="30px" height="30px" viewBox="0 0 30 30" enable-background="new 0 0 30 30" xml:space="preserve">
<g>
	<path fill="#FFFFFF" d="M5.8,10h-2V9C3.7,8.9,3.4,8.8,3.3,8.7c-0.6-0.3-1.7-0.8-1.7-2c0-1.2,1.1-1.7,1.7-2c0.1-0.1,0.3-0.2,0.4-0.2
		C3.6,4.3,3.4,4.2,3.3,4.2c-0.6-0.3-1.7-0.8-1.7-2V1h2v1C3.7,2.1,4,2.3,4.2,2.4c0.6,0.3,1.7,0.8,1.7,2c0,1.2-1.1,1.7-1.7,2
		C4,6.5,3.9,6.6,3.7,6.6C3.9,6.7,4,6.8,4.2,6.9c0.6,0.3,1.7,0.8,1.7,2V10z"/>
</g>
<g>
	<path fill="#FFFFFF" d="M12.6,10h-2V9c-0.1-0.1-0.4-0.2-0.6-0.3c-0.6-0.3-1.7-0.8-1.7-2c0-1.2,1.1-1.7,1.7-2c0.1-0.1,0.3-0.2,0.4-0.2
		c-0.1-0.1-0.3-0.2-0.4-0.2c-0.6-0.3-1.7-0.8-1.7-2V1h2v1c0.1,0.1,0.4,0.2,0.6,0.3c0.6,0.3,1.7,0.8,1.7,2c0,1.2-1.1,1.7-1.7,2
		c-0.1,0.1-0.3,0.2-0.4,0.2c0.1,0.1,0.3,0.2,0.4,0.2c0.6,0.3,1.7,0.8,1.7,2V10z"/>
</g>
<g>
	<path fill="#FFFFFF" d="M19.4,10h-2V9c-0.1-0.1-0.4-0.2-0.6-0.3c-0.6-0.3-1.7-0.8-1.7-2s1.1-1.7,1.7-2c0.1-0.1,0.3-0.2,0.4-0.2
		c-0.1-0.1-0.3-0.2-0.4-0.2c-0.6-0.3-1.7-0.8-1.7-2V1h2v1c0.1,0.1,0.4,0.2,0.6,0.3c0.6,0.3,1.7,0.8,1.7,2s-1.1,1.7-1.7,2
		c-0.1,0.1-0.3,0.2-0.4,0.2c0.1,0.1,0.3,0.2,0.4,0.2c0.6,0.3,1.7,0.8,1.7,2V10z"/>
</g>
<path fill="#FFFFFF" d="M29,16.5c0-1.2-0.9-2.2-2-2.4V14h-6v-2H1v14c0,0,0,0.3,0,0.5C1,27.9,2.1,29,3.5,29C3.7,29,4,29,4,29h14c0,0,0.3,0,0.5,0
	c1.4,0,2.5-1.1,2.5-2.5c0-0.2,0-0.5,0-0.5h6v-0.1c1.1-0.2,2-1.2,2-2.4c0-0.2,0-0.3-0.1-0.5H29v-6h-0.1C29,16.8,29,16.7,29,16.5z
	 M26,18.9v2.1V23h-2.9H21v-6h2.1H26V18.9z"/>
</svg>
