<?xml version="1.0" encoding="utf-8"?>
<!-- Generator: Adobe Illustrator 22.1.0, SVG Export Plug-In . SVG Version: 6.00 Build 0)  -->
<svg version="1.1" id="Layer_1" xmlns="http://www.w3.org/2000/svg" xmlns:xlink="http://www.w3.org/1999/xlink" x="0px" y="0px"
	 width="22px" height="22px" viewBox="0 0 22 22" enable-background="new 0 0 22 22" xml:space="preserve">
<path fill="#FFFFFF" d="M21,5V2.2c0-0.7-1.2-1.4-1.5-1.4S18,1.5,18,2.2V5h1v3h-1l-1-2.4C15.9,3.8,15,4,15,4h-4C9.7,4,9,5,9,6.3v5.5
	c0,1.1,2,1.3,2,0.2v9c0,0.6,0.4,1,1,1c0.6,0,1-0.4,1-1v-8h1v8c0,0.6,0.4,1,1,1c0.6,0,1-0.4,1-1V7l1,3h2v12h1V10c0.8-0.1,0.8-1.9,0-2
	V5H21z"/>
<path fill="#FFFFFF" d="M4.3,20c-1.4,0.1-2.7,0.9-3.4,2h7.5c-0.8-1.1-2-1.9-3.5-2c0-0.1,0-0.1,0-0.2c0-0.3,0-0.8,0-1.2c0,0,0-0.1,0.1-0.1
	c0.1-0.1,0.2-0.2,0.4-0.3c0,0,0.1-0.1,0.1-0.1c0,0,0.1,0,0.1-0.1c0,0,0,0,0,0c0.4,0.6,1.2,0.7,1.8,0.2c0.8-0.7,0.6-2.3,0.6-2.3
	c-0.7,0.5-0.9,0.3-1.5,0.3c-1,0.1-1.2,0.9-1.1,1.4c0,0,0,0-0.1,0c0,0-0.1,0-0.1,0.1c0,0-0.1,0.1-0.1,0.1C5,17.9,4.9,18,4.9,18
	c0-0.1,0-0.1,0-0.2c0-0.2-0.1-0.3-0.1-0.4c0-0.1,0-0.1-0.1-0.2c0-0.1-0.1-0.1-0.1-0.2c-0.1-0.1-0.1-0.2-0.2-0.3
	c-0.1-0.2-0.2-0.3-0.3-0.4c0.5-0.2,1.1-1,0.4-1.8C4.2,14,3.9,14,3.8,13.2c0,0-1.2,1-1.2,2c0,0.7,0.6,1.2,1.3,1.1c0,0,0,0.1,0.1,0.1
	c0.1,0.1,0.2,0.2,0.2,0.4c0,0.1,0.1,0.2,0.1,0.3c0,0.1,0,0.1,0.1,0.2c0,0.1,0,0.1,0.1,0.2c0,0.1,0.1,0.2,0.1,0.4c0,0.1,0,0.1,0,0.2
	l0,0.1l0,0.1c0,0.1,0,0.3,0,0.4c-0.1,0-0.2-0.1-0.3-0.1c-0.2,0-0.3-0.1-0.4-0.1l0,0c0.1-0.5,0-1.4-1-1.5c-0.6-0.1-0.7,0.1-1.5-0.4
	c0,0-0.2,1.6,0.6,2.3c0.5,0.5,1.3,0.5,1.8-0.2c0,0,0,0,0.1,0c0.1,0,0.2,0.1,0.4,0.1c0.1,0.1,0.3,0.1,0.4,0.2c0,0,0,0,0,0
	c0,0.2,0,0.5,0,0.7C4.3,19.9,4.3,20,4.3,20z"/>
<circle fill="#FFFFFF" cx="13.5" cy="1.8" r="1.8"/>
</svg>
