<?xml version="1.0" encoding="utf-8"?>
<!-- Generator: Adobe Illustrator 22.1.0, SVG Export Plug-In . SVG Version: 6.00 Build 0)  -->
<svg version="1.1" id="Layer_1" xmlns="http://www.w3.org/2000/svg" xmlns:xlink="http://www.w3.org/1999/xlink" x="0px" y="0px"
	 width="14px" height="14px" viewBox="0 0 14 14" enable-background="new 0 0 14 14" xml:space="preserve">
<circle cx="8.5" cy="1.2" r="1.2"/>
<path d="M14,1c0-0.6-1.5-1-1.5-1S11,0.3,11,1c0,0.5,0,2,0,2h1h1h1C14,3,14,1.5,14,1z"/>
<path d="M6,4c0,0.6,0.4,1,1,1V3C6.4,3,6,3.4,6,4z"/>
<path d="M12,2v3h-1V4c0-0.6-0.4-1-1-1H7C6.4,3,6,3.4,6,4v3.5C6,7.8,6.2,8,6.5,8S7,7.8,7,7.5V9v4.5C7,13.8,7.2,14,7.5,14
	S8,13.8,8,13.5V9h1v4.5C9,13.8,9.2,14,9.5,14s0.5-0.2,0.5-0.5V9V7V5c0,0.6,0.4,1,1,1h1v8h1V6V5V2H12z"/>
<path d="M1,14h4c0-0.8-0.9-1.5-2-1.5c0-0.2,0-0.4,0-0.7c0,0,0,0,0.1-0.1c0.1-0.1,0.1-0.1,0.2-0.2c0,0,0,0,0.1,0c0,0,0,0,0.1,0
	c0,0,0,0,0,0c0.3,0.4,0.8,0.4,1.1,0.1C5.1,11.2,5,10.1,5,10.1c-0.5,0.3-0.6,0.2-0.9,0.2c-0.6,0.1-0.8,0.6-0.7,0.9c0,0,0,0,0,0
	c0,0-0.1,0-0.1,0c0,0-0.1,0-0.1,0.1c-0.1,0-0.1,0.1-0.1,0.1c0,0,0-0.1,0-0.1c0-0.1,0-0.2-0.1-0.3c0,0,0-0.1,0-0.1c0,0,0-0.1,0-0.1
	c0-0.1-0.1-0.1-0.1-0.2c-0.1-0.1-0.1-0.2-0.2-0.3c0.3-0.2,0.7-0.6,0.2-1.2C2.6,8.9,2.4,8.9,2.3,8.4c0,0-0.8,0.7-0.8,1.3
	c0,0.4,0.4,0.8,0.8,0.7c0,0,0,0,0,0.1c0,0.1,0.1,0.2,0.2,0.3c0,0.1,0.1,0.1,0.1,0.2c0,0,0,0.1,0,0.1c0,0,0,0.1,0,0.1
	c0,0.1,0,0.2,0,0.2c0,0,0,0.1,0,0.1l0,0.1l0,0.1c0,0.1,0,0.2,0,0.3c-0.1,0-0.1,0-0.2-0.1c-0.1,0-0.2-0.1-0.3-0.1l0,0
	c0.1-0.3,0-0.9-0.7-0.9c-0.4,0-0.5,0.1-0.9-0.2c0,0-0.1,1,0.4,1.5c0.3,0.3,0.9,0.3,1.1-0.1c0,0,0,0,0,0c0.1,0,0.2,0.1,0.2,0.1
	c0.1,0,0.2,0.1,0.2,0.1c0,0,0,0,0,0c0,0.1,0,0.2,0,0.4C1.7,12.6,1,13.3,1,14z"/>
</svg>
