<?xml version="1.0" encoding="utf-8"?>
<!-- Generator: Adobe Illustrator 22.1.0, SVG Export Plug-In . SVG Version: 6.00 Build 0)  -->
<svg version="1.1" id="Layer_1" xmlns="http://www.w3.org/2000/svg" xmlns:xlink="http://www.w3.org/1999/xlink" x="0px" y="0px"
	 width="30px" height="30px" viewBox="0 0 30 30" enable-background="new 0 0 30 30" xml:space="preserve">
<path fill="#FFFFFF" d="M29,6V3.1c0-1-2-1.9-2.5-1.9S24,2.1,24,3.1V6h2v4.7l-0.9,0l-1.9-3C22.1,5.8,20.4,6,20.4,6L15,6c-1.7,0-3,1.4-3,3.2v6.3
	c0,1.5,2,1.5,2,0V9h1v19.6c0,0.8,0.7,1.4,1.5,1.4c0.8,0,1.5-0.6,1.5-1.4V17h1v11.6c0,0.8,0.7,1.4,1.5,1.4c0.8,0,1.5-0.6,1.5-1.4V8.8
	l2,3.8l2,0V30h1V12.5c1.2-0.2,1.2-1.7,0-1.9V6H29z"/>
<path fill="#FFFFFF" d="M5.9,27.3c-1.9,0.1-3.6,1.2-4.7,2.7h10.2c-1.1-1.6-2.8-2.6-4.8-2.7c0-0.1,0-0.2,0-0.3c0-0.5,0-1,0-1.6c0,0,0.1-0.1,0.1-0.1
	c0.1-0.1,0.3-0.3,0.5-0.5c0,0,0.1-0.1,0.1-0.1c0,0,0.1-0.1,0.1-0.1c0,0,0,0,0,0c0.6,0.9,1.7,0.9,2.4,0.3c1-0.9,0.9-3.1,0.9-3.1
	c-1,0.6-1.2,0.4-2,0.4c-1.4,0.1-1.6,1.2-1.5,2c0,0,0,0-0.1,0c-0.1,0-0.1,0.1-0.2,0.1c-0.1,0-0.1,0.1-0.2,0.1
	c-0.1,0.1-0.2,0.1-0.3,0.2c0-0.1,0-0.2,0-0.3c0-0.2-0.1-0.4-0.1-0.6c0-0.1-0.1-0.2-0.1-0.3c0-0.1-0.1-0.2-0.1-0.2
	c-0.1-0.2-0.1-0.3-0.2-0.4c-0.1-0.3-0.3-0.4-0.4-0.6c0.7-0.3,1.4-1.3,0.5-2.5c-0.5-0.6-0.8-0.6-1.1-1.7c0,0-1.7,1.4-1.7,2.8
	c0,0.9,0.8,1.7,1.7,1.6c0,0,0,0.1,0.1,0.1c0.1,0.1,0.2,0.3,0.3,0.6c0.1,0.1,0.1,0.3,0.2,0.4c0,0.1,0.1,0.1,0.1,0.2
	c0,0.1,0,0.2,0.1,0.2C6,24,6,24.2,6.1,24.4c0,0.1,0,0.2,0,0.3l0,0.1l0,0.1c0,0.2,0,0.4,0,0.6c-0.1,0-0.3-0.1-0.4-0.1
	c-0.2-0.1-0.4-0.1-0.6-0.1l0,0c0.2-0.7,0-1.9-1.4-2c-0.8-0.1-1,0.2-2-0.5c0,0-0.2,2.2,0.8,3.2c0.7,0.7,1.8,0.6,2.4-0.2
	c0,0,0,0,0.1,0c0.1,0,0.3,0.1,0.5,0.2c0.2,0.1,0.4,0.2,0.5,0.2c0,0,0,0,0,0c0,0.3,0,0.6-0.1,0.9C5.9,27.1,5.9,27.2,5.9,27.3z"/>
<circle fill="#FFFFFF" cx="18.5" cy="2.5" r="2.5"/>
</svg>
