<?xml version="1.0" encoding="utf-8"?>
<!-- Generator: Adobe Illustrator 20.0.0, SVG Export Plug-In . SVG Version: 6.00 Build 0)  -->
<svg version="1.1" id="Icons" xmlns="http://www.w3.org/2000/svg" xmlns:xlink="http://www.w3.org/1999/xlink" x="0px" y="0px"
	 width="30px" height="30px" viewBox="0 0 30 30" style="enable-background:new 0 0 30 30;" xml:space="preserve">
<path fill="#FFFFFF" d="M26.8,6.8c-0.3,0-0.6,0.1-0.8,0.3L23,10l-3.6-3.6c-0.3-0.3-0.6-0.4-1-0.4h-5.6c-0.4,0-0.7,0.2-0.9,0.4L8,10.8
	c-0.2,0.2-0.4,0.5-0.4,0.9c0,0.6,0.5,1.2,1.2,1.2c0.4,0,0.7-0.2,0.9-0.4l3.6-4.1l0,0h2.1L7.6,17H2l-1,1.5L2,20h6.4
	c1.4,0,1.8-0.2,1.8-0.2l3.1-3.4l3.5,3.5l-1.4,6.4c0,0.1,0,0.2,0,0.4c0,0.8,0.8,1.3,1.7,1.3c0.7,0,1.2-0.4,1.3-1l1.8-7.8
	c0.4-1.2-0.3-1.8-0.3-1.8l-3.1-3.1l3.4-3.9l2.2,2.2c0,0,0.9,0.9,1.9-0.2l3.6-3.6C27.9,8.5,28,8.2,28,8C28,7.3,27.5,6.8,26.8,6.8z"/>
<polygon fill="#FFFFFF" points="4,29 27,29 28,28 28,27 29,27 29,28 27,30 4,30 "/>
<rect fill="#FFFFFF" y="12" width="7" height="1"/>
<polygon fill="#FFFFFF" points="20,28 29,9 30,9 21,28 "/>
<polygon fill="#FFFFFF" points="7,27 1.9,21 1,21 1,20 0,20 7,28 9,28 9,27 "/>
<circle fill="#FFFFFF" cx="21.5" cy="3.5" r="2.5"/>
</svg>
