<svg id="Icons" xmlns="http://www.w3.org/2000/svg" width="22" height="22" viewBox="0 0 22 22">
  <title>cross-country-ski-trail-22-rev</title>
  <path fill="#231F20" d="M10.3,5.5l-2.6,3a.9.9,0,0,1-.7.3A.8.8,0,0,1,6.1,8a.6.6,0,0,1,.3-.6L9.2,4.2a.9.9,0,0,1,.7-.3H14a1.1,1.1,0,0,1,.8.3l2.6,2.6,2.2-2.2a1.1,1.1,0,0,1,.6-.2.9.9,0,0,1,.9.9,1.4,1.4,0,0,1-.2.6L18.3,8.5c-.8.8-1.4.1-1.4.1L15.3,7,12.8,9.9l2.3,2.3a1.1,1.1,0,0,1,.2,1.3L14,19.2a1.1,1.1,0,0,1-1.1.9A1.1,1.1,0,0,1,11.8,19v-.3L12.9,14l-2.6-2.5L8.1,14a1.9,1.9,0,0,1-1.3.4H2.3a1.1,1.1,0,0,1-1.1-.8A1.1,1.1,0,0,1,2,12.3H6.2L12,5.6Z"/>
  <circle fill="#231F20" cx="16" cy="2" r="2"/>
  <polygon fill="#231F20" points="21 22 3 22 3 21 21 21 21 20 22 20 21 22"/>
  <rect fill="#231F20" y="8" width="5" height="1"/>
  <rect fill="#231F20" x="11.5" y="12.7" width="15" height="1" transform="translate(0.1 26.5) rotate(-70)"/>
  <polygon fill="#231F20" points="7 19 5 19 5 19 0.8 14 0 14.6 4.5 20 7 20 7 19"/>
</svg>
