<?xml version="1.0" encoding="utf-8"?>
<!-- Generator: Adobe Illustrator 20.0.0, SVG Export Plug-In . SVG Version: 6.00 Build 0)  -->
<svg version="1.1" id="Icons" xmlns="http://www.w3.org/2000/svg" xmlns:xlink="http://www.w3.org/1999/xlink" x="0px" y="0px"
	 width="14px" height="14px" viewBox="0 0 14 14" style="enable-background:new 0 0 14 14;" xml:space="preserve">
<g>
	<path fill="#231F20" d="M6.7,3L5.2,4.8C5.1,4.9,5,5,4.8,5C4.5,5,4.3,4.7,4.3,4.5c0-0.1,0.1-0.3,0.2-0.4l1.7-1.9C6.2,2.1,6.4,2,6.5,2h2.4
		c0.2,0,0,0.9,0.1,1l1.9,0.7l1.3-1.3c0.1-0.1,0.2-0.1,0.3-0.1c0.3,0,0.5,0.2,0.5,0.5c0,0.1,0,0.2-0.1,0.3l-1.5,1.5
		c-0.5,0.5-0.8,0.1-0.8,0.1l-1-0.9L8,6l1.5,0.9c0,0,0.3,0.3,0.1,0.8L9,11c-0.1,0.3-0.5,1-0.8,1c-0.4,0-0.6-0.8-0.6-1.1v-0.2L8.2,8
		L6.7,6.5L5.4,8c0,0-0.2,0.1-0.8,0H1.9C1.6,8,1.1,8,1,7.7C0.9,7.4,1.4,7,1.8,6.9L1.9,7L5,6.9L7.6,3H6.7z"/>
	<polygon fill="#231F20" points="2,13 2,14 13,14 14,13 14,12 13,12 13,13 	"/>
	<polygon fill="#231F20" points="0,9 1,9 4,12 3,12 	"/>
	<polygon fill="#231F20" points="10,12 11,12 14,4 13,4 	"/>
	<rect fill="#231F20" x="9" width="2" height="2"/>
</g>
</svg>
