<?xml version="1.0" encoding="utf-8"?>
<!-- Generator: Adobe Illustrator 22.1.0, SVG Export Plug-In . SVG Version: 6.00 Build 0)  -->
<svg version="1.1" id="Layer_1" xmlns="http://www.w3.org/2000/svg" xmlns:xlink="http://www.w3.org/1999/xlink" x="0px" y="0px"
	 width="30px" height="30px" viewBox="0 0 30 30" enable-background="new 0 0 30 30" xml:space="preserve">
<rect x="18" y="24" width="12" height="4"/>
<path d="M14,28H6c-1.1,0-2-0.9-2-2v0c0-1.1,0-2,0-2h12c0,0,0,0.9,0,2v0C16,27.1,15.1,28,14,28z"/>
<path d="M0,22v-8c0-1.1,0.9-2,2-2h0c1.1,0,2,0,2,0v12c0,0-0.9,0-2,0h0C0.9,24,0,23.1,0,22z"/>
<path d="M30,22v-9c0-1.1-0.9-2-1.9-2l-8.8,11H30z"/>
<path d="M25.5,11H19l0,0c-1.1,0-2.3,0.3-3.4,1.6c0,0,0,0,0,0l-6,7.5c-0.5,0.6-0.4,1.6,0.2,2.1c0.3,0.2,0.6,0.3,0.9,0.3
	c0.4,0,0.9-0.2,1.2-0.6l6-7.5v6L25.5,11z"/>
<polygon points="26,4 20,4 19,2 26,2 "/>
<path d="M20.8,5H20l-1,1h1.2C20.1,6.3,20,6.6,20,7c0,1.7,1.3,3,3,3s3-1.3,3-3c0-0.4,0-1,0-1V5h-0.8H20.8z"/>
</svg>
