<?xml version="1.0" encoding="utf-8"?>
<!-- Generator: Adobe Illustrator 22.1.0, SVG Export Plug-In . SVG Version: 6.00 Build 0)  -->
<svg version="1.1" id="Layer_1" xmlns="http://www.w3.org/2000/svg" xmlns:xlink="http://www.w3.org/1999/xlink" x="0px" y="0px"
	 width="22px" height="22px" viewBox="0 0 22 22" enable-background="new 0 0 22 22" xml:space="preserve">
<path d="M11,21H4c-0.5,0-1-0.5-1-1v-1c0-0.5,0-1,0-1h9c0,0,0,0.5,0,1v1C12,20.5,11.6,21,11,21z"/>
<path d="M0,17v-7c0-0.6,0.4-1,1-1h1c0.5,0,1,0,1,0v9c0,0-0.5,0-1,0H1C0.4,18,0,17.5,0,17z"/>
<rect x="13" y="18" width="9" height="3"/>
<path d="M20,9L20,9l-6.1,8H22v-6C22,9.9,21.1,9,20,9z"/>
<path d="M18.1,9H14l0,0c-1,0-2.5,0.3-3.3,1.4l-3.8,5c-0.3,0.4-0.2,1.1,0.2,1.4C7.3,16.9,7.5,17,7.7,17c0.3,0,0.6-0.1,0.8-0.4
	l4.5-5.9v5.1L18.1,9z"/>
<polygon points="14,3 19,3 19,1 13,1 "/>
<path d="M14.5,4H14l-1,1h1.1C14,5.2,14,5.3,14,5.5C14,6.9,15.1,8,16.5,8S19,6.9,19,5.5c0-0.2,0-0.3-0.1-0.5H19V4h-0.5H14.5z"/>
</svg>
