<?xml version="1.0" encoding="utf-8"?>
<!-- Generator: Adobe Illustrator 22.1.0, SVG Export Plug-In . SVG Version: 6.00 Build 0)  -->
<svg version="1.1" id="Layer_1" xmlns="http://www.w3.org/2000/svg" xmlns:xlink="http://www.w3.org/1999/xlink" x="0px" y="0px"
	 width="14px" height="14px" viewBox="0 0 14 14" enable-background="new 0 0 14 14" xml:space="preserve">
<rect x="9" y="11" width="5" height="2"/>
<polygon points="9.6,10 14,10 14,5 13.6,5 "/>
<path d="M9,0l0.7,1h0L9,2h1.1C10,2.2,10,2.3,10,2.5C10,3.3,10.7,4,11.5,4S13,3.3,13,2.5C13,2.3,13,2,13,2V1V0H9z"/>
<path d="M12.4,5H9.7c0,0,0,0,0,0c0,0-0.1,0-0.1,0H9v0c-0.6,0-1.1,0.2-1.5,0.7L5.2,8.5C5,8.9,5,9.3,5.3,9.6c0.1,0.1,0.3,0.2,0.5,0.2
	c0.2,0,0.4-0.1,0.6-0.3L9,6.2v3L12.4,5z"/>
<path d="M7,13H3c-0.5,0-1-0.4-1-1v0c0-0.5,0-1,0-1h6c0,0,0,0.4,0,1v0C8,12.6,7.6,13,7,13z"/>
<path d="M0,10V6c0-0.5,0.4-1,1-1h0c0.5,0,1,0,1,0v6c0,0-0.4,0-1,0h0C0.4,11,0,10.6,0,10z"/>
</svg>
