<?xml version="1.0" encoding="UTF-8" standalone="no"?>
<svg width="16px" height="16px" viewBox="0 0 16 16" version="1.1" xmlns="http://www.w3.org/2000/svg" xmlns:xlink="http://www.w3.org/1999/xlink" xmlns:sketch="http://www.bohemiancoding.com/sketch/ns">
    <!-- Generator: Sketch 3.3.3 (12072) - http://www.bohemiancoding.com/sketch -->
    <title>dam-white-16</title>
    <desc>Created with Sketch.</desc>
    <defs></defs>
    <g id="dam" stroke="none" stroke-width="1" fill="none" fill-rule="evenodd" sketch:type="MSPage">
        <g id="dam-white-16" sketch:type="MSArtboardGroup">
            <path d="M16,14.8723616 C15.9282753,14.846174 15.8597193,14.8138839 15.7953342,14.7753286 C15.1998274,14.4187258 14.8939623,14.3469675 14.664864,14.5619742 C14.1111088,15.0816688 13.511189,15.1108172 12.9660345,14.7509193 L12.9660345,14.7509193 L12.8010804,13.5412563 C12.9773377,13.6090558 13.1446536,13.7046325 13.2976129,13.824363 C13.5897205,14.0530133 13.8501206,14.0568441 14.1493278,13.7760407 C14.6961587,13.2628446 15.2197778,13.3433813 16,13.7835159 L16,14.8723616 L16,14.8723616 Z M16,11.972362 C15.9282753,11.9461744 15.8597193,11.9138843 15.7953342,11.875329 C15.1998274,11.5187262 14.8939623,11.4469679 14.664864,11.6619746 C14.0681824,12.2219552 13.4179017,12.2123889 12.8402898,11.7602571 C12.746712,11.6870081 12.643655,11.6290831 12.5348516,11.5889119 L12.5348516,11.5889119 L12.3914193,10.5370752 C12.7181114,10.5792005 13.0298582,10.7147756 13.2976129,10.9243634 C13.5897205,11.1530137 13.8501206,11.1568445 14.1493278,10.8760411 C14.6961587,10.3628449 15.2197778,10.4433816 16,10.8835163 L16,11.972362 L16,11.972362 Z M9,4 L10,4 L12,15 L9,15 L9,4 Z M3,14 L8,14 L8,15 L3,15 L3,14 Z M3,12 L8,12 L8,13 L3,13 L3,12 Z M3,10 L8,10 L8,11 L3,11 L3,10 Z M3,8 L8,8 L8,9 L3,9 L3,8 Z M3,6 L8,6 L8,7 L3,7 L3,6 Z" id="symbol" fill-opacity="0.5" fill="#000000" sketch:type="MSShapeGroup"></path>
            <path d="M15,13.8723616 C14.9282753,13.846174 14.8597193,13.8138839 14.7953342,13.7753286 C14.1998274,13.4187258 13.8939623,13.3469675 13.664864,13.5619742 C13.1111088,14.0816688 12.511189,14.1108172 11.9660345,13.7509193 L11.9660345,13.7509193 L11.8010804,12.5412563 C11.9773377,12.6090558 12.1446536,12.7046325 12.2976129,12.824363 C12.5897205,13.0530133 12.8501206,13.0568441 13.1493278,12.7760407 C13.6961587,12.2628446 14.2197778,12.3433813 15,12.7835159 L15,13.8723616 L15,13.8723616 Z M15,10.972362 C14.9282753,10.9461744 14.8597193,10.9138843 14.7953342,10.875329 C14.1998274,10.5187262 13.8939623,10.4469679 13.664864,10.6619746 C13.0681824,11.2219552 12.4179017,11.2123889 11.8402898,10.7602571 C11.746712,10.6870081 11.643655,10.6290831 11.5348516,10.5889119 L11.5348516,10.5889119 L11.3914193,9.53707519 C11.7181114,9.57920052 12.0298582,9.71477559 12.2976129,9.92436342 C12.5897205,10.1530137 12.8501206,10.1568445 13.1493278,9.87604108 C13.6961587,9.36284494 14.2197778,9.44338164 15,9.88351629 L15,10.972362 L15,10.972362 Z M8,3 L9,3 L11,14 L8,14 L8,3 Z M2,13 L7,13 L7,14 L2,14 L2,13 Z M2,11 L7,11 L7,12 L2,12 L2,11 Z M2,9 L7,9 L7,10 L2,10 L2,9 Z M2,7 L7,7 L7,8 L2,8 L2,7 Z M2,5 L7,5 L7,6 L2,6 L2,5 Z" id="symbol-copy" fill-opacity="0.75" fill="#000000" sketch:type="MSShapeGroup"></path>
            <path d="M14,12.8723616 C13.9282753,12.846174 13.8597193,12.8138839 13.7953342,12.7753286 C13.1998274,12.4187258 12.8939623,12.3469675 12.664864,12.5619742 C12.1111088,13.0816688 11.511189,13.1108172 10.9660345,12.7509193 L10.9660345,12.7509193 L10.8010804,11.5412563 C10.9773377,11.6090558 11.1446536,11.7046325 11.2976129,11.824363 C11.5897205,12.0530133 11.8501206,12.0568441 12.1493278,11.7760407 C12.6961587,11.2628446 13.2197778,11.3433813 14,11.7835159 L14,12.8723616 L14,12.8723616 Z M14,9.97236195 C13.9282753,9.94617441 13.8597193,9.91388428 13.7953342,9.87532902 C13.1998274,9.51872618 12.8939623,9.44696792 12.664864,9.66197463 C12.0681824,10.2219552 11.4179017,10.2123889 10.8402898,9.76025712 C10.746712,9.6870081 10.643655,9.62908313 10.5348516,9.58891194 L10.5348516,9.58891194 L10.3914193,8.53707519 C10.7181114,8.57920052 11.0298582,8.71477559 11.2976129,8.92436342 C11.5897205,9.15301372 11.8501206,9.15684446 12.1493278,8.87604108 C12.6961587,8.36284494 13.2197778,8.44338164 14,8.88351629 L14,9.97236195 L14,9.97236195 Z M7,2 L8,2 L10,13 L7,13 L7,2 Z M1,12 L6,12 L6,13 L1,13 L1,12 Z M1,10 L6,10 L6,11 L1,11 L1,10 Z M1,8 L6,8 L6,9 L1,9 L1,8 Z M1,6 L6,6 L6,7 L1,7 L1,6 Z M1,4 L6,4 L6,5 L1,5 L1,4 Z" id="symbol-copy-2" fill="#FFFFFF" sketch:type="MSShapeGroup"></path>
        </g>
    </g>
</svg>