<?xml version="1.0" encoding="UTF-8" standalone="no"?>
<svg width="24px" height="24px" viewBox="0 0 24 24" version="1.1" xmlns="http://www.w3.org/2000/svg" xmlns:xlink="http://www.w3.org/1999/xlink" xmlns:sketch="http://www.bohemiancoding.com/sketch/ns">
    <!-- Generator: Sketch 3.3.3 (12072) - http://www.bohemiancoding.com/sketch -->
    <title>dam-black-24</title>
    <desc>Created with Sketch.</desc>
    <defs></defs>
    <g id="dam" stroke="none" stroke-width="1" fill="none" fill-rule="evenodd" sketch:type="MSPage">
        <g id="dam-black-24" sketch:type="MSArtboardGroup" fill="#000000">
            <path d="M24,17.9906431 C23.579722,18.1070326 23.130886,18.076265 22.7953342,17.875329 C22.1998274,17.5187262 21.8939623,17.4469679 21.664864,17.6619746 C21.0681824,18.2219552 20.4179017,18.2123889 19.8402898,17.7602571 C19.4701693,17.4705413 18.951758,17.420551 18.5160282,17.7606241 C18.1820014,18.0213213 17.79038,18.1104856 17.4123035,18.0615175 L17.4123035,18.0615175 L17.1942331,16.9711656 C17.4699695,17.1125009 17.8082016,17.1202393 18.0596442,16.9239964 C18.7974593,16.3481554 19.6688367,16.4321822 20.2976129,16.9243634 C20.5897205,17.1530137 20.8501206,17.1568445 21.1493278,16.8760411 C21.7347707,16.3266079 22.293608,16.4577154 23.1692121,16.9820468 C23.3715646,17.1032201 23.7235549,17.07726 24,16.9479972 L24,17.9906431 L24,17.9906431 Z M24,20.8906427 C23.579722,21.0070322 23.130886,20.9762646 22.7953342,20.7753286 C22.1998274,20.4187258 21.8939623,20.3469675 21.664864,20.5619742 C21.0681824,21.1219548 20.4179017,21.1123885 19.8402898,20.6602567 C19.4701693,20.3705409 18.951758,20.3205506 18.5160282,20.6606237 C18.3503605,20.789922 18.1705253,20.8770254 17.9852018,20.9260088 L17.9852018,20.9260088 L17.7906913,19.9534565 C17.8861332,19.9304288 17.9775181,19.8880928 18.0596442,19.823996 C18.7974593,19.248155 19.6688367,19.3321818 20.2976129,19.824363 C20.5897205,20.0530133 20.8501206,20.0568441 21.1493278,19.7760407 C21.7347707,19.2266076 22.293608,19.357715 23.1692121,19.8820465 C23.3715646,20.0032197 23.7235549,19.9772596 24,19.8479969 L24,20.8906427 L24,20.8906427 Z M4,8 L11,8 L11,9 L4,9 L4,8 Z M4,10 L11,10 L11,11 L4,11 L4,10 Z M4,12 L11,12 L11,13 L4,13 L4,12 Z M4,14 L11,14 L11,15 L4,15 L4,14 Z M4,16 L11,16 L11,17 L4,17 L4,16 Z M4,18 L11,18 L11,19 L4,19 L4,18 Z M4,20 L11,20 L11,21 L4,21 L4,20 Z M12,6 L14,6 L17,21 L12,21 L12,6 Z" id="symbol" fill-opacity="0.1" sketch:type="MSShapeGroup"></path>
            <path d="M23,16.9906431 C22.579722,17.1070326 22.130886,17.076265 21.7953342,16.875329 C21.1998274,16.5187262 20.8939623,16.4469679 20.664864,16.6619746 C20.0681824,17.2219552 19.4179017,17.2123889 18.8402898,16.7602571 C18.4701693,16.4705413 17.951758,16.420551 17.5160282,16.7606241 C17.1820014,17.0213213 16.79038,17.1104856 16.4123035,17.0615175 L16.4123035,17.0615175 L16.1942331,15.9711656 C16.4699695,16.1125009 16.8082016,16.1202393 17.0596442,15.9239964 C17.7974593,15.3481554 18.6688367,15.4321822 19.2976129,15.9243634 C19.5897205,16.1530137 19.8501206,16.1568445 20.1493278,15.8760411 C20.7347707,15.3266079 21.293608,15.4577154 22.1692121,15.9820468 C22.3715646,16.1032201 22.7235549,16.07726 23,15.9479972 L23,16.9906431 L23,16.9906431 Z M23,19.8906427 C22.579722,20.0070322 22.130886,19.9762646 21.7953342,19.7753286 C21.1998274,19.4187258 20.8939623,19.3469675 20.664864,19.5619742 C20.0681824,20.1219548 19.4179017,20.1123885 18.8402898,19.6602567 C18.4701693,19.3705409 17.951758,19.3205506 17.5160282,19.6606237 C17.3503605,19.789922 17.1705253,19.8770254 16.9852018,19.9260088 L16.9852018,19.9260088 L16.7906913,18.9534565 C16.8861332,18.9304288 16.9775181,18.8880928 17.0596442,18.823996 C17.7974593,18.248155 18.6688367,18.3321818 19.2976129,18.824363 C19.5897205,19.0530133 19.8501206,19.0568441 20.1493278,18.7760407 C20.7347707,18.2266076 21.293608,18.357715 22.1692121,18.8820465 C22.3715646,19.0032197 22.7235549,18.9772596 23,18.8479969 L23,19.8906427 L23,19.8906427 Z M3,7 L10,7 L10,8 L3,8 L3,7 Z M3,9 L10,9 L10,10 L3,10 L3,9 Z M3,11 L10,11 L10,12 L3,12 L3,11 Z M3,13 L10,13 L10,14 L3,14 L3,13 Z M3,15 L10,15 L10,16 L3,16 L3,15 Z M3,17 L10,17 L10,18 L3,18 L3,17 Z M3,19 L10,19 L10,20 L3,20 L3,19 Z M11,5 L13,5 L16,20 L11,20 L11,5 Z" id="symbol-copy" fill-opacity="0.2" sketch:type="MSShapeGroup"></path>
            <path d="M22,15.9906431 C21.579722,16.1070326 21.130886,16.076265 20.7953342,15.875329 C20.1998274,15.5187262 19.8939623,15.4469679 19.664864,15.6619746 C19.0681824,16.2219552 18.4179017,16.2123889 17.8402898,15.7602571 C17.4701693,15.4705413 16.951758,15.420551 16.5160282,15.7606241 C16.1820014,16.0213213 15.79038,16.1104856 15.4123035,16.0615175 L15.4123035,16.0615175 L15.1942331,14.9711656 C15.4699695,15.1125009 15.8082016,15.1202393 16.0596442,14.9239964 C16.7974593,14.3481554 17.6688367,14.4321822 18.2976129,14.9243634 C18.5897205,15.1530137 18.8501206,15.1568445 19.1493278,14.8760411 C19.7347707,14.3266079 20.293608,14.4577154 21.1692121,14.9820468 C21.3715646,15.1032201 21.7235549,15.07726 22,14.9479972 L22,15.9906431 L22,15.9906431 Z M22,18.8906427 C21.579722,19.0070322 21.130886,18.9762646 20.7953342,18.7753286 C20.1998274,18.4187258 19.8939623,18.3469675 19.664864,18.5619742 C19.0681824,19.1219548 18.4179017,19.1123885 17.8402898,18.6602567 C17.4701693,18.3705409 16.951758,18.3205506 16.5160282,18.6606237 C16.3503605,18.789922 16.1705253,18.8770254 15.9852018,18.9260088 L15.9852018,18.9260088 L15.7906913,17.9534565 C15.8861332,17.9304288 15.9775181,17.8880928 16.0596442,17.823996 C16.7974593,17.248155 17.6688367,17.3321818 18.2976129,17.824363 C18.5897205,18.0530133 18.8501206,18.0568441 19.1493278,17.7760407 C19.7347707,17.2266076 20.293608,17.357715 21.1692121,17.8820465 C21.3715646,18.0032197 21.7235549,17.9772596 22,17.8479969 L22,18.8906427 L22,18.8906427 Z M2,6 L9,6 L9,7 L2,7 L2,6 Z M2,8 L9,8 L9,9 L2,9 L2,8 Z M2,10 L9,10 L9,11 L2,11 L2,10 Z M2,12 L9,12 L9,13 L2,13 L2,12 Z M2,14 L9,14 L9,15 L2,15 L2,14 Z M2,16 L9,16 L9,17 L2,17 L2,16 Z M2,18 L9,18 L9,19 L2,19 L2,18 Z M10,4 L12,4 L15,19 L10,19 L10,4 Z" id="symbol-copy-2" sketch:type="MSShapeGroup"></path>
        </g>
    </g>
</svg>