<?xml version="1.0" encoding="UTF-8" standalone="no"?>
<svg width="32px" height="32px" viewBox="0 0 32 32" version="1.1" xmlns="http://www.w3.org/2000/svg" xmlns:xlink="http://www.w3.org/1999/xlink" xmlns:sketch="http://www.bohemiancoding.com/sketch/ns">
    <!-- Generator: Sketch 3.3.3 (12072) - http://www.bohemiancoding.com/sketch -->
    <title>dam-black-32</title>
    <desc>Created with Sketch.</desc>
    <defs></defs>
    <g id="dam" stroke="none" stroke-width="1" fill="none" fill-rule="evenodd" sketch:type="MSPage">
        <g id="dam-black-32" sketch:type="MSArtboardGroup" fill="#000000">
            <path d="M32,25.8838159 C31.2698168,26.2818251 30.3648658,26.3226185 29.736446,25.9297627 C28.8808028,25.3948584 28.4413259,25.287221 28.1121503,25.6097311 C27.254819,26.4497019 26.3204748,26.4353525 25.4905436,25.7571548 C24.9587425,25.3225811 24.2138725,25.2475957 23.587802,25.7577053 C23.2156367,26.0609382 22.7937109,26.2094547 22.3696855,26.226616 L22.3696855,26.226616 L22.0224492,24.6987767 C22.3363854,24.7697561 22.6676228,24.7182177 22.9320549,24.5027638 C23.9921713,23.6390023 25.2441942,23.7650424 26.14764,24.5033143 C26.5673495,24.8462897 26.9415008,24.8520358 27.3714113,24.4308308 C28.2125944,23.6066811 29.0155497,23.8033422 30.2736458,24.5898394 C30.7124823,24.8641775 31.6411242,24.6357348 31.9470559,24.1305769 L32,24.1805737 L32,25.8838159 L32,25.8838159 Z M32,28.6299642 C31.2698168,29.0279734 30.3648658,29.0687668 29.736446,28.675911 C28.8808028,28.1410067 28.4413259,28.0333693 28.1121503,28.3558794 C27.254819,29.1958502 26.3204748,29.1815008 25.4905436,28.5033031 C24.9587425,28.0687294 24.2138725,27.993744 23.587802,28.5038536 C23.3924385,28.6630319 23.183363,28.7795766 22.9674698,28.8568671 L22.9674698,28.8568671 L22.639653,27.4144731 C22.7427206,27.3774702 22.8413205,27.3228406 22.9320549,27.2489121 C23.9921713,26.3851506 25.2441942,26.5111907 26.14764,27.2494626 C26.5673495,27.592438 26.9415008,27.5981841 27.3714113,27.1769791 C28.2125944,26.3528294 29.0155497,26.5494905 30.2736458,27.3359877 C30.7124823,27.6103258 31.6411242,27.3818831 31.9470559,26.8767252 L32,26.926722 L32,28.6299642 L32,28.6299642 Z M4,9 L14,9 L14,11 L4,11 L4,9 Z M4,12 L14,12 L14,14 L4,14 L4,12 Z M4,15 L14,15 L14,17 L4,17 L4,15 Z M4,18 L14,18 L14,20 L4,20 L4,18 Z M4,21 L14,21 L14,23 L4,23 L4,21 Z M4,24 L14,24 L14,26 L4,26 L4,24 Z M4,27 L14,27 L14,29 L4,29 L4,27 Z M15,7 L17,7 L22,29 L15,29 L15,7 Z" id="symbol" fill-opacity="0.1" sketch:type="MSShapeGroup"></path>
            <path d="M31,24.8838159 C30.2698168,25.2818251 29.3648658,25.3226185 28.736446,24.9297627 C27.8808028,24.3948584 27.4413259,24.287221 27.1121503,24.6097311 C26.254819,25.4497019 25.3204748,25.4353525 24.4905436,24.7571548 C23.9587425,24.3225811 23.2138725,24.2475957 22.587802,24.7577053 C22.2156367,25.0609382 21.7937109,25.2094547 21.3696855,25.226616 L21.3696855,25.226616 L21.0224492,23.6987767 C21.3363854,23.7697561 21.6676228,23.7182177 21.9320549,23.5027638 C22.9921713,22.6390023 24.2441942,22.7650424 25.14764,23.5033143 C25.5673495,23.8462897 25.9415008,23.8520358 26.3714113,23.4308308 C27.2125944,22.6066811 28.0155497,22.8033422 29.2736458,23.5898394 C29.7124823,23.8641775 30.6411242,23.6357348 30.9470559,23.1305769 L31,23.1805737 L31,24.8838159 L31,24.8838159 Z M31,27.6299642 C30.2698168,28.0279734 29.3648658,28.0687668 28.736446,27.675911 C27.8808028,27.1410067 27.4413259,27.0333693 27.1121503,27.3558794 C26.254819,28.1958502 25.3204748,28.1815008 24.4905436,27.5033031 C23.9587425,27.0687294 23.2138725,26.993744 22.587802,27.5038536 C22.3924385,27.6630319 22.183363,27.7795766 21.9674698,27.8568671 L21.9674698,27.8568671 L21.639653,26.4144731 C21.7427206,26.3774702 21.8413205,26.3228406 21.9320549,26.2489121 C22.9921713,25.3851506 24.2441942,25.5111907 25.14764,26.2494626 C25.5673495,26.592438 25.9415008,26.5981841 26.3714113,26.1769791 C27.2125944,25.3528294 28.0155497,25.5494905 29.2736458,26.3359877 C29.7124823,26.6103258 30.6411242,26.3818831 30.9470559,25.8767252 L31,25.926722 L31,27.6299642 L31,27.6299642 Z M3,8 L13,8 L13,10 L3,10 L3,8 Z M3,11 L13,11 L13,13 L3,13 L3,11 Z M3,14 L13,14 L13,16 L3,16 L3,14 Z M3,17 L13,17 L13,19 L3,19 L3,17 Z M3,20 L13,20 L13,22 L3,22 L3,20 Z M3,23 L13,23 L13,25 L3,25 L3,23 Z M3,26 L13,26 L13,28 L3,28 L3,26 Z M14,6 L16,6 L21,28 L14,28 L14,6 Z" id="symbol-copy" fill-opacity="0.2" sketch:type="MSShapeGroup"></path>
            <path d="M30,23.8838159 C29.2698168,24.2818251 28.3648658,24.3226185 27.736446,23.9297627 C26.8808028,23.3948584 26.4413259,23.287221 26.1121503,23.6097311 C25.254819,24.4497019 24.3204748,24.4353525 23.4905436,23.7571548 C22.9587425,23.3225811 22.2138725,23.2475957 21.587802,23.7577053 C21.2156367,24.0609382 20.7937109,24.2094547 20.3696855,24.226616 L20.3696855,24.226616 L20.0224492,22.6987767 C20.3363854,22.7697561 20.6676228,22.7182177 20.9320549,22.5027638 C21.9921713,21.6390023 23.2441942,21.7650424 24.14764,22.5033143 C24.5673495,22.8462897 24.9415008,22.8520358 25.3714113,22.4308308 C26.2125944,21.6066811 27.0155497,21.8033422 28.2736458,22.5898394 C28.7124823,22.8641775 29.6411242,22.6357348 29.9470559,22.1305769 L30,22.1805737 L30,23.8838159 L30,23.8838159 Z M30,26.6299642 C29.2698168,27.0279734 28.3648658,27.0687668 27.736446,26.675911 C26.8808028,26.1410067 26.4413259,26.0333693 26.1121503,26.3558794 C25.254819,27.1958502 24.3204748,27.1815008 23.4905436,26.5033031 C22.9587425,26.0687294 22.2138725,25.993744 21.587802,26.5038536 C21.3924385,26.6630319 21.183363,26.7795766 20.9674698,26.8568671 L20.9674698,26.8568671 L20.639653,25.4144731 C20.7427206,25.3774702 20.8413205,25.3228406 20.9320549,25.2489121 C21.9921713,24.3851506 23.2441942,24.5111907 24.14764,25.2494626 C24.5673495,25.592438 24.9415008,25.5981841 25.3714113,25.1769791 C26.2125944,24.3528294 27.0155497,24.5494905 28.2736458,25.3359877 C28.7124823,25.6103258 29.6411242,25.3818831 29.9470559,24.8767252 L30,24.926722 L30,26.6299642 L30,26.6299642 Z M2,7 L12,7 L12,9 L2,9 L2,7 Z M2,10 L12,10 L12,12 L2,12 L2,10 Z M2,13 L12,13 L12,15 L2,15 L2,13 Z M2,16 L12,16 L12,18 L2,18 L2,16 Z M2,19 L12,19 L12,21 L2,21 L2,19 Z M2,22 L12,22 L12,24 L2,24 L2,22 Z M2,25 L12,25 L12,27 L2,27 L2,25 Z M13,5 L15,5 L20,27 L13,27 L13,5 Z" id="symbol-copy-2" sketch:type="MSShapeGroup"></path>
        </g>
    </g>
</svg>