<?xml version="1.0" encoding="utf-8"?>
<!-- Generator: Adobe Illustrator 22.1.0, SVG Export Plug-In . SVG Version: 6.00 Build 0)  -->
<svg version="1.1" id="Layer_1" xmlns="http://www.w3.org/2000/svg" xmlns:xlink="http://www.w3.org/1999/xlink" x="0px" y="0px"
	 width="14px" height="14px" viewBox="0 0 14 14" enable-background="new 0 0 14 14" xml:space="preserve">
<path fill="#231F20" d="M10.1,2.1h1.3c0.2,0,0.3,0.1,0.3,0.3c0,0.2-0.1,0.3-0.3,0.3h-1.3c-0.1,0-0.2,0-0.2,0.1
	C9.8,2.8,9.8,3,9.8,3.1C9.9,3.2,9.9,3.9,10,4l0.7,0c0.1,0,0.1,0,0.2,0l1.7,0.5c0.1,0.1,0.2,0.2,0.2,0.4c0,0.3-0.2,0.3-0.5,0.3h-1.1
	L9.7,8.9l-1,1v3.5c0,0.4-0.3,0.6-0.6,0.6c-0.4,0-0.6-0.3-0.6-0.6V9.6H4.9l-0.6,0.9L5.8,13c0.2,0.3,0.1,0.7-0.2,0.9
	c-0.3,0.2-0.7,0.1-0.9-0.2l-1.5-2.5V10l-0.7,1v2.4c0,0.4-0.3,0.6-0.6,0.6c-0.4,0-0.6-0.3-0.6-0.6l0-2.5l0.6-1V8.7L1.3,9.4
	c0,0,0,0-0.1,0c0,0-0.1,0-0.1-0.1V6.9C1.2,6.4,1.6,6,2.1,6H8l1.3-1.1L8.6,4.2c0,0,0-0.1,0-0.1C8.5,4.1,8.6,4,8.7,4l0.6,0
	C9.1,3.7,9,2.7,9,2.4C9,1.1,10.1,0,11.4,0c0.2,0,0.3,0.1,0.3,0.3c0,0.2-0.1,0.3-0.3,0.3c-0.9,0-1.6,0.7-1.7,1.5
	C9.8,2.1,9.9,2.1,10.1,2.1z"/>
</svg>
