<?xml version="1.0" encoding="utf-8"?>
<!-- Generator: Adobe Illustrator 22.1.0, SVG Export Plug-In . SVG Version: 6.00 Build 0)  -->
<svg version="1.1" id="Layer_1" xmlns="http://www.w3.org/2000/svg" xmlns:xlink="http://www.w3.org/1999/xlink" x="0px" y="0px"
	 width="30px" height="30px" viewBox="0 0 30 30" enable-background="new 0 0 30 30" xml:space="preserve">
<path fill="#231F20" d="M21.6,4.4h2.7c0.4,0,0.7,0.3,0.7,0.7c0,0.4-0.3,0.7-0.7,0.7h-2.7c-0.2,0-0.3,0.1-0.5,0.2
	C21,6.1,20.9,6.4,21,6.7c0.1,0.2,0.2,0.4,0.4,0.6l1.5,0c0.1,0,0.2,0,0.4,0.1l3.6,2c0.3,0.2,0.5,0.5,0.5,0.9c0,0.6-0.5,1.1-1.1,1.1
	H24l-3.2,7.8L19,21v8c0,0.8-0.8,1-1.6,1c-0.8,0-1.4-0.2-1.4-1v-8l-5.5-0.4l-1.2,1.9l3,5.3c0.4,0.7,0.1,1.5-0.5,1.9
	c-0.7,0.4-1.5,0.1-1.9-0.5l-3.1-5.4v-2.4L5,23.5v5.1c0,0.8-0.3,1.4-1.1,1.4c-0.8,0-1.9-0.6-1.9-1.4v-5.4l1.8-2v-2.4l-1,1.6
	c0,0.1-0.1,0.1-0.1,0.1c-0.1,0-0.2-0.1-0.2-0.2v-5.4C2.6,13.7,3.9,13,5,13h13l2.2-3.4l-1.8-1.8c-0.1-0.1-0.1-0.1-0.1-0.2
	c0-0.2,0.1-0.3,0.3-0.3l1.3,0c-0.3-0.7-0.5-1.4-0.5-2.2c0-2.8,2.3-5.1,5.1-5.1c0.4,0,0.7,0.3,0.7,0.7c0,0.4-0.3,0.7-0.7,0.7
	c-1.9,0-3.5,1.4-3.7,3.3C21,4.5,21.3,4.4,21.6,4.4z"/>
</svg>
