<?xml version="1.0" encoding="utf-8"?>
<!-- Generator: Adobe Illustrator 22.0.1, SVG Export Plug-In . SVG Version: 6.00 Build 0)  -->
<svg version="1.1" id="Layer_1" xmlns="http://www.w3.org/2000/svg" xmlns:xlink="http://www.w3.org/1999/xlink" x="0px" y="0px"
	 width="14px" height="14px" viewBox="0 0 14 14" enable-background="new 0 0 14 14" xml:space="preserve">
<path d="M12.9,8V5.6c0-0.6-0.2-1.1-0.6-1.5L9.7,1.5C9.5,1.5,9,2,9,2c0,0.2,1.3,1.5,1.3,1.5v2.2c0,0.7,0.8,1.3,1.6,1.3l0.1,4v1
	c0,0.7-0.5,1-1,1s-1-0.5-1-1V8c0-0.9-0.8-2-1.7-2H7V1H6v4H2V1H1v13h6V7h1c0.3,0,1,0.7,1,1v4c0,1,0.9,2,2,2c1,0,2-0.9,2-2
	C13,11.7,12.9,8,12.9,8z M6,11H5v1H3H2V7h1h2v1h1V11z M12,6h-1V5h1V6z"/>
<rect x="2" width="4" height="1"/>
<rect x="3" y="8" width="2" height="3"/>
</svg>
