<?xml version="1.0" encoding="utf-8"?>
<!-- Generator: Adobe Illustrator 22.0.1, SVG Export Plug-In . SVG Version: 6.00 Build 0)  -->
<svg version="1.1" id="Layer_1" xmlns="http://www.w3.org/2000/svg" xmlns:xlink="http://www.w3.org/1999/xlink" x="0px" y="0px"
	 width="30px" height="30px" viewBox="0 0 30 30" enable-background="new 0 0 30 30" xml:space="preserve">
<g>
	<path fill="#FFFFFF" d="M16.7,2.8c5.5,0.7,9.8,5.1,10.5,10.5l1.3,0.4l1.5,0.5C29.6,6.5,23.5,0.4,15.8,0l0.5,1.5L16.7,2.8z"/>
	<path fill="#FFFFFF" d="M13.3,27.2c-5.5-0.7-9.8-5.1-10.5-10.5l-1.3-0.4L0,15.8C0.4,23.5,6.5,29.6,14.2,30l-0.5-1.5L13.3,27.2z"/>
	<path fill="#FFFFFF" d="M27.2,16.7c-0.7,5.5-5.1,9.8-10.5,10.5l-0.4,1.3L15.8,30c7.7-0.4,13.8-6.5,14.2-14.2l-1.5,0.5L27.2,16.7z"/>
	<path fill="#FFFFFF" d="M2.8,13.3C3.5,7.8,7.8,3.5,13.3,2.8l0.4-1.3L14.2,0C6.5,0.4,0.4,6.5,0,14.2l1.5-0.5L2.8,13.3z"/>
	<polygon fill="#FFFFFF" points="18.8,9.3 18.9,9.4 19.3,10.7 20.6,11.1 20.7,11.2 20.9,11.2 22.8,7.5 23.3,6.7 22.5,7.2 18.8,9.1 	"/>
	<polygon fill="#FFFFFF" points="7.2,7.5 9.1,11.2 9.3,11.2 9.4,11.1 10.7,10.7 11.1,9.4 11.2,9.3 11.2,9.1 7.5,7.2 6.7,6.7 	"/>
	<polygon fill="#FFFFFF" points="11.2,20.7 11.1,20.6 10.7,19.3 9.4,18.9 9.3,18.8 9.1,18.8 7.2,22.5 6.7,23.3 7.5,22.8 11.2,20.9 	"/>
	<polygon fill="#FFFFFF" points="20.7,18.8 20.6,18.9 19.3,19.3 18.9,20.6 18.8,20.7 18.8,20.9 22.5,22.8 23.3,23.3 22.8,22.5 20.9,18.8 	"/>
	<polygon fill="#FFFFFF" points="27.3,15.3 28.1,15 27.3,14.7 18.2,11.8 15,1.9 14.7,2.7 11.8,11.8 2.7,14.7 1.9,15 2.7,15.3 11.8,18.2 14.7,27.3 
		15,28.1 15.3,27.3 18.2,18.2 	"/>
</g>
</svg>
