<?xml version="1.0" encoding="utf-8"?>
<!-- Generator: Adobe Illustrator 22.0.1, SVG Export Plug-In . SVG Version: 6.00 Build 0)  -->
<svg version="1.1" id="Layer_1" xmlns="http://www.w3.org/2000/svg" xmlns:xlink="http://www.w3.org/1999/xlink" x="0px" y="0px"
	 width="22px" height="22px" viewBox="0 0 22 22" enable-background="new 0 0 22 22" xml:space="preserve">
<g>
	<path fill="#FFFFFF" d="M12.2,2c4,0.5,7.2,3.7,7.7,7.7l1,0.3l1.1,0.3C21.7,4.8,17.2,0.3,11.6,0l0.3,1.1L12.2,2z"/>
	<path fill="#FFFFFF" d="M9.8,20c-4-0.5-7.2-3.7-7.7-7.7l-1-0.3L0,11.6C0.3,17.2,4.8,21.7,10.4,22l-0.3-1.1L9.8,20z"/>
	<path fill="#FFFFFF" d="M20,12.2c-0.5,4-3.7,7.2-7.7,7.7l-0.3,1L11.6,22c5.6-0.3,10.1-4.8,10.4-10.4l-1.1,0.3L20,12.2z"/>
	<path fill="#FFFFFF" d="M2,9.8c0.5-4,3.7-7.2,7.7-7.7l0.3-1L10.4,0C4.8,0.3,0.3,4.8,0,10.4l1.1-0.3L2,9.8z"/>
	<polygon fill="#FFFFFF" points="13.8,6.8 13.8,6.9 14.1,7.9 15.1,8.2 15.2,8.2 15.3,8.2 16.7,5.5 17.1,4.9 16.5,5.3 13.8,6.7 	"/>
	<polygon fill="#FFFFFF" points="5.3,5.5 6.7,8.2 6.8,8.2 6.9,8.2 7.9,7.9 8.2,6.9 8.2,6.8 8.2,6.7 5.5,5.3 4.9,4.9 	"/>
	<polygon fill="#FFFFFF" points="8.2,15.2 8.2,15.1 7.9,14.1 6.9,13.8 6.8,13.8 6.7,13.8 5.3,16.5 4.9,17.1 5.5,16.7 8.2,15.3 	"/>
	<polygon fill="#FFFFFF" points="15.2,13.8 15.1,13.8 14.1,14.1 13.8,15.1 13.8,15.2 13.8,15.3 16.5,16.7 17.1,17.1 16.7,16.5 15.3,13.8 	"/>
	<polygon fill="#FFFFFF" points="20.1,11.2 20.6,11 20.1,10.8 13.4,8.6 11,1.4 10.8,1.9 8.6,8.6 1.9,10.8 1.4,11 1.9,11.2 8.6,13.4 10.8,20.1 
		11,20.6 11.2,20.1 13.4,13.4 	"/>
</g>
</svg>
