<?xml version="1.0" encoding="utf-8"?>
<!-- Generator: Adobe Illustrator 22.0.1, SVG Export Plug-In . SVG Version: 6.00 Build 0)  -->
<svg version="1.1" id="Layer_1" xmlns="http://www.w3.org/2000/svg" xmlns:xlink="http://www.w3.org/1999/xlink" x="0px" y="0px"
	 width="14px" height="14px" viewBox="0 0 14 14" enable-background="new 0 0 14 14" xml:space="preserve">
<g>
	<path d="M7.8,1.3c2.6,0.3,4.6,2.4,4.9,4.9l0.6,0.2L14,6.6C13.8,3.1,10.9,0.2,7.4,0l0.2,0.7L7.8,1.3z"/>
	<path d="M6.2,12.7c-2.6-0.3-4.6-2.4-4.9-4.9L0.7,7.6L0,7.4c0.2,3.6,3.1,6.4,6.6,6.6l-0.2-0.7L6.2,12.7z"/>
	<path d="M12.7,7.8c-0.3,2.6-2.4,4.6-4.9,4.9l-0.2,0.6L7.4,14c3.6-0.2,6.4-3.1,6.6-6.6l-0.7,0.2L12.7,7.8z"/>
	<path d="M1.3,6.2c0.3-2.6,2.4-4.6,4.9-4.9l0.2-0.6L6.6,0C3.1,0.2,0.2,3.1,0,6.6l0.7-0.2L1.3,6.2z"/>
	<polygon points="8.8,4.3 8.8,4.4 9,5 9.6,5.2 9.7,5.2 9.7,5.2 10.7,3.5 10.9,3.1 10.5,3.3 8.8,4.3 	"/>
	<polygon points="3.3,3.5 4.3,5.2 4.3,5.2 4.4,5.2 5,5 5.2,4.4 5.2,4.3 5.2,4.3 3.5,3.3 3.1,3.1 	"/>
	<polygon points="5.2,9.7 5.2,9.6 5,9 4.4,8.8 4.3,8.8 4.3,8.8 3.3,10.5 3.1,10.9 3.5,10.7 5.2,9.7 	"/>
	<polygon points="9.7,8.8 9.6,8.8 9,9 8.8,9.6 8.8,9.7 8.8,9.7 10.5,10.7 10.9,10.9 10.7,10.5 9.7,8.8 	"/>
	<polygon points="12.8,7.1 13.1,7 12.8,6.9 8.5,5.5 7,0.9 6.9,1.2 5.5,5.5 1.2,6.9 0.9,7 1.2,7.1 5.5,8.5 6.9,12.8 7,13.1 7.1,12.8 
		8.5,8.5 	"/>
</g>
</svg>
