<?xml version="1.0" encoding="utf-8"?>
<!-- Generator: Adobe Illustrator 22.0.1, SVG Export Plug-In . SVG Version: 6.00 Build 0)  -->
<svg version="1.1" id="Layer_1" xmlns="http://www.w3.org/2000/svg" xmlns:xlink="http://www.w3.org/1999/xlink" x="0px" y="0px"
	 width="22px" height="22px" viewBox="0 0 22 22" enable-background="new 0 0 22 22" xml:space="preserve">
<path fill="#FFFFFF" d="M21.5,22c-0.5,0-0.9-0.1-1.3-0.3c-0.4-0.2-0.9-0.3-1.3-0.3c-0.5,0-0.9,0.1-1.3,0.3c-0.4,0.2-0.8,0.3-1.3,0.3
	c-0.5,0-0.9-0.1-1.3-0.3c-0.4-0.2-0.9-0.3-1.3-0.3s-0.9,0.1-1.3,0.3C11.9,21.9,11.5,22,11,22c-0.5,0-0.9-0.1-1.3-0.3
	c-0.4-0.2-0.9-0.3-1.3-0.3c-0.5,0-0.9,0.1-1.3,0.3C6.7,21.9,6.2,22,5.8,22c-0.5,0-0.9-0.1-1.3-0.3c-0.4-0.2-0.9-0.3-1.3-0.3
	c-0.5,0-0.9,0.1-1.3,0.3C1.4,21.9,1,22,0.5,22v-1.9c0.5,0,0.9-0.1,1.3-0.3c0.4-0.2,0.9-0.3,1.3-0.3c0.5,0,0.9,0.1,1.3,0.3
	c0.4,0.2,0.8,0.3,1.3,0.3c0.5,0,0.9-0.1,1.3-0.3c0.4-0.2,0.9-0.3,1.3-0.3c0.5,0,0.9,0.1,1.3,0.3c0.4,0.2,0.8,0.3,1.3,0.3
	c0.5,0,0.9-0.1,1.3-0.3c0.4-0.2,0.9-0.3,1.3-0.3s0.9,0.1,1.3,0.3c0.4,0.2,0.8,0.3,1.3,0.3c0.5,0,0.9-0.1,1.3-0.3
	c0.4-0.2,0.9-0.3,1.3-0.3c0.5,0,0.9,0.1,1.3,0.3c0.4,0.2,0.8,0.3,1.3,0.3V22z"/>
<path fill="#FFFFFF" d="M6.4,12.5c1,0,1.8-0.8,1.8-1.8c0-1-0.8-1.8-1.8-1.8c-1,0-1.8,0.8-1.8,1.8C4.7,11.7,5.5,12.5,6.4,12.5z"/>
<path fill="#FFFFFF" d="M6.7,18.6c-0.3,0.5-0.9,0.6-1.4,0.4c-0.5-0.3-0.6-0.9-0.4-1.4l4.1-7.1c0.2-0.3,0.4-0.5,0.6-0.6L15,6.7l3.6-6.1l0,0
	c0.3-0.6,1.1-0.8,1.7-0.5c0.6,0.3,0.8,1.1,0.5,1.7l0,0l-4.3,7.3c-0.1,0.3-0.4,0.5-0.6,0.6l-6.2,3.9L6.7,18.6z"/>
</svg>
