<?xml version="1.0" encoding="utf-8"?>
<!-- Generator: Adobe Illustrator 25.4.1, SVG Export Plug-In . SVG Version: 6.00 Build 0)  -->
<svg version="1.1" id="Layer_1" xmlns="http://www.w3.org/2000/svg" xmlns:xlink="http://www.w3.org/1999/xlink" x="0px" y="0px"
	 width="14px" height="14px" viewBox="0 0 14 14" enable-background="new 0 0 14 14" xml:space="preserve">
<path fill="#ffffff" d="M4.1,8c0.6,0,1.1-0.5,1.1-1.1S4.7,5.8,4.1,5.8C3.5,5.7,3,6.2,3,6.8C3,7.5,3.5,8,4.1,8z"/>
<path fill="#ffffff" d="M4.3,11.9c-0.2,0.3-0.6,0.4-0.9,0.2S3,11.5,3.2,11.2l2.6-4.5C5.9,6.5,6,6.4,6.2,6.3l3.4-2l2.3-3.9l0,0
	c0.1-0.4,0.6-0.5,1-0.3s0.5,0.7,0.3,1.1l0,0l-2.7,4.6C10.4,6,10.2,6.1,10,6.2L6,8.7L4.3,11.9z"/>
<path fill="#ffffff" d="M13.6,14.1c-0.3,0-0.6-0.1-0.8-0.2c-0.3-0.1-0.6-0.5-0.9-0.5c-0.3,0-0.6,0.4-0.9,0.5
	c-0.2,0.1-0.5,0.2-0.8,0.2S9.6,14,9.4,13.9c-0.3-0.1-0.6-0.5-0.9-0.5c-0.3,0-0.6,0.4-0.9,0.5c-0.2,0.1-0.5,0.2-0.8,0.2
	S6.2,13.9,6,13.9c-0.3-0.1-0.6-0.5-0.9-0.5s-0.6,0.4-0.9,0.5C4,14,3.7,14.1,3.4,14.1S2.8,14,2.6,13.9c-0.3-0.1-0.6-0.5-0.9-0.5
	s-0.6,0.4-0.9,0.5C0.6,14,0.3,14.1,0,14.1v-1.2c0.3,0,0.6-0.1,0.8-0.2c0.3-0.1,0.6-0.5,0.9-0.5s0.6,0.4,0.9,0.5s0.5,0.2,0.8,0.2
	s0.6-0.1,0.8-0.2c0.3-0.1,0.6-0.5,0.9-0.5s0.6,0.4,0.9,0.5s0.5,0.2,0.8,0.2s0.6-0.1,0.8-0.2c0.3-0.1,0.6-0.5,0.9-0.5
	s0.6,0.4,0.9,0.5c0.3,0.1,0.5,0.2,0.8,0.2s0.6-0.1,0.8-0.2c0.3-0.1,0.6-0.5,0.9-0.5c0.3,0,0.6,0.4,0.9,0.5c0.3,0.1,0.5,0.2,0.8,0.2
	C13.6,12.9,13.6,14.1,13.6,14.1z"/>
</svg>
