<?xml version="1.0" encoding="utf-8"?>
<!-- Generator: Adobe Illustrator 22.0.1, SVG Export Plug-In . SVG Version: 6.00 Build 0)  -->
<svg version="1.1" id="Layer_1" xmlns="http://www.w3.org/2000/svg" xmlns:xlink="http://www.w3.org/1999/xlink" x="0px" y="0px"
	 width="30px" height="30px" viewBox="0 0 30 30" enable-background="new 0 0 30 30" xml:space="preserve">
<path fill="#FFFFFF" d="M29.3,30c-0.6,0-1.2-0.1-1.8-0.4c-0.5-0.3-1.2-0.4-1.8-0.4c-0.6,0-1.3,0.1-1.8,0.4c-0.5,0.2-1.1,0.4-1.8,0.4
	c-0.6,0-1.2-0.1-1.8-0.4c-0.6-0.3-1.2-0.4-1.8-0.4c-0.6,0-1.3,0.1-1.8,0.4C16.2,29.9,15.6,30,15,30c-0.6,0-1.2-0.1-1.8-0.4
	c-0.5-0.3-1.2-0.4-1.8-0.4c-0.6,0-1.3,0.1-1.8,0.4C9.1,29.9,8.5,30,7.9,30c-0.6,0-1.2-0.1-1.8-0.4c-0.5-0.3-1.2-0.4-1.8-0.4
	c-0.6,0-1.3,0.1-1.8,0.4C1.9,29.9,1.3,30,0.7,30v-2.6c0.6,0,1.2-0.1,1.8-0.4c0.5-0.2,1.2-0.4,1.8-0.4c0.6,0,1.3,0.1,1.8,0.4
	c0.5,0.2,1.1,0.4,1.8,0.4c0.6,0,1.2-0.1,1.8-0.4c0.5-0.2,1.2-0.4,1.8-0.4c0.6,0,1.3,0.1,1.8,0.4c0.5,0.2,1.1,0.4,1.8,0.4
	c0.6,0,1.2-0.1,1.8-0.4c0.5-0.2,1.2-0.4,1.8-0.4c0.6,0,1.3,0.1,1.8,0.4c0.5,0.2,1.1,0.4,1.8,0.4c0.6,0,1.2-0.1,1.8-0.4
	c0.6-0.2,1.2-0.4,1.8-0.4c0.6,0,1.3,0.1,1.8,0.4c0.5,0.2,1.1,0.4,1.8,0.4V30z"/>
<path fill="#FFFFFF" d="M8.8,17c1.3,0,2.4-1.1,2.4-2.4c0-1.3-1.1-2.4-2.4-2.4c-1.3,0-2.4,1.1-2.4,2.4C6.4,16,7.5,17,8.8,17z"/>
<path fill="#FFFFFF" d="M9.1,25.4c-0.4,0.6-1.2,0.9-1.9,0.5c-0.6-0.4-0.9-1.2-0.5-1.9l5.6-9.6c0.2-0.4,0.5-0.7,0.9-0.9l7.2-4.4l4.9-8.3l0,0
	c0.5-0.8,1.5-1.1,2.3-0.6c0.8,0.5,1.1,1.5,0.6,2.3l0,0l-5.9,10c-0.2,0.4-0.5,0.7-0.9,0.9L13,18.6L9.1,25.4z"/>
</svg>
