<?xml version="1.0" encoding="utf-8"?>
<!-- Generator: Adobe Illustrator 24.3.0, SVG Export Plug-In . SVG Version: 6.00 Build 0)  -->
<svg version="1.1" id="Layer_1" xmlns="http://www.w3.org/2000/svg" xmlns:xlink="http://www.w3.org/1999/xlink" x="0px" y="0px"
	 width="14px" height="14px" viewBox="0 0 14 14" enable-background="new 0 0 14 14" xml:space="preserve">
<path fill="#FFFFFF" d="M12.9,11.7c-0.6,0.5-1,0.5-1,0.5H0.4L0,13l0,0h12c0.6-0.1,0.9-0.3,0.9-0.3l1.1-0.8V11L12.9,11.7z"/>
<path fill="#FFFFFF" d="M3.1,2.8c0.5-0.1,0.8-0.6,0.8-1.1C3.8,1.2,3.3,0.8,2.8,0.9S1.9,1.5,2,2C2.1,2.5,2.6,2.8,3.1,2.8z"/>
<path fill="#FFFFFF" d="M1.4,12.3v0.1C1.5,12.8,1.9,13,2.2,13s0.5-0.3,0.5-0.6L3,7.6l1.2,4.9c0.1,0.3,0.4,0.4,0.7,0.4
	c0.4-0.1,0.6-0.4,0.5-0.7v-0.1L3.6,5.7V5.1l0.2,0.4c0.1,0.3,0.4,0.2,0.4,0.2l1.6,0.1h0.1c0.2,0,0.4-0.3,0.4-0.5C6.2,5.2,6,5.1,5.8,5
	L4.4,4.9L3.8,3.5c-0.3-0.7-1-0.6-1-0.6C2,3,2,3.8,2,3.8L1.4,12.3z"/>
<path fill="#FFFFFF" d="M12,11l1-0.8L8,8.8V11H12z"/>
<path fill="#FFFFFF" d="M6.5,5C6.2,5,6,5.2,6,5.5V13h1V5.5C7,5.2,6.8,5,6.5,5z"/>
</svg>
