<?xml version="1.0" encoding="utf-8"?>
<!-- Generator: Adobe Illustrator 25.4.1, SVG Export Plug-In . SVG Version: 6.00 Build 0)  -->
<svg version="1.1" id="Icons" xmlns="http://www.w3.org/2000/svg" xmlns:xlink="http://www.w3.org/1999/xlink" x="0px" y="0px"
	 width="14px" height="14px" viewBox="0 0 14 14" enable-background="new 0 0 14 14" xml:space="preserve">
<path fill="#ffffff" d="M7.3,1.2C6.6,0.8,5.7,1,5.3,1.6C5,2,5,2.5,5.1,2.8l0.8,2.5L3.6,6C3.3,6.1,3,6.4,3,6.7
	C2.9,7.2,3.3,7.5,3.8,7.6c0.1,0,0.2,0,0.3,0l2.9-1C7.2,6.4,7,6.2,7,6c0-0.1,0,0.1,0,0V4l2,1l0.4,1.7c0,0.3,0.1,0.5,0.4,0.6l2.4,1.4
	c0.3,0.1,0.6,0,0.8-0.2c0.1-0.3,0-0.6-0.2-0.8l-1.9-1.1l-0.2-2.9c0-0.3-0.2-0.7-0.5-0.9L7.3,1.2z"/>
<path fill="#ffffff" d="M0,6v1l9,6h4v-1H9L0,6z"/>
<path fill="#ffffff" d="M12.5,3.3c0.7,0,1.2,0.5,1.2,1.2s-0.5,1.2-1.2,1.2s-1.2-0.5-1.2-1.2S11.8,3.3,12.5,3.3z"/>
</svg>
