<?xml version="1.0" encoding="utf-8"?>
<!-- Generator: Adobe Illustrator 18.1.1, SVG Export Plug-In . SVG Version: 6.00 Build 0)  -->
<svg version="1.1" id="Icons" xmlns="http://www.w3.org/2000/svg" xmlns:xlink="http://www.w3.org/1999/xlink" x="0px" y="0px"
	 viewBox="0 0 32 32" enable-background="new 0 0 32 32" xml:space="preserve">
<g opacity="0.5">
	<polygon points="2,14 2,13 28,29 29,29 29,28 30,28 30,29 30,30 28,30 	"/>
	<path d="M31.4,18.6L26.9,16L26,9.3c-0.1-0.8-0.1-1.5-0.8-2l-6.4-3.8v0c-1.5-1-3.6-0.6-4.6,0.9c-0.6,0.8-0.7,1.9-0.4,2.7l1.7,5.7
		l-5.3,1.7c-0.1,0.1-0.3,0.3-0.5,0.5c-0.1,0.2-0.3,0.5-0.4,0.7l3,1.9l1.1-0.3l5.2-1.7c0.5-0.2,1.1-0.7,1.2-1.2
		c0-0.3,0.1-0.6,0.1-0.8l-1.1-3.9l4.3,2.6l0.5,3.8c0,0.7,0.3,1.1,0.8,1.4l5.7,3.3c0.6,0.3,1.2,0,1.7-0.5C32,20.3,32,19,31.4,18.6z"
		/>
	<circle cx="29.5" cy="9.5" r="2.5"/>
</g>
<g opacity="0.75">
	<polygon points="1,13 1,12 27,28 28,28 28,27 29,27 29,28 29,29 27,29 	"/>
	<path d="M30.4,17.6L25.9,15L25,8.3c-0.1-0.8-0.1-1.5-0.8-2l-6.4-3.8v0c-1.5-1-3.6-0.6-4.6,0.9c-0.6,0.8-0.7,1.9-0.4,2.7l1.7,5.7
		l-5.3,1.7c-0.1,0.1-0.3,0.3-0.5,0.5c-0.1,0.2-0.3,0.5-0.4,0.7l3,1.9l1.1-0.3l5.2-1.7c0.5-0.2,1.1-0.7,1.2-1.2
		c0-0.3,0.1-0.6,0.1-0.8l-1.1-3.9l4.3,2.6l0.5,3.8c0,0.7,0.3,1.1,0.8,1.4l5.7,3.3c0.6,0.3,1.2,0,1.7-0.5C31,19.3,31,18,30.4,17.6z"
		/>
	<circle cx="28.5" cy="8.5" r="2.5"/>
</g>
<g>
	<polygon fill="#FFFFFF" points="0,12 0,11 26,27 27,27 27,26 28,26 28,27 28,28 26,28 	"/>
	<path fill="#FFFFFF" d="M29.4,16.6L24.9,14L24,7.3c-0.1-0.8-0.1-1.5-0.8-2l-6.4-3.8v0c-1.5-1-3.6-0.6-4.6,0.9
		c-0.6,0.8-0.7,1.9-0.4,2.7l1.7,5.7l-5.3,1.7c-0.1,0.1-0.3,0.3-0.5,0.5c-0.1,0.2-0.3,0.5-0.4,0.7l3,1.9l1.1-0.3l5.2-1.7
		c0.5-0.2,1.1-0.7,1.2-1.2c0-0.3,0.1-0.6,0.1-0.8l-1.1-3.9l4.3,2.6l0.5,3.8c0,0.7,0.3,1.1,0.8,1.4l5.7,3.3c0.6,0.3,1.2,0,1.7-0.5
		C30,18.3,30,17,29.4,16.6z"/>
	<circle fill="#FFFFFF" cx="27.5" cy="7.5" r="2.5"/>
</g>
</svg>
