<?xml version="1.0" encoding="utf-8"?>
<!-- Generator: Adobe Illustrator 20.0.0, SVG Export Plug-In . SVG Version: 6.00 Build 0)  -->
<svg version="1.1" id="Icons" xmlns="http://www.w3.org/2000/svg" xmlns:xlink="http://www.w3.org/1999/xlink" x="0px" y="0px"
	 width="14px" height="14px" viewBox="0 0 14 14" style="enable-background:new 0 0 14 14;" xml:space="preserve">
<g>
	<path fill="#FFFFFF" d="M7.3,1.2C6.6,0.8,5.7,1,5.3,1.6C5,2,5,2.5,5.1,2.8l0.8,2.5L3.6,6C3.3,6.1,3,6.4,3,6.7C2.9,7.2,3.3,7.5,3.8,7.6
		c0.1,0,0.2,0,0.3,0l2.9-1C7.2,6.4,7,6.2,7,6c0-0.1,0,0.1,0,0V4l2,1l0.4,1.7c0,0.3,0.1,0.5,0.4,0.6l2.4,1.4c0.3,0.1,0.6,0,0.8-0.2
		c0.1-0.3,0-0.6-0.2-0.8l-1.9-1.1l-0.2-2.9c0-0.3-0.2-0.7-0.5-0.9L7.3,1.2z"/>
	<polygon fill="#FFFFFF" points="0,6 0,7 9,13 13,13 13,12 9,12 	"/>
	<rect fill="#FFFFFF" x="12" y="3" width="2" height="2"/>
</g>
</svg>
