<?xml version="1.0" encoding="utf-8"?>
<!-- Generator: Adobe Illustrator 20.0.0, SVG Export Plug-In . SVG Version: 6.00 Build 0)  -->
<svg version="1.1" id="Icons" xmlns="http://www.w3.org/2000/svg" xmlns:xlink="http://www.w3.org/1999/xlink" x="0px" y="0px"
	 width="22px" height="22px" viewBox="0 0 22 22" style="enable-background:new 0 0 22 22;" xml:space="preserve">
<path fill="#FFFFFF" d="M12.3,0.4C11.2-0.3,9.7,0,8.9,1.1c-0.4,0.6-0.5,1.4-0.3,2l1.3,4.2L6,8.5C5.5,8.7,5.2,9.2,5.1,9.7C5,10.5,5.6,10.9,6.4,11
	c0.2,0,0.3,0,0.5,0l5.3-1.6C12.6,9.2,13,8.8,13,8.5c0-0.2,0.1-0.4,0.1-0.6L12.3,5l3.2,1.9l0.4,2.8c0,0.5,0.3,0.8,0.6,1L20,13
	c0.5,0.2,1.6,0.2,1.9-0.3s0.1-1-0.4-1.3L18,9.5V7h-1V5h1c-0.4-0.8-0.5-1.5-1-1.8L12.3,0.4L12.3,0.4z"/>
<polygon fill="#FFFFFF" points="0,9 19,20 21,20 21,19 22,19 22,20 21,21 19,21 0,10 "/>
<circle fill="#FFFFFF" cx="20" cy="6" r="2"/>
</svg>
