<?xml version="1.0" encoding="utf-8"?>
<!-- Generator: Adobe Illustrator 20.0.0, SVG Export Plug-In . SVG Version: 6.00 Build 0)  -->
<svg version="1.1" id="Icons" xmlns="http://www.w3.org/2000/svg" xmlns:xlink="http://www.w3.org/1999/xlink" x="0px" y="0px"
	 width="30px" height="30px" viewBox="0 0 30 30" style="enable-background:new 0 0 30 30;" xml:space="preserve">
<g>
	<polygon fill="#231F20" points="0,12 0,11 26,27 27,27 27,26 28,26 28,27 28,28 26,28 	"/>
	<path fill="#231F20" d="M29.4,16.6L24.9,14L24,7.3c-0.1-0.8-0.1-1.5-0.8-2l-6.4-3.8l0,0c-1.5-1-3.6-0.6-4.6,0.9c-0.6,0.8-0.7,1.9-0.4,2.7l1.7,5.7
		l-5.3,1.7c-0.1,0.1-0.3,0.3-0.5,0.5c-0.1,0.2-0.3,0.5-0.4,0.7l3,1.9l1.1-0.3l5.2-1.7c0.5-0.2,1.1-0.7,1.2-1.2
		c0-0.3,0.1-0.6,0.1-0.8l-1.1-3.9l4.3,2.6l0.5,3.8c0,0.7,0.3,1.1,0.8,1.4l5.7,3.3c0.6,0.3,1.2,0,1.7-0.5C30,18.3,30,17,29.4,16.6z"
		/>
	<circle fill="#231F20" cx="27.5" cy="7.5" r="2.5"/>
</g>
</svg>
