<?xml version="1.0" encoding="utf-8"?>
<!-- Generator: Adobe Illustrator 20.0.0, SVG Export Plug-In . SVG Version: 6.00 Build 0)  -->
<svg version="1.1" id="Icons" xmlns="http://www.w3.org/2000/svg" xmlns:xlink="http://www.w3.org/1999/xlink" x="0px" y="0px"
	 width="22px" height="22px" viewBox="0 0 22 22" style="enable-background:new 0 0 22 22;" xml:space="preserve">
<polygon fill="#231F20" points="20,0 18,0 15,20 7,20 4,0 2,0 5.5,22 16.5,22 "/>
<path fill="#231F20" d="M15.9,2c-0.4,0.4-0.9,1-1.4,1c-0.7,0-1.3-0.8-1.7-1.4C12.5,2.2,11.7,3,11,3c-0.7,0-1.2-0.8-1.5-1.4C9.1,2.2,8.7,3,8,3
	C7.5,3,6.8,2.3,6.4,2L6.2,0.1C6.5,0.6,7.3,1,8,1c0.7,0,1.1-0.4,1.5-1c0.4,0.5,0.8,1,1.5,1c0.7,0,1.5-0.4,1.8-1c0.4,0.5,1,1,1.7,1
	c0.7,0,1.3-0.5,1.7-1L15.9,2z"/>
</svg>
