<?xml version="1.0" encoding="utf-8"?>
<!-- Generator: Adobe Illustrator 21.1.0, SVG Export Plug-In . SVG Version: 6.00 Build 0)  -->
<svg version="1.1" id="Icons" xmlns="http://www.w3.org/2000/svg" xmlns:xlink="http://www.w3.org/1999/xlink" x="0px" y="0px"
	 width="30px" height="30px" viewBox="0 0 30 30" enable-background="new 0 0 30 30" xml:space="preserve">
<polygon fill="#231F20" points="2.5,0 5.5,0 9.5,27 20.5,27 24.5,0 27.5,0 22.5,30 7.5,30 "/>
<path fill="#231F20" d="M22.1,4c-0.5,0.6-1.3,0.9-2.1,1c-1-0.1-2-0.6-2.5-1.5C16.9,4.4,16,4.9,14.9,5c-1-0.1-2-0.6-2.5-1.5
	C11.9,4.4,10.9,5,9.9,5c-0.8-0.1-1.5-0.4-2-1L7.5,1.2C8,2,8.9,2.6,9.9,2.7C11,2.6,11.9,2,12.4,1c0.5,0.9,1.4,1.6,2.5,1.7
	c1.1-0.1,2-0.8,2.5-1.7c0.5,0.9,1.4,1.6,2.5,1.7c1.1-0.1,2-0.8,2.5-1.7L22.1,4z"/>
</svg>
