<?xml version="1.0" encoding="utf-8"?>
<!-- Generator: Adobe Illustrator 20.0.0, SVG Export Plug-In . SVG Version: 6.00 Build 0)  -->
<svg version="1.1" id="Icons" xmlns="http://www.w3.org/2000/svg" xmlns:xlink="http://www.w3.org/1999/xlink" x="0px" y="0px"
	 width="14px" height="14px" viewBox="0 0 14 14" style="enable-background:new 0 0 14 14;" xml:space="preserve">
<polygon fill="#FFFFFF" points="2,0 3,0 3,2 5,13 10,13 12,2 12,0 13,0 11,14 4,14 "/>
<path fill="#FFFFFF" d="M4,0c0,0,0.9,1,1.9,1S7,1,7.5,0C8,1,8,1,9,1s2-1,2-1v2c0,0-1,1-2,1S7.8,2.3,7.5,2C7.2,2.3,7,3,6,3S4,2,4,2V0z"/>
</svg>
