<?xml version="1.0" encoding="utf-8"?>
<!-- Generator: Adobe Illustrator 22.1.0, SVG Export Plug-In . SVG Version: 6.00 Build 0)  -->
<svg version="1.1" id="Layer_1" xmlns="http://www.w3.org/2000/svg" xmlns:xlink="http://www.w3.org/1999/xlink" x="0px" y="0px"
	 width="30px" height="30px" viewBox="0 0 30 30" enable-background="new 0 0 30 30" xml:space="preserve">
<polygon fill="#FFFFFF" points="17,6 15,6 13,3 15,0 17,0 15,3 "/>
<polygon fill="#FFFFFF" points="13,30 15,30 17,27 15,24 13,24 15,27 "/>
<circle fill="#FFFFFF" cx="3" cy="9" r="1.5"/>
<circle fill="#FFFFFF" cx="3" cy="15" r="1.5"/>
<circle fill="#FFFFFF" cx="3" cy="21" r="1.5"/>
<circle fill="#FFFFFF" cx="3" cy="27" r="1.5"/>
<circle fill="#FFFFFF" cx="9" cy="27" r="1.5"/>
<circle fill="#FFFFFF" cx="21" cy="27" r="1.5"/>
<circle fill="#FFFFFF" cx="27" cy="27" r="1.5"/>
<circle fill="#FFFFFF" cx="3" cy="3" r="1.5"/>
<circle fill="#FFFFFF" cx="9" cy="3" r="1.5"/>
<circle fill="#FFFFFF" cx="21" cy="3" r="1.5"/>
<circle fill="#FFFFFF" cx="27" cy="3" r="1.5"/>
<circle fill="#FFFFFF" cx="27" cy="9" r="1.5"/>
<circle fill="#FFFFFF" cx="27" cy="15" r="1.5"/>
<circle fill="#FFFFFF" cx="27" cy="21" r="1.5"/>
<path fill="#FFFFFF" d="M22.4,12.9L20.7,8c-0.2-0.6-0.8-1-1.5-1h-8.5c-0.7,0-1.2,0.4-1.5,1l-1.7,4.9C6.7,13.1,6,14,6,15v4h1v2.1
	c0,0.8,0.7,1.4,1.5,1.4c0.8,0,1.5-0.6,1.5-1.4V19h10v2.1c0,0.8,0.7,1.4,1.5,1.4c0.8,0,1.5-0.6,1.5-1.4V19h1v-4
	C24,14,23.3,13.1,22.4,12.9z M10.5,8.3C10.5,8.1,10.7,8,10.9,8h8.2c0.2,0,0.4,0.1,0.4,0.3L21,13H9L10.5,8.3z M9,17.2
	c-0.7,0-1.2-0.6-1.2-1.2s0.6-1.2,1.2-1.2s1.2,0.6,1.2,1.2S9.7,17.2,9,17.2z M21,17.2c-0.7,0-1.2-0.6-1.2-1.2s0.6-1.2,1.2-1.2
	s1.2,0.6,1.2,1.2S21.7,17.2,21,17.2z"/>
</svg>
