<?xml version="1.0" encoding="utf-8"?>
<!-- Generator: Adobe Illustrator 22.1.0, SVG Export Plug-In . SVG Version: 6.00 Build 0)  -->
<svg version="1.1" id="Layer_1" xmlns="http://www.w3.org/2000/svg" xmlns:xlink="http://www.w3.org/1999/xlink" x="0px" y="0px"
	 width="14px" height="14px" viewBox="0 0 14 14" enable-background="new 0 0 14 14" xml:space="preserve">
<circle cx="1.5" cy="1.5" r="0.5"/>
<circle cx="3.5" cy="1.5" r="0.5"/>
<circle cx="9.5" cy="1.5" r="0.5"/>
<circle cx="11.5" cy="1.5" r="0.5"/>
<circle cx="12.5" cy="2.5" r="0.5"/>
<circle cx="12.5" cy="4.5" r="0.5"/>
<circle cx="12.5" cy="6.5" r="0.5"/>
<circle cx="12.5" cy="8.5" r="0.5"/>
<circle cx="12.5" cy="10.5" r="0.5"/>
<circle cx="1.5" cy="3.5" r="0.5"/>
<circle cx="1.5" cy="5.5" r="0.5"/>
<circle cx="1.5" cy="7.5" r="0.5"/>
<circle cx="1.5" cy="9.5" r="0.5"/>
<circle cx="1.5" cy="11.5" r="0.5"/>
<circle cx="2.5" cy="12.5" r="0.5"/>
<circle cx="4.5" cy="12.5" r="0.5"/>
<circle cx="10.5" cy="12.5" r="0.5"/>
<circle cx="12.5" cy="12.5" r="0.5"/>
<polygon points="8,3 7,3 6,1.5 7,0 8,0 7,1.5 "/>
<polygon points="6,14 7,14 8,12.5 7,11 6,11 7,12.5 "/>
<path d="M10,4H4L3,7v1v1h1v0.5C4,9.8,4.2,10,4.5,10S5,9.8,5,9.5V9h4v0.5C9,9.8,9.2,10,9.5,10S10,9.8,10,9.5V9h1V8V7L10,4z M4.7,5
	h4.6l0.7,2H4.1L4.7,5z"/>
</svg>
