<?xml version="1.0" encoding="utf-8"?>
<!-- Generator: Adobe Illustrator 27.9.1, SVG Export Plug-In . SVG Version: 6.00 Build 0)  -->
<svg version="1.1" id="Layer_1" xmlns="http://www.w3.org/2000/svg" xmlns:xlink="http://www.w3.org/1999/xlink" x="0px" y="0px"
	 viewBox="0 0 22 22" enable-background="new 0 0 22 22" xml:space="preserve">
<path fill="#FFFFFF" d="M4.4,20C6.5,20,8,18.4,8,16.4s-1.6-3.8-3.6-3.8s-3.6,1.6-3.6,3.6S2.5,20,4.4,20 M0,16.2
	c0-2.5,2.1-4.4,4.4-4.4c2.5,0,4.4,2.1,4.4,4.4c0,2.5-2.1,4.4-4.4,4.4C2.1,20.8,0,18.8,0,16.2"/>
<path fill="#FFFFFF" d="M17.7,20c2.1,0,3.6-1.6,3.6-3.6s-1.6-3.6-3.6-3.6s-3.6,1.6-3.6,3.6C14.1,18.3,15.7,20,17.7,20 M13.1,16.4
	c0-2.5,2.1-4.4,4.4-4.4c2.5,0,4.4,2.1,4.4,4.4c0,2.5-2.1,4.4-4.4,4.4S13.1,18.8,13.1,16.4"/>
<path fill="#FFFFFF" d="M13.1,5.5c0.9,0,1.7-0.8,1.7-1.7S14.1,2,13.1,2c-0.9,0-1.7,0.8-1.7,1.7C11.6,4.7,12.3,5.5,13.1,5.5"/>
<path fill="#FFFFFF" d="M13.3,9.4c-0.3,0-0.5,0-0.8-0.3l-0.9-1.7L9.2,9.6l2.1,1.1c0.8,0.5,0.8,1.1,0.8,1.1v4.7
	c0,0.5-0.5,0.9-0.9,0.9s-0.9-0.5-0.9-0.9v-3.8l-3.6-1.9c-0.7-0.3-1-0.7-1-1.2C5.7,9.3,5.9,9,6,8.7L9.7,5c0.5-0.5,1.1-0.3,1.1-0.3
	c0.8,0,1.1,0.6,1.1,0.6l1.9,2.8h2.8c0.9,0,0.9,1.3,0,1.3H13.3z"/>
<path fill="#FFFFFF" d="M0,3.9h2.1l0,0C2.2,5,3,5.6,4,5.6h0.6V4.8h1.6c0.2,0,0.3-0.2,0.3-0.3S6.3,4.2,6.2,4.2H4.6V2.8h1.6
	c0.2,0,0.3-0.2,0.3-0.3S6.3,2.1,6.2,2.1H4.6V1.2H4C3,1.2,2.2,2,2.1,2.9l0,0H0V3.9z"/>
</svg>
