<?xml version="1.0" encoding="utf-8"?>
<!-- Generator: Adobe Illustrator 27.9.1, SVG Export Plug-In . SVG Version: 6.00 Build 0)  -->
<svg version="1.1" id="Layer_1" xmlns="http://www.w3.org/2000/svg" xmlns:xlink="http://www.w3.org/1999/xlink" x="0px" y="0px"
	 viewBox="0 0 14 14" style="enable-background:new 0 0 14 14;" xml:space="preserve">
<style type="text/css">
	.st0{fill:#231F20;}
</style>
<path class="st0" d="M8.3,4.8c0.6,0,1.1-0.5,1.1-1.1S8.9,2.6,8.3,2.6S7.2,3.1,7.2,3.7C7.3,4.3,7.8,4.8,8.3,4.8"/>
<path class="st0" d="M8.4,7.3c-0.2,0-0.3,0-0.5-0.2L7.3,6L5.8,7.4l1.3,0.7c0.5,0.3,0.5,0.7,0.5,0.7v3c0,0.3-0.3,0.6-0.6,0.6
	c-0.3,0-0.6-0.3-0.6-0.6V9.4L4.1,8.2C3.8,8,3.6,7.7,3.6,7.4c0-0.2,0.1-0.4,0.2-0.6l2.3-2.3c0.3-0.3,0.7-0.2,0.7-0.2
	c0.5,0,0.7,0.4,0.7,0.4l1.2,1.8h1.8c0.6,0,0.6,0.8,0,0.8H8.4z"/>
<g>
	<path class="st0" d="M2.6,9.6c1,0,1.8,0.8,1.8,1.8s-0.8,1.8-1.8,1.8s-1.7-0.9-1.7-1.8S1.7,9.6,2.6,9.6 M2.6,8.7
		C1.1,8.7,0,9.9,0,11.4S1.1,14,2.6,14s2.6-1.1,2.6-2.6S4.1,8.7,2.6,8.7L2.6,8.7z"/>
</g>
<g>
	<path class="st0" d="M11.4,9.6c1,0,1.8,0.8,1.8,1.8s-0.8,1.8-1.8,1.8s-1.8-0.9-1.8-1.8S10.4,9.6,11.4,9.6 M11.4,8.7
		c-1.5,0-2.6,1.1-2.6,2.6s1.1,2.6,2.6,2.6s2.6-1.1,2.6-2.6S12.9,8.7,11.4,8.7L11.4,8.7z"/>
</g>
<path class="st0" d="M0,2.7h1.1l0,0C1.2,3.8,2,4.4,3,4.4h0.6V3.6h1.6c0.2,0,0.3-0.2,0.3-0.3S5.3,3,5.2,3H3.6V1.6h1.6
	c0.2,0,0.3-0.2,0.3-0.3S5.3,0.9,5.2,0.9H3.6V0H3C2,0,1.2,0.8,1.1,1.7l0,0H0V2.7z"/>
</svg>
