<?xml version="1.0" encoding="utf-8"?>
<!-- Generator: Adobe Illustrator 22.0.1, SVG Export Plug-In . SVG Version: 6.00 Build 0)  -->
<svg version="1.1" id="Layer_1" xmlns="http://www.w3.org/2000/svg" xmlns:xlink="http://www.w3.org/1999/xlink" x="0px" y="0px"
	 width="14px" height="14px" viewBox="0 0 14 14" enable-background="new 0 0 14 14" xml:space="preserve">
<path fill="#FFFFFF" d="M9.7,4V0.7C9.7,0.3,9.4,0,8.9,0C8.5,0,8.2,0.3,8.2,0.7V4H5.6V0.7C5.6,0.3,5.3,0,4.9,0C4.4,0,4.1,0.3,4.1,0.7V4H2.3
	c0,0,0,0.9,0,1.4c0,2,1.6,3.6,3.7,4l0.2,0V14h1.9V9.5l0.1,0c2.1-0.4,3.8-2,3.8-4c0-0.5,0-1.4,0-1.4H9.7z"/>
</svg>
