<?xml version="1.0" encoding="utf-8"?>
<!-- Generator: Adobe Illustrator 22.0.1, SVG Export Plug-In . SVG Version: 6.00 Build 0)  -->
<svg version="1.1" id="Layer_1" xmlns="http://www.w3.org/2000/svg" xmlns:xlink="http://www.w3.org/1999/xlink" x="0px" y="0px"
	 width="22px" height="22px" viewBox="0 0 22 22" style="enable-background:new 0 0 22 22;" xml:space="preserve">
<path fill="#FFFFFF" d="M20,4V1.9c0-0.3-0.2-0.5-0.5-0.5c-0.3,0-0.5,0.2-0.5,0.5V4h-2V1.9c0-0.3-0.2-0.5-0.5-0.5c-0.3,0-0.5,0.2-0.5,0.5V4h-1
	c0,0,0,0.7,0,1c0,1.3,1,2.5,2.4,2.8h0.1V8l0.5,4.9v1.7l1,5.1c0,0.8-0.9,1.3-1.5,1.3C17,21,16,20.5,16,20v-8.9C16,10,15.4,9,14.4,9
	H12V1h-1V0H3v1H2v21h10V10.4h2.4c0.4,0,0.6,0.3,0.6,0.7V20c0,1.2,1.2,2,2.5,2c1.2,0,2.5-0.8,2.5-2c0-0.3-1-5.6-1-5.6v-1.5L18.5,8
	l0-0.2C19.9,7.5,21,6.5,21,5.1C21,4.8,21,4,21,4H20z M10,13l-6,6l2-4H4l3-6h3l-2,4H10z M10.5,5.8L9.6,6.6H4.4L3.5,5.8V2.2l0.9-0.9
	h5.2l0.9,0.9V5.8z"/>
</svg>
