<?xml version="1.0" encoding="utf-8"?>
<!-- Generator: Adobe Illustrator 22.0.1, SVG Export Plug-In . SVG Version: 6.00 Build 0)  -->
<svg version="1.1" id="Layer_1" xmlns="http://www.w3.org/2000/svg" xmlns:xlink="http://www.w3.org/1999/xlink" x="0px" y="0px"
	 width="30px" height="30px" viewBox="0 0 30 30" style="enable-background:new 0 0 30 30;" xml:space="preserve">
<path d="M27,6V2.8c-0.1-0.4-0.1-0.6-0.5-0.6S26,2.5,26,2.8V6h-3V2.8c0-0.4-0.1-0.6-0.5-0.6c-0.4,0-0.5,0.3-0.5,0.6V6h-2
	c0,0,0,0.5,0,1c0,1.9,1.4,3.6,3.4,4h0.1h0.1l-0.2,6.5l0.3,2.3L25,27c0,1.1-1,1.4-1.8,1.4c-0.7,0-1.6-0.6-1.6-1.4V15
	c0-1.5-1.2-2.6-2.6-2.6h-2V1h-1V0h-1H6H5v1H4v1v28h13V14h2c0.5,0,1,0.5,1,1v12c0,1.6,1.4,3,3.2,3c1.6,0,3.8-1.3,3.8-3
	c0-0.4-1.7-7.5-1.7-7.5l-0.3-2V11h0.2h0.1c2-0.4,3.7-2.1,3.7-4c0-0.5,0-1,0-1H27z M14,18l-7,7l2-5H6l4-7h4l-3,5H14z M15,9l-1,1H7
	L6,9V3l1-1h7l1,1V9z"/>
</svg>
