<?xml version="1.0" encoding="utf-8"?>
<!-- Generator: Adobe Illustrator 22.0.1, SVG Export Plug-In . SVG Version: 6.00 Build 0)  -->
<svg version="1.1" id="Layer_1" xmlns="http://www.w3.org/2000/svg" xmlns:xlink="http://www.w3.org/1999/xlink" x="0px" y="0px"
	 width="14px" height="14px" viewBox="0 0 14 14" style="enable-background:new 0 0 14 14;" xml:space="preserve">
<path d="M11.6,4C12.4,3.9,13,3.3,13,2.5C13,2.3,13,2,13,2h-1.3V0.8c0-0.1-0.1-0.2-0.3-0.2c-0.2,0-0.3,0.1-0.3,0.2V2H9.8V0.8
	c0-0.1-0.1-0.2-0.3-0.2c-0.2,0-0.3,0.1-0.3,0.2V2H8c0,0,0,0.3,0,0.5C8,3.3,8.6,3.8,9.4,4h0H10c0,2,1,2,1,3c0,0.2,0.1,0.4,0.1,0.5
	L12,11v1c0,0.7-0.5,1-1,1s-1-0.5-1-1V8c0-0.9-0.8-2-1.7-2H7V1L6,0H2L1,1v13h6V7h1c0.3,0,1,0.7,1,1v4c0,1,0.9,2,2,2c1,0,2-0.9,2-2
	c0-0.3,0-1,0-1l-1-4c0-1-1-2-1-3H11.6L11.6,4z M6,8l-4,4l1-3H2l2-3h2L5,8H6z M6,5H2V1h4V5z"/>
</svg>
