<?xml version="1.0" encoding="utf-8"?>
<!-- Generator: Adobe Illustrator 22.0.1, SVG Export Plug-In . SVG Version: 6.00 Build 0)  -->
<svg version="1.1" id="Layer_1" xmlns="http://www.w3.org/2000/svg" xmlns:xlink="http://www.w3.org/1999/xlink" x="0px" y="0px"
	 width="30px" height="30px" viewBox="0 0 30 30" enable-background="new 0 0 30 30" xml:space="preserve">
<path fill="#FFFFFF" d="M21,8.6V1.5C21,0.7,20.2,0,19.3,0c-0.9,0-1.6,0.7-1.6,1.5v7.1h-5.4V1.5c0-0.8-0.7-1.5-1.6-1.5C9.8,0,9,0.7,9,1.5v7.1H4.8
	c0,0,0,2,0,3c0,4.3,3.4,7.7,7.8,8.7l0.4,0.1V30h4v-9.7l0.1,0c4.6-0.9,8.1-4.3,8.1-8.7c0-1.1,0-3,0-3H21z"/>
</svg>
