<?xml version="1.0" encoding="utf-8"?>
<!-- Generator: Adobe Illustrator 22.0.1, SVG Export Plug-In . SVG Version: 6.00 Build 0)  -->
<svg version="1.1" id="Layer_1" xmlns="http://www.w3.org/2000/svg" xmlns:xlink="http://www.w3.org/1999/xlink" x="0px" y="0px"
	 width="22px" height="22px" viewBox="0 0 22 22" enable-background="new 0 0 22 22" xml:space="preserve">
<path d="M16,6.3V1.1C16,0.5,15.2,0,14.5,0C13.8,0,13,0.5,13,1.1v5.2H8.8V1.1C8.8,0.5,8.2,0,7.5,0C6.8,0,6,0.5,6,1.1v5.2H3.5
	c0,0,0,1.4,0,2.2c0,3.1,2.5,5.7,5.7,6.4l0.3,0V22h2.9v-7.1l0.1,0c3.4-0.7,5.9-3.2,5.9-6.4c0-0.8,0-2.2,0-2.2H16z"/>
</svg>
