<?xml version="1.0" encoding="utf-8"?>
<!-- Generator: Adobe Illustrator 21.1.0, SVG Export Plug-In . SVG Version: 6.00 Build 0)  -->
<svg version="1.1" id="Layer_1" xmlns="http://www.w3.org/2000/svg" xmlns:xlink="http://www.w3.org/1999/xlink" x="0px" y="0px"
	 width="30px" height="30px" viewBox="0 0 30 30" enable-background="new 0 0 30 30" xml:space="preserve">
<path fill="#FFFFFF" d="M24,14v14H6V14H24 M24,12H6c-1.1,0-2,0.9-2,2v14c0,1.1,0.9,2,2,2h18c1.1,0,2-0.9,2-2V14C26,12.9,25.1,12,24,12L24,12z"/>
<g>
	<g>
		<path fill="#FFFFFF" d="M19.2,1.3c0-1.8,2.5-1.8,2.5,0v5.3L23.1,5c0.9-1,2.6,0.4,1.6,1.6l-3.3,3.9c-0.5,0.5-1.2,0.5-1.7,0l-3.3-3.9
			C15.4,5.4,17.1,4,18,5l1.4,1.7L19.2,1.3z"/>
	</g>
	<g>
		<path fill="#FFFFFF" d="M8.2,9.6c0,1.8,2.5,1.8,2.5,0V4.3L12.1,6c0.9,1,2.6-0.4,1.6-1.6l-3.3-3.9C9.8-0.1,9.1-0.1,8.6,0.4l-3.3,4
			C4.3,5.5,5.9,7,6.9,5.9l1.4-1.7L8.2,9.6z"/>
	</g>
</g>
<g>
	<g>
		<path fill="#FFFFFF" d="M15,17.8c0.5,0,0.9-0.4,0.9-0.8c0-0.5-0.4-0.8-0.9-0.8s-0.8,0.4-0.8,0.8C14.1,17.5,14.5,17.8,15,17.8z"/>
	</g>
</g>
<path fill="#FFFFFF" d="M16,18h-2c-0.5,0-1,0.5-1,1v2c0,0.5,0.5,1,1,1l0,0v4c0,0.5,0.5,1,1,1l0,0c0.5,0,1-0.5,1-1v-4l0,0c0.5,0,1-0.5,1-1v-2
	C17,18.5,16.5,18,16,18z"/>
<g>
	<g>
		<path fill="#FFFFFF" d="M10,17.8c0.5,0,0.9-0.4,0.9-0.8c0-0.5-0.4-0.8-0.9-0.8S9.2,16.6,9.2,17C9.1,17.5,9.5,17.8,10,17.8z"/>
	</g>
</g>
<path fill="#FFFFFF" d="M11,18H9c-0.5,0-1,0.5-1,1v2c0,0.5,0.5,1,1,1l0,0v4c0,0.5,0.5,1,1,1l0,0c0.5,0,1-0.5,1-1v-4l0,0c0.5,0,1-0.5,1-1v-2
	C12,18.5,11.5,18,11,18z"/>
<g>
	<g>
		<path fill="#FFFFFF" d="M20,17.8c0.5,0,0.9-0.4,0.9-0.8c0-0.5-0.4-0.8-0.9-0.8s-0.8,0.4-0.8,0.8C19.1,17.5,19.5,17.8,20,17.8z"/>
	</g>
</g>
<path fill="#FFFFFF" d="M21,18h-2c-0.5,0-1,0.5-1,1v2c0,0.5,0.5,1,1,1l0,0v4c0,0.5,0.5,1,1,1l0,0c0.5,0,1-0.5,1-1v-4l0,0c0.5,0,1-0.5,1-1v-2
	C22,18.5,21.5,18,21,18z"/>
</svg>
