<?xml version="1.0" encoding="utf-8"?>
<!-- Generator: Adobe Illustrator 21.1.0, SVG Export Plug-In . SVG Version: 6.00 Build 0)  -->
<svg version="1.1" id="Layer_1" xmlns="http://www.w3.org/2000/svg" xmlns:xlink="http://www.w3.org/1999/xlink" x="0px" y="0px"
	 width="14px" height="14px" viewBox="0 0 14 14" enable-background="new 0 0 14 14" xml:space="preserve">
<path fill="#FFFFFF" d="M11,7v6H3V7H11 M11,6H3C2.4,6,2,6.5,2,7v6c0,0.5,0.4,1,1,1h8c0.6,0,1-0.5,1-1V7C12,6.5,11.6,6,11,6L11,6z"/>
<polygon fill="#FFFFFF" points="7,3 4.5,0 2,3 4,3 4,5 5,5 5,3 "/>
<polygon fill="#FFFFFF" points="10,2 10,0 9,0 9,2 7,2 9.5,5 12,2 "/>
<path fill="#FFFFFF" d="M7,13L7,13c-0.6,0-1-0.4-1-1v-2c0-0.5,0.4-1,1-1h0c0.5,0,1,0.4,1,1v2C8,12.6,7.6,13,7,13z"/>
<polygon fill="#FFFFFF" points="9,11 5,11 5,10 6,9 8,9 9,10 "/>
<circle fill="#FFFFFF" cx="7" cy="8" r="0.8"/>
</svg>
