<?xml version="1.0" encoding="utf-8"?>
<!-- Generator: Adobe Illustrator 21.1.0, SVG Export Plug-In . SVG Version: 6.00 Build 0)  -->
<svg version="1.1" id="Layer_1" xmlns="http://www.w3.org/2000/svg" xmlns:xlink="http://www.w3.org/1999/xlink" x="0px" y="0px"
	 width="22px" height="22px" viewBox="0 0 22 22" enable-background="new 0 0 22 22" xml:space="preserve">
<path fill="#FFFFFF" d="M18,10v11H4V10H18 M18,9H4c-0.5,0-1,0.5-1,1v11c0,0.5,0.5,1,1,1h14c0.5,0,1-0.5,1-1V10C19,9.5,18.5,9,18,9L18,9z"/>
<g>
	<g>
		<path fill="#FFFFFF" d="M14.1,1c0-1.3,1.8-1.3,1.8,0v3.9l1-1.2C17.6,3,18.8,4,18.1,4.9l-2.4,2.9c-0.4,0.4-0.9,0.4-1.2,0L12,4.9
			C11.3,4,12.5,3,13.2,3.7l1,1.2L14.1,1z"/>
	</g>
	<g>
		<path fill="#FFFFFF" d="M6,7.1c0,1.3,1.8,1.3,1.8,0V3.2l1,1.2c0.7,0.7,1.9-0.3,1.2-1.2L7.6,0.4C7.2,0,6.7,0,6.3,0.3L3.9,3.3
			C3.2,4.1,4.3,5.2,5.1,4.4l1-1.2L6,7.1z"/>
	</g>
</g>
<path fill="#FFFFFF" d="M8,13H6c-0.4,0-0.5,0.6-0.5,1v1c0,0.4,0.1,1,0.5,1v3c0,1,0.6,1,1,1l0,0c0.4,0,1,0,1-1v-3c0.4,0,0.5-0.6,0.5-1v-1
	C8.5,13.6,8.4,13,8,13z"/>
<circle fill="#FFFFFF" cx="7" cy="12" r="1"/>
<path fill="#FFFFFF" d="M12,13h-2c-0.4,0-0.5,0.6-0.5,1v1c0,0.4,0.1,1,0.5,1v3c0,1,0.6,1,1,1l0,0c0.4,0,1,0,1-1v-3c0.4,0,0.5-0.6,0.5-1v-1
	C12.5,13.6,12.4,13,12,13z"/>
<circle fill="#FFFFFF" cx="11" cy="12" r="1"/>
<path fill="#FFFFFF" d="M16,13h-2c-0.4,0-0.5,0.6-0.5,1v1c0,0.4,0.1,1,0.5,1v3c0,1,0.6,1,1,1l0,0c0.4,0,1,0,1-1v-3c0.4,0,0.5-0.6,0.5-1v-1
	C16.5,13.6,16.4,13,16,13z"/>
<circle fill="#FFFFFF" cx="15" cy="12" r="1"/>
</svg>
