<?xml version="1.0" encoding="utf-8"?>
<!-- Generator: Adobe Illustrator 20.0.0, SVG Export Plug-In . SVG Version: 6.00 Build 0)  -->
<svg version="1.1" id="Icons" xmlns="http://www.w3.org/2000/svg" xmlns:xlink="http://www.w3.org/1999/xlink" x="0px" y="0px"
	 width="14px" height="14px" viewBox="0 0 14 14" style="enable-background:new 0 0 14 14;" xml:space="preserve">
<g>
	<path fill="#FFFFFF" d="M5,0C4.3,0.1,2.1,1.2,2,6.8c0,6,2.3,7.2,3,7.2v-4c-0.5,0-0.7-0.5-0.8-1.7c-0.1-0.8-0.1-1.5,0-2.5C4.2,5,4.4,4,5,4V0z"/>
	<polygon fill="#FFFFFF" points="6,10 7,10 8,11 8,13 7,14 6,14 	"/>
	<polygon fill="#FFFFFF" points="6,0 7,0 8,1 8,3 7,4 6,4 	"/>
</g>
<g>
	<path fill="#FFFFFF" d="M10,12.2c0-0.6,0.5-1.1,1.1-1.1s1.1,0.5,1.1,1.1s-0.4,1.1-1.1,1.1C10.4,13.3,10,12.8,10,12.2z M10.5,9.6L10.2,1h1.7
		l-0.3,8.6H10.5z"/>
</g>
</svg>
