<?xml version="1.0" encoding="utf-8"?>
<!-- Generator: Adobe Illustrator 20.0.0, SVG Export Plug-In . SVG Version: 6.00 Build 0)  -->
<svg version="1.1" id="Icons" xmlns="http://www.w3.org/2000/svg" xmlns:xlink="http://www.w3.org/1999/xlink" x="0px" y="0px"
	 width="30px" height="30px" viewBox="0 0 30 30" style="enable-background:new 0 0 30 30;" xml:space="preserve">
<g>
	<path fill="#231F20" d="M11,0C9.6,0.2,4,2.9,4,15c0,12.7,5.6,15,7,15v-9c-1.2,0-1.7-0.4-2-3c-0.2-1.7-0.2-3.9,0-6c0.2-1.5,0.7-3,2-3V0z"/>
	<path fill="#231F20" d="M14.4,30c0.5,0,1.6-0.4,1.6-0.9l0,0V22c0-0.5-1.1-0.9-1.6-0.9H12V30H14.4L14.4,30L14.4,30z"/>
	<path fill="#231F20" d="M14.6,9C15.1,9,16,8.6,16,8.1V0.9C16,0.4,15.1,0,14.6,0H12v9H14.6L14.6,9L14.6,9z"/>
</g>
<polygon fill="#231F20" points="20.4,20.5 19,1 24,1 23.1,20.5 "/>
<circle fill="#231F20" cx="22" cy="26" r="3"/>
</svg>
