<?xml version="1.0" encoding="utf-8"?>
<!-- Generator: Adobe Illustrator 22.1.0, SVG Export Plug-In . SVG Version: 6.00 Build 0)  -->
<svg version="1.1" id="Layer_1" xmlns="http://www.w3.org/2000/svg" xmlns:xlink="http://www.w3.org/1999/xlink" x="0px" y="0px"
	 width="30px" height="30px" viewBox="0 0 30 30" enable-background="new 0 0 30 30" xml:space="preserve">
<path fill="#FFFFFF" d="M1.1,19.4C1.8,19.8,2.6,20,3.5,20c2.4,0,3.2-2.2,3.3-4.3l0,0c-0.7,1-1.5,1.4-2.7,1.4c-2.6,0-4.1-1.7-4.1-4.3
	c0-3,1.5-5,4.6-5c3.9,0,4.7,3.2,4.7,6.5c0,3.8-1.2,7.9-5.7,7.9c-1,0-2-0.2-2.9-0.5L1.1,19.4z M6.6,12.3C6.6,11,6,9.9,4.6,9.9
	c-1.3,0-1.8,1.3-1.8,2.5c0,1.4,0.6,2.6,1.9,2.6C6,15,6.6,13.7,6.6,12.3z"/>
<path fill="#FFFFFF" d="M16.1,8h2.5V22h-2.8V11.2l-2.3,1.9l-1.4-1.8L16.1,8z"/>
<path fill="#FFFFFF" d="M27.5,8H30V22h-2.8V11.2l-2.4,1.9l-1.4-1.8L27.5,8z"/>
</svg>
