<?xml version="1.0" encoding="utf-8"?>
<!-- Generator: Adobe Illustrator 20.0.0, SVG Export Plug-In . SVG Version: 6.00 Build 0)  -->
<svg version="1.1" id="Icons" xmlns="http://www.w3.org/2000/svg" xmlns:xlink="http://www.w3.org/1999/xlink" x="0px" y="0px"
	 width="22px" height="22px" viewBox="0 0 22 22" style="enable-background:new 0 0 22 22;" xml:space="preserve">
<g>
	<path fill="#231F20" d="M8,0C7,0.1,3.1,1.8,3,10.7C2.9,20,7,22,8,22v-6c-0.9,0-1.1-1.1-1.3-3c-0.1-1.3-0.2-2.4,0-4C6.8,7.9,7.1,6,8,6V0z"/>
	<polygon fill="#231F20" points="9,0 11,0 12,1 12,5 11,6 9,6 	"/>
	<polygon fill="#231F20" points="9,16 11,16 12,17 12,21 11,22 9,22 	"/>
</g>
<polygon fill="#231F20" points="15,14.9 14,1 17.6,1 16.9,14.9 "/>
<circle fill="#231F20" cx="16" cy="19" r="2"/>
</svg>
