<?xml version="1.0" encoding="utf-8"?>
<!-- Generator: Adobe Illustrator 22.1.0, SVG Export Plug-In . SVG Version: 6.00 Build 0)  -->
<svg version="1.1" id="Layer_1" xmlns="http://www.w3.org/2000/svg" xmlns:xlink="http://www.w3.org/1999/xlink" x="0px" y="0px"
	 width="14px" height="14px" viewBox="0 0 14 14" enable-background="new 0 0 14 14" xml:space="preserve">
<path d="M0.5,9.1c0.3,0.1,0.7,0.3,1.1,0.3c1.1,0,1.5-1,1.5-2l0,0C2.9,7.8,2.5,8,1.9,8C0.7,8,0,7.2,0,6c0-1.4,0.7-2.3,2.2-2.3
	c1.8,0,2.2,1.5,2.2,3c0,1.8-0.6,3.7-2.7,3.7c-0.5,0-0.9-0.1-1.4-0.2L0.5,9.1z M3.1,5.8c0-0.6-0.3-1.2-0.9-1.2
	c-0.6,0-0.9,0.6-0.9,1.2C1.3,6.4,1.6,7,2.2,7C2.8,7,3.1,6.4,3.1,5.8z"/>
<path d="M7.5,3.7h1.2v6.5H7.4v-5L6.3,6.1L5.6,5.3L7.5,3.7z"/>
<path d="M12.8,3.7H14v6.5h-1.3v-5l-1.1,0.9l-0.7-0.8L12.8,3.7z"/>
</svg>
