<?xml version="1.0" encoding="utf-8"?>
<!-- Generator: Adobe Illustrator 18.1.1, SVG Export Plug-In . SVG Version: 6.00 Build 0)  -->
<svg version="1.1" id="Icons" xmlns="http://www.w3.org/2000/svg" xmlns:xlink="http://www.w3.org/1999/xlink" x="0px" y="0px"
	 viewBox="0 0 24 24" enable-background="new 0 0 24 24" xml:space="preserve">
<g opacity="0.1">
	<path d="M13,2c-1,0.1-4.9,1.8-5,10.7C7.9,22,12,24,13,24v-6c-0.9,0-1.1-1.1-1.3-3c-0.1-1.3-0.2-2.4,0-4c0.1-1.1,0.4-3,1.3-3V2z"/>
	<polygon points="14,2 16,2 17,3 17,7 16,8 14,8 	"/>
	<polygon points="14,18 16,18 17,19 17,23 16,24 14,24 	"/>
</g>
<g opacity="0.2">
	<path d="M12,1c-1,0.1-4.9,1.8-5,10.7C6.9,21,11,23,12,23v-6c-0.9,0-1.1-1.1-1.3-3c-0.1-1.3-0.2-2.4,0-4c0.1-1.1,0.4-3,1.3-3V1z"/>
	<polygon points="13,1 15,1 16,2 16,6 15,7 13,7 	"/>
	<polygon points="13,17 15,17 16,18 16,22 15,23 13,23 	"/>
</g>
<g>
	<path fill="#0099CD" d="M11,0c-1,0.1-4.9,1.8-5,10.7C5.9,20,10,22,11,22v-6c-0.9,0-1.1-1.1-1.3-3c-0.1-1.3-0.2-2.4,0-4
		c0.1-1.1,0.4-3,1.3-3V0z"/>
	<polygon fill="#0099CD" points="12,0 14,0 15,1 15,5 14,6 12,6 	"/>
	<polygon fill="#0099CD" points="12,16 14,16 15,17 15,21 14,22 12,22 	"/>
</g>
</svg>
