<?xml version="1.0" encoding="utf-8"?>
<!-- Generator: Adobe Illustrator 22.1.0, SVG Export Plug-In . SVG Version: 6.00 Build 0)  -->
<svg version="1.1" id="Layer_1" xmlns="http://www.w3.org/2000/svg" xmlns:xlink="http://www.w3.org/1999/xlink" x="0px" y="0px"
	 width="22px" height="22px" viewBox="0 0 22 22" enable-background="new 0 0 22 22" xml:space="preserve">
<path fill="#FFFFFF" d="M0.8,14.3c0.5,0.2,1.1,0.4,1.8,0.4c1.8,0,2.4-1.6,2.4-3.2l0,0c-0.5,0.7-1.1,1-2,1c-1.9,0-3-1.2-3-3.1c0-2.2,1.1-3.7,3.4-3.7
	c2.8,0,3.5,2.4,3.5,4.8c0,2.8-0.9,5.8-4.2,5.8c-0.7,0-1.4-0.1-2.2-0.4L0.8,14.3z M4.8,9.1c0-1-0.4-1.8-1.4-1.8C2.4,7.2,2,8.2,2,9.1
	c0,1,0.4,1.9,1.4,1.9C4.4,11,4.8,10.1,4.8,9.1z"/>
<path fill="#FFFFFF" d="M11.8,5.9h1.8v10.2h-2V8.2L9.9,9.6l-1-1.3L11.8,5.9z"/>
<path fill="#FFFFFF" d="M20.2,5.9H22v10.2h-2V8.2l-1.7,1.4l-1-1.3L20.2,5.9z"/>
</svg>
