<?xml version="1.0" encoding="utf-8"?>
<!-- Generator: Adobe Illustrator 18.1.1, SVG Export Plug-In . SVG Version: 6.00 Build 0)  -->
<svg version="1.1" id="Layer_1" xmlns="http://www.w3.org/2000/svg" xmlns:xlink="http://www.w3.org/1999/xlink" x="0px" y="0px"
	 viewBox="0 0 32 32" enable-background="new 0 0 32 32" xml:space="preserve">
<g opacity="0.5">
	<rect x="8" y="12" fill="none" width="6" height="10"/>
	<path d="M28,30V20h3v-7h-7v7h3v10H17V10h3l-9-8l-9,8h3v20H2v2h30v-2H28z M8,22V12h6v10H8z"/>
</g>
<g opacity="0.75">
	<rect x="7" y="11" fill="none" width="6" height="10"/>
	<path d="M27,29V19h3v-7h-7v7h3v10H16V9h3l-9-8L1,9h3v20H1v2h30v-2H27z M7,21V11h6v10H7z"/>
</g>
<g>
	<rect x="6" y="10" fill="none" width="6" height="10"/>
	<path fill="#FFFFFF" d="M26,28V18h3v-7h-7v7h3v10H15V8h3L9,0L0,8h3v20H0v2h30v-2H26z M6,20V10h6v10H6z"/>
</g>
</svg>
