<?xml version="1.0" encoding="utf-8"?>
<!-- Generator: Adobe Illustrator 18.1.1, SVG Export Plug-In . SVG Version: 6.00 Build 0)  -->
<svg version="1.1" id="Layer_1" xmlns="http://www.w3.org/2000/svg" xmlns:xlink="http://www.w3.org/1999/xlink" x="0px" y="0px"
	 viewBox="0 0 16 16" enable-background="new 0 0 16 16" xml:space="preserve">
<polygon opacity="0.5" points="7,2 7,4 9,4 9.375,4 13,4 13,14 9.375,14 9,14 7,14 7,16 15,16 15,2 "/>
<polygon opacity="0.5" points="11,9 7,5 7,8.001 2,8.007 2,10.007 7,10.001 7,13 "/>
<polygon opacity="0.75" points="6,1 6,3 8,3 8.375,3 12,3 12,13 8.375,13 8,13 6,13 6,15 14,15 14,1 "/>
<polygon opacity="0.75" points="10,8 6,4 6,7.001 1,7.007 1,9.007 6,9.001 6,12 "/>
<polygon fill="#E6E6E6" points="5,0 5,2 7,2 7.375,2 11,2 11,12 7.375,12 7,12 5,12 5,14 13,14 13,0 "/>
<polygon fill="#E6E6E6" points="9,7 5,3 5,6.001 0,6.007 0,8.007 5,8.001 5,11 "/>
</svg>
