<?xml version="1.0" encoding="utf-8"?>
<!-- Generator: Adobe Illustrator 21.1.0, SVG Export Plug-In . SVG Version: 6.00 Build 0)  -->
<svg version="1.1" id="Layer_1" xmlns="http://www.w3.org/2000/svg" xmlns:xlink="http://www.w3.org/1999/xlink" x="0px" y="0px"
	 width="30px" height="30px" viewBox="0 0 30 30" enable-background="new 0 0 30 30" xml:space="preserve">
<polygon points="30,6 15,0 0,6 0,30 2,30 2,28 2,25 2,7.354 15,2.154 28,7.354 28,25 28,28 28,30 30,30 "/>
<path d="M16,10h3c0-2.209-1.791-4-4-4s-4,1.791-4,4h3v1h-3v2h3v1h-3v2h3v1h-3c0,2.209,1.791,4,4,4s4-1.791,4-4h-3v-1h3v-2h-3v-1h3
	v-2h-3V10z"/>
<path d="M20,16v2c0,2.757-2.243,5-5,5s-5-2.243-5-5v-2H8v2c0,3.379,2.395,6.199,5.58,6.855L13,27l-1,2h-1v1h4.465h0.929H19v-1h-1
	l-1-2l-0.623-2.137C19.583,24.223,22,21.395,22,18v-2H20z"/>
</svg>
