<?xml version="1.0" encoding="utf-8"?>
<!-- Generator: Adobe Illustrator 21.1.0, SVG Export Plug-In . SVG Version: 6.00 Build 0)  -->
<svg version="1.1" id="Layer_1" xmlns="http://www.w3.org/2000/svg" xmlns:xlink="http://www.w3.org/1999/xlink" x="0px" y="0px"
	 width="22px" height="22px" viewBox="0 0 22 22" enable-background="new 0 0 22 22" xml:space="preserve">
<path fill="#FFFFFF" d="M17,11h-1c0,3.308-2.243,6-5,6s-5-2.692-5-6H5c0,3.468,2.163,6.339,5,6.895V20l-1,1H8v1h6v-1h-1l-1-1v-2.105
	C14.837,17.339,17,14.468,17,11z"/>
<path fill="#FFFFFF" d="M12,7h2c0-1.657-1.343-3-3-3S8,5.343,8,7h2v1L8,8v1h2v1H8v1h2v1H8c0,1.657,1.343,3,3,3s3-1.343,3-3h-2v-1h2v-1h-2V9h2V8
	l-2,0V7z"/>
<polygon fill="#FFFFFF" points="22,5 11,0 0,5 0,22 1,22 1,21 1,18 1,5.644 11,1.098 21,5.644 21,18 21,21 21,22 22,22 "/>
</svg>
