<?xml version="1.0" encoding="utf-8"?>
<!-- Generator: Adobe Illustrator 21.1.0, SVG Export Plug-In . SVG Version: 6.00 Build 0)  -->
<svg version="1.1" id="Layer_1" xmlns="http://www.w3.org/2000/svg" xmlns:xlink="http://www.w3.org/1999/xlink" x="0px" y="0px"
	 width="14px" height="14px" viewBox="0 0 14 14" enable-background="new 0 0 14 14" xml:space="preserve">
<polygon points="14,3 7,0 0,3 0,14 1,14 1,13 1,11 1,3.659 7,1.088 13,3.659 13,11 13,13 13,14 14,14 "/>
<rect x="6" y="4" width="2" height="5"/>
<path d="M10.94,7H9.936C9.65,9.25,8.421,11,7,11S4.35,9.25,4.064,7H3.06C3.322,9.339,4.49,11.199,6,11.787V13H5v1h4v-1H8v-1.213
	C9.51,11.199,10.678,9.339,10.94,7z"/>
<path d="M8,5h1c0-1.105-0.895-2-2-2C5.895,3,5,3.895,5,5h1v1L5,6v1l1,0v1H5c0,1.105,0.895,2,2,2c1.105,0,2-0.895,2-2H8V7h1V6H8V5z"
	/>
</svg>
