<?xml version="1.0" encoding="utf-8"?>
<!-- Generator: Adobe Illustrator 22.1.0, SVG Export Plug-In . SVG Version: 6.00 Build 0)  -->
<svg version="1.1" id="Layer_1" xmlns="http://www.w3.org/2000/svg" xmlns:xlink="http://www.w3.org/1999/xlink" x="0px" y="0px"
	 width="30px" height="30px" viewBox="0 0 30 30" enable-background="new 0 0 30 30" xml:space="preserve">
<path d="M22.9,6.6h-3.1l-5.3-5.3c-0.4-0.4-1.1-0.5-1.5,0c-0.4,0.4-0.5,1.1,0,1.5l6,5.5v18.3c0,0.7,0.3,1.2,1,1.2c0.7,0,1-0.5,1-1.2
	V17h1v9.7c0,0.7,0.3,1.2,1,1.2s1-0.5,1-1.2V8.4l5.7-5.5c0.4-0.4,0.4-1.1,0-1.5c-0.4-0.4-1.1-0.4-1.5,0L22.9,6.6z"/>
<path d="M11.7,14.7c-0.3-0.3-0.8-0.5-1.3-0.5H6c-0.5,0-0.9,0.2-1.2,0.5l-4.4,4.4c-0.4,0.4-0.4,1.1,0,1.5c0.4,0.4,1.1,0.4,1.5,0L5,17
	v5H1.4c-0.7,0-1.3,0.4-1.3,1.1c0,0.4,0.1,0.7,0.4,0.9l4.4,4.4C5.3,29,6,29.1,6.6,28.8c0.6-0.4,0.8-1.2,0.5-1.8l-2.5-2.5L4,24h8.5
	l-3.2,3c-0.4,0.6-0.1,1.4,0.5,1.8c0.6,0.3,1.4,0.2,1.7-0.4l4.4-4.4c0.3-0.2,0.4-0.6,0.4-0.9c0-0.7-0.6-1.1-1.3-1.1h-4v-5l3.6,3.7
	c0.4,0.4,1.1,0.4,1.5,0c0.4-0.4,0.4-1.1,0-1.5L11.7,14.7z"/>
<circle cx="21.5" cy="4" r="2"/>
<circle cx="8" cy="11.5" r="2"/>
</svg>
