<?xml version="1.0" encoding="utf-8"?>
<!-- Generator: Adobe Illustrator 22.1.0, SVG Export Plug-In . SVG Version: 6.00 Build 0)  -->
<svg version="1.1" id="Layer_1" xmlns="http://www.w3.org/2000/svg" xmlns:xlink="http://www.w3.org/1999/xlink" x="0px" y="0px"
	 width="14px" height="14px" viewBox="0 0 14 14" enable-background="new 0 0 14 14" xml:space="preserve">
<path d="M10,3c0.6,0,1-0.4,1-1c0-0.6-0.4-1-1-1C9.4,1,9,1.4,9,2C9,2.6,9.4,3,10,3z"/>
<path d="M10.3,3.1H9.7L6.8,0.6c-0.2-0.2-0.5-0.2-0.7,0C5.9,0.8,5.9,1.1,6,1.3l3,2.6L9,12.4C9,12.8,9.2,13,9.5,13c0.3,0,0.6,0,0.9,0
	c0.3,0,0.6-0.2,0.6-0.6V3.9l2.9-2.6c0.2-0.2,0.2-0.5,0-0.7c-0.2-0.2-0.5-0.2-0.7,0L10.3,3.1z"/>
<path d="M5.5,6.4C5.3,6.2,5.1,6.2,4.9,6.2H2.8c-0.2,0-0.4,0.1-0.6,0.2L0.1,8.5C-0.1,8.7,0,9,0.2,9.2c0.2,0.2,0.5,0.2,0.7,0L3,7.3
	v2.4H0.7c-0.3,0-0.6,0.3-0.6,0.6c0,0.2,0.1,0.3,0.2,0.4l2,2c0.2,0.3,0.5,0.3,0.8,0.2c0.3-0.2,0.4-0.5,0.2-0.8L2.2,11l0,0h3.3
	l-1.2,1.2c-0.2,0.3-0.1,0.7,0.2,0.8c0.3,0.2,0.6,0.1,0.8-0.2l2-2c0.1-0.1,0.2-0.3,0.2-0.4C7.6,10,7.3,9.7,7,9.7H5V7.2l1.8,1.9
	c0.2,0.2,0.5,0.2,0.7,0c0.2-0.2,0.2-0.5,0-0.7L5.5,6.4z"/>
<path d="M4,6c0.6,0,1-0.4,1-1c0-0.6-0.4-1-1-1C3.4,4,3,4.4,3,5C3,5.6,3.4,6,4,6z"/>
</svg>
