<?xml version="1.0" encoding="utf-8"?>
<!-- Generator: Adobe Illustrator 22.1.0, SVG Export Plug-In . SVG Version: 6.00 Build 0)  -->
<svg version="1.1" id="Layer_1" xmlns="http://www.w3.org/2000/svg" xmlns:xlink="http://www.w3.org/1999/xlink" x="0px" y="0px"
	 width="22px" height="22px" viewBox="0 0 22 22" enable-background="new 0 0 22 22" xml:space="preserve">
<path fill="#FFFFFF" d="M16.8,5h-2.3l-3.9-4c-0.3-0.3-0.8-0.3-1.1,0c-0.3,0.3-0.3,0.8,0,1.1L13,6v13.6c0,0.5,0.5,0.9,1,0.9c0.5,0,1-0.4,1-0.9V12h1
	l0,7.6c0,0.5,0.5,0.9,1,0.9s1-0.4,1-0.9V6l3.8-3.9c0.3-0.3,0.3-0.8,0-1.1c-0.3-0.3-0.8-0.3-1.1,0L16.8,5z"/>
<path fill="#FFFFFF" d="M8.6,10.8c-0.2-0.2-0.6-0.4-0.9-0.4H4.4c-0.4,0-0.7,0.1-0.9,0.4L0.2,14c-0.3,0.3-0.3,0.8,0,1.1c0.3,0.3,0.8,0.3,1.1,0L4,13
	v3l-2.9,0c-0.5,0-0.9,0.4-0.9,0.9c0,0.3,0.1,0.5,0.3,0.7l3.2,3.2c0.3,0.4,0.8,0.5,1.3,0.3c0.5-0.3,0.6-0.9,0.4-1.3L3.4,18l0,0h5.2
	l-1.8,1.8c-0.3,0.5-0.1,1.1,0.4,1.3c0.4,0.3,1,0.1,1.3-0.3l3.2-3.2c0.2-0.2,0.3-0.4,0.3-0.7c0-0.5-0.4-0.9-0.9-0.9l-3,0v-3l2.7,2.1
	c0.3,0.3,0.8,0.3,1.1,0c0.3-0.3,0.3-0.8,0-1.1L8.6,10.8z"/>
<circle fill="#FFFFFF" cx="6" cy="8.5" r="1.5"/>
<circle fill="#FFFFFF" cx="15.5" cy="2.5" r="1.5"/>
</svg>
