<?xml version="1.0" encoding="utf-8"?>
<!-- Generator: Adobe Illustrator 22.1.0, SVG Export Plug-In . SVG Version: 6.00 Build 0)  -->
<svg version="1.1" id="Layer_1" xmlns="http://www.w3.org/2000/svg" xmlns:xlink="http://www.w3.org/1999/xlink" x="0px" y="0px"
	 width="30px" height="30px" viewBox="0 0 30 30" enable-background="new 0 0 30 30" xml:space="preserve">
<polygon points="12.7,3.1 14.8,2.2 13.8,0.1 11.8,1.1 "/>
<polygon points="11.8,4.9 8.4,3.7 7.3,7.1 10.7,8.2 "/>
<polygon points="11.8,6.3 18,5.7 18.6,11.6 14.1,12.1 12.3,9.7 "/>
<polygon points="19.5,16.2 21.6,17.5 22.9,17.3 24.4,14.8 24.4,14.8 22.2,13.4 21,13.7 19.5,16.1 "/>
<polygon points="20.4,19.2 24.4,19.8 23.9,23.9 21.1,23.5 20,21.4 "/>
<path d="M16.4,19.6L5.5,6.5L3.2,0.7L0,0v28c0,0.8,1.2,2,2,2l19.8-0.1l-1.6-5.7L16.4,19.6"/>
<polygon points="14.8,15 15.7,14.3 14.4,12.5 13.5,13.2 13.5,15 "/>
<polygon points="30,30 25.6,30 25.6,27.5 27,26 30,28 "/>
</svg>
