<?xml version="1.0" encoding="utf-8"?>
<!-- Generator: Adobe Illustrator 22.1.0, SVG Export Plug-In . SVG Version: 6.00 Build 0)  -->
<svg version="1.1" id="Layer_1" xmlns="http://www.w3.org/2000/svg" xmlns:xlink="http://www.w3.org/1999/xlink" x="0px" y="0px"
	 width="14px" height="14px" viewBox="0 0 14 14" enable-background="new 0 0 14 14" xml:space="preserve">
<polygon points="5.9,1.5 6.9,1 6.4,0.1 5.5,0.5 "/>
<rect x="3.6" y="2" transform="matrix(0.319 -0.9477 0.9477 0.319 0.3826 6.1152)" width="1.7" height="1.7"/>
<polygon points="5.5,2.9 8.4,2.7 8.7,5.4 6.6,5.7 5.7,4.5 "/>
<polygon points="9.1,7.5 10.1,8.2 10.7,8.1 11.4,6.9 11.4,6.9 10.4,6.3 9.8,6.4 9.1,7.5 "/>
<polygon points="9.5,9 11.4,9.2 11.2,11.1 9.8,10.9 9.3,10 "/>
<path d="M7.7,9.1L2.6,3L1.5,0.3L0,0v13c0,0.4,0.6,1,1,1l9.2,0l-0.7-2.7L7.7,9.1"/>
<polygon points="6.9,7 7.3,6.7 6.7,5.9 6.3,6.2 6.3,7 "/>
<polygon points="14,14 11.9,14 11.9,12.8 12.6,12.1 14,13 "/>
</svg>
