<?xml version="1.0" encoding="utf-8"?>
<!-- Generator: Adobe Illustrator 22.1.0, SVG Export Plug-In . SVG Version: 6.00 Build 0)  -->
<svg version="1.1" id="Layer_1" xmlns="http://www.w3.org/2000/svg" xmlns:xlink="http://www.w3.org/1999/xlink" x="0px" y="0px"
	 width="22px" height="22px" viewBox="0 0 22 22" enable-background="new 0 0 22 22" xml:space="preserve">
<polygon fill="#FFFFFF" points="9.3,2.3 10.8,1.6 10.1,0.1 8.6,0.8 "/>
<rect fill="#FFFFFF" x="5.7" y="3.1" transform="matrix(0.319 -0.9477 0.9477 0.319 0.6012 9.6096)" width="2.6" height="2.6"/>
<polygon fill="#FFFFFF" points="8.7,4.6 13.2,4.2 13.6,8.5 10.3,8.9 9,7.1 "/>
<polygon fill="#FFFFFF" points="14.3,11.9 15.9,12.8 16.8,12.7 17.9,10.9 17.9,10.8 16.3,9.9 15.4,10 14.3,11.8 "/>
<polygon fill="#FFFFFF" points="15,14.1 17.9,14.5 17.5,17.5 15.4,17.2 14.7,15.7 "/>
<path fill="#FFFFFF" d="M12,14.4l-8-9.6L2.3,0.5L0,0v21c0,0.6,0.4,1,1,1l15,0l-1.2-4.2L12,14.4"/>
<polygon fill="#FFFFFF" points="10.9,11 11.5,10.5 10.6,9.2 9.9,9.7 9.9,11 "/>
<polygon fill="#FFFFFF" points="22,22 18.7,22 18.7,20.2 19.8,19.1 22,20 "/>
</svg>
