<?xml version="1.0" encoding="utf-8"?>
<!-- Generator: Adobe Illustrator 22.0.1, SVG Export Plug-In . SVG Version: 6.00 Build 0)  -->
<svg version="1.1" id="Layer_1" xmlns="http://www.w3.org/2000/svg" xmlns:xlink="http://www.w3.org/1999/xlink" x="0px" y="0px"
	 width="14px" height="14px" viewBox="0 0 14 14" enable-background="new 0 0 14 14" xml:space="preserve">
<polygon fill="#FFFFFF" points="14,4 10,4 10,9 11,9 11,14 13,14 13,9 14,9 "/>
<polygon fill="#FFFFFF" points="3,4 1,4 0,11 1,11 1,14 3,14 3,11 4,11 "/>
<path fill="#FFFFFF" d="M2.2,3H1.8C1.3,3,1,2.7,1,2.2V1.8C1,1.3,1.3,1,1.8,1h0.5C2.7,1,3,1.3,3,1.8v0.5C3,2.7,2.7,3,2.2,3z"/>
<path fill="#FFFFFF" d="M7.2,7H6.8C6.3,7,6,6.7,6,6.2V5.8C6,5.3,6.3,5,6.8,5h0.5C7.7,5,8,5.3,8,5.8v0.5C8,6.7,7.7,7,7.2,7z"/>
<path fill="#FFFFFF" d="M12.2,3h-0.5C11.3,3,11,2.7,11,2.2V1.8C11,1.3,11.3,1,11.8,1h0.5C12.7,1,13,1.3,13,1.8v0.5C13,2.7,12.7,3,12.2,3z"/>
<rect fill="#FFFFFF" x="6" y="8" width="2" height="6"/>
<rect fill="#FFFFFF" x="5.5" y="8" width="3" height="3"/>
</svg>
