<?xml version="1.0" encoding="utf-8"?>
<!-- Generator: Adobe Illustrator 22.0.1, SVG Export Plug-In . SVG Version: 6.00 Build 0)  -->
<svg version="1.1" id="Layer_1" xmlns="http://www.w3.org/2000/svg" xmlns:xlink="http://www.w3.org/1999/xlink" x="0px" y="0px"
	 width="30px" height="30px" viewBox="0 0 30 30" enable-background="new 0 0 30 30" xml:space="preserve">
<path fill="#FFFFFF" d="M5.3,26.1c0,0,1.7,3.9,5.5,3.9l1-5.2L5.3,26.1z"/>
<path fill="#FFFFFF" d="M19.9,18.3c0,0,0,4.3,3.5,5.8l3-4.3L19.9,18.3z"/>
<path fill="#FFFFFF" d="M14.1,24.1l0.3,5.6c0,0,5.1,1.1,6.4-4.5L14.1,24.1z"/>
<path fill="#FFFFFF" d="M19,22.7l-4.5-4.7c0,0-3.1,1.8-2.7,4.4L19,22.7z"/>
<path fill="#FFFFFF" d="M16.2,16.4l7.1,0.3c0,0,0.4-3.5-1.7-5L16.2,16.4z"/>
<path fill="#FFFFFF" d="M28.2,29.9c0,0,1.6-4.6-2.1-5.9l-4.5,4.8L28.2,29.9z"/>
<path fill="#FFFFFF" d="M11.8,2.4L14,0l7.3,6.7c0,0-2.3,3.1-5.4,3.2l-0.5-3.8c0,0,0-0.5-0.7-1.1C14,4.4,11.8,2.4,11.8,2.4z"/>
<path fill="#FFFFFF" d="M13.9,5.8l-1.6-1.5l-0.6-0.6c0,0-0.7,0.8-1,1.1c-0.3,0.3-0.5,0.5-0.6,0.9C10,6.1,10,6.8,9.6,7.4c-2.1,2.3-4,4.4-5,5.5
	c-1.1,1-2.6,3.3-2.9,3.9c-0.4,0.7,0.1,0.9,0.1,0.9s1.2,0.6,1.6,0.7c0.4,0.2,0.9,0,1.1-0.8c0.1-0.7,0.5-1.7,0.7-2
	c0.3-0.4,0.6-0.8,1-1.2C8,12.4,13.9,5.9,13.9,5.8z"/>
</svg>
