<?xml version="1.0" encoding="utf-8"?>
<!-- Generator: Adobe Illustrator 22.1.0, SVG Export Plug-In . SVG Version: 6.00 Build 0)  -->
<svg version="1.1" id="Layer_1" xmlns="http://www.w3.org/2000/svg" xmlns:xlink="http://www.w3.org/1999/xlink" x="0px" y="0px"
	 width="30px" height="30px" viewBox="0 0 30 30" enable-background="new 0 0 30 30" xml:space="preserve">
<path d="M20.2,9.2l-4.7-4.3l2.9-3.2l10,9.3c-2.1,2.4-4.1,4-7.4,4.3L20.2,9.2z"/>
<path d="M21.5,24.2c0,0.5,0.2,1,0.4,1.5c1,2.1,3.5,3.1,5.6,2.1c2.1-1,3.1-3.5,2.1-5.6c-0.6-1.3-1.8-2.2-3.2-2.4L25.7,24L21.5,24.2z"
	/>
<path d="M24.8,23.3L22,19.5c-1,0.7-1.7,1.9-1.9,3.2L24.8,23.3z"/>
<path d="M12.7,11.7L13.4,9l2.1-2.3l3.2,2.9L5.1,24.2c-1.1,1.2-1.9,2.6-2.4,4.1L0,27.5c0.6-1.9,1.6-3.6,2.9-5.1L12.7,11.7z"/>
<path d="M17.5,24.3c1.1,0.9,1.8,2.2,1.8,3.7h-4.7L17.5,24.3z"/>
</svg>
