<?xml version="1.0" encoding="utf-8"?>
<!-- Generator: Adobe Illustrator 22.1.0, SVG Export Plug-In . SVG Version: 6.00 Build 0)  -->
<svg version="1.1" id="Layer_1" xmlns="http://www.w3.org/2000/svg" xmlns:xlink="http://www.w3.org/1999/xlink" x="0px" y="0px"
	 width="30px" height="30px" viewBox="0 0 30 30" enable-background="new 0 0 30 30" xml:space="preserve">
<path fill="#FFFFFF" d="M10.3,5.1C8,5.6,7.2,6.8,6.5,7.8C5.8,8.8,4.4,8,4.9,7c0.3-1,2.1-2.7,3.5-3.2C8.1,3.6,7.7,3,7.7,2.3C7.7,0.9,8.8,0,10,0
	c1.2,0,2,1.2,2,2h1v1h4V2l8-1v6l-8-1V5h-4l0,1.6c1,0.2,4,1.7,4,4.7V29c0,0.4-0.1,1-1,1H8c-0.9,0-1-0.6-1-1V11.4c0-3,2.3-4.6,3.3-4.7
	L10.3,5.1z M9.9,3.2c0.6,0,1-0.5,1-1c0-0.6-0.4-1-1-1c-0.5,0-1,0.5-1,1C8.9,2.7,9.4,3.2,9.9,3.2z"/>
</svg>
