<?xml version="1.0" encoding="utf-8"?>
<!-- Generator: Adobe Illustrator 22.1.0, SVG Export Plug-In . SVG Version: 6.00 Build 0)  -->
<svg version="1.1" id="Layer_1" xmlns="http://www.w3.org/2000/svg" xmlns:xlink="http://www.w3.org/1999/xlink" x="0px" y="0px"
	 width="14px" height="14px" viewBox="0 0 14 14" enable-background="new 0 0 14 14" xml:space="preserve">
<path d="M4.8,1.4C3.7,1.6,3.4,2.2,3,2.7c-0.3,0.5-1,0.1-0.7-0.4c0.2-0.5,1-1.3,1.6-1.5C3.8,0.7,4.1,0,4.7,0C5.2,0,6,0,6,0v1h2l4-1v3
	L8,2H6v1c0.5,0.1,2,0.6,2,2v8c0,0.2-0.4,1-0.8,1H3.6C3.2,14,3,13.2,3,13V5c0-1.4,1.4-1.8,1.8-1.9L4.8,1.4z"/>
</svg>
