<?xml version="1.0" encoding="utf-8"?>
<!-- Generator: Adobe Illustrator 22.0.1, SVG Export Plug-In . SVG Version: 6.00 Build 0)  -->
<svg version="1.1" id="Layer_1" xmlns="http://www.w3.org/2000/svg" xmlns:xlink="http://www.w3.org/1999/xlink" x="0px" y="0px"
	 width="14px" height="14px" viewBox="0 0 14 14" enable-background="new 0 0 14 14" xml:space="preserve">
<path d="M2.5,12.2c0,0,0.8,1.8,2.6,1.8l0.5-2.4L2.5,12.2z"/>
<path d="M9.3,8.5c0,0,0,2,1.6,2.7l1.4-2L9.3,8.5z"/>
<path d="M6.6,11.2l0.2,2.6c0,0,2.4,0.5,3-2.1L6.6,11.2z"/>
<path d="M8.9,10.6L6.8,8.4c0,0-1.4,0.9-1.2,2.1L8.9,10.6z"/>
<path d="M7.6,7.6l3.3,0.1c0,0,0.2-1.6-0.8-2.3L7.6,7.6z"/>
<path d="M13.1,14c0,0,0.7-2.1-1-2.8L10,13.4L13.1,14z"/>
<path d="M5.5,1.1l1-1.1l3.4,3.1c0,0-1.1,1.4-2.5,1.5L7.2,2.9c0,0,0-0.2-0.3-0.5C6.5,2,5.5,1.1,5.5,1.1z"/>
<path d="M6.5,2.7L5.8,2L5.5,1.8c0,0-0.3,0.4-0.5,0.5C4.9,2.4,4.7,2.5,4.7,2.7c0,0.2-0.1,0.5-0.2,0.8C3.5,4.5,2.6,5.5,2.1,6
	C1.6,6.5,0.9,7.6,0.8,7.9c-0.2,0.3,0,0.4,0,0.4s0.6,0.3,0.8,0.3c0.2,0.1,0.4,0,0.5-0.4c0.1-0.3,0.2-0.8,0.3-0.9
	c0.1-0.2,0.3-0.4,0.5-0.6C3.7,5.8,6.5,2.7,6.5,2.7z"/>
</svg>
