<?xml version="1.0" encoding="utf-8"?>
<!-- Generator: Adobe Illustrator 22.1.0, SVG Export Plug-In . SVG Version: 6.00 Build 0)  -->
<svg version="1.1" id="Layer_1" xmlns="http://www.w3.org/2000/svg" xmlns:xlink="http://www.w3.org/1999/xlink" x="0px" y="0px"
	 width="22px" height="22px" viewBox="0 0 22 22" enable-background="new 0 0 22 22" xml:space="preserve">
<path d="M14.8,6.7l-3.4-3.2l2.2-2.3L20.9,8c-1.6,1.7-3,2.9-5.4,3.1L14.8,6.7z"/>
<path d="M15.8,17.8c0,0.4,0.1,0.7,0.3,1.1c0.7,1.6,2.6,2.3,4.1,1.5c1.6-0.7,2.3-2.6,1.5-4.1c-0.4-1-1.3-1.6-2.3-1.8l-0.5,3.1
	L15.8,17.8z"/>
<path d="M18.2,17.1l-2-2.8c-0.7,0.5-1.3,1.4-1.4,2.4L18.2,17.1z"/>
<path d="M9.3,8.6l0.5-2l1.5-1.7l2.3,2.1L3.8,17.8c-0.8,0.8-1.4,1.9-1.7,3l-2-0.6c0.4-1.4,1.1-2.7,2.1-3.7L9.3,8.6z"/>
<path d="M12.8,17.8c0.8,0.6,1.3,1.6,1.3,2.7h-3.4L12.8,17.8z"/>
</svg>
