<?xml version="1.0" encoding="utf-8"?>
<!-- Generator: Adobe Illustrator 22.0.1, SVG Export Plug-In . SVG Version: 6.00 Build 0)  -->
<svg version="1.1" id="Layer_1" xmlns="http://www.w3.org/2000/svg" xmlns:xlink="http://www.w3.org/1999/xlink" x="0px" y="0px"
	 width="22px" height="22px" viewBox="0 0 22 22" enable-background="new 0 0 22 22" xml:space="preserve">
<path d="M3.9,19.1c0,0,1.2,2.9,4,2.9l0.7-3.8L3.9,19.1z"/>
<path d="M14.6,13.4c0,0,0,3.1,2.6,4.2l2.2-3.2L14.6,13.4z"/>
<path d="M10.4,17.7l0.2,4.1c0,0,3.8,0.8,4.7-3.3L10.4,17.7z"/>
<path d="M13.9,16.6l-3.3-3.5c0,0-2.3,1.4-1.9,3.2L13.9,16.6z"/>
<path d="M11.9,12l5.2,0.2c0,0,0.3-2.5-1.3-3.7L11.9,12z"/>
<path d="M20.6,21.9c0,0,1.2-3.4-1.6-4.4l-3.3,3.5L20.6,21.9z"/>
<path d="M8.7,1.8L10.2,0l5.3,4.9c0,0-1.7,2.3-3.9,2.4l-0.4-2.8c0,0,0-0.4-0.5-0.8C10.3,3.2,8.7,1.8,8.7,1.8z"/>
<path d="M10.2,4.3L9,3.2L8.6,2.8c0,0-0.5,0.6-0.7,0.8C7.6,3.8,7.4,3.9,7.4,4.2C7.4,4.5,7.3,5,7,5.4C5.5,7.1,4.1,8.6,3.3,9.5
	c-0.8,0.7-1.9,2.4-2.1,2.9C0.9,12.9,1.3,13,1.3,13s0.9,0.4,1.2,0.5s0.7,0,0.8-0.6c0.1-0.5,0.4-1.2,0.5-1.5c0.2-0.3,0.5-0.6,0.7-0.9
	C5.8,9.1,10.2,4.3,10.2,4.3z"/>
</svg>
