<?xml version="1.0" encoding="utf-8"?>
<!-- Generator: Adobe Illustrator 22.1.0, SVG Export Plug-In . SVG Version: 6.00 Build 0)  -->
<svg version="1.1" id="Layer_1" xmlns="http://www.w3.org/2000/svg" xmlns:xlink="http://www.w3.org/1999/xlink" x="0px" y="0px"
	 width="14px" height="14px" viewBox="0 0 14 14" enable-background="new 0 0 14 14" xml:space="preserve">
<path fill="#FFFFFF" d="M9.4,4.3l-2.2-2l1.4-1.5l4.7,4.3c-1,1.1-1.9,1.9-3.4,2L9.4,4.3z"/>
<path fill="#FFFFFF" d="M5.9,5.5l0.3-1.3l1-1.1l1.5,1.4l-6.3,6.8c-0.5,0.5-0.9,1.2-1.1,1.9L0,12.8c0.3-0.9,0.7-1.7,1.3-2.4L5.9,5.5z"/>
<path fill="#FFFFFF" d="M11.7,9l-0.2,2.5l-2.3,1c0.4,0.9,1.3,1.5,2.3,1.5c1.4,0,2.5-1.1,2.5-2.5C14,10.2,13,9.1,11.7,9z"/>
<polygon fill="#FFFFFF" points="5,14 8,14 7,12 "/>
<polygon fill="#FFFFFF" points="10.9,11.2 8.8,9.1 8,11 "/>
</svg>
