<?xml version="1.0" encoding="utf-8"?>
<!-- Generator: Adobe Illustrator 22.0.1, SVG Export Plug-In . SVG Version: 6.00 Build 0)  -->
<svg version="1.1" id="Layer_1" xmlns="http://www.w3.org/2000/svg" xmlns:xlink="http://www.w3.org/1999/xlink" x="0px" y="0px"
	 width="30px" height="30px" viewBox="0 0 30 30" enable-background="new 0 0 30 30" xml:space="preserve">
<path d="M15.9,9.2c4.3-6.5-3-9.2-3-9.2c1,1.1,0.5,3.3-2.3,5.9c-3,2.8,0,6.8,1.1,8h2.4C13.5,11.5,15.2,10.3,15.9,9.2z"/>
<path d="M19.5,6.3c-0.1,0.7-0.5,2.6-1.7,3.8c-1.9,2-1.6,3.2-1.4,3.8h2C22.9,10.9,19.5,6.3,19.5,6.3z"/>
<path d="M24.1,15.9H5.9c-1.8,0-3.2,1.4-3.2,3.2v7.7c0,1.8,1.4,3.2,3.2,3.2h18.1c1.8,0,3.2-1.4,3.2-3.2v-7.7
	C27.2,17.4,25.8,15.9,24.1,15.9z M26,19.1v3.3h-4.7v-5.3h2.8C25.1,17.2,26,18,26,19.1z M14.4,23.7v5.1H9.9v-5.1H14.4z M9.9,22.4
	v-5.3h4.5v5.3H9.9z M15.7,23.7h4.4v5.1h-4.4V23.7z M15.7,22.4v-5.3h4.4v5.3H15.7z M5.9,17.2h2.8v5.3H4v-3.3C4,18,4.9,17.2,5.9,17.2z
	 M4,26.8v-3.1h4.7v5.1H5.9C4.9,28.8,4,27.9,4,26.8z M24.1,28.8h-2.8v-5.1H26v3.1C26,27.9,25.1,28.8,24.1,28.8z"/>
</svg>
