<?xml version="1.0" encoding="utf-8"?>
<!-- Generator: Adobe Illustrator 22.0.1, SVG Export Plug-In . SVG Version: 6.00 Build 0)  -->
<svg version="1.1" id="Layer_1" xmlns="http://www.w3.org/2000/svg" xmlns:xlink="http://www.w3.org/1999/xlink" x="0px" y="0px"
	 width="14px" height="14px" viewBox="0 0 14 14" enable-background="new 0 0 14 14" xml:space="preserve">
<path d="M7.4,4.3C9.4,1.3,6,0,6,0c0.4,0.5,0.3,1.5-1.1,2.8C3.5,4.1,5,5.9,5.5,6.5h1.1C6.3,5.4,7.1,4.8,7.4,4.3z"/>
<path d="M9.1,2.9c0,0.3-0.2,1.2-0.8,1.8c-0.9,1-0.7,1.5-0.6,1.8h0.9C10.7,5.1,9.1,2.9,9.1,2.9z"/>
<path d="M11.2,7.4H2.8C2,7.4,1.3,8.1,1.3,8.9v3.6C1.3,13.3,2,14,2.8,14h8.5c0.8,0,1.5-0.7,1.5-1.5V8.9C12.7,8.1,12,7.4,11.2,7.4z
	 M12.1,8.9v1.6H9.9V8h1.3C11.7,8,12.1,8.4,12.1,8.9z M6.7,11.1v2.4H4.6v-2.4H6.7z M4.6,10.5V8h2.1v2.5H4.6z M7.3,11.1h2v2.4h-2V11.1
	z M7.3,10.5V8h2v2.5H7.3z M2.8,8h1.3v2.5H1.9V8.9C1.9,8.4,2.3,8,2.8,8z M1.9,12.5v-1.5h2.2v2.4H2.8C2.3,13.4,1.9,13,1.9,12.5z
	 M11.2,13.4H9.9v-2.4h2.2v1.5C12.1,13,11.7,13.4,11.2,13.4z"/>
</svg>
