<?xml version="1.0" encoding="utf-8"?>
<!-- Generator: Adobe Illustrator 22.0.1, SVG Export Plug-In . SVG Version: 6.00 Build 0)  -->
<svg version="1.1" id="Layer_1" xmlns="http://www.w3.org/2000/svg" xmlns:xlink="http://www.w3.org/1999/xlink" x="0px" y="0px"
	 width="22px" height="22px" viewBox="0 0 22 22" enable-background="new 0 0 22 22" xml:space="preserve">
<path d="M11.6,6.8C14.8,2,9.5,0,9.5,0c0.7,0.8,0.4,2.4-1.7,4.3c-2.2,2.1,0,5,0.8,5.9h1.8C9.9,8.4,11.1,7.5,11.6,6.8z"/>
<path d="M14.3,4.6c-0.1,0.5-0.4,1.9-1.2,2.8c-1.4,1.5-1.1,2.4-1,2.8h1.5C16.8,8,14.3,4.6,14.3,4.6z"/>
<path d="M17.6,11.7H4.4c-1.3,0-2.3,1-2.3,2.3v5.7C2,21,3.1,22,4.4,22h13.3c1.3,0,2.3-1,2.3-2.3V14C20,12.7,18.9,11.7,17.6,11.7z
	 M19.1,14v2.4h-3.5v-3.9h2C18.4,12.6,19.1,13.2,19.1,14z M10.6,17.4v3.7H7.3v-3.7H10.6z M7.3,16.5v-3.9h3.3v3.9H7.3z M11.5,17.4h3.2
	v3.7h-3.2V17.4z M11.5,16.5v-3.9h3.2v3.9H11.5z M4.4,12.6h2v3.9H2.9V14C2.9,13.2,3.6,12.6,4.4,12.6z M2.9,19.7v-2.3h3.5v3.7h-2
	C3.6,21.1,2.9,20.5,2.9,19.7z M17.6,21.1h-2v-3.7h3.5v2.3C19.1,20.5,18.4,21.1,17.6,21.1z"/>
</svg>
