<?xml version="1.0" encoding="utf-8"?>
<!-- Generator: Adobe Illustrator 22.0.1, SVG Export Plug-In . SVG Version: 6.00 Build 0)  -->
<svg version="1.1" id="Layer_1" xmlns="http://www.w3.org/2000/svg" xmlns:xlink="http://www.w3.org/1999/xlink" x="0px" y="0px"
	 width="22px" height="22px" viewBox="0 0 22 22" enable-background="new 0 0 22 22" xml:space="preserve">
<path d="M0.8,7.8V5.9c1.8-0.2,3-0.5,3.7-0.9c0.7-0.4,1.2-1.4,1.6-2.9h1.9v19.5H5.5V7.8H0.8z"/>
<path d="M10.6,11.7c0,0.5,0.2,0.8,0.4,1.1c0.4,0.5,1,0.7,1.9,0.7c0.5,0,1-0.1,1.4-0.3c0.4-0.2,0.6-0.6,0.6-1.1
	c0-0.4-0.2-0.6-0.5-0.8c-0.2-0.1-0.6-0.3-1.2-0.4l-1.2-0.3c-0.7-0.2-1.3-0.4-1.6-0.6C9.8,9.5,9.5,9,9.5,8.3c0-0.8,0.3-1.5,0.9-2
	c0.6-0.5,1.4-0.7,2.4-0.7c1.3,0,2.2,0.4,2.8,1.1c0.4,0.5,0.5,1,0.5,1.5h-1.4c0-0.3-0.1-0.6-0.4-0.9c-0.3-0.4-0.9-0.6-1.8-0.6
	c-0.6,0-1,0.1-1.3,0.3C11.1,7.3,11,7.6,11,7.9c0,0.4,0.2,0.7,0.6,0.9c0.2,0.1,0.5,0.2,1,0.3l1,0.2c1,0.2,1.8,0.5,2.1,0.7
	c0.6,0.4,0.8,0.9,0.8,1.7c0,0.8-0.3,1.4-0.9,2s-1.5,0.8-2.7,0.8c-1.3,0-2.2-0.3-2.7-0.9c-0.5-0.6-0.8-1.3-0.9-2.1H10.6z"/>
<path d="M18.2,3.4h1.5v2.4h1.4V7h-1.4v5.6c0,0.3,0.1,0.5,0.3,0.6c0.1,0.1,0.3,0.1,0.6,0.1c0.1,0,0.1,0,0.2,0c0.1,0,0.2,0,0.3,0v1.1
	c-0.2,0-0.3,0.1-0.5,0.1c-0.2,0-0.4,0-0.6,0c-0.7,0-1.1-0.2-1.4-0.5c-0.2-0.3-0.4-0.8-0.4-1.3V7h-1.2V5.8h1.2V3.4z"/>
</svg>
