<?xml version="1.0" encoding="utf-8"?>
<!-- Generator: Adobe Illustrator 18.1.1, SVG Export Plug-In . SVG Version: 6.00 Build 0)  -->
<svg version="1.1" id="Icons" xmlns="http://www.w3.org/2000/svg" xmlns:xlink="http://www.w3.org/1999/xlink" x="0px" y="0px"
	 viewBox="0 0 16 16" enable-background="new 0 0 16 16" xml:space="preserve">
<g opacity="0.1">
	<polygon points="16,7 11,7 11,2 7,2 7,7 2,7 2,11 7,11 7,16 11,16 11,11 16,11 	"/>
</g>
<g opacity="0.2">
	<polygon points="15,6 10,6 10,1 6,1 6,6 1,6 1,10 6,10 6,15 10,15 10,10 15,10 	"/>
</g>
<g>
	<polygon points="14,5 9,5 9,0 5,0 5,5 0,5 0,9 5,9 5,14 9,14 9,9 14,9 	"/>
</g>
</svg>
