<?xml version="1.0" encoding="utf-8"?>
<!-- Generator: Adobe Illustrator 22.0.1, SVG Export Plug-In . SVG Version: 6.00 Build 0)  -->
<svg version="1.1" id="Layer_1" xmlns="http://www.w3.org/2000/svg" xmlns:xlink="http://www.w3.org/1999/xlink" x="0px" y="0px"
	 width="14px" height="14px" viewBox="0 0 14 14" enable-background="new 0 0 14 14" xml:space="preserve">
<path fill="#FFFFFF" d="M-0.1,4.8V3.5C1,3.4,1.8,3.2,2.3,3s0.8-0.9,1-1.9h1.2v12.5H2.9V4.8H-0.1z"/>
<path fill="#FFFFFF" d="M6.4,7c0,0.3,0.1,0.5,0.2,0.7C6.9,8,7.3,8.1,7.9,8.1c0.3,0,0.7-0.1,0.9-0.2c0.3-0.1,0.4-0.4,0.4-0.7c0-0.2-0.1-0.4-0.3-0.5
	C8.7,6.6,8.5,6.5,8.1,6.4L7.3,6.2C6.8,6.1,6.5,6,6.3,5.8c-0.4-0.2-0.6-0.6-0.6-1c0-0.5,0.2-0.9,0.6-1.3C6.6,3.2,7.1,3,7.8,3
	c0.8,0,1.4,0.2,1.8,0.7c0.2,0.3,0.3,0.6,0.3,1H9C9,4.6,9,4.4,8.8,4.2C8.6,4,8.2,3.8,7.7,3.8C7.3,3.8,7.1,3.9,6.9,4
	C6.7,4.2,6.6,4.3,6.6,4.6C6.6,4.8,6.7,5,7,5.1c0.1,0.1,0.3,0.2,0.6,0.2l0.6,0.1C8.9,5.7,9.3,5.8,9.6,6c0.4,0.2,0.5,0.6,0.5,1.1
	c0,0.5-0.2,0.9-0.6,1.3C9.2,8.7,8.6,8.9,7.8,8.9C7,8.9,6.4,8.7,6.1,8.3S5.5,7.5,5.5,7H6.4z"/>
<path fill="#FFFFFF" d="M11.3,1.7h0.9v1.5h0.9v0.8h-0.9v3.6c0,0.2,0.1,0.3,0.2,0.4c0.1,0,0.2,0.1,0.4,0.1c0,0,0.1,0,0.1,0c0.1,0,0.1,0,0.2,0v0.7
	c-0.1,0-0.2,0.1-0.3,0.1s-0.2,0-0.4,0c-0.4,0-0.7-0.1-0.9-0.3c-0.2-0.2-0.2-0.5-0.2-0.9V3.9h-0.7V3.2h0.7V1.7z"/>
</svg>
