<?xml version="1.0" encoding="utf-8"?>
<!-- Generator: Adobe Illustrator 18.1.1, SVG Export Plug-In . SVG Version: 6.00 Build 0)  -->
<svg version="1.1" id="Icons" xmlns="http://www.w3.org/2000/svg" xmlns:xlink="http://www.w3.org/1999/xlink" x="0px" y="0px"
	 viewBox="0 0 32 32" enable-background="new 0 0 32 32" xml:space="preserve">
<g opacity="0.1">
	<polygon points="32,12 22,12 22,2 12,2 12,12 2,12 2,22 12,22 12,32 22,32 22,22 32,22 	"/>
</g>
<g opacity="0.2">
	<polygon points="31,11 21,11 21,1 11,1 11,11 1,11 1,21 11,21 11,31 21,31 21,21 31,21 	"/>
</g>
<g>
	<polygon points="30,10 20,10 20,0 10,0 10,10 0,10 0,20 10,20 10,30 20,30 20,20 30,20 	"/>
</g>
</svg>
