<?xml version="1.0" encoding="utf-8"?>
<!-- Generator: Adobe Illustrator 22.0.1, SVG Export Plug-In . SVG Version: 6.00 Build 0)  -->
<svg version="1.1" id="Layer_1" xmlns="http://www.w3.org/2000/svg" xmlns:xlink="http://www.w3.org/1999/xlink" x="0px" y="0px"
	 width="30px" height="30px" viewBox="0 0 30 30" enable-background="new 0 0 30 30" xml:space="preserve">
<path d="M0.9,10.4V7.7c2.5-0.2,4.2-0.6,5.2-1.2s1.7-1.9,2.2-4H11v27.2H7.3V10.4H0.9z"/>
<path d="M14.5,15.9c0.1,0.7,0.2,1.2,0.5,1.5c0.5,0.6,1.4,1,2.7,1c0.8,0,1.4-0.2,2-0.5s0.9-0.8,0.9-1.5c0-0.5-0.2-0.9-0.7-1.2
	c-0.3-0.2-0.9-0.4-1.7-0.6l-1.6-0.4c-1-0.3-1.8-0.5-2.3-0.8c-0.9-0.5-1.3-1.3-1.3-2.2c0-1.1,0.4-2,1.2-2.7c0.8-0.7,1.9-1,3.3-1
	c1.8,0,3.1,0.5,3.9,1.6c0.5,0.7,0.7,1.4,0.7,2.2h-1.9c0-0.4-0.2-0.9-0.5-1.2c-0.5-0.5-1.3-0.8-2.4-0.8c-0.8,0-1.4,0.1-1.8,0.4
	c-0.4,0.3-0.6,0.7-0.6,1.1c0,0.5,0.3,0.9,0.8,1.2c0.3,0.2,0.7,0.3,1.3,0.5l1.3,0.3c1.5,0.3,2.4,0.7,2.9,1c0.8,0.5,1.2,1.3,1.2,2.4
	c0,1.1-0.4,2-1.2,2.7c-0.8,0.8-2.1,1.2-3.7,1.2c-1.8,0-3.1-0.4-3.8-1.2c-0.7-0.8-1.1-1.8-1.2-3H14.5z"/>
<path d="M25.1,4.5h2v3.3H29v1.6h-1.9v7.8c0,0.4,0.1,0.7,0.4,0.8c0.2,0.1,0.4,0.1,0.8,0.1c0.1,0,0.2,0,0.3,0c0.1,0,0.2,0,0.4,0v1.6
	c-0.2,0.1-0.5,0.1-0.7,0.1s-0.5,0-0.8,0c-0.9,0-1.6-0.2-1.9-0.7c-0.3-0.5-0.5-1.1-0.5-1.9V9.4h-1.6V7.8h1.6V4.5z"/>
</svg>
