<?xml version="1.0" encoding="utf-8"?>
<!-- Generator: Adobe Illustrator 18.1.1, SVG Export Plug-In . SVG Version: 6.00 Build 0)  -->
<svg version="1.1" id="Icons" xmlns="http://www.w3.org/2000/svg" xmlns:xlink="http://www.w3.org/1999/xlink" x="0px" y="0px"
	 viewBox="0 0 24 24" enable-background="new 0 0 24 24" xml:space="preserve">
<g opacity="0.5">
	<polygon points="24,9 17,9 17,2 9,2 9,9 2,9 2,17 9,17 9,24 17,24 17,17 24,17 	"/>
</g>
<g opacity="0.75">
	<polygon points="23,8 16,8 16,1 8,1 8,8 1,8 1,16 8,16 8,23 16,23 16,16 23,16 	"/>
</g>
<g>
	<polygon fill="#E6E6E6" points="22,7 15,7 15,0 7,0 7,7 0,7 0,15 7,15 7,22 15,22 15,15 22,15 	"/>
</g>
</svg>
