<?xml version="1.0" encoding="utf-8"?>
<!-- Generator: Adobe Illustrator 22.1.0, SVG Export Plug-In . SVG Version: 6.00 Build 0)  -->
<svg version="1.1" id="Layer_1" xmlns="http://www.w3.org/2000/svg" xmlns:xlink="http://www.w3.org/1999/xlink" x="0px" y="0px"
	 width="22px" height="22px" viewBox="0 0 22 22" enable-background="new 0 0 22 22" xml:space="preserve">
<path fill="#FFFFFF" d="M3.5,5.8c0.6,0,1.1,0.5,1.1,1.1l0,1.6c0,1.7,1.4,3.2,3.2,3.2h2.7c0.6,0,1.1,0.5,1.1,1.1v1.6c0,1.7,1.4,3.2,3.2,3.2h2.7
	c0.6,0,1.1,0.5,1.1,1.1v3.1h2v-3.1c0-1.7-1.4-3.2-3.2-3.2l-2.7,0c-0.6,0-1.1-0.5-1.1-1.1l0-1.6c0-1.7-1.4-3.2-3.2-3.2H7.8
	c-0.6,0-1.1-0.5-1.1-1.1l0-1.6c0-1.7-1.4-3.2-3.2-3.2H0v2L3.5,5.8z"/>
<path fill="#FFFFFF" d="M8.7,0.7c0,0-0.1-0.1-0.1-0.2c0-0.1,0.1-0.2,0.2-0.2c0.7-0.2,3.9-1,7.9,2L18.3,2l1.6,2.2l-1.1,0.2c1.6,2.4,1.6,5.4,1.4,6.6
	l1.7,2.7c0,0,0,0.1,0,0.1c0,0.1-0.1,0.2-0.2,0.2c0,0-0.1,0-0.1,0l-2.3-1L17,14c0,0-0.1,0-0.1,0c-0.1,0-0.2-0.1-0.2-0.2
	c0,0,0-0.1,0-0.1l1.7-2.7c0-2.9-3.3-4.2-4.1-4.5C12.6,6,8.7,3.5,7.9,1.5c0,0,0-0.1,0-0.1c0-0.1,0.1-0.2,0.2-0.2c0.1,0,0.1,0,0.2,0.1
	L9.4,2c0,0,0.1,0,0.1,0c0.1,0,0.1-0.1,0.1-0.1c0,0,0-0.1-0.1-0.1L8.7,0.7z"/>
</svg>
