<?xml version="1.0" encoding="utf-8"?>
<!-- Generator: Adobe Illustrator 21.1.0, SVG Export Plug-In . SVG Version: 6.00 Build 0)  -->
<svg version="1.1" id="Layer_1" xmlns="http://www.w3.org/2000/svg" xmlns:xlink="http://www.w3.org/1999/xlink" x="0px" y="0px"
	 width="14px" height="14px" viewBox="0 0 14 14" enable-background="new 0 0 14 14" xml:space="preserve">
<circle cx="6.4" cy="0.9" r="0.9"/>
<path d="M13.2,12.6c-0.3-0.1-0.5-0.2-0.8-0.2c-0.3,0-0.5,0.1-0.8,0.2c-0.3,0.1-0.5,0.2-0.8,0.2s-0.5-0.1-0.8-0.2
	c-0.3-0.1-0.5-0.2-0.8-0.2s-0.5,0.1-0.8,0.2c-0.3,0.1-0.5,0.2-0.8,0.2S7,12.8,6.7,12.6c-0.3-0.1-0.5-0.2-0.8-0.2
	c-0.3,0-0.5,0.1-0.8,0.2c-0.3,0.1-0.5,0.2-0.8,0.2s-0.5-0.1-0.8-0.2c-0.3-0.1-0.5-0.2-0.8-0.2s-0.5,0.1-0.8,0.2
	c-0.3,0.1-0.5,0.2-0.8,0.2V14c0.3,0,0.5-0.1,0.8-0.2c0.3-0.1,0.5-0.2,0.8-0.2s0.5,0.1,0.8,0.2C3.7,13.9,4,14,4.2,14s0.5-0.1,0.8-0.2
	c0.3-0.1,0.5-0.2,0.8-0.2c0.3,0,0.5,0.1,0.8,0.2C7,13.9,7.2,14,7.5,14s0.5-0.1,0.8-0.2c0.3-0.1,0.5-0.2,0.8-0.2s0.5,0.1,0.8,0.2
	c0.3,0.1,0.5,0.2,0.8,0.2s0.5-0.1,0.8-0.2c0.3-0.1,0.5-0.2,0.8-0.2s0.5,0.1,0.8,0.2c0.3,0.1,0.5,0.2,0.8,0.2v-1.2
	C13.7,12.8,13.4,12.7,13.2,12.6z"/>
<path d="M13,0l-1,0.2L9.2,3.1C9.2,3.1,9.1,3,9.1,3s-1,0-1.3,0C7.6,2.8,6.4,1.6,6.4,1.6C6.3,1.5,6.2,1.5,6.1,1.5
	c-0.3-0.2-0.7-0.2-0.9,0l-3.1,2C2.1,3.6,2,3.7,2,3.8V6H0v1h2v2.6c-0.2,0.4,1.1,0.8,1.5,0.8S4,9.6,4,9.6V7h2v3H0v1h7V7h1V6H4V5.3
	l2.2-1.7L7,4.3C7.1,4.4,7.4,5,7.4,5h1.2C8.8,5,9,4.8,9,4.6c0-0.1,0-0.1,0-0.1c0.8-0.7,2.6-2.3,3-2.6c0,0.7,0,9.1,0,9.1h1V1
	C13,0.9,13,0,13,0z"/>
</svg>
