<?xml version="1.0" encoding="utf-8"?>
<!-- Generator: Adobe Illustrator 20.0.0, SVG Export Plug-In . SVG Version: 6.00 Build 0)  -->
<svg version="1.1" id="Icons" xmlns="http://www.w3.org/2000/svg" xmlns:xlink="http://www.w3.org/1999/xlink" x="0px" y="0px"
	 width="14px" height="14px" viewBox="0 0 14 14" style="enable-background:new 0 0 14 14;" xml:space="preserve">
<g>
	<path fill="#FFFFFF" d="M4,9.2v0.1l0.1,0.1L7,10v1H4v0.2v0.1c2.7,2.2,6,2.8,10,2.8V7C7.6,7,4,9.2,4,9.2z M9,10H8V9h1V10z"/>
	<polygon fill="#FFFFFF" points="14,1 14,2 10,2 7,4 2,9 1,9 0,8 0,7 0,5 1,5 2,5 2,7 1,6 1,8 2,8 7,3 10,1 	"/>
</g>
</svg>
