<?xml version="1.0" encoding="utf-8"?>
<!-- Generator: Adobe Illustrator 22.1.0, SVG Export Plug-In . SVG Version: 6.00 Build 0)  -->
<svg version="1.1" id="Layer_1" xmlns="http://www.w3.org/2000/svg" xmlns:xlink="http://www.w3.org/1999/xlink" x="0px" y="0px"
	 width="30px" height="30px" viewBox="0 0 30 30" enable-background="new 0 0 30 30" xml:space="preserve">
<path fill="#FFFFFF" d="M1.7,18.4L1.7,18.4C1.7,18.4,1.7,18.4,1.7,18.4C1.7,18.4,1.7,18.4,1.7,18.4L3,18.4c0.1,0,0.1-0.1,0.1-0.1
	c0-0.1,0-0.1-0.1-0.1l-1.2-0.6c0,0,0,0,0-0.1c0,0,0,0,0-0.1l0,0c0,0,3-2.7,9.7-0.1l1.8-0.9c0,0,0,0,0.1,0c0.1,0,0.1,0.1,0.1,0.1
	c0,0,0,0.1,0,0.1l-1.1,1.4l1.1,1.4c0,0,0,0.1,0,0.1c0,0.1-0.1,0.1-0.1,0.1c0,0,0,0-0.1,0l-1.8-0.9C11.7,18.7,5.2,21.3,1.7,18.4z
	 M4,18.1c0.3,0,0.6-0.3,0.6-0.6c0-0.3-0.3-0.6-0.6-0.6c-0.3,0-0.6,0.3-0.6,0.6C3.4,17.9,3.7,18.1,4,18.1z"/>
<path fill="#FFFFFF" d="M16.8,18.4L16.8,18.4C16.8,18.4,16.8,18.4,16.8,18.4C16.8,18.4,16.8,18.4,16.8,18.4l1.3-0.1c0.1,0,0.1-0.1,0.1-0.1
	c0-0.1,0-0.1-0.1-0.1L17,17.6c0,0,0,0,0-0.1c0,0,0,0,0-0.1l0,0c0,0,3-2.7,9.8-0.1l1.8-0.9c0,0,0,0,0.1,0c0.1,0,0.1,0.1,0.1,0.1
	c0,0,0,0.1,0,0.1l-1.1,1.4l1.1,1.4c0,0,0,0.1,0,0.1c0,0.1-0.1,0.1-0.1,0.1c0,0,0,0-0.1,0l-1.8-0.9C26.7,18.7,20.3,21.3,16.8,18.4z
	 M19,18.1c0.3,0,0.6-0.3,0.6-0.6c0-0.3-0.3-0.6-0.6-0.6c-0.3,0-0.6,0.3-0.6,0.6C18.5,17.9,18.7,18.1,19,18.1z"/>
<path fill="#FFFFFF" d="M9.3,24.1L9.3,24.1C9.3,24.1,9.3,24.1,9.3,24.1C9.3,24,9.3,24,9.3,24.1l1.3-0.1c0.1,0,0.1-0.1,0.1-0.1c0,0,0-0.1-0.1-0.1
	l-1.2-0.6c0,0,0,0,0-0.1c0,0,0,0,0-0.1l0,0c0,0,3-2.7,9.8-0.1l1.8-0.9c0,0,0,0,0.1,0c0.1,0,0.1,0.1,0.1,0.1c0,0,0,0.1,0,0.1
	l-1.1,1.4l1.1,1.4c0,0,0,0,0,0.1c0,0.1-0.1,0.1-0.1,0.1c0,0,0,0-0.1,0l-1.8-0.9C19.2,24.3,12.8,26.9,9.3,24.1z M11.6,23.7
	c0.3,0,0.6-0.3,0.6-0.6c0-0.3-0.3-0.6-0.6-0.6c-0.3,0-0.6,0.3-0.6,0.6C11,23.5,11.2,23.7,11.6,23.7z"/>
<path fill="#FFFFFF" d="M27.2,9.1l2.7-3.4C30,5.6,30,5.6,30,5.5c0-0.2-0.2-0.4-0.4-0.4c-0.1,0-0.1,0-0.1,0l-4.6,2.3C8.1,0.9,0.5,7.6,0.5,7.6
	c0,0-0.1,0.1-0.1,0.1c0,0.1,0,0.1,0.1,0.2l2.9,1.4c0.1,0.1,0.2,0.1,0.2,0.3c0,0.2-0.1,0.3-0.3,0.3H0.1C0.1,9.9,0,9.9,0,10
	C0,10,0,10,0,10c8.8,7.1,24.8,0.7,24.8,0.7l4.6,2.3c0,0,0.1,0,0.1,0c0.2,0,0.4-0.2,0.4-0.4c0-0.1,0-0.1-0.1-0.2L27.2,9.1z M5.5,9
	C4.7,9,4,8.3,4,7.5S4.7,6,5.5,6S7,6.7,7,7.5S6.3,9,5.5,9z"/>
</svg>
