<?xml version="1.0" encoding="utf-8"?>
<!-- Generator: Adobe Illustrator 20.0.0, SVG Export Plug-In . SVG Version: 6.00 Build 0)  -->
<svg version="1.1" id="Icons" xmlns="http://www.w3.org/2000/svg" xmlns:xlink="http://www.w3.org/1999/xlink" x="0px" y="0px"
	 width="30px" height="30px" viewBox="0 0 30 30" style="enable-background:new 0 0 30 30;" xml:space="preserve">
<g>
	<path fill="#231F20" d="M27,1c-4.5,0-8.9,2-13.8,6c-0.2,0-0.6-0.2-0.6-0.2c-0.8,0-1.4,0.6-1.4,1.4c0,0,0.1,0.3,0.1,0.4c-0.2,0.1-4,3.7-4,3.7
		l-3.4,3.2c-0.3,0.3-0.7,0.4-1.2,0.4c-0.4,0-0.8-0.2-1.1-0.5s-0.4-0.7-0.4-1.1c0-0.4,0.2-0.9,0.5-1.2c0,0,0.3-0.1,0.5-0.3
		c0,0.3,0.2,1.2,0.2,1.2l2.8-3.5l-3.1,1C1.3,11.8,1,12.2,1,12.2c-1.1,1-1.2,2.8-0.2,3.9s2.8,1.2,4,0.2l0,0L8,13.2c0,0,4-3.8,4.1-3.9
		c0.2,0,0.6,0.1,0.6,0.1c0.8,0,1.4-0.6,1.4-1.4c0,0,0-0.2-0.1-0.4c4.8-3.9,9-5.8,13.1-5.8c0.9,0,1.5,0.1,2.7,0.3H30V1.4h-0.2
		C28.7,1.1,27.9,1,27,1z"/>
	<path fill="#231F20" d="M9.9,18.7C9.8,18.8,9,18.9,9,19s0.8,0.2,0.9,0.3l5.2,2.5c0.2,0.1,0.3,0.3,0.3,0.5c0,0.3-0.2,0.8-0.4,0.8H9
		c-0.1,0,0-0.1,0,0h0.1c5.8,4.7,13.6,6,20.9,6V13C16.4,13,9.9,18.7,9.9,18.7z M19,19h-1v1h-1v-2h2V19z"/>
</g>
</svg>
