<?xml version="1.0" encoding="utf-8"?>
<!-- Generator: Adobe Illustrator 20.0.0, SVG Export Plug-In . SVG Version: 6.00 Build 0)  -->
<svg version="1.1" id="Icons" xmlns="http://www.w3.org/2000/svg" xmlns:xlink="http://www.w3.org/1999/xlink" x="0px" y="0px"
	 width="22px" height="22px" viewBox="0 0 22 22" style="enable-background:new 0 0 22 22;" xml:space="preserve">
<g>
	<path fill="#231F20" d="M6.1,13.6L6,13.8L6.1,14l3.9,1c0.2,0.1,0.2,1,0,1H6.1L6,16.1v0.1c4.3,3.4,9.2,4.8,15,4.8V9C11,9,6.1,13.6,6.1,13.6z M13,14
		h-1v-1h1V14z"/>
	<path fill="#231F20" d="M19,1c-3.3,0-5.7,1.5-9.3,4.5c-0.1,0-0.4-0.1-0.4-0.1c-0.6,0-1,0.5-1,1c0,0,0,0.2,0.1,0.3C8.1,6.8,5.3,9.5,5.3,9.5L3,12
		c-0.2,0.2-0.7,0-1,0s-0.6,0-0.8-0.3c-0.2-0.2-0.3-0.5-0.3-0.8S1,10.3,1.3,10c0,0,0.2-0.1,0.3-0.2c0,0.2,0.1,0.9,0.1,0.9L4,8
		L1.5,8.9C0.9,9.1,0.7,9.4,0.6,9.4c-0.8,0.7-0.9,1.8-0.1,2.9C2,12.9,1.4,12.8,3,13l1-1l1.8-1.8c0,0,2.9-2.8,3-2.8
		c0.1,0,0.4,0.1,0.4,0.1c0.6,0,1-0.5,1-1c0,0,0-0.2,0-0.3C13.7,3.3,15.9,2,19,2c0.6,0,3,0,3,0V1H19z"/>
</g>
</svg>
