<?xml version="1.0" encoding="utf-8"?>
<!-- Generator: Adobe Illustrator 22.1.0, SVG Export Plug-In . SVG Version: 6.00 Build 0)  -->
<svg version="1.1" id="Layer_1" xmlns="http://www.w3.org/2000/svg" xmlns:xlink="http://www.w3.org/1999/xlink" x="0px" y="0px"
	 width="22px" height="22px" viewBox="0 0 22 22" enable-background="new 0 0 22 22" xml:space="preserve">
<path fill="#FFFFFF" d="M1.3,13.5L1.3,13.5C1.3,13.5,1.3,13.5,1.3,13.5C1.3,13.5,1.3,13.5,1.3,13.5l1-0.1c0,0,0.1,0,0.1-0.1c0,0,0-0.1,0-0.1
	l-0.8-0.4c0,0,0,0,0,0c0,0,0,0,0,0l0,0c0,0,2.2-2,7.1-0.1l1.4-0.7c0,0,0,0,0,0c0.1,0,0.1,0,0.1,0.1c0,0,0,0,0,0.1l-0.8,1l0.8,1
	c0,0,0,0,0,0.1c0,0.1,0,0.1-0.1,0.1c0,0,0,0,0,0l-1.4-0.7C8.5,13.7,3.8,15.6,1.3,13.5z M2.9,13.3c0.2,0,0.4-0.2,0.4-0.4
	c0-0.2-0.2-0.4-0.4-0.4c-0.2,0-0.4,0.2-0.4,0.4C2.5,13.1,2.7,13.3,2.9,13.3z"/>
<path fill="#FFFFFF" d="M12.3,13.5L12.3,13.5C12.3,13.5,12.3,13.5,12.3,13.5C12.3,13.5,12.3,13.5,12.3,13.5l1-0.1c0,0,0.1,0,0.1-0.1
	c0,0,0-0.1-0.1-0.1l-0.8-0.4c0,0,0,0,0,0c0,0,0,0,0,0l0,0c0,0,2.2-2,7.2-0.1l1.3-0.7c0,0,0,0,0,0c0.1,0,0.1,0,0.1,0.1c0,0,0,0,0,0.1
	l-0.8,1l0.8,1c0,0,0,0,0,0.1c0,0.1,0,0.1-0.1,0.1c0,0,0,0,0,0l-1.3-0.7C19.6,13.7,14.9,15.6,12.3,13.5z M14,13.3
	c0.2,0,0.4-0.2,0.4-0.4c0-0.2-0.2-0.4-0.4-0.4c-0.2,0-0.4,0.2-0.4,0.4C13.5,13.1,13.7,13.3,14,13.3z"/>
<path fill="#FFFFFF" d="M7.2,17.7L7.2,17.7C7.2,17.6,7.2,17.6,7.2,17.7C7.2,17.6,7.2,17.6,7.2,17.7l1-0.1c0,0,0.1,0,0.1-0.1c0,0,0-0.1-0.1-0.1
	L7.3,17c0,0,0,0,0,0c0,0,0,0,0,0l0,0c0,0,2.2-2,7.2-0.1l1.3-0.7c0,0,0,0,0,0c0.1,0,0.1,0,0.1,0.1c0,0,0,0,0,0.1l-0.8,1l0.8,1
	c0,0,0,0,0,0.1c0,0.1,0,0.1-0.1,0.1c0,0,0,0,0,0l-1.3-0.7C14.5,17.9,9.8,19.7,7.2,17.7z M8.9,17.4c0.2,0,0.4-0.2,0.4-0.4
	c0-0.2-0.2-0.4-0.4-0.4c-0.2,0-0.4,0.2-0.4,0.4C8.4,17.2,8.6,17.4,8.9,17.4z"/>
<path fill="#FFFFFF" d="M20,6.7l2-2.5c0,0,0-0.1,0-0.1c0-0.1-0.1-0.3-0.3-0.3c0,0-0.1,0-0.1,0l-3.4,1.7C5.9,0.7,0.4,5.6,0.4,5.6c0,0,0,0.1,0,0.1
	c0,0.1,0,0.1,0.1,0.1l2.1,1c0.1,0,0.1,0.1,0.1,0.2c0,0.1-0.1,0.2-0.2,0.2H0.1c0,0-0.1,0-0.1,0.1c0,0,0,0,0,0.1
	c6.4,5.2,18.2,0.5,18.2,0.5l3.4,1.7c0,0,0.1,0,0.1,0c0.1,0,0.3-0.1,0.3-0.3c0-0.1,0-0.1,0-0.1L20,6.7z M4,7C3.4,7,3,6.6,3,6
	c0-0.6,0.4-1,1-1s1,0.4,1,1C5,6.6,4.6,7,4,7z"/>
</svg>
