<?xml version="1.0" encoding="utf-8"?>
<!-- Generator: Adobe Illustrator 22.0.1, SVG Export Plug-In . SVG Version: 6.00 Build 0)  -->
<svg version="1.1" id="Layer_1" xmlns="http://www.w3.org/2000/svg" xmlns:xlink="http://www.w3.org/1999/xlink" x="0px" y="0px"
	 width="30px" height="30px" viewBox="0 0 30 30" enable-background="new 0 0 30 30" xml:space="preserve">
<rect fill="#FFFFFF" x="4" y="6" width="22" height="2"/>
<rect fill="#FFFFFF" x="4" y="10" width="16" height="2"/>
<rect fill="#FFFFFF" x="4" y="2" width="22" height="2"/>
<path fill="#FFFFFF" d="M7.3,16.9c0-0.9-0.7-1.6-1.6-1.6C4.8,15.3,4,16,4,16.9c0,0.7,0.4,1.2,1,1.5c0,0.4-0.1,7.8-0.1,7.8c0,0.5-0.2,0.9-0.6,1.2
	C4,27.8,3.5,28,3.1,27.9c-0.5,0-0.9-0.2-1.2-0.5c-0.3-0.3-0.6-0.8-0.6-1.3c0,0,0.1-0.3,0.1-0.6c0.3,0.2,1.1,0.8,1.1,0.8l-0.7-4.9
	l-1.5,3.2C-0.1,25.5,0,26.1,0,26.1c0,1.7,1.3,3.1,3,3.1c1.7,0,3.1-1.3,3.2-3l0-0.1c0,0,0-7.4,0-7.8C6.8,18.2,7.3,17.6,7.3,16.9z"/>
<path fill="#FFFFFF" d="M10.4,19.9c-0.1,0.1-0.1,0.1-0.1,0.2c0,0.1,0.1,0.2,0.2,0.3l5.1,2.4c0.2,0.1,0.3,0.3,0.3,0.5c0,0.3-0.2,0.5-0.5,0.5l-5.7,0
	c-0.1,0-0.2,0.1-0.2,0.2c0,0.1,0,0.1,0.1,0.1c5.7,4.6,13.2,6,20.4,5.9V14.5C16.6,14.4,10.4,19.9,10.4,19.9z M18.5,22
	c-0.8,0-1.5-0.7-1.5-1.5s0.7-1.5,1.5-1.5s1.5,0.7,1.5,1.5S19.3,22,18.5,22z"/>
</svg>
