<?xml version="1.0" encoding="utf-8"?>
<!-- Generator: Adobe Illustrator 22.1.0, SVG Export Plug-In . SVG Version: 6.00 Build 0)  -->
<svg version="1.1" id="Layer_1" xmlns="http://www.w3.org/2000/svg" xmlns:xlink="http://www.w3.org/1999/xlink" x="0px" y="0px"
	 width="30px" height="30px" viewBox="0 0 30 30" enable-background="new 0 0 30 30" xml:space="preserve">
<path d="M4.8,8c0.9,0,1.5,0.7,1.5,1.5l0,2.2c0,2.4,1.9,4.3,4.3,4.3h3.6c0.9,0,1.5,0.7,1.5,1.5v2.2c0,2.4,1.9,4.3,4.3,4.3h3.7
	c0.9,0,1.5,0.7,1.5,1.5v4.3h2.8v-4.3c0-2.4-1.9-4.3-4.3-4.3l-3.6,0c-0.9,0-1.5-0.7-1.5-1.5l0-2.2c0-2.4-1.9-4.3-4.3-4.3h-3.6
	c-0.9,0-1.5-0.7-1.5-1.5l0-2.2c0-2.4-1.9-4.3-4.3-4.3H0v2.8L4.8,8z"/>
<path d="M11.9,0.9c-0.1-0.1-0.1-0.1-0.1-0.2c0-0.1,0.1-0.3,0.2-0.3c1-0.3,5.3-1.3,10.7,2.7L25,2.7l2.2,3L25.7,6c2.2,3.2,2.1,7.4,2,9
	l2.3,3.7c0,0,0,0.1,0,0.1c0,0.2-0.1,0.3-0.3,0.3c-0.1,0-0.1,0-0.1,0l-3.2-1.4l-3.2,1.4c0,0-0.1,0-0.1,0c-0.2,0-0.3-0.1-0.3-0.3
	c0,0,0-0.1,0-0.1l2.3-3.7c0-3.9-4.4-5.7-5.6-6.1c-2.3-0.8-7.5-4.2-8.7-7c0,0,0-0.1,0-0.1c0-0.2,0.1-0.3,0.3-0.3c0.1,0,0.1,0,0.2,0.1
	l1.5,1.1c0,0,0.1,0.1,0.1,0.1c0.1,0,0.2-0.1,0.2-0.2c0-0.1,0-0.1-0.1-0.1L11.9,0.9z"/>
</svg>
