<?xml version="1.0" encoding="utf-8"?>
<!-- Generator: Adobe Illustrator 21.1.0, SVG Export Plug-In . SVG Version: 6.00 Build 0)  -->
<svg version="1.1" id="Layer_1" xmlns="http://www.w3.org/2000/svg" xmlns:xlink="http://www.w3.org/1999/xlink" x="0px" y="0px"
	 width="30px" height="30px" viewBox="0 0 30 30" enable-background="new 0 0 30 30" xml:space="preserve">
<path d="M0.891,19.477L0.891,19.477c-0.021-0.021-0.028-0.042-0.028-0.07c0-0.056,0.042-0.105,0.105-0.105l4.039,1.007
	c0.155,0,0.274-0.119,0.274-0.267c0-0.112-0.056-0.189-0.169-0.253l-3.758-2.312c-0.049-0.035-0.084-0.091-0.084-0.155
	c0-0.049,0.021-0.098,0.049-0.126l0,0c0,0,7.977-7.054,23.256-0.197l4.401-2.148c0.042-0.021,0.091-0.035,0.148-0.035
	c0.182,0,0.337,0.154,0.337,0.337c0,0.07-0.021,0.126-0.049,0.175l-2.597,3.229l2.597,3.228c0.028,0.049,0.049,0.112,0.049,0.175
	c0,0.19-0.155,0.344-0.337,0.344c-0.056,0-0.105-0.014-0.148-0.035l-4.401-2.155C24.575,20.116,9,27,0.891,19.477z M5.497,18.546
	c0.582,0,1.042-0.463,1.042-1.042c0-0.586-0.46-1.049-1.042-1.049c-0.576,0-1.035,0.463-1.035,1.049
	C4.461,18.082,4.921,18.546,5.497,18.546z"/>
<path d="M28,7h-9v4h9c1.105,0,2-0.895,2-2C30,7.895,29.105,7,28,7z"/>
<path d="M9,11c2,0,9,0,9,0V7H0C0,7,5,11,9,11z"/>
</svg>
