<?xml version="1.0" encoding="utf-8"?>
<!-- Generator: Adobe Illustrator 25.4.1, SVG Export Plug-In . SVG Version: 6.00 Build 0)  -->
<svg version="1.1" id="Layer_1" xmlns="http://www.w3.org/2000/svg" xmlns:xlink="http://www.w3.org/1999/xlink" x="0px" y="0px"
	 width="14px" height="14px" viewBox="0 0 14 14" enable-background="new 0 0 14 14" xml:space="preserve">
<path fill="#231F20" d="M6.4,0c0.5,0,0.9,0.4,0.9,0.9S6.9,1.8,6.4,1.8S5.5,1.4,5.5,0.9S5.9,0,6.4,0z"/>
<path fill="#231F20" d="M13,0l-1,0.2L9.2,3.1L9.1,3c0,0-1,0-1.3,0C7.6,2.8,6.4,1.6,6.4,1.6C6.3,1.5,6.2,1.5,6.1,1.5
	c-0.3-0.2-0.7-0.2-0.9,0l-3.1,2C2.1,3.6,2,3.7,2,3.8V6H0v1h2v2.6c-0.2,0.4,1.1,0.8,1.5,0.8S4,9.6,4,9.6V7h2v3H0v1h7V7h1V6H4V5.3
	l2.2-1.7L7,4.3C7.1,4.4,7.4,5,7.4,5h1.2C8.8,5,9,4.8,9,4.6c0-0.1,0-0.1,0-0.1c0.8-0.7,2.6-2.3,3-2.6c0,0.7,0,9.1,0,9.1h1V1
	C13,0.9,13,0,13,0z"/>
<path fill="#231F20" d="M14,14c-0.3,0-0.6-0.1-0.8-0.2c-0.3-0.1-0.6-0.5-0.9-0.5c-0.3,0-0.6,0.4-0.9,0.5c-0.2,0.1-0.5,0.2-0.8,0.2
	s-0.6-0.1-0.8-0.2c-0.3-0.1-0.6-0.5-0.9-0.5c-0.3,0-0.6,0.4-0.9,0.5C7.8,13.9,7.5,14,7.2,14s-0.6-0.1-0.8-0.2
	c-0.3-0.1-0.6-0.5-0.9-0.5s-0.6,0.4-0.9,0.5C4.4,13.9,4.1,14,3.8,14S3.2,13.9,3,13.8c-0.3-0.1-0.6-0.5-0.9-0.5s-0.6,0.4-0.9,0.5
	C1,13.9,0.7,14,0.4,14v-1.2c0.3,0,0.6-0.1,0.8-0.2c0.3-0.1,0.6-0.5,0.9-0.5s0.6,0.4,0.9,0.5s0.5,0.2,0.8,0.2s0.6-0.1,0.8-0.2
	c0.3-0.1,0.6-0.5,0.9-0.5s0.6,0.4,0.9,0.5s0.5,0.2,0.8,0.2s0.6-0.1,0.8-0.2c0.3-0.1,0.6-0.5,0.9-0.5s0.6,0.4,0.9,0.5
	c0.3,0.1,0.5,0.2,0.8,0.2s0.6-0.1,0.8-0.2c0.3-0.1,0.6-0.5,0.9-0.5c0.3,0,0.6,0.4,0.9,0.5c0.3,0.1,0.5,0.2,0.8,0.2
	C14,12.8,14,14,14,14z"/>
</svg>
