<?xml version="1.0" encoding="utf-8"?>
<!-- Generator: Adobe Illustrator 18.1.1, SVG Export Plug-In . SVG Version: 6.00 Build 0)  -->
<svg version="1.1" id="Icons" xmlns="http://www.w3.org/2000/svg" xmlns:xlink="http://www.w3.org/1999/xlink" x="0px" y="0px"
	 viewBox="0 0 32 32" enable-background="new 0 0 32 32" xml:space="preserve">
<g opacity="0.5">
	<path d="M29,3c-4.5,0-8.9,2-13.8,6c-0.2,0-0.6-0.2-0.6-0.2c-0.8,0-1.4,0.6-1.4,1.4c0,0,0.1,0.3,0.1,0.4c-0.2,0.1-4,3.7-4,3.7
		l-3.4,3.2c-0.3,0.3-0.7,0.4-1.2,0.4c-0.4,0-0.8-0.2-1.1-0.5c-0.3-0.3-0.4-0.7-0.4-1.1c0-0.4,0.2-0.9,0.5-1.2c0,0,0.3-0.1,0.5-0.3
		c0,0.3,0.2,1.2,0.2,1.2l2.8-3.5l-3.1,1c-0.8,0.3-1.1,0.7-1.1,0.7c-1.1,1-1.2,2.8-0.2,3.9c1,1.1,2.8,1.2,4,0.2l0,0l3.2-3.1
		c0,0,4-3.8,4.1-3.9c0.2,0,0.6,0.1,0.6,0.1c0.8,0,1.4-0.6,1.4-1.4c0,0,0-0.2-0.1-0.4c4.8-3.9,9-5.8,13.1-5.8c0.9,0,1.5,0.1,2.7,0.3
		l0.2,0V3.4l-0.2,0C30.7,3.1,29.9,3,29,3z"/>
	<path d="M11.9,20.7C11.8,20.8,11,20.9,11,21c0,0.1,0.8,0.2,0.9,0.3l5.2,2.5c0.2,0.1,0.3,0.3,0.3,0.5c0,0.3-0.2,0.8-0.4,0.8h-6
		c-0.1,0,0-0.1,0,0l0.1,0c5.8,4.7,13.6,6,20.9,6V15C18.4,15,11.9,20.7,11.9,20.7z M21,21h-1v1h-1v-2h2V21z"/>
</g>
<g opacity="0.75">
	<path d="M28,2c-4.5,0-8.9,2-13.8,6c-0.2,0-0.6-0.2-0.6-0.2c-0.8,0-1.4,0.6-1.4,1.4c0,0,0.1,0.3,0.1,0.4c-0.2,0.1-4,3.7-4,3.7
		l-3.4,3.2c-0.3,0.3-0.7,0.4-1.2,0.4c-0.4,0-0.8-0.2-1.1-0.5c-0.3-0.3-0.4-0.7-0.4-1.1c0-0.4,0.2-0.9,0.5-1.2c0,0,0.3-0.1,0.5-0.3
		c0,0.3,0.2,1.2,0.2,1.2l2.8-3.5l-3.1,1c-0.8,0.3-1.1,0.7-1.1,0.7c-1.1,1-1.2,2.8-0.2,3.9c1,1.1,2.8,1.2,4,0.2l0,0l3.2-3.1
		c0,0,4-3.8,4.1-3.9c0.2,0,0.6,0.1,0.6,0.1c0.8,0,1.4-0.6,1.4-1.4c0,0,0-0.2-0.1-0.4c4.8-3.9,9-5.8,13.1-5.8c0.9,0,1.5,0.1,2.7,0.3
		l0.2,0V2.4l-0.2,0C29.7,2.1,28.9,2,28,2z"/>
	<path d="M10.9,19.7C10.8,19.8,10,19.9,10,20c0,0.1,0.8,0.2,0.9,0.3l5.2,2.5c0.2,0.1,0.3,0.3,0.3,0.5c0,0.3-0.2,0.8-0.4,0.8h-6
		c-0.1,0,0-0.1,0,0l0.1,0c5.8,4.7,13.6,6,20.9,6V14C17.4,14,10.9,19.7,10.9,19.7z M20,20h-1v1h-1v-2h2V20z"/>
</g>
<g>
	<path fill="#E6E6E6" d="M27,1c-4.5,0-8.9,2-13.8,6c-0.2,0-0.6-0.2-0.6-0.2c-0.8,0-1.4,0.6-1.4,1.4c0,0,0.1,0.3,0.1,0.4
		c-0.2,0.1-4,3.7-4,3.7l-3.4,3.2c-0.3,0.3-0.7,0.4-1.2,0.4c-0.4,0-0.8-0.2-1.1-0.5c-0.3-0.3-0.4-0.7-0.4-1.1c0-0.4,0.2-0.9,0.5-1.2
		c0,0,0.3-0.1,0.5-0.3c0,0.3,0.2,1.2,0.2,1.2l2.8-3.5l-3.1,1c-0.8,0.3-1.1,0.7-1.1,0.7c-1.1,1-1.2,2.8-0.2,3.9c1,1.1,2.8,1.2,4,0.2
		l0,0l3.2-3.1c0,0,4-3.8,4.1-3.9c0.2,0,0.6,0.1,0.6,0.1c0.8,0,1.4-0.6,1.4-1.4c0,0,0-0.2-0.1-0.4c4.8-3.9,9-5.8,13.1-5.8
		c0.9,0,1.5,0.1,2.7,0.3l0.2,0V1.4l-0.2,0C28.7,1.1,27.9,1,27,1z"/>
	<path fill="#E6E6E6" d="M9.9,18.7C9.8,18.8,9,18.9,9,19c0,0.1,0.8,0.2,0.9,0.3l5.2,2.5c0.2,0.1,0.3,0.3,0.3,0.5
		c0,0.3-0.2,0.8-0.4,0.8H9c-0.1,0,0-0.1,0,0l0.1,0c5.8,4.7,13.6,6,20.9,6V13C16.4,13,9.9,18.7,9.9,18.7z M19,19h-1v1h-1v-2h2V19z"/>
</g>
</svg>
