<?xml version="1.0" encoding="utf-8"?>
<!-- Generator: Adobe Illustrator 22.1.0, SVG Export Plug-In . SVG Version: 6.00 Build 0)  -->
<svg version="1.1" id="Layer_1" xmlns="http://www.w3.org/2000/svg" xmlns:xlink="http://www.w3.org/1999/xlink" x="0px" y="0px"
	 width="14px" height="14px" viewBox="0 0 14 14" enable-background="new 0 0 14 14" xml:space="preserve">
<path fill="#FFFFFF" d="M2.3,3.7C2.6,3.7,3,4,3,4.4l0,1c0,1.1,0.9,2,2,2h1.7c0.4,0,0.7,0.3,0.7,0.7v1c0,1.1,0.9,2,2,2h1.7c0.4,0,0.7,0.3,0.7,0.7v2
	h1.3v-2c0-1.1-0.9-2-2-2l-1.7,0C9,10,8.7,9.6,8.7,9.2l0-1c0-1.1-0.9-2-2-2H5c-0.4,0-0.7-0.3-0.7-0.7l0-1c0-1.1-0.9-2-2-2H0v1.3
	L2.3,3.7z"/>
<path fill="#FFFFFF" d="M5.6,0.4c0,0,0-0.1,0-0.1c0-0.1,0-0.1,0.1-0.1c0.5-0.1,2.5-0.6,5,1.3l1-0.2l1,1.4L12,2.8c1,1.5,1,3.4,0.9,4.2L14,8.8
	c0,0,0,0,0,0.1C14,8.9,13.9,9,13.9,9c0,0,0,0-0.1,0l-1.5-0.6l-1.5,0.6c0,0,0,0-0.1,0c-0.1,0-0.1-0.1-0.1-0.1c0,0,0,0,0-0.1L11.7,7
	c0-1.8-2.1-2.7-2.6-2.8C8,3.8,5.6,2.2,5,0.9c0,0,0,0,0-0.1c0-0.1,0.1-0.2,0.2-0.2c0,0,0.1,0,0.1,0L6,1.3c0,0,0,0,0.1,0
	c0,0,0.1,0,0.1-0.1c0,0,0-0.1,0-0.1L5.6,0.4z"/>
</svg>
