<?xml version="1.0" encoding="utf-8"?>
<!-- Generator: Adobe Illustrator 21.1.0, SVG Export Plug-In . SVG Version: 6.00 Build 0)  -->
<svg version="1.1" id="Layer_1" xmlns="http://www.w3.org/2000/svg" xmlns:xlink="http://www.w3.org/1999/xlink" x="0px" y="0px"
	 width="22px" height="22px" viewBox="0 0 22 22" enable-background="new 0 0 22 22" xml:space="preserve">
<path fill="#FFFFFF" d="M19.663,13.455l1.904-2.368c0.021-0.036,0.036-0.077,0.036-0.129c0-0.134-0.113-0.247-0.247-0.247
	c-0.041,0-0.077,0.01-0.108,0.026l-3.227,1.575C6.688,7.188,0.967,12.456,0.967,12.456c-0.021,0.021-0.036,0.056-0.036,0.092
	c0,0.046,0.026,0.088,0.062,0.113l3.023,1.962c0.082,0.046,0.124,0.103,0.124,0.185c0,0.108-0.087,0.196-0.201,0.196L0.71,14
	c-0.046,0-0.077,0.036-0.077,0.077c0,0.021,0.005,0.036,0.021,0.051c5.284,6.059,17.368,0.469,17.368,0.469l3.227,1.58
	c0.031,0.015,0.067,0.026,0.108,0.026c0.134,0,0.247-0.113,0.247-0.252c0-0.046-0.016-0.093-0.036-0.129L19.663,13.455z M4.5,13.5
	c-0.552,0-1-0.448-1-1c0-0.552,0.448-1,1-1c0.552,0,1,0.448,1,1C5.5,13.052,5.052,13.5,4.5,13.5z"/>
<path fill="#FFFFFF" d="M20.5,5H14v3h6.5C21.328,8,22,7.328,22,6.5S21.328,5,20.5,5z"/>
<path fill="#FFFFFF" d="M6,8c2,0,7,0,7,0V5H0C0,5,3,8,6,8z"/>
</svg>
