<?xml version="1.0" encoding="utf-8"?>
<!-- Generator: Adobe Illustrator 22.1.0, SVG Export Plug-In . SVG Version: 6.00 Build 0)  -->
<svg version="1.1" id="Layer_1" xmlns="http://www.w3.org/2000/svg" xmlns:xlink="http://www.w3.org/1999/xlink" x="0px" y="0px"
	 width="14px" height="14px" viewBox="0 0 14 14" enable-background="new 0 0 14 14" xml:space="preserve">
<path d="M0.8,8.6L0.8,8.6C0.8,8.6,0.8,8.6,0.8,8.6C0.8,8.6,0.8,8.6,0.8,8.6l0.6,0c0,0,0.1,0,0.1-0.1c0,0,0,0,0,0L0.9,8.2
	c0,0,0,0,0,0c0,0,0,0,0,0l0,0c0,0,1.4-1.3,4.5,0l0.9-0.4c0,0,0,0,0,0c0,0,0.1,0,0.1,0.1c0,0,0,0,0,0L5.9,8.4l0.5,0.6c0,0,0,0,0,0
	c0,0,0,0.1-0.1,0.1c0,0,0,0,0,0L5.4,8.7C5.4,8.7,2.4,9.9,0.8,8.6z M1.9,8.5c0.1,0,0.3-0.1,0.3-0.3C2.1,8,2,7.9,1.9,7.9
	C1.7,7.9,1.6,8,1.6,8.2C1.6,8.3,1.7,8.5,1.9,8.5z"/>
<path d="M7.8,8.6L7.8,8.6C7.8,8.6,7.8,8.6,7.8,8.6C7.8,8.6,7.8,8.6,7.8,8.6l0.6,0c0,0,0.1,0,0.1-0.1c0,0,0,0,0,0L7.9,8.2
	c0,0,0,0,0,0c0,0,0,0,0,0l0,0c0,0,1.4-1.3,4.6,0l0.9-0.4c0,0,0,0,0,0c0,0,0.1,0,0.1,0.1c0,0,0,0,0,0l-0.5,0.6l0.5,0.6c0,0,0,0,0,0
	c0,0,0,0.1-0.1,0.1c0,0,0,0,0,0l-0.9-0.4C12.5,8.7,9.5,9.9,7.8,8.6z M8.9,8.5c0.1,0,0.3-0.1,0.3-0.3C9.2,8,9,7.9,8.9,7.9
	C8.7,7.9,8.6,8,8.6,8.2C8.6,8.3,8.7,8.5,8.9,8.5z"/>
<path d="M4.3,11.6L4.3,11.6C4.3,11.6,4.3,11.6,4.3,11.6C4.3,11.6,4.3,11.6,4.3,11.6l0.6,0c0,0,0.1,0,0.1-0.1c0,0,0,0,0,0l-0.5-0.3
	c0,0,0,0,0,0c0,0,0,0,0,0l0,0c0,0,1.4-1.3,4.6,0l0.9-0.4c0,0,0,0,0,0c0,0,0.1,0,0.1,0.1c0,0,0,0,0,0l-0.5,0.6l0.5,0.6c0,0,0,0,0,0
	c0,0,0,0.1-0.1,0.1c0,0,0,0,0,0L9,11.7C9,11.7,6,12.9,4.3,11.6z M5.4,11.4c0.1,0,0.3-0.1,0.3-0.3c0-0.1-0.1-0.3-0.3-0.3
	c-0.2,0-0.3,0.1-0.3,0.3C5.1,11.3,5.2,11.4,5.4,11.4z"/>
<path d="M12.7,4L14,2.5c0,0,0-0.1,0-0.1c0-0.1-0.1-0.2-0.2-0.2c0,0,0,0-0.1,0l-2.2,1.1C3.8,0.2,0.2,3.4,0.2,3.4c0,0,0,0,0,0.1
	c0,0,0,0.1,0,0.1l1.4,0.6c0.1,0,0.1,0.1,0.1,0.1c0,0.1-0.1,0.1-0.1,0.1H0.1c0,0-0.1,0-0.1,0c0,0,0,0,0,0c4.1,3.3,11.6,0.3,11.6,0.3
	l2.2,1.1c0,0,0,0,0.1,0c0.1,0,0.2-0.1,0.2-0.2c0,0,0-0.1,0-0.1L12.7,4z M3,4H2V3h1V4z"/>
</svg>
