<?xml version="1.0" encoding="utf-8"?>
<!-- Generator: Adobe Illustrator 21.1.0, SVG Export Plug-In . SVG Version: 6.00 Build 0)  -->
<svg version="1.1" id="Layer_1" xmlns="http://www.w3.org/2000/svg" xmlns:xlink="http://www.w3.org/1999/xlink" x="0px" y="0px"
	 width="30px" height="30px" viewBox="0 0 30 30" enable-background="new 0 0 30 30" xml:space="preserve">
<circle cx="15" cy="2.1" r="2"/>
<path d="M28.2,27c-0.6-0.3-1.2-0.5-1.8-0.5c-0.6,0-1.2,0.2-1.8,0.5c-0.6,0.3-1.2,0.5-1.8,0.5s-1.2-0.2-1.8-0.5
	c-0.6-0.3-1.2-0.5-1.8-0.5s-1.2,0.2-1.8,0.5c-0.6,0.3-1.2,0.5-1.8,0.5c-0.6,0-1.2-0.2-1.8-0.5c-0.6-0.3-1.2-0.5-1.8-0.5
	c-0.6,0-1.2,0.2-1.8,0.5c-0.6,0.3-1.2,0.5-1.8,0.5S7,27.3,6.4,27c-0.6-0.3-1.2-0.5-1.8-0.5S3.4,26.7,2.8,27
	c-0.6,0.3-1.2,0.5-1.8,0.5V30c0.6,0,1.2-0.2,1.8-0.5c0.6-0.3,1.2-0.5,1.8-0.5s1.2,0.2,1.8,0.5C7,29.9,7.6,30,8.2,30s1.2-0.2,1.8-0.5
	c0.6-0.3,1.2-0.5,1.8-0.5c0.6,0,1.2,0.2,1.8,0.5c0.6,0.3,1.2,0.5,1.8,0.5c0.6,0,1.2-0.2,1.8-0.5c0.6-0.3,1.2-0.5,1.8-0.5
	s1.2,0.2,1.8,0.5c0.6,0.3,1.2,0.5,1.8,0.5s1.2-0.2,1.8-0.5c0.6-0.3,1.2-0.5,1.8-0.5s1.2,0.2,1.8,0.5c0.6,0.3,1.2,0.5,1.8,0.5v-2.7
	C29.2,27.3,28.6,27.1,28.2,27z"/>
<path d="M27,0l-6.9,7.1C20,7.1,19.8,7,19.8,7s-2.1,0-2.7,0c-0.4-0.4-3-3-3-3c-0.3-0.1-0.4-0.1-0.6-0.3c-0.6-0.4-1.5-0.4-1.9,0L7.3,8
	C7.1,8.2,7,8.5,7,8.8V12H1v1h6v7c0,0.9,0.7,1.7,1.5,1.7S10,21,10,20v-7h5v9H1v2h15V13h2v-1h-8v-0.9L14.2,7L16,8.7
	C16.1,8.9,16.4,9,16.7,9h2.1C19.5,9,20,8.6,20,8c0-0.1,0-0.3,0-0.3C21.8,6,26,2,27,1.1C27,2.8,27,24,27,24h1V0.1C28,0,27,0,27,0z"/>
</svg>
