<?xml version="1.0" encoding="utf-8"?>
<!-- Generator: Adobe Illustrator 21.1.0, SVG Export Plug-In . SVG Version: 6.00 Build 0)  -->
<svg version="1.1" id="Layer_1" xmlns="http://www.w3.org/2000/svg" xmlns:xlink="http://www.w3.org/1999/xlink" x="0px" y="0px"
	 width="14px" height="14px" viewBox="0 0 14 14" enable-background="new 0 0 14 14" xml:space="preserve">
<path d="M13,3H9v2h4c0.552,0,1-0.448,1-1C14,3.448,13.552,3,13,3z"/>
<polygon points="3,5 8,5 8,3 0,3 "/>
<path d="M12.513,8.998l1.212-1.507c0.013-0.023,0.023-0.049,0.023-0.082c0-0.085-0.072-0.157-0.157-0.157
	c-0.026,0-0.049,0.007-0.069,0.016l-2.054,1.002C4.113,5.585,0.616,8.025,0.616,8.025C0.603,8.038,0.593,8.061,0.593,8.084
	c0,0.029,0.016,0.056,0.039,0.072l2.346,1.273c0.052,0.03,0.079,0.066,0.079,0.118c0,0.069-0.056,0.125-0.128,0.125L0.452,9.007
	c-0.03,0-0.049,0.023-0.049,0.049c0,0.013,0.003,0.023,0.013,0.033c3.641,4.043,11.052,0.636,11.052,0.636l2.054,1.005
	c0.02,0.01,0.043,0.016,0.069,0.016c0.085,0,0.157-0.072,0.157-0.16c0-0.029-0.01-0.059-0.023-0.082L12.513,8.998z M4,9H3V8h1V9z"/>
</svg>
