<?xml version="1.0" encoding="utf-8"?>
<!-- Generator: Adobe Illustrator 21.1.0, SVG Export Plug-In . SVG Version: 6.00 Build 0)  -->
<svg version="1.1" id="Layer_1" xmlns="http://www.w3.org/2000/svg" xmlns:xlink="http://www.w3.org/1999/xlink" x="0px" y="0px"
	 width="22px" height="22px" viewBox="0 0 22 22" enable-background="new 0 0 22 22" xml:space="preserve">
<circle fill="#FFFFFF" cx="10.6" cy="1.5" r="1.4"/>
<path fill="#FFFFFF" d="M20.7,19.8c-0.4-0.2-0.9-0.3-1.3-0.3c-0.4,0-0.9,0.1-1.3,0.3c-0.4,0.2-0.9,0.3-1.3,0.3s-0.9-0.1-1.3-0.3
	c-0.4-0.2-0.9-0.3-1.3-0.3s-0.9,0.1-1.3,0.3c-0.4,0.2-0.9,0.3-1.3,0.3c-0.4,0-0.9-0.1-1.3-0.3c-0.4-0.2-0.9-0.3-1.3-0.3
	c-0.4,0-0.9,0.1-1.3,0.3c-0.4,0.2-0.9,0.3-1.3,0.3c-0.4,0-0.9-0.1-1.3-0.3c-0.4-0.2-0.9-0.3-1.3-0.3s-0.9,0.1-1.3,0.3
	S1.4,20.1,1,20.1V22c0.4,0,0.9-0.1,1.3-0.3c0.4-0.2,0.9-0.3,1.3-0.3s0.9,0.1,1.3,0.3C5.4,21.9,5.8,22,6.2,22c0.4,0,0.9-0.1,1.3-0.3
	c0.4-0.2,0.9-0.3,1.3-0.3s0.9,0.1,1.3,0.3c0.4,0.2,0.9,0.3,1.3,0.3c0.4,0,0.9-0.1,1.3-0.3c0.4-0.2,0.9-0.3,1.3-0.3s0.9,0.1,1.3,0.3
	c0.4,0.2,0.9,0.3,1.3,0.3s0.9-0.1,1.3-0.3c0.4-0.2,0.9-0.3,1.3-0.3s0.9,0.1,1.3,0.3c0.4,0.2,0.9,0.3,1.3,0.3v-2
	C21.5,20,21,19.9,20.7,19.8z"/>
<path fill="#FFFFFF" d="M19.3,0.1l-4.9,5c-0.1,0-0.2-0.1-0.2-0.1s-1.5,0-1.9,0c-0.3-0.3-2.1-2.1-2.1-2.1C9.9,2.8,9.8,2.8,9.7,2.7
	c-0.4-0.3-1.1-0.3-1.4,0L5.2,5.7C5.1,5.8,5,6.1,5,6.3V9H1v1h4v5.2c0,0.7,0.5,1.2,1,1.2s1-0.5,1-1.2V10h4v6H1v1h11v-7h1V9H7V8.4
	l3.2-2.7l1.3,1.1C11.6,6.9,11.8,7,12.1,7h1.1C13.7,7,14,6.7,14,6.3c0-0.1,0-0.2,0-0.2c1.2-1.1,4.3-3.8,5-4.4C19,2.8,19,17,19,17h1
	V0.2C20,0.1,19.3,0.1,19.3,0.1z"/>
</svg>
