<?xml version="1.0" encoding="utf-8"?>
<!-- Generator: Adobe Illustrator 22.0.1, SVG Export Plug-In . SVG Version: 6.00 Build 0)  -->
<svg version="1.1" id="Layer_1" xmlns="http://www.w3.org/2000/svg" xmlns:xlink="http://www.w3.org/1999/xlink" x="0px" y="0px"
	 width="14px" height="14px" viewBox="0 0 14 14" enable-background="new 0 0 14 14" xml:space="preserve">
<path d="M3.4,7.7C3.4,7.3,3.1,7,2.6,7C2.2,7,1.9,7.3,1.9,7.7c0,0.3,0.2,0.6,0.4,0.7c0,0.2,0,3.7,0,3.7c0,0.2-0.1,0.4-0.3,0.6
	C1.9,12.8,1.6,13,1.4,13c-0.2,0-0.4-0.2-0.6-0.3c-0.2-0.2-0.3-0.4-0.3-0.6c0,0,0-0.1,0.1-0.3c0.1,0.1,0.5,0.4,0.5,0.4L0.9,9.9
	l-0.7,1.5C0,11.8,0,12,0,12c0,0.8,0.6,1.9,1.4,2c0.8,0,1.5-1.1,1.5-1.9l0,0c0,0,0-3.5,0-3.6C3.2,8.3,3.4,8.1,3.4,7.7z"/>
<path d="M4.9,9.1c0,0,0,0.1,0,0.1c0,0.1,0,0.1,0.1,0.1l2.4,1.1c0.1,0.1,0.1,0.1,0.1,0.2c0,0.1-0.1,0.3-0.2,0.3H4.5
	c0,0-0.1,0-0.1,0.1c0,0,0,0,0,0.1c2.7,2.2,6.2,2.8,9.5,2.7V6.6C7.8,6.6,4.9,9.1,4.9,9.1z M9,10H8V9h1V10z"/>
<rect x="2" y="1" width="10" height="1"/>
<rect x="2" y="3" width="10" height="1"/>
<rect x="2" y="5" width="7" height="1"/>
</svg>
