<?xml version="1.0" encoding="utf-8"?>
<!-- Generator: Adobe Illustrator 22.0.1, SVG Export Plug-In . SVG Version: 6.00 Build 0)  -->
<svg version="1.1" id="Layer_1" xmlns="http://www.w3.org/2000/svg" xmlns:xlink="http://www.w3.org/1999/xlink" x="0px" y="0px"
	 width="22px" height="22px" viewBox="0 0 22 22" enable-background="new 0 0 22 22" xml:space="preserve">
<rect x="3" y="4" width="16" height="2"/>
<rect x="3" y="7" width="12" height="2"/>
<rect x="3" y="1" width="16" height="2"/>
<path d="M5.3,12.4c0-0.7-0.5-1.2-1.2-1.2c-0.7,0-1.2,0.5-1.2,1.2c0,0.5,0.3,0.9,0.7,1.1c0,0.3-0.1,5.7-0.1,5.7
	c0,0.3-0.2,0.7-0.4,0.9c-0.3,0.2-0.6,0.4-0.9,0.4c-0.3,0-0.6-0.1-0.9-0.4c-0.3-0.2-0.4-0.6-0.4-1c0,0,0.1-0.2,0.1-0.4
	c0.2,0.1,0.8,0.6,0.8,0.6l-0.5-3.6l-1.1,2.4C0,18.7,0,19.1,0,19.2c0,1.2,1,2.3,2.2,2.3c1.3,0,2.3-1,2.3-2.2l0,0c0,0,0-5.5,0-5.7
	C5,13.3,5.3,12.9,5.3,12.4z"/>
<path d="M7.6,14.6c0,0-0.1,0.1-0.1,0.2c0,0.1,0,0.2,0.1,0.2l3.7,1.8c0.2,0.1,0.2,0.2,0.2,0.3c0,0.2-0.2,0.4-0.4,0.4l-4.1,0
	c-0.1,0-0.1,0.1-0.1,0.1c0,0,0,0.1,0,0.1c4.2,3.4,9.7,4.4,15,4.3V10.6C12.2,10.5,7.6,14.6,7.6,14.6z M13.5,15.5c-0.6,0-1-0.4-1-1
	c0-0.6,0.4-1,1-1s1,0.4,1,1C14.5,15.1,14.1,15.5,13.5,15.5z"/>
</svg>
