<?xml version="1.0" encoding="utf-8"?>
<!-- Generator: Adobe Illustrator 18.1.1, SVG Export Plug-In . SVG Version: 6.00 Build 0)  -->
<svg version="1.1" id="Layer_1" xmlns="http://www.w3.org/2000/svg" xmlns:xlink="http://www.w3.org/1999/xlink" x="0px" y="0px"
	 viewBox="0 0 32 32" enable-background="new 0 0 32 32" xml:space="preserve">
<path opacity="0.1" d="M26,4c0-1.105-0.895-2-2-2s-2,0.895-2,2c0,0.738,0.405,1.376,1,1.723V32h2V5.723C25.595,5.376,26,4.738,26,4z
	"/>
<rect x="9" y="6" opacity="0.1" width="13" height="6.957"/>
<path opacity="0.2" d="M25,3c0-1.105-0.895-2-2-2s-2,0.895-2,2c0,0.738,0.405,1.376,1,1.723V31h2V4.723C24.595,4.376,25,3.738,25,3z
	"/>
<rect x="8" y="5" opacity="0.2" width="13" height="6.957"/>
<path d="M24,2c0-1.105-0.895-2-2-2s-2,0.895-2,2c0,0.738,0.405,1.376,1,1.723V30h2V3.723C23.595,3.376,24,2.738,24,2z"/>
<rect x="7" y="4" width="13" height="6.957"/>
</svg>
