<?xml version="1.0" encoding="utf-8"?>
<!-- Generator: Adobe Illustrator 22.0.1, SVG Export Plug-In . SVG Version: 6.00 Build 0)  -->
<svg version="1.1" id="Layer_1" xmlns="http://www.w3.org/2000/svg" xmlns:xlink="http://www.w3.org/1999/xlink" x="0px" y="0px"
	 width="22px" height="22px" viewBox="0 0 22 22" enable-background="new 0 0 22 22" xml:space="preserve">
<path fill="#FFFFFF" d="M22,20c-0.5,0-0.9-0.2-1.4-0.4c-0.4-0.2-0.9-0.6-1.4-0.6c-0.5,0-1,0.4-1.4,0.6C17.4,19.8,17,20,16.5,20
	c-0.5,0-0.9-0.2-1.4-0.4c-0.4-0.2-0.9-0.6-1.4-0.6c-0.5,0-1,0.4-1.4,0.6C11.9,19.8,11.5,20,11,20c-0.5,0-0.9-0.2-1.4-0.4
	C9.2,19.4,8.7,19,8.3,19c-0.5,0-1,0.4-1.4,0.6C6.4,19.8,6,20,5.5,20c-0.5,0-0.9-0.2-1.4-0.4C3.7,19.4,3.2,19,2.7,19
	c-0.5,0-1,0.4-1.4,0.6C0.9,19.8,0.5,20,0,20v-2c0.5,0,0.9-0.3,1.4-0.5C1.8,17.4,2.3,17,2.7,17c0.5,0,1,0.4,1.4,0.5
	C4.6,17.7,5,18,5.5,18c0.5,0,0.9-0.3,1.4-0.5C7.3,17.4,7.8,17,8.3,17c0.5,0,1,0.4,1.4,0.5c0.4,0.2,0.9,0.5,1.4,0.5
	c0.5,0,0.9-0.3,1.4-0.5c0.4-0.2,0.9-0.5,1.4-0.5c0.5,0,1,0.4,1.4,0.5c0.4,0.2,0.9,0.5,1.4,0.5c0.5,0,0.9-0.3,1.4-0.5
	c0.4-0.2,0.9-0.5,1.4-0.5c0.5,0,1,0.4,1.4,0.5c0.4,0.2,0.9,0.5,1.4,0.5V20z"/>
<polygon fill="#FFFFFF" points="12,9 12,2 10,2 10,9 8,9 11,12 14,9 "/>
<path fill="#FFFFFF" d="M13,6v1h4v6H5V7h4V6H3v1v6v2v0c0.4,0.1,0.8,0.3,1.1,0.5C4.6,15.7,5,16,5.5,16c0.5,0,0.9-0.3,1.4-0.5C7.3,15.4,7.8,15,8.3,15
	c0.5,0,1,0.4,1.4,0.5c0.4,0.2,0.9,0.5,1.4,0.5c0.5,0,0.9-0.3,1.4-0.5c0.4-0.2,0.9-0.5,1.4-0.5s1,0.4,1.4,0.5
	c0.4,0.2,0.9,0.5,1.4,0.5c0.5,0,0.9-0.3,1.4-0.5c0.4-0.2,0.7-0.4,1.1-0.5v0v-2V7V6H13z"/>
</svg>
