<?xml version="1.0" encoding="utf-8"?>
<!-- Generator: Adobe Illustrator 22.0.1, SVG Export Plug-In . SVG Version: 6.00 Build 0)  -->
<svg version="1.1" id="Layer_1" xmlns="http://www.w3.org/2000/svg" xmlns:xlink="http://www.w3.org/1999/xlink" x="0px" y="0px"
	 width="30px" height="30px" viewBox="0 0 30 30" enable-background="new 0 0 30 30" xml:space="preserve">
<path fill="#FFFFFF" d="M30,27c-0.7,0-1.3,0-1.8-0.3c-0.6-0.3-1.2-0.7-1.9-0.7c-0.7,0-1.3,0.4-1.9,0.7C23.8,27,23.2,27,22.5,27
	c-0.7,0-1.3,0-1.8-0.3c-0.6-0.3-1.2-0.7-1.9-0.7c-0.7,0-1.3,0.4-1.9,0.7C16.3,27,15.7,27,15,27c-0.7,0-1.3,0-1.8-0.3
	c-0.6-0.3-1.2-0.7-1.9-0.7c-0.7,0-1.3,0.4-1.9,0.7C8.8,27,8.2,27,7.5,27c-0.7,0-1.3,0-1.9-0.3C5.1,26.4,4.4,26,3.7,26
	c-0.7,0-1.3,0.4-1.9,0.7C1.3,27,0.7,27,0,27v-3c0.7,0,1.3,0.2,1.8-0.1C2.4,23.7,3.1,23,3.7,23c0.7,0,1.3,0.7,1.9,0.9
	c0.6,0.3,1.2,0.4,1.9,0.4c0.7,0,1.3-0.2,1.8-0.4c0.6-0.3,1.2-0.9,1.9-0.9c0.7,0,1.3,0.7,1.9,0.9c0.6,0.3,1.2,0.4,1.8,0.4
	c0.7,0,1.3-0.2,1.8-0.4c0.6-0.3,1.2-0.9,1.9-0.9c0.7,0,1.3,0.7,1.9,0.9c0.6,0.3,1.2,0.4,1.8,0.4c0.7,0,1.3-0.2,1.8-0.4
	c0.6-0.3,1.2-0.9,1.9-0.9c0.7,0,1.3,0.7,1.9,0.9c0.6,0.3,1.2,0.1,1.8,0.1V27z"/>
<rect fill="#FFFFFF" x="14" y="3" width="2" height="9"/>
<polygon fill="#FFFFFF" points="15,16 19,12 11,12 "/>
<path fill="#FFFFFF" d="M7.5,21.4c0.7,0,1.3-0.2,1.8-0.4c0.6-0.3,1.2-0.9,1.9-0.9c0.7,0,1.3,0.7,1.9,0.9c0.6,0.3,1.2,0.4,1.8,0.4s1.3-0.2,1.8-0.4
	c0.6-0.3,1.2-0.9,1.9-0.9c0.7,0,1.3,0.7,1.9,0.9c0.6,0.3,1.2,0.4,1.8,0.4c0.7,0,1.3-0.2,1.8-0.4c0.5-0.2,1.1-0.8,1.6-0.9v-2V9V8V7
	h-8v2h5v9H7V9h5V7H4v1v1v9v2c0.6,0.1,1.2,0.7,1.6,0.9C6.2,21.2,6.8,21.4,7.5,21.4z"/>
</svg>
