<?xml version="1.0" encoding="utf-8"?>
<!-- Generator: Adobe Illustrator 22.0.1, SVG Export Plug-In . SVG Version: 6.00 Build 0)  -->
<svg version="1.1" id="Layer_1" xmlns="http://www.w3.org/2000/svg" xmlns:xlink="http://www.w3.org/1999/xlink" x="0px" y="0px"
	 width="14px" height="14px" viewBox="0 0 14 14" enable-background="new 0 0 14 14" xml:space="preserve">
<path fill="#FFFFFF" d="M14,13c-0.3,0-0.6-0.4-0.9-0.5c-0.3-0.1-0.6-0.2-0.9-0.2c-0.3,0-0.6,0.1-0.9,0.2c-0.3,0.1-0.6,0.5-0.9,0.5
	c-0.3,0-0.6-0.4-0.9-0.5c-0.3-0.1-0.6-0.2-0.9-0.2s-0.6,0.1-0.9,0.2C7.6,12.6,7.3,13,7,13c-0.3,0-0.6-0.4-0.9-0.5
	c-0.3-0.1-0.6-0.2-0.9-0.2c-0.3,0-0.6,0.1-0.9,0.2C4.1,12.6,3.8,13,3.5,13c-0.3,0-0.6-0.4-0.9-0.5c-0.3-0.1-0.6-0.2-0.9-0.2
	c-0.3,0-0.6,0.1-0.9,0.2C0.6,12.6,0.3,13,0,13v-1.3c0.3,0,0.6-0.4,0.9-0.5C1.1,11.1,1.4,11,1.7,11c0.3,0,0.6,0.1,0.9,0.2
	c0.3,0.1,0.6,0.5,0.9,0.5c0.3,0,0.6-0.4,0.9-0.5C4.6,11.1,4.9,11,5.3,11c0.3,0,0.6,0.1,0.9,0.2c0.3,0.1,0.6,0.5,0.9,0.5
	c0.3,0,0.6-0.4,0.9-0.5C8.1,11.1,8.4,11,8.8,11s0.6,0.1,0.9,0.2c0.3,0.1,0.6,0.5,0.9,0.5c0.3,0,0.6-0.4,0.9-0.5
	c0.3-0.1,0.6-0.2,0.9-0.2c0.3,0,0.6,0.1,0.9,0.2c0.3,0.1,0.6,0.5,0.9,0.5V13z"/>
<polygon fill="#FFFFFF" points="8,5 8,1 6,1 6,5 5,5 7,7 9,5 "/>
<rect fill="#FFFFFF" x="9" y="3" width="3" height="1"/>
<rect fill="#FFFFFF" x="2" y="3" width="3" height="1"/>
<path fill="#FFFFFF" d="M3.5,9.7c0.3,0,0.6-0.4,0.9-0.5C4.6,9.1,4.9,9,5.3,9c0.3,0,0.6,0.1,0.9,0.2C6.4,9.3,6.7,9.7,7,9.7s0.6-0.4,0.9-0.5
	C8.1,9.1,8.4,9,8.8,9s0.6,0.1,0.9,0.2c0.3,0.1,0.6,0.5,0.9,0.5c0.3,0,0.6-0.4,0.9-0.5C11.6,9.1,11.8,9.1,12,9V8V3h-1v5H3V3H2v6
	c0.2,0,0.4,0.1,0.6,0.2C2.9,9.3,3.2,9.7,3.5,9.7z"/>
</svg>
