<?xml version="1.0" encoding="utf-8"?>
<!-- Generator: Adobe Illustrator 22.1.0, SVG Export Plug-In . SVG Version: 6.00 Build 0)  -->
<svg version="1.1" id="Layer_1" xmlns="http://www.w3.org/2000/svg" xmlns:xlink="http://www.w3.org/1999/xlink" x="0px" y="0px"
	 width="14px" height="14px" viewBox="0 0 14 14" enable-background="new 0 0 14 14" xml:space="preserve">
<path d="M11.5,7.6L11.5,7.6L9.3,7l2.1-0.5l0.1,0c0,0,2.2-0.5,1.9-2.2c0-0.2-0.1-0.5-0.3-0.8c-1.3-2.4-3.3-0.1-3.3-0.1L9.7,3.5L8.2,5
	l0.7-2.2c0,0,0.9-2.8-1.8-2.8c0,0,0,0,0,0c0,0,0,0,0,0C4.3-0.1,5.2,2.8,5.2,2.8L5.8,5L4.3,3.4l0,0c0,0-1.1-1.2-2.2-0.9
	c-0.4,0.1-0.8,0.4-1.1,1c-1.4,2.3,1.5,3,1.5,3l0,0L4.7,7L2.6,7.5l-0.1,0c0,0-2.2,0.5-1.9,2.2c0,0.2,0.1,0.5,0.3,0.8
	c1.3,2.4,3.3,0.1,3.3,0.1l0.1-0.1L5.8,9l-0.7,2.2c0,0-0.9,2.8,1.8,2.8c0,0,0,0,0,0c0,0,0,0,0,0c2.7,0.1,1.8-2.8,1.8-2.8L8.2,9
	l1.5,1.6l0,0c0,0,0.9,1,2,0.9c0.5,0,1-0.3,1.4-1C14.5,8.2,11.5,7.6,11.5,7.6z M7,8.5C6.2,8.5,5.5,7.8,5.5,7S6.2,5.5,7,5.5
	S8.5,6.2,8.5,7S7.8,8.5,7,8.5z"/>
</svg>
