<?xml version="1.0" encoding="utf-8"?>
<!-- Generator: Adobe Illustrator 22.1.0, SVG Export Plug-In . SVG Version: 6.00 Build 0)  -->
<svg version="1.1" id="Layer_1" xmlns="http://www.w3.org/2000/svg" xmlns:xlink="http://www.w3.org/1999/xlink" x="0px" y="0px"
	 width="30px" height="30px" viewBox="0 0 30 30" enable-background="new 0 0 30 30" xml:space="preserve">
<path d="M24.7,16.2L24.7,16.2L20,15l4.4-1l0.3,0c0,0,4.7-1,4-4.6c-0.1-0.5-0.3-1.1-0.6-1.7C25.3,2.4,21,7.3,21,7.3l-0.1,0.2
	l-3.3,3.3l1.4-4.7c0,0,1.9-6-3.8-6.1c0,0,0,0-0.1,0c0,0,0,0,0,0c-5.8-0.1-3.8,6-3.8,6l1.3,4.7L9.2,7.3L9.2,7.2c0,0-2.4-2.6-4.8-1.9
	C3.6,5.6,2.7,6.2,2,7.4c-3,5,3.3,6.3,3.3,6.3l0,0L10,15l-4.4,1l-0.3,0c0,0-4.7,1-4,4.6c0.1,0.5,0.3,1.1,0.6,1.7
	C4.7,27.6,9,22.7,9,22.7l0.1-0.2l3.3-3.3l-1.4,4.6c0,0-1.9,6,3.8,6.1c0,0,0,0,0.1,0c0,0,0,0,0,0c5.8,0.1,3.8-6,3.8-6l-1.3-4.7
	l3.2,3.5l0.1,0.1c0,0,2,2.2,4.2,2c1-0.1,2.1-0.7,3-2.2C31,17.6,24.7,16.2,24.7,16.2z M15,18.3c-1.8,0-3.3-1.5-3.3-3.3
	s1.5-3.3,3.3-3.3s3.3,1.5,3.3,3.3S16.8,18.3,15,18.3z"/>
</svg>
