<?xml version="1.0" encoding="utf-8"?>
<!-- Generator: Adobe Illustrator 22.1.0, SVG Export Plug-In . SVG Version: 6.00 Build 0)  -->
<svg version="1.1" id="Layer_1" xmlns="http://www.w3.org/2000/svg" xmlns:xlink="http://www.w3.org/1999/xlink" x="0px" y="0px"
	 width="22px" height="22px" viewBox="0 0 22 22" enable-background="new 0 0 22 22" xml:space="preserve">
<path fill="#FFFFFF" d="M18.1,11.9L18.1,11.9L14.6,11l3.2-0.7l0.2,0c0,0,3.5-0.7,3-3.4C21,6.4,20.9,6,20.6,5.6c-2.1-3.8-5.2-0.2-5.2-0.2l-0.1,0.1
	l-2.4,2.4l1-3.4c0,0,1.4-4.4-2.8-4.5c0,0,0,0-0.1,0c0,0,0,0,0,0C6.7-0.1,8.2,4.4,8.2,4.4l0.9,3.5L6.8,5.3L6.7,5.3
	c0,0-1.7-1.9-3.5-1.4C2.6,4.1,2,4.5,1.5,5.4c-2.2,3.7,2.4,4.6,2.4,4.6l0,0L7.3,11l-3.2,0.7l-0.2,0c0,0-3.5,0.7-3,3.4
	C1,15.6,1.1,16,1.4,16.4c2.1,3.8,5.2,0.2,5.2,0.2l0.1-0.1l2.4-2.4l-1,3.4c0,0-1.4,4.4,2.8,4.5c0,0,0,0,0.1,0c0,0,0,0,0,0
	c4.3,0.1,2.8-4.4,2.8-4.4l-0.9-3.5l2.4,2.5l0.1,0.1c0,0,1.5,1.6,3.1,1.5c0.7-0.1,1.5-0.5,2.2-1.6C22.8,12.9,18.1,11.9,18.1,11.9z
	 M11,13.4c-1.3,0-2.4-1.1-2.4-2.4c0-1.3,1.1-2.4,2.4-2.4s2.4,1.1,2.4,2.4C13.4,12.3,12.3,13.4,11,13.4z"/>
</svg>
