<?xml version="1.0" encoding="utf-8"?>
<!-- Generator: Adobe Illustrator 22.0.1, SVG Export Plug-In . SVG Version: 6.00 Build 0)  -->
<svg version="1.1" id="Layer_1" xmlns="http://www.w3.org/2000/svg" xmlns:xlink="http://www.w3.org/1999/xlink" x="0px" y="0px"
	 width="14px" height="14px" viewBox="0 0 14 14" enable-background="new 0 0 14 14" xml:space="preserve">
<path fill="#FFFFFF" d="M10.5,10.9c-0.1-0.2-0.1-0.4-0.1-0.4C12,9.6,13,7.6,13,7.5C13.1,7.3,12.7,7,12.4,7C12.2,7,6,7,6,7V0H1v8.4
	c0,1.7,1.6,2.3,3.1,2.9c0.3,0.1,0.5,0.3,0.6,0.5c0.2,0.5-0.1,1.2-0.2,1.5L4,14h8.1l-0.3-0.7C11.7,13.3,10.7,11.3,10.5,10.9z M3.5,6
	C2.7,6,2,5.3,2,4.5c0-0.1,0-0.2,0-0.3C2,4,2.1,3.9,2.2,3.8c0-0.1,0.1-0.1,0.1-0.2C3.1,2.3,3.5,0,3.5,0s0.4,2.3,1.2,3.6
	c0,0.1,0.1,0.1,0.1,0.2C4.9,3.9,4.9,4,5,4.2c0,0.1,0,0.2,0,0.3C5,5.3,4.3,6,3.5,6z"/>
</svg>
