<?xml version="1.0" encoding="utf-8"?>
<!-- Generator: Adobe Illustrator 22.0.1, SVG Export Plug-In . SVG Version: 6.00 Build 0)  -->
<svg version="1.1" id="Layer_1" xmlns="http://www.w3.org/2000/svg" xmlns:xlink="http://www.w3.org/1999/xlink" x="0px" y="0px"
	 width="22px" height="22px" viewBox="0 0 22 22" enable-background="new 0 0 22 22" xml:space="preserve">
<path fill="#FFFFFF" d="M20,11.8c0.1-0.3-0.1-0.8-0.5-0.8S9,11,9,11V0H2v13.3C2,16,4.1,17,6.5,17.8c0.5,0.2,0.8,0.5,1,0.8
	c0.3,0.8-0.2,2-0.4,2.3l-0.6,1H19l-0.5-1c-0.1-0.1-1.6-3.2-2-3.9c-0.2-0.3-0.2-0.6-0.2-0.6C18.9,15.1,19.9,11.9,20,11.8z M5.5,9.4
	C4.2,9.4,3.6,8.3,3.6,7c0-0.2,0-0.3,0.1-0.5S3.8,6,4,5.8c0,0,0.1-0.1,0.1-0.2C5.3,3.7,5.5,0,5.5,0s0.2,3.7,1.4,5.7
	C7,5.8,7.1,5.9,7.2,6c0.1,0.2,0.2,0.4,0.3,0.7c0,0.2,0.1,0.3,0.1,0.5C7.5,8.4,6.8,9.4,5.5,9.4z"/>
</svg>
