<?xml version="1.0" encoding="utf-8"?>
<!-- Generator: Adobe Illustrator 22.0.1, SVG Export Plug-In . SVG Version: 6.00 Build 0)  -->
<svg version="1.1" id="Layer_1" xmlns="http://www.w3.org/2000/svg" xmlns:xlink="http://www.w3.org/1999/xlink" x="0px" y="0px"
	 width="30px" height="30px" viewBox="0 0 30 30" enable-background="new 0 0 30 30" xml:space="preserve">
<path fill="#231F20" d="M27,16.1c0.2-0.4-0.2-1.1-0.8-1.1S12,15,12,15V0H3v18.1c0,3.6,2.6,5,5.8,6.1c0.7,0.2,1.1,0.6,1.3,1.2
	c0.4,1.1-0.2,2.7-0.5,3.2L8.9,30h16.9l-0.7-1.4c-0.1-0.2-2.2-4.4-2.7-5.3c-0.3-0.4-0.2-0.8-0.3-0.8C25.8,20.7,26.9,16.2,27,16.1z
	 M7.5,12.9C5.7,12.9,5,11.4,5,9.7C5,9.4,5,9.2,5,9c0.1-0.3,0.2-0.6,0.4-0.9c0.1-0.1,0.2-0.3,0.3-0.4C7.3,5,7.5,0,7.5,0s0,5,1.6,7.6
	c0.1,0.1,0.2,0.3,0.3,0.4C9.6,8.3,9.7,8.6,9.8,9c0,0.2,0.1,0.4,0.1,0.7C9.8,11.4,9.3,12.9,7.5,12.9z"/>
</svg>
