<?xml version="1.0" encoding="utf-8"?>
<!-- Generator: Adobe Illustrator 26.3.1, SVG Export Plug-In . SVG Version: 6.00 Build 0)  -->
<svg version="1.1" id="Layer_1" xmlns="http://www.w3.org/2000/svg" xmlns:xlink="http://www.w3.org/1999/xlink" x="0px" y="0px"
	 viewBox="0 0 14 14" width="14px" height="14px" enable-background="new 0 0 14 14" xml:space="preserve">
<path fill="#231F20" d="M9.9,11.4c-0.1-0.2-0.1-0.3-0.1-0.3c1.3-0.7,2.2-2.4,2.2-2.5c0.1-0.2-0.2-0.4-0.5-0.4c-0.2,0-5.5,0-5.5,0
	V2.4H2v7c0,1.4,1.3,1.9,2.6,2.4c0.2,0,0.4,0.2,0.5,0.4c0.2,0.4-0.1,1-0.2,1.2L4.5,14h6.7L11,13.4C10.9,13.4,10,11.8,9.9,11.4z"/>
<path fill="#231F20" d="M12.1,3.2L12.1,3.2c-0.3-1.2-1.6-3-2-3.2C9.8,0.2,8.8,1.7,8.3,2.8C8.3,2.9,8.2,3,8.2,3v0.1l0,0
	c0,0.1-0.1,0.3-0.1,0.5c0,1.1,0.9,2,2,2s2-0.9,2-2C12.2,3.5,12.2,3.4,12.1,3.2z"/>
</svg>
