<?xml version="1.0" encoding="utf-8"?>
<!-- Generator: Adobe Illustrator 26.3.1, SVG Export Plug-In . SVG Version: 6.00 Build 0)  -->
<svg version="1.1" id="Layer_1" xmlns="http://www.w3.org/2000/svg" xmlns:xlink="http://www.w3.org/1999/xlink" x="0px" y="0px"
	 viewBox="0 0 22 22" style="enable-background:new 0 0 22 22;" xml:space="preserve">
<style type="text/css">
	.st0{fill:#231F20;}
</style>
<path class="st0" d="M15.4,18c-0.1-0.3-0.1-0.5-0.1-0.5c2.1-1.2,3.4-3.8,3.4-3.9c0.1-0.3-0.4-0.5-0.8-0.5c-0.3,0-8.3,0-8.3,0V4H3
	v10.7c0,2.2,2.1,3,4,3.8c0.4,0.1,0.7,0.4,0.8,0.7c0.3,0.7-0.1,1.6-0.3,2L6.9,22h10.6l-0.4-0.9C17,21.1,15.6,18.5,15.4,18z"/>
<path class="st0" d="M18.1,5L18.1,5c-0.4-1.9-2.5-4.6-3.1-5c-0.5,0.4-2.2,2.6-2.9,4.5C12,4.6,12,4.7,12,4.8c0,0.1-0.1,0.1-0.1,0.2h0
	c-0.1,0.2-0.1,0.5-0.1,0.7c0,1.8,1.4,3.2,3.2,3.2s3.2-1.4,3.2-3.2C18.2,5.5,18.1,5.3,18.1,5z"/>
</svg>
