<?xml version="1.0" encoding="utf-8"?>
<!-- Generator: Adobe Illustrator 20.0.0, SVG Export Plug-In . SVG Version: 6.00 Build 0)  -->
<svg version="1.1" id="Icons" xmlns="http://www.w3.org/2000/svg" xmlns:xlink="http://www.w3.org/1999/xlink" x="0px" y="0px"
	 width="30px" height="30px" viewBox="0 0 30 30" style="enable-background:new 0 0 30 30;" xml:space="preserve">
<g>
	<path fill="#231F20" d="M13,9.8c0,1-0.9,2.2-2,2.2v17l-1,1H9l-1-1V12c-1.1,0-2-1-2-2.3v-9c0-0.8,1.5-0.8,1.5,0v6.7H8h1V0.6c0-0.8,1-0.8,1,0v6.7
		h1.5V0.6c0-0.7,1.5-0.8,1.5,0V9.8z"/>
	<polygon fill="#231F20" points="21,0 19,2 19,18 21,18 21,28 22,30 23,30 24,28 24,2 22,0 	"/>
</g>
</svg>
