<?xml version="1.0" encoding="utf-8"?>
<!-- Generator: Adobe Illustrator 18.1.1, SVG Export Plug-In . SVG Version: 6.00 Build 0)  -->
<svg version="1.1" id="Icons" xmlns="http://www.w3.org/2000/svg" xmlns:xlink="http://www.w3.org/1999/xlink" x="0px" y="0px"
	 viewBox="0 0 24 24" enable-background="new 0 0 24 24" xml:space="preserve">
<g opacity="0.1">
	<polygon points="18,24 19,24 20,22.6 20,2.6 19,2 17,2 17,3 16,3 16,15 18,15 	"/>
	<polygon points="8,23 9,24 10,23 10,11 11,10 12,9 12,2 11,2 11,7.5 9.5,8 9.5,2 8.5,2 8.5,8 7,7.5 7,2 6,2 6,9 7,10 8,11 	"/>
</g>
<g opacity="0.2">
	<polygon points="17,23 18,23 19,21.6 19,1.6 18,1 16,1 16,2 15,2 15,14 17,14 	"/>
	<polygon points="7,22 8,23 9,22 9,10 10,9 11,8 11,1 10,1 10,6.5 8.5,7 8.5,1 7.5,1 7.5,7 6,6.5 6,1 5,1 5,8 6,9 7,10 	"/>
</g>
<g>
	<polygon points="16,22 17,22 18,20.6 18,0.6 17,0 15,0 15,1 14,1 14,13 16,13 	"/>
	<polygon points="6,21 7,22 8,21 8,9 9,8 10,7 10,0 9,0 9,5.5 7.5,6 7.5,0 6.5,0 6.5,6 5,5.5 5,0 4,0 4,7 5,8 6,9 	"/>
</g>
</svg>
