<?xml version="1.0" encoding="utf-8"?>
<!-- Generator: Adobe Illustrator 18.1.1, SVG Export Plug-In . SVG Version: 6.00 Build 0)  -->
<svg version="1.1" id="Layer_1" xmlns="http://www.w3.org/2000/svg" xmlns:xlink="http://www.w3.org/1999/xlink" x="0px" y="0px"
	 viewBox="0 0 16 16" enable-background="new 0 0 16 16" xml:space="preserve">
<g opacity="0.1">
	<path fill="none" d="M9.005,14.199H9c-0.209,0.292-0.552,0.48-0.939,0.48h1.884C9.557,14.679,9.214,14.49,9.005,14.199z"/>
	<path d="M9,15h0.005c0.209,0,0.552,0.079,0.939,0.079c0.316,0,0.607-0.331,0.814-0.54l0.039-0.137
		c0.428-0.469,0.962-1.167,0.962-1.167C12.069,12.6,12.201,12,12.234,12h0.004l0.002-0.485c0-1.052-0.855-2.089-1.905-2.089
		c-0.521,0-0.989,0.112-1.333,0.451c-0.347-0.34-0.816-0.591-1.333-0.591c-1.054,0-1.908,1.2-1.908,2.252L5.766,12h0.007
		c0.03,0,0.161,0.55,0.471,1.185c0,0,0.537,0.834,0.962,1.303l0.039-0.056c0.209,0.21,0.497,0.694,0.816,0.694
		C8.448,15.126,8.791,15,9,15z"/>
	<polygon points="8,7.679 8,9 9.239,9 11,6.679 11,6 10.239,6 9.12,6.839 	"/>
	<polygon points="15,6 15,15 9.945,15 8.061,15 3,15 3,6.19 3.299,6.115 14.943,3.212 15.913,2.97 15.671,2 2.087,5.548 2.16,6 2,6 
		2,16 16,16 16,6 	"/>
</g>
<g opacity="0.2">
	<path fill="none" d="M8.005,13.199H8c-0.209,0.292-0.552,0.48-0.939,0.48h1.884C8.557,13.679,8.214,13.49,8.005,13.199z"/>
	<path d="M8,14h0.005c0.209,0,0.552,0.079,0.939,0.079c0.316,0,0.607-0.331,0.814-0.54l0.039-0.137
		c0.428-0.469,0.962-1.167,0.962-1.167C11.069,11.6,11.201,11,11.234,11h0.004l0.002-0.485c0-1.052-0.855-2.089-1.905-2.089
		c-0.521,0-0.989,0.112-1.333,0.451c-0.347-0.34-0.816-0.591-1.333-0.591c-1.054,0-1.908,1.2-1.908,2.252L4.766,11h0.007
		c0.03,0,0.161,0.55,0.471,1.185c0,0,0.537,0.834,0.962,1.303l0.039-0.056c0.209,0.21,0.497,0.694,0.816,0.694
		C7.448,14.126,7.791,14,8,14z"/>
	<polygon points="7,6.679 7,8 8.239,8 10,5.679 10,5 9.239,5 8.12,5.839 	"/>
	<polygon points="14,5 14,14 8.945,14 7.061,14 2,14 2,5.19 2.299,5.115 13.943,2.212 14.913,1.97 14.671,1 1.087,4.548 1.16,5 1,5 
		1,15 15,15 15,5 	"/>
</g>
<g>
	<path d="M7.002,7.784c0.343-0.34,0.812-0.544,1.333-0.544c1.05,0,1.905,0.851,1.905,1.903l-0.002,0.113h-0.004
		c-0.033,0.412-0.164,0.923-0.474,1.558c0,0-0.533,1.021-0.962,1.49l-0.039,0.037c-0.207,0.208-0.498,0.34-0.814,0.34
		c-0.388,0-0.731-0.188-0.939-0.48H7c-0.209,0.292-0.552,0.48-0.939,0.48c-0.319,0-0.607-0.129-0.816-0.34l-0.039-0.037
		c-0.425-0.469-0.962-1.49-0.962-1.49c-0.31-0.635-0.441-1.15-0.471-1.558H3.766L3.761,9.142c0-1.052,0.854-1.903,1.908-1.903
		C6.186,7.239,6.655,7.444,7.002,7.784"/>
	<polygon points="6.239,6.679 6.239,5.679 7.239,4.679 8.239,3.679 9.239,3.679 9.239,4.679 7.239,6.679 	"/>
</g>
<polygon points="13,4 13,13 1,13 1,4.19 1.299,4.115 12.943,1.212 13.913,0.97 13.671,0 0.087,3.548 0.16,4 0,4 0,14 14,14 14,4 "/>
</svg>
