<?xml version="1.0" encoding="utf-8"?>
<!-- Generator: Adobe Illustrator 20.0.0, SVG Export Plug-In . SVG Version: 6.00 Build 0)  -->
<svg version="1.1" id="Layer_1" xmlns="http://www.w3.org/2000/svg" xmlns:xlink="http://www.w3.org/1999/xlink" x="0px" y="0px"
	 width="30px" height="30px" viewBox="0 0 30 30" style="enable-background:new 0 0 30 30;" xml:space="preserve">
<polygon fill="#231F20" points="27,8 27,27 3,27 3,9.6 29.9,2.9 29.2,0 0.1,7.3 0.3,8 0,8 0,27 0,29.8 0,30 30,30 30,29.8 30,27 30,8 "/>
<g>
	<path fill="#231F20" d="M19.9,7c0,0,0.2,5.9-5.9,5.9C14.1,12.8,13.4,7.5,19.9,7z"/>
	<path fill="#231F20" d="M16.1,15.4c0.7-0.7,1.7-1.2,2.9-1.2c2.2,0,4.1,1.8,4.1,4.1l0,0.2h0c-0.1,0.9-0.4,2-1,3.3c0,0-1.1,2.2-2.1,3.2l-0.1,0.1
		c-0.4,0.4-1.1,0.7-1.7,0.7c-0.8,0-1.6-0.4-2-1h0c-0.4,0.6-1.2,1-2,1c-0.7,0-1.3-0.3-1.7-0.7l-0.1-0.1c-0.9-1-2.1-3.2-2.1-3.2
		c-0.7-1.4-0.9-2.5-1-3.3h0l0-0.2c0-2.3,1.8-4.1,4.1-4.1C14.3,14.2,15.3,14.7,16.1,15.4"/>
</g>
</svg>
