<?xml version="1.0" encoding="utf-8"?>
<!-- Generator: Adobe Illustrator 20.0.0, SVG Export Plug-In . SVG Version: 6.00 Build 0)  -->
<svg version="1.1" id="Layer_1" xmlns="http://www.w3.org/2000/svg" xmlns:xlink="http://www.w3.org/1999/xlink" x="0px" y="0px"
	 width="14px" height="14px" viewBox="0 0 14 14" style="enable-background:new 0 0 14 14;" xml:space="preserve">
<g>
	<path fill="#FFFFFF" d="M7,7.8c0.3-0.3,0.8-0.5,1.3-0.5c1.1,0,1.9,0.9,1.9,1.9l0,0.1h0c0,0.4-0.2,0.9-0.5,1.6c0,0-0.5,1-1,1.5l0,0
		c-0.2,0.2-0.5,0.3-0.8,0.3c-0.4,0-0.7-0.2-0.9-0.5h0c-0.2,0.3-0.6,0.5-0.9,0.5c-0.3,0-0.6-0.1-0.8-0.3l0,0c-0.4-0.5-1-1.5-1-1.5
		c-0.3-0.6-0.4-1.1-0.5-1.6h0l0-0.1c0-1.1,0.9-1.9,1.9-1.9C6.2,7.2,6.7,7.4,7,7.8"/>
	<polygon fill="#FFFFFF" points="6.2,6.7 6.2,5.7 7.2,4.7 8.2,3.7 9.2,3.7 9.2,4.7 7.2,6.7 	"/>
</g>
<polygon fill="#FFFFFF" points="13,4 13,13 1,13 1,4.2 1.3,4.1 12.9,1.2 13.9,1 13.7,0 0.1,3.5 0.2,4 0,4 0,14 14,14 14,4 "/>
</svg>
