<?xml version="1.0" encoding="utf-8"?>
<!-- Generator: Adobe Illustrator 18.1.1, SVG Export Plug-In . SVG Version: 6.00 Build 0)  -->
<svg version="1.1" id="Layer_1" xmlns="http://www.w3.org/2000/svg" xmlns:xlink="http://www.w3.org/1999/xlink" x="0px" y="0px"
	 viewBox="0 0 32 32" enable-background="new 0 0 32 32" xml:space="preserve">
<polygon opacity="0.5" points="29,10 29,29 5,29 5,11.622 31.917,4.911 31.192,2 2.083,9.258 2.268,10 2,10 2,29 2,31.833 2,32 
	32,32 32,31.833 32,29 32,10 "/>
<g opacity="0.5">
	<path d="M21.937,9c0,0,0.156,5.874-5.937,5.87C16.061,14.78,15.375,9.51,21.937,9z"/>
	<path d="M18.063,17.38c0.736-0.728,1.74-1.167,2.856-1.167c2.25,0,4.082,1.823,4.082,4.078l-0.004,0.241h-0.008
		c-0.071,0.882-0.352,1.978-1.016,3.338c0,0-1.143,2.187-2.061,3.192l-0.083,0.079c-0.443,0.447-1.068,0.728-1.744,0.728
		c-0.831,0-1.566-0.403-2.013-1.028h-0.012c-0.447,0.625-1.183,1.028-2.013,1.028c-0.684,0-1.301-0.277-1.748-0.728l-0.083-0.079
		c-0.91-1.005-2.061-3.192-2.061-3.192c-0.664-1.361-0.945-2.464-1.009-3.338h-0.016l-0.012-0.241c0-2.255,1.831-4.078,4.09-4.078
		C16.315,16.214,17.319,16.653,18.063,17.38"/>
</g>
<polygon opacity="0.75" points="28,9 28,28 4,28 4,10.622 30.917,3.911 30.192,1 1.083,8.258 1.268,9 1,9 1,28 1,30.833 1,31 31,31 
	31,30.833 31,28 31,9 "/>
<g opacity="0.75">
	<path d="M20.937,8c0,0,0.156,5.874-5.937,5.87C15.061,13.78,14.375,8.51,20.937,8z"/>
	<path d="M17.063,16.38c0.736-0.728,1.74-1.167,2.856-1.167c2.25,0,4.082,1.823,4.082,4.078l-0.004,0.241h-0.008
		c-0.071,0.882-0.352,1.978-1.016,3.338c0,0-1.143,2.187-2.061,3.192l-0.083,0.079c-0.443,0.447-1.068,0.728-1.744,0.728
		c-0.831,0-1.566-0.403-2.013-1.028h-0.012c-0.447,0.625-1.183,1.028-2.013,1.028c-0.684,0-1.301-0.277-1.748-0.728l-0.083-0.079
		c-0.91-1.005-2.061-3.192-2.061-3.192c-0.664-1.361-0.945-2.464-1.009-3.338h-0.016l-0.012-0.241c0-2.255,1.831-4.078,4.09-4.078
		C15.315,15.214,16.319,15.653,17.063,16.38"/>
</g>
<polygon fill="#FFFFFF" points="27,8 27,27 3,27 3,9.622 29.917,2.911 29.192,0 0.083,7.258 0.268,8 0,8 0,27 0,29.833 0,30 30,30 
	30,29.833 30,27 30,8 "/>
<g>
	<path fill="#FFFFFF" d="M19.937,7c0,0,0.156,5.874-5.937,5.87C14.061,12.78,13.375,7.51,19.937,7z"/>
	<path fill="#FFFFFF" d="M16.063,15.38c0.736-0.728,1.74-1.167,2.856-1.167c2.25,0,4.082,1.823,4.082,4.078l-0.004,0.241h-0.008
		c-0.071,0.882-0.352,1.978-1.016,3.338c0,0-1.143,2.187-2.061,3.192l-0.083,0.079c-0.443,0.447-1.068,0.728-1.744,0.728
		c-0.831,0-1.566-0.403-2.013-1.028h-0.012c-0.447,0.625-1.183,1.028-2.013,1.028c-0.684,0-1.301-0.277-1.748-0.728l-0.083-0.079
		c-0.91-1.005-2.061-3.192-2.061-3.192c-0.664-1.361-0.945-2.464-1.009-3.338H9.129l-0.012-0.241c0-2.255,1.831-4.078,4.09-4.078
		C14.315,14.214,15.319,14.653,16.063,15.38"/>
</g>
</svg>
