<?xml version="1.0" encoding="utf-8"?>
<!-- Generator: Adobe Illustrator 20.0.0, SVG Export Plug-In . SVG Version: 6.00 Build 0)  -->
<svg version="1.1" id="Icons" xmlns="http://www.w3.org/2000/svg" xmlns:xlink="http://www.w3.org/1999/xlink" x="0px" y="0px"
	 width="22px" height="22px" viewBox="0 0 22 22" style="enable-background:new 0 0 22 22;" xml:space="preserve">
<g>
	<polygon fill="#231F20" points="16,22 17,22 18,20.6 18,0.6 17,0 15,0 15,1 14,1 14,13 16,13 	"/>
	<polygon fill="#231F20" points="6,21 7,22 8,21 8,9 9,8 10,7 10,0 9,0 9,5.5 7.5,6 7.5,0 6.5,0 6.5,6 5,5.5 5,0 4,0 4,7 5,8 6,9 	"/>
</g>
</svg>
