<?xml version="1.0" encoding="utf-8"?>
<!-- Generator: Adobe Illustrator 20.0.0, SVG Export Plug-In . SVG Version: 6.00 Build 0)  -->
<svg version="1.1" id="Layer_1" xmlns="http://www.w3.org/2000/svg" xmlns:xlink="http://www.w3.org/1999/xlink" x="0px" y="0px"
	 width="22px" height="22px" viewBox="0 0 22 22" style="enable-background:new 0 0 22 22;" xml:space="preserve">
<g>
	<path fill="#231F20" d="M14,6c0,0-0.8,3-4,3C10,9,9.8,6.9,14,6z"/>
	<path fill="#231F20" d="M11,11.3c0.5-0.5,1.3-0.9,2.1-0.9c1.6,0,2.9,1.3,2.9,3l0,0.2h0c-0.1,0.6-0.3,1.4-0.7,2.4c0,0-0.8,1.6-1.5,2.3l-0.1,0.1
		c-0.3,0.3-0.8,0.5-1.3,0.5c-0.6,0-1.1-0.5-1.5-1c-0.3,0.5-0.9,1-1.4,1c-0.5,0-0.9-0.2-1.3-0.5l-0.1-0.1c-0.7-0.7-1.5-2.3-1.5-2.3
		c-0.5-1-0.7-1.8-0.7-2.4h0l0-0.2c0-1.7,1.3-3,2.9-3C9.7,10.5,10.5,10.8,11,11.3"/>
</g>
<polygon fill="#231F20" points="20,6 20,20 2,20 2,6.9 21.8,1.9 21.3,0 0,5.3 0.2,6 0,6 0,20 0,20.5 0,22 22,22 22,20.5 22,20 22,6 "/>
</svg>
