<?xml version="1.0" encoding="utf-8"?>
<!-- Generator: Adobe Illustrator 18.1.1, SVG Export Plug-In . SVG Version: 6.00 Build 0)  -->
<svg version="1.1" id="Icons" xmlns="http://www.w3.org/2000/svg" xmlns:xlink="http://www.w3.org/1999/xlink" x="0px" y="0px"
	 viewBox="0 0 16 16" enable-background="new 0 0 16 16" xml:space="preserve">
<g opacity="0.5">
	<polygon points="14,2 15,3.6 15,13.6 14,16 13,16 13,10 12,10 12,3.6 13,2 	"/>
	<polygon points="4,2 5,2 5,5 6,6 6,2 7,2 7,6 8,5 8,2 9,2 9,7 8,7 7,8 7,16 6,16 6,8 5,7 4,7 	"/>
</g>
<g opacity="0.75">
	<polygon points="13,1 14,2.6 14,12.6 13,15 12,15 12,9 11,9 11,2.6 12,1 	"/>
	<polygon points="3,1 4,1 4,4 5,5 5,1 6,1 6,5 7,4 7,1 8,1 8,6 7,6 6,7 6,15 5,15 5,7 4,6 3,6 	"/>
</g>
<g>
	<polygon fill="#FFFFFF" points="12,0 13,1.6 13,11.6 12,14 11,14 11,8 10,8 10,1.6 11,0 	"/>
	<polygon fill="#FFFFFF" points="2,0 3,0 3,3 4,4 4,0 5,0 5,4 6,3 6,0 7,0 7,5 6,5 5,6 5,14 4,14 4,6 3,5 2,5 	"/>
</g>
</svg>
