<?xml version="1.0" encoding="utf-8"?>
<!-- Generator: Adobe Illustrator 18.1.1, SVG Export Plug-In . SVG Version: 6.00 Build 0)  -->
<svg version="1.1" id="Layer_1" xmlns="http://www.w3.org/2000/svg" xmlns:xlink="http://www.w3.org/1999/xlink" x="0px" y="0px"
	 viewBox="0 0 24 24" enable-background="new 0 0 24 24" xml:space="preserve">
<g opacity="0.5">
	<path d="M16,8c0,0-0.789,2.969-3.989,2.979C12.011,10.981,11.752,8.858,16,8z"/>
	<path d="M13.003,13.308c0.53-0.534,1.254-0.856,2.057-0.856c1.621,0,2.94,1.337,2.94,2.99l-0.003,0.177h-0.006
		c-0.051,0.647-0.254,1.45-0.732,2.448c0,0-0.823,1.604-1.484,2.341l-0.06,0.058C15.396,20.794,14.946,21,14.459,21
		c-0.598,0-1.137-0.542-1.459-1c-0.322,0.458-0.852,1-1.45,1c-0.493,0-0.937-0.203-1.259-0.534l-0.06-0.058
		c-0.655-0.737-1.484-2.341-1.484-2.341C8.268,17.07,8.066,16.26,8.02,15.619H8.009L8,15.443c0-1.653,1.319-2.99,2.946-2.99
		C11.744,12.452,12.467,12.774,13.003,13.308"/>
</g>
<polygon opacity="0.5" points="22,8 22,22 4,22 4,8.885 23.83,3.941 23.346,2 2,7.322 2.169,8 2,8 2,22 2,22.479 2,24 24,24 
	24,22.479 24,22 24,8 "/>
<g opacity="0.75">
	<path d="M15,7c0,0-0.789,2.969-3.989,2.979C11.011,9.981,10.752,7.858,15,7z"/>
	<path d="M12.003,12.308c0.53-0.534,1.254-0.856,2.057-0.856c1.621,0,2.94,1.337,2.94,2.99l-0.003,0.177h-0.006
		c-0.051,0.647-0.254,1.45-0.732,2.448c0,0-0.823,1.604-1.484,2.341l-0.06,0.058C14.396,19.794,13.946,20,13.459,20
		c-0.598,0-1.137-0.542-1.459-1c-0.322,0.458-0.852,1-1.45,1c-0.493,0-0.937-0.203-1.259-0.534l-0.06-0.058
		c-0.655-0.737-1.484-2.341-1.484-2.341C7.268,16.07,7.066,15.26,7.02,14.619H7.009L7,14.443c0-1.653,1.319-2.99,2.946-2.99
		C10.744,11.452,11.467,11.774,12.003,12.308"/>
</g>
<polygon opacity="0.75" points="21,7 21,21 3,21 3,7.885 22.83,2.941 22.346,1 1,6.322 1.169,7 1,7 1,21 1,21.479 1,23 23,23 
	23,21.479 23,21 23,7 "/>
<g>
	<path fill="#FFFFFF" d="M14,6c0,0-0.789,2.969-3.989,2.979C10.011,8.981,9.752,6.858,14,6z"/>
	<path fill="#FFFFFF" d="M11.003,11.308c0.53-0.534,1.254-0.856,2.057-0.856c1.621,0,2.94,1.337,2.94,2.99l-0.003,0.177h-0.006
		c-0.051,0.647-0.254,1.45-0.732,2.448c0,0-0.823,1.604-1.484,2.341l-0.06,0.058C13.396,18.794,12.946,19,12.459,19
		c-0.598,0-1.137-0.542-1.459-1c-0.322,0.458-0.852,1-1.45,1c-0.493,0-0.937-0.203-1.259-0.534l-0.06-0.058
		c-0.655-0.737-1.484-2.341-1.484-2.341C6.268,15.07,6.066,14.26,6.02,13.619H6.009L6,13.443c0-1.653,1.319-2.99,2.946-2.99
		C9.744,10.452,10.467,10.774,11.003,11.308"/>
</g>
<polygon fill="#FFFFFF" points="20,6 20,20 2,20 2,6.885 21.83,1.941 21.346,0 0,5.322 0.169,6 0,6 0,20 0,20.479 0,22 22,22 
	22,20.479 22,20 22,6 "/>
</svg>
