<?xml version="1.0" encoding="utf-8"?>
<!-- Generator: Adobe Illustrator 27.9.1, SVG Export Plug-In . SVG Version: 6.00 Build 0)  -->
<svg version="1.1" id="Layer_1" xmlns="http://www.w3.org/2000/svg" xmlns:xlink="http://www.w3.org/1999/xlink" x="0px" y="0px"
	 viewBox="0 0 14 14" enable-background="new 0 0 14 14" xml:space="preserve">
<path fill="#FFFFFF" d="M10.6,0C10,0.6,9.2,1.4,8,1.9c-2,0.8-3.8,1-3.8,1l0,0L2.1,3.3C1.8,3.3,1.6,3.6,1.6,4c0,0.3,0.3,0.5,0.6,0.5
	h0.1l2.1-0.3l0,0l0,0l0,0C2.9,4.8,1.7,5.5,1.6,5.5C1.3,5.7,1.2,6.1,1.4,6.3c0.1,0.2,0.3,0.3,0.5,0.3c0.1,0,0.2,0,0.3-0.1
	c0,0,1.4-0.8,3-1.4l0,0c0,0,0,0,0,0.1l0,0C4.3,5.7,3.3,6.5,2.6,7.7C2.4,7.9,2.5,8.3,2.8,8.5c0,0,0.2,0,0.3,0c0.2,0,0.4-0.1,0.5-0.3
	C4,7.6,4.6,7,5.2,6.6c0,0,1.5-1.3,3.1-1c1.6,0.3,1,1.5,0.9,2.2C9,8.4,9.4,8.7,9.7,8.9c0.1,0,0.1,0,0.2,0c0.2,0,0.2-0.1,0.3-0.2V8.6
	c0.8-3.1,2-5.3,3.2-6.8L10.6,0z"/>
<path fill="#FFFFFF" d="M5.5,11.2c0,0,0.1,1.5-0.3,2.4c0,0,0.4,0.5,0.8,0.5c0.6-0.1,1-0.6,1-0.6c-0.4-0.8-0.3-2.4-0.3-2.4
	s-0.3,0.1-0.6,0.1C5.9,11.3,5.5,11.2,5.5,11.2"/>
<path fill="#FFFFFF" d="M8.8,10C8.1,8.2,6.1,8.3,6.1,8.3s-2-0.1-2.6,1.8c0,0,0.7,0.9,2.6,0.9C7.8,10.9,8.8,10,8.8,10"/>
<path fill="#FFFFFF" d="M1.6,11.8c0,0,0.1,0.8-0.2,1.2c0,0,0.3,0.2,0.6,0.2c0.4,0,0.6-0.2,0.6-0.2c-0.3-0.4-0.2-1.2-0.2-1.2
	s-0.2,0-0.4,0C1.8,11.9,1.6,11.8,1.6,11.8"/>
<path fill="#FFFFFF" d="M3.4,11.2C3,10.3,2,10.3,2,10.3s-1-0.1-1.4,0.9c0,0,0.3,0.4,1.4,0.4C2.9,11.7,3.4,11.2,3.4,11.2"/>
</svg>
