<?xml version="1.0" encoding="utf-8"?>
<!-- Generator: Adobe Illustrator 28.2.0, SVG Export Plug-In . SVG Version: 6.00 Build 0)  -->
<svg version="1.1" id="Layer_1" xmlns="http://www.w3.org/2000/svg" xmlns:xlink="http://www.w3.org/1999/xlink" x="0px" y="0px"
	 width="22px" height="22px" viewBox="0 0 22 22" enable-background="new 0 0 22 22" xml:space="preserve">
<path fill="#231F20" d="M16.6,0c-0.9,1-2.2,2.2-4,2.9c-3.2,1.3-6,1.7-6,1.7l0,0L3.4,5.1c-0.5,0.1-0.8,0.5-0.8,1
	c0.1,0.4,0.5,0.8,0.9,0.8h0.1L7,6.4c0,0,0,0,0.1,0c0,0,0,0,0,0.1l0,0c-2.4,1-4.4,2.2-4.5,2.2C2.1,9,1.9,9.5,2.2,10
	c0.2,0.3,0.5,0.5,0.8,0.5c0.2,0,0.3,0,0.5-0.1c0,0,2.1-1.2,4.7-2.3l0,0c0,0,0.1,0.1,0,0.1l0,0c-1.4,0.7-3,2-4.2,3.8
	c-0.3,0.4-0.1,1,0.3,1.3c0.2,0.1,0.3,0.1,0.5,0.1c0.3,0,0.6-0.1,0.8-0.4c0.7-1.1,1.6-2,2.5-2.7c0,0,2.4-2.1,4.8-1.6
	c2.5,0.5,1.5,2.3,1.4,3.4c-0.2,1.1,0.4,1.6,0.9,1.8c0.1,0,0.2,0.1,0.3,0.1c0.3,0,0.4-0.2,0.4-0.3s0-0.1,0.1-0.2
	c1.2-4.8,3.2-8.3,5-10.7L16.6,0z"/>
<path fill="#231F20" d="M8.7,17.6c0,0,0.2,2.4-0.4,3.7c0,0,0.6,0.7,1.3,0.7c0.8,0,1.3-0.7,1.3-0.7c-0.6-1.3-0.4-3.7-0.4-3.7
	s-0.5,0.1-0.9,0.1C9.3,17.7,8.7,17.6,8.7,17.6"/>
<path fill="#231F20" d="M13.8,15.8c-1.1-3-4.2-2.8-4.2-2.8s-3.2-0.2-4.1,2.8c0,0,1,1.4,4.1,1.4C12.3,17.1,13.8,15.8,13.8,15.8"/>
<path fill="#231F20" d="M2.5,18.6c0,0,0.2,1.2-0.3,1.9c0,0,0.4,0.4,1,0.4s1-0.4,1-0.4c-0.5-0.7-0.3-1.9-0.3-1.9s-0.4,0.1-0.7,0.1
	S2.5,18.6,2.5,18.6"/>
<path fill="#231F20" d="M5.3,17.7c-0.6-1.5-2.1-1.4-2.1-1.4S1.5,16.2,1,17.7c0,0,0.5,0.7,2.1,0.7C4.5,18.4,5.3,17.7,5.3,17.7"/>
</svg>
