<?xml version="1.0" encoding="utf-8"?>
<!-- Generator: Adobe Illustrator 18.1.1, SVG Export Plug-In . SVG Version: 6.00 Build 0)  -->
<svg version="1.1" id="Icons" xmlns="http://www.w3.org/2000/svg" xmlns:xlink="http://www.w3.org/1999/xlink" x="0px" y="0px"
	 viewBox="0 0 24 24" enable-background="new 0 0 24 24" xml:space="preserve">
<g opacity="0.5">
	<polygon points="23,13 23,10 17,10 15,7 14,7 16,10 14,12 11,12 9,10 2,10 2,16 3,16 4,16 4,15 4,14 5,14 5,13 9,13 9,14 10,14 
		10,15 10,16 11,16 15,16 16,16 16,15 16,14 17,14 17,13 21,13 21,14 22,14 22,15 22,16 23,16 24,16 24,14 	"/>
	<path d="M7,14c-1.1,0-2,0.9-2,2s0.9,2,2,2c1.1,0,2-0.9,2-2S8.1,14,7,14z M8,16.4C8,16.7,7.7,17,7.4,17H6.6C6.3,17,6,16.7,6,16.4
		v-0.9C6,15.3,6.3,15,6.6,15h0.9C7.7,15,8,15.3,8,15.6V16.4z"/>
	<path d="M19,14c-1.1,0-2,0.9-2,2s0.9,2,2,2c1.1,0,2-0.9,2-2S20.1,14,19,14z M20,16.4c0,0.3-0.3,0.6-0.6,0.6h-0.9
		c-0.3,0-0.6-0.3-0.6-0.6v-0.9c0-0.3,0.3-0.6,0.6-0.6h0.9c0.3,0,0.6,0.3,0.6,0.6V16.4z"/>
</g>
<g opacity="0.75">
	<polygon points="22,12 22,9 16,9 14,6 13,6 15,9 13,11 10,11 8,9 1,9 1,15 2,15 3,15 3,14 3,13 4,13 4,12 8,12 8,13 9,13 9,14 
		9,15 10,15 14,15 15,15 15,14 15,13 16,13 16,12 20,12 20,13 21,13 21,14 21,15 22,15 23,15 23,13 	"/>
	<path d="M6,13c-1.1,0-2,0.9-2,2s0.9,2,2,2c1.1,0,2-0.9,2-2S7.1,13,6,13z M7,15.4C7,15.7,6.7,16,6.4,16H5.6C5.3,16,5,15.7,5,15.4
		v-0.9C5,14.3,5.3,14,5.6,14h0.9C6.7,14,7,14.3,7,14.6V15.4z"/>
	<path d="M18,13c-1.1,0-2,0.9-2,2s0.9,2,2,2c1.1,0,2-0.9,2-2S19.1,13,18,13z M19,15.4c0,0.3-0.3,0.6-0.6,0.6h-0.9
		c-0.3,0-0.6-0.3-0.6-0.6v-0.9c0-0.3,0.3-0.6,0.6-0.6h0.9c0.3,0,0.6,0.3,0.6,0.6V15.4z"/>
</g>
<g>
	<polygon fill="#E6E6E6" points="21,11 21,8 15,8 13,5 12,5 14,8 12,10 9,10 7,8 0,8 0,14 1,14 2,14 2,13 2,12 3,12 3,11 7,11 7,12 
		8,12 8,13 8,14 9,14 13,14 14,14 14,13 14,12 15,12 15,11 19,11 19,12 20,12 20,13 20,14 21,14 22,14 22,12 	"/>
	<path fill="#E6E6E6" d="M5,12c-1.1,0-2,0.9-2,2s0.9,2,2,2c1.1,0,2-0.9,2-2S6.1,12,5,12z M6,14.4C6,14.7,5.7,15,5.4,15H4.6
		C4.3,15,4,14.7,4,14.4v-0.9C4,13.3,4.3,13,4.6,13h0.9C5.7,13,6,13.3,6,13.6V14.4z"/>
	<path fill="#E6E6E6" d="M17,12c-1.1,0-2,0.9-2,2s0.9,2,2,2c1.1,0,2-0.9,2-2S18.1,12,17,12z M18,14.4c0,0.3-0.3,0.6-0.6,0.6h-0.9
		c-0.3,0-0.6-0.3-0.6-0.6v-0.9c0-0.3,0.3-0.6,0.6-0.6h0.9c0.3,0,0.6,0.3,0.6,0.6V14.4z"/>
</g>
</svg>
