<?xml version="1.0" encoding="utf-8"?>
<!-- Generator: Adobe Illustrator 20.0.0, SVG Export Plug-In . SVG Version: 6.00 Build 0)  -->
<svg version="1.1" id="Icons" xmlns="http://www.w3.org/2000/svg" xmlns:xlink="http://www.w3.org/1999/xlink" x="0px" y="0px"
	 width="14px" height="14px" viewBox="0 0 14 14" style="enable-background:new 0 0 14 14;" xml:space="preserve">
<g>
	<polygon fill="#FFFFFF" points="0,9 0,5 4,5 6,7 7,7 9,5 8,3 9,3 10,5 13,5 13,6 14,7 14,9 13,9 13,8 12,7 10,7 9,8 9,9 5,9 5,8 4,7 2,7 1,8 1,9 	
		"/>
	<rect fill="#FFFFFF" x="2" y="8" width="2" height="2"/>
	<rect fill="#FFFFFF" x="10" y="8" width="2" height="2"/>
</g>
</svg>
