<?xml version="1.0" encoding="utf-8"?>
<!-- Generator: Adobe Illustrator 20.0.0, SVG Export Plug-In . SVG Version: 6.00 Build 0)  -->
<svg version="1.1" id="Icons" xmlns="http://www.w3.org/2000/svg" xmlns:xlink="http://www.w3.org/1999/xlink" x="0px" y="0px"
	 width="30px" height="30px" viewBox="0 0 30 30" style="enable-background:new 0 0 30 30;" xml:space="preserve">
<polygon fill="#231F20" points="29,16 29,12 28,11 21,11 19,7 17,7 19,11 19,12 17,14 12,14 10,11 0,11 0,19 1,19 2,19 2,18 2,17 4,15 9,15 11,17 
	11,18 11,19 12,19 18,19 19,19 19,18 19,17 21,15 26,15 28,17 28,18 28,19 29,19 30,19 30,16 "/>
<path fill="#231F20" d="M6.5,16C4.6,16,3,17.6,3,19.5S4.6,23,6.5,23s3.5-1.6,3.5-3.5S8.4,16,6.5,16z M6.5,21C5.7,21,5,20.3,5,19.5S5.7,18,6.5,18
	S8,18.7,8,19.5S7.3,21,6.5,21z"/>
<path fill="#231F20" d="M23.5,16c-1.9,0-3.5,1.6-3.5,3.5s1.6,3.5,3.5,3.5s3.5-1.6,3.5-3.5S25.4,16,23.5,16z M23.5,21c-0.8,0-1.5-0.7-1.5-1.5
	s0.7-1.5,1.5-1.5s1.5,0.7,1.5,1.5S24.3,21,23.5,21z"/>
</svg>
