<?xml version="1.0" encoding="utf-8"?>
<!-- Generator: Adobe Illustrator 25.4.1, SVG Export Plug-In . SVG Version: 6.00 Build 0)  -->
<svg version="1.1" id="Icons" xmlns="http://www.w3.org/2000/svg" xmlns:xlink="http://www.w3.org/1999/xlink" x="0px" y="0px"
	 width="14px" height="14px" viewBox="0 0 14 14" enable-background="new 0 0 14 14" xml:space="preserve">
<path fill="#231F20" d="M11,7.5c0.8,0,1.5,0.7,1.5,1.5s-0.7,1.5-1.5,1.5S9.5,9.8,9.5,9S10.2,7.5,11,7.5z"/>
<path fill="#231F20" d="M3,7.5c0.8,0,1.5,0.7,1.5,1.5S3.8,10.5,3,10.5S1.5,9.8,1.5,9S2.2,7.5,3,7.5z"/>
<path fill="#231F20" d="M13,6V5h-3L9,3H8l1,2L7,7H6L4,5H0v2.5v1h0.6c0.2-1.1,1.2-2,2.4-2c1.4,0,2.5,1.1,2.5,2.5h3
	c0-1.4,1.1-2.5,2.5-2.5c1.2,0,2.2,0.9,2.4,2H14v-1V7L13,6z"/>
</svg>
