<?xml version="1.0" encoding="utf-8"?>
<!-- Generator: Adobe Illustrator 20.0.0, SVG Export Plug-In . SVG Version: 6.00 Build 0)  -->
<svg version="1.1" id="Icons" xmlns="http://www.w3.org/2000/svg" xmlns:xlink="http://www.w3.org/1999/xlink" x="0px" y="0px"
	 width="22px" height="22px" viewBox="0 0 22 22" style="enable-background:new 0 0 22 22;" xml:space="preserve">
<g>
	<polygon fill="#FFFFFF" points="21,11 21,8 15,8 13,5 12,5 14,8 12,10 9,10 7,8 0,8 0,14 1,14 2,14 2,12 3,11 7,11 8,12 8,14 9,14 13,14 14,14 
		14,12 15,11 19,11 20,12 20,14 21,14 22,14 22,12 	"/>
	<path fill="#FFFFFF" d="M5,12c-1.1,0-2,0.9-2,2s0.9,2,2,2s2-0.9,2-2S6.1,12,5,12z M6,14.4C6,14.7,5.7,15,5.4,15H4.6C4.3,15,4,14.7,4,14.4v-0.9
		C4,13.3,4.3,13,4.6,13h0.9C5.7,13,6,13.3,6,13.6V14.4z"/>
	<path fill="#FFFFFF" d="M17,12c-1.1,0-2,0.9-2,2s0.9,2,2,2s2-0.9,2-2S18.1,12,17,12z M18,14.4c0,0.3-0.3,0.6-0.6,0.6h-0.9c-0.3,0-0.6-0.3-0.6-0.6
		v-0.9c0-0.3,0.3-0.6,0.6-0.6h0.9c0.3,0,0.6,0.3,0.6,0.6V14.4z"/>
</g>
</svg>
