<?xml version="1.0" encoding="utf-8"?>
<!-- Generator: Adobe Illustrator 20.0.0, SVG Export Plug-In . SVG Version: 6.00 Build 0)  -->
<svg version="1.1" id="Icons" xmlns="http://www.w3.org/2000/svg" xmlns:xlink="http://www.w3.org/1999/xlink" x="0px" y="0px"
	 width="22px" height="22px" viewBox="0 0 22 22" style="enable-background:new 0 0 22 22;" xml:space="preserve">
<g>
	<path fill="#231F20" d="M19,14.4L19,14.4v-1.5V6.2c0-0.7-0.4-1.3-0.9-1.8L15,1.5c-0.2,0-0.8,0.4-0.8,0.4c0,0.2,1.5,1.8,1.5,1.8v2.6
		c0,0.9,0.8,1.8,1.7,1.8L18,7.9v5v1.7l1,5.1c0,0.8-0.9,1.3-1.5,1.3C17,21,16,20.5,16,20v-8.9C16,10,15.4,9,14.4,9H12V1h-1V0H3v1H2
		v21h10V10.4h2.4c0.4,0,0.6,0.3,0.6,0.7V20c0,1.2,1.2,2,2.5,2c1.2,0,2.5-0.8,2.5-2C20,19.7,19,14.4,19,14.4z M18,7h-1V5h1V7z
		 M10.5,5.8L9.6,6.6H4.4L3.5,5.8V2.2l0.9-0.9h5.2l0.9,0.9V5.8z"/>
</g>
</svg>
