<?xml version="1.0" encoding="utf-8"?>
<!-- Generator: Adobe Illustrator 20.0.0, SVG Export Plug-In . SVG Version: 6.00 Build 0)  -->
<svg version="1.1" id="Icons" xmlns="http://www.w3.org/2000/svg" xmlns:xlink="http://www.w3.org/1999/xlink" x="0px" y="0px"
	 width="30px" height="30px" viewBox="0 0 30 30" style="enable-background:new 0 0 30 30;" xml:space="preserve">
<g>
	<path fill="#FFFFFF" d="M25.3,19.5L25.3,19.5l-0.3-2V8.4c0-1-0.3-1.8-1-2.4l-4.2-4c-0.3,0-1.1,0.5-1.1,0.5c0,0.3,2.1,2.4,2.1,2.4l-0.1,3.5
		c0,1.3,1,2.3,2.3,2.3h0.6l-0.2,6.8l0.3,2.3L25,27c0,1.1-1,1.4-1.8,1.4c-0.7,0-1.6-0.6-1.6-1.4V15c0-1.5-1.2-2.6-2.6-2.6h-2V1h-1V0
		h-1H6H5v1H4v1v28h13V14h2c0.5,0,1,0.5,1,1v12c0,1.6,1.4,3,3.2,3c1.6,0,3.8-1.3,3.8-3C27,26.6,25.3,19.5,25.3,19.5z M23,8
		c0,0.4,0,1,0,1c-0.9-0.2-1,0.4-1,0V7c0,0,0.8,0,1,0C23.3,7.1,23,7.6,23,8z M15,9l-1,1H7L6,9V3l1-1h7l1,1V9z"/>
</g>
</svg>
