<?xml version="1.0" encoding="utf-8"?>
<!-- Generator: Adobe Illustrator 22.0.1, SVG Export Plug-In . SVG Version: 6.00 Build 0)  -->
<svg version="1.1" id="Layer_1" xmlns="http://www.w3.org/2000/svg" xmlns:xlink="http://www.w3.org/1999/xlink" x="0px" y="0px"
	 width="30px" height="30px" viewBox="0 0 30 30" enable-background="new 0 0 30 30" xml:space="preserve">
<path d="M25.3,19.5l-0.3-2V8.4c0-1-0.3-1.8-1-2.4l-4.2-4c-0.3,0-1.1,0.5-1.1,0.5c0,0.3,2.1,2.4,2.1,2.4l-0.1,3.5
	c0,1.3,1,2.3,2.3,2.3h0.6l-0.2,6.8l0.3,2.3L25,27c0,1.1-1,1.4-1.8,1.4c-0.7,0-1.6-0.6-1.6-1.4V15c0-1.5-1.2-2.6-2.6-2.6h-2V1h-1V0
	h-1H6H5v1H4v1v28h13V14h2c0.5,0,1,0.5,1,1v12c0,1.6,1.4,3,3.2,3c1.6,0,3.8-1.3,3.8-3C27,26.6,25.3,19.5,25.3,19.5z M23,8
	c0,0.4,0,1,0,1c-0.9-0.2-1,0.4-1,0V7c0,0,0.8,0,1,0C23.3,7.1,23,7.6,23,8z M6,3l1-1h7l1,1v6l-1,1H7L6,9V3z M14.815,22.336
	c-0.139,0.835-0.375,1.521-0.711,2.062s-0.786,0.942-1.351,1.206c-0.563,0.264-1.277,0.396-2.142,0.396H6.526V13.147h4.248
	c0.899,0,1.626,0.146,2.178,0.44c0.552,0.295,0.981,0.715,1.287,1.261s0.513,1.203,0.621,1.971c0.107,0.768,0.162,1.626,0.162,2.574
	C15.022,20.521,14.953,21.502,14.815,22.336z"/>
<path d="M12.062,16.162c-0.15-0.366-0.372-0.642-0.666-0.828c-0.295-0.186-0.688-0.278-1.18-0.278H9.118v9.035h1.152
	c0.456,0,0.821-0.077,1.098-0.233s0.495-0.414,0.657-0.774c0.162-0.359,0.27-0.834,0.324-1.422c0.054-0.588,0.081-1.319,0.081-2.196
	c0-0.731-0.024-1.373-0.072-1.926C12.311,16.987,12.211,16.528,12.062,16.162z"/>
</svg>
