<?xml version="1.0" encoding="utf-8"?>
<!-- Generator: Adobe Illustrator 22.0.1, SVG Export Plug-In . SVG Version: 6.00 Build 0)  -->
<svg version="1.1" id="Layer_1" xmlns="http://www.w3.org/2000/svg" xmlns:xlink="http://www.w3.org/1999/xlink" x="0px" y="0px"
	 width="22px" height="22px" viewBox="0 0 22 22" enable-background="new 0 0 22 22" xml:space="preserve">
<path fill="#FFFFFF" d="M7.736,11.441c-0.1-0.244-0.248-0.428-0.444-0.552c-0.196-0.124-0.458-0.187-0.786-0.187H6v5.584h0.542
	c0.304,0,0.548-0.052,0.732-0.156c0.184-0.104,0.33-0.276,0.438-0.516c0.108-0.24,0.18-0.557,0.216-0.948s0.054-0.439,0.054-1.023
	c0-0.488-0.016-0.916-0.048-1.284C7.902,11.991,7.836,11.686,7.736,11.441z"/>
<path fill="#FFFFFF" d="M19,14.4v-1.5V6.2c0-0.7-0.4-1.3-0.9-1.8L15,1.5c-0.2,0-0.8,0.4-0.8,0.4c0,0.2,1.5,1.8,1.5,1.8v2.6c0,0.9,0.8,1.8,1.7,1.8
	L18,7.9v5v1.7l1,5.1c0,0.8-0.9,1.3-1.5,1.3C17,21,16,20.5,16,20v-8.9C16,10,15.4,9,14.4,9H12V1h-1V0H3v1H2v21h10V10.4h2.4
	c0.4,0,0.6,0.3,0.6,0.7V20c0,1.2,1.2,2,2.5,2c1.2,0,2.5-0.8,2.5-2C20,19.7,19,14.4,19,14.4z M18,7h-1V5h1V7z M9.862,15.558
	c-0.092,0.556-0.25,1.014-0.474,1.374c-0.224,0.359-0.524,0.628-0.9,0.804s-0.852,0.264-1.428,0.264H4V8.963h3.168
	c0.6,0,1.084,0.098,1.452,0.294c0.368,0.196,0.654,0.476,0.858,0.84c0.204,0.364,0.342,0.802,0.414,1.313
	C9.964,11.923,10,12.964,10,13.596C10,14.348,9.954,15.001,9.862,15.558z M10.5,5.8L9.6,6.6H4.4L3.5,5.8V2.2l0.9-0.9h5.2l0.9,0.9
	V5.8z"/>
</svg>
