<?xml version="1.0" encoding="utf-8"?>
<!-- Generator: Adobe Illustrator 22.0.1, SVG Export Plug-In . SVG Version: 6.00 Build 0)  -->
<svg version="1.1" id="Layer_1" xmlns="http://www.w3.org/2000/svg" xmlns:xlink="http://www.w3.org/1999/xlink" x="0px" y="0px"
	 width="22px" height="22px" viewBox="0 0 22 22" enable-background="new 0 0 22 22" xml:space="preserve">
<path d="M0,2v11.703C0.825,12.673,2.078,12,3.5,12c1.956,0,3.605,1.256,4.224,3H17v5h2v-5h3V2H0z M18,7l-6,6l2-4h-2l3-6h3l-2,4H18z"
	/>
<path d="M3.5,13C1.567,13,0,14.567,0,16.5S1.567,20,3.5,20S7,18.433,7,16.5S5.433,13,3.5,13z M3.5,18.5c-1.105,0-2-0.895-2-2
	c0-1.105,0.895-2,2-2s2,0.895,2,2C5.5,17.605,4.605,18.5,3.5,18.5z"/>
</svg>
