<?xml version="1.0" encoding="utf-8"?>
<!-- Generator: Adobe Illustrator 22.0.1, SVG Export Plug-In . SVG Version: 6.00 Build 0)  -->
<svg version="1.1" id="Layer_1" xmlns="http://www.w3.org/2000/svg" xmlns:xlink="http://www.w3.org/1999/xlink" x="0px" y="0px"
	 width="30px" height="30px" viewBox="0 0 30 30" enable-background="new 0 0 30 30" xml:space="preserve">
<path d="M0,3v18h0.212c0.654-2.307,2.771-4,5.288-4s4.634,1.693,5.288,4H23v6h3v-6h4V3H0z M25,10l-7,7l2-5h-3l4-7h4l-3,5H25z"/>
<path d="M5.5,18C3.015,18,1,20.015,1,22.5S3.015,27,5.5,27s4.5-2.015,4.5-4.5S7.985,18,5.5,18z M5.5,25.5c-1.657,0-3-1.343-3-3
	s1.343-3,3-3s3,1.343,3,3S7.157,25.5,5.5,25.5z"/>
</svg>
