<?xml version="1.0" encoding="utf-8"?>
<!-- Generator: Adobe Illustrator 22.0.1, SVG Export Plug-In . SVG Version: 6.00 Build 0)  -->
<svg version="1.1" id="Layer_1" xmlns="http://www.w3.org/2000/svg" xmlns:xlink="http://www.w3.org/1999/xlink" x="0px" y="0px"
	 width="14px" height="14px" viewBox="0 0 14 14" enable-background="new 0 0 14 14" xml:space="preserve">
<path d="M2.5,8C1.119,8,0,9.119,0,10.5C0,11.881,1.119,13,2.5,13C3.881,13,5,11.881,5,10.5C5,9.119,3.881,8,2.5,8z M2.5,12
	C1.672,12,1,11.328,1,10.5S1.672,9,2.5,9S4,9.672,4,10.5S3.328,12,2.5,12z"/>
<path d="M0,2v6.058C0.636,7.407,1.52,7,2.5,7c1.759,0,3.204,1.308,3.449,3H11v3h1v-3h2V2H0z M12,5L8,9l1-3H8l2-3h2l-1,2H12z"/>
</svg>
