<?xml version="1.0" encoding="utf-8"?>
<!-- Generator: Adobe Illustrator 24.2.0, SVG Export Plug-In . SVG Version: 6.00 Build 0)  -->
<svg version="1.1" id="Layer_1" xmlns="http://www.w3.org/2000/svg" xmlns:xlink="http://www.w3.org/1999/xlink" x="0px" y="0px"
	 width="14px" height="14px" viewBox="0 0 14 14" enable-background="new 0 0 14 14" xml:space="preserve">
<path id="Path_334_1_" fill="#FFFFFF" d="M0,14h14c0,0-0.7-1.2-3.1-1.4c-2.3-0.2-1.7-1-3-1c-1.3,0-0.5-0.1-1.9,0
	c-1.4,0.1-1.3,1-3.3,1.1C0.6,13,0,14,0,14z"/>
<path fill="#FFFFFF" d="M10.9,2.8c0-0.9-0.5-1.8-1.2-2.3C9.2,0.2,8.7,0,8.1,0C7.2,0,6.3,0.4,5.8,1.2c-0.2,0-0.3,0-0.5,0c0,0,0,0,0,0
	c0,0,0,0,0,0c0,0,0,0,0,0l0,0.1c0,0,0,0,0,0l0-0.1c-0.1,0-0.2,0-0.2,0c0,0,0,0,0,0v0C3.5,1.4,2.4,2.6,2.5,4c0,1.5,1.3,2.7,2.8,2.7
	c0,0,0,0,0,0h0.1l0.8,4.1h1.5l0.7-3.4c0.2,0.1,0.4,0.1,0.6,0.1c0,0,0,0,0,0c0,0,0,0,0,0c1,0,1.8-0.8,1.8-1.8c0-0.4-0.2-0.9-0.5-1.2
	C10.7,4.1,10.9,3.4,10.9,2.8z M9.6,5.2c0.1,0.1,0.2,0.3,0.2,0.5c0,0.4-0.4,0.8-0.8,0.8c-0.1,0-0.2,0-0.3,0L7.6,6.2L7.4,7.3L7,9.5
	L6.4,6.6L6.2,5.8H5.4l-0.1,0C4.3,5.8,3.5,5,3.5,4c0-0.9,0.6-1.7,1.5-1.8c1.1,0,2,0.9,2,2h1c0-1-0.5-1.9-1.3-2.5C7,1.3,7.5,1,8.1,1
	c0.4,0,0.7,0.1,1,0.3c0.5,0.3,0.8,0.9,0.8,1.5c0,0.4-0.1,0.8-0.4,1.1L9,4.6L9.6,5.2z"/>
</svg>
