<?xml version="1.0" encoding="utf-8"?>
<!-- Generator: Adobe Illustrator 20.0.0, SVG Export Plug-In . SVG Version: 6.00 Build 0)  -->
<svg version="1.1" id="Icons" xmlns="http://www.w3.org/2000/svg" xmlns:xlink="http://www.w3.org/1999/xlink" x="0px" y="0px"
	 width="30px" height="30px" viewBox="0 0 30 30" style="enable-background:new 0 0 30 30;" xml:space="preserve">
<g>
	<path fill="#231F20" d="M23,9.4c-0.1-0.5-0.5-0.7-0.5-0.8L9.5,0L8.3,1.8C8.1,2.1,8.2,2.8,8.6,3c0.3,0.2,0.8-0.1,1-0.4l0.7-1l10.5,7l-8.6,1.6
		c-0.6,0.1-1.2,0.7-1,1.3l2,7.5l-5.9,9c-0.4,0.6-0.3,1.6,0.4,2C8,30,9,30,9.4,29.3l6.3-9.7L16,21l-0.9,7.2c-0.1,0.7,0.3,1.7,1.1,1.8
		c0.7,0.1,1.4-0.6,1.5-1.3l1-7.4c0-0.2,0-0.6-0.1-0.8l-2.2-8.7l5.6-1C22.7,10.6,23.1,10,23,9.4L23,9.4z"/>
	<circle fill="#231F20" cx="12" cy="7" r="2"/>
</g>
</svg>
