<?xml version="1.0" encoding="utf-8"?>
<!-- Generator: Adobe Illustrator 21.1.0, SVG Export Plug-In . SVG Version: 6.00 Build 0)  -->
<svg version="1.1" id="Icons" xmlns="http://www.w3.org/2000/svg" xmlns:xlink="http://www.w3.org/1999/xlink" x="0px" y="0px"
	 width="14px" height="14px" viewBox="0 0 14 14" enable-background="new 0 0 14 14" xml:space="preserve">
<g>
	<polygon fill="#231F20" points="10,5 6,6 7,8 6,9 4,14 5,14 7,10 8,10 8,14 9,14 10,9 9,6 10,6 12,5 	"/>
	<rect fill="#231F20" x="5" y="3" width="2" height="2"/>
	<rect fill="#231F20" x="11" y="5" width="1" height="1"/>
	<rect fill="#231F20" x="10" y="4" width="1" height="1"/>
	<rect fill="#231F20" x="9" y="3" width="1" height="1"/>
	<rect fill="#231F20" x="8" y="2" width="1" height="1"/>
	<rect fill="#231F20" x="7" y="1" width="1" height="1"/>
	<rect fill="#231F20" x="6" width="1" height="1"/>
	<rect fill="#231F20" x="5" width="1" height="1"/>
	<rect fill="#231F20" x="5" y="1" width="1" height="1"/>
</g>
</svg>
