<?xml version="1.0" encoding="utf-8"?>
<!-- Generator: Adobe Illustrator 21.1.0, SVG Export Plug-In . SVG Version: 6.00 Build 0)  -->
<svg version="1.1" id="Layer_1" xmlns="http://www.w3.org/2000/svg" xmlns:xlink="http://www.w3.org/1999/xlink" x="0px" y="0px"
	 width="14px" height="14px" viewBox="0 0 14 14" enable-background="new 0 0 14 14" xml:space="preserve">
<path d="M5.129,10.837C5.709,11.066,6.338,11.201,7,11.201s1.291-0.136,1.871-0.365L9.668,14h1.71l-1.027-4.078
	C11.423,8.985,12,7.535,12,6H2c0,1.535,0.577,2.985,1.649,3.922L2.622,14h1.71L5.129,10.837z"/>
<path d="M3.465,4.968C3.461,4.961,3.092,4.262,3.253,3.642c0.081-0.307,0.176-0.5,0.261-0.671c0.121-0.244,0.235-0.475,0.235-0.871
	c0-0.286-0.066-0.559-0.138-0.849C3.526,0.904,3.427,0.51,3.427,0H2.749c0,0.591,0.112,1.047,0.203,1.415
	c0.064,0.26,0.119,0.483,0.119,0.686c0,0.237-0.059,0.354-0.165,0.57C2.812,2.86,2.696,3.097,2.598,3.47
	c-0.154,0.588,0.004,1.156,0.136,1.5h0.728L3.465,4.968z"/>
<path d="M6.038,4.967C6.034,4.961,5.663,4.262,5.825,3.642c0.081-0.307,0.176-0.5,0.261-0.671c0.121-0.244,0.235-0.475,0.235-0.871
	c0-0.286-0.068-0.559-0.138-0.849C6.096,0.904,5.998,0.51,5.998,0H5.32c0,0.591,0.114,1.049,0.205,1.417
	c0.064,0.258,0.119,0.481,0.119,0.684c0,0.237-0.059,0.354-0.165,0.57C5.384,2.86,5.269,3.097,5.17,3.468
	C5.015,4.056,5.173,4.625,5.305,4.97h0.725L6.038,4.967z"/>
<path d="M8.609,4.968C8.606,4.961,8.236,4.262,8.397,3.642c0.081-0.307,0.176-0.5,0.261-0.671C8.78,2.728,8.893,2.497,8.893,2.101
	c0-0.286-0.066-0.559-0.138-0.849C8.67,0.904,8.571,0.51,8.571,0H7.893c0,0.591,0.112,1.047,0.203,1.415
	c0.064,0.26,0.119,0.483,0.119,0.686c0,0.237-0.059,0.354-0.165,0.57C7.956,2.86,7.84,3.097,7.742,3.47
	c-0.154,0.588,0.004,1.156,0.136,1.5h0.728L8.609,4.968z"/>
<path d="M11.182,4.967c-0.004-0.006-0.375-0.705-0.212-1.324c0.081-0.307,0.176-0.5,0.261-0.671
	c0.121-0.244,0.235-0.475,0.235-0.871c0-0.286-0.068-0.559-0.138-0.849C11.241,0.904,11.142,0.51,11.142,0h-0.678
	c0,0.591,0.114,1.049,0.205,1.417c0.064,0.258,0.119,0.481,0.119,0.684c0,0.237-0.059,0.354-0.165,0.57
	c-0.095,0.189-0.21,0.426-0.309,0.797c-0.155,0.588,0.003,1.157,0.135,1.502h0.725L11.182,4.967z"/>
</svg>
