<?xml version="1.0" encoding="utf-8"?>
<!-- Generator: Adobe Illustrator 28.2.0, SVG Export Plug-In . SVG Version: 6.00 Build 0)  -->
<svg version="1.1" id="Layer_1" xmlns="http://www.w3.org/2000/svg" xmlns:xlink="http://www.w3.org/1999/xlink" x="0px" y="0px"
	 width="22px" height="22px" viewBox="0 0 22 22" enable-background="new 0 0 22 22" xml:space="preserve">
<path fill="#231F20" d="M15.6,18c-1.1,0-2,0.9-2,2s0.9,2,2,2s2-0.9,2-2S16.7,18,15.6,18 M15.6,20.7c-0.4,0-0.7-0.3-0.7-0.7
	c0-0.4,0.3-0.7,0.7-0.7s0.7,0.3,0.7,0.7C16.3,20.4,16,20.7,15.6,20.7"/>
<path fill="#231F20" d="M8.9,0c0,0.2-0.1,0.4-0.1,0.6C8.7,0.8,8.5,1.1,8.5,1.4S8.7,2,8.8,2.2C8.9,2.4,9.1,2.7,9.1,3S8.9,3.5,8.8,3.8
	C8.7,4,8.5,4.3,8.5,4.6c0,0.3,0.2,0.6,0.3,0.8C8.9,5.6,9,5.9,9,6.1H7.9c0-0.3-0.1-0.5-0.2-0.8C7.6,5.1,7.4,4.8,7.4,4.6
	c0-0.3,0.2-0.6,0.3-0.8C7.8,3.5,8,3.2,8,3c0-0.3-0.2-0.5-0.3-0.8C7.6,2,7.4,1.7,7.4,1.4s0.2-0.6,0.3-0.8C7.8,0.4,7.9,0.2,7.9,0H8.9z
	"/>
<path fill="#231F20" d="M11.7,0c0,0.2-0.1,0.4-0.1,0.6c-0.1,0.2-0.3,0.5-0.3,0.8s0.2,0.6,0.3,0.8s0.3,0.5,0.3,0.8s-0.2,0.5-0.3,0.8
	c-0.1,0.2-0.3,0.5-0.3,0.8c0,0.3,0.2,0.6,0.3,0.8c0.1,0.2,0.2,0.5,0.2,0.8h-1.1c0-0.3-0.1-0.5-0.2-0.8c-0.1-0.2-0.3-0.5-0.3-0.8
	s0.2-0.6,0.3-0.8s0.3-0.5,0.3-0.8s-0.2-0.5-0.3-0.8c-0.1-0.2-0.3-0.5-0.3-0.8s0.2-0.6,0.3-0.8s0.1-0.4,0.1-0.6C10.6,0,11.7,0,11.7,0
	z"/>
<path fill="#231F20" d="M14.4,0c0,0.2-0.1,0.4-0.1,0.6C14.2,0.8,14,1.1,14,1.4s0.2,0.6,0.3,0.8s0.3,0.5,0.3,0.8s-0.2,0.5-0.3,0.8
	C14.2,4,14,4.3,14,4.6c0,0.3,0.2,0.6,0.3,0.8c0.1,0.2,0.2,0.5,0.2,0.8h-1.1c0-0.3-0.1-0.5-0.2-0.8c-0.1-0.2-0.3-0.5-0.3-0.8
	s0.2-0.6,0.3-0.8s0.3-0.5,0.3-0.8s-0.2-0.5-0.3-0.8c-0.1-0.2-0.3-0.5-0.3-0.8s0.2-0.6,0.3-0.8s0.1-0.4,0.1-0.6C13.3,0,14.4,0,14.4,0
	z"/>
<path fill="#231F20" d="M17.5,7.2H4.4c0.1,2,1.1,3.8,2.6,4.9l-1.7,9.6h1.1l0.9-5.4h7c0,0,0.2,0.9,0.2,1.3c0.2-0.1,0.6-0.2,0.9-0.2
	c0.1,0,0.2,0,0.2,0c-0.1-0.3-0.9-5.2-0.9-5.2C16.4,11,17.4,9.2,17.5,7.2 M8,12.7c0.9,0.4,1.9,0.7,2.9,0.7s2-0.3,2.9-0.7l0.5,2.8H7.6
	L8,12.7z"/>
<line fill="none" x1="14.3" y1="15.5" x2="14.3" y2="15.5"/>
</svg>
