<?xml version="1.0" encoding="utf-8"?>
<!-- Generator: Adobe Illustrator 27.9.1, SVG Export Plug-In . SVG Version: 6.00 Build 0)  -->
<svg version="1.1" id="Layer_1" xmlns="http://www.w3.org/2000/svg" xmlns:xlink="http://www.w3.org/1999/xlink" x="0px" y="0px"
	 viewBox="0 0 14 14" enable-background="new 0 0 14 14" xml:space="preserve">
<path  d="M9.9,11.4c-0.7,0-1.3,0.6-1.3,1.3c0,0.7,0.6,1.3,1.3,1.3c0.7,0,1.3-0.6,1.3-1.3C11.2,12,10.6,11.4,9.9,11.4
	 M9.9,13.2c-0.3,0-0.5-0.2-0.5-0.5c0-0.3,0.2-0.5,0.5-0.5c0.3,0,0.5,0.2,0.5,0.5C10.4,13,10.2,13.2,9.9,13.2"/>
<path  d="M5.7,0c0,0.1,0,0.3-0.1,0.4C5.5,0.5,5.4,0.7,5.4,0.9c0,0.2,0.1,0.4,0.2,0.5c0.1,0.1,0.2,0.3,0.2,0.5
	c0,0.2-0.1,0.3-0.2,0.5C5.5,2.5,5.4,2.7,5.4,2.9c0,0.2,0.1,0.4,0.2,0.5c0.1,0.1,0.1,0.3,0.1,0.5H5c0-0.2,0-0.3-0.1-0.5
	C4.9,3.3,4.7,3.1,4.7,2.9c0-0.2,0.1-0.4,0.2-0.5C5,2.2,5.1,2.1,5.1,1.9c0-0.2-0.1-0.3-0.2-0.5C4.9,1.2,4.7,1.1,4.7,0.9
	c0-0.2,0.1-0.4,0.2-0.5C5,0.3,5,0.1,5,0H5.7z"/>
<path  d="M7.4,0c0,0.1,0,0.3-0.1,0.4C7.3,0.5,7.1,0.7,7.1,0.9c0,0.2,0.1,0.4,0.2,0.5c0.1,0.1,0.2,0.3,0.2,0.5
	c0,0.2-0.1,0.3-0.2,0.5C7.3,2.5,7.1,2.7,7.1,2.9c0,0.2,0.1,0.4,0.2,0.5c0.1,0.1,0.1,0.3,0.1,0.5H6.8c0-0.2,0-0.3-0.1-0.5
	C6.6,3.3,6.5,3.1,6.5,2.9c0-0.2,0.1-0.4,0.2-0.5c0.1-0.2,0.2-0.3,0.2-0.5c0-0.2-0.1-0.3-0.2-0.5C6.6,1.2,6.5,1.1,6.5,0.9
	c0-0.2,0.1-0.4,0.2-0.5c0-0.1,0.1-0.2,0.1-0.4H7.4z"/>
<path  d="M9.2,0c0,0.1,0,0.3-0.1,0.4C9,0.5,8.9,0.7,8.9,0.9c0,0.2,0.1,0.4,0.2,0.5c0.1,0.1,0.2,0.3,0.2,0.5
	c0,0.2-0.1,0.3-0.2,0.5C9,2.5,8.9,2.7,8.9,2.9c0,0.2,0.1,0.4,0.2,0.5c0.1,0.1,0.1,0.3,0.1,0.5H8.5c0-0.2,0-0.3-0.1-0.5
	C8.3,3.3,8.2,3.1,8.2,2.9c0-0.2,0.1-0.4,0.2-0.5c0.1-0.2,0.2-0.3,0.2-0.5c0-0.2-0.1-0.3-0.2-0.5C8.3,1.2,8.2,1.1,8.2,0.9
	c0-0.2,0.1-0.4,0.2-0.5c0-0.1,0.1-0.2,0.1-0.4H9.2z"/>
<path  d="M11.1,4.6H2.8C2.9,5.9,3.5,7,4.5,7.7l-1.1,6.1h0.7l0.6-3.5h4.5c0,0,0.1,0.6,0.1,0.8C9.5,11.1,9.7,11,9.9,11
	c0.1,0,0.1,0,0.1,0c0-0.2-0.6-3.3-0.6-3.3C10.4,7,11.1,5.9,11.1,4.6 M5.1,8.1C5.7,8.4,6.3,8.5,7,8.5s1.3-0.2,1.8-0.4l0.3,1.8H4.8
	L5.1,8.1z"/>
<line  x1="9.1" y1="9.9" x2="9.1" y2="9.9"/>
</svg>
