<?xml version="1.0" encoding="utf-8"?>
<!-- Generator: Adobe Illustrator 21.1.0, SVG Export Plug-In . SVG Version: 6.00 Build 0)  -->
<svg version="1.1" id="Layer_1" xmlns="http://www.w3.org/2000/svg" xmlns:xlink="http://www.w3.org/1999/xlink" x="0px" y="0px"
	 width="22px" height="22px" viewBox="0 0 22 22" enable-background="new 0 0 22 22" xml:space="preserve">
<path d="M8.059,17.029c0.913,0.36,1.9,0.573,2.941,0.573s2.028-0.213,2.941-0.573L15.192,22h2.688l-1.614-6.408
	c1.684-1.473,2.769-3.612,2.769-6.025H2.965c0,2.413,1.085,4.552,2.769,6.024L4.12,22h2.688L8.059,17.029z"/>
<path d="M5.445,7.808c-0.006-0.012-0.586-1.11-0.333-2.084C5.24,5.242,5.389,4.938,5.523,4.67c0.19-0.384,0.369-0.747,0.369-1.369
	c0-0.449-0.104-0.878-0.217-1.333C5.54,1.42,5.386,0.801,5.386,0H4.32c0,0.929,0.176,1.646,0.318,2.223
	C4.74,2.631,4.826,2.983,4.826,3.301c0,0.372-0.092,0.557-0.259,0.896c-0.149,0.298-0.33,0.67-0.485,1.256
	C3.84,6.376,4.089,7.269,4.296,7.81H5.44L5.445,7.808z"/>
<path d="M9.488,7.805C9.482,7.796,8.898,6.697,9.154,5.724C9.282,5.242,9.431,4.938,9.565,4.67c0.191-0.384,0.369-0.747,0.369-1.369
	c0-0.449-0.107-0.878-0.217-1.333C9.58,1.42,9.425,0.801,9.425,0H8.36c0,0.929,0.179,1.649,0.321,2.226
	c0.101,0.405,0.188,0.756,0.188,1.075c0,0.372-0.092,0.557-0.259,0.896c-0.149,0.298-0.33,0.67-0.485,1.253
	C7.88,6.374,8.129,7.268,8.337,7.81h1.14L9.488,7.805z"/>
<path d="M13.529,7.808c-0.006-0.012-0.586-1.11-0.333-2.084c0.128-0.482,0.277-0.786,0.411-1.054
	c0.19-0.384,0.369-0.747,0.369-1.369c0-0.449-0.104-0.878-0.217-1.333C13.624,1.42,13.469,0.801,13.469,0h-1.066
	c0,0.929,0.176,1.646,0.318,2.223c0.101,0.408,0.188,0.759,0.188,1.078c0,0.372-0.092,0.557-0.259,0.896
	c-0.149,0.298-0.33,0.67-0.485,1.256c-0.242,0.923,0.007,1.816,0.214,2.357h1.144L13.529,7.808z"/>
<path d="M17.571,7.805c-0.006-0.009-0.589-1.107-0.333-2.081c0.128-0.482,0.277-0.786,0.411-1.054
	c0.191-0.384,0.369-0.747,0.369-1.369c0-0.449-0.107-0.878-0.217-1.333C17.664,1.42,17.509,0.801,17.509,0h-1.066
	c0,0.929,0.179,1.649,0.321,2.226c0.101,0.405,0.188,0.756,0.188,1.075c0,0.372-0.092,0.557-0.259,0.896
	c-0.149,0.298-0.33,0.67-0.485,1.253c-0.244,0.924,0.005,1.818,0.213,2.36h1.14L17.571,7.805z"/>
</svg>
