<?xml version="1.0" encoding="utf-8"?>
<!-- Generator: Adobe Illustrator 22.0.1, SVG Export Plug-In . SVG Version: 6.00 Build 0)  -->
<svg version="1.1" id="Layer_1" xmlns="http://www.w3.org/2000/svg" xmlns:xlink="http://www.w3.org/1999/xlink" x="0px" y="0px"
	 width="22px" height="22px" viewBox="0 0 22 22" enable-background="new 0 0 22 22" xml:space="preserve">
<polygon fill="#FFFFFF" points="19,7 19,6 14,6 14,7 13,7 13,8 13,13 14,13 14,8 15,8 15,20 16,20 16,14 17,14 17,20 18,20 18,8 19,8 20,8 20,7 "/>
<circle fill="#FFFFFF" cx="16.5" cy="3.5" r="1.5"/>
<polygon fill="#FFFFFF" points="4,7 4,6 1,6 1,7 0,7 0,8 0,13 1,13 1,20 2,20 2,14 3,14 3,20 4,20 4,13 5,13 5,7 "/>
<circle fill="#FFFFFF" cx="2.5" cy="3.5" r="1.5"/>
<polygon fill="#FFFFFF" points="10,7 10,6 7,6 7,7 6,7 6,8 6,13 7,13 7,20 8,20 8,14 9,14 9,20 10,20 10,13 11,13 11,7 "/>
<circle fill="#FFFFFF" cx="8.5" cy="3.5" r="1.5"/>
<rect fill="#FFFFFF" x="21" y="4" width="1" height="4"/>
<rect fill="#FFFFFF" x="19" y="7" width="2" height="1"/>
</svg>
