<?xml version="1.0" encoding="utf-8"?>
<!-- Generator: Adobe Illustrator 22.0.1, SVG Export Plug-In . SVG Version: 6.00 Build 0)  -->
<svg version="1.1" id="Layer_1" xmlns="http://www.w3.org/2000/svg" xmlns:xlink="http://www.w3.org/1999/xlink" x="0px" y="0px"
	 width="30px" height="30px" viewBox="0 0 30 30" enable-background="new 0 0 30 30" xml:space="preserve">
<polygon points="18,8 27,8 27,9 28,9 26,10 25,10 25,26 24,27 23,27 23,17 22,17 22,27 21,27 20,26 20,10 19,10 19,17 18,17 17,15 
	17,9 18,9 "/>
<path d="M23,7h-1c-0.6,0-1-0.5-1-1V5c0-0.6,0.4-1,1-1h1c0.6,0,1,0.4,1,1v1C24,6.5,23.6,7,23,7z"/>
<polygon points="1,8 6,8 6,9 7,9 7,15 6,17 6,26 5,27 4,27 4,18 3,18 3,27 2,27 1,26 1,17 0,15 0,9 1,9 "/>
<path d="M4,7H3C2.4,7,2,6.5,2,6V5c0-0.6,0.4-1,1-1h1c0.6,0,1,0.4,1,1v1C5,6.5,4.6,7,4,7z"/>
<polygon points="9,8 14,8 14,9 15,9 15,15 14,17 14,26 13,27 12,27 12,18 11,18 11,27 10,27 9,26 9,17 8,15 8,9 9,9 "/>
<path d="M12,7h-1c-0.6,0-1-0.5-1-1V5c0-0.6,0.4-1,1-1h1c0.6,0,1,0.4,1,1v1C13,6.5,12.6,7,12,7z"/>
<polygon points="28,10 30,8 30,6 29,4 28,4 "/>
<polygon points="30,8 25,8 25,10 29,10 30,9 "/>
</svg>
