<?xml version="1.0" encoding="utf-8"?>
<!-- Generator: Adobe Illustrator 22.0.1, SVG Export Plug-In . SVG Version: 6.00 Build 0)  -->
<svg version="1.1" id="Layer_1" xmlns="http://www.w3.org/2000/svg" xmlns:xlink="http://www.w3.org/1999/xlink" x="0px" y="0px"
	 width="14px" height="14px" viewBox="0 0 14 14" enable-background="new 0 0 14 14" xml:space="preserve">
<g>
	<circle cx="10" cy="3" r="1"/>
</g>
<g>
	<circle cx="5" cy="3" r="1"/>
</g>
<g>
	<circle cx="2" cy="3" r="1"/>
</g>
<g>
	<rect x="1" y="5" width="2" height="8"/>
</g>
<g>
	<rect x="4" y="5" width="2" height="8"/>
</g>
<g>
	<rect x="9" y="5" width="2" height="8"/>
</g>
<polygon points="0,6 1,5 3,5 4,5 6,5 7,6 7,9 0,9 "/>
<g>
	<polygon points="9,5 8,6 8,9 9,9 	"/>
</g>
<g>
	<rect x="11" y="5" width="1" height="1"/>
</g>
<path d="M13,4c0-1,1-1,1,0s-1,2-1,2h-1V5C12,5,13,5,13,4"/>
</svg>
