<?xml version="1.0" encoding="utf-8"?>
<!-- Generator: Adobe Illustrator 22.0.1, SVG Export Plug-In . SVG Version: 6.00 Build 0)  -->
<svg version="1.1" id="Layer_1" xmlns="http://www.w3.org/2000/svg" xmlns:xlink="http://www.w3.org/1999/xlink" x="0px" y="0px"
	 width="22px" height="22px" viewBox="0 0 22 22" enable-background="new 0 0 22 22" xml:space="preserve">
<path d="M8.3,3.4C9,3.4,9.6,2.7,9.5,2C9.4,1.2,8.8,0.7,8,0.8C7.3,0.8,6.7,1.5,6.8,2.2C6.9,3,7.5,3.5,8.3,3.4z"/>
<path d="M11,7.6L7.5,3.8c0-0.1-0.1-0.1-0.2-0.2C6.8,3.2,6.2,3.1,5.6,3.5l-3.2,2C2,5.7,1.8,6.1,1.8,6.6c0,0.1,0,0.2,0,0.3
	c0,0,0,0,0,0c0,0.1,0,0.1,0,0.2v0c0,0.1,0.1,0.2,0.1,0.3c0,0,0,0,0,0.1l0.8,1.6l-1.7,2.1c-0.3,0.4-0.2,0.9,0.1,1.2
	c0.4,0.3,0.9,0.2,1.2-0.1l2-2.5c0,0,0-0.1,0.1-0.1c0-0.1,0.1-0.1,0.1-0.2c0-0.1,0-0.1,0-0.2c0-0.1,0-0.1,0-0.2c0-0.1,0-0.1,0-0.2v0
	C5,9.3,5.5,9.6,5.7,9.8c0,0.7-0.1,3.2-0.1,3.2c0,0.5,0.4,0.8,0.8,0.8c0.5,0,0.8-0.4,0.9-0.8l0.1-3.6c0-0.3-0.1-0.5-0.3-0.7L5,7.2
	l2.4-1.5L10,8.5c0.2,0.3,0.7,0.3,0.9,0C11.2,8.3,11.2,7.9,11,7.6z"/>
<path d="M0.1,21.2c0.5,0,0.9-0.1,1.3-0.3c0.4-0.2,0.9-0.3,1.4-0.3c0.5,0,1,0.1,1.4,0.3c0.4,0.2,0.9,0.3,1.3,0.3
	c0.5,0,0.9-0.1,1.3-0.3c0.4-0.2,0.9-0.3,1.4-0.3s1,0.1,1.4,0.3c0.4,0.2,0.9,0.3,1.3,0.3c0.5,0,0.9-0.1,1.3-0.3
	c0.4-0.2,0.9-0.3,1.4-0.3c0.5,0,1,0.1,1.4,0.3c0.4,0.2,0.9,0.3,1.3,0.3c0.5,0,0.9-0.1,1.3-0.3c0.4-0.2,0.9-0.3,1.4-0.3
	c0.5,0,1,0.1,1.4,0.3c0.4,0.2,0.9,0.3,1.3,0.3v-2c-0.5,0-0.9-0.1-1.3-0.3c-0.4-0.2-0.9-0.3-1.4-0.3c-0.5,0-1,0.1-1.4,0.3
	c-0.4,0.2-0.9,0.3-1.3,0.3c-0.5,0-0.9-0.1-1.3-0.3c-0.4-0.2-0.9-0.3-1.4-0.3c-0.5,0-1,0.1-1.4,0.3c-0.4,0.2-0.8,0.3-1.3,0.3
	c-0.5,0-0.9-0.1-1.3-0.3c-0.4-0.2-0.9-0.3-1.4-0.3s-1,0.1-1.4,0.3c-0.4,0.2-0.8,0.3-1.3,0.3c-0.5,0-0.9-0.1-1.3-0.3
	c-0.4-0.2-0.9-0.3-1.4-0.3c-0.5,0-0.9,0.1-1.4,0.3c-0.4,0.2-0.9,0.3-1.3,0.3V21.2z"/>
<path d="M0.1,17.6c0.4,0,0.7-0.1,1-0.2C1.6,17.2,2.2,17,2.8,17c0.6,0,1.1,0.1,1.6,0.4c0.3,0.1,0.7,0.2,1,0.2c0.4,0,0.7-0.1,1-0.2
	C7,17.2,7.6,17,8.1,17c0.6,0,1.1,0.1,1.6,0.4c0.3,0.1,0.7,0.2,1,0.2c0.4,0,0.7-0.1,1-0.2c0.3-0.2,0.7-0.3,1.1-0.3l-1.8-1.3l-2.6-0.1
	l-1.8-1.3l-3.4-1.3L0,12.7L0.1,17.6L0.1,17.6z"/>
<path d="M21.1,14.4l-4.7-2.3c0.3-0.1,0.5-0.3,0.5-0.6c0-0.4-0.3-0.6-0.6-0.6s-0.6,0.3-0.6,0.6c0,0.1,0,0.2,0.1,0.3l-4.8-2.3
	c-0.8-0.4-1.7-0.1-2.1,0.7l13.1,6.2C22.2,15.6,21.9,14.7,21.1,14.4z M15.9,11.5c0-0.2,0.1-0.3,0.3-0.3c0.2,0,0.3,0.1,0.3,0.3
	c0,0.2-0.1,0.3-0.3,0.3C16.1,11.8,15.9,11.7,15.9,11.5z"/>
<path d="M8.6,10.7c-0.1,0.7,0.2,1.4,0.9,1.7l10.2,4.9c0.7,0.3,1.4,0.1,1.9-0.4L8.6,10.7z"/>
</svg>
