<?xml version="1.0" encoding="utf-8"?>
<!-- Generator: Adobe Illustrator 22.0.1, SVG Export Plug-In . SVG Version: 6.00 Build 0)  -->
<svg version="1.1" id="Layer_1" xmlns="http://www.w3.org/2000/svg" xmlns:xlink="http://www.w3.org/1999/xlink" x="0px" y="0px"
	 width="30px" height="30px" viewBox="0 0 30 30" enable-background="new 0 0 30 30" xml:space="preserve">
<path d="M11.3,4.7c1-0.1,1.7-1,1.7-2c-0.1-1-1-1.8-2-1.7c-1,0.1-1.7,1-1.7,2C9.4,4.1,10.3,4.8,11.3,4.7z"/>
<path d="M14.9,10.4l-4.7-5.2C10.2,5,10,4.9,9.9,4.9C9.3,4.4,8.4,4.3,7.7,4.7L3.3,7.4C2.8,7.7,2.4,8.3,2.4,9c0,0.1,0,0.2,0,0.4
	c0,0,0,0,0,0c0,0.1,0,0.2,0.1,0.2v0c0,0.2,0.1,0.3,0.2,0.5c0,0,0,0.1,0.1,0.1l1.1,2.2l-2.3,2.9c-0.4,0.5-0.3,1.2,0.2,1.6
	c0.5,0.4,1.2,0.3,1.6-0.2L6,13.2c0-0.1,0.1-0.1,0.1-0.2c0-0.1,0.1-0.1,0.1-0.2c0-0.1,0-0.1,0-0.2c0-0.1,0-0.1,0-0.2
	c0-0.1,0-0.2-0.1-0.2v0c0.6,0.5,1.2,0.9,1.5,1.1c0,0.9-0.1,4.4-0.1,4.4c0,0.6,0.5,1.1,1.1,1.1c0.6,0,1.2-0.5,1.2-1.1l0.1-5
	c0-0.4-0.2-0.7-0.5-0.9l-2.7-2l3.3-2l3.4,3.8c0.3,0.4,0.9,0.4,1.3,0.1C15.2,11.3,15.3,10.7,14.9,10.4z"/>
<path d="M0.1,29c0.6,0,1.3-0.1,1.8-0.4c0.6-0.3,1.2-0.4,1.8-0.4c0.7,0,1.3,0.2,1.9,0.4C6.2,28.8,6.8,29,7.4,29
	c0.6,0,1.3-0.1,1.8-0.4c0.6-0.3,1.2-0.4,1.9-0.4c0.7,0,1.3,0.2,1.9,0.4c0.5,0.2,1.2,0.4,1.8,0.4c0.6,0,1.3-0.1,1.8-0.4
	c0.6-0.3,1.2-0.4,1.9-0.4c0.7,0,1.3,0.2,1.9,0.4c0.5,0.2,1.2,0.4,1.8,0.4c0.6,0,1.3-0.1,1.8-0.4c0.6-0.3,1.2-0.4,1.9-0.4
	c0.7,0,1.3,0.2,1.9,0.4c0.5,0.2,1.2,0.4,1.8,0.4v-2.7c-0.6,0-1.3-0.1-1.8-0.4c-0.6-0.3-1.2-0.4-1.9-0.4c-0.7,0-1.3,0.2-1.9,0.4
	c-0.5,0.2-1.2,0.4-1.8,0.4c-0.6,0-1.3-0.1-1.8-0.4c-0.6-0.3-1.2-0.4-1.9-0.4c-0.7,0-1.3,0.2-1.9,0.4c-0.5,0.2-1.2,0.4-1.8,0.4
	c-0.6,0-1.3-0.1-1.8-0.4c-0.6-0.3-1.2-0.4-1.9-0.4c-0.7,0-1.3,0.2-1.9,0.4c-0.5,0.2-1.2,0.4-1.8,0.4c-0.6,0-1.3-0.1-1.8-0.4
	c-0.6-0.3-1.2-0.4-1.9-0.4c-0.7,0-1.3,0.2-1.8,0.4c-0.6,0.2-1.2,0.4-1.8,0.4V29z"/>
<path d="M0.1,24c0.5,0,1-0.1,1.4-0.3c0.7-0.3,1.5-0.5,2.3-0.5c0.8,0,1.5,0.2,2.2,0.5C6.5,23.9,6.9,24,7.4,24c0.5,0,1-0.1,1.4-0.3
	c0.7-0.3,1.5-0.5,2.3-0.5c0.8,0,1.6,0.2,2.2,0.5c0.4,0.2,0.9,0.3,1.4,0.3c0.5,0,1-0.1,1.4-0.3c0.5-0.2,1-0.4,1.4-0.4l-2.5-1.8
	l-3.6-0.1l-2.5-1.7l-4.7-1.8L0,17.3L0.1,24L0.1,24z"/>
<path d="M28.8,19.6l-6.5-3.1c0.4-0.1,0.7-0.4,0.7-0.8c0-0.5-0.4-0.9-0.9-0.9c-0.5,0-0.9,0.4-0.9,0.9c0,0.1,0,0.3,0.1,0.4l-6.5-3.1
	c-1.1-0.5-2.3-0.1-2.8,1l17.8,8.5C30.3,21.3,29.8,20.1,28.8,19.6z M21.7,15.7c0-0.2,0.2-0.4,0.4-0.4c0.2,0,0.4,0.2,0.4,0.4
	c0,0.2-0.2,0.4-0.4,0.4C21.9,16.1,21.7,15.9,21.7,15.7z"/>
<path d="M11.8,14.5c-0.2,0.9,0.3,1.9,1.2,2.3l14,6.6c0.9,0.4,1.9,0.2,2.5-0.5L11.8,14.5z"/>
</svg>
