<?xml version="1.0" encoding="utf-8"?>
<!-- Generator: Adobe Illustrator 22.0.1, SVG Export Plug-In . SVG Version: 6.00 Build 0)  -->
<svg version="1.1" id="Layer_1" xmlns="http://www.w3.org/2000/svg" xmlns:xlink="http://www.w3.org/1999/xlink" x="0px" y="0px"
	 width="14px" height="14px" viewBox="0 0 14 14" enable-background="new 0 0 14 14" xml:space="preserve">
<path fill="#FFFFFF" d="M5.1,1.9c0.5,0,0.8-0.5,0.8-0.9c0-0.5-0.5-0.8-0.9-0.8c-0.5,0-0.8,0.5-0.8,0.9C4.2,1.6,4.6,1.9,5.1,1.9z"/>
<path fill="#FFFFFF" d="M7,4.8L4.8,2.4c0,0-0.1-0.1-0.1-0.1C4.4,2,3.9,2,3.6,2.2l-2,1.2C1.3,3.6,1.1,3.9,1.1,4.2c0,0.1,0,0.1,0,0.2c0,0,0,0,0,0
	c0,0,0,0.1,0,0.1v0c0,0.1,0.1,0.1,0.1,0.2c0,0,0,0,0,0l0.5,1L0.7,7.1C0.5,7.3,0.6,7.7,0.8,7.9C1,8,1.4,8,1.6,7.8l1.3-1.6
	c0,0,0,0,0-0.1c0,0,0-0.1,0.1-0.1c0,0,0-0.1,0-0.1c0,0,0-0.1,0-0.1c0,0,0-0.1,0-0.1v0c0.3,0.2,0.8,0.6,1,0.7c0,0.4,0,2,0,2
	c0,0.3,0.2,0.5,0.5,0.5c0.3,0,0.5-0.2,0.5-0.5l0-2.3c0-0.2-0.1-0.3-0.2-0.4L3.2,4.6l1.6-1l1.6,1.8c0.2,0.2,0.4,0.2,0.6,0
	C7.1,5.3,7.1,5,7,4.8z"/>
<path fill="#FFFFFF" d="M0.1,13.5c0.3,0,0.6-0.1,0.8-0.2c0.3-0.1,0.6-0.2,0.9-0.2c0.3,0,0.6,0.1,0.9,0.2c0.3,0.1,0.5,0.2,0.8,0.2
	c0.3,0,0.6-0.1,0.8-0.2c0.3-0.1,0.6-0.2,0.9-0.2c0.3,0,0.6,0.1,0.9,0.2c0.3,0.1,0.5,0.2,0.8,0.2c0.3,0,0.6-0.1,0.8-0.2
	c0.3-0.1,0.6-0.2,0.9-0.2c0.3,0,0.6,0.1,0.9,0.2c0.3,0.1,0.5,0.2,0.8,0.2c0.3,0,0.6-0.1,0.8-0.2c0.3-0.1,0.6-0.2,0.9-0.2
	c0.3,0,0.6,0.1,0.9,0.2c0.3,0.1,0.5,0.2,0.8,0.2v-1.3c-0.3,0-0.6-0.1-0.8-0.2c-0.3-0.1-0.6-0.2-0.9-0.2c-0.3,0-0.6,0.1-0.9,0.2
	c-0.3,0.1-0.5,0.2-0.8,0.2c-0.3,0-0.6-0.1-0.8-0.2c-0.3-0.1-0.6-0.2-0.9-0.2c-0.3,0-0.6,0.1-0.9,0.2c-0.3,0.1-0.5,0.2-0.8,0.2
	c-0.3,0-0.6-0.1-0.8-0.2c-0.3-0.1-0.6-0.2-0.9-0.2c-0.3,0-0.6,0.1-0.9,0.2c-0.3,0.1-0.5,0.2-0.8,0.2c-0.3,0-0.6-0.1-0.8-0.2
	c-0.3-0.1-0.6-0.2-0.9-0.2c-0.3,0-0.6,0.1-0.9,0.2c-0.3,0.1-0.5,0.2-0.8,0.2V13.5z"/>
<path fill="#FFFFFF" d="M0.1,11.2c0.2,0,0.4-0.1,0.7-0.1c0.3-0.2,0.7-0.2,1.1-0.2c0.4,0,0.7,0.1,1,0.2c0.2,0.1,0.4,0.1,0.7,0.1
	c0.2,0,0.4-0.1,0.7-0.1c0.3-0.2,0.7-0.2,1.1-0.2c0.4,0,0.7,0.1,1,0.2c0.2,0.1,0.4,0.1,0.7,0.1c0.2,0,0.4-0.1,0.7-0.1
	C7.7,11,8,10.9,8.2,10.9L7.1,10l-1.7,0L4.2,9.2L2,8.3L0,8.1L0.1,11.2L0.1,11.2z"/>
<path fill="#FFFFFF" d="M13.4,9.1l-3-1.4c0.2,0,0.3-0.2,0.3-0.4c0-0.2-0.2-0.4-0.4-0.4c-0.2,0-0.4,0.2-0.4,0.4c0,0.1,0,0.1,0,0.2L6.9,6
	C6.4,5.8,5.8,6,5.6,6.5l8.3,4C14.1,9.9,13.9,9.4,13.4,9.1z M10.1,7.3c0-0.1,0.1-0.2,0.2-0.2c0.1,0,0.2,0.1,0.2,0.2
	c0,0.1-0.1,0.2-0.2,0.2C10.2,7.5,10.1,7.4,10.1,7.3z"/>
<path fill="#FFFFFF" d="M5.5,6.8C5.4,7.2,5.6,7.7,6.1,7.9l6.5,3.1c0.4,0.2,0.9,0.1,1.2-0.2L5.5,6.8z"/>
</svg>
