<?xml version="1.0" encoding="utf-8"?>
<!-- Generator: Adobe Illustrator 22.1.0, SVG Export Plug-In . SVG Version: 6.00 Build 0)  -->
<svg version="1.1" id="Layer_1" xmlns="http://www.w3.org/2000/svg" xmlns:xlink="http://www.w3.org/1999/xlink" x="0px" y="0px"
	 width="30px" height="30px" viewBox="0 0 30 30" enable-background="new 0 0 30 30" xml:space="preserve">
<path d="M17.3,15.5c0.8,0.3,1.6-0.1,1.9-0.9c0.3-0.8-0.1-1.6-0.9-1.9c-0.8-0.3-1.6,0.1-1.9,0.9C16.1,14.3,16.5,15.2,17.3,15.5z"/>
<path d="M29.5,5.8c0,0-5-0.6-15.5-0.6C6.3,5.1,0,5.8,0,5.8s2.6,1.2,2.2,4.7c0,0,3.8-0.4,5.3,2.8l7-2.1l-0.5,4.7l-3,0.7
	c-0.3,0.1-0.5,0.2-0.7,0.4l-6.5,6.3c-0.4,0.4-0.4,1,0,1.4c0.4,0.4,1,0.4,1.4,0l4.9-4.7l6-1.5l0,0l1-0.3l0.9,1
	c0.1,0.2,0.3,0.3,0.6,0.3l3.2,0c0.4,0,0.7-0.3,0.7-0.7l0,0c0-0.4-0.3-0.6-0.6-0.7l-2.4-8.4l10.1-3.1C30.2,6.3,30.1,5.8,29.5,5.8z
	 M21.3,17.9c-0.7,0-2,0-2.3,0c-0.4-0.4-1.7-2-1.7-2c0,0-0.1,0-0.1-0.1c-0.4-0.4-0.9-0.6-1.5-0.5l-0.9,0.2l0.5-4.7l3.7-1.1L21.3,17.9
	z"/>
</svg>
