<?xml version="1.0" encoding="utf-8"?>
<!-- Generator: Adobe Illustrator 22.1.0, SVG Export Plug-In . SVG Version: 6.00 Build 0)  -->
<svg version="1.1" id="Layer_1" xmlns="http://www.w3.org/2000/svg" xmlns:xlink="http://www.w3.org/1999/xlink" x="0px" y="0px"
	 width="22px" height="22px" viewBox="0 0 22 22" enable-background="new 0 0 22 22" xml:space="preserve">
<path fill="#FFFFFF" d="M12.7,11.3c0.6,0.2,1.2-0.1,1.4-0.7c0.2-0.6-0.1-1.2-0.7-1.4c-0.6-0.2-1.2,0.1-1.4,0.7C11.8,10.5,12.1,11.1,12.7,11.3z"/>
<path fill="#FFFFFF" d="M21.6,4.2c0,0-3.7-0.4-11.4-0.4C4.6,3.8,0,4.2,0,4.2s1.9,0.8,1.6,3.5c0,0,2.8-0.3,3.9,2l5.2-1.6l-0.3,3.4l-2.2,0.5
	c-0.2,0-0.4,0.1-0.5,0.3L2.8,17c-0.3,0.3-0.3,0.7,0,1c0.3,0.3,0.7,0.3,1,0l3.6-3.5l4.4-1.1l0,0l0.7-0.2l0.7,0.8
	c0.1,0.1,0.3,0.2,0.4,0.2l2.4,0c0.3,0,0.5-0.2,0.5-0.5l0,0c0-0.3-0.2-0.5-0.4-0.5L14.4,7l7.4-2.2C22.1,4.6,22.1,4.3,21.6,4.2z
	 M15.6,13.2c-0.5,0-1.4,0-1.7,0c-0.3-0.3-1.3-1.5-1.3-1.5c0,0,0,0-0.1,0c-0.3-0.3-0.7-0.5-1.1-0.4l-0.6,0.2L11.2,8l2.7-0.8
	L15.6,13.2z"/>
</svg>
