<?xml version="1.0" encoding="utf-8"?>
<!-- Generator: Adobe Illustrator 22.1.0, SVG Export Plug-In . SVG Version: 6.00 Build 0)  -->
<svg version="1.1" id="Layer_1" xmlns="http://www.w3.org/2000/svg" xmlns:xlink="http://www.w3.org/1999/xlink" x="0px" y="0px"
	 width="14px" height="14px" viewBox="0 0 14 14" enable-background="new 0 0 14 14" xml:space="preserve">
<path d="M8.1,7.2C8.4,7.3,8.8,7.1,9,6.8C9.1,6.4,8.9,6,8.5,5.9C8.2,5.8,7.8,6,7.6,6.3C7.5,6.7,7.7,7.1,8.1,7.2z"/>
<path d="M13.8,2.7c0,0-2.4-0.3-7.2-0.3C2.9,2.4,0,2.7,0,2.7s1.2,0.5,1,2.2c0,0,1.8-0.2,2.5,1.3l3.1-0.9l0,2.1L5.2,7.7
	c-0.1,0-0.2,0.1-0.3,0.2l-3.1,2.9c-0.2,0.2-0.2,0.5,0,0.6c0.2,0.2,0.5,0.2,0.6,0l2.3-2.2l2.8-0.7l0,0L8,8.5l0.4,0.5
	C8.5,9,8.6,9.1,8.7,9.1l1.5,0c0.2,0,0.3-0.2,0.3-0.3l0,0c0-0.2-0.1-0.3-0.3-0.3l0.1-4.3L13.8,3C14.1,2.9,14.1,2.7,13.8,2.7z
	 M9.9,8.4c-0.3,0-0.9,0-1.1,0C8.7,8.2,8,7.4,8,7.4c0,0,0,0,0,0C7.8,7.2,7.6,7.1,7.3,7.2L6.9,7.3V5.1L10,4.2L9.9,8.4z"/>
</svg>
