<?xml version="1.0" encoding="utf-8"?>
<!-- Generator: Adobe Illustrator 24.3.0, SVG Export Plug-In . SVG Version: 6.00 Build 0)  -->
<svg version="1.1" id="Layer_1" xmlns="http://www.w3.org/2000/svg" xmlns:xlink="http://www.w3.org/1999/xlink" x="0px" y="0px"
	 width="14px" height="14px" viewBox="0 0 14 14" style="enable-background:new 0 0 14 14;" xml:space="preserve">
<style type="text/css">
	.st0{fill:#231F20;}
</style>
<path class="st0" d="M8.2,13.2c-0.5,0-1-0.4-1-0.9c0-0.2,0.1-0.5,0.2-0.8l1.2-3.7C8.7,7.4,8.9,7,8.9,6.8c0-0.3-0.1-0.5-0.4-0.5
	c-0.6,0-1.5,1-2.2,2c-0.8,1.2-1.5,2.5-2,3.9L3.9,13c-0.2,0-0.5,0.1-0.8,0.1c-0.3,0-0.7,0-0.8-0.1L5,3.1c0-0.1,0.1-0.3,0.1-0.5
	c0-0.4-0.5-0.5-1.1-0.5l0.2-0.6c0.8,0,2.2-0.3,2.9-0.5l0.3,0.2L5.1,9l0.1,0c1.1-2.1,3-4,4.5-4c0.7,0,1.1,0.4,1.1,1.1
	c0,0.4-0.1,0.9-0.3,1.4l-1.2,3.3c-0.1,0.2-0.2,0.5-0.2,0.6c0,0.2,0.1,0.3,0.3,0.3c0.3,0,1.1-0.7,1.4-1.2l0.4,0.4
	C10.5,12.2,9.3,13.2,8.2,13.2z"/>
</svg>
