<?xml version="1.0" encoding="utf-8"?>
<!-- Generator: Adobe Illustrator 20.0.0, SVG Export Plug-In . SVG Version: 6.00 Build 0)  -->
<svg version="1.1" id="Layer_1" xmlns="http://www.w3.org/2000/svg" xmlns:xlink="http://www.w3.org/1999/xlink" x="0px" y="0px"
	 width="22px" height="22px" viewBox="0 0 22 22" style="enable-background:new 0 0 22 22;" xml:space="preserve">
<g>
	<path fill="#FFFFFF" d="M21.2,3.4c-1.2,0-1.7,0-2,1.4l-2.4,11.3c-0.1,0.8-0.2,1.5-0.2,1.9c0,0.9,0.6,0.9,1.6,0.9L17.9,20c-0.4,0-2.5-0.1-3.7-0.1
		c-0.5,0-2.6,0.1-3.6,0.1l0.2-1.1c1.2,0,1.8,0,2.2-1.8l1.2-5.4H7.2l-0.9,4.3C6.1,16.8,6,17.6,6,18.2c0,0.6,0.4,0.7,1.4,0.7L7.2,20
		c-0.6,0-2.8,0-3.6,0C3,20,0.8,20,0,20l0.2-1.1c1.3,0,1.9,0,2.3-1.9L4.8,6.1C4.9,5.6,5,4.7,5,4.5c0-1.1-0.9-1.1-2-1.1l0.2-1.1
		c1.1,0,3,0.1,3.9,0.1c0.6,0,2.6-0.1,3.5-0.1l-0.2,1.1c-1.2,0-1.5,0-1.9,1.5l-1.1,5.2h6.9l0.8-3.8c0.1-0.9,0.2-1.6,0.2-2.1
		c0-0.8-0.6-0.8-1.6-0.8l0.2-1.1c0.8,0,2.9,0.1,3.5,0.1c0.7,0,2.4-0.1,3.7-0.1L21.2,3.4z"/>
</g>
</svg>
