<?xml version="1.0" encoding="utf-8"?>
<!-- Generator: Adobe Illustrator 24.3.0, SVG Export Plug-In . SVG Version: 6.00 Build 0)  -->
<svg version="1.1" id="Layer_1" xmlns="http://www.w3.org/2000/svg" xmlns:xlink="http://www.w3.org/1999/xlink" x="0px" y="0px"
	 width="22px" height="22px" viewBox="0 0 22 22" style="enable-background:new 0 0 22 22;" xml:space="preserve">
<style type="text/css">
	.st0{fill:#231F20;}
</style>
<path class="st0" d="M13.4,20.2c-0.8,0-1.3-0.5-1.3-1.2c0-0.3,0.1-0.8,0.3-1.5l1.8-5.5c0.1-0.4,0.4-1.1,0.4-1.3
	c0-0.5-0.2-0.7-0.5-0.7c-1,0-2.4,1.6-3.5,3.1c-1.3,1.8-2.4,3.7-3,5.7L7.1,20c-0.2,0.1-0.6,0.1-1.1,0.1c-0.4,0-0.8-0.1-1-0.1L9.1,5.1
	c0-0.1,0.1-0.5,0.1-0.7c0-0.6-0.6-0.8-1.5-0.8l0.2-0.8c1.2,0,2.9-0.4,4-0.8l0.4,0.3l-3.5,12l0.1,0c1.7-3.2,4.6-6.2,6.8-6.2
	c1,0,1.5,0.6,1.5,1.5c0,0.6-0.2,1.4-0.4,2.1l-1.8,5c-0.1,0.3-0.3,0.9-0.3,1.1c0,0.4,0.1,0.6,0.4,0.6c0.5,0,1.5-1.1,2.1-1.9l0.5,0.4
	C16.6,18.6,15,20.2,13.4,20.2z"/>
</svg>
