<?xml version="1.0" encoding="utf-8"?>
<!-- Generator: Adobe Illustrator 18.1.1, SVG Export Plug-In . SVG Version: 6.00 Build 0)  -->
<svg version="1.1" id="Layer_1" xmlns="http://www.w3.org/2000/svg" xmlns:xlink="http://www.w3.org/1999/xlink" x="0px" y="0px"
	 viewBox="0 0 16 16" enable-background="new 0 0 16 16" xml:space="preserve">
<g opacity="0.1">
	<path d="M15.84,3.72c-0.752,0-1.104,0-1.312,0.928l-1.851,7.887c-0.096,0.512-0.16,0.96-0.16,1.184
		c0,0.561,0.417,0.561,1.057,0.561L13.445,15c-0.24,0-1.633-0.048-2.369-0.048C10.74,14.952,9.395,15,8.771,15l0.128-0.72
		c0.8,0,1.152-0.016,1.393-1.152l1.05-4.109h-4.45l-0.858,3.373c-0.128,0.56-0.208,1.088-0.208,1.44
		c0,0.416,0.288,0.448,0.896,0.448L6.594,15c-0.352,0-1.777-0.032-2.337-0.032C3.905,14.968,2.528,15,2,15l0.144-0.72
		c0.848,0,1.249-0.032,1.504-1.201l1.441-7.011C5.153,5.78,5.516,4.601,5.516,4.44c0-0.72-0.576-0.72-1.265-0.72L4.363,3
		c0.704,0,1.953,0.048,2.481,0.048C7.196,3.048,8.477,3,9.069,3L8.957,3.72c-0.785,0-0.993,0-1.185,0.944L7.1,8.01h4.45l0.23-1.797
		c0.096-0.56,0.442-1.644,0.442-1.964c0-0.528-0.352-0.528-1.024-0.528L11.326,3c0.528,0,1.841,0.048,2.273,0.048
		C14.047,3.048,15.167,3,16,3L15.84,3.72z"/>
</g>
<g opacity="0.2">
	<path d="M14.84,2.72c-0.752,0-1.104,0-1.312,0.928l-1.851,7.887c-0.096,0.512-0.16,0.96-0.16,1.184
		c0,0.561,0.417,0.561,1.057,0.561L12.445,14c-0.24,0-1.633-0.048-2.369-0.048C9.74,13.952,8.395,14,7.771,14l0.128-0.72
		c0.8,0,1.152-0.016,1.393-1.152l1.05-4.109h-4.45l-0.858,3.373c-0.128,0.56-0.208,1.088-0.208,1.44
		c0,0.416,0.288,0.448,0.896,0.448L5.594,14c-0.352,0-1.777-0.032-2.337-0.032C2.905,13.968,1.528,14,1,14l0.144-0.72
		c0.848,0,1.249-0.032,1.504-1.201l1.441-7.011C4.153,4.78,4.516,3.601,4.516,3.44c0-0.72-0.576-0.72-1.265-0.72L3.363,2
		c0.704,0,1.953,0.048,2.481,0.048C6.196,2.048,7.477,2,8.069,2L7.957,2.72c-0.785,0-0.993,0-1.185,0.944L6.1,7.01h4.45l0.23-1.797
		c0.096-0.56,0.442-1.644,0.442-1.964c0-0.528-0.352-0.528-1.024-0.528L10.326,2c0.528,0,1.841,0.048,2.273,0.048
		C13.047,2.048,14.167,2,15,2L14.84,2.72z"/>
</g>
<g>
	<path d="M13.84,1.72c-0.752,0-1.104,0-1.312,0.928l-1.851,7.887c-0.096,0.512-0.16,0.96-0.16,1.184
		c0,0.561,0.417,0.561,1.057,0.561L11.445,13c-0.24,0-1.633-0.048-2.369-0.048C8.74,12.952,7.395,13,6.771,13l0.128-0.72
		c0.8,0,1.152-0.016,1.393-1.152l1.05-4.109h-4.45l-0.858,3.373c-0.128,0.56-0.208,1.088-0.208,1.44
		c0,0.416,0.288,0.448,0.896,0.448L4.594,13c-0.352,0-1.777-0.032-2.337-0.032C1.905,12.968,0.528,13,0,13l0.144-0.72
		c0.848,0,1.249-0.032,1.504-1.201l1.441-7.011C3.153,3.78,3.516,2.601,3.516,2.44c0-0.72-0.576-0.72-1.265-0.72L2.363,1
		c0.704,0,1.953,0.048,2.481,0.048C5.196,1.048,6.477,1,7.069,1L6.957,1.72c-0.785,0-0.993,0-1.185,0.944L5.1,6.01h4.45l0.23-1.797
		c0.096-0.56,0.442-1.644,0.442-1.964c0-0.528-0.352-0.528-1.024-0.528L9.326,1c0.528,0,1.841,0.048,2.273,0.048
		C12.047,1.048,13.167,1,14,1L13.84,1.72z"/>
</g>
</svg>
