<?xml version="1.0" encoding="utf-8"?>
<!-- Generator: Adobe Illustrator 20.0.0, SVG Export Plug-In . SVG Version: 6.00 Build 0)  -->
<svg version="1.1" id="Layer_1" xmlns="http://www.w3.org/2000/svg" xmlns:xlink="http://www.w3.org/1999/xlink" x="0px" y="0px"
	 width="30px" height="30px" viewBox="0 0 30 30" style="enable-background:new 0 0 30 30;" xml:space="preserve">
<path fill="#FFFFFF" d="M29.6,3.7c-1.6,0-2.4,0-2.9,2l-3.4,15.9c-0.2,1.1-0.4,2.1-0.4,2.6c0,1.2,0.9,1.2,2.3,1.2L25,27c-0.5,0-3.6-0.1-5.2-0.1
	c-0.7,0-3.7,0.1-5,0.1l0.3-1.6c1.7,0,2.5,0,3-2.5l1.7-7.6h-9.7l-1.3,6c-0.3,1.2-0.5,2.4-0.5,3.1c0,0.9,0.6,1,2,1L10,27
	c-0.8,0-3.9-0.1-5.1-0.1C4.2,26.9,1.2,27,0,27l0.3-1.6c1.9,0,2.7-0.1,3.3-2.6L6.8,7.5c0.1-0.6,0.3-1.9,0.3-2.2
	c0-1.6-1.3-1.6-2.8-1.6l0.2-1.6c1.5,0,4.3,0.1,5.4,0.1c0.8,0,3.6-0.1,4.9-0.1l-0.2,1.6c-1.7,0-2.2,0-2.6,2.1l-1.5,7.3h9.7l1.1-5.3
	c0.2-1.2,0.4-2.2,0.4-2.9c0-1.2-0.8-1.2-2.2-1.2l0.3-1.6c1.2,0,4,0.1,5,0.1c1,0,3.4-0.1,5.2-0.1L29.6,3.7z"/>
</svg>
