<?xml version="1.0" encoding="utf-8"?>
<!-- Generator: Adobe Illustrator 23.1.1, SVG Export Plug-In . SVG Version: 6.00 Build 0)  -->
<svg version="1.1" id="Layer_1" xmlns="http://www.w3.org/2000/svg" xmlns:xlink="http://www.w3.org/1999/xlink" x="0px" y="0px"
	 width="14px" height="14px" viewBox="0 0 14 14" enable-background="new 0 0 14 14" xml:space="preserve">
<path d="M8.2,13.2c-0.5,0-1-0.4-1-0.9c0-0.2,0.1-0.5,0.2-0.8l1.2-3.7c0.1-0.4,0.3-0.8,0.3-1c0-0.3-0.1-0.5-0.4-0.5
	c-0.6,0-1.5,1-2.2,2c-0.8,1.2-1.5,2.5-2,3.9L3.9,13c-0.2,0-0.5,0.1-0.8,0.1s-0.7,0-0.8-0.1L5,3.1C5,3,5.1,2.8,5.1,2.6
	c0-0.4-0.5-0.5-1.1-0.5l0.2-0.6C5,1.5,6.4,1.2,7.1,1l0.3,0.2L5.1,9h0.1c1.1-2.1,3-4,4.5-4c0.7,0,1.1,0.4,1.1,1.1
	c0,0.4-0.1,0.9-0.3,1.4l-1.2,3.3c-0.1,0.2-0.2,0.5-0.2,0.6c0,0.2,0.1,0.3,0.3,0.3c0.3,0,1.1-0.7,1.4-1.2l0.4,0.4
	C10.5,12.2,9.3,13.2,8.2,13.2z"/>
</svg>
