<?xml version="1.0" encoding="utf-8"?>
<!-- Generator: Adobe Illustrator 18.1.1, SVG Export Plug-In . SVG Version: 6.00 Build 0)  -->
<svg version="1.1" id="Layer_1" xmlns="http://www.w3.org/2000/svg" xmlns:xlink="http://www.w3.org/1999/xlink" x="0px" y="0px"
	 viewBox="0 0 24 24" enable-background="new 0 0 24 24" xml:space="preserve">
<g opacity="0.5">
	<path d="M23.17,5.354c-1.175,0-1.725,0-2.05,1.45l-2.449,11.347c-0.15,0.8-0.25,1.5-0.25,1.85c0,0.875,0.65,0.875,1.65,0.875
		L19.871,22c-0.375,0-2.549-0.075-3.699-0.075c-0.525,0-2.624,0.075-3.599,0.075l0.2-1.125c1.25,0,1.799-0.025,2.174-1.8l1.2-5.449
		H9.198l-0.9,4.299c-0.2,0.875-0.325,1.7-0.325,2.25c0,0.65,0.45,0.7,1.399,0.7L9.173,22c-0.55,0-2.774-0.05-3.649-0.05
		C4.974,21.95,2.825,22,2,22l0.225-1.125c1.325,0,1.949-0.05,2.349-1.875l2.25-10.947c0.1-0.45,0.225-1.325,0.225-1.574
		c0-1.125-0.9-1.125-1.975-1.125l0.175-1.125c1.1,0,3.049,0.075,3.874,0.075c0.55,0,2.55-0.075,3.474-0.075l-0.175,1.125
		c-1.225,0-1.549,0-1.85,1.475l-1.05,5.224h6.949l0.8-3.774c0.15-0.875,0.25-1.6,0.25-2.1c0-0.825-0.55-0.825-1.6-0.825l0.2-1.125
		c0.825,0,2.874,0.075,3.549,0.075c0.7,0,2.449-0.075,3.749-0.075L23.17,5.354z"/>
</g>
<g opacity="0.75">
	<path d="M22.17,4.354c-1.175,0-1.725,0-2.05,1.45l-2.449,11.347c-0.15,0.8-0.25,1.5-0.25,1.85c0,0.875,0.65,0.875,1.65,0.875
		L18.871,21c-0.375,0-2.549-0.075-3.699-0.075c-0.525,0-2.624,0.075-3.599,0.075l0.2-1.125c1.25,0,1.799-0.025,2.174-1.8l1.2-5.449
		H8.198l-0.9,4.299c-0.2,0.875-0.325,1.7-0.325,2.25c0,0.65,0.45,0.7,1.399,0.7L8.173,21c-0.55,0-2.774-0.05-3.649-0.05
		C3.974,20.95,1.825,21,1,21l0.225-1.125c1.325,0,1.949-0.05,2.349-1.875l2.25-10.947c0.1-0.45,0.225-1.325,0.225-1.574
		c0-1.125-0.9-1.125-1.975-1.125l0.175-1.125c1.1,0,3.049,0.075,3.874,0.075c0.55,0,2.55-0.075,3.474-0.075l-0.175,1.125
		c-1.225,0-1.549,0-1.85,1.475l-1.05,5.224h6.949l0.8-3.774c0.15-0.875,0.25-1.6,0.25-2.1c0-0.825-0.55-0.825-1.6-0.825l0.2-1.125
		c0.825,0,2.874,0.075,3.549,0.075c0.7,0,2.449-0.075,3.749-0.075L22.17,4.354z"/>
</g>
<g>
	<path fill="#E6E6E6" d="M21.17,3.354c-1.175,0-1.725,0-2.05,1.45l-2.449,11.347c-0.15,0.8-0.25,1.5-0.25,1.85
		c0,0.875,0.65,0.875,1.65,0.875L17.871,20c-0.375,0-2.549-0.075-3.699-0.075c-0.525,0-2.624,0.075-3.599,0.075l0.2-1.125
		c1.25,0,1.799-0.025,2.174-1.8l1.2-5.449H7.198l-0.9,4.299c-0.2,0.875-0.325,1.7-0.325,2.25c0,0.65,0.45,0.7,1.399,0.7L7.173,20
		c-0.55,0-2.774-0.05-3.649-0.05C2.974,19.95,0.825,20,0,20l0.225-1.125c1.325,0,1.949-0.05,2.349-1.875l2.25-10.947
		c0.1-0.45,0.225-1.325,0.225-1.574c0-1.125-0.9-1.125-1.975-1.125l0.175-1.125c1.1,0,3.049,0.075,3.874,0.075
		c0.55,0,2.55-0.075,3.474-0.075l-0.175,1.125c-1.225,0-1.549,0-1.85,1.475l-1.05,5.224h6.949l0.8-3.774
		c0.15-0.875,0.25-1.6,0.25-2.1c0-0.825-0.55-0.825-1.6-0.825l0.2-1.125c0.825,0,2.874,0.075,3.549,0.075
		c0.7,0,2.449-0.075,3.749-0.075L21.17,3.354z"/>
</g>
</svg>
