<?xml version="1.0" encoding="utf-8"?>
<!-- Generator: Adobe Illustrator 20.0.0, SVG Export Plug-In . SVG Version: 6.00 Build 0)  -->
<svg version="1.1" id="Layer_1" xmlns="http://www.w3.org/2000/svg" xmlns:xlink="http://www.w3.org/1999/xlink" x="0px" y="0px"
	 width="14px" height="14px" viewBox="0 0 14 14" style="enable-background:new 0 0 14 14;" xml:space="preserve">
<g>
	<path fill="#231F20" d="M13.8,1.7c-0.8,0-1.1,0-1.3,0.9l-1.9,7.9c-0.1,0.5-0.2,1-0.2,1.2c0,0.6,0.4,0.6,1.1,0.6L11.4,13c-0.2,0-1.6,0-2.4,0
		c-0.3,0-1.7,0-2.3,0l0.1-0.7c0.8,0,1.2,0,1.4-1.2L9.3,7H4.9L4,10.4c-0.1,0.6-0.2,1.1-0.2,1.4c0,0.4,0.3,0.4,0.9,0.4L4.6,13
		c-0.4,0-1.8,0-2.3,0c-0.4,0-1.7,0-2.3,0l0.1-0.7c0.8,0,1.2,0,1.5-1.2l1.4-7c0.1-0.3,0.4-1.5,0.4-1.6c0-0.7-0.6-0.7-1.3-0.7L2.4,1
		c0.7,0,2,0,2.5,0c0.4,0,1.6,0,2.2,0L7,1.7c-0.8,0-1,0-1.2,0.9L5.1,6h4.4l0.2-1.8c0.1-0.6,0.4-1.6,0.4-2c0-0.5-0.4-0.5-1-0.5L9.3,1
		c0.5,0,1.8,0,2.3,0C12,1,13.2,1,14,1L13.8,1.7z"/>
</g>
</svg>
