<?xml version="1.0" encoding="utf-8"?>
<!-- Generator: Adobe Illustrator 18.1.1, SVG Export Plug-In . SVG Version: 6.00 Build 0)  -->
<svg version="1.1" id="Layer_1" xmlns="http://www.w3.org/2000/svg" xmlns:xlink="http://www.w3.org/1999/xlink" x="0px" y="0px"
	 viewBox="0 0 32 32" enable-background="new 0 0 32 32" xml:space="preserve">
<path opacity="0.5" d="M31.648,5.688c-1.645,0-2.415,0-2.87,2.03l-3.43,15.892c-0.21,1.12-0.35,2.1-0.35,2.59
	c0,1.225,0.91,1.225,2.31,1.225L27.028,29c-0.525,0-3.571-0.105-5.181-0.105c-0.735,0-3.675,0.105-5.041,0.105l0.28-1.575
	c1.75,0,2.521-0.035,3.045-2.52l1.68-7.631h-9.731l-1.26,6.021c-0.28,1.225-0.455,2.38-0.455,3.15c0,0.91,0.63,0.98,1.96,0.98
	L12.046,29c-0.77,0-3.885-0.07-5.11-0.07C6.166,28.93,3.155,29,2,29l0.315-1.575c1.855,0,2.73-0.07,3.291-2.625l3.15-15.332
	c0.14-0.63,0.315-1.855,0.315-2.205c0-1.575-1.26-1.575-2.765-1.575L6.55,4.112c1.541,0,4.271,0.105,5.426,0.105
	c0.77,0,3.57-0.105,4.866-0.105l-0.245,1.575c-1.715,0-2.17,0-2.59,2.065l-1.47,7.315h9.731l1.12-5.285
	c0.21-1.226,0.35-2.24,0.35-2.94c0-1.155-0.77-1.155-2.24-1.155l0.28-1.575c1.155,0,4.026,0.105,4.971,0.105
	c0.98,0,3.43-0.105,5.25-0.105L31.648,5.688z"/>
<path opacity="0.75" d="M30.648,4.688c-1.645,0-2.415,0-2.87,2.03l-3.43,15.892c-0.21,1.12-0.35,2.1-0.35,2.59
	c0,1.225,0.91,1.225,2.31,1.225L26.028,28c-0.525,0-3.571-0.105-5.181-0.105c-0.735,0-3.675,0.105-5.041,0.105l0.28-1.575
	c1.75,0,2.521-0.035,3.045-2.52l1.68-7.631h-9.731l-1.26,6.021c-0.28,1.225-0.455,2.38-0.455,3.15c0,0.91,0.63,0.98,1.96,0.98
	L11.046,28c-0.77,0-3.885-0.07-5.11-0.07C5.166,27.93,2.155,28,1,28l0.315-1.575c1.855,0,2.73-0.07,3.291-2.625l3.15-15.332
	c0.14-0.63,0.315-1.855,0.315-2.205c0-1.575-1.26-1.575-2.765-1.575L5.55,3.112c1.541,0,4.271,0.105,5.426,0.105
	c0.77,0,3.57-0.105,4.866-0.105l-0.245,1.575c-1.715,0-2.17,0-2.59,2.065l-1.47,7.315h9.731l1.12-5.285
	c0.21-1.226,0.35-2.24,0.35-2.94c0-1.155-0.77-1.155-2.24-1.155l0.28-1.575c1.155,0,4.026,0.105,4.971,0.105
	c0.98,0,3.43-0.105,5.25-0.105L30.648,4.688z"/>
<path fill="#E6E6E6" d="M29.648,3.688c-1.645,0-2.415,0-2.87,2.03l-3.43,15.892c-0.21,1.12-0.35,2.1-0.35,2.59
	c0,1.225,0.91,1.225,2.31,1.225L25.028,27c-0.525,0-3.571-0.105-5.181-0.105c-0.735,0-3.675,0.105-5.041,0.105l0.28-1.575
	c1.75,0,2.521-0.035,3.045-2.52l1.68-7.631h-9.731l-1.26,6.021c-0.28,1.225-0.455,2.38-0.455,3.15c0,0.91,0.63,0.98,1.96,0.98
	L10.046,27c-0.77,0-3.885-0.07-5.11-0.07C4.166,26.93,1.155,27,0,27l0.315-1.575c1.855,0,2.73-0.07,3.291-2.625l3.15-15.332
	c0.14-0.63,0.315-1.855,0.315-2.205c0-1.575-1.26-1.575-2.765-1.575L4.55,2.112c1.541,0,4.271,0.105,5.426,0.105
	c0.77,0,3.57-0.105,4.866-0.105l-0.245,1.575c-1.715,0-2.17,0-2.59,2.065l-1.47,7.315h9.731l1.12-5.285
	c0.21-1.226,0.35-2.24,0.35-2.94c0-1.155-0.77-1.155-2.24-1.155l0.28-1.575c1.155,0,4.026,0.105,4.971,0.105
	c0.98,0,3.43-0.105,5.25-0.105L29.648,3.688z"/>
</svg>
