<?xml version="1.0" encoding="utf-8"?>
<!-- Generator: Adobe Illustrator 22.1.0, SVG Export Plug-In . SVG Version: 6.00 Build 0)  -->
<svg version="1.1" id="Layer_1" xmlns="http://www.w3.org/2000/svg" xmlns:xlink="http://www.w3.org/1999/xlink" x="0px" y="0px"
	 width="22px" height="22px" viewBox="0 0 22 22" enable-background="new 0 0 22 22" xml:space="preserve">
<path fill="#FFFFFF" d="M5.8,4.2C6.6,4,7,3.1,6.7,2.3C6.4,1.5,5.5,1.1,4.7,1.4C3.9,1.7,3.5,2.6,3.8,3.3C4.1,4.1,5,4.5,5.8,4.2z"/>
<g>
	<polygon fill="#FFFFFF" fill-rule="evenodd" clip-rule="evenodd" points="17,13 17,16 14,16 14,19 9,19 9,20 15,20 15,17 18,17 18,14 22,14 22,13 
			"/>
</g>
<path fill="#FFFFFF" fill-rule="evenodd" clip-rule="evenodd" d="M11.2,12.8c0,0-0.1-0.4-0.6-0.9l-1.2-0.6l12.6-5l-0.3-0.7L8.4,10.9L7,10.2l0-2.7
	l1.1,1.4c0.2,0.2,0.4,0.4,0.7,0.4l2.8,0c0,0,0.7,0,0.7-0.7c0-0.7-0.7-0.7-0.7-0.7l-2.4,0L7.1,5.1c0,0-0.2-0.4-1.1-0.4l-1.8,0
	c0,0-0.8-0.1-1.3,0.6L0.6,7.7c0,0-0.2,0.2-0.3,0.9L0,11.5c0,0,0,0.6,0.7,0.8c0,0,0.8,0.1,0.9-0.7l0.3-2.7L3.4,7l0,4.2l0.3,1.6
	l-3.4,1.4l0.3,0.7l3.3-1.3l0.6,2.8l-1,2.5c0,0-0.6,1.2,0.3,1.5c0.6,0.2,1.2-0.2,1.5-1.1l1.1-2.9c0.1-0.2,0.2-0.7,0.2-1L6,12.7
	l0.3-0.1l3.3,1.5c0,0,1.2,3.3,1.2,3.3c0.3,0.8,0.8,0.8,1.3,0.6c0.5-0.2,0.7-0.7,0.4-1.3L11.2,12.8z"/>
</svg>
