<?xml version="1.0" encoding="utf-8"?>
<!-- Generator: Adobe Illustrator 22.1.0, SVG Export Plug-In . SVG Version: 6.00 Build 0)  -->
<svg version="1.1" id="Layer_1" xmlns="http://www.w3.org/2000/svg" xmlns:xlink="http://www.w3.org/1999/xlink" x="0px" y="0px"
	 width="30px" height="30px" viewBox="0 0 30 30" enable-background="new 0 0 30 30" xml:space="preserve">
<path d="M7.9,5.8c1.1-0.4,1.6-1.6,1.2-2.6C8.7,2.1,7.5,1.5,6.5,1.9C5.4,2.3,4.8,3.5,5.2,4.6C5.6,5.6,6.8,6.2,7.9,5.8z"/>
<g>
	<polygon fill-rule="evenodd" clip-rule="evenodd" points="24,16 24,21 19,21 19,26 14,26 14,28 21,28 21,23 26,23 26,18 30,18 
		30,16 	"/>
</g>
<path fill-rule="evenodd" clip-rule="evenodd" d="M15.2,17.5c0,0-0.2-0.6-0.9-1.2l-1.6-0.8L30,8.7l-0.4-1l-18.1,7.2l-1.9-1l0-3.7
	l1.6,1.9c0.2,0.3,0.6,0.5,1,0.5l3.8,0.1c0,0,0.9,0,0.9-1c0-1-0.9-1-0.9-1l-3.3,0L9.6,6.9c0,0-0.3-0.6-1.5-0.6l-2.5,0
	c0,0-1.1-0.1-1.7,0.8l-3,3.5c0,0-0.3,0.3-0.4,1.2L0,15.6c0,0,0,0.9,0.9,1c0,0,1.1,0.2,1.2-1L2.5,12l2.1-2.5l-0.1,5.8L5,17.4
	l-4.7,1.8l0.4,1l4.5-1.8l0.8,3.8l-1.3,3.4c0,0-0.9,1.6,0.4,2.1c0.8,0.3,1.6-0.3,2.1-1.5l1.5-3.9C8.9,22.1,9.1,21.5,9,21l-0.8-3.7
	l0.4-0.2l4.6,2.1c0,0,1.7,4.6,1.7,4.5c0.4,1,1.1,1,1.7,0.9c0.7-0.3,0.9-1,0.6-1.8L15.2,17.5z"/>
</svg>
