<?xml version="1.0" encoding="utf-8"?>
<!-- Generator: Adobe Illustrator 22.1.0, SVG Export Plug-In . SVG Version: 6.00 Build 0)  -->
<svg version="1.1" id="Layer_1" xmlns="http://www.w3.org/2000/svg" xmlns:xlink="http://www.w3.org/1999/xlink" x="0px" y="0px"
	 width="14px" height="14px" viewBox="0 0 14 14" enable-background="new 0 0 14 14" xml:space="preserve">
<path fill="#FFFFFF" d="M3.7,2.7C4.2,2.5,4.4,2,4.2,1.5C4.1,1,3.5,0.7,3,0.9C2.5,1.1,2.3,1.6,2.4,2.1C2.6,2.6,3.2,2.9,3.7,2.7z"/>
<g>
	<path fill="#FFFFFF" fill-rule="evenodd" clip-rule="evenodd" d="M11,8v2H9v2H6v1h4c0,0,0-1.8,0-2c0.2,0,2,0,2,0s0-1.8,0-2c0.2,0,2,0,2,0V8H11z"/>
</g>
<path fill="#FFFFFF" fill-rule="evenodd" clip-rule="evenodd" d="M7.1,8.2c0,0-0.1-0.3-0.4-0.6L6,7.2l8-3.2l-0.2-0.5L5.3,7L4.4,6.5l0-1.7l0.7,0.9
	c0.1,0.1,0.3,0.2,0.4,0.2l1.8,0c0,0,0.4,0,0.4-0.5C7.8,5,7.4,5,7.4,5L5.9,5L4.5,3.2c0,0-0.1-0.3-0.7-0.3l-1.2,0c0,0-0.5,0-0.8,0.4
	L0.4,4.9c0,0-0.1,0.1-0.2,0.6L0,7.3c0,0,0,0.4,0.4,0.5c0,0,0.5,0.1,0.5-0.4l0.2-1.7l1-1.2l0,2.7l0.2,1L0.2,9l0.2,0.5l2.1-0.8
	l0.4,1.8L2.2,12c0,0-0.4,0.8,0.2,1c0.4,0.1,0.7-0.2,1-0.7l0.7-1.8c0.1-0.1,0.1-0.4,0.1-0.7L3.8,8.1L4,8l2.1,1c0,0,0.8,2.1,0.8,2.1
	c0.2,0.5,0.5,0.5,0.8,0.4c0.3-0.1,0.4-0.5,0.3-0.8L7.1,8.2z"/>
</svg>
