<?xml version="1.0" encoding="utf-8"?>
<!-- Generator: Adobe Illustrator 18.1.1, SVG Export Plug-In . SVG Version: 6.00 Build 0)  -->
<svg version="1.1" id="Icons" xmlns="http://www.w3.org/2000/svg" xmlns:xlink="http://www.w3.org/1999/xlink" x="0px" y="0px"
	 viewBox="0 0 32 32" enable-background="new 0 0 32 32" xml:space="preserve">
<g opacity="0.5">
	<path d="M27,7V5h-1l-1,2l-6,7h-4v-2l3,1l1-1l-1-1l-3-1V8h-1V7h-2v1h-1v6H4l-2,1v7h2v-6h1L4,31l1,1h1l1-1v-8h1l1,3l2,5l1,1h1l1-1
		l-3-8l2-2h6v10l1,1h1l1-1V21l2.2-5H28l1-1l0.8-2.2L31,13l1-1v-1L27,7z M28,15h-3.3l1.3-3l2.8,0.6L28,15z"/>
	<circle cx="13" cy="4" r="2"/>
</g>
<g opacity="0.75">
	<path d="M26,6V4h-1l-1,2l-6,7h-4v-2l3,1l1-1l-1-1l-3-1V7h-1V6h-2v1h-1v6H3l-2,1v7h2v-6h1L3,30l1,1h1l1-1v-8h1l1,3l2,5l1,1h1l1-1
		l-3-8l2-2h6v10l1,1h1l1-1V20l2.2-5H27l1-1l0.8-2.2L30,12l1-1v-1L26,6z M27,14h-3.3l1.3-3l2.8,0.6L27,14z"/>
	<circle cx="12" cy="3" r="2"/>
</g>
<g>
	<path fill="#FFFFFF" d="M25,5V3h-1l-1,2l-6,7h-4v-2l3,1l1-1l-1-1l-3-1V6h-1V5h-2v1H9v6H2l-2,1v7h2v-6h1L2,29l1,1h1l1-1v-8h1l1,3
		l2,5l1,1h1l1-1l-3-8l2-2h6v10l1,1h1l1-1V19l2.2-5H26l1-1l0.8-2.2L29,11l1-1V9L25,5z M26,13h-3.3l1.3-3l2.8,0.6L26,13z"/>
	<circle fill="#FFFFFF" cx="11" cy="2" r="2"/>
</g>
</svg>
