<?xml version="1.0" encoding="utf-8"?>
<!-- Generator: Adobe Illustrator 20.0.0, SVG Export Plug-In . SVG Version: 6.00 Build 0)  -->
<svg version="1.1" id="Icons" xmlns="http://www.w3.org/2000/svg" xmlns:xlink="http://www.w3.org/1999/xlink" x="0px" y="0px"
	 width="30px" height="30px" viewBox="0 0 30 30" style="enable-background:new 0 0 30 30;" xml:space="preserve">
<g>
	<path fill="#231F20" d="M25,5V3h-1l-1,2l-6,7h-4v-2l3,1l1-1l-1-1l-3-1V6h-1V5h-2v1H9v6H2l-2,1v7h2v-6h1L2,29l1,1h1l1-1v-8h1l1,3l2,5l1,1h1l1-1
		l-3-8l2-2h6v10l1,1h1l1-1V19l2.2-5H26l1-1l0.8-2.2L29,11l1-1V9L25,5z M26,13h-3.3l1.3-3l2.8,0.6L26,13z"/>
	<circle fill="#231F20" cx="11" cy="2" r="2"/>
</g>
</svg>
