<?xml version="1.0" encoding="utf-8"?>
<!-- Generator: Adobe Illustrator 20.0.0, SVG Export Plug-In . SVG Version: 6.00 Build 0)  -->
<svg version="1.1" id="Icons" xmlns="http://www.w3.org/2000/svg" xmlns:xlink="http://www.w3.org/1999/xlink" x="0px" y="0px"
	 width="22px" height="22px" viewBox="0 0 22 22" style="enable-background:new 0 0 22 22;" xml:space="preserve">
<g>
	<polygon fill="#231F20" points="20,7 20,9 18,11 16,11 16,10 18,10 19,9 19,7 	"/>
	<path fill="#231F20" d="M18,4V2l-2,2l-3,3.8V7l-3-1V5L9,4H8L7,5v4H1l-1,1v5h1v-4l1-1h1l-1,2v1v8l1,1l1-1v-6l3,6l1,1l1-1l-3-7h7v7l1,1l1-1v-8l3-6
		l3,1l1-1L18,4z M10,9V7l2.8,0.9L12,9H10z"/>
	<circle fill="#231F20" cx="8.5" cy="1.5" r="1.5"/>
</g>
</svg>
