<?xml version="1.0" encoding="utf-8"?>
<!-- Generator: Adobe Illustrator 25.4.1, SVG Export Plug-In . SVG Version: 6.00 Build 0)  -->
<svg version="1.1" id="Icons" xmlns="http://www.w3.org/2000/svg" xmlns:xlink="http://www.w3.org/1999/xlink" x="0px" y="0px"
	 width="14px" height="14px" viewBox="0 0 14 14" enable-background="new 0 0 14 14" xml:space="preserve">
<path fill="#ffffff" d="M4,0c0.6,0,1,0.4,1,1S4.6,2,4,2S3,1.6,3,1S3.4,0,4,0z"/>
<path fill="#ffffff" d="M12,4V2L8,6H5V4l2,1h1L5,3H3v3H0v4h1v4h1v-3h1l0.9,3h1L4,11v-1h4v4h1v-3l0.9,3h1L10,11V9h3V6h1V5.1L12,4z
	 M1,8V7h1L1,8z M12,8h-2l1-2h1V8z"/>
</svg>
