<?xml version="1.0" encoding="utf-8"?>
<!-- Generator: Adobe Illustrator 18.1.1, SVG Export Plug-In . SVG Version: 6.00 Build 0)  -->
<svg version="1.1" id="Icons" xmlns="http://www.w3.org/2000/svg" xmlns:xlink="http://www.w3.org/1999/xlink" x="0px" y="0px"
	 viewBox="0 0 16 16" enable-background="new 0 0 16 16" xml:space="preserve">
<g opacity="0.1">
	<polygon points="12,2 12,7 6,7 6,2 3,2 3,7 3,10 3,16 6,16 6,10 12,10 12,16 15,16 15,2 	"/>
</g>
<g opacity="0.2">
	<polygon points="11,1 11,6 5,6 5,1 2,1 2,6 2,9 2,15 5,15 5,9 11,9 11,15 14,15 14,1 	"/>
</g>
<g>
	<polygon fill="#0099CD" points="10,0 10,5 4,5 4,0 1,0 1,5 1,8 1,14 4,14 4,8 10,8 10,14 13,14 13,0 	"/>
</g>
</svg>
