<?xml version="1.0" encoding="utf-8"?>
<!-- Generator: Adobe Illustrator 18.1.1, SVG Export Plug-In . SVG Version: 6.00 Build 0)  -->
<svg version="1.1" id="Icons" xmlns="http://www.w3.org/2000/svg" xmlns:xlink="http://www.w3.org/1999/xlink" x="0px" y="0px"
	 viewBox="0 0 24 24" enable-background="new 0 0 24 24" xml:space="preserve">
<g opacity="0.5">
	<polygon points="8,2 3,2 3,24 8,24 8,14 17,14 17,24 22,24 22,2 17,2 17,9 8,9 	"/>
</g>
<g opacity="0.75">
	<polygon points="7,1 2,1 2,23 7,23 7,13 16,13 16,23 21,23 21,1 16,1 16,8 7,8 	"/>
</g>
<g>
	<polygon fill="#0099CD" points="6,0 1,0 1,22 6,22 6,12 15,12 15,22 20,22 20,0 15,0 15,7 6,7 	"/>
</g>
</svg>
