<?xml version="1.0" encoding="utf-8"?>
<!-- Generator: Adobe Illustrator 18.1.1, SVG Export Plug-In . SVG Version: 6.00 Build 0)  -->
<svg version="1.1" id="Icons" xmlns="http://www.w3.org/2000/svg" xmlns:xlink="http://www.w3.org/1999/xlink" x="0px" y="0px"
	 viewBox="0 0 32 32" enable-background="new 0 0 32 32" xml:space="preserve">
<g opacity="0.5">
	<polygon points="11,2 4,2 4,32 11,32 11,19 23,19 23,32 30,32 30,2 23,2 23,12 11,12 	"/>
</g>
<g opacity="0.75">
	<polygon points="10,1 3,1 3,31 10,31 10,18 22,18 22,31 29,31 29,1 22,1 22,11 10,11 	"/>
</g>
<g>
	<polygon fill="#0099CD" points="9,0 2,0 2,30 9,30 9,17 21,17 21,30 28,30 28,0 21,0 21,10 9,10 	"/>
</g>
</svg>
