<?xml version="1.0" encoding="utf-8"?>
<!-- Generator: Adobe Illustrator 24.2.0, SVG Export Plug-In . SVG Version: 6.00 Build 0)  -->
<svg version="1.1" id="Layer_1" xmlns="http://www.w3.org/2000/svg" xmlns:xlink="http://www.w3.org/1999/xlink" x="0px" y="0px"
	 width="14px" height="14px" viewBox="0 0 14 14" enable-background="new 0 0 14 14" xml:space="preserve">
<rect x="5.7" y="4" fill-rule="evenodd" clip-rule="evenodd"  width="3.6" height="0.6"/>
<path  d="M4.9,6.1L3.5,6C3,6,3.1,5.6,3.1,5.6H0V4.8l0.3,0c0,0,0,0,0.1,0l0.1,0.2h9.1c0.1,0,0.2,0,0.3,0.1L10.4,6H13
	c1.1,0,1,1,1,1l0,5h-4V8.5L8.6,9C8,9.3,7.7,9,7.7,9L5,6.8C4.6,6.5,4.9,6.1,4.9,6.1L4.9,6.1z M6.5,6.2L8,7.4l1.3-0.6
	C8.8,6.7,8.8,6.2,8.8,6.2L6.5,6.2z"/>
<circle  cx="11.5" cy="3.5" r="1.5"/>
</svg>
