<?xml version="1.0" encoding="utf-8"?>
<!-- Generator: Adobe Illustrator 24.2.0, SVG Export Plug-In . SVG Version: 6.00 Build 0)  -->
<svg version="1.1" id="Layer_1" xmlns="http://www.w3.org/2000/svg" xmlns:xlink="http://www.w3.org/1999/xlink" x="0px" y="0px"
	 width="14px" height="14px" viewBox="0 0 14 14" enable-background="new 0 0 14 14" xml:space="preserve">
<path fill-rule="evenodd" clip-rule="evenodd" fill="#FFFFFF" d="M5.7,4h3.6v0.6H5.7V4z"/>
<path fill="#FFFFFF" d="M4.9,6.1L3.5,6C3,6,3.1,5.6,3.1,5.6H0V4.8h0.3c0,0,0,0,0.1,0L0.5,5h9.1c0.1,0,0.2,0,0.3,0.1L10.4,6H13
	c1.1,0,1,1,1,1v5h-4V8.5L8.6,9C8,9.3,7.7,9,7.7,9L5,6.8C4.6,6.5,4.9,6.1,4.9,6.1L4.9,6.1z M6.5,6.2L8,7.4l1.3-0.6
	C8.8,6.7,8.8,6.2,8.8,6.2H6.5z"/>
<path fill="#FFFFFF" d="M11.5,2C12.3,2,13,2.7,13,3.5S12.3,5,11.5,5S10,4.3,10,3.5S10.7,2,11.5,2z"/>
</svg>
