<?xml version="1.0" encoding="utf-8"?>
<!-- Generator: Adobe Illustrator 18.1.1, SVG Export Plug-In . SVG Version: 6.00 Build 0)  -->
<svg version="1.1" id="Icons" xmlns="http://www.w3.org/2000/svg" xmlns:xlink="http://www.w3.org/1999/xlink" x="0px" y="0px"
	 viewBox="0 0 16 16" enable-background="new 0 0 16 16" xml:space="preserve">
<g opacity="0.5">
	<polygon points="4,13 3,13 2,13 2,14 3,14 3,14.5 4,14.5 4,15.5 5,15.5 5,16 6,16 7,16 7,15 6,15 5,15 5,14 4,14 	"/>
	<polygon points="13,8 13,7 14,7 14,5 13,5 13,4 12,4 11,4 6,4 6,5.5 11,5.5 11,6 10,6 10,7 9,7 9,9 10,9 10,10 11,10 11,11 12,11 
		12,12 12,15 11,15 11,16 16,16 16,15 14,15 14,11 14,10 13,10 13,9 12,9 12,8 	"/>
	<polygon points="9,9 8,9 8,10 7,10 7,11 6,11 6,12 5,12 5,13 5,14 5.9,14 6.1,14 7,14 7,13 8,13 8,12 9,12 9,11 10,11 10,10 9,10 	
		"/>
	<polygon points="14,5 15,5 15,4 16,4 16,3 15,3 15,2 14,2 14,3 13,3 13,4 14,4 	"/>
</g>
<g opacity="0.75">
	<polygon points="3,12 2,12 1,12 1,13 2,13 2,13.5 3,13.5 3,14.5 4,14.5 4,15 5,15 6,15 6,14 5,14 4,14 4,13 3,13 	"/>
	<polygon points="12,7 12,6 13,6 13,4 12,4 12,3 11,3 10,3 5,3 5,4.5 10,4.5 10,5 9,5 9,6 8,6 8,8 9,8 9,9 10,9 10,10 11,10 11,11 
		11,14 10,14 10,15 15,15 15,14 13,14 13,10 13,9 12,9 12,8 11,8 11,7 	"/>
	<polygon points="8,8 7,8 7,9 6,9 6,10 5,10 5,11 4,11 4,12 4,13 4.9,13 5.1,13 6,13 6,12 7,12 7,11 8,11 8,10 9,10 9,9 8,9 	"/>
	<polygon points="13,4 14,4 14,3 15,3 15,2 14,2 14,1 13,1 13,2 12,2 12,3 13,3 	"/>
</g>
<g>
	<polygon fill="#FFFFFF" points="2,11 1,11 0,11 0,12 1,12 1,12.5 2,12.5 2,13.5 3,13.5 3,14 4,14 5,14 5,13 4,13 3,13 3,12 2,12 	
		"/>
	<polygon fill="#FFFFFF" points="11,6 11,5 12,5 12,3 11,3 11,2 10,2 9,2 4,2 4,3.5 9,3.5 9,4 8,4 8,5 7,5 7,7 8,7 8,8 9,8 9,9 
		10,9 10,10 10,13 9,13 9,14 14,14 14,13 12,13 12,9 12,8 11,8 11,7 10,7 10,6 	"/>
	<polygon fill="#FFFFFF" points="7,7 6,7 6,8 5,8 5,9 4,9 4,10 3,10 3,11 3,12 3.9,12 4.1,12 5,12 5,11 6,11 6,10 7,10 7,9 8,9 8,8 
		7,8 	"/>
	<polygon fill="#FFFFFF" points="12,3 13,3 13,2 14,2 14,1 13,1 13,0 12,0 12,1 11,1 11,2 12,2 	"/>
</g>
</svg>
