<?xml version="1.0" encoding="utf-8"?>
<!-- Generator: Adobe Illustrator 22.0.1, SVG Export Plug-In . SVG Version: 6.00 Build 0)  -->
<svg version="1.1" id="Layer_1" xmlns="http://www.w3.org/2000/svg" xmlns:xlink="http://www.w3.org/1999/xlink" x="0px" y="0px"
	 width="22px" height="22px" viewBox="0 0 22 22" enable-background="new 0 0 22 22" xml:space="preserve">
<g>
	<path fill="#FFFFFF" d="M2.8,0.2v9.9H0.6V0.2H2.8z"/>
	<path fill="#FFFFFF" d="M12.7,9.8c-0.4,0.2-1.3,0.4-2.5,0.4c-3.4,0-5.2-2.1-5.2-5C5,1.9,7.4,0,10.4,0c1.2,0,2,0.2,2.4,0.4l-0.5,1.8
		c-0.5-0.2-1.1-0.4-1.9-0.4c-1.8,0-3.2,1.1-3.2,3.3c0,2,1.2,3.2,3.2,3.2c0.7,0,1.4-0.1,1.9-0.3L12.7,9.8z"/>
	<path fill="#FFFFFF" d="M20.7,5.9h-3.6v2.4h4.1v1.8h-6.3V0.2H21V2h-3.9v2.1h3.6V5.9z"/>
</g>
<path fill="#FFFFFF" d="M21.5,13.2H0.5l0.8,5.8l1.2-2.8L4,15.4L5.5,22L7,15.5l1.3,1.1L9,19.3c0,0,1.1-3.9,1.1-3.7c0,0.2,1.8-0.4,1.8-0.4l1.6,5.6
	l1.7-5.8l1.5,2.4l1.4-2.9l1.6,4.4L21.5,13.2z"/>
</svg>
