<?xml version="1.0" encoding="utf-8"?>
<!-- Generator: Adobe Illustrator 18.1.1, SVG Export Plug-In . SVG Version: 6.00 Build 0)  -->
<svg version="1.1" id="Icons" xmlns="http://www.w3.org/2000/svg" xmlns:xlink="http://www.w3.org/1999/xlink" x="0px" y="0px"
	 viewBox="0 0 32 32" enable-background="new 0 0 32 32" xml:space="preserve">
<g opacity="0.5">
	<polygon points="15,18 15,19 16,19 16,20 17,20 17,21 16,21 16,22 15,22 15,23 14,23 14,24 13,24 13,25 12,25 12,26 11,26 11,27 
		10,27 10,28 9,28 9,29 8,29 8,28 7,28 7,27 6,27 6,26 7,26 7,25 8,25 8,24 9,24 9,23 10,23 10,22 11,22 11,21 12,21 12,20 13,20 
		13,19 14,19 14,18 	"/>
	<polygon points="2,26 4,26 4,27 5,27 5,28 6,28 6,29 7,29 7,30 8,30 8,31 9,31 9,32 7,32 7,31 6,31 6,30 5,30 5,29 4,29 4,28 3,28 
		3,27 2,27 	"/>
	<polygon points="20,31 28,31 28,30 29,30 29,32 20,32 	"/>
	<polygon points="9,8 11,7 26,7 26,8 27,8 27,11 26,11 26,12 25,12 25,13 24,13 24,14 23,14 23,15 22,15 22,16 21,16 21,17 22,17 
		22,18 23,18 23,19 24,19 24,20 25,20 25,21 25,29 24,30 23,30 22,29 22,23 21,23 21,22 20,22 20,21 19,21 19,20 18,20 18,19 17,19 
		17,18 16,18 16,17 16,16 15,16 15,15 16,15 16,14 17,14 17,13 18,13 18,12 19,12 19,11 20,11 20,10 11,10 9,9 	"/>
	<rect x="9" y="30" width="1" height="1"/>
	<polygon points="27,3 30,3 30,4 31,4 31,7 30,7 30,8 27,8 27,7 26,7 26,4 27,4 	"/>
</g>
<g opacity="0.75">
	<polygon points="14,17 14,18 15,18 15,19 16,19 16,20 15,20 15,21 14,21 14,22 13,22 13,23 12,23 12,24 11,24 11,25 10,25 10,26 
		9,26 9,27 8,27 8,28 7,28 7,27 6,27 6,26 5,26 5,25 6,25 6,24 7,24 7,23 8,23 8,22 9,22 9,21 10,21 10,20 11,20 11,19 12,19 12,18 
		13,18 13,17 	"/>
	<polygon points="1,25 3,25 3,26 4,26 4,27 5,27 5,28 6,28 6,29 7,29 7,30 8,30 8,31 6,31 6,30 5,30 5,29 4,29 4,28 3,28 3,27 2,27 
		2,26 1,26 	"/>
	<polygon points="19,30 27,30 27,29 28,29 28,31 19,31 	"/>
	<polygon points="8,7 10,6 25,6 25,7 26,7 26,10 25,10 25,11 24,11 24,12 23,12 23,13 22,13 22,14 21,14 21,15 20,15 20,16 21,16 
		21,17 22,17 22,18 23,18 23,19 24,19 24,20 24,28 23,29 22,29 21,28 21,22 20,22 20,21 19,21 19,20 18,20 18,19 17,19 17,18 16,18 
		16,17 15,17 15,16 15,15 14,15 14,14 15,14 15,13 16,13 16,12 17,12 17,11 18,11 18,10 19,10 19,9 10,9 8,8 	"/>
	<rect x="8" y="29" width="1" height="1"/>
	<polygon points="26,2 29,2 29,3 30,3 30,6 29,6 29,7 26,7 26,6 25,6 25,3 26,3 	"/>
</g>
<g>
	<polygon fill="#FFFFFF" points="13,16 13,17 14,17 14,18 15,18 15,19 14,19 14,20 13,20 13,21 12,21 12,22 11,22 11,23 10,23 
		10,24 9,24 9,25 8,25 8,26 7,26 7,27 6,27 6,26 5,26 5,25 4,25 4,24 5,24 5,23 6,23 6,22 7,22 7,21 8,21 8,20 9,20 9,19 10,19 
		10,18 11,18 11,17 12,17 12,16 	"/>
	<polygon fill="#FFFFFF" points="0,24 2,24 2,25 3,25 3,26 4,26 4,27 5,27 5,28 6,28 6,29 7,29 7,30 5,30 5,29 4,29 4,28 3,28 3,27 
		2,27 2,26 1,26 1,25 0,25 	"/>
	<polygon fill="#FFFFFF" points="18,29 26,29 26,28 27,28 27,30 18,30 	"/>
	<polygon fill="#FFFFFF" points="7,6 9,5 24,5 24,6 25,6 25,9 24,9 24,10 23,10 23,11 22,11 22,12 21,12 21,13 20,13 20,14 19,14 
		19,15 20,15 20,16 21,16 21,17 22,17 22,18 23,18 23,19 23,27 22,28 21,28 20,27 20,21 19,21 19,20 18,20 18,19 17,19 17,18 16,18 
		16,17 15,17 15,16 14,16 14,15 14,14 13,14 13,13 14,13 14,12 15,12 15,11 16,11 16,10 17,10 17,9 18,9 18,8 9,8 7,7 	"/>
	<rect x="7" y="28" fill="#FFFFFF" width="1" height="1"/>
	<polygon fill="#FFFFFF" points="25,1 28,1 28,2 29,2 29,5 28,5 28,6 25,6 25,5 24,5 24,2 25,2 	"/>
</g>
</svg>
