<?xml version="1.0" encoding="utf-8"?>
<!-- Generator: Adobe Illustrator 20.0.0, SVG Export Plug-In . SVG Version: 6.00 Build 0)  -->
<svg version="1.1" id="Icons" xmlns="http://www.w3.org/2000/svg" xmlns:xlink="http://www.w3.org/1999/xlink" x="0px" y="0px"
	 width="22px" height="22px" viewBox="0 0 22 22" style="enable-background:new 0 0 22 22;" xml:space="preserve">
<g>
	<polygon fill="#231F20" points="20,22 13,22 13,21 19,21 19,20 20,20 20,21 	"/>
	<polygon fill="#231F20" points="11,13 10,13 10,12 8,12 8,13 7,13 7,14 6,14 6,15 5,15 5,16 4,16 4,17 3,17 3,19 4,19 4,20 5,20 5,19 6,19 6,18 
		7,18 7,17 8,17 8,16 9,16 9,15 10,15 10,14 11,14 	"/>
	<polygon fill="#231F20" points="6,3 5,4 6,5 13,5 13,6 12,6 12,7 11,7 11,8 10,8 10,11 11,11 11,12 12,12 12,13 13,13 13,14 14,14 14,15 14,19 
		15,20 16,20 17,19 17,13 16,13 16,12 15,12 15,11 14,11 14,10 15,10 15,9 16,9 16,8 17,8 17,7 18,7 18,4 17,4 17,3 	"/>
	<polygon fill="#231F20" points="18,0 20,0 20,1 21,1 21,3 20,3 20,4 18,4 18,3 17,3 17,1 18,1 	"/>
	<polygon fill="#231F20" points="3,22 6,22 6,21 4,21 4,20 3,20 3,19 2,19 2,18 1,18 1,17 0,17 0,19 1,19 1,20 2,20 2,21 3,21 	"/>
</g>
</svg>
