<?xml version="1.0" encoding="utf-8"?>
<!-- Generator: Adobe Illustrator 22.0.1, SVG Export Plug-In . SVG Version: 6.00 Build 0)  -->
<svg version="1.1" id="Layer_1" xmlns="http://www.w3.org/2000/svg" xmlns:xlink="http://www.w3.org/1999/xlink" x="0px" y="0px"
	 width="30px" height="30px" viewBox="0 0 30 30" enable-background="new 0 0 30 30" xml:space="preserve">
<g>
	<path fill="#FFFFFF" d="M3.8,0.2v13.5H1V0.2H3.8z"/>
	<path fill="#FFFFFF" d="M17.3,13.4c-0.6,0.3-1.8,0.6-3.5,0.6c-4.7,0-7.1-2.9-7.1-6.8c0-4.6,3.3-7.2,7.4-7.2c1.6,0,2.8,0.3,3.3,0.6L16.9,3
		c-0.6-0.3-1.5-0.5-2.6-0.5C11.9,2.5,10,4,10,7c0,2.7,1.6,4.4,4.3,4.4c0.9,0,1.9-0.2,2.5-0.4L17.3,13.4z"/>
	<path fill="#FFFFFF" d="M28.3,8h-5v3.2h5.6v2.5h-8.6V0.2h8.3v2.5h-5.3v2.8h5V8z"/>
</g>
<path fill="#FFFFFF" d="M29.3,18H0.7l1.1,7.8l1.6-3.8l2.1-1l2,9l2.1-8.9l1.8,1.4l0.9,3.8c0,0,1.5-5.3,1.5-5.1s2.4-0.5,2.4-0.5l2.2,7.6l2.4-8l2,3.3
	l2-4l2.2,6L29.3,18z"/>
</svg>
