<?xml version="1.0" encoding="utf-8"?>
<!-- Generator: Adobe Illustrator 22.1.0, SVG Export Plug-In . SVG Version: 6.00 Build 0)  -->
<svg version="1.1" id="Layer_1" xmlns="http://www.w3.org/2000/svg" xmlns:xlink="http://www.w3.org/1999/xlink" x="0px" y="0px"
	 width="14px" height="14px" viewBox="0 0 14 14" enable-background="new 0 0 14 14" xml:space="preserve">
<rect fill="#FFFFFF" width="2" height="2"/>
<rect fill="#FFFFFF" x="5" width="9" height="2"/>
<path fill="#FFFFFF" d="M3.3,3.1C3.1,3.2,2.9,3.4,2.9,3.6s0.2,0.5,0.4,0.5v3.4C3.3,8,3,8.4,2.5,8.4C2.1,8.4,1.7,8,1.7,7.6c0-0.1,0-0.2,0.1-0.3l0,0
	l0.3,0.3L1.9,6L1.5,7.1C1.3,7.4,1.3,7.6,1.3,7.6c0,0.6,0.5,1.2,1.2,1.2c0.6,0,1.2-0.5,1.2-1.2V4.1C3.9,4.1,4,3.8,4,3.6
	c0-0.2-0.2-0.5-0.4-0.5V0H3.3V3.1z"/>
<path fill="#FFFFFF" d="M4.8,9.1c0,0,0,0.1,0,0.1c0,0.1,0,0.1,0.1,0.1l2.4,1.1c0.1,0.1,0.1,0.1,0.1,0.2c0,0.1-0.1,0.2-0.2,0.2l-2.6,0
	c-0.1,0-0.1,0-0.1,0.1c0,0,0,0,0,0.1c2.7,2.1,6.3,3,9.6,3V6.6C7.8,6.5,4.8,9.1,4.8,9.1z M8.5,10.5c-0.6,0-1-0.4-1-1c0-0.6,0.4-1,1-1
	s1,0.4,1,1C9.5,10.1,9.1,10.5,8.5,10.5z"/>
</svg>
