<?xml version="1.0" encoding="utf-8"?>
<!-- Generator: Adobe Illustrator 25.4.1, SVG Export Plug-In . SVG Version: 6.00 Build 0)  -->
<svg version="1.1" id="Icons" xmlns="http://www.w3.org/2000/svg" xmlns:xlink="http://www.w3.org/1999/xlink" x="0px" y="0px"
	 width="14px" height="14px" viewBox="0 0 14 14" enable-background="new 0 0 14 14" xml:space="preserve">
<path fill="#231F20" d="M12.1,3.9L9.5,6.4V7l1.8,1.8V12l-1,1l-0.8-0.9V8.9L7,6.4V5.7l2.5-2.5L9.3,3h-5L3.8,2.5L4.3,2h6.6l1.2,1.2
	C12.1,3.2,12.1,3.9,12.1,3.9z M12.7,0c-0.7,0-1.3,0.6-1.3,1.3s0.6,1.3,1.3,1.3C13.4,2.5,14,2,14,1.3S13.4,0,12.7,0z M8.9,13.4V14
	h4.4v-1.3h-0.6v0.6L8.9,13.4L8.9,13.4z M4.3,14v-0.6H3.2l-2.5-2.5v1.3L2.5,14H4.3z M2.5,12.1l0.6,0.6l4.5-4.5L7,7.6H5.7l-3.2,3.2
	C2.5,10.8,2.5,12.1,2.5,12.1z"/>
</svg>
