<?xml version="1.0" encoding="utf-8"?>
<!-- Generator: Adobe Illustrator 22.0.1, SVG Export Plug-In . SVG Version: 6.00 Build 0)  -->
<svg version="1.1" id="Layer_1" xmlns="http://www.w3.org/2000/svg" xmlns:xlink="http://www.w3.org/1999/xlink" x="0px" y="0px"
	 width="22px" height="22px" viewBox="0 0 22 22" enable-background="new 0 0 22 22" xml:space="preserve">
<path fill="#FFFFFF" d="M7.9,5C7.3,5,6.8,5,6.3,5.3C5.4,5.8,4.7,6.8,4.7,8h2.8H11C11,6.3,9.6,5,7.9,5z"/>
<path fill="#FFFFFF" d="M15.7,5.1c0-0.1,0-0.3,0-0.4C15.7,2.1,13.6,0,11,0C8.9,0,7.1,1.4,6.5,3.4c0.4-0.1,0.9-0.2,1.4-0.2c2.6,0,4.7,2.3,4.7,4.9
	h1.9h2.8C17.3,6.8,16.6,5.7,15.7,5.1z"/>
<polygon fill="#FFFFFF" points="6.3,9 15.7,9 11,22 "/>
</svg>
