<?xml version="1.0" encoding="utf-8"?>
<!-- Generator: Adobe Illustrator 20.0.0, SVG Export Plug-In . SVG Version: 6.00 Build 0)  -->
<svg version="1.1" id="Icons" xmlns="http://www.w3.org/2000/svg" xmlns:xlink="http://www.w3.org/1999/xlink" x="0px" y="0px"
	 width="14px" height="14px" viewBox="0 0 14 14" style="enable-background:new 0 0 14 14;" xml:space="preserve">
<g>
	<polygon fill="#231F20" points="2,11 1,11 0,11 0,12 1,12 1,12.5 2,12.5 2,13.5 3,13.5 3,14 4,14 5,14 5,13 4,13 3,13 3,12 2,12 	"/>
	<polygon fill="#231F20" points="11,6 11,5 12,5 12,3 11,3 11,2 10,2 9,2 4,2 4,3.5 9,3.5 9,4 8,4 8,5 7,5 7,7 8,7 8,8 9,8 9,9 10,9 10,10 10,13 
		9,13 9,14 14,14 14,13 12,13 12,9 12,8 11,8 11,7 10,7 10,6 	"/>
	<polygon fill="#231F20" points="7,7 6,7 6,8 5,8 5,9 4,9 4,10 3,10 3,11 3,12 3.9,12 4.1,12 5,12 5,11 6,11 6,10 7,10 7,9 8,9 8,8 7,8 	"/>
	<polygon fill="#231F20" points="12,3 13,3 13,2 14,2 14,1 13,1 13,0 12,0 12,1 11,1 11,2 12,2 	"/>
</g>
</svg>
