<?xml version="1.0" encoding="utf-8"?>
<!-- Generator: Adobe Illustrator 22.0.1, SVG Export Plug-In . SVG Version: 6.00 Build 0)  -->
<svg version="1.1" id="Layer_1" xmlns="http://www.w3.org/2000/svg" xmlns:xlink="http://www.w3.org/1999/xlink" x="0px" y="0px"
	 width="14px" height="14px" viewBox="0 0 14 14" enable-background="new 0 0 14 14" xml:space="preserve">
<path fill="#FFFFFF" d="M5,3C4.6,3,4.3,3.1,4,3.3C3.4,3.6,3,4.3,3,5h1.8H7C7,3.9,6.1,3,5,3z"/>
<path fill="#FFFFFF" d="M10,3.3c0-0.1,0-0.2,0-0.3c0-1.7-1.3-3-3-3C5.6,0,4.5,0.9,4.1,2.1C4.4,2.1,4.7,2,5,2c1.7,0,3,1.3,3,3h1.2H11
	C11,4.3,10.6,3.6,10,3.3z"/>
<polygon fill="#FFFFFF" points="4,6 10,6 7,14 "/>
</svg>
