<?xml version="1.0" encoding="utf-8"?>
<!-- Generator: Adobe Illustrator 18.1.1, SVG Export Plug-In . SVG Version: 6.00 Build 0)  -->
<svg version="1.1" id="Icons" xmlns="http://www.w3.org/2000/svg" xmlns:xlink="http://www.w3.org/1999/xlink" x="0px" y="0px"
	 viewBox="0 0 24 24" enable-background="new 0 0 24 24" xml:space="preserve">
<g opacity="0.5">
	<polygon points="22,24 15,24 15,23 21,23 21,22 22,22 22,23 	"/>
	<polygon points="13,15 12,15 12,14 10,14 10,15 9,15 9,16 8,16 8,17 7,17 7,18 6,18 6,19 5,19 5,21 6,21 6,22 7,22 7,21 8,21 8,20 
		9,20 9,19 10,19 10,18 11,18 11,17 12,17 12,16 13,16 	"/>
	<polygon points="8,5 7,6 8,7 15,7 15,8 14,8 14,9 13,9 13,10 12,10 12,13 13,13 13,14 14,14 14,15 15,15 15,16 16,16 16,17 16,21 
		17,22 18,22 19,21 19,15 18,15 18,14 17,14 17,13 16,13 16,12 17,12 17,11 18,11 18,10 19,10 19,9 20,9 20,6 19,6 19,5 	"/>
	<polygon points="20,2 22,2 22,3 23,3 23,5 22,5 22,6 20,6 20,5 19,5 19,3 20,3 	"/>
	<polygon points="5,24 8,24 8,23 6,23 6,22 5,22 5,21 4,21 4,20 3,20 3,19 2,19 2,21 3,21 3,22 4,22 4,23 5,23 	"/>
</g>
<g opacity="0.75">
	<polygon points="21,23 14,23 14,22 20,22 20,21 21,21 21,22 	"/>
	<polygon points="12,14 11,14 11,13 9,13 9,14 8,14 8,15 7,15 7,16 6,16 6,17 5,17 5,18 4,18 4,20 5,20 5,21 6,21 6,20 7,20 7,19 
		8,19 8,18 9,18 9,17 10,17 10,16 11,16 11,15 12,15 	"/>
	<polygon points="7,4 6,5 7,6 14,6 14,7 13,7 13,8 12,8 12,9 11,9 11,12 12,12 12,13 13,13 13,14 14,14 14,15 15,15 15,16 15,20 
		16,21 17,21 18,20 18,14 17,14 17,13 16,13 16,12 15,12 15,11 16,11 16,10 17,10 17,9 18,9 18,8 19,8 19,5 18,5 18,4 	"/>
	<polygon points="19,1 21,1 21,2 22,2 22,4 21,4 21,5 19,5 19,4 18,4 18,2 19,2 	"/>
	<polygon points="4,23 7,23 7,22 5,22 5,21 4,21 4,20 3,20 3,19 2,19 2,18 1,18 1,20 2,20 2,21 3,21 3,22 4,22 	"/>
</g>
<g>
	<polygon fill="#E6E6E6" points="20,22 13,22 13,21 19,21 19,20 20,20 20,21 	"/>
	<polygon fill="#E6E6E6" points="11,13 10,13 10,12 8,12 8,13 7,13 7,14 6,14 6,15 5,15 5,16 4,16 4,17 3,17 3,19 4,19 4,20 5,20 
		5,19 6,19 6,18 7,18 7,17 8,17 8,16 9,16 9,15 10,15 10,14 11,14 	"/>
	<polygon fill="#E6E6E6" points="6,3 5,4 6,5 13,5 13,6 12,6 12,7 11,7 11,8 10,8 10,11 11,11 11,12 12,12 12,13 13,13 13,14 14,14 
		14,15 14,19 15,20 16,20 17,19 17,13 16,13 16,12 15,12 15,11 14,11 14,10 15,10 15,9 16,9 16,8 17,8 17,7 18,7 18,4 17,4 17,3 	
		"/>
	<polygon fill="#E6E6E6" points="18,0 20,0 20,1 21,1 21,3 20,3 20,4 18,4 18,3 17,3 17,1 18,1 	"/>
	<polygon fill="#E6E6E6" points="3,22 6,22 6,21 4,21 4,20 3,20 3,19 2,19 2,18 1,18 1,17 0,17 0,19 1,19 1,20 2,20 2,21 3,21 	"/>
</g>
</svg>
