<?xml version="1.0" encoding="utf-8"?>
<!-- Generator: Adobe Illustrator 20.0.0, SVG Export Plug-In . SVG Version: 6.00 Build 0)  -->
<svg version="1.1" id="Icons" xmlns="http://www.w3.org/2000/svg" xmlns:xlink="http://www.w3.org/1999/xlink" x="0px" y="0px"
	 width="30px" height="30px" viewBox="0 0 30 30" style="enable-background:new 0 0 30 30;" xml:space="preserve">
<g>
	<polygon fill="#231F20" points="13,16 13,17 14,17 14,18 15,18 15,19 14,19 14,20 13,20 13,21 12,21 12,22 11,22 11,23 10,23 10,24 9,24 9,25 
		8,25 8,26 7,26 7,27 6,27 6,26 5,26 5,25 4,25 4,24 5,24 5,23 6,23 6,22 7,22 7,21 8,21 8,20 9,20 9,19 10,19 10,18 11,18 11,17 
		12,17 12,16 	"/>
	<polygon fill="#231F20" points="0,24 2,24 2,25 3,25 3,26 4,26 4,27 5,27 5,28 6,28 6,29 7,29 7,30 5,30 5,29 4,29 4,28 3,28 3,27 2,27 2,26 1,26 
		1,25 0,25 	"/>
	<polygon fill="#231F20" points="18,29 26,29 26,28 27,28 27,30 18,30 	"/>
	<polygon fill="#231F20" points="7,6 9,5 24,5 24,6 25,6 25,9 24,9 24,10 23,10 23,11 22,11 22,12 21,12 21,13 20,13 20,14 19,14 19,15 20,15 
		20,16 21,16 21,17 22,17 22,18 23,18 23,19 23,27 22,28 21,28 20,27 20,21 19,21 19,20 18,20 18,19 17,19 17,18 16,18 16,17 15,17 
		15,16 14,16 14,15 14,14 13,14 13,13 14,13 14,12 15,12 15,11 16,11 16,10 17,10 17,9 18,9 18,8 9,8 7,7 	"/>
	<rect fill="#231F20" x="7" y="28" width="1" height="1"/>
	<polygon fill="#231F20" points="25,1 28,1 28,2 29,2 29,5 28,5 28,6 25,6 25,5 24,5 24,2 25,2 	"/>
</g>
</svg>
