<?xml version="1.0" encoding="utf-8"?>
<!-- Generator: Adobe Illustrator 22.1.0, SVG Export Plug-In . SVG Version: 6.00 Build 0)  -->
<svg version="1.1" id="Layer_1" xmlns="http://www.w3.org/2000/svg" xmlns:xlink="http://www.w3.org/1999/xlink" x="0px" y="0px"
	 width="22px" height="22px" viewBox="0 0 22 22" enable-background="new 0 0 22 22" xml:space="preserve">
<rect y="0" width="3" height="3"/>
<rect x="8" y="0" width="14" height="3"/>
<path d="M5.2,4.8C4.9,5,4.6,5.3,4.6,5.7c0,0.4,0.3,0.7,0.6,0.8v5.4c0,0.7-0.6,1.3-1.3,1.3c-0.7,0-1.3-0.6-1.3-1.3
	c0-0.2,0-0.3,0.1-0.5l0.1,0l0.4,0.4L3,9.4l-0.7,1.7c-0.2,0.5-0.2,0.8-0.2,0.8c0,1,0.8,1.8,1.8,1.8c1,0,1.8-0.8,1.8-1.8V6.5
	C6.1,6.4,6.4,6,6.4,5.7c0-0.4-0.2-0.7-0.6-0.8V0H5.2V4.8z"/>
<path d="M7.5,14.3c0,0-0.1,0.1-0.1,0.2c0,0.1,0,0.2,0.1,0.2l3.7,1.8c0.2,0.1,0.2,0.2,0.2,0.3c0,0.2-0.2,0.4-0.4,0.4l-4.1,0
	c-0.1,0-0.1,0.1-0.1,0.1c0,0,0,0.1,0,0.1C11,20.7,16.8,22.1,22,22V10.4C12.3,10.3,7.5,14.3,7.5,14.3z M13.4,16.5
	c-0.9,0-1.6-0.7-1.6-1.6c0-0.9,0.7-1.6,1.6-1.6c0.9,0,1.6,0.7,1.6,1.6C14.9,15.8,14.2,16.5,13.4,16.5z"/>
</svg>
