<?xml version="1.0" encoding="utf-8"?>
<!-- Generator: Adobe Illustrator 22.0.1, SVG Export Plug-In . SVG Version: 6.00 Build 0)  -->
<svg version="1.1" id="Layer_1" xmlns="http://www.w3.org/2000/svg" xmlns:xlink="http://www.w3.org/1999/xlink" x="0px" y="0px"
	 width="14px" height="14px" viewBox="0 0 14 14" enable-background="new 0 0 14 14" xml:space="preserve">
<g>
	<path fill="#FFFFFF" d="M1.8,0.1v6.3H0.4V0.1H1.8z"/>
	<path fill="#FFFFFF" d="M8.1,6.2C7.8,6.4,7.2,6.5,6.5,6.5c-2.2,0-3.3-1.4-3.3-3.2C3.2,1.2,4.7,0,6.6,0c0.7,0,1.3,0.1,1.6,0.3L7.9,1.4
		C7.6,1.3,7.2,1.2,6.7,1.2c-1.1,0-2,0.7-2,2.1c0,1.3,0.7,2.1,2,2.1c0.4,0,0.9-0.1,1.2-0.2L8.1,6.2z"/>
	<path fill="#FFFFFF" d="M13.2,3.7h-2.3v1.5h2.6v1.2h-4V0.1h3.9v1.2h-2.5v1.3h2.3V3.7z"/>
</g>
<path fill="#FFFFFF" d="M13.7,8.4H0.3L0.8,12l0.7-1.8l1-0.5L3.5,14l1-4.2l0.8,0.7l0.4,1.8c0,0,0.7-2.5,0.7-2.4s1.1-0.2,1.1-0.2l1,3.6l1.1-3.7
	l0.9,1.5l0.9-1.9l1,2.8L13.7,8.4z"/>
</svg>
