<?xml version="1.0" encoding="utf-8"?>
<!-- Generator: Adobe Illustrator 22.1.0, SVG Export Plug-In . SVG Version: 6.00 Build 0)  -->
<svg version="1.1" id="Layer_1" xmlns="http://www.w3.org/2000/svg" xmlns:xlink="http://www.w3.org/1999/xlink" x="0px" y="0px"
	 width="30px" height="30px" viewBox="0 0 30 30" enable-background="new 0 0 30 30" xml:space="preserve">
<rect y="0" width="4" height="4"/>
<rect x="11" y="0" width="19" height="4"/>
<path d="M7.1,6.6C6.6,6.8,6.3,7.2,6.3,7.7s0.3,1,0.8,1.1v7.4c0,1-0.8,1.7-1.7,1.7c-0.9,0-1.7-0.8-1.7-1.7c0-0.2,0-0.5,0.1-0.7
	l0.1,0.1l0.6,0.6l-0.4-3.4l-1,2.3c-0.3,0.7-0.2,1.1-0.2,1.1c0,1.4,1.1,2.5,2.5,2.5c1.4,0,2.5-1.1,2.5-2.5V8.9
	c0.5-0.2,0.8-0.6,0.8-1.1c0-0.5-0.3-1-0.8-1.1V0H7.1V6.6z"/>
<path d="M10.2,19.4c-0.1,0.1-0.1,0.1-0.1,0.2c0,0.1,0.1,0.2,0.2,0.3l5.1,2.4c0.2,0.1,0.3,0.2,0.3,0.5c0,0.3-0.2,0.5-0.5,0.5l-5.6,0
	c-0.1,0-0.2,0.1-0.2,0.2c0,0.1,0,0.1,0.1,0.1c5.7,4.6,13.5,6.5,20.6,6.4V14.1C16.8,14,10.2,19.4,10.2,19.4z M18.2,22.5
	c-1.2,0-2.1-1-2.1-2.1c0-1.2,1-2.1,2.1-2.1c1.2,0,2.1,1,2.1,2.1C20.4,21.5,19.4,22.5,18.2,22.5z"/>
</svg>
