<?xml version="1.0" encoding="utf-8"?>
<!-- Generator: Adobe Illustrator 22.0.1, SVG Export Plug-In . SVG Version: 6.00 Build 0)  -->
<svg version="1.1" id="Layer_1" xmlns="http://www.w3.org/2000/svg" xmlns:xlink="http://www.w3.org/1999/xlink" x="0px" y="0px"
	 width="30px" height="30px" viewBox="0 0 30 30" enable-background="new 0 0 30 30" xml:space="preserve">
<path fill="#FFFFFF" d="M10.7,6.7c-0.8,0-1.5,0.2-2.1,0.6C7.3,8,6.4,9.4,6.4,11h3.8H15C15,8.6,13.1,6.7,10.7,6.7z"/>
<path fill="#FFFFFF" d="M21.4,7c0-0.2,0.1-0.4,0.1-0.6C21.4,2.9,18.6,0,15,0c-2.9,0-5.3,1.9-6.1,4.6c0.6-0.2,1.2-0.3,1.8-0.3c3.5,0,6.4,3.2,6.4,6.7
	h2.6h3.8C23.6,9.4,22.7,7.7,21.4,7z"/>
<polygon fill="#FFFFFF" points="8.6,13 21.4,13 15,30 "/>
</svg>
