<?xml version="1.0" encoding="utf-8"?>
<!-- Generator: Adobe Illustrator 20.0.0, SVG Export Plug-In . SVG Version: 6.00 Build 0)  -->
<svg version="1.1" id="Icons" xmlns="http://www.w3.org/2000/svg" xmlns:xlink="http://www.w3.org/1999/xlink" x="0px" y="0px"
	 width="30px" height="30px" viewBox="0 0 30 30" style="enable-background:new 0 0 30 30;" xml:space="preserve">
<g>
	<path fill="#231F20" d="M13.5,18.8v-1.4c0-0.4,0-0.7,0.1-0.9c0-0.3,0.1-0.5,0.2-0.7c0.1-0.2,0.2-0.4,0.4-0.6c0.2-0.2,0.4-0.4,0.6-0.7l1.9-2
		c0.4-0.4,0.6-1,0.6-1.6s-0.2-1.2-0.6-1.6c-0.4-0.4-1-0.6-1.6-0.6c-0.7,0-1.3,0.2-1.7,0.7c-0.5,0.5-0.7,1.1-0.8,1.7l-3.2-0.2
		c0.1-0.8,0.3-1.5,0.6-2.1c0.3-0.6,0.7-1.2,1.2-1.6s1.1-0.8,1.8-1s1.4-0.3,2.2-0.3c0.8,0,1.4,0.1,2.1,0.3C18,6.4,18.6,6.7,19,7.1
		c0.5,0.4,0.8,0.9,1.1,1.5c0.3,0.6,0.4,1.3,0.4,2.1c0,0.5-0.1,1-0.2,1.4c-0.2,0.4-0.4,0.8-0.6,1.1c-0.2,0.4-0.5,0.7-0.9,1
		c-0.3,0.3-0.7,0.7-1,1c-0.2,0.2-0.4,0.4-0.6,0.6s-0.3,0.3-0.4,0.5s-0.2,0.4-0.2,0.6s-0.1,0.5-0.1,0.8v0.9h-3V18.8z M13,22.2
		c0-0.5,0.2-1,0.6-1.4c0.4-0.4,0.9-0.6,1.4-0.6s1,0.2,1.4,0.6s0.6,0.8,0.6,1.3s-0.2,1-0.6,1.4C16,24,15.5,24.1,15,24.1
		c-0.3,0-0.5,0-0.8-0.1s-0.5-0.2-0.6-0.4c-0.2-0.2-0.3-0.4-0.4-0.6S13,22.5,13,22.2z"/>
</g>
<path fill="#231F20" d="M24,3c1.7,0,3,1.3,3,3v18c0,1.7-1.3,3-3,3H6c-1.7,0-3-1.3-3-3V6c0-1.7,1.3-3,3-3H24 M24,0H6C2.7,0,0,2.7,0,6v18
	c0,3.3,2.7,6,6,6h18c3.3,0,6-2.7,6-6V6C30,2.7,27.3,0,24,0L24,0z"/>
</svg>
