<?xml version="1.0" encoding="utf-8"?>
<!-- Generator: Adobe Illustrator 18.1.1, SVG Export Plug-In . SVG Version: 6.00 Build 0)  -->
<svg version="1.1" id="Icons" xmlns="http://www.w3.org/2000/svg" xmlns:xlink="http://www.w3.org/1999/xlink" x="0px" y="0px"
	 viewBox="0 0 24 24" enable-background="new 0 0 24 24" xml:space="preserve">
<path opacity="0.5" d="M20,4c1.1,0,2,0.9,2,2v14c0,1.1-0.9,2-2,2H6c-1.1,0-2-0.9-2-2V6c0-1.1,0.9-2,2-2H20 M20,2H6C3.8,2,2,3.8,2,6
	v14c0,2.2,1.8,4,4,4h14c2.2,0,4-1.8,4-4V6C24,3.8,22.2,2,20,2L20,2z"/>
<path opacity="0.75" d="M19,3c1.1,0,2,0.9,2,2v14c0,1.1-0.9,2-2,2H5c-1.1,0-2-0.9-2-2V5c0-1.1,0.9-2,2-2H19 M19,1H5C2.8,1,1,2.8,1,5
	v14c0,2.2,1.8,4,4,4h14c2.2,0,4-1.8,4-4V5C23,2.8,21.2,1,19,1L19,1z"/>
<g>
	<path fill="#E6E6E6" d="M9.7,14.2V13c0-0.3,0-0.6,0.1-0.8c0-0.2,0.1-0.4,0.2-0.6c0.1-0.2,0.2-0.3,0.4-0.5c0.1-0.2,0.3-0.4,0.5-0.6
		l1.6-1.6C12.8,8.6,13,8.1,13,7.6c0-0.5-0.2-1-0.5-1.3c-0.4-0.3-0.8-0.5-1.4-0.5c-0.6,0-1.1,0.2-1.4,0.6C9.3,6.7,9.1,7.2,9,7.8
		L6.3,7.6c0.1-0.7,0.3-1.3,0.5-1.8c0.3-0.5,0.6-1,1-1.3s0.9-0.6,1.5-0.8c0.6-0.2,1.2-0.3,1.8-0.3c0.6,0,1.2,0.1,1.8,0.3
		s1,0.4,1.4,0.8c0.4,0.3,0.7,0.8,0.9,1.3c0.2,0.5,0.3,1.1,0.3,1.8c0,0.5-0.1,0.9-0.2,1.2c-0.1,0.3-0.3,0.7-0.5,1s-0.5,0.6-0.7,0.8
		c-0.3,0.3-0.6,0.5-0.9,0.8c-0.2,0.2-0.4,0.3-0.5,0.5c-0.1,0.1-0.3,0.3-0.3,0.4c-0.1,0.1-0.2,0.3-0.2,0.5c0,0.2-0.1,0.4-0.1,0.7v0.8
		H9.7z M9.3,17.1c0-0.4,0.2-0.8,0.5-1.2s0.7-0.5,1.2-0.5c0.4,0,0.8,0.2,1.2,0.5c0.3,0.3,0.5,0.7,0.5,1.1s-0.2,0.8-0.5,1.2
		c-0.3,0.3-0.7,0.5-1.2,0.5c-0.2,0-0.4,0-0.6-0.1c-0.2-0.1-0.4-0.2-0.5-0.3c-0.2-0.1-0.3-0.3-0.4-0.5C9.4,17.5,9.3,17.3,9.3,17.1z"
		/>
</g>
<path fill="#E6E6E6" d="M18,2c1.1,0,2,0.9,2,2v14c0,1.1-0.9,2-2,2H4c-1.1,0-2-0.9-2-2V4c0-1.1,0.9-2,2-2H18 M18,0H4C1.8,0,0,1.8,0,4
	v14c0,2.2,1.8,4,4,4h14c2.2,0,4-1.8,4-4V4C22,1.8,20.2,0,18,0L18,0z"/>
</svg>
