<?xml version="1.0" encoding="utf-8"?>
<!-- Generator: Adobe Illustrator 20.0.0, SVG Export Plug-In . SVG Version: 6.00 Build 0)  -->
<svg version="1.1" id="Icons" xmlns="http://www.w3.org/2000/svg" xmlns:xlink="http://www.w3.org/1999/xlink" x="0px" y="0px"
	 width="22px" height="22px" viewBox="0 0 22 22" style="enable-background:new 0 0 22 22;" xml:space="preserve">
<g>
	<path fill="#231F20" d="M9.7,14.2V13c0-0.3,0-0.6,0.1-0.8c0-0.2,0.1-0.4,0.2-0.6c0.1-0.2,0.2-0.3,0.4-0.5c0.1-0.2,0.3-0.4,0.5-0.6l1.6-1.6
		C12.8,8.6,13,8.1,13,7.6s-0.2-1-0.5-1.3c-0.4-0.3-0.8-0.5-1.4-0.5C10.5,5.8,10,6,9.7,6.4C9.3,6.7,9.1,7.2,9,7.8L6.3,7.6
		c0.1-0.7,0.3-1.3,0.5-1.8c0.3-0.5,0.6-1,1-1.3c0.4-0.3,0.9-0.6,1.5-0.8s1.2-0.3,1.8-0.3s1.2,0.1,1.8,0.3s1,0.4,1.4,0.8
		c0.4,0.3,0.7,0.8,0.9,1.3s0.3,1.1,0.3,1.8c0,0.5-0.1,0.9-0.2,1.2c-0.1,0.3-0.3,0.7-0.5,1s-0.5,0.6-0.7,0.8
		c-0.3,0.3-0.6,0.5-0.9,0.8c-0.2,0.2-0.4,0.3-0.5,0.5c-0.1,0.1-0.3,0.3-0.3,0.4c-0.1,0.1-0.2,0.3-0.2,0.5s-0.1,0.4-0.1,0.7v0.8H9.7
		V14.2z M9.3,17.1c0-0.4,0.2-0.8,0.5-1.2s0.7-0.5,1.2-0.5c0.4,0,0.8,0.2,1.2,0.5c0.3,0.3,0.5,0.7,0.5,1.1s-0.2,0.8-0.5,1.2
		c-0.3,0.3-0.7,0.5-1.2,0.5c-0.2,0-0.4,0-0.6-0.1c-0.2-0.1-0.4-0.2-0.5-0.3c-0.2-0.1-0.3-0.3-0.4-0.5C9.4,17.5,9.3,17.3,9.3,17.1z"
		/>
</g>
<path fill="#231F20" d="M18,2c1.1,0,2,0.9,2,2v14c0,1.1-0.9,2-2,2H4c-1.1,0-2-0.9-2-2V4c0-1.1,0.9-2,2-2H18 M18,0H4C1.8,0,0,1.8,0,4v14
	c0,2.2,1.8,4,4,4h14c2.2,0,4-1.8,4-4V4C22,1.8,20.2,0,18,0L18,0z"/>
</svg>
