<?xml version="1.0" encoding="utf-8"?>
<!-- Generator: Adobe Illustrator 20.0.0, SVG Export Plug-In . SVG Version: 6.00 Build 0)  -->
<svg version="1.1" id="Icons" xmlns="http://www.w3.org/2000/svg" xmlns:xlink="http://www.w3.org/1999/xlink" x="0px" y="0px"
	 width="14px" height="14px" viewBox="0 0 14 14" style="enable-background:new 0 0 14 14;" xml:space="preserve">
<g>
	<path fill="#FFFFFF" d="M6.3,9.1V8.3c0-0.3,0-0.5,0.1-0.6s0.1-0.3,0.2-0.5c0.1-0.1,0.2-0.3,0.3-0.4s0.3-0.3,0.5-0.5C7.5,6.2,7.7,6,7.8,5.9
		S8,5.6,8.1,5.5C8.2,5.3,8.3,5.2,8.4,5s0.1-0.4,0.1-0.6s0-0.4-0.1-0.6C8.3,3.6,8.2,3.5,8.1,3.3C8,3.2,7.8,3.1,7.6,3
		C7.5,3,7.3,2.9,7.1,2.9C6.6,2.9,6.3,3,6,3.3C5.7,3.7,5.5,4,5.4,4.5L4,4.4C4.1,3.6,4.5,3,5,2.5C5.6,2,6.3,1.8,7.1,1.8
		c0.4,0,0.8,0.1,1.1,0.2c0.3,0,0.6,0.2,0.9,0.4s0.5,0.5,0.6,0.8s0.2,0.7,0.2,1.1S9.8,5,9.7,5.2C9.6,5.5,9.5,5.8,9.3,6L8.5,6.9L8.3,7
		C8.2,7.2,8,7.3,8,7.4S7.8,7.6,7.7,7.7c0,0.1,0,0.2-0.1,0.3c0,0.1,0,0.3,0,0.5v0.6H6.3z M6,11.1c0-0.3,0.1-0.5,0.3-0.7
		c0.2-0.2,0.4-0.3,0.7-0.3s0.5,0.1,0.7,0.3S8,10.8,8,11.1s-0.1,0.5-0.3,0.7C7.4,11.9,7.2,12,6.9,12s-0.5-0.1-0.7-0.3
		C6.1,11.5,6,11.3,6,11.1z"/>
</g>
<path fill="#FFFFFF" d="M10,1c1.7,0,3,1.3,3,3v6c0,1.7-1.3,3-3,3H4c-1.7,0-3-1.3-3-3V4c0-1.7,1.3-3,3-3H10 M10,0H4C1.8,0,0,1.8,0,4v6
	c0,2.2,1.8,4,4,4h6c2.2,0,4-1.8,4-4V4C14,1.8,12.2,0,10,0L10,0z"/>
</svg>
