<?xml version="1.0" encoding="utf-8"?>
<!-- Generator: Adobe Illustrator 24.3.0, SVG Export Plug-In . SVG Version: 6.00 Build 0)  -->
<svg version="1.1" xmlns="http://www.w3.org/2000/svg" xmlns:xlink="http://www.w3.org/1999/xlink" x="0px" y="0px" width="14px"
	 height="14px" viewBox="0 0 14 14" style="enable-background:new 0 0 14 14;" xml:space="preserve">
<style type="text/css">
	.st0{display:none;}
	.st1{display:inline;}
	.st2{fill:#231F20;}
	.st3{display:inline;fill:#231F20;}
	.st4{display:inline;fill:#FFFFFF;}
</style>
<g id="Icons" class="st0">
	<g class="st1">
		<path class="st2" d="M6.3,9.1V8.3c0-0.3,0-0.5,0.1-0.6s0.1-0.3,0.2-0.5c0.1-0.1,0.2-0.3,0.3-0.4s0.3-0.3,0.5-0.5
			C7.5,6.2,7.7,6,7.8,5.9S8,5.6,8.1,5.5C8.2,5.3,8.3,5.2,8.4,5s0.1-0.4,0.1-0.6s0-0.4-0.1-0.6C8.3,3.6,8.2,3.5,8.1,3.3
			C8,3.2,7.8,3.1,7.6,3C7.5,3,7.3,2.9,7.1,2.9C6.6,2.9,6.3,3,6,3.3C5.7,3.7,5.5,4,5.4,4.5L4,4.4C4.1,3.6,4.5,3,5,2.5
			C5.6,2,6.3,1.8,7.1,1.8c0.4,0,0.8,0.1,1.1,0.2c0.3,0,0.6,0.2,0.9,0.4s0.5,0.5,0.6,0.8s0.2,0.7,0.2,1.1S9.8,5,9.7,5.2
			C9.6,5.5,9.5,5.8,9.3,6L8.5,6.9L8.3,7C8.2,7.2,8,7.3,8,7.4S7.8,7.6,7.7,7.7c0,0.1,0,0.2-0.1,0.3c0,0.1,0,0.3,0,0.5v0.6H6.3z
			 M6,11.1c0-0.3,0.1-0.5,0.3-0.7c0.2-0.2,0.4-0.3,0.7-0.3s0.5,0.1,0.7,0.3S8,10.8,8,11.1s-0.1,0.5-0.3,0.7C7.4,11.9,7.2,12,6.9,12
			s-0.5-0.1-0.7-0.3C6.1,11.5,6,11.3,6,11.1z"/>
	</g>
	<path class="st3" d="M10,1c1.7,0,3,1.3,3,3v6c0,1.7-1.3,3-3,3H4c-1.7,0-3-1.3-3-3V4c0-1.7,1.3-3,3-3H10 M10,0H4C1.8,0,0,1.8,0,4v6
		c0,2.2,1.8,4,4,4h6c2.2,0,4-1.8,4-4V4C14,1.8,12.2,0,10,0L10,0z"/>
	<polygon class="st4" points="15.4,9.2 14.4,9.2 14.4,10.2 16.4,10.2 16.4,18.2 17,18.2 17,8.1 	"/>
	<polygon class="st4" points="33.4,9.2 31,7.6 31,18.2 32.4,18.2 32.4,10.2 34.4,10.2 34.4,9.2 	"/>
	<polygon class="st4" points="26.4,0.2 28.4,0.2 28.4,1.2 31.4,1.2 31.4,-2.8 28.4,-2.8 28.4,-3.8 26.4,-3.8 25.4,-3.8 25.4,2 
		26.4,2 	"/>
	<path class="st4" d="M26.4,4.5V2h-1v1.9l-1-0.7L17,8.1v10.1h14V7.6L26.4,4.5z M26.4,15.2l-2,2h-2l1-6h-1l1-1h3l-1,1l-0.7,4H26.4z
		 M26.4,9.2h-2v-2h2V9.2z"/>
</g>
<g id="Layer_2">
	<rect x="7" y="2" class="st2" width="2" height="2"/>
	<polygon class="st2" points="9,5 6,5 5,6 6,6 5,12 7,12 9,10 7.3,10 8,6 	"/>
</g>
</svg>
