<?xml version="1.0" encoding="utf-8"?>
<!-- Generator: Adobe Illustrator 22.1.0, SVG Export Plug-In . SVG Version: 6.00 Build 0)  -->
<svg version="1.1" id="Layer_1" xmlns="http://www.w3.org/2000/svg" xmlns:xlink="http://www.w3.org/1999/xlink" x="0px" y="0px"
	 width="30px" height="30px" viewBox="0 0 30 30" enable-background="new 0 0 30 30" xml:space="preserve">
<path fill="#FFFFFF" d="M2.2,17.8c-0.2-0.4-0.7-0.5-1-0.2c-0.4,0.2-0.5,0.7-0.2,1.1C1.1,19,1.6,19.1,2,18.9C2.3,18.7,2.4,18.2,2.2,17.8z"/>
<path fill="#FFFFFF" d="M2.7,19.9c-0.2-0.4-0.7-0.5-1.1-0.2c-0.4,0.2-0.5,0.7-0.2,1c0.2,0.4,0.7,0.5,1,0.2C2.9,20.8,3,20.3,2.7,19.9z"/>
<path fill="#FFFFFF" d="M3.3,22.1c-0.2-0.4-0.7-0.5-1.1-0.2C1.9,22,1.7,22.5,2,22.9c0.2,0.4,0.7,0.5,1.1,0.2C3.4,22.9,3.5,22.4,3.3,22.1z"/>
<path fill="#FFFFFF" d="M3.8,24.2c-0.2-0.4-0.7-0.5-1-0.2c-0.4,0.2-0.5,0.7-0.2,1.1c0.2,0.4,0.7,0.5,1.1,0.2C3.9,25,4,24.5,3.8,24.2z"/>
<path fill="#FFFFFF" d="M16.2,28.5c-0.4,0.1-0.6,0.6-0.5,1c0.1,0.4,0.6,0.6,1,0.5c0.4-0.1,0.6-0.6,0.5-1C17,28.6,16.6,28.4,16.2,28.5z"/>
<path fill="#FFFFFF" d="M18.4,28.5c-0.4,0.1-0.6,0.6-0.5,1c0.1,0.4,0.6,0.6,1,0.5c0.4-0.1,0.6-0.6,0.5-1C19.2,28.6,18.8,28.4,18.4,28.5z"/>
<path fill="#FFFFFF" d="M20.6,28.5c-0.4,0.1-0.6,0.6-0.5,1c0.1,0.4,0.6,0.6,1,0.5c0.4-0.1,0.6-0.6,0.5-1C21.4,28.6,21,28.4,20.6,28.5z"/>
<path fill="#FFFFFF" d="M22.7,28.5c-0.4,0.1-0.6,0.6-0.5,1c0.1,0.4,0.6,0.6,1,0.5c0.4-0.1,0.6-0.6,0.5-1C23.6,28.6,23.1,28.4,22.7,28.5z"/>
<path fill="#FFFFFF" d="M27.9,11.5h-4.5l-2.1-4.7c0-0.1-0.1-0.2-0.1-0.2c0,0,0,0,0,0l0-0.1l0,0C20.8,5.6,20,5,19,5c-0.2,0-0.4,0-0.5,0L7.2,7.7
	C6.5,7.9,6,8.5,6.2,9.2c0.2,0.7,0.8,1.1,1.5,1l7.6-1.8l-5.8,9.5H5.4h0h-2l1.4,5.4c0,0.2,0,0.2,0.1,0.3C5,23.9,5.4,24,5.8,23.8
	c0.2-0.1,0.3-0.3,0.3-0.4l0.8-2.5l0-0.1c0,0,3.8,0,3.8,0c0.8,0,1.4-0.2,1.8-0.8l1.7-2.9l3.9,3.9l-1.6,6.5c0,0,5.7,0,5.7,0
	c0.4,0,0.7-0.3,0.7-0.7c0-0.3-0.2-0.5-0.4-0.6L20,24.7l1.2-4.7c0,0,0.3-1-0.6-1.9L17.4,15c0,0,1.7-2.8,2.8-4.6l1.3,2.9
	c0.1,0.2,0.3,0.4,0.5,0.5c0,0,0,0,0,0l0,0c0.2,0.1,0.4,0.2,0.7,0.2h5.3c0.7,0,1.3-0.6,1.3-1.3C29.2,12,28.6,11.5,27.9,11.5z"/>
<circle fill="#FFFFFF" cx="21.5" cy="2.5" r="2.5"/>
</svg>
