<?xml version="1.0" encoding="utf-8"?>
<!-- Generator: Adobe Illustrator 22.1.0, SVG Export Plug-In . SVG Version: 6.00 Build 0)  -->
<svg version="1.1" id="Layer_1" xmlns="http://www.w3.org/2000/svg" xmlns:xlink="http://www.w3.org/1999/xlink" x="0px" y="0px"
	 width="22px" height="22px" viewBox="0 0 22 22" enable-background="new 0 0 22 22" xml:space="preserve">
<path fill="#FFFFFF" d="M15.9,0c-1,0-1.9,0.9-1.9,1.9c0,1,0.8,1.9,1.9,1.9c1,0,1.9-0.8,1.9-1.9C17.8,0.9,17,0,15.9,0z"/>
<path fill="#FFFFFF" d="M20.5,8.4h-3.3L15.6,5c0-0.1-0.1-0.1-0.1-0.2c0,0,0,0,0,0l0-0.1l0,0c-0.3-0.6-0.9-1-1.6-1.1c-0.1,0-0.3,0-0.4,0l-8.3,2
	C4.7,5.8,4.4,6.3,4.6,6.8c0.1,0.5,0.6,0.8,1.1,0.7l5.6-1.3l-4.2,7H3.9h0H2.5l1,3.9c0,0.1,0,0.1,0.1,0.2c0.1,0.2,0.4,0.3,0.7,0.2
	c0.1-0.1,0.2-0.2,0.2-0.3L5,15.3l0-0.1c0,0,2.8,0,2.8,0c0.6,0,1-0.2,1.3-0.6l1.3-2.1l2.9,2.8L12.1,20c0,0,4.2,0,4.2,0
	c0.3,0,0.5-0.2,0.5-0.4c0-0.2-0.1-0.4-0.3-0.4l-1.8-1l0.9-3.4c0,0,0.2-0.7-0.5-1.4L12.7,11c0,0,1.2-2,2-3.4l0.9,2.1
	c0.1,0.2,0.2,0.3,0.3,0.4c0,0,0,0,0,0l0,0c0.1,0.1,0.3,0.2,0.5,0.2h3.9c0.5,0,0.9-0.4,0.9-0.9C21.4,8.8,21,8.4,20.5,8.4z"/>
<circle fill="#FFFFFF" cx="16.5" cy="20.5" r="0.5"/>
<circle fill="#FFFFFF" cx="14.5" cy="20.5" r="0.5"/>
<circle fill="#FFFFFF" cx="12.5" cy="20.5" r="0.5"/>
<circle fill="#FFFFFF" cx="10.5" cy="20.5" r="0.5"/>
<circle fill="#FFFFFF" cx="3.6" cy="18.3" r="0.5"/>
<circle fill="#FFFFFF" cx="2.9" cy="16.4" r="0.5"/>
<circle fill="#FFFFFF" cx="2.1" cy="14.6" r="0.5"/>
<circle fill="#FFFFFF" cx="1.4" cy="12.7" r="0.5"/>
</svg>
