<?xml version="1.0" encoding="utf-8"?>
<!-- Generator: Adobe Illustrator 22.1.0, SVG Export Plug-In . SVG Version: 6.00 Build 0)  -->
<svg version="1.1" id="Layer_1" xmlns="http://www.w3.org/2000/svg" xmlns:xlink="http://www.w3.org/1999/xlink" x="0px" y="0px"
	 width="14px" height="14px" viewBox="0 0 14 14" enable-background="new 0 0 14 14" xml:space="preserve">
<path fill="#FFFFFF" d="M13,5h-1.1l-1-1.8c0,0,0-0.1,0-0.1c0,0,0,0,0,0l0,0l0,0c-0.2-0.4-0.6-0.7-1-0.7c-0.1,0-0.2,0-0.2,0L4.3,3.6
	C4,3.7,3.8,4,3.9,4.3C4,4.6,4.3,4.8,4.6,4.8l3.5-0.8L5.5,8.3h-2h0H2.6l0.6,2.5c0,0.1,0,0.1,0,0.1c0.1,0.1,0.3,0.2,0.4,0.1
	c0.1,0,0.1-0.1,0.1-0.2l0.4-1.2l0,0c0,0,1.8,0,1.8,0c0.4,0,0.7-0.1,0.8-0.4l0.8-1.4l1.8,1.8l-0.8,3c0,0,2.7,0,2.7,0
	c0.2,0,0.3-0.1,0.3-0.3c0-0.1-0.1-0.2-0.2-0.3l-1.1-0.6l0.6-2.2c0,0,0.1-0.5-0.3-0.9L9.1,7c0,0,0.8-1.3,1.3-2.1L11,5.6
	c0,0.1,0.1,0.2,0.2,0.3c0,0,0,0,0,0l0,0C11.3,5.9,11.4,6,11.5,6H13c0.3,0,0.6-0.2,0.6-0.5C13.6,5.2,13.4,5,13,5z"/>
<circle fill="#FFFFFF" cx="7.5" cy="13.5" r="0.5"/>
<circle fill="#FFFFFF" cx="9.5" cy="13.5" r="0.5"/>
<circle fill="#FFFFFF" cx="11.5" cy="13.5" r="0.5"/>
<circle fill="#FFFFFF" cx="1.7" cy="8.7" r="0.5"/>
<circle fill="#FFFFFF" cx="2.5" cy="10.5" r="0.5"/>
<circle fill="#FFFFFF" cx="3.3" cy="12.3" r="0.5"/>
<circle fill="#FFFFFF" cx="11.2" cy="1.2" r="1.2"/>
</svg>
