<?xml version="1.0" encoding="utf-8"?>
<!-- Generator: Adobe Illustrator 18.1.1, SVG Export Plug-In . SVG Version: 6.00 Build 0)  -->
<svg version="1.1" id="Layer_1" xmlns="http://www.w3.org/2000/svg" xmlns:xlink="http://www.w3.org/1999/xlink" x="0px" y="0px"
	 viewBox="0 0 32 32" enable-background="new 0 0 32 32" xml:space="preserve">
<polygon opacity="0.1" points="2,15.313 2,29.829 4.877,29.829 4.877,15.306 23.54,15.313 23.54,29.829 26.411,29.829 
	26.411,15.313 32,6 7.597,6 "/>
<polygon opacity="0.2" points="1,14.313 1,28.829 3.877,28.829 3.877,14.306 22.54,14.313 22.54,28.829 25.411,28.829 
	25.411,14.313 31,5 6.597,5 "/>
<polygon points="2.877,13.339 8.463,4.032 5.597,4.032 0,13.346 0,27.861 2.877,27.861 "/>
<polygon points="24.411,13.346 30,4.032 27.13,4.032 21.54,13.346 21.54,27.861 24.411,27.861 "/>
<g>
	<polygon points="10.09,4 4.5,13.346 19.5,13.346 25.5,4 	"/>
	<polygon fill="none" points="7.903,11 18.903,11 19.501,10 8.501,10 	"/>
	<polygon fill="none" points="9.099,9 20.099,9 20.697,8 9.697,8 	"/>
	<polygon fill="none" points="10.893,6 10.295,7 21.295,7 21.893,6 	"/>
	<polygon fill="#FFFFFF" points="22.492,5 11.492,5 10.893,6 21.893,6 	"/>
	<polygon fill="#FFFFFF" points="9.697,8 20.697,8 21.295,7 10.295,7 	"/>
	<polygon fill="#FFFFFF" points="8.501,10 19.501,10 20.099,9 9.099,9 	"/>
	<polygon fill="#FFFFFF" points="7.305,12 18.305,12 18.903,11 7.903,11 	"/>
</g>
</svg>
