<?xml version="1.0" encoding="utf-8"?>
<!-- Generator: Adobe Illustrator 21.1.0, SVG Export Plug-In . SVG Version: 6.00 Build 0)  -->
<svg version="1.1" id="Layer_1" xmlns="http://www.w3.org/2000/svg" xmlns:xlink="http://www.w3.org/1999/xlink" x="0px" y="0px"
	 width="22px" height="22px" viewBox="0 0 22 22" enable-background="new 0 0 22 22" xml:space="preserve">
<polygon fill="#231F20" points="0,20 2,20 2,10 6,3 4,3 0,10 "/>
<polygon fill="#231F20" points="16,20 18,20 18,10 22,3 20,3 16,10 "/>
<path fill="#231F20" d="M7,3l-4,7h12l4-7H7z M14.4,9H4.7l0.6-1H15L14.4,9z M15.6,7H5.9l0.6-1h9.7L15.6,7z M7,5l0.6-1h9.7l-0.6,1H7z"/>
</svg>
