<?xml version="1.0" encoding="utf-8"?>
<!-- Generator: Adobe Illustrator 18.1.1, SVG Export Plug-In . SVG Version: 6.00 Build 0)  -->
<svg version="1.1" id="Layer_1" xmlns="http://www.w3.org/2000/svg" xmlns:xlink="http://www.w3.org/1999/xlink" x="0px" y="0px"
	 viewBox="0 0 16 16" enable-background="new 0 0 16 16" xml:space="preserve">
<polygon opacity="0.5" points="4.612,4 2,8.346 2,15.121 3.343,15.121 3.343,8.343 12.052,8.346 12.052,15.121 13.392,15.121 
	13.392,8.346 16,4 "/>
<polygon opacity="0.75" points="3.612,3 1,7.346 1,14.121 2.343,14.121 2.343,7.343 11.052,7.346 11.052,14.121 12.392,14.121 
	12.392,7.346 15,3 "/>
<polygon fill="#E6E6E6" points="1.343,6.358 3.95,2.015 2.612,2.015 0,6.361 0,13.136 1.343,13.136 "/>
<polygon fill="#E6E6E6" points="11.392,6.361 14,2.015 12.661,2.015 10.052,6.361 10.052,13.136 11.392,13.136 "/>
<polygon fill="#E6E6E6" points="4.638,2 2.029,6.361 9.577,6.361 12.186,2 "/>
<polygon points="5.04,3 3.843,5 9.391,5 10.588,3 "/>
</svg>
