<?xml version="1.0" encoding="utf-8"?>
<!-- Generator: Adobe Illustrator 18.1.1, SVG Export Plug-In . SVG Version: 6.00 Build 0)  -->
<svg version="1.1" id="Layer_1" xmlns="http://www.w3.org/2000/svg" xmlns:xlink="http://www.w3.org/1999/xlink" x="0px" y="0px"
	 viewBox="0 0 24 24" enable-background="new 0 0 24 24" xml:space="preserve">
<polygon opacity="0.5" points="6.104,5 2,11.83 2,22.475 4.11,22.475 4.11,11.825 17.796,11.83 17.796,22.475 19.901,22.475 
	19.901,11.83 23.999,5 "/>
<polygon opacity="0.75" points="5.104,4 1,10.83 1,21.475 3.11,21.475 3.11,10.825 16.796,10.83 16.796,21.475 18.901,21.475 
	18.901,10.83 22.999,4 "/>
<polygon fill="#E6E6E6" points="2.11,9.848 6.206,3.024 4.104,3.024 0,9.854 0,20.498 2.11,20.498 "/>
<polygon fill="#E6E6E6" points="17.901,9.854 21.999,3.024 19.895,3.024 15.796,9.854 15.796,20.498 17.901,20.498 "/>
<path d="M7.288,3L3.189,9.854h11.518L18.806,3H7.288z M14.154,8.22l-0.2,0.337H5.493l0.2-0.337l0.2-0.337h8.461L14.154,8.22z
	 M14.912,6.957l-0.2,0.337H6.251l0.2-0.337l0.2-0.337h8.461L14.912,6.957z M15.664,5.694l-0.2,0.337H7.003l0.2-0.337l0.2-0.337
	h8.461L15.664,5.694z M16.422,4.431l-0.2,0.337H7.761l0.2-0.337l0.2-0.337h8.461L16.422,4.431z"/>
<polygon fill="#E6E6E6" points="7.288,3 3.189,9.854 15.049,9.854 19.148,3 "/>
<polygon fill="none" points="6.109,8 14.109,8 14.707,7 6.707,7 "/>
<polygon fill="none" points="7.903,5 7.305,6 15.305,6 15.903,5 "/>
<polygon points="16.501,4 8.501,4 7.903,5 15.903,5 "/>
<polygon points="6.707,7 14.707,7 15.305,6 7.305,6 "/>
<polygon points="5.51,9 13.51,9 14.109,8 6.109,8 "/>
</svg>
