<?xml version="1.0" encoding="utf-8"?>
<!-- Generator: Adobe Illustrator 21.1.0, SVG Export Plug-In . SVG Version: 6.00 Build 0)  -->
<svg version="1.1" id="Layer_1" xmlns="http://www.w3.org/2000/svg" xmlns:xlink="http://www.w3.org/1999/xlink" x="0px" y="0px"
	 width="30px" height="30px" viewBox="0 0 30 30" enable-background="new 0 0 30 30" xml:space="preserve">
<polygon fill="#FFFFFF" points="0,28 3,28 3,13 8,4 5,4 0,13 "/>
<polygon fill="#FFFFFF" points="22,28 25,28 25,13 30,4 27,4 22,13 "/>
<path fill="#FFFFFF" d="M10,4l-5,9h15l5-9H10z M19.4,12H6.7l0.6-1H20L19.4,12z M20.5,10H7.8l0.6-1h12.7L20.5,10z M21.6,8H8.9l0.6-1h12.7L21.6,8z
	 M10,6l0.6-1h12.7l-0.6,1H10z"/>
</svg>
