<?xml version="1.0" encoding="utf-8"?>
<!-- Generator: Adobe Illustrator 22.0.1, SVG Export Plug-In . SVG Version: 6.00 Build 0)  -->
<svg version="1.1" id="Layer_1" xmlns="http://www.w3.org/2000/svg" xmlns:xlink="http://www.w3.org/1999/xlink" x="0px" y="0px"
	 width="22px" height="22px" viewBox="0 0 22 22" enable-background="new 0 0 22 22" xml:space="preserve">
<path fill="#FFFFFF" d="M20,3.1l-1.9-2.2c0,0-1.2,0.2-2.2,0S14.1,0,14.1,0H11H7.9C7.9,0,7,0.8,6,0.9s-2.2,0-2.2,0L2,3.1c0,0,0.5,0.5,0.8,0.9
	C3,4.3,3,4.6,3,5h16c0-0.4,0-0.7,0.2-1C19.5,3.6,20,3.1,20,3.1z"/>
<path fill="#FFFFFF" d="M3,8c0,2.3,0,5.7,0,7.2c0,2,0.9,2.9,1.8,3.7c0.9,0.8,4.6,2.3,4.6,2.3L11,22l1.5-0.8c0,0,3.7-1.5,4.6-2.3
	c0.9-0.8,1.8-1.7,1.8-3.7c0-1.4,0-4.9,0-7.2H3z M11,19c-2.8,0-5-2.2-5-5s2.2-5,5-5s5,2.2,5,5S13.8,19,11,19z"/>
<circle fill="#FFFFFF" cx="11" cy="14" r="4"/>
<rect fill="#FFFFFF" x="3" y="6" width="16" height="1"/>
</svg>
