<?xml version="1.0" encoding="utf-8"?>
<!-- Generator: Adobe Illustrator 22.0.1, SVG Export Plug-In . SVG Version: 6.00 Build 0)  -->
<svg version="1.1" id="Layer_1" xmlns="http://www.w3.org/2000/svg" xmlns:xlink="http://www.w3.org/1999/xlink" x="0px" y="0px"
	 width="14px" height="14px" viewBox="0 0 14 14" enable-background="new 0 0 14 14" xml:space="preserve">
<path fill="#FFFFFF" d="M12.7,2l-1.2-1.4c0,0-0.8,0.1-1.4,0C9.6,0.5,9,0,9,0H7H5c0,0-0.6,0.5-1.2,0.6c-0.6,0.1-1.4,0-1.4,0L1.3,2
	c0,0,0.3,0.3,0.5,0.6C1.9,2.7,2,3,2,3h10c0-0.2,0.1-0.3,0.2-0.4C12.4,2.3,12.7,2,12.7,2z"/>
<circle fill="#FFFFFF" cx="7" cy="9" r="2"/>
<path fill="#FFFFFF" d="M2,4v1h0.1c0,1.4,0,3.7,0,4.7c0,1.3,0.4,1.9,1,2.4c0.6,0.5,3,1.5,3,1.5L7,14l1-0.5c0,0,2.4-1,3-1.5c0.6-0.5,1-1.1,1-2.4
	c0-0.9,0-3.2,0-4.7H12V4H2z M7,12c-1.7,0-3-1.3-3-3s1.3-3,3-3s3,1.3,3,3S8.7,12,7,12z"/>
</svg>
