<?xml version="1.0" encoding="utf-8"?>
<!-- Generator: Adobe Illustrator 22.0.1, SVG Export Plug-In . SVG Version: 6.00 Build 0)  -->
<svg version="1.1" id="Layer_1" xmlns="http://www.w3.org/2000/svg" xmlns:xlink="http://www.w3.org/1999/xlink" x="0px" y="0px"
	 width="30px" height="30px" viewBox="0 0 30 30" enable-background="new 0 0 30 30" xml:space="preserve">
<path d="M27.3,4.2l-2.5-3c0,0-1.7,0.2-3,0C20.5,1.1,19.2,0,19.2,0H15h-4.2c0,0-1.3,1.1-2.5,1.3c-1.3,0.2-3,0-3,0l-2.5,3
	c0,0,0.6,0.6,1.1,1.3C3.9,5.7,4,5.8,4.2,6h21.6c0.1-0.2,0.3-0.3,0.4-0.5C26.6,4.9,27.3,4.2,27.3,4.2z"/>
<path d="M5,11c0,3.1,0,7.8,0,9.7c0,2.7,0.3,4,1.5,5.1c1.3,1.1,6.3,3.2,6.3,3.2L15,30l2.1-1.1c0,0,5.1-2.1,6.3-3.2
	c1.3-1.1,1.5-2.3,1.5-5.1c0-1.9,0-6.6,0-9.7H5z M15,26c-3.9,0-7-3.1-7-7c0-3.9,3.1-7,7-7s7,3.1,7,7C22,22.9,18.9,26,15,26z"/>
<circle cx="15" cy="19" r="6"/>
<rect x="5" y="7" width="20" height="3"/>
</svg>
