<?xml version="1.0" encoding="utf-8"?>
<!-- Generator: Adobe Illustrator 22.0.1, SVG Export Plug-In . SVG Version: 6.00 Build 0)  -->
<svg version="1.1" id="Layer_1" xmlns="http://www.w3.org/2000/svg" xmlns:xlink="http://www.w3.org/1999/xlink" x="0px" y="0px"
	 width="22px" height="22px" viewBox="0 0 22 22" style="enable-background:new 0 0 22 22;" xml:space="preserve">
<path fill="#FFFFFF" d="M18.8,13.7c-0.5,0-0.9,0.1-1.3,0.3s-0.8,0.3-1.3,0.3s-0.9-0.1-1.3-0.3c-0.4-0.2-0.9-0.3-1.3-0.3c-0.5,0-0.9,0.1-1.3,0.3
	c-0.4,0.2-0.8,0.3-1.3,0.3s-0.9-0.1-1.3-0.3c-0.4-0.2-0.9-0.3-1.3-0.3c-0.5,0-0.9,0.1-1.3,0.3s-0.8,0.3-1.3,0.3S4.9,14.2,4.5,14
	s-0.8-0.3-1.3-0.3s-1,0.1-1.4,0.3S1,14.3,0.5,14.3v1.9c0.5,0,0.9-0.1,1.3-0.3s0.9-0.3,1.3-0.3s0.9,0.1,1.3,0.3
	c0.3,0.1,0.7,0.2,1.1,0.3l-1.6,1.6c-0.5-0.3-1.2-0.3-1.6,0.2l-1.8,1.8c-0.5,0.5-0.5,1.3,0,1.9c0.5,0.5,1.3,0.5,1.9,0l1.8-1.8
	c0.4-0.4,0.5-1,0.2-1.5L6.6,16c0.1,0,0.3,0,0.4-0.1c0.4-0.2,0.9-0.3,1.3-0.3c0.5,0,0.9,0.1,1.3,0.3c0.4,0.2,0.8,0.3,1.3,0.3
	s0.9-0.1,1.3-0.3c0.4-0.2,0.9-0.3,1.3-0.3c0.5,0,0.9,0.1,1.3,0.3c0.4,0.2,0.8,0.3,1.3,0.3c0.5,0,0.9-0.1,1.3-0.3s0.9-0.3,1.3-0.3
	c0.5,0,0.9,0.1,1.3,0.3s0.8,0.3,1.3,0.3v-1.9c-0.5,0-0.9-0.1-1.3-0.3C19.7,13.8,19.3,13.7,18.8,13.7z"/>
<path fill="#FFFFFF" d="M19.7,4.2l1.8-1.8c0.5-0.5,0.5-1.3,0-1.9C21,0,20.2,0,19.7,0.5l-1.8,1.8c-0.4,0.4-0.5,1.1-0.2,1.6l-2.3,2.3l-4.5-1.7
	c-0.1-0.1-0.2-0.1-0.4-0.2c-1-0.3-2,0.3-2.3,1.3l-1.4,4.7c0,0.1,0,0.1,0,0.1H0.5V13c0.3,0,0.7-0.1,1-0.2c0.5-0.2,1.1-0.4,1.6-0.4
	s1.1,0.1,1.6,0.4C5,12.9,5.4,13,5.7,13s0.7-0.1,1-0.2c0.5-0.2,1.1-0.4,1.6-0.4c0.6,0,1.1,0.1,1.6,0.4c0.3,0.1,0.7,0.2,1,0.2
	s0.7-0.1,1-0.2c0.5-0.2,1.1-0.4,1.6-0.4c0.6,0,1.1,0.1,1.6,0.4c0.3,0.1,0.7,0.2,1,0.2c0.3,0,0.7-0.1,1-0.2c0.5-0.2,1.1-0.4,1.6-0.4
	c0.1,0,0.5,0,0.9-0.2c0.7-0.3,0.9-0.5,1.5-0.8c0.5-0.3,0.9-0.9-0.2-0.9c-0.3,0-8.9,0-8.9,0l2.6-2.6L15.1,8c0.4,0.2,0.9-0.1,1.1-0.5
	c0.1-0.3,0-0.7-0.2-0.9l2.2-2.2C18.7,4.7,19.3,4.6,19.7,4.2z M11.2,10.5h-0.6l1.1-3.7L14,7.6L11.2,10.5z"/>
<path fill="#FFFFFF" d="M11.1,2.1l-0.2,0.5c-0.2,0.3-0.5,0.5-0.8,0.5H9.5c0.3,0.5,0.9,0.8,1.5,0.8c1,0,1.8-0.8,1.8-1.8l0,0H11.1
	C11.2,2.1,11.2,2.1,11.1,2.1z"/>
<path fill="#FFFFFF" d="M10.1,2.7c0.2,0,0.4-0.1,0.4-0.3L10.7,2c0.1-0.2,0.3-0.3,0.5-0.3H13c-0.2-1-1-1.7-2.1-1.7C9.7,0,8.8,1,8.8,2.2
	c0,0.2,0,0.4,0.1,0.6h1.2V2.7z"/>
</svg>
