<?xml version="1.0" encoding="utf-8"?>
<!-- Generator: Adobe Illustrator 22.0.1, SVG Export Plug-In . SVG Version: 6.00 Build 0)  -->
<svg version="1.1" id="Layer_1" xmlns="http://www.w3.org/2000/svg" xmlns:xlink="http://www.w3.org/1999/xlink" x="0px" y="0px"
	 width="14px" height="14px" viewBox="0 0 14 14" style="enable-background:new 0 0 14 14;" xml:space="preserve">
<path d="M12,8.7c-0.3,0-0.6,0.1-0.8,0.2c-0.3,0.1-0.5,0.2-0.8,0.2C10,9.1,9.7,9,9.5,8.9C9.2,8.8,8.9,8.7,8.6,8.7
	C8.3,8.7,8,8.8,7.8,8.9C7.5,9,7.3,9.1,7,9.1S6.4,9,6.2,8.9C5.9,8.8,5.6,8.7,5.3,8.7C5,8.7,4.7,8.8,4.5,8.9C4.2,9,3.9,9.1,3.6,9.1
	C3.4,9.1,3.1,9,2.8,8.9C2.6,8.8,2.3,8.7,2,8.7S1.4,8.8,1.1,8.9C0.9,9,0.6,9.1,0.3,9.1v1.2c0.3,0,0.6-0.1,0.8-0.2
	C1.4,10,1.7,9.9,2,9.9s0.6,0.1,0.8,0.2c0.2,0.1,0.4,0.1,0.7,0.2l-1,1c-0.3-0.2-0.8-0.2-1,0.1l-1.2,1.2c-0.3,0.3-0.3,0.9,0,1.2
	s0.9,0.3,1.2,0l1.2-1.2c0.3-0.3,0.3-0.7,0.1-1l1.4-1.4c0.1,0,0.2-0.1,0.3-0.1C4.7,10,5,9.9,5.3,9.9s0.6,0.1,0.8,0.2
	c0.2,0.1,0.5,0.2,0.8,0.2s0.6-0.1,0.8-0.2C8.1,10,8.3,9.9,8.6,9.9s0.6,0.1,0.8,0.2c0.3,0.1,0.5,0.2,0.8,0.2s0.6-0.1,0.8-0.2
	c0.3-0.1,0.5-0.2,0.8-0.2s0.6,0.1,0.8,0.2c0.2,0.1,0.5,0.2,0.8,0.2V9.1c-0.3,0-0.6-0.1-0.8-0.2C12.6,8.8,12.3,8.7,12,8.7z"/>
<path d="M12.5,2.7l1.2-1.2c0.3-0.3,0.3-0.9,0-1.2s-0.9-0.3-1.2,0l-1.2,1.2c-0.3,0.3-0.3,0.7-0.1,1L9.8,4L6.9,2.9
	c-0.1,0-0.2-0.1-0.2-0.1C6,2.6,5.4,3,5.2,3.6l-0.9,3v0.1h-4v1.6c0.2,0,0.4,0,0.6-0.1C1.3,8,1.6,7.9,2,7.9S2.7,8,3,8.1
	c0.2,0.1,0.4,0.1,0.6,0.1c0.2,0,0.4,0,0.6-0.1C4.6,8,5,7.9,5.3,7.9c0.4,0,0.7,0.1,1,0.2C6.5,8.2,6.8,8.3,7,8.3s0.4,0,0.6-0.1
	C7.9,8.1,8.3,8,8.6,8c0.4,0,0.7,0.1,1,0.2c0.2,0.1,0.4,0.1,0.6,0.1c0.2,0,0.4,0,0.6-0.1c0.3-0.1,0.7-0.2,1-0.2c0.1,0,0.3,0,0.5-0.1
	c0.4-0.2,0.6-0.3,1-0.5c0.3-0.2,0.6-0.6-0.1-0.6c-0.2,0-5.7,0-5.7,0L9.4,5l0.2,0.1c0.3,0.1,0.6,0,0.7-0.3c0.1-0.2,0-0.4-0.1-0.6
	l1.4-1.4C11.9,3,12.3,3,12.5,2.7z M7.1,6.7H6.7L7,4l1.9,0.9L7.1,6.7z"/>
<path d="M7.1,1.4L6.9,1.7C6.8,1.9,6.6,2,6.4,2H6c0.2,0.3,0.6,0.5,1,0.5c0.6,0,1.1-0.5,1.1-1.1V1.3L7.1,1.4C7.1,1.3,7.1,1.3,7.1,1.4z
	"/>
<path d="M6.4,1.7c0.1,0,0.2-0.1,0.3-0.2l0.1-0.3C6.9,1.1,7,1,7.1,1h1.2C8.2,0.4,7.6,0,7,0C6.2,0,5.6,0.6,5.6,1.4c0,0.1,0,0.2,0,0.4
	L6.4,1.7L6.4,1.7z"/>
</svg>
