<?xml version="1.0" encoding="utf-8"?>
<!-- Generator: Adobe Illustrator 22.0.1, SVG Export Plug-In . SVG Version: 6.00 Build 0)  -->
<svg version="1.1" id="Layer_1" xmlns="http://www.w3.org/2000/svg" xmlns:xlink="http://www.w3.org/1999/xlink" x="0px" y="0px"
	 width="30px" height="30px" viewBox="0 0 30 30" style="enable-background:new 0 0 30 30;" xml:space="preserve">
<path fill="#FFFFFF" d="M25.7,18.6c-0.6,0-1.3,0.1-1.8,0.4c-0.5,0.2-1.1,0.4-1.8,0.4c-0.6,0-1.2-0.1-1.8-0.4c-0.5-0.3-1.2-0.4-1.8-0.4
	c-0.6,0-1.3,0.1-1.8,0.4c-0.5,0.2-1.1,0.4-1.8,0.4c-0.6,0-1.2-0.1-1.8-0.4c-0.5-0.3-1.2-0.4-1.8-0.4S10,18.7,9.5,19
	c-0.5,0.2-1.1,0.4-1.8,0.4c-0.6,0-1.2-0.1-1.8-0.4c-0.5-0.3-1.2-0.4-1.8-0.4S3,18.8,2.4,19c-0.5,0.2-1.1,0.4-1.8,0.4V22
	c0.6,0,1.2-0.1,1.8-0.4c0.5-0.3,1.2-0.4,1.8-0.4s1.3,0.1,1.8,0.4S7,22,7.5,22l-2.2,2.2c-0.7-0.4-1.6-0.4-2.2,0.2L0.6,27
	c-0.7,0.7-0.7,1.8,0,2.5s1.8,0.7,2.5,0L5.7,27c0.6-0.6,0.7-1.4,0.3-2.1l3-3c0.2-0.1,0.4-0.1,0.6-0.2c0.5-0.3,1.2-0.4,1.8-0.4
	s1.3,0.1,1.8,0.4c0.5,0.2,1.1,0.4,1.8,0.4c0.6,0,1.2-0.1,1.8-0.4s1.2-0.4,1.8-0.4c0.6,0,1.3,0.1,1.8,0.4c0.5,0.2,1.1,0.4,1.8,0.4
	c0.6,0,1.2-0.1,1.8-0.4c0.5-0.3,1.2-0.4,1.8-0.4c0.6,0,1.3,0.1,1.8,0.4c0.5,0.2,1.1,0.4,1.8,0.4v-2.6c-0.6,0-1.2-0.1-1.8-0.4
	C26.9,18.8,26.3,18.6,25.7,18.6z"/>
<path fill="#FFFFFF" d="M26.9,5.8l2.5-2.5c0.7-0.7,0.7-1.8,0-2.5s-1.8-0.7-2.5,0l-2.5,2.5c-0.6,0.6-0.7,1.5-0.2,2.2L21,8.6l-6.2-2.3
	c-0.2-0.1-0.3-0.2-0.5-0.2c-1.3-0.4-2.8,0.4-3.2,1.7l-1.9,6.4c0,0.1,0,0.1,0,0.2H0.7v3.4c0.5,0,0.9-0.1,1.4-0.3
	C2.7,17.1,3.5,17,4.3,17s1.5,0.2,2.2,0.5c0.4,0.2,0.9,0.3,1.4,0.3s0.9-0.1,1.4-0.3c0.7-0.3,1.5-0.5,2.2-0.5c0.8,0,1.5,0.2,2.2,0.5
	c0.4,0.2,0.9,0.3,1.4,0.3s0.9-0.1,1.4-0.3c0.7-0.3,1.5-0.5,2.2-0.5c0.8,0,1.5,0.2,2.2,0.5c0.4,0.2,0.9,0.3,1.4,0.3s0.9-0.1,1.4-0.3
	c0.7-0.3,1.5-0.5,2.2-0.5c0.1,0,0.6,0,1.2-0.3c0.9-0.4,1.2-0.6,2-1.1c0.7-0.4,1.2-1.3-0.2-1.2c-0.4,0-12.1,0-12.1,0l3.6-3.6l0.5,0.2
	c0.6,0.2,1.3-0.1,1.5-0.7c0.2-0.4,0-0.9-0.3-1.2L25,6.2C25.4,6.4,26.3,6.3,26.9,5.8z M15.2,14.3h-0.8L16,9.2l3.2,1.2L15.2,14.3z"/>
<path fill="#FFFFFF" d="M15.2,2.9l-0.3,0.7c-0.2,0.4-0.7,0.7-1.2,0.7h-0.8c0.4,0.6,1.2,1,2,1c1.3,0,2.4-1.1,2.4-2.4V2.8h-2
	C15.3,2.8,15.2,2.9,15.2,2.9z"/>
<path fill="#FFFFFF" d="M13.7,3.7c0.3,0,0.5-0.2,0.6-0.4l0.3-0.7c0.1-0.3,0.4-0.4,0.7-0.4h2.5C17.5,0.9,16.3,0,14.9,0c-1.6,0-3,1.3-3,3
	c0,0.3,0,0.5,0.1,0.8L13.7,3.7L13.7,3.7z"/>
</svg>
