<?xml version="1.0" encoding="utf-8"?>
<!-- Generator: Adobe Illustrator 22.0.1, SVG Export Plug-In . SVG Version: 6.00 Build 0)  -->
<svg version="1.1" id="Layer_1" xmlns="http://www.w3.org/2000/svg" xmlns:xlink="http://www.w3.org/1999/xlink" x="0px" y="0px"
	 width="22px" height="22px" viewBox="0 0 22 22" enable-background="new 0 0 22 22" xml:space="preserve">
<polygon fill="#FFFFFF" points="2.2,21.6 22,21.6 22,19.5 4.3,19.5 4.3,10.6 22,2.6 22,0.4 0,10.4 0,12.5 2.2,11.5 "/>
<path fill="#FFFFFF" d="M12.3,14.6h3.1v2.8c0,0.5,0.4,0.8,0.8,0.8l0,0c0.5,0,0.8-0.4,0.8-0.8v-2.8c0.2,0,0.3-0.2,0.3-0.3v-2.1l-2.6-1.3H9.2
	l-0.7-0.4c-0.2-0.1-0.5,0-0.6,0.2l0,0c-0.1,0.2,0,0.5,0.2,0.7l1.1,0.6v5.4c0,0.5,0.4,0.8,0.8,0.8l0,0c0.5,0,0.8-0.4,0.8-0.8v-2.1
	l1.5,2.5c0.2,0.4,0.7,0.5,1.1,0.3l0,0c0.4-0.2,0.5-0.7,0.3-1.1L12.3,14.6z"/>
<polygon fill="#FFFFFF" points="15,10.3 17.4,11.4 17.4,11 19.3,11 20,9.5 15,7.1 "/>
</svg>
