<?xml version="1.0" encoding="utf-8"?>
<!-- Generator: Adobe Illustrator 22.0.1, SVG Export Plug-In . SVG Version: 6.00 Build 0)  -->
<svg version="1.1" id="Layer_1" xmlns="http://www.w3.org/2000/svg" xmlns:xlink="http://www.w3.org/1999/xlink" x="0px" y="0px"
	 width="14px" height="14px" viewBox="0 0 14 14" enable-background="new 0 0 14 14" xml:space="preserve">
<polygon fill="#FFFFFF" points="1.4,14 14,14 14,13 3,13 3,6.6 14,1.6 14,0.3 0,6.6 0,8 1.4,7.3 "/>
<path fill="#FFFFFF" d="M7.9,9.3h2V11c0,0.3,0.2,0.5,0.5,0.5l0,0c0.3,0,0.5-0.2,0.5-0.5V9.3c0.2,0,0.2-0.1,0.2-0.2V7.7L9.4,6.9H5.9L5.4,6.7
	C5.3,6.6,5.1,6.6,5,6.8l0,0C4.9,6.9,5,7.1,5.1,7.2l0.7,0.4V11c0,0.3,0.2,0.5,0.5,0.5l0,0c0.3,0,0.5-0.2,0.5-0.5V9.7l0.9,1.6
	c0.2,0.2,0.5,0.3,0.7,0.2l0,0c0.2-0.2,0.3-0.5,0.2-0.7L7.9,9.3z"/>
<polygon fill="#FFFFFF" points="9.6,6.5 11.1,7.3 11.1,7 12.3,7 12.7,6 9.6,4.5 "/>
</svg>
