<?xml version="1.0" encoding="utf-8"?>
<!-- Generator: Adobe Illustrator 22.0.1, SVG Export Plug-In . SVG Version: 6.00 Build 0)  -->
<svg version="1.1" id="Layer_1" xmlns="http://www.w3.org/2000/svg" xmlns:xlink="http://www.w3.org/1999/xlink" x="0px" y="0px"
	 width="30px" height="30px" viewBox="0 0 30 30" enable-background="new 0 0 30 30" xml:space="preserve">
<polygon points="3,29.4 30,29.4 30,26.6 5.8,26.6 5.8,14.4 30,3.5 30,0.6 0,14.2 0,17.1 3,15.7 "/>
<path d="M16.8,19.8h4.2v3.8c0,0.6,0.5,1.1,1.1,1.1l0,0c0.6,0,1.1-0.5,1.1-1.1v-3.8c0.3,0,0.4-0.2,0.4-0.5v-2.8l-3.6-1.7h-7.5l-1-0.6
	c-0.3-0.2-0.7-0.1-0.9,0.2l0,0c-0.2,0.3-0.1,0.7,0.2,0.9l1.5,0.9v7.4c0,0.6,0.5,1.1,1.1,1.1l0,0c0.6,0,1.1-0.5,1.1-1.1v-2.9l2,3.4
	c0.3,0.5,1,0.7,1.5,0.4l0,0c0.5-0.3,0.7-1,0.4-1.5L16.8,19.8z"/>
<polygon points="20.5,14 23.7,15.6 23.7,15 26.3,15 27.3,12.9 20.5,9.7 "/>
</svg>
