<?xml version="1.0" encoding="utf-8"?>
<!-- Generator: Adobe Illustrator 22.0.1, SVG Export Plug-In . SVG Version: 6.00 Build 0)  -->
<svg version="1.1" id="Layer_1" xmlns="http://www.w3.org/2000/svg" xmlns:xlink="http://www.w3.org/1999/xlink" x="0px" y="0px"
	 width="22px" height="22px" viewBox="0 0 22 22" enable-background="new 0 0 22 22" xml:space="preserve">
<g>
	<path d="M0,3.5h1.3v4.8h2.9v1.1H0V3.5z"/>
	<path d="M4.8,6.4c0.1-1.1,1-1.4,2-1.4c0.8,0,1.9,0.2,1.9,1.2v2.2c0,0.4,0,0.8,0.1,0.9H7.6c0-0.1-0.1-0.3-0.1-0.4
		C7.1,9.3,6.6,9.4,6.1,9.4C5.3,9.4,4.6,9,4.6,8.2c0-1,0.7-1.2,1.4-1.3c0.7-0.1,1.4-0.1,1.4-0.6c0-0.5-0.3-0.6-0.8-0.6
		C6.3,5.7,6,5.9,5.9,6.4H4.8z M7.5,7.2c-0.2,0.2-0.6,0.2-1,0.2C6.1,7.6,5.8,7.7,5.8,8.1c0,0.4,0.3,0.5,0.7,0.5c0.9,0,0.9-0.7,0.9-1
		V7.2z"/>
	<path d="M9.6,5.1h1.1v0.8h0C10.9,5.3,11.5,5,12.1,5c0.1,0,0.2,0,0.3,0v1.1c-0.1,0-0.3,0-0.4,0c-0.9,0-1.1,0.6-1.1,1.4v1.9H9.6V5.1z
		"/>
	<path d="M17,9c0,0.7-0.2,1.9-2.2,1.9c-0.8,0-1.8-0.4-1.9-1.4H14c0.1,0.4,0.5,0.6,0.9,0.6c0.6,0,0.9-0.4,0.9-1V8.5h0
		c-0.3,0.4-0.8,0.7-1.3,0.7c-1.3,0-1.8-1-1.8-2.1C12.8,6,13.4,5,14.6,5c0.6,0,1,0.2,1.3,0.7h0V5.1H17V9z M15.9,7.1
		c0-0.7-0.2-1.3-1-1.3c-0.7,0-0.9,0.6-0.9,1.2c0,0.6,0.2,1.3,0.9,1.3C15.5,8.3,15.9,7.7,15.9,7.1z"/>
	<path d="M18.9,7.5c0,0.7,0.4,1.1,1,1.1c0.5,0,0.8-0.3,0.9-0.5h1c-0.3,1-1,1.4-2,1.4c-1.3,0-2.2-0.9-2.2-2.2c0-1.3,0.9-2.2,2.2-2.2
		c1.4,0,2.1,1.2,2.1,2.5H18.9z M20.8,6.7c-0.1-0.6-0.4-0.9-0.9-0.9c-0.7,0-0.9,0.6-1,0.9H20.8z"/>
	<path d="M2,12.6h2.6c1.5,0,2,0.9,2,1.9c0,1-0.6,1.9-2,1.9H3.3v2.1H2V12.6z M3.3,15.4h1c0.6,0,1.1-0.1,1.1-0.9s-0.5-0.9-1.1-0.9h-1
		V15.4z"/>
	<path d="M7.4,14.3h1.1V15h0c0.2-0.5,0.8-0.9,1.4-0.9c0.1,0,0.2,0,0.3,0v1.1c-0.1,0-0.3,0-0.4,0c-0.9,0-1.1,0.6-1.1,1.4v1.9H7.4
		V14.3z"/>
	<path d="M11.9,13.6h-1.2v-1h1.2V13.6z M10.7,14.3h1.2v4.2h-1.2V14.3z"/>
	<path d="M12.9,14.3H14v0.6h0c0.3-0.5,0.8-0.7,1.3-0.7c1.2,0,1.5,0.7,1.5,1.7v2.6h-1.2v-2.4c0-0.7-0.2-1-0.7-1
		c-0.6,0-0.9,0.4-0.9,1.2v2.2h-1.2V14.3z"/>
	<path d="M19.3,14.3h0.9V15h-0.9v2.1c0,0.4,0.1,0.5,0.5,0.5c0.1,0,0.2,0,0.4,0v0.9c-0.2,0-0.5,0-0.7,0c-0.7,0-1.3-0.2-1.3-1V15h-0.7
		v-0.8h0.7V13h1.2V14.3z"/>
</g>
</svg>
