<?xml version="1.0" encoding="utf-8"?>
<!-- Generator: Adobe Illustrator 22.0.1, SVG Export Plug-In . SVG Version: 6.00 Build 0)  -->
<svg version="1.1" id="Layer_1" xmlns="http://www.w3.org/2000/svg" xmlns:xlink="http://www.w3.org/1999/xlink" x="0px" y="0px"
	 width="30px" height="30px" viewBox="0 0 30 30" enable-background="new 0 0 30 30" xml:space="preserve">
<g>
	<path fill="#FFFFFF" d="M0,4.7h1.8v6.5h3.9v1.5H0V4.7z"/>
	<path fill="#FFFFFF" d="M6.5,8.7c0.1-1.5,1.4-1.9,2.7-1.9c1.2,0,2.5,0.3,2.5,1.6v3c0,0.5,0.1,1.1,0.2,1.3h-1.6c-0.1-0.2-0.1-0.4-0.1-0.6
		c-0.5,0.5-1.2,0.7-1.9,0.7c-1.1,0-2-0.5-2-1.7c0-1.3,1-1.6,2-1.8c1-0.1,1.9-0.1,1.9-0.8c0-0.7-0.5-0.8-1-0.8c-0.6,0-1,0.2-1,0.9
		H6.5z M10.2,9.9c-0.3,0.2-0.8,0.2-1.3,0.3c-0.5,0.1-0.9,0.3-0.9,0.9c0,0.6,0.5,0.7,1,0.7c1.2,0,1.3-1,1.3-1.3V9.9z"/>
	<path fill="#FFFFFF" d="M13.1,6.9h1.5V8h0c0.3-0.7,1.1-1.2,1.8-1.2c0.1,0,0.2,0,0.3,0.1v1.5c-0.1,0-0.4-0.1-0.6-0.1c-1.2,0-1.6,0.8-1.6,1.9v2.6
		h-1.6V6.9z"/>
	<path fill="#FFFFFF" d="M23.1,12.3c0,1-0.3,2.6-3,2.6c-1.1,0-2.5-0.5-2.6-1.9h1.6c0.1,0.6,0.6,0.8,1.2,0.8c0.9,0,1.3-0.6,1.3-1.4v-0.8h0
		c-0.3,0.6-1,0.9-1.7,0.9c-1.7,0-2.5-1.3-2.5-2.9c0-1.5,0.9-2.9,2.5-2.9c0.8,0,1.3,0.3,1.7,0.9h0V6.9h1.5V12.3z M21.6,9.7
		c0-0.9-0.3-1.8-1.4-1.8C19.4,8,19,8.7,19,9.6c0,0.8,0.3,1.7,1.3,1.7C21.2,11.3,21.6,10.6,21.6,9.7z"/>
	<path fill="#FFFFFF" d="M25.8,10.2c0,1,0.5,1.5,1.4,1.5c0.6,0,1.2-0.4,1.3-0.7h1.4c-0.4,1.4-1.4,1.9-2.7,1.9c-1.8,0-3-1.3-3-3c0-1.7,1.2-3.1,3-3.1
		c2,0,2.9,1.7,2.8,3.4H25.8z M28.4,9.2C28.3,8.4,27.9,8,27.1,8c-1,0-1.3,0.8-1.3,1.2H28.4z"/>
	<path fill="#FFFFFF" d="M2.7,17.2h3.6c2,0,2.8,1.3,2.8,2.6c0,1.3-0.8,2.6-2.8,2.6H4.5v2.9H2.7V17.2z M4.5,21h1.4c0.8,0,1.5-0.2,1.5-1.2
		c0-1-0.7-1.2-1.5-1.2H4.5V21z"/>
	<path fill="#FFFFFF" d="M10.1,19.4h1.5v1.1h0c0.3-0.7,1.1-1.2,1.8-1.2c0.1,0,0.2,0,0.3,0.1v1.5c-0.1,0-0.4-0.1-0.6-0.1c-1.2,0-1.6,0.8-1.6,1.9v2.6
		h-1.6V19.4z"/>
	<path fill="#FFFFFF" d="M16.2,18.5h-1.6v-1.3h1.6V18.5z M14.6,19.4h1.6v5.8h-1.6V19.4z"/>
	<path fill="#FFFFFF" d="M17.6,19.4h1.5v0.8h0c0.4-0.7,1.1-1,1.8-1c1.7,0,2.1,1,2.1,2.4v3.6h-1.6V22c0-1-0.3-1.4-1-1.4c-0.9,0-1.2,0.5-1.2,1.7v3
		h-1.6V19.4z"/>
	<path fill="#FFFFFF" d="M26.3,19.4h1.2v1.1h-1.2v2.9c0,0.5,0.1,0.7,0.7,0.7c0.2,0,0.3,0,0.5,0v1.2c-0.3,0-0.6,0.1-0.9,0.1c-1,0-1.8-0.2-1.8-1.4
		v-3.4h-1v-1.1h1v-1.7h1.6V19.4z"/>
</g>
</svg>
