<?xml version="1.0" encoding="utf-8"?>
<!-- Generator: Adobe Illustrator 20.0.0, SVG Export Plug-In . SVG Version: 6.00 Build 0)  -->
<svg version="1.1" id="Layer_1" xmlns="http://www.w3.org/2000/svg" xmlns:xlink="http://www.w3.org/1999/xlink" x="0px" y="0px"
	 width="30px" height="30px" viewBox="0 0 30 30" enable-background="new 0 0 30 30" xml:space="preserve">
<path fill="#231F20" d="M4,6v24h22V6H4z M15,24c-3.9,0-7-3.1-7-7s3.1-7,7-7s7,3.1,7,7S18.9,24,15,24z"/>
<path fill="#231F20" d="M10,15c-0.5-0.5-0.4,1.3-0.4,2c0,3,2.4,5.4,5.4,5.4s5.4-2.4,5.4-5.4c0-0.7,0.1-1.5-0.4-2C15.7,10.8,14.4,19.4,10,15z"/>
<path fill="#231F20" d="M4,0v4h22V0H4z M8,3H6V1h2V3z M12,3h-2V1h2V3z"/>
</svg>
