<?xml version="1.0" encoding="utf-8"?>
<!-- Generator: Adobe Illustrator 20.0.0, SVG Export Plug-In . SVG Version: 6.00 Build 0)  -->
<svg version="1.1" id="Layer_1" xmlns="http://www.w3.org/2000/svg" xmlns:xlink="http://www.w3.org/1999/xlink" x="0px" y="0px"
	 width="22px" height="22px" viewBox="0 0 22 22" enable-background="new 0 0 22 22" xml:space="preserve">
<path fill="#231F20" d="M3,0v4h16V0H3z M6,3H4V1h2V3z M10,3H8V1h2V3z"/>
<path fill="#231F20" d="M3,5v17h16V5H3z M11,19c-3.3,0-6-2.7-6-6s2.7-6,6-6s6,2.7,6,6S14.3,19,11,19z"/>
<path fill="#231F20" d="M6.5,11c-0.6-0.4-0.4,1.3-0.4,2c0,2.7,2.2,4.9,4.9,4.9s4.9-2.2,4.9-4.9c0-0.7,0.1-1.6-0.4-2C10.2,6.7,11.9,14.7,6.5,11z"/>
</svg>
