<?xml version="1.0" encoding="utf-8"?>
<!-- Generator: Adobe Illustrator 21.1.0, SVG Export Plug-In . SVG Version: 6.00 Build 0)  -->
<svg version="1.1" id="Layer_1" xmlns="http://www.w3.org/2000/svg" xmlns:xlink="http://www.w3.org/1999/xlink" x="0px" y="0px"
	 width="14px" height="14px" viewBox="0 0 14 14" enable-background="new 0 0 14 14" xml:space="preserve">
<path fill="#FFFFFF" d="M2,0v3h10V0H2z M4,2H3V1h1V2z M6,2H5V1h1V2z"/>
<path fill="#FFFFFF" d="M2,4v10h10V4H2z M7,12c-1.7,0-3-1.3-3-3s1.3-3,3-3s3,1.3,3,3S8.7,12,7,12z"/>
<path fill="#FFFFFF" d="M8,7.3c-0.7,0-0.7,0.5-1.1,0.9C6.3,8.6,5.7,8.5,5.3,8C5.1,8.3,5,8.6,5,9c0,1.1,0.9,2,2,2s2-0.9,2-2C9,7.8,8,7.3,8,7.3z"/>
</svg>
