<?xml version="1.0" encoding="utf-8"?>
<!-- Generator: Adobe Illustrator 20.0.0, SVG Export Plug-In . SVG Version: 6.00 Build 0)  -->
<svg version="1.1" id="Layer_1" xmlns="http://www.w3.org/2000/svg" xmlns:xlink="http://www.w3.org/1999/xlink" x="0px" y="0px"
	 width="22px" height="22px" viewBox="0 0 22 22" enable-background="new 0 0 22 22" xml:space="preserve">
<circle fill="#FFFFFF" cx="11.3" cy="3.5" r="3.5"/>
<path fill="#FFFFFF" d="M14.4,7.9c1.6,0.1,2.2,1.3,2.2,1.3l5,6.9c0.2,0.3,0.3,0.7,0.3,1.1c0,1.1-0.9,2-2,2c-0.3,0-0.5-0.1-0.7-0.1
	L16,18v3H6v-3l-3.3,1c-0.2,0.1-0.5,0.1-0.7,0.1c-1.1,0-1.9-0.9-1.9-2c0-0.4,0.1-0.8,0.3-1.1l5-6.9c0,0,0.7-1.3,2.2-1.3
	C7.6,7.9,14.4,7.9,14.4,7.9z M11,19L11,19l3.9-1.3l-0.1,0c-2.7-0.8-1.7-4.4,1.1-3.6L16,14v-4l-5,1.9L6,10v4l0.1,0.1
	c2.7-0.8,3.8,2.8,1.1,3.6l-0.1,0L11,19L11,19z"/>
</svg>
