<?xml version="1.0" encoding="utf-8"?>
<!-- Generator: Adobe Illustrator 18.1.1, SVG Export Plug-In . SVG Version: 6.00 Build 0)  -->
<svg version="1.1" id="Layer_1" xmlns="http://www.w3.org/2000/svg" xmlns:xlink="http://www.w3.org/1999/xlink" x="0px" y="0px"
	 viewBox="0 0 24 24" enable-background="new 0 0 24 24" xml:space="preserve">
<circle opacity="0.1" fill="#231F20" cx="12.825" cy="4.999" r="3.499"/>
<circle opacity="0.2" fill="#231F20" cx="12.076" cy="4.249" r="3.499"/>
<path opacity="0.1" fill="#231F20" d="M23.66,17.77L20.911,14H4.592l-2.746,3.77C1.623,18.087,1.5,18.468,1.5,18.884
	c0,1.101,0.89,1.995,1.992,1.995c0.265,0,0.513-0.057,0.733-0.145l3.115-0.866v3.109h10.816v-3.109l3.115,0.866
	c0.227,0.088,0.469,0.145,0.733,0.145c1.101,0,1.995-0.894,1.995-1.995C24,18.468,23.874,18.087,23.66,17.77z"/>
<path opacity="0.2" fill="#231F20" d="M22.91,17.019l-2.749-3.77H3.842l-2.746,3.77c-0.223,0.318-0.346,0.699-0.346,1.114
	c0,1.101,0.89,1.995,1.992,1.995c0.265,0,0.513-0.057,0.733-0.145l3.115-0.866v3.109h10.816v-3.109l3.115,0.866
	c0.227,0.088,0.469,0.145,0.733,0.145c1.101,0,1.995-0.894,1.995-1.995C23.25,17.718,23.124,17.337,22.91,17.019z"/>
<circle fill="#231F20" cx="11.326" cy="3.499" r="3.499"/>
<rect x="5.841" y="10.246" fill="#FFFFFF" width="10.816" height="11.231"/>
<path fill="#231F20" d="M14.724,7.852c1.599,0.056,2.272,1.337,2.272,1.337l5.164,7.08c0.214,0.318,0.34,0.699,0.34,1.114
	c0,1.101-0.894,1.995-1.995,1.995c-0.265,0-0.507-0.057-0.733-0.145l-3.115-0.866v3.109H5.841v-3.109l-3.115,0.866
	c-0.22,0.088-0.469,0.145-0.733,0.145C0.89,19.378,0,18.485,0,17.383c0-0.415,0.123-0.796,0.346-1.114l5.158-7.08
	c0,0,0.676-1.281,2.269-1.337H14.724z M11.25,19.303L11.25,19.303l4.034-1.338l-0.088-0.019c-2.785-0.818-1.706-4.5,1.08-3.679
	l0.381,0.132v-4.154l-5.406,1.766l-5.41-1.766V14.4l0.381-0.132c2.785-0.821,3.871,2.86,1.083,3.679l-0.091,0.019L11.25,19.303
	L11.25,19.303z"/>
</svg>
