<?xml version="1.0" encoding="utf-8"?>
<!-- Generator: Adobe Illustrator 18.1.1, SVG Export Plug-In . SVG Version: 6.00 Build 0)  -->
<svg version="1.1" id="Layer_1" xmlns="http://www.w3.org/2000/svg" xmlns:xlink="http://www.w3.org/1999/xlink" x="0px" y="0px"
	 viewBox="0 0 32 32" enable-background="new 0 0 32 32" xml:space="preserve">
<path opacity="0.5" fill="#231F20" d="M17.1,11.332c2.576,0,4.662-2.094,4.662-4.67C21.762,4.086,19.677,2,17.1,2
	s-4.661,2.086-4.661,4.662C12.439,9.238,14.524,11.332,17.1,11.332z"/>
<path opacity="0.75" fill="#231F20" d="M16.101,10.332c2.576,0,4.662-2.094,4.662-4.67C20.762,3.086,18.677,1,16.101,1
	s-4.661,2.086-4.661,4.662C11.439,8.238,13.524,10.332,16.101,10.332z"/>
<path opacity="0.5" fill="#231F20" d="M31.547,23.693l-3.666-5.026H6.123l-3.661,5.026C2.164,24.117,2,24.624,2,25.178
	c0,1.469,1.187,2.66,2.656,2.66c0.353,0,0.684-0.076,0.978-0.193l4.154-1.154v4.146h14.421v-4.146l4.154,1.154
	c0.302,0.117,0.625,0.193,0.978,0.193c1.469,0,2.66-1.191,2.66-2.66C32,24.624,31.832,24.117,31.547,23.693z"/>
<path opacity="0.75" fill="#231F20" d="M30.547,22.693l-3.666-5.026H5.123l-3.661,5.026C1.164,23.116,1,23.624,1,24.178
	c0,1.469,1.187,2.66,2.656,2.66c0.353,0,0.684-0.076,0.978-0.193l4.154-1.154v4.146h14.421v-4.146l4.154,1.154
	c0.302,0.117,0.625,0.193,0.978,0.193c1.469,0,2.66-1.191,2.66-2.66C31,23.624,30.832,23.116,30.547,22.693z"/>
<path fill="#FFFFFF" d="M15.101,9.332c2.576,0,4.662-2.094,4.662-4.67C19.762,2.086,17.677,0,15.101,0s-4.661,2.086-4.661,4.662
	C10.439,7.238,12.524,9.332,15.101,9.332z"/>
<rect x="7.788" y="13.222" width="14.421" height="14.975"/>
<path fill="#FFFFFF" d="M19.632,10.469c2.132,0.075,3.029,1.783,3.029,1.783l6.885,9.441C29.832,22.116,30,22.624,30,23.178
	c0,1.469-1.191,2.66-2.66,2.66c-0.353,0-0.676-0.076-0.978-0.193l-4.154-1.154v4.146H7.788v-4.146l-4.154,1.154
	c-0.294,0.117-0.625,0.193-0.978,0.193C1.187,25.838,0,24.647,0,23.178c0-0.554,0.164-1.062,0.461-1.485l6.877-9.441
	c0,0,0.902-1.708,3.025-1.783H19.632z M15,25.737L15,25.737l5.379-1.783l-0.117-0.025c-3.714-1.091-2.274-6,1.439-4.905l0.507,0.176
	v-5.539L15,16.016l-7.213-2.354V19.2l0.507-0.176c3.714-1.095,5.161,3.814,1.444,4.905l-0.122,0.025L15,25.737L15,25.737z"/>
</svg>
