<?xml version="1.0" encoding="utf-8"?>
<!-- Generator: Adobe Illustrator 20.0.0, SVG Export Plug-In . SVG Version: 6.00 Build 0)  -->
<svg version="1.1" id="Layer_1" xmlns="http://www.w3.org/2000/svg" xmlns:xlink="http://www.w3.org/1999/xlink" x="0px" y="0px"
	 width="30px" height="30px" viewBox="0 0 30 30" enable-background="new 0 0 30 30" xml:space="preserve">
<path fill="#231F20" d="M15.1,9.3c2.6,0,4.7-2.1,4.7-4.7c0-2.6-2.1-4.7-4.7-4.7s-4.7,2.1-4.7,4.7C10.4,7.2,12.5,9.3,15.1,9.3z"/>
<path fill="#231F20" d="M19.6,10.5c2.1,0.1,3,1.8,3,1.8l6.9,9.4c0.3,0.4,0.5,0.9,0.5,1.5c0,1.5-1.2,2.7-2.7,2.7
	c-0.4,0-0.7-0.1-1-0.2l-4.2-1.2v4.1H7.8v-4.1l-4.2,1.2c-0.3,0.1-0.6,0.2-1,0.2c-1.5,0-2.7-1.2-2.7-2.7c0-0.6,0.2-1.1,0.5-1.5
	l6.9-9.4c0,0,0.9-1.7,3-1.8C10.4,10.5,19.6,10.5,19.6,10.5z M15,25.7L15,25.7l5.4-1.8l-0.1,0c-3.7-1.1-2.3-6,1.4-4.9l0.5,0.2v-5.5
	L15,16l-7.2-2.4v5.5L8.3,19c3.7-1.1,5.2,3.8,1.4,4.9l-0.1,0L15,25.7L15,25.7z"/>
</svg>
