<?xml version="1.0" encoding="utf-8"?>
<!-- Generator: Adobe Illustrator 20.0.0, SVG Export Plug-In . SVG Version: 6.00 Build 0)  -->
<svg version="1.1" id="Layer_1" xmlns="http://www.w3.org/2000/svg" xmlns:xlink="http://www.w3.org/1999/xlink" x="0px" y="0px"
	 width="14px" height="14px" viewBox="0 0 14 14" enable-background="new 0 0 14 14" xml:space="preserve">
<path fill="#FFFFFF" d="M9.2,5c1,0,1.4,0.8,1.4,0.8l3.2,4.4c0.1,0.2,0.2,0.4,0.2,0.7c0,0.7-0.6,1.2-1.2,1.2c-0.2,0-0.3,0-0.5-0.1
	L10,12v2H4v-2l-2.3,0.1c-0.1,0.1-0.3,0.1-0.5,0.1c-0.7,0-1.2-0.6-1.2-1.2c0-0.3,0.1-0.5,0.2-0.7l3.2-4.4c0,0,0.4-0.8,1.4-0.8
	C4.8,5,9.2,5,9.2,5z M7,12l2.5-0.7l-0.1,0C7.7,10.8,8.4,8.5,10.1,9L10,8l0.1-1L7,8L4,7v1L3.9,9c1.7-0.5,2.4,1.8,0.7,2.3l-0.1,0L7,12
	z"/>
<circle fill="#FFFFFF" cx="7" cy="2" r="2"/>
</svg>
