<?xml version="1.0" encoding="utf-8"?>
<!-- Generator: Adobe Illustrator 18.1.1, SVG Export Plug-In . SVG Version: 6.00 Build 0)  -->
<svg version="1.1" id="Layer_1" xmlns="http://www.w3.org/2000/svg" xmlns:xlink="http://www.w3.org/1999/xlink" x="0px" y="0px"
	 viewBox="0 0 16 16" enable-background="new 0 0 16 16" xml:space="preserve">
<circle opacity="0.1" fill="#231F20" cx="8.55" cy="3.333" r="2.333"/>
<circle opacity="0.75" fill="#231F20" cx="8.05" cy="2.833" r="2.333"/>
<path opacity="0.5" fill="#231F20" d="M15.773,11.846L13.94,9.333H3.061l-1.831,2.513C1.082,12.058,1,12.312,1,12.589
	c0,0.734,0.594,1.33,1.328,1.33c0.176,0,0.342-0.038,0.489-0.096l2.077-0.577v2.073h7.21v-2.073l2.077,0.577
	c0.151,0.059,0.313,0.096,0.489,0.096c0.734,0,1.33-0.596,1.33-1.33C16,12.312,15.916,12.058,15.773,11.846z"/>
<path opacity="0.75" fill="#231F20" d="M15.273,11.346L13.44,8.833H2.561l-1.831,2.513C0.582,11.558,0.5,11.812,0.5,12.089
	c0,0.734,0.594,1.33,1.328,1.33c0.176,0,0.342-0.038,0.489-0.096l2.077-0.577v2.073h7.21v-2.073l2.077,0.577
	c0.151,0.059,0.313,0.096,0.489,0.096c0.734,0,1.33-0.596,1.33-1.33C15.5,11.812,15.416,11.558,15.273,11.346z"/>
<circle fill="#E6E6E6" cx="7.55" cy="2.333" r="2.333"/>
<rect x="3.894" y="6.831" width="7.21" height="7.487"/>
<path fill="#E6E6E6" d="M9.816,5.234c1.066,0.038,1.515,0.892,1.515,0.892l3.443,4.72C14.916,11.058,15,11.312,15,11.589
	c0,0.734-0.596,1.33-1.33,1.33c-0.176,0-0.338-0.038-0.489-0.096l-2.077-0.577v2.073h-7.21v-2.073l-2.077,0.577
	c-0.147,0.059-0.313,0.096-0.489,0.096C0.594,12.919,0,12.323,0,11.589c0-0.277,0.082-0.531,0.231-0.743l3.438-4.72
	c0,0,0.451-0.854,1.513-0.892H9.816z M7.5,12.868L7.5,12.868l2.689-0.892l-0.059-0.012c-1.857-0.545-1.137-3,0.72-2.452L11.104,9.6
	V6.831L7.5,8.008L3.894,6.831V9.6l0.254-0.088c1.857-0.548,2.58,1.907,0.722,2.452l-0.061,0.012L7.5,12.868L7.5,12.868z"/>
</svg>
