<?xml version="1.0" encoding="utf-8"?>
<!-- Generator: Adobe Illustrator 22.1.0, SVG Export Plug-In . SVG Version: 6.00 Build 0)  -->
<svg version="1.1" id="Layer_1" xmlns="http://www.w3.org/2000/svg" xmlns:xlink="http://www.w3.org/1999/xlink" x="0px" y="0px"
	 width="14px" height="14px" viewBox="0 0 14 14" enable-background="new 0 0 14 14" xml:space="preserve">
<path fill="#FFFFFF" d="M6.2,10v3.1c0,0,0.1,0.9-1,0.9h-4c-1.1,0-1-0.9-1-0.9V10H6.2z"/>
<path fill="#FFFFFF" d="M4.5,0.4C4.3,0.2,4.1,0,3.8,0L2.4,0C1.9,0,1.5,0.4,1.5,0.9c0,0.2,0.1,0.3,0.1,0.5l0,0C2.1,2,2.3,2.7,2.3,3.4
	c0,1.3-0.7,2.4-1.7,3.1l0,0C0.4,6.6,0.2,6.8,0.2,7.1V8h5.9V4.3c0,0,0-0.4-0.2-0.8L4.5,0.4z"/>
<path fill="#FFFFFF" d="M9.5,0.4C9.7,0.2,9.9,0,10.2,0l1.4,0c0.5,0,0.9,0.4,0.9,0.9c0,0.2,0,0.3-0.1,0.5l0,0C12,2,11.7,2.7,11.7,3.4
	c0,1.3,0.7,2.4,1.7,3.1l0,0c0.2,0.1,0.3,0.3,0.3,0.6V8h-6V4.3c0,0,0-0.4,0.2-0.8L9.5,0.4z"/>
<path fill="#FFFFFF" d="M13.8,10v3.1c0,0,0.1,0.9-1,0.9h-4c-1.1,0-1-0.9-1-0.9V10H13.8z"/>
<path fill="#FFFFFF" d="M7.5,9.5c0.2,0,0.3-0.3,0.3-0.5c0-0.2-0.1-0.5-0.3-0.5h-1C6.4,8.5,6.2,8.8,6.2,9c0,0.2,0.1,0.5,0.3,0.5H7.5z"/>
</svg>
