<?xml version="1.0" encoding="utf-8"?>
<!-- Generator: Adobe Illustrator 22.1.0, SVG Export Plug-In . SVG Version: 6.00 Build 0)  -->
<svg version="1.1" id="Layer_1" xmlns="http://www.w3.org/2000/svg" xmlns:xlink="http://www.w3.org/1999/xlink" x="0px" y="0px"
	 width="22px" height="22px" viewBox="0 0 22 22" enable-background="new 0 0 22 22" xml:space="preserve">
<path d="M10.2,15v5.6c0,0,0.2,1.4-1.5,1.4H1.9c-1.7,0-1.5-1.4-1.5-1.4V15H10.2z"/>
<path d="M7.1,0.6C6.8,0.3,6.4,0,5.9,0L3.7,0C3,0,2.4,0.6,2.4,1.4c0,0.3,0.1,0.5,0.2,0.7l0,0c0.6,0.9,1,2,1,3.2c0,2-1.1,3.8-2.7,4.8
	l0,0c-0.3,0.2-0.5,0.5-0.5,0.9V13h9.9V6.7c0,0,0-0.6-0.4-1.3L7.1,0.6z"/>
<path d="M14.9,0.6C15.2,0.3,15.6,0,16.1,0l2.2,0c0.8,0,1.4,0.6,1.4,1.4c0,0.3-0.1,0.5-0.2,0.7l0,0c-0.6,0.9-1,2-1,3.2
	c0,2,1.1,3.8,2.7,4.8l0,0c0.3,0.2,0.5,0.5,0.5,0.9V13h-9.9V6.7c0,0,0-0.6,0.4-1.3L14.9,0.6z"/>
<path d="M21.7,15v5.6c0,0,0.2,1.4-1.5,1.4h-6.8c-1.7,0-1.5-1.4-1.5-1.4V15H21.7z"/>
<path d="M11.8,14.6c0.3,0,0.5-0.2,0.5-0.5c0-0.3-0.2-0.5-0.5-0.5h-1.6c-0.3,0-0.5,0.2-0.5,0.5c0,0.3,0.2,0.5,0.5,0.5H11.8z"/>
</svg>
