<?xml version="1.0" encoding="utf-8"?>
<!-- Generator: Adobe Illustrator 22.1.0, SVG Export Plug-In . SVG Version: 6.00 Build 0)  -->
<svg version="1.1" id="Layer_1" xmlns="http://www.w3.org/2000/svg" xmlns:xlink="http://www.w3.org/1999/xlink" x="0px" y="0px"
	 width="14px" height="14px" viewBox="0 0 14 14" enable-background="new 0 0 14 14" xml:space="preserve">
<path fill="#FFFFFF" d="M13.6,14c-0.3,0-0.6-0.1-0.8-0.2c-0.3-0.1-0.5-0.6-0.8-0.6c-0.3,0-0.6,0.5-0.8,0.6c-0.2,0.1-0.5,0.2-0.8,0.2
	c-0.3,0-0.6-0.1-0.8-0.2c-0.3-0.1-0.5-0.6-0.8-0.6c-0.3,0-0.6,0.5-0.8,0.6C7.6,13.9,7.3,14,7,14c-0.3,0-0.6-0.1-0.8-0.2
	c-0.3-0.1-0.5-0.6-0.8-0.6c-0.3,0-0.6,0.5-0.8,0.6C4.2,13.9,4,14,3.7,14c-0.3,0-0.6-0.1-0.8-0.2c-0.3-0.1-0.5-0.6-0.8-0.6
	c-0.3,0-0.6,0.5-0.8,0.6C0.9,13.9,0.6,14,0.4,14v-1.2c0.3,0,0.6-0.1,0.8-0.2C1.4,12.5,1.7,12,2,12c0.3,0,0.6,0.5,0.8,0.6
	c0.2,0.1,0.5,0.2,0.8,0.2c0.3,0,0.6-0.1,0.8-0.2C4.8,12.5,5,12,5.3,12c0.3,0,0.6,0.5,0.8,0.6c0.3,0.1,0.5,0.2,0.8,0.2
	c0.3,0,0.6-0.1,0.8-0.2C8.1,12.5,8.4,12,8.7,12c0.3,0,0.6,0.5,0.8,0.6c0.2,0.1,0.5,0.2,0.8,0.2c0.3,0,0.6-0.1,0.8-0.2
	c0.3-0.1,0.5-0.6,0.8-0.6c0.3,0,0.6,0.5,0.8,0.6c0.2,0.1,0.5,0.2,0.8,0.2V14z"/>
<circle fill="#FFFFFF" cx="7" cy="1" r="1"/>
<path fill="#FFFFFF" d="M9.7,4.4C9.7,4.1,9.4,4,9.2,4C9.1,4,9,4,9,4H8V3c0-0.6-0.4-1-1-1S6,2.4,6,3v1v1H5.3L4.8,1.9c0-0.3-0.3-0.5-0.6-0.4
	C4,1.6,3.8,1.8,3.8,2.1L4.5,6l-1,6h1l0.3-2h3.3l0.3,2h1l-1-6H9l0.3,1.8c0,0.2,0.3,0.4,0.5,0.4c0,0,0.1,0,0.1,0
	c0.3,0,0.5-0.3,0.4-0.6L9.7,4.4z M5,9l0.2-1h2.7L8,9H5z M7.7,7H5.3l0.2-1h2L7.7,7z"/>
</svg>
