<?xml version="1.0" encoding="utf-8"?>
<!-- Generator: Adobe Illustrator 22.1.0, SVG Export Plug-In . SVG Version: 6.00 Build 0)  -->
<svg version="1.1" id="Layer_1" xmlns="http://www.w3.org/2000/svg" xmlns:xlink="http://www.w3.org/1999/xlink" x="0px" y="0px"
	 width="30px" height="30px" viewBox="0 0 30 30" enable-background="new 0 0 30 30" xml:space="preserve">
<path fill="#FFFFFF" d="M29.2,30c-0.6,0-1.2-0.1-1.8-0.4c-0.5-0.2-1.2-0.4-1.8-0.4c-0.6,0-1.3,0.1-1.8,0.4c-0.5,0.2-1.1,0.4-1.8,0.4
	c-0.6,0-1.2-0.1-1.8-0.4c-0.6-0.2-1.2-0.4-1.8-0.4c-0.6,0-1.3,0.1-1.8,0.4C16.2,29.9,15.6,30,15,30c-0.6,0-1.2-0.1-1.8-0.4
	c-0.5-0.2-1.2-0.4-1.8-0.4c-0.6,0-1.3,0.1-1.8,0.4C9.1,29.9,8.5,30,7.9,30c-0.6,0-1.2-0.1-1.8-0.4c-0.5-0.2-1.2-0.4-1.8-0.4
	c-0.6,0-1.3,0.1-1.8,0.4C2,29.9,1.4,30,0.8,30v-2.6c0.6,0,1.2-0.1,1.8-0.4c0.5-0.3,1.2-0.4,1.8-0.4c0.6,0,1.3,0.1,1.8,0.4
	c0.5,0.2,1.1,0.4,1.8,0.4c0.6,0,1.2-0.1,1.8-0.4c0.5-0.3,1.2-0.4,1.8-0.4c0.6,0,1.3,0.1,1.8,0.4c0.5,0.2,1.1,0.4,1.8,0.4
	c0.6,0,1.2-0.1,1.8-0.4c0.5-0.3,1.2-0.4,1.8-0.4c0.6,0,1.3,0.1,1.8,0.4c0.5,0.2,1.1,0.4,1.8,0.4c0.6,0,1.2-0.1,1.8-0.4
	c0.5-0.3,1.2-0.4,1.8-0.4c0.6,0,1.3,0.1,1.8,0.4c0.5,0.2,1.1,0.4,1.8,0.4V30z"/>
<path fill="#FFFFFF" d="M14.5,3.8c1,0,1.8-0.8,1.8-1.8s-0.8-1.8-1.8-1.8c-1,0-1.8,0.8-1.8,1.8S13.5,3.8,14.5,3.8z"/>
<path fill="#FFFFFF" d="M20.4,25.3h1.7l-1.9-7.5h0c0.1,0,0.3,0,0.4-0.1c1-0.2,1.5-1.2,1.3-2.2l-1.1-4.4c-0.2-0.8-0.9-1.4-1.7-1.4H16V6
	c0-1-0.5-1.8-1.5-1.8c-1,0-1.5,0.8-1.5,1.8l0,5.5c0,0.1,0,0.3,0,0.4h-1.7l0,0l-1.2-6.6c-0.1-0.4-0.5-0.7-1-0.7
	c-0.4,0.1-0.7,0.5-0.7,1l1.3,7.3c0.1,0.4,0.4,0.7,0.8,0.7h0.2L7.9,25.3h1.7l0.8-3.4l9.1,0L20.4,25.3z M17.5,13.6l0.7,2.9h-6.4
	l0.7-2.9H17.5z M10.9,20.4l0.6-2.4h7.1l0.6,2.4H10.9z"/>
</svg>
