<?xml version="1.0" encoding="utf-8"?>
<!-- Generator: Adobe Illustrator 25.4.1, SVG Export Plug-In . SVG Version: 6.00 Build 0)  -->
<svg version="1.1" id="Layer_1" xmlns="http://www.w3.org/2000/svg" xmlns:xlink="http://www.w3.org/1999/xlink" x="0px" y="0px"
	 width="14px" height="14px" viewBox="0 0 14 14" enable-background="new 0 0 14 14" xml:space="preserve">
<path fill="#231F20" d="M7.2,0c0.6,0,1,0.4,1,1s-0.4,1-1,1s-1-0.4-1-1S6.6,0,7.2,0z"/>
<path fill="#231F20" d="M9.9,4.4C9.9,4.1,9.6,4,9.4,4C9.3,4,9.2,4,9.2,4h-1V3c0-0.6-0.4-1-1-1s-1,0.4-1,1v1v1H5.5L5,1.9
	c0-0.3-0.3-0.5-0.6-0.4C4.2,1.6,4,1.8,4,2.1L4.7,6l-1,6h1L5,10h3.3l0.3,2h1l-1-6h0.6l0.3,1.8C9.5,8,9.8,8.2,10,8.2h0.1
	c0.3,0,0.5-0.3,0.4-0.6L9.9,4.4z M5.2,9l0.2-1h2.7l0.1,1H5.2z M7.9,7H5.5l0.2-1h2L7.9,7z"/>
<path fill="#231F20" d="M13.8,14c-0.3,0-0.6-0.1-0.8-0.2c-0.3-0.1-0.6-0.5-0.9-0.5c-0.3,0-0.6,0.4-0.9,0.5C11,13.9,10.7,14,10.4,14
	s-0.6-0.1-0.8-0.2c-0.3-0.1-0.6-0.5-0.9-0.5c-0.3,0-0.6,0.4-0.9,0.5C7.6,13.9,7.3,14,7,14s-0.6-0.1-0.8-0.2
	c-0.3-0.1-0.6-0.5-0.9-0.5s-0.6,0.4-0.9,0.5C4.2,13.9,3.9,14,3.6,14S3,13.9,2.8,13.8c-0.3-0.1-0.6-0.5-0.9-0.5S1.3,13.7,1,13.8
	C0.8,13.9,0.5,14,0.2,14v-1.2c0.3,0,0.6-0.1,0.8-0.2c0.3-0.1,0.6-0.5,0.9-0.5s0.6,0.4,0.9,0.5s0.5,0.2,0.8,0.2s0.6-0.1,0.8-0.2
	c0.3-0.1,0.6-0.5,0.9-0.5s0.6,0.4,0.9,0.5s0.5,0.2,0.8,0.2s0.6-0.1,0.8-0.2c0.3-0.1,0.6-0.5,0.9-0.5s0.6,0.4,0.9,0.5
	c0.3,0.1,0.5,0.2,0.8,0.2s0.6-0.1,0.8-0.2c0.3-0.1,0.6-0.5,0.9-0.5c0.3,0,0.6,0.4,0.9,0.5c0.3,0.1,0.5,0.2,0.8,0.2V14z"/>
</svg>
