<?xml version="1.0" encoding="utf-8"?>
<!-- Generator: Adobe Illustrator 22.1.0, SVG Export Plug-In . SVG Version: 6.00 Build 0)  -->
<svg version="1.1" id="Layer_1" xmlns="http://www.w3.org/2000/svg" xmlns:xlink="http://www.w3.org/1999/xlink" x="0px" y="0px"
	 width="30px" height="30px" viewBox="0 0 30 30" enable-background="new 0 0 30 30" xml:space="preserve">
<path fill="#FFFFFF" d="M13.9,21v7.1c0,0,0.2,1.9-2.1,1.9H2.6c-2.3,0-2.1-1.9-2.1-1.9V21H13.9z"/>
<path fill="#FFFFFF" d="M9.6,0.9C9.3,0.3,8.7,0,8.1,0l-3,0c-1,0-1.9,0.8-1.9,1.9c0,0.4,0.1,0.7,0.3,1l0,0c0.9,1.3,1.4,2.8,1.4,4.4
	c0,2.8-1.5,5.2-3.7,6.6l0,0c-0.4,0.3-0.7,0.7-0.7,1.3V17h13.5V9.2c0,0,0-0.8-0.5-1.7L9.6,0.9z"/>
<path fill="#FFFFFF" d="M20.4,0.9C20.7,0.3,21.3,0,21.9,0l3,0c1,0,1.9,0.8,1.9,1.9c0,0.4-0.1,0.7-0.3,1l0,0c-0.9,1.3-1.4,2.8-1.4,4.4
	c0,2.8,1.5,5.2,3.7,6.6l0,0c0.4,0.3,0.7,0.7,0.7,1.3V17H16.1V9.2c0,0,0-0.8,0.5-1.7L20.4,0.9z"/>
<path fill="#FFFFFF" d="M29.5,21v7.1c0,0,0.2,1.9-2.1,1.9h-9.3c-2.3,0-2.1-1.9-2.1-1.9V21H29.5z"/>
<path fill="#FFFFFF" d="M16.1,19.9c0.4,0,0.6-0.3,0.6-0.6c0-0.3-0.3-0.6-0.6-0.6H14c-0.4,0-0.6,0.3-0.6,0.6c0,0.4,0.3,0.6,0.6,0.6H16.1z"/>
</svg>
