<?xml version="1.0" encoding="utf-8"?>
<!-- Generator: Adobe Illustrator 27.9.1, SVG Export Plug-In . SVG Version: 6.00 Build 0)  -->
<svg version="1.1" id="Layer_1" xmlns="http://www.w3.org/2000/svg" xmlns:xlink="http://www.w3.org/1999/xlink" x="0px" y="0px"
	 viewBox="0 0 22 22" enable-background="new 0 0 22 22" xml:space="preserve">
<path fill="#FFFFFF" d="M21.4,22c-0.5,0-0.9-0.1-1.3-0.3c-0.4-0.2-0.9-0.3-1.3-0.3c-0.5,0-0.9,0.1-1.3,0.3c-0.4,0.2-0.8,0.3-1.3,0.3
	s-0.9-0.1-1.3-0.3c-0.4-0.2-0.9-0.3-1.3-0.3c-0.5,0-0.9,0.1-1.3,0.3C11.9,21.9,11.5,22,11,22s-0.9-0.1-1.3-0.3
	c-0.4-0.2-0.8-0.3-1.3-0.3s-0.9,0.1-1.3,0.3C6.7,21.9,6.3,22,5.8,22s-0.9-0.1-1.3-0.3c-0.4-0.2-0.8-0.3-1.3-0.3s-0.9,0.1-1.3,0.3
	S1,22,0.6,22v-1.9c0.5,0,0.9-0.1,1.3-0.3c0.4-0.2,0.8-0.3,1.3-0.3s0.9,0.1,1.3,0.3c0.4,0.2,0.8,0.3,1.3,0.3s0.9-0.1,1.3-0.3
	c0.4-0.2,0.8-0.3,1.3-0.3s0.9,0.1,1.3,0.3c0.4,0.2,0.8,0.3,1.3,0.3c0.4,0,0.9-0.1,1.3-0.3c0.4-0.2,0.8-0.3,1.3-0.3s0.9,0.1,1.3,0.3
	c0.4,0.2,0.8,0.3,1.3,0.3c0.5,0,0.9-0.1,1.3-0.3c0.4-0.2,0.9-0.3,1.3-0.3c0.5,0,0.9,0.1,1.3,0.3c0.4,0.2,0.8,0.3,1.3,0.3
	C21.4,20.1,21.4,22,21.4,22z"/>
<path fill="#FFFFFF" d="M10,2.6c0.7,0,1.3-0.6,1.3-1.3S10.7,0,10,0S8.7,0.6,8.7,1.3S9.3,2.6,10,2.6"/>
<path fill="#FFFFFF" d="M7.8,11.3H8l-1.9,7.5c0.2,0,0.3-0.1,0.5-0.1c0.3-0.1,0.6-0.2,0.9-0.3L7.8,17h6.5l0.3,1.4
	c0.3,0.1,0.6,0.2,0.9,0.3c0.2,0.1,0.3,0.1,0.5,0.1l-2.2-8.7H8.3l-1-5.6C7.3,4.2,7,4,6.6,4.1c-0.3,0-0.5,0.3-0.4,0.7l1.1,6.1
	C7.3,11.1,7.5,11.3,7.8,11.3 M9.2,11.3H11h1.8l0.4,1.6H8.8L9.2,11.3z M8.5,14.2h5l0.4,1.6H8.1L8.5,14.2z"/>
<path fill="#FFFFFF" d="M15.8,8c-0.1-0.6-0.5-0.8-1.1-0.8h-3.2v-1L11.4,5l-0.1-1c0-0.7-0.6-1.2-1.3-1.2S8.8,3.4,8.8,4.1L9.1,8
	c0.1,0.7,0.6,1.2,1.3,1.2h4.2l0.8,3.3c0.3,1,1.8,0.6,1.5-0.4L15.8,8z"/>
</svg>
