<?xml version="1.0" encoding="UTF-8" standalone="no"?>
<svg width="32px" height="32px" viewBox="0 0 32 32" version="1.1" xmlns="http://www.w3.org/2000/svg" xmlns:xlink="http://www.w3.org/1999/xlink" xmlns:sketch="http://www.bohemiancoding.com/sketch/ns">
    <!-- Generator: Sketch 3.3.3 (12072) - http://www.bohemiancoding.com/sketch -->
    <title>lighthouse-white-32</title>
    <desc>Created with Sketch.</desc>
    <defs></defs>
    <g id="lighthouse" stroke="none" stroke-width="1" fill="none" fill-rule="evenodd" sketch:type="MSPage">
        <g id="lighthouse-white-32" sketch:type="MSArtboardGroup">
            <path d="M15,12 L21,12 L24,32 L12,32 L15,12 Z M14,11 L22,11 L22,12 L14,12 L14,11 Z M18,4 L22,7 L14,7 L18,4 Z M20,8 L32,7 L32,11 L20,10 L20,8 Z M16,8 L4,7 L4,11 L16,10 L16,8 Z" id="symbol" fill-opacity="0.5" fill="#000000" sketch:type="MSShapeGroup"></path>
            <path d="M14,11 L20,11 L23,31 L11,31 L14,11 Z M13,10 L21,10 L21,11 L13,11 L13,10 Z M17,3 L21,6 L13,6 L17,3 Z M19,7 L31,6 L31,10 L19,9 L19,7 Z M15,7 L3,6 L3,10 L15,9 L15,7 Z" id="symbol-copy" fill-opacity="0.75" fill="#000000" sketch:type="MSShapeGroup"></path>
            <path d="M13,10 L19,10 L22,30 L10,30 L13,10 Z M12,9 L20,9 L20,10 L12,10 L12,9 Z M16,2 L20,5 L12,5 L16,2 Z M18,6 L30,5 L30,9 L18,8 L18,6 Z M14,6 L2,5 L2,9 L14,8 L14,6 Z" id="symbol-copy-2" fill="#FFFFFF" sketch:type="MSShapeGroup"></path>
        </g>
    </g>
</svg>