<?xml version="1.0" encoding="UTF-8" standalone="no"?>
<svg width="16px" height="16px" viewBox="0 0 16 16" version="1.1" xmlns="http://www.w3.org/2000/svg" xmlns:xlink="http://www.w3.org/1999/xlink" xmlns:sketch="http://www.bohemiancoding.com/sketch/ns">
    <!-- Generator: Sketch 3.3.3 (12072) - http://www.bohemiancoding.com/sketch -->
    <title>lighthouse-white-16</title>
    <desc>Created with Sketch.</desc>
    <defs></defs>
    <g id="lighthouse" stroke="none" stroke-width="1" fill="none" fill-rule="evenodd" sketch:type="MSPage">
        <g id="lighthouse-white-16" sketch:type="MSArtboardGroup">
            <path d="M8,7 L12,7 L13,16 L7,16 L8,7 Z M10,2 L13,4 L7,4 L10,2 Z M11.5,5 L16,4 L16,7 L11.5,6 L11.5,5 Z M8.5,5 L4,4 L4,7 L8.5,6 L8.5,5 Z" id="symbol" fill-opacity="0.5" fill="#000000" sketch:type="MSShapeGroup"></path>
            <path d="M7,6 L11,6 L12,15 L6,15 L7,6 Z M9,1 L12,3 L6,3 L9,1 Z M10.5,4 L15,3 L15,6 L10.5,5 L10.5,4 Z M7.5,4 L3,3 L3,6 L7.5,5 L7.5,4 Z" id="symbol-copy" fill-opacity="0.75" fill="#000000" sketch:type="MSShapeGroup"></path>
            <path d="M6,5 L10,5 L11,14 L5,14 L6,5 Z M8,0 L11,2 L5,2 L8,0 Z M9.5,3 L14,2 L14,5 L9.5,4 L9.5,3 Z M6.5,3 L2,2 L2,5 L6.5,4 L6.5,3 Z" id="symbol-copy-2" fill="#FFFFFF" sketch:type="MSShapeGroup"></path>
        </g>
    </g>
</svg>