<?xml version="1.0" encoding="UTF-8" standalone="no"?>
<svg width="24px" height="24px" viewBox="0 0 24 24" version="1.1" xmlns="http://www.w3.org/2000/svg" xmlns:xlink="http://www.w3.org/1999/xlink" xmlns:sketch="http://www.bohemiancoding.com/sketch/ns">
    <!-- Generator: Sketch 3.3.3 (12072) - http://www.bohemiancoding.com/sketch -->
    <title>lighthouse-black-24</title>
    <desc>Created with Sketch.</desc>
    <defs></defs>
    <g id="lighthouse" stroke="none" stroke-width="1" fill="none" fill-rule="evenodd" sketch:type="MSPage">
        <g id="lighthouse-black-24" sketch:type="MSArtboardGroup" fill="#000000">
            <path d="M11,10 L17,10 L19,24 L9,24 L11,10 Z M10,9 L18,9 L18,10 L10,10 L10,9 Z M14,2 L18,5 L10,5 L14,2 Z M16,6 L24,5 L24,9 L16,8 L16,6 Z M12,6 L4,5 L4,9 L12,8 L12,6 Z" id="symbol" fill-opacity="0.1" sketch:type="MSShapeGroup"></path>
            <path d="M10,9 L16,9 L18,23 L8,23 L10,9 Z M9,8 L17,8 L17,9 L9,9 L9,8 Z M13,1 L17,4 L9,4 L13,1 Z M15,5 L23,4 L23,8 L15,7 L15,5 Z M11,5 L3,4 L3,8 L11,7 L11,5 Z" id="symbol-copy" fill-opacity="0.2" sketch:type="MSShapeGroup"></path>
            <path d="M9,8 L15,8 L17,22 L7,22 L9,8 Z M8,7 L16,7 L16,8 L8,8 L8,7 Z M12,0 L16,3 L8,3 L12,0 Z M14,4 L22,3 L22,7 L14,6 L14,4 Z M10,4 L2,3 L2,7 L10,6 L10,4 Z" id="symbol-copy-2" sketch:type="MSShapeGroup"></path>
        </g>
    </g>
</svg>