<?xml version="1.0" encoding="utf-8"?>
<!-- Generator: Adobe Illustrator 18.1.1, SVG Export Plug-In . SVG Version: 6.00 Build 0)  -->
<svg version="1.1" id="Icons" xmlns="http://www.w3.org/2000/svg" xmlns:xlink="http://www.w3.org/1999/xlink" x="0px" y="0px"
	 viewBox="0 0 32 32" enable-background="new 0 0 32 32" xml:space="preserve">
<g opacity="0.5">
	<polygon points="16,19 14,19 12,30 7,30 5,19 3,19 5.6,32 13.4,32 	"/>
	<rect x="8" y="22" width="2" height="2"/>
	<rect x="9" y="19" width="2" height="2"/>
	<rect x="7" y="16" width="2" height="2"/>
	<polygon points="20,11 20,31 21,32 22,32 23,31 23,19 24,19 24,31 25,32 26,32 27,31 27,11 28,11 28,19 30,19 30,9 29,9 29,8 19,8 
		19,9 18,9 16,13 11,13 11,15 17,15 	"/>
	<circle cx="23.5" cy="4.5" r="2.5"/>
</g>
<g opacity="0.75">
	<polygon points="15,18 13,18 11,29 6,29 4,18 2,18 4.6,31 12.4,31 	"/>
	<rect x="7" y="21" width="2" height="2"/>
	<rect x="8" y="18" width="2" height="2"/>
	<rect x="6" y="15" width="2" height="2"/>
	<polygon points="19,10 19,30 20,31 21,31 22,30 22,18 23,18 23,30 24,31 25,31 26,30 26,10 27,10 27,18 29,18 29,8 28,8 28,7 18,7 
		18,8 17,8 15,12 10,12 10,14 16,14 	"/>
	<circle cx="22.5" cy="3.5" r="2.5"/>
</g>
<g>
	<polygon fill="#E6E6E6" points="14,17 12,17 10,28 5,28 3,17 1,17 3.6,30 11.4,30 	"/>
	<rect x="6" y="20" fill="#E6E6E6" width="2" height="2"/>
	<rect x="7" y="17" fill="#E6E6E6" width="2" height="2"/>
	<rect x="5" y="14" fill="#E6E6E6" width="2" height="2"/>
	<polygon fill="#E6E6E6" points="18,9 18,29 19,30 20,30 21,29 21,17 22,17 22,29 23,30 24,30 25,29 25,9 26,9 26,17 28,17 28,7 
		27,7 27,6 17,6 17,7 16,7 14,11 9,11 9,13 15,13 	"/>
	<circle fill="#E6E6E6" cx="21.5" cy="2.5" r="2.5"/>
</g>
</svg>
