<?xml version="1.0" encoding="utf-8"?>
<!-- Generator: Adobe Illustrator 20.0.0, SVG Export Plug-In . SVG Version: 6.00 Build 0)  -->
<svg version="1.1" id="Icons" xmlns="http://www.w3.org/2000/svg" xmlns:xlink="http://www.w3.org/1999/xlink" x="0px" y="0px"
	 width="30px" height="30px" viewBox="0 0 30 30" enable-background="new 0 0 30 30" xml:space="preserve">
<g>
	<polygon fill="#231F20" points="14,17 12,17 10,28 5,28 3,17 1,17 3.6,30 11.4,30 	"/>
	<rect fill="#231F20" x="6" y="20" width="2" height="2"/>
	<rect fill="#231F20" x="7" y="17" width="2" height="2"/>
	<rect fill="#231F20" x="5" y="14" width="2" height="2"/>
	<polygon fill="#231F20" points="18,9 18,29 19,30 20,30 21,29 21,17 22,17 22,29 23,30 24,30 25,29 25,9 26,9 26,17 28,17 28,7 27,7 27,6 17,6 
		17,7 16,7 14,11 9,11 9,13 15,13 	"/>
	<circle fill="#231F20" cx="21.5" cy="2.5" r="2.5"/>
</g>
</svg>
