<?xml version="1.0" encoding="utf-8"?>
<!-- Generator: Adobe Illustrator 25.4.1, SVG Export Plug-In . SVG Version: 6.00 Build 0)  -->
<svg version="1.1" id="Icons" xmlns="http://www.w3.org/2000/svg" xmlns:xlink="http://www.w3.org/1999/xlink" x="0px" y="0px"
	 width="14px" height="14px" viewBox="0 0 14 14" enable-background="new 0 0 14 14" xml:space="preserve">
<path fill="#ffffff" d="M1,8h1l1,5h3l1-5h1l-1,6H2L1,8z M10.5,0C11.3,0,12,0.7,12,1.5S11.3,3,10.5,3S9,2.3,9,1.5S9.7,0,10.5,0z
	 M13,3h-2h-1H9L8,4L7,5H6H5.5C5.2,5,5,5.2,5,5.5S5.2,6,5.5,6H6h1.7H8l1-1v5.3V12v1.5C9,13.8,9.2,14,9.5,14s0.5-0.2,0.5-0.5V12v-1.7
	V8h1v2.3V12v1.5c0,0.3,0.2,0.5,0.5,0.5s0.5-0.2,0.5-0.5V12v-1.7V4h1v0.3V7v0.5C13,7.8,13.2,8,13.5,8S14,7.8,14,7.5V7V4.3V4L13,3z
	 M3.5,6C3.8,6,4,6.2,4,6.5S3.8,7,3.5,7S3,6.8,3,6.5S3.2,6,3.5,6z M4.5,8C4.8,8,5,8.2,5,8.5S4.8,9,4.5,9S4,8.8,4,8.5S4.2,8,4.5,8z
	 M4.5,10C4.8,10,5,10.2,5,10.5S4.8,11,4.5,11S4,10.8,4,10.5S4.2,10,4.5,10z"/>
</svg>
