<?xml version="1.0" encoding="utf-8"?>
<!-- Generator: Adobe Illustrator 20.0.0, SVG Export Plug-In . SVG Version: 6.00 Build 0)  -->
<svg version="1.1" id="Icons" xmlns="http://www.w3.org/2000/svg" xmlns:xlink="http://www.w3.org/1999/xlink" x="0px" y="0px"
	 width="14px" height="14px" viewBox="0 0 14 14" enable-background="new 0 0 14 14" xml:space="preserve">
<g>
	<polygon fill="#231F20" points="1,8 2,8 3,13 6,13 7,8 8,8 7,14 2,14 	"/>
	<rect fill="#231F20" x="3" y="6" width="1" height="1"/>
	<rect fill="#231F20" x="4" y="8" width="1" height="1"/>
	<rect fill="#231F20" x="4" y="10" width="1" height="1"/>
	<polygon fill="#231F20" points="9,5 9,14 10,14 10,8 11,8 11,14 12,14 12,4 13,4 13,8 14,8 14,4 13,3 11,3 11,4 10,4 10,3 9,3 8,4 7,5 5,5 5,6 
		8,6 8,5 	"/>
	<circle fill="#231F20" cx="10.5" cy="1.5" r="1.5"/>
</g>
</svg>
