<?xml version="1.0" encoding="utf-8"?>
<!-- Generator: Adobe Illustrator 20.0.0, SVG Export Plug-In . SVG Version: 6.00 Build 0)  -->
<svg version="1.1" id="Icons" xmlns="http://www.w3.org/2000/svg" xmlns:xlink="http://www.w3.org/1999/xlink" x="0px" y="0px"
	 width="22px" height="22px" viewBox="0 0 22 22" enable-background="new 0 0 22 22" xml:space="preserve">
<g>
	<path fill="#231F20" d="M10.7,8H7.8c-1.1,0-1.1,1.4,0,1.4H11c0.2,0,0.5-0.1,0.7-0.4L13,6.5V21c0,0.6,0.4,1,1,1s1-0.4,1-1v-8h1v8c0,0.6,0.4,1,1,1
		s1-0.4,1-1V7h1.5v4.9c0,1.1,1.5,1.1,1.5,0V6.4C21,5.2,19.8,4,18.3,4H17v1h-2V4c-0.8,0-2,0.5-2.4,1.1L10.7,8L10.7,8z"/>
	<polygon fill="#231F20" points="1,13 2,13 4,21 7,21 9,13 10,13 8,22 3,22 	"/>
	<polygon fill="#231F20" points="15,0 17,0 17,1 18,1 18,3 17,3 17,4 15,4 15,3 14,3 14,1 15,1 	"/>
	<circle fill="#231F20" cx="4" cy="10" r="1"/>
	<circle fill="#231F20" cx="6" cy="13" r="1"/>
	<circle fill="#231F20" cx="5" cy="16" r="1"/>
</g>
</svg>
