<?xml version="1.0" encoding="utf-8"?>
<!-- Generator: Adobe Illustrator 18.1.1, SVG Export Plug-In . SVG Version: 6.00 Build 0)  -->
<svg version="1.1" id="Icons" xmlns="http://www.w3.org/2000/svg" xmlns:xlink="http://www.w3.org/1999/xlink" x="0px" y="0px"
	 viewBox="0 0 16 16" enable-background="new 0 0 16 16" xml:space="preserve">
<g opacity="0.5">
	<polygon points="3,10 4,10 5,15 8,15 9,10 10,10 9,16 4,16 	"/>
	<rect x="5" y="8" width="1" height="1"/>
	<rect x="6" y="10" width="1" height="1"/>
	<rect x="6" y="12" width="1" height="1"/>
	<polygon points="11,7 11,16 12,16 12,10 13,10 13,16 14,16 14,6 15,6 15,10 16,10 16,6 15,5 13,5 13,6 12,6 12,5 11,5 10,6 9,7 
		7,7 7,8 10,8 10,7 	"/>
	<circle cx="12.5" cy="3.5" r="1.5"/>
</g>
<g opacity="0.75">
	<polygon points="2,9 3,9 4,14 7,14 8,9 9,9 8,15 3,15 	"/>
	<rect x="4" y="7" width="1" height="1"/>
	<rect x="5" y="9" width="1" height="1"/>
	<rect x="5" y="11" width="1" height="1"/>
	<polygon points="10,6 10,15 11,15 11,9 12,9 12,15 13,15 13,5 14,5 14,9 15,9 15,5 14,4 12,4 12,5 11,5 11,4 10,4 9,5 8,6 6,6 6,7 
		9,7 9,6 	"/>
	<circle cx="11.5" cy="2.5" r="1.5"/>
</g>
<g>
	<polygon fill="#E6E6E6" points="1,8 2,8 3,13 6,13 7,8 8,8 7,14 2,14 	"/>
	<rect x="3" y="6" fill="#E6E6E6" width="1" height="1"/>
	<rect x="4" y="8" fill="#E6E6E6" width="1" height="1"/>
	<rect x="4" y="10" fill="#E6E6E6" width="1" height="1"/>
	<polygon fill="#E6E6E6" points="9,5 9,14 10,14 10,8 11,8 11,14 12,14 12,4 13,4 13,8 14,8 14,4 13,3 11,3 11,4 10,4 10,3 9,3 8,4 
		7,5 5,5 5,6 8,6 8,5 	"/>
	<circle fill="#E6E6E6" cx="10.5" cy="1.5" r="1.5"/>
</g>
</svg>
