<?xml version="1.0" encoding="utf-8"?>
<!-- Generator: Adobe Illustrator 22.1.0, SVG Export Plug-In . SVG Version: 6.00 Build 0)  -->
<svg version="1.1" id="Layer_1" xmlns="http://www.w3.org/2000/svg" xmlns:xlink="http://www.w3.org/1999/xlink" x="0px" y="0px"
	 width="14px" height="14px" viewBox="0 0 14 14" enable-background="new 0 0 14 14" xml:space="preserve">
<path fill="#FFFFFF" d="M9,9.8v1c0.4-0.1,0.7-0.2,1-0.4V9.2C9.7,9.5,9.4,9.7,9,9.8z"/>
<path fill="#FFFFFF" d="M11,9.6C11.6,8.9,12,8,12,7s-0.4-1.9-1-2.6V7V9.6z"/>
<path fill="#FFFFFF" d="M10,4.8V3.6C9.7,3.4,9.4,3.2,9,3.1v1C9.4,4.3,9.7,4.5,10,4.8z"/>
<path fill="#FFFFFF" d="M7,8V4h1V3H7H6l-5,8h1l1.2-2H6v2h1h1v-1H7V9V8z M3.9,8L6,4.6V8H3.9z"/>
</svg>
