<?xml version="1.0" encoding="utf-8"?>
<!-- Generator: Adobe Illustrator 22.1.0, SVG Export Plug-In . SVG Version: 6.00 Build 0)  -->
<svg version="1.1" id="Layer_1" xmlns="http://www.w3.org/2000/svg" xmlns:xlink="http://www.w3.org/1999/xlink" x="0px" y="0px"
	 width="30px" height="30px" viewBox="0 0 30 30" enable-background="new 0 0 30 30" xml:space="preserve">
<path d="M15.5,7H14h-1.5l-10,16h3L8,19h6v4h3v-4v-3V7H15.5z M9.9,16L14,9.4V16H9.9z"/>
<path d="M21,10.4V7.3c-0.3-0.1-0.7-0.2-1-0.2v3C20.3,10.2,20.7,10.3,21,10.4z"/>
<path d="M22,19v3.4c0.3-0.1,0.7-0.3,1-0.5V18C22.7,18.4,22.4,18.7,22,19z"/>
<path d="M20,19.9v3c0.3,0,0.7-0.1,1-0.2v-3.2C20.7,19.7,20.3,19.8,20,19.9z"/>
<path d="M23,12V8.1c-0.3-0.2-0.7-0.4-1-0.5V11C22.4,11.3,22.7,11.6,23,12z"/>
<path d="M27,15c0-1.4-0.4-2.7-1-3.9v7.7C26.6,17.7,27,16.4,27,15z"/>
<path d="M24,8.8V15v6.2c0.4-0.3,0.7-0.6,1-1V9.7C24.7,9.4,24.4,9.1,24,8.8z"/>
<rect x="18" y="7" width="1" height="3"/>
<rect x="18" y="20" width="1" height="3"/>
</svg>
