<?xml version="1.0" encoding="utf-8"?>
<!-- Generator: Adobe Illustrator 22.1.0, SVG Export Plug-In . SVG Version: 6.00 Build 0)  -->
<svg version="1.1" id="Layer_1" xmlns="http://www.w3.org/2000/svg" xmlns:xlink="http://www.w3.org/1999/xlink" x="0px" y="0px"
	 width="22px" height="22px" viewBox="0 0 22 22" enable-background="new 0 0 22 22" xml:space="preserve">
<path d="M22,7v15H0V7H22z M2,9v11h18V9H2z"/>
<path d="M18,17c0,2-2,2-2,2v-7c0,0,2,0,2,2C18,15,18,17,18,17z"/>
<path d="M4,17c0,2,2,2,2,2v-7c0,0-2,0-2,2C4,15,4,17,4,17z"/>
<path d="M12.9,12v-0.6c0-0.8-0.6-1.4-1.4-1.4h-1c-0.8,0-1.4,0.6-1.4,1.4V12H7v7h8v-7H12.9z M9.9,11.4c0-0.3,0.3-0.6,0.6-0.6h1
	c0.3,0,0.6,0.3,0.6,0.6V12H9.9V11.4z"/>
<path d="M16.6,2.2l-0.9-0.9l-5.3,0C9.9,0.5,9.1,0,8.1,0C6.7,0,5.5,1.2,5.5,2.6c0,1.5,1.2,2.6,2.6,2.6c1,0,1.8-0.5,2.3-1.3l1,0
	l0.8-0.8l0.6,0.6l0.6-0.6l0.6,0.6l0.6-0.6l0.7,0.7l0,0l1.1-1.1C16.7,2.5,16.7,2.4,16.6,2.2z M8,3H7V2h1V3z"/>
</svg>
