<?xml version="1.0" encoding="utf-8"?>
<!-- Generator: Adobe Illustrator 25.4.1, SVG Export Plug-In . SVG Version: 6.00 Build 0)  -->
<svg version="1.1" id="Layer_1" xmlns="http://www.w3.org/2000/svg" xmlns:xlink="http://www.w3.org/1999/xlink" x="0px" y="0px"
	 width="14px" height="14px" viewBox="0 0 14 14" enable-background="new 0 0 14 14" xml:space="preserve">
<path fill="#231F20" d="M7,5V3H5v2H3l1,2h5l2-2H7z"/>
<path fill="#231F20" d="M13,3h1l-1.5-3L11,3h1v5.1h-0.1c-0.3,0-0.6,0.4-0.9,0.5c-0.2,0.1-0.5,0.2-0.8,0.2S9.7,8.7,9.4,8.6
	C9.1,8.5,8.8,8.1,8.5,8.1S7.9,8.5,7.6,8.6C7.4,8.7,7.1,8.8,6.8,8.8S6.3,8.7,6,8.6C5.7,8.5,5.4,8.1,5.1,8.1S4.5,8.5,4.2,8.6
	C4,8.7,3.7,8.8,3.4,8.8S2.9,8.7,2.6,8.6C2.4,8.5,2.2,8.3,2,8.2V0H1v11H0l1.5,3L3,11H2V9.4c0.2,0.1,0.4,0.3,0.6,0.4
	C2.8,9.9,3.1,10,3.4,10S4,9.9,4.2,9.8c0.3-0.1,0.6-0.5,0.9-0.5S5.7,9.7,6,9.8C6.2,9.9,6.5,10,6.8,10s0.6-0.1,0.8-0.2
	c0.3-0.1,0.6-0.5,0.9-0.5s0.6,0.4,0.9,0.5C9.6,9.9,9.9,10,10.2,10s0.6-0.1,0.8-0.2c0.3-0.1,0.6-0.5,0.9-0.5H12V14h1V3z"/>
</svg>
