<?xml version="1.0" encoding="utf-8"?>
<!-- Generator: Adobe Illustrator 22.1.0, SVG Export Plug-In . SVG Version: 6.00 Build 0)  -->
<svg version="1.1" id="Layer_1" xmlns="http://www.w3.org/2000/svg" xmlns:xlink="http://www.w3.org/1999/xlink" x="0px" y="0px"
	 width="30px" height="30px" viewBox="0 0 30 30" enable-background="new 0 0 30 30" xml:space="preserve">
<path fill="#FFFFFF" d="M13.5,15C9.4,15,6,18.4,6,22.5S9.4,30,13.5,30s7.5-3.4,7.5-7.5S17.6,15,13.5,15z M13.5,28c-3,0-5.5-2.5-5.5-5.5
	c0-3,2.5-5.5,5.5-5.5s5.5,2.5,5.5,5.5C19,25.5,16.5,28,13.5,28z"/>
<path fill="#FFFFFF" d="M9,4.1C8.6,2.7,7,1.8,5.6,1.8c-0.9,0-2.5-0.3-2.5,1.1c0,1.4,1.8,1,2.7,1c0.5,0,1.1,0.5,1.3,1L7.8,7H0v2h8.2l0.4,1L0,18.5
	v2.9l9.3-9.3l3.2,10.3c0.2,0.6,0.8,0.9,1.3,0.7c0.6-0.2,0.9-0.8,0.7-1.3L9,4.1z"/>
<path fill="#FFFFFF" d="M30,4.5C30,2,28,0,25.5,0S21,2,21,4.5c0,0.2,0,7.5,0,7.5h9C30,12,30,4.7,30,4.5z M26,10h-1V6h1V10z M28.9,5h-6.9
	C22,4.8,22,4.7,22,4.5C22,2.6,23.6,1,25.5,1S29,2.6,29,4.5C29,4.7,29,4.8,28.9,5z"/>
</svg>
