<?xml version="1.0" encoding="utf-8"?>
<!-- Generator: Adobe Illustrator 24.2.0, SVG Export Plug-In . SVG Version: 6.00 Build 0)  -->
<svg version="1.1" id="Layer_1" xmlns="http://www.w3.org/2000/svg" xmlns:xlink="http://www.w3.org/1999/xlink" x="0px" y="0px"
	 width="22px" height="22px" viewBox="0 0 22 22" enable-background="new 0 0 22 22" xml:space="preserve">
<path  d="M11,8V5H8v3H5l0.7,2.5C5.9,11.4,6.6,12,7.5,12h5.3c0.7,0,1.4-0.4,1.8-1L17,8H11z"/>
<path  d="M22,5l-3-5l-3,5h2v8c-0.1,0-0.3,0.1-0.4,0.1c-0.4,0.2-0.8,0.3-1.3,0.3c-0.4,0-0.9-0.1-1.3-0.3
	c-0.4-0.2-0.9-0.3-1.4-0.3s-1,0.1-1.4,0.3c-0.4,0.2-0.8,0.3-1.3,0.3c-0.4,0-0.9-0.1-1.3-0.3c-0.4-0.2-0.9-0.3-1.4-0.3
	s-1,0.1-1.4,0.3c-0.4,0.2-0.8,0.3-1.3,0.3c-0.4,0-0.9-0.1-1.3-0.3c-0.1,0-0.1,0-0.2-0.1V0H2v12.9v2V17H0l3,5l3-5H4v-2
	c0.1,0,0.1,0,0.2,0.1c0.4,0.2,0.8,0.3,1.3,0.3c0.4,0,0.9-0.1,1.3-0.3c0.4-0.2,0.9-0.3,1.4-0.3s1,0.1,1.4,0.3
	c0.4,0.2,0.8,0.3,1.3,0.3c0.4,0,0.9-0.1,1.3-0.3c0.4-0.2,0.9-0.3,1.4-0.3s1,0.1,1.4,0.3c0.4,0.2,0.8,0.3,1.3,0.3
	c0.4,0,0.9-0.1,1.3-0.3C17.7,15,17.9,15,18,15v7h2v-7v-2V5H22z"/>
</svg>
