<?xml version="1.0" encoding="utf-8"?>
<!-- Generator: Adobe Illustrator 22.1.0, SVG Export Plug-In . SVG Version: 6.00 Build 0)  -->
<svg version="1.1" id="Layer_1" xmlns="http://www.w3.org/2000/svg" xmlns:xlink="http://www.w3.org/1999/xlink" x="0px" y="0px"
	 width="14px" height="14px" viewBox="0 0 14 14" enable-background="new 0 0 14 14" xml:space="preserve">
<path d="M14,4v10H0V4H14z M1,5v8h12V5H1z"/>
<path d="M11,11c0,1-1,1-1,1V8c0,0,1,0,1,1S11,11,11,11z"/>
<path d="M3,11c0,1,1,1,1,1V8c0,0-1,0-1,1S3,11,3,11z"/>
<path d="M10.5,1.4L10,0.8l-4.1,0C5.6,0.3,5.1,0,4.5,0C3.7,0,3,0.7,3,1.5S3.7,3,4.5,3c0.4,0,0.8-0.2,1.1-0.5l1.7,0L7.8,2l0.4,0.4
	L8.6,2L9,2.4L9.4,2l0.4,0.4l0,0l0.7-0.7C10.6,1.6,10.6,1.5,10.5,1.4z M5,2H4V1h1V2z"/>
<path d="M8.9,8V7.4C8.9,6.6,8.3,6,7.5,6h-1C5.7,6,5.1,6.6,5.1,7.4V8H5v4h4V8H8.9z M5.9,7.4c0-0.3,0.3-0.6,0.6-0.6h1
	c0.3,0,0.6,0.3,0.6,0.6V8H5.9V7.4z"/>
</svg>
