<?xml version="1.0" encoding="utf-8"?>
<!-- Generator: Adobe Illustrator 24.2.0, SVG Export Plug-In . SVG Version: 6.00 Build 0)  -->
<svg version="1.1" id="Layer_1" xmlns="http://www.w3.org/2000/svg" xmlns:xlink="http://www.w3.org/1999/xlink" x="0px" y="0px"
	 width="14px" height="14px" viewBox="0 0 14 14" enable-background="new 0 0 14 14" xml:space="preserve">
<path  d="M14,3l-1.5-3L11,3h1v5.9c-0.1,0-0.2,0-0.3,0c-0.8,0-1.2,0.5-1.5,0.8s-0.4,0.5-0.8,0.5C9,10.2,8.9,10,8.6,9.7
	C8.3,9.4,7.9,8.9,7.1,8.9c-0.8,0-1.2,0.5-1.5,0.8c-0.3,0.3-0.5,0.5-0.8,0.5C4.5,10.2,4.3,10,4,9.7S3.3,8.9,2.5,8.9
	C2.3,8.9,2.1,8.9,2,9V8V0H1v8.7V10v1H0l1.5,3L3,11H2v-0.9C2.2,10,2.3,9.9,2.5,9.9c0.3,0,0.5,0.2,0.8,0.5c0.3,0.3,0.7,0.8,1.5,0.8
	c0.8,0,1.2-0.5,1.5-0.8c0.3-0.3,0.4-0.5,0.8-0.5c0.4,0,0.5,0.2,0.8,0.5s0.7,0.8,1.5,0.8s1.2-0.5,1.5-0.8s0.5-0.5,0.8-0.5
	c0.1,0,0.2,0,0.3,0.1V14h1v-3.2V9.5V3H14z"/>
<polygon  points="7,5 7,3 5,3 5,5 3,5 4,8 9,8 11,5 "/>
</svg>
