<?xml version="1.0" encoding="utf-8"?>
<!-- Generator: Adobe Illustrator 22.1.0, SVG Export Plug-In . SVG Version: 6.00 Build 0)  -->
<svg version="1.1" id="Layer_1" xmlns="http://www.w3.org/2000/svg" xmlns:xlink="http://www.w3.org/1999/xlink" x="0px" y="0px"
	 width="30px" height="30px" viewBox="0 0 30 30" enable-background="new 0 0 30 30" xml:space="preserve">
<path fill="#FFFFFF" d="M30,10v20H0V10H30z M2,12v16h26V12H2z"/>
<path fill="#FFFFFF" d="M24,24c0,2-2,2-2,2h-1V16h1c0,0,2,0,2,2C24,19,24,24,24,24z"/>
<path fill="#FFFFFF" d="M6,24c0,2,2,2,2,2l1,0V16H8c0,0-2,0-2,2C6,19,6,24,6,24z"/>
<path fill="#FFFFFF" d="M16.9,16v-0.6c0-0.8-0.6-1.4-1.4-1.4h-1c-0.8,0-1.4,0.6-1.4,1.4V16H10v10h10V16H16.9z M13.9,15.4c0-0.3,0.3-0.6,0.6-0.6h1
	c0.3,0,0.6,0.3,0.6,0.6V16h-2.2V15.4z"/>
<path fill="#FFFFFF" d="M22.6,3l-1.2-1.2l-7.2,0C13.6,0.7,12.4,0,11.1,0c-2,0-3.6,1.6-3.6,3.6c0,2,1.6,3.6,3.6,3.6c1.3,0,2.5-0.7,3.1-1.8l1.4,0
	l1.1-1.1l0.9,0.9l0.9-0.9l0.9,0.9l0.9-0.9l0.9,0.9l0,0l1.5-1.5C22.8,3.4,22.8,3.2,22.6,3z M9.5,4.8c-0.7,0-1.2-0.6-1.2-1.2
	s0.6-1.2,1.2-1.2s1.2,0.6,1.2,1.2S10.2,4.8,9.5,4.8z"/>
</svg>
