<?xml version="1.0" encoding="utf-8"?>
<!-- Generator: Adobe Illustrator 22.1.0, SVG Export Plug-In . SVG Version: 6.00 Build 0)  -->
<svg version="1.1" id="Layer_1" xmlns="http://www.w3.org/2000/svg" xmlns:xlink="http://www.w3.org/1999/xlink" x="0px" y="0px"
	 width="14px" height="14px" viewBox="0 0 14 14" enable-background="new 0 0 14 14" xml:space="preserve">
<path d="M5.7,6.8 M4.8,7.1 M4.2,1.9C4,1.3,3.3,0.8,2.6,0.8c-0.4,0-1.2-0.1-1.2,0.5c0,0.7,0.8,0.5,1.2,0.5c0.2,0,0.5,0.2,0.6,0.5
	L3.7,3H0v1h3.8L4,4.6l-4,4V10l4.4-4.3l1.5,4.8c0.1,0.3,0.4,0.4,0.6,0.3c0.3-0.1,0.4-0.4,0.3-0.6L4.2,1.9z"/>
<path d="M6.5,7C4.6,7,3,8.6,3,10.5S4.6,14,6.5,14s3.5-1.6,3.5-3.5S8.4,7,6.5,7z M6.5,13C5.1,13,4,11.9,4,10.5C4,9.1,5.1,8,6.5,8
	S9,9.1,9,10.5C9,11.9,7.9,13,6.5,13z"/>
<path d="M11.5,0C10.1,0,9,0.9,9,2v4h5V2C14,0.9,12.9,0,11.5,0z M12,5h-1V3h1V5z M9.5,2c0-0.8,0.9-1.5,2-1.5s2,0.7,2,1.5H9.5z"/>
</svg>
