<?xml version="1.0" encoding="utf-8"?>
<!-- Generator: Adobe Illustrator 18.1.1, SVG Export Plug-In . SVG Version: 6.00 Build 0)  -->
<svg version="1.1" id="Icons" xmlns="http://www.w3.org/2000/svg" xmlns:xlink="http://www.w3.org/1999/xlink" x="0px" y="0px"
	 viewBox="0 0 16 16" enable-background="new 0 0 16 16" xml:space="preserve">
<g opacity="0.1">
	<polygon points="2,6 3,6 3,11 16,11 16,14 15,14 15,12 3,12 3,14 2,14 	"/>
	<polygon points="4,10 16,10 16,8 11,7 7,7 7,9 4,9 	"/>
	<rect x="4" y="6.5" width="2" height="1.5"/>
</g>
<g opacity="0.2">
	<polygon points="1,5 2,5 2,10 15,10 15,13 14,13 14,11 2,11 2,13 1,13 	"/>
	<polygon points="3,9 15,9 15,7 10,6 6,6 6,8 3,8 	"/>
	<rect x="3" y="5.5" width="2" height="1.5"/>
</g>
<g>
	<polygon points="0,4 1,4 1,9 14,9 14,12 13,12 13,10 1,10 1,12 0,12 	"/>
	<polygon points="2,8 14,8 14,6 9,5 5,5 5,7 2,7 	"/>
	<rect x="2" y="4.5" width="2" height="1.5"/>
</g>
</svg>
