<?xml version="1.0" encoding="utf-8"?>
<!-- Generator: Adobe Illustrator 18.1.1, SVG Export Plug-In . SVG Version: 6.00 Build 0)  -->
<svg version="1.1" id="Icons" xmlns="http://www.w3.org/2000/svg" xmlns:xlink="http://www.w3.org/1999/xlink" x="0px" y="0px"
	 viewBox="0 0 24 24" enable-background="new 0 0 24 24" xml:space="preserve">
<g opacity="0.1">
	<polygon points="2,7 4,7 4,15 24,15 24,20 22,20 22,17 4,17 4,20 2,20 	"/>
	<polygon points="5,14 24,14 24,11 23,10 15,9 9,9 9,12 5,12 	"/>
	<circle cx="6.5" cy="9.5" r="1.5"/>
</g>
<g opacity="0.2">
	<polygon points="1,6 3,6 3,14 23,14 23,19 21,19 21,16 3,16 3,19 1,19 	"/>
	<polygon points="4,13 23,13 23,10 22,9 14,8 8,8 8,11 4,11 	"/>
	<circle cx="5.5" cy="8.5" r="1.5"/>
</g>
<g>
	<polygon points="0,5 2,5 2,13 22,13 22,18 20,18 20,15 2,15 2,18 0,18 	"/>
	<polygon points="3,12 22,12 22,9 21,8 13,7 7,7 7,10 3,10 	"/>
	<circle cx="4.5" cy="7.5" r="1.5"/>
</g>
</svg>
