<?xml version="1.0" encoding="utf-8"?>
<!-- Generator: Adobe Illustrator 19.2.0, SVG Export Plug-In . SVG Version: 6.00 Build 0)  -->
<svg version="1.1" xmlns="http://www.w3.org/2000/svg" xmlns:xlink="http://www.w3.org/1999/xlink" x="0px" y="0px"
	 viewBox="0 0 16 16" style="enable-background:new 0 0 16 16;" xml:space="preserve">
<style type="text/css">
	.Shadow_x0020_20{opacity:0.2;}
	.Shadow_x0020_10{opacity:0.1;}
	.st0{fill:#FFFFFF;}
	.st1{opacity:0.5;}
	.st2{opacity:0.75;}
	.st3{fill:#E6E6E6;}
	.st4{display:none;}
</style>
<g id="builder_white_12">
</g>
<g id="builder_white_18">
</g>
<g id="builder_white_24">
</g>
<g id="buiilder_black_12">
</g>
<g id="builder_black_18">
</g>
<g id="builder_black_24">
</g>
<g id="standalone_slate_16">
</g>
<g id="standalone_slate_24">
</g>
<g id="standalone_slate_32">
</g>
<g id="standalone_white_16">
</g>
<g id="standalone_white_24_1_">
</g>
<g id="standalone_white_32">
</g>
<g id="standalone_black_16_1_">
	<path class="st4" d="M12,12v-2V9h-1V7V6h-1V5h2V2h-1V1H9V0H7.1v1H5v1H4v3h2v1H5v1v1v1H4v1v1v1H3v1v1h1h1v-1v-1h1v-1h1h2h1v1h1v1v1
		h1h1v-1v-1H12z M6,2h1.1H9h1v2H6V2z M7,9v1H6V9V8h1V9z M7,7V6V5h2v2H7z M10,10H9V9V8h1V10z"/>
	<path class="Shadow_x0020_10" d="M12.4,7H14V6V4l-4-2L6,4v2v1h1.6l-1.8,9h1l0.3-1.5l2.9-2.6l2.9,2.6l0.3,1.5h1L12.4,7z M7,5h6v1H7
		V5z M7.5,12.8L8,10.1l1.2,1.1L7.5,12.8z M8.2,8.9L8.6,7h2.8l0.4,1.9L10,10.5L8.2,8.9z M10.8,11.2l1.2-1.1l0.5,2.7L10.8,11.2z"/>
	<path class="Shadow_x0020_20" d="M11.4,6H13V5V3L9,1L5,3v2v1h1.6l-1.8,9h1l0.3-1.5L9,10.9l2.9,2.6l0.3,1.5h1L11.4,6z M6,4h6v1H6V4z
		 M6.5,11.8L7,9.1l1.2,1.1L6.5,11.8z M7.2,7.9L7.6,6h2.8l0.4,1.9L9,9.5L7.2,7.9z M9.8,10.2L11,9.1l0.5,2.7L9.8,10.2z"/>
	<path class="Black" d="M10.4,5H12V4V2L8,0L4,2v2v1h1.6l-1.8,9h1l0.3-1.5L8,9.9l2.9,2.6l0.3,1.5h1L10.4,5z M5,3h6v1H5V3z M5.5,10.8
		L6,8.1l1.2,1.1L5.5,10.8z M6.2,6.9L6.6,5h2.8l0.4,1.9L8,8.5L6.2,6.9z M8.8,9.2L10,8.1l0.5,2.7L8.8,9.2z"/>
</g>
<g id="standalone_black_24">
</g>
<g id="standalone_black_32">
</g>
<g id="HFC">
</g>
<g id="Labels">
</g>
<g id="Guildes">
</g>
</svg>
