<?xml version="1.0" encoding="UTF-8" standalone="no"?>
<svg width="16px" height="16px" viewBox="0 0 16 16" version="1.1" xmlns="http://www.w3.org/2000/svg" xmlns:xlink="http://www.w3.org/1999/xlink" xmlns:sketch="http://www.bohemiancoding.com/sketch/ns">
    <!-- Generator: Sketch 3.3.3 (12072) - http://www.bohemiancoding.com/sketch -->
    <title>lookout-tower-slate-16</title>
    <desc>Created with Sketch.</desc>
    <defs></defs>
    <g id="lookout-tower" stroke="none" stroke-width="1" fill="none" fill-rule="evenodd" sketch:type="MSPage">
        <g id="lookout-tower-slate-16" sketch:type="MSArtboardGroup">
            <path d="M6.82318713,16 L8.23380297,8 L7,8 L7,5 L13,5 L13,8 L11.6611347,8 L11.6611347,8 L13.0717506,16 L12.056324,16 L11.351016,12 L8.54392166,12 L8.54392166,12 L7.83861374,16 L6.82318713,16 Z M7.44775466,18 L7.48480775,18.0065335 L7.48595978,18 L7.44775466,18 Z M12.4089779,18 L12.41013,18.0065335 L12.4471831,18 L12.4089779,18 Z M10.6457081,8 L9.24922959,8 L9.24922959,8 L8.72024864,11 L11.1746891,11 L10.6457081,8 L10.6457081,8 Z M10,3 L13,5 L7,5 L10,3 Z M8,6 L12,6 L12,7 L8,7 L8,6 Z" id="symbol" fill-opacity="0.5" fill="#1A1918" sketch:type="MSShapeGroup"></path>
            <path d="M5.82318713,15 L7.23380297,7 L6,7 L6,4 L12,4 L12,7 L10.6611347,7 L10.6611347,7 L12.0717506,15 L11.056324,15 L10.351016,11 L7.54392166,11 L7.54392166,11 L6.83861374,15 L5.82318713,15 Z M6.44775466,17 L6.48480775,17.0065335 L6.48595978,17 L6.44775466,17 Z M11.4089779,17 L11.41013,17.0065335 L11.4471831,17 L11.4089779,17 Z M9.64570812,7 L8.24922959,7 L8.24922959,7 L7.72024864,10 L10.1746891,10 L9.64570812,7 L9.64570812,7 Z M9,2 L12,4 L6,4 L9,2 Z M7,5 L11,5 L11,6 L7,6 L7,5 Z" id="symbol-copy-3" fill-opacity="0.75" fill="#1A1918" sketch:type="MSShapeGroup"></path>
            <path d="M4.82318713,14 L6.23380297,6 L5,6 L5,3 L11,3 L11,6 L9.66113473,6 L9.66113473,6 L11.0717506,14 L10.056324,14 L9.35101604,10 L6.54392166,10 L6.54392166,10 L5.83861374,14 L4.82318713,14 Z M5.44775466,16 L5.48480775,16.0065335 L5.48595978,16 L5.44775466,16 Z M10.4089779,16 L10.41013,16.0065335 L10.4471831,16 L10.4089779,16 Z M8.64570812,6 L7.24922959,6 L7.24922959,6 L6.72024864,9 L9.17468906,9 L8.64570812,6 L8.64570812,6 Z M8,1 L11,3 L5,3 L8,1 Z M6,4 L10,4 L10,5 L6,5 L6,4 Z" id="symbol-copy-4" fill="#E6E6E6" sketch:type="MSShapeGroup"></path>
        </g>
    </g>
</svg>