<?xml version="1.0" encoding="utf-8"?>
<!-- Generator: Adobe Illustrator 19.2.0, SVG Export Plug-In . SVG Version: 6.00 Build 0)  -->
<svg version="1.1" xmlns="http://www.w3.org/2000/svg" xmlns:xlink="http://www.w3.org/1999/xlink" x="0px" y="0px"
	 viewBox="0 0 24 24" style="enable-background:new 0 0 24 24;" xml:space="preserve">
<style type="text/css">
	.Shadow_x0020_75{opacity:0.75;}
	.Shadow_x0020_50{opacity:0.5;}
	.Slate{fill:#E6E6E6;}
	.st0{fill:#FFFFFF;}
	.st1{display:none;}
	.st2{opacity:0.1;}
	.st3{opacity:0.2;}
</style>
<g id="builder_white_12">
</g>
<g id="builder_white_18">
</g>
<g id="builder_white_24">
</g>
<g id="buiilder_black_12">
</g>
<g id="builder_black_18">
</g>
<g id="builder_black_24">
</g>
<g id="standalone_slate_16">
</g>
<g id="standalone_slate_24">
</g>
<g id="standalone_slate_32">
</g>
<g id="standalone_white_16">
	<g class="Shadow_x0020_50">
		<g>
			<path d="M9.3,22.6l4.7-5.6l4.6,5.6L19,24h1.5l-0.3-1.2L20,21.9L17,9h-1.5l0.7,3l-2.1,2.5l-2.2-2.7L12.5,9H11L8,21.9l-0.2,0.9
				L7.5,24H9L9.3,22.6z M16.6,13.8l1.3,5.4L15,15.7L16.6,13.8z M11.4,13.7l1.6,2l-3,3.6L11.4,13.7z"/>
			<path d="M14,2L9,5v5h2h6h2V5L14,2z M17,8h-6V6h6V8z"/>
		</g>
		<g>
			<path d="M9.3,22.6l4.7-5.6l4.6,5.6L19,24h1.5l-0.3-1.2L20,21.9L17,9h-1.5l0.7,3l-2.1,2.5l-2.2-2.7L12.5,9H11L8,21.9l-0.2,0.9
				L7.5,24H9L9.3,22.6z M16.6,13.8l1.3,5.4L15,15.7L16.6,13.8z M11.4,13.7l1.6,2l-3,3.6L11.4,13.7z"/>
			<path d="M14,2L9,5v5h2h6h2V5L14,2z M17,8h-6V6h6V8z"/>
		</g>
	</g>
	<g class="Shadow_x0020_75">
		<g>
			<path d="M8.3,21.6l4.7-5.6l4.6,5.6L18,23h1.5l-0.3-1.2L19,20.9L16,8h-1.5l0.7,3l-2.1,2.5l-2.2-2.7L11.5,8H10L7,20.9l-0.2,0.9
				L6.5,23H8L8.3,21.6z M15.6,12.8l1.3,5.4L14,14.7L15.6,12.8z M10.4,12.7l1.6,2l-3,3.6L10.4,12.7z"/>
			<path d="M13,1L8,4v5h2h6h2V4L13,1z M16,7h-6V5h6V7z"/>
		</g>
		<g>
			<path d="M8.3,21.6l4.7-5.6l4.6,5.6L18,23h1.5l-0.3-1.2L19,20.9L16,8h-1.5l0.7,3l-2.1,2.5l-2.2-2.7L11.5,8H10L7,20.9l-0.2,0.9
				L6.5,23H8L8.3,21.6z M15.6,12.8l1.3,5.4L14,14.7L15.6,12.8z M10.4,12.7l1.6,2l-3,3.6L10.4,12.7z"/>
			<path d="M13,1L8,4v5h2h6h2V4L13,1z M16,7h-6V5h6V7z"/>
		</g>
	</g>
	<g>
		<g>
			<path class="Slate" d="M7.3,20.6l4.7-5.6l4.6,5.6L17,22h1.5l-0.3-1.2L18,19.9L15,7h-1.5l0.7,3l-2.1,2.5L9.9,9.9L10.5,7H9L6,19.9
				l-0.2,0.9L5.5,22H7L7.3,20.6z M14.6,11.8l1.3,5.4L13,13.7L14.6,11.8z M9.4,11.7l1.6,2l-3,3.6L9.4,11.7z"/>
			<path class="Slate" d="M12,0L7,3v5h2h6h2V3L12,0z M15,6H9V4h6V6z"/>
		</g>
	</g>
</g>
<g id="standalone_white_24_1_">
</g>
<g id="standalone_white_32">
</g>
<g id="standalone_black_16_1_">
</g>
<g id="standalone_black_24">
</g>
<g id="standalone_black_32">
</g>
<g id="HFC">
</g>
<g id="Labels">
</g>
<g id="Guildes">
</g>
</svg>
