<?xml version="1.0" encoding="utf-8"?>
<!-- Generator: Adobe Illustrator 19.2.0, SVG Export Plug-In . SVG Version: 6.00 Build 0)  -->
<svg version="1.1" xmlns="http://www.w3.org/2000/svg" xmlns:xlink="http://www.w3.org/1999/xlink" x="0px" y="0px"
	 viewBox="0 0 16 16" style="enable-background:new 0 0 16 16;" xml:space="preserve">
<style type="text/css">
	.Shadow_x0020_75{opacity:0.75;}
	.Shadow_x0020_50{opacity:0.5;}
	.Slate{fill:#E6E6E6;}
	.st0{fill:#FFFFFF;}
	.st1{display:none;}
	.st2{opacity:0.1;}
	.st3{opacity:0.2;}
</style>
<g id="builder_white_12">
</g>
<g id="builder_white_18">
</g>
<g id="builder_white_24">
</g>
<g id="buiilder_black_12">
</g>
<g id="builder_black_18">
</g>
<g id="builder_black_24">
</g>
<g id="standalone_slate_16">
	<path class="Shadow_x0020_50" d="M12.4,7H14V6V4l-4-2L6,4v2v1h1.6l-1.8,9h1l0.3-1.5l2.9-2.6l2.9,2.6l0.3,1.5h1L12.4,7z M7,5h6v1H7
		V5z M7.5,12.8L8,10.1l1.2,1.1L7.5,12.8z M8.2,8.9L8.6,7h2.8l0.4,1.9L10,10.5L8.2,8.9z M10.8,11.2l1.2-1.1l0.5,2.7L10.8,11.2z"/>
	<path class="Shadow_x0020_75" d="M11.4,6H13V5V3L9,1L5,3v2v1h1.6l-1.8,9h1l0.3-1.5L9,10.9l2.9,2.6l0.3,1.5h1L11.4,6z M6,4h6v1H6V4z
		 M6.5,11.8L7,9.1l1.2,1.1L6.5,11.8z M7.2,7.9L7.6,6h2.8l0.4,1.9L9,9.5L7.2,7.9z M9.8,10.2L11,9.1l0.5,2.7L9.8,10.2z"/>
	<path class="Slate" d="M10.4,5H12V4V2L8,0L4,2v2v1h1.6l-1.8,9h1l0.3-1.5L8,9.9l2.9,2.6l0.3,1.5h1L10.4,5z M5,3h6v1H5V3z M5.5,10.8
		L6,8.1l1.2,1.1L5.5,10.8z M6.2,6.9L6.6,5h2.8l0.4,1.9L8,8.5L6.2,6.9z M8.8,9.2L10,8.1l0.5,2.7L8.8,9.2z"/>
</g>
<g id="standalone_slate_24">
</g>
<g id="standalone_slate_32">
</g>
<g id="standalone_white_16">
</g>
<g id="standalone_white_24_1_">
</g>
<g id="standalone_white_32">
</g>
<g id="standalone_black_16_1_">
</g>
<g id="standalone_black_24">
</g>
<g id="standalone_black_32">
</g>
<g id="HFC">
</g>
<g id="Labels">
</g>
<g id="Guildes">
</g>
</svg>
