<?xml version="1.0" encoding="UTF-8" standalone="no"?>
<svg width="32px" height="32px" viewBox="0 0 32 32" version="1.1" xmlns="http://www.w3.org/2000/svg" xmlns:xlink="http://www.w3.org/1999/xlink" xmlns:sketch="http://www.bohemiancoding.com/sketch/ns">
    <!-- Generator: Sketch 3.3.3 (12072) - http://www.bohemiancoding.com/sketch -->
    <title>lookout-tower-white-32</title>
    <desc>Created with Sketch.</desc>
    <defs></defs>
    <g id="lookout-tower" stroke="none" stroke-width="1" fill="none" fill-rule="evenodd" sketch:type="MSPage">
        <g id="lookout-tower-white-32" sketch:type="MSArtboardGroup">
            <path d="M23.9969467,32 L23.639493,30.3183125 L17.5,22.73667 L11.360507,30.3183125 L11.360507,30.3183125 L11.0030533,32 L8.95837207,32 L12.9969467,13 L11,13 L11,7 L24,7 L24,13 L22.0030533,13 L26.0416279,32 L23.9969467,32 L23.9969467,32 Z M13.9134517,18.3076517 L12.2764367,26.009202 L16.2132404,21.1476543 L13.9134517,18.3076517 L13.9134517,18.3076517 Z M14.4485164,15.7903702 L15.0416279,13 L15.0416279,13 L19.9583721,13 L19.9583721,13 L20.5514836,15.7903702 L17.5,19.5586385 L14.4485164,15.7903702 L14.4485164,15.7903702 Z M22.7235633,26.009202 L21.0865483,18.3076517 L18.7867596,21.1476543 L22.7235633,26.009202 L22.7235633,26.009202 Z M17.5,4 L24,7 L11,7 L17.5,4 Z M13,8 L22,8 L22,11 L13,11 L13,8 Z" id="symbol" fill-opacity="0.5" fill="#000000" sketch:type="MSShapeGroup"></path>
            <path d="M22.9969467,31 L22.639493,29.3183125 L16.5,21.73667 L10.360507,29.3183125 L10.360507,29.3183125 L10.0030533,31 L7.95837207,31 L11.9969467,12 L10,12 L10,6 L23,6 L23,12 L21.0030533,12 L25.0416279,31 L22.9969467,31 L22.9969467,31 Z M12.9134517,17.3076517 L11.2764367,25.009202 L15.2132404,20.1476543 L12.9134517,17.3076517 L12.9134517,17.3076517 Z M13.4485164,14.7903702 L14.0416279,12 L14.0416279,12 L18.9583721,12 L18.9583721,12 L19.5514836,14.7903702 L16.5,18.5586385 L13.4485164,14.7903702 L13.4485164,14.7903702 Z M21.7235633,25.009202 L20.0865483,17.3076517 L17.7867596,20.1476543 L21.7235633,25.009202 L21.7235633,25.009202 Z M16.5,3 L23,6 L10,6 L16.5,3 Z M12,7 L21,7 L21,10 L12,10 L12,7 Z" id="symbol-copy" fill-opacity="0.75" fill="#000000" sketch:type="MSShapeGroup"></path>
            <path d="M21.9969467,30 L21.639493,28.3183125 L15.5,20.73667 L9.36050698,28.3183125 L9.36050698,28.3183125 L9.00305326,30 L6.95837207,30 L10.9969467,11 L9,11 L9,5 L22,5 L22,11 L20.0030533,11 L24.0416279,30 L21.9969467,30 L21.9969467,30 Z M11.9134517,16.3076517 L10.2764367,24.009202 L14.2132404,19.1476543 L11.9134517,16.3076517 L11.9134517,16.3076517 Z M12.4485164,13.7903702 L13.0416279,11 L13.0416279,11 L17.9583721,11 L17.9583721,11 L18.5514836,13.7903702 L15.5,17.5586385 L12.4485164,13.7903702 L12.4485164,13.7903702 Z M20.7235633,24.009202 L19.0865483,16.3076517 L16.7867596,19.1476543 L20.7235633,24.009202 L20.7235633,24.009202 Z M15.5,2 L22,5 L9,5 L15.5,2 Z M11,6 L20,6 L20,9 L11,9 L11,6 Z" id="symbol-copy-2" fill="#FFFFFF" sketch:type="MSShapeGroup"></path>
        </g>
    </g>
</svg>