<?xml version="1.0" encoding="utf-8"?>
<!-- Generator: Adobe Illustrator 19.2.0, SVG Export Plug-In . SVG Version: 6.00 Build 0)  -->
<svg version="1.1" xmlns="http://www.w3.org/2000/svg" xmlns:xlink="http://www.w3.org/1999/xlink" x="0px" y="0px"
	 viewBox="0 0 32 32" style="enable-background:new 0 0 32 32;" xml:space="preserve">
<style type="text/css">
	.Shadow_x0020_20{opacity:0.2;}
	.Shadow_x0020_10{opacity:0.1;}
	.st0{fill:#FFFFFF;}
	.st1{opacity:0.5;}
	.st2{opacity:0.75;}
	.st3{fill:#E6E6E6;}
	.st4{display:none;}
</style>
<g id="builder_white_12">
</g>
<g id="builder_white_18">
</g>
<g id="builder_white_24">
</g>
<g id="buiilder_black_12">
</g>
<g id="builder_black_18">
</g>
<g id="builder_black_24">
</g>
<g id="standalone_slate_16">
</g>
<g id="standalone_slate_24">
</g>
<g id="standalone_slate_32">
</g>
<g id="standalone_white_16">
</g>
<g id="standalone_white_24_1_">
</g>
<g id="standalone_white_32">
</g>
<g id="standalone_black_16_1_">
</g>
<g id="standalone_black_24">
</g>
<g id="standalone_black_32">
	<path class="Shadow_x0020_10" d="M22.3,12H23h2V5l-7-3l-7,3v7h2h0.7L9.2,32h2.1l0.5-2.4l6.2-7.3l6.2,7.3l0.5,2.4h2.1L22.3,12z
		 M13,6h10v4H13V6z M12.8,25.4l1.7-7.3l2.3,2.7L12.8,25.4z M18,19.2l-3-3.6l0.8-3.6h4.4l0.8,3.6L18,19.2z M19.3,20.7l2.3-2.7
		l1.7,7.3L19.3,20.7z"/>
	<path class="Shadow_x0020_20" d="M21.3,11H22h2V4l-7-3l-7,3v7h2h0.7L8.2,31h2.1l0.5-2.4l6.2-7.3l6.2,7.3l0.5,2.4h2.1L21.3,11z
		 M12,5h10v4H12V5z M11.8,24.4l1.7-7.3l2.3,2.7L11.8,24.4z M17,18.2l-3-3.6l0.8-3.6h4.4l0.8,3.6L17,18.2z M18.3,19.7l2.3-2.7
		l1.7,7.3L18.3,19.7z"/>
	<path class="Black" d="M20.3,10H21h2V3l-7-3L9,3v7h2h0.7L7.2,30h2.1l0.5-2.4l6.2-7.3l6.2,7.3l0.5,2.4h2.1L20.3,10z M11,4h10v4H11V4
		z M10.8,23.4l1.7-7.3l2.3,2.7L10.8,23.4z M16,17.2l-3-3.6l0.8-3.6h4.4l0.8,3.6L16,17.2z M17.3,18.7l2.3-2.7l1.7,7.3L17.3,18.7z"/>
</g>
<g id="HFC">
</g>
<g id="Labels">
</g>
<g id="Guildes">
</g>
</svg>
