<?xml version="1.0" encoding="utf-8"?>
<!-- Generator: Adobe Illustrator 20.0.0, SVG Export Plug-In . SVG Version: 6.00 Build 0)  -->
<svg version="1.1" id="Layer_2" xmlns="http://www.w3.org/2000/svg" xmlns:xlink="http://www.w3.org/1999/xlink" x="0px" y="0px"
	 width="22px" height="22px" viewBox="0 0 22 22" enable-background="new 0 0 22 22" xml:space="preserve">
<path fill="#FFFFFF" d="M14.6,7.1l-1.5,0.3l0.5,2.3L11,12.1L8.4,9.7l0.5-2.3L7.4,7.1L4.2,22h1.5l0.8-3.6l4.5-4.2l4.5,4.2l0.8,3.6h1.5L14.6,7.1z
	 M7.1,15.8l1-4.4l1.9,1.8L7.1,15.8z M12.1,13.2l1.9-1.8l0.9,4.4L12.1,13.2z"/>
<path fill="#FFFFFF" d="M16,8V3l-5-2L6,3v5H16z M7,4h8v2H7V4z"/>
</svg>
