<?xml version="1.0" encoding="UTF-8" standalone="no"?>
<svg width="24px" height="24px" viewBox="0 0 24 24" version="1.1" xmlns="http://www.w3.org/2000/svg" xmlns:xlink="http://www.w3.org/1999/xlink" xmlns:sketch="http://www.bohemiancoding.com/sketch/ns">
    <!-- Generator: Sketch 3.3.3 (12072) - http://www.bohemiancoding.com/sketch -->
    <title>lookout-tower-white-24</title>
    <desc>Created with Sketch.</desc>
    <defs></defs>
    <g id="lookout-tower" stroke="none" stroke-width="1" fill="none" fill-rule="evenodd" sketch:type="MSPage">
        <g id="lookout-tower-white-24" sketch:type="MSArtboardGroup">
            <path d="M9.28758755,24 L9.60156004,22.5228756 L9.60156004,22.5228756 L10.0644325,21.9938785 L14,17.4960871 L17.9355675,21.9938785 L18.39844,22.5228756 L18.7124125,24 L20.2459233,24 L17.482688,11 L19,11 L19,6 L9,6 L9,11 L10.517312,11 L7.75407666,24 L9.28758755,24 L9.28758755,24 Z M11.7104087,12.6015228 L12.0508229,11 L12.0508229,11 L15.9491771,11 L15.9491771,11 L16.2895913,12.6015228 L15.9355675,13.0061215 L14,15.2181987 L12.0644325,13.0061215 L11.7104087,12.6015228 L11.7104087,12.6015228 Z M11.3208587,14.4342113 L10.2410978,19.5140869 L13.0034238,16.3571429 L11.3208587,14.4342113 L11.3208587,14.4342113 Z M17.7589022,19.5140869 L16.6791413,14.4342113 L14.9965762,16.3571429 L17.7589022,19.5140869 L17.7589022,19.5140869 Z M14,4 L19,6 L9,6 L14,4 Z M11,7 L17,7 L17,9 L11,9 L11,7 Z" id="symbol" fill-opacity="0.5" fill="#000000" sketch:type="MSShapeGroup"></path>
            <path d="M8.28758755,23 L8.60156004,21.5228756 L8.60156004,21.5228756 L9.06443252,20.9938785 L13,16.4960871 L16.9355675,20.9938785 L17.39844,21.5228756 L17.7124125,23 L19.2459233,23 L16.482688,10 L18,10 L18,5 L8,5 L8,10 L9.51731196,10 L6.75407666,23 L8.28758755,23 L8.28758755,23 Z M10.7104087,11.6015228 L11.0508229,10 L11.0508229,10 L14.9491771,10 L14.9491771,10 L15.2895913,11.6015228 L14.9355675,12.0061215 L13,14.2181987 L11.0644325,12.0061215 L10.7104087,11.6015228 L10.7104087,11.6015228 Z M10.3208587,13.4342113 L9.24109782,18.5140869 L12.0034238,15.3571429 L10.3208587,13.4342113 L10.3208587,13.4342113 Z M16.7589022,18.5140869 L15.6791413,13.4342113 L13.9965762,15.3571429 L16.7589022,18.5140869 L16.7589022,18.5140869 Z M13,3 L18,5 L8,5 L13,3 Z M10,6 L16,6 L16,8 L10,8 L10,6 Z" id="symbol-copy" fill-opacity="0.75" fill="#000000" sketch:type="MSShapeGroup"></path>
            <path d="M7.28758755,22 L7.60156004,20.5228756 L7.60156004,20.5228756 L8.06443252,19.9938785 L12,15.4960871 L15.9355675,19.9938785 L16.39844,20.5228756 L16.7124125,22 L18.2459233,22 L15.482688,9 L17,9 L17,4 L7,4 L7,9 L8.51731196,9 L5.75407666,22 L7.28758755,22 L7.28758755,22 Z M9.71040866,10.6015228 L10.0508229,9 L10.0508229,9 L13.9491771,9 L13.9491771,9 L14.2895913,10.6015228 L13.9355675,11.0061215 L12,13.2181987 L10.0644325,11.0061215 L9.71040866,10.6015228 L9.71040866,10.6015228 Z M9.32085871,12.4342113 L8.24109782,17.5140869 L11.0034238,14.3571429 L9.32085871,12.4342113 L9.32085871,12.4342113 Z M15.7589022,17.5140869 L14.6791413,12.4342113 L12.9965762,14.3571429 L15.7589022,17.5140869 L15.7589022,17.5140869 Z M12,2 L17,4 L7,4 L12,2 Z M9,5 L15,5 L15,7 L9,7 L9,5 Z" id="symbol-copy-2" fill="#FFFFFF" sketch:type="MSShapeGroup"></path>
        </g>
    </g>
</svg>