<?xml version="1.0" encoding="utf-8"?>
<!-- Generator: Adobe Illustrator 22.0.1, SVG Export Plug-In . SVG Version: 6.00 Build 0)  -->
<svg version="1.1" id="Layer_1" xmlns="http://www.w3.org/2000/svg" xmlns:xlink="http://www.w3.org/1999/xlink" x="0px" y="0px"
	 width="22px" height="22px" viewBox="0 0 22 22" enable-background="new 0 0 22 22" xml:space="preserve">
<path fill="#FFFFFF" d="M14.1,0.8H11H7.9c-2.6,0-4.7,2.1-4.7,4.7v1.6c0,0,0,0.1,0,0.1c1.8,0.4,3.1,2,3.1,3.8v0.5c0.5,0.2,1,0.3,1.6,0.3H11h3.1
	c0.6,0,1.1-0.1,1.6-0.3V11c0-1.9,1.3-3.5,3.1-3.8c0,0,0-0.1,0-0.1V5.5C18.9,2.9,16.7,0.8,14.1,0.8z"/>
<path fill="#FFFFFF" d="M15,21H7c-0.6,0-1-0.5-1-1v-1c0-0.5,0.4-1,1-1h8c0.6,0,1,0.5,1,1v1C16,20.5,15.6,21,15,21z"/>
<path fill="#FFFFFF" d="M15,17H7c-0.6,0-1-0.5-1-1v-2c0-0.6,0.4-1,1-1h8c0.6,0,1,0.4,1,1v2C16,16.5,15.6,17,15,17z"/>
<path fill="#FFFFFF" d="M5,10.5C5,9.1,3.9,8,2.5,8S0,9.1,0,10.5c0,0.3,0,1.3,0,1.3V21h5v-9.2C5,11.8,5,10.6,5,10.5z"/>
<path fill="#FFFFFF" d="M22,10.5C22,9.1,20.9,8,19.5,8S17,9.1,17,10.5c0,0.3,0,1.3,0,1.3V21h5v-9.2C22,11.8,22,10.6,22,10.5z"/>
</svg>
