<?xml version="1.0" encoding="utf-8"?>
<!-- Generator: Adobe Illustrator 22.0.1, SVG Export Plug-In . SVG Version: 6.00 Build 0)  -->
<svg version="1.1" id="Layer_1" xmlns="http://www.w3.org/2000/svg" xmlns:xlink="http://www.w3.org/1999/xlink" x="0px" y="0px"
	 width="14px" height="14px" viewBox="0 0 14 14" enable-background="new 0 0 14 14" xml:space="preserve">
<path fill="#FFFFFF" d="M14,7.5C14,6.7,13.3,6,12.5,6S11,6.7,11,7.5C11,7.7,11,8,11,8v6h3V8C14,8,14,7.7,14,7.5z"/>
<path fill="#FFFFFF" d="M3,7.5C3,6.7,2.3,6,1.5,6S0,6.7,0,7.5C0,7.7,0,8,0,8v6h3V8C3,8,3,7.7,3,7.5z"/>
<rect fill="#FFFFFF" x="4" y="12" width="6" height="2"/>
<rect fill="#FFFFFF" x="4" y="9" width="6" height="2"/>
<path fill="#FFFFFF" d="M9,1H7H5C3.3,1,2,2.3,2,4v1c0,0,0,0,0,0.1c1.1,0.2,2,1.2,2,2.4v0.3C4.3,7.9,4.6,8,5,8h2h2c0.4,0,0.7-0.1,1-0.2V7.5
	c0-1.2,0.9-2.2,2-2.4c0,0,0,0,0-0.1V4C12,2.3,10.7,1,9,1z"/>
</svg>
