<?xml version="1.0" encoding="utf-8"?>
<!-- Generator: Adobe Illustrator 22.0.1, SVG Export Plug-In . SVG Version: 6.00 Build 0)  -->
<svg version="1.1" id="Layer_1" xmlns="http://www.w3.org/2000/svg" xmlns:xlink="http://www.w3.org/1999/xlink" x="0px" y="0px"
	 width="30px" height="30px" viewBox="0 0 30 30" enable-background="new 0 0 30 30" xml:space="preserve">
<path d="M19.3,1.2H15h-4.3c-3.5,0-6.4,2.9-6.4,6.4v2.1c0,0,0,0.1,0,0.1c2.4,0.5,4.3,2.4,4.3,5v0.7C9.2,15.8,10,16,10.7,16H15h4.3
	c0.8,0,1.5-0.2,2.1-0.4v-0.7c0-2.6,1.8-4.5,4.3-5c0,0,0-0.1,0-0.1V7.6C25.7,4.1,22.8,1.2,19.3,1.2z"/>
<path d="M29,12c-0.6-0.6-1.5-1-2.5-1c-1.9,0-3.5,1.6-3.5,3.5c0,0.4,0,14.5,0,14.5h7c0,0,0-14.4,0-14.5C30,13.5,29.6,12.7,29,12z"/>
<path d="M6,12c-0.6-0.6-1.5-1-2.5-1C1.6,11,0,12.6,0,14.5C0,14.9,0,29,0,29h7c0,0,0-14.4,0-14.5C7,13.5,6.6,12.7,6,12z"/>
<path d="M21,29H9c-0.6,0-1-0.5-1-1v-2c0-0.5,0.4-1,1-1h12c0.5,0,1,0.5,1,1v2C22,28.5,21.5,29,21,29z"/>
<path d="M21,23H9c-0.6,0-1-0.5-1-1v-3c0-0.5,0.4-1,1-1h12c0.5,0,1,0.5,1,1v3C22,22.5,21.5,23,21,23z"/>
</svg>
