<?xml version="1.0" encoding="utf-8"?>
<!-- Generator: Adobe Illustrator 22.0.1, SVG Export Plug-In . SVG Version: 6.00 Build 0)  -->
<svg version="1.1" id="Layer_1" xmlns="http://www.w3.org/2000/svg" xmlns:xlink="http://www.w3.org/1999/xlink" x="0px" y="0px"
	 width="14px" height="14px" viewBox="0 0 14 14" enable-background="new 0 0 14 14" xml:space="preserve">
<path fill="#FFFFFF" d="M8.6,7.1L5.1,2.8C5,2.5,3.9,2.4,3.5,2.8L1.8,5.9l0.4,2.6c0.4,0.7,1.3,0,1-0.4L3,6.3l0.7-1.4l0,3.3L2.1,13
	c-0.3,1,1.2,1.4,1.5,0.5l1.9-5.3l0-2.7l-0.9-1c0-0.1,0-0.1,0-0.2c0.1,0,0.1,0,0.2,0l2.9,3.4C8.2,8.4,9.1,7.7,8.6,7.1z"/>
<path fill="#FFFFFF" d="M7.3,12.9L5.6,8.7l-0.7,2l1,2.9C6.3,14.5,7.7,13.9,7.3,12.9z"/>
<path fill="#FFFFFF" d="M11.8,13.9C11.8,13.9,11.9,13.9,11.8,13.9c0.1,0.1,0.2,0.1,0.3,0c0.1-0.1,0.1-0.2,0-0.2L8.9,8.1c0,0,0,0,0,0
	C8.8,8,8.7,8,8.6,8.1c-0.1,0.1-0.1,0.2,0,0.2L11.8,13.9z"/>
<circle fill="#FFFFFF" cx="5" cy="1" r="1"/>
</svg>
