<?xml version="1.0" encoding="utf-8"?>
<!-- Generator: Adobe Illustrator 22.0.1, SVG Export Plug-In . SVG Version: 6.00 Build 0)  -->
<svg version="1.1" id="Layer_1" xmlns="http://www.w3.org/2000/svg" xmlns:xlink="http://www.w3.org/1999/xlink" x="0px" y="0px"
	 width="30px" height="30px" viewBox="0 0 30 30" enable-background="new 0 0 30 30" xml:space="preserve">
<path fill="#FFFFFF" d="M11.8,2.3c0-1.3-1-2.3-2.3-2.3C8.1,0,7.1,1,7.1,2.3c0,1.3,1,2.4,2.4,2.4C10.7,4.7,11.8,3.6,11.8,2.3L11.8,2.3z"/>
<path fill="#FFFFFF" d="M18.5,15.1L11,6C10.6,5.5,8.5,5.2,7.5,6l-3.6,6.6l0.9,5.6c0.9,1.5,2.7,0,2.2-0.8l-0.6-4l1.5-2.9l-0.1,7.1L4.5,27.8
	c-0.6,2.2,2.6,3.1,3.2,1l4.1-11.3l0-5.7L9.9,9.6c-0.1-0.1-0.1-0.3,0-0.4c0.1-0.1,0.3-0.1,0.4,0l6.2,7.4C17.5,18,19.5,16.5,18.5,15.1
	z"/>
<path fill="#FFFFFF" d="M15.6,27.7L12,18.6l-1.5,4.2l2.1,6.2C13.5,31,16.5,29.8,15.6,27.7z"/>
<path fill="#FFFFFF" d="M25.4,29.8C25.4,29.8,25.4,29.8,25.4,29.8c0.2,0.2,0.4,0.2,0.6,0.1c0.2-0.1,0.2-0.4,0.1-0.5l-6.9-12c0,0,0,0,0,0
	c-0.1-0.2-0.4-0.2-0.6,0c-0.2,0.1-0.2,0.4-0.1,0.5L25.4,29.8z"/>
</svg>
