<?xml version="1.0" encoding="utf-8"?>
<!-- Generator: Adobe Illustrator 22.0.1, SVG Export Plug-In . SVG Version: 6.00 Build 0)  -->
<svg version="1.1" id="Layer_1" xmlns="http://www.w3.org/2000/svg" xmlns:xlink="http://www.w3.org/1999/xlink" x="0px" y="0px"
	 width="22px" height="22px" viewBox="0 0 22 22" enable-background="new 0 0 22 22" xml:space="preserve">
<path fill="#FFFFFF" d="M8.6,1.7C8.6,0.8,7.9,0,6.9,0C6,0,5.2,0.8,5.2,1.7c0,1,0.8,1.7,1.7,1.7C7.9,3.4,8.6,2.7,8.6,1.7L8.6,1.7z"/>
<path fill="#FFFFFF" d="M13.6,11.1L8.1,4.4C7.8,4,6.2,3.8,5.5,4.4L2.9,9.2l0.7,4.1c0.7,1.1,2,0,1.6-0.6L4.7,9.8l1.1-2.1l-0.1,5.2l-2.4,7.5
	c-0.5,1.6,1.9,2.3,2.3,0.7l3-8.3l0-4.2L7.2,7c-0.1-0.1-0.1-0.2,0-0.3c0.1-0.1,0.2-0.1,0.3,0l4.6,5.4C12.8,13.2,14.3,12.1,13.6,11.1z
	"/>
<path fill="#FFFFFF" d="M11.5,20.3l-2.7-6.7l-1.1,3.1l1.6,4.5C9.9,22.7,12.1,21.8,11.5,20.3z"/>
<path fill="#FFFFFF" d="M18.6,21.9C18.6,21.9,18.6,21.9,18.6,21.9c0.1,0.1,0.3,0.2,0.4,0.1c0.1-0.1,0.1-0.3,0.1-0.4L14,12.7c0,0,0,0,0,0
	c-0.1-0.1-0.3-0.1-0.4,0c-0.1,0.1-0.1,0.3-0.1,0.4L18.6,21.9z"/>
</svg>
