<?xml version="1.0" encoding="utf-8"?>
<!-- Generator: Adobe Illustrator 22.0.1, SVG Export Plug-In . SVG Version: 6.00 Build 0)  -->
<svg version="1.1" id="Layer_1" xmlns="http://www.w3.org/2000/svg" xmlns:xlink="http://www.w3.org/1999/xlink" x="0px" y="0px"
	 width="30px" height="30px" viewBox="0 0 30 30" enable-background="new 0 0 30 30" xml:space="preserve">
<path fill="#FFFFFF" d="M11.5,5.7c0.4-0.3,0.9-0.5,1.4-0.6V0L0,4.3V30l12.9-4.3V6.9c-0.2,0.1-0.3,0.2-0.5,0.3L11.5,5.7z M1.6,18.5l0-1.7
	c0,0,1,0,2.2-0.6l0.7,1.5C3,18.5,1.6,18.5,1.6,18.5z M5.8,16.9l-1-1.3c0.6-0.5,1.1-1.1,1.5-1.8l1.5,0.8C7.2,15.5,6.6,16.3,5.8,16.9z
	 M8.3,13.3l-1.6-0.6c0.4-1,0.7-1.8,1.1-2.6l1.5,0.7C9,11.6,8.7,12.3,8.3,13.3z M9.9,9.8L8.5,8.9C9,8,9.6,7.2,10.3,6.6l1.1,1.2
	C10.9,8.4,10.4,9,9.9,9.8z"/>
<path fill="#FFFFFF" d="M15,0v25.7L30,30V4.3L15,0z M25.6,14.7c0,0.3,0,0.6-0.1,0.9l-1.6-0.3c0-0.2,0-0.4,0-0.6c0-0.5-0.1-1.1-0.2-1.7l1.6-0.4
	C25.5,13.3,25.6,14.1,25.6,14.7z M24.8,11.2l-1.6,0.6c-0.3-0.8-0.7-1.5-1.2-2.1l1.3-1C24,9.4,24.5,10.3,24.8,11.2z M18.2,6.9
	c-0.7-0.2-1.6-0.4-2.4-0.4l0.1-1.7c1,0,2,0.2,2.8,0.5L18.2,6.9z M20,5.9c0.9,0.4,1.7,1,2.4,1.7l-1.2,1.2c-0.6-0.6-1.2-1-2-1.4
	L20,5.9z M25,23.6l-1-2.2l-1.1,1.4l-2.2-0.8l1.9-2.3l-1.8-3.4l2.4,0.8l0.8,1.9l1-1.3l2.2,0.8l-1.8,2.1l1.9,3.7L25,23.6z"/>
</svg>
