<?xml version="1.0" encoding="utf-8"?>
<!-- Generator: Adobe Illustrator 22.0.1, SVG Export Plug-In . SVG Version: 6.00 Build 0)  -->
<svg version="1.1" id="Layer_1" xmlns="http://www.w3.org/2000/svg" xmlns:xlink="http://www.w3.org/1999/xlink" x="0px" y="0px"
	 width="22px" height="22px" viewBox="0 0 22 22" enable-background="new 0 0 22 22" xml:space="preserve">
<path d="M8.4,4.2c0.5-0.3,1-0.5,1.6-0.6V0L0,3.1V22l10-3V4.9C9.7,5,9.4,5.1,9.1,5.3L8.4,4.2z M1.2,13.6l0-1.2c0,0,0.8,0,1.6-0.4
	L3.3,13C2.2,13.6,1.2,13.6,1.2,13.6z M4.3,12.4l-0.8-1c0.4-0.3,0.8-0.8,1.1-1.3l1.1,0.6C5.3,11.4,4.8,12,4.3,12.4z M6.1,9.8L5,9.3
	C5.2,8.6,5.5,8,5.7,7.5L6.8,8C6.6,8.5,6.4,9.1,6.1,9.8z M7.3,7.2L6.2,6.5c0.4-0.7,0.8-1.2,1.3-1.7l0.8,0.9C8,6.1,7.6,6.6,7.3,7.2z"
	/>
<path d="M11,0v18.9L22,22V3.1L11,0z M18.7,10.8c0,0.2,0,0.5-0.1,0.7l-1.2-0.2c0-0.1,0-0.3,0-0.4c0-0.4-0.1-0.8-0.2-1.3l1.2-0.3
	C18.7,9.8,18.7,10.3,18.7,10.8z M18.2,8.2l-1.1,0.5c-0.2-0.6-0.5-1.1-0.9-1.6l1-0.7C17.6,6.9,17.9,7.6,18.2,8.2z M13.3,5.1
	c-0.5-0.2-1.1-0.3-1.8-0.3l0.1-1.2c0.7,0,1.4,0.2,2.1,0.4L13.3,5.1z M14.7,4.3c0.6,0.3,1.2,0.7,1.8,1.2l-0.9,0.9
	c-0.4-0.4-0.9-0.8-1.4-1L14.7,4.3z M18.4,17.3l-0.7-1.6l-0.8,1.1l-1.6-0.6l1.4-1.7L15.3,12l1.8,0.6l0.6,1.4l0.7-0.9l1.6,0.6
	l-1.3,1.5l1.4,2.7L18.4,17.3z"/>
</svg>
