<?xml version="1.0" encoding="utf-8"?>
<!-- Generator: Adobe Illustrator 22.0.1, SVG Export Plug-In . SVG Version: 6.00 Build 0)  -->
<svg version="1.1" id="Layer_1" xmlns="http://www.w3.org/2000/svg" xmlns:xlink="http://www.w3.org/1999/xlink" x="0px" y="0px"
	 width="14px" height="14px" viewBox="0 0 14 14" enable-background="new 0 0 14 14" xml:space="preserve">
<path fill="#FFFFFF" d="M7,0v12l7,2V2L7,0z M9,3h1v1h1v1h-1V4H9V3z M12,6v1h-1V6H12z M13.3,11.2l-1.2,0.4l-0.8-1.5l-0.9,1.2l-0.8-0.6l1.2-1.3
	L9.9,8.5L10.5,8l0.8,1l1.1-1.1l0.7,0.8l-1.1,0.9L13.3,11.2z"/>
<path fill="#FFFFFF" d="M0,2v12l6-2V0L0,2z M3,8H2v1H1V8h1V7h1V8z M4,6H3V5h1V6z M5,4H4V3h1V4z"/>
</svg>
