<?xml version="1.0" encoding="utf-8"?>
<!-- Generator: Adobe Illustrator 20.0.0, SVG Export Plug-In . SVG Version: 6.00 Build 0)  -->
<svg version="1.1" id="Icons" xmlns="http://www.w3.org/2000/svg" xmlns:xlink="http://www.w3.org/1999/xlink" x="0px" y="0px"
	 width="14px" height="14px" viewBox="0 0 14 14" enable-background="new 0 0 14 14" xml:space="preserve">
<g>
	<path fill="#231F20" d="M13,10l-1-4L9,9l2,1c-0.5,1.1-1.9,1.9-3,2.3V4V3h1V1H8V0H6v1H5v2h1v1v8.3C4.9,12,3.5,11.1,3,10l2-1L2,6l-1,4h1.7l-0.6,0.2
		c0.6,1.9,2.1,3.3,3.9,3.7V14h2v-0.1c1.8-0.4,3.3-1.8,3.9-3.7L11.3,10H13z M7.5,3h-1C6.2,3,6,2.8,6,2.5v-1C6,1.2,6.2,1,6.5,1h0.9
		C7.8,1,8,1.2,8,1.5v0.9C8,2.8,7.8,3,7.5,3z"/>
</g>
</svg>
