<?xml version="1.0" encoding="utf-8"?>
<!-- Generator: Adobe Illustrator 20.0.0, SVG Export Plug-In . SVG Version: 6.00 Build 0)  -->
<svg version="1.1" id="Icons" xmlns="http://www.w3.org/2000/svg" xmlns:xlink="http://www.w3.org/1999/xlink" x="0px" y="0px"
	 width="22px" height="22px" viewBox="0 0 22 22" enable-background="new 0 0 22 22" xml:space="preserve">
<g>
	<path fill="#231F20" d="M21.1,9.1l-4.2,2.8c-0.4,0.3-0.4,0.8,0.1,1.1l1,0.5l-1,1.8c-0.8,2.1-2.7,4.3-5,4.7V6c1.1-0.5,2-1.7,2-3c0-1.7-1.3-3-3-3
		S8,1.4,8,3c0,1.3,0.9,2.5,2,3v14c-2.3-0.4-4.2-2.6-5-4.7l-0.9-1.9l1-0.5c0.4-0.2,0.5-0.8,0.1-1.1L0.9,9.1C0.5,8.8,0,9.1,0,9.6v4.9
		C0,15,0.5,15.2,0.9,15l1.3-0.7c0.2,0.5,0.5,1,0.8,1.6c1.1,3.5,4.1,6,8,6s6.9-2.5,8-6c0.3-0.6,0.5-1.2,0.8-1.6l1.3,0.7
		c0.4,0.2,0.9-0.1,0.9-0.5V9.6C22,9.1,21.5,8.8,21.1,9.1z M10,4V2h2v2H10z"/>
</g>
</svg>
