<?xml version="1.0" encoding="utf-8"?>
<!-- Generator: Adobe Illustrator 18.1.1, SVG Export Plug-In . SVG Version: 6.00 Build 0)  -->
<svg version="1.1" id="Icons" xmlns="http://www.w3.org/2000/svg" xmlns:xlink="http://www.w3.org/1999/xlink" x="0px" y="0px"
	 viewBox="0 0 32 32" enable-background="new 0 0 32 32" xml:space="preserve">
<g opacity="0.1">
	<path d="M31,22.7L31,22.7l-0.9-5.6c-0.1-0.5-0.6-0.9-1.1-0.9c-0.3,0-0.6,0.1-0.8,0.4l-4.2,3.9l-0.2,0.2c-0.4,0.5-0.3,1.3,0.3,1.7
		c0.1,0.1,0.2,0.1,0.3,0.2l1,0.4c-1,2.9-4.3,5-7.4,5.6V11c1.5-0.6,3-2.8,3-4.5C21,4.2,18.8,2,16.5,2C14.2,2,12,4.2,12,6.5
		c0,1.7,1.5,3.9,3,4.5v17.5c-3.1-0.6-6.3-2.7-7.4-5.6l1.1-0.4c0.1,0,0.2-0.1,0.3-0.2c0.5-0.4,0.7-1.2,0.3-1.7l-0.2-0.2l-4.2-3.9
		c-0.2-0.2-0.5-0.4-0.8-0.4c-0.6,0-1,0.4-1.1,0.9L2,22.7c0,0.1,0,0.2,0,0.3c0,0.7,0.5,1.2,1.2,1.2c0.1,0,0.2,0,0.4-0.1l1-0.3
		c1.6,4.7,6.7,8.2,12,8.2c5.3,0,10.4-3.4,11.9-8.2l1,0.3c0.1,0,0.2,0.1,0.4,0.1c0.7,0,1.2-0.5,1.2-1.2C31,22.9,31,22.8,31,22.7z
		 M17,8h-1V7h-1V6h1V5h1v1h1v1h-1V8z"/>
</g>
<g opacity="0.2">
	<path d="M30,21.7L30,21.7l-0.9-5.6c-0.1-0.5-0.6-0.9-1.1-0.9c-0.3,0-0.6,0.1-0.8,0.4l-4.2,3.9l-0.2,0.2c-0.4,0.5-0.3,1.3,0.3,1.7
		c0.1,0.1,0.2,0.1,0.3,0.2l1,0.4c-1,2.9-4.3,5-7.4,5.6V10c1.5-0.6,3-2.8,3-4.5C20,3.2,17.8,1,15.5,1C13.2,1,11,3.2,11,5.5
		c0,1.7,1.5,3.9,3,4.5v17.5c-3.1-0.6-6.3-2.7-7.4-5.6l1.1-0.4c0.1,0,0.2-0.1,0.3-0.2c0.5-0.4,0.7-1.2,0.3-1.7l-0.2-0.2l-4.2-3.9
		c-0.2-0.2-0.5-0.4-0.8-0.4c-0.6,0-1,0.4-1.1,0.9L1,21.7c0,0.1,0,0.2,0,0.3c0,0.7,0.5,1.2,1.2,1.2c0.1,0,0.2,0,0.4-0.1l1-0.3
		c1.6,4.7,6.7,8.2,12,8.2c5.3,0,10.4-3.4,11.9-8.2l1,0.3c0.1,0,0.2,0.1,0.4,0.1c0.7,0,1.2-0.5,1.2-1.2C30,21.9,30,21.8,30,21.7z
		 M16,7h-1V6h-1V5h1V4h1v1h1v1h-1V7z"/>
</g>
<g>
	<path d="M29,20.7L29,20.7l-0.9-5.6c-0.1-0.5-0.6-0.9-1.1-0.9c-0.3,0-0.6,0.1-0.8,0.4l-4.2,3.9l-0.2,0.2c-0.4,0.5-0.3,1.3,0.3,1.7
		c0.1,0.1,0.2,0.1,0.3,0.2l1,0.4c-1,2.9-4.3,5-7.4,5.6V9c1.5-0.6,3-2.8,3-4.5C19,2.2,16.8,0,14.5,0C12.2,0,10,2.2,10,4.5
		c0,1.7,1.5,3.9,3,4.5v17.5c-3.1-0.6-6.3-2.7-7.4-5.6l1.1-0.4c0.1,0,0.2-0.1,0.3-0.2c0.5-0.4,0.7-1.2,0.3-1.7l-0.2-0.2l-4.2-3.9
		c-0.2-0.2-0.5-0.4-0.8-0.4c-0.6,0-1,0.4-1.1,0.9L0,20.7c0,0.1,0,0.2,0,0.3c0,0.7,0.5,1.2,1.2,1.2c0.1,0,0.2,0,0.4-0.1l1-0.3
		c1.6,4.7,6.7,8.2,12,8.2c5.3,0,10.4-3.4,11.9-8.2l1,0.3c0.1,0,0.2,0.1,0.4,0.1c0.7,0,1.2-0.5,1.2-1.2C29,20.9,29,20.8,29,20.7z
		 M15,6h-1V5h-1V4h1V3h1v1h1v1h-1V6z"/>
</g>
</svg>
