<?xml version="1.0" encoding="utf-8"?>
<!-- Generator: Adobe Illustrator 25.4.1, SVG Export Plug-In . SVG Version: 6.00 Build 0)  -->
<svg version="1.1" id="Icons" xmlns="http://www.w3.org/2000/svg" xmlns:xlink="http://www.w3.org/1999/xlink" x="0px" y="0px"
	 width="14px" height="14px" viewBox="0 0 14 14" enable-background="new 0 0 14 14" xml:space="preserve">
<path fill="#ffffff" d="M13.5,10.6l-0.8-4.3L9.5,9.2l1.4,0.5l0,0C10.4,11,9.3,12,8,12.3V4.8c0.9-0.4,1.5-1.3,1.5-2.3
	C9.5,1.1,8.4,0,7,0S4.5,1.1,4.5,2.5c0,1,0.6,1.9,1.5,2.3v7.5C4.7,12,3.6,11,3.2,9.7l0,0l1.4-0.5L1.3,6.4l-0.8,4.3l1.3-0.4
	C2.5,12.4,4.6,14,7,14c2.5,0,4.5-1.6,5.3-3.8l0,0L13.5,10.6z M5.5,2.5C5.5,1.7,6.2,1,7,1s1.5,0.7,1.5,1.5S7.8,4,7,4S5.5,3.3,5.5,2.5
	z"/>
</svg>
