<?xml version="1.0" encoding="utf-8"?>
<!-- Generator: Adobe Illustrator 20.0.0, SVG Export Plug-In . SVG Version: 6.00 Build 0)  -->
<svg version="1.1" id="Icons" xmlns="http://www.w3.org/2000/svg" xmlns:xlink="http://www.w3.org/1999/xlink" x="0px" y="0px"
	 width="30px" height="30px" viewBox="0 0 30 30" enable-background="new 0 0 30 30" xml:space="preserve">
<g>
	<path fill="#FFFFFF" d="M29,20.7L29,20.7l-0.9-5.6c-0.1-0.5-0.6-0.9-1.1-0.9c-0.3,0-0.6,0.1-0.8,0.4L22,18.5l-0.2,0.2c-0.4,0.5-0.3,1.3,0.3,1.7
		c0.1,0.1,0.2,0.1,0.3,0.2l1,0.4c-1,2.9-4.3,5-7.4,5.6V9c1.5-0.6,3-2.8,3-4.5C19,2.2,16.8,0,14.5,0S10,2.2,10,4.5
		c0,1.7,1.5,3.9,3,4.5v17.5c-3.1-0.6-6.3-2.7-7.4-5.6l1.1-0.4c0.1,0,0.2-0.1,0.3-0.2c0.5-0.4,0.7-1.2,0.3-1.7l-0.2-0.2l-4.2-3.9
		c-0.2-0.2-0.5-0.4-0.8-0.4c-0.6,0-1,0.4-1.1,0.9l-1,5.7c0,0.1,0,0.2,0,0.3c0,0.7,0.5,1.2,1.2,1.2c0.1,0,0.2,0,0.4-0.1l1-0.3
		c1.6,4.7,6.7,8.2,12,8.2s10.4-3.4,11.9-8.2l1,0.3c0.1,0,0.2,0.1,0.4,0.1c0.7,0,1.2-0.5,1.2-1.2C29,20.9,29,20.8,29,20.7z M15,6h-1
		V5h-1V4h1V3h1v1h1v1h-1V6z"/>
</g>
</svg>
