<?xml version="1.0" encoding="UTF-8" standalone="no"?>
<svg width="24px" height="24px" viewBox="0 0 24 24" version="1.1" xmlns="http://www.w3.org/2000/svg" xmlns:xlink="http://www.w3.org/1999/xlink" xmlns:sketch="http://www.bohemiancoding.com/sketch/ns">
    <!-- Generator: Sketch 3.3.3 (12072) - http://www.bohemiancoding.com/sketch -->
    <title>mechanic-white-24</title>
    <desc>Created with Sketch.</desc>
    <defs></defs>
    <g id="mechanic" stroke="none" stroke-width="1" fill="none" fill-rule="evenodd" sketch:type="MSPage">
        <g id="mechanic-white-24" sketch:type="MSArtboardGroup">
            <path d="M16.137209,2 C14.7858939,2.78169355 13.876734,4.24273762 13.876734,5.91612738 C13.876734,6.81983688 14.1418914,7.66161554 14.5986504,8.36790762 L4.39587232,21.5715028 C3.8869744,22.2300766 4.00831065,23.1764994 4.66688443,23.6853974 C5.32545821,24.1942953 6.27188101,24.072959 6.78077893,23.4143852 L16.9831142,10.2113631 C17.4281175,10.3578335 17.9036465,10.4370774 18.397684,10.4370774 C20.8945357,10.4370774 22.9186339,8.41297912 22.9186339,5.91612738 C22.9186339,4.24273762 22.009474,2.78169355 20.658159,2 L20.658159,5.16263572 L18.397684,6.66961905 L16.137209,5.16263572 L16.137209,2 Z" id="Symbol" fill-opacity="0.5" fill="#000000" sketch:type="MSShapeGroup"></path>
            <path d="M15.137209,1 C13.7858939,1.78169355 12.876734,3.24273762 12.876734,4.91612738 C12.876734,5.81983688 13.1418914,6.66161554 13.5986504,7.36790762 L3.39587232,20.5715028 C2.8869744,21.2300766 3.00831065,22.1764994 3.66688443,22.6853974 C4.32545821,23.1942953 5.27188101,23.072959 5.78077893,22.4143852 L15.9831142,9.21136308 C16.4281175,9.35783349 16.9036465,9.43707738 17.397684,9.43707738 C19.8945357,9.43707738 21.9186339,7.41297912 21.9186339,4.91612738 C21.9186339,3.24273762 21.009474,1.78169355 19.658159,1 L19.658159,4.16263572 L17.397684,5.66961905 L15.137209,4.16263572 L15.137209,1 Z" id="Symbol-Copy" fill-opacity="0.75" fill="#000000" sketch:type="MSShapeGroup"></path>
            <path d="M14.137209,5.55111512e-17 C12.7858939,0.781693549 11.876734,2.24273762 11.876734,3.91612738 C11.876734,4.81983688 12.1418914,5.66161554 12.5986504,6.36790762 L2.39587232,19.5715028 C1.8869744,20.2300766 2.00831065,21.1764994 2.66688443,21.6853974 C3.32545821,22.1942953 4.27188101,22.072959 4.78077893,21.4143852 L14.9831142,8.21136308 C15.4281175,8.35783349 15.9036465,8.43707738 16.397684,8.43707738 C18.8945357,8.43707738 20.9186339,6.41297912 20.9186339,3.91612738 C20.9186339,2.24273762 20.009474,0.781693549 18.658159,-8.8817842e-16 L18.658159,3.16263572 L16.397684,4.66961905 L14.137209,3.16263572 L14.137209,2.77555756e-17 Z" id="Symbol-Copy-2" fill="#FFFFFF" sketch:type="MSShapeGroup"></path>
        </g>
    </g>
</svg>