<?xml version="1.0" encoding="utf-8"?>
<!-- Generator: Adobe Illustrator 20.0.0, SVG Export Plug-In . SVG Version: 6.00 Build 0)  -->
<svg version="1.1" id="Layer_1" xmlns:sketch="http://www.bohemiancoding.com/sketch/ns"
	 xmlns="http://www.w3.org/2000/svg" xmlns:xlink="http://www.w3.org/1999/xlink" x="0px" y="0px" width="30px" height="30px"
	 viewBox="0 0 30 30" enable-background="new 0 0 30 30" xml:space="preserve">
<path fill="#231F20" id="Symbol-Copy-2" sketch:type="MSShapeGroup" d="M20.1,0C18.3,1.1,17,3.1,17,5.3c0,1.2,0.4,2.4,1,3.3l-13.9,18
	c-0.7,0.9-0.5,2.2,0.4,2.9c0.9,0.7,2.2,0.5,2.9-0.4l13.9-18l0,0c0.6,0.2,1.3,0.3,1.9,0.3c3.4,0,6.2-2.8,6.2-6.2
	c0-2.3-1.2-4.3-3.1-5.3v4.3l-3.1,2.1l-3.1-2.1V0z"/>
</svg>
