<?xml version="1.0" encoding="UTF-8" standalone="no"?>
<svg width="16px" height="16px" viewBox="0 0 16 16" version="1.1" xmlns="http://www.w3.org/2000/svg" xmlns:xlink="http://www.w3.org/1999/xlink" xmlns:sketch="http://www.bohemiancoding.com/sketch/ns">
    <!-- Generator: Sketch 3.3.3 (12072) - http://www.bohemiancoding.com/sketch -->
    <title>mechanic-slate-16</title>
    <desc>Created with Sketch.</desc>
    <defs></defs>
    <g id="mechanic" stroke="none" stroke-width="1" fill="none" fill-rule="evenodd" sketch:type="MSPage">
        <g id="mechanic-slate-16" sketch:type="MSArtboardGroup">
            <path d="M11.6719614,2 C10.8120336,2.49744135 10.2334773,3.42719667 10.2334773,4.49208106 C10.2334773,5.06716892 10.4022138,5.60284625 10.6928787,6.05230485 L4.20020169,14.4545927 C3.87635756,14.8736851 3.95357154,15.4759542 4.37266394,15.7997983 C4.79175635,16.1236424 5.3940254,16.0464285 5.71786953,15.6273361 L12.2102647,7.22541287 L12.2102647,7.22541287 C12.4934486,7.31862131 12.796058,7.36904924 13.1104455,7.36904924 C14.6993511,7.36904924 15.9874136,6.08098671 15.9874136,4.49208106 C15.9874136,3.42719667 15.4088573,2.49744135 14.5489295,2 L14.5489295,4.01258636 L13.1104455,4.97157576 L11.6719614,4.01258636 L11.6719614,2 Z" id="Symbol" fill-opacity="0.5" fill="#000000" sketch:type="MSShapeGroup"></path>
            <path d="M10.6719614,1 C9.8120336,1.49744135 9.23347727,2.42719667 9.23347727,3.49208106 C9.23347727,4.06716892 9.40221381,4.60284625 9.69287868,5.05230485 L3.20020169,13.4545927 C2.87635756,13.8736851 2.95357154,14.4759542 3.37266394,14.7997983 C3.79175635,15.1236424 4.3940254,15.0464285 4.71786953,14.6273361 L11.2102647,6.22541287 L11.2102647,6.22541287 C11.4934486,6.31862131 11.796058,6.36904924 12.1104455,6.36904924 C13.6993511,6.36904924 14.9874136,5.08098671 14.9874136,3.49208106 C14.9874136,2.42719667 14.4088573,1.49744135 13.5489295,1 L13.5489295,3.01258636 L12.1104455,3.97157576 L10.6719614,3.01258636 L10.6719614,1 Z" id="Symbol-Copy" fill-opacity="0.75" fill="#000000" sketch:type="MSShapeGroup"></path>
            <path d="M9.67196136,2.22044605e-16 C8.8120336,0.49744135 8.23347727,1.42719667 8.23347727,2.49208106 C8.23347727,3.06716892 8.40221381,3.60284625 8.69287868,4.05230485 L2.20020169,12.4545927 C1.87635756,12.8736851 1.95357154,13.4759542 2.37266394,13.7997983 C2.79175635,14.1236424 3.3940254,14.0464285 3.71786953,13.6273361 L10.2102647,5.22541287 L10.2102647,5.22541287 C10.4934486,5.31862131 10.796058,5.36904924 11.1104455,5.36904924 C12.6993511,5.36904924 13.9874136,4.08098671 13.9874136,2.49208106 C13.9874136,1.42719667 13.4088573,0.49744135 12.5489295,8.32667268e-16 L12.5489295,2.01258636 L11.1104455,2.97157576 L9.67196136,2.01258636 L9.67196136,1.11022302e-16 Z" id="Symbol-Copy-2" fill="#E6E6E6" sketch:type="MSShapeGroup"></path>
        </g>
    </g>
</svg>