<?xml version="1.0" encoding="UTF-8" standalone="no"?>
<svg width="32px" height="32px" viewBox="0 0 32 32" version="1.1" xmlns="http://www.w3.org/2000/svg" xmlns:xlink="http://www.w3.org/1999/xlink" xmlns:sketch="http://www.bohemiancoding.com/sketch/ns">
    <!-- Generator: Sketch 3.3.3 (12072) - http://www.bohemiancoding.com/sketch -->
    <title>mechanic-slate-32</title>
    <desc>Created with Sketch.</desc>
    <defs></defs>
    <g id="mechanic" stroke="none" stroke-width="1" fill="none" fill-rule="evenodd" sketch:type="MSPage">
        <g id="mechanic-slate-32" sketch:type="MSArtboardGroup">
            <path d="M22.0962231,2 C20.2535148,3.06594917 19.0137473,5.0582884 19.0137473,7.34019086 C19.0137473,8.57252595 19.3753267,9.72040963 19.998182,10.6835383 L6.08525807,28.6884987 C5.39130413,29.5865568 5.5567632,30.8771375 6.45482123,31.5710914 C7.35287927,32.2650453 8.64345997,32.0995863 9.3374139,31.2015282 L23.249734,13.1973493 L23.249734,13.1973493 C23.8565586,13.3970823 24.5050093,13.5051425 25.1786989,13.5051425 C28.5835077,13.5051425 31.3436505,10.7449996 31.3436505,7.34019086 C31.3436505,5.0582884 30.103883,3.06594917 28.2611747,2 L28.2611747,6.31269892 L25.1786989,8.3676828 L22.0962231,6.31269892 L22.0962231,2 Z" id="Symbol" fill-opacity="0.5" fill="#000000" sketch:type="MSShapeGroup"></path>
            <path d="M21.0962231,1 C19.2535148,2.06594917 18.0137473,4.0582884 18.0137473,6.34019086 C18.0137473,7.57252595 18.3753267,8.72040963 18.998182,9.6835383 L5.08525807,27.6884987 C4.39130413,28.5865568 4.5567632,29.8771375 5.45482123,30.5710914 C6.35287927,31.2650453 7.64345997,31.0995863 8.3374139,30.2015282 L22.249734,12.1973493 L22.249734,12.1973493 C22.8565586,12.3970823 23.5050093,12.5051425 24.1786989,12.5051425 C27.5835077,12.5051425 30.3436505,9.74499962 30.3436505,6.34019086 C30.3436505,4.0582884 29.103883,2.06594917 27.2611747,1 L27.2611747,5.31269892 L24.1786989,7.3676828 L21.0962231,5.31269892 L21.0962231,1 Z" id="Symbol-Copy" fill-opacity="0.75" fill="#000000" sketch:type="MSShapeGroup"></path>
            <path d="M20.0962231,5.60662627e-15 C18.2535148,1.06594917 17.0137473,3.0582884 17.0137473,5.34019086 C17.0137473,6.57252595 17.3753267,7.72040963 17.998182,8.6835383 L4.08525807,26.6884987 C3.39130413,27.5865568 3.5567632,28.8771375 4.45482123,29.5710914 C5.35287927,30.2650453 6.64345997,30.0995863 7.3374139,29.2015282 L21.249734,11.1973493 L21.249734,11.1973493 C21.8565586,11.3970823 22.5050093,11.5051425 23.1786989,11.5051425 C26.5835077,11.5051425 29.3436505,8.74499962 29.3436505,5.34019086 C29.3436505,3.0582884 28.103883,1.06594917 26.2611747,-3.83026943e-15 L26.2611747,4.31269892 L23.1786989,6.3676828 L20.0962231,4.31269892 L20.0962231,5.5788707e-15 Z" id="Symbol-Copy-2" fill="#E6E6E6" sketch:type="MSShapeGroup"></path>
        </g>
    </g>
</svg>