<?xml version="1.0" encoding="utf-8"?>
<!-- Generator: Adobe Illustrator 22.1.0, SVG Export Plug-In . SVG Version: 6.00 Build 0)  -->
<svg version="1.1" id="Layer_1" xmlns="http://www.w3.org/2000/svg" xmlns:xlink="http://www.w3.org/1999/xlink" x="0px" y="0px"
	 width="30px" height="30px" viewBox="0 0 30 30" enable-background="new 0 0 30 30" xml:space="preserve">
<path fill="#FFFFFF" d="M30,14.2c0,0-4.1-0.3-6-0.1c-0.1,0-0.7,0.3-0.8,0.3c-1.7,0.1-2.7-0.1-4.2,0.2c-2.4,0.4-4.8-0.2-7.3,0.1
	c-2.2,0.2-4.6,0-7,0.1c-1.1-0.8-3.1-0.5-4.7-0.4v2.3h30V14.2z"/>
<path fill="#FFFFFF" fill-rule="evenodd" clip-rule="evenodd" d="M25.8,0.8L20,5.7l-5.7,4.2c0,0-0.6,0-1.6,0c-1,0-2.5,0-4.3,0
	c-0.3,0-0.7,0.6-0.7,1.2c0,0.6,0.3,0.9,0.5,0.9c3.5,0,7.1,0,9.8,0s4.5,0,4.5,0c0.2,0,0.6-0.3,0.6-0.9c0-0.6-0.3-1.2-0.6-1.2H20h-2.6
	l5-3.5l5-4.2c-0.1-0.2-0.4-0.5-0.7-0.8C26.3,1.1,25.9,0.8,25.8,0.8z"/>
<path fill="#FFFFFF" fill-rule="evenodd" clip-rule="evenodd" d="M23.8,17.8c0,0-0.1-0.1-0.1,0c-6.9,3.9-14.8,0.8-16.3,0.1c0,0,0,0,0,0c0,0,0,0,0,0
	c0,0,0,0,0,0c0,0-0.1,0-0.1,0c0,0,0,0.1,0,0.1c9.9,6.5,16.6,0,16.6-0.1C23.8,17.9,23.8,17.8,23.8,17.8z"/>
<path fill="#FFFFFF" fill-rule="evenodd" clip-rule="evenodd" d="M21.1,22.9c0,0-0.1-0.1-0.1,0c-4.8,2.6-9.9,0.5-10.9,0.1c0,0,0,0,0,0c0,0,0,0,0,0
	l0,0c0,0-0.1,0-0.1,0c0,0.1,0,0.1,0,0.1c6.6,4.4,11.1-0.1,11.2-0.1C21.2,23,21.2,22.9,21.1,22.9z"/>
<path fill="#FFFFFF" fill-rule="evenodd" clip-rule="evenodd" d="M18.4,27.7c0,0-0.1-0.1-0.1,0c-1.9,0.9-4.4,0.3-5.2,0.1c-0.1,0-0.1,0-0.1,0.1
	c0,0.1,0,0.1,0,0.1c3.4,2,5.4-0.1,5.4-0.1C18.4,27.8,18.4,27.7,18.4,27.7z"/>
</svg>
