<?xml version="1.0" encoding="utf-8"?>
<!-- Generator: Adobe Illustrator 22.1.0, SVG Export Plug-In . SVG Version: 6.00 Build 0)  -->
<svg version="1.1" id="Layer_1" xmlns="http://www.w3.org/2000/svg" xmlns:xlink="http://www.w3.org/1999/xlink" x="0px" y="0px"
	 width="22px" height="22px" viewBox="0 0 22 22" enable-background="new 0 0 22 22" xml:space="preserve">
<path d="M22,10.2c0,0-3-0.2-4.4-0.1c-0.1,0-0.5,0.2-0.6,0.2c-1.2,0.1-2-0.1-3.1,0.1c-1.7,0.3-3.5-0.1-5.3,0.1
	c-1.6,0.1-3.4,0-5.1,0.1C2.6,10,1.2,10.3,0,10.3V12h22V10.2z"/>
<path fill-rule="evenodd" clip-rule="evenodd" d="M18.9,0.9l-4.2,3.5l-4.2,3.1c0,0-0.4,0-1.2,0c-0.7,0-1.8,0-3.1,0
	C6,7.5,5.7,8,5.7,8.4C5.7,8.9,6,9,6.1,9c2.6,0,5.2,0,7.2,0s3.3,0,3.3,0c0.2,0,0.5-0.1,0.5-0.6c0-0.5-0.3-0.9-0.5-0.9h-1.9h-1.9
	l3.6-2.6L20,1.9c0-0.1-0.3-0.4-0.5-0.6C19.3,1.1,19,0.9,18.9,0.9z"/>
<path fill-rule="evenodd" clip-rule="evenodd" d="M17.5,13c0,0-0.1,0-0.1,0c-5,2.9-10.9,0.6-12,0.1c0,0,0,0,0,0c0,0,0,0,0,0
	c0,0,0,0,0,0c0,0-0.1,0-0.1,0c0,0,0,0.1,0,0.1c7.2,4.8,12.1,0,12.2-0.1C17.5,13.1,17.5,13.1,17.5,13z"/>
<path fill-rule="evenodd" clip-rule="evenodd" d="M15.5,16.8C15.5,16.7,15.4,16.7,15.5,16.8c-3.6,1.9-7.4,0.4-8.1,0c0,0,0,0,0,0
	c0,0,0,0,0,0l0,0c0,0-0.1,0-0.1,0c0,0,0,0.1,0,0.1c4.9,3.2,8.2,0,8.2-0.1C15.5,16.9,15.5,16.8,15.5,16.8z"/>
<path fill-rule="evenodd" clip-rule="evenodd" d="M13.5,20.3C13.5,20.3,13.4,20.3,13.5,20.3c-1.5,0.6-3.4,0.2-3.9,0c0,0-0.1,0-0.1,0
	c0,0,0,0.1,0,0.1c2.5,1.5,4-0.1,4-0.1C13.5,20.4,13.5,20.3,13.5,20.3z"/>
</svg>
