<?xml version="1.0" encoding="utf-8"?>
<!-- Generator: Adobe Illustrator 22.1.0, SVG Export Plug-In . SVG Version: 6.00 Build 0)  -->
<svg version="1.1" id="Layer_1" xmlns="http://www.w3.org/2000/svg" xmlns:xlink="http://www.w3.org/1999/xlink" x="0px" y="0px"
	 width="14px" height="14px" viewBox="0 0 14 14" enable-background="new 0 0 14 14" xml:space="preserve">
<path fill="#FFFFFF" d="M14,6.8c0,0-1.9-0.1-2.8,0c-0.1,0-0.3,0.1-0.4,0.1C10,7,9.6,6.9,8.9,7c-1.1,0.2-2.2-0.1-3.4,0c-1,0.1-2.2,0-3.3,0
	C1.7,6.7,0.7,6.9,0,6.9V8h14V6.8z"/>
<path fill="#FFFFFF" fill-rule="evenodd" clip-rule="evenodd" d="M12,0.8L9.3,3L6.7,5c0,0-0.3,0-0.7,0c-0.5,0-1.2,0-2,0C3.8,5,3.6,5.3,3.6,5.6
	C3.6,5.9,3.8,6,3.9,6c1.6,0,3.3,0,4.6,0s2.1,0,2.1,0c0.1,0,0.3-0.1,0.3-0.4c0-0.3-0.2-0.6-0.3-0.6H9.3H8.1l2.3-1.6l2.3-1.9
	c0-0.1-0.2-0.2-0.3-0.4C12.3,0.9,12.1,0.8,12,0.8z"/>
<path fill="#FFFFFF" fill-rule="evenodd" clip-rule="evenodd" d="M11.1,8.5C11.1,8.5,11.1,8.5,11.1,8.5c-3.3,1.8-7,0.3-7.7,0c0,0,0,0,0,0
	c0,0,0,0,0,0c0,0,0,0,0,0c0,0,0,0-0.1,0c0,0,0,0,0,0.1C8,11.7,11.1,8.6,11.1,8.5C11.1,8.6,11.1,8.5,11.1,8.5z"/>
<path fill="#FFFFFF" fill-rule="evenodd" clip-rule="evenodd" d="M9.9,10.9C9.8,10.9,9.8,10.9,9.9,10.9c-2.3,1.2-4.7,0.2-5.2,0c0,0,0,0,0,0
	c0,0,0,0,0,0l0,0c0,0-0.1,0-0.1,0c0,0,0,0,0,0.1C7.7,13.1,9.8,11,9.9,10.9C9.9,11,9.9,10.9,9.9,10.9z"/>
<path fill="#FFFFFF" fill-rule="evenodd" clip-rule="evenodd" d="M8.6,13.2C8.6,13.1,8.5,13.1,8.6,13.2c-0.9,0.4-2.1,0.1-2.5,0c0,0-0.1,0-0.1,0
	c0,0,0,0,0,0.1C7.6,14.2,8.6,13.2,8.6,13.2C8.6,13.2,8.6,13.2,8.6,13.2z"/>
</svg>
