<?xml version="1.0" encoding="utf-8"?>
<!-- Generator: Adobe Illustrator 27.9.1, SVG Export Plug-In . SVG Version: 6.00 Build 0)  -->
<svg version="1.1" id="Layer_1" xmlns="http://www.w3.org/2000/svg" xmlns:xlink="http://www.w3.org/1999/xlink" x="0px" y="0px"
	 viewBox="0 0 22 22" enable-background="new 0 0 22 22" xml:space="preserve">
<path fill="#FFFFFF" d="M12.2,2.5H9.8c-0.3,0-0.3-0.6,0-0.6h2.3C12.5,1.9,12.5,2.5,12.2,2.5"/>
<polygon fill="#FFFFFF" points="14.1,10.7 8.4,18.3 10.2,12.8 7.9,12.8 11.3,5.3 14.1,5.3 11.7,10.7 "/>
<path fill="#FFFFFF" d="M16.7,0H5.3c-0.5,0-1,0.5-1,1v20c0,0.5,0.5,1,1,1h11.5c0.5,0,1-0.5,1-1V1C17.7,0.5,17.2,0,16.7,0 M16.7,21
	H5.3V1h11.5L16.7,21L16.7,21z"/>
</svg>
