<?xml version="1.0" encoding="utf-8"?>
<!-- Generator: Adobe Illustrator 21.1.0, SVG Export Plug-In . SVG Version: 6.00 Build 0)  -->
<svg version="1.1" id="Layer_1" xmlns="http://www.w3.org/2000/svg" xmlns:xlink="http://www.w3.org/1999/xlink" x="0px" y="0px"
	 width="14px" height="14px" viewBox="0 0 14 14" enable-background="new 0 0 14 14" xml:space="preserve">
<path fill="#FFFFFF" fill-rule="evenodd" clip-rule="evenodd" d="M12,0v2.015H7.855C7.383,2.015,7,2.388,7,2.849v10.317C7,13.627,7.383,14,7.855,14
	h4.601c0.472,0,0.855-0.373,0.544-0.834V0H12z M11.071,11.571c0-0.143,0.116-0.259,0.259-0.259h0.557
	c0.143,0,0.259,0.116,0.259,0.259v0.557c0,0.143-0.116,0.259-0.259,0.259H11.33c-0.143,0-0.259-0.116-0.259-0.259V11.571z
	 M11.071,10.011c0-0.143,0.116-0.259,0.259-0.259h0.557c0.143,0,0.259,0.116,0.259,0.259v0.557c0,0.143-0.116,0.259-0.259,0.259
	l-0.557,0c-0.143,0-0.259-0.116-0.259-0.259V10.011z M11.071,8.45c0-0.143,0.116-0.259,0.259-0.259h0.557
	c0.143,0,0.259,0.116,0.259,0.259v0.557c0,0.143-0.116,0.259-0.259,0.259H11.33c-0.143,0-0.259-0.116-0.259-0.259V8.45z
	 M9.491,11.571c0-0.143,0.116-0.259,0.259-0.259l0.557,0c0.143,0,0.259,0.116,0.259,0.259v0.557c0,0.143-0.116,0.259-0.259,0.259
	H9.75c-0.143,0-0.259-0.116-0.259-0.259V11.571z M9.491,10.011c0-0.143,0.116-0.259,0.259-0.259h0.557
	c0.143,0,0.259,0.116,0.259,0.259v0.557c0,0.143-0.116,0.259-0.259,0.259l-0.557,0c-0.143,0-0.259-0.116-0.259-0.259V10.011z
	 M9.491,8.45c0-0.143,0.116-0.259,0.259-0.259h0.557c0.143,0,0.259,0.116,0.259,0.259v0.557c0,0.143-0.116,0.259-0.259,0.259H9.75
	c-0.143,0-0.259-0.116-0.259-0.259V8.45z M7.91,12.128l0-0.557c0-0.143,0.116-0.259,0.259-0.259h0.557
	c0.143,0,0.259,0.116,0.259,0.259v0.557c0,0.143-0.116,0.259-0.259,0.259H8.169C8.026,12.388,7.91,12.271,7.91,12.128z M7.91,10.568
	l0-0.557c0-0.143,0.116-0.259,0.259-0.259h0.557c0.143,0,0.259,0.116,0.259,0.259v0.557c0,0.143-0.116,0.259-0.259,0.259l-0.557,0
	C8.026,10.827,7.91,10.711,7.91,10.568z M7.91,9.007l0-0.557c0-0.143,0.116-0.259,0.259-0.259h0.557
	c0.143,0,0.259,0.116,0.259,0.259v0.557c0,0.143-0.116,0.259-0.259,0.259H8.169C8.026,9.267,7.91,9.15,7.91,9.007z M7.905,5.935
	l0-2.92c0-0.143,0.116-0.259,0.259-0.259l3.721,0c0.143,0,0.259,0.116,0.259,0.259v2.92c0,0.143-0.116,0.259-0.259,0.259
	L8.165,6.194C8.021,6.194,7.905,6.078,7.905,5.935z"/>
<path fill="#FFFFFF" d="M4.867,7.425l-3.791,5.052l1.16-3.637H0.689L3.01,3.787h1.857L3.242,7.425H4.867z"/>
</svg>
