<?xml version="1.0" encoding="utf-8"?>
<!-- Generator: Adobe Illustrator 21.1.0, SVG Export Plug-In . SVG Version: 6.00 Build 0)  -->
<svg version="1.1" id="Layer_1" xmlns="http://www.w3.org/2000/svg" xmlns:xlink="http://www.w3.org/1999/xlink" x="0px" y="0px"
	 width="22px" height="22px" viewBox="0 0 22 22" enable-background="new 0 0 22 22" xml:space="preserve">
<path fill="#FFFFFF" fill-rule="evenodd" clip-rule="evenodd" d="M19,0v2h-7.657C10.601,2,10,2.587,10,3.311v17.378C10,21.413,10.601,22,11.343,22
	h8.23c0.742,0,1.343-0.587,1.343-1.311V0H19z M17.398,18.183c0-0.225,0.182-0.407,0.408-0.407h0.875
	c0.225,0,0.408,0.182,0.408,0.407v0.875c0,0.225-0.182,0.407-0.408,0.407h-0.875c-0.225,0-0.407-0.182-0.407-0.407V18.183z
	 M17.398,15.731c0-0.225,0.182-0.407,0.408-0.407h0.875c0.225,0,0.408,0.182,0.408,0.407v0.875c0,0.225-0.182,0.407-0.408,0.407
	l-0.875,0c-0.225,0-0.407-0.183-0.407-0.407V15.731z M17.398,13.279c0-0.225,0.182-0.407,0.408-0.407h0.875
	c0.225,0,0.408,0.182,0.408,0.407v0.875c0,0.225-0.182,0.408-0.408,0.408h-0.875c-0.225,0-0.407-0.182-0.407-0.408V13.279z
	 M14.914,18.183c0-0.225,0.182-0.407,0.407-0.407l0.875,0c0.225,0,0.407,0.183,0.407,0.408v0.875c0,0.225-0.182,0.407-0.407,0.407
	h-0.875c-0.225,0-0.407-0.182-0.407-0.407V18.183z M14.914,15.731c0-0.225,0.182-0.407,0.407-0.407h0.875
	c0.225,0,0.407,0.182,0.407,0.407v0.875c0,0.225-0.182,0.407-0.407,0.407l-0.875,0c-0.225,0-0.407-0.183-0.407-0.407V15.731z
	 M14.914,13.279c0-0.225,0.182-0.407,0.407-0.407h0.875c0.225,0,0.407,0.182,0.407,0.407v0.875c0,0.225-0.182,0.408-0.407,0.408
	h-0.875c-0.225,0-0.407-0.182-0.407-0.408V13.279z M12.43,19.059l0-0.876c0-0.225,0.182-0.407,0.407-0.407h0.875
	c0.225,0,0.407,0.182,0.407,0.407v0.875c0,0.225-0.182,0.407-0.407,0.407h-0.875C12.612,19.466,12.43,19.284,12.43,19.059z
	 M12.43,16.607l0-0.875c0-0.225,0.182-0.407,0.407-0.407h0.875c0.225,0,0.407,0.182,0.407,0.407v0.875
	c0,0.225-0.182,0.407-0.407,0.407l-0.875,0C12.612,17.014,12.43,16.831,12.43,16.607z M12.43,14.154l0-0.875
	c0-0.225,0.182-0.407,0.407-0.407h0.875c0.225,0,0.407,0.182,0.407,0.407v0.875c0,0.225-0.182,0.408-0.407,0.408h-0.875
	C12.612,14.562,12.43,14.379,12.43,14.154z M12,9.326l0.001-4.589C12.423,4.512,12.606,4.33,12.83,4l5.847,0
	c0.225,0.33,0.407,0.512,0.322,0.737v4.588C19.085,9.55,18.902,9.733,18.677,10l-5.847,0.001C12.605,9.733,12.423,9.551,12,9.326z"
	/>
<path fill="#FFFFFF" d="M7.648,11.667l-5.957,7.939l1.823-5.716H1.083l3.648-7.939h2.917l-2.553,5.716H7.648z"/>
</svg>
