<?xml version="1.0" encoding="utf-8"?>
<!-- Generator: Adobe Illustrator 28.2.0, SVG Export Plug-In . SVG Version: 6.00 Build 0)  -->
<svg version="1.1" id="Layer_1" xmlns="http://www.w3.org/2000/svg" xmlns:xlink="http://www.w3.org/1999/xlink" x="0px" y="0px"
	 width="14px" height="14px" viewBox="0 0 14 14" enable-background="new 0 0 14 14" xml:space="preserve">
<path fill="#231F20" d="M7.7,1.6H6.3c-0.2,0-0.2-0.4,0-0.4h1.5C7.9,1.2,7.9,1.6,7.7,1.6"/>
<polygon fill="#231F20" points="9,6.8 5.4,11.6 6.5,8.2 5,8.2 7.2,3.3 9,3.3 7.4,6.8 "/>
<path fill="#231F20" d="M10.7,0H3.3C3,0,2.7,0.3,2.7,0.6v12.7C2.7,13.7,3,14,3.3,14h7.3c0.3,0,0.6-0.3,0.6-0.6V0.6
	C11.3,0.3,11,0,10.7,0 M10.7,13.4H3.3V0.6h7.3L10.7,13.4L10.7,13.4z"/>
</svg>
