<?xml version="1.0" encoding="utf-8"?>
<!-- Generator: Adobe Illustrator 21.1.0, SVG Export Plug-In . SVG Version: 6.00 Build 0)  -->
<svg version="1.1" id="Layer_1" xmlns="http://www.w3.org/2000/svg" xmlns:xlink="http://www.w3.org/1999/xlink" x="0px" y="0px"
	 width="30px" height="30px" viewBox="0 0 30 30" enable-background="new 0 0 30 30" xml:space="preserve">
<path fill-rule="evenodd" clip-rule="evenodd" d="M27,0v3H15.865c-1.012,0.273-1.832,1.074-1.832,2.061v23.152
	c0,0.988,0.82,1.788,1.832,1.788h10.826c1.012,0,1.832-0.8,2.309-1.788V0H27z M23.724,24.795c0-0.307,0.249-0.555,0.556-0.555h1.193
	c0.307,0,0.556,0.249,0.556,0.555v1.194c0,0.307-0.249,0.556-0.556,0.556H24.28c-0.306,0-0.555-0.249-0.555-0.555V24.795z
	 M23.724,21.452c0-0.306,0.249-0.556,0.556-0.556h1.193c0.307,0,0.556,0.249,0.556,0.556v1.194c0,0.306-0.249,0.555-0.556,0.555
	l-1.194,0.001c-0.306,0-0.555-0.249-0.555-0.556V21.452z M23.724,18.107c0-0.306,0.249-0.555,0.556-0.555h1.193
	c0.307,0,0.556,0.249,0.556,0.555v1.194c0,0.307-0.249,0.556-0.556,0.556H24.28c-0.306,0-0.555-0.249-0.555-0.556V18.107z
	 M20.337,24.795c0-0.307,0.249-0.555,0.556-0.555l1.193-0.001c0.307,0,0.556,0.249,0.556,0.556v1.194
	c0,0.306-0.249,0.556-0.556,0.556h-1.193c-0.307,0-0.556-0.249-0.556-0.556V24.795z M20.337,21.452c0-0.306,0.249-0.556,0.556-0.556
	h1.193c0.307,0,0.556,0.249,0.556,0.556v1.194c0,0.306-0.249,0.555-0.556,0.555l-1.193,0.001c-0.307,0-0.556-0.249-0.556-0.556
	V21.452z M20.337,18.108c0-0.307,0.249-0.556,0.556-0.556h1.193c0.307,0,0.556,0.249,0.556,0.555v1.194
	c0,0.307-0.249,0.556-0.556,0.556h-1.193c-0.307,0-0.556-0.249-0.556-0.556V18.108z M16.95,25.99l0.001-1.194
	c0-0.307,0.249-0.555,0.555-0.555h1.194c0.307,0,0.555,0.249,0.555,0.555v1.194c0,0.307-0.249,0.556-0.555,0.556h-1.194
	C17.199,26.545,16.95,26.296,16.95,25.99z M16.95,22.645l0.001-1.194c0-0.306,0.249-0.556,0.555-0.556h1.194
	c0.307,0,0.555,0.249,0.555,0.556v1.194c0,0.306-0.249,0.555-0.555,0.555l-1.194,0.001C17.199,23.201,16.95,22.952,16.95,22.645z
	 M16.95,19.301l0.001-1.194c0-0.306,0.249-0.555,0.555-0.555h1.194c0.307,0,0.555,0.249,0.555,0.555v1.194
	c0,0.307-0.249,0.556-0.555,0.556h-1.194C17.199,19.857,16.95,19.608,16.95,19.301z M16.94,12.717l0.001-6.257
	c0-0.306,0.249-0.556,0.555-0.556l7.974-0.001c0.307,0,0.555,0.249,0.555,0.556v6.257c-0.001,0.307-0.249,0.556-0.556,0.556
	l-7.974,0.001C17.188,13.273,16.94,13.024,16.94,12.717z"/>
<path d="M10.429,15.91L2.307,26.736l2.486-7.795H1.477L6.451,8.115h3.978L6.948,15.91H10.429z"/>
</svg>
