<?xml version="1.0" encoding="utf-8"?>
<!-- Generator: Adobe Illustrator 22.0.1, SVG Export Plug-In . SVG Version: 6.00 Build 0)  -->
<svg version="1.1" id="Layer_1" xmlns="http://www.w3.org/2000/svg" xmlns:xlink="http://www.w3.org/1999/xlink" x="0px" y="0px"
	 width="14px" height="14px" viewBox="0 0 14 14" enable-background="new 0 0 14 14" xml:space="preserve">
<path d="M14,11c-0.3,0-0.6-0.6-0.8-0.7c-0.2-0.1-0.5-0.1-0.8-0.1c-0.3,0-0.6,0-0.8,0.1C11.3,10.4,11,11,10.7,11
	c-0.3,0-0.6-0.6-0.8-0.7c-0.2-0.1-0.5-0.1-0.8-0.1c-0.3,0-0.6,0-0.8,0.1C8,10.4,7.8,11,7.5,11c-0.3,0-0.6-0.6-0.8-0.7
	c-0.2-0.1-0.5-0.1-0.8-0.1c-0.3,0-0.6,0-0.8,0.1C4.8,10.4,4.5,11,4.2,11s-0.6-0.6-0.8-0.7c-0.3-0.1-0.5-0.1-0.8-0.1s-0.6,0-0.8,0.1
	C1.5,10.4,1.2,11,1,11V9.8c0.3,0,0.6-0.7,0.8-0.8C2,8.9,2.3,9,2.6,9s0.6,0,0.8,0.1c0.2,0.1,0.5,0.7,0.8,0.7S4.8,9.2,5,9.1
	C5.3,8.9,5.6,9,5.8,9c0.3,0,0.6,0,0.8,0.1c0.2,0.1,0.5,0.7,0.8,0.7c0.3,0,0.6-0.6,0.8-0.7C8.5,8.9,8.8,9,9.1,9c0.3,0,0.6,0,0.8,0.1
	c0.2,0.1,0.5,0.7,0.8,0.7c0.3,0,0.6-0.6,0.8-0.7C11.8,8.9,12.1,9,12.4,9c0.3,0,0.6,0,0.8,0.1c0.2,0.1,0.5,0.7,0.8,0.7V11z"/>
<path d="M10.7,5.4l2.4,0.2l-0.2-1.2l-1.7-0.1c-0.5,0-0.4,0.4-0.4,0.4L10.7,5.4z"/>
<path d="M1.8,8C2,7.9,2.3,7.9,2.6,7.9S3.2,7.9,3.4,8c0.2,0.1,0.5,0.2,0.8,0.2S4.8,8.2,5,8c0.2-0.1,0.5-0.2,0.8-0.2
	c0.3,0,0.6,0.1,0.8,0.2c0.2,0.1,0.5,0.2,0.8,0.2C7.8,8.2,8,8.2,8.3,8c0.2-0.1,0.5-0.2,0.8-0.2c0.3,0,0.6,0.1,0.8,0.2
	c0.2,0.1,0.5,0.2,0.8,0.2c0.3,0,0.6-0.1,0.8-0.2c0.2-0.1,0.5-0.2,0.8-0.2c0.3,0,0.6,0.1,0.8,0.2c0.2,0.1,0.5,0.2,0.8,0.2L13.1,6
	L3.9,5.3l1.5-1.5L4.7,3.7L3.2,5.2L0,4.9C0,6,1.5,7.8,1.8,8C1.8,8,1.7,8.1,1.8,8z"/>
<rect x="6" y="4" width="1" height="1"/>
</svg>
