<?xml version="1.0" encoding="utf-8"?>
<!-- Generator: Adobe Illustrator 25.4.1, SVG Export Plug-In . SVG Version: 6.00 Build 0)  -->
<svg version="1.1" id="Icons" xmlns="http://www.w3.org/2000/svg" xmlns:xlink="http://www.w3.org/1999/xlink" x="0px" y="0px"
	 width="14px" height="14px" viewBox="0 0 14 14" enable-background="new 0 0 14 14" xml:space="preserve">
<path fill="#ffffff" d="M12,9c-1.1,0-2,0.9-2,2s0.9,2,2,2s2-0.9,2-2S13.1,9,12,9z M12,12c-0.6,0-1-0.4-1-1s0.4-1,1-1s1,0.4,1,1
	S12.6,12,12,12z"/>
<path fill="#ffffff" d="M2,9c-1.1,0-2,0.9-2,2s0.9,2,2,2s2-0.9,2-2S3.1,9,2,9z M2,12c-0.6,0-1-0.4-1-1s0.4-1,1-1s1,0.4,1,1
	S2.6,12,2,12z"/>
<path fill="#ffffff" d="M6.5,0C7.3,0,8,0.7,8,1.5S7.3,3,6.5,3S5,2.3,5,1.5S5.7,0,6.5,0z M7,11h1l3-3V7H8L7,8V11z M5,11h1V7L5,6V5h1
	l1,1h1V5H7L6,4H5V3H4L3,5v2H1v1h2h2V11z M13,7V6h-2l-1-1H9v1h1l1,1H13z"/>
</svg>
