<?xml version="1.0" encoding="utf-8"?>
<!-- Generator: Adobe Illustrator 20.0.0, SVG Export Plug-In . SVG Version: 6.00 Build 0)  -->
<svg version="1.1" id="Icons" xmlns="http://www.w3.org/2000/svg" xmlns:xlink="http://www.w3.org/1999/xlink" x="0px" y="0px"
	 width="30px" height="30px" viewBox="0 0 30 30" enable-background="new 0 0 30 30" xml:space="preserve">
<g>
	<path fill="#231F20" d="M16.5,22.9C16.1,23.3,15.6,24,15,24v-8l5.2-1l0.8,2L16.5,22.9z"/>
	<path fill="#231F20" d="M12,6c-0.2,0.1-1,0-1,0s-0.1-0.7-0.2-0.7c-0.6,0-1.1,0.3-1.4,0.7l-4.1,6.2c-0.2,0.3-0.3,0.6-0.3,1c0,0.6,0.3,1.2,0.8,1.5
		l5.2,3v5.2c0,0.7,0.9,1.3,1.6,1.3c0.7,0,1.3-0.6,1.3-1.3v-6.4c0,0,0.2-1-1-1.6l-3.4-1.8L12,9.3l1.3,2.1c0.3,0.4,0.6,0.6,0.9,0.6
		h3.4c1.4,0,1.4-2,0-2h-2.7L12,6z"/>
	<path fill="#231F20" d="M27.1,14.4l0.1,0.2c0,0.2-0.1,0.3-0.3,0.3h-0.1c-0.6-0.2-1-0.4-1.6-0.4c-0.4,0-1,0.2-1.6,0.7L22.9,14
		c0.7-0.2,1.4-0.4,2-0.4C25.9,13.6,26.5,13.8,27.1,14.4z"/>
	<path fill="#231F20" d="M4.4,15.3l5.7,3.2v1.3l-6.5-3.6C3.1,16,2.5,15.8,2,15.8c-0.7,0-1.1,0.2-1.6,0.4H0.3C0.1,16.2,0,16,0,15.9l0.1-0.2
		c0.7-0.6,1.3-0.8,2.4-0.8C3,14.8,3.6,14.9,4.4,15.3z"/>
	<path fill="#231F20" d="M25,27.5c1.9,0,3.5-1.6,3.5-3.5s-1.6-3.5-3.5-3.5s-3.5,1.6-3.5,3.5S23.1,27.5,25,27.5z M20,24c0-2.8,2.2-5,5-5s5,2.2,5,5
		s-2.2,5-5,5S20,26.8,20,24z"/>
	<path fill="#231F20" d="M5,27.5c1.9,0,3.5-1.6,3.5-3.5S6.9,20.5,5,20.5S1.5,22.1,1.5,24S3.1,27.5,5,27.5z M0,24c0-2.8,2.2-5,5-5s5,2.2,5,5
		s-2.2,5-5,5S0,26.8,0,24z"/>
	<path fill="#231F20" d="M24,18l-2.4-4.7c-0.3-0.6-0.9-1-1.6-1h-1.5c-0.3,0-0.5,0.2-0.5,0.6c0,0.3,0.2,0.5,0.5,0.5H20c0.3,0,0.5,0.2,0.7,0.4
		l2.2,4.6L24,18z"/>
	<path fill="#231F20" d="M14,0c-1.7,0-3,1.4-3,3.1c0,0.7,0.2,1.3,0.6,1.9h0.6c0.3,0.6,1,1,1.7,1s1.4-0.4,1.7-1H16V2.5h1C16.7,1.1,15.5,0,14,0z"/>
</g>
</svg>
