<?xml version="1.0" encoding="utf-8"?>
<!-- Generator: Adobe Illustrator 22.0.1, SVG Export Plug-In . SVG Version: 6.00 Build 0)  -->
<svg version="1.1" id="Layer_1" xmlns="http://www.w3.org/2000/svg" xmlns:xlink="http://www.w3.org/1999/xlink" x="0px" y="0px"
	 width="30px" height="30px" viewBox="0 0 30 30" enable-background="new 0 0 30 30" xml:space="preserve">
<path fill="#FFFFFF" d="M30,22.4c-0.6,0-1.2-0.1-1.7-0.4c-0.5-0.3-1.1-0.4-1.8-0.4c-0.6,0-1.2,0.1-1.8,0.4c-0.5,0.2-1.1,0.4-1.7,0.4
	c-0.6,0-1.2-0.1-1.7-0.4c-0.5-0.3-1.1-0.4-1.8-0.4c-0.6,0-1.2,0.1-1.8,0.4c-0.5,0.2-1.1,0.4-1.7,0.4c-0.6,0-1.2-0.1-1.7-0.4
	c-0.5-0.3-1.1-0.4-1.8-0.4c-0.6,0-1.2,0.1-1.8,0.4c-0.5,0.2-1.1,0.4-1.7,0.4S7.8,22.2,7.3,22c-0.5-0.3-1.1-0.4-1.8-0.4
	S4.3,21.7,3.8,22c-0.5,0.2-1.1,0.4-1.7,0.4v-2.6c0.6,0,1.2-0.1,1.7-0.4C4.3,19.2,4.9,19,5.6,19s1.2,0.1,1.8,0.4
	c0.5,0.2,1.1,0.4,1.7,0.4s1.2-0.1,1.7-0.4c0.5-0.2,1.1-0.4,1.8-0.4c0.6,0,1.2,0.1,1.8,0.4c0.5,0.2,1.1,0.4,1.7,0.4
	c0.6,0,1.2-0.1,1.7-0.4c0.5-0.2,1.1-0.4,1.8-0.4c0.6,0,1.2,0.1,1.8,0.4c0.5,0.2,1.1,0.4,1.7,0.4c0.6,0,1.2-0.1,1.7-0.4
	c0.5-0.2,1.1-0.4,1.8-0.4c0.6,0,1.2,0.1,1.8,0.4c0.5,0.2,1.1,0.4,1.7,0.4V22.4z"/>
<path fill="#FFFFFF" d="M23,11.6l5.1,0.4l-0.4-2.6l-3.7-0.3c-1,0-0.9,1-0.9,1L23,11.6z"/>
<path fill="#FFFFFF" d="M3.2,17.5c0.2-0.1,0.4-0.1,0.6-0.2c0.5-0.3,1.1-0.4,1.8-0.4s1.2,0.1,1.8,0.4c0.5,0.2,1.1,0.4,1.7,0.4s1.2-0.1,1.7-0.4
	c0.5-0.3,1.1-0.4,1.8-0.4c0.6,0,1.2,0.1,1.8,0.4c0.5,0.2,1.1,0.4,1.7,0.4c0.6,0,1.2-0.1,1.7-0.4c0.5-0.3,1.1-0.4,1.8-0.4
	c0.6,0,1.2,0.1,1.8,0.4c0.5,0.2,1.1,0.4,1.7,0.4c0.6,0,1.2-0.1,1.7-0.4c0.5-0.3,1.1-0.4,1.8-0.4c0.6,0,1.2,0.1,1.8,0.4
	c0.5,0.2,1.1,0.4,1.7,0.4L29.4,13L8.3,11.3L11.5,8l-1.4-0.1l-3.2,3.2L0,10.6C0,12.9,2.6,16.8,3.2,17.5L3.2,17.5z"/>
<circle fill="#FFFFFF" cx="13.5" cy="9.5" r="1.5"/>
</svg>
