<?xml version="1.0" encoding="utf-8"?>
<!-- Generator: Adobe Illustrator 20.0.0, SVG Export Plug-In . SVG Version: 6.00 Build 0)  -->
<svg version="1.1" id="Icons" xmlns="http://www.w3.org/2000/svg" xmlns:xlink="http://www.w3.org/1999/xlink" x="0px" y="0px"
	 width="14px" height="14px" viewBox="0 0 14 14" enable-background="new 0 0 14 14" xml:space="preserve">
<g>
	<path fill="#FFFFFF" d="M13,9h-2l-1,1v2l1,1h2l1-1v-2L13,9z M13,12h-2v-2h2V12z"/>
	<path fill="#FFFFFF" d="M3,9H1l-1,1v2l1,1h2l1-1v-2L3,9z M3,12H1v-2h2V12z"/>
	<polygon fill="#FFFFFF" points="7,11 8,11 11,8 11,7 8,7 7,8 	"/>
	<polygon fill="#FFFFFF" points="5,11 6,11 6,7 5,6 5,5 6,5 7,6 8,6 8,5 7,5 6,4 5,4 5,3 4,3 3,5 3,7 1,7 1,8 3,8 5,8 	"/>
	<circle fill="#FFFFFF" cx="6.5" cy="1.5" r="1.5"/>
	<polygon fill="#FFFFFF" points="13,7 13,6 11,6 10,5 9,5 9,6 10,6 11,7 	"/>
</g>
</svg>
