<?xml version="1.0" encoding="utf-8"?>
<!-- Generator: Adobe Illustrator 25.4.1, SVG Export Plug-In . SVG Version: 6.00 Build 0)  -->
<svg version="1.1" id="Layer_1" xmlns="http://www.w3.org/2000/svg" xmlns:xlink="http://www.w3.org/1999/xlink" x="0px" y="0px"
	 width="14px" height="14px" viewBox="0 0 14 14" enable-background="new 0 0 14 14" xml:space="preserve">
<path fill="#231F20" d="M10.7,5.5l2.4,0.2l-0.2-1.2l-1.7-0.1c-0.5,0-0.4,0.4-0.4,0.4L10.7,5.5z"/>
<path fill="#231F20" d="M7.2,4.5c0,0.4-0.3,0.7-0.7,0.7S5.8,4.9,5.8,4.5s0.3-0.7,0.7-0.7S7.2,4.1,7.2,4.5z"/>
<path fill="#231F20" d="M12.1,9c-0.3,0-0.6,0.4-0.9,0.5c-0.2,0.1-0.5,0.2-0.8,0.2c-0.3,0-0.5-0.1-0.8-0.2C9.3,9.5,9,9,8.7,9
	S8.1,9.5,7.8,9.5C7.6,9.7,7.3,9.8,7,9.8S6.5,9.7,6.2,9.5C5.9,9.5,5.6,9,5.3,9S4.7,9.5,4.4,9.5C4.2,9.7,3.9,9.8,3.6,9.8
	c-0.3,0-0.5-0.1-0.8-0.2C2.5,9.5,2.2,9,1.9,9C1.6,9,1.3,9.5,1,9.5C0.8,9.7,0.5,9.8,0.2,9.8V11c0.3,0,0.6-0.1,0.8-0.2
	c0.3-0.1,0.6-0.5,0.9-0.5c0.3,0,0.6,0.4,0.9,0.5C3,10.8,3.3,11,3.6,11c0.3,0,0.6-0.1,0.8-0.2c0.3-0.1,0.6-0.5,0.9-0.5
	s0.6,0.4,0.9,0.5C6.4,10.8,6.7,11,7,11s0.6-0.1,0.8-0.2c0.3-0.1,0.6-0.5,0.9-0.5s0.6,0.4,0.9,0.5c0.2,0.1,0.5,0.2,0.8,0.2
	c0.3,0,0.6-0.1,0.8-0.2c0.3-0.1,0.6-0.5,0.9-0.5c0.3,0,0.6,0.4,0.9,0.5c0.2,0.1,0.5,0.2,0.8,0.2V9.8c-0.3,0-0.5-0.1-0.8-0.2
	C12.7,9.5,12.4,9,12.1,9z"/>
<path fill="#231F20" d="M3,8.5c0,0,0.1,0.1,0.1,0.1l0.2,0.1c0.2,0.1,0.2,0.1,0.3,0.1c0.1,0,0.2,0,0.4-0.1l0.1,0l0,0
	c0,0,0.1-0.1,0.1-0.1C4.4,8.3,4.8,8,5.3,8s0.9,0.3,1.1,0.5c0,0,0.1,0.1,0.1,0.1l0.2,0.1C6.9,8.7,6.9,8.8,7,8.8c0.1,0,0.2,0,0.4-0.1
	l0.1,0l0,0c0,0,0.1-0.1,0.1-0.1C7.8,8.3,8.2,8,8.7,8s0.9,0.3,1.1,0.5c0,0,0.1,0.1,0.1,0.1l0.2,0.1c0.2,0.1,0.2,0.1,0.3,0.1
	c0.1,0,0.2,0,0.4-0.1l0.1,0l0,0c0,0,0.1-0.1,0.1-0.1C11.2,8.3,11.6,8,12.1,8c0.5,0,0.9,0.3,1.1,0.5c0,0,0.1,0.1,0.1,0.1l0.2,0.1
	c0.2,0.1,0.2,0.1,0.3,0.1h0.1l-0.3-2.2l-0.1-0.4L3.6,5.3l1.5-1.5L4.4,3.7L2.9,5.2L0,5c0,0.5,0.2,1,0.5,1.6c0.2,0.4,0.6,1,1,1.5
	C1.6,8.1,1.7,8,1.9,8C2.4,8,2.8,8.3,3,8.5z"/>
</svg>
