<?xml version="1.0" encoding="UTF-8" standalone="no"?>
<svg width="32px" height="32px" viewBox="0 0 32 32" version="1.1" xmlns="http://www.w3.org/2000/svg" xmlns:xlink="http://www.w3.org/1999/xlink" xmlns:sketch="http://www.bohemiancoding.com/sketch/ns">
    <!-- Generator: Sketch 3.3.3 (12072) - http://www.bohemiancoding.com/sketch -->
    <title>museum-white-32</title>
    <desc>Created with Sketch.</desc>
    <defs></defs>
    <g id="museum" stroke="none" stroke-width="1" fill="none" fill-rule="evenodd" sketch:type="MSPage">
        <g id="museum-white-32" sketch:type="MSArtboardGroup">
            <path d="M4,9 L32,9 L32,13 L4,13 L4,9 Z M5,26 L31,26 L32,29 L4,29 L5,26 Z M6,13 L9,13 L9,26 L6,26 L6,13 Z M13,13 L16,13 L16,26 L13,26 L13,13 Z M20,13 L23,13 L23,26 L20,26 L20,13 Z M27,13 L30,13 L30,26 L27,26 L27,13 Z M6,9 L18,5 L30,9 L6,9 Z" id="symbol" fill-opacity="0.5" fill="#000000" sketch:type="MSShapeGroup"></path>
            <path d="M3,8 L31,8 L31,12 L3,12 L3,8 Z M4,25 L30,25 L31,28 L3,28 L4,25 Z M5,12 L8,12 L8,25 L5,25 L5,12 Z M12,12 L15,12 L15,25 L12,25 L12,12 Z M19,12 L22,12 L22,25 L19,25 L19,12 Z M26,12 L29,12 L29,25 L26,25 L26,12 Z M5,8 L17,4 L29,8 L5,8 Z" id="symbol-copy" fill-opacity="0.75" fill="#000000" sketch:type="MSShapeGroup"></path>
            <path d="M2,7 L30,7 L30,11 L2,11 L2,7 Z M3,24 L29,24 L30,27 L2,27 L3,24 Z M4,11 L7,11 L7,24 L4,24 L4,11 Z M11,11 L14,11 L14,24 L11,24 L11,11 Z M18,11 L21,11 L21,24 L18,24 L18,11 Z M25,11 L28,11 L28,24 L25,24 L25,11 Z M4,7 L16,3 L28,7 L4,7 Z" id="symbol-copy-2" fill="#FFFFFF" sketch:type="MSShapeGroup"></path>
        </g>
    </g>
</svg>