<?xml version="1.0" encoding="UTF-8" standalone="no"?>
<svg width="24px" height="24px" viewBox="0 0 24 24" version="1.1" xmlns="http://www.w3.org/2000/svg" xmlns:xlink="http://www.w3.org/1999/xlink" xmlns:sketch="http://www.bohemiancoding.com/sketch/ns">
    <!-- Generator: Sketch 3.3.3 (12072) - http://www.bohemiancoding.com/sketch -->
    <title>museum-black-24</title>
    <desc>Created with Sketch.</desc>
    <defs></defs>
    <g id="museum" stroke="none" stroke-width="1" fill="none" fill-rule="evenodd" sketch:type="MSPage">
        <g id="museum-black-24" sketch:type="MSArtboardGroup" fill="#000000">
            <path d="M4,8 L24,8 L24,10 L4,10 L4,8 Z M5,20 L23,20 L24,22 L4,22 L5,20 Z M6,8 L14,5 L22,8 L6,8 Z M6,10 L9,10 L9,20 L6,20 L6,10 Z M11,10 L13,10 L13,20 L11,20 L11,10 Z M15,10 L17,10 L17,20 L15,20 L15,10 Z M19,10 L22,10 L22,20 L19,20 L19,10 Z" id="symbol" fill-opacity="0.1" sketch:type="MSShapeGroup"></path>
            <path d="M3,7 L23,7 L23,9 L3,9 L3,7 Z M4,19 L22,19 L23,21 L3,21 L4,19 Z M5,7 L13,4 L21,7 L5,7 Z M5,9 L8,9 L8,19 L5,19 L5,9 Z M10,9 L12,9 L12,19 L10,19 L10,9 Z M14,9 L16,9 L16,19 L14,19 L14,9 Z M18,9 L21,9 L21,19 L18,19 L18,9 Z" id="symbol-copy" fill-opacity="0.2" sketch:type="MSShapeGroup"></path>
            <path d="M2,6 L22,6 L22,8 L2,8 L2,6 Z M3,18 L21,18 L22,20 L2,20 L3,18 Z M4,6 L12,3 L20,6 L4,6 Z M4,8 L7,8 L7,18 L4,18 L4,8 Z M9,8 L11,8 L11,18 L9,18 L9,8 Z M13,8 L15,8 L15,18 L13,18 L13,8 Z M17,8 L20,8 L20,18 L17,18 L17,8 Z" id="symbol-copy-2" sketch:type="MSShapeGroup"></path>
        </g>
    </g>
</svg>