<?xml version="1.0" encoding="utf-8"?>
<!-- Generator: Adobe Illustrator 22.0.1, SVG Export Plug-In . SVG Version: 6.00 Build 0)  -->
<svg version="1.1" id="Layer_1" xmlns="http://www.w3.org/2000/svg" xmlns:xlink="http://www.w3.org/1999/xlink" x="0px" y="0px"
	 width="30px" height="30px" viewBox="0 0 30 30" enable-background="new 0 0 30 30" xml:space="preserve">
<path fill="#FFFFFF" d="M15.9,1.6v24c0,0,9.2,2.9,14.1,2.8v-24C30,4.4,27.1,4.4,15.9,1.6z M29,27.3c-1.4-0.2-4.7-0.7-11-2.2v-1
	c6.3,1.6,9.6,2.1,11,2.2V27.3z M29,25.3c-1.4-0.2-4.7-0.7-11-2.2v-1c6.3,1.6,9.6,2.1,11,2.2V25.3z M29,23.3c-1.4-0.2-4.7-0.7-11-2.2
	v-1c6.3,1.6,9.6,2.1,11,2.2V23.3z M29,17.3c-1.4-0.2-4.7-0.7-11-2.2v-1c6.3,1.6,9.6,2.1,11,2.2V17.3z M29,15.3
	c-1.4-0.2-4.7-0.7-11-2.2v-1c6.3,1.6,9.6,2.1,11,2.2V15.3z M29,13.3c-1.4-0.2-4.7-0.7-11-2.2v-1c6.3,1.6,9.6,2.1,11,2.2V13.3z
	 M29,11.3c-1.4-0.2-4.7-0.7-11-2.2v-1c6.3,1.6,9.6,2.1,11,2.2V11.3z M29,9.3c-1.4-0.2-4.7-0.7-11-2.2v-1c6.3,1.6,9.6,2.1,11,2.2V9.3
	z M29,7.3c-1.4-0.2-4.7-0.7-11-2.2v-1c6.3,1.6,9.6,2.1,11,2.2V7.3z"/>
<path fill="#FFFFFF" d="M0,4.4v24c4.9,0.1,14-2.8,14-2.8v-24C2.9,4.4,0,4.4,0,4.4z M12,25.1c-6.3,1.6-9.6,2.1-11,2.2v-1c1.4-0.2,4.7-0.7,11-2.2
	V25.1z M12,23.1c-6.3,1.6-9.6,2.1-11,2.2v-1c1.4-0.2,4.7-0.7,11-2.2V23.1z M12,21.1c-6.3,1.6-9.6,2.1-11,2.2v-1
	c1.4-0.2,4.7-0.7,11-2.2V21.1z M12,19.1c-6.3,1.6-9.6,2.1-11,2.2v-1c1.4-0.2,4.7-0.7,11-2.2V19.1z M12,17.1c-6.3,1.6-9.6,2.1-11,2.2
	v-1c1.4-0.2,4.7-0.7,11-2.2V17.1z M12,15.1c-6.3,1.6-9.6,2.1-11,2.2v-1c1.4-0.2,4.7-0.7,11-2.2V15.1z M12,9.1
	c-6.3,1.6-9.6,2.1-11,2.2v-1c1.4-0.2,4.7-0.7,11-2.2V9.1z M12,7.1C5.7,8.7,2.4,9.2,1,9.3v-1c1.4-0.2,4.7-0.7,11-2.2V7.1z M12,5.1
	C5.7,6.7,2.4,7.2,1,7.3v-1c1.4-0.2,4.7-0.7,11-2.2V5.1z"/>
</svg>
