<?xml version="1.0" encoding="utf-8"?>
<!-- Generator: Adobe Illustrator 22.0.1, SVG Export Plug-In . SVG Version: 6.00 Build 0)  -->
<svg version="1.1" id="Layer_1" xmlns="http://www.w3.org/2000/svg" xmlns:xlink="http://www.w3.org/1999/xlink" x="0px" y="0px"
	 width="22px" height="22px" viewBox="0 0 22 22" enable-background="new 0 0 22 22" xml:space="preserve">
<path d="M11.6,1.2v17.6c0,0,6.7,2.2,10.4,2.1V3.2C22,3.2,19.9,3.3,11.6,1.2z M21,18.1c-1.2-0.1-3.6-0.5-8-1.6v-1
	c4.4,1.1,6.8,1.5,8,1.6V18.1z M21,16.1c-1.2-0.1-3.6-0.5-8-1.6v-1c4.4,1.1,6.8,1.5,8,1.6V16.1z M21,12.1c-1.2-0.1-3.6-0.5-8-1.6v-1
	c4.4,1.1,6.8,1.5,8,1.6V12.1z M21,10.1c-1.2-0.1-3.6-0.5-8-1.6v-1c4.4,1.1,6.8,1.5,8,1.6V10.1z M21,8.1c-1.2-0.1-3.6-0.5-8-1.6v-1
	c4.4,1.1,6.8,1.5,8,1.6V8.1z M21,6.1c-1.2-0.1-3.6-0.5-8-1.6v-1c4.4,1.1,6.8,1.5,8,1.6V6.1z"/>
<path d="M0,3.2v17.6c3.6,0.1,10.3-2.1,10.3-2.1V1.2C2.1,3.3,0,3.2,0,3.2z M9,16.5c-4.4,1.1-6.8,1.5-8,1.6v-1c1.2-0.1,3.6-0.5,8-1.6
	V16.5z M9,14.5c-4.4,1.1-6.8,1.5-8,1.6v-1c1.2-0.1,3.6-0.5,8-1.6V14.5z M9,12.5c-4.4,1.1-6.8,1.5-8,1.6v-1c1.2-0.1,3.6-0.5,8-1.6
	V12.5z M9,10.5c-4.4,1.1-6.8,1.5-8,1.6v-1c1.2-0.1,3.6-0.5,8-1.6V10.5z M9,6.5C4.6,7.6,2.2,8,1,8.1v-1C2.2,7,4.6,6.6,9,5.5V6.5z
	 M9,4.5C4.6,5.6,2.2,6,1,6.1v-1C2.2,5,4.6,4.6,9,3.5V4.5z"/>
</svg>
