<?xml version="1.0" encoding="utf-8"?>
<!-- Generator: Adobe Illustrator 22.0.1, SVG Export Plug-In . SVG Version: 6.00 Build 0)  -->
<svg version="1.1" id="Layer_1" xmlns="http://www.w3.org/2000/svg" xmlns:xlink="http://www.w3.org/1999/xlink" x="0px" y="0px"
	 width="14px" height="14px" viewBox="0 0 14 14" enable-background="new 0 0 14 14" xml:space="preserve">
<path fill="#FFFFFF" d="M7.4,0.7v11.2c0,0,4.3,1.4,6.6,1.3V2C14,2,12.6,2.1,7.4,0.7z M13,10.9c-0.8-0.1-2-0.3-4-0.8v-1c2,0.5,3.2,0.7,4,0.8V10.9z
	 M13,6.9c-0.8-0.1-2-0.3-4-0.8v-1c2,0.5,3.2,0.7,4,0.8V6.9z M13,4.9c-0.8-0.1-2-0.3-4-0.8v-1c2,0.5,3.2,0.7,4,0.8V4.9z"/>
<path fill="#FFFFFF" d="M0,2v11.2c2.3,0.1,6.5-1.3,6.5-1.3V0.7C1.4,2.1,0,2,0,2z M5,10.1c-2,0.5-3.2,0.7-4,0.8v-1c0.8-0.1,2-0.3,4-0.8V10.1z M5,8.1
	C3,8.6,1.8,8.8,1,8.9v-1c0.8-0.1,2-0.3,4-0.8V8.1z M5,4.1C3,4.6,1.8,4.8,1,4.9v-1c0.8-0.1,2-0.3,4-0.8V4.1z"/>
</svg>
