<?xml version="1.0" encoding="utf-8"?>
<!-- Generator: Adobe Illustrator 22.1.0, SVG Export Plug-In . SVG Version: 6.00 Build 0)  -->
<svg version="1.1" id="Layer_1" xmlns="http://www.w3.org/2000/svg" xmlns:xlink="http://www.w3.org/1999/xlink" x="0px" y="0px"
	 width="22px" height="22px" viewBox="0 0 22 22" enable-background="new 0 0 22 22" xml:space="preserve">
<path fill="#FFFFFF" d="M6,2h10v9.7l1,0.9V1c0-0.5-0.5-1-1-1H6C5.5,0,5,0.5,5,1v1l1,0.9V2z"/>
<path fill="#FFFFFF" d="M16,20H6v-9.7L5,9.4V21c0,0.5,0.5,1,1,1h10c0.5,0,1-0.5,1-1v-1l-1-0.9V20z"/>
<polygon fill="#FFFFFF" points="0,0.2 0,2.4 22,21.8 22,19.6 "/>
</svg>
