<?xml version="1.0" encoding="utf-8"?>
<!-- Generator: Adobe Illustrator 22.1.0, SVG Export Plug-In . SVG Version: 6.00 Build 0)  -->
<svg version="1.1" id="Layer_1" xmlns="http://www.w3.org/2000/svg" xmlns:xlink="http://www.w3.org/1999/xlink" x="0px" y="0px"
	 width="14px" height="14px" viewBox="0 0 14 14" enable-background="new 0 0 14 14" xml:space="preserve">
<path d="M4,1h6v6.3l1,0.9V1c0-0.5-0.5-1-1-1H4C3.5,0,3,0.5,3,1v0.1L4,2V1z"/>
<path d="M10,13H4V6.7L3,5.8V13c0,0.5,0.5,1,1,1h6c0.5,0,1-0.5,1-1v-0.1L10,12V13z"/>
<polygon points="0,0.2 0,1.5 14,13.8 14,12.5 "/>
</svg>
