<?xml version="1.0" encoding="utf-8"?>
<!-- Generator: Adobe Illustrator 22.1.0, SVG Export Plug-In . SVG Version: 6.00 Build 0)  -->
<svg version="1.1" id="Layer_1" xmlns="http://www.w3.org/2000/svg" xmlns:xlink="http://www.w3.org/1999/xlink" x="0px" y="0px"
	 width="30px" height="30px" viewBox="0 0 30 30" enable-background="new 0 0 30 30" xml:space="preserve">
<path fill="#FFFFFF" d="M21,0H9C7.9,0,7,0.9,7,2v0.9l2,1.8V3h12v12.3l2,1.8V2C23,0.9,22.1,0,21,0z M17,2h-4V1h4V2z"/>
<path fill="#FFFFFF" d="M21,25.3V27H9V14.7L7,13v15c0,1.1,0.9,2,2,2h12c1.1,0,2-0.9,2-2v-0.9L21,25.3z M15,29.8c-0.7,0-1.2-0.6-1.2-1.2
	s0.6-1.2,1.2-1.2s1.2,0.6,1.2,1.2S15.7,29.8,15,29.8z"/>
<polygon fill="#FFFFFF" points="0,0.3 0,3.2 30,29.7 30,26.8 "/>
</svg>
