<?xml version="1.0" encoding="utf-8"?>
<!-- Generator: Adobe Illustrator 25.4.1, SVG Export Plug-In . SVG Version: 6.00 Build 0)  -->
<svg version="1.1" id="Layer_1" xmlns="http://www.w3.org/2000/svg" xmlns:xlink="http://www.w3.org/1999/xlink" x="0px" y="0px"
	 width="14px" height="14px" viewBox="0 0 14 14" enable-background="new 0 0 14 14" xml:space="preserve">
<path fill="#231F20" d="M4.3,8.9c0,1.2-0.7,1.8-1.6,1.8S1.2,10,1.2,9c0-1.1,0.7-1.8,1.6-1.8C3.7,7.1,4.3,7.9,4.3,8.9z M1.7,8.9
	c0,0.7,0.4,1.4,1.1,1.4s1.1-0.6,1.1-1.4c0-0.7-0.4-1.4-1.1-1.4C2,7.5,1.7,8.2,1.7,8.9z"/>
<path fill="#231F20" d="M4.9,7.2c0.2,0,0.5-0.1,0.8-0.1c0.4,0,0.7,0.1,0.9,0.3c0.2,0.2,0.3,0.4,0.3,0.7S6.8,8.6,6.6,8.8
	C6.4,9,6,9.2,5.6,9.2c-0.1,0-0.3,0-0.4,0v1.4H4.9V7.2z M5.3,8.9c0.1,0,0.2,0,0.4,0c0.5,0,0.8-0.3,0.8-0.7c0-0.4-0.3-0.7-0.8-0.7
	c-0.2,0-0.3,0-0.4,0V8.9z"/>
<path fill="#231F20" d="M9.3,9H8v1.2h1.5v0.4h-2V7.2h1.8v0.4H8v1.1h1.3V9z"/>
<path fill="#231F20" d="M10,10.6V7.2h0.5l1.1,1.7c0.3,0.4,0.4,0.8,0.6,1.1l0,0c0-0.5-0.1-0.9-0.1-1.4V7.2h0.4v3.4h-0.4L11,8.9
	c-0.2-0.4-0.5-0.8-0.6-1.1l0,0c0,0.4,0,0.8,0,1.4v1.4C10.4,10.6,10,10.6,10,10.6z"/>
<path fill="#231F20" d="M12,4L8,0.8C7.8,0.3,7.5,0,7,0S6.2,0.3,6,0.8L2,4H0v10h14V4H12z M6.4,1.8C6.6,1.9,6.8,2,7,2s0.4-0.1,0.6-0.2
	L10.4,4H3.6L6.4,1.8z M13,13H1V5h12V13z"/>
</svg>
