<?xml version="1.0" encoding="utf-8"?>
<!-- Generator: Adobe Illustrator 22.0.1, SVG Export Plug-In . SVG Version: 6.00 Build 0)  -->
<svg version="1.1" id="Layer_1" xmlns="http://www.w3.org/2000/svg" xmlns:xlink="http://www.w3.org/1999/xlink" x="0px" y="0px"
	 width="22px" height="22px" viewBox="0 0 22 22" enable-background="new 0 0 22 22" xml:space="preserve">
<path d="M5.2,15.8c-3,0-5.2-1.7-5.2-4.8C0,8,2.2,6.2,5.2,6.2s5.2,1.8,5.2,4.9C10.5,14.2,8.2,15.8,5.2,15.8z M5.2,13.4
	c1.1,0,1.6-0.9,1.6-2.3c0-1.1-0.2-2.5-1.6-2.5S3.6,10,3.6,11.1C3.6,12.5,4.2,13.4,5.2,13.4z"/>
<path d="M18.2,9.9c0-0.4-0.2-0.7-0.4-0.9c-0.2-0.2-0.5-0.4-0.9-0.4c-1.4,0-1.6,1.4-1.6,2.5c0,1.4,0.5,2.3,1.6,2.3
	c0.9,0,1.3-0.6,1.4-1.4H22c-0.3,2.8-2.6,3.8-5.1,3.8c-3,0-5.2-1.7-5.2-4.8c0-3.1,2.2-4.9,5.2-4.9c2.5,0,4.8,1,5,3.8H18.2z"/>
</svg>
