<?xml version="1.0" encoding="utf-8"?>
<!-- Generator: Adobe Illustrator 22.0.1, SVG Export Plug-In . SVG Version: 6.00 Build 0)  -->
<svg version="1.1" id="Layer_1" xmlns="http://www.w3.org/2000/svg" xmlns:xlink="http://www.w3.org/1999/xlink" x="0px" y="0px"
	 width="14px" height="14px" viewBox="0 0 14 14" enable-background="new 0 0 14 14" xml:space="preserve">
<polygon points="9,7.5 9,7 8,7 7,7 7,7.5 7,8 7,8.5 7,9.5 7,10 8,10 9,10 9,9.5 8,9.5 8,8.5 9,8.5 9,8 8,8 8,7.5 "/>
<polygon points="10,10 10,7 11,8 11,7 12,7 12,10 11,9 11,10 "/>
<path d="M5,7H4v2v1h1V9c0.5,0,1-0.5,1-1S5.5,7,5,7z"/>
<path d="M2,10L2,10c-0.6,0-1-0.4-1-1V8c0-0.5,0.4-1,1-1h0c0.5,0,1,0.4,1,1v1C3,9.6,2.6,10,2,10z"/>
<path d="M12,4L8,0.8C7.8,0.3,7.5,0,7,0S6.2,0.3,6,0.8L2,4H0v10h14V4H12z M6.4,1.8C6.6,1.9,6.8,2,7,2s0.4-0.1,0.6-0.2L10.4,4H3.6
	L6.4,1.8z M13,13H1V5h12V13z"/>
</svg>
