<?xml version="1.0" encoding="utf-8"?>
<!-- Generator: Adobe Illustrator 22.0.1, SVG Export Plug-In . SVG Version: 6.00 Build 0)  -->
<svg version="1.1" id="Layer_1" xmlns="http://www.w3.org/2000/svg" xmlns:xlink="http://www.w3.org/1999/xlink" x="0px" y="0px"
	 width="14px" height="14px" viewBox="0 0 14 14" enable-background="new 0 0 14 14" xml:space="preserve">
<path fill="#FFFFFF" d="M3.3,10.1C1.4,10.1,0,9,0,7.1c0-2,1.4-3.1,3.3-3.1s3.3,1.1,3.3,3.1C6.7,9,5.2,10.1,3.3,10.1z M3.3,8.5
	c0.7,0,1.3-0.5,1.3-1.3c0-0.7-0.4-1.7-1.3-1.7S1.8,6.3,1.8,7C1.8,7.9,2.7,8.5,3.3,8.5z"/>
<path fill="#FFFFFF" d="M11.6,6.1c0,0-0.1-0.2-0.2-0.3c-0.1-0.2-0.3-0.2-0.6-0.2c-0.9,0-1,0.9-1,1.6c0,0.9,0.3,1.5,1,1.5c0.6,0,0.8-0.4,0.9-0.6H14
	c-0.2,1.5-1.6,2.2-3.2,2.2C8.9,10.1,8,9,8,7.1c0-2,0.8-3.1,2.8-3.1c1.6,0,3,0.7,3.2,2.1H11.6z"/>
</svg>
