<?xml version="1.0" encoding="utf-8"?>
<!-- Generator: Adobe Illustrator 22.0.1, SVG Export Plug-In . SVG Version: 6.00 Build 0)  -->
<svg version="1.1" id="Layer_1" xmlns="http://www.w3.org/2000/svg" xmlns:xlink="http://www.w3.org/1999/xlink" x="0px" y="0px"
	 width="22px" height="22px" viewBox="0 0 22 22" enable-background="new 0 0 22 22" xml:space="preserve">
<polygon fill="#FFFFFF" points="15,13 15,12 13,12 12,12 12,13 12,14 12,15 12,17 13,17 15,17 15,16 13,16 13,15 15,15 15,14 13,14 13,13 "/>
<polygon fill="#FFFFFF" points="17,12 17,17 18,17 18,14 19,17 20,17 20,12 19,12 19,15 18,12 "/>
<path fill="#FFFFFF" d="M8.5,12C8.3,12,8,12,8,12H7v5h1v-2c0.2,0.1,0.3,0,0.5,0c0.8,0,1.5-0.7,1.5-1.5S9.3,12,8.5,12z M9,14H8v-1h1V14z"/>
<path fill="#FFFFFF" d="M3.5,12C2.7,12,2,13.1,2,14.5C2,15.9,2.7,17,3.5,17S5,15.9,5,14.5C5,13.1,4.3,12,3.5,12z M4,16H3v-3h1V16z"/>
<path fill="#FFFFFF" d="M19,7l-6.5-5.7C12.4,0.6,11.8,0,11,0S9.6,0.6,9.5,1.3L3,7H0v15h22V7H19z M9.8,2.4C10.1,2.8,10.5,3,11,3s0.9-0.2,1.2-0.6
	L17.5,7h-13L9.8,2.4z M21,21H1V8h20V21z"/>
</svg>
