<?xml version="1.0" encoding="utf-8"?>
<!-- Generator: Adobe Illustrator 22.0.1, SVG Export Plug-In . SVG Version: 6.00 Build 0)  -->
<svg version="1.1" id="Layer_1" xmlns="http://www.w3.org/2000/svg" xmlns:xlink="http://www.w3.org/1999/xlink" x="0px" y="0px"
	 width="30px" height="30px" viewBox="0 0 30 30" enable-background="new 0 0 30 30" xml:space="preserve">
<polygon fill="#FFFFFF" points="20,17 20,15 18,15 17,15 16,15 16,23 17,23 18,23 20,23 20,21 18,21 18,20 20,20 20,18 18,18 18,17 "/>
<polygon fill="#FFFFFF" points="22,23 22,15 24,15 25,20 25,15 26,15 26,23 24,23 23,18 23,23 "/>
<path fill="#FFFFFF" d="M6,15c-1.1,0-2,0.9-2,2v4c0,1.1,0.9,2,2,2s2-0.9,2-2v-4C8,15.9,7.1,15,6,15z M6,21c-0.6,0-1-0.9-1-2c0-1.1,0.4-2,1-2
	s1,0.9,1,2C7,20.1,6.6,21,6,21z"/>
<path fill="#FFFFFF" d="M12,15h-2v8h2v-3c1.1,0,2-1.1,2-2.5C14,16.1,13.1,15,12,15z M12,19v-3c0.6,0,1,0.7,1,1.5S12.6,19,12,19z"/>
<path fill="#FFFFFF" d="M26,9l-9-7.4C16.8,0.7,16,0,15,0s-1.8,0.7-2,1.6L4,9H0v21h30V9H26z M13.2,2.8C13.5,3.5,14.2,4,15,4s1.5-0.5,1.8-1.2L24.4,9
	H5.6L13.2,2.8z M28,28H2V11h26V28z"/>
</svg>
