<?xml version="1.0" encoding="utf-8"?>
<!-- Generator: Adobe Illustrator 22.1.0, SVG Export Plug-In . SVG Version: 6.00 Build 0)  -->
<svg version="1.1" id="Layer_1" xmlns="http://www.w3.org/2000/svg" xmlns:xlink="http://www.w3.org/1999/xlink" x="0px" y="0px"
	 width="14px" height="14px" viewBox="0 0 14 14" enable-background="new 0 0 14 14" xml:space="preserve">
<path fill="#FFFFFF" d="M3.1,3c0.6-0.1,1.1-0.7,1-1.3C4,1.1,3.5,0.6,2.8,0.7C2.2,0.8,1.8,1.4,1.8,2C1.9,2.6,2.5,3.1,3.1,3z"/>
<path fill="#FFFFFF" d="M13,11.5c-0.3,0.2-0.6,0.5-1,0.5c-0.5,0-0.7-0.3-1-0.5c-0.2-0.2-0.6-0.5-1-0.5c-0.4,0-0.7,0.3-1,0.5C8.8,11.7,8.4,12,8,12
	c-0.4,0-0.7-0.3-1-0.5C6.7,11.3,6.5,11,6,11c-0.5,0-0.8,0.3-1,0.5C4.8,11.7,4.5,12,4,12c-0.5,0-0.8-0.3-1-0.5C2.8,11.3,2.6,11,2,11
	c-0.5,0-0.8,0.3-1,0.5C0.8,11.7,0,12,0,12v1v1c0,0,0.8-0.3,1-0.5C1.2,13.3,1.5,13,2,13c0.6,0,0.8,0.3,1,0.5C3.2,13.7,3.5,14,4,14
	c0.5,0,0.8-0.3,1-0.5C5.2,13.3,5.5,13,6,13c0.5,0,0.7,0.3,1,0.5C7.3,13.7,7.6,14,8,14c0.4,0,0.8-0.3,1-0.5c0.3-0.2,0.6-0.5,1-0.5
	c0.4,0,0.8,0.3,1,0.5c0.3,0.2,0.5,0.5,1,0.5c0.4,0,0.7-0.3,1-0.5c0.3-0.2,1-0.5,1-0.5v-1v-1C14,11,13.3,11.3,13,11.5z"/>
<path fill="#FFFFFF" d="M13.4,8c-0.8,0-1.2-1.2-1.5-1.6c-0.1-0.1-3.2-0.3-3.6,0.4L6.8,5.1c0,0-0.1-0.1-0.4-0.2C6.3,4.9,6.2,5,6,5.1L4.5,6.5L3.8,4.1
	l0,0C3.6,3.6,3.1,3.3,2.5,3.4C1.9,3.4,1.5,4,1.5,4.6c0,0.1,0,0.1,0,0.2l0,0l0,0c0,0,0,0,0,0l0.8,2.8c0,0,0.1,0.1,0.4,0.3H0v3
	c0,0,0.8-0.3,1-0.5C1.2,10.3,1.5,10,2,10c0.6,0,0.8,0.3,1,0.5C3.2,10.7,3.5,11,4,11c0.5,0,0.8-0.3,1-0.5C5.2,10.3,5.5,10,6,10
	c0.5,0,0.7,0.3,1,0.5C7.3,10.7,7.6,11,8,11c0.4,0,0.8-0.3,1-0.5c0.3-0.2,0.6-0.5,1-0.5c0.4,0,0.8,0.3,1,0.5c0.1,0.1,0.2,0.1,0.3,0.2
	L14,8H13.4z M6.5,6.7L7.3,8H5.4L6.5,6.7z"/>
</svg>
