<?xml version="1.0" encoding="utf-8"?>
<!-- Generator: Adobe Illustrator 22.1.0, SVG Export Plug-In . SVG Version: 6.00 Build 0)  -->
<svg version="1.1" id="Layer_1" xmlns="http://www.w3.org/2000/svg" xmlns:xlink="http://www.w3.org/1999/xlink" x="0px" y="0px"
	 width="22px" height="22px" viewBox="0 0 22 22" enable-background="new 0 0 22 22" xml:space="preserve">
<path fill="#FFFFFF" d="M4.9,4.1c1-0.1,1.7-1,1.5-2c-0.1-1-1-1.7-2-1.5c-1,0.1-1.7,1-1.5,2C3,3.6,3.9,4.3,4.9,4.1z"/>
<path fill="#FFFFFF" d="M20.4,17.5c-0.5,0.3-0.9,0.8-1.6,0.8c-0.7,0-1.1-0.5-1.6-0.8c-0.4-0.3-1-0.8-1.6-0.8c-0.6,0-1.2,0.4-1.6,0.8
	c-0.3,0.3-0.9,0.8-1.6,0.8c-0.7,0-1.2-0.5-1.6-0.8c-0.4-0.3-0.8-0.8-1.6-0.8c-0.7,0-1.2,0.5-1.6,0.8c-0.4,0.3-0.8,0.8-1.6,0.8
	c-0.7,0-1.2-0.5-1.6-0.8c-0.4-0.2-0.7-0.8-1.6-0.8c-0.8,0-1.2,0.5-1.6,0.8C1.2,17.8,0,18.3,0,18.3v1.6l0,0v1.6c0,0,1.2-0.5,1.6-0.8
	c0.4-0.3,0.8-0.8,1.6-0.8c0.9,0,1.2,0.5,1.6,0.8c0.4,0.3,0.9,0.8,1.6,0.8c0.8,0,1.2-0.5,1.6-0.8c0.4-0.3,0.8-0.8,1.6-0.8
	c0.8,0,1.2,0.5,1.6,0.8c0.4,0.3,0.9,0.8,1.6,0.8c0.7,0,1.2-0.5,1.6-0.8c0.4-0.3,1-0.8,1.6-0.8c0.6,0,1.2,0.5,1.6,0.8
	c0.5,0.3,0.9,0.8,1.6,0.8c0.6,0,1-0.5,1.6-0.8c0.5-0.3,1.6-0.8,1.6-0.8v-1.6v-1.6C22,16.7,21,17.2,20.4,17.5z"/>
<path fill="#FFFFFF" d="M21,12c-1.2,0-1.9-1.9-2.4-2.6C18.5,9.3,13.5,9,13,10.1l-2.2-2.6c0,0-0.2-0.2-0.6-0.2c-0.2,0-0.4,0.1-0.6,0.2L7.1,9.6
	L5.9,5.9l0,0C5.6,5.1,4.8,4.6,4,4.7c-1,0.1-1.7,1-1.5,2c0,0.1,0,0.2,0.1,0.3l0,0l0,0c0,0,0,0,0,0l1.3,4.5c0,0,0.2,0.2,0.7,0.5H0v4.7
	c0,0,1.2-0.5,1.6-0.8c0.4-0.3,0.8-0.8,1.6-0.8c0.9,0,1.2,0.5,1.6,0.8c0.4,0.3,0.9,0.8,1.6,0.8c0.8,0,1.2-0.5,1.6-0.8
	c0.4-0.3,0.8-0.8,1.6-0.8c0.8,0,1.2,0.5,1.6,0.8c0.4,0.3,0.9,0.8,1.6,0.8c0.7,0,1.2-0.5,1.6-0.8c0.4-0.3,1-0.8,1.6-0.8
	c0.6,0,1.2,0.5,1.6,0.8c0.1,0.1,0.3,0.2,0.4,0.3L22,12H21z M10.1,10l1.4,2h-3L10.1,10z"/>
</svg>
