<?xml version="1.0" encoding="utf-8"?>
<!-- Generator: Adobe Illustrator 25.2.1, SVG Export Plug-In . SVG Version: 6.00 Build 0)  -->
<svg version="1.1" id="Layer_1" xmlns="http://www.w3.org/2000/svg" xmlns:xlink="http://www.w3.org/1999/xlink" x="0px" y="0px"
	 width="22px" height="22px" viewBox="0 0 22 22" enable-background="new 0 0 22 22" xml:space="preserve">
<path fill="#FFFFFF" d="M14.39,3.75l3.86,3.96v10.54H7.73l-3.98-4.01V3.75H14.39 M15.13,2H2v12.96L7,20h13V7L15.13,2L15.13,2z"/>
<path fill="#FFFFFF" d="M11.69,11.33c0.76,0,1.72-0.57,1.72-1.34c0-0.76-0.64-1.34-1.4-1.34H9.72v2.67h2.29H11.69z M11.69,7
	C13.35,7,15,8.34,15,9.99s-1.65,3.05-3.31,3.05H9.72v2.86H8V7H11.69z"/>
</svg>
