<?xml version="1.0" encoding="utf-8"?>
<!-- Generator: Adobe Illustrator 18.1.1, SVG Export Plug-In . SVG Version: 6.00 Build 0)  -->
<svg version="1.1" id="Icons" xmlns="http://www.w3.org/2000/svg" xmlns:xlink="http://www.w3.org/1999/xlink" x="0px" y="0px"
	 viewBox="0 0 32 32" enable-background="new 0 0 32 32" xml:space="preserve">
<g opacity="0.5">
	<path d="M17.5,16.6c2.5,0,4.5-2,4.5-4.5c0-2.5-2-4.5-4.5-4.5l-6.5,0l-0.1,9L17.5,16.6L17.5,16.6z M17.4,2C23,2,28,6.6,28,12.2
		c0,5.6-5.4,9.8-11,9.8h-6v10H5V2H17.4z"/>
</g>
<g opacity="0.75">
	<path d="M16.5,15.6c2.5,0,4.5-2,4.5-4.5c0-2.5-2-4.5-4.5-4.5l-6.5,0l-0.1,9L16.5,15.6L16.5,15.6z M16.4,1C22,1,27,5.6,27,11.2
		c0,5.6-5.4,9.8-11,9.8h-6v10H4V1H16.4z"/>
</g>
<g>
	<path fill="#FFFFFF" d="M15.5,14.6c2.5,0,4.5-2,4.5-4.5c0-2.5-2-4.5-4.5-4.5L9,5.5l-0.1,9L15.5,14.6L15.5,14.6z M15.4,0
		C21,0,26,4.6,26,10.2c0,5.6-5.4,9.8-11,9.8H9v10H3V0H15.4z"/>
</g>
</svg>
