<?xml version="1.0" encoding="utf-8"?>
<!-- Generator: Adobe Illustrator 25.2.1, SVG Export Plug-In . SVG Version: 6.00 Build 0)  -->
<svg version="1.1" id="Layer_1" xmlns="http://www.w3.org/2000/svg" xmlns:xlink="http://www.w3.org/1999/xlink" x="0px" y="0px"
	 width="14px" height="14px" viewBox="0 0 14 14" enable-background="new 0 0 14 14" xml:space="preserve">
<path  d="M7,4C6.63,4,6,4,6,4H5v6h1V8c0,0,0.63,0,1,0c1.1,0,2-0.9,2-2C9,4.9,8.1,4,7,4z M7,7H6V5h1c0.55,0,1,0.45,1,1
	C8,6.55,7.55,7,7,7z"/>
<path  d="M9.11,1.99L12,4.88v7.11H4.77L2,9.22V3.7V2L9.11,1.99 M9.52,0.99L1,1v2.7v5.94l3.35,3.35H13V4.47L9.52,0.99
	L9.52,0.99z"/>
</svg>
