<?xml version="1.0" encoding="utf-8"?>
<!-- Generator: Adobe Illustrator 22.0.1, SVG Export Plug-In . SVG Version: 6.00 Build 0)  -->
<svg version="1.1" id="Layer_1" xmlns="http://www.w3.org/2000/svg" xmlns:xlink="http://www.w3.org/1999/xlink" x="0px" y="0px"
	 width="30px" height="30px" viewBox="0 0 30 30" enable-background="new 0 0 30 30" xml:space="preserve">
<path fill="#FFFFFF" d="M12.8,5.5c0,0.3,0.3,0.5,0.6,0.5c0.3,0,0.5-0.1,0.7-0.3c0.2-0.2,0.2-0.5,0.2-0.8h-0.4C13.4,4.8,12.8,4.9,12.8,5.5z"/>
<path fill="#FFFFFF" d="M9.2,2.2H8.8v1.6h0.4c0.5,0,1-0.2,1-0.8C10.2,2.4,9.7,2.2,9.2,2.2z"/>
<path fill="#FFFFFF" d="M5,0v9h20V0H5z M9.2,4.6H8.8v2h-1V1.4h1.3c1.1,0,2.1,0.3,2.1,1.6C11.2,4.2,10.4,4.6,9.2,4.6z M14.4,6.5c0-0.2,0-0.4,0-0.6h0
	c-0.2,0.4-0.7,0.7-1.2,0.7c-0.7,0-1.3-0.4-1.3-1.1c0-0.6,0.3-0.9,0.6-1.1c0.4-0.2,0.9-0.2,1.3-0.2h0.5c0-0.6-0.3-0.8-0.9-0.8
	c-0.4,0-0.8,0.2-1.2,0.4l0-0.8c0.4-0.2,0.9-0.3,1.3-0.3c1.2,0,1.6,0.5,1.6,1.6v0.5c0,0.4,0,0.7,0,0.9c0,0.3,0,0.6,0,0.8H14.4z
	 M17.3,6.6c-0.4,0-0.8-0.1-1.1-0.2l0.1-0.8c0.3,0.2,0.6,0.3,1,0.3c0.3,0,0.6-0.1,0.6-0.5c0-0.7-1.7-0.2-1.7-1.6
	c0-0.8,0.7-1.2,1.5-1.2c0.5,0,0.8,0.1,1.1,0.1l-0.1,0.7c-0.3-0.1-0.5-0.2-0.9-0.2c-0.3,0-0.6,0.1-0.6,0.4c0,0.6,1.7,0.2,1.7,1.6
	C18.8,6.3,18.1,6.6,17.3,6.6z M20.7,6.6c-0.4,0-0.8-0.1-1.1-0.2l0.1-0.8c0.3,0.2,0.6,0.3,1,0.3c0.2,0,0.6-0.1,0.6-0.5
	c0-0.7-1.7-0.2-1.7-1.6c0-0.8,0.7-1.2,1.5-1.2c0.5,0,0.8,0.1,1.1,0.1L22,3.6c-0.3-0.1-0.5-0.2-0.9-0.2c-0.3,0-0.6,0.1-0.6,0.4
	c0,0.6,1.7,0.2,1.7,1.6C22.3,6.3,21.5,6.6,20.7,6.6z"/>
<path fill="#FFFFFF" d="M5,11v19h20V11H5z M22,27H8v-2h14V27z M22,23H8v-2h14V23z M22,19H8v-2h14V19z M22,15H8v-2h14V15z"/>
</svg>
