<?xml version="1.0" encoding="utf-8"?>
<!-- Generator: Adobe Illustrator 21.1.0, SVG Export Plug-In . SVG Version: 6.00 Build 0)  -->
<svg version="1.1" id="Layer_1" xmlns="http://www.w3.org/2000/svg" xmlns:xlink="http://www.w3.org/1999/xlink" x="0px" y="0px"
	 width="14px" height="14px" viewBox="0 0 14 14" enable-background="new 0 0 14 14" xml:space="preserve">
<path d="M3.2,10.4L1.9,6.7l0.8-0.3l1.5,1.2C4.6,8,5,8.3,5.3,8.7l0,0C5.1,8.2,4.9,7.7,4.7,7.2L4.2,5.9l0.6-0.2l1.3,3.7L5.5,9.6
	L3.9,8.3C3.5,8,3.1,7.6,2.8,7.3l0,0c0.2,0.5,0.4,1,0.6,1.6l0.5,1.3L3.2,10.4z"/>
<path d="M5.8,5.4c0.2-0.1,0.6-0.3,1-0.4C7.3,4.8,7.7,4.7,8,4.9C8.3,5,8.5,5.2,8.6,5.5c0.1,0.4,0.1,0.7,0,0.9c-0.2,0.4-0.5,0.6-1,0.8
	c-0.1,0-0.2,0.1-0.3,0.1l0.5,1.4L7.1,9L5.8,5.4z M7.1,6.9c0.1,0,0.2,0,0.3-0.1c0.5-0.2,0.7-0.5,0.6-1C7.8,5.4,7.5,5.3,7,5.4
	C6.8,5.5,6.7,5.6,6.6,5.6L7.1,6.9z"/>
<path d="M9.9,7.2c0.3,0.1,0.6,0,1-0.1c0.4-0.2,0.6-0.4,0.5-0.7C11.2,6.1,11,6,10.5,6C9.8,6,9.3,5.8,9.1,5.3C8.9,4.7,9.2,4,10,3.8
	c0.4-0.1,0.7-0.2,0.9-0.1l0,0.6c-0.2,0-0.5,0-0.8,0.1C9.8,4.5,9.7,4.8,9.8,5c0.1,0.3,0.4,0.3,0.9,0.4c0.7,0,1.1,0.2,1.3,0.8
	c0.2,0.6-0.1,1.3-1,1.6c-0.4,0.1-0.8,0.2-1.1,0.1L9.9,7.2z"/>
<path d="M7,14c-3.9,0-7-3.1-7-7s3.1-7,7-7s7,3.1,7,7S10.9,14,7,14z M7,0.8C3.6,0.8,0.8,3.6,0.8,7s2.8,6.2,6.2,6.2s6.2-2.8,6.2-6.2
	S10.4,0.8,7,0.8z"/>
</svg>
