<?xml version="1.0" encoding="utf-8"?>
<!-- Generator: Adobe Illustrator 22.0.1, SVG Export Plug-In . SVG Version: 6.00 Build 0)  -->
<svg version="1.1" id="Layer_1" xmlns="http://www.w3.org/2000/svg" xmlns:xlink="http://www.w3.org/1999/xlink" x="0px" y="0px"
	 width="22px" height="22px" viewBox="0 0 22 22" enable-background="new 0 0 22 22" xml:space="preserve">
<path fill="#FFFFFF" d="M6.7,1.6H6.5v1.2h0.3c0.4,0,0.7-0.1,0.7-0.6C7.4,1.8,7.1,1.6,6.7,1.6z"/>
<path fill="#FFFFFF" d="M9.4,4c0,0.2,0.2,0.3,0.5,0.3c0.2,0,0.4-0.1,0.5-0.2c0.1-0.2,0.2-0.4,0.2-0.6h-0.3C9.8,3.5,9.4,3.6,9.4,4z"/>
<path fill="#FFFFFF" d="M4,0v7h14V0H4z M6.8,3.4H6.5v1.4H5.7V1h1c0.8,0,1.6,0.2,1.6,1.1C8.2,3.1,7.6,3.4,6.8,3.4z M10.5,4.8c0-0.1,0-0.3,0-0.4h0
	C10.3,4.7,10,4.9,9.6,4.9c-0.5,0-1-0.3-1-0.8c0-0.4,0.2-0.7,0.5-0.8c0.3-0.1,0.6-0.2,0.9-0.2h0.4c0-0.4-0.2-0.6-0.6-0.6
	C9.5,2.5,9.2,2.6,9,2.8l0-0.6C9.2,2,9.6,2,9.9,2c0.8,0,1.2,0.4,1.2,1.2v0.4c0,0.3,0,0.5,0,0.7c0,0.2,0,0.4,0,0.6H10.5z M12.7,4.9
	c-0.3,0-0.6,0-0.8-0.1l0-0.6c0.2,0.1,0.5,0.2,0.7,0.2c0.2,0,0.5-0.1,0.5-0.3c0-0.5-1.3-0.2-1.3-1.2c0-0.6,0.5-0.9,1.1-0.9
	c0.3,0,0.6,0.1,0.8,0.1l0,0.5c-0.2-0.1-0.4-0.1-0.6-0.1c-0.2,0-0.4,0.1-0.4,0.3c0,0.4,1.3,0.2,1.3,1.2C13.8,4.6,13.2,4.9,12.7,4.9z
	 M15.2,4.9c-0.3,0-0.6,0-0.8-0.1l0-0.6c0.2,0.1,0.5,0.2,0.7,0.2c0.2,0,0.5-0.1,0.5-0.3c0-0.5-1.3-0.2-1.3-1.2c0-0.6,0.5-0.9,1.1-0.9
	C15.8,2,16,2,16.2,2.1l0,0.5c-0.2-0.1-0.4-0.1-0.6-0.1c-0.2,0-0.4,0.1-0.4,0.3c0,0.4,1.3,0.2,1.3,1.2C16.4,4.6,15.8,4.9,15.2,4.9z"
	/>
<path fill="#FFFFFF" d="M4,8v14h14V8H4z M16,20H6v-1h10V20z M16,17H6v-1h10V17z M16,14H6v-1h10V14z M16,11H6v-1h10V11z"/>
</svg>
