<?xml version="1.0" encoding="utf-8"?>
<!-- Generator: Adobe Illustrator 21.1.0, SVG Export Plug-In . SVG Version: 6.00 Build 0)  -->
<svg version="1.1" id="Layer_1" xmlns="http://www.w3.org/2000/svg" xmlns:xlink="http://www.w3.org/1999/xlink" x="0px" y="0px"
	 width="30px" height="30px" viewBox="0 0 30 30" enable-background="new 0 0 30 30" xml:space="preserve">
<path d="M6.9,22.3l-2.8-7.9l1.7-0.6L9,16.4c0.8,0.7,1.6,1.4,2.3,2.2l0,0c-0.5-1-0.9-2-1.3-3.2l-1-2.8l1.3-0.5l2.8,7.9l-1.5,0.5
	l-3.3-2.8c-0.8-0.7-1.7-1.5-2.4-2.2l0,0c0.4,1,0.8,2,1.3,3.3l1,2.8L6.9,22.3z"/>
<path d="M12.4,11.5c0.5-0.3,1.2-0.6,2.2-0.9c1.1-0.4,1.9-0.4,2.6-0.2c0.6,0.2,1.1,0.7,1.4,1.5c0.3,0.8,0.2,1.4,0,2
	c-0.4,0.8-1.2,1.4-2.2,1.7c-0.3,0.1-0.5,0.2-0.7,0.2l1.1,3l-1.4,0.5L12.4,11.5z M15.1,14.7c0.2,0,0.4-0.1,0.7-0.2
	c1.1-0.4,1.5-1.2,1.2-2.1c-0.3-0.9-1.1-1.1-2.1-0.8c-0.4,0.1-0.7,0.3-0.8,0.4L15.1,14.7z"/>
<path d="M21.2,15.4c0.6,0.1,1.4,0.1,2.1-0.2c0.9-0.3,1.3-0.9,1.1-1.6c-0.2-0.6-0.7-0.8-1.9-0.8c-1.5,0-2.6-0.4-3-1.5
	C19,10,19.8,8.7,21.5,8c0.9-0.3,1.5-0.3,2-0.3l0.1,1.3c-0.3,0-1-0.1-1.7,0.2c-0.9,0.3-1.1,0.9-1,1.4c0.2,0.6,0.8,0.7,2,0.8
	c1.6,0,2.5,0.5,2.9,1.6c0.5,1.3-0.1,2.7-2.2,3.4c-0.8,0.3-1.8,0.4-2.3,0.3L21.2,15.4z"/>
<path d="M15,30C6.7,30,0,23.3,0,15S6.7,0,15,0s15,6.7,15,15S23.3,30,15,30z M15,1.7C7.7,1.7,1.7,7.7,1.7,15S7.7,28.3,15,28.3
	S28.3,22.3,28.3,15S22.3,1.7,15,1.7z"/>
</svg>
