<?xml version="1.0" encoding="utf-8"?>
<!-- Generator: Adobe Illustrator 25.4.1, SVG Export Plug-In . SVG Version: 6.00 Build 0)  -->
<svg version="1.1" id="Layer_1" xmlns="http://www.w3.org/2000/svg" xmlns:xlink="http://www.w3.org/1999/xlink" x="0px" y="0px"
	 width="14px" height="14px" viewBox="0 0 14 14" enable-background="new 0 0 14 14" xml:space="preserve">
<path fill="#231F20" d="M3.1,3.2c0.6-0.1,1.1-0.7,1-1.3s-0.6-1.1-1.3-1c-0.6,0.1-1,0.7-1,1.3C1.9,2.8,2.5,3.3,3.1,3.2z"/>
<path fill="#231F20" d="M13.6,13.5c-0.3,0-0.6-0.1-0.8-0.2c-0.3-0.1-0.6-0.5-0.9-0.5c-0.3,0-0.6,0.4-0.9,0.5
	c-0.2,0.1-0.5,0.2-0.8,0.2s-0.6-0.1-0.8-0.2c-0.3-0.1-0.6-0.5-0.9-0.5c-0.3,0-0.6,0.4-0.9,0.5c-0.2,0.1-0.5,0.2-0.8,0.2
	S6.2,13.4,6,13.3c-0.3-0.1-0.6-0.5-0.9-0.5s-0.6,0.4-0.9,0.5c-0.2,0.1-0.5,0.2-0.8,0.2s-0.6-0.1-0.8-0.2c-0.3-0.1-0.6-0.5-0.9-0.5
	s-0.6,0.4-0.9,0.5c-0.2,0.1-0.5,0.2-0.8,0.2v-1.2c0.3,0,0.6-0.1,0.8-0.2c0.3-0.1,0.6-0.5,0.9-0.5s0.6,0.4,0.9,0.5s0.5,0.2,0.8,0.2
	s0.6-0.1,0.8-0.2c0.3-0.1,0.6-0.5,0.9-0.5S5.7,12,6,12.1s0.5,0.2,0.8,0.2s0.6-0.1,0.8-0.2c0.3-0.1,0.6-0.5,0.9-0.5s0.6,0.4,0.9,0.5
	c0.3,0.1,0.5,0.2,0.8,0.2s0.6-0.1,0.8-0.2c0.3-0.1,0.6-0.5,0.9-0.5c0.3,0,0.6,0.4,0.9,0.5c0.3,0.1,0.5,0.2,0.8,0.2
	C13.6,12.3,13.6,13.5,13.6,13.5z"/>
<path fill="#231F20" d="M1.7,10.6c0.3,0,0.6,0.4,0.9,0.5s0.5,0.2,0.8,0.2s0.6-0.1,0.8-0.2c0.3-0.1,0.6-0.5,0.9-0.5S5.7,11,6,11.1
	s0.5,0.2,0.8,0.2s0.6-0.1,0.8-0.2c0.3-0.1,0.6-0.5,0.9-0.5s0.6,0.4,0.9,0.5c0.3,0.1,0.5,0.2,0.8,0.2s0.6-0.1,0.8-0.2
	c0,0,0.1,0,0.1-0.1L14,8.2h-0.6c-0.8,0-1.2-1.2-1.5-1.6C11.8,6.5,8.7,6.3,8.3,7L6.8,5.3c0,0-0.1-0.1-0.4-0.2C6.3,5.1,6.2,5.2,6,5.3
	L4.5,6.7L3.8,4.3C3.6,3.8,3.1,3.5,2.5,3.6c-0.6,0-1,0.6-1,1.2c0,0.1,0,0.1,0,0.2l0.8,2.8c0,0,0.1,0.1,0.4,0.3H0v3.2
	c0.3,0,0.6-0.1,0.8-0.2C1.1,11,1.4,10.6,1.7,10.6z M6.5,6.9l0.8,1.3H5.4L6.5,6.9z"/>
</svg>
