<?xml version="1.0" encoding="utf-8"?>
<!-- Generator: Adobe Illustrator 22.1.0, SVG Export Plug-In . SVG Version: 6.00 Build 0)  -->
<svg version="1.1" id="Layer_1" xmlns="http://www.w3.org/2000/svg" xmlns:xlink="http://www.w3.org/1999/xlink" x="0px" y="0px"
	 width="30px" height="30px" viewBox="0 0 30 30" enable-background="new 0 0 30 30" xml:space="preserve">
<path d="M6.7,5.6C8,5.5,9,4.2,8.8,2.9C8.6,1.6,7.4,0.6,6.1,0.8C4.7,1,3.8,2.2,4,3.5C4.1,4.9,5.4,5.8,6.7,5.6z"/>
<path d="M27.9,23.9c-0.7,0.4-1.3,1.1-2.1,1.1c-1,0-1.5-0.6-2.1-1.1c-0.5-0.3-1.3-1.1-2.1-1.1c-0.8,0-1.6,0.6-2.1,1.1
	c-0.5,0.4-1.2,1.1-2.1,1.1c-0.9,0-1.6-0.6-2.1-1.1c-0.6-0.4-1.1-1.1-2.1-1.1c-1,0-1.7,0.7-2.1,1.1c-0.5,0.4-1.1,1.1-2.1,1.1
	c-1,0-1.6-0.7-2.1-1.1c-0.5-0.3-0.9-1.1-2.1-1.1c-1.1,0-1.6,0.7-2.1,1.1C1.7,24.2,0,24.9,0,24.9v2.1l0,0v2.1c0,0,1.7-0.7,2.1-1.1
	c0.5-0.4,1-1.1,2.1-1.1c1.2,0,1.6,0.7,2.1,1.1c0.5,0.4,1.2,1.1,2.1,1.1c1.1,0,1.6-0.7,2.1-1.1c0.5-0.3,1.1-1.1,2.1-1.1
	c1,0,1.6,0.6,2.1,1.1c0.6,0.5,1.2,1.1,2.1,1.1c1,0,1.7-0.7,2.1-1.1c0.6-0.5,1.4-1.1,2.1-1.1c0.8,0,1.7,0.7,2.1,1.1
	c0.6,0.4,1.2,1.1,2.1,1.1c0.9,0,1.4-0.7,2.1-1.1c0.7-0.4,2.1-1.1,2.1-1.1v-2.1v-2.1C30,22.8,28.6,23.5,27.9,23.9z"/>
<path d="M28.7,16.4c-1.7-0.1-2.5-2.5-3.3-3.4c-0.2-0.2-6.9-0.8-7.7,0.7l-3.1-3.6c0,0-0.3-0.3-0.9-0.3c-0.3,0-0.6,0.1-0.9,0.3
	l-3.3,2.9L8,8.1l0,0C7.7,7,6.6,6.3,5.4,6.4C4.1,6.6,3.1,7.8,3.3,9.2c0,0.2,0.1,0.3,0.1,0.4l0,0l0,0c0,0,0,0,0,0l1.8,6.1
	c0,0,0.3-0.1,0.9,0.3H0v6.8c0,0,1.7-0.7,2.1-1.1c0.5-0.4,1-1.1,2.1-1.1c1.2,0,1.6,0.7,2.1,1.1c0.5,0.4,1.2,1.1,2.1,1.1
	c1.1,0,1.6-0.7,2.1-1.1c0.5-0.3,1.1-1.1,2.1-1.1c1,0,1.6,0.6,2.1,1.1c0.6,0.5,1.2,1.1,2.1,1.1c1,0,1.7-0.7,2.1-1.1
	c0.6-0.5,1.4-1.1,2.1-1.1c0.8,0,1.7,0.7,2.1,1.1c0.2,0.1,0.4,0.3,0.6,0.5l5.8-5.8H28.7z M13.8,13.7l1.8,2.3h-4L13.8,13.7z"/>
</svg>
