<?xml version="1.0" encoding="utf-8"?>
<!-- Generator: Adobe Illustrator 22.1.0, SVG Export Plug-In . SVG Version: 6.00 Build 0)  -->
<svg version="1.1" id="Layer_1" xmlns="http://www.w3.org/2000/svg" xmlns:xlink="http://www.w3.org/1999/xlink" x="0px" y="0px"
	 width="14px" height="14px" viewBox="0 0 14 14" enable-background="new 0 0 14 14" xml:space="preserve">
<path d="M7.5,2.1c0.6,0,1.1-0.4,1.1-1c0-0.6-0.4-1.1-1-1.1C7.1,0,6.6,0.4,6.5,1C6.5,1.5,6.9,2.1,7.5,2.1z"/>
<path d="M6.6,2.5c0.2-0.1,0.5-0.2,0.7-0.2c0.4,0,0.7,0.3,0.8,0.5l1.1,2.1l1.4,1c0.1,0.1,0.2,0.2,0.2,0.4c0,0.3-0.2,0.5-0.5,0.4
	c-0.1,0-0.1,0-0.2-0.1L8.6,5.6c0,0-0.1-0.1-0.1-0.1L8.1,4.7L7.6,6.8L9.5,9c0,0.1,0.1,0.1,0.1,0.2l0.5,2.7c0,0.1,0,0.1,0,0.1
	c0,0.4-0.4,0.7-0.8,0.7c-0.3,0-0.6-0.3-0.6-0.6L8.2,9.6L6.6,8L6.3,9.6c0,0.1-0.1,0.2-0.1,0.3l-1.5,2.4c-0.1,0.2-0.4,0.4-0.7,0.3
	c-0.4,0-0.7-0.4-0.7-0.8c0-0.1,0.1-0.2,0.1-0.3l1.4-2.3l1.1-5L5.2,4.9L4.8,6.7C4.8,6.9,4.6,7.1,4.3,7.1c-0.3,0-0.5-0.2-0.4-0.5
	c0,0,0,0,0-0.1l0.5-2.1c0-0.1,0.1-0.2,0.1-0.2L6.6,2.5z"/>
<rect y="13" width="2" height="1"/>
<rect x="4" y="13" width="2" height="1"/>
<rect x="8" y="13" width="2" height="1"/>
<rect x="11" y="13" width="2" height="1"/>
<rect x="1" y="10" width="2" height="1"/>
<rect x="5" y="10" width="2" height="1"/>
<rect x="9" y="10" width="2" height="1"/>
<rect x="13" y="10" width="1" height="1"/>
</svg>
