<?xml version="1.0" encoding="utf-8"?>
<!-- Generator: Adobe Illustrator 22.1.0, SVG Export Plug-In . SVG Version: 6.00 Build 0)  -->
<svg version="1.1" id="Layer_1" xmlns="http://www.w3.org/2000/svg" xmlns:xlink="http://www.w3.org/1999/xlink" x="0px" y="0px"
	 width="22px" height="22px" viewBox="0 0 22 22" enable-background="new 0 0 22 22" xml:space="preserve">
<path fill="#FFFFFF" d="M11.8,3.3c0.9,0.1,1.7-0.6,1.8-1.5C13.6,0.9,13,0.1,12.1,0c-0.9-0.1-1.7,0.6-1.8,1.5C10.2,2.4,10.9,3.2,11.8,3.3z"/>
<path fill="#FFFFFF" d="M10.4,4c0.3-0.2,0.7-0.4,1.2-0.3c0.6,0,1,0.4,1.3,0.8l1.7,3.3l2.3,1.6c0.2,0.1,0.3,0.4,0.3,0.7c0,0.4-0.4,0.7-0.8,0.7
	c-0.1,0-0.2-0.1-0.3-0.1l-2.5-1.7c-0.1-0.1-0.1-0.1-0.2-0.2l-0.6-1.2l-0.7,3.3l2.9,3.5c0.1,0.1,0.1,0.2,0.1,0.4l0.8,4.2
	c0,0.1,0,0.2,0,0.2c0,0.6-0.6,1.1-1.2,1c-0.5,0-0.9-0.4-1-0.9l-0.7-3.9l-2.4-2.6l-0.6,2.5c0,0.1-0.2,0.4-0.2,0.5l-2.3,3.8
	c-0.2,0.4-0.6,0.6-1,0.5c-0.6,0-1.1-0.6-1-1.2c0-0.2,0.1-0.4,0.1-0.5l2.1-3.6l1.8-7.8L8.2,7.8l-0.6,2.8c-0.1,0.4-0.4,0.6-0.8,0.6
	c-0.4,0-0.7-0.4-0.7-0.8c0,0,0-0.1,0-0.1L6.9,7c0-0.1,0.1-0.3,0.2-0.4L10.4,4z"/>
<rect fill="#FFFFFF" x="2" y="16" width="3" height="1"/>
<rect fill="#FFFFFF" x="8" y="16" width="3" height="1"/>
<rect fill="#FFFFFF" x="14" y="16" width="3" height="1"/>
<rect fill="#FFFFFF" x="20" y="16" width="2" height="1"/>
<rect fill="#FFFFFF" y="21" width="3" height="1"/>
<rect fill="#FFFFFF" x="6" y="21" width="3" height="1"/>
<rect fill="#FFFFFF" x="12" y="21" width="3" height="1"/>
<rect fill="#FFFFFF" x="18" y="21" width="3" height="1"/>
</svg>
