<?xml version="1.0" encoding="utf-8"?>
<!-- Generator: Adobe Illustrator 22.1.0, SVG Export Plug-In . SVG Version: 6.00 Build 0)  -->
<svg version="1.1" id="Layer_1" xmlns="http://www.w3.org/2000/svg" xmlns:xlink="http://www.w3.org/1999/xlink" x="0px" y="0px"
	 width="30px" height="30px" viewBox="0 0 30 30" enable-background="new 0 0 30 30" xml:space="preserve">
<path d="M16.1,4.5c1.2,0.1,2.3-0.8,2.4-2.1c0.1-1.2-0.8-2.3-2.1-2.4c-1.2-0.1-2.3,0.8-2.4,2.1C13.9,3.3,14.8,4.4,16.1,4.5z"/>
<path d="M14.2,5.4c0.4-0.3,1-0.5,1.6-0.5c0.8,0.1,1.4,0.5,1.8,1.1l2.3,4.5l3.1,2.1c0.3,0.2,0.4,0.5,0.4,0.9c0,0.6-0.5,1-1.1,0.9
	c-0.2,0-0.3-0.1-0.5-0.1l-3.4-2.3c-0.1-0.1-0.2-0.2-0.3-0.3l-0.9-1.7l-1,4.5l4,4.7c0.1,0.1,0.1,0.3,0.2,0.5l1.1,5.7
	c0,0.1,0,0.2,0,0.3c-0.1,0.8-0.8,1.5-1.6,1.4c-0.7-0.1-1.2-0.6-1.4-1.2l-1-5.3l-3.2-3.6l-0.8,3.5c0,0.2-0.2,0.5-0.3,0.6l-3.1,5.2
	c-0.3,0.5-0.8,0.8-1.4,0.7c-0.8-0.1-1.5-0.8-1.4-1.6c0-0.2,0.1-0.5,0.2-0.7l2.9-4.9l2.4-10.7l-1.6,1.3l-0.8,3.8
	c-0.1,0.5-0.6,0.9-1.1,0.8c-0.6,0-1-0.5-0.9-1.1c0,0,0-0.1,0-0.1l1-4.4c0.1-0.2,0.2-0.4,0.3-0.5L14.2,5.4z"/>
<rect y="28" width="4" height="2"/>
<rect x="8" y="28" width="4" height="2"/>
<rect x="16" y="28" width="4" height="2"/>
<rect x="24" y="28" width="4" height="2"/>
<rect x="3" y="21" width="4" height="2"/>
<rect x="11" y="21" width="4" height="2"/>
<rect x="19" y="21" width="4" height="2"/>
<rect x="27" y="21" width="3" height="2"/>
</svg>
