<?xml version="1.0" encoding="utf-8"?>
<!-- Generator: Adobe Illustrator 22.1.0, SVG Export Plug-In . SVG Version: 6.00 Build 0)  -->
<svg version="1.1" id="Layer_1" xmlns="http://www.w3.org/2000/svg" xmlns:xlink="http://www.w3.org/1999/xlink" x="0px" y="0px"
	 width="30px" height="30px" viewBox="0 0 30 30" enable-background="new 0 0 30 30" xml:space="preserve">
<path fill="#FFFFFF" d="M9.7,7C11,6.8,12,5.6,11.8,4.3C11.6,2.9,10.4,2,9.1,2.1C7.8,2.3,6.8,3.5,7,4.8C7.1,6.2,8.3,7.1,9.7,7z"/>
<path fill="#FFFFFF" d="M27.9,23.9c-0.7,0.4-1.3,1.1-2.1,1.1c-1,0-1.5-0.6-2.1-1.1c-0.5-0.3-1.3-1.1-2.1-1.1c-0.8,0-1.6,0.6-2.1,1.1
	c-0.5,0.4-1.2,1.1-2.1,1.1c-0.9,0-1.6-0.6-2.1-1.1c-0.6-0.4-1.1-1.1-2.1-1.1c-1,0-1.7,0.7-2.1,1.1c-0.5,0.4-1.1,1.1-2.1,1.1
	c-1,0-1.6-0.7-2.1-1.1c-0.5-0.3-0.9-1.1-2.1-1.1c-1.1,0-1.6,0.7-2.1,1.1C1.7,24.2,0,24.9,0,24.9v2.1l0,0v2.1c0,0,1.7-0.7,2.1-1.1
	c0.5-0.4,1-1.1,2.1-1.1c1.2,0,1.6,0.7,2.1,1.1c0.5,0.4,1.2,1.1,2.1,1.1c1.1,0,1.6-0.7,2.1-1.1c0.5-0.3,1.1-1.1,2.1-1.1
	c1,0,1.6,0.6,2.1,1.1c0.6,0.5,1.2,1.1,2.1,1.1c1,0,1.7-0.7,2.1-1.1c0.6-0.5,1.4-1.1,2.1-1.1c0.8,0,1.7,0.7,2.1,1.1
	c0.6,0.4,1.2,1.1,2.1,1.1c0.9,0,1.4-0.7,2.1-1.1c0.7-0.4,2.1-1.1,2.1-1.1v-2.1v-2.1C30,22.8,28.6,23.5,27.9,23.9z"/>
<path fill="#FFFFFF" d="M4.3,20.8c1.2,0,1.6,0.7,2.1,1.1c0.5,0.4,1.2,1.1,2.1,1.1c1.1,0,1.6-0.7,2.1-1.1c0.5-0.3,1.1-1.1,2.1-1.1
	c1,0,1.6,0.6,2.1,1.1c0.6,0.5,1.2,1.1,2.1,1.1c1,0,1.7-0.7,2.1-1.1c0.6-0.5,1.4-1.1,2.1-1.1c0.8,0,1.7,0.7,2.1,1.1
	c0.1,0,0.1,0.1,0.2,0.2c2.4-0.7,5-1.6,5.9-2.4c0.4-0.3,0.5-0.9-0.1-1.2c-0.1-0.1-10-5.1-10-5.1l-2.5-3.2l0,0
	c-0.3-0.3-0.9-0.3-1.2,0.1v0c-0.2,0.3-0.3,0.6-0.1,0.9l1.9,2.4l0,0L16.1,17L12,16l-0.2-1.5l3.4-0.4c0.2,0,0.3-0.1,0.5-0.1
	c0.6-0.3,0.8-1,0.5-1.5c-0.2-0.4-0.7-0.7-1.1-0.6l-3.4,0.4l-0.3-2.6c-0.2-1.3-1.4-2.3-2.7-2.1C7.2,7.7,6.3,9,6.4,10.3l0.7,5.9
	c0.1,0.8,0.5,1.4,1.1,1.8l-5.4,0.6l-1.5,3.7C1.7,22.1,2,22,2.1,21.9C2.7,21.5,3.2,20.8,4.3,20.8z"/>
</svg>
