<?xml version="1.0" encoding="utf-8"?>
<!-- Generator: Adobe Illustrator 25.4.1, SVG Export Plug-In . SVG Version: 6.00 Build 0)  -->
<svg version="1.1" id="Layer_1" xmlns="http://www.w3.org/2000/svg" xmlns:xlink="http://www.w3.org/1999/xlink" x="0px" y="0px"
	 width="14px" height="14px" viewBox="0 0 14 14" enable-background="new 0 0 14 14" xml:space="preserve">
<path fill="#ffffff" d="M4.5,3.2c0.6-0.1,1.1-0.6,1-1.3C5.4,1.4,4.9,0.9,4.2,1c-0.6,0.1-1.1,0.6-1,1.3C3.3,2.9,3.9,3.3,4.5,3.2z"/>
<path fill="#ffffff" d="M13.6,12.5c-0.3,0-0.6-0.1-0.8-0.2c-0.3-0.1-0.6-0.5-0.9-0.5c-0.3,0-0.6,0.4-0.9,0.5
	c-0.2,0.1-0.5,0.2-0.8,0.2s-0.6-0.1-0.8-0.2c-0.3-0.1-0.6-0.5-0.9-0.5c-0.3,0-0.6,0.4-0.9,0.5c-0.2,0.1-0.5,0.2-0.8,0.2
	S6.2,12.4,6,12.3c-0.3-0.1-0.6-0.5-0.9-0.5s-0.6,0.4-0.9,0.5c-0.2,0.1-0.5,0.2-0.8,0.2s-0.6-0.1-0.8-0.2c-0.3-0.1-0.6-0.5-0.9-0.5
	s-0.6,0.4-0.9,0.5c-0.2,0.1-0.5,0.2-0.8,0.2v-1.2c0.3,0,0.6-0.1,0.8-0.2c0.3-0.1,0.6-0.5,0.9-0.5s0.6,0.4,0.9,0.5s0.5,0.2,0.8,0.2
	s0.6-0.1,0.8-0.2c0.3-0.1,0.6-0.5,0.9-0.5S5.7,11,6,11.1s0.5,0.2,0.8,0.2s0.6-0.1,0.8-0.2c0.3-0.1,0.6-0.5,0.9-0.5s0.6,0.4,0.9,0.5
	c0.3,0.1,0.5,0.2,0.8,0.2s0.6-0.1,0.8-0.2c0.3-0.1,0.6-0.5,0.9-0.5c0.3,0,0.6,0.4,0.9,0.5c0.3,0.1,0.5,0.2,0.8,0.2
	C13.6,11.3,13.6,12.5,13.6,12.5z"/>
<path fill="#ffffff" d="M13.8,8.6c-0.1,0-4.7-2.4-4.7-2.4L8,4.7c-0.2-0.1-0.4-0.1-0.6,0C7.3,4.8,7.3,5,7.4,5.2l0.9,1.1L7.5,7.9
	L5.6,7.5L5.5,6.8l1.6-0.2c0.1,0,0.1,0,0.2-0.1C7.6,6.4,7.7,6,7.5,5.8C7.4,5.6,7.2,5.5,7,5.5L5.4,5.7L5.2,4.5c0-0.6-0.6-1-1.2-1
	C3.4,3.6,2.9,4.2,3,4.8l0.3,2.8c0,0.4,0.2,0.7,0.5,0.8L1.3,8.7l-0.6,1.4h0.1C1.1,10,1.4,9.6,1.7,9.6s0.6,0.4,0.9,0.5
	s0.5,0.2,0.8,0.2s0.6-0.1,0.8-0.2C4.5,10,4.8,9.6,5.1,9.6c0.3,0,0.6,0.4,0.9,0.5s0.5,0.2,0.8,0.2s0.6-0.1,0.8-0.2
	C7.9,10,8.2,9.6,8.5,9.6s0.6,0.4,0.9,0.5c0.3,0.1,0.5,0.2,0.8,0.2s0.6-0.1,0.8-0.2c0.3-0.1,0.6-0.5,0.9-0.5c0.2,0,0.4,0.2,0.6,0.3
	c0.7-0.4,1.3-0.7,1.3-0.8C14,8.9,14,8.7,13.8,8.6z"/>
</svg>
