<?xml version="1.0" encoding="utf-8"?>
<!-- Generator: Adobe Illustrator 22.1.0, SVG Export Plug-In . SVG Version: 6.00 Build 0)  -->
<svg version="1.1" id="Layer_1" xmlns="http://www.w3.org/2000/svg" xmlns:xlink="http://www.w3.org/1999/xlink" x="0px" y="0px"
	 width="22px" height="22px" viewBox="0 0 22 22" enable-background="new 0 0 22 22" xml:space="preserve">
<path fill="#FFFFFF" d="M7.1,5.1c1-0.1,1.7-1,1.6-2c-0.1-1-1-1.7-2-1.6c-1,0.1-1.7,1-1.6,2C5.2,4.5,6.1,5.2,7.1,5.1z"/>
<path fill="#FFFFFF" d="M20.4,17.5c-0.5,0.3-0.9,0.8-1.6,0.8c-0.7,0-1.1-0.5-1.6-0.8c-0.4-0.3-1-0.8-1.6-0.8c-0.6,0-1.2,0.4-1.6,0.8
	c-0.3,0.3-0.9,0.8-1.6,0.8c-0.7,0-1.2-0.5-1.6-0.8c-0.4-0.3-0.8-0.8-1.6-0.8c-0.7,0-1.2,0.5-1.6,0.8c-0.4,0.3-0.8,0.8-1.6,0.8
	c-0.7,0-1.2-0.5-1.6-0.8c-0.4-0.2-0.7-0.8-1.6-0.8c-0.8,0-1.2,0.5-1.6,0.8C1.2,17.8,0,18.3,0,18.3v1.6l0,0v1.6c0,0,1.2-0.5,1.6-0.8
	c0.4-0.3,0.8-0.8,1.6-0.8c0.9,0,1.2,0.5,1.6,0.8c0.4,0.3,0.9,0.8,1.6,0.8c0.8,0,1.2-0.5,1.6-0.8c0.4-0.3,0.8-0.8,1.6-0.8
	c0.8,0,1.2,0.5,1.6,0.8c0.4,0.3,0.9,0.8,1.6,0.8c0.7,0,1.2-0.5,1.6-0.8c0.4-0.3,1-0.8,1.6-0.8c0.6,0,1.2,0.5,1.6,0.8
	c0.5,0.3,0.9,0.8,1.6,0.8c0.6,0,1-0.5,1.6-0.8c0.5-0.3,1.6-0.8,1.6-0.8v-1.6v-1.6C22,16.7,21,17.2,20.4,17.5z"/>
<path fill="#FFFFFF" d="M3.1,15.7c0.9,0,1.2,0.5,1.6,0.8c0.4,0.3,0.9,0.8,1.6,0.8c0.8,0,1.2-0.5,1.6-0.8c0.4-0.3,0.8-0.8,1.6-0.8
	c0.8,0,1.2,0.5,1.6,0.8c0.4,0.3,0.9,0.8,1.6,0.8c0.7,0,1.2-0.5,1.6-0.8c0.4-0.3,1-0.8,1.6-0.8c0.5,0,0.9,0.3,1.3,0.6
	c1.9-0.6,4.1-1.3,4.8-1.9c0.3-0.3,0.3-0.7,0-0.9c-0.1,0-7.4-3.7-7.4-3.7l-1.8-2.4l0,0c-0.3-0.2-0.6-0.2-0.9,0v0
	c-0.2,0.2-0.2,0.5-0.1,0.7l1.4,1.8l0,0l-1.1,2.6l-3-0.8l-0.1-1.1l2.5-0.3c0.1,0,0.2,0,0.3-0.1c0.4-0.2,0.6-0.7,0.4-1.1
	c-0.2-0.3-0.5-0.5-0.8-0.4L8.5,9L8.2,7.1c-0.1-1-1-1.7-2-1.6c-1,0.1-1.7,1-1.6,2l0.5,4.3c0.1,0.6,0.4,1,0.8,1.3l-4,0.5l-1.2,3.1
	c0,0,0.1,0,0.1,0c0.1,0,0.2,0,0.3,0c0.1-0.1,0.2-0.1,0.3-0.2C2,16.2,2.3,15.7,3.1,15.7z"/>
</svg>
