<?xml version="1.0" encoding="utf-8"?>
<!-- Generator: Adobe Illustrator 27.9.1, SVG Export Plug-In . SVG Version: 6.00 Build 0)  -->
<svg version="1.1" id="Icons" xmlns="http://www.w3.org/2000/svg" xmlns:xlink="http://www.w3.org/1999/xlink" x="0px" y="0px"
	 viewBox="0 0 14 14" enable-background="new 0 0 14 14" xml:space="preserve">
<line display="none" fill="none" stroke="#000000" stroke-width="2" stroke-linecap="round" stroke-miterlimit="10" x1="8.1" y1="5.9" x2="11.7" y2="12.3"/>
<line display="none" fill="none" stroke="#000000" stroke-width="2" stroke-linecap="round" stroke-miterlimit="10" x1="5.1" y1="6" x2="1.5" y2="12.4"/>
<polygon display="none" points="5.2,9.2 10.8,9.2 10.8,6.4 8,5 1.6,5 1.6,6.2 3,8.9 "/>
<path fill="#FFFFFF" d="M5.3,9.4h3.5v3.2c0,0.5,0.4,0.9,0.9,0.9s0.9-0.4,0.9-0.9V9.4C11,9.4,11,9.2,11,9V6.6L8,5.2H1.8L1,4.7
	c-0.3-0.1-0.6,0-0.8,0.2c-0.1,0.3,0,0.6,0.3,0.8l1.3,0.7v6.1c0,0.5,0.4,0.9,0.9,0.9s0.9-0.4,0.9-0.9v-2.4L5.3,13
	c0.3,0.4,0.8,0.6,1.3,0.3C7,13,7.2,12.5,6.9,12L5.3,9.4z"/>
<polygon fill="#FFFFFF" points="8.4,4.5 11,5.8 11,5.3 13.2,5.3 14,3.6 8.4,0.9 "/>
</svg>
