<?xml version="1.0" encoding="utf-8"?>
<!-- Generator: Adobe Illustrator 22.0.1, SVG Export Plug-In . SVG Version: 6.00 Build 0)  -->
<svg version="1.1" id="Icons" xmlns="http://www.w3.org/2000/svg" xmlns:xlink="http://www.w3.org/1999/xlink" x="0px" y="0px"
	 width="22px" height="22px" viewBox="0 0 22 22" enable-background="new 0 0 22 22" xml:space="preserve">
<polygon fill="#FFFFFF" points="12,7 12,1 13,1 13,2 21,6 21,8 16,9 "/>
<polygon fill="#FFFFFF" points="17,16 16,15 16,11 12,9 2,9 1,8 0,9 2,12 2,21 3,21 3,22 4,22 4,21 5,21 5,18 8,22 9,22 10,20 7,16 13,16 13,21 
	14,21 14,22 15,22 15,21 16,21 16,19.333 18,22 19,22 20,20 "/>
</svg>
