<?xml version="1.0" encoding="utf-8"?>
<!-- Generator: Adobe Illustrator 28.2.0, SVG Export Plug-In . SVG Version: 6.00 Build 0)  -->
<svg version="1.1" id="Icons" xmlns="http://www.w3.org/2000/svg" xmlns:xlink="http://www.w3.org/1999/xlink" x="0px" y="0px"
	 width="14px" height="14px" viewBox="0 0 14 14" enable-background="new 0 0 14 14" xml:space="preserve">
<polygon fill="#231F20" points="8.1,5.1 0,1.3 0,0.5 8.4,4.5 "/>
<polygon fill="#231F20" points="8.1,5.1 0,1.3 0,0.5 8.4,4.5 "/>
<path fill="#231F20" d="M5.3,9.4h3.5v3.2c0,0.5,0.4,0.9,0.9,0.9s0.9-0.4,0.9-0.9V9.4C11,9.4,11,9.2,11,9V6.6L8,5.2H1.8L1,4.7
	c-0.3-0.1-0.6,0-0.8,0.2c-0.1,0.3,0,0.6,0.3,0.8l1.3,0.7v6.1c0,0.5,0.4,0.9,0.9,0.9s0.9-0.4,0.9-0.9v-2.4L5.3,13
	c0.3,0.4,0.8,0.6,1.3,0.3C7,13,7.2,12.5,6.9,12L5.3,9.4z"/>
<path fill="#231F20" d="M5.3,9.4h3.5v3.2c0,0.5,0.4,0.9,0.9,0.9s0.9-0.4,0.9-0.9V9.4C11,9.4,11,9.2,11,9V6.6L8,5.2H1.8L1,4.7
	c-0.3-0.1-0.6,0-0.8,0.2c-0.1,0.3,0,0.6,0.3,0.8l1.3,0.7v6.1c0,0.5,0.4,0.9,0.9,0.9s0.9-0.4,0.9-0.9v-2.4L5.3,13
	c0.3,0.4,0.8,0.6,1.3,0.3C7,13,7.2,12.5,6.9,12L5.3,9.4z"/>
<polygon fill="#231F20" points="8.4,4.5 11,5.8 11,5.3 13.2,5.3 14,3.6 8.4,0.9 "/>
<polygon fill="#231F20" points="8.4,4.5 11,5.8 11,5.3 13.2,5.3 14,3.6 8.4,0.9 "/>
</svg>
