<?xml version="1.0" encoding="utf-8"?>
<!-- Generator: Adobe Illustrator 18.1.1, SVG Export Plug-In . SVG Version: 6.00 Build 0)  -->
<svg version="1.1" id="Icons" xmlns="http://www.w3.org/2000/svg" xmlns:xlink="http://www.w3.org/1999/xlink" x="0px" y="0px"
	 viewBox="0 0 24 24" enable-background="new 0 0 24 24" xml:space="preserve">
<g opacity="0.5">
	<polygon points="5,14 5,23 6,23 6,24 7,24 7,23 8,23 8,20 11,24 12,24 13,22 10,18 16,18 16,23 17,23 17,24 18,24 18,23 19,23 
		19,13 15,11 5,11 4,10 3,11 	"/>
	<polygon points="15,9 15,3 16,3 16,4 24,8 24,10 19,11 	"/>
	<polygon points="2,3 2,4.5 15,10.5 15,9 	"/>
</g>
<g opacity="0.75">
	<polygon points="4,13 4,22 5,22 5,23 6,23 6,22 7,22 7,19 10,23 11,23 12,21 9,17 15,17 15,22 16,22 16,23 17,23 17,22 18,22 
		18,12 14,10 4,10 3,9 2,10 	"/>
	<polygon points="14,8 14,2 15,2 15,3 23,7 23,9 18,10 	"/>
	<polygon points="1,2 1,3.5 14,9.5 14,8 	"/>
</g>
<g>
	<polygon fill="#E6E6E6" points="3,12 3,21 4,21 4,22 5,22 5,21 6,21 6,18 9,22 10,22 11,20 8,16 14,16 14,21 15,21 15,22 16,22 
		16,21 17,21 17,11 13,9 3,9 2,8 1,9 	"/>
	<polygon fill="#E6E6E6" points="13,7 13,1 14,1 14,2 22,6 22,8 17,9 	"/>
	<polygon fill="#E6E6E6" points="0,1 0,2.5 13,8.5 13,7 	"/>
</g>
</svg>
