<?xml version="1.0" encoding="utf-8"?>
<!-- Generator: Adobe Illustrator 22.0.1, SVG Export Plug-In . SVG Version: 6.00 Build 0)  -->
<svg version="1.1" id="Icons" xmlns="http://www.w3.org/2000/svg" xmlns:xlink="http://www.w3.org/1999/xlink" x="0px" y="0px"
	 width="14px" height="14px" viewBox="0 0 14 14" enable-background="new 0 0 14 14" xml:space="preserve">
<polygon fill="#FFFFFF" points="9,2 9,1 8,1 8,5 9,5 9,5.5 10,6 13,6 13,4 "/>
<polygon fill="#FFFFFF" points="11,10 10,9 10,7 9,7 9,6.5 8,6 1,6 1,5 0,5 1,7 1,13 3,14 3,13 3,11 5,14 6,13 4,10 8,10 8,13 10,14 10,13 10,11 
	12,14 13,13 "/>
</svg>
