<?xml version="1.0" encoding="utf-8"?>
<!-- Generator: Adobe Illustrator 18.1.1, SVG Export Plug-In . SVG Version: 6.00 Build 0)  -->
<svg version="1.1" id="Icons" xmlns="http://www.w3.org/2000/svg" xmlns:xlink="http://www.w3.org/1999/xlink" x="0px" y="0px"
	 viewBox="0 0 32 32" enable-background="new 0 0 32 32" xml:space="preserve">
<g opacity="0.5">
	<polygon points="20,14 5,14 4,13 3,14 3,15 6,17 6,31 7,31 7,32 9,32 9,31 10,31 10,26 11,26 13.5,31 14,31 14,32 16,32 16,31 
		17,31 14,24 14,23 21,23 21,31 22,31 22,32 24,32 24,31 25,31 25,24 26,23 26,17 	"/>
	<polygon points="20,12 26,15 26,14 31,14 32,10 21,5 21,4 20,4 	"/>
	<polygon points="2,3 20,12 20,14 19,14 18,13 2,5 	"/>
</g>
<g opacity="0.75">
	<polygon points="19,13 4,13 3,12 2,13 2,14 5,16 5,30 6,30 6,31 8,31 8,30 9,30 9,25 10,25 12.5,30 13,30 13,31 15,31 15,30 16,30 
		13,23 13,22 20,22 20,30 21,30 21,31 23,31 23,30 24,30 24,23 25,22 25,16 	"/>
	<polygon points="19,11 25,14 25,13 30,13 31,9 20,4 20,3 19,3 	"/>
	<polygon points="1,2 19,11 19,13 18,13 17,12 1,4 	"/>
</g>
<g>
	<polygon fill="#E6E6E6" points="18,12 3,12 2,11 1,12 1,13 4,15 4,29 5,29 5,30 7,30 7,29 8,29 8,24 9,24 11.5,29 12,29 12,30 
		14,30 14,29 15,29 12,22 12,21 19,21 19,29 20,29 20,30 22,30 22,29 23,29 23,22 24,21 24,15 	"/>
	<polygon fill="#E6E6E6" points="18,10 24,13 24,12 29,12 30,8 19,3 19,2 18,2 	"/>
	<polygon fill="#E6E6E6" points="0,1 18,10 18,12 17,12 16,11 0,3 	"/>
</g>
</svg>
