<?xml version="1.0" encoding="utf-8"?>
<!-- Generator: Adobe Illustrator 20.0.0, SVG Export Plug-In . SVG Version: 6.00 Build 0)  -->
<svg version="1.1" id="Icons" xmlns="http://www.w3.org/2000/svg" xmlns:xlink="http://www.w3.org/1999/xlink" x="0px" y="0px"
	 width="14px" height="14px" viewBox="0 0 14 14" enable-background="new 0 0 14 14" xml:space="preserve">
<g>
	<polygon fill="#231F20" points="10,7 10,6.5 9,6 2,6 2,5 1,5 2,7 2,13 4,14 4,13 4,11 6,14 7,13 5,10 9,10 9,13 11,14 11,13 11,7 	"/>
	<polygon fill="#231F20" points="10,2 10,1 9,1 9,5 10,5 10,5.5 11,6 14,6 14,4 	"/>
	<polygon fill="#231F20" points="0,1 9,5 9,6 0,2 	"/>
</g>
</svg>
