<?xml version="1.0" encoding="utf-8"?>
<!-- Generator: Adobe Illustrator 20.0.0, SVG Export Plug-In . SVG Version: 6.00 Build 0)  -->
<svg version="1.1" id="Icons" xmlns="http://www.w3.org/2000/svg" xmlns:xlink="http://www.w3.org/1999/xlink" x="0px" y="0px"
	 width="22px" height="22px" viewBox="0 0 22 22" enable-background="new 0 0 22 22" xml:space="preserve">
<g>
	<polygon fill="#FFFFFF" points="3,12 3,21 4,21 4,22 5,22 5,21 6,21 6,18 9,22 10,22 11,20 8,16 14,16 14,21 15,21 15,22 16,22 16,21 17,21 17,11 
		13,9 3,9 2,8 1,9 	"/>
	<polygon fill="#FFFFFF" points="13,7 13,1 14,1 14,2 22,6 22,8 17,9 	"/>
	<polygon fill="#FFFFFF" points="0,1 0,2.5 13,8.5 13,7 	"/>
</g>
</svg>
