<?xml version="1.0" encoding="utf-8"?>
<!-- Generator: Adobe Illustrator 22.0.1, SVG Export Plug-In . SVG Version: 6.00 Build 0)  -->
<svg version="1.1" id="Icons" xmlns="http://www.w3.org/2000/svg" xmlns:xlink="http://www.w3.org/1999/xlink" x="0px" y="0px"
	 width="30px" height="30px" viewBox="0 0 30 30" enable-background="new 0 0 30 30" xml:space="preserve">
<polygon points="18,10 24,13 24,12 29,12 30,8 19,3 19,2 18,2 "/>
<polygon points="27,22 27,21 24,17.25 24,15 18,12 3,12 2,11 1,12 1,13 4,15 4,29 5,29 5,30 7,30 7,29 8,29 8,24 9,24 11.5,29 
	12,29 12,30 14,30 14,29 15,29 12,22 12,21 19,21 19,29 20,29 20,30 22,30 22,29 23,29 23,24 24,24 26.5,29 27,29 27,30 29,30 
	29,29 30,29 "/>
</svg>
