<?xml version="1.0" encoding="utf-8"?>
<!-- Generator: Adobe Illustrator 27.9.1, SVG Export Plug-In . SVG Version: 6.00 Build 0)  -->
<svg version="1.1" id="Icons" xmlns="http://www.w3.org/2000/svg" xmlns:xlink="http://www.w3.org/1999/xlink" x="0px" y="0px"
	 viewBox="0 0 22 22" enable-background="new 0 0 22 22" xml:space="preserve">
<path fill="#FFFFFF" d="M8.4,14.7H14v5c0,0.8,0.7,1.5,1.5,1.5c0.8,0,1.5-0.7,1.5-1.5v-5c0.4,0,0.5-0.3,0.5-0.6v-3.7l-4.6-2.3H2.8
	L1.6,7.4c-0.5-0.2-1-0.1-1.2,0.3C0.2,8.1,0.3,8.6,0.7,8.9l2,1.2v9.7c0,0.8,0.7,1.5,1.5,1.5s1.5-0.7,1.5-1.5V16l2.7,4.5
	c0.4,0.7,1.3,0.9,2,0.5s0.9-1.3,0.5-2L8.4,14.7z"/>
<polygon fill="#FFFFFF" points="13.2,7.1 17.3,9.1 17.3,8.3 20.8,8.3 22,5.6 13.2,1.4 "/>
</svg>
