<?xml version="1.0" encoding="utf-8"?>
<!-- Generator: Adobe Illustrator 22.0.1, SVG Export Plug-In . SVG Version: 6.00 Build 0)  -->
<svg version="1.1" id="Layer_1" xmlns="http://www.w3.org/2000/svg" xmlns:xlink="http://www.w3.org/1999/xlink" x="0px" y="0px"
	 width="30px" height="30px" viewBox="0 0 30 30" enable-background="new 0 0 30 30" xml:space="preserve">
<rect x="4" y="4" width="6" height="2"/>
<circle cx="10.5" cy="16.5" r="3.5"/>
<path d="M27,7H3c-1.7,0-3,1.3-3,3v13c0,1.6,1.3,3,3,3h24c1.7,0,3-1.4,3-3V10C30,8.3,28.7,7,27,7z M10.5,23.5c-3.9,0-7-3.1-7-7
	c0-3.9,3.1-7,7-7s7,3.1,7,7C17.5,20.4,14.4,23.5,10.5,23.5z M26,12h-3c-0.5,0-1-0.5-1-1s0.5-1,1-1h3c0.5,0,1,0.5,1,1S26.5,12,26,12z
	"/>
</svg>
