<?xml version="1.0" encoding="utf-8"?>
<!-- Generator: Adobe Illustrator 22.0.1, SVG Export Plug-In . SVG Version: 6.00 Build 0)  -->
<svg version="1.1" id="Layer_1" xmlns="http://www.w3.org/2000/svg" xmlns:xlink="http://www.w3.org/1999/xlink" x="0px" y="0px"
	 width="22px" height="22px" viewBox="0 0 22 22" enable-background="new 0 0 22 22" xml:space="preserve">
<rect x="3" y="3" width="4" height="1"/>
<circle cx="7" cy="12" r="2.5"/>
<path d="M19,5H3C1.3,5,0,6.3,0,8v8c0,1.6,1.3,3,3,3h16c1.7,0,3-1.4,3-3V8C22,6.3,20.7,5,19,5z M7,17c-2.8,0-5-2.2-5-5s2.2-5,5-5
	s5,2.2,5,5S9.8,17,7,17z M19,9h-2c-0.5,0-1-0.5-1-1s0.5-1,1-1h2c0.5,0,1,0.5,1,1S19.5,9,19,9z"/>
</svg>
