<?xml version="1.0" encoding="utf-8"?>
<!-- Generator: Adobe Illustrator 22.0.1, SVG Export Plug-In . SVG Version: 6.00 Build 0)  -->
<svg version="1.1" id="Layer_1" xmlns="http://www.w3.org/2000/svg" xmlns:xlink="http://www.w3.org/1999/xlink" x="0px" y="0px"
	 width="14px" height="14px" viewBox="0 0 14 14" enable-background="new 0 0 14 14" xml:space="preserve">
<circle cx="4.5" cy="7.5" r="1.5"/>
<path d="M12,3H5V2H2v1C0.9,3,0,3.9,0,5v5c0,1.1,0.9,2,2,2h10c1.1,0,2-0.9,2-2V5C14,3.9,13.1,3,12,3z M4.5,10.5c-1.7,0-3-1.3-3-3
	s1.3-3,3-3s3,1.3,3,3S6.2,10.5,4.5,10.5z M12,5h-2V4h2V5z"/>
</svg>
