<?xml version="1.0" encoding="utf-8"?>
<!-- Generator: Adobe Illustrator 22.1.0, SVG Export Plug-In . SVG Version: 6.00 Build 0)  -->
<svg version="1.1" id="Layer_1" xmlns="http://www.w3.org/2000/svg" xmlns:xlink="http://www.w3.org/1999/xlink" x="0px" y="0px"
	 width="30px" height="30px" viewBox="0 0 30 30" enable-background="new 0 0 30 30" xml:space="preserve">
<path fill="#FFFFFF" d="M26.9,26h2.2l-2.5-5H29v-2h-3.4l-2-4H27v-2h-4.4h-0.9h-4.5h-0.9H12v2h3.4l-2,4H10v2h2.4l-2.5,5h2.2l2.5-5h9.8L26.9,26z
	 M15.6,19l2-4h3.8l2,4H15.6z"/>
<polygon fill="#FFFFFF" points="30,1.1 30,0 27.8,0 0,13.9 0,16.1 6,13.1 6,30 7,30 8,30 30,30 30,28 8,28 8,12.1 "/>
</svg>
