<?xml version="1.0" encoding="utf-8"?>
<!-- Generator: Adobe Illustrator 18.1.1, SVG Export Plug-In . SVG Version: 6.00 Build 0)  -->
<svg version="1.1" id="Icons" xmlns="http://www.w3.org/2000/svg" xmlns:xlink="http://www.w3.org/1999/xlink" x="0px" y="0px"
	 viewBox="0 0 16 16" enable-background="new 0 0 16 16" xml:space="preserve">
<g opacity="0.1">
	<path d="M16,10h-3l-2-4h3V5H4v1h3l-2,4H2v1h3l-2,4h1l2-4h6l2,4h1l-2-4h3V10z M6,10l2-4h2l2,4H6z"/>
</g>
<g opacity="0.2">
	<path d="M15,9h-3l-2-4h3V4H3v1h3L4,9H1v1h3l-2,4h1l2-4h6l2,4h1l-2-4h3V9z M5,9l2-4h2l2,4H5z"/>
</g>
<g>
	<path d="M14,8h-3L9,4h3V3H2v1h3L3,8H0v1h3l-2,4h1l2-4h6l2,4h1l-2-4h3V8z M4,8l2-4h2l2,4H4z"/>
</g>
</svg>
