<?xml version="1.0" encoding="utf-8"?>
<!-- Generator: Adobe Illustrator 22.1.0, SVG Export Plug-In . SVG Version: 6.00 Build 0)  -->
<svg version="1.1" id="Layer_1" xmlns="http://www.w3.org/2000/svg" xmlns:xlink="http://www.w3.org/1999/xlink" x="0px" y="0px"
	 width="14px" height="14px" viewBox="0 0 14 14" enable-background="new 0 0 14 14" xml:space="preserve">
<path d="M14,9h-1.9l-1-2H13V6h-2.4h-1H9.4h-1H6v1h1.9l-1,2H5v1h1.4l-1,2h1.1l1-2h3.9l1,2h1.1l-1-2H14V9z M8.1,9l1-2h0.9l1,2H8.1z"/>
<polygon points="14,1 14,0 13.8,0 3.1,5 3,5 0,6.4 0,7.6 3,6.2 3,13 3,14 14,14 14,13 4,13 4,5.7 "/>
</svg>
