<?xml version="1.0" encoding="utf-8"?>
<!-- Generator: Adobe Illustrator 21.1.0, SVG Export Plug-In . SVG Version: 6.00 Build 0)  -->
<svg version="1.1" id="Layer_1_1_" xmlns="http://www.w3.org/2000/svg" xmlns:xlink="http://www.w3.org/1999/xlink" x="0px" y="0px"
	 width="30px" height="30px" viewBox="0 0 30 30" enable-background="new 0 0 30 30" xml:space="preserve">
<path fill="#FFFFFF" d="M15,0L8,2.3V0H5v3.3L0,5v4l3-1v22h24V8l3,1V5L15,0z M15,22.9c-3.5,0-6.3-2.8-6.3-6.3c0-3.5,2.8-6.3,6.3-6.3
	c0.3,0,0.5,0,0.8,0.1c-2.2,0.4-3.9,2.3-3.9,4.6c0,2.6,2.1,4.7,4.7,4.7c2.3,0,4.3-1.7,4.6-3.9c0,0.3,0.1,0.5,0.1,0.8
	C21.3,20,18.5,22.9,15,22.9z"/>
</svg>
