<?xml version="1.0" encoding="utf-8"?>
<!-- Generator: Adobe Illustrator 26.3.1, SVG Export Plug-In . SVG Version: 6.00 Build 0)  -->
<svg version="1.1" id="Layer_1_1_" xmlns="http://www.w3.org/2000/svg" xmlns:xlink="http://www.w3.org/1999/xlink" x="0px" y="0px"
	 viewBox="0 0 14 14" style="enable-background:new 0 0 14 14;" xml:space="preserve">
<style type="text/css">
	.st0{fill:#FFFFFF;}
</style>
<path class="st0" d="M9.9,11.4c-0.1-0.2-0.1-0.3-0.1-0.3c1.3-0.7,2.2-2.4,2.2-2.5c0.1-0.2-0.2-0.4-0.5-0.4c-0.2,0-5.5,0-5.5,0V2.4
	l-4,0v7c0,1.4,1.3,1.9,2.6,2.4C4.8,11.8,5,12,5.1,12.2c0.2,0.4-0.1,1-0.2,1.2L4.5,14h6.7L11,13.4C10.9,13.4,10,11.8,9.9,11.4z"/>
<path class="st0" d="M13.8,5.6L7.2,0.4C7.1,0.3,7,0.3,6.9,0.3c-0.1,0-0.3,0.1-0.4,0.2C6.4,0.7,6.4,1,6.6,1.2l6.6,5.2
	c0.1,0.1,0.2,0.1,0.3,0.1c0.1,0,0.3-0.1,0.4-0.2C14.1,6.1,14,5.8,13.8,5.6z"/>
<path class="st0" d="M12.2,3.7c0-0.2,0-0.3-0.1-0.5h0c-0.3-1.2-1.6-3-2-3.2C10,0.1,9.5,0.8,9,1.5L12.2,4C12.2,3.9,12.2,3.8,12.2,3.7
	z"/>
<path class="st0" d="M8.2,3.1c0,0,0,0.1,0,0.1h0c0,0.1-0.1,0.3-0.1,0.5c0,1.1,0.9,2,2,2c0.5,0,0.9-0.2,1.2-0.4L8.3,2.9
	C8.3,2.9,8.3,3,8.2,3.1z"/>
</svg>
