<?xml version="1.0" encoding="utf-8"?>
<!-- Generator: Adobe Illustrator 21.1.0, SVG Export Plug-In . SVG Version: 6.00 Build 0)  -->
<svg version="1.1" id="Layer_1_1_" xmlns="http://www.w3.org/2000/svg" xmlns:xlink="http://www.w3.org/1999/xlink" x="0px" y="0px"
	 width="14px" height="14px" viewBox="0 0 14 14" enable-background="new 0 0 14 14" xml:space="preserve">
<path d="M7,0L4,1.3V0H2v2.1L0,3v2h1v9h12V5h1V3L7,0z M7,12c-2.2,0-4-1.8-4-4c0-2.2,1.8-4,4-4c0.2,0,0.3,0,0.5,0.1C6.1,4.3,5,5.5,5,7
	c0,1.7,1.3,3,3,3c1.5,0,2.7-1.1,2.9-2.5C11,7.7,11,7.8,11,8C11,10.2,9.2,12,7,12z"/>
</svg>
