<?xml version="1.0" encoding="utf-8"?>
<!-- Generator: Adobe Illustrator 21.1.0, SVG Export Plug-In . SVG Version: 6.00 Build 0)  -->
<svg version="1.1" id="Layer_1_1_" xmlns="http://www.w3.org/2000/svg" xmlns:xlink="http://www.w3.org/1999/xlink" x="0px" y="0px"
	 width="22px" height="22px" viewBox="0 0 22 22" enable-background="new 0 0 22 22" xml:space="preserve">
<path fill="#FFFFFF" d="M11,0L5,1.6V0H3v2.2L0,3v3l2-0.5V22h18V5.5L22,6V3L11,0z M11,16c-2.2,0-4-1.8-4-4c0-2.2,1.8-4,4-4c0.2,0,0.3,0,0.5,0.1
	C10.1,8.3,9,9.5,9,11c0,1.7,1.3,3,3,3c1.5,0,2.7-1.1,2.9-2.5c0,0.2,0.1,0.3,0.1,0.5C15,14.2,13.2,16,11,16z"/>
</svg>
