<?xml version="1.0" encoding="utf-8"?>
<!-- Generator: Adobe Illustrator 26.3.1, SVG Export Plug-In . SVG Version: 6.00 Build 0)  -->
<svg version="1.1" id="Layer_1_1_" xmlns="http://www.w3.org/2000/svg" xmlns:xlink="http://www.w3.org/1999/xlink" x="0px" y="0px" width="22px" height="22px"
	 viewBox="0 0 22 22" enable-background="new 0 0 22 22" xml:space="preserve">
<path fill="#FFFFFF" d="M14.4,18c-0.1-0.3-0.1-0.5-0.1-0.5c2.1-1.2,3.4-3.8,3.4-3.9c0.1-0.3-0.4-0.5-0.8-0.5c-0.3,0-8.3,0-8.3,0v-9
	H2v10.7c0,2.2,2.1,3,4,3.8c0.4,0.1,0.7,0.4,0.8,0.7c0.3,0.7-0.1,1.6-0.3,2L5.9,22h10.6l-0.4-0.9C16,21.1,14.6,18.5,14.4,18z"/>
<path fill="#FFFFFF" d="M9.4,0.6C9.2,0.5,9,0.5,8.9,0.5c-0.2,0-0.5,0.1-0.6,0.3C8,1.1,8,1.6,8.4,1.9L18.7,10
	c0.1,0.1,0.3,0.2,0.5,0.2s0.5-0.1,0.6-0.3c0.3-0.3,0.2-0.8-0.1-1.1L9.4,0.6z"/>
<path fill="#FFFFFF" d="M17.2,5.8c0-0.3,0-0.5-0.1-0.7l0,0c-0.4-1.9-2.5-4.6-3.1-5c-0.3,0.2-1.1,1.1-1.8,2.3l4.9,3.9
	C17.2,6,17.2,5.9,17.2,5.8z"/>
<path fill="#FFFFFF" d="M11,4.8c0,0.1-0.1,0.1-0.1,0.2l0,0c-0.1,0.2-0.1,0.5-0.1,0.7c0,1.8,1.4,3.2,3.2,3.2c0.7,0,1.3-0.2,1.8-0.6
	L11,4.6C11,4.7,11,4.8,11,4.8z"/>
</svg>
