<?xml version="1.0" encoding="UTF-8" standalone="no"?>
<svg width="32px" height="32px" viewBox="0 0 32 32" version="1.1" xmlns="http://www.w3.org/2000/svg" xmlns:xlink="http://www.w3.org/1999/xlink" xmlns:sketch="http://www.bohemiancoding.com/sketch/ns">
    <!-- Generator: Sketch 3.3.3 (12072) - http://www.bohemiancoding.com/sketch -->
    <title>playground-white-32</title>
    <desc>Created with Sketch.</desc>
    <defs></defs>
    <g id="playground" stroke="none" stroke-width="1" fill="none" fill-rule="evenodd" sketch:type="MSPage">
        <g id="playground-white-32" sketch:type="MSArtboardGroup">
            <path d="M7.16883117,20.6648345 C8.92307692,20.6648345 10.3456543,19.2558054 10.3456543,17.5182668 C10.3456543,15.7846861 8.92307692,14.3796149 7.16883117,14.3796149 C5.41858142,14.3796149 4,15.7846861 4,17.5182668 C4,19.2558054 5.41858142,20.6648345 7.16883117,20.6648345 Z M24.959041,26.0674319 C25.1068931,25.9684832 25.3026973,25.9961888 25.4105894,26.1386749 L25.998002,26.9421381 C26.0979021,27.0806663 26.0659341,27.2825216 25.9260739,27.3893861 L21.6183816,30.4884585 C21.4785215,30.5913651 21.2747253,30.5597015 21.1668332,30.4211734 L20.5794206,29.6137522 C20.4795205,29.4752241 20.5114885,29.2733688 20.6513487,29.1665042 L24.959041,26.0674319 Z M20.0879121,22.0699056 L18.3776224,19.1014455 L17.4825175,19.7505488 L19.1888112,22.7348407 L20.0879121,22.0699056 Z M16.0999001,15.1355828 L9.45454545,3.57837808 L8.18381618,3.58629397 L15.1928072,15.792602 L16.0999001,15.1355828 Z M22.3576424,21.2506106 C22.7332667,20.9814702 23.1648352,20.771699 23.6563437,20.771699 L29.8301698,20.7796149 C31.028971,20.7796149 32,21.745354 32,22.9287801 C32,24.120122 31.028971,25.0779452 29.8301698,25.0779452 L24.6753247,25.0700293 L18.0979021,29.6691635 C15.7802198,31.3235853 14.3736264,29.5068877 14.3736264,29.5068877 L9.21078921,24.3892624 C8.34765235,23.3601963 8.53146853,21.4049705 9.57042957,20.5421381 L16.7152847,15.4997139 C17.4265734,14.9139378 18.4815185,15.0049705 19.0809191,15.7015692 C19.6763237,16.4060837 19.5804196,17.4549396 18.8691309,18.0446737 L14.2977023,21.3574752 L17.5824176,24.5752859 L22.3576424,21.2506106 Z" id="symbol" fill-opacity="0.5" fill="#000000" sketch:type="MSShapeGroup"></path>
            <path d="M6.16883117,19.6648345 C7.92307692,19.6648345 9.34565435,18.2558054 9.34565435,16.5182668 C9.34565435,14.7846861 7.92307692,13.3796149 6.16883117,13.3796149 C4.41858142,13.3796149 3,14.7846861 3,16.5182668 C3,18.2558054 4.41858142,19.6648345 6.16883117,19.6648345 Z M23.959041,25.0674319 C24.1068931,24.9684832 24.3026973,24.9961888 24.4105894,25.1386749 L24.998002,25.9421381 C25.0979021,26.0806663 25.0659341,26.2825216 24.9260739,26.3893861 L20.6183816,29.4884585 C20.4785215,29.5913651 20.2747253,29.5597015 20.1668332,29.4211734 L19.5794206,28.6137522 C19.4795205,28.4752241 19.5114885,28.2733688 19.6513487,28.1665042 L23.959041,25.0674319 Z M19.0879121,21.0699056 L17.3776224,18.1014455 L16.4825175,18.7505488 L18.1888112,21.7348407 L19.0879121,21.0699056 Z M15.0999001,14.1355828 L8.45454545,2.57837808 L7.18381618,2.58629397 L14.1928072,14.792602 L15.0999001,14.1355828 Z M21.3576424,20.2506106 C21.7332667,19.9814702 22.1648352,19.771699 22.6563437,19.771699 L28.8301698,19.7796149 C30.028971,19.7796149 31,20.745354 31,21.9287801 C31,23.120122 30.028971,24.0779452 28.8301698,24.0779452 L23.6753247,24.0700293 L17.0979021,28.6691635 C14.7802198,30.3235853 13.3736264,28.5068877 13.3736264,28.5068877 L8.21078921,23.3892624 C7.34765235,22.3601963 7.53146853,20.4049705 8.57042957,19.5421381 L15.7152847,14.4997139 C16.4265734,13.9139378 17.4815185,14.0049705 18.0809191,14.7015692 C18.6763237,15.4060837 18.5804196,16.4549396 17.8691309,17.0446737 L13.2977023,20.3574752 L16.5824176,23.5752859 L21.3576424,20.2506106 Z" id="symbol-copy" fill-opacity="0.75" fill="#000000" sketch:type="MSShapeGroup"></path>
            <path d="M5.16883117,18.6648345 C6.92307692,18.6648345 8.34565435,17.2558054 8.34565435,15.5182668 C8.34565435,13.7846861 6.92307692,12.3796149 5.16883117,12.3796149 C3.41858142,12.3796149 2,13.7846861 2,15.5182668 C2,17.2558054 3.41858142,18.6648345 5.16883117,18.6648345 Z M22.959041,24.0674319 C23.1068931,23.9684832 23.3026973,23.9961888 23.4105894,24.1386749 L23.998002,24.9421381 C24.0979021,25.0806663 24.0659341,25.2825216 23.9260739,25.3893861 L19.6183816,28.4884585 C19.4785215,28.5913651 19.2747253,28.5597015 19.1668332,28.4211734 L18.5794206,27.6137522 C18.4795205,27.4752241 18.5114885,27.2733688 18.6513487,27.1665042 L22.959041,24.0674319 Z M18.0879121,20.0699056 L16.3776224,17.1014455 L15.4825175,17.7505488 L17.1888112,20.7348407 L18.0879121,20.0699056 Z M14.0999001,13.1355828 L7.45454545,1.57837808 L6.18381618,1.58629397 L13.1928072,13.792602 L14.0999001,13.1355828 Z M20.3576424,19.2506106 C20.7332667,18.9814702 21.1648352,18.771699 21.6563437,18.771699 L27.8301698,18.7796149 C29.028971,18.7796149 30,19.745354 30,20.9287801 C30,22.120122 29.028971,23.0779452 27.8301698,23.0779452 L22.6753247,23.0700293 L16.0979021,27.6691635 C13.7802198,29.3235853 12.3736264,27.5068877 12.3736264,27.5068877 L7.21078921,22.3892624 C6.34765235,21.3601963 6.53146853,19.4049705 7.57042957,18.5421381 L14.7152847,13.4997139 C15.4265734,12.9139378 16.4815185,13.0049705 17.0809191,13.7015692 C17.6763237,14.4060837 17.5804196,15.4549396 16.8691309,16.0446737 L12.2977023,19.3574752 L15.5824176,22.5752859 L20.3576424,19.2506106 Z" id="symbol-copy-2" fill="#FFFFFF" sketch:type="MSShapeGroup"></path>
        </g>
    </g>
</svg>