<?xml version="1.0" encoding="UTF-8" standalone="no"?>
<svg width="24px" height="24px" viewBox="0 0 24 24" version="1.1" xmlns="http://www.w3.org/2000/svg" xmlns:xlink="http://www.w3.org/1999/xlink" xmlns:sketch="http://www.bohemiancoding.com/sketch/ns">
    <!-- Generator: Sketch 3.3.3 (12072) - http://www.bohemiancoding.com/sketch -->
    <title>playground-white-24</title>
    <desc>Created with Sketch.</desc>
    <defs></defs>
    <g id="playground" stroke="none" stroke-width="1" fill="none" fill-rule="evenodd" sketch:type="MSPage">
        <g id="playground-white-24" sketch:type="MSArtboardGroup">
            <path d="M6.4325,16.0161429 C7.6671875,16.0161429 8.6684375,15.0498571 8.6684375,13.8582857 C8.6684375,12.6694286 7.6671875,11.7058571 6.4325,11.7058571 C5.200625,11.7058571 4.2021875,12.6694286 4.2021875,13.8582857 C4.2021875,15.0498571 5.200625,16.0161429 6.4325,16.0161429 Z M18.95375,19.7211429 C19.0578125,19.6532857 19.195625,19.6722857 19.2715625,19.77 L19.685,20.321 C19.7553125,20.416 19.7328125,20.5544286 19.634375,20.6277143 L16.6025,22.753 C16.5040625,22.8235714 16.360625,22.8018571 16.2846875,22.7068571 L15.87125,22.1531429 C15.8009375,22.0581429 15.8234375,21.9197143 15.921875,21.8464286 L18.95375,19.7211429 Z M15.5253125,16.9797143 L14.3215625,14.944 L13.6915625,15.3891429 L14.8925,17.4357143 L15.5253125,16.9797143 Z M12.7184375,12.2242857 L8.04125,4.29857143 L7.146875,4.304 L12.08,12.6748571 L12.7184375,12.2242857 Z M17.1228125,16.4178571 C17.3871875,16.2332857 17.6909375,16.0894286 18.036875,16.0894286 L22.3821875,16.0948571 C23.2259375,16.0948571 23.909375,16.7571429 23.909375,17.5687143 C23.909375,18.3857143 23.2259375,19.0425714 22.3821875,19.0425714 L18.7540625,19.0371429 L14.1246875,22.1911429 C12.4934375,23.3257143 11.5034375,22.0798571 11.5034375,22.0798571 L7.8696875,18.5702857 C7.2621875,17.8645714 7.3915625,16.5237143 8.1228125,15.932 L13.1515625,12.474 C13.6521875,12.0722857 14.3946875,12.1347143 14.8165625,12.6124286 C15.235625,13.0955714 15.168125,13.8148571 14.6675,14.2192857 L11.45,16.4911429 L13.761875,18.6978571 L17.1228125,16.4178571 Z" id="symbol" fill-opacity="0.5" fill="#000000" sketch:type="MSShapeGroup"></path>
            <path d="M5.4325,15.0161429 C6.6671875,15.0161429 7.6684375,14.0498571 7.6684375,12.8582857 C7.6684375,11.6694286 6.6671875,10.7058571 5.4325,10.7058571 C4.200625,10.7058571 3.2021875,11.6694286 3.2021875,12.8582857 C3.2021875,14.0498571 4.200625,15.0161429 5.4325,15.0161429 Z M17.95375,18.7211429 C18.0578125,18.6532857 18.195625,18.6722857 18.2715625,18.77 L18.685,19.321 C18.7553125,19.416 18.7328125,19.5544286 18.634375,19.6277143 L15.6025,21.753 C15.5040625,21.8235714 15.360625,21.8018571 15.2846875,21.7068571 L14.87125,21.1531429 C14.8009375,21.0581429 14.8234375,20.9197143 14.921875,20.8464286 L17.95375,18.7211429 Z M14.5253125,15.9797143 L13.3215625,13.944 L12.6915625,14.3891429 L13.8925,16.4357143 L14.5253125,15.9797143 Z M11.7184375,11.2242857 L7.04125,3.29857143 L6.146875,3.304 L11.08,11.6748571 L11.7184375,11.2242857 Z M16.1228125,15.4178571 C16.3871875,15.2332857 16.6909375,15.0894286 17.036875,15.0894286 L21.3821875,15.0948571 C22.2259375,15.0948571 22.909375,15.7571429 22.909375,16.5687143 C22.909375,17.3857143 22.2259375,18.0425714 21.3821875,18.0425714 L17.7540625,18.0371429 L13.1246875,21.1911429 C11.4934375,22.3257143 10.5034375,21.0798571 10.5034375,21.0798571 L6.8696875,17.5702857 C6.2621875,16.8645714 6.3915625,15.5237143 7.1228125,14.932 L12.1515625,11.474 C12.6521875,11.0722857 13.3946875,11.1347143 13.8165625,11.6124286 C14.235625,12.0955714 14.168125,12.8148571 13.6675,13.2192857 L10.45,15.4911429 L12.761875,17.6978571 L16.1228125,15.4178571 Z" id="symbol-copy" fill-opacity="0.75" fill="#000000" sketch:type="MSShapeGroup"></path>
            <path d="M4.4325,14.0161429 C5.6671875,14.0161429 6.6684375,13.0498571 6.6684375,11.8582857 C6.6684375,10.6694286 5.6671875,9.70585714 4.4325,9.70585714 C3.200625,9.70585714 2.2021875,10.6694286 2.2021875,11.8582857 C2.2021875,13.0498571 3.200625,14.0161429 4.4325,14.0161429 Z M16.95375,17.7211429 C17.0578125,17.6532857 17.195625,17.6722857 17.2715625,17.77 L17.685,18.321 C17.7553125,18.416 17.7328125,18.5544286 17.634375,18.6277143 L14.6025,20.753 C14.5040625,20.8235714 14.360625,20.8018571 14.2846875,20.7068571 L13.87125,20.1531429 C13.8009375,20.0581429 13.8234375,19.9197143 13.921875,19.8464286 L16.95375,17.7211429 Z M13.5253125,14.9797143 L12.3215625,12.944 L11.6915625,13.3891429 L12.8925,15.4357143 L13.5253125,14.9797143 Z M10.7184375,10.2242857 L6.04125,2.29857143 L5.146875,2.304 L10.08,10.6748571 L10.7184375,10.2242857 Z M15.1228125,14.4178571 C15.3871875,14.2332857 15.6909375,14.0894286 16.036875,14.0894286 L20.3821875,14.0948571 C21.2259375,14.0948571 21.909375,14.7571429 21.909375,15.5687143 C21.909375,16.3857143 21.2259375,17.0425714 20.3821875,17.0425714 L16.7540625,17.0371429 L12.1246875,20.1911429 C10.4934375,21.3257143 9.5034375,20.0798571 9.5034375,20.0798571 L5.8696875,16.5702857 C5.2621875,15.8645714 5.3915625,14.5237143 6.1228125,13.932 L11.1515625,10.474 C11.6521875,10.0722857 12.3946875,10.1347143 12.8165625,10.6124286 C13.235625,11.0955714 13.168125,11.8148571 12.6675,12.2192857 L9.45,14.4911429 L11.761875,16.6978571 L15.1228125,14.4178571 Z" id="symbol-copy-2" fill="#FFFFFF" sketch:type="MSShapeGroup"></path>
        </g>
    </g>
</svg>