<?xml version="1.0" encoding="UTF-8" standalone="no"?>
<svg width="16px" height="16px" viewBox="0 0 16 16" version="1.1" xmlns="http://www.w3.org/2000/svg" xmlns:xlink="http://www.w3.org/1999/xlink" xmlns:sketch="http://www.bohemiancoding.com/sketch/ns">
    <!-- Generator: Sketch 3.3.3 (12072) - http://www.bohemiancoding.com/sketch -->
    <title>playground-white-16</title>
    <desc>Created with Sketch.</desc>
    <defs></defs>
    <g id="playground" stroke="none" stroke-width="1" fill="none" fill-rule="evenodd" sketch:type="MSPage">
        <g id="playground-white-16" sketch:type="MSArtboardGroup">
            <path d="M4.79573055,3 L7.76299458,8.08965775 L7.76299458,8.08965775 L8.58497909,7.51409801 L5.95326566,3 L4.79573055,3 L4.79573055,3 Z M12.6512451,13.5343628 L10.213501,15.2387695 L10.7539063,16 L13.171936,14.3265991 L12.6512451,13.5343628 Z M11.4331696,10.8428571 C11.5968304,10.7262857 11.7848661,10.6354286 11.9990179,10.6354286 L14.6889732,10.6388571 C15.2112946,10.6388571 15.634375,11.0571429 15.634375,11.5697143 C15.634375,12.0857143 15.2112946,12.5005714 14.6889732,12.5005714 L12.4429911,12.4971429 L9.5771875,14.4891429 C8.56736607,15.2057143 7.95450893,14.4188571 7.95450893,14.4188571 L5.70504464,12.2022857 C5.32897321,11.7565714 5.4090625,10.9097143 5.86174107,10.536 L8.97477679,8.352 C9.2846875,8.09828571 9.74433036,8.13771429 10.0054911,8.43942857 C10.2649107,8.74457143 10.223125,9.19885714 9.91321429,9.45428571 L7.92142857,10.8891429 L9.35258929,12.2828571 L11.4331696,10.8428571 Z M4.81535714,10.5891429 C5.5796875,10.5891429 6.19950893,9.97885714 6.19950893,9.22628571 C6.19950893,8.47542857 5.5796875,7.86685714 4.81535714,7.86685714 C4.05276786,7.86685714 3.4346875,8.47542857 3.4346875,9.22628571 C3.4346875,9.97885714 4.05276786,10.5891429 4.81535714,10.5891429 Z" id="symbol" fill-opacity="0.5" fill="#000000" sketch:type="MSShapeGroup"></path>
            <path d="M3.79573055,2 L6.76299458,7.08965775 L6.76299458,7.08965775 L7.58497909,6.51409801 L4.95326566,2 L3.79573055,2 L3.79573055,2 Z M11.6512451,12.5343628 L9.21350098,14.2387695 L9.75390625,15 L12.171936,13.3265991 L11.6512451,12.5343628 Z M10.4331696,9.84285714 C10.5968304,9.72628571 10.7848661,9.63542857 10.9990179,9.63542857 L13.6889732,9.63885714 C14.2112946,9.63885714 14.634375,10.0571429 14.634375,10.5697143 C14.634375,11.0857143 14.2112946,11.5005714 13.6889732,11.5005714 L11.4429911,11.4971429 L8.5771875,13.4891429 C7.56736607,14.2057143 6.95450893,13.4188571 6.95450893,13.4188571 L4.70504464,11.2022857 C4.32897321,10.7565714 4.4090625,9.90971429 4.86174107,9.536 L7.97477679,7.352 C8.2846875,7.09828571 8.74433036,7.13771429 9.00549107,7.43942857 C9.26491071,7.74457143 9.223125,8.19885714 8.91321429,8.45428571 L6.92142857,9.88914286 L8.35258929,11.2828571 L10.4331696,9.84285714 Z M3.81535714,9.58914286 C4.5796875,9.58914286 5.19950893,8.97885714 5.19950893,8.22628571 C5.19950893,7.47542857 4.5796875,6.86685714 3.81535714,6.86685714 C3.05276786,6.86685714 2.4346875,7.47542857 2.4346875,8.22628571 C2.4346875,8.97885714 3.05276786,9.58914286 3.81535714,9.58914286 Z" id="symbol-copy" fill-opacity="0.75" fill="#000000" sketch:type="MSShapeGroup"></path>
            <path d="M2.79573055,1 L5.76299458,6.08965775 L5.76299458,6.08965775 L6.58497909,5.51409801 L3.95326566,1 L2.79573055,1 L2.79573055,1 Z M10.6512451,11.5343628 L8.21350098,13.2387695 L8.75390625,14 L11.171936,12.3265991 L10.6512451,11.5343628 Z M9.43316964,8.84285714 C9.59683036,8.72628571 9.78486607,8.63542857 9.99901786,8.63542857 L12.6889732,8.63885714 C13.2112946,8.63885714 13.634375,9.05714286 13.634375,9.56971429 C13.634375,10.0857143 13.2112946,10.5005714 12.6889732,10.5005714 L10.4429911,10.4971429 L7.5771875,12.4891429 C6.56736607,13.2057143 5.95450893,12.4188571 5.95450893,12.4188571 L3.70504464,10.2022857 C3.32897321,9.75657143 3.4090625,8.90971429 3.86174107,8.536 L6.97477679,6.352 C7.2846875,6.09828571 7.74433036,6.13771429 8.00549107,6.43942857 C8.26491071,6.74457143 8.223125,7.19885714 7.91321429,7.45428571 L5.92142857,8.88914286 L7.35258929,10.2828571 L9.43316964,8.84285714 Z M2.81535714,8.58914286 C3.5796875,8.58914286 4.19950893,7.97885714 4.19950893,7.22628571 C4.19950893,6.47542857 3.5796875,5.86685714 2.81535714,5.86685714 C2.05276786,5.86685714 1.4346875,6.47542857 1.4346875,7.22628571 C1.4346875,7.97885714 2.05276786,8.58914286 2.81535714,8.58914286 Z" id="symbol-copy-2" fill="#FFFFFF" sketch:type="MSShapeGroup"></path>
        </g>
    </g>
</svg>