<?xml version="1.0" encoding="utf-8"?>
<!-- Generator: Adobe Illustrator 20.0.0, SVG Export Plug-In . SVG Version: 6.00 Build 0)  -->
<svg version="1.1" id="Layer_1" xmlns:sketch="http://www.bohemiancoding.com/sketch/ns"
	 xmlns="http://www.w3.org/2000/svg" xmlns:xlink="http://www.w3.org/1999/xlink" x="0px" y="0px" width="30px" height="30px"
	 viewBox="0 0 30 30" enable-background="new 0 0 30 30" xml:space="preserve">
<path fill="#231F20" id="symbol-copy-2" sketch:type="MSShapeGroup" d="M5.2,17.1c1.8,0,3.2-1.4,3.2-3.1c0-1.7-1.4-3.1-3.2-3.1
	C3.4,10.8,2,12.2,2,14C2,15.7,3.4,17.1,5.2,17.1z M23,22.5c0.1-0.1,0.3-0.1,0.5,0.1l0.6,0.8c0.1,0.1,0.1,0.3-0.1,0.4l-4.3,3.1
	c-0.1,0.1-0.3,0.1-0.5-0.1l-0.6-0.8c-0.1-0.1-0.1-0.3,0.1-0.4L23,22.5z M18.1,18.5l-1.7-3l-0.9,0.6l1.7,3L18.1,18.5z M14.1,11.6
	L7.5,0L6.2,0l7,12.2L14.1,11.6z M20.4,17.7c0.4-0.3,0.8-0.5,1.3-0.5l6.2,0c1.2,0,2.2,1,2.2,2.1c0,1.2-1,2.1-2.2,2.1l-5.2,0l-6.6,4.6
	c-2.3,1.7-3.7-0.2-3.7-0.2l-5.2-5.1c-0.9-1-0.7-3,0.4-3.8l7.1-5c0.7-0.6,1.8-0.5,2.4,0.2c0.6,0.7,0.5,1.8-0.2,2.3l-4.6,3.3l3.3,3.2
	L20.4,17.7z"/>
</svg>
