<?xml version="1.0" encoding="utf-8"?>
<!-- Generator: Adobe Illustrator 20.0.0, SVG Export Plug-In . SVG Version: 6.00 Build 0)  -->
<svg version="1.1" id="Layer_1" xmlns:sketch="http://www.bohemiancoding.com/sketch/ns"
	 xmlns="http://www.w3.org/2000/svg" xmlns:xlink="http://www.w3.org/1999/xlink" x="0px" y="0px" width="22px" height="22px"
	 viewBox="0 0 22 22" enable-background="new 0 0 22 22" xml:space="preserve">
<path fill="#FFFFFF" id="symbol-copy-2" sketch:type="MSShapeGroup" d="M4.4,11.7c1.2,0,2.2-1,2.2-2.2c0-1.2-1-2.2-2.2-2.2c-1.2,0-2.2,1-2.2,2.2
	C2.2,10.8,3.2,11.7,4.4,11.7z M17,15.4c0.1-0.1,0.2,0,0.3,0l0.4,0.6c0.1,0.1,0,0.2-0.1,0.3l-3,2.1c-0.1,0.1-0.2,0-0.3,0l-0.4-0.6
	c-0.1-0.1,0-0.2,0.1-0.3L17,15.4z M13.5,12.7l-1.2-2l-0.6,0.4l1.2,2L13.5,12.7z M10.7,7.9L6,0L5.1,0l4.9,8.4L10.7,7.9z M15.1,12.1
	c0.3-0.2,0.6-0.3,0.9-0.3l4.3,0c0.8,0,1.5,0.7,1.5,1.5c0,0.8-0.7,1.5-1.5,1.5l-3.6,0l-4.6,3.2c-1.6,1.1-2.6-0.1-2.6-0.1l-3.6-3.5
	c-0.6-0.7-0.5-2,0.3-2.6l5-3.5c0.5-0.4,1.2-0.3,1.7,0.1c0.4,0.5,0.4,1.2-0.1,1.6l-3.2,2.3l2.3,2.2L15.1,12.1z"/>
</svg>
