<?xml version="1.0" encoding="utf-8"?>
<!-- Generator: Adobe Illustrator 22.0.1, SVG Export Plug-In . SVG Version: 6.00 Build 0)  -->
<svg version="1.1" id="Layer_1" xmlns="http://www.w3.org/2000/svg" xmlns:xlink="http://www.w3.org/1999/xlink" x="0px" y="0px"
	 width="22px" height="22px" viewBox="0 0 22 22" enable-background="new 0 0 22 22" xml:space="preserve">
<path fill="#FFFFFF" d="M21,15h-2.6l1.8-1.8c0.4-0.4,0.4-1,0-1.4c-0.4-0.4-1-0.4-1.4,0L17,13.6V11c0-0.5-0.5-1-1-1s-1,0.5-1,1v2.6l-1.8-1.8
	c-0.4-0.4-1-0.4-1.4,0c-0.4,0.4-0.4,1,0,1.4l1.8,1.8H11c-0.5,0-1,0.5-1,1s0.5,1,1,1h2.6l-1.8,1.8c-0.4,0.4-0.4,1,0,1.4
	c0.4,0.4,1,0.4,1.4,0l1.8-1.8V21c0,0.5,0.5,1,1,1s1-0.5,1-1v-2.6l1.8,1.8c0.4,0.4,1,0.4,1.4,0c0.4-0.4,0.4-1,0-1.4L18.4,17H21
	c0.5,0,1-0.5,1-1S21.5,15,21,15z"/>
<path fill="#FFFFFF" d="M9,1C8.5,1,8,1.5,8,2v4.6L1.7,0.3l0,0C1.5,0.1,1.3,0,1,0C0.4,0,0,0.4,0,1c0,0.3,0.1,0.5,0.3,0.7L6.6,8H2C1.5,8,1,8.5,1,9
	s0.5,1,1,1h6h0.6H9c0.5,0,1-0.5,1-1V8.6V8V2C10,1.5,9.5,1,9,1z"/>
</svg>
