<?xml version="1.0" encoding="utf-8"?>
<!-- Generator: Adobe Illustrator 22.0.1, SVG Export Plug-In . SVG Version: 6.00 Build 0)  -->
<svg version="1.1" id="Layer_1" xmlns="http://www.w3.org/2000/svg" xmlns:xlink="http://www.w3.org/1999/xlink" x="0px" y="0px"
	 width="14px" height="14px" viewBox="0 0 14 14" enable-background="new 0 0 14 14" xml:space="preserve">
<polygon fill="#FFFFFF" points="14,10 11.7,10 13.3,8.4 12.6,7.7 11,9.3 11,7 10,7 10,9.3 8.4,7.7 7.7,8.4 9.3,10 7,10 7,11 9.3,11 7.7,12.6 
	8.4,13.3 10,11.7 10,14 11,14 11,11.7 12.6,13.3 13.3,12.6 11.7,11 14,11 "/>
<polygon fill="#FFFFFF" points="5,1 5,4.3 0.7,0 0,0 0,0.7 4.3,5 1,5 1,6 5,6 6,6 6,5 6,1 "/>
</svg>
