<?xml version="1.0" encoding="utf-8"?>
<!-- Generator: Adobe Illustrator 22.0.1, SVG Export Plug-In . SVG Version: 6.00 Build 0)  -->
<svg version="1.1" id="Layer_1" xmlns="http://www.w3.org/2000/svg" xmlns:xlink="http://www.w3.org/1999/xlink" x="0px" y="0px"
	 width="30px" height="30px" viewBox="0 0 30 30" enable-background="new 0 0 30 30" xml:space="preserve">
<path d="M28.5,20h-3.4l2.4-2.4c0.6-0.6,0.6-1.5,0-2.1c-0.6-0.6-1.5-0.6-2.1,0L23,17.9v-3.4c0-0.8-0.7-1.5-1.5-1.5S20,13.7,20,14.5
	v3.4l-2.4-2.4c-0.6-0.6-1.5-0.6-2.1,0c-0.6,0.6-0.6,1.5,0,2.1l2.4,2.4h-3.4c-0.8,0-1.5,0.7-1.5,1.5s0.7,1.5,1.5,1.5h3.4l-2.4,2.4
	c-0.6,0.6-0.6,1.5,0,2.1c0.6,0.6,1.5,0.6,2.1,0l2.4-2.4v3.4c0,0.8,0.7,1.5,1.5,1.5s1.5-0.7,1.5-1.5v-3.4l2.4,2.4
	c0.6,0.6,1.5,0.6,2.1,0c0.6-0.6,0.6-1.5,0-2.1L25.1,23h3.4c0.8,0,1.5-0.7,1.5-1.5S29.3,20,28.5,20z"/>
<path d="M12.5,2C11.7,2,11,2.7,11,3.5v5.4L2.6,0.4l0,0C2.3,0.2,1.9,0,1.5,0C0.7,0,0,0.7,0,1.5c0,0.4,0.2,0.8,0.4,1.1l0,0L8.9,11H3.5
	C2.7,11,2,11.7,2,12.5S2.7,14,3.5,14h8.4h0.5h0.2c0.8,0,1.5-0.7,1.5-1.5v-0.2v-0.5V3.5C14,2.7,13.3,2,12.5,2z"/>
</svg>
