<?xml version="1.0" encoding="utf-8"?>
<!-- Generator: Adobe Illustrator 18.1.1, SVG Export Plug-In . SVG Version: 6.00 Build 0)  -->
<svg version="1.1" id="Icons" xmlns="http://www.w3.org/2000/svg" xmlns:xlink="http://www.w3.org/1999/xlink" x="0px" y="0px"
	 viewBox="0 0 16 16" enable-background="new 0 0 16 16" xml:space="preserve">
<g opacity="0.5">
	<path d="M2,4v11h14V4H2z M11,10l4-4v7l-3-3H11l4,4H3l4-4H6l-3,3V6l4,4h1L3,5h12l-5,5H11z"/>
	<rect x="8" y="9" width="2" height="1"/>
</g>
<g opacity="0.75">
	<path d="M1,3v11h14V3H1z M10,9l4-4v7l-3-3H10l4,4H2l4-4H5l-3,3V5l4,4h1L2,4h12L9,9H10z"/>
	<rect x="7" y="8" width="2" height="1"/>
</g>
<g>
	<path fill="#E6E6E6" d="M0,2v11h14V2H0z M9,8l4-4v7l-3-3H9l4,4H1l4-4H4l-3,3V4l4,4h1L1,3h12L8,8H9z"/>
	<rect x="6" y="7" fill="#E6E6E6" width="2" height="1"/>
</g>
</svg>
