<?xml version="1.0" encoding="utf-8"?>
<!-- Generator: Adobe Illustrator 20.0.0, SVG Export Plug-In . SVG Version: 6.00 Build 0)  -->
<svg version="1.1" id="Icons" xmlns="http://www.w3.org/2000/svg" xmlns:xlink="http://www.w3.org/1999/xlink" x="0px" y="0px"
	 width="30px" height="30px" viewBox="0 0 30 30" enable-background="new 0 0 30 30" xml:space="preserve">
<g>
	<path fill="#FFFFFF" d="M0,3v23h30V3H0z M26,5v1h-1v1h-1v1h-1v1h-1v1h-1v1h-1v1h-1v1h-1v1h-1v1h-1v1h-2v-1h-1v-1h-1v-1h-1v-1h-1v-1H9v-1H8V9H7V8H6
		V7H5V6H4V5H26z M2,7h1v1h1v1h1v1h1v1h1v1h1v1h1v1h1v1H9v1H8v1H7v1H6v1H5v1H4v1H3v1H2V7z M4,24v-1h1v-1h1v-1h1v-1h1v-1h1v-1h1v-1h1
		v-1h1v1h1v1h1h0.5h1H16h1v-1h1v-1h1v1h1v1h1v1h1v1h1v1h1v1h1v1h1v1H4z M28,22h-1v-1h-1v-1h-1v-1h-1v-1h-1v-1h-1v-1h-1v-1h-1v-1h1
		v-1h1v-1h1v-1c0,0,1,0.1,1,0s0-1,0-1h1V9h1V8h1V7h1V22z"/>
</g>
</svg>
