<?xml version="1.0" encoding="utf-8"?>
<!-- Generator: Adobe Illustrator 18.1.1, SVG Export Plug-In . SVG Version: 6.00 Build 0)  -->
<svg version="1.1" id="Icons" xmlns="http://www.w3.org/2000/svg" xmlns:xlink="http://www.w3.org/1999/xlink" x="0px" y="0px"
	 viewBox="0 0 24 24" enable-background="new 0 0 24 24" xml:space="preserve">
<g opacity="0.5">
	<path d="M22.7,5H3.2H2v1.2v13.5v1.2V21h22v-0.1v-1.2V6.2V5H22.7z M22.7,19H22v-1h-1v-1h-1v-1h-1v-1h-1v-1h-1v-1v-1h1v-1h1v-1h1V9h1
		V8h1V7h0.8V19z M3.2,7H4v1h1v1h1v1h1v1h1v1h1v1v1H8v1H7v1H6v1H5v1H4v1H3.2V7z M16,12h-1v1h-1v1h-2v-1h-1v-1h-1v-1H9v-1H8V9H7V8H6V7
		H5V6.2h16V7h-1v1h-1v1h-1v1h-1v1h-1V12z M5,19h1v-1h1v-1h1v-1h1v-1h1v-1h1v1h4v-1h1v1h1v1h1v1h1v1h1v1h1v0.8H5V19z"/>
</g>
<g opacity="0.75">
	<path d="M21.7,4H2.2H1v1.2v13.5v1.2V20h22v-0.1v-1.2V5.2V4H21.7z M21.7,18H21v-1h-1v-1h-1v-1h-1v-1h-1v-1h-1v-1v-1h1v-1h1V9h1V8h1
		V7h1V6h0.8V18z M2.2,6H3v1h1v1h1v1h1v1h1v1h1v1v1H7v1H6v1H5v1H4v1H3v1H2.2V6z M15,11h-1v1h-1v1h-2v-1h-1v-1H9v-1H8V9H7V8H6V7H5V6H4
		V5.2h16V6h-1v1h-1v1h-1v1h-1v1h-1V11z M4,18h1v-1h1v-1h1v-1h1v-1h1v-1h1v1h4v-1h1v1h1v1h1v1h1v1h1v1h1v0.8H4V18z"/>
</g>
<g>
	<path fill="#FFFFFF" d="M20.7,3H1.2H0v1.2v13.5v1.2V19h22v-0.1v-1.2V4.2V3H20.7z M20.7,17H20v-1h-1v-1h-1v-1h-1v-1h-1v-1h-1v-1v-1
		h1V9h1V8h1V7h1V6h1V5h0.8V17z M1.2,5H2v1h1v1h1v1h1v1h1v1h1v1v1H6v1H5v1H4v1H3v1H2v1H1.2V5z M14,10h-1v1h-1v1h-2v-1H9v-1H8V9H7V8H6
		V7H5V6H4V5H3V4.2h16V5h-1v1h-1v1h-1v1h-1v1h-1V10z M3,17h1v-1h1v-1h1v-1h1v-1h1v-1h1v1h4v-1h1v1h1v1h1v1h1v1h1v1h1v0.8H3V17z"/>
</g>
</svg>
