<?xml version="1.0" encoding="utf-8"?>
<!-- Generator: Adobe Illustrator 22.0.1, SVG Export Plug-In . SVG Version: 6.00 Build 0)  -->
<svg version="1.1" id="Layer_1" xmlns="http://www.w3.org/2000/svg" xmlns:xlink="http://www.w3.org/1999/xlink" x="0px" y="0px"
	 width="30px" height="30px" viewBox="0 0 30 30" enable-background="new 0 0 30 30" xml:space="preserve">
<path fill="#FFFFFF" d="M20.9,5.5V0H9.1v5.5c-2.9,0.5-5.1,3-5.1,6v9.6c0,3,2.2,5.5,5.1,6V30h11.7v-2.9c2.9-0.5,5.1-3,5.1-6v-9.6
	C25.9,8.5,23.7,6,20.9,5.5z M16,2h3v3h-3V2z M11,2h3v3h-3V2z M17.7,18.5c-0.7,1.1-3,2.3-2.3,4.8H14c-1.1-1.3-4.8-5.4-1.7-8.2
	c2.9-2.7,3.4-5,2.4-6.1C14.6,9,22.1,11.8,17.7,18.5z"/>
</svg>
