<?xml version="1.0" encoding="utf-8"?>
<!-- Generator: Adobe Illustrator 22.0.1, SVG Export Plug-In . SVG Version: 6.00 Build 0)  -->
<svg version="1.1" id="Layer_1" xmlns="http://www.w3.org/2000/svg" xmlns:xlink="http://www.w3.org/1999/xlink" x="0px" y="0px"
	 width="22px" height="22px" viewBox="0 0 22 22" enable-background="new 0 0 22 22" xml:space="preserve">
<path d="M15,4V0H7v4C4.9,4.4,3,6.3,3,8.4v7c0,2.2,1.6,4,3.7,4.4V22h8.6v-2.2c2.1-0.4,3.7-2.2,3.7-4.4v-7C19,6.3,17.1,4.4,15,4z
	 M12,1h2v3h-2V1z M8,1h2v3H8V1z M10,16H7l-1.5-2.5l1.3-2.3l-1-0.6l2.2,0.1l1.2,1.9l-0.8-0.4l-0.7,1.3L8.2,14H10V16z M9.6,10.4L8,9.3
	l1.5-2.6l3,0l1.4,2.5l1-0.6l-1.2,1.9l-2.2,0.1l0.7-0.4l-0.9-1.5l-0.7,0L9.6,10.4z M15.1,16H12v1l-1-2l1-2v1h1.9l0.3-0.5L13.3,12
	l1.6-1.1l1.6,2.7L15.1,16z"/>
</svg>
