<?xml version="1.0" encoding="utf-8"?>
<!-- Generator: Adobe Illustrator 22.0.1, SVG Export Plug-In . SVG Version: 6.00 Build 0)  -->
<svg version="1.1" id="Layer_1" xmlns="http://www.w3.org/2000/svg" xmlns:xlink="http://www.w3.org/1999/xlink" x="0px" y="0px"
	 width="14px" height="14px" viewBox="0 0 14 14" enable-background="new 0 0 14 14" xml:space="preserve">
<path fill="#FFFFFF" d="M9.7,2.6V0H4.3v2.6C2.9,2.8,1.9,4,1.9,5.4v4.5c0,1.3,0.9,2.4,2.1,2.7c0.1,0,0,1.4,0,1.4h6c0,0-0.1-1.4,0-1.4
	c1.2-0.3,2.1-1.4,2.1-2.7V5.4C12.1,4,11.1,2.8,9.7,2.6z M8,1h1v2H8V1z M5,1h1v2H5V1z M8.3,8.6c-0.3,0.5-1.4,1.1-1.1,2.3H6.5
	C6,10.3,4.3,8.4,5.7,7C7.1,5.8,7,4.3,6.5,3.7C6.5,3.7,10.3,5.5,8.3,8.6z"/>
</svg>
