<?xml version="1.0" encoding="utf-8"?>
<!-- Generator: Adobe Illustrator 22.0.1, SVG Export Plug-In . SVG Version: 6.00 Build 0)  -->
<svg version="1.1" id="Layer_1" xmlns="http://www.w3.org/2000/svg" xmlns:xlink="http://www.w3.org/1999/xlink" x="0px" y="0px"
	 width="22px" height="22px" viewBox="0 0 22 22" enable-background="new 0 0 22 22" xml:space="preserve">
<path d="M15,4V0H7v4C4.9,4.4,3,6.3,3,8.4v7c0,2.2,1.6,4,3.7,4.4V22h8.6v-2.2c2.1-0.4,3.7-2.2,3.7-4.4v-7C19,6.3,17.1,4.4,15,4z
	 M12,1h2v3h-2V1z M8,1h2v3H8V1z M13,13.6c-0.5,0.8-2.2,1.7-1.7,3.5h-1.1c-0.8-0.9-3.5-3.9-1.3-6c2.2-2,2.5-3.7,1.7-4.5
	C10.7,6.6,16.2,8.7,13,13.6z"/>
</svg>
