<?xml version="1.0" encoding="utf-8"?>
<!-- Generator: Adobe Illustrator 22.0.1, SVG Export Plug-In . SVG Version: 6.00 Build 0)  -->
<svg version="1.1" id="Layer_1" xmlns="http://www.w3.org/2000/svg" xmlns:xlink="http://www.w3.org/1999/xlink" x="0px" y="0px"
	 width="30px" height="30px" viewBox="0 0 30 30" enable-background="new 0 0 30 30" xml:space="preserve">
<path fill="#FFFFFF" d="M20.9,5.5V0H9.1v5.5c-2.9,0.5-5.1,3-5.1,6v9.6c0,3,2.2,5.5,5.1,6V30h11.7v-2.9c2.9-0.5,5.1-3,5.1-6v-9.6
	C25.9,8.5,23.7,6,20.9,5.5z M16,2h3v3h-3V2z M11,2h3v3h-3V2z M13,22H9.1l-1.4-2.4l1.8-3.1l-1.9-1.1l3.6-0.2l1.6,3.2l-1.6-0.9
	l-1.2,2.1l0.2,0.4H13V22z M13.3,14l-1.7-1.1l2-3.5l2.8,0l2.1,3.6l1.8-1l-1.6,3.2L15.1,15l1.7-1l-1.5-2.6h-0.5L13.3,14z M20.9,22H17
	v2l-2-3l2-3v2h2.8l0.2-0.4l-1.2-2l1.7-1l1.7,3L20.9,22z"/>
</svg>
