<?xml version="1.0" encoding="utf-8"?>
<!-- Generator: Adobe Illustrator 22.0.1, SVG Export Plug-In . SVG Version: 6.00 Build 0)  -->
<svg version="1.1" id="Layer_1" xmlns="http://www.w3.org/2000/svg" xmlns:xlink="http://www.w3.org/1999/xlink" x="0px" y="0px"
	 width="14px" height="14px" viewBox="0 0 14 14" enable-background="new 0 0 14 14" xml:space="preserve">
<path d="M9.7,2.6V0H4.3v2.6C2.9,2.8,2,4,2,5.4v4.5c0,1.3,0.8,2.4,2,2.7c0.1,0,0,1.4,0,1.4h6c0,0-0.1-1.4,0-1.4c1.2-0.3,2-1.4,2-2.7
	V5.4C12,4,11.1,2.8,9.7,2.6z M8,1h1v2H8V1z M5,1h1v2H5V1z M6,9v1H5h0L4.2,8.7l1-1.7L6,7.6L5.2,9H6z M5.7,6.2l0.5-0.9h1.5l1,1.6
	L7.8,7.4L7,6L6.5,6.8L5.7,6.2z M9,10H7V9h1.8L8.3,8.3l0.9-0.5l0.5,0.9L9,10z"/>
</svg>
