<?xml version="1.0" encoding="utf-8"?>
<!-- Generator: Adobe Illustrator 22.1.0, SVG Export Plug-In . SVG Version: 6.00 Build 0)  -->
<svg version="1.1" id="Layer_1" xmlns="http://www.w3.org/2000/svg" xmlns:xlink="http://www.w3.org/1999/xlink" x="0px" y="0px"
	 width="22px" height="22px" viewBox="0 0 22 22" enable-background="new 0 0 22 22" xml:space="preserve">
<path fill="#FFFFFF" d="M17.7,17.5c1,0.7,2,1.3,3.2,1.7L19.5,22c-0.6-0.2-1.2-0.4-1.8-0.7c-0.1-0.1-1-0.6-2.6-1.7c-1.3,0.6-2.7,0.8-4.3,0.8
	c-3,0-5.4-0.9-7.1-2.7c-1.7-1.8-2.6-4.3-2.6-7.5c0-3.2,0.9-5.7,2.6-7.5C5.4,0.9,7.7,0,10.7,0c2.9,0,5.2,0.9,6.9,2.7
	c1.7,1.8,2.6,4.3,2.6,7.5c0,1.7-0.2,3.2-0.7,4.5C19.1,15.7,18.5,16.6,17.7,17.5z M14.5,15.3c0.5-0.6,0.9-1.3,1.1-2.2
	c0.3-0.8,0.4-1.8,0.4-2.9c0-2.3-0.5-4-1.5-5.1c-1-1.1-2.3-1.7-3.9-1.7S7.7,4,6.7,5.1c-1,1.1-1.5,2.8-1.5,5.1c0,2.3,0.5,4,1.5,5.2
	c1,1.1,2.3,1.7,3.8,1.7c0.6,0,1.1-0.1,1.6-0.3c-0.8-0.5-1.6-0.9-2.5-1.2l1.1-2.3C12.1,13.7,13.3,14.4,14.5,15.3z"/>
</svg>
