<?xml version="1.0" encoding="utf-8"?>
<!-- Generator: Adobe Illustrator 22.1.0, SVG Export Plug-In . SVG Version: 6.00 Build 0)  -->
<svg version="1.1" id="Layer_1" xmlns="http://www.w3.org/2000/svg" xmlns:xlink="http://www.w3.org/1999/xlink" x="0px" y="0px"
	 width="14px" height="14px" viewBox="0 0 14 14" enable-background="new 0 0 14 14" xml:space="preserve">
<path d="M11.3,11.2c0.6,0.4,1.3,0.8,2,1.1L12.4,14c-0.4-0.1-0.8-0.3-1.1-0.5c-0.1,0-0.6-0.4-1.7-1.1C8.8,12.8,7.8,13,6.9,13
	c-1.9,0-3.4-0.6-4.5-1.7S0.7,8.5,0.7,6.5c0-2,0.5-3.6,1.6-4.8C3.4,0.6,4.9,0,6.8,0c1.9,0,3.3,0.6,4.4,1.7c1.1,1.1,1.6,2.7,1.6,4.8
	c0,1.1-0.2,2-0.5,2.9C12.2,10,11.8,10.6,11.3,11.2z M9.3,9.7C9.6,9.3,9.8,8.9,10,8.3c0.2-0.5,0.2-1.2,0.2-1.9c0-1.4-0.3-2.5-1-3.2
	C8.6,2.5,7.8,2.2,6.8,2.2S4.9,2.5,4.3,3.2C3.6,4,3.3,5,3.3,6.5c0,1.5,0.3,2.6,1,3.3c0.6,0.7,1.5,1.1,2.4,1.1c0.4,0,0.7-0.1,1-0.2
	c-0.5-0.3-1-0.6-1.6-0.8l0.7-1.4C7.7,8.7,8.5,9.2,9.3,9.7z"/>
</svg>
