<?xml version="1.0" encoding="utf-8"?>
<!-- Generator: Adobe Illustrator 22.1.0, SVG Export Plug-In . SVG Version: 6.00 Build 0)  -->
<svg version="1.1" id="Layer_1" xmlns="http://www.w3.org/2000/svg" xmlns:xlink="http://www.w3.org/1999/xlink" x="0px" y="0px"
	 width="30px" height="30px" viewBox="0 0 30 30" enable-background="new 0 0 30 30" xml:space="preserve">
<path fill="#FFFFFF" d="M24.2,23.9c1.3,1,2.8,1.7,4.3,2.3l-2,3.8c-0.8-0.2-1.6-0.6-2.4-1c-0.2-0.1-1.4-0.9-3.6-2.4c-1.8,0.8-3.7,1.2-5.8,1.2
	c-4.1,0-7.4-1.2-9.7-3.6s-3.5-5.8-3.5-10.2C1.5,9.5,2.6,6.1,5,3.7C7.3,1.2,10.5,0,14.5,0c4,0,7.1,1.2,9.5,3.7
	c2.3,2.4,3.5,5.8,3.5,10.2c0,2.3-0.3,4.4-1,6.1C26,21.3,25.3,22.6,24.2,23.9z M19.8,20.8c0.7-0.8,1.2-1.8,1.6-3
	c0.3-1.2,0.5-2.5,0.5-4c0-3.1-0.7-5.4-2.1-7c-1.4-1.5-3.2-2.3-5.4-2.3s-4,0.8-5.4,2.3c-1.4,1.5-2.1,3.9-2.1,6.9c0,3.1,0.7,5.5,2.1,7
	c1.4,1.6,3.1,2.3,5.2,2.3c0.8,0,1.5-0.1,2.2-0.4c-1.1-0.7-2.2-1.3-3.4-1.7l1.5-3.1C16.5,18.7,18.2,19.6,19.8,20.8z"/>
</svg>
