<?xml version="1.0" encoding="utf-8"?>
<!-- Generator: Adobe Illustrator 22.1.0, SVG Export Plug-In . SVG Version: 6.00 Build 0)  -->
<svg version="1.1" id="Layer_1" xmlns="http://www.w3.org/2000/svg" xmlns:xlink="http://www.w3.org/1999/xlink" x="0px" y="0px"
	 width="14px" height="14px" viewBox="0 0 14 14" enable-background="new 0 0 14 14" xml:space="preserve">
<path d="M7.2,2.9l1.2-2.7C8,1.2,7.4,2.3,7.2,2.9z"/>
<path d="M14,0H8.5L8.4,0.3L7.2,2.9c0,0.1-0.1,0.2-0.1,0.3C7,3.9,8.9,4.1,8.9,4.1s0.7,5.3,0.3,6.1c-0.2,0.4-0.2,2,4.5,1.7V12H14V0z"
	/>
<path d="M2.1,13.7l-0.4-0.4C1.7,13.4,1.9,13.6,2.1,13.7z"/>
<path d="M7.5,14l0-0.3l0,0c0.1-0.2,0.2-0.4,0.2-0.9L7.2,6.6C7.1,6.3,6.8,6,6.5,6C6.1,6,5.8,6.3,5.8,6.6l0.2,3.4l-0.3,0.1L5.7,9.6
	c0-0.2-0.3-0.4-0.7-0.4c-0.4,0-0.6,0.2-0.6,0.5l0.1,0.7l-0.3,0.1L4.1,10c0-0.2-0.3-0.4-0.7-0.3c-0.4,0-0.6,0.2-0.6,0.4l0,0.6
	l-0.3,0.1l0,0c0-0.2-0.3-0.3-0.7-0.3c-0.4,0-0.6,0.3-0.6,0.6l0.2,1.7c0,0,0,0.4,0.2,0.7l0.4,0.4l0,0h0L2.4,14H7.5z"/>
</svg>
