<?xml version="1.0" encoding="utf-8"?>
<!-- Generator: Adobe Illustrator 22.1.0, SVG Export Plug-In . SVG Version: 6.00 Build 0)  -->
<svg version="1.1" id="Layer_1" xmlns="http://www.w3.org/2000/svg" xmlns:xlink="http://www.w3.org/1999/xlink" x="0px" y="0px"
	 width="30px" height="30px" viewBox="0 0 30 30" enable-background="new 0 0 30 30" xml:space="preserve">
<path d="M16.7,0.6C16,2.2,15,4.4,14.4,5.7L16.7,0.6z"/>
<path d="M3.2,29.4l-1-0.9C2.5,28.8,2.9,29.2,3.2,29.4z"/>
<path d="M30,0H17l-0.3,0.6c0,0,0,0,0,0l-2.3,5.1c-0.2,0.5-0.3,0.9-0.4,1.1c-0.3,1.5,3.8,2,3.8,2s-0.4,1.6-0.8,2.5
	c-0.4,0.8-0.6,0.8-0.6,1.3c0,0.5,0.3,0.7,0.3,0.7l2.7,2.1c0,0-3.3,0.1-2.5,1c0.8,0.9,1.2,0.8,1.9,2.5c0.8,1.7,0.3,1.2-0.4,3
	c-0.3,0.7-0.5,3.5,6.3,3.7l5.2-0.1V0z"/>
<path d="M14.9,29.4c0.1-0.2,0.3-0.5,0.4-0.9L14.9,29.4L14.9,29.4z"/>
<path d="M15.3,28.5c0.1-0.3,0.1-0.6,0.1-1l-1.3-13.4c0-0.7-0.7-1.2-1.5-1.2c-0.8,0-1.4,0.6-1.3,1.3l0.5,7.3l-0.7,0.1l-0.2-1.1
	c-0.1-0.5-0.7-0.8-1.5-0.8c-0.8,0.1-1.4,0.5-1.3,1l0.2,1.4l-0.7,0.1l-0.1-0.9c-0.1-0.4-0.7-0.8-1.5-0.7c-0.8,0.1-1.4,0.5-1.3,0.9
	l0.1,1.2L4.1,23l0-0.1c-0.1-0.4-0.7-0.7-1.5-0.7c-0.8,0.1-1.3,0.6-1.3,1.3L1.7,27c0,0,0.1,0.8,0.5,1.4l1,0.9l0,0h0L3.8,30h10.8
	l0.3-0.6L15.3,28.5z"/>
</svg>
