<?xml version="1.0" encoding="utf-8"?>
<!-- Generator: Adobe Illustrator 25.4.1, SVG Export Plug-In . SVG Version: 6.00 Build 0)  -->
<svg version="1.1" id="Icons" xmlns="http://www.w3.org/2000/svg" xmlns:xlink="http://www.w3.org/1999/xlink" x="0px" y="0px"
	 width="14px" height="14px" viewBox="0 0 14 14" enable-background="new 0 0 14 14" xml:space="preserve">
<path fill="#231F20" d="M14,4v1h-2l-2,3H9.4L12,4H14z M7,3l3,5H9L7,4H6V3H7z M0,0l4,2L3,3L1,2H0V0z M6.5,11C7.3,11,8,11.7,8,12.5
	S7.3,14,6.5,14S5,13.3,5,12.5S5.7,11,6.5,11z M14,8H8L4,9l-1,1v2h1.1c0.2-1.1,1.2-2,2.4-2s2.2,0.9,2.4,2H14V8z M4,4L3,6v0.3
	C3,6.6,3.1,6.8,3.3,7S3.7,7.3,4,7.3S4.5,7.2,4.7,7C4.9,6.8,5,6.6,5,6.3V6L4,4z"/>
</svg>
