<?xml version="1.0" encoding="utf-8"?>
<!-- Generator: Adobe Illustrator 20.0.0, SVG Export Plug-In . SVG Version: 6.00 Build 0)  -->
<svg version="1.1" id="Icons" xmlns="http://www.w3.org/2000/svg" xmlns:xlink="http://www.w3.org/1999/xlink" x="0px" y="0px"
	 width="14px" height="14px" viewBox="0 0 14 14" enable-background="new 0 0 14 14" xml:space="preserve">
<g>
	<polygon fill="#FFFFFF" points="3,12 4,12 4,11 5,11 5,10 8,10 8,11 9,11 9,12 14,12 14,8 8,8 4,9 3,10 	"/>
	<polygon fill="#FFFFFF" points="14,4 14,5 12,5 10,8 10,7 12,4 	"/>
	<polygon fill="#FFFFFF" points="7,3 10,8 9,8 7,4 6,4 6,3 	"/>
	<polygon fill="#FFFFFF" points="0,0 4,2 3,3 1,2 0,2 	"/>
	<path fill="#FFFFFF" d="M8,14H5v-3h3V14z M7,12H6v1h1V12z"/>
	<polygon fill="#FFFFFF" points="4,4 5,6 5,7 3,7 3,6 	"/>
</g>
</svg>
