<?xml version="1.0" encoding="utf-8"?>
<!-- Generator: Adobe Illustrator 20.0.0, SVG Export Plug-In . SVG Version: 6.00 Build 0)  -->
<svg version="1.1" id="Icons" xmlns="http://www.w3.org/2000/svg" xmlns:xlink="http://www.w3.org/1999/xlink" x="0px" y="0px"
	 width="22px" height="22px" viewBox="0 0 22 22" enable-background="new 0 0 22 22" xml:space="preserve">
<g>
	<path fill="#FFFFFF" d="M0,1c1.2,0,5.4,1.9,7,4.7L5.4,7c0,0-2-2.4-5.4-3V2V1z"/>
	<path fill="#FFFFFF" d="M5,11.7C5,12.4,5.7,13,6.5,13S8,12.4,8,11.7S6.5,8,6.5,8S5,11,5,11.7z"/>
	<polygon fill="#FFFFFF" points="4,19 4,15 5,14 12,13 22,13 22,19 14,19 14,17 13,17 13,16 12,16 12,15 8,15 8,16 7,16 7,17 6,17 6,19 	"/>
	<polygon fill="#FFFFFF" points="16,13 19,9 22,9 22,7.5 18,7.5 15,12 14,12 11,6 9,6 9,7 10,7 13,13 	"/>
	<path fill="#FFFFFF" d="M13,19c0,1.7-1.3,3-3,3s-3-1.3-3-3s1.3-3,3-3S13,17.3,13,19z M11,18H9v2h2V18z"/>
</g>
</svg>
