<?xml version="1.0" encoding="utf-8"?>
<!-- Generator: Adobe Illustrator 20.0.0, SVG Export Plug-In . SVG Version: 6.00 Build 0)  -->
<svg version="1.1" id="Icons" xmlns="http://www.w3.org/2000/svg" xmlns:xlink="http://www.w3.org/1999/xlink" x="0px" y="0px"
	 width="30px" height="30px" viewBox="0 0 30 30" enable-background="new 0 0 30 30" xml:space="preserve">
<g>
	<path fill="#231F20" d="M7,14.2c0,1,0.9,1.8,2,1.8s2-0.8,2-1.8S9,9,9,9S7,13.2,7,14.2z"/>
	<path fill="#231F20" d="M0,1c1.7,0,7.1,2.3,9.3,6.1L7,8.9c0,0-2.4-3.1-7-3.9V1L0,1z"/>
	<polygon fill="#231F20" points="30,11 30,9 26,9 21,16 15,7 13,7 13,8.5 15,8.5 20,17 15,17 7,18 6,19 6,25 9,25 9,23 10,23 10,22 11,22 11,21 
		12,21 12,20 16,20 16,21 17,21 17,22 18,22 18,23 19,23 19,25 30,25 30,17 22,17 26,11 	"/>
	<path fill="#231F20" d="M17,23v-1h-1v-1h-4v1h-1v1h-1v4h1v1h1v1h4v-1h1v-1h1v-4H17z M15,26h-2v-2h2V26z"/>
</g>
</svg>
