<?xml version="1.0" encoding="utf-8"?>
<!-- Generator: Adobe Illustrator 22.1.0, SVG Export Plug-In . SVG Version: 6.00 Build 0)  -->
<svg version="1.1" id="Layer_1" xmlns="http://www.w3.org/2000/svg" xmlns:xlink="http://www.w3.org/1999/xlink" x="0px" y="0px"
	 width="14px" height="14px" viewBox="0 0 14 14" enable-background="new 0 0 14 14" xml:space="preserve">
<path fill="#FFFFFF" d="M12,5h2v5.9H0V5h2V4c0-0.5,0.5-1,1-1h8c0.5,0,1,0.5,1,1V5z M11,5V4H3v1H11z M8,8V6H6v2H8z M2.8,10.3c1.2,0,2.1-1,2.1-2.1
	C4.9,7,3.9,6,2.8,6C1.6,6,0.7,7,0.7,8.1C0.7,9.3,1.6,10.3,2.8,10.3z M11.2,10.3c1.2,0,2.1-1,2.1-2.1c0-1.2-1-2.1-2.1-2.1
	c-1.2,0-2.1,1-2.1,2.1C9.1,9.3,10.1,10.3,11.2,10.3z"/>
</svg>
