<?xml version="1.0" encoding="utf-8"?>
<!-- Generator: Adobe Illustrator 22.1.0, SVG Export Plug-In . SVG Version: 6.00 Build 0)  -->
<svg version="1.1" id="Layer_1" xmlns="http://www.w3.org/2000/svg" xmlns:xlink="http://www.w3.org/1999/xlink" x="0px" y="0px"
	 width="30px" height="30px" viewBox="0 0 30 30" enable-background="new 0 0 30 30" xml:space="preserve">
<path fill="#FFFFFF" d="M25,11h5v12H0V11h5V9c0-1,1-2,2-2h16c1,0,2,1,2,2V11z M23,11V9H7v2H23z M18,17v-4h-6v4H18z M6,22c2.5,0,4.6-2,4.6-4.5
	c0-2.5-2-4.6-4.6-4.6c-2.5,0-4.6,2-4.6,4.6C1.4,20,3.4,22,6,22z M24.1,22c2.5,0,4.6-2,4.6-4.5c0-2.5-2-4.6-4.6-4.6
	c-2.5,0-4.6,2-4.6,4.6C19.6,20,21.6,22,24.1,22z"/>
</svg>
