<?xml version="1.0" encoding="utf-8"?>
<!-- Generator: Adobe Illustrator 18.1.1, SVG Export Plug-In . SVG Version: 6.00 Build 0)  -->
<svg version="1.1" id="Icons" xmlns="http://www.w3.org/2000/svg" xmlns:xlink="http://www.w3.org/1999/xlink" x="0px" y="0px"
	 viewBox="0 0 24 24" enable-background="new 0 0 24 24" xml:space="preserve">
<g opacity="0.5">
	<path d="M2,3c1.2,0,5.4,1.9,7,4.7L7.4,9c0,0-2-2.4-5.4-3V4L2,3z"/>
	<path d="M7,13.7C7,14.4,7.7,15,8.5,15c0.8,0,1.5-0.6,1.5-1.3C10,13,8.5,10,8.5,10S7,13,7,13.7z"/>
	<polygon points="6,21 6,17 7,16 14,15 24,15 24,21 16,21 16,19 15,19 15,18 14,18 14,17 10,17 10,18 9,18 9,19 8,19 8,21 	"/>
	<polygon points="18,15 21,11 24,11 24,9.5 20,9.5 17,14 16,14 13,8 11,8 11,9 12,9 15,15 	"/>
	<path d="M15,21c0,1.7-1.3,3-3,3s-3-1.3-3-3s1.3-3,3-3S15,19.3,15,21z M13,20h-2v2h2V20z"/>
</g>
<g opacity="0.75">
	<path d="M1,2c1.2,0,5.4,1.9,7,4.7L6.4,8c0,0-2-2.4-5.4-3V3L1,2z"/>
	<path d="M6,12.7C6,13.4,6.7,14,7.5,14C8.3,14,9,13.4,9,12.7C9,12,7.5,9,7.5,9S6,12,6,12.7z"/>
	<polygon points="5,20 5,16 6,15 13,14 23,14 23,20 15,20 15,18 14,18 14,17 13,17 13,16 9,16 9,17 8,17 8,18 7,18 7,20 	"/>
	<polygon points="17,14 20,10 23,10 23,8.5 19,8.5 16,13 15,13 12,7 10,7 10,8 11,8 14,14 	"/>
	<path d="M14,20c0,1.7-1.3,3-3,3s-3-1.3-3-3s1.3-3,3-3S14,18.3,14,20z M12,19h-2v2h2V19z"/>
</g>
<g>
	<path fill="#FFFFFF" d="M0,1c1.2,0,5.4,1.9,7,4.7L5.4,7c0,0-2-2.4-5.4-3V2L0,1z"/>
	<path fill="#FFFFFF" d="M5,11.7C5,12.4,5.7,13,6.5,13C7.3,13,8,12.4,8,11.7C8,11,6.5,8,6.5,8S5,11,5,11.7z"/>
	<polygon fill="#FFFFFF" points="4,19 4,15 5,14 12,13 22,13 22,19 14,19 14,17 13,17 13,16 12,16 12,15 8,15 8,16 7,16 7,17 6,17 
		6,19 	"/>
	<polygon fill="#FFFFFF" points="16,13 19,9 22,9 22,7.5 18,7.5 15,12 14,12 11,6 9,6 9,7 10,7 13,13 	"/>
	<path fill="#FFFFFF" d="M13,19c0,1.7-1.3,3-3,3s-3-1.3-3-3s1.3-3,3-3S13,17.3,13,19z M11,18H9v2h2V18z"/>
</g>
</svg>
