<?xml version="1.0" encoding="utf-8"?>
<!-- Generator: Adobe Illustrator 22.1.0, SVG Export Plug-In . SVG Version: 6.00 Build 0)  -->
<svg version="1.1" id="Layer_1" xmlns="http://www.w3.org/2000/svg" xmlns:xlink="http://www.w3.org/1999/xlink" x="0px" y="0px"
	 width="22px" height="22px" viewBox="0 0 22 22" enable-background="new 0 0 22 22" xml:space="preserve">
<path fill="#FFFFFF" d="M18,8h4v9H0V8h4V6.1C4,5.4,4.3,5,5,5h12c0.7,0,1,0.4,1,1.1V8z M17,8V6H5v2H17z M13,13v-3H9v3H13z M4.4,16.1
	c1.8,0,3.3-1.5,3.3-3.3c0-1.8-1.5-3.3-3.3-3.3C2.5,9.5,1,10.9,1,12.8C1,14.6,2.5,16.1,4.4,16.1z M17.7,16.1c1.8,0,3.3-1.5,3.3-3.3
	c0-1.8-1.5-3.3-3.3-3.3c-1.8,0-3.3,1.5-3.3,3.3C14.3,14.6,15.8,16.1,17.7,16.1z"/>
</svg>
