<?xml version="1.0" encoding="utf-8"?>
<!-- Generator: Adobe Illustrator 21.1.0, SVG Export Plug-In . SVG Version: 6.00 Build 0)  -->
<svg version="1.1" id="Layer_1" xmlns="http://www.w3.org/2000/svg" xmlns:xlink="http://www.w3.org/1999/xlink" x="0px" y="0px"
	 width="14px" height="14px" viewBox="0 0 14 14" enable-background="new 0 0 14 14" xml:space="preserve">
<path fill="#FFFFFF" d="M9.9,8.8C10.6,8.4,11,7.8,11,7V2c0-1.1-0.9-2-2-2H8l0,1H6l0-1H5C3.9,0,3,0.9,3,2v5c0,0.8,0.4,1.4,1.1,1.8L1.4,14h1.1l0.5-1
	h7.9l0.5,1h1.1L9.9,8.8z M10,7H9V6h1V7z M9.4,10H4.6l0.5-1h3.9L9.4,10z M7.5,2H9c0.5,0,1,0.5,1,1v1c0,0.5-0.5,1-1,1H7.5V2z M4,3
	c0-0.5,0.5-1,1-1h1.5v3H5C4.5,5,4,4.5,4,4V3z M4,7V6h1v1H4z M3.6,12l0.5-1h5.9l0.5,1H3.6z"/>
</svg>
