<?xml version="1.0" encoding="utf-8"?>
<!-- Generator: Adobe Illustrator 22.0.1, SVG Export Plug-In . SVG Version: 6.00 Build 0)  -->
<svg version="1.1" id="Layer_1" xmlns="http://www.w3.org/2000/svg" xmlns:xlink="http://www.w3.org/1999/xlink" x="0px" y="0px"
	 width="22px" height="22px" viewBox="0 0 22 22" style="enable-background:new 0 0 22 22;" xml:space="preserve">
<path d="M15.4,14c0.7-0.1,1.6-1,1.6-1.8V2c0-1-1-2-1.7-2H12v1h-2V0H6.7C6,0,5,1,5,2v10.1C5,13,5.9,13.9,6.6,14l-4,8h1.1l1-2l0,0
	h12.6l0,0l1,2h1.1L15.4,14z M11.5,2H14c0.5,0,1,0.5,1,1v2c0,0.5-0.5,1-1,1h-2.5V2z M15,10v2h-2v-2H15z M7,3c0-0.5,0.5-1,1-1h2.5v4H8
	C7.5,6,7,5.5,7,5V3z M7,10h2v2H7V10z M7.7,14h6.6l1,2H6.7L7.7,14z M5.2,19l1-2h9.6l1,2H5.2z"/>
</svg>
