<?xml version="1.0" encoding="utf-8"?>
<!-- Generator: Adobe Illustrator 22.0.1, SVG Export Plug-In . SVG Version: 6.00 Build 0)  -->
<svg version="1.1" id="Layer_1" xmlns="http://www.w3.org/2000/svg" xmlns:xlink="http://www.w3.org/1999/xlink" x="0px" y="0px"
	 width="30px" height="30px" viewBox="0 0 30 30" style="enable-background:new 0 0 30 30;" xml:space="preserve">
<path d="M21.3,19.6c0.9-0.8,1.7-1.8,1.7-3V2.7C23,2,21.8,0,20.8,0H17v1.4h-4V0H9.2C8.2,0,7,2,7,2.7v13.8c0,1.2,0.9,2.2,1.7,3L3.5,30
	h2.3l1-2h16.3l1,2h2.3L21.3,19.6z M17.5,16.5v-3h3v3H17.5z M20.2,22H9.8l1-2h8.3L20.2,22z M15.7,3h3.8c0.5,0,1,0.5,1,1v3
	c0,0.5-0.5,1-1,1h-3.8V3z M9.5,4c0-0.5,0.5-1,1-1h3.8v5h-3.8c-0.5,0-1-0.5-1-1V4z M9.5,13.5h3v3h-3V13.5z M7.8,26l1-2h12.3l1,2H7.8z
	"/>
</svg>
