<?xml version="1.0" encoding="utf-8"?>
<!-- Generator: Adobe Illustrator 22.0.1, SVG Export Plug-In . SVG Version: 6.00 Build 0)  -->
<svg version="1.1" id="Layer_1_1_" xmlns="http://www.w3.org/2000/svg" xmlns:xlink="http://www.w3.org/1999/xlink" x="0px" y="0px"
	 width="22px" height="22px" viewBox="0 0 22 22" enable-background="new 0 0 22 22" xml:space="preserve">
<path fill="#FFFFFF" d="M16.911,14.362C15.202,14.228,13.178,14.15,11,14.15c-2.178,0-4.203,0.079-5.912,0.213C2.032,14.602,0,15.021,0,15.5
	c0,0.746,4.926,1.35,11,1.35c6.074,0,11-0.604,11-1.35C22,15.021,19.967,14.602,16.911,14.362z"/>
<path fill="#FFFFFF" d="M16.356,8.179c-0.483-0.297-2.209-1.014-2.895-2.041c-0.646-0.969-1.813-1.009-2.27-0.983h-0.384
	c-0.457-0.026-1.624,0.013-2.27,0.983C7.852,7.165,6.126,7.882,5.645,8.179C5.162,8.476,5.088,8.512,5.088,8.956v1.402v2.129
	c1.466-0.113,3.121-0.184,4.866-0.205c0.352-0.013,0.704-0.021,1.046-0.021c0.344,0,0.694,0.008,1.046,0.021
	c1.747,0.021,3.402,0.092,4.866,0.205v-2.129V8.956C16.911,8.512,16.837,8.476,16.356,8.179z"/>
</svg>
