<?xml version="1.0" encoding="utf-8"?>
<!-- Generator: Adobe Illustrator 20.0.0, SVG Export Plug-In . SVG Version: 6.00 Build 0)  -->
<svg version="1.1" id="Icons" xmlns="http://www.w3.org/2000/svg" xmlns:xlink="http://www.w3.org/1999/xlink" x="0px" y="0px"
	 width="30px" height="30px" viewBox="0 0 30 30" enable-background="new 0 0 30 30" xml:space="preserve">
<g>
	<polygon fill="#231F20" points="27,18 18.8,12 19,12 19,6 22,6 22,7 26,7 26,1 22,1 22,0 19,0 19,0 18,0 18,11.5 16,10 14,10 3,18 2,18 2,19 4,19 
		4,30 11,30 11,22 12,21 17,21 18,22 18,30 26,30 26,19 28,19 28,18 	"/>
</g>
</svg>
