<?xml version="1.0" encoding="utf-8"?>
<!-- Generator: Adobe Illustrator 18.1.1, SVG Export Plug-In . SVG Version: 6.00 Build 0)  -->
<svg version="1.1" id="Icons" xmlns="http://www.w3.org/2000/svg" xmlns:xlink="http://www.w3.org/1999/xlink" x="0px" y="0px"
	 viewBox="0 0 16 16" enable-background="new 0 0 16 16" xml:space="preserve">
<g opacity="0.5">
	<polygon points="14,10 11,8.2 11,5 12,5 12,6 14,6 14,3 12,3 12,2 11,2 10,2 10,5 10,7.6 9,7 4,10 3,10 3,11 4,11 4,16 8,16 8,12 
		10,12 10,16 14,16 14,11 15,11 15,10 	"/>
</g>
<g opacity="0.75">
	<polygon points="13,9 10,7.2 10,4 11,4 11,5 13,5 13,2 11,2 11,1 10,1 9,1 9,4 9,6.6 8,6 3,9 2,9 2,10 3,10 3,15 7,15 7,11 9,11 
		9,15 13,15 13,10 14,10 14,9 	"/>
</g>
<g>
	<polygon fill="#FFFFFF" points="12,8 9,6.2 9,3 10,3 10,4 12,4 12,1 10,1 10,0 9,0 8,0 8,3 8,5.6 7,5 2,8 1,8 1,9 2,9 2,14 6,14 
		6,10 8,10 8,14 12,14 12,9 13,9 13,8 	"/>
</g>
</svg>
