<?xml version="1.0" encoding="utf-8"?>
<!-- Generator: Adobe Illustrator 22.0.1, SVG Export Plug-In . SVG Version: 6.00 Build 0)  -->
<svg version="1.1" id="Layer_1_1_" xmlns="http://www.w3.org/2000/svg" xmlns:xlink="http://www.w3.org/1999/xlink" x="0px" y="0px"
	 width="30px" height="30px" viewBox="0 0 30 30" enable-background="new 0 0 30 30" xml:space="preserve">
<path d="M22.304,11.289c-0.659-0.405-3.013-1.383-3.948-2.784c-0.881-1.322-2.472-1.376-3.095-1.34h-0.523
	c-0.623-0.036-2.214,0.018-3.095,1.34c-0.935,1.401-3.289,2.379-3.944,2.784C7.039,11.694,7,11.744,7,12.35v2.372v2.443
	c1.999-0.154,4.195-0.251,6.573-0.279c0.48-0.018,0.96-0.029,1.426-0.029c0.469,0,0.946,0.011,1.426,0.029
	c2.382,0.029,4.579,0.125,6.575,0.279v-2.443V12.35C23,11.744,22.96,11.694,22.304,11.289z"/>
<path d="M24.875,19.616c-2.64-0.284-6.089-0.458-9.875-0.458c-3.847,0-7.345,0.179-10,0.472C1.938,19.967,0,20.455,0,21
	c0,1.017,6.717,1.841,15,1.841c8.283,0,15-0.824,15-1.841C30,20.448,28.01,19.954,24.875,19.616z"/>
</svg>
