<?xml version="1.0" encoding="utf-8"?>
<!-- Generator: Adobe Illustrator 22.0.1, SVG Export Plug-In . SVG Version: 6.00 Build 0)  -->
<svg version="1.1" id="Layer_1_1_" xmlns="http://www.w3.org/2000/svg" xmlns:xlink="http://www.w3.org/1999/xlink" x="0px" y="0px"
	 width="14px" height="14px" viewBox="0 0 14 14" enable-background="new 0 0 14 14" xml:space="preserve">
<path d="M10.409,5.068c-0.308-0.189-1.406-0.645-1.842-1.299C8.155,3.152,7.413,3.127,7.122,3.144H6.878
	C6.587,3.127,5.844,3.152,5.433,3.769c-0.436,0.654-1.535,1.11-1.841,1.299C3.285,5.257,3,5.281,3,5.563v0.744V7.81
	c0.933-0.072,2.224-0.117,3.334-0.13C6.558,7.671,6.782,7.666,7,7.666c0.219,0,0.441,0.005,0.665,0.013
	C8.777,7.693,10.069,7.738,11,7.81V6.307V5.563C11,5.281,10.714,5.257,10.409,5.068z"/>
<rect y="9" width="14" height="1"/>
</svg>
