<?xml version="1.0" encoding="utf-8"?>
<!-- Generator: Adobe Illustrator 20.0.0, SVG Export Plug-In . SVG Version: 6.00 Build 0)  -->
<svg version="1.1" id="Icons" xmlns="http://www.w3.org/2000/svg" xmlns:xlink="http://www.w3.org/1999/xlink" x="0px" y="0px"
	 width="14px" height="14px" viewBox="0 0 14 14" enable-background="new 0 0 14 14" xml:space="preserve">
<g>
	<path fill="#FFFFFF" d="M0,6l1,0.2l0.3,0.2L0.5,7.8C0.4,8,0.4,8.1,0.4,8.3c0,0.1,0,0.3,0.1,0.4c0,0,0.7,1.3,1.3,2.3c0-0.1,0.1-0.9,0.2-1l1.6-2.3
		l0.3,0.2L5,9L3.3,6H0z"/>
	<path fill="#FFFFFF" d="M3.5,10c-0.1,0.3-0.7,1.2-0.7,1.2c-0.1,0.2-0.1,0.3-0.1,0.5s0,0.3,0.1,0.5C3,12.5,3.3,13,3.7,13c0,0,1.8,0,2.3,0
		c0-0.5,0-2.5,0-3C5.5,10,3.8,10,3.5,10L3.5,10z"/>
	<path fill="#FFFFFF" d="M12,1.1l-1,0.6l-0.3,0.2L9.9,0.4C9.8,0.3,9.7,0.2,9.6,0.1C9.4,0,9.3,0,9.2,0c0,0-1,0-2.2,0c0.1,0.1-0.1,0.9,0,1h1l0.4,2.2
		L8.1,3.4L7,4h3.4L12,1.1z"/>
	<path fill="#FFFFFF" d="M7,1.7C6.9,1.4,6,1,6,1C5.9,0.8,6.2,0.2,6,0.1C5.9,0,5.6,0,5.5,0C5.1,0,4.8,0.2,4.6,0.5c0,0-1.4,2.4-1.7,2.9
		c0.4,0.2,1.9,1.1,2.3,1.3C5.5,4.3,6.8,2,7,1.7z"/>
	<path fill="#FFFFFF" d="M9,14L9,14v-1h1.9c0.2,0,0.3,0.1,0.4,0c0.1-0.1,0.6,0.1,0.6,0c0,0,0.4-2,1-3c-0.1,0-0.3,0-0.5,0H9V9.4V8.2L7,11L9,14z"/>
	<path fill="#FFFFFF" d="M11.6,9C11.9,9,13,9,13,9c0.2,0,0.4,0,0.5-0.1s0.3-0.2,0.4-0.4c0.2-0.3,0.2-0.7,0-1c0,0-1.4-2.4-1.7-2.9
		C11.8,4.9,10.3,5.7,9.9,6C10.1,6.4,11.5,8.7,11.6,9z"/>
</g>
</svg>
