<?xml version="1.0" encoding="utf-8"?>
<!-- Generator: Adobe Illustrator 20.0.0, SVG Export Plug-In . SVG Version: 6.00 Build 0)  -->
<svg version="1.1" id="Icons" xmlns="http://www.w3.org/2000/svg" xmlns:xlink="http://www.w3.org/1999/xlink" x="0px" y="0px"
	 width="30px" height="30px" viewBox="0 0 30 30" enable-background="new 0 0 30 30" xml:space="preserve">
<g>
	<path fill="#231F20" d="M0,12l2.3,1.6L2.9,14l-1.8,3.1C1,17.3,1,17.7,1,18s0,0.6,0.1,0.9c0,0,1.6,2.9,2.9,5.2c0.1-0.3-0.2-0.8,0-1.1l3.9-6.1
		l0.6,0.4l2.3,1.3L7.2,12H0z"/>
	<path fill="#231F20" d="M6.9,22c-0.3,0.5-1.8,2.2-1.8,2.6s0.1,0.7,0.3,1.1C5.8,26.3,6.5,27,7.3,27c0,0,6.6,0,7.7,0c0-1,0-4.9,0-6
		c-1.1,0-7.4,0-8.1,0C6.9,21,6.9,22,6.9,22z"/>
	<path fill="#231F20" d="M26,3.1l-2.4,1.3L23,4.7l-1.8-3.1c-0.2-0.3-0.4-0.4-0.7-0.5c-0.3-0.2-0.6,0-0.9,0c0,0-3,0-5.6,0c0.2,0.2,0.8,0.7,1,1l3,5.5
		L17.4,8l-2.3,1h7.2L26,3.1L26,3.1z"/>
	<path fill="#231F20" d="M15,5.1c-0.3-0.5-2-2.9-2-2.9c-0.2-0.3,0-1,0-1s-1.3,0-1.4,0c-0.8,0-1.5,0.4-1.9,1c0,0-3.1,5.2-3.7,6.2
		c0.9,0.5,4.2,2.2,5.1,2.7C11.6,10.1,14.7,5.6,15,5.1z"/>
	<path fill="#231F20" d="M21,30v-2.7L20.8,27h3.6c0.3,0,0.6-0.5,0.9-0.6c0.3-0.2,0.5-0.4,0.7-0.6c0,0,1.6-2.5,2.9-4.7c-0.3,0.1-0.6,0-1,0h-7.1
		l0.2-0.8V17l-4,7L21,30z"/>
	<path fill="#231F20" d="M24.9,20c0.6,0,2.9,0,2.9,0c0.4,0,0.8-0.4,1.1-0.6c0.3-0.2,0.6-0.4,0.8-0.8c0.4-0.7,0.4-1.5,0-2.1c0,0-3.1-5.5-3.7-6.4
		c-0.9,0.5-4.1,2.6-5,3.1C21.5,14.1,24.6,19.4,24.9,20z"/>
</g>
</svg>
