<?xml version="1.0" encoding="utf-8"?>
<!-- Generator: Adobe Illustrator 18.1.1, SVG Export Plug-In . SVG Version: 6.00 Build 0)  -->
<svg version="1.1" id="Icons" xmlns="http://www.w3.org/2000/svg" xmlns:xlink="http://www.w3.org/1999/xlink" x="0px" y="0px"
	 viewBox="0 0 16 16" enable-background="new 0 0 16 16" xml:space="preserve">
<g opacity="0.1">
	<path d="M2,8l1,0.2l0.3,0.2L2.5,9.8c-0.1,0.1-0.1,0.3-0.1,0.4c0,0.1,0,0.3,0.1,0.4c0,0,0.7,1.3,1.3,2.3c0-0.1,0.1-0.9,0.2-1
		l1.6-2.3l0.3,0.2L7,11L5.3,8H2z"/>
	<path d="M5.5,12c-0.1,0.3-0.7,1.2-0.7,1.2c-0.1,0.2-0.1,0.3-0.1,0.5s0,0.3,0.1,0.5C5,14.5,5.3,15,5.7,15c0,0,1.8,0,2.3,0
		c0-0.5,0-2.5,0-3C7.5,12,5.8,12,5.5,12L5.5,12z"/>
	<path d="M14,3.1l-1,0.6l-0.3,0.2l-0.8-1.5c-0.1-0.1-0.2-0.2-0.3-0.3C11.4,2,11.3,2,11.2,2c0,0-1,0-2.2,0c0.1,0.1-0.1,0.9,0,1h1
		l0.4,2.2l-0.3,0.2L9,6h3.4L14,3.1z"/>
	<path d="M9,3.7C8.9,3.4,8,3,8,3C7.9,2.8,8.2,2.2,8,2.1C7.9,2,7.6,2,7.5,2C7.1,2,6.8,2.2,6.6,2.5c0,0-1.4,2.4-1.7,2.9
		c0.4,0.2,1.9,1.1,2.3,1.3C7.5,6.3,8.8,4,9,3.7z"/>
	<path d="M11,16L11,16v-1h1.9c0.2,0,0.3,0.1,0.4,0c0.1-0.1,0.6,0.1,0.6,0c0,0,0.4-2,1-3c-0.1,0-0.3,0-0.5,0H11v-0.6v-1.3L9,13L11,16
		z"/>
	<path d="M13.6,11c0.3,0,1.4,0,1.4,0c0.2,0,0.4,0,0.5-0.1c0.1-0.1,0.3-0.2,0.4-0.4c0.2-0.3,0.2-0.7,0-1c0,0-1.4-2.4-1.7-2.9
		c-0.4,0.2-1.9,1.1-2.3,1.3C12.1,8.4,13.5,10.7,13.6,11z"/>
</g>
<g opacity="0.2">
	<path d="M1,7l1,0.2l0.3,0.2L1.5,8.8C1.4,9,1.4,9.1,1.4,9.3c0,0.1,0,0.3,0.1,0.4c0,0,0.7,1.3,1.3,2.3c0-0.1,0.1-0.9,0.2-1l1.6-2.3
		l0.3,0.2L6,10L4.3,7H1z"/>
	<path d="M4.5,11c-0.1,0.3-0.7,1.2-0.7,1.2c-0.1,0.2-0.1,0.3-0.1,0.5s0,0.3,0.1,0.5C4,13.5,4.3,14,4.7,14c0,0,1.8,0,2.3,0
		c0-0.5,0-2.5,0-3C6.5,11,4.8,11,4.5,11L4.5,11z"/>
	<path d="M13,2.1l-1,0.6l-0.3,0.2l-0.8-1.5c-0.1-0.1-0.2-0.2-0.3-0.3C10.4,1,10.3,1,10.2,1c0,0-1,0-2.2,0c0.1,0.1-0.1,0.9,0,1h1
		l0.4,2.2L9.1,4.4L8,5h3.4L13,2.1z"/>
	<path d="M8,2.7C7.9,2.4,7,2,7,2C6.9,1.8,7.2,1.2,7,1.1C6.9,1,6.6,1,6.5,1C6.1,1,5.8,1.2,5.6,1.5c0,0-1.4,2.4-1.7,2.9
		c0.4,0.2,1.9,1.1,2.3,1.3C6.5,5.3,7.8,3,8,2.7z"/>
	<path d="M10,15L10,15v-1h1.9c0.2,0,0.3,0.1,0.4,0c0.1-0.1,0.6,0.1,0.6,0c0,0,0.4-2,1-3c-0.1,0-0.3,0-0.5,0H10v-0.6V9.2L8,12L10,15z
		"/>
	<path d="M12.6,10c0.3,0,1.4,0,1.4,0c0.2,0,0.4,0,0.5-0.1c0.1-0.1,0.3-0.2,0.4-0.4c0.2-0.3,0.2-0.7,0-1c0,0-1.4-2.4-1.7-2.9
		c-0.4,0.2-1.9,1.1-2.3,1.3C11.1,7.4,12.5,9.7,12.6,10z"/>
</g>
<g>
	<path d="M0,6l1,0.2l0.3,0.2L0.5,7.8C0.4,8,0.4,8.1,0.4,8.3c0,0.1,0,0.3,0.1,0.4c0,0,0.7,1.3,1.3,2.3c0-0.1,0.1-0.9,0.2-1l1.6-2.3
		l0.3,0.2L5,9L3.3,6H0z"/>
	<path d="M3.5,10c-0.1,0.3-0.7,1.2-0.7,1.2c-0.1,0.2-0.1,0.3-0.1,0.5s0,0.3,0.1,0.5C3,12.5,3.3,13,3.7,13c0,0,1.8,0,2.3,0
		c0-0.5,0-2.5,0-3C5.5,10,3.8,10,3.5,10L3.5,10z"/>
	<path d="M12,1.1l-1,0.6l-0.3,0.2L9.9,0.4C9.8,0.3,9.7,0.2,9.6,0.1C9.4,0,9.3,0,9.2,0c0,0-1,0-2.2,0c0.1,0.1-0.1,0.9,0,1h1l0.4,2.2
		L8.1,3.4L7,4h3.4L12,1.1z"/>
	<path d="M7,1.7C6.9,1.4,6,1,6,1C5.9,0.8,6.2,0.2,6,0.1C5.9,0,5.6,0,5.5,0C5.1,0,4.8,0.2,4.6,0.5c0,0-1.4,2.4-1.7,2.9
		c0.4,0.2,1.9,1.1,2.3,1.3C5.5,4.3,6.8,2,7,1.7z"/>
	<path d="M9,14L9,14v-1h1.9c0.2,0,0.3,0.1,0.4,0c0.1-0.1,0.6,0.1,0.6,0c0,0,0.4-2,1-3c-0.1,0-0.3,0-0.5,0H9V9.4V8.2L7,11L9,14z"/>
	<path d="M11.6,9C11.9,9,13,9,13,9c0.2,0,0.4,0,0.5-0.1c0.1-0.1,0.3-0.2,0.4-0.4c0.2-0.3,0.2-0.7,0-1c0,0-1.4-2.4-1.7-2.9
		C11.8,4.9,10.3,5.7,9.9,6C10.1,6.4,11.5,8.7,11.6,9z"/>
</g>
</svg>
