<?xml version="1.0" encoding="utf-8"?>
<!-- Generator: Adobe Illustrator 20.0.0, SVG Export Plug-In . SVG Version: 6.00 Build 0)  -->
<svg version="1.1" id="Icons" xmlns="http://www.w3.org/2000/svg" xmlns:xlink="http://www.w3.org/1999/xlink" x="0px" y="0px"
	 width="22px" height="22px" viewBox="0 0 22 22" enable-background="new 0 0 22 22" xml:space="preserve">
<g>
	<path fill="#FFFFFF" d="M15,22v-1.4V20h2.8c0.2,0,0.5,0,0.7-0.1s0.4-0.3,0.5-0.5c0,0,1.2-1.8,2.1-3.4c-0.2,0.1-6.1,0-6.1,0v-0.7v-2l-3.1,4.6L15,22
		z"/>
	<path fill="#FFFFFF" d="M0,9.8l1.4,0.4l0.5,0.2L1.1,13C1,13.2,1,13.5,1,13.7c0.1,0.2,0.2,0.4,0.3,0.6c0,0,1.4,2.4,2.7,3.7v-2l1-2l0.7-2.5l0.6,0.2
		l1.9,0.6L4.8,8L0,9.8z"/>
	<path fill="#FFFFFF" d="M18.2,15c0.5,0,2.1,0,2.1,0c0.3,0,0.3,0.1,0.6,0c0.2-0.1,0.6-0.6,0.8-0.8c0.3-0.5,0.5-1.1,0.2-1.6c0,0-2.4-3.9-2.8-4.6
		c-0.6,0.4-2.4,1.8-3,2.2C16.5,10.8,17.9,14.6,18.2,15z"/>
	<path fill="#FFFFFF" d="M19.3,2l-1.2,0.8L17.6,3l-1.5-2.4c-0.1-0.2-0.3-0.4-0.5-0.5C15.5,0.1,15.3,0,15,0c0,0-2.1-0.1-4,0c0.2,0.2,3.2,5.1,3.2,5.1
		l-0.6,0.4l-1.7,1l5.5,0.2L19.3,2z"/>
	<path fill="#FFFFFF" d="M11,3.5c-0.2-0.4-1.1-1.8-1.1-1.8C9.7,1.5,9.8,1.4,9.6,1.2C9.3,1.1,8.7,1,8.4,1C7.9,1,7.3,1.2,7,1.7c0,0-2,4.1-2.4,4.8
		c0.7,0.3,2.8,1,3.4,1.4C8.4,7.2,10.8,3.9,11,3.5z"/>
	<path fill="#FFFFFF" d="M5,16c0.1,1.3,0,1.7,0,2s-0.1,0.7,0,1c0.3,0.5,0.4,1,1,1c0,0,4.2,0,5,0c0-0.8,0-3.3,0-4C10.2,16,6,16.1,5,16z"/>
</g>
</svg>
