<?xml version="1.0" encoding="utf-8"?>
<!-- Generator: Adobe Illustrator 22.0.1, SVG Export Plug-In . SVG Version: 6.00 Build 0)  -->
<svg version="1.1" id="Layer_1_1_" xmlns="http://www.w3.org/2000/svg" xmlns:xlink="http://www.w3.org/1999/xlink" x="0px" y="0px"
	 width="30px" height="30px" viewBox="0 0 30 30" enable-background="new 0 0 30 30" xml:space="preserve">
<polygon fill="#FFFFFF" points="30,4 25,0 25,3 17,3 17,5 25,5 25,8 "/>
<polygon fill="#FFFFFF" points="20,9 20,6 15,10 20,14 20,11 28,11 28,9 "/>
<path fill="#FFFFFF" d="M28.8,26.9L13.3,11.4c1.4-2.7,1-6-1.2-8.3c-2.7-2.7-7.2-2.7-9.9,0s-2.7,7.2,0,9.9c1.7,1.7,4,2.3,6.2,1.9l1.7,2h3l2,2v3h3
	l2,2v3h3l1,1v2h5v-3L28.8,26.9z M5,8C3.9,8,3,7.1,3,6c0-1.1,0.9-2,2-2s2,0.9,2,2C7,7.1,6.1,8,5,8z"/>
</svg>
