<?xml version="1.0" encoding="utf-8"?>
<!-- Generator: Adobe Illustrator 22.0.1, SVG Export Plug-In . SVG Version: 6.00 Build 0)  -->
<svg version="1.1" id="Layer_1_1_" xmlns="http://www.w3.org/2000/svg" xmlns:xlink="http://www.w3.org/1999/xlink" x="0px" y="0px"
	 width="22px" height="22px" viewBox="0 0 22 22" enable-background="new 0 0 22 22" xml:space="preserve">
<polygon fill="#FFFFFF" points="22,3 19,0 19,2 13,2 13,4 19,4 19,6 "/>
<polygon fill="#FFFFFF" points="15,7 15,5 12,8 15,11 15,9 21,9 21,7 "/>
<path fill="#FFFFFF" d="M21,19.9L10.3,9.2C10.7,8.4,11,7.5,11,6.5C11,3.5,8.5,1,5.5,1S0,3.5,0,6.5c0,3,2.5,5.5,5.5,5.5c1,0,1.9-0.3,2.7-0.7L10,13v2
	h2l2,2v2h2l1,1v2l1.9,0l2.1,0L21,19.9z M3.5,6C2.7,6,2,5.3,2,4.5S2.7,3,3.5,3S5,3.7,5,4.5S4.3,6,3.5,6z"/>
</svg>
