<?xml version="1.0" encoding="utf-8"?>
<!-- Generator: Adobe Illustrator 22.0.1, SVG Export Plug-In . SVG Version: 6.00 Build 0)  -->
<svg version="1.1" id="Layer_1_1_" xmlns="http://www.w3.org/2000/svg" xmlns:xlink="http://www.w3.org/1999/xlink" x="0px" y="0px"
	 width="14px" height="14px" viewBox="0 0 14 14" enable-background="new 0 0 14 14" xml:space="preserve">
<polygon points="13.5,1.5 12,0 12,1 9,1 9,2 12,2 12,3 "/>
<polygon points="10,4 10,3 8.5,4.5 10,6 10,5 13,5 13,4 "/>
<path d="M6.8,5.7C6.9,5.3,7,4.9,7,4.5C7,2.6,5.4,1,3.5,1S0,2.6,0,4.5S1.6,8,3.5,8c0.4,0,0.8-0.1,1.2-0.2L6,9v2h3l1,1v2h3v-2l0-0.1
	L6.8,5.7z M3,4H2V3h1V4z"/>
</svg>
