<?xml version="1.0" encoding="utf-8"?>
<!-- Generator: Adobe Illustrator 20.0.0, SVG Export Plug-In . SVG Version: 6.00 Build 0)  -->
<svg version="1.1" id="Icons" xmlns="http://www.w3.org/2000/svg" xmlns:xlink="http://www.w3.org/1999/xlink" x="0px" y="0px"
	 width="14px" height="14px" viewBox="0 0 14 14" enable-background="new 0 0 14 14" xml:space="preserve">
<g>
	<rect fill="#231F20" x="7" y="1" width="1" height="13"/>
	<polygon fill="#231F20" points="14,4 10,4 10,9 11,9 11,14 13,14 13,9 14,9 	"/>
	<polygon fill="#231F20" points="4,4 2,4 0,11 2,11 2,14 4,14 4,11 6,11 	"/>
	<path fill="#231F20" d="M3.2,3H2.8C2.3,3,2,2.7,2,2.2V1.8C2,1.3,2.3,1,2.8,1h0.5C3.7,1,4,1.3,4,1.8v0.5C4,2.7,3.7,3,3.2,3z"/>
	<path fill="#231F20" d="M12.2,3h-0.5C11.3,3,11,2.7,11,2.2V1.8C11,1.3,11.3,1,11.8,1h0.5C12.7,1,13,1.3,13,1.8v0.5C13,2.7,12.7,3,12.2,3z"/>
</g>
</svg>
