<?xml version="1.0" encoding="utf-8"?>
<!-- Generator: Adobe Illustrator 18.1.1, SVG Export Plug-In . SVG Version: 6.00 Build 0)  -->
<svg version="1.1" id="Icons" xmlns="http://www.w3.org/2000/svg" xmlns:xlink="http://www.w3.org/1999/xlink" x="0px" y="0px"
	 viewBox="0 0 16 16" enable-background="new 0 0 16 16" xml:space="preserve">
<g opacity="0.1">
	<rect x="9" y="3" width="1" height="13"/>
	<polygon points="16,6 12,6 12,11 13,11 13,16 15,16 15,11 16,11 	"/>
	<polygon points="6,6 4,6 2,13 4,13 4,16 6,16 6,13 8,13 	"/>
	<path d="M5.2,5H4.8C4.3,5,4,4.7,4,4.2V3.8C4,3.3,4.3,3,4.8,3h0.5C5.7,3,6,3.3,6,3.8v0.5C6,4.7,5.7,5,5.2,5z"/>
	<path d="M14.2,5h-0.5C13.3,5,13,4.7,13,4.2V3.8C13,3.3,13.3,3,13.8,3h0.5C14.7,3,15,3.3,15,3.8v0.5C15,4.7,14.7,5,14.2,5z"/>
</g>
<g opacity="0.2">
	<rect x="8" y="2" width="1" height="13"/>
	<polygon points="15,5 11,5 11,10 12,10 12,15 14,15 14,10 15,10 	"/>
	<polygon points="5,5 3,5 1,12 3,12 3,15 5,15 5,12 7,12 	"/>
	<path d="M4.2,4H3.8C3.3,4,3,3.7,3,3.2V2.8C3,2.3,3.3,2,3.8,2h0.5C4.7,2,5,2.3,5,2.8v0.5C5,3.7,4.7,4,4.2,4z"/>
	<path d="M13.2,4h-0.5C12.3,4,12,3.7,12,3.2V2.8C12,2.3,12.3,2,12.8,2h0.5C13.7,2,14,2.3,14,2.8v0.5C14,3.7,13.7,4,13.2,4z"/>
</g>
<g>
	<rect x="7" y="1" width="1" height="13"/>
	<polygon points="14,4 10,4 10,9 11,9 11,14 13,14 13,9 14,9 	"/>
	<polygon points="4,4 2,4 0,11 2,11 2,14 4,14 4,11 6,11 	"/>
	<path d="M3.2,3H2.8C2.3,3,2,2.7,2,2.2V1.8C2,1.3,2.3,1,2.8,1h0.5C3.7,1,4,1.3,4,1.8v0.5C4,2.7,3.7,3,3.2,3z"/>
	<path d="M12.2,3h-0.5C11.3,3,11,2.7,11,2.2V1.8C11,1.3,11.3,1,11.8,1h0.5C12.7,1,13,1.3,13,1.8v0.5C13,2.7,12.7,3,12.2,3z"/>
</g>
</svg>
