<?xml version="1.0" encoding="utf-8"?>
<!-- Generator: Adobe Illustrator 20.0.0, SVG Export Plug-In . SVG Version: 6.00 Build 0)  -->
<svg version="1.1" id="Icons" xmlns="http://www.w3.org/2000/svg" xmlns:xlink="http://www.w3.org/1999/xlink" x="0px" y="0px"
	 width="22px" height="22px" viewBox="0 0 22 22" enable-background="new 0 0 22 22" xml:space="preserve">
<g>
	<rect fill="#FFFFFF" x="11" y="2" width="2" height="18"/>
	<polygon fill="#FFFFFF" points="21,7 21,6 20,6 19,6 18,6 17,6 16,6 16,7 15,7 15,8 15,13 16,13 16,8 17,8 17,20 18,20 18,14 19,14 19,20 20,20 
		20,8 21,8 21,13 22,13 22,8 22,7 	"/>
	<polygon fill="#FFFFFF" points="8,7 6,6 3,6 1,7 1,8 0,12 1,12 2,8 3,8 3,9 1,15 3,15 3,20 4,20 4,15 5,15 5,20 6,20 6,15 8,15 6,9 6,8 7,8 8,12 
		9,12 8,8 	"/>
	<circle fill="#FFFFFF" cx="4.5" cy="3.5" r="1.5"/>
	<circle fill="#FFFFFF" cx="18.5" cy="3.5" r="1.5"/>
</g>
</svg>
