<?xml version="1.0" encoding="utf-8"?>
<!-- Generator: Adobe Illustrator 18.1.1, SVG Export Plug-In . SVG Version: 6.00 Build 0)  -->
<svg version="1.1" id="Icons" xmlns="http://www.w3.org/2000/svg" xmlns:xlink="http://www.w3.org/1999/xlink" x="0px" y="0px"
	 viewBox="0 0 32 32" enable-background="new 0 0 32 32" xml:space="preserve">
<g opacity="0.5">
	<rect x="16" y="5" width="2" height="24"/>
	<polygon points="22,10 31,10 31,11 32,11 32,17 31,19 30,19 30,12 29,12 29,28 28,29 27,29 27,19 26,19 26,29 25,29 24,28 24,12 
		23,12 23,19 22,19 21,17 21,11 22,11 	"/>
	<polygon points="10,10 5,10 2,16 2,17 3,17 6,11 6,13 3,21 5,21 5,28 7,29 7,21 8,21 8,29 10,28 10,21 12,21 9,13 9,11 12,17 
		13,17 13,16 	"/>
	<path d="M8,9H7C6.4,9,6,8.6,6,8V7c0-0.6,0.4-1,1-1h1c0.6,0,1,0.5,1,1v1C9,8.6,8.6,9,8,9z"/>
	<path d="M27,9h-1c-0.6,0-1-0.4-1-1V7c0-0.6,0.4-1,1-1h1c0.6,0,1,0.5,1,1v1C28,8.6,27.6,9,27,9z"/>
</g>
<g opacity="0.75">
	<rect x="15" y="4" width="2" height="24"/>
	<polygon points="21,9 30,9 30,10 31,10 31,16 30,18 29,18 29,11 28,11 28,27 27,28 26,28 26,18 25,18 25,28 24,28 23,27 23,11 
		22,11 22,18 21,18 20,16 20,10 21,10 	"/>
	<polygon points="9,9 4,9 1,15 1,16 2,16 5,10 5,12 2,20 4,20 4,27 6,28 6,20 7,20 7,28 9,27 9,20 11,20 8,12 8,10 11,16 12,16 
		12,15 	"/>
	<path d="M7,8H6C5.4,8,5,7.6,5,7V6c0-0.6,0.4-1,1-1h1c0.6,0,1,0.5,1,1v1C8,7.6,7.6,8,7,8z"/>
	<path d="M26,8h-1c-0.6,0-1-0.4-1-1V6c0-0.6,0.4-1,1-1h1c0.6,0,1,0.5,1,1v1C27,7.6,26.6,8,26,8z"/>
</g>
<g>
	<rect x="14" y="3" fill="#FFFFFF" width="2" height="24"/>
	<polygon fill="#FFFFFF" points="20,8 29,8 29,9 30,9 30,15 29,17 28,17 28,10 27,10 27,26 26,27 25,27 25,17 24,17 24,27 23,27 
		22,26 22,10 21,10 21,17 20,17 19,15 19,9 20,9 	"/>
	<polygon fill="#FFFFFF" points="8,8 3,8 0,14 0,15 1,15 4,9 4,11 1,19 3,19 3,26 5,27 5,19 6,19 6,27 8,26 8,19 10,19 7,11 7,9 
		10,15 11,15 11,14 	"/>
	<path fill="#FFFFFF" d="M6,7H5C4.4,7,4,6.6,4,6V5c0-0.6,0.4-1,1-1h1c0.6,0,1,0.5,1,1v1C7,6.6,6.6,7,6,7z"/>
	<path fill="#FFFFFF" d="M25,7h-1c-0.6,0-1-0.4-1-1V5c0-0.6,0.4-1,1-1h1c0.6,0,1,0.5,1,1v1C26,6.6,25.6,7,25,7z"/>
</g>
</svg>
