<?xml version="1.0" encoding="utf-8"?>
<!-- Generator: Adobe Illustrator 22.1.0, SVG Export Plug-In . SVG Version: 6.00 Build 0)  -->
<svg version="1.1" id="Layer_1" xmlns="http://www.w3.org/2000/svg" xmlns:xlink="http://www.w3.org/1999/xlink" x="0px" y="0px"
	 width="30px" height="30px" viewBox="0 0 30 30" enable-background="new 0 0 30 30" xml:space="preserve">
<path d="M27.9,24.2c-0.7,0.4-1.3,1.1-2.1,1.1c-1,0-1.5-0.6-2.1-1.1c-0.5-0.3-1.3-1.1-2.1-1.1c-0.8,0-1.6,0.6-2.1,1.1
	c-0.5,0.4-1.2,1.1-2.1,1.1c-0.9,0-1.6-0.6-2.1-1.1c-0.6-0.4-1.1-1.1-2.1-1.1c-1,0-1.7,0.7-2.1,1.1c-0.5,0.4-1.1,1.1-2.1,1.1
	c-1,0-1.6-0.7-2.1-1.1c-0.5-0.3-0.9-1.1-2.1-1.1c-1.1,0-1.6,0.7-2.1,1.1C1.7,24.5,0,25.3,0,25.3v2.1v2.1c0,0,1.7-0.7,2.1-1.1
	c0.5-0.4,1-1.1,2.1-1.1c1.2,0,1.6,0.7,2.1,1.1c0.5,0.4,1.2,1.1,2.1,1.1c1.1,0,1.6-0.7,2.1-1.1c0.5-0.3,1.1-1.1,2.1-1.1
	c1,0,1.6,0.6,2.1,1.1c0.6,0.5,1.2,1.1,2.1,1.1c1,0,1.7-0.7,2.1-1.1c0.6-0.5,1.4-1.1,2.1-1.1c0.8,0,1.7,0.7,2.1,1.1
	c0.6,0.4,1.2,1.1,2.1,1.1c0.9,0,1.4-0.7,2.1-1.1c0.7-0.4,2.1-1.1,2.1-1.1v-2.1v-2.1C30,23.1,28.6,23.8,27.9,24.2z"/>
<path d="M4.3,21c1.2,0,1.6,0.7,2.1,1.1c0.5,0.4,1.2,1.1,2.1,1.1c1.1,0,1.6-0.7,2.1-1.1c0.5-0.3,1.1-1.1,2.1-1.1c1,0,1.6,0.6,2.1,1.1
	c0.6,0.5,1.2,1.1,2.1,1.1c1,0,1.7-0.7,2.1-1.1c0.6-0.5,1.4-1.1,2.1-1.1c0.8,0,1.7,0.7,2.1,1.1c0.1,0.1,0.3,0.2,0.4,0.3l1.9-0.6
	c0,0,4.1-0.1,4.1-4c0-0.2,0-0.3,0-0.5c-2.5,1.8-9.3,2.1-10.2,2.2H0v3.6c0,0,1.7-0.7,2.1-1.1C2.7,21.7,3.2,21,4.3,21z"/>
<path d="M15.1,3.4l-0.3,0.7c-0.2,0.4-0.7,0.7-1.2,0.7h-0.8c0.4,0.6,1.2,1,2,1c1.4,0,2.5-1.1,2.5-2.4V3.3h-2.1
	C15.2,3.3,15.2,3.4,15.1,3.4z"/>
<path d="M13.6,4.3c0.3,0,0.5-0.2,0.6-0.4l0.3-0.7c0.1-0.3,0.4-0.4,0.7-0.4h2.5c-0.3-1.3-1.5-2.3-2.9-2.3c-1.7,0-3,1.3-3,3
	c0,0.3,0,0.5,0.1,0.8H13.6z"/>
<g>
	<path d="M12.9,14.2c-0.6,0-1-0.4-1.1-1c0-0.6,0.4-1.1,1-1.1l7.7-0.4c0.7,0,1.1,0.4,1.1,1c0,0.6-0.4,1.1-1,1.1L12.9,14.2
		C12.9,14.2,12.9,14.2,12.9,14.2z"/>
</g>
<path d="M23.4,15.3c-0.5,0.2-1.1,0.4-1.8,0.5l-0.9,0.2c-2.7,0.4-6.3,0.4-7.9,0.5c0,0,0,0,0,0l0.7-2.3l0,0l0.8-2.6c0,0,0,0,0,0
	l0.4-1.5L15,8.7l4.6-0.3c0.6,0,1-0.5,1-1.1c0-0.6-0.5-1-1.1-1l-7.7,0.4c-0.6,0-2.8,4.5-2.8,4.5l-1.6,5.1H0v2.4h19.8
	c2.3-0.1,8.4-0.6,10-2.2C27.9,14.5,26.1,14.1,23.4,15.3z"/>
<g>
	<path d="M21.7,20.4c-0.3,0-0.5-0.2-0.5-0.4L19.1,7.1c0-0.3,0.1-0.6,0.4-0.6c0.3,0,0.6,0.1,0.6,0.4l2.1,12.9
		C22.3,20.1,22.1,20.4,21.7,20.4C21.8,20.4,21.8,20.4,21.7,20.4z"/>
</g>
</svg>
