<?xml version="1.0" encoding="utf-8"?>
<!-- Generator: Adobe Illustrator 22.1.0, SVG Export Plug-In . SVG Version: 6.00 Build 0)  -->
<svg version="1.1" id="Layer_1" xmlns="http://www.w3.org/2000/svg" xmlns:xlink="http://www.w3.org/1999/xlink" x="0px" y="0px"
	 width="22px" height="22px" viewBox="0 0 22 22" enable-background="new 0 0 22 22" xml:space="preserve">
<path fill="#FFFFFF" d="M20.4,17.4c-0.5,0.3-0.9,0.8-1.6,0.8c-0.7,0-1.1-0.5-1.6-0.8c-0.4-0.3-1-0.8-1.6-0.8c-0.6,0-1.2,0.4-1.6,0.8
	c-0.3,0.3-0.9,0.8-1.6,0.8c-0.7,0-1.2-0.5-1.6-0.8c-0.4-0.3-0.8-0.8-1.6-0.8c-0.7,0-1.2,0.5-1.6,0.8c-0.4,0.3-0.8,0.8-1.6,0.8
	c-0.7,0-1.2-0.5-1.6-0.8c-0.4-0.2-0.7-0.8-1.6-0.8c-0.8,0-1.2,0.5-1.6,0.8C1.2,17.7,0,18.2,0,18.2v1.6v1.6c0,0,1.2-0.5,1.6-0.8
	c0.4-0.3,0.8-0.8,1.6-0.8c0.9,0,1.2,0.5,1.6,0.8c0.4,0.3,0.9,0.8,1.6,0.8c0.8,0,1.2-0.5,1.6-0.8c0.4-0.3,0.8-0.8,1.6-0.8
	c0.8,0,1.2,0.5,1.6,0.8c0.4,0.3,0.9,0.8,1.6,0.8c0.7,0,1.2-0.5,1.6-0.8c0.4-0.3,1-0.8,1.6-0.8c0.6,0,1.2,0.5,1.6,0.8
	c0.5,0.3,0.9,0.8,1.6,0.8c0.6,0,1-0.5,1.6-0.8c0.5-0.3,1.6-0.8,1.6-0.8v-1.6v-1.6C22,16.6,21,17.1,20.4,17.4z"/>
<path fill="#FFFFFF" d="M3.1,15c0.9,0,1.2,0.5,1.6,0.8c0.4,0.3,0.9,0.8,1.6,0.8c0.8,0,1.2-0.5,1.6-0.8C8.2,15.6,8.7,15,9.4,15
	c0.8,0,1.2,0.5,1.6,0.8c0.4,0.3,0.9,0.8,1.6,0.8c0.7,0,1.2-0.5,1.6-0.8c0.4-0.3,1-0.8,1.6-0.8c0.6,0,1.2,0.5,1.6,0.8
	c0.1,0.1,0.2,0.2,0.3,0.2l1.4-0.4c0,0,3,0,3-2.9c0-0.1,0-0.2,0-0.3c-1.9,1.3-6.8,1.6-7.4,1.6H0v2.6c0,0,1.2-0.5,1.6-0.8
	C2,15.5,2.3,15,3.1,15z"/>
<path fill="#FFFFFF" d="M11.1,2.2l-0.2,0.5C10.7,3,10.4,3.2,10,3.2H9.4C9.8,3.7,10.3,4,10.9,4c1,0,1.8-0.8,1.8-1.8V2.1L11.1,2.2
	C11.1,2.1,11.1,2.1,11.1,2.2z"/>
<path fill="#FFFFFF" d="M10,2.8c0.2,0,0.4-0.1,0.4-0.3L10.7,2c0.1-0.2,0.3-0.3,0.5-0.3H13c-0.2-1-1.1-1.7-2.1-1.7C9.7,0,8.7,1,8.7,2.2
	c0,0.2,0,0.4,0.1,0.6H10z"/>
<g>
	<path fill="#FFFFFF" d="M9.4,10C9,10,8.7,9.7,8.6,9.3c0-0.4,0.3-0.8,0.7-0.8L15,8.2c0.5,0,0.8,0.3,0.8,0.7c0,0.4-0.3,0.8-0.7,0.8L9.4,10
		C9.5,10,9.4,10,9.4,10z"/>
</g>
<path fill="#FFFFFF" d="M17.2,10.9c-0.3,0.1-0.8,0.3-1.3,0.4l-0.7,0.1c-2,0.3-4.6,0.3-5.8,0.3c0,0,0,0,0,0L9.8,10l0,0l0.6-1.9c0,0,0,0,0,0L10.7,7
	L11,6.1l3.4-0.2c0.4,0,0.8-0.4,0.7-0.8c0-0.4-0.3-0.8-0.8-0.7L8.7,4.6c-0.4,0-2.1,3.3-2.1,3.3l-1.2,3.7H0v1.8h14.5
	c1.7-0.1,6.1-0.5,7.3-1.6C20.4,10.3,19.2,10,17.2,10.9z"/>
<g>
	<path fill="#FFFFFF" d="M15.9,14.6c-0.2,0-0.4-0.1-0.4-0.3L14,4.9c0-0.2,0.1-0.4,0.3-0.5c0.2,0,0.4,0.1,0.5,0.3l1.6,9.4
		C16.4,14.4,16.2,14.6,15.9,14.6C16,14.6,16,14.6,15.9,14.6z"/>
</g>
</svg>
