<?xml version="1.0" encoding="utf-8"?>
<!-- Generator: Adobe Illustrator 25.4.1, SVG Export Plug-In . SVG Version: 6.00 Build 0)  -->
<svg version="1.1" id="Layer_1" xmlns="http://www.w3.org/2000/svg" xmlns:xlink="http://www.w3.org/1999/xlink" x="0px" y="0px"
	 width="14px" height="14px" viewBox="0 0 14 14" enable-background="new 0 0 14 14" xml:space="preserve">
<path fill="#231F20" d="M7,1c0.6,0,1,0.4,1,1S7.6,3,7,3S6,2.6,6,2S6.4,1,7,1z"/>
<path fill="#231F20" d="M13.6,12.5c-0.3,0-0.6-0.1-0.8-0.2c-0.3-0.1-0.6-0.5-0.9-0.5c-0.3,0-0.6,0.4-0.9,0.5
	c-0.2,0.1-0.5,0.2-0.8,0.2s-0.6-0.1-0.8-0.2c-0.3-0.1-0.6-0.5-0.9-0.5c-0.3,0-0.6,0.4-0.9,0.5c-0.2,0.1-0.5,0.2-0.8,0.2
	S6.2,12.4,6,12.3c-0.3-0.1-0.6-0.5-0.9-0.5s-0.6,0.4-0.9,0.5c-0.2,0.1-0.5,0.2-0.8,0.2s-0.6-0.1-0.8-0.2c-0.3-0.1-0.6-0.5-0.9-0.5
	s-0.6,0.4-0.9,0.5c-0.2,0.1-0.5,0.2-0.8,0.2v-1.2c0.3,0,0.6-0.1,0.8-0.2c0.3-0.1,0.6-0.5,0.9-0.5s0.6,0.4,0.9,0.5s0.5,0.2,0.8,0.2
	s0.6-0.1,0.8-0.2c0.3-0.1,0.6-0.5,0.9-0.5S5.7,11,6,11.1s0.5,0.2,0.8,0.2s0.6-0.1,0.8-0.2c0.3-0.1,0.6-0.5,0.9-0.5s0.6,0.4,0.9,0.5
	c0.3,0.1,0.5,0.2,0.8,0.2s0.6-0.1,0.8-0.2c0.3-0.1,0.6-0.5,0.9-0.5c0.3,0,0.6,0.4,0.9,0.5c0.3,0.1,0.5,0.2,0.8,0.2
	C13.6,11.3,13.6,12.5,13.6,12.5z"/>
<path fill="#231F20" d="M10.4,9.2l-0.1-0.3c1.3-0.1,3-0.4,3.6-0.9c-0.9-1-1.7-1.2-3-0.7c-0.2,0.1-0.5,0.2-0.8,0.2l0,0l-0.2-1
	c0.1-0.1,0.2-0.2,0.2-0.4c0-0.2-0.1-0.4-0.3-0.5L9.5,4.1C9.6,4,9.7,3.8,9.7,3.7c0-0.3-0.2-0.5-0.5-0.5L5.5,3.4
	c-0.3,0-1.3,2.1-1.3,2.1L3.5,7.9H0V9h9.2c0.2,0,0.4,0,0.6,0l0.1,0.3c-0.3,0-0.5,0-0.5,0H0v1c0.3,0,0.6-0.1,0.8-0.2
	C1.1,10,1.4,9.6,1.7,9.6s0.6,0.4,0.9,0.5c0.3,0.1,0.5,0.2,0.8,0.2c0.3,0,0.6-0.1,0.8-0.2C4.5,10,4.8,9.6,5.1,9.6
	c0.3,0,0.6,0.4,0.9,0.5c0.3,0.1,0.5,0.2,0.8,0.2s0.6-0.1,0.8-0.2C7.9,10,8.2,9.6,8.5,9.6s0.6,0.4,0.9,0.5c0.3,0.1,0.5,0.2,0.8,0.2
	s0.6-0.1,0.8-0.2c0.3-0.1,0.6-0.5,0.9-0.5c0.3,0,0.6,0.4,0.9,0.5c0.1,0,0.1,0,0.2,0.1c0.5-0.3,1-0.7,1-1.7c0-0.1,0-0.1,0-0.2
	C13.2,8.9,11.5,9.2,10.4,9.2z M6.8,4.9L7,4.3l2-0.1l0.2,1.4L6.5,5.8l0.1-0.2L6.8,4.9z M5.9,7.9l0.3-1.1l0,0l3.2-0.2l0.2,1.1
	C8.4,7.8,6.7,7.9,5.9,7.9z"/>
</svg>
