<?xml version="1.0" encoding="utf-8"?>
<!-- Generator: Adobe Illustrator 22.1.0, SVG Export Plug-In . SVG Version: 6.00 Build 0)  -->
<svg version="1.1" id="Layer_1" xmlns="http://www.w3.org/2000/svg" xmlns:xlink="http://www.w3.org/1999/xlink" x="0px" y="0px"
	 width="14px" height="14px" viewBox="0 0 14 14" enable-background="new 0 0 14 14" xml:space="preserve">
<path d="M13,11.5c-0.3,0.2-0.6,0.5-1,0.5c-0.5,0-0.7-0.3-1-0.5c-0.2-0.2-0.6-0.5-1-0.5c-0.4,0-0.7,0.3-1,0.5C8.8,11.7,8.4,12,8,12
	c-0.4,0-0.7-0.3-1-0.5C6.7,11.3,6.5,11,6,11c-0.5,0-0.8,0.3-1,0.5C4.8,11.7,4.5,12,4,12c-0.5,0-0.8-0.3-1-0.5C2.8,11.3,2.6,11,2,11
	c-0.5,0-0.8,0.3-1,0.5C0.8,11.7,0,12,0,12v1v1c0,0,0.8-0.3,1-0.5C1.2,13.3,1.5,13,2,13c0.6,0,0.8,0.3,1,0.5C3.2,13.7,3.5,14,4,14
	c0.5,0,0.8-0.3,1-0.5C5.2,13.3,5.5,13,6,13c0.5,0,0.7,0.3,1,0.5C7.3,13.7,7.6,14,8,14c0.4,0,0.8-0.3,1-0.5c0.3-0.2,0.6-0.5,1-0.5
	c0.4,0,0.8,0.3,1,0.5c0.3,0.2,0.5,0.5,1,0.5c0.4,0,0.7-0.3,1-0.5c0.3-0.2,1-0.5,1-0.5v-1v-1C14,11,13.3,11.3,13,11.5z"/>
<path d="M2,10c0.6,0,0.8,0.3,1,0.5C3.2,10.7,3.5,11,4,11c0.5,0,0.8-0.3,1-0.5C5.2,10.3,5.5,10,6,10c0.5,0,0.7,0.3,1,0.5
	C7.3,10.7,7.6,11,8,11c0.4,0,0.8-0.3,1-0.5c0.3-0.2,0.6-0.5,1-0.5c0.4,0,0.8,0.3,1,0.5c0.1,0,0.1,0.1,0.2,0.2l0.9-0.3
	c0,0,1.9,0,1.9-1.9c0-0.1,0-0.1,0-0.2c-1.2,0.9-4.3,1-4.7,1H0V11c0,0,0.8-0.3,1-0.5C1.2,10.3,1.5,10,2,10z"/>
<g>
	<path d="M6,6.8c-0.3,0-0.5-0.2-0.5-0.5c0-0.3,0.2-0.5,0.5-0.5l3.6-0.2c0.3,0,0.5,0.2,0.5,0.5c0,0.3-0.2,0.5-0.5,0.5L6,6.8
		C6,6.8,6,6.8,6,6.8z"/>
</g>
<path d="M10.9,7.3c-0.2,0.1-0.5,0.2-0.8,0.2L9.6,7.7C8.4,7.8,6.7,7.9,5.9,7.9c0,0,0,0,0,0l0.3-1.1l0,0l0.4-1.2c0,0,0,0,0,0l0.2-0.7
	L7,4.3l2.2-0.1c0.3,0,0.5-0.3,0.5-0.5c0-0.3-0.2-0.5-0.5-0.5L5.5,3.4c-0.3,0-1.3,2.1-1.3,2.1L3.5,7.9H0V9h9.2c1.1,0,3.9-0.3,4.7-1
	C13,7,12.2,6.8,10.9,7.3z"/>
<circle cx="7" cy="2" r="1"/>
<g>
	<path d="M10.1,9.8c-0.1,0-0.2-0.1-0.2-0.2l-1-6c0-0.1,0.1-0.3,0.2-0.3c0.1,0,0.3,0.1,0.3,0.2l1,6C10.4,9.6,10.3,9.7,10.1,9.8
		C10.2,9.7,10.2,9.8,10.1,9.8z"/>
</g>
</svg>
