<?xml version="1.0" encoding="utf-8"?>
<!-- Generator: Adobe Illustrator 25.2.1, SVG Export Plug-In . SVG Version: 6.00 Build 0)  -->
<svg version="1.1" id="Layer_1" xmlns="http://www.w3.org/2000/svg" xmlns:xlink="http://www.w3.org/1999/xlink" x="0px" y="0px"
	 width="22px" height="22px" viewBox="0 0 22 22" enable-background="new 0 0 22 22" xml:space="preserve">
<path  d="M20.43,3.93V3.14h-2.36c-0.43,0.41-0.91,1.07-1.38,1.91h-1.84c0.65-0.86,1.26-1.52,1.74-1.91h-1.84
	l-0.17,0.08C7.97,6.53,0,15.29,0,21.21V22h9.43c-0.04-0.65-0.03-1.29-0.01-1.93h3.04c-0.04,0.65-0.07,1.3-0.06,1.93H22v-1.03
	C20.47,16.37,20.43,8.28,20.43,3.93z M12.86,16.62H9.81c0.3-1.58,0.73-3.1,1.26-4.51h2.82C13.47,13.57,13.12,15.09,12.86,16.62z
	 M14.72,9.49h-2.54c0.6-1.25,1.24-2.36,1.87-3.31h2.04C15.63,7.14,15.16,8.26,14.72,9.49z"/>
</svg>
