<?xml version="1.0" encoding="utf-8"?>
<!-- Generator: Adobe Illustrator 25.2.1, SVG Export Plug-In . SVG Version: 6.00 Build 0)  -->
<svg version="1.1" id="Layer_1" xmlns="http://www.w3.org/2000/svg" xmlns:xlink="http://www.w3.org/1999/xlink" x="0px" y="0px"
	 width="14px" height="14px" viewBox="0 0 14 14" enable-background="new 0 0 14 14" xml:space="preserve">
<path fill="#FFFFFF" d="M13,2.5V2h-1.5c-0.28,0.26-0.58,0.68-0.88,1.21H9.45c0.41-0.55,0.8-0.97,1.11-1.21H9.38L9.28,2.05
	C5.07,4.15,0,9.73,0,13.5V14h6c-0.02-0.41-0.02-0.82-0.01-1.23h1.93C7.9,13.19,7.89,13.6,7.89,14H14v-0.66
	C13.03,10.42,13,5.27,13,2.5z M8.18,10.58H6.24c0.19-1.01,0.47-1.97,0.8-2.87h1.79C8.57,8.63,8.35,9.61,8.18,10.58z M9.37,6.04H7.75
	c0.38-0.79,0.79-1.5,1.19-2.11h1.3C9.94,4.54,9.65,5.26,9.37,6.04z"/>
</svg>
