<?xml version="1.0" encoding="utf-8"?>
<!-- Generator: Adobe Illustrator 22.1.0, SVG Export Plug-In . SVG Version: 6.00 Build 0)  -->
<svg version="1.1" id="Layer_1" xmlns="http://www.w3.org/2000/svg" xmlns:xlink="http://www.w3.org/1999/xlink" x="0px" y="0px"
	 width="14px" height="14px" viewBox="0 0 14 14" enable-background="new 0 0 14 14" xml:space="preserve">
<polygon fill="#FFFFFF" points="9.4,10 10.1,10.6 11.3,9.1 9.9,7.9 9.2,8.6 "/>
<polygon fill="#FFFFFF" points="13.5,10.9 10.7,10.9 10.7,13.8 12.6,13.8 13.5,12.8 "/>
<polygon fill="#FFFFFF" points="8.5,13.9 9.4,13.6 8.6,10.8 6.6,11.4 6.2,13.1 "/>
<path fill="#FFFFFF" d="M6.5,1.5C4.4,0.3,3.2,0.2,1.3,0L1.2,0.4c2.4,0.6,3.1,1.1,4.8,2.2l0.2,1.1l-5.6,9.2c-0.1,0.1-0.1,0.2-0.1,0.4
	c0,0.5,0.4,0.8,0.8,0.8c0.3,0,0.6-0.2,0.7-0.4l5.5-9l2.2,1.4l1.1-1.9L6.5,1.5"/>
</svg>
