<?xml version="1.0" encoding="utf-8"?>
<!-- Generator: Adobe Illustrator 22.1.0, SVG Export Plug-In . SVG Version: 6.00 Build 0)  -->
<svg version="1.1" id="Layer_1" xmlns="http://www.w3.org/2000/svg" xmlns:xlink="http://www.w3.org/1999/xlink" x="0px" y="0px"
	 width="22px" height="22px" viewBox="0 0 22 22" enable-background="new 0 0 22 22" xml:space="preserve">
<polygon fill="#FFFFFF" points="14.7,15.7 15.8,16.7 17.8,14.4 15.5,12.4 14.5,13.5 "/>
<polygon fill="#FFFFFF" points="21.2,17.2 16.8,17.2 16.8,21.6 19.8,21.6 21.2,20.1 "/>
<polygon fill="#FFFFFF" points="13.3,21.9 14.8,21.4 13.5,17 10.3,17.9 9.7,20.6 "/>
<path fill="#FFFFFF" d="M10.3,2.4C6.9,0.4,5.1,0.4,2,0L1.9,0.6C5.7,1.5,6.7,2.4,9.3,4l0.4,1.7L1,20.1c-0.1,0.2-0.1,0.4-0.1,0.6
	c0,0.7,0.6,1.3,1.3,1.3c0.5,0,0.9-0.2,1.1-0.6l8.6-14.1l3.5,2.2l1.8-3L10.3,2.4"/>
</svg>
