<?xml version="1.0" encoding="utf-8"?>
<!-- Generator: Adobe Illustrator 22.1.0, SVG Export Plug-In . SVG Version: 6.00 Build 0)  -->
<svg version="1.1" id="Layer_1" xmlns="http://www.w3.org/2000/svg" xmlns:xlink="http://www.w3.org/1999/xlink" x="0px" y="0px"
	 width="30px" height="30px" viewBox="0 0 30 30" enable-background="new 0 0 30 30" xml:space="preserve">
<polygon fill="#FFFFFF" points="20.1,21.4 21.6,22.7 24.3,19.6 21.1,16.9 19.8,18.4 "/>
<polygon fill="#FFFFFF" points="28.9,23.4 22.9,23.4 22.9,29.5 27,29.5 28.9,27.4 "/>
<polygon fill="#FFFFFF" points="18.1,29.8 20.2,29.2 18.3,23.2 14.1,24.4 13.2,28.1 "/>
<path fill="#FFFFFF" d="M14,3.3C9.4,0.6,6.9,0.5,2.7,0L2.5,0.8C7.8,2,9.1,3.2,12.7,5.4l0.5,2.4L1.3,27.4c-0.1,0.2-0.2,0.5-0.2,0.8
	c0,1,0.8,1.8,1.7,1.8c0.6,0,1.2-0.3,1.5-0.8L16.1,10l4.8,3.1l2.5-4L14,3.3"/>
</svg>
