<?xml version="1.0" encoding="utf-8"?>
<!-- Generator: Adobe Illustrator 22.0.1, SVG Export Plug-In . SVG Version: 6.00 Build 0)  -->
<svg version="1.1" id="Layer_1" xmlns="http://www.w3.org/2000/svg" xmlns:xlink="http://www.w3.org/1999/xlink" x="0px" y="0px"
	 width="22px" height="22px" viewBox="0 0 22 22" enable-background="new 0 0 22 22" xml:space="preserve">
<path fill="#FFFFFF" d="M14.3,5.9c1.1,0,2-0.9,2-2c0-1.1-0.9-2-2-2c-1.1,0-2,0.9-2,2C12.3,5,13.2,5.9,14.3,5.9z"/>
<path fill="#FFFFFF" d="M22,20c-0.5,0-0.9-0.1-1.3-0.3c-0.4-0.2-0.9-0.3-1.3-0.3c-0.5,0-0.9,0.1-1.3,0.3c-0.4,0.2-0.8,0.3-1.3,0.3
	c-0.5,0-0.9-0.1-1.3-0.3c-0.4-0.2-0.9-0.3-1.3-0.3c-0.5,0-0.9,0.1-1.3,0.3c-0.4,0.2-0.8,0.3-1.3,0.3c-0.5,0-0.9-0.1-1.3-0.3
	c-0.4-0.2-0.9-0.3-1.3-0.3c-0.5,0-0.9,0.1-1.3,0.3C7,19.9,6.6,20,6.1,20c-0.5,0-0.9-0.1-1.3-0.3c-0.4-0.2-0.9-0.3-1.3-0.3
	c-0.5,0-0.9,0.1-1.3,0.3C1.7,19.9,1.3,20,0.8,20v-2c0.5,0,0.9-0.1,1.3-0.3c0.4-0.2,0.9-0.3,1.3-0.3c0.5,0,0.9,0.1,1.3,0.3
	c0.4,0.2,0.8,0.3,1.3,0.3c0.5,0,0.9-0.1,1.3-0.3c0.4-0.2,0.9-0.3,1.3-0.3c0.5,0,0.9,0.1,1.3,0.3c0.4,0.2,0.8,0.3,1.3,0.3
	c0.5,0,0.9-0.1,1.3-0.3c0.4-0.2,0.9-0.3,1.3-0.3c0.5,0,0.9,0.1,1.3,0.3c0.4,0.2,0.8,0.3,1.3,0.3c0.5,0,0.9-0.1,1.3-0.3
	c0.4-0.2,0.9-0.3,1.3-0.3c0.5,0,0.9,0.1,1.3,0.3c0.4,0.2,0.8,0.3,1.3,0.3V20z"/>
<path fill="#FFFFFF" d="M2.1,16.1c0.4-0.2,0.8-0.3,1.3-0.3c0.5,0,0.9,0.1,1.3,0.3c0.4,0.2,0.8,0.3,1.3,0.3c0.5,0,0.9-0.1,1.3-0.3
	c0.4-0.2,0.9-0.3,1.3-0.3c0.5,0,0.9,0.1,1.3,0.3c0.4,0.2,0.8,0.3,1.3,0.3c0.5,0,0.9-0.1,1.3-0.3c0.3-0.1,0.5-0.2,0.8-0.3l3.4-3.9
	h-4.4l1.8-3.1l4,2.2c1.3,0.7,2.3-1,1-1.7l-5.7-3.1c-2.1-1.2-3,0.8-3,0.8l-2.9,4.9l-7.7,0C0.2,13.3,1.5,15.2,2.1,16.1z"/>
<path fill="#FFFFFF" d="M15,15.9c-0.2,0,0.1,0.1,0.4,0.3c0.4,0.2,0.8,0.3,1.3,0.3c0.5,0,0.9-0.1,1.3-0.3c0.4-0.2,0.9-0.3,1.3-0.3
	c0.5,0,0.9,0.1,1.3,0.3c0.4,0.2,0.8,0.3,1.3,0.3l0-4.4l-3.6,0L15,15.9z"/>
</svg>
