<?xml version="1.0" encoding="utf-8"?>
<!-- Generator: Adobe Illustrator 22.0.1, SVG Export Plug-In . SVG Version: 6.00 Build 0)  -->
<svg version="1.1" id="Layer_1" xmlns="http://www.w3.org/2000/svg" xmlns:xlink="http://www.w3.org/1999/xlink" x="0px" y="0px"
	 width="30px" height="30px" viewBox="0 0 30 30" enable-background="new 0 0 30 30" xml:space="preserve">
<path d="M19.5,8.1c1.5,0,2.7-1.2,2.7-2.7c0-1.5-1.2-2.7-2.7-2.7c-1.5,0-2.7,1.2-2.7,2.7C16.8,6.9,18,8.1,19.5,8.1z"/>
<path d="M30,27.3c-0.6,0-1.2-0.1-1.8-0.4c-0.6-0.3-1.2-0.4-1.8-0.4c-0.6,0-1.3,0.2-1.8,0.4c-0.5,0.2-1.2,0.4-1.8,0.4
	c-0.6,0-1.2-0.1-1.8-0.4c-0.6-0.3-1.2-0.4-1.8-0.4c-0.7,0-1.3,0.2-1.8,0.4c-0.5,0.2-1.1,0.4-1.8,0.4c-0.6,0-1.2-0.1-1.8-0.4
	c-0.6-0.3-1.2-0.4-1.8-0.4c-0.7,0-1.3,0.2-1.8,0.4c-0.5,0.2-1.1,0.4-1.8,0.4c-0.6,0-1.2-0.1-1.8-0.4c-0.6-0.3-1.2-0.4-1.8-0.4
	c-0.7,0-1.3,0.2-1.8,0.4c-0.5,0.2-1.1,0.4-1.8,0.4v-2.7c0.6,0,1.2-0.1,1.8-0.4C3.4,24,4,23.8,4.7,23.8c0.6,0,1.3,0.2,1.8,0.4
	c0.5,0.2,1.2,0.4,1.8,0.4c0.6,0,1.2-0.1,1.8-0.4c0.6-0.3,1.2-0.4,1.8-0.4c0.7,0,1.3,0.2,1.8,0.4c0.5,0.2,1.2,0.4,1.8,0.4
	c0.6,0,1.2-0.1,1.8-0.4c0.6-0.3,1.2-0.4,1.8-0.4c0.7,0,1.3,0.2,1.8,0.4c0.5,0.2,1.1,0.4,1.8,0.4c0.6,0,1.2-0.1,1.8-0.4
	c0.6-0.3,1.2-0.4,1.8-0.4c0.7,0,1.3,0.2,1.8,0.4c0.5,0.2,1.2,0.4,1.8,0.4V27.3z"/>
<path d="M2.9,22c0.5-0.2,1.1-0.4,1.8-0.4c0.6,0,1.3,0.2,1.8,0.4c0.5,0.2,1.2,0.4,1.8,0.4c0.6,0,1.2-0.1,1.8-0.4
	c0.6-0.3,1.2-0.4,1.8-0.4c0.7,0,1.3,0.2,1.8,0.4c0.5,0.2,1.2,0.4,1.8,0.4c0.6,0,1.2-0.1,1.8-0.4c0.4-0.2,0.7-0.3,1.1-0.3l4.6-5.3
	h-5.9l2.5-4.2l5.4,3c1.8,1,3.1-1.3,1.3-2.3l-7.7-4.3c-2.8-1.6-4,1-4,1l-4,6.7L0,16.3C0.3,18.2,2.1,20.8,2.9,22z"/>
<path d="M20.5,21.6c-0.3,0.1,0.1,0.2,0.5,0.4c0.5,0.2,1.1,0.4,1.8,0.4c0.6,0,1.2-0.1,1.8-0.4c0.6-0.3,1.2-0.4,1.8-0.4
	c0.7,0,1.3,0.2,1.8,0.4c0.5,0.2,1.2,0.4,1.8,0.4l0-6l-4.9,0L20.5,21.6z"/>
</svg>
