<?xml version="1.0" encoding="utf-8"?>
<!-- Generator: Adobe Illustrator 22.0.1, SVG Export Plug-In . SVG Version: 6.00 Build 0)  -->
<svg version="1.1" id="Layer_1" xmlns="http://www.w3.org/2000/svg" xmlns:xlink="http://www.w3.org/1999/xlink" x="0px" y="0px"
	 width="14px" height="14px" viewBox="0 0 14 14" enable-background="new 0 0 14 14" xml:space="preserve">
<path d="M9.1,3.8c0.7,0,1.2-0.6,1.2-1.2c0-0.7-0.6-1.3-1.2-1.3c-0.7,0-1.3,0.6-1.3,1.3C7.9,3.2,8.4,3.8,9.1,3.8z"/>
<path d="M14,12.7c-0.3,0-0.6,0.1-0.8,0c-0.3-0.1-0.6-0.6-0.9-0.6c-0.3,0-0.6,0.3-0.9,0.4c-0.3,0.1-0.5,0.4-0.8,0.4s-0.6-0.3-0.8-0.4
	c-0.3-0.1-0.5-0.4-0.9-0.4c-0.3,0-0.6,0.3-0.9,0.4c-0.3,0.1-0.5,0.4-0.8,0.4c-0.3,0-0.6-0.3-0.8-0.4c-0.3-0.1-0.5-0.4-0.9-0.4
	S5,12.4,4.7,12.6c-0.3,0.1-0.5,0.4-0.8,0.4c-0.3,0-0.6-0.3-0.8-0.4c-0.3-0.1-0.5-0.4-0.9-0.4c-0.3,0-0.6,0.5-0.9,0.6
	c-0.3,0.1-0.5,0-0.8,0v-1.2c0.3,0,0.6,0.1,0.8,0c0.3-0.1,0.6-0.6,0.9-0.6c0.3,0,0.6,0.3,0.9,0.4c0.3,0.1,0.5,0.4,0.8,0.4
	c0.3,0,0.6-0.3,0.8-0.4c0.3-0.1,0.6-0.4,0.9-0.4s0.6,0.3,0.9,0.4c0.3,0.1,0.5,0.4,0.8,0.4c0.3,0,0.6-0.3,0.8-0.4
	c0.3-0.1,0.6-0.4,0.9-0.4c0.3,0,0.6,0.3,0.9,0.4c0.3,0.1,0.5,0.4,0.8,0.4s0.6-0.3,0.8-0.4c0.3-0.1,0.6-0.4,0.9-0.4
	c0.3,0,0.6,0.5,0.9,0.6c0.3,0.1,0.5,0,0.8,0V12.7z"/>
<path d="M1.7,10.1C2,10,1.9,9.9,2.2,9.9c0.3,0,0.6,0.3,0.9,0.4c0.3,0.1,0.5,0.4,0.8,0.4c0.3,0,0.6-0.3,0.8-0.4
	C5,10.1,5.3,9.9,5.6,9.9s0.6,0.3,0.9,0.4c0.3,0.1,0.5,0.4,0.8,0.4c0.3,0,0.6-0.3,0.8-0.4c0.2-0.1,0.3-0.1,0.5-0.2l2.2-2.5H8l1.1-2
	L11.6,7c0.8,0.5,1.4-0.6,0.6-1.1L8.7,4C7.3,3.2,6.8,4.4,6.8,4.4L4.9,7.6L0,7.6C0.2,8.5,1.3,9.6,1.7,10.1z"/>
<path d="M9.9,10.3c0.3,0.1,0.4,0.1,0.7,0.1s0.6-0.1,0.8-0.2c0.3-0.1,0.6-0.2,0.9-0.2c0.3,0,0.6,0.1,0.9,0.2c0.3,0.1,0.5,0.2,0.8,0.2
	l0-2.8l-1.8,0C12.2,7.6,9.7,10.2,9.9,10.3z"/>
</svg>
