<?xml version="1.0" encoding="utf-8"?>
<!-- Generator: Adobe Illustrator 18.1.1, SVG Export Plug-In . SVG Version: 6.00 Build 0)  -->
<svg version="1.1" id="Layer_1" xmlns="http://www.w3.org/2000/svg" xmlns:xlink="http://www.w3.org/1999/xlink" x="0px" y="0px"
	 viewBox="0 0 24 24" enable-background="new 0 0 24 24" xml:space="preserve">
<g opacity="0.1">
	<path d="M2.764,10.479h1.439c0.992,0,1.64,0.424,1.64,1.447c0,0.72-0.552,1.199-1.239,1.287v0.017
		c0.447,0.056,0.543,0.296,0.719,0.671l0.952,2.159H5.667l-0.808-1.887c-0.32-0.72-0.561-0.744-1.088-0.744H3.315v2.631H2.764
		V10.479z M3.315,12.95h0.584c0.647,0,1.392-0.248,1.392-1.023c0-0.911-0.647-0.968-1.407-0.968H3.315V12.95z"/>
</g>
<g opacity="0.1">
	<path d="M19.764,10.479h1.439c0.992,0,1.64,0.424,1.64,1.447c0,0.72-0.552,1.199-1.239,1.287v0.017
		c0.447,0.056,0.543,0.296,0.719,0.671l0.952,2.159h-0.607l-0.808-1.887c-0.32-0.72-0.561-0.744-1.088-0.744h-0.456v2.631h-0.552
		V10.479z M20.315,12.95h0.584c0.647,0,1.392-0.248,1.392-1.023c0-0.911-0.647-0.968-1.407-0.968h-0.568V12.95z"/>
</g>
<polygon opacity="0.1" points="24.121,4.121 22,2 13.061,10.939 4.121,2 2,4.121 10.939,13.061 2,22 4.121,24.121 13.061,15.182 
	22,24.121 24.121,22 15.182,13.061 "/>
<g opacity="0.2">
	<path d="M1.764,9.479h1.439c0.992,0,1.64,0.424,1.64,1.447c0,0.72-0.552,1.199-1.239,1.287v0.017
		c0.447,0.056,0.543,0.296,0.719,0.671l0.952,2.159H4.667l-0.808-1.887c-0.32-0.72-0.561-0.744-1.088-0.744H2.315v2.631H1.764V9.479
		z M2.315,11.95h0.584c0.647,0,1.392-0.248,1.392-1.023c0-0.911-0.647-0.968-1.407-0.968H2.315V11.95z"/>
</g>
<g opacity="0.2">
	<path d="M18.764,9.479h1.439c0.992,0,1.64,0.424,1.64,1.447c0,0.72-0.552,1.199-1.239,1.287v0.017
		c0.447,0.056,0.543,0.296,0.719,0.671l0.952,2.159h-0.607l-0.808-1.887c-0.32-0.72-0.561-0.744-1.088-0.744h-0.456v2.631h-0.552
		V9.479z M19.315,11.95h0.584c0.647,0,1.392-0.248,1.392-1.023c0-0.911-0.647-0.968-1.407-0.968h-0.568V11.95z"/>
</g>
<polygon opacity="0.2" points="23.121,3.121 21,1 12.061,9.939 3.121,1 1,3.121 9.939,12.061 1,21 3.121,23.121 12.061,14.182 
	21,23.121 23.121,21 14.182,12.061 "/>
<g>
	<path d="M0.764,8.479h1.439c0.992,0,1.64,0.424,1.64,1.447c0,0.72-0.552,1.199-1.239,1.287v0.017
		c0.447,0.056,0.543,0.296,0.719,0.671l0.952,2.159H3.667l-0.808-1.887c-0.32-0.72-0.561-0.744-1.088-0.744H1.315v2.631H0.764V8.479
		z M1.315,10.95h0.584c0.647,0,1.392-0.248,1.392-1.023c0-0.911-0.647-0.968-1.407-0.968H1.315V10.95z"/>
</g>
<g>
	<path d="M17.764,8.479h1.439c0.992,0,1.64,0.424,1.64,1.447c0,0.72-0.552,1.199-1.239,1.287v0.017
		c0.447,0.056,0.543,0.296,0.719,0.671l0.952,2.159h-0.607l-0.808-1.887c-0.32-0.72-0.561-0.744-1.088-0.744h-0.456v2.631h-0.552
		V8.479z M18.315,10.95h0.584c0.647,0,1.392-0.248,1.392-1.023c0-0.911-0.647-0.968-1.407-0.968h-0.568V10.95z"/>
</g>
<polygon points="22.121,2.121 20,0 11.061,8.939 2.121,0 0,2.121 8.939,11.061 0,20 2.121,22.121 11.061,13.182 20,22.121 
	22.121,20 13.182,11.061 "/>
</svg>
