<?xml version="1.0" encoding="utf-8"?>
<!-- Generator: Adobe Illustrator 22.0.1, SVG Export Plug-In . SVG Version: 6.00 Build 0)  -->
<svg version="1.1" id="Layer_1" xmlns="http://www.w3.org/2000/svg" xmlns:xlink="http://www.w3.org/1999/xlink" x="0px" y="0px"
	 width="14px" height="14px" viewBox="0 0 14 14" enable-background="new 0 0 14 14" xml:space="preserve">
<polygon points="8.4,7 14,1.4 12.6,0 7,5.6 1.4,0 0,1.4 5.6,7 0,12.6 1.4,14 7,8.4 12.6,14 14,12.6 "/>
<rect x="2" y="8" width="1" height="1"/>
<rect x="2" y="6" width="1" height="1"/>
<polygon points="2,6 2,5 1,5 0,5 0,9 1,9 1,8 2,8 2,7 1,7 1,6 "/>
<rect x="13" y="8" width="1" height="1"/>
<rect x="13" y="6" width="1" height="1"/>
<polygon points="13,6 13,5 12,5 11,5 11,9 12,9 12,8 13,8 13,7 12,7 12,6 "/>
</svg>
