<?xml version="1.0" encoding="utf-8"?>
<!-- Generator: Adobe Illustrator 20.0.0, SVG Export Plug-In . SVG Version: 6.00 Build 0)  -->
<svg version="1.1" id="Layer_1" xmlns="http://www.w3.org/2000/svg" xmlns:xlink="http://www.w3.org/1999/xlink" x="0px" y="0px"
	 width="14px" height="14px" viewBox="0 0 14 14" enable-background="new 0 0 14 14" xml:space="preserve">
<g>
	<path fill="#FFFFFF" d="M0,5h1.1c0.7,0,1.2,0.3,1.2,1.1c0,0.5-0.4,0.9-0.9,1v0c0.3,0,0.4,0.2,0.5,0.5l0.7,1.6H2.2L1.6,7.8C1.3,7.2,1.2,7.2,0.8,7.2
		H0.4v2H0V5z M0.4,6.9h0.4c0.5,0,1-0.2,1-0.8c0-0.7-0.5-0.7-1.1-0.7H0.4V6.9z"/>
</g>
<g>
	<path fill="#FFFFFF" d="M11.4,5h1.1c0.7,0,1.2,0.3,1.2,1.1c0,0.5-0.4,0.9-0.9,1v0c0.3,0,0.4,0.2,0.5,0.5L14,9.2h-0.5l-0.6-1.4
		c-0.2-0.5-0.4-0.6-0.8-0.6h-0.3v2h-0.4L11.4,5L11.4,5z M11.8,6.9h0.4c0.5,0,1-0.2,1-0.8c0-0.7-0.5-0.7-1.1-0.7h-0.4V6.9z"/>
</g>
<polygon fill="#FFFFFF" points="8.4,7 14,1.4 12.6,0 7,5.6 1.4,0 0,1.4 5.6,7 0,12.6 1.4,14 7,8.4 12.6,14 14,12.6 "/>
</svg>
