<?xml version="1.0" encoding="utf-8"?>
<!-- Generator: Adobe Illustrator 18.1.1, SVG Export Plug-In . SVG Version: 6.00 Build 0)  -->
<svg version="1.1" id="Layer_1" xmlns="http://www.w3.org/2000/svg" xmlns:xlink="http://www.w3.org/1999/xlink" x="0px" y="0px"
	 viewBox="0 0 16 16" enable-background="new 0 0 16 16" xml:space="preserve">
<g opacity="0.1">
	<path d="M2,7h1.08C3.823,7,4.31,7.317,4.31,8.085c0,0.54-0.414,0.899-0.93,0.966v0.012c0.336,0.042,0.407,0.222,0.539,0.504
		l0.714,1.619H4.177L3.571,9.771c-0.239-0.54-0.42-0.558-0.815-0.558H2.414v1.973H2V7z M2.414,8.853h0.438
		c0.486,0,1.044-0.186,1.044-0.768c0-0.684-0.486-0.726-1.056-0.726H2.414V8.853z"/>
</g>
<g opacity="0.1">
	<path d="M13.367,7h1.08c0.743,0,1.229,0.317,1.229,1.085c0,0.54-0.414,0.899-0.93,0.966v0.012c0.336,0.042,0.407,0.222,0.539,0.504
		L16,11.186h-0.456l-0.605-1.415c-0.239-0.54-0.42-0.558-0.815-0.558h-0.342v1.973h-0.414V7z M13.781,8.853h0.438
		c0.486,0,1.044-0.186,1.044-0.768c0-0.684-0.486-0.726-1.056-0.726h-0.426V8.853z"/>
</g>
<polygon opacity="0.1" points="10.414,9 16,3.414 14.586,2 9,7.586 3.414,2 2,3.414 7.586,9 2,14.586 3.414,16 9,10.414 14.586,16 
	16,14.586 "/>
<g opacity="0.2">
	<path d="M1,6h1.08C2.823,6,3.31,6.317,3.31,7.085c0,0.54-0.414,0.899-0.93,0.966v0.012c0.336,0.042,0.407,0.222,0.539,0.504
		l0.714,1.619H3.177L2.571,8.771c-0.239-0.54-0.42-0.558-0.815-0.558H1.414v1.973H1V6z M1.414,7.853h0.438
		c0.486,0,1.044-0.186,1.044-0.768c0-0.684-0.486-0.726-1.056-0.726H1.414V7.853z"/>
</g>
<g opacity="0.2">
	<path d="M12.367,6h1.08c0.743,0,1.229,0.317,1.229,1.085c0,0.54-0.414,0.899-0.93,0.966v0.012c0.336,0.042,0.407,0.222,0.539,0.504
		L15,10.186h-0.456l-0.605-1.415c-0.239-0.54-0.42-0.558-0.815-0.558h-0.342v1.973h-0.414V6z M12.781,7.853h0.438
		c0.486,0,1.044-0.186,1.044-0.768c0-0.684-0.486-0.726-1.056-0.726h-0.426V7.853z"/>
</g>
<polygon opacity="0.2" points="9.414,8 15,2.414 13.586,1 8,6.586 2.414,1 1,2.414 6.586,8 1,13.586 2.414,15 8,9.414 13.586,15 
	15,13.586 "/>
<g>
	<path d="M0,5h1.08C1.823,5,2.31,5.317,2.31,6.085c0,0.54-0.414,0.899-0.93,0.966v0.012c0.336,0.042,0.407,0.222,0.539,0.504
		l0.714,1.619H2.177L1.571,7.771c-0.239-0.54-0.42-0.558-0.815-0.558H0.414v1.973H0V5z M0.414,6.853h0.438
		c0.486,0,1.044-0.186,1.044-0.768c0-0.684-0.486-0.726-1.056-0.726H0.414V6.853z"/>
</g>
<g>
	<path d="M11.367,5h1.08c0.743,0,1.229,0.317,1.229,1.085c0,0.54-0.414,0.899-0.93,0.966v0.012c0.336,0.042,0.407,0.222,0.539,0.504
		L14,9.186h-0.456l-0.605-1.415c-0.239-0.54-0.42-0.558-0.815-0.558h-0.342v1.973h-0.414V5z M11.781,6.853h0.438
		c0.486,0,1.044-0.186,1.044-0.768c0-0.684-0.486-0.726-1.056-0.726h-0.426V6.853z"/>
</g>
<polygon points="8.414,7 14,1.414 12.586,0 7,5.586 1.414,0 0,1.414 5.586,7 0,12.586 1.414,14 7,8.414 12.586,14 14,12.586 "/>
</svg>
