<?xml version="1.0" encoding="utf-8"?>
<!-- Generator: Adobe Illustrator 22.0.1, SVG Export Plug-In . SVG Version: 6.00 Build 0)  -->
<svg version="1.1" id="Layer_1" xmlns="http://www.w3.org/2000/svg" xmlns:xlink="http://www.w3.org/1999/xlink" x="0px" y="0px"
	 width="22px" height="22px" viewBox="0 0 22 22" enable-background="new 0 0 22 22" xml:space="preserve">
<path fill="#FFFFFF" d="M3.3,13L3,12.5V12H2.7L2,11h1v-1V9V8H1H0v6h1v-2h0.7L2,12.5V13h0.3L3,14h1v-1H3.3z M1,9h1v1H1V9z"/>
<path fill="#FFFFFF" d="M21.3,13L21,12.5V12h-0.3L20,11h1v-1V9V8h-2h-1v6h1v-2h0.7l0.3,0.5V13h0.3l0.7,1h1v-1H21.3z M19,9h1v1h-1V9z
	"/>
<polygon fill="#FFFFFF" points="0,22 0,22 0,22 "/>
<polygon fill="#FFFFFF" points="22,22 22,22 22,22 "/>
<polygon fill="#FFFFFF" points="0,0 0,0 0,0 "/>
<polygon fill="#FFFFFF" points="22,0 22,0 22,0 "/>
<polygon fill="#FFFFFF" points="13.1,11 22,2.1 19.9,0 11,8.9 2.1,0 0,2.1 8.9,11 0,19.9 2.1,22 11,13.1 19.9,22 22,19.9 "/>
</svg>
