<?xml version="1.0" encoding="utf-8"?>
<!-- Generator: Adobe Illustrator 22.0.1, SVG Export Plug-In . SVG Version: 6.00 Build 0)  -->
<svg version="1.1" id="Layer_1" xmlns="http://www.w3.org/2000/svg" xmlns:xlink="http://www.w3.org/1999/xlink" x="0px" y="0px"
	 width="30px" height="30px" viewBox="0 0 30 30" enable-background="new 0 0 30 30" xml:space="preserve">
<g>
	<path d="M1,10.5h2.2c1.5,0,2.5,0.6,2.5,2.2c0,1.1-0.8,1.8-1.9,1.9l0,0c0.7,0.1,0.8,0.4,1.1,1l1.4,3.2h-1L4.1,16c-0.5-1-0.8-1-1.6-1
		H1.8v3.9H1V10.5z M1.8,14.2h0.9c1,0,2.1-0.4,2.1-1.5c0-1.4-1-1.5-2.1-1.5H1.8V14.2z"/>
</g>
<g>
	<path d="M24,10.5h2.2c1.5,0,2.5,0.6,2.5,2.2c0,1.1-0.8,1.8-1.9,1.9l0,0c0.7,0.1,0.8,0.4,1.1,1l1.4,3.2h-0.9L27.2,16
		c-0.6-1-0.9-1-1.7-1h-0.7v3.9H24V10.5z M24.8,14.2h0.9c1,0,2.1-0.4,2.1-1.5c0-1.4-1-1.5-2.1-1.5h-0.9V14.2z"/>
</g>
<polygon points="29.8,2.8 27,0 14.9,12.1 2.8,0 0,2.8 12.1,14.9 0,27 2.8,29.8 14.9,17.7 27,29.8 29.8,27 17.7,14.9 "/>
</svg>
