<?xml version="1.0" encoding="utf-8"?>
<!-- Generator: Adobe Illustrator 21.1.0, SVG Export Plug-In . SVG Version: 6.00 Build 0)  -->
<svg version="1.1" id="Icons" xmlns="http://www.w3.org/2000/svg" xmlns:xlink="http://www.w3.org/1999/xlink" x="0px" y="0px"
	 width="14px" height="14px" viewBox="0 0 14 14" enable-background="new 0 0 14 14" xml:space="preserve">
<g>
	<rect x="3" y="9" fill="#231F20" width="2" height="2"/>
	<rect x="10" y="9" fill="#231F20" width="2" height="2"/>
	<path fill="#231F20" d="M0,3l1-1h9v1H8L7,4v2H0V3z M5,5V3.6C5,3.3,4.7,3,4.4,3H1.7C1.3,3,1,3.3,1,3.7V5H5z"/>
	<path fill="#231F20" d="M8,4h3v1h1v1h1v1l1,1v2h-1V9h-1V8h-2v1H9v1H6V9H5V8H3v1H2v1H0V7h8V4z M9,7h2V6l-1-1H9V7z"/>
</g>
</svg>
