<?xml version="1.0" encoding="utf-8"?>
<!-- Generator: Adobe Illustrator 21.1.0, SVG Export Plug-In . SVG Version: 6.00 Build 0)  -->
<svg version="1.1" id="Icons" xmlns="http://www.w3.org/2000/svg" xmlns:xlink="http://www.w3.org/1999/xlink" x="0px" y="0px"
	 width="30px" height="30px" viewBox="0 0 30 30" enable-background="new 0 0 30 30" xml:space="preserve">
<path fill="#FFFFFF" d="M23,9V8h-1V7h-1V6H1v1H0v9h17v-5h1v-1h4L23,9z M12,13H3v-3h1V9h7v1h1V13z M21,9h-4V7h3v1h1V9z"/>
<path fill="#FFFFFF" d="M24,11h-5v1h-1v5H0v4h4v-1h1v-1h1v-1h3v1h1v1h1v1h10v-1h1v-1h1v-1h3v1h1v1h1v1h2v-3L24,11z M25,16h-5v-3h1l1-1l3,3V16z"/>
<path fill="#FFFFFF" d="M10,21.5c0,1.4-1.1,2.5-2.5,2.5S5,22.9,5,21.5S6.1,19,7.5,19S10,20.1,10,21.5z M7.5,20C6.7,20,6,20.7,6,21.5S6.7,23,7.5,23
	S9,22.3,9,21.5S8.3,20,7.5,20z"/>
<path fill="#FFFFFF" d="M27,21.5c0,1.4-1.1,2.5-2.5,2.5S22,22.9,22,21.5s1.1-2.5,2.5-2.5S27,20.1,27,21.5z M24.5,20c-0.8,0-1.5,0.7-1.5,1.5
	s0.7,1.5,1.5,1.5s1.5-0.7,1.5-1.5S25.3,20,24.5,20z"/>
</svg>
