<?xml version="1.0" encoding="utf-8"?>
<!-- Generator: Adobe Illustrator 18.1.1, SVG Export Plug-In . SVG Version: 6.00 Build 0)  -->
<svg version="1.1" id="Icons" xmlns="http://www.w3.org/2000/svg" xmlns:xlink="http://www.w3.org/1999/xlink" x="0px" y="0px"
	 viewBox="0 0 24 24" enable-background="new 0 0 24 24" xml:space="preserve">
<g opacity="0.5">
	<path d="M2,15h13v-3l1-1h4v1h1v1h1v1h1v1l1,1v2h-1v-1h-1v-1h-3v1h-1v1h-8v-1H9v-1H6v1H5v1H2V15z M17,12v2h3v-1h-1v-1H17z"/>
	<path d="M8.2,20H6.8C6.4,20,6,19.6,6,19.2v-1.4C6,17.4,6.4,17,6.8,17h1.4C8.6,17,9,17.4,9,17.8v1.4C9,19.6,8.6,20,8.2,20z M8,18H7
		v1h1V18z"/>
	<path d="M21.2,20h-1.4c-0.4,0-0.8-0.4-0.8-0.8v-1.4c0-0.4,0.4-0.8,0.8-0.8h1.4c0.4,0,0.8,0.4,0.8,0.8v1.4C22,19.6,21.6,20,21.2,20z
		 M21,18h-1v1h1V18z"/>
	<path d="M18,9V8l-1-1H3v1H2v6h12v-3h1v-1h4V9H18z M4,12l1-3h5l1,3H4z M17,9h-3V8h3V9z"/>
</g>
<g opacity="0.75">
	<path d="M1,14h13v-3l1-1h4v1h1v1h1v1h1v1l1,1v2h-1v-1h-1v-1h-3v1h-1v1H9v-1H8v-1H5v1H4v1H1V14z M16,11v2h3v-1h-1v-1H16z"/>
	<path d="M7.2,19H5.8C5.4,19,5,18.6,5,18.2v-1.4C5,16.4,5.4,16,5.8,16h1.4C7.6,16,8,16.4,8,16.8v1.4C8,18.6,7.6,19,7.2,19z M7,17H6
		v1h1V17z"/>
	<path d="M20.2,19h-1.4c-0.4,0-0.8-0.4-0.8-0.8v-1.4c0-0.4,0.4-0.8,0.8-0.8h1.4c0.4,0,0.8,0.4,0.8,0.8v1.4C21,18.6,20.6,19,20.2,19z
		 M20,17h-1v1h1V17z"/>
	<path d="M17,8V7l-1-1H2v1H1v6h12v-3h1V9h4V8H17z M3,11l1-3h5l1,3H3z M16,8h-3V7h3V8z"/>
</g>
<g>
	<path fill="#FFFFFF" d="M0,13h13v-3l1-1h4v1h1v1h1v1h1v1l1,1v2h-1v-1h-1v-1h-3v1h-1v1H8v-1H7v-1H4v1H3v1H0V13z M15,10v2h3v-1h-1v-1
		H15z"/>
	<path fill="#FFFFFF" d="M6.2,18H4.8C4.4,18,4,17.6,4,17.2v-1.4C4,15.4,4.4,15,4.8,15h1.4C6.6,15,7,15.4,7,15.8v1.4
		C7,17.6,6.6,18,6.2,18z M6,16H5v1h1V16z"/>
	<path fill="#FFFFFF" d="M19.2,18h-1.4c-0.4,0-0.8-0.4-0.8-0.8v-1.4c0-0.4,0.4-0.8,0.8-0.8h1.4c0.4,0,0.8,0.4,0.8,0.8v1.4
		C20,17.6,19.6,18,19.2,18z M19,16h-1v1h1V16z"/>
	<path fill="#FFFFFF" d="M16,7V6l-1-1H1v1H0v6h12V9h1V8h4V7H16z M2,10l1-3h5l1,3H2z M15,7h-3V6h3V7z"/>
</g>
</svg>
