<?xml version="1.0" encoding="utf-8"?>
<!-- Generator: Adobe Illustrator 21.1.0, SVG Export Plug-In . SVG Version: 6.00 Build 0)  -->
<svg version="1.1" id="Icons" xmlns="http://www.w3.org/2000/svg" xmlns:xlink="http://www.w3.org/1999/xlink" x="0px" y="0px"
	 width="22px" height="22px" viewBox="0 0 22 22" enable-background="new 0 0 22 22" xml:space="preserve">
<g>
	<path fill="#FFFFFF" d="M0,12h13V9l1-1h4v1h1v1h1v1h1v1l1,1v2h-1v-1h-1v-1h-3v1h-1v1H8v-1H7v-1H4v1H3v1H0V12z M15,9v2h3v-1h-1V9H15
		z"/>
	<path fill="#FFFFFF" d="M6.2,17H4.8C4.4,17,4,16.6,4,16.2v-1.4C4,14.4,4.4,14,4.8,14h1.4C6.6,14,7,14.4,7,14.8v1.4
		C7,16.6,6.6,17,6.2,17z M6,15H5v1h1V15z"/>
	<path fill="#FFFFFF" d="M19.2,17h-1.4c-0.4,0-0.8-0.4-0.8-0.8v-1.4c0-0.4,0.4-0.8,0.8-0.8h1.4c0.4,0,0.8,0.4,0.8,0.8v1.4
		C20,16.6,19.6,17,19.2,17z M19,15h-1v1h1V15z"/>
	<path fill="#FFFFFF" d="M16,6V5l-1-1H1v1H0v6h12V8h1V7h4V6H16z M2,9l1-3h5l1,3H2z M15,6h-3V5h3V6z"/>
</g>
</svg>
