<?xml version="1.0" encoding="utf-8"?>
<!-- Generator: Adobe Illustrator 22.1.0, SVG Export Plug-In . SVG Version: 6.00 Build 0)  -->
<svg version="1.1" id="Layer_1" xmlns="http://www.w3.org/2000/svg" xmlns:xlink="http://www.w3.org/1999/xlink" x="0px" y="0px"
	 width="22px" height="22px" viewBox="0 0 22 22" enable-background="new 0 0 22 22" xml:space="preserve">
<path d="M10,9c-1.1,0-2,0.9-2,2c0,1.1,0.9,2,2,2s2-0.9,2-2C12,9.9,11.1,9,10,9z M10,12c-0.6,0-1-0.4-1-1c0-0.6,0.4-1,1-1s1,0.4,1,1
	C11,11.6,10.6,12,10,12z"/>
<path d="M7,11c0-1.7,1.3-3,3-3s3,1.3,3,3h9V9.4h-1.6V3.1c0-2-1.2-3.1-3.1-3.1H3.1C1.2,0,0,1.2,0,3.1v4.7C0,9.3,1.7,11,3.1,11H4L4,11
	c0,0.6,0,1.1-0.2,1.4c-0.1,0.1-0.2,0.2-0.3,0.3c-0.5,0.5-1.1,0.9-1.8,1.3c-0.2,0.2-0.5,0.3-0.7,0.6c-0.6,0.7-0.7,1.8-0.2,2.7
	c0.4,0.7,1.2,1.5,2.2,1.5C4.5,19,5.5,19,6.5,19c0.2,0,0.4,0,0.6,0c0.3,0,0.5,0,0.8,0c0.5,0,0.9,0,1.4,0H15c0.1,1.1,0.7,2,1.5,2
	c0.2,0,0.5,0,0.5,0h1v-1h2.5c0.3,0,0.5-0.2,0.5-0.5c0-0.3-0.2-0.5-0.5-0.5H18v-1h2.5c0.3,0,0.5-0.2,0.5-0.5c0-0.3-0.2-0.5-0.5-0.5
	H18v-1h-1c0,0-0.3,0-0.5,0c-0.7,0-1.3,0.9-1.5,2l-5.7,0c-0.5,0-1,0-1.4,0c-0.5,0-0.9,0-1.4,0c-1,0-2,0-3.5-0.1c-0.5,0-1-0.4-1.4-1
	c-0.3-0.5-0.3-1.2,0.1-1.5c0.1-0.1,0.3-0.3,0.6-0.4c0.7-0.4,1.3-0.9,1.9-1.4c0.2-0.1,0.3-0.3,0.5-0.5c0.5-0.6,0.4-1.5,0.4-2h0.1H7z
	 M13,3c0-0.4,0.6-1,1-1h3c0.4,0,1,0.6,1,1v1c0,0.4-0.6,1-1,1h-3c-0.4,0-1-0.6-1-1V3z M3,4V3c0-0.4,0.6-1,1-1h5c0.4,0,1,0.6,1,1v1
	c0,0.4-0.6,1-1,1H4C3.6,5,3,4.4,3,4z"/>
</svg>
