<?xml version="1.0" encoding="utf-8"?>
<!-- Generator: Adobe Illustrator 22.1.0, SVG Export Plug-In . SVG Version: 6.00 Build 0)  -->
<svg version="1.1" id="Layer_1" xmlns="http://www.w3.org/2000/svg" xmlns:xlink="http://www.w3.org/1999/xlink" x="0px" y="0px"
	 width="30px" height="30px" viewBox="0 0 30 30" enable-background="new 0 0 30 30" xml:space="preserve">
<path fill="#FFFFFF" d="M14.5,13c-1.4,0-2.5,1.1-2.5,2.5c0,1.4,1.1,2.5,2.5,2.5s2.5-1.1,2.5-2.5C17,14.1,15.9,13,14.5,13z M14.5,17
	c-0.8,0-1.5-0.7-1.5-1.5s0.7-1.5,1.5-1.5s1.5,0.7,1.5,1.5S15.3,17,14.5,17z"/>
<path fill="#FFFFFF" d="M30,16v-2h-2V5c0-2.7-1.8-4-4.4-4H4.3C1.6,1,0,2.3,0,5v6.4c0,2,2.3,4.6,4.3,4.6h0.9c0,0.6,0,1.1-0.3,1.5
	c-0.1,0.1-0.2,0.3-0.4,0.4c-0.7,0.6-1.5,1.2-2.4,1.8c-0.3,0.2-0.7,0.5-1.1,0.8c-0.9,1-1.1,2.7-0.3,4.1c0.6,1,1.8,2.2,3.2,2.3
	c2.1,0.1,3.5,0.1,4.8,0.1c0.3,0,0.6,0,0.8,0c0.4,0,0.8,0,1.1,0c0.6,0,1.2,0,1.9,0l7.6,0.1c0.3,1.2,1,2,1.8,2h2v-1h3.5
	c0.3,0,0.5-0.2,0.5-0.5c0-0.3-0.2-0.5-0.5-0.5H24v-3h3.5c0.3,0,0.5-0.2,0.5-0.5c0-0.3-0.2-0.5-0.5-0.5H24v-1h-2c-1,0-1.8,1.3-2,3
	h-7.3c-0.7,0-1.3,0-2,0c-0.6,0-1.2,0-1.9,0c-1.3,0-2.7-0.1-4.7-0.2c-0.6,0-1.2-0.5-1.6-1.3c-0.3-0.6-0.3-1.3,0.1-1.7
	c0.2-0.2,0.4-0.3,0.7-0.5l0.1-0.1c0.9-0.6,1.8-1.2,2.6-1.9c0.2-0.2,0.5-0.4,0.7-0.7c0.6-0.8,0.7-1.9,0.6-2.6h3.9
	c0-0.2-0.1-0.3-0.1-0.5c0-1.9,1.6-3.5,3.5-3.5s3.5,1.6,3.5,3.5c0,0.2,0,0.3-0.1,0.5H30z M14,6c0,1.1-0.9,2-2,2H6C4.9,8,4,7.1,4,6V5
	c0-1.1,0.9-2,2-2h6c1.1,0,2,0.9,2,2V6z M18,5c0-1.1,0.9-2,2-2h3c1.1,0,2,0.9,2,2v1c0,1.1-0.9,2-2,2h-3c-1.1,0-2-0.9-2-2V5z"/>
</svg>
