<?xml version="1.0" encoding="utf-8"?>
<!-- Generator: Adobe Illustrator 18.1.1, SVG Export Plug-In . SVG Version: 6.00 Build 0)  -->
<svg version="1.1" id="Icons" xmlns="http://www.w3.org/2000/svg" xmlns:xlink="http://www.w3.org/1999/xlink" x="0px" y="0px"
	 viewBox="0 0 24 24" enable-background="new 0 0 24 24" xml:space="preserve">
<g opacity="0.1">
	<polygon points="22,22 20,21 19,21 17,22 16,22 14,21 13,21 11,22 10,22 8,21 7,21 5,22 5,24 7,23 8,23 10,24 11,24 13,23 14,23 
		16,24 17,24 19,23 20,23 22,24 23,24 23,22 	"/>
	<path d="M16,5c0,0,7,4.2,7,10c0,0.3,0,1,0,1h-7V5z"/>
	<polygon points="15,2 15,16 4,16 	"/>
	<polygon points="8,19 10,20 11,20 13,19 14,19 16,20 17,20 19,19 19.7,19 22,17 6,17 6,19.5 7,19 	"/>
</g>
<g opacity="0.2">
	<polygon points="21,21 19,20 18,20 16,21 15,21 13,20 12,20 10,21 9,21 7,20 6,20 4,21 4,23 6,22 7,22 9,23 10,23 12,22 13,22 
		15,23 16,23 18,22 19,22 21,23 22,23 22,21 	"/>
	<path d="M15,4c0,0,7,4.2,7,10c0,0.3,0,1,0,1h-7V4z"/>
	<polygon points="14,1 14,15 3,15 	"/>
	<polygon points="7,18 9,19 10,19 12,18 13,18 15,19 16,19 18,18 18.7,18 21,16 5,16 5,18.5 6,18 	"/>
</g>
<g>
	<polygon points="20,20 18,19 17,19 15,20 14,20 12,19 11,19 9,20 8,20 6,19 5,19 3,20 3,22 5,21 6,21 8,22 9,22 11,21 12,21 14,22 
		15,22 17,21 18,21 20,22 21,22 21,20 	"/>
	<path d="M14,3c0,0,7,4.2,7,10c0,0.3,0,1,0,1h-7V3z"/>
	<polygon points="13,0 13,14 2,14 	"/>
	<polygon points="6,17 8,18 9,18 11,17 12,17 14,18 15,18 17,17 17.7,17 20,15 4,15 4,17.5 5,17 	"/>
</g>
</svg>
