<?xml version="1.0" encoding="utf-8"?>
<!-- Generator: Adobe Illustrator 20.0.0, SVG Export Plug-In . SVG Version: 6.00 Build 0)  -->
<svg version="1.1" id="Icons" xmlns="http://www.w3.org/2000/svg" xmlns:xlink="http://www.w3.org/1999/xlink" x="0px" y="0px"
	 width="30px" height="30px" viewBox="0 0 30 30" enable-background="new 0 0 30 30" xml:space="preserve">
<g>
	<path fill="#FFFFFF" d="M19,4c0,0,10,5.6,10,12c0,3,0,3,0,3H19V4z"/>
	<polygon fill="#FFFFFF" points="18,0 18,19 2,19 	"/>
	<path fill="#FFFFFF" d="M8,25l3-1h1l3,1h1l3-1h1l3,1h1l2.4-0.8C27.2,22.8,28,20,28,20H6v4.7L7,25H8z"/>
	<polygon fill="#FFFFFF" points="28,26 27,26 24,27 23,27 20,26 19,26 16,27 15,27 12,26 11,26 8,27 7,27 4,26 3,26 1,26.7 1,29.7 3,29 4,29 7,30 
		8,30 11,29 12,29 15,30 16,30 19,29 20,29 23,30 24,30 27,29 28,29 29,29.3 29,26.3 	"/>
</g>
</svg>
