<?xml version="1.0" encoding="utf-8"?>
<!-- Generator: Adobe Illustrator 20.0.0, SVG Export Plug-In . SVG Version: 6.00 Build 0)  -->
<svg version="1.1" id="Icons" xmlns="http://www.w3.org/2000/svg" xmlns:xlink="http://www.w3.org/1999/xlink" x="0px" y="0px"
	 width="14px" height="14px" viewBox="0 0 14 14" enable-background="new 0 0 14 14" xml:space="preserve">
<g>
	<path fill="#FFFFFF" d="M9,2c0,0,4,2.4,4,5c0,0.6,0,1,0,1H9V2z"/>
	<polygon fill="#FFFFFF" points="8,0 8,8 1,8 	"/>
	<polygon fill="#FFFFFF" points="2,9 13,9 12,11 2,11 	"/>
	<polygon fill="#FFFFFF" points="12,13 10,12 9,12 7,13 6,13 4,12 3,12 1,13 1,14 3,13 4,13 6,14 7,14 9,13 10,13 12,14 13,14 13,13 	"/>
</g>
</svg>
