<?xml version="1.0" encoding="utf-8"?>
<!-- Generator: Adobe Illustrator 18.1.1, SVG Export Plug-In . SVG Version: 6.00 Build 0)  -->
<svg version="1.1" id="Icons" xmlns="http://www.w3.org/2000/svg" xmlns:xlink="http://www.w3.org/1999/xlink" x="0px" y="0px"
	 viewBox="0 0 16 16" enable-background="new 0 0 16 16" xml:space="preserve">
<g opacity="0.5">
	<path d="M11,4c0,0,4,2.4,4,5c0,0.6,0,1,0,1h-4V4z"/>
	<polygon points="10,2 10,10 3,10 	"/>
	<polygon points="4,11 15,11 14,13 4,13 	"/>
	<polygon points="14,15 12,14 11,14 9,15 8,15 6,14 5,14 3,15 3,16 5,15 6,15 8,16 9,16 11,15 12,15 14,16 15,16 15,15 	"/>
</g>
<g opacity="0.75">
	<path d="M10,3c0,0,4,2.4,4,5c0,0.6,0,1,0,1h-4V3z"/>
	<polygon points="9,1 9,9 2,9 	"/>
	<polygon points="3,10 14,10 13,12 3,12 	"/>
	<polygon points="13,14 11,13 10,13 8,14 7,14 5,13 4,13 2,14 2,15 4,14 5,14 7,15 8,15 10,14 11,14 13,15 14,15 14,14 	"/>
</g>
<g>
	<path fill="#E6E6E6" d="M9,2c0,0,4,2.4,4,5c0,0.6,0,1,0,1H9V2z"/>
	<polygon fill="#E6E6E6" points="8,0 8,8 1,8 	"/>
	<polygon fill="#E6E6E6" points="2,9 13,9 12,11 2,11 	"/>
	<polygon fill="#E6E6E6" points="12,13 10,12 9,12 7,13 6,13 4,12 3,12 1,13 1,14 3,13 4,13 6,14 7,14 9,13 10,13 12,14 13,14 
		13,13 	"/>
</g>
</svg>
