<?xml version="1.0" encoding="utf-8"?>
<!-- Generator: Adobe Illustrator 20.0.0, SVG Export Plug-In . SVG Version: 6.00 Build 0)  -->
<svg version="1.1" id="Icons" xmlns="http://www.w3.org/2000/svg" xmlns:xlink="http://www.w3.org/1999/xlink" x="0px" y="0px"
	 width="22px" height="22px" viewBox="0 0 22 22" enable-background="new 0 0 22 22" xml:space="preserve">
<g>
	<polygon fill="#FFFFFF" points="20,20 18,19 17,19 15,20 14,20 12,19 11,19 9,20 8,20 6,19 5,19 3,20 3,22 5,21 6,21 8,22 9,22 11,21 12,21 14,22 
		15,22 17,21 18,21 20,22 21,22 21,20 	"/>
	<path fill="#FFFFFF" d="M14,3c0,0,7,4.2,7,10c0,0.3,0,1,0,1h-7V3z"/>
	<polygon fill="#FFFFFF" points="13,0 13,14 2,14 	"/>
	<polygon fill="#FFFFFF" points="6,17 8,18 9,18 11,17 12,17 14,18 15,18 17,17 17.7,17 20,15 4,15 4,17.5 5,17 	"/>
</g>
</svg>
