<?xml version="1.0" encoding="utf-8"?>
<!-- Generator: Adobe Illustrator 20.0.0, SVG Export Plug-In . SVG Version: 6.00 Build 0)  -->
<svg version="1.1" id="Icons" xmlns="http://www.w3.org/2000/svg" xmlns:xlink="http://www.w3.org/1999/xlink" x="0px" y="0px"
	 width="14px" height="14px" viewBox="0 0 14 14" enable-background="new 0 0 14 14" xml:space="preserve">
<g>
	<path fill="#FFFFFF" d="M13,6V2l-1-1H3L2,2v4l1,1h3V6h1V5h1v1h1v1h5V6H13z M7,3H4V2h3V3z M11,3H9V2h2V3z"/>
	<polygon fill="#FFFFFF" points="6,8 14,8 14,13 0,13 0,8 3,8 3,9 1,9 1,12 8,12 8,9 6,9 	"/>
	<rect fill="#FFFFFF" x="7" y="6" width="1" height="1"/>
	<rect fill="#FFFFFF" x="4" y="8" width="1" height="3.5"/>
	<rect fill="#FFFFFF" x="3.5" y="10" width="2" height="1"/>
</g>
</svg>
