<?xml version="1.0" encoding="utf-8"?>
<!-- Generator: Adobe Illustrator 20.0.0, SVG Export Plug-In . SVG Version: 6.00 Build 0)  -->
<svg version="1.1" id="Icons" xmlns="http://www.w3.org/2000/svg" xmlns:xlink="http://www.w3.org/1999/xlink" x="0px" y="0px"
	 width="30px" height="30px" viewBox="0 0 30 30" enable-background="new 0 0 30 30" xml:space="preserve">
<g>
	<path fill="#FFFFFF" d="M27,13V3h-1V2h-1V1H6v1H5v1H4v9h1v1h1v1h6v-2h1v-1h5v1h1v2h11v-1H27z M16,6l-1,1H8L7,6V5l1-1h7l1,1V6z M25,6l-1,1h-3l-1-1
		V5l1-1h3l1,1V6z"/>
	<path fill="#FFFFFF" d="M14,13v-1h3v1h1v3h-1v1h-3v-1h-1v-3H14z M15,15h1v-1h-1V15z"/>
	<polygon fill="#FFFFFF" points="10,18 29,18 30,19 30,27 29,28 1,28 0,27 0,19 1,18 7,18 7,19 2,19 1,20 1,26 2,27 15,27 16,26 16,20 15,19 10,19 
			"/>
	<polygon fill="#FFFFFF" points="8,17 9,17 9,23 11,23 8.5,26 6,23 8,23 	"/>
</g>
</svg>
