<?xml version="1.0" encoding="utf-8"?>
<!-- Generator: Adobe Illustrator 18.1.1, SVG Export Plug-In . SVG Version: 6.00 Build 0)  -->
<svg version="1.1" id="Icons" xmlns="http://www.w3.org/2000/svg" xmlns:xlink="http://www.w3.org/1999/xlink" x="0px" y="0px"
	 viewBox="0 0 24 24" enable-background="new 0 0 24 24" xml:space="preserve">
<g opacity="0.5">
	<path d="M22,13V5h-1V4H6v1H5v8h1v1h5v-2h1v-1h3v1h1v2h8v-1H22z M13,8H8L7,7l1-1h5l1,1L13,8z M19,8h-2l-1-1l1-1h2l1,1L19,8z"/>
	<path d="M12,12h3v3h-3V12z M13,14h1v-1h-1V14z"/>
	<polygon points="10,16 23,16 24,17 24,22 23,23 3,23 2,22 2,17 3,16 6,16 6,17 4,17 3,18 3,21 4,22 12,22 13,21 13,18 12,17 10,17 
			"/>
	<polygon points="7.5,15 8.5,15 8.5,19 10,19 8,21 6,19 7.5,19 	"/>
</g>
<g opacity="0.75">
	<path d="M21,12V4h-1V3H5v1H4v8h1v1h5v-2h1v-1h3v1h1v2h8v-1H21z M12,7H7L6,6l1-1h5l1,1L12,7z M18,7h-2l-1-1l1-1h2l1,1L18,7z"/>
	<path d="M11,11h3v3h-3V11z M12,13h1v-1h-1V13z"/>
	<polygon points="9,15 22,15 23,16 23,21 22,22 2,22 1,21 1,16 2,15 5,15 5,16 3,16 2,17 2,20 3,21 11,21 12,20 12,17 11,16 9,16 	
		"/>
	<polygon points="6.5,14 7.5,14 7.5,18 9,18 7,20 5,18 6.5,18 	"/>
</g>
<g>
	<path fill="#E6E6E6" d="M20,11V3h-1V2H4v1H3v8h1v1h5v-2h1V9h3v1h1v2h8v-1H20z M11,6H6L5,5l1-1h5l1,1L11,6z M17,6h-2l-1-1l1-1h2l1,1
		L17,6z"/>
	<path fill="#E6E6E6" d="M10,10h3v3h-3V10z M11,12h1v-1h-1V12z"/>
	<polygon fill="#E6E6E6" points="8,14 21,14 22,15 22,20 21,21 1,21 0,20 0,15 1,14 4,14 4,15 2,15 1,16 1,19 2,20 10,20 11,19 
		11,16 10,15 8,15 	"/>
	<polygon fill="#E6E6E6" points="5.5,13 6.5,13 6.5,17 8,17 6,19 4,17 5.5,17 	"/>
</g>
</svg>
