<?xml version="1.0" encoding="utf-8"?>
<!-- Generator: Adobe Illustrator 20.0.0, SVG Export Plug-In . SVG Version: 6.00 Build 0)  -->
<svg version="1.1" id="Icons" xmlns="http://www.w3.org/2000/svg" xmlns:xlink="http://www.w3.org/1999/xlink" x="0px" y="0px"
	 width="22px" height="22px" viewBox="0 0 22 22" enable-background="new 0 0 22 22" xml:space="preserve">
<g>
	<path fill="#231F20" d="M20,10V2h-1V1H4v1H3v8h1v1h5V9h1V8h3v1h1v2h8v-1H20z M11,5H6L5,4l1-1h5l1,1L11,5z M17,5h-2l-1-1l1-1h2l1,1L17,5z"/>
	<path fill="#231F20" d="M10,9h3v3h-3V9z M11,11h1v-1h-1V11z"/>
	<polygon fill="#231F20" points="8,13 21,13 22,14 22,19 21,20 1,20 0,19 0,14 1,13 4,13 4,14 2,14 1,15 1,18 2,19 10,19 11,18 11,15 10,14 8,14 	
		"/>
	<polygon fill="#231F20" points="5.5,12 6.5,12 6.5,16 8,16 6,18 4,16 5.5,16 	"/>
</g>
</svg>
