<?xml version="1.0" encoding="utf-8"?>
<!-- Generator: Adobe Illustrator 20.0.0, SVG Export Plug-In . SVG Version: 6.00 Build 0)  -->
<svg version="1.1" id="Layer_1" xmlns:sketch="http://www.bohemiancoding.com/sketch/ns"
	 xmlns="http://www.w3.org/2000/svg" xmlns:xlink="http://www.w3.org/1999/xlink" x="0px" y="0px" width="22px" height="22px"
	 viewBox="0 0 22 22" enable-background="new 0 0 22 22" xml:space="preserve">
<g id="viewpoint" transform="translate(4.000000, 0.000000)" sketch:type="MSLayerGroup">
	<path fill="#FFFFFF" id="Fill-3_2_" sketch:type="MSShapeGroup" d="M3.2,11c0,1.2-0.9,2.2-2.1,2.2c-1.2,0-2.1-1-2.1-2.2
		c0-1.2,0.9-2.2,2.1-2.2C2.2,8.8,3.2,9.8,3.2,11"/>
	<path fill="#FFFFFF" id="Fill-4_2_" sketch:type="MSShapeGroup" d="M4.6,10.4v1.3l10.6,0.8v-3L4.6,10.4"/>
	<path fill="#FFFFFF" id="Fill-5_2_" sketch:type="MSShapeGroup" d="M2.3,7.5l1.1,0.7L7.7,2L5.3,0.5L2.3,7.5"/>
	<path fill="#FFFFFF" id="Fill-6_2_" sketch:type="MSShapeGroup" d="M4.4,9.8l7.9-3.8l-1.4-2.6L3.8,8.6L4.4,9.8z"/>
	<path fill="#FFFFFF" id="Fill-7_2_" sketch:type="MSShapeGroup" d="M2.3,14.5l1.1-0.7l4.3,6.2l-2.4,1.5L2.3,14.5"/>
	<path fill="#FFFFFF" id="Fill-8_2_" sketch:type="MSShapeGroup" d="M3.8,13.4l0.6-1.2l7.9,3.8l-1.4,2.6L3.8,13.4"/>
</g>
</svg>
