<?xml version="1.0" encoding="UTF-8" standalone="no"?>
<svg width="24px" height="24px" viewBox="0 0 24 24" version="1.1" xmlns="http://www.w3.org/2000/svg" xmlns:xlink="http://www.w3.org/1999/xlink" xmlns:sketch="http://www.bohemiancoding.com/sketch/ns">
    <!-- Generator: Sketch 3.3.3 (12072) - http://www.bohemiancoding.com/sketch -->
    <title>scenic-viewpoint-black-24</title>
    <desc>Created with Sketch.</desc>
    <defs></defs>
    <g id="scenic-viewpoint" stroke="none" stroke-width="1" fill="none" fill-rule="evenodd" sketch:type="MSPage">
        <g id="scenic-viewpoint-black-24" sketch:type="MSArtboardGroup" fill="#1A1918">
            <g id="viewpoint-copy-2" sketch:type="MSLayerGroup" transform="translate(6.000000, 2.000000)" fill-opacity="0.1">
                <path d="M4.69076042,11.0248828 C4.69076042,12.2411034 3.7538125,13.229131 2.59816667,13.229131 C1.44482292,13.229131 0.507875,12.2411034 0.507875,11.0248828 C0.507875,9.80623448 1.44482292,8.8182069 2.59816667,8.8182069 C3.7538125,8.8182069 4.69076042,9.80623448 4.69076042,11.0248828" id="Fill-3" sketch:type="MSShapeGroup"></path>
                <path d="M6.05819792,10.3572966 L6.05819792,11.6900414 L16.6685,12.5178483 L16.6685,9.52948966 L6.05819792,10.3572966" id="Fill-4" sketch:type="MSShapeGroup"></path>
                <path d="M3.78604167,7.53158621 L4.87722917,8.2016 L9.20744792,1.95784828 L6.75803125,0.464882759 L3.78604167,7.53158621" id="Fill-5" sketch:type="MSShapeGroup"></path>
                <path d="M5.91316667,9.78195862 L13.7724792,5.94151724 L12.3543958,3.35371034 L5.28239583,8.62642759 L5.91316667,9.78195862 Z" id="Fill-6" sketch:type="MSShapeGroup"></path>
                <path d="M3.78604167,14.5133241 L4.87722917,13.8457379 L9.20744792,20.0894897 L6.75803125,21.5824552 L3.78604167,14.5133241" id="Fill-7" sketch:type="MSShapeGroup"></path>
                <path d="M5.28239583,13.4209103 L5.91316667,12.2653793 L13.7724792,16.1058207 L12.3543958,18.6936276 L5.28239583,13.4209103" id="Fill-8" sketch:type="MSShapeGroup"></path>
            </g>
            <g id="viewpoint-copy" sketch:type="MSLayerGroup" transform="translate(5.000000, 1.000000)" fill-opacity="0.2">
                <path d="M4.69076042,11.0248828 C4.69076042,12.2411034 3.7538125,13.229131 2.59816667,13.229131 C1.44482292,13.229131 0.507875,12.2411034 0.507875,11.0248828 C0.507875,9.80623448 1.44482292,8.8182069 2.59816667,8.8182069 C3.7538125,8.8182069 4.69076042,9.80623448 4.69076042,11.0248828" id="Fill-3" sketch:type="MSShapeGroup"></path>
                <path d="M6.05819792,10.3572966 L6.05819792,11.6900414 L16.6685,12.5178483 L16.6685,9.52948966 L6.05819792,10.3572966" id="Fill-4" sketch:type="MSShapeGroup"></path>
                <path d="M3.78604167,7.53158621 L4.87722917,8.2016 L9.20744792,1.95784828 L6.75803125,0.464882759 L3.78604167,7.53158621" id="Fill-5" sketch:type="MSShapeGroup"></path>
                <path d="M5.91316667,9.78195862 L13.7724792,5.94151724 L12.3543958,3.35371034 L5.28239583,8.62642759 L5.91316667,9.78195862 Z" id="Fill-6" sketch:type="MSShapeGroup"></path>
                <path d="M3.78604167,14.5133241 L4.87722917,13.8457379 L9.20744792,20.0894897 L6.75803125,21.5824552 L3.78604167,14.5133241" id="Fill-7" sketch:type="MSShapeGroup"></path>
                <path d="M5.28239583,13.4209103 L5.91316667,12.2653793 L13.7724792,16.1058207 L12.3543958,18.6936276 L5.28239583,13.4209103" id="Fill-8" sketch:type="MSShapeGroup"></path>
            </g>
            <g id="viewpoint" sketch:type="MSLayerGroup" transform="translate(4.000000, 0.000000)">
                <path d="M4.69076042,11.0248828 C4.69076042,12.2411034 3.7538125,13.229131 2.59816667,13.229131 C1.44482292,13.229131 0.507875,12.2411034 0.507875,11.0248828 C0.507875,9.80623448 1.44482292,8.8182069 2.59816667,8.8182069 C3.7538125,8.8182069 4.69076042,9.80623448 4.69076042,11.0248828" id="Fill-3" sketch:type="MSShapeGroup"></path>
                <path d="M6.05819792,10.3572966 L6.05819792,11.6900414 L16.6685,12.5178483 L16.6685,9.52948966 L6.05819792,10.3572966" id="Fill-4" sketch:type="MSShapeGroup"></path>
                <path d="M3.78604167,7.53158621 L4.87722917,8.2016 L9.20744792,1.95784828 L6.75803125,0.464882759 L3.78604167,7.53158621" id="Fill-5" sketch:type="MSShapeGroup"></path>
                <path d="M5.91316667,9.78195862 L13.7724792,5.94151724 L12.3543958,3.35371034 L5.28239583,8.62642759 L5.91316667,9.78195862 Z" id="Fill-6" sketch:type="MSShapeGroup"></path>
                <path d="M3.78604167,14.5133241 L4.87722917,13.8457379 L9.20744792,20.0894897 L6.75803125,21.5824552 L3.78604167,14.5133241" id="Fill-7" sketch:type="MSShapeGroup"></path>
                <path d="M5.28239583,13.4209103 L5.91316667,12.2653793 L13.7724792,16.1058207 L12.3543958,18.6936276 L5.28239583,13.4209103" id="Fill-8" sketch:type="MSShapeGroup"></path>
            </g>
        </g>
    </g>
</svg>