<?xml version="1.0" encoding="utf-8"?>
<!-- Generator: Adobe Illustrator 20.0.0, SVG Export Plug-In . SVG Version: 6.00 Build 0)  -->
<svg version="1.1" id="Layer_1" xmlns:sketch="http://www.bohemiancoding.com/sketch/ns"
	 xmlns="http://www.w3.org/2000/svg" xmlns:xlink="http://www.w3.org/1999/xlink" x="0px" y="0px" width="30px" height="30px"
	 viewBox="0 0 30 30" enable-background="new 0 0 30 30" xml:space="preserve">
<g id="viewpoint" transform="translate(4.000000, 0.000000)" sketch:type="MSLayerGroup">
	<path fill="#231F20" id="Fill-3_2_" sketch:type="MSShapeGroup" d="M6.1,15c0,1.7-1.3,3-3,3c-1.6,0-3-1.3-3-3c0-1.7,1.3-3,3-3
		C4.8,12,6.1,13.4,6.1,15"/>
	<path fill="#231F20" id="Fill-4_2_" sketch:type="MSShapeGroup" d="M8,14.1v1.8l15,1.1V13L8,14.1"/>
	<path fill="#231F20" id="Fill-5_2_" sketch:type="MSShapeGroup" d="M4.8,10.3l1.5,0.9l6.1-8.5L9,0.6L4.8,10.3"/>
	<path fill="#231F20" id="Fill-6_2_" sketch:type="MSShapeGroup" d="M7.8,13.3l11.1-5.2l-2-3.5l-10,7.2L7.8,13.3z"/>
	<path fill="#231F20" id="Fill-7_2_" sketch:type="MSShapeGroup" d="M4.8,19.8l1.5-0.9l6.1,8.5l-3.5,2L4.8,19.8"/>
	<path fill="#231F20" id="Fill-8_2_" sketch:type="MSShapeGroup" d="M6.9,18.3l0.9-1.6L18.9,22l-2,3.5L6.9,18.3"/>
</g>
</svg>
