<?xml version="1.0" encoding="UTF-8" standalone="no"?>
<svg width="32px" height="32px" viewBox="0 0 32 32" version="1.1" xmlns="http://www.w3.org/2000/svg" xmlns:xlink="http://www.w3.org/1999/xlink" xmlns:sketch="http://www.bohemiancoding.com/sketch/ns">
    <!-- Generator: Sketch 3.3.3 (12072) - http://www.bohemiancoding.com/sketch -->
    <title>scenic-viewpoint-slate-32</title>
    <desc>Created with Sketch.</desc>
    <defs></defs>
    <g id="scenic-viewpoint" stroke="none" stroke-width="1" fill="none" fill-rule="evenodd" sketch:type="MSPage">
        <g id="scenic-viewpoint-slate-32" sketch:type="MSArtboardGroup">
            <g id="viewpoint-copy-2" sketch:type="MSLayerGroup" transform="translate(6.000000, 2.000000)" fill-opacity="0.5" fill="#1A1918">
                <path d="M6.62225,15.033931 C6.62225,16.6924138 5.2995,18.0397241 3.668,18.0397241 C2.03975,18.0397241 0.717,16.6924138 0.717,15.033931 C0.717,13.3721379 2.03975,12.0248276 3.668,12.0248276 C5.2995,12.0248276 6.62225,13.3721379 6.62225,15.033931" id="Fill-3" sketch:type="MSShapeGroup"></path>
                <path d="M8.55275,14.1235862 L8.55275,15.9409655 L23.532,17.0697931 L23.532,12.9947586 L8.55275,14.1235862" id="Fill-4" sketch:type="MSShapeGroup"></path>
                <path d="M5.345,10.2703448 L6.8855,11.184 L12.99875,2.6697931 L9.54075,0.633931034 L5.345,10.2703448" id="Fill-5" sketch:type="MSShapeGroup"></path>
                <path d="M8.348,13.3390345 L19.4435,8.10206897 L17.4415,4.57324138 L7.4575,11.7633103 L8.348,13.3390345 Z" id="Fill-6" sketch:type="MSShapeGroup"></path>
                <path d="M5.345,19.7908966 L6.8855,18.8805517 L12.99875,27.3947586 L9.54075,29.4306207 L5.345,19.7908966" id="Fill-7" sketch:type="MSShapeGroup"></path>
                <path d="M7.4575,18.3012414 L8.348,16.7255172 L19.4435,21.9624828 L17.4415,25.4913103 L7.4575,18.3012414" id="Fill-8" sketch:type="MSShapeGroup"></path>
            </g>
            <g id="viewpoint-copy" sketch:type="MSLayerGroup" transform="translate(5.000000, 1.000000)" fill-opacity="0.75" fill="#1A1918">
                <path d="M6.62225,15.033931 C6.62225,16.6924138 5.2995,18.0397241 3.668,18.0397241 C2.03975,18.0397241 0.717,16.6924138 0.717,15.033931 C0.717,13.3721379 2.03975,12.0248276 3.668,12.0248276 C5.2995,12.0248276 6.62225,13.3721379 6.62225,15.033931" id="Fill-3" sketch:type="MSShapeGroup"></path>
                <path d="M8.55275,14.1235862 L8.55275,15.9409655 L23.532,17.0697931 L23.532,12.9947586 L8.55275,14.1235862" id="Fill-4" sketch:type="MSShapeGroup"></path>
                <path d="M5.345,10.2703448 L6.8855,11.184 L12.99875,2.6697931 L9.54075,0.633931034 L5.345,10.2703448" id="Fill-5" sketch:type="MSShapeGroup"></path>
                <path d="M8.348,13.3390345 L19.4435,8.10206897 L17.4415,4.57324138 L7.4575,11.7633103 L8.348,13.3390345 Z" id="Fill-6" sketch:type="MSShapeGroup"></path>
                <path d="M5.345,19.7908966 L6.8855,18.8805517 L12.99875,27.3947586 L9.54075,29.4306207 L5.345,19.7908966" id="Fill-7" sketch:type="MSShapeGroup"></path>
                <path d="M7.4575,18.3012414 L8.348,16.7255172 L19.4435,21.9624828 L17.4415,25.4913103 L7.4575,18.3012414" id="Fill-8" sketch:type="MSShapeGroup"></path>
            </g>
            <g id="viewpoint" sketch:type="MSLayerGroup" transform="translate(4.000000, 0.000000)" fill="#E6E6E6">
                <path d="M6.62225,15.033931 C6.62225,16.6924138 5.2995,18.0397241 3.668,18.0397241 C2.03975,18.0397241 0.717,16.6924138 0.717,15.033931 C0.717,13.3721379 2.03975,12.0248276 3.668,12.0248276 C5.2995,12.0248276 6.62225,13.3721379 6.62225,15.033931" id="Fill-3" sketch:type="MSShapeGroup"></path>
                <path d="M8.55275,14.1235862 L8.55275,15.9409655 L23.532,17.0697931 L23.532,12.9947586 L8.55275,14.1235862" id="Fill-4" sketch:type="MSShapeGroup"></path>
                <path d="M5.345,10.2703448 L6.8855,11.184 L12.99875,2.6697931 L9.54075,0.633931034 L5.345,10.2703448" id="Fill-5" sketch:type="MSShapeGroup"></path>
                <path d="M8.348,13.3390345 L19.4435,8.10206897 L17.4415,4.57324138 L7.4575,11.7633103 L8.348,13.3390345 Z" id="Fill-6" sketch:type="MSShapeGroup"></path>
                <path d="M5.345,19.7908966 L6.8855,18.8805517 L12.99875,27.3947586 L9.54075,29.4306207 L5.345,19.7908966" id="Fill-7" sketch:type="MSShapeGroup"></path>
                <path d="M7.4575,18.3012414 L8.348,16.7255172 L19.4435,21.9624828 L17.4415,25.4913103 L7.4575,18.3012414" id="Fill-8" sketch:type="MSShapeGroup"></path>
            </g>
        </g>
    </g>
</svg>