<?xml version="1.0" encoding="utf-8"?>
<!-- Generator: Adobe Illustrator 20.0.0, SVG Export Plug-In . SVG Version: 6.00 Build 0)  -->
<svg version="1.1" id="Layer_1" xmlns:sketch="http://www.bohemiancoding.com/sketch/ns"
	 xmlns="http://www.w3.org/2000/svg" xmlns:xlink="http://www.w3.org/1999/xlink" x="0px" y="0px" width="14px" height="14px"
	 viewBox="0 0 14 14" enable-background="new 0 0 14 14" xml:space="preserve">
<g id="viewpoint" transform="translate(2.000000, 0.000000)" sketch:type="MSLayerGroup">
	<path fill="#FFFFFF" id="Fill-3_2_" sketch:type="MSShapeGroup" d="M1.9,7c0,0.8-0.6,1.5-1.4,1.5C-0.4,8.5-1,7.8-1,7
		c0-0.8,0.6-1.5,1.4-1.5C1.2,5.5,1.9,6.2,1.9,7"/>
	<path fill="#FFFFFF" id="Fill-4_2_" sketch:type="MSShapeGroup" d="M2.8,6.6v0.9L10.1,8V6L2.8,6.6"/>
	<path fill="#FFFFFF" id="Fill-5_2_" sketch:type="MSShapeGroup" d="M1.2,4.7L2,5.1L5,1L3.3,0L1.2,4.7"/>
	<path fill="#FFFFFF" id="Fill-6_2_" sketch:type="MSShapeGroup" d="M2.7,6.2l5.4-2.5l-1-1.7L2.3,5.4L2.7,6.2z"/>
	<path fill="#FFFFFF" id="Fill-7_2_" sketch:type="MSShapeGroup" d="M1.2,9.3L2,8.9L5,13l-1.7,1L1.2,9.3"/>
	<path fill="#FFFFFF" id="Fill-8_2_" sketch:type="MSShapeGroup" d="M2.3,8.6l0.4-0.8l5.4,2.5l-1,1.7L2.3,8.6"/>
</g>
</svg>
