<?xml version="1.0" encoding="utf-8"?>
<!-- Generator: Adobe Illustrator 25.4.1, SVG Export Plug-In . SVG Version: 6.00 Build 0)  -->
<svg version="1.1" id="Icons" xmlns="http://www.w3.org/2000/svg" xmlns:xlink="http://www.w3.org/1999/xlink" x="0px" y="0px"
	 width="14px" height="14px" viewBox="0 0 14 14" enable-background="new 0 0 14 14" xml:space="preserve">
<path fill="#231F20" d="M2.5,2.9l0.6-0.6l0.1-0.1L2.5,1H0l1.9,1.9l0.3,0.3L2.5,2.9z M10.2,8L6.4,6.7L3.8,2.9L3,3.7l0.1,1l2.6,3.9
	l3.8,0.6l3.2,3.2l0.6-0.6v-0.6L10.2,8z M7.6,4.8l3.2,1.3l-0.6,1.3L7,6.1L7.6,4.8z M12.6,8.3L13,8.9l1-1l-0.8-0.4
	c0.1-0.6-0.3-1.1-0.8-1.3C11.7,6,11.1,6.3,10.9,7c-0.2,0.6,0.2,1.3,0.8,1.4C12,8.4,12.3,8.4,12.6,8.3z"/>
</svg>
