<?xml version="1.0" encoding="utf-8"?>
<!-- Generator: Adobe Illustrator 20.0.0, SVG Export Plug-In . SVG Version: 6.00 Build 0)  -->
<svg version="1.1" id="Icons" xmlns="http://www.w3.org/2000/svg" xmlns:xlink="http://www.w3.org/1999/xlink" x="0px" y="0px"
	 width="22px" height="22px" viewBox="0 0 22 22" enable-background="new 0 0 22 22" xml:space="preserve">
<g>
	<polygon fill="#FFFFFF" points="4,5 5,5 5,4 5.3,4 4,2 0,2 3,5 3.7,6 4,6 	"/>
	<polygon fill="#FFFFFF" points="16,13 10,11 6,5 5,5 5,6 4,6 4,6.5 9,14 15,15 20,20 21,19 21,18 	"/>
	<polygon fill="#FFFFFF" points="11.9,8 17,10 16.1,12 11,10 	"/>
	<path fill="#FFFFFF" d="M19.8,13.4l0.7,1l1.5-1.6l-1.3-0.7c0.1-0.9-0.4-1.7-1.3-2c-1-0.3-2,0.3-2.2,1.3c-0.3,1,0.3,2,1.3,2.2
		C18.9,13.7,19.4,13.6,19.8,13.4z"/>
</g>
</svg>
