<?xml version="1.0" encoding="utf-8"?>
<!-- Generator: Adobe Illustrator 20.0.0, SVG Export Plug-In . SVG Version: 6.00 Build 0)  -->
<svg version="1.1" id="Icons" xmlns="http://www.w3.org/2000/svg" xmlns:xlink="http://www.w3.org/1999/xlink" x="0px" y="0px"
	 width="14px" height="14px" viewBox="0 0 14 14" enable-background="new 0 0 14 14" xml:space="preserve">
<g>
	<polygon fill="#FFFFFF" points="13,11.7 13,11 12.5,11 12,10.3 12,9 11,9 10,8.5 10,8 9,8 8,7.5 8,7 7,7 7,6 6.2,6 6,5.8 6,5 5.3,5 5,4.6 5,4 
		4.5,4 2,1 0,1 0,2 1,2 3,4.4 3,5 3.5,5 4,5.6 4,6 4.3,6 5,6.8 5,7 5.2,7 6,8 7,8.5 7,9 8,9 9,9.5 9,10 10,10 12,12 12,13 13,13 
		14,13 14,12 13.2,12 	"/>
	<rect fill="#FFFFFF" x="12" y="7" width="2" height="2"/>
	<polygon fill="#FFFFFF" points="8,6 8.5,6 9,6.3 9,7 11,7 11,6 10,5.3 10,5 9.5,5 9,4.7 9,4 7,4 7,5 8,5.7 	"/>
</g>
</svg>
