<?xml version="1.0" encoding="utf-8"?>
<!-- Generator: Adobe Illustrator 18.1.1, SVG Export Plug-In . SVG Version: 6.00 Build 0)  -->
<svg version="1.1" id="Icons" xmlns="http://www.w3.org/2000/svg" xmlns:xlink="http://www.w3.org/1999/xlink" x="0px" y="0px"
	 viewBox="0 0 32 32" enable-background="new 0 0 32 32" xml:space="preserve">
<g opacity="0.5">
	<polygon points="2,6 2,5 7,5 8,6 9,9 8,9 7,10 6,10 6,9 5,9 5,8 4,8 4,7 3,7 3,6 	"/>
	<polygon points="8,10 9,10 9,9 11,9 11,10 16,18 18,18 22,19 23,20 24,20 31,27 31,29 30,29 29,29 24,24 15,22 8,11 	"/>
	<rect x="16.8" y="14.8" transform="matrix(0.9806 0.1959 -0.1959 0.9806 3.5476 -3.7729)" width="8" height="2.4"/>
	<path d="M29,20.7l1,1.3l2-2.2l-1.7-1c0.2-1.2-0.6-2.4-1.8-2.7c-1.3-0.4-2.7,0.4-3.1,1.7c-0.4,1.3,0.4,2.7,1.7,3.1
		C27.8,21,28.4,21,29,20.7z"/>
</g>
<g opacity="0.75">
	<polygon points="1,5 1,4 6,4 7,5 8,8 7,8 6,9 5,9 5,8 4,8 4,7 3,7 3,6 2,6 2,5 	"/>
	<polygon points="7,9 8,9 8,8 10,8 10,9 15,17 17,17 21,18 22,19 23,19 30,26 30,28 29,28 28,28 23,23 14,21 7,10 	"/>
	<rect x="15.8" y="13.8" transform="matrix(0.9806 0.1959 -0.1959 0.9806 3.3322 -3.5963)" width="8" height="2.4"/>
	<path d="M28,19.7l1,1.3l2-2.2l-1.7-1c0.2-1.2-0.6-2.4-1.8-2.7c-1.3-0.4-2.7,0.4-3.1,1.7c-0.4,1.3,0.4,2.7,1.7,3.1
		C26.8,20,27.4,20,28,19.7z"/>
</g>
<g>
	<polygon fill="#E6E6E6" points="0,4 0,3 5,3 6,4 7,7 6,7 5,8 4,8 4,7 3,7 3,6 2,6 2,5 1,5 1,4 	"/>
	<polygon fill="#E6E6E6" points="6,8 7,8 7,7 9,7 9,8 14,16 16,16 20,17 21,18 22,18 29,25 29,27 28,27 27,27 22,22 13,20 6,9 	"/>
	<rect x="14.8" y="12.8" transform="matrix(0.9806 0.1959 -0.1959 0.9806 3.1169 -3.4198)" fill="#E6E6E6" width="8" height="2.4"/>
	<path fill="#E6E6E6" d="M27,18.7l1,1.3l2-2.2l-1.7-1c0.2-1.2-0.6-2.4-1.8-2.7c-1.3-0.4-2.7,0.4-3.1,1.7c-0.4,1.3,0.4,2.7,1.7,3.1
		C25.8,19,26.4,19,27,18.7z"/>
</g>
</svg>
