<?xml version="1.0" encoding="utf-8"?>
<!-- Generator: Adobe Illustrator 18.1.1, SVG Export Plug-In . SVG Version: 6.00 Build 0)  -->
<svg version="1.1" id="Icons" xmlns="http://www.w3.org/2000/svg" xmlns:xlink="http://www.w3.org/1999/xlink" x="0px" y="0px"
	 viewBox="0 0 24 24" enable-background="new 0 0 24 24" xml:space="preserve">
<g opacity="0.5">
	<polygon points="6,7 7,7 7,6 7.3,6 6,4 2,4 5,7 5.7,8 6,8 	"/>
	<polygon points="18,15 12,13 8,7 7,7 7,8 6,8 6,8.5 11,16 17,17 22,22 23,21 23,20 	"/>
	<polygon points="13.9,10 19,12 18.1,14 13,12 	"/>
	<path d="M21.8,15.4l0.7,1l1.5-1.6l-1.3-0.7c0.1-0.9-0.4-1.7-1.3-2c-1-0.3-2,0.3-2.2,1.3c-0.3,1,0.3,2,1.3,2.2
		C20.9,15.7,21.4,15.6,21.8,15.4z"/>
</g>
<g opacity="0.75">
	<polygon points="5,6 6,6 6,5 6.3,5 5,3 1,3 4,6 4.7,7 5,7 	"/>
	<polygon points="17,14 11,12 7,6 6,6 6,7 5,7 5,7.5 10,15 16,16 21,21 22,20 22,19 	"/>
	<polygon points="12.9,9 18,11 17.1,13 12,11 	"/>
	<path d="M20.8,14.4l0.7,1l1.5-1.6l-1.3-0.7c0.1-0.9-0.4-1.7-1.3-2c-1-0.3-2,0.3-2.2,1.3c-0.3,1,0.3,2,1.3,2.2
		C19.9,14.7,20.4,14.6,20.8,14.4z"/>
</g>
<g>
	<polygon fill="#FFFFFF" points="4,5 5,5 5,4 5.3,4 4,2 0,2 3,5 3.7,6 4,6 	"/>
	<polygon fill="#FFFFFF" points="16,13 10,11 6,5 5,5 5,6 4,6 4,6.5 9,14 15,15 20,20 21,19 21,18 	"/>
	<polygon fill="#FFFFFF" points="11.9,8 17,10 16.1,12 11,10 	"/>
	<path fill="#FFFFFF" d="M19.8,13.4l0.7,1l1.5-1.6l-1.3-0.7c0.1-0.9-0.4-1.7-1.3-2c-1-0.3-2,0.3-2.2,1.3c-0.3,1,0.3,2,1.3,2.2
		C18.9,13.7,19.4,13.6,19.8,13.4z"/>
</g>
</svg>
