<?xml version="1.0" encoding="utf-8"?>
<!-- Generator: Adobe Illustrator 20.0.0, SVG Export Plug-In . SVG Version: 6.00 Build 0)  -->
<svg version="1.1" id="Icons" xmlns="http://www.w3.org/2000/svg" xmlns:xlink="http://www.w3.org/1999/xlink" x="0px" y="0px"
	 width="30px" height="30px" viewBox="0 0 30 30" enable-background="new 0 0 30 30" xml:space="preserve">
<g>
	<polygon fill="#231F20" points="0,4 0,3 5,3 6,4 7,7 6,7 5,8 4,8 4,7 3,7 3,6 2,6 2,5 1,5 1,4 	"/>
	<polygon fill="#231F20" points="6,8 7,8 7,7 9,7 9,8 14,16 16,16 20,17 21,18 22,18 29,25 29,27 28,27 27,27 22,22 13,20 6,9 	"/>
	<rect fill="#231F20" x="17.6" y="10" transform="matrix(0.1959 -0.9806 0.9806 0.1959 1.4043 29.6956)" width="2.4" height="8"/>
	<path fill="#231F20" d="M27,18.7l1,1.3l2-2.2l-1.7-1c0.2-1.2-0.6-2.4-1.8-2.7c-1.3-0.4-2.7,0.4-3.1,1.7s0.4,2.7,1.7,3.1C25.8,19,26.4,19,27,18.7z"
		/>
</g>
</svg>
