<?xml version="1.0" encoding="utf-8"?>
<!-- Generator: Adobe Illustrator 18.1.1, SVG Export Plug-In . SVG Version: 6.00 Build 0)  -->
<svg version="1.1" id="Layer_1" xmlns="http://www.w3.org/2000/svg" xmlns:xlink="http://www.w3.org/1999/xlink" x="0px" y="0px"
	 viewBox="0 0 32 32" enable-background="new 0 0 32 32" xml:space="preserve">
<path opacity="0.1" d="M29.761,32c-0.607,0-1.194-0.689-1.712-0.917c-0.532-0.249-1.132-0.394-1.76-0.394
	c-0.628,0-1.229,0.145-1.76,0.394C24.011,31.311,23.424,32,22.817,32c-0.601,0-1.187-0.689-1.705-0.917
	c-0.538-0.249-1.139-0.394-1.76-0.394c-0.628,0-1.229,0.145-1.76,0.394C17.068,31.311,16.488,32,15.881,32
	c-0.607,0-1.194-0.689-1.712-0.917c-0.532-0.249-1.132-0.394-1.76-0.394c-0.628,0-1.228,0.145-1.76,0.394
	C10.131,31.311,9.544,32,8.937,32s-1.187-0.689-1.705-0.917c-0.538-0.249-1.139-0.394-1.76-0.394c-0.628,0-1.229,0.145-1.76,0.394
	C3.187,31.311,2.607,32,2,32v-2.561c0.607,0,1.187-0.689,1.712-0.917c0.532-0.249,1.132-0.394,1.76-0.394
	c0.621,0,1.222,0.145,1.76,0.394c0.518,0.228,1.097,0.917,1.705,0.917s1.194-0.689,1.712-0.917c0.532-0.249,1.132-0.394,1.76-0.394
	c0.628,0,1.229,0.145,1.76,0.394c0.518,0.228,1.104,0.917,1.712,0.917c0.607,0,1.187-0.689,1.711-0.917
	c0.532-0.249,1.132-0.394,1.76-0.394c0.621,0,1.222,0.145,1.76,0.394c0.518,0.228,1.104,0.917,1.705,0.917
	c0.607,0,1.194-0.689,1.711-0.917c0.532-0.249,1.132-0.394,1.76-0.394c0.628,0,1.228,0.145,1.76,0.394
	c0.518,0.228,1.104,0.917,1.712,0.917V32z"/>
<path opacity="0.1" d="M31.745,14.841l-4.377,1.392l-1.908-2.236c0.727-0.404,2.095-1.167,2.844-1.711
	c0.33-0.223,0.563-0.734,0.589-0.986l0.891-3.769l1.386,3.807c0.156,0.428,0.791,0.197,0.636-0.231l-1.431-3.931l0.272-0.099
	c0.765-0.279,0.348-1.427-0.418-1.148l-0.272,0.099l-1.383-3.801c-0.156-0.428-0.791-0.197-0.636,0.231L29.32,6.26l-0.188,0.068l0,0
	c-0.705,0.183-4.027,1.003-4.759,0.909c-0.741-0.097-1.524-0.231-2.247-0.321c-0.659-0.076-0.976,0.062-1.542,0.385
	c-0.32,0.19-2.194,1.298-3.967,2.502c-2.184,1.486-4.645,3.967-4.645,3.967l-3.394,1.25c-0.861,0.056-1.694-1.286-2.265-1.805
	l-1.484-1.414c-0.117-0.119-0.289-0.108-0.44-0.06l-2.214,0.659c-0.331,0.099-0.109,0.326-0.007,0.465l3.605,5.284
	c0.392,0.592,1.52,0.886,2.179,0.72l9.232-1.84l0.11-0.04l-0.018,2.937l-6.873,2.509c-0.169,0.061-0.272,0.202-0.213,0.364
	c0,0,0.092,0.253,0.161,0.441c0.066,0.181,0.221,0.265,0.437,0.252c0.626-0.037,2.495-0.188,4.698-0.432
	c1.422-0.299,12.676-4.246,14.805-5.312c1.473-1.16,1.898-1.829,1.898-1.829c0.092-0.151,0.136-0.292,0.075-0.46l-0.165-0.454
	C32.038,14.838,31.914,14.78,31.745,14.841z M18.042,19.649l0.018-2.937l6.648-2.42l1.897,2.226L18.042,19.649z M19.932,8.517
	l1.657,2.07c-2.419,0.881-5.701,2.075-5.915,2.153c-0.13,0.047-0.294,0.019-0.367-0.182c-0.073-0.201-0.073-0.201-0.116-0.318
	c-0.064-0.175-0.03-0.305,0.097-0.439c0.151-0.15,1.065-0.968,1.653-1.373C18.002,9.711,19.131,8.999,19.932,8.517z M24.471,8.334
	c-0.031,0.158-0.194,1.062-0.194,1.062s-0.023,0.221-0.321,0.33c-0.272,0.099-0.811,0.295-1.485,0.541l-1.768-2.214
	c0.06-0.037,0.127-0.075,0.17-0.098c0.496-0.291,0.678-0.357,1.147-0.3c0,0,2.012,0.26,2.152,0.282
	C24.34,7.955,24.507,8.13,24.471,8.334z"/>
<path opacity="0.2" d="M28.761,31c-0.607,0-1.194-0.689-1.712-0.917c-0.532-0.249-1.132-0.394-1.76-0.394
	c-0.628,0-1.229,0.145-1.76,0.394C23.011,30.311,22.424,31,21.817,31c-0.601,0-1.187-0.689-1.705-0.917
	c-0.538-0.249-1.139-0.394-1.76-0.394c-0.628,0-1.229,0.145-1.76,0.394C16.068,30.311,15.488,31,14.881,31
	c-0.607,0-1.194-0.689-1.712-0.917c-0.532-0.249-1.132-0.394-1.76-0.394c-0.628,0-1.228,0.145-1.76,0.394
	C9.131,30.311,8.544,31,7.937,31s-1.187-0.689-1.705-0.917c-0.538-0.249-1.139-0.394-1.76-0.394c-0.628,0-1.229,0.145-1.76,0.394
	C2.187,30.311,1.607,31,1,31v-2.561c0.607,0,1.187-0.689,1.712-0.917c0.532-0.249,1.132-0.394,1.76-0.394
	c0.621,0,1.222,0.145,1.76,0.394c0.518,0.228,1.097,0.917,1.705,0.917s1.194-0.689,1.712-0.917c0.532-0.249,1.132-0.394,1.76-0.394
	c0.628,0,1.229,0.145,1.76,0.394c0.518,0.228,1.104,0.917,1.712,0.917c0.607,0,1.187-0.689,1.711-0.917
	c0.532-0.249,1.132-0.394,1.76-0.394c0.621,0,1.222,0.145,1.76,0.394c0.518,0.228,1.104,0.917,1.705,0.917
	c0.607,0,1.194-0.689,1.711-0.917c0.532-0.249,1.132-0.394,1.76-0.394c0.628,0,1.228,0.145,1.76,0.394
	c0.518,0.228,1.104,0.917,1.712,0.917V31z"/>
<path opacity="0.2" d="M30.745,13.841l-4.377,1.392l-1.908-2.236c0.727-0.404,2.095-1.167,2.844-1.711
	c0.33-0.223,0.563-0.734,0.589-0.986l0.891-3.769l1.386,3.807c0.156,0.428,0.791,0.197,0.636-0.231l-1.431-3.931l0.272-0.099
	c0.765-0.279,0.348-1.427-0.418-1.148l-0.272,0.099l-1.383-3.801c-0.156-0.428-0.791-0.197-0.636,0.231L28.32,5.26l-0.188,0.068l0,0
	c-0.705,0.183-4.027,1.003-4.759,0.909c-0.741-0.097-1.524-0.231-2.247-0.321c-0.659-0.076-0.976,0.062-1.542,0.385
	c-0.32,0.19-2.194,1.298-3.967,2.502c-2.184,1.486-4.645,3.967-4.645,3.967l-3.394,1.25c-0.861,0.056-1.694-1.286-2.265-1.805
	l-1.484-1.414c-0.117-0.119-0.289-0.108-0.44-0.06l-2.214,0.659c-0.331,0.099-0.109,0.326-0.007,0.465l3.605,5.284
	c0.392,0.592,1.52,0.886,2.179,0.72l9.232-1.84l0.11-0.04l-0.018,2.937l-6.873,2.509c-0.169,0.061-0.272,0.202-0.213,0.364
	c0,0,0.092,0.253,0.161,0.441c0.066,0.181,0.221,0.265,0.437,0.252c0.626-0.037,2.495-0.188,4.698-0.432
	c1.422-0.299,12.676-4.246,14.805-5.312c1.473-1.16,1.898-1.829,1.898-1.829c0.092-0.151,0.136-0.292,0.075-0.46l-0.165-0.454
	C31.038,13.838,30.914,13.78,30.745,13.841z M17.042,18.649l0.018-2.937l6.648-2.42l1.897,2.226L17.042,18.649z M18.932,7.517
	l1.657,2.07c-2.419,0.881-5.701,2.075-5.915,2.153c-0.13,0.047-0.294,0.019-0.367-0.182c-0.073-0.201-0.073-0.201-0.116-0.318
	c-0.064-0.175-0.03-0.305,0.097-0.439c0.151-0.15,1.065-0.968,1.653-1.373C17.002,8.711,18.131,7.999,18.932,7.517z M23.471,7.334
	c-0.031,0.158-0.194,1.062-0.194,1.062s-0.023,0.221-0.321,0.33c-0.272,0.099-0.811,0.295-1.485,0.541l-1.768-2.214
	c0.06-0.037,0.127-0.075,0.17-0.098c0.496-0.291,0.678-0.357,1.147-0.3c0,0,2.012,0.26,2.152,0.282
	C23.34,6.955,23.507,7.13,23.471,7.334z"/>
<path d="M27.761,30c-0.607,0-1.194-0.689-1.712-0.917c-0.532-0.249-1.132-0.394-1.76-0.394c-0.628,0-1.229,0.145-1.76,0.394
	C22.011,29.311,21.424,30,20.817,30c-0.601,0-1.187-0.689-1.705-0.917c-0.538-0.249-1.139-0.394-1.76-0.394
	c-0.628,0-1.229,0.145-1.76,0.394C15.068,29.311,14.488,30,13.881,30c-0.607,0-1.194-0.689-1.712-0.917
	c-0.532-0.249-1.132-0.394-1.76-0.394c-0.628,0-1.228,0.145-1.76,0.394C8.131,29.311,7.544,30,6.937,30s-1.187-0.689-1.705-0.917
	c-0.538-0.249-1.139-0.394-1.76-0.394c-0.628,0-1.229,0.145-1.76,0.394C1.187,29.311,0.607,30,0,30v-2.561
	c0.607,0,1.187-0.689,1.712-0.917c0.532-0.249,1.132-0.394,1.76-0.394c0.621,0,1.222,0.145,1.76,0.394
	c0.518,0.228,1.097,0.917,1.705,0.917s1.194-0.689,1.712-0.917c0.532-0.249,1.132-0.394,1.76-0.394c0.628,0,1.229,0.145,1.76,0.394
	c0.518,0.228,1.104,0.917,1.712,0.917c0.607,0,1.187-0.689,1.711-0.917c0.532-0.249,1.132-0.394,1.76-0.394
	c0.621,0,1.222,0.145,1.76,0.394c0.518,0.228,1.104,0.917,1.705,0.917c0.607,0,1.194-0.689,1.711-0.917
	c0.532-0.249,1.132-0.394,1.76-0.394c0.628,0,1.228,0.145,1.76,0.394c0.518,0.228,1.104,0.917,1.712,0.917V30z"/>
<path d="M29.745,12.841l-4.377,1.392l-1.908-2.236c0.727-0.404,2.095-1.167,2.844-1.711c0.33-0.223,0.563-0.734,0.589-0.986
	l0.891-3.769l1.386,3.807c0.156,0.428,0.791,0.197,0.636-0.231l-1.431-3.931l0.272-0.099c0.765-0.279,0.348-1.427-0.418-1.148
	l-0.272,0.099l-1.383-3.801c-0.156-0.428-0.791-0.197-0.636,0.231L27.32,4.26l-0.188,0.068l0,0
	c-0.705,0.183-4.027,1.003-4.759,0.909c-0.741-0.097-1.524-0.231-2.247-0.321c-0.659-0.076-0.976,0.062-1.542,0.385
	c-0.32,0.19-2.194,1.298-3.967,2.502c-2.184,1.486-4.645,3.967-4.645,3.967l-3.394,1.25c-0.861,0.056-1.694-1.286-2.265-1.805
	L2.829,9.803c-0.117-0.119-0.289-0.108-0.44-0.06l-2.214,0.659c-0.331,0.099-0.109,0.326-0.007,0.465l3.605,5.284
	c0.392,0.592,1.52,0.886,2.179,0.72l9.232-1.84l0.11-0.04l-0.018,2.937l-6.873,2.509c-0.169,0.061-0.272,0.202-0.213,0.364
	c0,0,0.092,0.253,0.161,0.441c0.066,0.181,0.221,0.265,0.437,0.252c0.626-0.037,2.495-0.188,4.698-0.432
	c1.422-0.299,12.676-4.246,14.805-5.312c1.473-1.16,1.898-1.829,1.898-1.829c0.092-0.151,0.136-0.292,0.075-0.46l-0.165-0.454
	C30.038,12.838,29.914,12.78,29.745,12.841z M16.042,17.649l0.018-2.937l6.648-2.42l1.897,2.226L16.042,17.649z M17.932,6.517
	l1.657,2.07c-2.419,0.881-5.701,2.075-5.915,2.153c-0.13,0.047-0.294,0.019-0.367-0.182c-0.073-0.201-0.073-0.201-0.116-0.318
	c-0.064-0.175-0.03-0.305,0.097-0.439c0.151-0.15,1.065-0.968,1.653-1.373C16.002,7.711,17.131,6.999,17.932,6.517z M22.471,6.334
	c-0.031,0.158-0.194,1.062-0.194,1.062s-0.023,0.221-0.321,0.33c-0.272,0.099-0.811,0.295-1.485,0.541l-1.768-2.214
	c0.06-0.037,0.127-0.075,0.17-0.098c0.496-0.291,0.678-0.357,1.147-0.3c0,0,2.012,0.26,2.152,0.282
	C22.34,5.955,22.507,6.13,22.471,6.334z"/>
</svg>
