<?xml version="1.0" encoding="utf-8"?>
<!-- Generator: Adobe Illustrator 18.1.1, SVG Export Plug-In . SVG Version: 6.00 Build 0)  -->
<svg version="1.1" id="Layer_1" xmlns="http://www.w3.org/2000/svg" xmlns:xlink="http://www.w3.org/1999/xlink" x="0px" y="0px"
	 viewBox="0 0 24 24" enable-background="new 0 0 24 24" xml:space="preserve">
<path opacity="0.5" d="M22.161,23.788c-0.441,0-0.867-0.5-1.243-0.666c-0.386-0.181-0.822-0.286-1.278-0.286
	c-0.456,0-0.892,0.105-1.278,0.286c-0.376,0.165-0.802,0.666-1.243,0.666c-0.436,0-0.862-0.5-1.238-0.666
	c-0.391-0.181-0.827-0.286-1.278-0.286c-0.456,0-0.892,0.105-1.278,0.286c-0.381,0.165-0.802,0.666-1.243,0.666
	c-0.441,0-0.867-0.5-1.243-0.666c-0.386-0.181-0.822-0.286-1.278-0.286c-0.456,0-0.892,0.105-1.278,0.286
	c-0.376,0.165-0.802,0.666-1.243,0.666c-0.441,0-0.862-0.5-1.238-0.666c-0.391-0.181-0.827-0.286-1.278-0.286
	c-0.456,0-0.892,0.105-1.278,0.286C2.862,23.287,2.441,23.788,2,23.788v-1.86c0.441,0,0.862-0.5,1.243-0.666
	c0.386-0.181,0.822-0.286,1.278-0.286c0.451,0,0.887,0.105,1.278,0.286c0.376,0.165,0.797,0.666,1.238,0.666
	c0.441,0,0.867-0.5,1.243-0.666c0.386-0.181,0.822-0.286,1.278-0.286c0.456,0,0.892,0.105,1.278,0.286
	c0.376,0.165,0.802,0.666,1.243,0.666c0.441,0,0.862-0.5,1.243-0.666c0.386-0.181,0.822-0.286,1.278-0.286
	c0.451,0,0.887,0.105,1.278,0.286c0.376,0.165,0.802,0.666,1.238,0.666c0.441,0,0.867-0.5,1.243-0.666
	c0.386-0.181,0.822-0.286,1.278-0.286c0.456,0,0.892,0.105,1.278,0.286c0.376,0.165,0.802,0.666,1.243,0.666V23.788z"/>
<path opacity="0.5" d="M23.602,11.326l-3.179,1.011l-1.386-1.624c0.528-0.293,1.521-0.847,2.066-1.243
	c0.24-0.162,0.409-0.533,0.427-0.716l0.647-2.737l1.006,2.765c0.113,0.311,0.575,0.143,0.462-0.168L22.606,5.76l0.198-0.072
	c0.556-0.202,0.252-1.036-0.303-0.834l-0.198,0.072l-1.005-2.761c-0.113-0.311-0.575-0.143-0.462,0.168l1.005,2.761l-0.137,0.05l0,0
	c-0.512,0.133-2.925,0.728-3.456,0.66c-0.538-0.071-1.107-0.168-1.632-0.233c-0.479-0.055-0.709,0.045-1.12,0.279
	c-0.232,0.138-1.593,0.943-2.881,1.817c-1.586,1.079-3.373,2.881-3.373,2.881l-2.465,0.908c-0.625,0.041-1.23-0.934-1.645-1.311
	L4.055,9.119c-0.085-0.087-0.21-0.078-0.32-0.044L2.127,9.554c-0.24,0.072-0.079,0.237-0.005,0.338l2.618,3.837
	c0.285,0.43,1.104,0.644,1.583,0.523l6.705-1.336l0.08-0.029l-0.013,2.133l-4.991,1.822c-0.123,0.045-0.197,0.146-0.155,0.264
	c0,0,0.067,0.184,0.117,0.321c0.048,0.132,0.161,0.192,0.317,0.183c0.454-0.027,1.812-0.137,3.412-0.313
	c1.033-0.217,9.206-3.084,10.752-3.858c1.07-0.843,1.378-1.328,1.378-1.328c0.067-0.11,0.099-0.212,0.054-0.334l-0.12-0.33
	C23.815,11.323,23.725,11.281,23.602,11.326z M13.65,14.818l0.013-2.133l4.828-1.757l1.378,1.616L13.65,14.818z M15.023,6.733
	l1.203,1.504C14.47,8.876,12.086,9.743,11.93,9.8c-0.094,0.034-0.213,0.014-0.267-0.132c-0.053-0.146-0.053-0.146-0.084-0.231
	c-0.046-0.127-0.022-0.221,0.07-0.319c0.11-0.109,0.774-0.703,1.2-0.997C13.621,7.6,14.441,7.083,15.023,6.733z M18.319,6.6
	c-0.022,0.115-0.141,0.771-0.141,0.771s-0.016,0.161-0.233,0.239c-0.198,0.072-0.589,0.214-1.079,0.393l-1.284-1.608
	c0.044-0.027,0.092-0.055,0.123-0.071c0.36-0.211,0.492-0.259,0.833-0.218c0,0,1.461,0.188,1.563,0.205
	C18.225,6.325,18.345,6.452,18.319,6.6z"/>
<path opacity="0.75" d="M21.161,22.788c-0.441,0-0.867-0.5-1.243-0.666c-0.386-0.181-0.822-0.286-1.278-0.286
	c-0.456,0-0.892,0.105-1.278,0.286c-0.376,0.165-0.802,0.666-1.243,0.666c-0.436,0-0.862-0.5-1.238-0.666
	c-0.391-0.181-0.827-0.286-1.278-0.286c-0.456,0-0.892,0.105-1.278,0.286c-0.381,0.165-0.802,0.666-1.243,0.666
	c-0.441,0-0.867-0.5-1.243-0.666c-0.386-0.181-0.822-0.286-1.278-0.286c-0.456,0-0.892,0.105-1.278,0.286
	c-0.376,0.165-0.802,0.666-1.243,0.666c-0.441,0-0.862-0.5-1.238-0.666c-0.391-0.181-0.827-0.286-1.278-0.286
	c-0.456,0-0.892,0.105-1.278,0.286C1.862,22.287,1.441,22.788,1,22.788v-1.86c0.441,0,0.862-0.5,1.243-0.666
	c0.386-0.181,0.822-0.286,1.278-0.286c0.451,0,0.887,0.105,1.278,0.286c0.376,0.165,0.797,0.666,1.238,0.666
	c0.441,0,0.867-0.5,1.243-0.666c0.386-0.181,0.822-0.286,1.278-0.286c0.456,0,0.892,0.105,1.278,0.286
	c0.376,0.165,0.802,0.666,1.243,0.666c0.441,0,0.862-0.5,1.243-0.666c0.386-0.181,0.822-0.286,1.278-0.286
	c0.451,0,0.887,0.105,1.278,0.286c0.376,0.165,0.802,0.666,1.238,0.666c0.441,0,0.867-0.5,1.243-0.666
	c0.386-0.181,0.822-0.286,1.278-0.286c0.456,0,0.892,0.105,1.278,0.286c0.376,0.165,0.802,0.666,1.243,0.666V22.788z"/>
<path opacity="0.75" d="M22.602,10.326l-3.179,1.011l-1.386-1.624c0.528-0.293,1.521-0.847,2.066-1.243
	c0.24-0.162,0.409-0.533,0.427-0.716l0.647-2.737l1.006,2.765c0.113,0.311,0.575,0.143,0.462-0.168L21.606,4.76l0.198-0.072
	c0.556-0.202,0.252-1.036-0.303-0.834l-0.198,0.072l-1.005-2.761c-0.113-0.311-0.575-0.143-0.462,0.168l1.005,2.761l-0.137,0.05l0,0
	c-0.512,0.133-2.925,0.728-3.456,0.66c-0.538-0.071-1.107-0.168-1.632-0.233c-0.479-0.055-0.709,0.045-1.12,0.279
	c-0.232,0.138-1.593,0.943-2.881,1.817C10.03,7.746,8.243,9.549,8.243,9.549l-2.465,0.908c-0.625,0.041-1.23-0.934-1.645-1.311
	L3.055,8.119c-0.085-0.087-0.21-0.078-0.32-0.044L1.127,8.554c-0.24,0.072-0.079,0.237-0.005,0.338l2.618,3.837
	c0.285,0.43,1.104,0.644,1.583,0.523l6.705-1.336l0.08-0.029l-0.013,2.133l-4.991,1.822c-0.123,0.045-0.197,0.146-0.155,0.264
	c0,0,0.067,0.184,0.117,0.321c0.048,0.132,0.161,0.192,0.317,0.183c0.454-0.027,1.812-0.137,3.412-0.313
	c1.033-0.217,9.206-3.084,10.752-3.858c1.07-0.843,1.378-1.328,1.378-1.328c0.067-0.11,0.099-0.212,0.054-0.334l-0.12-0.33
	C22.815,10.323,22.725,10.281,22.602,10.326z M12.65,13.818l0.013-2.133l4.828-1.757l1.378,1.616L12.65,13.818z M14.023,5.733
	l1.203,1.504C13.47,7.876,11.086,8.743,10.93,8.8c-0.094,0.034-0.213,0.014-0.267-0.132c-0.053-0.146-0.053-0.146-0.084-0.231
	c-0.046-0.127-0.022-0.221,0.07-0.319c0.11-0.109,0.774-0.703,1.2-0.997C12.621,6.6,13.441,6.083,14.023,5.733z M17.319,5.6
	c-0.022,0.115-0.141,0.771-0.141,0.771s-0.016,0.161-0.233,0.239c-0.198,0.072-0.589,0.214-1.079,0.393l-1.284-1.608
	c0.044-0.027,0.092-0.055,0.123-0.071c0.36-0.211,0.492-0.259,0.833-0.218c0,0,1.461,0.188,1.563,0.205
	C17.225,5.325,17.345,5.452,17.319,5.6z"/>
<path fill="#E6E6E6" d="M20.161,21.788c-0.441,0-0.867-0.5-1.243-0.666c-0.386-0.181-0.822-0.286-1.278-0.286
	c-0.456,0-0.892,0.105-1.278,0.286c-0.376,0.165-0.802,0.666-1.243,0.666c-0.436,0-0.862-0.5-1.238-0.666
	c-0.391-0.181-0.827-0.286-1.278-0.286c-0.456,0-0.892,0.105-1.278,0.286c-0.381,0.165-0.802,0.666-1.243,0.666
	c-0.441,0-0.867-0.5-1.243-0.666c-0.386-0.181-0.822-0.286-1.278-0.286c-0.456,0-0.892,0.105-1.278,0.286
	c-0.376,0.165-0.802,0.666-1.243,0.666c-0.441,0-0.862-0.5-1.238-0.666c-0.391-0.181-0.827-0.286-1.278-0.286
	c-0.456,0-0.892,0.105-1.278,0.286C0.862,21.287,0.441,21.788,0,21.788v-1.86c0.441,0,0.862-0.5,1.243-0.666
	c0.386-0.181,0.822-0.286,1.278-0.286c0.451,0,0.887,0.105,1.278,0.286c0.376,0.165,0.797,0.666,1.238,0.666
	c0.441,0,0.867-0.5,1.243-0.666c0.386-0.181,0.822-0.286,1.278-0.286c0.456,0,0.892,0.105,1.278,0.286
	c0.376,0.165,0.802,0.666,1.243,0.666c0.441,0,0.862-0.5,1.243-0.666c0.386-0.181,0.822-0.286,1.278-0.286
	c0.451,0,0.887,0.105,1.278,0.286c0.376,0.165,0.802,0.666,1.238,0.666c0.441,0,0.867-0.5,1.243-0.666
	c0.386-0.181,0.822-0.286,1.278-0.286c0.456,0,0.892,0.105,1.278,0.286c0.376,0.165,0.802,0.666,1.243,0.666V21.788z"/>
<path fill="#E6E6E6" d="M21.602,9.326l-3.179,1.011l-1.386-1.624c0.528-0.293,1.521-0.847,2.066-1.243
	c0.24-0.162,0.409-0.533,0.427-0.716l0.647-2.737l1.006,2.765c0.113,0.311,0.575,0.143,0.462-0.168L20.606,3.76l0.198-0.072
	c0.556-0.202,0.252-1.036-0.303-0.834l-0.198,0.072l-1.005-2.761c-0.113-0.311-0.575-0.143-0.462,0.168l1.005,2.761l-0.137,0.05l0,0
	c-0.512,0.133-2.925,0.728-3.456,0.66c-0.538-0.071-1.107-0.168-1.632-0.233c-0.479-0.055-0.709,0.045-1.12,0.279
	c-0.232,0.138-1.593,0.943-2.881,1.817C9.03,6.746,7.243,8.549,7.243,8.549L4.778,9.457c-0.625,0.041-1.23-0.934-1.645-1.311
	L2.055,7.119c-0.085-0.087-0.21-0.078-0.32-0.044L0.127,7.554c-0.24,0.072-0.079,0.237-0.005,0.338l2.618,3.837
	c0.285,0.43,1.104,0.644,1.583,0.523l6.705-1.336l0.08-0.029l-0.013,2.133l-4.991,1.822c-0.123,0.045-0.197,0.146-0.155,0.264
	c0,0,0.067,0.184,0.117,0.321c0.048,0.132,0.161,0.192,0.317,0.183c0.454-0.027,1.812-0.137,3.412-0.313
	c1.033-0.217,9.206-3.084,10.752-3.858c1.07-0.843,1.378-1.328,1.378-1.328c0.067-0.11,0.099-0.212,0.054-0.334l-0.12-0.33
	C21.815,9.323,21.725,9.281,21.602,9.326z M11.65,12.818l0.013-2.133l4.828-1.757l1.378,1.616L11.65,12.818z M13.023,4.733
	l1.203,1.504C12.47,6.876,10.086,7.743,9.93,7.8C9.836,7.834,9.717,7.814,9.664,7.668C9.611,7.522,9.611,7.522,9.58,7.437
	C9.534,7.31,9.558,7.215,9.65,7.118c0.11-0.109,0.774-0.703,1.2-0.997C11.621,5.6,12.441,5.083,13.023,4.733z M16.319,4.6
	c-0.022,0.115-0.141,0.771-0.141,0.771s-0.016,0.161-0.233,0.239c-0.198,0.072-0.589,0.214-1.079,0.393l-1.284-1.608
	c0.044-0.027,0.092-0.055,0.123-0.071c0.36-0.211,0.492-0.259,0.833-0.218c0,0,1.461,0.188,1.563,0.205
	C16.225,4.325,16.345,4.452,16.319,4.6z"/>
</svg>
