<?xml version="1.0" encoding="utf-8"?>
<!-- Generator: Adobe Illustrator 21.1.0, SVG Export Plug-In . SVG Version: 6.00 Build 0)  -->
<svg version="1.1" id="Layer_1_1_" xmlns="http://www.w3.org/2000/svg" xmlns:xlink="http://www.w3.org/1999/xlink" x="0px" y="0px"
	 width="22px" height="22px" viewBox="0 0 22 22" enable-background="new 0 0 22 22" xml:space="preserve">
<path fill="#FFFFFF" d="M18.9,4.6v5.7c0,1.4-0.4,2.7-1.1,3.8c0.1,0.2,0.3,0.4,0.4,0.7c0.4,0.8,0.2,1.7-0.4,2.3l-2.9,3c0,0.1-0.1,0.1-0.2,0.2
	c-0.2,0.1-0.5,0-0.6-0.2c0-0.1-0.1-0.2,0-0.3l0.6-3.1C13.8,16.9,13,17,12.1,17l-6.5,0c1.8,1.2,1.8,3.5,1.7,3.6c0,0.2,0,0.3-0.1,0.4
	c-0.1,0.2-0.2,0.4-0.5,0.3l-4-3.1c-1.8-1.3-3.4-3.5-2.6-5.7c0.5-1.5,2-2.2,3.5-2.4L12,8.4l3.6-6.5c0.4-0.8,1.6-1.3,2.4-1.3
	c0.8,0.1,1.3,0.3,1.9,0.7l1.8,0.4c0.2,0,0.3,0.2,0.3,0.4l-0.2,0.7c-0.1,0.2-0.1,0.3-0.3,0.4L18.9,4.6z"/>
</svg>
