<?xml version="1.0" encoding="utf-8"?>
<!-- Generator: Adobe Illustrator 21.1.0, SVG Export Plug-In . SVG Version: 6.00 Build 0)  -->
<svg version="1.1" id="Layer_1_1_" xmlns="http://www.w3.org/2000/svg" xmlns:xlink="http://www.w3.org/1999/xlink" x="0px" y="0px"
	 width="30px" height="30px" viewBox="0 0 30 30" enable-background="new 0 0 30 30" xml:space="preserve">
<path fill="#FFFFFF" d="M25.8,6.2V14c0,1.9-0.6,3.7-1.6,5.1c0.2,0.2,0.4,0.5,0.6,0.9c0.5,1.1,0.2,2.3-0.5,3.2l-4,4.1c-0.1,0.1-0.2,0.2-0.3,0.2
	c-0.3,0.1-0.7,0-0.9-0.3c-0.1-0.1-0.1-0.3,0-0.4l0.8-4.2c-1,0.4-2.2,0.6-3.4,0.6l-8.9,0C10,24.8,10,28,10,28.1c0,0.2,0,0.4-0.1,0.6
	c-0.1,0.3-0.3,0.5-0.6,0.4l-5.4-4.3C1.4,23-0.8,20.1,0.3,17C1,15,3.1,14.1,5.1,13.8l11.3-2.3l4.9-8.9c0.6-1,2.2-1.8,3.2-1.7
	c1.1,0.1,1.8,0.4,2.6,1l2.4,0.5c0.3,0,0.4,0.2,0.4,0.5l-0.3,1c-0.1,0.2-0.2,0.4-0.4,0.5L25.8,6.2z"/>
</svg>
