<?xml version="1.0" encoding="utf-8"?>
<!-- Generator: Adobe Illustrator 18.1.1, SVG Export Plug-In . SVG Version: 6.00 Build 0)  -->
<svg version="1.1" id="Layer_1" xmlns="http://www.w3.org/2000/svg" xmlns:xlink="http://www.w3.org/1999/xlink" x="0px" y="0px"
	 viewBox="0 0 16 16" enable-background="new 0 0 16 16" xml:space="preserve">
<path opacity="0.5" d="M14.83,15.865c-0.281,0-0.552-0.318-0.791-0.424c-0.246-0.115-0.523-0.182-0.813-0.182
	c-0.29,0-0.568,0.067-0.814,0.182c-0.239,0.105-0.51,0.424-0.791,0.424c-0.278,0-0.549-0.318-0.788-0.424
	c-0.249-0.115-0.526-0.182-0.813-0.182c-0.29,0-0.568,0.067-0.814,0.182c-0.242,0.105-0.51,0.424-0.791,0.424
	c-0.281,0-0.552-0.318-0.791-0.424c-0.246-0.115-0.523-0.182-0.814-0.182c-0.29,0-0.568,0.067-0.813,0.182
	c-0.239,0.105-0.51,0.424-0.791,0.424s-0.549-0.318-0.788-0.424c-0.249-0.115-0.526-0.182-0.813-0.182
	c-0.29,0-0.568,0.067-0.814,0.182C2.549,15.546,2.281,15.865,2,15.865v-1.183c0.281,0,0.549-0.318,0.791-0.424
	c0.246-0.115,0.523-0.182,0.814-0.182c0.287,0,0.565,0.067,0.813,0.182c0.239,0.105,0.507,0.424,0.788,0.424
	s0.552-0.318,0.791-0.424c0.246-0.115,0.523-0.182,0.813-0.182c0.29,0,0.568,0.067,0.814,0.182c0.239,0.105,0.51,0.424,0.791,0.424
	c0.281,0,0.549-0.318,0.791-0.424c0.246-0.115,0.523-0.182,0.814-0.182c0.287,0,0.565,0.067,0.813,0.182
	c0.239,0.105,0.51,0.424,0.788,0.424c0.281,0,0.552-0.318,0.791-0.424c0.246-0.115,0.523-0.182,0.814-0.182
	c0.29,0,0.568,0.067,0.813,0.182c0.239,0.105,0.51,0.424,0.791,0.424V15.865z"/>
<path opacity="0.5" d="M15.747,7.935l-2.023,0.643l-0.882-1.033c0.336-0.187,0.968-0.539,1.314-0.791
	c0.153-0.103,0.26-0.339,0.272-0.455l0.412-1.742l0.64,1.76c0.072,0.198,0.366,0.091,0.294-0.107l-0.661-1.817l0.126-0.046
	c0.354-0.129,0.161-0.659-0.193-0.531L14.92,3.862l-0.639-1.757c-0.072-0.198-0.366-0.091-0.294,0.107l0.639,1.757L14.539,4l0,0
	c-0.326,0.084-1.861,0.464-2.199,0.42c-0.342-0.045-0.704-0.107-1.039-0.148c-0.305-0.035-0.451,0.028-0.713,0.178
	c-0.148,0.088-1.014,0.6-1.833,1.156C7.746,6.293,6.609,7.44,6.609,7.44L5.04,8.018C4.643,8.044,4.257,7.424,3.993,7.184L3.307,6.53
	C3.253,6.475,3.174,6.48,3.104,6.503L2.081,6.807c-0.153,0.046-0.05,0.151-0.003,0.215l1.666,2.442
	c0.181,0.274,0.702,0.41,1.007,0.333l4.267-0.85l0.051-0.019L9.06,10.286l-3.176,1.16c-0.078,0.028-0.126,0.093-0.098,0.168
	c0,0,0.043,0.117,0.074,0.204c0.03,0.084,0.102,0.122,0.202,0.116c0.289-0.017,1.153-0.087,2.171-0.199
	c0.657-0.138,5.858-1.962,6.842-2.455c0.681-0.536,0.877-0.845,0.877-0.845c0.042-0.07,0.063-0.135,0.034-0.213l-0.076-0.21
	C15.882,7.933,15.825,7.906,15.747,7.935z M9.414,10.157l0.008-1.357l3.073-1.118l0.877,1.029L9.414,10.157z M10.287,5.012
	l0.766,0.957C9.935,6.376,8.418,6.928,8.319,6.964C8.26,6.985,8.184,6.972,8.15,6.879C8.116,6.787,8.116,6.787,8.096,6.733
	C8.067,6.652,8.082,6.592,8.141,6.53c0.07-0.07,0.492-0.447,0.764-0.634C9.395,5.564,9.917,5.235,10.287,5.012z M12.385,4.927
	c-0.014,0.073-0.09,0.491-0.09,0.491s-0.01,0.102-0.148,0.152c-0.126,0.046-0.375,0.136-0.686,0.25l-0.817-1.023
	c0.028-0.017,0.059-0.035,0.079-0.045c0.229-0.134,0.313-0.165,0.53-0.139c0,0,0.93,0.12,0.995,0.13
	C12.325,4.752,12.402,4.833,12.385,4.927z"/>
<path opacity="0.75" d="M13.83,14.865c-0.281,0-0.552-0.318-0.791-0.424c-0.246-0.115-0.523-0.182-0.813-0.182
	c-0.29,0-0.568,0.067-0.814,0.182c-0.239,0.105-0.51,0.424-0.791,0.424c-0.278,0-0.549-0.318-0.788-0.424
	c-0.249-0.115-0.526-0.182-0.813-0.182c-0.29,0-0.568,0.067-0.814,0.182c-0.242,0.105-0.51,0.424-0.791,0.424
	c-0.281,0-0.552-0.318-0.791-0.424c-0.246-0.115-0.523-0.182-0.814-0.182c-0.29,0-0.568,0.067-0.813,0.182
	c-0.239,0.105-0.51,0.424-0.791,0.424s-0.549-0.318-0.788-0.424c-0.249-0.115-0.526-0.182-0.813-0.182
	c-0.29,0-0.568,0.067-0.814,0.182C1.549,14.546,1.281,14.865,1,14.865v-1.183c0.281,0,0.549-0.318,0.791-0.424
	c0.246-0.115,0.523-0.182,0.814-0.182c0.287,0,0.565,0.067,0.813,0.182c0.239,0.105,0.507,0.424,0.788,0.424
	s0.552-0.318,0.791-0.424c0.246-0.115,0.523-0.182,0.813-0.182c0.29,0,0.568,0.067,0.814,0.182c0.239,0.105,0.51,0.424,0.791,0.424
	c0.281,0,0.549-0.318,0.791-0.424c0.246-0.115,0.523-0.182,0.814-0.182c0.287,0,0.565,0.067,0.813,0.182
	c0.239,0.105,0.51,0.424,0.788,0.424c0.281,0,0.552-0.318,0.791-0.424c0.246-0.115,0.523-0.182,0.814-0.182
	c0.29,0,0.568,0.067,0.813,0.182c0.239,0.105,0.51,0.424,0.791,0.424V14.865z"/>
<path opacity="0.75" d="M14.747,6.935l-2.023,0.643l-0.882-1.033c0.336-0.187,0.968-0.539,1.314-0.791
	c0.153-0.103,0.26-0.339,0.272-0.455l0.412-1.742l0.64,1.76c0.072,0.198,0.366,0.091,0.294-0.107l-0.661-1.817l0.126-0.046
	c0.354-0.129,0.161-0.659-0.193-0.531L13.92,2.862l-0.639-1.757c-0.072-0.198-0.366-0.091-0.294,0.107l0.639,1.757L13.539,3l0,0
	c-0.326,0.084-1.861,0.464-2.199,0.42c-0.342-0.045-0.704-0.107-1.039-0.148C9.997,3.237,9.85,3.301,9.589,3.45
	c-0.148,0.088-1.014,0.6-1.833,1.156C6.746,5.293,5.609,6.44,5.609,6.44L4.04,7.018C3.643,7.044,3.257,6.424,2.993,6.184L2.307,5.53
	C2.253,5.475,2.174,5.48,2.104,5.503L1.081,5.807c-0.153,0.046-0.05,0.151-0.003,0.215l1.666,2.442
	c0.181,0.274,0.702,0.41,1.007,0.333l4.267-0.85l0.051-0.019L8.06,9.286l-3.176,1.16c-0.078,0.028-0.126,0.093-0.098,0.168
	c0,0,0.043,0.117,0.074,0.204c0.03,0.084,0.102,0.122,0.202,0.116c0.289-0.017,1.153-0.087,2.171-0.199
	c0.657-0.138,5.858-1.962,6.842-2.455c0.681-0.536,0.877-0.845,0.877-0.845c0.042-0.07,0.063-0.135,0.034-0.213l-0.076-0.21
	C14.882,6.933,14.825,6.906,14.747,6.935z M8.414,9.157l0.008-1.357l3.073-1.118l0.877,1.029L8.414,9.157z M9.287,4.012l0.766,0.957
	C8.935,5.376,7.418,5.928,7.319,5.964C7.26,5.985,7.184,5.972,7.15,5.879C7.116,5.787,7.116,5.787,7.096,5.733
	C7.067,5.652,7.082,5.592,7.141,5.53c0.07-0.07,0.492-0.447,0.764-0.634C8.395,4.564,8.917,4.235,9.287,4.012z M11.385,3.927
	c-0.014,0.073-0.09,0.491-0.09,0.491s-0.01,0.102-0.148,0.152c-0.126,0.046-0.375,0.136-0.686,0.25L9.644,3.797
	C9.672,3.78,9.702,3.762,9.722,3.752c0.229-0.134,0.313-0.165,0.53-0.139c0,0,0.93,0.12,0.995,0.13
	C11.325,3.752,11.402,3.833,11.385,3.927z"/>
<path fill="#E6E6E6" d="M12.83,13.865c-0.281,0-0.552-0.318-0.791-0.424c-0.246-0.115-0.523-0.182-0.813-0.182
	c-0.29,0-0.568,0.067-0.814,0.182c-0.239,0.105-0.51,0.424-0.791,0.424c-0.278,0-0.549-0.318-0.788-0.424
	c-0.249-0.115-0.526-0.182-0.813-0.182c-0.29,0-0.568,0.067-0.814,0.182c-0.242,0.105-0.51,0.424-0.791,0.424
	c-0.281,0-0.552-0.318-0.791-0.424c-0.246-0.115-0.523-0.182-0.814-0.182c-0.29,0-0.568,0.067-0.813,0.182
	c-0.239,0.105-0.51,0.424-0.791,0.424s-0.549-0.318-0.788-0.424c-0.249-0.115-0.526-0.182-0.813-0.182
	c-0.29,0-0.568,0.067-0.814,0.182C0.549,13.546,0.281,13.865,0,13.865v-1.183c0.281,0,0.549-0.318,0.791-0.424
	c0.246-0.115,0.523-0.182,0.814-0.182c0.287,0,0.565,0.067,0.813,0.182c0.239,0.105,0.507,0.424,0.788,0.424
	s0.552-0.318,0.791-0.424c0.246-0.115,0.523-0.182,0.813-0.182c0.29,0,0.568,0.067,0.814,0.182c0.239,0.105,0.51,0.424,0.791,0.424
	c0.281,0,0.549-0.318,0.791-0.424c0.246-0.115,0.523-0.182,0.814-0.182c0.287,0,0.565,0.067,0.813,0.182
	c0.239,0.105,0.51,0.424,0.788,0.424c0.281,0,0.552-0.318,0.791-0.424c0.246-0.115,0.523-0.182,0.814-0.182
	c0.29,0,0.568,0.067,0.813,0.182c0.239,0.105,0.51,0.424,0.791,0.424V13.865z"/>
<path fill="#E6E6E6" d="M13.747,5.935l-2.023,0.643l-0.882-1.033c0.336-0.187,0.968-0.539,1.314-0.791
	c0.153-0.103,0.26-0.339,0.272-0.455l0.412-1.742l0.64,1.76c0.072,0.198,0.366,0.091,0.294-0.107l-0.661-1.817l0.126-0.046
	c0.354-0.129,0.161-0.659-0.193-0.531L12.92,1.862l-0.639-1.757c-0.072-0.198-0.366-0.091-0.294,0.107l0.639,1.757L12.539,2l0,0
	c-0.326,0.084-1.861,0.464-2.199,0.42C9.998,2.376,9.636,2.314,9.301,2.273C8.997,2.237,8.85,2.301,8.589,2.45
	c-0.148,0.088-1.014,0.6-1.833,1.156C5.746,4.293,4.609,5.44,4.609,5.44L3.04,6.018C2.643,6.044,2.257,5.424,1.993,5.184L1.307,4.53
	C1.253,4.475,1.174,4.48,1.104,4.503L0.081,4.807c-0.153,0.046-0.05,0.151-0.003,0.215l1.666,2.442
	c0.181,0.274,0.702,0.41,1.007,0.333l4.267-0.85l0.051-0.019L7.06,8.286l-3.176,1.16C3.806,9.474,3.758,9.538,3.785,9.613
	c0,0,0.043,0.117,0.074,0.204C3.89,9.901,3.962,9.94,4.062,9.934c0.289-0.017,1.153-0.087,2.171-0.199
	c0.657-0.138,5.858-1.962,6.842-2.455c0.681-0.536,0.877-0.845,0.877-0.845c0.042-0.07,0.063-0.135,0.034-0.213l-0.076-0.21
	C13.882,5.933,13.825,5.906,13.747,5.935z M7.414,8.157l0.008-1.357l3.073-1.118l0.877,1.029L7.414,8.157z M8.287,3.012l0.766,0.957
	C7.935,4.376,6.418,4.928,6.319,4.964C6.26,4.985,6.184,4.972,6.15,4.879C6.116,4.787,6.116,4.787,6.096,4.733
	C6.067,4.652,6.082,4.592,6.141,4.53c0.07-0.07,0.492-0.447,0.764-0.634C7.395,3.564,7.917,3.235,8.287,3.012z M10.385,2.927
	c-0.014,0.073-0.09,0.491-0.09,0.491s-0.01,0.102-0.148,0.152c-0.126,0.046-0.375,0.136-0.686,0.25L8.644,2.797
	C8.672,2.78,8.702,2.762,8.722,2.752c0.229-0.134,0.313-0.165,0.53-0.139c0,0,0.93,0.12,0.995,0.13
	C10.325,2.752,10.402,2.833,10.385,2.927z"/>
</svg>
