<?xml version="1.0" encoding="utf-8"?>
<!-- Generator: Adobe Illustrator 20.0.0, SVG Export Plug-In . SVG Version: 6.00 Build 0)  -->
<svg version="1.1" id="Layer_1" xmlns="http://www.w3.org/2000/svg" xmlns:xlink="http://www.w3.org/1999/xlink" x="0px" y="0px"
	 width="30px" height="30px" viewBox="0 0 30 30" enable-background="new 0 0 30 30" xml:space="preserve">
<path fill="#231F20" d="M27.8,30c-0.6,0-1.2-0.7-1.7-0.9c-0.5-0.2-1.1-0.4-1.8-0.4s-1.2,0.1-1.8,0.4C22,29.3,21.4,30,20.8,30
	c-0.6,0-1.2-0.7-1.7-0.9c-0.5-0.2-1.1-0.4-1.8-0.4c-0.6,0-1.2,0.1-1.8,0.4c-0.5,0.2-1.1,0.9-1.7,0.9s-1.2-0.7-1.7-0.9
	c-0.5-0.2-1.1-0.4-1.8-0.4s-1.2,0.1-1.8,0.4C8.1,29.3,7.5,30,6.9,30s-1.2-0.7-1.7-0.9c-0.5-0.2-1.1-0.4-1.8-0.4
	c-0.6,0-1.2,0.1-1.8,0.4C1.2,29.3,0.6,30,0,30v-2.6c0.6,0,1.2-0.7,1.7-0.9c0.5-0.2,1.1-0.4,1.8-0.4c0.6,0,1.2,0.1,1.8,0.4
	c0.5,0.2,1.1,0.9,1.7,0.9s1.2-0.7,1.7-0.9c0.5-0.2,1.1-0.4,1.8-0.4s1.2,0.1,1.8,0.4c0.5,0.2,1.1,0.9,1.7,0.9c0.6,0,1.2-0.7,1.7-0.9
	c0.5-0.2,1.1-0.4,1.8-0.4c0.6,0,1.2,0.1,1.8,0.4c0.5,0.2,1.1,0.9,1.7,0.9c0.6,0,1.2-0.7,1.7-0.9c0.5-0.2,1.1-0.4,1.8-0.4
	s1.2,0.1,1.8,0.4c0.5,0.2,1.1,0.9,1.7,0.9L27.8,30L27.8,30z"/>
<path fill="#231F20" d="M29.5,12.9l-4.1,1.3L23.5,12c0.7-0.4,2.1-1.2,2.8-1.7c0.3-0.2,0.6-0.7,0.6-1l0.9-3.8l1.4,3.8c0.2,0.4,0.8,0.2,0.6-0.2
	l-1.4-3.9l0.3-0.1c0.8-0.3,0.3-1.4-0.4-1.1L28,4l-1.4-3.8c-0.2-0.4-0.8-0.2-0.6,0.2l1.4,3.8l-0.2,0.1l0,0c-0.7,0.2-4,1-4.8,0.9
	c-0.7-0.1-1.5-0.2-2.2-0.3c-0.7-0.1-1,0.1-1.5,0.4c-0.3,0.2-2.2,1.3-4,2.5c-2.2,1.5-4.6,4-4.6,4L6.6,13c-0.9,0.1-1.7-1.3-2.3-1.8
	L2.8,9.8C2.7,9.7,2.5,9.7,2.4,9.7l-2.2,0.7c-0.3,0.1-0.1,0.3,0,0.5l3.6,5.3C4.2,16.7,5.3,17,6,16.9l9.2-1.8l0.1,0l0,2.9l-6.9,2.5
	c-0.2,0.1-0.3,0.2-0.2,0.4c0,0,0.1,0.3,0.2,0.4c0.1,0.2,0.2,0.3,0.4,0.3c0.6,0,2.5-0.2,4.7-0.4c1.4-0.3,12.7-4.2,14.8-5.3
	c1.5-1.2,1.6-1.8,1.6-1.8c0.1-0.2,0.1-0.3,0.1-0.5l-0.2-0.5C29.7,12.9,29.6,12.8,29.5,12.9z M16,17.6l0-2.9l6.6-2.4l1.9,2.2L16,17.6
	z M17.9,6.5l1.7,2.1c-2.4,0.9-5.7,2.1-5.9,2.2c-0.1,0-0.3,0-0.4-0.2s-0.1-0.2-0.1-0.3c-0.1-0.2,0-0.3,0.1-0.4c0.2-0.1,1.1-1,1.7-1.4
	C16,7.7,17.1,7,17.9,6.5z M22.5,6.3c0,0.2-0.2,1.1-0.2,1.1s0,0.2-0.3,0.3c-0.3,0.1-0.8,0.3-1.5,0.5l-1.8-2.2C18.8,6,18.8,6,18.9,6
	c0.5-0.3,0.7-0.4,1.1-0.3c0,0,2,0.3,2.2,0.3C22.3,6,22.5,6.1,22.5,6.3z"/>
</svg>
