<?xml version="1.0" encoding="utf-8"?>
<!-- Generator: Adobe Illustrator 20.0.0, SVG Export Plug-In . SVG Version: 6.00 Build 0)  -->
<svg version="1.1" id="Layer_1" xmlns="http://www.w3.org/2000/svg" xmlns:xlink="http://www.w3.org/1999/xlink" x="0px" y="0px"
	 width="22px" height="22px" viewBox="0 0 22 22" enable-background="new 0 0 22 22" xml:space="preserve">
<path fill="#FFFFFF" d="M20.2,21.8c-0.4,0-0.9-0.5-1.2-0.7c-0.4-0.2-0.8-0.3-1.3-0.3s-0.9,0.1-1.3,0.3c-0.4,0.2-0.8,0.7-1.2,0.7
	c-0.4,0-0.9-0.5-1.2-0.7c-0.4-0.2-0.8-0.3-1.3-0.3c-0.5,0-0.9,0.1-1.3,0.3c-0.4,0.2-0.8,0.7-1.2,0.7s-0.9-0.5-1.2-0.7
	c-0.4-0.2-0.8-0.3-1.3-0.3c-0.5,0-0.9,0.1-1.3,0.3c-0.4,0.2-0.8,0.7-1.2,0.7s-0.9-0.5-1.2-0.7c-0.4-0.2-0.8-0.3-1.3-0.3
	c-0.5,0-0.9,0.1-1.3,0.3c-0.4,0.2-0.8,0.7-1.2,0.7v-1.9c0.4,0,0.9-0.5,1.2-0.7C1.6,19.1,2.1,19,2.5,19c0.5,0,0.9,0.1,1.3,0.3
	c0.4,0.2,0.8,0.7,1.2,0.7s0.9-0.5,1.2-0.7C6.7,19.1,7.1,19,7.6,19c0.5,0,0.9,0.1,1.3,0.3c0.4,0.2,0.8,0.7,1.2,0.7s0.9-0.5,1.2-0.7
	c0.4-0.2,0.8-0.3,1.3-0.3c0.5,0,0.9,0.1,1.3,0.3c0.4,0.2,0.8,0.7,1.2,0.7c0.4,0,0.9-0.5,1.2-0.7c0.4-0.2,0.8-0.3,1.3-0.3
	s0.9,0.1,1.3,0.3c0.4,0.2,0.8,0.7,1.2,0.7L20.2,21.8L20.2,21.8z"/>
<path fill="#FFFFFF" d="M21.6,9.3l-3.2,1L17,8.7c0.5-0.3,1.5-0.8,2.1-1.2c0.2-0.2,0.4-0.5,0.4-0.7L20.2,4l1,2.8c0.1,0.3,0.6,0.1,0.5-0.2l-1-2.9
	l0.2-0.1c0.6-0.2,0.3-1-0.3-0.8l-0.2,0.1l-1-2.8c-0.1-0.3-0.6-0.1-0.5,0.2l1,2.8l-0.1,0l0,0c-0.5,0.1-2.9,0.7-3.5,0.7
	c-0.5-0.1-1.1-0.2-1.6-0.2c-0.5-0.1-0.7,0-1.1,0.3c-0.2,0.1-1.6,0.9-2.9,1.8C9,6.7,7.2,8.5,7.2,8.5L4.8,9.5c-0.6,0-1.2-0.9-1.6-1.3
	l-1.1-1C2,7,1.8,7,1.7,7.1L0.1,7.6c-0.2,0.1-0.1,0.2,0,0.3l2.6,3.8c0.3,0.4,1.1,0.6,1.6,0.5l6.7-1.3l0.1,0l0,2.1l-5,1.8
	c-0.1,0-0.2,0.1-0.2,0.3c0,0,0.1,0.2,0.1,0.3c0,0.1,0.2,0.2,0.3,0.2c0.5,0,1.8-0.1,3.4-0.3c1-0.2,9.2-3.1,10.8-3.9
	c1.1-0.8,1.4-1.3,1.4-1.3C22,10,22,9.9,22,9.8l-0.1-0.3C21.8,9.3,21.7,9.3,21.6,9.3z M11.6,12.8l0-2.1l4.8-1.8l1.4,1.6L11.6,12.8z
	 M13,4.7l1.2,1.5c-1.8,0.6-4.1,1.5-4.3,1.6c-0.1,0-0.2,0-0.3-0.1C9.6,7.5,9.6,7.5,9.6,7.4c0-0.1,0-0.2,0.1-0.3
	c0.1-0.1,0.8-0.7,1.2-1C11.6,5.6,12.4,5.1,13,4.7z M16.3,4.6c0,0.1-0.1,0.8-0.1,0.8s0,0.2-0.2,0.2c-0.2,0.1-0.6,0.2-1.1,0.4
	l-1.3-1.6c0,0,0.1-0.1,0.1-0.1c0.4-0.2,0.5-0.3,0.8-0.2c0,0,1.5,0.2,1.6,0.2C16.2,4.3,16.3,4.5,16.3,4.6z"/>
</svg>
