<?xml version="1.0" encoding="utf-8"?>
<!-- Generator: Adobe Illustrator 25.4.1, SVG Export Plug-In . SVG Version: 6.00 Build 0)  -->
<svg version="1.1" id="Layer_1" xmlns="http://www.w3.org/2000/svg" xmlns:xlink="http://www.w3.org/1999/xlink" x="0px" y="0px"
	 width="14px" height="14px" viewBox="0 0 14 14" enable-background="new 0 0 14 14" xml:space="preserve">
<path fill="#231F20" d="M13.7,5.9l-2,0.6l-0.9-1c0.3-0.2,1-0.5,1.3-0.8c0.2-0.1,0.3-0.3,0.3-0.5l0.4-1.7l0.6,1.8
	c0.1,0.2,0.4,0.1,0.3-0.1L13,2.4h0.1c0.4-0.1,0.2-0.7-0.2-0.5h-0.1l-0.6-1.8c0-0.2-0.3-0.1-0.2,0.1L12.6,2h-0.1l0,0
	c-0.3,0.1-1.9,0.5-2.2,0.4c-0.3,0-0.7-0.1-1-0.1s-0.5,0-0.7,0.2c-0.1,0.1-1,0.6-1.8,1.2c-1,0.7-2.1,1.8-2.1,1.8L3,6
	C2.6,6,2.3,5.4,2,5.2L1.3,4.5c-0.1-0.1-0.1-0.1-0.2,0l-1,0.3C-0.1,4.9,0,5,0.1,5l1.7,2.4c0.2,0.3,0.7,0.4,1,0.3L7,6.9h0.1v1.4
	L3.9,9.4c-0.1,0-0.1,0.1-0.1,0.2c0,0,0,0.1,0.1,0.2c0,0.1,0.1,0.1,0.2,0.1c0.3,0,1.2-0.1,2.2-0.2c0.7-0.1,5.9-2,6.8-2.5
	C13.8,6.7,14,6.4,14,6.4c0-0.1,0-0.1,0-0.2L13.9,6C13.9,5.9,13.8,5.9,13.7,5.9z M7.4,8.2V6.8l3.1-1.1l0.9,1L7.4,8.2z M8.3,3l0.8,1
	C8,4.4,6.5,5,6.4,5S6.2,5,6.2,4.9s0-0.1-0.1-0.1c0-0.1,0-0.1,0-0.2C6.2,4.5,6.6,4.2,6.9,4C7.4,3.6,7.9,3.2,8.3,3z M10.4,2.9
	c0,0.1-0.1,0.5-0.1,0.5s0,0.1-0.1,0.2c-0.1,0-0.4,0.1-0.7,0.2l-0.8-1h0.1C9,2.6,9,2.6,9.3,2.6c0,0,0.9,0.1,1,0.1
	C10.3,2.8,10.4,2.8,10.4,2.9z"/>
<path fill="#231F20" d="M13.6,14c-0.3,0-0.6-0.1-0.8-0.2c-0.3-0.1-0.6-0.5-0.9-0.5c-0.3,0-0.6,0.4-0.9,0.5c-0.2,0.1-0.5,0.2-0.8,0.2
	s-0.6-0.1-0.8-0.2c-0.3-0.1-0.6-0.5-0.9-0.5c-0.3,0-0.6,0.4-0.9,0.5C7.4,13.9,7.1,14,6.8,14S6.2,13.9,6,13.8
	c-0.3-0.1-0.6-0.5-0.9-0.5s-0.6,0.4-0.9,0.5C4,13.9,3.7,14,3.4,14s-0.6-0.1-0.8-0.2c-0.3-0.1-0.6-0.5-0.9-0.5s-0.6,0.4-0.9,0.5
	C0.6,13.9,0.3,14,0,14v-1.2c0.3,0,0.6-0.1,0.8-0.2c0.3-0.1,0.6-0.5,0.9-0.5s0.6,0.4,0.9,0.5s0.5,0.2,0.8,0.2s0.6-0.1,0.8-0.2
	c0.3-0.1,0.6-0.5,0.9-0.5s0.6,0.4,0.9,0.5s0.5,0.2,0.8,0.2s0.6-0.1,0.8-0.2c0.3-0.1,0.6-0.5,0.9-0.5s0.6,0.4,0.9,0.5
	c0.3,0.1,0.5,0.2,0.8,0.2s0.6-0.1,0.8-0.2c0.3-0.1,0.6-0.5,0.9-0.5c0.3,0,0.6,0.4,0.9,0.5c0.3,0.1,0.5,0.2,0.8,0.2
	C13.6,12.8,13.6,14,13.6,14z"/>
</svg>
