<?xml version="1.0" encoding="utf-8"?>
<!-- Generator: Adobe Illustrator 27.9.1, SVG Export Plug-In . SVG Version: 6.00 Build 0)  -->
<svg version="1.1" id="Layer_1" xmlns="http://www.w3.org/2000/svg" xmlns:xlink="http://www.w3.org/1999/xlink" x="0px" y="0px"
	 viewBox="0 0 22 22" enable-background="new 0 0 22 22" xml:space="preserve">
<path  d="M21.1,18.5c-0.4,0-0.9-0.1-1.3-0.3c-0.4-0.2-0.8-0.3-1.3-0.3c-0.5,0-0.9,0.1-1.3,0.3
	c-0.4,0.2-0.8,0.3-1.3,0.3s-0.9-0.1-1.3-0.3c-0.4-0.2-0.8-0.3-1.3-0.3c-0.5,0-0.9,0.1-1.3,0.3c-0.4,0.2-0.8,0.3-1.3,0.3
	c-0.4,0-0.9-0.1-1.3-0.3c-0.4-0.2-0.8-0.3-1.3-0.3c-0.5,0-0.9,0.1-1.3,0.3c-0.4,0.2-0.8,0.3-1.3,0.3c-0.4,0-0.9-0.1-1.3-0.3
	c-0.4-0.2-0.8-0.3-1.3-0.3c-0.5,0-0.9,0.1-1.3,0.3c-0.4,0.2-0.8,0.3-1.3,0.3v-1.9c0.4,0,0.9-0.1,1.3-0.3C2.4,16.1,2.9,16,3.3,16
	c0.5,0,0.9,0.1,1.3,0.3c0.4,0.2,0.8,0.3,1.3,0.3c0.4,0,0.9-0.1,1.3-0.3C7.5,16.1,7.9,16,8.4,16c0.5,0,0.9,0.1,1.3,0.3
	c0.4,0.2,0.8,0.3,1.3,0.3c0.4,0,0.9-0.1,1.3-0.3c0.4-0.2,0.8-0.3,1.3-0.3c0.5,0,0.9,0.1,1.3,0.3c0.4,0.2,0.8,0.3,1.3,0.3
	s0.9-0.1,1.3-0.3c0.4-0.2,0.8-0.3,1.3-0.3c0.5,0,0.9,0.1,1.3,0.3c0.4,0.2,0.8,0.3,1.3,0.3V18.5z"/>
<path  d="M21.8,13.1l-5.2,0l-0.8-2c0.6-0.1,1.7-0.3,2.4-0.5c0.3-0.1,0.6-0.4,0.7-0.5l1.6-2.4v3c0,0.3,0.5,0.3,0.5,0
	V7.7h0.2c0.6,0,0.6-0.9,0-0.9h-0.2v-3c0-0.3-0.5-0.3-0.5,0v3h-0.1v0c-0.5-0.1-3-0.3-3.5-0.6c-0.5-0.3-1-0.5-1.5-0.8
	c-0.4-0.2-0.7-0.2-1.2-0.1c-0.3,0-1.8,0.3-3.4,0.7C8.9,6.5,6.6,7.6,6.6,7.6l-2.7,0C3.3,7.4,3.1,6.3,2.8,5.8L2.2,4.4
	C2.1,4.3,2,4.3,1.9,4.3L0.2,4.2C-0.1,4.2,0,4.4,0,4.5L1.2,9c0.1,0.5,0.8,1,1.3,1l6.8,1h0.1l-0.8,2l-5.4,0c-0.1,0-0.2,0.1-0.2,0.2
	v0.3c0,0.1,0.1,0.2,0.2,0.3c0.4,0.1,1.8,0.5,3.3,0.9c0.1,0,0.1,0,0.2-0.1c0.5-0.2,1-0.4,1.6-0.4c0.5,0,1.1,0.1,1.6,0.3
	c0.3,0.1,0.7,0.2,1,0.2c0.3,0,0.7-0.1,1-0.2c0.5-0.2,1-0.4,1.6-0.4c0.5,0,1.1,0.1,1.6,0.3c0.3,0.1,0.7,0.2,1,0.2
	c0.3,0,0.7-0.1,1-0.2c0.5-0.2,1-0.4,1.6-0.4c0.5,0,1,0.1,1.5,0.3c1.3-0.4,1.8-0.8,1.8-0.8c0.1-0.1,0.2-0.2,0.2-0.3v-0.4
	C22,13.2,21.9,13.1,21.8,13.1 M9.3,13.2l0.8-2h5.2l0.7,2L9.3,13.2z M13.4,6L14,7.8H9.4c-0.1,0-0.2-0.1-0.2-0.2V7.3
	c0-0.1,0.1-0.2,0.2-0.3c0.1-0.1,1-0.4,1.5-0.5C11.8,6.3,12.7,6.1,13.4,6 M16.6,7c-0.1,0.1-0.4,0.7-0.4,0.7s-0.1,0.1-0.3,0.1h-1.2
	l-0.7-2c0.1,0,0.1,0,0.1,0c0.4-0.1,0.6-0.1,0.9,0.1c0,0,1.3,0.7,1.4,0.7C16.6,6.7,16.6,6.8,16.6,7"/>
</svg>
