<?xml version="1.0" encoding="utf-8"?>
<!-- Generator: Adobe Illustrator 27.9.1, SVG Export Plug-In . SVG Version: 6.00 Build 0)  -->
<svg version="1.1" id="Layer_1" xmlns="http://www.w3.org/2000/svg" xmlns:xlink="http://www.w3.org/1999/xlink" x="0px" y="0px"
	 viewBox="0 0 22 22" enable-background="new 0 0 22 22" xml:space="preserve">
<path fill="#FFFFFF" d="M21.1,18.5c-0.4,0-0.9-0.1-1.3-0.3c-0.4-0.2-0.8-0.3-1.3-0.3s-0.9,0.1-1.3,0.3c-0.4,0.2-0.8,0.3-1.3,0.3
	s-0.9-0.1-1.3-0.3c-0.4-0.2-0.8-0.3-1.3-0.3S12.4,18,12,18.2c-0.4,0.2-0.8,0.3-1.3,0.3c-0.4,0-0.9-0.1-1.3-0.3
	C9,18,8.6,17.9,8.1,17.9S7.2,18,6.8,18.2c-0.4,0.2-0.8,0.3-1.3,0.3c-0.4,0-0.9-0.1-1.3-0.3c-0.4-0.2-0.8-0.3-1.3-0.3S2,18,1.6,18.2
	c-0.4,0.2-0.8,0.3-1.3,0.3v-1.9c0.4,0,0.9-0.1,1.3-0.3C2.4,16.1,2.9,16,3.3,16c0.5,0,0.9,0.1,1.3,0.3c0.4,0.2,0.8,0.3,1.3,0.3
	c0.4,0,0.9-0.1,1.3-0.3C7.5,16.1,7.9,16,8.4,16s0.9,0.1,1.3,0.3c0.4,0.2,0.8,0.3,1.3,0.3c0.4,0,0.9-0.1,1.3-0.3
	c0.4-0.2,0.8-0.3,1.3-0.3s0.9,0.1,1.3,0.3c0.4,0.2,0.8,0.3,1.3,0.3s0.9-0.1,1.3-0.3c0.4-0.2,0.8-0.3,1.3-0.3s0.9,0.1,1.3,0.3
	s0.8,0.3,1.3,0.3v1.9H21.1z"/>
<path fill="#FFFFFF" d="M21.8,13.1h-5.2l-0.8-2c0.6-0.1,1.7-0.3,2.4-0.5c0.3-0.1,0.6-0.4,0.7-0.5l1.6-2.4v3c0,0.3,0.5,0.3,0.5,0v-3
	h0.2c0.6,0,0.6-0.9,0-0.9H21v-3c0-0.3-0.5-0.3-0.5,0v3h-0.1l0,0c-0.5-0.1-3-0.3-3.5-0.6c-0.5-0.3-1-0.5-1.5-0.8
	c-0.4-0.2-0.7-0.2-1.2-0.1c-0.3,0-1.8,0.3-3.4,0.7C8.9,6.5,6.6,7.6,6.6,7.6H3.9C3.3,7.4,3.1,6.3,2.8,5.8L2.2,4.4
	C2.1,4.3,2,4.3,1.9,4.3L0.2,4.2C-0.1,4.2,0,4.4,0,4.5L1.2,9c0.1,0.5,0.8,1,1.3,1l6.8,1h0.1l-0.8,2H3.2C3.1,13,3,13.1,3,13.2v0.3
	c0,0.1,0.1,0.2,0.2,0.3c0.4,0.1,1.8,0.5,3.3,0.9c0.1,0,0.1,0,0.2-0.1c0.5-0.2,1-0.4,1.6-0.4c0.5,0,1.1,0.1,1.6,0.3
	c0.3,0.1,0.7,0.2,1,0.2s0.7-0.1,1-0.2c0.5-0.2,1-0.4,1.6-0.4c0.5,0,1.1,0.1,1.6,0.3c0.3,0.1,0.7,0.2,1,0.2c0.3,0,0.7-0.1,1-0.2
	c0.5-0.2,1-0.4,1.6-0.4c0.5,0,1,0.1,1.5,0.3c1.3-0.4,1.8-0.8,1.8-0.8c0.1-0.1,0.2-0.2,0.2-0.3v-0.4C22,13.2,21.9,13.1,21.8,13.1
	 M9.3,13.2l0.8-2h5.2l0.7,2H9.3z M13.4,6L14,7.8H9.4c-0.1,0-0.2-0.1-0.2-0.2V7.3c0-0.1,0.1-0.2,0.2-0.3c0.1-0.1,1-0.4,1.5-0.5
	C11.8,6.3,12.7,6.1,13.4,6 M16.6,7c-0.1,0.1-0.4,0.7-0.4,0.7s-0.1,0.1-0.3,0.1h-1.2l-0.7-2c0.1,0,0.1,0,0.1,0
	c0.4-0.1,0.6-0.1,0.9,0.1c0,0,1.3,0.7,1.4,0.7C16.6,6.7,16.6,6.8,16.6,7"/>
</svg>
