<?xml version="1.0" encoding="utf-8"?>
<!-- Generator: Adobe Illustrator 27.9.1, SVG Export Plug-In . SVG Version: 6.00 Build 0)  -->
<svg version="1.1" id="Layer_1" xmlns="http://www.w3.org/2000/svg" xmlns:xlink="http://www.w3.org/1999/xlink" x="0px" y="0px"
	 viewBox="0 0 14 14" enable-background="new 0 0 14 14" xml:space="preserve">
<path  d="M13.4,11.7c-0.3,0-0.6-0.1-0.8-0.2c-0.2-0.1-0.5-0.2-0.8-0.2c-0.3,0-0.6,0.1-0.8,0.2
	c-0.2,0.1-0.5,0.2-0.8,0.2c-0.3,0-0.6-0.1-0.8-0.2c-0.2-0.1-0.5-0.2-0.8-0.2c-0.3,0-0.6,0.1-0.8,0.2c-0.2,0.1-0.5,0.2-0.8,0.2
	c-0.3,0-0.6-0.1-0.8-0.2c-0.2-0.1-0.5-0.2-0.8-0.2c-0.3,0-0.6,0.1-0.8,0.2c-0.2,0.1-0.5,0.2-0.8,0.2c-0.3,0-0.6-0.1-0.8-0.2
	c-0.2-0.1-0.5-0.2-0.8-0.2c-0.3,0-0.6,0.1-0.8,0.2c-0.2,0.1-0.5,0.2-0.8,0.2v-1.2c0.3,0,0.6-0.1,0.8-0.2c0.2-0.1,0.5-0.2,0.8-0.2
	c0.3,0,0.6,0.1,0.8,0.2c0.2,0.1,0.5,0.2,0.8,0.2c0.3,0,0.6-0.1,0.8-0.2c0.2-0.1,0.5-0.2,0.8-0.2c0.3,0,0.6,0.1,0.8,0.2
	c0.2,0.1,0.5,0.2,0.8,0.2c0.3,0,0.6-0.1,0.8-0.2c0.2-0.1,0.5-0.2,0.8-0.2c0.3,0,0.6,0.1,0.8,0.2c0.2,0.1,0.5,0.2,0.8,0.2
	c0.3,0,0.6-0.1,0.8-0.2c0.2-0.1,0.5-0.2,0.8-0.2c0.3,0,0.6,0.1,0.8,0.2c0.2,0.1,0.5,0.2,0.8,0.2V11.7z"/>
<path  d="M13.9,8.4l-3.3,0l-0.5-1.3c0.4-0.1,1.1-0.2,1.5-0.3c0.2,0,0.4-0.2,0.4-0.3l1-1.5v1.9c0,0.2,0.3,0.2,0.3,0v-2
	h0.1c0.4,0,0.4-0.6,0-0.6h-0.1V2.4c0-0.2-0.3-0.2-0.3,0v1.9h-0.1v0c-0.3,0-1.9-0.2-2.2-0.4C10.4,3.8,10,3.6,9.7,3.4
	C9.5,3.3,9.3,3.3,9,3.4c-0.2,0-1.2,0.2-2.1,0.5c-1.2,0.3-2.7,1-2.7,1l-1.7,0C2.1,4.7,2,4,1.8,3.7L1.4,2.8c0-0.1-0.1-0.1-0.2-0.1
	L0.1,2.7C-0.1,2.6,0,2.8,0,2.9l0.7,2.9c0.1,0.3,0.5,0.6,0.8,0.7L6,7.1H6L5.5,8.4l-3.4,0C2,8.4,2,8.4,2,8.5v0.2C2,8.8,2,8.9,2.1,8.9
	C2.4,9,3.2,9.2,4.2,9.5c0,0,0.1,0,0.1,0c0.3-0.1,0.7-0.2,1-0.2c0.3,0,0.7,0.1,1,0.2C6.5,9.5,6.8,9.6,7,9.6c0.2,0,0.4,0,0.6-0.1
	c0.3-0.1,0.7-0.2,1-0.2c0.3,0,0.7,0.1,1,0.2c0.2,0.1,0.4,0.1,0.6,0.1c0.2,0,0.4,0,0.6-0.1c0.3-0.1,0.7-0.2,1-0.2
	c0.3,0,0.6,0.1,0.9,0.2c0.8-0.3,1.1-0.5,1.1-0.5C14,8.9,14,8.8,14,8.7V8.5C14,8.4,14,8.4,13.9,8.4 M5.9,8.4l0.5-1.3h3.3l0.5,1.3
	L5.9,8.4z M8.5,3.8L8.9,5H6c-0.1,0-0.1,0-0.1-0.1V4.7c0-0.1,0-0.1,0.1-0.2c0.1,0,0.6-0.3,0.9-0.3C7.5,4,8.1,3.9,8.5,3.8 M10.5,4.4
	c0,0.1-0.3,0.4-0.3,0.4s0,0.1-0.2,0.1H9.3L8.9,3.7c0,0,0.1,0,0.1,0c0.3,0,0.4,0,0.6,0.1c0,0,0.8,0.4,0.9,0.5
	C10.5,4.2,10.6,4.4,10.5,4.4"/>
</svg>
