<?xml version="1.0" encoding="utf-8"?>
<!-- Generator: Adobe Illustrator 20.0.0, SVG Export Plug-In . SVG Version: 6.00 Build 0)  -->
<svg version="1.1" id="Icons" xmlns="http://www.w3.org/2000/svg" xmlns:xlink="http://www.w3.org/1999/xlink" x="0px" y="0px"
	 width="30px" height="30px" viewBox="0 0 30 30" enable-background="new 0 0 30 30" xml:space="preserve">
<g>
	<circle fill="#231F20" cx="8" cy="5" r="2"/>
	<path fill="#231F20" d="M4,7L3.8,6.9L2.1,6.5C1.8,6.4,1.5,6.6,1.4,6.9L0,12.7c-0.1,0.3,0.1,0.6,0.4,0.7l1.7,0.4c0.3,0.1,0.6-0.1,0.7-0.4L3,12.7V10
		h0.7L4,8.7V7z"/>
	<path fill="#231F20" d="M12.5,13.2l-2.9-0.7L8.9,9.3C8.4,7.8,6.8,8,6.8,8C5.8,8,5.3,8.1,5,8.6V10H4.5L4,12.3V15H3.3L0.4,27.1l0,0
		c0,0.1,0,0.2,0,0.3c0,0.8,0.6,1.4,1.4,1.4c0.7,0,1.2-0.4,1.4-1l2.5-10.1l2.3,10c0.2,0.6,0.7,1.1,1.4,1.1c0.8,0,1.4-0.6,1.4-1.4
		c0-0.1,0-0.2,0-0.3L7.6,13.8l0.3-1.2l0.1,1c0.2,0.6,0.8,0.7,0.8,0.7l3.3,0.8h0.2c0.5,0,1-0.4,1-1C13.3,13.7,13,13.3,12.5,13.2z"/>
	<path fill="#231F20" d="M16.3,29c0,0,0-8.8,0-9.7c0.6-0.6,4.6-4.6,4.6-4.6c0.2-0.2,0.3-0.5,0.3-0.8s-0.1-0.6-0.3-0.8c-0.5-0.5-1.2-0.5-1.7,0
		L14,18.4V29H16.3z"/>
	<polygon fill="#231F20" points="18,0 18,6 13,3 	"/>
	<rect fill="#231F20" x="20" y="27" width="2" height="2"/>
	<rect fill="#231F20" x="24" y="27" width="2" height="2"/>
	<rect fill="#231F20" x="28" y="27" width="2" height="2"/>
	<rect fill="#231F20" x="28" y="23" width="2" height="2"/>
	<rect fill="#231F20" x="28" y="19" width="2" height="2"/>
	<rect fill="#231F20" x="28" y="15" width="2" height="2"/>
	<rect fill="#231F20" x="28" y="11" width="2" height="2"/>
	<rect fill="#231F20" x="28" y="6" width="2" height="2"/>
	<rect fill="#231F20" x="28" y="2" width="2" height="2"/>
	<rect fill="#231F20" x="24" y="2" width="2" height="2"/>
	<rect fill="#231F20" x="20" y="2" width="2" height="2"/>
</g>
</svg>
