<?xml version="1.0" encoding="utf-8"?>
<!-- Generator: Adobe Illustrator 20.0.0, SVG Export Plug-In . SVG Version: 6.00 Build 0)  -->
<svg version="1.1" id="Icons" xmlns="http://www.w3.org/2000/svg" xmlns:xlink="http://www.w3.org/1999/xlink" x="0px" y="0px"
	 width="14px" height="14px" viewBox="0 0 14 14" enable-background="new 0 0 14 14" xml:space="preserve">
<g>
	<rect fill="#231F20" x="9" y="13" width="1" height="1"/>
	<rect fill="#231F20" x="11" y="13" width="1" height="1"/>
	<rect fill="#231F20" x="13" y="13" width="1" height="1"/>
	<rect fill="#231F20" x="13" y="11" width="1" height="1"/>
	<rect fill="#231F20" x="13" y="9" width="1" height="1"/>
	<rect fill="#231F20" x="13" y="7" width="1" height="1"/>
	<rect fill="#231F20" x="13" y="5" width="1" height="1"/>
	<rect fill="#231F20" x="13" y="3" width="1" height="1"/>
	<rect fill="#231F20" x="13" y="1" width="1" height="1"/>
	<rect fill="#231F20" x="11" y="1" width="1" height="1"/>
	<rect fill="#231F20" x="9" y="1" width="1" height="1"/>
	<rect fill="#231F20" x="7" width="1" height="3"/>
	<rect fill="#231F20" x="6" y="1" width="1" height="1"/>
	<rect fill="#231F20" x="7" y="8" width="1" height="6"/>
	<rect fill="#231F20" x="8" y="7" width="1" height="2"/>
	<rect fill="#231F20" x="9" y="6" width="1" height="2"/>
	<polygon fill="#231F20" points="5,4 5,2 3,2 3,4 4,4 	"/>
	<polygon fill="#231F20" points="3,5 4,5 6,7 6,8 4,6 4,9 5,14 4,14 3,10 2,10 1,13.9 0,14 1,9 2,7 0,7 0,4 1,3 2,4 	"/>
</g>
</svg>
