<?xml version="1.0" encoding="utf-8"?>
<!-- Generator: Adobe Illustrator 20.0.0, SVG Export Plug-In . SVG Version: 6.00 Build 0)  -->
<svg version="1.1" id="Icons" xmlns="http://www.w3.org/2000/svg" xmlns:xlink="http://www.w3.org/1999/xlink" x="0px" y="0px"
	 width="22px" height="22px" viewBox="0 0 22 22" enable-background="new 0 0 22 22" xml:space="preserve">
<g>
	<path fill="#FFFFFF" d="M2.8,4.8L1.6,4.5C1.3,4.4,1.1,4.6,1,4.8L0,9.1c0,0.2,0.1,0.4,0.3,0.5l1.2,0.3c0.2,0,0.3,0,0.4-0.2V7h0.7L3,5.7V5h0.1
		C3,4.9,2.9,4.8,2.8,4.8z"/>
	<path fill="#FFFFFF" d="M9.1,9.4L7,8.9L6.4,6.5C5.7,6,4.9,6,4.9,6C4.5,6,4.2,6.8,4,7H3.3L3,8.3V10H2.6l-2.3,9.6l0,0v0.2c0,0.6,0.5,1,1,1
		s0.9-0.3,1-0.7l1.8-7.4l1.7,7.4c0.1,0.5,0.5,0.8,1,0.8c0.6,0,1-0.5,1-1v-0.2L5.5,9.9L5.7,9l0.1,0.7c0.1,0.4,0.5,0.5,0.5,0.5
		l2.4,0.6h0.1c0.4,0,0.7-0.3,0.7-0.7C9.6,9.7,9.4,9.5,9.1,9.4z"/>
	<polygon fill="#FFFFFF" points="12,0 12,4 9,2 	"/>
	<path fill="#FFFFFF" d="M12,21c0,0,0-6.4,0-7.1c0.4-0.4,3.1-3.3,3.1-3.3c0.2-0.2,0.2-0.4,0.2-0.6c0-0.2-0.1-0.4-0.2-0.6c-0.3-0.3-0.9-0.3-1.2,0
		L10,13v8H12z"/>
	<path fill="#FFFFFF" d="M15,21L15,21c-0.6,0-1-0.4-1-1s0.4-1,1-1s1,0.4,1,1S15.6,21,15,21z"/>
	<path fill="#FFFFFF" d="M18,21L18,21c-0.6,0-1-0.4-1-1s0.4-1,1-1s1,0.4,1,1S18.6,21,18,21z"/>
	<path fill="#FFFFFF" d="M21,18L21,18c-0.6,0-1-0.4-1-1s0.4-1,1-1s1,0.4,1,1S21.6,18,21,18z"/>
	<path fill="#FFFFFF" d="M21,21L21,21c-0.6,0-1-0.4-1-1s0.4-1,1-1s1,0.4,1,1S21.6,21,21,21z"/>
	<path fill="#FFFFFF" d="M21,15L21,15c-0.6,0-1-0.4-1-1s0.4-1,1-1s1,0.4,1,1S21.6,15,21,15z"/>
	<path fill="#FFFFFF" d="M21,6L21,6c-0.6,0-1-0.4-1-1s0.4-1,1-1s1,0.4,1,1S21.6,6,21,6z"/>
	<path fill="#FFFFFF" d="M15,3L15,3c-0.6,0-1-0.4-1-1s0.4-1,1-1s1,0.4,1,1S15.6,3,15,3z"/>
	<path fill="#FFFFFF" d="M18,3L18,3c-0.6,0-1-0.4-1-1s0.4-1,1-1s1,0.4,1,1S18.6,3,18,3z"/>
	<path fill="#FFFFFF" d="M21,9L21,9c-0.6,0-1-0.4-1-1s0.4-1,1-1s1,0.4,1,1S21.6,9,21,9z"/>
	<path fill="#FFFFFF" d="M21,3L21,3c-0.6,0-1-0.4-1-1s0.4-1,1-1s1,0.4,1,1S21.6,3,21,3z"/>
	<path fill="#FFFFFF" d="M21,12L21,12c-0.6,0-1-0.4-1-1s0.4-1,1-1s1,0.4,1,1S21.6,12,21,12z"/>
	<path fill="#FFFFFF" d="M5.7,5H5.3C4.6,5,4,4.4,4,3.7V3.3C4,2.6,4.6,2,5.3,2h0.4C6.4,2,7,2.6,7,3.3v0.4C7,4.4,6.4,5,5.7,5z"/>
</g>
</svg>
