<?xml version="1.0" encoding="utf-8"?>
<!-- Generator: Adobe Illustrator 18.1.1, SVG Export Plug-In . SVG Version: 6.00 Build 0)  -->
<svg version="1.1" id="Icons" xmlns="http://www.w3.org/2000/svg" xmlns:xlink="http://www.w3.org/1999/xlink" x="0px" y="0px"
	 viewBox="0 0 32 32" enable-background="new 0 0 32 32" xml:space="preserve">
<g opacity="0.5">
	<circle cx="10" cy="7" r="2"/>
	<path d="M6,9L5.8,8.9L4.1,8.5C3.8,8.4,3.5,8.6,3.4,8.9L2,14.7c-0.1,0.3,0.1,0.6,0.4,0.7l1.7,0.4c0.3,0.1,0.6-0.1,0.7-0.4L5,14.7V12
		h0.7L6,10.7V9z"/>
	<path d="M14.5,15.2l-2.9-0.7l-0.8-3.2C10.4,9.8,8.8,10,8.8,10c-1,0-1.5,0.1-1.8,0.6V12H6.5L6,14.3V17H5.3L2.4,29.1v0
		c0,0.1,0,0.2,0,0.3c0,0.8,0.6,1.4,1.4,1.4c0.7,0,1.2-0.4,1.4-1l2.5-10.1l2.3,10c0.2,0.6,0.7,1.1,1.4,1.1c0.8,0,1.4-0.6,1.4-1.4
		c0-0.1,0-0.2,0-0.3L9.6,15.8l0.3-1.2l0.2,0.9c0.2,0.6,0.8,0.7,0.8,0.7l3.3,0.8l0.2,0c0.5,0,1-0.4,1-1C15.3,15.7,15,15.3,14.5,15.2z
		"/>
	<path d="M17.8,31c0,0,0-8.8,0-9.7c0.6-0.6,4.6-4.6,4.6-4.6c0.2-0.2,0.3-0.5,0.3-0.8c0-0.3-0.1-0.6-0.3-0.8c-0.5-0.5-1.2-0.5-1.7,0
		l-5.3,5.2V31H17.8z"/>
	<polygon points="20,2 20,8 15,5 	"/>
	<rect x="22" y="29" width="2" height="2"/>
	<rect x="26" y="29" width="2" height="2"/>
	<rect x="30" y="29" width="2" height="2"/>
	<rect x="30" y="25" width="2" height="2"/>
	<rect x="30" y="21" width="2" height="2"/>
	<rect x="30" y="17" width="2" height="2"/>
	<rect x="30" y="13" width="2" height="2"/>
	<rect x="30" y="8" width="2" height="2"/>
	<rect x="30" y="4" width="2" height="2"/>
	<rect x="26" y="4" width="2" height="2"/>
	<rect x="22" y="4" width="2" height="2"/>
</g>
<g opacity="0.75">
	<circle cx="9" cy="6" r="2"/>
	<path d="M5,8L4.8,7.9L3.1,7.5C2.8,7.4,2.5,7.6,2.4,7.9L1,13.7c-0.1,0.3,0.1,0.6,0.4,0.7l1.7,0.4c0.3,0.1,0.6-0.1,0.7-0.4L4,13.7V11
		h0.7L5,9.7V8z"/>
	<path d="M13.5,14.2l-2.9-0.7l-0.8-3.2C9.4,8.8,7.8,9,7.8,9C6.8,9,6.3,9.1,6,9.6V11H5.5L5,13.3V16H4.3L1.4,28.1v0c0,0.1,0,0.2,0,0.3
		c0,0.8,0.6,1.4,1.4,1.4c0.7,0,1.2-0.4,1.4-1l2.5-10.1l2.3,10c0.2,0.6,0.7,1.1,1.4,1.1c0.8,0,1.4-0.6,1.4-1.4c0-0.1,0-0.2,0-0.3
		L8.6,14.8l0.3-1.2L9,14.6c0.2,0.6,0.8,0.7,0.8,0.7l3.3,0.8l0.2,0c0.5,0,1-0.4,1-1C14.3,14.7,14,14.3,13.5,14.2z"/>
	<path d="M16.8,30c0,0,0-8.8,0-9.7c0.6-0.6,4.6-4.6,4.6-4.6c0.2-0.2,0.3-0.5,0.3-0.8c0-0.3-0.1-0.6-0.3-0.8c-0.5-0.5-1.2-0.5-1.7,0
		l-5.3,5.2V30H16.8z"/>
	<polygon points="19,1 19,7 14,4 	"/>
	<rect x="21" y="28" width="2" height="2"/>
	<rect x="25" y="28" width="2" height="2"/>
	<rect x="29" y="28" width="2" height="2"/>
	<rect x="29" y="24" width="2" height="2"/>
	<rect x="29" y="20" width="2" height="2"/>
	<rect x="29" y="16" width="2" height="2"/>
	<rect x="29" y="12" width="2" height="2"/>
	<rect x="29" y="7" width="2" height="2"/>
	<rect x="29" y="3" width="2" height="2"/>
	<rect x="25" y="3" width="2" height="2"/>
	<rect x="21" y="3" width="2" height="2"/>
</g>
<g>
	<circle fill="#E6E6E6" cx="8" cy="5" r="2"/>
	<path fill="#E6E6E6" d="M4,7L3.8,6.9L2.1,6.5C1.8,6.4,1.5,6.6,1.4,6.9L0,12.7c-0.1,0.3,0.1,0.6,0.4,0.7l1.7,0.4
		c0.3,0.1,0.6-0.1,0.7-0.4L3,12.7V10h0.7L4,8.7V7z"/>
	<path fill="#E6E6E6" d="M12.5,13.2l-2.9-0.7L8.9,9.3C8.4,7.8,6.8,8,6.8,8C5.8,8,5.3,8.1,5,8.6V10H4.5L4,12.3V15H3.3L0.4,27.1v0
		c0,0.1,0,0.2,0,0.3c0,0.8,0.6,1.4,1.4,1.4c0.7,0,1.2-0.4,1.4-1l2.5-10.1l2.3,10c0.2,0.6,0.7,1.1,1.4,1.1c0.8,0,1.4-0.6,1.4-1.4
		c0-0.1,0-0.2,0-0.3L7.6,13.8l0.3-1.2L8,13.6c0.2,0.6,0.8,0.7,0.8,0.7l3.3,0.8l0.2,0c0.5,0,1-0.4,1-1C13.3,13.7,13,13.3,12.5,13.2z"
		/>
	<path fill="#E6E6E6" d="M15.8,29c0,0,0-8.8,0-9.7c0.6-0.6,4.6-4.6,4.6-4.6c0.2-0.2,0.3-0.5,0.3-0.8c0-0.3-0.1-0.6-0.3-0.8
		c-0.5-0.5-1.2-0.5-1.7,0l-5.3,5.2V29H15.8z"/>
	<polygon fill="#E6E6E6" points="18,0 18,6 13,3 	"/>
	<rect x="20" y="27" fill="#E6E6E6" width="2" height="2"/>
	<rect x="24" y="27" fill="#E6E6E6" width="2" height="2"/>
	<rect x="28" y="27" fill="#E6E6E6" width="2" height="2"/>
	<rect x="28" y="23" fill="#E6E6E6" width="2" height="2"/>
	<rect x="28" y="19" fill="#E6E6E6" width="2" height="2"/>
	<rect x="28" y="15" fill="#E6E6E6" width="2" height="2"/>
	<rect x="28" y="11" fill="#E6E6E6" width="2" height="2"/>
	<rect x="28" y="6" fill="#E6E6E6" width="2" height="2"/>
	<rect x="28" y="2" fill="#E6E6E6" width="2" height="2"/>
	<rect x="24" y="2" fill="#E6E6E6" width="2" height="2"/>
	<rect x="20" y="2" fill="#E6E6E6" width="2" height="2"/>
</g>
</svg>
