<?xml version="1.0" encoding="utf-8"?>
<!-- Generator: Adobe Illustrator 18.1.1, SVG Export Plug-In . SVG Version: 6.00 Build 0)  -->
<svg version="1.1" id="Icons" xmlns="http://www.w3.org/2000/svg" xmlns:xlink="http://www.w3.org/1999/xlink" x="0px" y="0px"
	 viewBox="0 0 16 16" enable-background="new 0 0 16 16" xml:space="preserve">
<g opacity="0.5">
	<rect x="11" y="15" width="1" height="1"/>
	<rect x="13" y="15" width="1" height="1"/>
	<rect x="15" y="15" width="1" height="1"/>
	<rect x="15" y="13" width="1" height="1"/>
	<rect x="15" y="11" width="1" height="1"/>
	<rect x="15" y="9" width="1" height="1"/>
	<rect x="15" y="7" width="1" height="1"/>
	<rect x="15" y="5" width="1" height="1"/>
	<rect x="15" y="3" width="1" height="1"/>
	<rect x="13" y="3" width="1" height="1"/>
	<rect x="11" y="3" width="1" height="1"/>
	<rect x="9" y="2" width="1" height="3"/>
	<rect x="8" y="3" width="1" height="1"/>
	<rect x="9" y="10" width="1" height="6"/>
	<rect x="10" y="9" width="1" height="2"/>
	<rect x="11" y="8" width="1" height="2"/>
	<polygon points="7,6 7,4 5,4 5,6 6,6 	"/>
	<polygon points="5,7 6,7 8,9 8,10 6,8 6,11 7,16 6,16 5,12 4,12 3,15.9 2,16 3,11 4,9 2,9 2,6 3,5 4,6 	"/>
</g>
<g opacity="0.75">
	<rect x="10" y="14" width="1" height="1"/>
	<rect x="12" y="14" width="1" height="1"/>
	<rect x="14" y="14" width="1" height="1"/>
	<rect x="14" y="12" width="1" height="1"/>
	<rect x="14" y="10" width="1" height="1"/>
	<rect x="14" y="8" width="1" height="1"/>
	<rect x="14" y="6" width="1" height="1"/>
	<rect x="14" y="4" width="1" height="1"/>
	<rect x="14" y="2" width="1" height="1"/>
	<rect x="12" y="2" width="1" height="1"/>
	<rect x="10" y="2" width="1" height="1"/>
	<rect x="8" y="1" width="1" height="3"/>
	<rect x="7" y="2" width="1" height="1"/>
	<rect x="8" y="9" width="1" height="6"/>
	<rect x="9" y="8" width="1" height="2"/>
	<rect x="10" y="7" width="1" height="2"/>
	<polygon points="6,5 6,3 4,3 4,5 5,5 	"/>
	<polygon points="4,6 5,6 7,8 7,9 5,7 5,10 6,15 5,15 4,11 3,11 2,14.9 1,15 2,10 3,8 1,8 1,5 2,4 3,5 	"/>
</g>
<g>
	<rect x="9" y="13" fill="#FFFFFF" width="1" height="1"/>
	<rect x="11" y="13" fill="#FFFFFF" width="1" height="1"/>
	<rect x="13" y="13" fill="#FFFFFF" width="1" height="1"/>
	<rect x="13" y="11" fill="#FFFFFF" width="1" height="1"/>
	<rect x="13" y="9" fill="#FFFFFF" width="1" height="1"/>
	<rect x="13" y="7" fill="#FFFFFF" width="1" height="1"/>
	<rect x="13" y="5" fill="#FFFFFF" width="1" height="1"/>
	<rect x="13" y="3" fill="#FFFFFF" width="1" height="1"/>
	<rect x="13" y="1" fill="#FFFFFF" width="1" height="1"/>
	<rect x="11" y="1" fill="#FFFFFF" width="1" height="1"/>
	<rect x="9" y="1" fill="#FFFFFF" width="1" height="1"/>
	<rect x="7" fill="#FFFFFF" width="1" height="3"/>
	<rect x="6" y="1" fill="#FFFFFF" width="1" height="1"/>
	<rect x="7" y="8" fill="#FFFFFF" width="1" height="6"/>
	<rect x="8" y="7" fill="#FFFFFF" width="1" height="2"/>
	<rect x="9" y="6" fill="#FFFFFF" width="1" height="2"/>
	<polygon fill="#FFFFFF" points="5,4 5,2 3,2 3,4 4,4 	"/>
	<polygon fill="#FFFFFF" points="3,5 4,5 6,7 6,8 4,6 4,9 5,14 4,14 3,10 2,10 1,13.9 0,14 1,9 2,7 0,7 0,4 1,3 2,4 	"/>
</g>
</svg>
