<?xml version="1.0" encoding="utf-8"?>
<!-- Generator: Adobe Illustrator 22.0.1, SVG Export Plug-In . SVG Version: 6.00 Build 0)  -->
<svg version="1.1" id="Layer_1" xmlns="http://www.w3.org/2000/svg" xmlns:xlink="http://www.w3.org/1999/xlink" x="0px" y="0px"
	 width="14px" height="14px" viewBox="0 0 14 14" enable-background="new 0 0 14 14" xml:space="preserve">
<g>
	<path d="M0.1,1.9C0.1,0.9,2.5,0,5.5,0S11,0.9,11,1.9S8.6,3.8,5.5,3.8S0.1,3,0.1,1.9z M5.5,2.4c1.2,0,2.2-0.3,2.2-0.8
		s-1-0.8-2.2-0.8S3.4,1.2,3.4,1.6S4.3,2.4,5.5,2.4z"/>
	<path d="M11,3.3L11,3.3c-0.5,0.9-2.6,1.5-5.5,1.5S0.7,4.4,0.1,3.3h0v8.8h0c0.1,1,2.5,1.9,5.5,1.9c3,0,5.4-0.8,5.5-1.9h0V3.3z"/>
	<path d="M11.9,12l2,0.7V2.4l-2.3-0.9c0,0,0.3,0.3,0.3,0.6C11.9,2.7,11.9,12,11.9,12z"/>
</g>
</svg>
