<?xml version="1.0" encoding="utf-8"?>
<!-- Generator: Adobe Illustrator 22.0.1, SVG Export Plug-In . SVG Version: 6.00 Build 0)  -->
<svg version="1.1" id="Layer_1" xmlns="http://www.w3.org/2000/svg" xmlns:xlink="http://www.w3.org/1999/xlink" x="0px" y="0px"
	 width="22px" height="22px" viewBox="0 0 22 22" enable-background="new 0 0 22 22" xml:space="preserve">
<g>
	<path fill="#FFFFFF" d="M0.1,3c0-1.7,3.8-3,8.6-3s8.6,1.3,8.6,3s-3.8,3-8.6,3S0.1,4.7,0.1,3z M8.7,3.7c1.9,0,3.4-0.5,3.4-1.2s-1.5-1.2-3.4-1.2
		S5.3,1.9,5.3,2.5S6.8,3.7,8.7,3.7z"/>
	<path fill="#FFFFFF" d="M17.3,5.2L17.3,5.2c-0.9,1.5-4,2.3-8.6,2.3S1,6.9,0.1,5.2h0v13.8h0C0.2,20.7,4,22,8.7,22c4.7,0,8.5-1.3,8.6-2.9h0V5.2z"/>
	<path fill="#FFFFFF" d="M18.7,18.9l3.2,1.1V3.7l-3.6-1.4c0,0,0.4,0.5,0.4,0.9C18.8,4.2,18.7,18.9,18.7,18.9z"/>
</g>
</svg>
