<?xml version="1.0" encoding="utf-8"?>
<!-- Generator: Adobe Illustrator 22.0.1, SVG Export Plug-In . SVG Version: 6.00 Build 0)  -->
<svg version="1.1" id="Layer_1" xmlns="http://www.w3.org/2000/svg" xmlns:xlink="http://www.w3.org/1999/xlink" x="0px" y="0px"
	 width="30px" height="30px" viewBox="0 0 30 30" enable-background="new 0 0 30 30" xml:space="preserve">
<g>
	<path d="M0.2,4.1C0.2,1.8,5.4,0,11.9,0s11.7,1.8,11.7,4.1s-5.2,4.1-11.7,4.1S0.2,6.3,0.2,4.1z M11.9,5.1c2.6,0,4.7-0.7,4.7-1.6
		s-2.1-1.6-4.7-1.6S7.2,2.6,7.2,3.5S9.3,5.1,11.9,5.1z"/>
	<path d="M23.6,7.1L23.6,7.1c-1.2,2-5.5,3.1-11.7,3.1S1.4,9.4,0.2,7.1h0V26h0c0.1,2.2,5.3,4,11.7,4c6.4,0,11.6-1.8,11.7-4h0V7.1z"/>
	<path d="M25.5,25.7l4.3,1.6V5l-4.9-1.9c0,0,0.6,0.7,0.6,1.3C25.6,5.8,25.5,25.7,25.5,25.7z"/>
</g>
</svg>
