<?xml version="1.0" encoding="utf-8"?>
<!-- Generator: Adobe Illustrator 18.1.1, SVG Export Plug-In . SVG Version: 6.00 Build 0)  -->
<svg version="1.1" id="Layer_1" xmlns="http://www.w3.org/2000/svg" xmlns:xlink="http://www.w3.org/1999/xlink" x="0px" y="0px"
	 viewBox="0 0 16 16" enable-background="new 0 0 16 16" xml:space="preserve">
<polygon opacity="0.5" points="2,6 2,15 8,15 8,10 10,10 10,15 16,15 16,6 9,3 "/>
<polygon opacity="0.75" points="1,5 1,14 7,14 7,9 9,9 9,14 15,14 15,5 8,2 "/>
<polygon points="0,4 0,13 6,13 6,8 8,8 8,13 14,13 14,4 "/>
<rect y="11" fill="#E6E6E6" width="6" height="2"/>
<rect y="8" fill="#E6E6E6" width="6" height="2"/>
<rect y="5" fill="#E6E6E6" width="14" height="1.938"/>
<polygon fill="#E6E6E6" points="0,4 14,4 7,1 "/>
<rect x="8" y="11" fill="#E6E6E6" width="6" height="2"/>
<rect x="8" y="8" fill="#E6E6E6" width="6" height="2"/>
</svg>
