<?xml version="1.0" encoding="utf-8"?>
<!-- Generator: Adobe Illustrator 18.1.1, SVG Export Plug-In . SVG Version: 6.00 Build 0)  -->
<svg version="1.1" id="Icons" xmlns="http://www.w3.org/2000/svg" xmlns:xlink="http://www.w3.org/1999/xlink" x="0px" y="0px"
	 viewBox="0 0 32 32" enable-background="new 0 0 32 32" xml:space="preserve">
<g opacity="0.1">
	<polygon points="32,6 32,3 2,16 2,19 5,17.7 5,30 32,30 32,27 8,27 8,16.4 	"/>
</g>
<g opacity="0.2">
	<polygon points="31,5 31,2 1,15 1,18 4,16.7 4,29 31,29 31,26 7,26 7,15.4 	"/>
</g>
<g>
	<polygon points="30,4 30,1 0,14 0,17 3,15.7 3,28 30,28 30,25 6,25 6,14.4 	"/>
</g>
</svg>
