<?xml version="1.0" encoding="utf-8"?>
<!-- Generator: Adobe Illustrator 18.1.1, SVG Export Plug-In . SVG Version: 6.00 Build 0)  -->
<svg version="1.1" id="Icons" xmlns="http://www.w3.org/2000/svg" xmlns:xlink="http://www.w3.org/1999/xlink" x="0px" y="0px"
	 viewBox="0 0 16 16" enable-background="new 0 0 16 16" xml:space="preserve">
<g opacity="0.5">
	<polygon points="16,4.5 16,3 2,9 2,10.5 3,10.1 3,14 3,15 3,16 16,16 16,14 5,14 5,9.2 	"/>
</g>
<g opacity="0.75">
	<polygon points="15,3.5 15,2 1,8 1,9.5 2,9.1 2,13 2,14 2,15 15,15 15,13 4,13 4,8.2 	"/>
</g>
<g>
	<polygon fill="#E6E6E6" points="14,2.5 14,1 0,7 0,8.5 1,8.1 1,12 1,13 1,14 14,14 14,12 3,12 3,7.2 	"/>
</g>
</svg>
