<?xml version="1.0" encoding="utf-8"?>
<!-- Generator: Adobe Illustrator 18.1.1, SVG Export Plug-In . SVG Version: 6.00 Build 0)  -->
<svg version="1.1" id="Layer_1" xmlns="http://www.w3.org/2000/svg" xmlns:xlink="http://www.w3.org/1999/xlink" x="0px" y="0px"
	 viewBox="0 0 24 24" enable-background="new 0 0 24 24" xml:space="preserve">
<polygon opacity="0.1" points="2,23 11,23 11,15 15,15 15,23 24,23 24,8 13,3 2,8 "/>
<polygon opacity="0.2" points="1,22 10,22 10,14 14,14 14,22 23,22 23,7 12,2 1,7 "/>
<polygon fill="#FFFFFF" points="0,21 9,21 9,13 13,13 13,21 22,21 22,6 11,1 0,6 "/>
<rect y="18" width="9" height="3"/>
<rect y="13" width="9" height="3"/>
<rect y="8" width="22" height="3"/>
<rect x="13" y="18" width="9" height="3"/>
<rect x="13" y="13" width="9" height="3"/>
<polygon points="0,6 22,6 11,1 "/>
</svg>
