<?xml version="1.0" encoding="utf-8"?>
<!-- Generator: Adobe Illustrator 18.1.1, SVG Export Plug-In . SVG Version: 6.00 Build 0)  -->
<svg version="1.1" id="Layer_1" xmlns="http://www.w3.org/2000/svg" xmlns:xlink="http://www.w3.org/1999/xlink" x="0px" y="0px"
	 viewBox="0 0 32 32" enable-background="new 0 0 32 32" xml:space="preserve">
<polygon opacity="0.5" points="2,32 14,32 14,21 20,21 20,32 32,32 32,11 17,3 2,11 "/>
<polygon opacity="0.75" points="1,31 13,31 13,20 19,20 19,31 31,31 31,10 16,2 1,10 "/>
<polygon points="0,30 12,30 12,19 18,19 18,30 30,30 30,9 0,9 "/>
<rect y="12" fill="#E6E6E6" width="30" height="4"/>
<rect y="26" fill="#E6E6E6" width="12" height="4"/>
<rect x="18" y="26" fill="#E6E6E6" width="12" height="4"/>
<rect y="19" fill="#E6E6E6" width="12" height="4"/>
<rect x="18" y="19" fill="#E6E6E6" width="12" height="4"/>
<polygon fill="#E6E6E6" points="0,9 30,9 15,1 "/>
</svg>
