<?xml version="1.0" encoding="utf-8"?>
<!-- Generator: Adobe Illustrator 18.1.1, SVG Export Plug-In . SVG Version: 6.00 Build 0)  -->
<svg version="1.1" id="Icons" xmlns="http://www.w3.org/2000/svg" xmlns:xlink="http://www.w3.org/1999/xlink" x="0px" y="0px"
	 viewBox="0 0 24 24" enable-background="new 0 0 24 24" xml:space="preserve">
<g opacity="0.1">
	<polygon points="24,5 24,3 2,13 2,15 4,14.1 4,23 24,23 24,21 6,21 6,13.2 	"/>
</g>
<g opacity="0.2">
	<polygon points="23,4 23,2 1,12 1,14 3,13.1 3,22 23,22 23,20 5,20 5,12.2 	"/>
</g>
<g>
	<polygon points="22,3 22,1 0,11 0,13 2,12.1 2,21 22,21 22,19 4,19 4,11.2 	"/>
</g>
</svg>
