<?xml version="1.0" encoding="utf-8"?>
<!-- Generator: Adobe Illustrator 22.0.1, SVG Export Plug-In . SVG Version: 6.00 Build 0)  -->
<svg version="1.1" id="Layer_1" xmlns="http://www.w3.org/2000/svg" xmlns:xlink="http://www.w3.org/1999/xlink" x="0px" y="0px"
	 width="22px" height="22px" viewBox="0 0 22 22" enable-background="new 0 0 22 22" xml:space="preserve">
<path fill="#FFFFFF" d="M22,19.4c-0.5,0-0.9-0.1-1.4-0.3c-0.4-0.2-0.9-0.3-1.4-0.3c-0.5,0-1,0.1-1.4,0.3c-0.4,0.2-0.9,0.3-1.4,0.3
	c-0.5,0-0.9-0.1-1.4-0.3c-0.4-0.2-0.9-0.3-1.4-0.3c-0.5,0-1,0.1-1.4,0.3c-0.4,0.2-0.9,0.3-1.4,0.3c-0.5,0-0.9-0.1-1.4-0.3
	c-0.4-0.2-0.9-0.3-1.4-0.3c-0.5,0-1,0.1-1.4,0.3c-0.4,0.2-0.9,0.3-1.4,0.3c-0.5,0-0.9-0.1-1.4-0.3c-0.4-0.2-0.9-0.3-1.4-0.3
	c-0.5,0-1,0.1-1.4,0.3c-0.4,0.2-0.9,0.3-1.4,0.3v-2c0.5,0,0.9-0.1,1.4-0.3c0.4-0.2,0.9-0.3,1.4-0.3c0.5,0,1,0.1,1.4,0.3
	c0.4,0.2,0.9,0.3,1.4,0.3c0.5,0,0.9-0.1,1.4-0.3c0.4-0.2,0.9-0.3,1.4-0.3c0.5,0,1,0.1,1.4,0.3c0.4,0.2,0.9,0.3,1.4,0.3
	c0.5,0,0.9-0.1,1.4-0.3c0.4-0.2,0.9-0.3,1.4-0.3c0.5,0,1,0.1,1.4,0.3c0.4,0.2,0.9,0.3,1.4,0.3c0.5,0,0.9-0.1,1.4-0.3
	c0.4-0.2,0.9-0.3,1.4-0.3c0.5,0,1,0.1,1.4,0.3c0.4,0.2,0.9,0.3,1.4,0.3V19.4z"/>
<path fill="#FFFFFF" d="M11.8,10.9l-2-4.7l2-0.8l-0.5-1.2L10,4.7c0,0-0.3,0.1-0.7,0.3l-1-2.4L7.1,3.1l1,2.4C7,5.9,5.9,6.4,5.9,6.4l0.5,1.2l2.1-0.9
	l2,4.7c-4.1,1.7-8.1,3.4-7.8,3.4c0.5,0,1,0.1,1.4,0.3c0.4,0.2,0.9,0.3,1.4,0.3c0.5,0,0.9-0.1,1.4-0.3c0.4-0.2,0.9-0.3,1.4-0.3
	c0.5,0,1,0.1,1.4,0.3c0.4,0.2,0.9,0.3,1.4,0.3c0.5,0,0.9-0.1,1.4-0.3c0.4-0.2,0.9-0.3,1.4-0.3c0.5,0,1,0.1,1.4,0.3
	c0.4,0.2,0.9,0.3,1.4,0.3c0.1,0,0.3,0,0.4,0c0.2-0.1,0.5-0.1,0.7-0.2c0,0,0,0,0,0c0.4-2.4,1.4-7.3,1.4-7.3S15.6,9.4,11.8,10.9z"/>
</svg>
