<?xml version="1.0" encoding="utf-8"?>
<!-- Generator: Adobe Illustrator 22.0.1, SVG Export Plug-In . SVG Version: 6.00 Build 0)  -->
<svg version="1.1" id="Layer_1" xmlns="http://www.w3.org/2000/svg" xmlns:xlink="http://www.w3.org/1999/xlink" x="0px" y="0px"
	 width="30px" height="30px" viewBox="0 0 30 30" enable-background="new 0 0 30 30" xml:space="preserve">
<path d="M30,26.4c-0.7,0-1.3-0.1-1.8-0.4c-0.6-0.3-1.2-0.4-1.9-0.4c-0.7,0-1.3,0.2-1.9,0.4c-0.6,0.3-1.2,0.4-1.8,0.4
	s-1.3-0.1-1.8-0.4c-0.6-0.3-1.2-0.4-1.9-0.4c-0.7,0-1.3,0.2-1.9,0.4c-0.6,0.3-1.2,0.4-1.8,0.4c-0.7,0-1.3-0.1-1.8-0.4
	c-0.6-0.3-1.2-0.4-1.9-0.4c-0.7,0-1.3,0.2-1.9,0.4c-0.6,0.3-1.2,0.4-1.8,0.4c-0.7,0-1.3-0.1-1.8-0.4c-0.6-0.3-1.2-0.4-1.9-0.4
	c-0.7,0-1.3,0.2-1.9,0.4c-0.6,0.3-1.2,0.4-1.8,0.4v-2.8c0.7,0,1.3-0.1,1.8-0.4c0.6-0.3,1.2-0.4,1.9-0.4c0.7,0,1.3,0.2,1.9,0.4
	c0.6,0.3,1.2,0.4,1.8,0.4c0.7,0,1.3-0.1,1.8-0.4c0.6-0.3,1.2-0.4,1.9-0.4c0.7,0,1.3,0.2,1.9,0.4c0.6,0.3,1.2,0.4,1.8,0.4
	c0.7,0,1.3-0.1,1.8-0.4c0.6-0.3,1.2-0.4,1.9-0.4c0.7,0,1.3,0.2,1.9,0.4c0.6,0.3,1.2,0.4,1.8,0.4s1.3-0.1,1.8-0.4
	c0.6-0.3,1.2-0.4,1.9-0.4c0.7,0,1.3,0.2,1.9,0.4c0.6,0.3,1.2,0.4,1.8,0.4V26.4z"/>
<path d="M16.1,14.9l-2.7-6.5l2.7-1.1l-0.7-1.7l-1.8,0.8c0,0-0.4,0.2-0.9,0.4l-1.4-3.2L9.7,4.3L11,7.5C9.6,8.1,8.1,8.7,8.1,8.7
	l0.7,1.7l2.9-1.2l2.7,6.5c-5.6,2.3-11,4.6-10.7,4.6c0.7,0,1.3,0.2,1.9,0.4c0.6,0.3,1.2,0.4,1.8,0.4c0.7,0,1.3-0.1,1.8-0.4
	c0.6-0.3,1.2-0.4,1.9-0.4c0.7,0,1.3,0.2,1.9,0.4c0.6,0.3,1.2,0.4,1.8,0.4c0.7,0,1.3-0.1,1.8-0.4c0.6-0.3,1.2-0.4,1.9-0.4
	c0.7,0,1.3,0.2,1.9,0.4c0.6,0.3,1.2,0.4,1.8,0.4c0.2,0,0.4,0,0.5-0.1c0.3-0.1,0.7-0.1,1-0.2c0,0,0,0,0,0c0.6-3.3,2-10,2-10
	S21.2,12.8,16.1,14.9z"/>
</svg>
