<?xml version="1.0" encoding="utf-8"?>
<!-- Generator: Adobe Illustrator 25.4.1, SVG Export Plug-In . SVG Version: 6.00 Build 0)  -->
<svg version="1.1" id="Icons" xmlns="http://www.w3.org/2000/svg" xmlns:xlink="http://www.w3.org/1999/xlink" x="0px" y="0px"
	 width="14px" height="14px" viewBox="0 0 14 14" enable-background="new 0 0 14 14" xml:space="preserve">
<path fill="#ffffff" d="M3.8,2.5c0.2,0,0.3,0.1,0.3,0.3S4,3.1,3.8,3.1S3.5,3,3.5,2.8S3.6,2.5,3.8,2.5z M3.7,1.3C3.9,1.3,4,1.4,4,1.6
	S3.9,1.9,3.7,1.9S3.4,1.8,3.4,1.6S3.5,1.3,3.7,1.3z M3,3.3c0.2,0,0.3,0.1,0.3,0.3S3.2,3.9,3,3.9S2.7,3.8,2.7,3.6S2.8,3.3,3,3.3z
	 M2.8,2.2c0,0.2,0.1,0.3,0.3,0.3s0.3-0.1,0.3-0.3S3.3,1.9,3.1,1.9C2.9,1.9,2.8,2,2.8,2.2z M4.6,3.7c0.2-0.1,0.3-0.2,0.3-0.4
	C4.9,3.2,4.8,3,4.6,3C4.4,3,4.2,3.2,4.2,3.4C4.2,3.6,4.4,3.7,4.6,3.7z M5.4,4.3c0.2,0,0.3-0.2,0.3-0.4c0-0.2-0.2-0.3-0.4-0.3
	S5,3.8,5,4C5,4.2,5.2,4.3,5.4,4.3z M6.7,2.5C6.9,2.5,7,2.6,7,2.8S6.9,3.1,6.7,3.1S6.4,3,6.4,2.8S6.5,2.5,6.7,2.5z M7.6,3.6
	C7.8,3.6,8,3.4,8,3.2S7.8,2.8,7.6,2.8C7.4,2.8,7.2,3,7.2,3.2S7.4,3.6,7.6,3.6z M4.7,1.7C4.9,1.7,5,1.8,5,2S4.9,2.3,4.7,2.3
	S4.4,2.2,4.4,2S4.5,1.7,4.7,1.7z M8.5,4C9.3,4,10,4.7,10,5.5S9.3,7,8.5,7S7,6.3,7,5.5S7.7,4,8.5,4z M2.4,2.5c-0.2,0-0.3,0.1-0.3,0.3
	s0.1,0.3,0.3,0.3S2.7,3,2.7,2.8S2.6,2.5,2.4,2.5z M5.7,2.7C5.9,2.7,6,2.6,6,2.4c0-0.2-0.1-0.3-0.3-0.3S5.4,2.2,5.4,2.4
	C5.4,2.6,5.5,2.7,5.7,2.7z M1.8,3.2c0.2,0,0.3,0.1,0.3,0.3S2,3.8,1.8,3.8S1.5,3.7,1.5,3.5S1.6,3.2,1.8,3.2z M3.6,4.1
	c-0.2,0-0.3,0.1-0.3,0.3c0,0.2,0.1,0.3,0.3,0.3s0.3-0.1,0.3-0.3C3.9,4.2,3.8,4.1,3.6,4.1z M3.3,6.3C3.4,6.1,3.2,6,3,5.9
	C2.8,5.9,2.6,6,2.6,6.2s0.1,0.4,0.3,0.4C3.1,6.7,3.3,6.5,3.3,6.3z M3.4,6.9C3.2,6.8,3,7,3,7.2s0.1,0.4,0.3,0.4s0.4-0.1,0.4-0.3
	S3.6,6.9,3.4,6.9z M4.2,4.8c0.2,0,0.3,0.1,0.3,0.3S4.4,5.4,4.2,5.4S3.9,5.3,3.9,5.1S4,4.8,4.2,4.8z M5.1,5.9C5.2,5.7,5,5.5,4.8,5.5
	C4.6,5.4,4.4,5.6,4.4,5.8c0,0.3,0.1,0.4,0.3,0.4C4.9,6.3,5.1,6.1,5.1,5.9z M1.7,2.5c0-0.2-0.1-0.3-0.3-0.3S1.1,2.3,1.1,2.5
	s0.1,0.3,0.3,0.3S1.7,2.7,1.7,2.5z M2.3,1.3c0.2,0,0.3,0.1,0.3,0.3S2.5,1.9,2.3,1.9S2,1.8,2,1.6S2.1,1.3,2.3,1.3z M1.6,2.1
	c0,0.2,0.1,0.3,0.3,0.3s0.3-0.1,0.3-0.3S2.1,1.9,2,1.8V1.6V1h0.6c0,0-0.1,0.1-0.1,0.2c0,0.2,0.1,0.3,0.3,0.3s0.3-0.1,0.3-0.3
	C3.1,1.1,3.1,1,3,1V0H0v3h1V2L1.6,2.1C1.6,2,1.6,2.1,1.6,2.1z M2.9,5.4c0-0.2-0.1-0.3-0.3-0.3S2.3,5.2,2.3,5.4
	c0,0.2,0.1,0.3,0.3,0.3C2.8,5.7,2.9,5.6,2.9,5.4z M2.5,4.4c0-0.2-0.1-0.3-0.3-0.3S1.9,4.2,1.9,4.4c0,0.2,0.1,0.3,0.3,0.3
	S2.5,4.6,2.5,4.4z"/>
<path fill="#ffffff" d="M13.8,5.7c-0.2-0.2-0.5-0.2-0.7,0L10.8,8H7c0,0-1.7,1.6-2.3,2.3C4.6,10.4,4.4,11,4.9,11s1.1,0,1.6,0
	C6.8,11,7,11,7,11v3h4V9.2c0.1,0,0.1-0.1,0.2-0.1l2.6-2.6C14,6.3,14,5.9,13.8,5.7z M10,12H8v-1h0.5C8.8,11,9,10.8,9,10.5
	S8.8,10,8.5,10H8V9h2V12z"/>
</svg>
