<?xml version="1.0" encoding="utf-8"?>
<!-- Generator: Adobe Illustrator 21.1.0, SVG Export Plug-In . SVG Version: 6.00 Build 0)  -->
<svg version="1.1" id="Icons" xmlns="http://www.w3.org/2000/svg" xmlns:xlink="http://www.w3.org/1999/xlink" x="0px" y="0px"
	 width="22px" height="22px" viewBox="0 0 22 22" enable-background="new 0 0 22 22" xml:space="preserve">
<path fill="#FFFFFF" d="M4.9,12.8c-0.1,0.4,0.2,0.7,0.6,0.8s0.7-0.2,0.8-0.6c0.1-0.4-0.2-0.7-0.6-0.8C5.3,12.1,4.9,12.4,4.9,12.8z M5.5,11.2
	c0.1-0.4-0.2-0.7-0.5-0.7S4.3,10.7,4.2,11c-0.1,0.4,0.2,0.7,0.5,0.7C5.1,11.8,5.4,11.6,5.5,11.2z M4.1,8.8c0.3,0,0.6,0.3,0.6,0.6
	S4.4,10,4.1,10S3.5,9.7,3.5,9.4S3.8,8.8,4.1,8.8z M3.4,7C3.7,7,4,7.3,4,7.6S3.7,8.2,3.4,8.2S2.8,7.9,2.8,7.6S3.1,7,3.4,7z M2.7,5.4
	c0.3,0,0.5,0.2,0.5,0.5S3,6.4,2.7,6.4S2.2,6.2,2.2,5.9S2.4,5.4,2.7,5.4z M2,3.6c0.3,0,0.5,0.2,0.5,0.5S2.3,4.6,2,4.6
	S1.5,4.4,1.5,4.1S1.7,3.6,2,3.6z M7.4,10.3c0-0.4,0.3-0.7,0.7-0.6c0.4,0,0.7,0.3,0.6,0.7c0,0.4-0.3,0.7-0.7,0.6
	C7.7,11,7.4,10.7,7.4,10.3z M7,8.3c0.3,0,0.6,0.3,0.6,0.6S7.3,9.5,7,9.5S6.4,9.2,6.4,8.9S6.7,8.3,7,8.3z M6,6.9
	c0.3,0,0.6,0.3,0.6,0.6S6.3,8.1,6,8.1S5.4,7.8,5.4,7.5S5.7,6.9,6,6.9z M4.9,5.5c0.3,0,0.6,0.3,0.6,0.6S5.2,6.7,4.9,6.7
	S4.3,6.4,4.3,6.1S4.6,5.5,4.9,5.5z M3.9,4.2c0.3,0,0.5,0.2,0.5,0.5S4.2,5.2,3.9,5.2S3.4,5,3.4,4.7S3.6,4.2,3.9,4.2z M2.8,2.8
	c0.3,0,0.5,0.2,0.5,0.5S3.1,3.8,2.8,3.8S2.3,3.6,2.3,3.3S2.5,2.8,2.8,2.8z M9.3,7.4c-0.4,0-0.7-0.3-0.7-0.6c0-0.4,0.3-0.7,0.6-0.7
	c0.4,0,0.7,0.3,0.7,0.6C9.9,7.1,9.6,7.4,9.3,7.4z M8.5,5.7c0,0.3-0.2,0.6-0.6,0.7S7.2,6.1,7.2,5.7S7.5,5.1,7.8,5
	C8.1,5,8.4,5.3,8.5,5.7z M7,4.6c0,0.3-0.2,0.6-0.6,0.6C6.1,5.2,5.8,5,5.8,4.6C5.8,4.3,6.1,4,6.4,4C6.7,4,7,4.3,7,4.6z M5,3
	c0.3,0,0.6,0.3,0.6,0.6S5.3,4.2,5,4.2S4.4,3.9,4.4,3.6S4.7,3,5,3z M3.6,2c0.3,0,0.5,0.2,0.5,0.5S3.9,3,3.6,3S3.1,2.8,3.1,2.5
	S3.3,2,3.6,2z M4.4,1.2c0.3,0,0.5,0.2,0.5,0.5S4.7,2.2,4.4,2.2S3.9,2,3.9,1.7S4.1,1.2,4.4,1.2z M6.3,1.9c0.3,0,0.5,0.2,0.5,0.5
	S6.6,2.9,6.3,2.9S5.8,2.7,5.8,2.4S6,1.9,6.3,1.9z M8.1,2.6c0.3,0,0.6,0.3,0.6,0.6S8.4,3.8,8.1,3.8c-0.3,0-0.6-0.3-0.6-0.6
	S7.8,2.6,8.1,2.6z M9.9,3.3c0.3,0,0.6,0.3,0.6,0.6s-0.3,0.6-0.6,0.6S9.3,4.2,9.3,3.9S9.6,3.3,9.9,3.3z M11.7,4.1
	c0.3,0,0.6,0.3,0.6,0.6S12,5.3,11.7,5.3S11.1,5,11.1,4.7S11.4,4.1,11.7,4.1z M0,1h1V0h4v1H4v1H3v1H2v1H1v1H0V1z M11.5,7
	C12.9,7,14,8.1,14,9.5S12.9,12,11.5,12S9,10.9,9,9.5S10.1,7,11.5,7z M14,13v-1h1v-1h1v-1h1V9h1V8h1V7h1V6h1l1,1v1v1h-1v1h-1v1h-1v1
	h-1v1h-1v1h-1v8H9v-4H5v-2h1v-1h1v-1h1v-1H14z M10,16h1v2h-1v1h2v-4h-2V16z"/>
</svg>
