<?xml version="1.0" encoding="utf-8"?>
<!-- Generator: Adobe Illustrator 21.1.0, SVG Export Plug-In . SVG Version: 6.00 Build 0)  -->
<svg version="1.1" id="Icons" xmlns="http://www.w3.org/2000/svg" xmlns:xlink="http://www.w3.org/1999/xlink" x="0px" y="0px"
	 width="14px" height="14px" viewBox="0 0 14 14" enable-background="new 0 0 14 14" xml:space="preserve">
<path fill="#FFFFFF" d="M3,7.2c0,0.2,0.1,0.4,0.3,0.4s0.4-0.1,0.4-0.3c0-0.2-0.1-0.4-0.3-0.4C3.2,6.8,3,7,3,7.2z M3.3,6.3C3.4,6.1,3.2,6,3,5.9
	C2.8,5.9,2.6,6,2.6,6.2s0.1,0.4,0.3,0.4C3.1,6.7,3.3,6.5,3.3,6.3z M2.6,5.1c0.2,0,0.3,0.1,0.3,0.3S2.8,5.7,2.6,5.7S2.3,5.6,2.3,5.4
	S2.4,5.1,2.6,5.1z M2.2,4.1c0.2,0,0.3,0.1,0.3,0.3S2.4,4.7,2.2,4.7S1.9,4.6,1.9,4.4S2,4.1,2.2,4.1z M1.8,3.2c0.2,0,0.3,0.1,0.3,0.3
	S2,3.8,1.8,3.8S1.5,3.7,1.5,3.5S1.6,3.2,1.8,3.2z M1.4,2.2c0.2,0,0.3,0.1,0.3,0.3S1.6,2.8,1.4,2.8S1.1,2.7,1.1,2.5S1.2,2.2,1.4,2.2z
	 M4.4,5.8c0-0.2,0.2-0.4,0.4-0.3c0.2,0,0.4,0.2,0.3,0.4c0,0.2-0.2,0.4-0.4,0.3C4.5,6.2,4.4,6.1,4.4,5.8z M4.2,4.8
	c0.2,0,0.3,0.1,0.3,0.3S4.4,5.4,4.2,5.4S3.9,5.3,3.9,5.1S4,4.8,4.2,4.8z M3.6,4.1c0.2,0,0.3,0.1,0.3,0.3S3.8,4.7,3.6,4.7
	S3.3,4.6,3.3,4.4S3.4,4.1,3.6,4.1z M3,3.3c0.2,0,0.3,0.1,0.3,0.3S3.2,3.9,3,3.9S2.7,3.8,2.7,3.6S2.8,3.3,3,3.3z M2.4,2.5
	c0.2,0,0.3,0.1,0.3,0.3S2.6,3.1,2.4,3.1S2.1,3,2.1,2.8S2.2,2.5,2.4,2.5z M1.9,1.8c0.2,0,0.3,0.1,0.3,0.3S2.1,2.4,1.9,2.4
	S1.6,2.3,1.6,2.1S1.7,1.8,1.9,1.8z M5.4,4.3C5.2,4.3,5,4.2,5,4c0-0.2,0.1-0.4,0.3-0.4c0.2,0,0.4,0.1,0.4,0.3
	C5.7,4.1,5.6,4.3,5.4,4.3z M4.9,3.3c0,0.2-0.1,0.3-0.3,0.4c-0.2,0-0.4-0.1-0.4-0.3S4.4,3,4.6,3C4.8,3,4.9,3.2,4.9,3.3z M4.1,2.8
	C4.1,3,4,3.1,3.8,3.1C3.7,3.1,3.5,3,3.5,2.8s0.1-0.3,0.3-0.3S4.1,2.6,4.1,2.8z M3.1,1.9c0.2,0,0.3,0.1,0.3,0.3S3.3,2.5,3.1,2.5
	S2.8,2.4,2.8,2.2S2.9,1.9,3.1,1.9z M2.3,1.3c0.2,0,0.3,0.1,0.3,0.3S2.5,1.9,2.3,1.9S2,1.8,2,1.6S2.1,1.3,2.3,1.3z M2.8,0.9
	C3,0.9,3.1,1,3.1,1.2S3,1.5,2.8,1.5S2.5,1.4,2.5,1.2S2.6,0.9,2.8,0.9z M3.7,1.3C3.9,1.3,4,1.4,4,1.6S3.9,1.9,3.7,1.9
	S3.4,1.8,3.4,1.6S3.5,1.3,3.7,1.3z M4.7,1.7C4.9,1.7,5,1.8,5,2S4.9,2.3,4.7,2.3S4.4,2.2,4.4,2S4.5,1.7,4.7,1.7z M5.7,2.1
	C5.9,2.1,6,2.2,6,2.4S5.9,2.7,5.7,2.7S5.4,2.6,5.4,2.4S5.5,2.1,5.7,2.1z M6.7,2.5C6.9,2.5,7,2.6,7,2.8S6.9,3.1,6.7,3.1
	S6.4,3,6.4,2.8S6.5,2.5,6.7,2.5z M7.6,2.8C7.8,2.8,8,3,8,3.2S7.8,3.6,7.6,3.6S7.2,3.4,7.2,3.2S7.4,2.8,7.6,2.8z M0,0h3v1H2v1H1v1H0
	V0z M10,8V7h1V6h1V5h2v1h-1v1h-1v1h-1v6H7v-3H4l3-3H10z M8,10h1v1H8v1h2V9H8V10z M8.5,4C9.3,4,10,4.7,10,5.5S9.3,7,8.5,7
	S7,6.3,7,5.5S7.7,4,8.5,4z"/>
</svg>
