<?xml version="1.0" encoding="utf-8"?>
<!-- Generator: Adobe Illustrator 21.1.0, SVG Export Plug-In . SVG Version: 6.00 Build 0)  -->
<svg version="1.1" id="Icons" xmlns="http://www.w3.org/2000/svg" xmlns:xlink="http://www.w3.org/1999/xlink" x="0px" y="0px"
	 width="30px" height="30px" viewBox="0 0 30 30" enable-background="new 0 0 30 30" xml:space="preserve">
<path fill="#231F20" d="M6.3,15.6c-0.1,0.5,0.3,0.9,0.7,1c0.5,0.1,0.9-0.3,1-0.7c0.1-0.5-0.2-0.9-0.7-1S6.4,15.1,6.3,15.6z M7.1,13.6
	c0.1-0.4-0.2-0.9-0.7-0.9c-0.4-0.1-0.9,0.2-0.9,0.7c-0.1,0.5,0.2,0.9,0.7,0.9C6.6,14.4,7,14.1,7.1,13.6z M5.4,10.5
	c0.4,0,0.8,0.4,0.8,0.8s-0.4,0.8-0.8,0.8s-0.8-0.4-0.8-0.8S5,10.5,5.4,10.5z M4.5,8.4c0.4,0,0.7,0.3,0.7,0.7S4.9,9.8,4.5,9.8
	S3.8,9.5,3.8,9.1S4.1,8.4,4.5,8.4z M3.6,6.2c0.4,0,0.7,0.3,0.7,0.7S4,7.6,3.6,7.6S2.9,7.3,2.9,6.9S3.2,6.2,3.6,6.2z M2.6,4.2
	c0.3,0,0.6,0.3,0.6,0.6S2.9,5.4,2.6,5.4S2,5.1,2,4.8S2.3,4.2,2.6,4.2z M9.5,12.5c0-0.5,0.4-0.8,0.9-0.8s0.8,0.4,0.8,0.9
	s-0.4,0.8-0.9,0.8S9.5,13,9.5,12.5z M9,10c0.4,0,0.8,0.4,0.8,0.8S9.4,11.6,9,11.6s-0.8-0.4-0.8-0.8S8.6,10,9,10z M7.7,8.2
	c0.4,0,0.8,0.4,0.8,0.8S8.1,9.8,7.7,9.8S6.9,9.4,6.9,9S7.3,8.2,7.7,8.2z M6.4,6.5c0.4,0,0.7,0.3,0.7,0.7S6.8,7.9,6.4,7.9
	S5.7,7.6,5.7,7.2S6,6.5,6.4,6.5z M5,4.8c0.4,0,0.7,0.3,0.7,0.7S5.4,6.2,5,6.2S4.3,5.9,4.3,5.5S4.6,4.8,5,4.8z M3.7,3.1
	c0.3,0,0.6,0.3,0.6,0.6S4,4.3,3.7,4.3S3.1,4,3.1,3.7S3.4,3.1,3.7,3.1z M11.8,8.9c-0.5,0-0.9-0.3-0.9-0.8s0.3-0.9,0.8-0.9
	s0.9,0.3,0.9,0.8C12.6,8.4,12.3,8.8,11.8,8.9z M10.8,6.6c0,0.4-0.3,0.8-0.8,0.8c-0.4,0-0.8-0.3-0.8-0.8c0-0.4,0.3-0.8,0.8-0.8
	C10.4,5.9,10.8,6.2,10.8,6.6L10.8,6.6z M9,5.3c0,0.4-0.3,0.8-0.7,0.8c-0.4,0-0.8-0.3-0.8-0.7c0-0.4,0.3-0.8,0.7-0.8
	C8.6,4.6,9,4.9,9,5.3z M6.5,3.3c0.4,0,0.7,0.3,0.7,0.7S6.9,4.7,6.5,4.7S5.8,4.4,5.8,4S6.1,3.3,6.5,3.3z M4.7,2.1
	c0.3,0,0.6,0.3,0.6,0.6S5,3.3,4.7,3.3S4.1,3,4.1,2.7S4.4,2.1,4.7,2.1z M5.8,1c0.3,0,0.6,0.3,0.6,0.6S6.1,2.2,5.8,2.2
	S5.2,1.9,5.2,1.6S5.5,1,5.8,1z M8,1.9c0.4,0,0.7,0.3,0.7,0.7S8.4,3.3,8,3.3S7.3,3,7.3,2.6S7.6,1.9,8,1.9z M10.3,2.8
	c0.4,0,0.7,0.3,0.7,0.7s-0.3,0.7-0.7,0.7S9.6,3.9,9.6,3.5S9.9,2.8,10.3,2.8z M12.6,3.8c0.4,0,0.7,0.3,0.7,0.7S13,5.2,12.6,5.2
	s-0.7-0.3-0.7-0.7S12.2,3.8,12.6,3.8z M14.9,4.6c0.4,0,0.8,0.4,0.8,0.8s-0.4,0.8-0.8,0.8s-0.8-0.4-0.8-0.8S14.5,4.6,14.9,4.6z
	 M17.2,5.6C17.6,5.6,18,6,18,6.4s-0.4,0.8-0.8,0.8s-0.8-0.4-0.8-0.8S16.8,5.6,17.2,5.6z M19.4,6.4c0.5,0,0.9,0.4,0.9,0.9
	s-0.4,0.9-0.9,0.9s-0.9-0.4-0.9-0.9S18.9,6.4,19.4,6.4z M1,0h5v1H5v1H4v1H3v1H2v1H1V0z M20,17v-1h1v-1h1v-1h1v-1h1v-1h1v-1h1v-1h2
	l1,1v1l-8,8v10h-9v-5H7v-1H6v-2l6-5H20z M13,21v1h1v3h-1v1h2l1-1v-3l-1-1H13z M15.5,9c1.9,0,3.5,1.6,3.5,3.5S17.4,16,15.5,16
	S12,14.4,12,12.5S13.6,9,15.5,9z"/>
</svg>
