<?xml version="1.0" encoding="utf-8"?>
<!-- Generator: Adobe Illustrator 20.0.0, SVG Export Plug-In . SVG Version: 6.00 Build 0)  -->
<svg version="1.1" id="Layer_1" xmlns:sketch="http://www.bohemiancoding.com/sketch/ns"
	 xmlns="http://www.w3.org/2000/svg" xmlns:xlink="http://www.w3.org/1999/xlink" x="0px" y="0px" width="22px" height="22px"
	 viewBox="0 0 22 22" enable-background="new 0 0 22 22" xml:space="preserve">
<path fill="#231F20" d="M18,2h-6V1c0-0.6-0.4-1-1-1c-0.6,0-1,0.4-1,1v1H4C3.4,2,3,2.4,3,3v7c0,0.6,0.4,1,1,1h6v9H9l-1,1v1h6v-1l-1-1h-1v-9h6
	c0.6,0,1-0.4,1-1V3C19,2.4,18.6,2,18,2z M17,9H5V8h12V9z M17,7H5V6h12V7z M17,5H5V4h12V5z"/>
</svg>
