<?xml version="1.0" encoding="utf-8"?>
<!-- Generator: Adobe Illustrator 20.0.0, SVG Export Plug-In . SVG Version: 6.00 Build 0)  -->
<svg version="1.1" id="Layer_1" xmlns:sketch="http://www.bohemiancoding.com/sketch/ns"
	 xmlns="http://www.w3.org/2000/svg" xmlns:xlink="http://www.w3.org/1999/xlink" x="0px" y="0px" width="30px" height="30px"
	 viewBox="0 0 30 30" enable-background="new 0 0 30 30" xml:space="preserve">
<path fill="#231F20" id="symbol-copy-2" sketch:type="MSShapeGroup" d="M14,2H6C5.5,2,5,2.4,5,3v11c0,0.6,0.4,1,1,1h8v13h-1l-1,1v1h6v-1l-1-1h-1V15
	h8c0.5,0,1-0.4,1-1V3c0-0.6-0.4-1-1-1h-8V1c0-0.6-0.4-1-1-1c-0.6,0-1,0.4-1,1V2L14,2z M8,5h14v1H8V5z M8,8h14v1H8V8z M8,11h14v1H8
	V11z"/>
</svg>
