<?xml version="1.0" encoding="utf-8"?>
<!-- Generator: Adobe Illustrator 20.0.0, SVG Export Plug-In . SVG Version: 6.00 Build 0)  -->
<svg version="1.1" id="Layer_1" xmlns:sketch="http://www.bohemiancoding.com/sketch/ns"
	 xmlns="http://www.w3.org/2000/svg" xmlns:xlink="http://www.w3.org/1999/xlink" x="0px" y="0px" width="14px" height="14px"
	 viewBox="0 0 14 14" enable-background="new 0 0 14 14" xml:space="preserve">
<path fill="#FFFFFF" d="M12,1H8c0-0.6-0.4-1-1-1C6.4,0,6,0.4,6,1H2C1.5,1,1,1.4,1,2v5c0,0.6,0.4,1,1,1h4v5c0,0,0,0,0,0H5v1h4v-1H8c0,0,0,0,0,0V8h4
	c0.5,0,1-0.4,1-1V2C13,1.4,12.6,1,12,1z M11,6H3V5h8V6z M11,4H3V3h8V4z"/>
</svg>
