<?xml version="1.0" encoding="utf-8"?>
<!-- Generator: Adobe Illustrator 22.0.1, SVG Export Plug-In . SVG Version: 6.00 Build 0)  -->
<svg version="1.1" id="Layer_1" xmlns="http://www.w3.org/2000/svg" xmlns:xlink="http://www.w3.org/1999/xlink" x="0px" y="0px"
	 width="14px" height="14px" viewBox="0 0 14 14" style="enable-background:new 0 0 14 14;" xml:space="preserve">
<path fill="#FFFFFF" d="M13.3,4.1c-0.8,0.4-1.2,0.6-1.9,0.6c-0.3,0-0.4-0.1-0.7-0.1S10.3,4.7,10,4.8C9.6,5,9.3,5.1,8.9,5.2C8.6,5.3,8.4,5.3,8.2,5.4
	C7.9,5.5,8,5.4,7.9,5.6C7.6,5.9,7.7,6,7.5,6.5C7.2,7,7.2,7.1,7.4,7.2C7.3,7.5,7.3,7.6,7.3,7.9c0,0.2-0.1,0.4,0.2,0.6
	c0.3,0.3,1.1,0.8,1.2,0.9c0.3,0,1.1,0,1.5-0.3c0.1-0.1,0.1-0.1,0,0.1c0,0-1,0.8-1.1,0.8c-1.3,0-0.8,0.1-0.9,0.1
	c-0.1,0-0.7-0.7-1-0.5C7,9.7,7,9.8,6.9,9.9c0,0.1,0.3,0.3,0.5,0.4c0.3,0.2,0.3,0.4,0.6,0.5c0.4,0.1,0.7,0,1,0.1
	c0.1,0,0.9-0.2,1.4-0.5c0.5-0.2-0.6,0.5-0.9,0.8c-0.8,0.3-0.6,0.3-1,0.3c-0.4,0.1-0.3,0.1-0.6,0.1c-0.2,0.1-0.5,0.4-0.2,0.6
	c0.1,0.1,0.6,0,1-0.1c0.2,0,1-0.4,1.2-0.5c0.4-0.2,0.8-0.6,1-0.8c0.4-0.1-0.4,0.8-0.7,1.2c-0.1,0.1-0.1,0.2-0.3,0.3
	c-0.2,0.3,0.1,0.6,0.2,0.6c0.1-0.1,0.2-0.3,0.4-0.4c0.1,0,0.3-0.4,0.5-0.6c0.1-0.2,0.3-0.2,0.4-0.4c0.2-0.3,0.3-0.5,0.5-0.8
	c0.1-0.2,0.2-0.2,0.3-0.4c0.6-1.2,0.4-1.7,1-2.6c0.2-0.2,0.4-0.3,0.7-0.5C14.2,5.2,13.3,4.1,13.3,4.1z M10.4,7.3
	C10.3,7.8,10.3,7.8,10,8C9.7,8.3,9.7,8.1,8.9,8.5c0,0-0.3-0.3-0.8-0.5c0,0-0.1-0.6-0.4-0.8c0.7-0.5,0.7-0.9,0.8-0.9
	c0.2,0,0.5,0.1,1.2-0.1C10.1,6.9,10.5,6.9,10.4,7.3z"/>
<path fill="#FFFFFF" d="M3.8,4.8C3.7,4.9,3.7,5,3.8,4.8L3.8,4.8z"/>
<path fill="#FFFFFF" d="M3.7,3.5c0,0-0.1,0-0.1,0.1C3.4,3.7,3.5,3.7,3.7,3.5z"/>
<path fill="#FFFFFF" d="M6.6,3.7C6.3,3.5,6.3,3.3,6,3.2c-0.4-0.1-0.7,0-1-0.1c-0.1,0-0.8,0.2-1.3,0.4C3.5,3.7,3.4,3.7,3.6,3.6c0,0,0.1,0,0.1-0.1
	C4,3.3,4.4,3,4.5,2.8c0.8-0.2,0.6-0.2,1-0.3s0.3-0.1,0.6-0.1C6.3,2.3,6.5,2,6.3,1.8c-0.1-0.1-0.6,0.1-1,0.1c-0.2,0-1,0.4-1.2,0.5
	C3.7,2.6,3.3,3,3.1,3.1C2.7,3.3,3.5,2.4,3.8,2C3.9,1.8,4,1.8,4.1,1.7C4.3,1.4,4,1,3.9,1.1c-0.1,0-0.2,0.3-0.4,0.4
	C3.4,1.6,3.2,1.9,3,2.1C2.9,2.3,2.7,2.3,2.6,2.5C2.4,2.8,2.3,3,2.1,3.3C2,3.5,1.9,3.6,1.8,3.8C1.2,5,1.4,5.5,0.8,6.3
	C0.5,6.6,0.3,6.6,0.1,6.8c-0.3,2,0.6,3.1,0.6,3.1c0.8-0.4,1.2-0.6,1.9-0.6c0.3,0,0.4,0.1,0.7,0.1S3.7,9.3,4,9.2
	C4.4,9,4.7,8.9,5.1,8.8c0.3-0.1,0.5-0.1,0.8-0.2c0.2-0.1,0.1,0,0.3-0.2C6.4,8.2,6.3,8,6.5,7.5C6.8,7,6.8,6.9,6.6,6.9
	c0.1-0.3,0.1-0.5,0.1-0.8c0-0.2,0.1-0.4-0.2-0.6c-0.3-0.3-1-0.9-1.2-0.9c-0.3,0-1.1,0-1.5,0.2c-0.1,0.2-0.1,0.1,0,0
	c0,0,1-0.8,1.1-0.8c1.3,0,0.8-0.1,0.9-0.1c0.1,0,0.7,0.7,1,0.5C7,4.3,7,4.2,7.1,4.1C7.1,4,6.8,3.8,6.6,3.7z M4,6
	c0.3-0.3,0.3-0.1,1.1-0.5c0,0,0.3,0.3,0.8,0.5c0,0,0.1,0.6,0.4,0.8C5.6,7.3,5.6,7.7,5.6,7.7C5.3,7.7,5,7.6,4.3,7.8
	C3.9,7.1,3.4,7.1,3.6,6.7C3.7,6.2,3.7,6.2,4,6z"/>
</svg>
