<?xml version="1.0" encoding="UTF-8" standalone="no"?>
<svg width="32px" height="32px" viewBox="0 0 32 32" version="1.1" xmlns="http://www.w3.org/2000/svg" xmlns:xlink="http://www.w3.org/1999/xlink" xmlns:sketch="http://www.bohemiancoding.com/sketch/ns">
    <!-- Generator: Sketch 3.3.3 (12072) - http://www.bohemiancoding.com/sketch -->
    <title>sign-white-32</title>
    <desc>Created with Sketch.</desc>
    <defs></defs>
    <g id="sign" stroke="none" stroke-width="1" fill="none" fill-rule="evenodd" sketch:type="MSPage">
        <g id="sign-white-32" sketch:type="MSArtboardGroup">
            <path d="M17,4 L8.99180311,4 C8.45530558,4 8,4.44704472 8,4.99850233 L8,16.0014977 C8,16.5525106 8.44404538,17 8.99180311,17 L17,17 L17,30 L16,30 L15,31 L15,32 L21,32 L21,31 L20,30 L19,30 L19,17 L27.0081969,17 C27.5446944,17 28,16.5529553 28,16.0014977 L28,4.99850233 C28,4.44748943 27.5559546,4 27.0081969,4 L19,4 L19,2.99815369 C19,2.44736519 18.5522847,2 18,2 C17.4438648,2 17,2.44688863 17,2.99815369 L17,4 L17,4 Z M11,7 L25,7 L25,8 L11,8 L11,7 Z M11,10 L25,10 L25,11 L11,11 L11,10 Z M11,13 L25,13 L25,14 L11,14 L11,13 Z" id="symbol" fill-opacity="0.5" fill="#000000" sketch:type="MSShapeGroup"></path>
            <path d="M16,3 L7.99180311,3 C7.45530558,3 7,3.44704472 7,3.99850233 L7,15.0014977 C7,15.5525106 7.44404538,16 7.99180311,16 L16,16 L16,29 L15,29 L14,30 L14,31 L20,31 L20,30 L19,29 L18,29 L18,16 L26.0081969,16 C26.5446944,16 27,15.5529553 27,15.0014977 L27,3.99850233 C27,3.44748943 26.5559546,3 26.0081969,3 L18,3 L18,1.99815369 C18,1.44736519 17.5522847,1 17,1 C16.4438648,1 16,1.44688863 16,1.99815369 L16,3 L16,3 Z M10,6 L24,6 L24,7 L10,7 L10,6 Z M10,9 L24,9 L24,10 L10,10 L10,9 Z M10,12 L24,12 L24,13 L10,13 L10,12 Z" id="symbol-copy" fill-opacity="0.75" fill="#000000" sketch:type="MSShapeGroup"></path>
            <path d="M15,2 L6.99180311,2 C6.45530558,2 6,2.44704472 6,2.99850233 L6,14.0014977 C6,14.5525106 6.44404538,15 6.99180311,15 L15,15 L15,28 L14,28 L13,29 L13,30 L19,30 L19,29 L18,28 L17,28 L17,15 L25.0081969,15 C25.5446944,15 26,14.5529553 26,14.0014977 L26,2.99850233 C26,2.44748943 25.5559546,2 25.0081969,2 L17,2 L17,0.998153687 C17,0.447365195 16.5522847,0 16,0 C15.4438648,0 15,0.446888627 15,0.998153687 L15,2 L15,2 Z M9,5 L23,5 L23,6 L9,6 L9,5 Z M9,8 L23,8 L23,9 L9,9 L9,8 Z M9,11 L23,11 L23,12 L9,12 L9,11 Z" id="symbol-copy-2" fill="#FFFFFF" sketch:type="MSShapeGroup"></path>
        </g>
    </g>
</svg>