<?xml version="1.0" encoding="utf-8"?>
<!-- Generator: Adobe Illustrator 22.0.1, SVG Export Plug-In . SVG Version: 6.00 Build 0)  -->
<svg version="1.1" id="Layer_1" xmlns="http://www.w3.org/2000/svg" xmlns:xlink="http://www.w3.org/1999/xlink" x="0px" y="0px"
	 width="30px" height="30px" viewBox="0 0 30 30" style="enable-background:new 0 0 30 30;" xml:space="preserve">
<path d="M28.8,8.9c-1.6,0.9-2.5,1.3-4.2,1.2c-0.6,0-1-0.3-1.6-0.2c-0.6,0-0.9,0.2-1.5,0.4c-0.9,0.3-1.4,0.5-2.3,0.8
	c-0.6,0.2-1,0.2-1.6,0.4c-0.5,0.2-0.3,0-0.6,0.5c-0.5,0.5-0.4,0.9-0.8,1.8c-0.6,1.2-0.5,1.3-0.2,1.5c-0.2,0.6-0.3,1-0.2,1.7
	c0.1,0.5-0.2,0.8,0.4,1.2c0.7,0.5,2.3,1.8,2.7,1.8c0.6,0,2.3,0,3.2-0.6c0.2-0.1,0.3-0.2,0.1,0.2c0,0.1-2.2,1.7-2.4,1.7
	c-2.7,0.1-1.8,0.2-2,0.2c-0.1,0-1.4-1.6-2.2-1c-0.3,0.2-0.4,0.4-0.5,0.7c0.1,0.2,0.6,0.5,1,0.8c0.6,0.4,0.7,0.8,1.3,1
	c0.8,0.2,1.6,0.1,2.1,0.1c0.2,0.1,1.9-0.4,3-1c1-0.5-1.4,1-1.9,1.7c-1.7,0.5-1.2,0.6-2.1,0.7c-0.8,0.2-0.7,0.1-1.2,0.3
	c-0.5,0.1-1,0.9-0.5,1.2c0.3,0.3,1.3-0.1,2.2-0.1c0.4,0,2.1-0.8,2.5-1c1-0.5,1.7-1.2,2.2-1.6c0.5-0.4-1.2,1.6-1.9,2.5
	c-0.2,0.3-0.3,0.3-0.5,0.7c-0.4,0.5,0.1,1.4,0.4,1.2c0.3-0.1,0.5-0.7,0.9-0.9c0.2-0.1,0.6-0.8,1.1-1.2c0.3-0.4,0.6-0.5,0.9-0.9
	c0.5-0.6,0.6-1.1,1.1-1.8c0.3-0.4,0.5-0.5,0.7-0.9c1.3-2.5,0.9-3.7,2.2-5.5c0.4-0.5,0.8-0.7,1.5-1C30.7,11.3,28.8,8.9,28.8,8.9z
	 M22.5,15.6c-0.4,1.1-0.3,1.2-0.9,1.6c-0.8,0.5-0.8,0.1-2.4,1c0,0-0.7-0.7-1.7-1c0,0-0.3-1.3-0.9-1.8c1.3-1,1.3-1.9,1.7-1.9
	c0.5,0,1.3,0.2,2.7-0.3C21.8,14.8,22.8,14.7,22.5,15.6z"/>
<path d="M12.5,8.5C12.5,8.5,12.5,8.5,12.5,8.5L12.5,8.5z"/>
<path d="M14.3,8c-0.6-0.4-0.7-0.9-1.3-1c-0.8-0.2-1.6-0.1-2.1-0.2c-0.2,0-1.9,0.5-3,1c-1,0.5,1.3-1,1.9-1.7c1.7-0.5,1.2-0.5,2.1-0.7
	c0.8-0.2,0.7-0.1,1.2-0.3c0.5-0.1,1-0.9,0.5-1.3c-0.3-0.2-1.3,0.1-2.2,0.1c-0.4,0-2.1,0.8-2.5,1c-1,0.5-1.7,1.2-2.2,1.6
	C5.8,7.1,7.5,5.1,8.2,4.2c0.2-0.3,0.3-0.3,0.6-0.7C9.2,3,8.6,2.2,8.4,2.3C8.1,2.4,7.9,3,7.5,3.3C7.3,3.3,6.9,4,6.4,4.5
	C6.1,4.8,5.9,5,5.6,5.4C5.1,6,5,6.5,4.5,7.1C4.2,7.5,4,7.6,3.8,8.1c-1.3,2.5-1,3.7-2.2,5.4c-0.4,0.6-0.8,0.7-1.5,1
	c-0.6,4.2,1.3,6.6,1.3,6.5c1.6-0.9,2.5-1.3,4.2-1.2c0.6,0,1,0.3,1.6,0.3c0.6,0,0.9-0.3,1.5-0.4c0.9-0.3,1.4-0.5,2.3-0.8
	c0.6-0.2,1-0.2,1.6-0.4c0.5-0.2,0.3,0,0.6-0.4c0.5-0.5,0.4-1,0.8-1.8c0.6-1.2,0.5-1.4,0.2-1.5c0.2-0.6,0.3-1,0.2-1.7
	c-0.1-0.5,0.2-0.9-0.4-1.2c-0.7-0.6-2.3-1.8-2.6-1.8c-0.6,0-2.3-0.1-3.2,0.5c-0.2,0.2-0.3,0.3-0.1-0.2c0-0.1,2.2-1.7,2.4-1.8
	c1.5-0.1,1.9-0.1,2-0.1c0,0,0,0,0,0c0,0,0,0,0,0c0.1,0,1.4,1.6,2.2,1c0.3-0.2,0.4-0.4,0.6-0.7C15.2,8.6,14.7,8.2,14.3,8z M8.4,12.8
	c0.7-0.5,0.8-0.1,2.4-1c0,0,0.7,0.7,1.7,1c0,0,0.3,1.3,0.9,1.8c-1.3,1.1-1.3,1.9-1.7,2c-0.5-0.1-1.3-0.3-2.7,0.2
	c-0.8-1.6-1.8-1.5-1.5-2.4C7.9,13.3,7.8,13.2,8.4,12.8z"/>
</svg>
