<?xml version="1.0" encoding="UTF-8" standalone="no"?>
<svg width="24px" height="24px" viewBox="0 0 24 24" version="1.1" xmlns="http://www.w3.org/2000/svg" xmlns:xlink="http://www.w3.org/1999/xlink" xmlns:sketch="http://www.bohemiancoding.com/sketch/ns">
    <!-- Generator: Sketch 3.3.3 (12072) - http://www.bohemiancoding.com/sketch -->
    <title>sign-white-24</title>
    <desc>Created with Sketch.</desc>
    <defs></defs>
    <g id="sign" stroke="none" stroke-width="1" fill="none" fill-rule="evenodd" sketch:type="MSPage">
        <g id="sign-white-24" sketch:type="MSArtboardGroup">
            <path d="M15,13 L15,22 L15,22 L16,22 L17,23 L17,24 L11,24 L11,23 L12,22 L13,22 L13,13 L7.00087166,13 C6.4481055,13 6,12.5536886 6,12.0024554 L6,4.99754465 C6,4.44661595 6.44463086,4 7.00087166,4 L13,4 L13,3.00246167 C13,2.44881738 13.4438648,2 14,2 C14.5522847,2 15,2.43945834 15,3.00246167 L15,4 L20.9991283,4 C21.5518945,4 22,4.4463114 22,4.99754465 L22,12.0024554 C22,12.553384 21.5553691,13 20.9991283,13 L15,13 L15,13 Z M8,6 L20,6 L20,7 L8,7 L8,6 Z M8,8 L20,8 L20,9 L8,9 L8,8 Z M8,10 L20,10 L20,11 L8,11 L8,10 Z" id="symbol" fill-opacity="0.5" fill="#000000" sketch:type="MSShapeGroup"></path>
            <path d="M14,12 L14,21 L14,21 L15,21 L16,22 L16,23 L10,23 L10,22 L11,21 L12,21 L12,12 L6.00087166,12 C5.4481055,12 5,11.5536886 5,11.0024554 L5,3.99754465 C5,3.44661595 5.44463086,3 6.00087166,3 L12,3 L12,2.00246167 C12,1.44881738 12.4438648,1 13,1 C13.5522847,1 14,1.43945834 14,2.00246167 L14,3 L19.9991283,3 C20.5518945,3 21,3.4463114 21,3.99754465 L21,11.0024554 C21,11.553384 20.5553691,12 19.9991283,12 L14,12 L14,12 Z M7,5 L19,5 L19,6 L7,6 L7,5 Z M7,7 L19,7 L19,8 L7,8 L7,7 Z M7,9 L19,9 L19,10 L7,10 L7,9 Z" id="symbol-copy" fill-opacity="0.75" fill="#000000" sketch:type="MSShapeGroup"></path>
            <path d="M13,11 L13,20 L13,20 L14,20 L15,21 L15,22 L9,22 L9,21 L10,20 L11,20 L11,11 L5.00087166,11 C4.4481055,11 4,10.5536886 4,10.0024554 L4,2.99754465 C4,2.44661595 4.44463086,2 5.00087166,2 L11,2 L11,1.00246167 C11,0.448817378 11.4438648,0 12,0 C12.5522847,0 13,0.43945834 13,1.00246167 L13,2 L18.9991283,2 C19.5518945,2 20,2.4463114 20,2.99754465 L20,10.0024554 C20,10.553384 19.5553691,11 18.9991283,11 L13,11 L13,11 Z M6,4 L18,4 L18,5 L6,5 L6,4 Z M6,6 L18,6 L18,7 L6,7 L6,6 Z M6,8 L18,8 L18,9 L6,9 L6,8 Z" id="symbol-copy-2" fill="#FFFFFF" sketch:type="MSShapeGroup"></path>
        </g>
    </g>
</svg>