<?xml version="1.0" encoding="UTF-8" standalone="no"?>
<svg width="16px" height="16px" viewBox="0 0 16 16" version="1.1" xmlns="http://www.w3.org/2000/svg" xmlns:xlink="http://www.w3.org/1999/xlink" xmlns:sketch="http://www.bohemiancoding.com/sketch/ns">
    <!-- Generator: Sketch 3.3.3 (12072) - http://www.bohemiancoding.com/sketch -->
    <title>sign-slate-16</title>
    <desc>Created with Sketch.</desc>
    <defs></defs>
    <g id="sign" stroke="none" stroke-width="1" fill="none" fill-rule="evenodd" sketch:type="MSPage">
        <g id="sign-slate-16" sketch:type="MSArtboardGroup">
            <path d="M11,10 L11,14.9931545 C11,14.9954381 10.9999925,14.99772 10.9999776,15 L10.99998,15 L12,15 L12,16 L8,16 L8,15 L9.00002256,15 C9.00000753,14.99772 9,14.9954382 9,14.9931545 L9,10 L5.00247329,10 C4.44882258,10 4,9.56211865 4,8.99707067 L4,4.00292933 C4,3.44902676 4.45576096,3 5.00247329,3 L9.00002084,3 C9.00364756,2.44708521 9.44614872,2 10,2 C10.55002,2 10.9963264,2.44626617 10.9999774,3 L14.9975267,3 C15.5511774,3 16,3.43788135 16,4.00292933 L16,8.99707067 C16,9.55097324 15.544239,10 14.9975267,10 L11,10 L11,10 Z M6,5 L14,5 L14,6 L6,6 L6,5 Z M6,7 L14,7 L14,8 L6,8 L6,7 Z" id="symbol" fill-opacity="0.5" fill="#000000" sketch:type="MSShapeGroup"></path>
            <path d="M10,9 L10,13.9931545 C10,13.9954381 9.99999251,13.99772 9.99997757,14 L9.99997997,14 L11,14 L11,15 L7,15 L7,14 L8.00002256,14 C8.00000753,13.99772 8,13.9954382 8,13.9931545 L8,9 L4.00247329,9 C3.44882258,9 3,8.56211865 3,7.99707067 L3,3.00292933 C3,2.44902676 3.45576096,2 4.00247329,2 L8.00002084,2 C8.00364756,1.44708521 8.44614872,1 9,1 C9.55002003,1 9.99632641,1.44626617 9.99997744,2 L13.9975267,2 C14.5511774,2 15,2.43788135 15,3.00292933 L15,7.99707067 C15,8.55097324 14.544239,9 13.9975267,9 L10,9 L10,9 Z M5,4 L13,4 L13,5 L5,5 L5,4 Z M5,6 L13,6 L13,7 L5,7 L5,6 Z" id="symbol-copy" fill-opacity="0.75" fill="#000000" sketch:type="MSShapeGroup"></path>
            <path d="M9,8 L9,12.9931545 C9,12.9954381 8.99999251,12.99772 8.99997757,13 L8.99997997,13 L10,13 L10,14 L6,14 L6,13 L7.00002256,13 C7.00000753,12.99772 7,12.9954382 7,12.9931545 L7,8 L3.00247329,8 C2.44882258,8 2,7.56211865 2,6.99707067 L2,2.00292933 C2,1.44902676 2.45576096,1 3.00247329,1 L7.00002084,1 C7.00364756,0.447085214 7.44614872,0 8,0 C8.55002003,0 8.99632641,0.446266171 8.99997744,0.999999999 L12.9975267,1 C13.5511774,1 14,1.43788135 14,2.00292933 L14,6.99707067 C14,7.55097324 13.544239,8 12.9975267,8 L9,8 L9,8 Z M4,3 L12,3 L12,4 L4,4 L4,3 Z M4,5 L12,5 L12,6 L4,6 L4,5 Z" id="symbol-copy-2" fill="#E6E6E6" sketch:type="MSShapeGroup"></path>
        </g>
    </g>
</svg>