<?xml version="1.0" encoding="utf-8"?>
<!-- Generator: Adobe Illustrator 22.0.1, SVG Export Plug-In . SVG Version: 6.00 Build 0)  -->
<svg version="1.1" id="Layer_1" xmlns="http://www.w3.org/2000/svg" xmlns:xlink="http://www.w3.org/1999/xlink" x="0px" y="0px"
	 width="22px" height="22px" viewBox="0 0 22 22" style="enable-background:new 0 0 22 22;" xml:space="preserve">
<path fill="#FFFFFF" d="M12.8,15.9C12.7,15.9,12.8,16,12.8,15.9L12.8,15.9z"/>
<path fill="#FFFFFF" d="M20.9,6.5c-1.2,0.7-1.8,1-3,0.9c-0.5,0-0.7-0.2-1.2-0.2c-0.4,0-0.6,0.2-1.1,0.3C15,7.8,14.7,8,14,8.2
	c-0.4,0.1-0.7,0.1-1.2,0.3c-0.4,0.2-0.2,0-0.5,0.3c-0.4,0.4-0.3,0.7-0.6,1.4c-0.4,0.9-0.4,1-0.1,1.1c-0.2,0.4-0.2,0.7-0.2,1.2
	c0,0.4-0.1,0.6,0.3,0.9c0.5,0.4,1.7,1.3,1.9,1.3c0.4,0,1.7,0,2.3-0.4c0.1-0.1,0.2-0.2,0.1,0.2c0,0-1.6,1.3-1.8,1.3
	c-0.9,0-1.3,0.1-1.4,0.1c0,0-0.1,0,0,0c0,0,0,0,0,0c-0.1,0-1.1-1.2-1.6-0.8c-0.2,0.1-0.3,0.3-0.4,0.5c0.1,0.2,0.4,0.4,0.7,0.6
	c0.5,0.3,0.5,0.6,1,0.7c0.6,0.1,1.2,0,1.5,0.1c0.1,0,1.4-0.3,2.2-0.7c0.7-0.4-1,0.7-1.4,1.3c-1.3,0.4-0.9,0.4-1.5,0.5
	c-0.6,0.1-0.5,0.1-0.9,0.2c-0.4,0.1-0.7,0.6-0.3,0.9c0.2,0.2,0.9-0.1,1.6-0.1c0.3,0,1.5-0.6,1.8-0.7c0.7-0.4,1.2-0.9,1.6-1.2
	c0.6-0.4-0.6,1.1-1.1,1.7c-0.1,0.2-0.2,0.2-0.4,0.5c-0.3,0.4,0.1,1,0.3,0.9c0.2-0.1,0.4-0.5,0.6-0.7c0.1-0.1,0.5-0.6,0.8-0.9
	c0.2-0.3,0.4-0.4,0.6-0.7c0.4-0.5,0.5-0.8,0.8-1.3c0.2-0.3,0.3-0.3,0.5-0.7c1-1.9,0.7-2.7,1.6-4c0.3-0.4,0.6-0.5,1.1-0.7
	C22.3,8.2,20.9,6.5,20.9,6.5z M16.4,11.4c-0.2,0.8-0.2,0.9-0.6,1.2c-0.5,0.4-0.5,0.1-1.7,0.8c0,0-0.5-0.6-1.3-0.8c0,0-0.2-1-0.6-1.3
	c1-0.8,0.9-1.4,1.1-1.4c0.4,0,0.9,0.2,2-0.2C15.9,10.8,16.6,10.8,16.4,11.4z"/>
<path fill="#FFFFFF" d="M9.1,6.1C9.1,6.1,9.1,6.1,9.1,6.1C9.2,6.1,9.1,6.1,9.1,6.1z"/>
<path fill="#FFFFFF" d="M7.7,6.2c1,0,1.3-0.1,1.4-0.1c0,0,0,0,0,0c0,0,0.1,0,0,0c0.1,0.1,1.1,1.2,1.6,0.8c0.2-0.1,0.3-0.3,0.4-0.5
	C11,6.2,10.7,6,10.3,5.8c-0.5-0.3-0.5-0.6-1-0.7C8.9,4.9,8.3,5,7.9,5C7.8,5,6.5,5.4,5.7,5.8C5,6.1,6.7,5,7.1,4.5
	C8.4,4.1,8,4.1,8.6,3.9c0.6-0.1,0.5-0.1,0.9-0.2c0.4-0.1,0.7-0.6,0.3-0.9C9.7,2.6,9,2.9,8.3,2.9C8,2.9,6.8,3.5,6.5,3.6
	C5.8,4,5.3,4.5,4.9,4.8C4.3,5.2,5.5,3.7,6,3.1c0.1-0.2,0.2-0.3,0.4-0.5c0.3-0.4-0.1-1-0.3-0.9C5.9,1.8,5.8,2.2,5.5,2.4
	C5.4,2.4,5,2.9,4.7,3.3C4.5,3.5,4.3,3.7,4.1,4C3.7,4.4,3.6,4.8,3.3,5.2C3.1,5.5,3,5.6,2.8,5.9c-1,1.8-0.7,2.7-1.6,4
	c-0.3,0.4-0.6,0.5-1.1,0.8c-0.4,3.1,1,4.8,1,4.8c1.2-0.7,1.8-1,3-0.9c0.5,0,0.7,0.2,1.2,0.2c0.4,0,0.6-0.2,1.1-0.3
	C7,14.2,7.3,14,8,13.8c0.5-0.1,0.7-0.1,1.2-0.3c0.4-0.1,0.2,0,0.5-0.3c0.3-0.4,0.3-0.7,0.6-1.3c0.4-0.9,0.4-1,0.2-1.1
	c0.1-0.5,0.2-0.7,0.2-1.2c0-0.4,0.1-0.6-0.3-0.9C9.7,8.2,8.6,7.3,8.3,7.3c-0.4,0-1.7,0-2.3,0.4C5.8,7.8,5.8,7.9,5.9,7.5
	C5.9,7.4,7.5,6.2,7.7,6.2z M6.2,9.4C6.7,9,6.8,9.3,8,8.7c0-0.1,0.4,0.5,1.2,0.7c0,0,0.2,1,0.6,1.3c-1,0.8-0.9,1.4-1.1,1.4
	c-0.4,0-0.9-0.2-2,0.2c-0.6-1.1-1.3-1-1.1-1.7C5.8,9.8,5.8,9.7,6.2,9.4z"/>
</svg>
