<?xml version="1.0" encoding="utf-8"?>
<!-- Generator: Adobe Illustrator 22.1.0, SVG Export Plug-In . SVG Version: 6.00 Build 0)  -->
<svg version="1.1" id="Layer_1" xmlns="http://www.w3.org/2000/svg" xmlns:xlink="http://www.w3.org/1999/xlink" x="0px" y="0px"
	 width="22px" height="22px" viewBox="0 0 22 22" enable-background="new 0 0 22 22" xml:space="preserve">
<polygon points="7,6 6,7 10,11.1 10,8.9 "/>
<polygon points="10,3 7.7,5.3 10,7.5 "/>
<polygon points="5.3,7.7 5,8 0,8 0,14 5,14 10,19 10,12.5 "/>
<path d="M15.7,11c0-3.5-1.3-6.5-3.2-7.4l-1.2,1.2c1.4,0.3,2.9,2.8,2.9,6.3c0,0.2,0,0.4,0,0.7l1.4,1.4C15.6,12.4,15.7,11.7,15.7,11z"
	/>
<path d="M11.3,17.3l1.2,1.2c0.7-0.4,1.3-1,1.8-1.8l-1.1-1.1C12.6,16.5,11.9,17.2,11.3,17.3z"/>
<path d="M14,12.9c-0.1,0.6-0.3,1.2-0.4,1.7l1.2,1.2c0.2-0.5,0.4-1,0.5-1.6L14,12.9z"/>
<path d="M18.7,11c0-4.3-1.6-7.9-4.1-9.6l-1.1,1.1c2.2,1.4,3.6,4.6,3.6,8.5c0,1.2-0.1,2.3-0.4,3.3l1.2,1.2
	C18.4,14.2,18.7,12.6,18.7,11z"/>
<path d="M16.5,15.4c-0.2,0.5-0.4,1-0.6,1.5l1.1,1.1c0.3-0.4,0.5-0.9,0.7-1.4L16.5,15.4z"/>
<path d="M13.5,19.5l1.1,1.1c0.7-0.5,1.2-1.1,1.8-1.8l-1.1-1.1C14.8,18.5,14.2,19.1,13.5,19.5z"/>
<path d="M18,19.1l1.1,1.1c0.3-0.4,0.5-0.9,0.8-1.3l-1.1-1.1C18.5,18.2,18.3,18.6,18,19.1z"/>
<polygon points="1.1,0 0,0 0,1.1 20.9,22 22,22 22,20.9 "/>
<path d="M18.5,21l-1.1-1.1c-0.5,0.7-1.1,1.3-1.8,1.8L16,22h1.6C17.9,21.7,18.2,21.3,18.5,21z"/>
<path d="M20.2,11c0,2.1-0.4,4-1,5.7l1.2,1.2c0.9-2,1.3-4.3,1.3-6.9c0-4.6-1.6-8.5-4.1-11H16l-0.3,0.3C18.4,2.4,20.2,6.3,20.2,11z"/>
</svg>
