<?xml version="1.0" encoding="utf-8"?>
<!-- Generator: Adobe Illustrator 22.1.0, SVG Export Plug-In . SVG Version: 6.00 Build 0)  -->
<svg version="1.1" id="Layer_1" xmlns="http://www.w3.org/2000/svg" xmlns:xlink="http://www.w3.org/1999/xlink" x="0px" y="0px"
	 width="30px" height="30px" viewBox="0 0 30 30" enable-background="new 0 0 30 30" xml:space="preserve">
<polygon fill="#FFFFFF" points="13,4 10.5,6.9 13,9.5 "/>
<polygon fill="#FFFFFF" points="9.5,8.1 8.2,9.6 13,14.4 13,11.6 "/>
<polygon fill="#FFFFFF" points="7.2,10.7 7,11 0,11 0,19 7,19 13,26 13,16.5 "/>
<path fill="#FFFFFF" d="M21.4,15c0-5.4-2.3-9.7-5.4-10.5l-1.7,2c0.2-0.1,0.5-0.1,0.7-0.1c2.1,0,4.4,3.5,4.4,8.6c0,0.3,0,0.5,0,0.8l1.8,1.8
	C21.3,16.8,21.4,15.9,21.4,15z"/>
<path fill="#FFFFFF" d="M19.1,17.7c-0.1,0.8-0.3,1.6-0.6,2.2l1.5,1.5c0.3-0.6,0.5-1.3,0.7-2.1L19.1,17.7z"/>
<path fill="#FFFFFF" d="M15,23.6c-0.2,0-0.5,0-0.7-0.1l1.7,2c1.3-0.3,2.4-1.3,3.3-2.7l-1.4-1.4C17.1,22.8,16,23.6,15,23.6z"/>
<path fill="#FFFFFF" d="M25.4,15c0-6.5-2.7-11.7-6.6-13.7l-1.3,1.6c3.5,1.5,5.9,6.2,5.9,12.1c0,1.5-0.2,3-0.5,4.3l1.6,1.6
	C25.1,19.2,25.4,17.2,25.4,15z"/>
<path fill="#FFFFFF" d="M22.4,21c-0.2,0.7-0.5,1.4-0.8,2l1.5,1.5c0.3-0.6,0.7-1.2,0.9-1.9L22.4,21z"/>
<path fill="#FFFFFF" d="M17.4,27.1l1.3,1.6c1.3-0.7,2.5-1.7,3.4-3l-1.4-1.4C19.8,25.6,18.7,26.6,17.4,27.1z"/>
<path fill="#FFFFFF" d="M24.5,25.9l1.4,1.4c0.4-0.6,0.7-1.2,1-1.8l-1.5-1.5C25.2,24.7,24.8,25.3,24.5,25.9z"/>
<polygon fill="#FFFFFF" points="1.4,0 0,0 0,1.4 28.6,30 30,30 30,28.6 "/>
<path fill="#FFFFFF" d="M25,28.6l-1.4-1.4c-0.9,1.2-2,2.1-3.1,2.9h3.2C24.2,29.6,24.6,29.1,25,28.6z"/>
<path fill="#FFFFFF" d="M27.4,15c0,2.8-0.5,5.3-1.3,7.6l1.5,1.5c1.1-2.7,1.7-5.7,1.7-9.1c0-6.3-2.2-11.7-5.7-15h-3.2C24.6,2.6,27.4,8.2,27.4,15z"/>
</svg>
