<?xml version="1.0" encoding="utf-8"?>
<!-- Generator: Adobe Illustrator 22.1.0, SVG Export Plug-In . SVG Version: 6.00 Build 0)  -->
<svg version="1.1" id="Layer_1" xmlns="http://www.w3.org/2000/svg" xmlns:xlink="http://www.w3.org/1999/xlink" x="0px" y="0px"
	 width="14px" height="14px" viewBox="0 0 14 14" enable-background="new 0 0 14 14" xml:space="preserve">
<path fill="#FFFFFF" d="M10,7c0-2.3-0.9-4.2-2.2-4.8L7,3c0.9,0,2,1.6,2,4c0,0.2,0,0.4,0,0.6l0.9,0.9C9.9,8,10,7.5,10,7z"/>
<path fill="#FFFFFF" d="M7,11l0.8,0.8c0.5-0.2,1-0.7,1.3-1.3L8.4,9.8C8,10.6,7.5,11,7,11z"/>
<path fill="#FFFFFF" d="M8.6,12.6l0.7,0.7c0.5-0.3,0.9-0.8,1.3-1.3l-0.7-0.7C9.5,11.8,9.1,12.3,8.6,12.6z"/>
<path fill="#FFFFFF" d="M12,7c0-2.8-1.1-5.2-2.7-6.3L8.6,1.4C10,2.3,11,4.4,11,7c0,0.8-0.1,1.6-0.3,2.3l0.8,0.8C11.8,9.2,12,8.1,12,7z"/>
<polygon fill="#FFFFFF" points="6,2 4.7,3.3 6,4.6 "/>
<polygon fill="#FFFFFF" points="3.3,4.7 3,5 0,5 0,9 3,9 6,12 6,7.4 "/>
<polygon fill="#FFFFFF" points="0.7,0 0,0 0,0.7 13.3,14 14,14 14,13.3 "/>
<path fill="#FFFFFF" d="M13,7c0,1.4-0.3,2.7-0.7,3.9l0.8,0.8C13.7,10.3,14,8.7,14,7c0-2.9-1-5.4-2.5-7H10l0,0C11.8,1.3,13,3.9,13,7z"/>
<path fill="#FFFFFF" d="M11.3,12.7c-0.4,0.5-0.8,0.9-1.3,1.3l0,0h1.5c0.2-0.2,0.4-0.4,0.5-0.6L11.3,12.7z"/>
</svg>
