<?xml version="1.0" encoding="utf-8"?>
<!-- Generator: Adobe Illustrator 22.1.0, SVG Export Plug-In . SVG Version: 6.00 Build 0)  -->
<svg version="1.1" id="Layer_1" xmlns="http://www.w3.org/2000/svg" xmlns:xlink="http://www.w3.org/1999/xlink" x="0px" y="0px"
	 width="30px" height="30px" viewBox="0 0 30 30" enable-background="new 0 0 30 30" xml:space="preserve">
<path d="M11.5,29.7c0.5,0,0.9-0.4,0.9-0.9c0-0.5-0.4-0.9-0.9-0.9c-0.5,0-0.9,0.4-0.9,0.9C10.6,29.3,11,29.7,11.5,29.7z"/>
<path d="M18.5,29.7c0.5,0,0.9-0.4,0.9-0.9c0-0.5-0.4-0.9-0.9-0.9c-0.5,0-0.9,0.4-0.9,0.9C17.7,29.3,18,29.7,18.5,29.7z"/>
<path d="M9.5,27.2c0,0-0.5,0-0.5-0.6v0c0-0.5,0.5-0.6,0.5-0.6H20c0,0,0.5,0,0.5,0.6v0c0,0.5-0.5,0.6-0.5,0.6H9.5z"/>
<path d="M16.8,4.6c1.3,0,2.3-1,2.3-2.3c0-1.3-1-2.3-2.3-2.3c-1.3,0-2.3,1-2.3,2.3C14.5,3.6,15.5,4.6,16.8,4.6z"/>
<path d="M4.2,24.9c-0.1,0.2-0.2,0.4-0.2,0.7c0,0.8,0.7,1.5,1.5,1.5c0.6,0,1.1-0.3,1.3-0.8l5.1-8.7l-2.1-2.1L4.2,24.9z"/>
<path d="M15.2,24.5c-0.2,0.5-0.7,0.8-1.3,0.8c-0.8,0-1.5-0.7-1.5-1.5c0-0.3,0.1-0.5,0.2-0.7l2.2-3.9L10.5,15
	c-1.6-1.7-0.5-3.4-0.5-3.4L12.6,7L6.5,7C5.8,7,5,6.7,5,6c0-0.7,0.5-0.9,1.2-0.9h18.5c0.7,0,1.2,0.3,1.2,0.9S25.7,7,25,7H18l-3.7,6.4
	l3.4,3.4c1.2,1.2,0.4,2.5,0.4,2.5L15.2,24.5z"/>
</svg>
