<?xml version="1.0" encoding="utf-8"?>
<!-- Generator: Adobe Illustrator 22.1.0, SVG Export Plug-In . SVG Version: 6.00 Build 0)  -->
<svg version="1.1" id="Layer_1" xmlns="http://www.w3.org/2000/svg" xmlns:xlink="http://www.w3.org/1999/xlink" x="0px" y="0px"
	 width="22px" height="22px" viewBox="0 0 22 22" enable-background="new 0 0 22 22" xml:space="preserve">
<path d="M8.3,22c0.4,0,0.6-0.3,0.6-0.6c0-0.4-0.3-0.6-0.6-0.6c-0.4,0-0.6,0.3-0.6,0.6C7.6,21.7,7.9,22,8.3,22z"/>
<path d="M13.4,22c0.4,0,0.6-0.3,0.6-0.6c0-0.4-0.3-0.6-0.6-0.6c-0.4,0-0.6,0.3-0.6,0.6C12.8,21.7,13.1,22,13.4,22z"/>
<path d="M7,19.9c0,0-0.4,0-0.4-0.4v0c0-0.4,0.4-0.4,0.4-0.4h7.7c0,0,0.4,0,0.4,0.4v0c0,0.4-0.4,0.4-0.4,0.4H7z"/>
<path d="M12.3,3.7C13.3,3.7,14,2.9,14,2c0-0.9-0.8-1.7-1.7-1.7c-0.9,0-1.7,0.8-1.7,1.7C10.6,2.9,11.4,3.7,12.3,3.7z"/>
<path d="M3.1,18.2C3,18.4,3,18.6,3,18.7c0,0.6,0.5,1.1,1.1,1.1c0.4,0,0.8-0.3,1-0.6l3.7-6.4l-1.5-1.5L3.1,18.2z"/>
<path d="M11.1,18c-0.2,0.4-0.5,0.6-1,0.6c-0.6,0-1.1-0.5-1.1-1.1c0-0.2,0-0.4,0.1-0.5l1.6-2.8L7.7,11C6.5,9.8,7.3,8.5,7.3,8.5L9,6
	L4.5,6C4,6,3.6,5.6,3.6,5.1c0-0.5,0.4-0.9,0.9-0.9h13.6c0.5,0,0.9,0.4,0.9,0.9S18.6,6,18.1,6h-5.2l-2.5,3.9l2.5,2.5
	c0.9,0.8,0.3,1.8,0.3,1.8L11.1,18z"/>
</svg>
