<?xml version="1.0" encoding="utf-8"?>
<!-- Generator: Adobe Illustrator 22.1.0, SVG Export Plug-In . SVG Version: 6.00 Build 0)  -->
<svg version="1.1" id="Layer_1" xmlns="http://www.w3.org/2000/svg" xmlns:xlink="http://www.w3.org/1999/xlink" x="0px" y="0px"
	 width="14px" height="14px" viewBox="0 0 14 14" enable-background="new 0 0 14 14" xml:space="preserve">
<path fill="#FFFFFF" d="M5.4,14c0.2,0,0.4-0.2,0.4-0.4c0-0.2-0.2-0.4-0.4-0.4c-0.2,0-0.4,0.2-0.4,0.4C5,13.8,5.2,14,5.4,14z"/>
<path fill="#FFFFFF" d="M8.5,14C8.8,14,9,13.8,9,13.6c0-0.2-0.2-0.4-0.4-0.4c-0.2,0-0.4,0.2-0.4,0.4C8.1,13.8,8.3,14,8.5,14z"/>
<path fill="#FFFFFF" d="M4.5,12.8c0,0-0.2,0-0.2-0.3v0c0-0.2,0.2-0.3,0.2-0.3h4.9c0,0,0.2,0,0.2,0.3v0c0,0.2-0.2,0.3-0.2,0.3H4.5z"/>
<path fill="#FFFFFF" d="M7.3,2.8c0.6,0,1.1-0.5,1.1-1.1c0-0.6-0.5-1.1-1.1-1.1c-0.6,0-1.1,0.5-1.1,1.1C6.2,2.3,6.7,2.8,7.3,2.8z"/>
<path fill="#FFFFFF" d="M2,11.6c-0.1,0.1-0.1,0.2-0.1,0.3c0,0.4,0.3,0.7,0.7,0.7c0.3,0,0.5-0.2,0.6-0.4l2.4-4.1l-1-1L2,11.6z"/>
<path fill="#FFFFFF" d="M7.1,11.4c-0.1,0.2-0.3,0.4-0.6,0.4c-0.4,0-0.7-0.3-0.7-0.7c0-0.1,0-0.2,0.1-0.3l1-1.8l-2-2C4.1,6.2,4.7,5.4,4.7,5.4L5.5,4
	L2.7,4C2.4,4,2.1,3.7,2.1,3.4C2.1,3.1,2.4,3,2.7,3h8.7c0.3,0,0.6,0.1,0.6,0.4S11.6,4,11.3,4H8L6.7,6.3l1.6,1.6C8.8,8.4,8.5,9,8.5,9
	L7.1,11.4z"/>
</svg>
