<?xml version="1.0" encoding="utf-8"?>
<!-- Generator: Adobe Illustrator 22.1.0, SVG Export Plug-In . SVG Version: 6.00 Build 0)  -->
<svg version="1.1" id="Layer_1" xmlns="http://www.w3.org/2000/svg" xmlns:xlink="http://www.w3.org/1999/xlink" x="0px" y="0px"
	 width="30px" height="30px" viewBox="0 0 30 30" enable-background="new 0 0 30 30" xml:space="preserve">
<path d="M21.2,4.7c1.3,0,2.4-1.1,2.4-2.4c0-1.3-1.1-2.4-2.4-2.4c-1.3,0-2.4,1.1-2.4,2.4C18.9,3.7,19.9,4.7,21.2,4.7z"/>
<path d="M11.2,14.3l8.5-5.5c1.1-0.7,1.4-2.2,0.7-3.3c-0.7-1.1-2.2-1.4-3.3-0.7l-6.3,4.1c-0.4,0.2-0.6,0.5-0.8,0.9L3.5,22.6
	c-0.4,0.8-0.1,1.7,0.7,2.1c0.8,0.4,1.7,0.1,2.1-0.7L11.2,14.3z"/>
<path d="M27.8,13.4c1.1-0.7,1.5-2.2,0.8-3.3l-0.8,0.5c0.4,0.7,0.2,1.6-0.5,2L1.1,29.2L1.6,30L27.8,13.4z"/>
</svg>
