<?xml version="1.0" encoding="utf-8"?>
<!-- Generator: Adobe Illustrator 22.1.0, SVG Export Plug-In . SVG Version: 6.00 Build 0)  -->
<svg version="1.1" id="Layer_1" xmlns="http://www.w3.org/2000/svg" xmlns:xlink="http://www.w3.org/1999/xlink" x="0px" y="0px"
	 width="14px" height="14px" viewBox="0 0 14 14" enable-background="new 0 0 14 14" xml:space="preserve">
<path d="M9.9,2.2c0.6,0,1.1-0.5,1.1-1.1C11,0.5,10.5,0,9.9,0C9.3,0,8.8,0.5,8.8,1.1C8.8,1.7,9.3,2.2,9.9,2.2z"/>
<path d="M5.2,6.7l4-2.6c0.5-0.3,0.7-1,0.3-1.5C9.2,2.1,8.5,1.9,8,2.2L5.1,4.1C4.9,4.2,4.8,4.4,4.7,4.5l-3.1,6c-0.2,0.4,0,0.8,0.3,1
	c0.4,0.2,0.8,0,1-0.3L5.2,6.7z"/>
<path d="M13,6.3c0.5-0.3,0.7-1,0.4-1.5L12.9,5c0.2,0.3,0.1,0.7-0.2,0.9L0.5,13.6L0.7,14L13,6.3z"/>
</svg>
