<?xml version="1.0" encoding="utf-8"?>
<!-- Generator: Adobe Illustrator 22.1.0, SVG Export Plug-In . SVG Version: 6.00 Build 0)  -->
<svg version="1.1" id="Layer_1" xmlns="http://www.w3.org/2000/svg" xmlns:xlink="http://www.w3.org/1999/xlink" x="0px" y="0px"
	 width="22px" height="22px" viewBox="0 0 22 22" enable-background="new 0 0 22 22" xml:space="preserve">
<path fill="#FFFFFF" d="M15.6,3.5c1,0,1.7-0.8,1.7-1.7c0-1-0.8-1.7-1.7-1.7c-1,0-1.7,0.8-1.7,1.7C13.8,2.7,14.6,3.5,15.6,3.5z"/>
<path fill="#FFFFFF" d="M8.2,10.5l6.3-4C15.3,6,15.5,4.9,15,4.1c-0.5-0.8-1.6-1.1-2.4-0.5L8,6.5C7.7,6.7,7.5,6.9,7.4,7.1l-4.8,9.5
	c-0.3,0.6-0.1,1.2,0.5,1.5c0.6,0.3,1.2,0.1,1.5-0.5L8.2,10.5z"/>
<path fill="#FFFFFF" d="M20.4,9.9c0.8-0.5,1.1-1.6,0.6-2.4l-0.6,0.4c0.3,0.5,0.2,1.1-0.3,1.5L0.8,21.4L1.2,22L20.4,9.9z"/>
</svg>
