<?xml version="1.0" encoding="utf-8"?>
<!-- Generator: Adobe Illustrator 20.0.0, SVG Export Plug-In . SVG Version: 6.00 Build 0)  -->
<svg version="1.1" id="Icons" xmlns="http://www.w3.org/2000/svg" xmlns:xlink="http://www.w3.org/1999/xlink" x="0px" y="0px"
	 width="14px" height="14px" viewBox="0 0 14 14" enable-background="new 0 0 14 14" xml:space="preserve">
<g>
	<path fill="#FFFFFF" d="M13.6,11.1l-1.8-0.7L11.5,10H11V9l-0.6-1l0,0H10V7.7H9.9L5.5,5.9C5.5,5.9,2.3,1,2,1C1.5,1,1,1.4,1,1.9C1,2,0.9,2.2,1,2.3
		L3.6,6H4v0.7l0.7,1.1L5,8v0.5L6.4,9H7v0.2L9,10h1v0.4l0.3,0.1l0,0l0.3,0.5H11v0.4l0.2,0.1l1,0.4L12.1,12h1.8
		c0.1-0.1,0.1-0.2,0.1-0.3C14,11.4,13.8,11.2,13.6,11.1z"/>
	<path fill="#FFFFFF" d="M10.6,12.3L9.9,12H9v-0.4L7.4,11H7v-0.2L4.9,10H4V9.6L2.4,9H2V8.8L0.6,8.3L0,8.6L10.5,13c0.2,0,1.1-0.2,1.5-0.4v-0.5
		C11.4,12.5,10.6,12.3,10.6,12.3z"/>
	<path fill="#FFFFFF" d="M12.9,9h-0.8C11.5,9,11,8.5,11,7.9V7.1C11,6.5,11.5,6,12.1,6h0.8C13.5,6,14,6.5,14,7.1v0.8C14,8.5,13.5,9,12.9,9z"/>
</g>
</svg>
