<?xml version="1.0" encoding="utf-8"?>
<!-- Generator: Adobe Illustrator 18.1.1, SVG Export Plug-In . SVG Version: 6.00 Build 0)  -->
<svg version="1.1" id="Icons" xmlns="http://www.w3.org/2000/svg" xmlns:xlink="http://www.w3.org/1999/xlink" x="0px" y="0px"
	 viewBox="0 0 24 24" enable-background="new 0 0 24 24" xml:space="preserve">
<g opacity="0.5">
	<path d="M23.4,20.3l-2.9-1.1L19.3,17H19v-0.5l-0.6-1.1c0,0-0.2-0.4-0.8-0.6L10.7,12l-4.1-7C6.4,4.7,5.9,4,5.4,4C4.7,4,4,5,4,5.8
		C4,6,4.1,6.3,4.2,6.4l5.1,8.6L6.6,14H5.8l-0.5,0.3l12.9,5.1h0l0.4,0.6H19v0.6c0.1,0.1,0.3,0.2,0.5,0.3l1.6,0.6
		c-1,1-2.5,0.6-2.5,0.6L18.3,22H18v-0.1L3.4,16H2.5L2,16.3l16.5,6.5c1.9,0.7,3.5-1,3.5-1v0l0.8,0.3v0c0.1,0,0.2,0,0.3,0
		c0.5,0,1-0.4,1-1C24,20.8,23.8,20.5,23.4,20.3z"/>
	<circle cx="22" cy="15" r="2"/>
</g>
<g opacity="0.75">
	<path d="M22.4,19.3l-2.9-1.1L18.3,16H18v-0.5l-0.6-1.1c0,0-0.2-0.4-0.8-0.6L9.7,11l-4.1-7C5.4,3.7,4.9,3,4.4,3C3.7,3,3,4,3,4.8
		C3,5,3.1,5.3,3.2,5.4l5.1,8.6L5.6,13H4.8l-0.5,0.3l12.9,5.1h0l0.4,0.6H18v0.6c0.1,0.1,0.3,0.2,0.5,0.3l1.6,0.6
		c-1,1-2.5,0.6-2.5,0.6L17.3,21H17v-0.1L2.4,15H1.5L1,15.3l16.5,6.5c1.9,0.7,3.5-1,3.5-1v0l0.8,0.3v0c0.1,0,0.2,0,0.3,0
		c0.5,0,1-0.4,1-1C23,19.8,22.8,19.5,22.4,19.3z"/>
	<circle cx="21" cy="14" r="2"/>
</g>
<g>
	<path fill="#FFFFFF" d="M21.4,18.3l-2.9-1.1L17.3,15H17v-0.5l-0.6-1.1c0,0-0.2-0.4-0.8-0.6L8.7,10l-4.1-7C4.4,2.7,3.9,2,3.4,2
		C2.7,2,2,3,2,3.8C2,4,2.1,4.3,2.2,4.4l5.1,8.6L4.6,12H3.8l-0.5,0.3l12.9,5.1h0l0.4,0.6H17v0.6c0.1,0.1,0.3,0.2,0.5,0.3l1.6,0.6
		c-1,1-2.5,0.6-2.5,0.6L16.3,20H16v-0.1L1.4,14H0.5L0,14.3l16.5,6.5c1.9,0.7,3.5-1,3.5-1v0l0.8,0.3v0c0.1,0,0.2,0,0.3,0
		c0.5,0,1-0.4,1-1C22,18.8,21.8,18.5,21.4,18.3z"/>
	<circle fill="#FFFFFF" cx="20" cy="13" r="2"/>
</g>
</svg>
