<?xml version="1.0" encoding="utf-8"?>
<!-- Generator: Adobe Illustrator 20.0.0, SVG Export Plug-In . SVG Version: 6.00 Build 0)  -->
<svg version="1.1" id="Icons" xmlns="http://www.w3.org/2000/svg" xmlns:xlink="http://www.w3.org/1999/xlink" x="0px" y="0px"
	 width="22px" height="22px" viewBox="0 0 22 22" enable-background="new 0 0 22 22" xml:space="preserve">
<g>
	<path fill="#231F20" d="M21.4,18.3l-2.9-1.1L17.3,15H17v-0.5l-0.6-1.1c0,0-0.2-0.4-0.8-0.6L8.7,10L4.6,3C4.4,2.7,3.9,2,3.4,2C2.7,2,2,3,2,3.8
		C2,4,2.1,4.3,2.2,4.4L7.3,13l-2.7-1H3.8l-0.5,0.3l12.9,5.1l0,0l0.4,0.6H17v0.6c0.1,0.1,0.3,0.2,0.5,0.3l1.6,0.6
		c-1,1-2.5,0.6-2.5,0.6L16.3,20H16v-0.1L1.4,14H0.5L0,14.3l16.5,6.5c1.9,0.7,3.5-1,3.5-1l0,0l0.8,0.3l0,0c0.1,0,0.2,0,0.3,0
		c0.5,0,1-0.4,1-1C22,18.8,21.8,18.5,21.4,18.3z"/>
	<circle fill="#231F20" cx="20" cy="13" r="2"/>
</g>
</svg>
