<?xml version="1.0" encoding="utf-8"?>
<!-- Generator: Adobe Illustrator 20.0.0, SVG Export Plug-In . SVG Version: 6.00 Build 0)  -->
<svg version="1.1" id="Icons" xmlns="http://www.w3.org/2000/svg" xmlns:xlink="http://www.w3.org/1999/xlink" x="0px" y="0px"
	 width="30px" height="30px" viewBox="0 0 30 30" enable-background="new 0 0 30 30" xml:space="preserve">
<g>
	<path fill="#231F20" d="M29.2,23.3l-3.9-1.5l-1-1.8H24v-0.4L23.1,18H23v-0.2l-0.6-1.1c0,0-0.2-0.6-1.1-0.9L11.9,12L6.3,2.6C5.9,2,5.3,2,4.7,2
		C3.6,2,3,4,3,4l5.7,10H9v0.5l1,1.7l-4.4-1.8l-1.1,0.7L22.1,22l0,0l0.7,1.1c0,0,0.2,0.5,0.8,0.8H24v0.2l2.1,0.8
		c-0.7,0.7-1.5,0.9-2.1,0.9V26h-1v-0.1c-0.2,0-0.3-0.1-0.3-0.1L1.2,17.2L0,17.9l22.5,8.9c2.6,1,4.7-1.3,4.7-1.3l0,0l1.1,0.4l0,0
		c0.1,0,0.3,0.1,0.4,0.1c0.7,0,1.3-0.6,1.3-1.3C30,24,29.7,23.5,29.2,23.3z"/>
	<path fill="#231F20" d="M27,13c-1.7,0-3,1.3-3,3c0,0.8,0.3,1.5,0.8,2H25v0.2c0.5,0.5,1.2,0.8,2,0.8c1.7,0,3-1.3,3-3S28.7,13,27,13z"/>
</g>
</svg>
