<?xml version="1.0" encoding="utf-8"?>
<!-- Generator: Adobe Illustrator 22.1.0, SVG Export Plug-In . SVG Version: 6.00 Build 0)  -->
<svg version="1.1" id="Layer_1" xmlns="http://www.w3.org/2000/svg" xmlns:xlink="http://www.w3.org/1999/xlink" x="0px" y="0px"
	 width="30px" height="30px" viewBox="0 0 30 30" enable-background="new 0 0 30 30" xml:space="preserve">
<circle fill="#FFFFFF" cx="12" cy="21" r="2"/>
<path fill="#FFFFFF" d="M28.4,21c0.9,0,1.5,0.1,1.6,1l0,4H18v-5H28.4z"/>
<path fill="#FFFFFF" d="M14.7,24.1H12c-0.5,0-1,0.4-1,1c0,0.5,0.4,1,1,1h3.7c0.5,0,1-0.4,1-1v-3.9c0-0.5-0.4-1-1-1c-0.5,0-1,0.4-1,1V24.1z"/>
<polygon fill="#FFFFFF" points="30,1.1 30,0 27.8,0 0,13.9 0,16.1 6,13.1 6,30 7,30 8,30 30,30 30,28 8,28 8,12.1 "/>
</svg>
