<?xml version="1.0" encoding="utf-8"?>
<!-- Generator: Adobe Illustrator 22.1.0, SVG Export Plug-In . SVG Version: 6.00 Build 0)  -->
<svg version="1.1" id="Layer_1" xmlns="http://www.w3.org/2000/svg" xmlns:xlink="http://www.w3.org/1999/xlink" x="0px" y="0px"
	 width="14px" height="14px" viewBox="0 0 14 14" enable-background="new 0 0 14 14" xml:space="preserve">
<circle fill="#FFFFFF" cx="5" cy="9.6" r="1"/>
<path fill="#FFFFFF" d="M13.2,9.2c0.4,0,0.8,0.3,0.8,0.8l0,2.1H8V9.2H13.2z"/>
<path fill="#FFFFFF" d="M6,11H4.7c-0.3,0-0.5,0.2-0.5,0.5c0,0.3,0.2,0.5,0.5,0.5h1.8C6.8,12,7,11.8,7,11.5V9.6c0-0.3-0.2-0.5-0.5-0.5
	C6.3,9.1,6,9.3,6,9.6V11z"/>
<polygon fill="#FFFFFF" points="14,1 14,0 13.8,0 0,6.4 0,7.6 2,6.6 2,14 14,14 14,13 3,13 3,6.2 "/>
</svg>
