<?xml version="1.0" encoding="utf-8"?>
<!-- Generator: Adobe Illustrator 22.1.0, SVG Export Plug-In . SVG Version: 6.00 Build 0)  -->
<svg version="1.1" id="Layer_1" xmlns="http://www.w3.org/2000/svg" xmlns:xlink="http://www.w3.org/1999/xlink" x="0px" y="0px"
	 width="22px" height="22px" viewBox="0 0 22 22" enable-background="new 0 0 22 22" xml:space="preserve">
<circle fill="#FFFFFF" cx="8.5" cy="15.5" r="1.5"/>
<path fill="#FFFFFF" d="M20.8,15c0.6,0,1.2,0.3,1.2,0.9l0,3.1h-9v-4H20.8z"/>
<path fill="#FFFFFF" d="M10.5,17.6h-2c-0.4,0-0.7,0.3-0.7,0.7c0,0.4,0.3,0.7,0.7,0.7h2.8c0.4,0,0.7-0.3,0.7-0.7v-2.9c0-0.4-0.3-0.7-0.7-0.7
	c-0.4,0-0.8,0.3-0.8,0.7V17.6z"/>
<polygon fill="#FFFFFF" points="22,1.6 22,0 20.7,0 0,9.9 0,12.1 4,10.2 4,22 5,22 6,22 22,22 22,20 6,20 6,9.2 "/>
</svg>
