<?xml version="1.0" encoding="utf-8"?>
<!-- Generator: Adobe Illustrator 22.1.0, SVG Export Plug-In . SVG Version: 6.00 Build 0)  -->
<svg version="1.1" id="Layer_1" xmlns="http://www.w3.org/2000/svg" xmlns:xlink="http://www.w3.org/1999/xlink" x="0px" y="0px"
	 width="14px" height="14px" viewBox="0 0 14 14" enable-background="new 0 0 14 14" xml:space="preserve">
<path fill="#FFFFFF" d="M6.1,1.7C6.3,1.1,6,0.5,5.4,0.3C4.8,0.1,4.1,0.5,3.9,1.1C3.8,1.7,4.1,2.3,4.7,2.5C5.3,2.7,6,2.4,6.1,1.7z"/>
<path fill="#FFFFFF" d="M8.3,5.3L7.9,2.6L10.5,1c0.1-0.1,0.2-0.2,0.3-0.3c0.1-0.3-0.1-0.6-0.4-0.7c-0.2,0-0.3,0-0.4,0.1L6.2,2.3
	C6,2.4,5.9,2.5,5.8,2.6L4.2,4.7L2,4.5c-0.1,0-0.3,0.2-0.3,0.3C1.6,5.1,1.7,5.4,2,5.5c0.1,0.1,0.2,0.1,0.4,0l2.2,0.3
	c0.1,0,0.2-0.1,0.2-0.1l0.9-1.1L6.1,7c0.1,0.3,0.3,0.7,0.6,0.8l2,0.6L9,10.6c0,0.3,0.2,0.5,0.5,0.6c0.4,0.1,0.8-0.1,0.9-0.4
	c0-0.1,0-0.2,0-0.3l-0.4-2.7c0-0.2-0.2-0.4-0.4-0.5L8.5,6.8l2-1.2L13,6.7c0,0,0,0,0,0c0.4,0.1,0.8-0.1,0.9-0.4
	c0.1-0.4,0-0.7-0.4-0.9l-2.8-1.3c0,0,0,0,0,0c-0.2-0.1-0.4,0-0.6,0L8.3,5.3z"/>
<polygon fill="#FFFFFF" points="7,13 7,12 7,11 6,11 5,11 5,10 5,9 4,9 3,9 3,8 3,7 2,7 0,7 0,8 2,8 2,9 2,10 3,10 4,10 4,11 4,12 5,12 6,12 6,14 
	7,14 9,14 9,13 "/>
</svg>
