<?xml version="1.0" encoding="utf-8"?>
<!-- Generator: Adobe Illustrator 22.1.0, SVG Export Plug-In . SVG Version: 6.00 Build 0)  -->
<svg version="1.1" id="Layer_1" xmlns="http://www.w3.org/2000/svg" xmlns:xlink="http://www.w3.org/1999/xlink" x="0px" y="0px"
	 width="30px" height="30px" viewBox="0 0 30 30" enable-background="new 0 0 30 30" xml:space="preserve">
<path d="M13.1,3.7c0.4-1.3-0.3-2.7-1.6-3.1C10.2,0.3,8.8,1,8.4,2.3C8,3.6,8.8,5,10.1,5.4C11.4,5.8,12.8,5,13.1,3.7z"/>
<path d="M17.8,11.3l-0.9-5.8l5.7-3.3c0.3-0.2,0.5-0.4,0.6-0.7c0.2-0.6-0.2-1.3-0.8-1.5c-0.3-0.1-0.7,0-1,0.1L13.2,5
	c-0.3,0.2-0.5,0.4-0.7,0.6L9,10.2L4.3,9.6C4,9.7,3.8,9.9,3.6,10.2c-0.3,0.6,0,1.3,0.6,1.6c0.2,0.1,0.5,0.1,0.8,0.1l4.8,0.5
	c0.2-0.1,0.3-0.2,0.5-0.3l2-2.4l0.9,5.3c0.2,0.7,0.7,1.4,1.4,1.8l4.2,1.2l0.6,4.8c0.1,0.5,0.5,1,1,1.2c0.8,0.3,1.7-0.1,2-0.9
	c0.1-0.2,0.1-0.5,0.1-0.7l-0.8-5.9c-0.1-0.4-0.4-0.8-0.8-1l-2.6-0.8l4.3-2.6l5.3,2.3c0,0,0.1,0,0.1,0c0.8,0.3,1.7-0.1,2-0.9
	c0.3-0.8-0.1-1.6-0.8-1.9l-6-2.7c0,0-0.1,0-0.1,0c-0.4-0.2-0.9-0.1-1.3,0.1L17.8,11.3z"/>
<polygon points="17,28 17,25 17,23 15,23 12,23 12,20 12,18 10,18 7,18 7,15 7,13 5,13 0,13 0,15 5,15 5,18 5,20 7,20 10,20 10,23 
	10,25 12,25 15,25 15,28 15,30 17,30 22,30 22,28 "/>
</svg>
