<?xml version="1.0" encoding="utf-8"?>
<!-- Generator: Adobe Illustrator 22.1.0, SVG Export Plug-In . SVG Version: 6.00 Build 0)  -->
<svg version="1.1" id="Layer_1" xmlns="http://www.w3.org/2000/svg" xmlns:xlink="http://www.w3.org/1999/xlink" x="0px" y="0px"
	 width="30px" height="30px" viewBox="0 0 30 30" enable-background="new 0 0 30 30" xml:space="preserve">
<path fill="#FFFFFF" d="M13.2,3.8c0.4-1.3-0.3-2.7-1.6-3.1c-1.3-0.4-2.7,0.3-3.1,1.6c-0.4,1.3,0.3,2.7,1.6,3.1C11.4,5.8,12.8,5.1,13.2,3.8z"/>
<path fill="#FFFFFF" d="M17.8,11.4l-0.9-5.8l5.7-3.3c0.3-0.1,0.5-0.4,0.6-0.7C23.3,1,23,0.3,22.3,0.1c-0.3-0.1-0.7,0-1,0.1L13.3,5
	c-0.3,0.2-0.5,0.4-0.7,0.6l-3.4,4.6L4.4,9.7C4.1,9.8,3.8,10,3.7,10.3c-0.3,0.6,0,1.3,0.6,1.5C4.6,12,4.8,12,5.1,11.9l4.8,0.5
	c0.2-0.1,0.3-0.2,0.5-0.3l1.9-2.4l0.9,5.3c0.2,0.7,0.7,1.4,1.4,1.7l4.2,1.2l0.6,4.8c0.1,0.5,0.5,1,1,1.2c0.8,0.3,1.7-0.1,1.9-0.9
	c0.1-0.2,0.1-0.5,0.1-0.7l-0.8-5.9c-0.1-0.4-0.4-0.8-0.8-1l-2.6-0.8l4.3-2.6l5.3,2.3c0,0,0.1,0,0.1,0c0.8,0.3,1.7-0.1,1.9-0.9
	c0.3-0.7-0.1-1.6-0.8-1.9l-6-2.7c0,0-0.1,0-0.1,0c-0.4-0.2-0.9-0.1-1.3,0.1L17.8,11.4z"/>
<g>
	<path fill="#FFFFFF" fill-rule="evenodd" clip-rule="evenodd" d="M0,29.9l24.5,0L0,12.6L0,29.9z"/>
</g>
</svg>
