<?xml version="1.0" encoding="utf-8"?>
<!-- Generator: Adobe Illustrator 22.1.0, SVG Export Plug-In . SVG Version: 6.00 Build 0)  -->
<svg version="1.1" id="Layer_1" xmlns="http://www.w3.org/2000/svg" xmlns:xlink="http://www.w3.org/1999/xlink" x="0px" y="0px"
	 width="22px" height="22px" viewBox="0 0 22 22" enable-background="new 0 0 22 22" xml:space="preserve">
<path fill="#FFFFFF" d="M9.6,2.7c0.3-1-0.2-2-1.2-2.3c-0.9-0.3-2,0.2-2.3,1.2c-0.3,1,0.2,2,1.2,2.3C8.3,4.2,9.4,3.7,9.6,2.7z"/>
<path fill="#FFFFFF" d="M13,8.3l-0.7-4.2l4.2-2.4c0.2-0.1,0.4-0.3,0.4-0.5c0.1-0.5-0.1-0.9-0.6-1.1c-0.2-0.1-0.5,0-0.7,0.1l-6,3.5
	C9.5,3.7,9.3,3.9,9.1,4.1L6.6,7.5L3.2,7C3,7.1,2.8,7.3,2.7,7.5c-0.2,0.4,0,0.9,0.4,1.1c0.2,0.1,0.4,0.1,0.6,0l3.5,0.4
	C7.3,9,7.4,9,7.5,8.9L9,7.1l0.7,3.9c0.1,0.5,0.5,1,1,1.3l3.1,0.9l0.5,3.5c0.1,0.4,0.3,0.8,0.7,0.9c0.6,0.2,1.2-0.1,1.4-0.7
	c0.1-0.2,0.1-0.4,0-0.5L15.8,12c-0.1-0.3-0.3-0.6-0.6-0.8l-1.9-0.6l3.2-1.9l3.9,1.7c0,0,0,0,0.1,0c0.6,0.2,1.2-0.1,1.4-0.7
	c0.2-0.6-0.1-1.1-0.6-1.4l-4.4-2c0,0,0,0-0.1,0c-0.3-0.1-0.7-0.1-0.9,0.1L13,8.3z"/>
<polygon fill="#FFFFFF" points="13,20 13,17 9,17 9,14 5,14 5,11 0,11 0,13 3,13 3,16 7,16 7,19 11,19 11,22 17,22 17,20 "/>
</svg>
