<?xml version="1.0" encoding="utf-8"?>
<!-- Generator: Adobe Illustrator 22.1.0, SVG Export Plug-In . SVG Version: 6.00 Build 0)  -->
<svg version="1.1" id="Layer_1" xmlns="http://www.w3.org/2000/svg" xmlns:xlink="http://www.w3.org/1999/xlink" x="0px" y="0px"
	 width="22px" height="22px" viewBox="0 0 22 22" enable-background="new 0 0 22 22" xml:space="preserve">
<path d="M14.4,11.8c-1.4,0-2.5-1.1-2.5-2.5c0-0.3,0-0.5,0.1-0.8c-1.7,0-3.1-1.5-3.1-3.2c0-1.8,1.4-3.2,3.2-3.2V3
	c-1.2,0-2.2,1-2.2,2.3c0,1.3,1,2.3,2.3,2.3c0.2,0,0.3,0,0.5,0c0,0,0.1,0,0.1,0c0.3,0,0.5,0.2,0.5,0.5c0,0.1,0,0.2-0.1,0.3
	c-0.2,0.3-0.3,0.6-0.3,0.9c0,0.9,0.7,1.6,1.6,1.6h3.3c1.3,0,2.3,1,2.3,2.3l0,1.8h-0.9v-1.8c0-0.8-0.6-1.4-1.4-1.4H14.4z"/>
<path d="M15.4,8.2c0.3-0.4,0.5-1,0.5-1.6c0-1.5-1.2-2.6-2.6-2.6h-0.2V3.1h0.2c2,0,3.6,1.6,3.6,3.6c0,0.5-0.1,1-0.3,1.5l0.7,0
	c2.7,0,4.8,2.2,4.8,4.8v2h-0.9v-2c0-2.2-1.7-3.9-3.9-3.9h-1.4c-0.3,0-0.5-0.2-0.5-0.5C15.3,8.4,15.3,8.3,15.4,8.2z"/>
<rect x="21" y="16" width="1" height="4"/>
<rect x="19" y="16" width="1" height="4"/>
<rect y="16" width="18" height="4"/>
</svg>
