<?xml version="1.0" encoding="utf-8"?>
<!-- Generator: Adobe Illustrator 22.1.0, SVG Export Plug-In . SVG Version: 6.00 Build 0)  -->
<svg version="1.1" id="Layer_1" xmlns="http://www.w3.org/2000/svg" xmlns:xlink="http://www.w3.org/1999/xlink" x="0px" y="0px"
	 width="30px" height="30px" viewBox="0 0 30 30" enable-background="new 0 0 30 30" xml:space="preserve">
<path fill="#FFFFFF" d="M19.9,16.5c-1.9,0-3.5-1.6-3.5-3.5c0-0.4,0.1-0.7,0.2-1c-2.4,0-4.3-2-4.3-4.4c0-2.4,1.9-4.3,4.3-4.4v1.3
	c-1.7,0-3.1,1.4-3.1,3.1c0,1.7,1.4,3.1,3.1,3.1c0.2,0,0.4,0,0.6-0.1c0.1,0,0.1,0,0.2,0c0.4,0,0.7,0.3,0.7,0.7c0,0.2,0,0.3-0.1,0.4
	c-0.2,0.4-0.4,0.8-0.4,1.2c0,1.2,1,2.2,2.2,2.2h4.6c1.7,0,3.5,1.4,3.5,3.1v2.5h-1v-2.5c0-1-1.5-1.9-2.5-1.9H19.9z"/>
<path fill="#FFFFFF" d="M20.9,11.7c0.5-0.6,0.7-1.4,0.7-2.2c0-2-1.6-3.6-3.6-3.6h-0.3V4.6h0.3c2.7,0,4.9,2.2,4.9,4.9c0,0.7-0.2,1.4-0.4,2l0.9,0
	c3.6,0,6.6,3,6.6,6.6v2.7h-1v-2.7c0-2.9-2.7-5.3-5.6-5.3h-1.9c-0.4,0-0.7-0.3-0.7-0.7C20.8,11.9,20.9,11.8,20.9,11.7z"/>
<rect fill="#FFFFFF" y="22" width="26" height="5"/>
<rect fill="#FFFFFF" x="29" y="22" width="1" height="5"/>
<rect fill="#FFFFFF" x="27" y="22" width="1" height="5"/>
</svg>
