<?xml version="1.0" encoding="utf-8"?>
<!-- Generator: Adobe Illustrator 22.1.0, SVG Export Plug-In . SVG Version: 6.00 Build 0)  -->
<svg version="1.1" id="Layer_1" xmlns="http://www.w3.org/2000/svg" xmlns:xlink="http://www.w3.org/1999/xlink" x="0px" y="0px"
	 width="14px" height="14px" viewBox="0 0 14 14" enable-background="new 0 0 14 14" xml:space="preserve">
<path fill="#FFFFFF" d="M9.3,7.7C8.4,7.7,7.7,7,7.7,6.1c0-0.2,0-0.3,0.1-0.5c-1.1,0-2-0.9-2-2c0-1.1,0.9-2,2-2v0.6C7,2.1,6.3,2.8,6.3,3.5
	C6.3,4.3,7,5,7.8,5C7.9,5,8,5,8.1,5c0,0,0.1,0,0.1,0c0.2,0,0.3,0.2,0.3,0.3c0,0.1,0,0.1-0.1,0.2C8.3,5.7,8.3,5.9,8.3,6.1
	c0,0.6,0.5,1,1,1h2.1c0.8,0,1.5,0.7,1.5,1.5l0,1.2h-0.6V8.6c0-0.5-0.4-0.9-0.9-0.9H9.3z"/>
<path fill="#FFFFFF" d="M9.8,5.4c0.2-0.3,0.3-0.6,0.3-1c0-0.9-0.8-1.7-1.7-1.7H8.3V2.1h0.1c1.3,0,2.3,1,2.3,2.3c0,0.3-0.1,0.7-0.2,0.9l0.4,0
	c1.7,0,3.1,1.4,3.1,3.1v1.3h-0.6V8.4c0-1.4-1.1-2.5-2.5-2.5h-0.9C9.9,6,9.7,5.8,9.7,5.6C9.7,5.5,9.7,5.5,9.8,5.4z"/>
<rect fill="#FFFFFF" x="13" y="11" width="1" height="2"/>
<rect fill="#FFFFFF" x="11" y="11" width="1" height="2"/>
<rect fill="#FFFFFF" y="11" width="11" height="2"/>
</svg>
