<?xml version="1.0" encoding="utf-8"?>
<!-- Generator: Adobe Illustrator 22.0.1, SVG Export Plug-In . SVG Version: 6.00 Build 0)  -->
<svg version="1.1" id="Layer_1" xmlns="http://www.w3.org/2000/svg" xmlns:xlink="http://www.w3.org/1999/xlink" x="0px" y="0px"
	 width="22px" height="22px" viewBox="0 0 22 22" enable-background="new 0 0 22 22" xml:space="preserve">
<polygon fill="#FFFFFF" points="22,7 20.1,21 14.1,21 12.3,7 19.7,7 21.2,1.7 22,1.9 20.6,7 "/>
<path fill="#FFFFFF" d="M11.4,15c0,0,0.2-2.1-2.9-2.1h-5c-3.2,0-2.9,2.1-2.9,2.1H11.4z"/>
<path fill="#FFFFFF" d="M0.5,19c0,0-0.2,2,2.9,2h5c3.2,0,2.9-2,2.9-2H0.5z"/>
<path fill="#FFFFFF" d="M10.9,17.9c0.5,0,0.9-0.4,0.9-0.9c0-0.5-0.4-0.9-0.9-0.9h-10C0.4,16,0,16.4,0,16.9c0,0.5,0.4,0.9,0.9,0.9H10.9z"/>
</svg>
