<?xml version="1.0" encoding="utf-8"?>
<!-- Generator: Adobe Illustrator 22.0.1, SVG Export Plug-In . SVG Version: 6.00 Build 0)  -->
<svg version="1.1" id="Layer_1" xmlns="http://www.w3.org/2000/svg" xmlns:xlink="http://www.w3.org/1999/xlink" x="0px" y="0px"
	 width="30px" height="30px" viewBox="0 0 30 30" enable-background="new 0 0 30 30" xml:space="preserve">
<polygon fill="#FFFFFF" points="29.9,9 27.5,28 19.2,28 16.7,9 26.9,9 28.9,1.8 30,2.1 28.1,9 "/>
<path fill="#FFFFFF" d="M15.5,20c0,0,0.3-3-4-3H4.7c-4.3,0-4,3-4,3H15.5z"/>
<path fill="#FFFFFF" d="M0.7,25c0,0-0.3,3,4,3h6.9c4.3,0,4-3,4-3H0.7z"/>
<path fill="#FFFFFF" d="M14.9,24c0.7,0,1.3-0.8,1.3-1.5c0-0.7-0.6-1.5-1.3-1.5H1.3C0.6,21,0,21.8,0,22.5C0,23.2,0.6,24,1.3,24H14.9z"/>
</svg>
