<?xml version="1.0" encoding="utf-8"?>
<!-- Generator: Adobe Illustrator 22.0.1, SVG Export Plug-In . SVG Version: 6.00 Build 0)  -->
<svg version="1.1" id="Layer_1" xmlns="http://www.w3.org/2000/svg" xmlns:xlink="http://www.w3.org/1999/xlink" x="0px" y="0px"
	 width="14px" height="14px" viewBox="0 0 14 14" enable-background="new 0 0 14 14" xml:space="preserve">
<polygon points="14,4.1 12.8,14 8.9,14 7.8,4.1 12.5,4.1 13.5,0 14,0.1 13.1,4.1 "/>
<path d="M7.3,8c0,0,0.1-2-1.9-2H2.2c-2,0-1.9,2-1.9,2H7.3z"/>
<path d="M0.3,12c0,0-0.1,2,1.9,2h3.2c2,0,1.9-2,1.9-2H0.3z"/>
<path d="M7,11c0.3,0,0.6-0.7,0.6-1c0-0.3-0.3-1-0.6-1H0.6C0.3,9,0,9.7,0,10c0,0.3,0.3,1,0.6,1H7z"/>
</svg>
