<?xml version="1.0" encoding="utf-8"?>
<!-- Generator: Adobe Illustrator 21.1.0, SVG Export Plug-In . SVG Version: 6.00 Build 0)  -->
<svg version="1.1" id="Layer_1_1_" xmlns="http://www.w3.org/2000/svg" xmlns:xlink="http://www.w3.org/1999/xlink" x="0px" y="0px"
	 width="30px" height="30px" viewBox="0 0 30 30" enable-background="new 0 0 30 30" xml:space="preserve">
<path fill="#FFFFFF" d="M19.3,6h-8.6C8.3,6.4,6.4,8.3,6,10.7v5.6L8,19v-8.3C8.6,9.5,9.5,8.6,10.7,8h8.6c1.2,0.6,2.1,1.5,2.7,2.7V19l2-2.6v-5.6
	C23.6,8.3,21.7,6.4,19.3,6z"/>
<path fill="#FFFFFF" d="M19.3,17c0,0-2.1-4.1-4.3-4.1S10.7,17,10.7,17H8v2h14v-2H19.3z"/>
<path fill="#FFFFFF" d="M26,0v19.1c-0.1,1.2-1.5,2.7-2.4,2.9H17l-1-1h-2c-0.7,0.8-1.7,1.4-1.7,2.2v1.4c0,0.7,0.6,1.4,1.4,1.5h2.7
	c0.7-0.1,1.4-0.7,1.4-2h5.8c2.4,0,4.4-3,4.4-4.9V0H26z"/>
</svg>
