<?xml version="1.0" encoding="utf-8"?>
<!-- Generator: Adobe Illustrator 21.1.0, SVG Export Plug-In . SVG Version: 6.00 Build 0)  -->
<svg version="1.1" id="Layer_1_1_" xmlns="http://www.w3.org/2000/svg" xmlns:xlink="http://www.w3.org/1999/xlink" x="0px" y="0px"
	 width="14px" height="14px" viewBox="0 0 14 14" enable-background="new 0 0 14 14" xml:space="preserve">
<path fill="#FFFFFF" d="M9,3H5C3.9,3,3,3.9,3,5v3h1V5c0-0.6,0.4-1,1-1h4c0.6,0,1,0.4,1,1v3h1V5C11,3.9,10.1,3,9,3z"/>
<path fill="#FFFFFF" d="M9,8c0,0-1-2-2-2S5,8,5,8H4v1h6V8H9z"/>
<path fill="#FFFFFF" d="M12,0v9c0,0.6-0.4,1-1,1H8H6v2h2v-1h3c1.1,0,2-0.9,2-2V0H12z"/>
</svg>
