<?xml version="1.0" encoding="utf-8"?>
<!-- Generator: Adobe Illustrator 21.1.0, SVG Export Plug-In . SVG Version: 6.00 Build 0)  -->
<svg version="1.1" id="Layer_1_1_" xmlns="http://www.w3.org/2000/svg" xmlns:xlink="http://www.w3.org/1999/xlink" x="0px" y="0px"
	 width="22px" height="22px" viewBox="0 0 22 22" enable-background="new 0 0 22 22" xml:space="preserve">
<path fill="#FFFFFF" d="M14.1,4H7.9C6.1,4.7,4.7,6.1,4,7.9V12l2,2V7.9C6.3,7,7,6.3,7.9,6h6.3C15,6.3,15.7,7,16,7.9V14l2-2V7.9
	C17.3,6.1,15.9,4.7,14.1,4z"/>
<path fill="#FFFFFF" d="M14.1,12.6c0,0-1.6-3.1-3.1-3.1s-3.1,3.1-3.1,3.1H6V14h10v-1.4H14.1z"/>
<path fill="#FFFFFF" d="M19,0v14c0,0.9-1,2-1.7,2h-4.7H12h-2c-0.5,0-1,0.5-1,1v1c0,0.5,0.5,1,1,1h2c0.5,0,1-0.5,1-1h4.3c1.7,0,3.7-2.3,3.7-4V0H19z"
	/>
</svg>
