<?xml version="1.0" encoding="utf-8"?>
<!-- Generator: Adobe Illustrator 22.0.1, SVG Export Plug-In . SVG Version: 6.00 Build 0)  -->
<svg version="1.1" id="Layer_1" xmlns="http://www.w3.org/2000/svg" xmlns:xlink="http://www.w3.org/1999/xlink" x="0px" y="0px"
	 width="22px" height="22px" viewBox="0 0 22 22" enable-background="new 0 0 22 22" xml:space="preserve">
<path fill="#FFFFFF" d="M15.4,3.5c1,0,1.8-0.8,1.8-1.8S16.4,0,15.4,0c-1,0-1.8,0.8-1.8,1.8S14.5,3.5,15.4,3.5z"/>
<path fill="#FFFFFF" d="M20.2,10.3c-0.3,0.7-1,0.5-1,0.5l-2.8-1c-0.3-0.1-0.5-0.3-0.6-0.6l-0.6-1.8l-1,2.7l2.9,3c0.4,0.6,0.3,1.1,0.3,1.1v4.2l0,0
	c1,0,1.9,0.8,1.9,1.9c0,1-0.8,1.9-1.9,1.9c-0.1,0-0.3,0-0.4-0.1L11,20.6v-0.9l4.6-1v-3.8l-3.1-3.1L12,15c-0.1,0.4-0.4,0.8-0.5,1
	l-2.1,2.5c0,0-0.1,0-0.1,0l0.1,0c0.6,0.4,0.8,1.2,0.7,1.9c-0.2,1-1.2,1.6-2.2,1.4c-0.1,0-0.3-0.1-0.4-0.1l-5.6-2.7L2,18l5.1,0.1
	l2.4-2.8l0.8-5.6l1.6-4.2L9.7,6.7L8.4,9.3C8,10.1,7.3,9.7,7.3,9.7c-0.6-0.4-0.4-1-0.4-1L8.2,6c0.4-0.7,0.6-0.8,0.6-0.8L12,3.5
	c0.7-0.5,1.5-0.1,1.5-0.1L15.3,4c0.9,0.3,0.9,0.8,0.9,0.8l1.1,3.6l2.4,0.9C19.8,9.3,20.4,9.6,20.2,10.3z M17.4,21.2c0,0,0.1,0,0.1,0
	c0.6,0,1-0.5,1-1c0-0.6-0.5-1-1-1v0.2c0,0.5-0.4,1-1,1c-0.5,0-0.9-0.3-0.9-0.8l-2.8,0.6L17.4,21.2z M7.8,20.9c0,0,0.1,0,0.1,0
	c0.6,0.1,1.1-0.2,1.2-0.8c0.1-0.4-0.1-0.8-0.4-1.1l-0.4,0.5C8,20,7.4,20.1,7,19.7c-0.2-0.2-0.3-0.5-0.3-0.8l-3.1-0.1L7.8,20.9z"/>
</svg>
