<?xml version="1.0" encoding="utf-8"?>
<!-- Generator: Adobe Illustrator 22.0.1, SVG Export Plug-In . SVG Version: 6.00 Build 0)  -->
<svg version="1.1" id="Layer_1" xmlns="http://www.w3.org/2000/svg" xmlns:xlink="http://www.w3.org/1999/xlink" x="0px" y="0px"
	 width="30px" height="30px" viewBox="0 0 30 30" enable-background="new 0 0 30 30" xml:space="preserve">
<path d="M21.1,4.8c1.3,0,2.4-1.1,2.4-2.4S22.4,0,21.1,0c-1.3,0-2.4,1.1-2.4,2.4S19.7,4.8,21.1,4.8z"/>
<path d="M27.5,14.1c-0.4,1-1.3,0.7-1.3,0.7l-3.8-1.4c-0.4-0.1-0.7-0.4-0.8-0.8L20.8,10l-1.3,3.7l4,4.1c0.5,0.9,0.4,1.5,0.4,1.5v5.7
	l0,0c1.4,0,2.5,1.1,2.5,2.5c0,1.4-1.1,2.5-2.5,2.5c-0.2,0-0.4,0-0.6-0.1L15,28.1v-1.2l6.2-1.4v-5.2L17,16.1l-0.6,4.4
	c-0.1,0.6-0.5,1.1-0.7,1.3l-2.9,3.4c0,0-0.1,0-0.2,0l0.2,0c0.8,0.6,1.1,1.6,0.9,2.6c-0.3,1.4-1.7,2.2-3,1.9
	c-0.2-0.1-0.4-0.1-0.6-0.2l-7.7-3.7l0.3-1.2l7,0.1l3.3-3.9l1-7.6l2.2-5.7l-3,1.7l-1.8,3.5c-0.5,1.1-1.5,0.5-1.5,0.5
	c-0.9-0.5-0.5-1.4-0.5-1.4l1.8-3.7c0.5-0.9,0.9-1.1,0.9-1.1l4.3-2.3c0.9-0.6,2-0.1,2-0.1l2.5,0.9c1.2,0.4,1.3,1.1,1.3,1.1l1.5,4.9
	l3.3,1.2C27,12.7,27.9,13.1,27.5,14.1z M23.7,28.9c0.1,0,0.1,0,0.2,0c0.8,0,1.4-0.6,1.4-1.4c0-0.8-0.6-1.4-1.4-1.4v0.3
	c0,0.7-0.6,1.3-1.3,1.3c-0.6,0-1.2-0.5-1.3-1.1l-3.9,0.9L23.7,28.9z M10.7,28.5c0.1,0,0.1,0,0.2,0.1c0.8,0.2,1.5-0.3,1.7-1
	c0.1-0.6-0.1-1.1-0.5-1.5l-0.6,0.7c-0.5,0.6-1.3,0.6-1.9,0.1c-0.3-0.3-0.5-0.7-0.4-1.1l-4.2-0.1L10.7,28.5z"/>
</svg>
