<?xml version="1.0" encoding="utf-8"?>
<!-- Generator: Adobe Illustrator 22.1.0, SVG Export Plug-In . SVG Version: 6.00 Build 0)  -->
<svg version="1.1" id="Layer_1" xmlns="http://www.w3.org/2000/svg" xmlns:xlink="http://www.w3.org/1999/xlink" x="0px" y="0px"
	 width="30px" height="30px" viewBox="0 0 30 30" enable-background="new 0 0 30 30" xml:space="preserve">
<path d="M23.7,6.1c1.4,0,2.5-1.1,2.5-2.5c0-1.4-1.1-2.5-2.5-2.5c-1.4,0-2.5,1.1-2.5,2.5C21.2,5,22.3,6.1,23.7,6.1z"/>
<path d="M17.6,12.7l5.2-2.6l4.9,4.5c0.2,0.2,0.5,0.3,0.8,0.3c0.7,0,1.2-0.5,1.2-1.2c0-0.3-0.2-0.7-0.4-0.9l-6.9-6.4
	c-0.2-0.2-0.5-0.4-0.8-0.5l-5.4-1.9l-2.5-3.6c-0.2-0.3-0.5-0.4-0.8-0.5c-0.6-0.1-1.2,0.4-1.3,1c0,0.3,0,0.5,0.2,0.8l2.5,3.6
	c0.1,0.2,0.3,0.3,0.4,0.3l2.9,1.1l-4.8,2.4c-0.7,0.4-1.1,1-1.3,1.8l0,4.4l-4.4,2c-0.5,0.2-0.9,0.7-0.9,1.3c0,0.8,0.6,1.6,1.5,1.6
	c0.3,0,0.5-0.1,0.7-0.2l5.4-2.4c0.4-0.2,0.7-0.6,0.8-1l0-2.7l3.8,3.4l-0.7,5.7c0,0,0,0.1,0,0.1c0,0.8,0.6,1.6,1.5,1.6
	c0.8,0,1.5-0.5,1.6-1.3l0.8-6.5c0,0,0-0.1,0-0.1c0-0.5-0.2-0.9-0.5-1.2L17.6,12.7z"/>
<g>
	<path d="M1.3,17c-0.8,0.3-1.2,1.2-1,2c0.5,1.3,1.5,2.4,2.8,2.9l20.7,7.9c1.3,0.5,2.8,0.4,4-0.3c0.7-0.4,1-1.4,0.6-2.1
		c-0.4-0.7-1.4-1-2.1-0.6c-0.4,0.2-0.9,0.3-1.4,0.1L4.2,18.9c-0.4-0.2-0.8-0.5-0.9-1C3,17.1,2.1,16.7,1.3,17z"/>
</g>
</svg>
