<?xml version="1.0" encoding="utf-8"?>
<!-- Generator: Adobe Illustrator 20.0.0, SVG Export Plug-In . SVG Version: 6.00 Build 0)  -->
<svg version="1.1" id="Icons" xmlns="http://www.w3.org/2000/svg" xmlns:xlink="http://www.w3.org/1999/xlink" x="0px" y="0px"
	 width="30px" height="30px" viewBox="0 0 30 30" enable-background="new 0 0 30 30" xml:space="preserve">
<g>
	<polygon fill="#FFFFFF" points="1,25 0,27 11,27 12,25 	"/>
	<polygon fill="#FFFFFF" points="15,25 14,27 27,27 30,24 30,22 27,25 	"/>
	<polygon fill="#FFFFFF" points="4,18 2,22 3,23 23,23 24,22 28,19 28,18 26,15 22,15 20,11 18,11 20,15 16,17 5,17 	"/>
	<polygon fill="#FFFFFF" points="9,17 9,10 10,8 13,8 14,10 14,12 17,12 18,13 17,14 14,14 14,16 15,16 16,17 	"/>
	<circle fill="#FFFFFF" cx="12.5" cy="4.5" r="2.5"/>
</g>
</svg>
