<?xml version="1.0" encoding="utf-8"?>
<!-- Generator: Adobe Illustrator 20.0.0, SVG Export Plug-In . SVG Version: 6.00 Build 0)  -->
<svg version="1.1" id="Icons" xmlns="http://www.w3.org/2000/svg" xmlns:xlink="http://www.w3.org/1999/xlink" x="0px" y="0px"
	 width="14px" height="14px" viewBox="0 0 14 14" enable-background="new 0 0 14 14" xml:space="preserve">
<g>
	<rect fill="#FFFFFF" y="12" width="5" height="1"/>
	<polygon fill="#FFFFFF" points="13,11 13,12 7,12 7,13 13,13 14,12 14,11 	"/>
	<polygon fill="#FFFFFF" points="12,10 13,10 13,8 12,8 12,7 10,7 10,6 9.5,6 9,5 8,5 8,6 8.5,6 9,7 9,8 8,8 7,8 6,7 8,7 8,6 6,6 6,4 5.5,4 5,4 
		4,4 4,8 2,8 1,11 11,11 	"/>
	<rect fill="#FFFFFF" x="4" y="1" width="2" height="2"/>
</g>
</svg>
