<?xml version="1.0" encoding="utf-8"?>
<!-- Generator: Adobe Illustrator 22.1.0, SVG Export Plug-In . SVG Version: 6.00 Build 0)  -->
<svg version="1.1" id="Layer_1" xmlns="http://www.w3.org/2000/svg" xmlns:xlink="http://www.w3.org/1999/xlink" x="0px" y="0px"
	 width="22px" height="22px" viewBox="0 0 22 22" enable-background="new 0 0 22 22" xml:space="preserve">
<path d="M17.4,4.5c1,0,1.8-0.8,1.8-1.8c0-1-0.8-1.8-1.8-1.8c-1,0-1.8,0.8-1.8,1.8C15.6,3.7,16.4,4.5,17.4,4.5z"/>
<path d="M12.9,9.3l3.8-1.9l3.6,3.3c0.2,0.2,0.4,0.3,0.6,0.3c0.5,0,0.9-0.4,0.9-0.9c0-0.3-0.1-0.5-0.3-0.6l-5.1-4.7
	c-0.2-0.2-0.4-0.3-0.6-0.4l-4-1.4l-1.8-2.6C9.9,0.2,9.7,0,9.5,0C9,0,8.6,0.3,8.5,0.8c0,0.2,0,0.4,0.1,0.6L10.5,4
	c0.1,0.1,0.2,0.2,0.3,0.3l2.1,0.8L9.4,6.9C8.9,7.2,8.6,7.6,8.5,8.2l0,3.2l-3.2,1.5c-0.4,0.2-0.6,0.5-0.6,1c0,0.6,0.5,1.1,1.1,1.2
	c0.2,0,0.4,0,0.5-0.1l4-1.8c0.3-0.2,0.5-0.4,0.6-0.8l0-2l2.8,2.5L13,17c0,0,0,0,0,0.1c0,0.6,0.5,1.1,1.1,1.2c0.6,0,1.1-0.4,1.2-1
	l0.6-4.8c0,0,0,0,0-0.1c0-0.3-0.1-0.6-0.3-0.9L12.9,9.3z"/>
<g>
	<path d="M1,12.4c-0.6,0.2-0.9,0.8-0.7,1.4c0.3,1,1.1,1.8,2,2.1l15.2,5.8c1,0.4,2,0.3,2.9-0.2c0.5-0.3,0.7-1,0.4-1.5
		c-0.3-0.5-1-0.7-1.5-0.4c-0.3,0.2-0.7,0.2-1,0.1L3.1,13.9c-0.3-0.1-0.6-0.4-0.7-0.7C2.2,12.6,1.5,12.2,1,12.4z"/>
</g>
</svg>
