<?xml version="1.0" encoding="utf-8"?>
<!-- Generator: Adobe Illustrator 22.1.0, SVG Export Plug-In . SVG Version: 6.00 Build 0)  -->
<svg version="1.1" id="Layer_1" xmlns="http://www.w3.org/2000/svg" xmlns:xlink="http://www.w3.org/1999/xlink" x="0px" y="0px"
	 width="14px" height="14px" viewBox="0 0 14 14" enable-background="new 0 0 14 14" xml:space="preserve">
<path fill="#FFFFFF" d="M11.1,2.8c0.6,0,1.2-0.5,1.2-1.2c0-0.6-0.5-1.2-1.2-1.2c-0.6,0-1.2,0.5-1.2,1.2C9.9,2.3,10.4,2.8,11.1,2.8z"/>
<path fill="#FFFFFF" d="M8.2,5.9l2.4-1.2L13,6.8C13.1,6.9,13.2,7,13.3,7c0.3,0,0.5-0.3,0.5-0.6c0-0.2-0.1-0.3-0.2-0.4l-3.2-3
	c-0.1-0.1-0.2-0.2-0.4-0.3L7.6,1.9L6.4,0.2C6.3,0.1,6.2,0,6,0C5.7,0,5.5,0.2,5.4,0.5c0,0.1,0,0.3,0.1,0.4l1.2,1.7
	c0.1,0.1,0.1,0.1,0.2,0.2l1.4,0.5L6,4.4C5.7,4.6,5.5,4.9,5.4,5.2l0,2L3.4,8.2C3.1,8.3,3,8.5,2.9,8.8c0,0.4,0.3,0.7,0.7,0.7
	c0.1,0,0.2,0,0.3-0.1l2.5-1.1c0.2-0.1,0.3-0.3,0.4-0.5l0-1.3l1.8,1.6l-0.3,2.7c0,0,0,0,0,0c0,0.4,0.3,0.7,0.7,0.7
	c0.4,0,0.7-0.3,0.7-0.6L10.1,8c0,0,0,0,0,0c0-0.2-0.1-0.4-0.2-0.5L8.2,5.9z"/>
<g>
	<path fill="#FFFFFF" d="M0.6,7.9C0.2,8,0,8.4,0.2,8.8c0.2,0.6,0.7,1.1,1.3,1.4l9.7,3.7c0.6,0.2,1.3,0.2,1.9-0.1c0.3-0.2,0.5-0.6,0.3-1
		c-0.2-0.3-0.6-0.5-1-0.3c-0.2,0.1-0.4,0.1-0.6,0L2,8.8C1.8,8.8,1.6,8.6,1.5,8.4C1.4,8,1,7.8,0.6,7.9z"/>
</g>
</svg>
