<?xml version="1.0" encoding="utf-8"?>
<!-- Generator: Adobe Illustrator 22.0.1, SVG Export Plug-In . SVG Version: 6.00 Build 0)  -->
<svg version="1.1" id="Layer_1" xmlns="http://www.w3.org/2000/svg" xmlns:xlink="http://www.w3.org/1999/xlink" x="0px" y="0px"
	 width="14px" height="14px" viewBox="0 0 14 14" enable-background="new 0 0 14 14" xml:space="preserve">
<path d="M9.8,2.3c0.6,0,1.1-0.5,1.1-1.1S10.5,0,9.8,0C9.2,0,8.7,0.5,8.7,1.1S9.2,2.3,9.8,2.3z"/>
<path d="M12.9,6.6c-0.2,0.5-0.6,0.3-0.6,0.3l-1.8-0.7c-0.2-0.1-0.3-0.2-0.4-0.4L9.7,4.7L9.1,6.4l1.8,1.9C11.2,8.7,11.1,9,11.1,9v2.6
	l0,0c0.7,0,1.2,0.5,1.2,1.2c0,0.7-0.5,1.2-1.2,1.2c-0.1,0-0.2,0-0.3,0L7,13.1v-0.6l2.9-0.6V9.5l-2-2l-0.3,2c0,0.3-0.2,0.5-0.3,0.6
	l-1.4,1.6c0,0,0,0-0.1,0l0.1,0C6.3,12,6.5,12.5,6.4,13c-0.1,0.6-0.8,1-1.4,0.9c-0.1,0-0.2-0.1-0.3-0.1L1.1,12l0.1-0.6l3.3,0l1.6-1.8
	l0.5-3.5l1-2.7L6.2,4.3L5.3,5.9C5.1,6.4,4.6,6.2,4.6,6.2C4.2,5.9,4.4,5.5,4.4,5.5l0.9-1.7c0.2-0.4,0.4-0.5,0.4-0.5l2-1.1
	c0.4-0.3,0.9-0.1,0.9-0.1l1.2,0.4c0.6,0.2,0.6,0.5,0.6,0.5l0.7,2.3l1.5,0.5C12.6,5.9,13,6.1,12.9,6.6z"/>
</svg>
