<?xml version="1.0" encoding="utf-8"?>
<!-- Generator: Adobe Illustrator 18.1.1, SVG Export Plug-In . SVG Version: 6.00 Build 0)  -->
<svg version="1.1" id="Icons" xmlns="http://www.w3.org/2000/svg" xmlns:xlink="http://www.w3.org/1999/xlink" x="0px" y="0px"
	 viewBox="0 0 32 32" enable-background="new 0 0 32 32" xml:space="preserve">
<g opacity="0.1">
	<polygon points="3,27 2,29 13,29 14,27 	"/>
	<polygon points="17,27 16,29 29,29 32,26 32,24 29,27 	"/>
	<polygon points="6,20 4,24 5,25 25,25 26,24 30,21 30,20 28,17 24,17 22,13 20,13 22,17 18,19 7,19 	"/>
	<polygon points="11,19 11,12 12,10 15,10 16,12 16,14 19,14 20,15 19,16 16,16 16,18 17,18 18,19 	"/>
	<circle cx="14.5" cy="6.5" r="2.5"/>
</g>
<g opacity="0.2">
	<polygon points="2,26 1,28 12,28 13,26 	"/>
	<polygon points="16,26 15,28 28,28 31,25 31,23 28,26 	"/>
	<polygon points="5,19 3,23 4,24 24,24 25,23 29,20 29,19 27,16 23,16 21,12 19,12 21,16 17,18 6,18 	"/>
	<polygon points="10,18 10,11 11,9 14,9 15,11 15,13 18,13 19,14 18,15 15,15 15,17 16,17 17,18 	"/>
	<circle cx="13.5" cy="5.5" r="2.5"/>
</g>
<g>
	<polygon points="1,25 0,27 11,27 12,25 	"/>
	<polygon points="15,25 14,27 27,27 30,24 30,22 27,25 	"/>
	<polygon points="4,18 2,22 3,23 23,23 24,22 28,19 28,18 26,15 22,15 20,11 18,11 20,15 16,17 5,17 	"/>
	<polygon points="9,17 9,10 10,8 13,8 14,10 14,12 17,12 18,13 17,14 14,14 14,16 15,16 16,17 	"/>
	<circle cx="12.5" cy="4.5" r="2.5"/>
</g>
</svg>
