<?xml version="1.0" encoding="utf-8"?>
<!-- Generator: Adobe Illustrator 20.0.0, SVG Export Plug-In . SVG Version: 6.00 Build 0)  -->
<svg version="1.1" id="Icons" xmlns="http://www.w3.org/2000/svg" xmlns:xlink="http://www.w3.org/1999/xlink" x="0px" y="0px"
	 width="22px" height="22px" viewBox="0 0 22 22" enable-background="new 0 0 22 22" xml:space="preserve">
<g>
	<rect fill="#FFFFFF" y="19" width="8" height="1"/>
	<polygon fill="#FFFFFF" points="20,19 10,19 10,20 20,20 22,18 22,17 	"/>
	<polygon fill="#FFFFFF" points="16,18 21,14 19,11 15,11 14,8 13,8 14,11 14,12 13,13 12,13 10,12 10,11 12,11 13,10 12,9 10,9 10,7 9,7 8,7 8,6 
		7,6 7,7 6,7 6,13 4,13 3,14 1,17 2,18 	"/>
	<polygon fill="#FFFFFF" points="10,5 11,5 11,3 10,3 10,2 8,2 8,3 7,3 7,5 8,5 8,6 10,6 	"/>
</g>
</svg>
