<?xml version="1.0" encoding="UTF-8" standalone="no"?>
<svg width="24px" height="24px" viewBox="0 0 24 24" version="1.1" xmlns="http://www.w3.org/2000/svg" xmlns:xlink="http://www.w3.org/1999/xlink" xmlns:sketch="http://www.bohemiancoding.com/sketch/ns">
    <!-- Generator: Sketch 3.3.3 (12072) - http://www.bohemiancoding.com/sketch -->
    <title>souvenir-white-24</title>
    <desc>Created with Sketch.</desc>
    <defs></defs>
    <g id="souvenir-shop" stroke="none" stroke-width="1" fill="none" fill-rule="evenodd" sketch:type="MSPage">
        <g id="souvenir-white-24" sketch:type="MSArtboardGroup">
            <path d="M10.9037088,7 L8.00684547,7 C7.44994876,7 7,7.44769743 7,7.9999602 L7,23.0000398 C7,23.5452911 7.45078007,24 8.00684547,24 L19.9931545,24 C20.5500512,24 21,23.5523026 21,23.0000398 L21,7.9999602 C21,7.45470893 20.5492199,7 19.9931545,7 L17.0962912,7 L17.0962912,7 L19.6856953,5.96423835 C19.9420871,5.86168164 20.066795,5.57069642 19.9642383,5.31430466 C19.8616816,5.0579129 19.5706964,4.93320495 19.3143047,5.03576165 L16.5760388,6.13106801 L18.8535534,3.85355339 C19.0488155,3.65829124 19.0488155,3.34170876 18.8535534,3.14644661 C18.6582912,2.95118446 18.3417088,2.95118446 18.1464466,3.14644661 L15,6.29289322 L15,2.99874609 C15,2.43861485 14.5522847,2 14,2 C13.4438648,2 13,2.44715386 13,2.99874609 L13,6.29289322 L9.85355339,3.14644661 C9.65829124,2.95118446 9.34170876,2.95118446 9.14644661,3.14644661 C8.95118446,3.34170876 8.95118446,3.65829124 9.14644661,3.85355339 L11.4239612,6.13106801 L8.68569534,5.03576165 C8.42930358,4.93320495 8.13831836,5.0579129 8.03576165,5.31430466 C7.93320495,5.57069642 8.0579129,5.86168164 8.31430466,5.96423835 L10.9037088,7 Z M13,15 L13,22 L9,22 L9,9 L13,9 L13,9 L13,13 L9,13 L9,15 L13,15 Z M15,15 L15,22 L19,22 L19,9 L15,9 L15,9 L15,13 L19,13 L19,15 L15,15 L15,15 Z" id="symbol" fill-opacity="0.5" fill="#000000" sketch:type="MSShapeGroup"></path>
            <path d="M9.9037088,6 L7.00684547,6 C6.44994876,6 6,6.44769743 6,6.9999602 L6,22.0000398 C6,22.5452911 6.45078007,23 7.00684547,23 L18.9931545,23 C19.5500512,23 20,22.5523026 20,22.0000398 L20,6.9999602 C20,6.45470893 19.5492199,6 18.9931545,6 L16.0962912,6 L16.0962912,6 L18.6856953,4.96423835 C18.9420871,4.86168164 19.066795,4.57069642 18.9642383,4.31430466 C18.8616816,4.0579129 18.5706964,3.93320495 18.3143047,4.03576165 L15.5760388,5.13106801 L17.8535534,2.85355339 C18.0488155,2.65829124 18.0488155,2.34170876 17.8535534,2.14644661 C17.6582912,1.95118446 17.3417088,1.95118446 17.1464466,2.14644661 L14,5.29289322 L14,1.99874609 C14,1.43861485 13.5522847,1 13,1 C12.4438648,1 12,1.44715386 12,1.99874609 L12,5.29289322 L8.85355339,2.14644661 C8.65829124,1.95118446 8.34170876,1.95118446 8.14644661,2.14644661 C7.95118446,2.34170876 7.95118446,2.65829124 8.14644661,2.85355339 L10.4239612,5.13106801 L7.68569534,4.03576165 C7.42930358,3.93320495 7.13831836,4.0579129 7.03576165,4.31430466 C6.93320495,4.57069642 7.0579129,4.86168164 7.31430466,4.96423835 L9.9037088,6 Z M12,14 L12,21 L8,21 L8,8 L12,8 L12,8 L12,12 L8,12 L8,14 L12,14 Z M14,14 L14,21 L18,21 L18,8 L14,8 L14,8 L14,12 L18,12 L18,14 L14,14 L14,14 Z" id="symbol-copy" fill-opacity="0.75" fill="#000000" sketch:type="MSShapeGroup"></path>
            <path d="M8.9037088,5 L6.00684547,5 C5.44994876,5 5,5.44769743 5,5.9999602 L5,21.0000398 C5,21.5452911 5.45078007,22 6.00684547,22 L17.9931545,22 C18.5500512,22 19,21.5523026 19,21.0000398 L19,5.9999602 C19,5.45470893 18.5492199,5 17.9931545,5 L15.0962912,5 L15.0962912,5 L17.6856953,3.96423835 C17.9420871,3.86168164 18.066795,3.57069642 17.9642383,3.31430466 C17.8616816,3.0579129 17.5706964,2.93320495 17.3143047,3.03576165 L14.5760388,4.13106801 L16.8535534,1.85355339 C17.0488155,1.65829124 17.0488155,1.34170876 16.8535534,1.14644661 C16.6582912,0.951184464 16.3417088,0.951184464 16.1464466,1.14644661 L13,4.29289322 L13,0.998746091 C13,0.438614845 12.5522847,0 12,0 C11.4438648,0 11,0.447153856 11,0.998746091 L11,4.29289322 L7.85355339,1.14644661 C7.65829124,0.951184464 7.34170876,0.951184464 7.14644661,1.14644661 C6.95118446,1.34170876 6.95118446,1.65829124 7.14644661,1.85355339 L9.42396123,4.13106801 L6.68569534,3.03576165 C6.42930358,2.93320495 6.13831836,3.0579129 6.03576165,3.31430466 C5.93320495,3.57069642 6.0579129,3.86168164 6.31430466,3.96423835 L8.9037088,5 Z M7,11 L7,7 L11,7 L11,7 L11,11 L7,11 L7,11 Z M7,13 L7,20 L11,20 L11,13 L7,13 L7,13 Z M17,11 L17,7 L13,7 L13,7 L13,11 L17,11 L17,11 Z M17,13 L17,20 L13,20 L13,13 L17,13 L17,13 Z" id="symbol-copy-2" fill="#FFFFFF" sketch:type="MSShapeGroup"></path>
        </g>
    </g>
</svg>