<?xml version="1.0" encoding="UTF-8" standalone="no"?>
<svg width="32px" height="32px" viewBox="0 0 32 32" version="1.1" xmlns="http://www.w3.org/2000/svg" xmlns:xlink="http://www.w3.org/1999/xlink" xmlns:sketch="http://www.bohemiancoding.com/sketch/ns">
    <!-- Generator: Sketch 3.3.3 (12072) - http://www.bohemiancoding.com/sketch -->
    <title>souvenir-black-32</title>
    <desc>Created with Sketch.</desc>
    <defs></defs>
    <g id="souvenir-shop" stroke="none" stroke-width="1" fill="none" fill-rule="evenodd" sketch:type="MSPage">
        <g id="souvenir-black-32" sketch:type="MSArtboardGroup" fill="#000000">
            <path d="M17,7.93933983 L17,2.99824564 C17,2.4469298 17.4438648,2 18,2 C18.5522847,2 19,2.45552075 19,2.99824564 L19,7.93933983 L19,7.93933983 L22.9696699,3.96966991 C23.2625631,3.6767767 23.7374369,3.6767767 24.0303301,3.96966991 C24.3232233,4.26256313 24.3232233,4.73743687 24.0303301,5.03033009 L21.2768444,7.78381579 L24.2628292,6.78848753 C24.6557867,6.6575017 25.0805266,6.86987169 25.2115125,7.26282918 C25.3424983,7.65578666 25.1301283,8.08052664 24.7371708,8.21151247 L22.3717082,9 L22.3717082,9 L26.0066023,9 C26.5552407,9 27,9.43891776 27,10.0030706 L27,30.9969294 C27,31.55091 26.5550537,32 26.0066023,32 L9.99339768,32 C9.44475929,32 9,31.5610822 9,30.9969294 L9,10.0030706 C9,9.44908998 9.44494629,9 9.99339768,9 L13.6282918,9 L11.2628292,8.21151247 C10.8698717,8.08052664 10.6575017,7.65578666 10.7884875,7.26282918 C10.9194734,6.86987169 11.3442133,6.6575017 11.7371708,6.78848753 L14.7231556,7.78381579 L11.9696699,5.03033009 C11.6767767,4.73743687 11.6767767,4.26256313 11.9696699,3.96966991 C12.2625631,3.6767767 12.7374369,3.6767767 13.0303301,3.96966991 L17,7.93933983 Z M17,20 L17,30 L11,30 L11,11 L17,11 L17,11 L17,18 L11,18 L11,20 L17,20 Z M19,20 L19,30 L25,30 L25,11 L19,11 L19,18 L25,18 L25,20 L19,20 Z" id="symbol" opacity="0.1" sketch:type="MSShapeGroup"></path>
            <path d="M16,6.93933983 L16,1.99824564 C16,1.4469298 16.4438648,1 17,1 C17.5522847,1 18,1.45552075 18,1.99824564 L18,6.93933983 L18,6.93933983 L21.9696699,2.96966991 C22.2625631,2.6767767 22.7374369,2.6767767 23.0303301,2.96966991 C23.3232233,3.26256313 23.3232233,3.73743687 23.0303301,4.03033009 L20.2768444,6.78381579 L23.2628292,5.78848753 C23.6557867,5.6575017 24.0805266,5.86987169 24.2115125,6.26282918 C24.3424983,6.65578666 24.1301283,7.08052664 23.7371708,7.21151247 L21.3717082,8 L21.3717082,8 L25.0066023,8 C25.5552407,8 26,8.43891776 26,9.00307055 L26,29.9969294 C26,30.55091 25.5550537,31 25.0066023,31 L8.99339768,31 C8.44475929,31 8,30.5610822 8,29.9969294 L8,9.00307055 C8,8.44908998 8.44494629,8 8.99339768,8 L12.6282918,8 L10.2628292,7.21151247 C9.86987169,7.08052664 9.6575017,6.65578666 9.78848753,6.26282918 C9.91947336,5.86987169 10.3442133,5.6575017 10.7371708,5.78848753 L13.7231556,6.78381579 L10.9696699,4.03033009 C10.6767767,3.73743687 10.6767767,3.26256313 10.9696699,2.96966991 C11.2625631,2.6767767 11.7374369,2.6767767 12.0303301,2.96966991 L16,6.93933983 Z M16,19 L16,29 L10,29 L10,10 L16,10 L16,10 L16,17 L10,17 L10,19 L16,19 Z M18,19 L18,29 L24,29 L24,10 L18,10 L18,17 L24,17 L24,19 L18,19 Z" id="symbol" opacity="0.2" sketch:type="MSShapeGroup"></path>
            <path d="M15,5.93933983 L15,0.998245642 C15,0.446929797 15.4438648,0 16,0 C16.5522847,0 17,0.455520749 17,0.998245642 L17,5.93933983 L17,5.93933983 L20.9696699,1.96966991 C21.2625631,1.6767767 21.7374369,1.6767767 22.0303301,1.96966991 C22.3232233,2.26256313 22.3232233,2.73743687 22.0303301,3.03033009 L19.2768444,5.78381579 L22.2628292,4.78848753 C22.6557867,4.6575017 23.0805266,4.86987169 23.2115125,5.26282918 C23.3424983,5.65578666 23.1301283,6.08052664 22.7371708,6.21151247 L20.3717082,7 L20.3717082,7 L24.0066023,7 C24.5552407,7 25,7.43891776 25,8.00307055 L25,28.9969294 C25,29.55091 24.5550537,30 24.0066023,30 L7.99339768,30 C7.44475929,30 7,29.5610822 7,28.9969294 L7,8.00307055 C7,7.44908998 7.44494629,7 7.99339768,7 L11.6282918,7 L9.26282918,6.21151247 C8.86987169,6.08052664 8.6575017,5.65578666 8.78848753,5.26282918 C8.91947336,4.86987169 9.34421334,4.6575017 9.73717082,4.78848753 L12.7231556,5.78381579 L9.96966991,3.03033009 C9.6767767,2.73743687 9.6767767,2.26256313 9.96966991,1.96966991 C10.2625631,1.6767767 10.7374369,1.6767767 11.0303301,1.96966991 L15,5.93933983 Z M15,18 L15,28 L9,28 L9,9 L15,9 L15,9 L15,16 L9,16 L9,18 L15,18 Z M17,18 L17,28 L23,28 L23,9 L17,9 L17,16 L23,16 L23,18 L17,18 Z" id="symbol" sketch:type="MSShapeGroup"></path>
        </g>
    </g>
</svg>