<?xml version="1.0" encoding="utf-8"?>
<!-- Generator: Adobe Illustrator 20.0.0, SVG Export Plug-In . SVG Version: 6.00 Build 0)  -->
<svg version="1.1" id="Layer_1" xmlns:sketch="http://www.bohemiancoding.com/sketch/ns"
	 xmlns="http://www.w3.org/2000/svg" xmlns:xlink="http://www.w3.org/1999/xlink" x="0px" y="0px" width="30px" height="30px"
	 viewBox="0 0 30 30" enable-background="new 0 0 30 30" xml:space="preserve">
<path fill="#FFFFFF" d="M23,7h-3.6l2.4-0.8c0.4-0.1,0.6-0.6,0.5-0.9c-0.1-0.4-0.6-0.6-0.9-0.5l-3,1L21,3c0.3-0.3,0.3-0.8,0-1.1S20.3,1.7,20,2l-4,4
	V1c0-0.5-0.4-1-1-1c-0.6,0-1,0.4-1,1v4.9l-4-4C9.7,1.7,9.3,1.7,9,2S8.7,2.7,9,3l2.8,2.8l-3-1C8.3,4.7,7.9,4.9,7.8,5.3
	s0.1,0.8,0.5,0.9L10.6,7H7C6.4,7,6,7.4,6,8v21c0,0.6,0.4,1,1,1h16c0.5,0,1-0.4,1-1V8C24,7.4,23.6,7,23,7z M14,28H8V18h6V28z M14,16
	H8V9h6V16z M22,28h-6V18h6V28z M22,16h-6V9h6V16z"/>
</svg>
