<?xml version="1.0" encoding="utf-8"?>
<!-- Generator: Adobe Illustrator 24.2.0, SVG Export Plug-In . SVG Version: 6.00 Build 0)  -->
<svg version="1.1" id="Layer_1" xmlns="http://www.w3.org/2000/svg" xmlns:xlink="http://www.w3.org/1999/xlink" x="0px" y="0px"
	 width="22px" height="22px" viewBox="0 0 22 22" enable-background="new 0 0 22 22" xml:space="preserve">
<path fill="#FFFFFF" d="M12,8.1V11h-2V8.1l-3.5,2v9.3L11,22l4.5-2.6v-9.3L12,8.1z M6.1,8H3V6h3.5C6.1,5.6,5.8,5.1,5.7,4.6
	C5.6,4,5.7,3.5,5.9,2.9L0,6.4v9.3l4.5,2.6V8.9L6.1,8z M10.9,3L10.9,3c0.2-0.2,0.4-0.4,0.6-0.6c0.7-0.5,1.4-0.8,2-0.9L11,0L8.4,1.5
	c0.7,0.1,1.4,0.4,2,0.9C10.6,2.6,10.8,2.8,10.9,3z M12.5,3.6c-0.2,0.2-0.4,0.5-0.5,0.9v1.3c0.7,0,1.5,0,2-0.4
	c0.3-0.3,1.3-1.2,0.6-2.1C13.9,2.5,12.7,3.4,12.5,3.6z M8.2,3L8.2,3C7.9,3,7.6,3.1,7.4,3.3c-0.2,0.3-0.3,0.6-0.2,1
	C7.3,4.6,7.6,5,8,5.4c0.5,0.4,1.3,0.4,2,0.4V4.5c-0.1-0.4-0.3-0.8-0.5-1C9.1,3.2,8.6,3,8.2,3z M22,6.4L16.1,3c0.5,1,0.3,2.1-0.6,3.1
	H19v2h-3.1L17.5,9v9.3l4.5-2.6V6.4z"/>
</svg>
