<?xml version="1.0" encoding="UTF-8" standalone="no"?>
<svg width="16px" height="16px" viewBox="0 0 16 16" version="1.1" xmlns="http://www.w3.org/2000/svg" xmlns:xlink="http://www.w3.org/1999/xlink" xmlns:sketch="http://www.bohemiancoding.com/sketch/ns">
    <!-- Generator: Sketch 3.3.3 (12072) - http://www.bohemiancoding.com/sketch -->
    <title>souvenir-white-16</title>
    <desc>Created with Sketch.</desc>
    <defs></defs>
    <g id="souvenir-shop" stroke="none" stroke-width="1" fill="none" fill-rule="evenodd" sketch:type="MSPage">
        <g id="souvenir-white-16" sketch:type="MSArtboardGroup">
            <path d="M8.29289322,5 L5.99754465,5 C5.4463114,5 5,5.44573523 5,5.9955775 L5,15.0044225 C5,15.555163 5.44661595,16 5.99754465,16 L13.0024554,16 C13.5536886,16 14,15.5542648 14,15.0044225 L14,5.9955775 C14,5.44483697 13.553384,5 13.0024554,5 L10.7071068,5 L10.7071068,5 L11.8535534,3.85355339 C12.0488155,3.65829124 12.0488155,3.34170876 11.8535534,3.14644661 C11.6582912,2.95118446 11.3417088,2.95118446 11.1464466,3.14644661 L10,4.29289322 L10,2.49826741 C10,2.21990657 9.77614237,2 9.5,2 C9.23193359,2 9,2.22308192 9,2.49826741 L9,4.29289322 L7.85355339,3.14644661 C7.65829124,2.95118446 7.34170876,2.95118446 7.14644661,3.14644661 C6.95118446,3.34170876 6.95118446,3.65829124 7.14644661,3.85355339 L8.29289322,5 Z M9,10 L9,15 L6,15 L6,6 L9,6 L9,6 L9,9 L6,9 L6,10 L9,10 Z M10,10 L10,15 L13,15 L13,6 L10,6 L10,9 L13,9 L13,10 L10,10 Z" id="symbol" fill-opacity="0.5" fill="#000000" sketch:type="MSShapeGroup"></path>
            <path d="M7.29289322,4 L4.99754465,4 C4.4463114,4 4,4.44573523 4,4.9955775 L4,14.0044225 C4,14.555163 4.44661595,15 4.99754465,15 L12.0024554,15 C12.5536886,15 13,14.5542648 13,14.0044225 L13,4.9955775 C13,4.44483697 12.553384,4 12.0024554,4 L9.70710678,4 L9.70710678,4 L10.8535534,2.85355339 C11.0488155,2.65829124 11.0488155,2.34170876 10.8535534,2.14644661 C10.6582912,1.95118446 10.3417088,1.95118446 10.1464466,2.14644661 L9,3.29289322 L9,1.49826741 C9,1.21990657 8.77614237,1 8.5,1 C8.23193359,1 8,1.22308192 8,1.49826741 L8,3.29289322 L6.85355339,2.14644661 C6.65829124,1.95118446 6.34170876,1.95118446 6.14644661,2.14644661 C5.95118446,2.34170876 5.95118446,2.65829124 6.14644661,2.85355339 L7.29289322,4 Z M8,9 L8,14 L5,14 L5,5 L8,5 L8,5 L8,8 L5,8 L5,9 L8,9 Z M9,9 L9,14 L12,14 L12,5 L9,5 L9,8 L12,8 L12,9 L9,9 Z" id="symbol-copy" fill-opacity="0.75" fill="#000000" sketch:type="MSShapeGroup"></path>
            <path d="M6.29289322,3 L3.99754465,3 C3.4463114,3 3,3.44573523 3,3.9955775 L3,13.0044225 C3,13.555163 3.44661595,14 3.99754465,14 L11.0024554,14 C11.5536886,14 12,13.5542648 12,13.0044225 L12,3.9955775 C12,3.44483697 11.553384,3 11.0024554,3 L8.70710678,3 L8.70710678,3 L9.85355339,1.85355339 C10.0488155,1.65829124 10.0488155,1.34170876 9.85355339,1.14644661 C9.65829124,0.951184464 9.34170876,0.951184464 9.14644661,1.14644661 L8,2.29289322 L8,0.498267412 C8,0.219906569 7.77614237,0 7.5,0 C7.23193359,0 7,0.223081919 7,0.498267412 L7,2.29289322 L5.85355339,1.14644661 C5.65829124,0.951184464 5.34170876,0.951184464 5.14644661,1.14644661 C4.95118446,1.34170876 4.95118446,1.65829124 5.14644661,1.85355339 L6.29289322,3 Z M7,8 L7,13 L4,13 L4,4 L7,4 L7,4 L7,7 L4,7 L4,8 L7,8 Z M8,8 L8,13 L11,13 L11,4 L8,4 L8,7 L11,7 L11,8 L8,8 Z" id="symbol-copy-2" fill="#FFFFFF" sketch:type="MSShapeGroup"></path>
        </g>
    </g>
</svg>