<?xml version="1.0" encoding="utf-8"?>
<!-- Generator: Adobe Illustrator 24.2.0, SVG Export Plug-In . SVG Version: 6.00 Build 0)  -->
<svg version="1.1" id="Layer_1" xmlns="http://www.w3.org/2000/svg" xmlns:xlink="http://www.w3.org/1999/xlink" x="0px" y="0px"
	 width="14px" height="14px" viewBox="0 0 14 14" enable-background="new 0 0 14 14" xml:space="preserve">
<path  d="M4.4,5H1.9V4h2.3C3.9,3.7,3.6,3.3,3.5,2.9C3.5,2.6,3.5,2.3,3.6,2L0,4V10l3,1.7V5.8L4.4,5z"/>
<path  d="M8.9,3.4c0.3-0.2,0.5-0.5,0.5-0.7c0-0.2,0-0.4-0.1-0.6C9.1,1.9,9,1.9,8.8,1.9C8.5,1.9,8.2,2,8,2.2
	C7.7,2.5,7.6,3.1,7.5,3.6C8,3.7,8.6,3.6,8.9,3.4z"/>
<path  d="M5,3.4C5.4,3.6,6,3.7,6.4,3.6c0-0.5-0.2-1.2-0.5-1.4C5.7,2,5.4,1.9,5.2,1.9c0,0,0,0-0.1,0
	C4.9,1.9,4.8,2,4.7,2.1C4.5,2.3,4.5,2.5,4.5,2.7C4.6,2.9,4.7,3.2,5,3.4z"/>
<path  d="M7,2c0.1-0.2,0.2-0.4,0.4-0.5C7.7,1.1,8.2,1,8.6,0.9L7,0L5.4,0.9C5.8,1,6.2,1.2,6.6,1.5C6.7,1.6,6.9,1.8,7,2
	z"/>
<path  d="M10.3,1.9c0.1,0.3,0.2,0.7,0.1,1C10.3,3.3,10,3.7,9.7,4h2.2v1H9.6L11,5.8v5.9l3-1.7V4L10.3,1.9z"/>
<polygon  points="7.6,5 7.5,4.9 7.5,7 6.5,7 6.5,4.9 6.4,5 4,6.4 4,12.3 7,14 10,12.3 10,6.4 "/>
</svg>
