<?xml version="1.0" encoding="utf-8"?>
<!-- Generator: Adobe Illustrator 20.0.0, SVG Export Plug-In . SVG Version: 6.00 Build 0)  -->
<svg version="1.1" id="Layer_1" xmlns:sketch="http://www.bohemiancoding.com/sketch/ns"
	 xmlns="http://www.w3.org/2000/svg" xmlns:xlink="http://www.w3.org/1999/xlink" x="0px" y="0px" width="14px" height="14px"
	 viewBox="0 0 14 14" enable-background="new 0 0 14 14" xml:space="preserve">
<path fill="#FFFFFF" d="M11,3H8.7l1.1-1.1c0.2-0.2,0.2-0.5,0-0.7C9.7,1,9.3,1,9.1,1.1L8,2.3V1c0-1-0.7-1-1-1C6.7,0,6,0,6,1l0,1.3L4.9,1.1
	C4.7,1,4.3,1,4.1,1.1C4,1.3,4,1.7,4.1,1.9L5.3,3H3C2.4,3,2,3.4,2,4v9c0,0.6,0.4,1,1,1h8c0.6,0,1-0.4,1-1V4C12,3.4,11.6,3,11,3z
	 M6,13H3V8h3V13z M6,7H3V4h3V7z M11,13H8V8h3V13z M11,7H8V4h3V7z"/>
</svg>
