<?xml version="1.0" encoding="utf-8"?>
<!-- Generator: Adobe Illustrator 20.0.0, SVG Export Plug-In . SVG Version: 6.00 Build 0)  -->
<svg version="1.1" id="Layer_1" xmlns:sketch="http://www.bohemiancoding.com/sketch/ns"
	 xmlns="http://www.w3.org/2000/svg" xmlns:xlink="http://www.w3.org/1999/xlink" x="0px" y="0px" width="22px" height="22px"
	 viewBox="0 0 22 22" enable-background="new 0 0 22 22" xml:space="preserve">
<path fill="#231F20" d="M17,5h-2.9l2.6-1c0.3-0.1,0.4-0.4,0.3-0.6c-0.1-0.3-0.4-0.4-0.6-0.3l-2.7,1.1l2.3-2.3c0.2-0.2,0.2-0.5,0-0.7
	c-0.2-0.2-0.5-0.2-0.7,0L12,4.3V1c0-0.6-0.4-1-1-1c-0.6,0-1,0.4-1,1v3.3L6.9,1.1C6.7,1,6.3,1,6.1,1.1C6,1.3,6,1.7,6.1,1.9l2.3,2.3
	L5.7,3C5.4,2.9,5.1,3.1,5,3.3C4.9,3.6,5.1,3.9,5.3,4l2.6,1H5C4.4,5,4,5.4,4,6v15c0,0.5,0.5,1,1,1h12c0.6,0,1-0.4,1-1V6
	C18,5.5,17.5,5,17,5z M10,20H6v-7h4V20z M10,11H6V7h4V11z M16,20h-4v-7h4V20z M16,11h-4V7h4V11z"/>
</svg>
