<?xml version="1.0" encoding="utf-8"?>
<!-- Generator: Adobe Illustrator 21.1.0, SVG Export Plug-In . SVG Version: 6.00 Build 0)  -->
<svg version="1.1" id="Layer_1" xmlns="http://www.w3.org/2000/svg" xmlns:xlink="http://www.w3.org/1999/xlink" x="0px" y="0px"
	 width="22px" height="22px" viewBox="0 0 22 22" enable-background="new 0 0 22 22" xml:space="preserve">
<path fill="#231F20" d="M17.3,11.9c-2.8-0.5-7.3-1.3-7.8-1.6c-0.6-0.3-1-0.8-0.6-1.2c2.3-2.2,4.4-3.3,5.4-4h-0.5c-2,0.1-2.5,0.4-3.4,0.6
	C5,6.9,2.7,8.9,2,9.3c-1.1,0.6-1.9,1.9-0.7,2.8c1.2,0.9,9.8,1.4,9.3,3.3C10.1,17.3,2.3,21.5,0,22h15.6c0,0,5-4.2,5.4-5.4
	C21.9,13.6,20.1,12.5,17.3,11.9z"/>
<g>
	<path fill="#231F20" d="M14.3,5.1h-1c0-1.3,0.9-2.4,2.5-3.1c1.7-0.7,4.2-0.7,5.5,0.6l-0.7,0.7c-0.9-0.9-2.8-1-4.4-0.4C15.6,3.2,14.3,3.8,14.3,5.1z
		"/>
</g>
<g>
	<path fill="#231F20" d="M14.3,5.1h-1c0-1.3-1.3-1.9-1.8-2.2C9.8,2.3,7.9,2.4,7,3.3L6.3,2.6c1.3-1.3,3.8-1.3,5.5-0.6C13.4,2.7,14.3,3.8,14.3,5.1z"
		/>
</g>
</svg>
