<?xml version="1.0" encoding="utf-8"?>
<!-- Generator: Adobe Illustrator 21.1.0, SVG Export Plug-In . SVG Version: 6.00 Build 0)  -->
<svg version="1.1" id="Layer_1" xmlns="http://www.w3.org/2000/svg" xmlns:xlink="http://www.w3.org/1999/xlink" x="0px" y="0px"
	 width="30px" height="30px" viewBox="0 0 30 30" enable-background="new 0 0 30 30" xml:space="preserve">
<path fill="#231F20" d="M23.3,16.2c-3.8-0.7-9.9-1.8-10.7-2.2c-0.7-0.4-1.5-1.1-0.9-1.7c3.1-3,5.8-4.6,7.8-5.4h-2c-2,0.2-12.2,3.6-15.2,5.7
	c-1.4,1-2.5,2.6-0.8,3.8C3.2,17.7,15,18.3,14.2,21c-0.8,2.6-11.3,8-14.5,9H21c0,0,6.8-5.8,7.3-7.4C29.6,18.6,27.1,17,23.3,16.2z"/>
<path fill="#231F20" d="M19.4,6.9h-2c0-2,1.2-3.7,3.2-4.9c2.4-1.4,5.5-1.5,7.5-0.2l-1,1.7c-1.4-0.9-3.7-0.8-5.5,0.3C20.2,4.5,19.4,5.7,19.4,6.9z"/>
<path fill="#231F20" d="M19.4,6.9h-2c0-1.2-0.8-2.4-2.2-3.2c-1.8-1-4.1-1.1-5.5-0.3l-1-1.7c2.1-1.2,5.1-1.1,7.5,0.2C18.2,3.1,19.4,4.9,19.4,6.9z"/>
</svg>
