<?xml version="1.0" encoding="utf-8"?>
<!-- Generator: Adobe Illustrator 18.1.1, SVG Export Plug-In . SVG Version: 6.00 Build 0)  -->
<svg version="1.1" id="Layer_1" xmlns="http://www.w3.org/2000/svg" xmlns:xlink="http://www.w3.org/1999/xlink" x="0px" y="0px"
	 viewBox="0 0 24 24" enable-background="new 0 0 24 24" xml:space="preserve">
<path opacity="0.1" d="M23,7.133V4.211C23,2.99,22.221,2,21,2s-2,0.979-2,2.2v2.933c-2,0.126-4.244,0.689-5.087,0.878
	c-5.367,1.208-9.235,2.885-9.927,3.267C2.858,11.9,2.072,13.17,3.313,14.101s9.843,1.357,9.3,3.297C12.07,19.337,4.327,23.457,2,24
	h15.629c0,0,5.01-4.212,5.37-5.361c0.931-2.969-0.931-4.111-3.723-4.654c-2.793-0.543-7.292-1.319-7.835-1.629
	c-0.543-0.31-0.947-0.826-0.521-1.237C13.17,8.943,22,7.773,23,7.133z"/>
<path opacity="0.2" d="M22,6.133V3.211C22,1.99,21.221,1,20,1s-2,0.979-2,2.2v2.933c-2,0.126-4.244,0.689-5.087,0.878
	C7.545,8.22,3.677,9.897,2.985,10.279C1.858,10.9,1.072,12.17,2.313,13.101s9.843,1.357,9.3,3.297C11.07,18.337,3.327,22.457,1,23
	h15.629c0,0,5.01-4.212,5.37-5.361c0.931-2.969-0.931-4.111-3.723-4.654c-2.793-0.543-7.292-1.319-7.835-1.629
	c-0.543-0.31-0.947-0.826-0.521-1.237C12.17,7.943,21,6.773,22,6.133z"/>
<path d="M21,5.133V2.211C21,0.99,20.221,0,19,0s-2,0.979-2,2.2v2.933c-2,0.126-4.244,0.689-5.087,0.878
	C6.545,7.22,2.677,8.897,1.985,9.279C0.858,9.9,0.072,11.17,1.313,12.101s9.843,1.357,9.3,3.297C10.07,17.337,2.327,21.457,0,22
	h15.629c0,0,5.01-4.212,5.37-5.361c0.931-2.969-0.931-4.111-3.723-4.654c-2.793-0.543-7.292-1.319-7.835-1.629
	C8.898,10.045,8.494,9.53,8.92,9.118C11.17,6.943,20,5.773,21,5.133z"/>
</svg>
