<?xml version="1.0" encoding="utf-8"?>
<!-- Generator: Adobe Illustrator 18.1.1, SVG Export Plug-In . SVG Version: 6.00 Build 0)  -->
<svg version="1.1" id="Layer_1" xmlns="http://www.w3.org/2000/svg" xmlns:xlink="http://www.w3.org/1999/xlink" x="0px" y="0px"
	 viewBox="0 0 32 32" enable-background="new 0 0 32 32" xml:space="preserve">
<path opacity="0.1" d="M31,9V5.015C31,3.35,29.665,2,28,2s-3,1.335-3,3v4c-2.145,0.171-5.696,0.939-6.847,1.198
	c-7.319,1.647-12.548,3.934-13.492,4.455c-1.537,0.847-2.586,2.58-0.894,3.849s13.434,1.851,12.693,4.496
	C15.721,25.642,5.173,31.26,2,32h21.312c0,0,6.831-5.744,7.323-7.31c1.269-4.048-1.269-5.606-5.077-6.347
	c-3.808-0.74-9.943-1.798-10.684-2.221c-0.74-0.423-1.109-1.126-0.529-1.687C17.413,11.467,28.726,9.873,31,9z"/>
<path opacity="0.2" d="M30,8V4.015C30,2.35,28.665,1,27,1s-3,1.335-3,3v4c-2.145,0.171-5.696,0.939-6.847,1.198
	c-7.319,1.647-12.548,3.934-13.492,4.455c-1.537,0.847-2.586,2.58-0.894,3.849s13.434,1.851,12.693,4.496
	C14.721,24.642,4.173,30.26,1,31h21.312c0,0,6.831-5.744,7.323-7.31c1.269-4.048-1.269-5.606-5.077-6.347
	c-3.808-0.74-9.943-1.798-10.684-2.221c-0.74-0.423-1.109-1.126-0.529-1.687C16.413,10.467,27.726,8.873,30,8z"/>
<path d="M29,7V3.015C29,1.35,27.665,0,26,0s-3,1.335-3,3v4c-2.145,0.171-5.696,0.939-6.847,1.198
	C8.834,9.845,3.605,12.132,2.662,12.653c-1.537,0.847-2.586,2.58-0.894,3.849s13.434,1.851,12.693,4.496
	C13.721,23.642,3.173,29.26,0,30h21.312c0,0,6.831-5.744,7.323-7.31c1.269-4.048-1.269-5.606-5.077-6.347
	c-3.808-0.74-9.943-1.798-10.684-2.221c-0.74-0.423-1.109-1.126-0.529-1.687C15.413,9.467,26.726,7.873,29,7z"/>
</svg>
