<?xml version="1.0" encoding="utf-8"?>
<!-- Generator: Adobe Illustrator 21.1.0, SVG Export Plug-In . SVG Version: 6.00 Build 0)  -->
<svg version="1.1" id="Layer_1" xmlns="http://www.w3.org/2000/svg" xmlns:xlink="http://www.w3.org/1999/xlink" x="0px" y="0px"
	 width="14px" height="14px" viewBox="0 0 14 14" enable-background="new 0 0 14 14" xml:space="preserve">
<path fill="#231F20" d="M8.5,4C8.5,4,1,6,1,7s6,2,6,3s-7,4-7,4h9c0,0,4-3,4-4S6,8,6,7s3.5-3,3.5-3H8.5z"/>
<path fill="#231F20" d="M9.5,4h-1c0-1.4,0.6-2.4,1.6-2.8c1.2-0.5,2.7-0.1,3.9,1.1L13.3,3c-0.9-0.9-2-1.2-2.8-0.9C9.9,2.4,9.5,3.1,9.5,4z"/>
<path fill="#231F20" d="M9.5,4h-1c0-1-0.4-1.7-1-1.9C6.7,1.8,5.6,2.1,4.7,3L4,2.3c1.2-1.2,2.7-1.6,3.9-1.1C8.9,1.6,9.5,2.7,9.5,4z"/>
</svg>
