<?xml version="1.0" encoding="utf-8"?>
<!-- Generator: Adobe Illustrator 20.0.0, SVG Export Plug-In . SVG Version: 6.00 Build 0)  -->
<svg version="1.1" id="Icons" xmlns="http://www.w3.org/2000/svg" xmlns:xlink="http://www.w3.org/1999/xlink" x="0px" y="0px"
	 width="14px" height="14px" viewBox="0 0 14 14" enable-background="new 0 0 14 14" xml:space="preserve">
<g>
	<polygon fill="#231F20" points="0,5 0,6 13,1 13,0 	"/>
	<polygon fill="#231F20" points="2,13 2,5 1,5 1,14 13,14 13,13 	"/>
	<polygon fill="#231F20" points="4,12 5,12 5,11 5,9 6,10 6,11 6,12 7,12 7,10 6,9 9,9 9,12 10,12 10,8 11,6 13,6 11,4 8,7 4,7 	"/>
</g>
</svg>
