<?xml version="1.0" encoding="utf-8"?>
<!-- Generator: Adobe Illustrator 20.0.0, SVG Export Plug-In . SVG Version: 6.00 Build 0)  -->
<svg version="1.1" id="Icons" xmlns="http://www.w3.org/2000/svg" xmlns:xlink="http://www.w3.org/1999/xlink" x="0px" y="0px"
	 width="30px" height="30px" viewBox="0 0 30 30" enable-background="new 0 0 30 30" xml:space="preserve">
<g>
	<polygon fill="#FFFFFF" points="6,10.5 6,12 6,27 29,27 29,30 3,30 3,11.5 	"/>
	<polygon fill="#FFFFFF" points="1,10 1,12.5 29,2.5 29,0 	"/>
	<polygon fill="#FFFFFF" points="24,10 24,8 22,10 18,14 9,14 8,16 8,19 9,19 9,16 10,15 10,19 9,20 9,24 10,25 11,24 11,20 12,20 15,25 16,25 
		14,19 19,19 19,23 20,25 21,23 21,17 22,15 25,15 25,14 22.5,14 23,13 25,13 25,14 26,14 26,13 27,12 	"/>
</g>
</svg>
