<?xml version="1.0" encoding="utf-8"?>
<!-- Generator: Adobe Illustrator 20.0.0, SVG Export Plug-In . SVG Version: 6.00 Build 0)  -->
<svg version="1.1" id="Icons" xmlns="http://www.w3.org/2000/svg" xmlns:xlink="http://www.w3.org/1999/xlink" x="0px" y="0px"
	 width="22px" height="22px" viewBox="0 0 22 22" enable-background="new 0 0 22 22" xml:space="preserve">
<g>
	<polygon fill="#FFFFFF" points="2,9 2,22 21,22 21,20 4,20 4,8 	"/>
	<polygon fill="#FFFFFF" points="0,8 0,9.5 21,1.5 21,0 	"/>
	<polygon fill="#FFFFFF" points="7,10 7,11 6,11 6,14 7,14 7,12 8,12 8,13 7,15 7,19 8,19 8,15 9,15 10,19 11,19 10,14 14,14 14,19 15,19 15,13 
		18,9 20,10 20,9 18,7 18,6 14,10 	"/>
</g>
</svg>
