<?xml version="1.0" encoding="utf-8"?>
<!-- Generator: Adobe Illustrator 22.0.1, SVG Export Plug-In . SVG Version: 6.00 Build 0)  -->
<svg version="1.1" id="Layer_1" xmlns="http://www.w3.org/2000/svg" xmlns:xlink="http://www.w3.org/1999/xlink" x="0px" y="0px"
	 width="30px" height="30px" viewBox="0 0 30 30" enable-background="new 0 0 30 30" xml:space="preserve">
<circle cx="24.5" cy="21.5" r="1.5"/>
<circle cx="7" cy="20" r="1.5"/>
<path d="M24,7V3H7L3,13l4,1c0,2.2,1.8,4,4,4c0.3,0,1,0,1,0h7c0,0,0.7,0,1,0c2.2,0,4-1.8,4-4l4-4V7H24z M11,10H8V6h3V10z M17,10h-4V6
	h4V10z M22,10h-3V6h3V10z"/>
<path d="M7,13c-3.9,0-7,3.1-7,7c0,3.9,3.1,7,7,7s7-3.1,7-7C14,16.1,10.9,13,7,13z M7,26c-3.3,0-6-2.7-6-6s2.7-6,6-6s6,2.7,6,6
	S10.3,26,7,26z"/>
<path d="M24.5,16c-3,0-5.5,2.5-5.5,5.5c0,3,2.5,5.5,5.5,5.5s5.5-2.5,5.5-5.5C30,18.5,27.5,16,24.5,16z M24.5,26C22,26,20,24,20,21.5
	s2-4.5,4.5-4.5s4.5,2,4.5,4.5S27,26,24.5,26z"/>
</svg>
