<?xml version="1.0" encoding="utf-8"?>
<!-- Generator: Adobe Illustrator 22.0.1, SVG Export Plug-In . SVG Version: 6.00 Build 0)  -->
<svg version="1.1" id="Layer_1" xmlns="http://www.w3.org/2000/svg" xmlns:xlink="http://www.w3.org/1999/xlink" x="0px" y="0px"
	 width="14px" height="14px" viewBox="0 0 14 14" enable-background="new 0 0 14 14" xml:space="preserve">
<path d="M11.5,7C10.1,7,9,8.1,9,9.5c0,1.4,1.1,2.5,2.5,2.5S14,10.9,14,9.5C14,8.1,12.9,7,11.5,7z M11.5,11c-0.8,0-1.5-0.7-1.5-1.5
	S10.7,8,11.5,8S13,8.7,13,9.5S12.3,11,11.5,11z"/>
<path d="M3,6C1.3,6,0,7.3,0,9s1.3,3,3,3s3-1.3,3-3S4.7,6,3,6z M3,11c-1.1,0-2-0.9-2-2c0-1.1,0.9-2,2-2s2,0.9,2,2C5,10.1,4.1,11,3,11
	z"/>
<path d="M11,3V1H3L1,6c0,0,2,0.3,2,0.5C3,7.3,3.7,8,4.5,8C4.7,8,5,8,5,8h4c0,0,0.3,0,0.5,0C10.3,8,11,7.3,11,6.5C11,6.3,11,6,11,6V5
	l2-1V3H11z M5,4H4V2h1V4z M8,4H6V2h2V4z M10,4H9V2h1V4z"/>
</svg>
