<?xml version="1.0" encoding="utf-8"?>
<!-- Generator: Adobe Illustrator 22.0.1, SVG Export Plug-In . SVG Version: 6.00 Build 0)  -->
<svg version="1.1" id="Layer_1" xmlns="http://www.w3.org/2000/svg" xmlns:xlink="http://www.w3.org/1999/xlink" x="0px" y="0px"
	 width="14px" height="14px" viewBox="0 0 14 14" enable-background="new 0 0 14 14" xml:space="preserve">
<polygon points="13.4,4.7 11.6,0.7 10.1,1.4 10.2,1.8 5.4,3.9 5.6,4.4 1.3,6.3 1.6,7 0.7,7.4 1,8 1.8,7.7 2.2,8.4 6.5,6.5 6.7,7 
	11.6,4.9 11.8,5.4 "/>
<path d="M7.7,8.7h0.5V8H7.4C7.3,7.6,7,7.4,6.7,7.4C6.4,7.4,6.1,7.6,6,8H5.2v0.7h0.5L2.6,14h0.8l2.9-5.1V14H7V8.9L10,14h0.8L7.7,8.7z
	"/>
<polygon points="1.7,1.4 2.2,0 2.7,1.4 4.1,1.9 2.7,2.4 2.2,3.7 1.7,2.4 0.3,1.9 "/>
<path d="M12.9,11.1c0.3,0,0.5,0,0.7-0.1c-0.8-0.2-1.3-1-1.2-1.8c0.1-0.5,0.4-1,0.9-1.2c-0.9-0.1-1.6,0.5-1.7,1.4
	C11.4,10.1,12,10.9,12.9,11.1z"/>
</svg>
