<?xml version="1.0" encoding="utf-8"?>
<!-- Generator: Adobe Illustrator 22.0.1, SVG Export Plug-In . SVG Version: 6.00 Build 0)  -->
<svg version="1.1" id="Layer_1" xmlns="http://www.w3.org/2000/svg" xmlns:xlink="http://www.w3.org/1999/xlink" x="0px" y="0px"
	 width="30px" height="30px" viewBox="0 0 30 30" enable-background="new 0 0 30 30" xml:space="preserve">
<polygon fill="#FFFFFF" points="28.7,10 24.9,1.4 21.5,2.9 22,3.9 11.5,8.4 12,9.5 2.7,13.5 3.4,15.1 1.6,15.8 2.2,17.2 4,16.4 4.6,18 13.9,14 
	14.4,15.1 24.8,10.5 25.3,11.5 "/>
<path fill="#FFFFFF" d="M16.5,18.6h1V17h-1.7c-0.1-0.7-0.7-1.2-1.5-1.2c-0.7,0-1.3,0.5-1.5,1.2h-1.7v1.6h1L5.6,30h1.7l6.3-10.9V30h1.5V19.1L21.4,30
	h1.7L16.5,18.6z"/>
<polygon fill="#FFFFFF" points="3.7,3 4.7,0 5.8,3 8.8,4 5.8,5 4.7,8 3.7,5 0.7,4 "/>
<path fill="#FFFFFF" d="M27.7,23.7c0.6,0.1,1.1,0,1.6-0.2c-1.7-0.5-2.9-2.1-2.6-3.9c0.2-1.2,0.9-2.1,1.8-2.7c-1.8-0.2-3.5,1.1-3.7,2.9
	C24.5,21.7,25.8,23.4,27.7,23.7z"/>
</svg>
