<?xml version="1.0" encoding="utf-8"?>
<!-- Generator: Adobe Illustrator 22.0.1, SVG Export Plug-In . SVG Version: 6.00 Build 0)  -->
<svg version="1.1" id="Layer_1" xmlns="http://www.w3.org/2000/svg" xmlns:xlink="http://www.w3.org/1999/xlink" x="0px" y="0px"
	 width="22px" height="22px" viewBox="0 0 22 22" enable-background="new 0 0 22 22" xml:space="preserve">
<polygon points="21,7.4 18.3,1.1 15.8,2.1 16.1,2.8 8.5,6.1 8.8,7 2,9.9 2.5,11 1.2,11.6 1.6,12.6 2.9,12.1 3.4,13.2 10.2,10.2 
	10.6,11 18.2,7.7 18.5,8.4 "/>
<path d="M12.1,13.7h0.8v-1.2h-1.3c-0.1-0.5-0.5-0.9-1.1-0.9c-0.5,0-1,0.4-1.1,0.9H8.2v1.2H9L4.1,22h1.2l4.6-8v8h1.1v-8l4.6,8h1.2
	L12.1,13.7z"/>
<polygon points="2.7,2.2 3.5,0 4.2,2.2 6.4,2.9 4.2,3.7 3.5,5.9 2.7,3.7 0.5,2.9 "/>
<path d="M20.3,17.4c0.4,0.1,0.8,0,1.2-0.1c-1.3-0.3-2.1-1.6-1.9-2.9c0.1-0.9,0.6-1.6,1.3-1.9c-1.3-0.1-2.6,0.8-2.7,2.1
	C18,15.9,18.9,17.2,20.3,17.4z"/>
</svg>
