<?xml version="1.0" encoding="utf-8"?>
<!-- Generator: Adobe Illustrator 18.1.1, SVG Export Plug-In . SVG Version: 6.00 Build 0)  -->
<svg version="1.1" id="Layer_1" xmlns="http://www.w3.org/2000/svg" xmlns:xlink="http://www.w3.org/1999/xlink" x="0px" y="0px"
	 viewBox="0 0 16 16" enable-background="new 0 0 16 16" xml:space="preserve">
<g opacity="0.5">
	<polygon points="11,15 11,13 12,13 12,12 11,12 11,9 12,9 12,5 7,5 7,9 8,9 8,12 7,12 7,13 8,13 8,15 6,15 6,16 13,16 13,15 	"/>
	<circle cx="9.5" cy="3.5" r="1.5"/>
</g>
<g opacity="0.75">
	<polygon points="10,14 10,12 11,12 11,11 10,11 10,8 11,8 11,4 6,4 6,8 7,8 7,11 6,11 6,12 7,12 7,14 5,14 5,15 12,15 12,14 	"/>
	<circle cx="8.5" cy="2.5" r="1.5"/>
</g>
<g>
	<polygon fill="#FFFFFF" points="9,13 9,11 10,11 10,10 9,10 9,7 10,7 10,3 5,3 5,7 6,7 6,10 5,10 5,11 6,11 6,13 4,13 4,14 11,14 
		11,13 	"/>
	<circle fill="#FFFFFF" cx="7.5" cy="1.5" r="1.5"/>
</g>
</svg>
