<?xml version="1.0" encoding="utf-8"?>
<!-- Generator: Adobe Illustrator 22.1.0, SVG Export Plug-In . SVG Version: 6.00 Build 0)  -->
<svg version="1.1" id="Layer_1" xmlns="http://www.w3.org/2000/svg" xmlns:xlink="http://www.w3.org/1999/xlink" x="0px" y="0px"
	 width="30px" height="30px" viewBox="0 0 30 30" enable-background="new 0 0 30 30" xml:space="preserve">
<path d="M11.1,7.9c1.5,0,2.7-1.2,2.7-2.7c0-1.5-1.2-2.7-2.7-2.7S8.3,3.7,8.3,5.2C8.3,6.7,9.5,7.9,11.1,7.9z"/>
<path d="M28.5,12.5l-8-2.5l-3.6,1.9l-1.5-1.2l5-5l0,0C20.7,5.3,21,4.9,21,4.4c0-0.9-0.7-1.6-1.6-1.6c-0.5,0-1,0.2-1.2,0.6l-5.8,5.4
	L8.7,8.4L5.7,1l0,0C5.5,0.4,4.9,0,4.2,0C3.4,0,2.5,0.7,2.6,1.6c0,0.3,0.1,0.4,0.1,0.5l3.3,9.3l17.7,11.9c0.4,0.2,0.7,0.4,1.1,0.4
	c0.9,0,1.6-0.7,1.6-1.6c0-0.5-0.3-1-0.7-1.3l0,0h0c0,0-0.1,0-0.1-0.1l-7.9-5.3l3.1-2.2l6.6,2.1c0.3,0.1,0.5,0.2,0.8,0.2
	c0.9,0.1,1.6-0.7,1.6-1.6C30,13.2,29.3,12.7,28.5,12.5z"/>
<polygon points="0,30 0,15.8 12.4,22.1 15,30 "/>
<path fill-rule="evenodd" clip-rule="evenodd" d="M22.8,26.6c-5.9-6.2-7.3-3-7.3-3s3-0.2,3,2.7c0,2.3-1.6,3.6-2.7,3.8h12.8
	C27.3,29.6,25.7,29.6,22.8,26.6z"/>
</svg>
