<?xml version="1.0" encoding="utf-8"?>
<!-- Generator: Adobe Illustrator 22.1.0, SVG Export Plug-In . SVG Version: 6.00 Build 0)  -->
<svg version="1.1" id="Layer_1" xmlns="http://www.w3.org/2000/svg" xmlns:xlink="http://www.w3.org/1999/xlink" x="0px" y="0px"
	 width="30px" height="30px" viewBox="0 0 30 30" enable-background="new 0 0 30 30" xml:space="preserve">
<path d="M16.1,4.4c1.2,0.1,2.2-0.8,2.3-2c0.1-1.2-0.8-2.2-2-2.3c-1.2-0.1-2.2,0.8-2.3,2C14,3.2,14.9,4.3,16.1,4.4z"/>
<path d="M14.3,5.2c0.4-0.3,1-0.5,1.5-0.5c0.8,0.1,1.4,0.5,1.7,1.1l2.2,4.4l3,2.1c0.3,0.2,0.4,0.5,0.4,0.9c0,0.5-0.5,0.9-1.1,0.9
	c-0.2,0-0.3-0.1-0.4-0.1l-3.3-2.3c-0.1-0.1-0.2-0.2-0.2-0.3l-0.8-1.6l-1,4.3l3.9,4.6c0.1,0.1,0.1,0.3,0.2,0.5l1,5.5
	c0,0.1,0,0.2,0,0.3c-0.1,0.8-0.8,1.4-1.6,1.3c-0.7,0-1.2-0.6-1.3-1.2l-1-5.2l-3.1-3.4l-0.7,3.3c0,0.2-0.2,0.5-0.3,0.6l-3,5.1
	C10,26,9.5,26.3,8.9,26.3c-0.8-0.1-1.4-0.8-1.4-1.6c0-0.2,0.1-0.5,0.2-0.6l2.8-4.7L12.9,9l-1.5,1.2l-0.8,3.7c-0.1,0.5-0.5,0.9-1,0.8
	c-0.5,0-0.9-0.5-0.9-1.1c0,0,0-0.1,0-0.1l1-4.3c0.1-0.2,0.2-0.4,0.3-0.5L14.3,5.2z"/>
<rect y="27" width="30" height="3"/>
</svg>
