<?xml version="1.0" encoding="utf-8"?>
<!-- Generator: Adobe Illustrator 22.1.0, SVG Export Plug-In . SVG Version: 6.00 Build 0)  -->
<svg version="1.1" id="Layer_1" xmlns="http://www.w3.org/2000/svg" xmlns:xlink="http://www.w3.org/1999/xlink" x="0px" y="0px"
	 width="22px" height="22px" viewBox="0 0 22 22" enable-background="new 0 0 22 22" xml:space="preserve">
<path d="M11.8,3.2c0.9,0.1,1.6-0.6,1.7-1.5C13.6,0.8,13,0.1,12.1,0c-0.9-0.1-1.6,0.6-1.7,1.5C10.3,2.4,10.9,3.1,11.8,3.2z"/>
<path d="M10.5,3.8c0.3-0.2,0.7-0.4,1.1-0.3c0.6,0,1,0.4,1.3,0.8l1.6,3.2L16.7,9C16.9,9.2,17,9.4,17,9.6c0,0.4-0.4,0.7-0.8,0.7
	c-0.1,0-0.2-0.1-0.3-0.1l-2.4-1.7c-0.1-0.1-0.1-0.1-0.2-0.2l-0.6-1.2l-0.7,3.2l2.8,3.3c0.1,0.1,0.1,0.2,0.1,0.3l0.8,4
	c0,0.1,0,0.1,0,0.2c0,0.6-0.6,1-1.2,1c-0.5,0-0.9-0.4-1-0.9l-0.7-3.8l-2.3-2.5L10,14.6c0,0.1-0.2,0.4-0.2,0.5l-2.2,3.7
	c-0.2,0.3-0.6,0.6-1,0.5c-0.6,0-1-0.6-1-1.2c0-0.2,0.1-0.3,0.1-0.5l2.1-3.4l1.7-7.6L8.3,7.5l-0.6,2.7c-0.1,0.3-0.4,0.6-0.8,0.6
	c-0.4,0-0.7-0.4-0.7-0.8c0,0,0-0.1,0-0.1L7,6.8c0-0.1,0.1-0.3,0.2-0.3L10.5,3.8z"/>
<rect y="20" width="22" height="2"/>
</svg>
