<?xml version="1.0" encoding="utf-8"?>
<!-- Generator: Adobe Illustrator 22.1.0, SVG Export Plug-In . SVG Version: 6.00 Build 0)  -->
<svg version="1.1" id="Layer_1" xmlns="http://www.w3.org/2000/svg" xmlns:xlink="http://www.w3.org/1999/xlink" x="0px" y="0px"
	 width="22px" height="22px" viewBox="0 0 22 22" enable-background="new 0 0 22 22" xml:space="preserve">
<path d="M8.1,5.8c1.1,0,2-0.9,2-2c0-1.1-0.9-2-2-2s-2,0.9-2,2C6.1,4.9,7,5.8,8.1,5.8z"/>
<path d="M20.9,9.2L15,7.3l-2.6,1.4l-1.1-0.9L15,4.1l0,0c0.3-0.2,0.4-0.5,0.4-0.9c0-0.6-0.5-1.2-1.2-1.2c-0.4,0-0.7,0.2-0.9,0.4
	L9,6.5L6.4,6.2L4.2,0.7l0,0C4,0.3,3.6,0,3.1,0C2.5,0,1.9,0.5,1.9,1.2C2,1.4,2,1.4,2,1.5l2.5,6.9l13,8.7c0.3,0.2,0.5,0.3,0.8,0.3
	c0.6,0,1.2-0.5,1.2-1.2c0-0.4-0.2-0.7-0.5-0.9l0,0h0c0,0,0,0-0.1,0l-5.8-3.9l2.3-1.6l4.9,1.5c0.2,0.1,0.3,0.1,0.6,0.2
	c0.6,0.1,1.2-0.5,1.2-1.2C22,9.7,21.5,9.3,20.9,9.2z"/>
<polygon points="0,22 0,11.6 9.1,16.2 11,22 "/>
<path fill-rule="evenodd" clip-rule="evenodd" d="M16.8,19.5c-4.3-4.6-5.4-2.2-5.4-2.2s2.2-0.1,2.2,2c0,1.7-1.2,2.6-2,2.8h9.4
	C20,21.7,18.9,21.7,16.8,19.5z"/>
</svg>
