<?xml version="1.0" encoding="utf-8"?>
<!-- Generator: Adobe Illustrator 22.1.0, SVG Export Plug-In . SVG Version: 6.00 Build 0)  -->
<svg version="1.1" id="Layer_1" xmlns="http://www.w3.org/2000/svg" xmlns:xlink="http://www.w3.org/1999/xlink" x="0px" y="0px"
	 width="14px" height="14px" viewBox="0 0 14 14" enable-background="new 0 0 14 14" xml:space="preserve">
<path fill="#FFFFFF" d="M5.2,3.7c0.7,0,1.3-0.6,1.3-1.3c0-0.7-0.6-1.3-1.3-1.3S3.9,1.7,3.9,2.4C3.9,3.1,4.5,3.7,5.2,3.7z"/>
<path fill="#FFFFFF" d="M13.3,5.8L9.6,4.7L7.9,5.6L7.2,5l2.3-2.3l0,0c0.2-0.1,0.3-0.3,0.3-0.6c0-0.4-0.3-0.7-0.7-0.7c-0.2,0-0.4,0.1-0.6,0.3
	L5.7,4.1L4,3.9L2.7,0.5l0,0C2.6,0.2,2.3,0,2,0C1.6,0,1.2,0.3,1.2,0.7c0,0.1,0,0.2,0.1,0.2l1.6,4.4l8.3,5.5c0.2,0.1,0.3,0.2,0.5,0.2
	c0.4,0,0.7-0.3,0.7-0.7c0-0.2-0.1-0.5-0.3-0.6l0,0h0c0,0,0,0,0,0L8.3,7.3l1.5-1l3.1,1c0.1,0.1,0.2,0.1,0.4,0.1C13.7,7.4,14,7,14,6.6
	C14,6.2,13.7,5.9,13.3,5.8z"/>
<polygon fill="#FFFFFF" points="0,14 0,7.4 5.8,10.3 7,14 "/>
<path fill="#FFFFFF" fill-rule="evenodd" clip-rule="evenodd" d="M10.7,12.4C7.9,9.5,7.3,11,7.3,11s1.4-0.1,1.4,1.3c0,1.1-0.7,1.7-1.2,1.8h6
	C12.7,13.8,12,13.8,10.7,12.4z"/>
</svg>
