<?xml version="1.0" encoding="utf-8"?>
<!-- Generator: Adobe Illustrator 22.1.0, SVG Export Plug-In . SVG Version: 6.00 Build 0)  -->
<svg version="1.1" id="Layer_1" xmlns="http://www.w3.org/2000/svg" xmlns:xlink="http://www.w3.org/1999/xlink" x="0px" y="0px"
	 width="22px" height="22px" viewBox="0 0 22 22" enable-background="new 0 0 22 22" xml:space="preserve">
<path d="M9.7,2.8c0.3-1-0.2-2-1.2-2.3c-0.9-0.3-2,0.2-2.3,1.2c-0.3,1,0.2,2,1.2,2.3C8.4,4.3,9.4,3.7,9.7,2.8z"/>
<path d="M13.1,8.3l-0.7-4.2l4.2-2.4c0.2-0.1,0.4-0.3,0.4-0.5c0.1-0.5-0.1-0.9-0.6-1.1c-0.2-0.1-0.5,0-0.7,0.1l-6,3.5
	C9.5,3.8,9.3,3.9,9.2,4.1L6.7,7.5L3.2,7.1C3,7.1,2.8,7.3,2.7,7.5C2.5,8,2.7,8.5,3.2,8.7c0.2,0.1,0.4,0.1,0.6,0l3.5,0.4
	c0.1,0,0.2-0.1,0.3-0.2L9,7.1L9.7,11c0.1,0.5,0.5,1,1,1.3l3.1,0.9l0.5,3.5c0.1,0.4,0.3,0.8,0.7,0.9c0.6,0.2,1.2-0.1,1.4-0.7
	c0.1-0.2,0.1-0.4,0-0.5L15.9,12c-0.1-0.3-0.3-0.6-0.6-0.8l-1.9-0.6l3.2-1.9l3.9,1.7c0,0,0,0,0.1,0c0.6,0.2,1.2-0.1,1.4-0.7
	c0.2-0.6-0.1-1.1-0.6-1.4l-4.4-2c0,0,0,0-0.1,0c-0.3-0.1-0.7-0.1-0.9,0.1L13.1,8.3z"/>
<path d="M0,21.9l0-10.6l10.9,4.1l1,6.5C11.9,22,5.7,21.9,0,21.9z"/>
</svg>
