<?xml version="1.0" encoding="utf-8"?>
<!-- Generator: Adobe Illustrator 22.1.0, SVG Export Plug-In . SVG Version: 6.00 Build 0)  -->
<svg version="1.1" id="Layer_1" xmlns="http://www.w3.org/2000/svg" xmlns:xlink="http://www.w3.org/1999/xlink" x="0px" y="0px"
	 width="30px" height="30px" viewBox="0 0 30 30" enable-background="new 0 0 30 30" xml:space="preserve">
<path d="M13.2,3.8c0.4-1.3-0.3-2.7-1.6-3.1C10.3,0.3,8.9,1,8.5,2.3C8.1,3.6,8.8,5,10.1,5.4C11.4,5.8,12.8,5.1,13.2,3.8z"/>
<path d="M17.8,11.3l-0.9-5.8l5.7-3.3c0.3-0.1,0.5-0.4,0.6-0.7c0.2-0.6-0.2-1.3-0.8-1.5c-0.3-0.1-0.7,0-1,0.1L13.3,5
	c-0.3,0.2-0.5,0.4-0.7,0.6l-3.4,4.6L4.4,9.6c-0.3,0.1-0.6,0.3-0.7,0.6c-0.3,0.6,0,1.3,0.6,1.5c0.2,0.1,0.5,0.1,0.8,0.1l4.8,0.5
	c0.2-0.1,0.3-0.2,0.5-0.3l1.9-2.4l0.9,5.3c0.2,0.7,0.7,1.4,1.4,1.7l4.2,1.3l0.6,4.8c0.1,0.5,0.5,1,1,1.2c0.8,0.3,1.7-0.1,1.9-0.9
	c0.1-0.2,0.1-0.5,0.1-0.7l-0.8-5.9c-0.1-0.4-0.4-0.8-0.8-1l-2.6-0.8l4.3-2.6l5.3,2.3c0,0,0.1,0,0.1,0c0.8,0.3,1.7-0.1,1.9-0.9
	c0.3-0.8-0.1-1.6-0.8-1.9l-6-2.7c0,0-0.1,0-0.1,0c-0.4-0.2-0.9-0.1-1.3,0.1L17.8,11.3z"/>
<path d="M0,29.9l0-14.5L14.9,21l1.4,8.9C16.2,30,7.8,29.9,0,29.9z"/>
</svg>
