<?xml version="1.0" encoding="utf-8"?>
<!-- Generator: Adobe Illustrator 22.1.0, SVG Export Plug-In . SVG Version: 6.00 Build 0)  -->
<svg version="1.1" id="Layer_1" xmlns="http://www.w3.org/2000/svg" xmlns:xlink="http://www.w3.org/1999/xlink" x="0px" y="0px"
	 width="14px" height="14px" viewBox="0 0 14 14" enable-background="new 0 0 14 14" xml:space="preserve">
<path fill="#FFFFFF" d="M7.5,2c0.6,0,1-0.4,1.1-0.9c0-0.6-0.4-1-0.9-1.1c-0.6,0-1,0.4-1.1,0.9C6.5,1.5,7,2,7.5,2z"/>
<path fill="#FFFFFF" d="M6.7,2.4c0.2-0.1,0.4-0.2,0.7-0.2c0.4,0,0.6,0.2,0.8,0.5l1,2l1.4,1c0.1,0.1,0.2,0.2,0.2,0.4c0,0.3-0.2,0.4-0.5,0.4
	c-0.1,0-0.1,0-0.2-0.1L8.6,5.4c0,0-0.1-0.1-0.1-0.1L8.1,4.5l-0.5,2l1.8,2.1c0,0.1,0.1,0.1,0.1,0.2l0.5,2.6c0,0.1,0,0.1,0,0.1
	c0,0.4-0.4,0.7-0.7,0.6c-0.3,0-0.5-0.3-0.6-0.5L8.2,9.3L6.7,7.7L6.4,9.3c0,0.1-0.1,0.2-0.1,0.3l-1.4,2.4c-0.1,0.2-0.4,0.4-0.6,0.3
	c-0.4,0-0.7-0.4-0.6-0.7c0-0.1,0.1-0.2,0.1-0.3L4.9,9L6,4.2L5.3,4.8L4.9,6.5C4.9,6.7,4.7,6.9,4.4,6.9C4.2,6.9,4,6.6,4,6.4
	c0,0,0,0,0-0.1l0.4-2c0-0.1,0.1-0.2,0.1-0.2L6.7,2.4z"/>
<rect fill="#FFFFFF" y="13" width="14" height="1"/>
</svg>
