<?xml version="1.0" encoding="utf-8"?>
<!-- Generator: Adobe Illustrator 18.1.1, SVG Export Plug-In . SVG Version: 6.00 Build 0)  -->
<svg version="1.1" id="Icons" xmlns="http://www.w3.org/2000/svg" xmlns:xlink="http://www.w3.org/1999/xlink" x="0px" y="0px"
	 viewBox="0 0 32 32" enable-background="new 0 0 32 32" xml:space="preserve">
<g opacity="0.1">
	<path d="M28.9,13.1c0,0,0.2,5.9-5.9,5.9C23.1,18.9,22.4,13.6,28.9,13.1z"/>
	<path d="M25.1,21.5c0.7-0.7,1.7-1.2,2.9-1.2c2.3,0,4.1,1.8,4.1,4.1l0,0.2h0c-0.1,0.9-0.4,2-1,3.3c0,0-1.1,2.2-2.1,3.2l-0.1,0.1
		c-0.4,0.4-1.1,0.7-1.7,0.7c-0.8,0-1.6-0.4-2-1h0c-0.4,0.6-1.2,1-2,1c-0.7,0-1.3-0.3-1.7-0.7l-0.1-0.1c-0.9-1-2.1-3.2-2.1-3.2
		c-0.7-1.4-0.9-2.5-1-3.3h0l0-0.2c0-2.3,1.8-4.1,4.1-4.1C23.3,20.3,24.3,20.8,25.1,21.5"/>
	<rect x="7" y="2" width="5" height="2"/>
	<path d="M14,7V6h-1l-1-1H5v1H4v1H3v1L2,9v22h1v1h11v-1h1V8L14,7z M8,13H7v1H6v1H4V9h1V8h1V7h2V13z"/>
</g>
<g opacity="0.2">
	<path d="M27.9,12.1c0,0,0.2,5.9-5.9,5.9C22.1,17.9,21.4,12.6,27.9,12.1z"/>
	<path d="M24.1,20.5c0.7-0.7,1.7-1.2,2.9-1.2c2.3,0,4.1,1.8,4.1,4.1l0,0.2h0c-0.1,0.9-0.4,2-1,3.3c0,0-1.1,2.2-2.1,3.2l-0.1,0.1
		c-0.4,0.4-1.1,0.7-1.7,0.7c-0.8,0-1.6-0.4-2-1h0c-0.4,0.6-1.2,1-2,1c-0.7,0-1.3-0.3-1.7-0.7l-0.1-0.1c-0.9-1-2.1-3.2-2.1-3.2
		c-0.7-1.4-0.9-2.5-1-3.3h0l0-0.2c0-2.3,1.8-4.1,4.1-4.1C22.3,19.3,23.3,19.8,24.1,20.5"/>
	<rect x="6" y="1" width="5" height="2"/>
	<path d="M13,6V5h-1l-1-1H4v1H3v1H2v1L1,8v22h1v1h11v-1h1V7L13,6z M7,12H6v1H5v1H3V8h1V7h1V6h2V12z"/>
</g>
<g>
	<path d="M26.9,11.1c0,0,0.2,5.9-5.9,5.9C21.1,16.9,20.4,11.6,26.9,11.1z"/>
	<path d="M23.1,19.5c0.7-0.7,1.7-1.2,2.9-1.2c2.3,0,4.1,1.8,4.1,4.1l0,0.2h0c-0.1,0.9-0.4,2-1,3.3c0,0-1.1,2.2-2.1,3.2l-0.1,0.1
		c-0.4,0.4-1.1,0.7-1.7,0.7c-0.8,0-1.6-0.4-2-1h0c-0.4,0.6-1.2,1-2,1c-0.7,0-1.3-0.3-1.7-0.7l-0.1-0.1c-0.9-1-2.1-3.2-2.1-3.2
		c-0.7-1.4-0.9-2.5-1-3.3h0l0-0.2c0-2.3,1.8-4.1,4.1-4.1C21.3,18.3,22.3,18.8,23.1,19.5"/>
	<rect x="5" width="5" height="2"/>
	<path d="M12,5V4h-1l-1-1H3v1H2v1H1v1L0,7v22h1v1h11v-1h1V6L12,5z M6,11H5v1H4v1H2V7h1V6h1V5h2V11z"/>
</g>
</svg>
