<?xml version="1.0" encoding="utf-8"?>
<!-- Generator: Adobe Illustrator 20.0.0, SVG Export Plug-In . SVG Version: 6.00 Build 0)  -->
<svg version="1.1" id="Icons" xmlns="http://www.w3.org/2000/svg" xmlns:xlink="http://www.w3.org/1999/xlink" x="0px" y="0px"
	 width="14px" height="14px" viewBox="0 0 14 14" enable-background="new 0 0 14 14" xml:space="preserve">
<g>
	<path fill="#231F20" d="M10.8,9.1c0.3-0.3,0.8-0.5,1.3-0.5c1.1,0,1.9,0.9,1.9,1.9v0.1l0,0c0,0.4-0.2,0.9-0.5,1.6c0,0-0.5,1-1,1.5l0,0
		C12.3,13.9,12,14,11.7,14c-0.4,0-0.7-0.2-0.9-0.5l0,0c-0.2,0.3-0.6,0.5-0.9,0.5c-0.3,0-0.6-0.1-0.8-0.3l0,0c-0.4-0.5-1-1.5-1-1.5
		c-0.3-0.6-0.4-1.1-0.5-1.6l0,0v-0.1c0-1.1,0.9-1.9,1.9-1.9C9.9,8.6,10.4,8.8,10.8,9.1"/>
	<path fill="#231F20" d="M10.8,9.1c0.3-0.3,0.8-0.5,1.3-0.5c1.1,0,1.9,0.9,1.9,1.9v0.1l0,0c0,0.4-0.2,0.9-0.5,1.6c0,0-0.5,1-1,1.5l0,0
		C12.3,13.9,12,14,11.7,14c-0.4,0-0.7-0.2-0.9-0.5l0,0c-0.2,0.3-0.6,0.5-0.9,0.5c-0.3,0-0.6-0.1-0.8-0.3l0,0c-0.4-0.5-1-1.5-1-1.5
		c-0.3-0.6-0.4-1.1-0.5-1.6l0,0v-0.1c0-1.1,0.9-1.9,1.9-1.9C9.9,8.6,10.4,8.8,10.8,9.1"/>
	<path fill="#231F20" d="M5,2H2L1,3H0v11h6V3L5,2z M2,7H1V4h1V7z"/>
	<rect fill="#231F20" x="2" width="3" height="1"/>
	<polygon fill="#231F20" points="10,8 10,7 11,6 12,5 13,5 13,6 11,8 	"/>
</g>
</svg>
