<?xml version="1.0" encoding="utf-8"?>
<!-- Generator: Adobe Illustrator 20.0.0, SVG Export Plug-In . SVG Version: 6.00 Build 0)  -->
<svg version="1.1" id="Icons" xmlns="http://www.w3.org/2000/svg" xmlns:xlink="http://www.w3.org/1999/xlink" x="0px" y="0px"
	 width="22px" height="22px" viewBox="0 0 22 22" enable-background="new 0 0 22 22" xml:space="preserve">
<g>
	<path fill="#FFFFFF" d="M20,9c0,0-0.8,3-4,3C16,12,15.8,9.9,20,9z"/>
	<path fill="#FFFFFF" d="M17,14.3c0.5-0.5,1.3-0.9,2.1-0.9c1.6,0,2.9,1.3,2.9,3v0.2l0,0c-0.1,0.6-0.3,1.5-0.7,2.4c0,0-0.8,1.6-1.5,2.3l-0.1,0.1
		c-0.3,0.3-0.8,0.5-1.3,0.5c-0.6,0-1.1-0.5-1.5-1c-0.3,0.5-0.9,1-1.5,1c-0.5,0-0.9-0.2-1.3-0.5L14,21.3c-0.7-0.7-1.5-2.3-1.5-2.3
		c-0.5-1-0.7-1.8-0.7-2.4l0,0v-0.2c0-1.7,1.3-3,2.9-3C15.7,13.5,16.5,13.8,17,14.3"/>
	<polygon fill="#FFFFFF" points="4,0 8,0 8,2 4,2 	"/>
	<path fill="#FFFFFF" d="M7,3H3c0,0-0.7,0.2-1.2,0.7L0.2,5.8C0.1,6,0,5.9,0,6.1V21c0,0.4,0.6,1,1,1h8c0.4,0,1-0.6,1-1V6C10,6,9.6,3.3,7,3z M4,4v5H3
		v1H2l-1,1v-1V6h1V5h1L4,4z"/>
</g>
</svg>
