<?xml version="1.0" encoding="utf-8"?>
<!-- Generator: Adobe Illustrator 20.0.0, SVG Export Plug-In . SVG Version: 6.00 Build 0)  -->
<svg version="1.1" id="Icons" xmlns="http://www.w3.org/2000/svg" xmlns:xlink="http://www.w3.org/1999/xlink" x="0px" y="0px"
	 width="30px" height="30px" viewBox="0 0 30 30" enable-background="new 0 0 30 30" xml:space="preserve">
<g>
	<path fill="#FFFFFF" d="M26.9,11.1c0,0,0.2,5.9-5.9,5.9C21.1,16.9,20.4,11.6,26.9,11.1z"/>
	<path fill="#FFFFFF" d="M23.1,19.5c0.7-0.7,1.7-1.2,2.9-1.2c2.3,0,4.1,1.8,4.1,4.1v0.2l0,0c-0.1,0.9-0.4,2-1,3.3c0,0-1.1,2.2-2.1,3.2l-0.1,0.1
		c-0.4,0.4-1.1,0.7-1.7,0.7c-0.8,0-1.6-0.4-2-1l0,0c-0.4,0.6-1.2,1-2,1c-0.7,0-1.3-0.3-1.7-0.7l-0.1-0.1c-0.9-1-2.1-3.2-2.1-3.2
		c-0.7-1.4-0.9-2.5-1-3.3l0,0v-0.2c0-2.3,1.8-4.1,4.1-4.1C21.3,18.3,22.3,18.8,23.1,19.5"/>
	<rect fill="#FFFFFF" x="5" width="5" height="2"/>
	<path fill="#FFFFFF" d="M12,5V4h-1l-1-1H3v1H2v1H1v1L0,7v22h1v1h11v-1h1V6L12,5z M6,11H5v1H4v1H2V7h1V6h1V5h2V11z"/>
</g>
</svg>
