<?xml version="1.0" encoding="utf-8"?>
<!-- Generator: Adobe Illustrator 18.1.1, SVG Export Plug-In . SVG Version: 6.00 Build 0)  -->
<svg version="1.1" id="Icons" xmlns="http://www.w3.org/2000/svg" xmlns:xlink="http://www.w3.org/1999/xlink" x="0px" y="0px"
	 viewBox="0 0 16 16" enable-background="new 0 0 16 16" xml:space="preserve">
<g opacity="0.5">
	<path d="M12.8,11.1c0.3-0.3,0.8-0.5,1.3-0.5c1.1,0,1.9,0.9,1.9,1.9l0,0.1h0c0,0.4-0.2,0.9-0.5,1.6c0,0-0.5,1-1,1.5l0,0
		C14.3,15.9,14,16,13.7,16c-0.4,0-0.7-0.2-0.9-0.5h0c-0.2,0.3-0.6,0.5-0.9,0.5c-0.3,0-0.6-0.1-0.8-0.3l0,0c-0.4-0.5-1-1.5-1-1.5
		c-0.3-0.6-0.4-1.1-0.5-1.6h0l0-0.1c0-1.1,0.9-1.9,1.9-1.9C11.9,10.6,12.4,10.8,12.8,11.1"/>
	<path d="M12.8,11.1c0.3-0.3,0.8-0.5,1.3-0.5c1.1,0,1.9,0.9,1.9,1.9l0,0.1h0c0,0.4-0.2,0.9-0.5,1.6c0,0-0.5,1-1,1.5l0,0
		C14.3,15.9,14,16,13.7,16c-0.4,0-0.7-0.2-0.9-0.5h0c-0.2,0.3-0.6,0.5-0.9,0.5c-0.3,0-0.6-0.1-0.8-0.3l0,0c-0.4-0.5-1-1.5-1-1.5
		c-0.3-0.6-0.4-1.1-0.5-1.6h0l0-0.1c0-1.1,0.9-1.9,1.9-1.9C11.9,10.6,12.4,10.8,12.8,11.1"/>
	<path d="M7,4H4L3,5H2v11h6V5L7,4z M4,9H3V6h1V9z"/>
	<rect x="4" y="2" width="3" height="1"/>
	<polygon points="12,10 12,9 13,8 14,7 15,7 15,8 13,10 	"/>
</g>
<g opacity="0.75">
	<path d="M11.8,10.1c0.3-0.3,0.8-0.5,1.3-0.5c1.1,0,1.9,0.9,1.9,1.9l0,0.1h0c0,0.4-0.2,0.9-0.5,1.6c0,0-0.5,1-1,1.5l0,0
		C13.3,14.9,13,15,12.7,15c-0.4,0-0.7-0.2-0.9-0.5h0c-0.2,0.3-0.6,0.5-0.9,0.5c-0.3,0-0.6-0.1-0.8-0.3l0,0c-0.4-0.5-1-1.5-1-1.5
		c-0.3-0.6-0.4-1.1-0.5-1.6h0l0-0.1c0-1.1,0.9-1.9,1.9-1.9C10.9,9.6,11.4,9.8,11.8,10.1"/>
	<path d="M11.8,10.1c0.3-0.3,0.8-0.5,1.3-0.5c1.1,0,1.9,0.9,1.9,1.9l0,0.1h0c0,0.4-0.2,0.9-0.5,1.6c0,0-0.5,1-1,1.5l0,0
		C13.3,14.9,13,15,12.7,15c-0.4,0-0.7-0.2-0.9-0.5h0c-0.2,0.3-0.6,0.5-0.9,0.5c-0.3,0-0.6-0.1-0.8-0.3l0,0c-0.4-0.5-1-1.5-1-1.5
		c-0.3-0.6-0.4-1.1-0.5-1.6h0l0-0.1c0-1.1,0.9-1.9,1.9-1.9C10.9,9.6,11.4,9.8,11.8,10.1"/>
	<path d="M6,3H3L2,4H1v11h6V4L6,3z M3,8H2V5h1V8z"/>
	<rect x="3" y="1" width="3" height="1"/>
	<polygon points="11,9 11,8 12,7 13,6 14,6 14,7 12,9 	"/>
</g>
<g>
	<path fill="#FFFFFF" d="M10.8,9.1c0.3-0.3,0.8-0.5,1.3-0.5c1.1,0,1.9,0.9,1.9,1.9l0,0.1h0c0,0.4-0.2,0.9-0.5,1.6c0,0-0.5,1-1,1.5
		l0,0C12.3,13.9,12,14,11.7,14c-0.4,0-0.7-0.2-0.9-0.5h0c-0.2,0.3-0.6,0.5-0.9,0.5c-0.3,0-0.6-0.1-0.8-0.3l0,0c-0.4-0.5-1-1.5-1-1.5
		c-0.3-0.6-0.4-1.1-0.5-1.6h0l0-0.1c0-1.1,0.9-1.9,1.9-1.9C9.9,8.6,10.4,8.8,10.8,9.1"/>
	<path fill="#FFFFFF" d="M10.8,9.1c0.3-0.3,0.8-0.5,1.3-0.5c1.1,0,1.9,0.9,1.9,1.9l0,0.1h0c0,0.4-0.2,0.9-0.5,1.6c0,0-0.5,1-1,1.5
		l0,0C12.3,13.9,12,14,11.7,14c-0.4,0-0.7-0.2-0.9-0.5h0c-0.2,0.3-0.6,0.5-0.9,0.5c-0.3,0-0.6-0.1-0.8-0.3l0,0c-0.4-0.5-1-1.5-1-1.5
		c-0.3-0.6-0.4-1.1-0.5-1.6h0l0-0.1c0-1.1,0.9-1.9,1.9-1.9C9.9,8.6,10.4,8.8,10.8,9.1"/>
	<path fill="#FFFFFF" d="M5,2H2L1,3H0v11h6V3L5,2z M2,7H1V4h1V7z"/>
	<rect x="2" fill="#FFFFFF" width="3" height="1"/>
	<polygon fill="#FFFFFF" points="10,8 10,7 11,6 12,5 13,5 13,6 11,8 	"/>
</g>
</svg>
