<?xml version="1.0" encoding="utf-8"?>
<!-- Generator: Adobe Illustrator 22.1.0, SVG Export Plug-In . SVG Version: 6.00 Build 0)  -->
<svg version="1.1" id="Layer_1" xmlns="http://www.w3.org/2000/svg" xmlns:xlink="http://www.w3.org/1999/xlink" x="0px" y="0px"
	 width="30px" height="30px" viewBox="0 0 30 30" enable-background="new 0 0 30 30" xml:space="preserve">
<path fill="#FFFFFF" d="M2.3,19.8l3.8-2.9l3-2.4l-2-0.6c-1.4-0.4-1.9,0.2-1.9,0.2l-4.7,3.7c0,0-1,0.7-0.1,1.8C0.3,19.6,1.2,20.7,2.3,19.8z"/>
<path fill="#FFFFFF" d="M14.6,9.8c1.5,0,2.7-1.2,2.7-2.7c0-1.5-1.2-2.7-2.7-2.7c-1.5,0-2.7,1.2-2.7,2.7C11.9,8.7,13.1,9.8,14.6,9.8z"/>
<path fill="#FFFFFF" d="M27.1,2.2c-0.6,0-1.2,0.2-1.7,0.6L5.6,18.5c-0.5,0.4-0.8,0.9-1,1.5c-0.1,0.5-0.1,1,0.1,1.4c-1,0.6-1.7,1.7-1.7,3
	C3,26.4,4.6,28,6.5,28s3.5-1.6,3.5-3.5S8.4,21,6.5,21c-0.2,0-0.5,0-0.7,0.1c-0.1-0.2-0.1-0.5,0-0.8c0.1-0.4,0.3-0.7,0.6-1l1.2-1
	l6.1,2c1.2,0.4,2.6-0.3,3-1.5l0.1-0.3l1.5,3.3c-0.7,0.6-1.2,1.6-1.2,2.6c0,1.9,1.6,3.5,3.5,3.5s3.5-1.6,3.5-3.5S22.4,21,20.5,21
	c-0.5,0-0.9,0.1-1.3,0.3L17.3,17l3-8.7l5.8-4.6c0.3-0.2,0.7-0.4,1.1-0.4c1,0,1.7,0.8,1.7,1.7c0,0.6-0.3,1.1-0.7,1.4
	C28,6.6,27.9,7,28.1,7.2c0.2,0.2,0.5,0.3,0.8,0.1C29.6,6.8,30,6,30,5C30,3.4,28.7,2.2,27.1,2.2z M6.5,22.5c1.1,0,2,0.9,2,2
	c0,1.1-0.9,2-2,2s-2-0.9-2-2C4.5,23.4,5.4,22.5,6.5,22.5z M22.5,24.5c0,1.1-0.9,2-2,2s-2-0.9-2-2c0-1.1,0.9-2,2-2
	S22.5,23.4,22.5,24.5z"/>
</svg>
