<?xml version="1.0" encoding="utf-8"?>
<!-- Generator: Adobe Illustrator 22.1.0, SVG Export Plug-In . SVG Version: 6.00 Build 0)  -->
<svg version="1.1" id="Layer_1" xmlns="http://www.w3.org/2000/svg" xmlns:xlink="http://www.w3.org/1999/xlink" x="0px" y="0px"
	 width="22px" height="22px" viewBox="0 0 22 22" enable-background="new 0 0 22 22" xml:space="preserve">
<path fill="#FFFFFF" d="M1.7,14.5l2.8-2.1l2.2-1.7l-1.5-0.4c-1-0.3-1.4,0.1-1.4,0.1l-3.5,2.7c0,0-0.7,0.5-0.1,1.3C0.3,14.4,0.9,15.2,1.7,14.5z"/>
<path fill="#FFFFFF" d="M10.7,7.2c1.1,0,2-0.9,2-2c0-1.1-0.9-2-2-2c-1.1,0-2,0.9-2,2C8.7,6.3,9.6,7.2,10.7,7.2z"/>
<path fill="#FFFFFF" d="M19.9,1.6c-0.5,0-0.9,0.2-1.3,0.4L4.1,13.6c-0.3,0.3-0.6,0.7-0.7,1.1c0,0.2,0,0.4,0,0.6C2.6,15.7,2,16.5,2,17.5
	C2,18.9,3.1,20,4.5,20S7,18.9,7,17.5C7,16.1,5.9,15,4.5,15c-0.1,0-0.2,0-0.3,0c0,0,0-0.1,0-0.1c0.1-0.3,0.2-0.5,0.4-0.7l0.9-0.7
	L10,15c0.9,0.3,1.9-0.2,2.2-1.1l0.1-0.2l0.8,1.8c-0.6,0.5-1,1.2-1,2c0,1.4,1.1,2.5,2.5,2.5s2.5-1.1,2.5-2.5c0-1.4-1.1-2.5-2.5-2.5
	c-0.2,0-0.5,0-0.7,0.1l-1.1-2.7L14.9,6l4.2-3.4c0.2-0.2,0.5-0.3,0.8-0.3c0.7,0,1.3,0.6,1.3,1.3c0,0.4-0.2,0.8-0.5,1
	c-0.2,0.1-0.2,0.4,0,0.6c0.1,0.2,0.4,0.2,0.6,0C21.7,5,22,4.4,22,3.7C22,2.5,21.1,1.6,19.9,1.6z M5.8,17.5c0,0.7-0.6,1.2-1.2,1.2
	s-1.2-0.6-1.2-1.2s0.6-1.2,1.2-1.2S5.8,16.9,5.8,17.5z M15.8,17.5c0,0.7-0.6,1.2-1.2,1.2s-1.2-0.6-1.2-1.2s0.6-1.2,1.2-1.2
	S15.8,16.9,15.8,17.5z"/>
</svg>
