<?xml version="1.0" encoding="utf-8"?>
<!-- Generator: Adobe Illustrator 22.1.0, SVG Export Plug-In . SVG Version: 6.00 Build 0)  -->
<svg version="1.1" id="Layer_1" xmlns="http://www.w3.org/2000/svg" xmlns:xlink="http://www.w3.org/1999/xlink" x="0px" y="0px"
	 width="14px" height="14px" viewBox="0 0 14 14" enable-background="new 0 0 14 14" xml:space="preserve">
<path d="M1.1,9.2l1.8-1.4l1.4-1.1L3.3,6.5C2.7,6.3,2.4,6.6,2.4,6.6L0.2,8.3c0,0-0.5,0.3-0.1,0.9C0.2,9.2,0.6,9.6,1.1,9.2z"/>
<path d="M6.8,4.6c0.7,0,1.3-0.6,1.3-1.2c0-0.7-0.6-1.3-1.3-1.3c-0.7,0-1.3,0.6-1.3,1.3C5.6,4,6.1,4.6,6.8,4.6z"/>
<path d="M12.7,1c-0.3,0-0.6,0.1-0.8,0.3L2.6,8.6C2.4,8.8,2.2,9.1,2.2,9.4c-0.1,0.2,0,0.4,0,0.7C1.5,10.2,1,10.8,1,11.5
	C1,12.3,1.7,13,2.5,13S4,12.3,4,11.5c0-0.7-0.5-1.4-1.2-1.5C2.7,9.8,2.7,9.6,2.7,9.5C2.7,9.3,2.8,9.1,3,9l0.6-0.4l2.9,0.9
	c0.6,0.2,1.2-0.1,1.4-0.7l0.1-0.2l0.7,1.7C8.2,10.6,8,11,8,11.5C8,12.3,8.7,13,9.5,13s1.5-0.7,1.5-1.5S10.3,10,9.5,10
	c-0.2,0-0.3,0-0.5,0.1L8.1,7.9l1.4-4.1l2.7-2.1c0.1-0.1,0.3-0.2,0.5-0.2c0.5,0,0.8,0.4,0.8,0.8c0,0.3-0.1,0.5-0.3,0.7
	c-0.1,0.1-0.1,0.3,0,0.4c0.1,0.1,0.3,0.1,0.4,0C13.8,3.2,14,2.8,14,2.3C14,1.6,13.4,1,12.7,1z M3,12H2v-1h1V12z M10,11v1H9v-1H10z"
	/>
</svg>
