<?xml version="1.0" encoding="utf-8"?>
<!-- Generator: Adobe Illustrator 22.1.0, SVG Export Plug-In . SVG Version: 6.00 Build 0)  -->
<svg version="1.1" id="Layer_1" xmlns="http://www.w3.org/2000/svg" xmlns:xlink="http://www.w3.org/1999/xlink" x="0px" y="0px"
	 width="14px" height="14px" viewBox="0 0 14 14" enable-background="new 0 0 14 14" xml:space="preserve">
<polygon fill="#FFFFFF" points="6.7,0 7.3,0 7.3,2.4 6.7,2.4 6.7,0 "/>
<polygon fill="#FFFFFF" points="6.7,11.6 7.3,11.6 7.3,14 6.7,14 6.7,11.6 "/>
<polygon fill="#FFFFFF" points="11.6,7.2 11.6,6.5 14,6.5 14,7.2 11.6,7.2 "/>
<polygon fill="#FFFFFF" points="0,7.1 0,6.5 2.4,6.5 2.4,7.1 0,7.1 "/>
<polygon fill="#FFFFFF" points="0.9,3.6 1.2,3 3.3,4.2 3,4.7 0.9,3.6 "/>
<polygon fill="#FFFFFF" points="3.4,1 3.9,0.7 5.2,2.7 4.7,3.1 3.4,1 "/>
<polygon fill="#FFFFFF" points="9.1,11.1 9.6,10.8 10.8,12.8 10.3,13.1 9.1,11.1 "/>
<polygon fill="#FFFFFF" points="10.9,9.4 11.2,8.9 13.3,10 13,10.6 10.9,9.4 "/>
<polygon fill="#FFFFFF" points="3.8,13.2 3.2,12.9 4.4,10.8 4.9,11.1 3.8,13.2 "/>
<polygon fill="#FFFFFF" points="1,10.5 0.7,10 2.7,8.7 3,9.3 1,10.5 "/>
<polygon fill="#FFFFFF" points="11.1,4.9 10.8,4.4 12.9,3.2 13.2,3.7 11.1,4.9 "/>
<polygon fill="#FFFFFF" points="9.5,3.1 9,2.8 10.1,0.8 10.7,1.1 9.5,3.1 "/>
<path fill="#FFFFFF" d="M3.1,7c0-2.1,1.7-3.9,3.9-3.9c2.1,0,3.9,1.7,3.9,3.9c0,2.1-1.7,3.9-3.9,3.9C4.9,10.9,3.1,9.1,3.1,7z"/>
</svg>
