<?xml version="1.0" encoding="utf-8"?>
<!-- Generator: Adobe Illustrator 22.1.0, SVG Export Plug-In . SVG Version: 6.00 Build 0)  -->
<svg version="1.1" id="Layer_1" xmlns="http://www.w3.org/2000/svg" xmlns:xlink="http://www.w3.org/1999/xlink" x="0px" y="0px"
	 width="30px" height="30px" viewBox="0 0 30 30" enable-background="new 0 0 30 30" xml:space="preserve">
<polygon fill="#FFFFFF" points="14.3,0 15.7,0 15.7,5.1 14.3,5.1 14.3,0 "/>
<polygon fill="#FFFFFF" points="14.3,24.9 15.6,24.9 15.6,30 14.3,30 14.3,24.9 "/>
<polygon fill="#FFFFFF" points="24.9,15.4 24.9,14 30,14 30,15.4 24.9,15.4 "/>
<polygon fill="#FFFFFF" points="0,15.3 0,13.9 5.1,13.9 5.1,15.3 0,15.3 "/>
<polygon fill="#FFFFFF" points="1.9,7.7 2.6,6.5 7,9 6.4,10.1 1.9,7.7 "/>
<polygon fill="#FFFFFF" points="7.3,2.2 8.4,1.5 11.1,5.8 10,6.5 7.3,2.2 "/>
<polygon fill="#FFFFFF" points="19.4,23.7 20.6,23.1 23.1,27.5 22,28.1 19.4,23.7 "/>
<polygon fill="#FFFFFF" points="23.3,20.2 24,19 28.4,21.5 27.8,22.6 23.3,20.2 "/>
<polygon fill="#FFFFFF" points="8.1,28.2 7,27.6 9.4,23.1 10.6,23.7 8.1,28.2 "/>
<polygon fill="#FFFFFF" points="2.2,22.5 1.5,21.4 5.8,18.7 6.5,19.8 2.2,22.5 "/>
<polygon fill="#FFFFFF" points="23.8,10.6 23.1,9.4 27.5,6.9 28.2,8 23.8,10.6 "/>
<polygon fill="#FFFFFF" points="20.4,6.7 19.2,6.1 21.7,1.6 22.9,2.3 20.4,6.7 "/>
<path fill="#FFFFFF" d="M6.7,15c0-4.6,3.7-8.3,8.3-8.3c4.6,0,8.3,3.7,8.3,8.3c0,4.6-3.7,8.3-8.3,8.3C10.4,23.3,6.7,19.6,6.7,15z"/>
</svg>
