<?xml version="1.0" encoding="utf-8"?>
<!-- Generator: Adobe Illustrator 22.1.0, SVG Export Plug-In . SVG Version: 6.00 Build 0)  -->
<svg version="1.1" id="Layer_1" xmlns="http://www.w3.org/2000/svg" xmlns:xlink="http://www.w3.org/1999/xlink" x="0px" y="0px"
	 width="22px" height="22px" viewBox="0 0 22 22" enable-background="new 0 0 22 22" xml:space="preserve">
<polygon fill="#FFFFFF" points="10.5,0 11.5,0 11.5,3.8 10.5,3.8 10.5,0 "/>
<polygon fill="#FFFFFF" points="10.5,18.2 11.4,18.2 11.4,22 10.5,22 10.5,18.2 "/>
<polygon fill="#FFFFFF" points="18.3,11.3 18.3,10.3 22,10.3 22,11.3 18.3,11.3 "/>
<polygon fill="#FFFFFF" points="0,11.2 0,10.2 3.7,10.2 3.7,11.2 0,11.2 "/>
<polygon fill="#FFFFFF" points="1.4,5.6 1.9,4.8 5.2,6.6 4.7,7.4 1.4,5.6 "/>
<polygon fill="#FFFFFF" points="5.3,1.6 6.2,1.1 8.2,4.3 7.3,4.8 5.3,1.6 "/>
<polygon fill="#FFFFFF" points="14.2,17.4 15.1,16.9 17,20.1 16.1,20.6 14.2,17.4 "/>
<polygon fill="#FFFFFF" points="17.1,14.8 17.6,13.9 20.9,15.7 20.4,16.6 17.1,14.8 "/>
<polygon fill="#FFFFFF" points="6,20.7 5.1,20.2 6.9,16.9 7.8,17.4 6,20.7 "/>
<polygon fill="#FFFFFF" points="1.6,16.5 1.1,15.7 4.3,13.7 4.8,14.5 1.6,16.5 "/>
<polygon fill="#FFFFFF" points="17.5,7.8 17,6.9 20.2,5 20.7,5.9 17.5,7.8 "/>
<polygon fill="#FFFFFF" points="14.9,4.9 14.1,4.5 15.9,1.2 16.8,1.7 14.9,4.9 "/>
<path fill="#FFFFFF" d="M4.9,11c0-3.4,2.7-6.1,6.1-6.1c3.4,0,6.1,2.7,6.1,6.1c0,3.4-2.7,6.1-6.1,6.1C7.7,17.1,4.9,14.3,4.9,11z"/>
</svg>
