<?xml version="1.0" encoding="utf-8"?>
<!-- Generator: Adobe Illustrator 24.2.0, SVG Export Plug-In . SVG Version: 6.00 Build 0)  -->
<svg version="1.1" id="Layer_1" xmlns="http://www.w3.org/2000/svg" xmlns:xlink="http://www.w3.org/1999/xlink" x="0px" y="0px"
	 width="22px" height="22px" viewBox="0 0 22 22" enable-background="new 0 0 22 22" xml:space="preserve">
<rect x="1" y="20"  width="20" height="1"/>
<rect x="1" y="10"  width="20" height="1"/>
<path  d="M8,3H7H6v1v2v1c0,0.5,0.5,1,1,1v1h1V8c0.5,0,1-0.5,1-1V6V4V3H8z"/>
<path  d="M4,4V3H3v1C2.5,4,2,4.5,2,5v1v2v1h1h1h1V8V6V5C5,4.5,4.5,4,4,4z"/>
<polygon  points="19.7,3.8 18.5,1.9 17.7,2.4 18.7,4.1 17.9,4.6 16.8,2.9 16,3.4 17,5.1 16.2,5.7 15.1,4 14.3,4.5 
	15.3,6.2 14.5,6.7 13.4,5 12.6,5.5 13.6,7.2 12.8,7.8 11.7,6.1 10.9,6.6 12.2,8.7 13,8.8 19.6,4.7 "/>
<path  d="M15,18H4c-0.6,0-1-0.4-1-1v-3c0-0.6,0.4-1,1-1l11,1c0.6,0,1,0.4,1,1v2C16,17.6,15.6,18,15,18z"/>
<path  d="M18.5,17h-1c-0.3,0-0.5-0.2-0.5-0.5v-1c0-0.3,0.2-0.5,0.5-0.5h1c0.3,0,0.5,0.2,0.5,0.5v1
	C19,16.8,18.8,17,18.5,17z"/>
</svg>
