<?xml version="1.0" encoding="utf-8"?>
<!-- Generator: Adobe Illustrator 24.2.0, SVG Export Plug-In . SVG Version: 6.00 Build 0)  -->
<svg version="1.1" id="Layer_1" xmlns="http://www.w3.org/2000/svg" xmlns:xlink="http://www.w3.org/1999/xlink" x="0px" y="0px"
	 width="14px" height="14px" viewBox="0 0 14 14" enable-background="new 0 0 14 14" xml:space="preserve">
<rect y="13"  width="14" height="1"/>
<rect y="6"  width="14" height="1"/>
<path  d="M12.3,11h-0.5c-0.4,0-0.7-0.3-0.7-0.7V9.7C11,9.3,11.3,9,11.7,9h0.5C12.7,9,13,9.3,13,9.7v0.5
	C13,10.7,12.7,11,12.3,11z"/>
<polygon  points="13.3,2.3 13.2,1.8 12.2,0.8 11.8,1.2 12.6,1.9 11.9,2.6 11.2,1.8 10.8,2.2 11.6,2.9 10.9,3.6 
	10.2,2.8 9.8,3.2 10.6,3.9 9.9,4.6 9.2,3.8 8.8,4.2 9.8,5.2 10.3,5.3 "/>
<path  d="M7,0H6H5v1v1v1c0,0.5,0.4,1,1,1v1h1V4c0.6,0,1-0.5,1-1V2V1V0H7z"/>
<path  d="M3,1V0H2v1C1.5,1,1,1.5,1,2v1v1v1h1h1h1V4V3V2C4,1.5,3.5,1,3,1z"/>
<path  d="M9,9L2,8C1.5,8,1,8.4,1,9v2c0,0.6,0.5,1,1,1h7c0.6,0,1-0.4,1-1v-1C10,9.4,9.6,9,9,9z"/>
</svg>
