<?xml version="1.0" encoding="utf-8"?>
<!-- Generator: Adobe Illustrator 24.2.0, SVG Export Plug-In . SVG Version: 6.00 Build 0)  -->
<svg version="1.1" id="Layer_1" xmlns="http://www.w3.org/2000/svg" xmlns:xlink="http://www.w3.org/1999/xlink" x="0px" y="0px"
	 width="14px" height="14px" viewBox="0 0 14 14" enable-background="new 0 0 14 14" xml:space="preserve">
<path fill="#FFFFFF" d="M0,13h14v1H0V13z M0,6h14v1H0V6z M12.3,11h-0.5c-0.4,0-0.7-0.3-0.7-0.7V9.7C11,9.3,11.3,9,11.7,9h0.5
	C12.7,9,13,9.3,13,9.7v0.5C13,10.7,12.7,11,12.3,11z M13.3,2.3l-0.1-0.5l-1-1l-0.4,0.4l0.8,0.7l-0.7,0.7l-0.7-0.8l-0.4,0.4l0.8,0.7
	l-0.7,0.7l-0.7-0.8L9.8,3.2l0.8,0.7L9.9,4.6L9.2,3.8L8.8,4.2l1,1l0.5,0.1L13.3,2.3z M7,0H6H5v1v1v1c0,0.5,0.4,1,1,1v1h1V4
	c0.6,0,1-0.5,1-1V2V1V0H7z M3,1V0H2v1C1.5,1,1,1.5,1,2v1v1v1h1h1h1V4V3V2C4,1.5,3.5,1,3,1z M9,9L2,8C1.5,8,1,8.4,1,9v2
	c0,0.6,0.5,1,1,1h7c0.6,0,1-0.4,1-1v-1C10,9.4,9.6,9,9,9z"/>
</svg>
