<?xml version="1.0" encoding="utf-8"?>
<!-- Generator: Adobe Illustrator 24.2.0, SVG Export Plug-In . SVG Version: 6.00 Build 0)  -->
<svg version="1.1" id="Layer_1" xmlns="http://www.w3.org/2000/svg" xmlns:xlink="http://www.w3.org/1999/xlink" x="0px" y="0px"
	 width="22px" height="22px" viewBox="0 0 22 22" enable-background="new 0 0 22 22" xml:space="preserve">
<path fill="#FFFFFF" d="M1,20h20v1H1V20z M1,10h20v1H1V10z M8,3H7H6v1v2v1c0,0.5,0.5,1,1,1v1h1V8c0.5,0,1-0.5,1-1V6V4V3H8z M4,4V3H3
	v1C2.5,4,2,4.5,2,5v1v2v1h1h1h1V8V6V5C5,4.5,4.5,4,4,4z M19.7,3.8l-1.2-1.9l-0.8,0.5l1,1.7l-0.8,0.5l-1.1-1.7L16,3.4l1,1.7l-0.8,0.6
	L15.1,4l-0.8,0.5l1,1.7l-0.8,0.5L13.4,5l-0.8,0.5l1,1.7l-0.8,0.6l-1.1-1.7l-0.8,0.5l1.3,2.1L13,8.8l6.6-4.1L19.7,3.8z M15,18H4
	c-0.6,0-1-0.4-1-1v-3c0-0.6,0.4-1,1-1l11,1c0.6,0,1,0.4,1,1v2C16,17.6,15.6,18,15,18z M18.5,17h-1c-0.3,0-0.5-0.2-0.5-0.5v-1
	c0-0.3,0.2-0.5,0.5-0.5h1c0.3,0,0.5,0.2,0.5,0.5v1C19,16.8,18.8,17,18.5,17z"/>
</svg>
