<?xml version="1.0" encoding="utf-8"?>
<!-- Generator: Adobe Illustrator 22.1.0, SVG Export Plug-In . SVG Version: 6.00 Build 0)  -->
<svg version="1.1" id="Layer_1" xmlns="http://www.w3.org/2000/svg" xmlns:xlink="http://www.w3.org/1999/xlink" x="0px" y="0px"
	 width="30px" height="30px" viewBox="0 0 30 30" enable-background="new 0 0 30 30" xml:space="preserve">
<path fill="#FFFFFF" d="M5.2,21.5c8.4,3.5,14.8,5.6,23.8,8.5c0.2,0,0.4-0.1,0.4-0.3c0-0.2-0.1-0.4-0.3-0.4C15,24.8,3.8,19.9,1.3,18.7
	c-0.3-0.1-0.6,0-0.7,0.3c-0.1,0.3,0,0.5,0.3,0.6c0.6,0.3,1.3,0.6,1.9,0.8l-2,1.5c-0.2,0.3-0.1,0.8,0.2,1c0.2,0.2,0.6,0.1,0.8,0
	L5.2,21.5z"/>
<path fill="#FFFFFF" d="M22.1,6.6c1.3,0,2.4-1.1,2.4-2.4c0-1.3-1.1-2.4-2.4-2.4c-1.3,0-2.4,1.1-2.4,2.4C19.7,5.5,20.7,6.6,22.1,6.6z"/>
<path fill="#FFFFFF" d="M17,12.4l5.1-2.5l4.7,4.4c0.2,0.2,0.5,0.3,0.8,0.3c0.6,0,1.2-0.5,1.1-1.2c0-0.3-0.2-0.6-0.4-0.9l-6.8-6.2
	c-0.2-0.2-0.5-0.4-0.8-0.5L15.6,4l-2.4-3.5C13,0.2,12.8,0,12.4,0c-0.6-0.1-1.2,0.4-1.3,1c0,0.3,0,0.5,0.2,0.7l2.5,3.6
	c0.1,0.1,0.3,0.3,0.4,0.3L17,6.8l-4.7,2.4c-0.7,0.4-1.1,1-1.2,1.8l0,4.3l-4.3,1.9C6.3,17.4,6,17.9,6,18.4c0,0.8,0.6,1.5,1.4,1.5
	c0.3,0,0.5,0,0.7-0.1l5.3-2.4c0.4-0.2,0.7-0.6,0.8-1l0-2.7l3.7,3.3l-0.7,5.6c0,0,0,0.1,0,0.1c0,0.8,0.6,1.5,1.4,1.6
	c0.8,0,1.4-0.5,1.5-1.3l0.8-6.4c0,0,0-0.1,0-0.1c0-0.4-0.2-0.9-0.5-1.1L17,12.4z"/>
</svg>
