<?xml version="1.0" encoding="utf-8"?>
<!-- Generator: Adobe Illustrator 22.1.0, SVG Export Plug-In . SVG Version: 6.00 Build 0)  -->
<svg version="1.1" id="Layer_1" xmlns="http://www.w3.org/2000/svg" xmlns:xlink="http://www.w3.org/1999/xlink" x="0px" y="0px"
	 width="22px" height="22px" viewBox="0 0 22 22" enable-background="new 0 0 22 22" xml:space="preserve">
<path fill="#FFFFFF" d="M5.6,16.5c6.2,2.6,9.1,3.4,15.7,5.5c0.1,0,0.3-0.1,0.3-0.2c0-0.1-0.1-0.3-0.2-0.3C11,18.2,2.8,14.6,0.9,13.7
	c-0.2-0.1-0.4,0-0.5,0.2c-0.1,0.2,0,0.4,0.2,0.5c0.5,0.2,2.7,1.1,3.1,1.3l-2.2,1.7c-0.2,0.2-0.1,0.6,0.2,0.7c0.2,0.1,0.4,0.1,0.6,0
	L5.6,16.5z"/>
<path fill="#FFFFFF" d="M16.2,4.8c1,0,1.8-0.8,1.8-1.8c0-1-0.8-1.8-1.8-1.8c-1,0-1.8,0.8-1.8,1.8C14.4,4,15.2,4.8,16.2,4.8z"/>
<path fill="#FFFFFF" d="M12.5,9.1l3.8-1.8l3.5,3.2c0.2,0.2,0.4,0.2,0.6,0.2c0.5,0,0.8-0.4,0.8-0.8c0-0.2-0.1-0.5-0.3-0.6l-5-4.6
	c-0.2-0.2-0.4-0.3-0.6-0.4l-3.9-1.4L9.7,0.3C9.6,0.2,9.4,0,9.1,0C8.7,0,8.2,0.3,8.2,0.8c0,0.2,0,0.4,0.1,0.5l1.8,2.6
	c0.1,0.1,0.2,0.2,0.3,0.3L12.5,5L9.1,6.7C8.6,7,8.3,7.5,8.2,8l0,3.1L5,12.6c-0.4,0.2-0.6,0.5-0.6,0.9c0,0.6,0.4,1.1,1,1.1
	c0.2,0,0.4,0,0.5-0.1l3.9-1.8c0.3-0.1,0.5-0.4,0.6-0.7l0-1.9l2.7,2.4l-0.5,4.1c0,0,0,0.1,0,0.1c0,0.6,0.4,1.1,1,1.1
	c0.6,0,1.1-0.4,1.1-0.9l0.6-4.7c0,0,0,0,0-0.1c0-0.3-0.1-0.6-0.3-0.8L12.5,9.1z"/>
</svg>
