<?xml version="1.0" encoding="utf-8"?>
<!-- Generator: Adobe Illustrator 22.1.0, SVG Export Plug-In . SVG Version: 6.00 Build 0)  -->
<svg version="1.1" id="Layer_1" xmlns="http://www.w3.org/2000/svg" xmlns:xlink="http://www.w3.org/1999/xlink" x="0px" y="0px"
	 width="14px" height="14px" viewBox="0 0 14 14" enable-background="new 0 0 14 14" xml:space="preserve">
<path fill="#FFFFFF" d="M4,10.8c3.9,1.7,5.4,1.9,9.6,3.2c0.1,0,0.2,0,0.2-0.1c0-0.1,0-0.2-0.1-0.2C7,11.6,1.8,9.3,0.6,8.7c-0.1,0-0.3,0-0.3,0.1
	c0,0.1,0,0.3,0.1,0.3c0.3,0.1,2.2,1,2.4,1.1l-1.6,1.3c-0.1,0.2-0.1,0.4,0.1,0.5c0.1,0.1,0.3,0.1,0.4,0L4,10.8z"/>
<path fill="#FFFFFF" d="M10.3,3.1c0.6,0,1.1-0.5,1.1-1.1c0-0.6-0.5-1.1-1.1-1.1c-0.6,0-1.1,0.5-1.1,1.1C9.2,2.6,9.7,3.1,10.3,3.1z"/>
<path fill="#FFFFFF" d="M8,5.8l2.4-1.2l2.2,2c0.1,0.1,0.2,0.2,0.4,0.2c0.3,0,0.5-0.2,0.5-0.5c0-0.2-0.1-0.3-0.2-0.4L10.1,3C10,2.9,9.9,2.8,9.8,2.7
	L7.3,1.8L6.2,0.2C6.1,0.1,6,0,5.8,0C5.5,0,5.2,0.2,5.2,0.5c0,0.1,0,0.2,0.1,0.3l1.1,1.7c0.1,0.1,0.1,0.1,0.2,0.2L8,3.2L5.8,4.3
	C5.5,4.4,5.3,4.7,5.2,5.1l0,2L3.2,8C3,8.1,2.8,8.3,2.8,8.6c0,0.4,0.3,0.7,0.7,0.7c0.1,0,0.2,0,0.3-0.1l2.5-1.1
	c0.2-0.1,0.3-0.3,0.4-0.5l0-1.2L8.3,8L8,10.6c0,0,0,0,0,0c0,0.4,0.3,0.7,0.7,0.7c0.4,0,0.7-0.2,0.7-0.6l0.4-3c0,0,0,0,0,0
	c0-0.2-0.1-0.4-0.2-0.5L8,5.8z"/>
</svg>
