<?xml version="1.0" encoding="utf-8"?>
<!-- Generator: Adobe Illustrator 20.0.0, SVG Export Plug-In . SVG Version: 6.00 Build 0)  -->
<svg version="1.1" id="Icons" xmlns="http://www.w3.org/2000/svg" xmlns:xlink="http://www.w3.org/1999/xlink" x="0px" y="0px"
	 width="22px" height="22px" viewBox="0 0 22 22" enable-background="new 0 0 22 22" xml:space="preserve">
<g>
	<polygon fill="#231F20" points="0,16 1,16 3,17 4,17 6,16 7,16 9,17 10,17 12,16 13,16 15,17 16,17 18,16 19,16 21,17 22,17 22,19 21,19 19,18 
		18,18 16,19 15,19 13,18 12,18 10,19 9,19 7,18 6,18 4,19 3,19 1,18 0,18 	"/>
	<polygon fill="#231F20" points="6,14 7,14 9,15 10,15 12,14 13,14 15,15 16,15 17.5,14.2 13,7 18,6 20,5 20,4 18,3 10,4 9,5 9,6 11,10 3,15 4,15 	
		"/>
	<circle fill="#231F20" cx="19.5" cy="10.5" r="2.5"/>
</g>
</svg>
