<?xml version="1.0" encoding="utf-8"?>
<!-- Generator: Adobe Illustrator 20.0.0, SVG Export Plug-In . SVG Version: 6.00 Build 0)  -->
<svg version="1.1" id="Icons" xmlns="http://www.w3.org/2000/svg" xmlns:xlink="http://www.w3.org/1999/xlink" x="0px" y="0px"
	 width="30px" height="30px" viewBox="0 0 30 30" enable-background="new 0 0 30 30" xml:space="preserve">
<g>
	<polygon fill="#FFFFFF" points="0,24.7 2,24 3,24 6,25 7,25 10,24 11,24 14,25 15,25 18,24 19,24 22,25 23,25 26,24 27,24 30,25 30,22 27,21 
		26,21 23,22 22,22 19,21 18,21 15,22 14,22 11,21 10,21 7,22 6,22 3,21 2,21 0,21.7 	"/>
	<polygon fill="#FFFFFF" points="10,19 11,19 14,20 15,20 18,19 19,19 22,20 23,20 24.7,19.4 23.3,17 23,17 23,16.4 19.5,10 26,8 28,6 26,4 13,7 
		13,8 16,13 6,20 7,20 	"/>
	<circle fill="#FFFFFF" cx="26.5" cy="13.5" r="3.5"/>
</g>
</svg>
