<?xml version="1.0" encoding="utf-8"?>
<!-- Generator: Adobe Illustrator 18.1.1, SVG Export Plug-In . SVG Version: 6.00 Build 0)  -->
<svg version="1.1" id="Icons" xmlns="http://www.w3.org/2000/svg" xmlns:xlink="http://www.w3.org/1999/xlink" x="0px" y="0px"
	 viewBox="0 0 24 24" enable-background="new 0 0 24 24" xml:space="preserve">
<g opacity="0.1">
	<polygon points="2,18 3,18 5,19 6,19 8,18 9,18 11,19 12,19 14,18 15,18 17,19 18,19 20,18 21,18 23,19 24,19 24,21 23,21 21,20 
		20,20 18,21 17,21 15,20 14,20 12,21 11,21 9,20 8,20 6,21 5,21 3,20 2,20 	"/>
	<polygon points="8,16 9,16 11,17 12,17 14,16 15,16 17,17 18,17 19.5,16.2 15,9 20,8 22,7 22,6 20,5 12,6 11,7 11,8 13,12 5,17 
		6,17 	"/>
	<circle cx="21.5" cy="12.5" r="2.5"/>
</g>
<g opacity="0.2">
	<polygon points="1,17 2,17 4,18 5,18 7,17 8,17 10,18 11,18 13,17 14,17 16,18 17,18 19,17 20,17 22,18 23,18 23,20 22,20 20,19 
		19,19 17,20 16,20 14,19 13,19 11,20 10,20 8,19 7,19 5,20 4,20 2,19 1,19 	"/>
	<polygon points="7,15 8,15 10,16 11,16 13,15 14,15 16,16 17,16 18.5,15.2 14,8 19,7 21,6 21,5 19,4 11,5 10,6 10,7 12,11 4,16 
		5,16 	"/>
	<circle cx="20.5" cy="11.5" r="2.5"/>
</g>
<g>
	<polygon points="0,16 1,16 3,17 4,17 6,16 7,16 9,17 10,17 12,16 13,16 15,17 16,17 18,16 19,16 21,17 22,17 22,19 21,19 19,18 
		18,18 16,19 15,19 13,18 12,18 10,19 9,19 7,18 6,18 4,19 3,19 1,18 0,18 	"/>
	<polygon points="6,14 7,14 9,15 10,15 12,14 13,14 15,15 16,15 17.5,14.2 13,7 18,6 20,5 20,4 18,3 10,4 9,5 9,6 11,10 3,15 4,15 	
		"/>
	<circle cx="19.5" cy="10.5" r="2.5"/>
</g>
</svg>
