<?xml version="1.0" encoding="utf-8"?>
<!-- Generator: Adobe Illustrator 20.0.0, SVG Export Plug-In . SVG Version: 6.00 Build 0)  -->
<svg version="1.1" id="Icons" xmlns="http://www.w3.org/2000/svg" xmlns:xlink="http://www.w3.org/1999/xlink" x="0px" y="0px"
	 width="14px" height="14px" viewBox="0 0 14 14" enable-background="new 0 0 14 14" xml:space="preserve">
<g>
	<path fill="#231F20" d="M14,10.5L13,11h-1l-2-1H9l-2,1H6l-2-1H3l-2,1H0v1h1l2-1h1l2,1h1l2-1h1l2,1h1l1-0.5c0-0.2,0-0.3,0-0.5S14,10.7,14,10.5z"/>
	<polygon fill="#231F20" points="1,9 10,9 8,5 8,4 11,3 12,2 11,1 5,3 6,6 	"/>
	<circle fill="#231F20" cx="11.5" cy="5.5" r="1.5"/>
</g>
</svg>
