<?xml version="1.0" encoding="utf-8"?>
<!-- Generator: Adobe Illustrator 18.1.1, SVG Export Plug-In . SVG Version: 6.00 Build 0)  -->
<svg version="1.1" id="Icons" xmlns="http://www.w3.org/2000/svg" xmlns:xlink="http://www.w3.org/1999/xlink" x="0px" y="0px"
	 viewBox="0 0 32 32" enable-background="new 0 0 32 32" xml:space="preserve">
<g opacity="0.1">
	<polygon points="2,26.7 4,26 5,26 8,27 9,27 12,26 13,26 16,27 17,27 20,26 21,26 24,27 25,27 28,26 29,26 32,27 32,24 29,23 
		28,23 25,24 24,24 21,23 20,23 17,24 16,24 13,23 12,23 9,24 8,24 5,23 4,23 2,23.7 	"/>
	<polygon points="12,21 13,21 16,22 17,22 20,21 21,21 24,22 25,22 26.7,21.4 25.3,19 25,19 25,18.4 21.5,12 28,10 30,8 28,6 15,9 
		15,10 18,15 8,22 9,22 	"/>
	<circle cx="28.5" cy="15.5" r="3.5"/>
</g>
<g opacity="0.2">
	<polygon points="1,25.7 3,25 4,25 7,26 8,26 11,25 12,25 15,26 16,26 19,25 20,25 23,26 24,26 27,25 28,25 31,26 31,23 28,22 
		27,22 24,23 23,23 20,22 19,22 16,23 15,23 12,22 11,22 8,23 7,23 4,22 3,22 1,22.7 	"/>
	<polygon points="11,20 12,20 15,21 16,21 19,20 20,20 23,21 24,21 25.7,20.4 24.3,18 24,18 24,17.4 20.5,11 27,9 29,7 27,5 14,8 
		14,9 17,14 7,21 8,21 	"/>
	<circle cx="27.5" cy="14.5" r="3.5"/>
</g>
<g>
	<polygon points="0,24.7 2,24 3,24 6,25 7,25 10,24 11,24 14,25 15,25 18,24 19,24 22,25 23,25 26,24 27,24 30,25 30,22 27,21 
		26,21 23,22 22,22 19,21 18,21 15,22 14,22 11,21 10,21 7,22 6,22 3,21 2,21 0,21.7 	"/>
	<polygon points="10,19 11,19 14,20 15,20 18,19 19,19 22,20 23,20 24.7,19.4 23.3,17 23,17 23,16.4 19.5,10 26,8 28,6 26,4 13,7 
		13,8 16,13 6,20 7,20 	"/>
	<circle cx="26.5" cy="13.5" r="3.5"/>
</g>
</svg>
