<?xml version="1.0" encoding="utf-8"?>
<!-- Generator: Adobe Illustrator 24.2.0, SVG Export Plug-In . SVG Version: 6.00 Build 0)  -->
<svg version="1.1" id="Layer_1" xmlns="http://www.w3.org/2000/svg" xmlns:xlink="http://www.w3.org/1999/xlink" x="0px" y="0px"
	 width="22px" height="22px" viewBox="0 0 22 22" enable-background="new 0 0 22 22" xml:space="preserve">
<circle  cx="5" cy="5" r="3"/>
<rect x="12" y="8"  width="9" height="1"/>
<path  d="M18,3V1h-3v2c0,0.5,0.5,1,1,1v2h-1v1h1h1h1V6h-1V4C17.5,4,18,3.5,18,3z"/>
<path  d="M17.5,10H15l-2.5,4L9,9H7l-2,5L3,9H1v12h8v-7l3,3h1l3-6h1.5c0.3,0,0.5-0.2,0.5-0.5C18,10.2,17.8,10,17.5,10z
	"/>
</svg>
