<?xml version="1.0" encoding="utf-8"?>
<!-- Generator: Adobe Illustrator 24.2.0, SVG Export Plug-In . SVG Version: 6.00 Build 0)  -->
<svg version="1.1" id="Layer_1" xmlns="http://www.w3.org/2000/svg" xmlns:xlink="http://www.w3.org/1999/xlink" x="0px" y="0px"
	 width="22px" height="22px" viewBox="0 0 22 22" enable-background="new 0 0 22 22" xml:space="preserve">
<path fill="#FFFFFF" d="M5,2c1.7,0,3,1.3,3,3S6.7,8,5,8S2,6.7,2,5S3.3,2,5,2z M12,8h9v1h-9V8z M18,3V1h-3v2c0,0.5,0.5,1,1,1v2h-1v1
	h1h1h1V6h-1V4C17.5,4,18,3.5,18,3z M17.5,10H15l-2.5,4L9,9H7l-2,5L3,9H1v12h8v-7l3,3h1l3-6h1.5c0.3,0,0.5-0.2,0.5-0.5
	S17.8,10,17.5,10z"/>
</svg>
