<?xml version="1.0" encoding="utf-8"?>
<!-- Generator: Adobe Illustrator 22.0.1, SVG Export Plug-In . SVG Version: 6.00 Build 0)  -->
<svg version="1.1" id="Layer_1" xmlns="http://www.w3.org/2000/svg" xmlns:xlink="http://www.w3.org/1999/xlink" x="0px" y="0px"
	 width="14px" height="14px" viewBox="0 0 14 14" enable-background="new 0 0 14 14" xml:space="preserve">
<path d="M10.8,0.1c-0.7,0.8-1.6,1.6-3,2.2C5.4,3.2,3.4,3.5,3.4,3.5l0,0L1,3.9C0.6,4,0.3,4.3,0.4,4.7C0.5,5,0.7,5.2,1.1,5.2
	c0,0,0.1,0,0.1,0l2.4-0.4c0,0,0,0,0,0c0,0,0,0,0,0.1c0,0,0,0,0,0C1.9,5.7,0.4,6.5,0.3,6.6C0,6.8-0.1,7.2,0.1,7.5
	c0.1,0.2,0.4,0.3,0.6,0.3c0.1,0,0.2,0,0.3-0.1c0,0,1.6-0.9,3.5-1.7c0,0,0,0,0,0c0,0,0.1,0,0,0.1c0,0,0,0,0,0C3.5,6.7,2.3,7.7,1.5,9
	C1.3,9.3,1.4,9.8,1.7,10C1.8,10,1.9,10.1,2,10.1c0.2,0,0.4-0.1,0.6-0.3c0.5-0.8,1.2-1.5,1.9-2c0,0,1.8-1.6,3.6-1.2
	c1.8,0.3,1.1,1.7,1,2.5C9,9.9,9.4,10.3,9.7,10.4c0.1,0,0.1,0,0.2,0.1c0.2,0,0.3-0.2,0.3-0.2c0,0,0-0.1,0-0.1C11.2,6.5,12.6,4,14,2.2
	L10.8,0.1z"/>
<polygon points="10.5,13 9.8,13 8.7,11.8 7.6,13 6.9,13 5.1,11.2 3.3,13 2.7,13 1.5,12 0.4,13.2 0.4,13.9 6.9,13.9 13.4,13.9 
	13.4,13.2 11.8,11.1 "/>
</svg>
