<?xml version="1.0" encoding="utf-8"?>
<!-- Generator: Adobe Illustrator 22.0.1, SVG Export Plug-In . SVG Version: 6.00 Build 0)  -->
<svg version="1.1" id="Layer_1" xmlns="http://www.w3.org/2000/svg" xmlns:xlink="http://www.w3.org/1999/xlink" x="0px" y="0px"
	 width="30px" height="30px" viewBox="0 0 30 30" enable-background="new 0 0 30 30" xml:space="preserve">
<path fill="#FFFFFF" d="M23,0.2c-1.4,1.6-3.5,3.5-6.4,4.6c-5.1,2-9.5,2.7-9.5,2.7l0.1,0L2.1,8.4C1.3,8.5,0.7,9.2,0.9,10c0.1,0.7,0.7,1.2,1.4,1.2
	c0.1,0,0.2,0,0.2,0l5.2-0.8c0,0,0.1,0,0.1,0c0,0,0,0.1,0,0.1c0,0,0,0-0.1,0.1C4,12.2,0.9,14,0.7,14.1c-0.7,0.4-0.9,1.3-0.5,2
	c0.3,0.5,0.8,0.7,1.3,0.7c0.2,0,0.5-0.1,0.7-0.2c0,0,3.4-2,7.4-3.6c0,0,0,0,0.1,0c0.1,0,0.1,0.1,0.1,0.1c0,0,0,0,0,0
	c-2.2,1.3-4.7,3.3-6.5,6.2c-0.4,0.7-0.2,1.6,0.4,2c0.2,0.2,0.5,0.2,0.8,0.2c0.5,0,0.9-0.2,1.2-0.7c1.1-1.8,2.5-3.1,4-4.2
	c0,0,3.8-3.3,7.7-2.6c3.9,0.7,2.4,3.7,2.2,5.4c-0.3,1.7,0.6,2.6,1.4,2.9c0.2,0.1,0.3,0.1,0.4,0.1c0.5,0,0.6-0.3,0.6-0.5
	c0-0.1,0.1-0.2,0.1-0.3c2-7.7,5.1-13.2,8-17L23,0.2z"/>
<polygon fill="#FFFFFF" points="22.4,27.4 21,27.4 18.6,25.3 16.2,27.4 14.8,27.4 11,23.9 7.1,27.4 5.7,27.4 3.3,25.7 0.9,28.3 0.9,29.8 14.8,29.8 
	28.7,29.8 28.7,28.3 25.3,23.7 "/>
</svg>
