<?xml version="1.0" encoding="utf-8"?>
<!-- Generator: Adobe Illustrator 22.0.1, SVG Export Plug-In . SVG Version: 6.00 Build 0)  -->
<svg version="1.1" id="Layer_1" xmlns="http://www.w3.org/2000/svg" xmlns:xlink="http://www.w3.org/1999/xlink" x="0px" y="0px"
	 width="22px" height="22px" viewBox="0 0 22 22" enable-background="new 0 0 22 22" xml:space="preserve">
<path d="M16.9,0.2c-1,1.2-2.6,2.6-4.7,3.4c-3.7,1.5-7,2-7,2l0,0L1.5,6.1c-0.6,0.1-1,0.6-0.9,1.2c0.1,0.5,0.5,0.9,1,0.9
	c0.1,0,0.1,0,0.2,0l3.8-0.6c0,0,0,0,0.1,0c0,0,0,0.1,0,0.1c0,0,0,0-0.1,0c-2.8,1.2-5.1,2.5-5.2,2.6c-0.5,0.3-0.7,0.9-0.4,1.5
	c0.2,0.3,0.6,0.5,0.9,0.5c0.2,0,0.4,0,0.5-0.1c0,0,2.5-1.4,5.4-2.7c0,0,0,0,0,0c0.1,0,0.1,0.1,0,0.1c0,0,0,0,0,0
	c-1.6,1-3.4,2.4-4.8,4.5c-0.3,0.5-0.2,1.2,0.3,1.5c0.2,0.1,0.4,0.2,0.6,0.2c0.4,0,0.7-0.2,0.9-0.5C4.9,14,5.9,13,7,12.2
	c0,0,2.8-2.5,5.6-1.9c2.9,0.5,1.8,2.7,1.6,3.9c-0.2,1.3,0.4,1.9,1,2.1c0.1,0.1,0.2,0.1,0.3,0.1c0.3,0,0.4-0.2,0.5-0.3
	c0-0.1,0-0.2,0.1-0.2c1.4-5.6,3.7-9.6,5.9-12.5L16.9,0.2z"/>
<polygon points="16.5,20.1 15.4,20.1 13.7,18.5 11.9,20.1 10.8,20.1 8,17.5 5.2,20.1 4.2,20.1 2.4,18.9 0.7,20.8 0.7,21.8 
	10.8,21.8 21,21.8 21,20.8 18.6,17.4 "/>
</svg>
