<?xml version="1.0" encoding="utf-8"?>
<!-- Generator: Adobe Illustrator 22.1.0, SVG Export Plug-In . SVG Version: 6.00 Build 0)  -->
<svg version="1.1" id="Layer_1" xmlns="http://www.w3.org/2000/svg" xmlns:xlink="http://www.w3.org/1999/xlink" x="0px" y="0px"
	 width="22px" height="22px" viewBox="0 0 22 22" enable-background="new 0 0 22 22" xml:space="preserve">
<path fill="#FFFFFF" d="M11.3,14.6c-0.2,0.1-0.4,0.1-0.7,0.1c-0.3,0-0.5,0-0.7-0.1l-2.6,6C7,21.1,6.4,21.3,5.8,21c-0.6-0.3-0.8-1-0.6-1.6l3.2-7.3
	h4.1v-0.7l2.1-1c0.5-0.3,1.2,0.2,1.4,0.8l1,4c0.1,0.6-0.2,1.2-0.8,1.3c-0.6,0.1-1.2-0.2-1.3-0.8l-0.6-2.6L11.3,14.6z"/>
<path fill="#FFFFFF" d="M13.1,10.4c4.5-2.2,6.2-9.8,6.2-10.4h-0.6c-0.2,1.6-2.1,7.9-5.6,9.7V10.4z"/>
<path fill="#FFFFFF" d="M4.9,8.7C5.1,9.1,5.6,9.3,6,9.1l2.4-0.9V11h4.1V7.7l3.6-5.8c0.3-0.4,0.1-1-0.3-1.3c-0.4-0.3-1-0.1-1.2,0.3l-3.1,5l-1.9,0
	c-0.1,0-0.2,0-0.4,0.1L6,7.1L4.4,4.6C4.1,4.2,3.5,4.1,3.1,4.3C2.7,4.6,2.6,5.2,2.8,5.6L4.9,8.7z"/>
<path fill="#FFFFFF" d="M10.1,5.5c0.9,0,1.6-0.7,1.6-1.6S11,2.2,10.1,2.2C9.2,2.2,8.5,3,8.5,3.9S9.2,5.5,10.1,5.5z"/>
<rect fill="#FFFFFF" x="12" y="15" width="1" height="7"/>
</svg>
