<?xml version="1.0" encoding="utf-8"?>
<!-- Generator: Adobe Illustrator 22.1.0, SVG Export Plug-In . SVG Version: 6.00 Build 0)  -->
<svg version="1.1" id="Layer_1" xmlns="http://www.w3.org/2000/svg" xmlns:xlink="http://www.w3.org/1999/xlink" x="0px" y="0px"
	 width="30px" height="30px" viewBox="0 0 30 30" enable-background="new 0 0 30 30" xml:space="preserve">
<path fill="#FFFFFF" d="M15.3,19.9c-0.3,0.1-0.6,0.2-0.9,0.2c-0.3,0-0.7,0-1-0.1l-3.5,8.1c-0.3,0.7-1.2,1-2,0.6c-0.8-0.4-1.1-1.4-0.8-2.1l4.3-9.5
	H17v-1.4l2.8-1.3c0.7-0.4,1.7,0.3,1.9,1l1.4,5.5c0.2,0.8-0.3,1.6-1.1,1.8c-0.8,0.2-1.6-0.3-1.8-1.1L19.3,18L15.3,19.9z"/>
<path fill="#FFFFFF" d="M17.9,14.2c6.1-3,8.4-13.3,8.4-14.2h-0.8c-0.3,2.2-2.9,10.8-7.6,13.3V14.2z"/>
<path fill="#FFFFFF" d="M6.7,11.9c0.3,0.5,1,0.7,1.5,0.5l3.2-1.3V16H17v-5.6l5-7.9c0.4-0.6,0.2-1.3-0.4-1.7c-0.6-0.4-1.3-0.2-1.7,0.4l-4.2,6.8
	l-2.5,0c-0.2,0-0.3,0-0.5,0.1L8.2,9.7L6,6.3C5.6,5.7,4.8,5.6,4.3,5.9C3.7,6.3,3.5,7.1,3.9,7.7L6.7,11.9z"/>
<path fill="#FFFFFF" d="M13.8,7.5c1.2,0,2.2-1,2.2-2.2S15,3,13.8,3c-1.2,0-2.2,1-2.2,2.2S12.6,7.5,13.8,7.5z"/>
<polygon fill="#FFFFFF" points="17,30 17,20.1 16,20.5 16,30 "/>
</svg>
