<?xml version="1.0" encoding="utf-8"?>
<!-- Generator: Adobe Illustrator 22.1.0, SVG Export Plug-In . SVG Version: 6.00 Build 0)  -->
<svg version="1.1" id="Layer_1" xmlns="http://www.w3.org/2000/svg" xmlns:xlink="http://www.w3.org/1999/xlink" x="0px" y="0px"
	 width="14px" height="14px" viewBox="0 0 14 14" enable-background="new 0 0 14 14" xml:space="preserve">
<path d="M7.2,9.3C7,9.3,6.9,9.4,6.7,9.4c-0.2,0-0.3,0-0.5-0.1l-1.7,3.8c-0.2,0.3-0.6,0.5-0.9,0.3c-0.4-0.2-0.5-0.7-0.4-1l2-4.4H8
	V7.3l1.2-0.6c0.3-0.2,0.8,0.1,0.9,0.5l0.6,2.6c0.1,0.4-0.1,0.7-0.5,0.8c-0.4,0.1-0.7-0.1-0.8-0.5L9,8.4L7.2,9.3z"/>
<path d="M8.4,6.6c2.8-1.4,3.9-6.2,3.9-6.6h-0.4c-0.1,1-1.4,5-3.5,6.2V6.6z"/>
<path d="M3.1,5.6c0.1,0.2,0.4,0.3,0.7,0.2l1.5-0.6V7h2.6V4.9l2.3-3.7c0.2-0.3,0.1-0.6-0.2-0.8C9.8,0.2,9.4,0.3,9.3,0.5l-2,3.2
	l-1.2,0c-0.1,0-0.2,0-0.2,0l-2,0.8L2.8,2.9C2.6,2.7,2.3,2.6,2,2.8C1.7,2.9,1.6,3.3,1.8,3.6L3.1,5.6z"/>
<path d="M6.5,3.5c0.6,0,1-0.5,1-1s-0.5-1-1-1c-0.6,0-1,0.5-1,1S5.9,3.5,6.5,3.5z"/>
<rect x="7" y="10" width="1" height="4"/>
</svg>
