<?xml version="1.0" encoding="utf-8"?>
<!-- Generator: Adobe Illustrator 20.0.0, SVG Export Plug-In . SVG Version: 6.00 Build 0)  -->
<svg version="1.1" id="Icons" xmlns="http://www.w3.org/2000/svg" xmlns:xlink="http://www.w3.org/1999/xlink" x="0px" y="0px"
	 width="14px" height="14px" viewBox="0 0 14 14" enable-background="new 0 0 14 14" xml:space="preserve">
<g>
	<path fill="#FFFFFF" d="M7,0C6.3,0.1,4.1,1.2,4,6.8C4,12.7,6.3,14,7,14v-4c-0.5,0-0.7-0.5-0.8-1.7c-0.1-0.8-0.1-1.5,0-2.5C6.2,5,6.4,4,7,4V0z"/>
	<polygon fill="#FFFFFF" points="8,10 9,10 10,11 10,13 9,14 8,14 	"/>
	<polygon fill="#FFFFFF" points="8,0 9,0 10,1 10,3 9,4 8,4 	"/>
</g>
</svg>
