<?xml version="1.0" encoding="utf-8"?>
<!-- Generator: Adobe Illustrator 18.1.1, SVG Export Plug-In . SVG Version: 6.00 Build 0)  -->
<svg version="1.1" id="Icons" xmlns="http://www.w3.org/2000/svg" xmlns:xlink="http://www.w3.org/1999/xlink" x="0px" y="0px"
	 viewBox="0 0 16 16" enable-background="new 0 0 16 16" xml:space="preserve">
<g opacity="0.5">
	<path d="M9,2C8.3,2.1,6.1,3.2,6,8.8C6,14.7,8.3,16,9,16v-4c-0.5,0-0.7-0.5-0.8-1.7c-0.1-0.8-0.1-1.5,0-2.5C8.2,7,8.4,6,9,6V2z"/>
	<polygon points="10,12 11,12 12,13 12,15 11,16 10,16 	"/>
	<polygon points="10,2 11,2 12,3 12,5 11,6 10,6 	"/>
</g>
<g opacity="0.75">
	<path d="M8,1C7.3,1.1,5.1,2.2,5,7.8C5,13.7,7.3,15,8,15v-4c-0.5,0-0.7-0.5-0.8-1.7c-0.1-0.8-0.1-1.5,0-2.5C7.2,6,7.4,5,8,5V1z"/>
	<polygon points="9,11 10,11 11,12 11,14 10,15 9,15 	"/>
	<polygon points="9,1 10,1 11,2 11,4 10,5 9,5 	"/>
</g>
<g>
	<path fill="#E6E6E6" d="M7,0C6.3,0.1,4.1,1.2,4,6.8C4,12.7,6.3,14,7,14v-4c-0.5,0-0.7-0.5-0.8-1.7c-0.1-0.8-0.1-1.5,0-2.5
		C6.2,5,6.4,4,7,4V0z"/>
	<polygon fill="#E6E6E6" points="8,10 9,10 10,11 10,13 9,14 8,14 	"/>
	<polygon fill="#E6E6E6" points="8,0 9,0 10,1 10,3 9,4 8,4 	"/>
</g>
</svg>
