<?xml version="1.0" encoding="utf-8"?>
<!-- Generator: Adobe Illustrator 20.0.0, SVG Export Plug-In . SVG Version: 6.00 Build 0)  -->
<svg version="1.1" id="Icons" xmlns="http://www.w3.org/2000/svg" xmlns:xlink="http://www.w3.org/1999/xlink" x="0px" y="0px"
	 width="30px" height="30px" viewBox="0 0 30 30" enable-background="new 0 0 30 30" xml:space="preserve">
<g>
	<path fill="#FFFFFF" d="M16,0c-1.4,0.2-7,2.9-7,15c0,12.7,5.6,15,7,15v-9c-1.2,0-1.7-0.4-2-3c-0.2-1.7-0.2-3.9,0-6c0.2-1.5,0.7-3,2-3V0z"/>
	<path fill="#FFFFFF" d="M19.4,30c0.5,0,1.6-0.4,1.6-0.9l0,0V22c0-0.5-1.1-0.9-1.6-0.9H17V30H19.4L19.4,30L19.4,30z"/>
	<path fill="#FFFFFF" d="M19.6,9C20.1,9,21,8.6,21,8.1V0.9C21,0.4,20.1,0,19.6,0H17v9H19.6L19.6,9L19.6,9z"/>
</g>
</svg>
