<?xml version="1.0" encoding="utf-8"?>
<!-- Generator: Adobe Illustrator 20.0.0, SVG Export Plug-In . SVG Version: 6.00 Build 0)  -->
<svg version="1.1" id="Icons" xmlns="http://www.w3.org/2000/svg" xmlns:xlink="http://www.w3.org/1999/xlink" x="0px" y="0px"
	 width="22px" height="22px" viewBox="0 0 22 22" enable-background="new 0 0 22 22" xml:space="preserve">
<g>
	<path fill="#231F20" d="M12,0c-1,0.1-4.9,1.8-5,10.7C6.9,20,11,22,12,22v-6c-0.9,0-1.1-1.1-1.3-3c-0.1-1.3-0.2-2.4,0-4c0.1-1.1,0.4-3,1.3-3V0z"/>
	<polygon fill="#231F20" points="13,0 15,0 16,1 16,5 15,6 13,6 	"/>
	<polygon fill="#231F20" points="13,16 15,16 16,17 16,21 15,22 13,22 	"/>
</g>
</svg>
