<?xml version="1.0" encoding="utf-8"?>
<!-- Generator: Adobe Illustrator 22.1.0, SVG Export Plug-In . SVG Version: 6.00 Build 0)  -->
<svg version="1.1" id="Layer_1" xmlns="http://www.w3.org/2000/svg" xmlns:xlink="http://www.w3.org/1999/xlink" x="0px" y="0px"
	 width="30px" height="30px" viewBox="0 0 30 30" enable-background="new 0 0 30 30" xml:space="preserve">
<path d="M3,14.4c-0.6,0-1.1,0.5-1.1,1.1s0.5,1.1,1.1,1.1c0.6,0,1.1-0.5,1.1-1.1S3.6,14.4,3,14.4z"/>
<path d="M18.9,5c1.4,0,2.5-1.1,2.5-2.5c0-1.4-1.1-2.5-2.5-2.5c-1.4,0-2.5,1.1-2.5,2.5C16.4,3.9,17.6,5,18.9,5z"/>
<path d="M29.6,27.1l-4-4.8c0,0-1.3-7.4-1.3-7.4c0,0-0.2-0.8-0.2-0.8c0,0-0.5-2.3-0.9-4.1c0.6,0.4,1.2,0.7,1.2,0.7
	c0,0.1,2.1,4.1,2.1,4.1c0.2,0.3,0.4,0.5,0.7,0.6c0.3,0.1,0.7,0.1,1-0.1c0.3-0.2,0.5-0.4,0.6-0.7c0.1-0.3,0.1-0.7-0.1-1l-2.3-4.4
	c0,0-0.1-0.2-0.2-0.3c-0.2-0.2-0.5-0.4-0.5-0.4L21.3,6c-0.6-0.3-1.2-0.4-1.8-0.3c-0.3,0.1-0.5,0.2-0.8,0.3c0,0-1,0.4-1.6,1.8
	l-2.3,4.6c0,0-3.5,0.7-3.6,0.7c0,0-0.1,0-0.1,0l-3.3-2.3C7,10.4,6.9,8.8,6.9,8.8C6.8,7.7,6.2,6.7,5.3,6C4.4,5.4,3.3,5.1,2.3,5.3
	C1.6,5.4,0.9,5.8,0.5,6.4C0.2,6.8,0,7.4,0,7.9c0,0,0,0.5,0,0.5c0.2,1,0.8,1.9,1.6,2.5c0.9,0.6,1.9,0.9,2.9,0.7l0.2,0
	c0,0,1.5-0.5,2.2,0c0,0,2.5,1.7,3.1,2.2C10.1,14,10,14.2,10,14.5c0,0.1,0,0.2,0,0.2c0.1,0.7,0.8,1.1,1.5,1l4.4-0.8
	c0,0,0.4-0.1,0.5-0.2c0.2-0.1,0.4-0.4,0.4-0.4l1.1-2.3c0,0,0.8,3.7,0.8,3.8c-0.1,0.1-3.6,3.8-3.6,3.8l-0.1,0.1
	c-0.3,0.3-0.5,0.7-0.5,1.2v7.8c0,0.8,0.7,1.5,1.5,1.5c0.8,0,1.5-0.7,1.5-1.5c0,0,0-6.4,0-6.5c0.3-0.3,3-3.1,3.7-3.9
	c0.1,0.4,0.8,4.4,0.8,4.4c0.1,0.3,0.2,0.7,0.5,0.9c0,0,4.8,5.7,4.8,5.7c0.3,0.3,0.6,0.5,1,0.5c0.4,0,0.8-0.1,1.1-0.4
	c0.3-0.3,0.5-0.7,0.5-1.2C30,27.7,29.8,27.4,29.6,27.1z M5.7,10c-0.3,0.4-0.7,0.6-1.2,0.7c-0.7,0.1-1.5-0.1-2.2-0.6
	C1.6,9.7,1.2,9,1.1,8.3l0-0.4c0-0.4,0.1-0.7,0.3-1C2,6,3.5,6,4.7,6.8C5.9,7.7,6.3,9.1,5.7,10z"/>
</svg>
