<?xml version="1.0" encoding="utf-8"?>
<!-- Generator: Adobe Illustrator 22.1.0, SVG Export Plug-In . SVG Version: 6.00 Build 0)  -->
<svg version="1.1" id="Layer_1" xmlns="http://www.w3.org/2000/svg" xmlns:xlink="http://www.w3.org/1999/xlink" x="0px" y="0px"
	 width="22px" height="22px" viewBox="0 0 22 22" enable-background="new 0 0 22 22" xml:space="preserve">
<path fill="#FFFFFF" d="M2.5,10.7c-0.5,0-0.8,0.4-0.8,0.8s0.4,0.8,0.8,0.8c0.5,0,0.8-0.4,0.8-0.8S3,10.7,2.5,10.7z"/>
<path fill="#FFFFFF" d="M13.9,3.6c1,0,1.8-0.8,1.8-1.8c0-1-0.8-1.8-1.8-1.8c-1,0-1.8,0.8-1.8,1.8C12.1,2.8,12.9,3.6,13.9,3.6z"/>
<path fill="#FFFFFF" d="M21.7,19.9l-3-3.5c0,0-0.9-5.4-0.9-5.4c0,0-0.1-0.6-0.1-0.6c0,0-0.4-1.7-0.7-3c0.5,0.3,0.9,0.5,0.9,0.5c0,0.1,1.6,3,1.6,3
	c0.1,0.2,0.3,0.4,0.5,0.5c0.2,0.1,0.5,0.1,0.7-0.1c0.2-0.1,0.4-0.3,0.5-0.5c0.1-0.2,0.1-0.5-0.1-0.7l-1.7-3.2c0,0-0.1-0.1-0.2-0.2
	c-0.1-0.1-0.4-0.3-0.4-0.3l-3.3-1.9c-0.4-0.2-0.9-0.3-1.3-0.2c-0.2,0-0.4,0.1-0.6,0.2c0,0-0.8,0.3-1.2,1.3l-1.7,3.4
	c0,0-2.6,0.5-2.7,0.5c0,0,0,0-0.1,0L5.7,8C5.2,7.6,5.1,6.5,5.1,6.4C5,5.6,4.6,4.9,3.9,4.4C3.2,4,2.4,3.8,1.7,3.9
	C1.2,4,0.7,4.3,0.4,4.7C0.2,5,0,5.4,0,5.8c0,0,0,0.4,0,0.4C0.2,6.9,0.6,7.6,1.3,8c0.7,0.5,1.4,0.7,2.1,0.5l0.2,0c0,0,1.1-0.3,1.6,0
	c0,0,1.8,1.3,2.3,1.6c-0.1,0.1-0.1,0.3-0.1,0.4c0,0.1,0,0.1,0,0.2c0.1,0.5,0.6,0.8,1.1,0.7l3.2-0.6c0,0,0.3-0.1,0.4-0.2
	c0.2-0.1,0.3-0.3,0.3-0.3l0.8-1.7c0,0,0.6,2.7,0.6,2.8c-0.1,0.1-2.6,2.8-2.6,2.8l0,0.1c-0.3,0.2-0.4,0.5-0.4,0.8v5.7
	c0,0.6,0.5,1.1,1.1,1.1c0.6,0,1.1-0.5,1.1-1.1c0,0,0-4.7,0-4.8c0.2-0.2,2.2-2.3,2.7-2.9c0.1,0.3,0.6,3.2,0.6,3.2
	c0,0.3,0.2,0.5,0.4,0.7c0,0,3.5,4.2,3.5,4.2c0.2,0.2,0.5,0.4,0.8,0.4c0.3,0,0.6-0.1,0.8-0.3c0.3-0.2,0.4-0.5,0.4-0.8
	C22,20.3,21.9,20.1,21.7,19.9z M4.2,7.4C4,7.6,3.7,7.8,3.3,7.9C2.8,8,2.2,7.8,1.7,7.5C1.2,7.1,0.9,6.6,0.8,6.1l0-0.3
	c0-0.3,0.1-0.5,0.2-0.7C1.5,4.4,2.6,4.4,3.4,5C4.3,5.6,4.6,6.7,4.2,7.4z"/>
</svg>
