<?xml version="1.0" encoding="utf-8"?>
<!-- Generator: Adobe Illustrator 22.1.0, SVG Export Plug-In . SVG Version: 6.00 Build 0)  -->
<svg version="1.1" id="Layer_1" xmlns="http://www.w3.org/2000/svg" xmlns:xlink="http://www.w3.org/1999/xlink" x="0px" y="0px"
	 width="22px" height="22px" viewBox="0 0 22 22" enable-background="new 0 0 22 22" xml:space="preserve">
<path d="M15,5.1v1.3C15,6.7,15,7,15.4,7h3.8C19.5,7,20,6.7,20,6.3V5.1H15z"/>
<path d="M2.6,7h3.8C6.8,7,7,6.7,7,6.3V5.1H2v1.3C2,6.7,2.2,7,2.6,7z"/>
<path d="M7.1,4c0-0.4,0.3-1,3.8-1c3.5,0,3.8,0.7,3.8,1c0,0,5.1,0,5.1,0c0-0.7-1.2-3.9-8.9-3.9c-7.7,0-9,3.3-9,3.9C1.9,4,7.1,4,7.1,4
	z"/>
<path d="M2,11H1c-0.6,0-1-0.4-1-1V9c0-0.6,0.4-1,1-1h1c0.6,0,1,0.4,1,1v1C3,10.6,2.6,11,2,11z"/>
<path d="M6,11H5c-0.6,0-1-0.4-1-1V9c0-0.6,0.4-1,1-1h1c0.6,0,1,0.4,1,1v1C7,10.6,6.6,11,6,11z"/>
<path d="M11,11h-1c-0.6,0-1-0.4-1-1V9c0-0.6,0.4-1,1-1h1c0.6,0,1,0.4,1,1v1C12,10.6,11.6,11,11,11z"/>
<path d="M4,15H3c-0.6,0-1-0.4-1-1v-1c0-0.6,0.4-1,1-1h1c0.6,0,1,0.4,1,1v1C5,14.6,4.6,15,4,15z"/>
<path d="M9,15H8c-0.6,0-1-0.4-1-1v-1c0-0.6,0.4-1,1-1h1c0.6,0,1,0.4,1,1v1C10,14.6,9.6,15,9,15z"/>
<path d="M14,15h-1c-0.6,0-1-0.4-1-1v-1c0-0.6,0.4-1,1-1h1c0.6,0,1,0.4,1,1v1C15,14.6,14.6,15,14,15z"/>
<path d="M19,15h-1c-0.6,0-1-0.4-1-1v-1c0-0.6,0.4-1,1-1h1c0.6,0,1,0.4,1,1v1C20,14.6,19.6,15,19,15z"/>
<path d="M16,11h-1c-0.6,0-1-0.4-1-1V9c0-0.6,0.4-1,1-1h1c0.6,0,1,0.4,1,1v1C17,10.6,16.6,11,16,11z"/>
<path d="M21,11h-1c-0.6,0-1-0.4-1-1V9c0-0.6,0.4-1,1-1h1c0.6,0,1,0.4,1,1v1C22,10.6,21.6,11,21,11z"/>
<path d="M2,19H1c-0.6,0-1-0.4-1-1v-1c0-0.6,0.4-1,1-1h1c0.6,0,1,0.4,1,1v1C3,18.6,2.6,19,2,19z"/>
<path d="M6,19H5c-0.6,0-1-0.4-1-1v-1c0-0.6,0.4-1,1-1h1c0.6,0,1,0.4,1,1v1C7,18.6,6.6,19,6,19z"/>
<path d="M11,19h-1c-0.6,0-1-0.4-1-1v-1c0-0.6,0.4-1,1-1h1c0.6,0,1,0.4,1,1v1C12,18.6,11.6,19,11,19z"/>
<path d="M16,19h-1c-0.6,0-1-0.4-1-1v-1c0-0.6,0.4-1,1-1h1c0.6,0,1,0.4,1,1v1C17,18.6,16.6,19,16,19z"/>
<path d="M21,19h-1c-0.6,0-1-0.4-1-1v-1c0-0.6,0.4-1,1-1h1c0.6,0,1,0.4,1,1v1C22,18.6,21.6,19,21,19z"/>
<rect x="3" y="20" width="16" height="2"/>
</svg>
