<?xml version="1.0" encoding="utf-8"?>
<!-- Generator: Adobe Illustrator 22.1.0, SVG Export Plug-In . SVG Version: 6.00 Build 0)  -->
<svg version="1.1" id="Layer_1" xmlns="http://www.w3.org/2000/svg" xmlns:xlink="http://www.w3.org/1999/xlink" x="0px" y="0px"
	 width="14px" height="14px" viewBox="0 0 14 14" enable-background="new 0 0 14 14" xml:space="preserve">
<rect fill="#FFFFFF" x="2" y="12" width="10" height="2"/>
<rect fill="#FFFFFF" y="10" width="2" height="1"/>
<rect fill="#FFFFFF" x="3" y="10" width="2" height="1"/>
<rect fill="#FFFFFF" x="6" y="10" width="2" height="1"/>
<rect fill="#FFFFFF" x="9" y="10" width="2" height="1"/>
<rect fill="#FFFFFF" x="12" y="10" width="2" height="1"/>
<rect fill="#FFFFFF" y="6" width="2" height="1"/>
<rect fill="#FFFFFF" x="3" y="6" width="2" height="1"/>
<rect fill="#FFFFFF" x="6" y="6" width="2" height="1"/>
<rect fill="#FFFFFF" x="9" y="6" width="2" height="1"/>
<rect fill="#FFFFFF" x="12" y="6" width="2" height="1"/>
<rect fill="#FFFFFF" x="1" y="8" width="2" height="1"/>
<rect fill="#FFFFFF" x="4" y="8" width="2" height="1"/>
<rect fill="#FFFFFF" x="7" y="8" width="2" height="1"/>
<rect fill="#FFFFFF" x="10" y="8" width="2" height="1"/>
<polygon fill="#FFFFFF" points="11,0 3,0 0,2 0,3 0,5 4,5 4,3 5,2 9,2 10,3 10,5 14,5 14,3 14,2 "/>
</svg>
