<?xml version="1.0" encoding="utf-8"?>
<!-- Generator: Adobe Illustrator 22.1.0, SVG Export Plug-In . SVG Version: 6.00 Build 0)  -->
<svg version="1.1" id="Layer_1" xmlns="http://www.w3.org/2000/svg" xmlns:xlink="http://www.w3.org/1999/xlink" x="0px" y="0px"
	 width="30px" height="30px" viewBox="0 0 30 30" enable-background="new 0 0 30 30" xml:space="preserve">
<path d="M20.1,6.1v1.8c0,0.5,0.4,1.2,0.9,1.2h5.2C26.7,9,27,8.3,27,7.8V6.1H20.1z"/>
<path d="M4,9h4.8c0.5,0,0.9-0.7,0.9-1.2V6.1H3v1.8C3,8.3,3.5,9,4,9z"/>
<path d="M9.7,5c0-0.5,0.6-2,5.3-2c4.8,0,5,1.5,5,2c0,0.1,7,0.1,7,0c0-0.9-1.6-5-12.1-5C4.3,0,3,4.1,3,5C3,5.1,9.7,5.1,9.7,5z"/>
<path d="M4,14H2c-0.6,0-1-0.4-1-1v-1c0-0.6,0.4-1,1-1h2c0.6,0,1,0.4,1,1v1C5,13.6,4.6,14,4,14z"/>
<path d="M7,19H5c-0.6,0-1-0.4-1-1v-1c0-0.6,0.4-1,1-1h2c0.6,0,1,0.4,1,1v1C8,18.6,7.6,19,7,19z"/>
<path d="M13,19h-2c-0.6,0-1-0.4-1-1v-1c0-0.6,0.4-1,1-1h2c0.6,0,1,0.4,1,1v1C14,18.6,13.6,19,13,19z"/>
<path d="M19,19h-2c-0.6,0-1-0.4-1-1v-1c0-0.6,0.4-1,1-1h2c0.6,0,1,0.4,1,1v1C20,18.6,19.6,19,19,19z"/>
<path d="M25,19h-2c-0.6,0-1-0.4-1-1v-1c0-0.6,0.4-1,1-1h2c0.6,0,1,0.4,1,1v1C26,18.6,25.6,19,25,19z"/>
<path d="M10,14H8c-0.6,0-1-0.4-1-1v-1c0-0.6,0.4-1,1-1h2c0.6,0,1,0.4,1,1v1C11,13.6,10.6,14,10,14z"/>
<path d="M16,14h-2c-0.6,0-1-0.4-1-1v-1c0-0.6,0.4-1,1-1h2c0.6,0,1,0.4,1,1v1C17,13.6,16.6,14,16,14z"/>
<path d="M22,14h-2c-0.6,0-1-0.4-1-1v-1c0-0.6,0.4-1,1-1h2c0.6,0,1,0.4,1,1v1C23,13.6,22.6,14,22,14z"/>
<path d="M28,14h-2c-0.6,0-1-0.4-1-1v-1c0-0.6,0.4-1,1-1h2c0.6,0,1,0.4,1,1v1C29,13.6,28.6,14,28,14z"/>
<path d="M4,24H2c-0.6,0-1-0.4-1-1v-1c0-0.6,0.4-1,1-1h2c0.6,0,1,0.4,1,1v1C5,23.6,4.6,24,4,24z"/>
<path d="M10,24H8c-0.6,0-1-0.4-1-1v-1c0-0.6,0.4-1,1-1h2c0.6,0,1,0.4,1,1v1C11,23.6,10.6,24,10,24z"/>
<path d="M16,24h-2c-0.6,0-1-0.4-1-1v-1c0-0.6,0.4-1,1-1h2c0.6,0,1,0.4,1,1v1C17,23.6,16.6,24,16,24z"/>
<path d="M22,24h-2c-0.6,0-1-0.4-1-1v-1c0-0.6,0.4-1,1-1h2c0.6,0,1,0.4,1,1v1C23,23.6,22.6,24,22,24z"/>
<path d="M28,24h-2c-0.6,0-1-0.4-1-1v-1c0-0.6,0.4-1,1-1h2c0.6,0,1,0.4,1,1v1C29,23.6,28.6,24,28,24z"/>
<rect x="5" y="27" width="20" height="3"/>
</svg>
