<?xml version="1.0" encoding="utf-8"?>
<!-- Generator: Adobe Illustrator 20.0.0, SVG Export Plug-In . SVG Version: 6.00 Build 0)  -->
<svg version="1.1" id="Layer_1" xmlns:sketch="http://www.bohemiancoding.com/sketch/ns"
	 xmlns="http://www.w3.org/2000/svg" xmlns:xlink="http://www.w3.org/1999/xlink" x="0px" y="0px" width="30px" height="30px"
	 viewBox="0 0 30 30" enable-background="new 0 0 30 30" xml:space="preserve">
<path fill="#FFFFFF" id="symbol-copy-2" sketch:type="MSShapeGroup" d="M1,1h28v11L1,3V1z M27,23h2v6h-2V23z M26,23h1v2h-1V23z M23,19h3v6h-3V19z
	 M21,21h1v6h-1V21z M22,26h4v1h-4V26z M24.5,18c0.8,0,1.5-0.7,1.5-1.5c0-0.8-0.7-1.5-1.5-1.5S23,15.7,23,16.5
	C23,17.3,23.7,18,24.5,18z M17,20h2v6h-2V20z M16,20h1v2h-1V20z M13,16h3v6h-3V16z M11,18h1v6h-1V18z M12,23h4v1h-4V23z M14.5,15
	c0.8,0,1.5-0.7,1.5-1.5S15.3,12,14.5,12c-0.8,0-1.5,0.7-1.5,1.5S13.7,15,14.5,15z M7,17h2v6H7V17z M6,17h1v2H6V17z M3,13h3v6H3V13z
	 M1,15h1v6H1V15z M2,20h4v1H2V20z M4.5,12C5.3,12,6,11.3,6,10.5S5.3,9,4.5,9S3,9.7,3,10.5S3.7,12,4.5,12z"/>
</svg>
