<?xml version="1.0" encoding="UTF-8" standalone="no"?>
<svg width="32px" height="32px" viewBox="0 0 32 32" version="1.1" xmlns="http://www.w3.org/2000/svg" xmlns:xlink="http://www.w3.org/1999/xlink" xmlns:sketch="http://www.bohemiancoding.com/sketch/ns">
    <!-- Generator: Sketch 3.3.3 (12072) - http://www.bohemiancoding.com/sketch -->
    <title>theater-slate-32</title>
    <desc>Created with Sketch.</desc>
    <defs></defs>
    <g id="theater" stroke="none" stroke-width="1" fill="none" fill-rule="evenodd" sketch:type="MSPage">
        <g id="theater-slate-32" sketch:type="MSArtboardGroup">
            <path d="M4,3 L32,3 L32,14 L4,5 L4,3 Z M30,25 L32,25 L32,31 L30,31 L30,25 Z M29,25 L30,25 L30,27 L29,27 L29,25 Z M26,21 L29,21 L29,27 L26,27 L26,21 Z M24,23 L25,23 L25,29 L24,29 L24,23 Z M25,28 L29,28 L29,29 L25,29 L25,28 Z M27.5,20 C28.3284271,20 29,19.3284271 29,18.5 C29,17.6715729 28.3284271,17 27.5,17 C26.6715729,17 26,17.6715729 26,18.5 C26,19.3284271 26.6715729,20 27.5,20 Z M20,22 L22,22 L22,28 L20,28 L20,22 Z M19,22 L20,22 L20,24 L19,24 L19,22 Z M16,18 L19,18 L19,24 L16,24 L16,18 Z M14,20 L15,20 L15,26 L14,26 L14,20 Z M15,25 L19,25 L19,26 L15,26 L15,25 Z M17.5,17 C18.3284271,17 19,16.3284271 19,15.5 C19,14.6715729 18.3284271,14 17.5,14 C16.6715729,14 16,14.6715729 16,15.5 C16,16.3284271 16.6715729,17 17.5,17 Z M10,19 L12,19 L12,25 L10,25 L10,19 Z M9,19 L10,19 L10,21 L9,21 L9,19 Z M6,15 L9,15 L9,21 L6,21 L6,15 Z M4,17 L5,17 L5,23 L4,23 L4,17 Z M5,22 L9,22 L9,23 L5,23 L5,22 Z M7.5,14 C8.32842712,14 9,13.3284271 9,12.5 C9,11.6715729 8.32842712,11 7.5,11 C6.67157288,11 6,11.6715729 6,12.5 C6,13.3284271 6.67157288,14 7.5,14 Z" id="symbol" fill-opacity="0.5" fill="#000000" sketch:type="MSShapeGroup"></path>
            <path d="M3,2 L31,2 L31,13 L3,4 L3,2 Z M29,24 L31,24 L31,30 L29,30 L29,24 Z M28,24 L29,24 L29,26 L28,26 L28,24 Z M25,20 L28,20 L28,26 L25,26 L25,20 Z M23,22 L24,22 L24,28 L23,28 L23,22 Z M24,27 L28,27 L28,28 L24,28 L24,27 Z M26.5,19 C27.3284271,19 28,18.3284271 28,17.5 C28,16.6715729 27.3284271,16 26.5,16 C25.6715729,16 25,16.6715729 25,17.5 C25,18.3284271 25.6715729,19 26.5,19 Z M19,21 L21,21 L21,27 L19,27 L19,21 Z M18,21 L19,21 L19,23 L18,23 L18,21 Z M15,17 L18,17 L18,23 L15,23 L15,17 Z M13,19 L14,19 L14,25 L13,25 L13,19 Z M14,24 L18,24 L18,25 L14,25 L14,24 Z M16.5,16 C17.3284271,16 18,15.3284271 18,14.5 C18,13.6715729 17.3284271,13 16.5,13 C15.6715729,13 15,13.6715729 15,14.5 C15,15.3284271 15.6715729,16 16.5,16 Z M9,18 L11,18 L11,24 L9,24 L9,18 Z M8,18 L9,18 L9,20 L8,20 L8,18 Z M5,14 L8,14 L8,20 L5,20 L5,14 Z M3,16 L4,16 L4,22 L3,22 L3,16 Z M4,21 L8,21 L8,22 L4,22 L4,21 Z M6.5,13 C7.32842712,13 8,12.3284271 8,11.5 C8,10.6715729 7.32842712,10 6.5,10 C5.67157288,10 5,10.6715729 5,11.5 C5,12.3284271 5.67157288,13 6.5,13 Z" id="symbol-copy" fill-opacity="0.75" fill="#000000" sketch:type="MSShapeGroup"></path>
            <path d="M2,1 L30,1 L30,12 L2,3 L2,1 Z M28,23 L30,23 L30,29 L28,29 L28,23 Z M27,23 L28,23 L28,25 L27,25 L27,23 Z M24,19 L27,19 L27,25 L24,25 L24,19 Z M22,21 L23,21 L23,27 L22,27 L22,21 Z M23,26 L27,26 L27,27 L23,27 L23,26 Z M25.5,18 C26.3284271,18 27,17.3284271 27,16.5 C27,15.6715729 26.3284271,15 25.5,15 C24.6715729,15 24,15.6715729 24,16.5 C24,17.3284271 24.6715729,18 25.5,18 Z M18,20 L20,20 L20,26 L18,26 L18,20 Z M17,20 L18,20 L18,22 L17,22 L17,20 Z M14,16 L17,16 L17,22 L14,22 L14,16 Z M12,18 L13,18 L13,24 L12,24 L12,18 Z M13,23 L17,23 L17,24 L13,24 L13,23 Z M15.5,15 C16.3284271,15 17,14.3284271 17,13.5 C17,12.6715729 16.3284271,12 15.5,12 C14.6715729,12 14,12.6715729 14,13.5 C14,14.3284271 14.6715729,15 15.5,15 Z M8,17 L10,17 L10,23 L8,23 L8,17 Z M7,17 L8,17 L8,19 L7,19 L7,17 Z M4,13 L7,13 L7,19 L4,19 L4,13 Z M2,15 L3,15 L3,21 L2,21 L2,15 Z M3,20 L7,20 L7,21 L3,21 L3,20 Z M5.5,12 C6.32842712,12 7,11.3284271 7,10.5 C7,9.67157288 6.32842712,9 5.5,9 C4.67157288,9 4,9.67157288 4,10.5 C4,11.3284271 4.67157288,12 5.5,12 Z" id="symbol-copy-2" fill="#E6E6E6" sketch:type="MSShapeGroup"></path>
        </g>
    </g>
</svg>