<?xml version="1.0" encoding="utf-8"?>
<!-- Generator: Adobe Illustrator 20.0.0, SVG Export Plug-In . SVG Version: 6.00 Build 0)  -->
<svg version="1.1" id="Layer_1" xmlns:sketch="http://www.bohemiancoding.com/sketch/ns"
	 xmlns="http://www.w3.org/2000/svg" xmlns:xlink="http://www.w3.org/1999/xlink" x="0px" y="0px" width="22px" height="22px"
	 viewBox="0 0 22 22" enable-background="new 0 0 22 22" xml:space="preserve">
<path fill="#231F20" id="symbol-copy-2" sketch:type="MSShapeGroup" d="M1,1h20v8L1,3V1z M20,18h1v3h-1V18z M17,14h2v4h-2V14z M19,17h2v1h-2V17z
	 M18,13c0.6,0,1-0.4,1-1s-0.4-1-1-1s-1,0.4-1,1S17.4,13,18,13z M15,15h1v5h-1V15z M16,19h3v1h-3V19z M13,16h1v3h-1V16z M10,12h2v4
	h-2V12z M12,15h2v1h-2V15z M11,11c0.6,0,1-0.4,1-1c0-0.6-0.4-1-1-1s-1,0.4-1,1C10,10.6,10.4,11,11,11z M8,13h1v5H8V13z M9,17h3v1H9
	V17z M6,14h1v3H6V14z M3,10h2v4H3V10z M5,13h2v1H5V13z M4,9c0.6,0,1-0.4,1-1S4.6,7,4,7S3,7.4,3,8S3.4,9,4,9z M1,11h1v5H1V11z M2,15
	h3v1H2V15z"/>
</svg>
