<?xml version="1.0" encoding="utf-8"?>
<!-- Generator: Adobe Illustrator 24.2.3, SVG Export Plug-In . SVG Version: 6.00 Build 0)  -->
<svg version="1.1" id="Layer_1" xmlns="http://www.w3.org/2000/svg" xmlns:xlink="http://www.w3.org/1999/xlink" x="0px" y="0px"
	 width="22px" height="22px" viewBox="0 0 22 22" enable-background="new 0 0 22 22" xml:space="preserve">
<path  d="M9.2,9.1c0-0.5,0-0.9,0.1-1.4C5.5,11,0,10.6,0,10.6s0.5,3.2,2.2,5.6c1.5,2.1,4.2,3.4,5.8,3
	c1.3-0.4,2.5-2.5,2.7-4.8C9.8,12.9,9.3,10.9,9.2,9.1z M5.7,11.2L5.7,11.2c0.1-0.3,0.5-0.4,0.8-0.3c0.1,0.1,1,0.5,1.5-0.4
	c0.1-0.1,0.2-0.2,0.4-0.3c0.2,0,0.3,0,0.5,0.1c0.1,0.1,0.2,0.2,0.3,0.4c0,0.2,0,0.3-0.1,0.5c-0.4,0.8-1.1,1.2-2,1.2
	c-0.4,0-0.8-0.1-1.1-0.2c-0.1-0.1-0.3-0.2-0.3-0.3C5.7,11.5,5.7,11.4,5.7,11.2z M3,13.5c-0.3,0-0.7-0.1-1-0.2
	c-0.3-0.1-0.5-0.5-0.4-0.8c0.1-0.3,0.5-0.5,0.8-0.4c0.2,0.1,1.1,0.3,1.6-0.5c0.1-0.1,0.2-0.2,0.4-0.3c0.2,0,0.3,0,0.5,0.1
	c0.3,0.2,0.4,0.6,0.2,0.8C4.6,13.2,3.9,13.5,3,13.5z M8.9,16.5c-0.5-0.1-1.5-0.2-1.9-0.1c-0.3,0.1-1,0.7-1.4,1.2
	c-0.1,0.1-0.2,0.2-0.4,0.2c-0.1,0-0.2,0-0.2-0.1c-0.2-0.1-0.3-0.3-0.2-0.6c0.4-1.4,1-2.2,1.9-2.4c1.4-0.4,2.7,1,2.8,1
	c0.2,0.2,0.2,0.4,0.1,0.6C9.4,16.5,9.2,16.6,8.9,16.5z"/>
<path  d="M12.7,2.7c0,0-1.7,2.7-2,5.7c-0.2,2.6,0.9,5.4,2.4,6.1c1.5,0.7,4.1-0.5,5.9-2.5c2-2.2,3-5.2,3-5.2
	C16.8,6.9,12.7,2.7,12.7,2.7z M12.4,5.8c0.1-0.1,0.2-0.2,0.4-0.3c1.5-0.5,2.6,0.7,2.9,1.3c0.2,0.3,0,0.7-0.3,0.8
	c-0.1,0-0.2,0.1-0.3,0.1c-0.2,0-0.4-0.1-0.5-0.3c-0.1-0.2-0.6-1-1.5-0.7c-0.3,0.1-0.7-0.1-0.8-0.4C12.3,6.2,12.3,6,12.4,5.8z
	 M16.4,12.8c-0.7,0.4-1.4,0.6-2,0.6c-0.4,0-0.8-0.1-1.1-0.3c-1.4-0.8-1.6-2.9-1.6-2.9c0-0.2,0.1-0.4,0.3-0.5c0.2-0.1,0.4,0,0.6,0.1
	c0,0,0.8,1,1.5,1.4c0.8,0.4,2.2,0.7,2.2,0.7c0.2,0,0.4,0.2,0.4,0.4C16.6,12.5,16.5,12.7,16.4,12.8z M19.2,9.6c-0.1,0-0.2,0-0.2,0
	c-0.2,0-0.5-0.2-0.6-0.4c0-0.1-0.5-1-1.4-0.9c-0.1,0-0.3,0-0.4-0.1c-0.1-0.1-0.2-0.2-0.3-0.4c-0.1-0.3,0.2-0.7,0.5-0.7
	c1.6-0.3,2.5,0.9,2.8,1.6C19.6,9.1,19.5,9.5,19.2,9.6z"/>
</svg>
