<?xml version="1.0" encoding="UTF-8" standalone="no"?>
<svg width="16px" height="16px" viewBox="0 0 16 16" version="1.1" xmlns="http://www.w3.org/2000/svg" xmlns:xlink="http://www.w3.org/1999/xlink" xmlns:sketch="http://www.bohemiancoding.com/sketch/ns">
    <!-- Generator: Sketch 3.3.3 (12072) - http://www.bohemiancoding.com/sketch -->
    <title>theater-white-16</title>
    <desc>Created with Sketch.</desc>
    <defs></defs>
    <g id="theater" stroke="none" stroke-width="1" fill="none" fill-rule="evenodd" sketch:type="MSPage">
        <g id="theater-white-16" sketch:type="MSArtboardGroup">
            <path d="M4,3 L16,3 L16,7 L4,4 L4,3 Z M14,14 L15,14 L15,16 L14,16 L14,14 Z M12,13 L15,13 L15,14 L12,14 L12,13 Z M12,11 L14,11 L14,13 L12,13 L12,11 Z M13,10 C13.5522847,10 14,9.55228475 14,9 C14,8.44771525 13.5522847,8 13,8 C12.4477153,8 12,8.44771525 12,9 C12,9.55228475 12.4477153,10 13,10 Z M10,13 L11,13 L11,15 L10,15 L10,13 Z M8,12 L11,12 L11,13 L8,13 L8,12 Z M8,10 L10,10 L10,12 L8,12 L8,10 Z M9,9 C9.55228475,9 10,8.55228475 10,8 C10,7.44771525 9.55228475,7 9,7 C8.44771525,7 8,7.44771525 8,8 C8,8.55228475 8.44771525,9 9,9 Z M6,12 L7,12 L7,14 L6,14 L6,12 Z M4,11 L7,11 L7,12 L4,12 L4,11 Z M4,9 L6,9 L6,11 L4,11 L4,9 Z M5,8 C5.55228475,8 6,7.55228475 6,7 C6,6.44771525 5.55228475,6 5,6 C4.44771525,6 4,6.44771525 4,7 C4,7.55228475 4.44771525,8 5,8 Z" id="symbol" fill-opacity="0.5" fill="#000000" sketch:type="MSShapeGroup"></path>
            <path d="M3,2 L15,2 L15,6 L3,3 L3,2 Z M13,13 L14,13 L14,15 L13,15 L13,13 Z M11,12 L14,12 L14,13 L11,13 L11,12 Z M11,10 L13,10 L13,12 L11,12 L11,10 Z M12,9 C12.5522847,9 13,8.55228475 13,8 C13,7.44771525 12.5522847,7 12,7 C11.4477153,7 11,7.44771525 11,8 C11,8.55228475 11.4477153,9 12,9 Z M9,12 L10,12 L10,14 L9,14 L9,12 Z M7,11 L10,11 L10,12 L7,12 L7,11 Z M7,9 L9,9 L9,11 L7,11 L7,9 Z M8,8 C8.55228475,8 9,7.55228475 9,7 C9,6.44771525 8.55228475,6 8,6 C7.44771525,6 7,6.44771525 7,7 C7,7.55228475 7.44771525,8 8,8 Z M5,11 L6,11 L6,13 L5,13 L5,11 Z M3,10 L6,10 L6,11 L3,11 L3,10 Z M3,8 L5,8 L5,10 L3,10 L3,8 Z M4,7 C4.55228475,7 5,6.55228475 5,6 C5,5.44771525 4.55228475,5 4,5 C3.44771525,5 3,5.44771525 3,6 C3,6.55228475 3.44771525,7 4,7 Z" id="symbol-copy" fill-opacity="0.75" fill="#000000" sketch:type="MSShapeGroup"></path>
            <path d="M2,1 L14,1 L14,5 L2,2 L2,1 Z M12,12 L13,12 L13,14 L12,14 L12,12 Z M10,11 L13,11 L13,12 L10,12 L10,11 Z M10,9 L12,9 L12,11 L10,11 L10,9 Z M11,8 C11.5522847,8 12,7.55228475 12,7 C12,6.44771525 11.5522847,6 11,6 C10.4477153,6 10,6.44771525 10,7 C10,7.55228475 10.4477153,8 11,8 Z M8,11 L9,11 L9,13 L8,13 L8,11 Z M6,10 L9,10 L9,11 L6,11 L6,10 Z M6,8 L8,8 L8,10 L6,10 L6,8 Z M7,7 C7.55228475,7 8,6.55228475 8,6 C8,5.44771525 7.55228475,5 7,5 C6.44771525,5 6,5.44771525 6,6 C6,6.55228475 6.44771525,7 7,7 Z M4,10 L5,10 L5,12 L4,12 L4,10 Z M2,9 L5,9 L5,10 L2,10 L2,9 Z M2,7 L4,7 L4,9 L2,9 L2,7 Z M3,6 C3.55228475,6 4,5.55228475 4,5 C4,4.44771525 3.55228475,4 3,4 C2.44771525,4 2,4.44771525 2,5 C2,5.55228475 2.44771525,6 3,6 Z" id="symbol-copy-2" fill="#FFFFFF" sketch:type="MSShapeGroup"></path>
        </g>
    </g>
</svg>