<?xml version="1.0" encoding="UTF-8" standalone="no"?>
<svg width="24px" height="24px" viewBox="0 0 24 24" version="1.1" xmlns="http://www.w3.org/2000/svg" xmlns:xlink="http://www.w3.org/1999/xlink" xmlns:sketch="http://www.bohemiancoding.com/sketch/ns">
    <!-- Generator: Sketch 3.3.3 (12072) - http://www.bohemiancoding.com/sketch -->
    <title>theater-slate-24</title>
    <desc>Created with Sketch.</desc>
    <defs></defs>
    <g id="theater" stroke="none" stroke-width="1" fill="none" fill-rule="evenodd" sketch:type="MSPage">
        <g id="theater-slate-24" sketch:type="MSArtboardGroup">
            <path d="M4,3 L24,3 L24,11 L4,5 L4,3 Z M23,20 L24,20 L24,23 L23,23 L23,20 Z M20,16 L22,16 L22,20 L20,20 L20,16 Z M22,19 L24,19 L24,20 L22,20 L22,19 Z M21,15 C21.5522847,15 22,14.5522847 22,14 C22,13.4477153 21.5522847,13 21,13 C20.4477153,13 20,13.4477153 20,14 C20,14.5522847 20.4477153,15 21,15 Z M18,17 L19,17 L19,22 L18,22 L18,17 Z M19,21 L22,21 L22,22 L19,22 L19,21 Z M16,18 L17,18 L17,21 L16,21 L16,18 Z M13,14 L15,14 L15,18 L13,18 L13,14 Z M15,17 L17,17 L17,18 L15,18 L15,17 Z M14,13 C14.5522847,13 15,12.5522847 15,12 C15,11.4477153 14.5522847,11 14,11 C13.4477153,11 13,11.4477153 13,12 C13,12.5522847 13.4477153,13 14,13 Z M11,15 L12,15 L12,20 L11,20 L11,15 Z M12,19 L15,19 L15,20 L12,20 L12,19 Z M9,16 L10,16 L10,19 L9,19 L9,16 Z M6,12 L8,12 L8,16 L6,16 L6,12 Z M8,15 L10,15 L10,16 L8,16 L8,15 Z M7,11 C7.55228475,11 8,10.5522847 8,10 C8,9.44771525 7.55228475,9 7,9 C6.44771525,9 6,9.44771525 6,10 C6,10.5522847 6.44771525,11 7,11 Z M4,13 L5,13 L5,18 L4,18 L4,13 Z M5,17 L8,17 L8,18 L5,18 L5,17 Z" id="symbol" fill-opacity="0.5" fill="#000000" sketch:type="MSShapeGroup"></path>
            <path d="M3,2 L23,2 L23,10 L3,4 L3,2 Z M22,19 L23,19 L23,22 L22,22 L22,19 Z M19,15 L21,15 L21,19 L19,19 L19,15 Z M21,18 L23,18 L23,19 L21,19 L21,18 Z M20,14 C20.5522847,14 21,13.5522847 21,13 C21,12.4477153 20.5522847,12 20,12 C19.4477153,12 19,12.4477153 19,13 C19,13.5522847 19.4477153,14 20,14 Z M17,16 L18,16 L18,21 L17,21 L17,16 Z M18,20 L21,20 L21,21 L18,21 L18,20 Z M15,17 L16,17 L16,20 L15,20 L15,17 Z M12,13 L14,13 L14,17 L12,17 L12,13 Z M14,16 L16,16 L16,17 L14,17 L14,16 Z M13,12 C13.5522847,12 14,11.5522847 14,11 C14,10.4477153 13.5522847,10 13,10 C12.4477153,10 12,10.4477153 12,11 C12,11.5522847 12.4477153,12 13,12 Z M10,14 L11,14 L11,19 L10,19 L10,14 Z M11,18 L14,18 L14,19 L11,19 L11,18 Z M8,15 L9,15 L9,18 L8,18 L8,15 Z M5,11 L7,11 L7,15 L5,15 L5,11 Z M7,14 L9,14 L9,15 L7,15 L7,14 Z M6,10 C6.55228475,10 7,9.55228475 7,9 C7,8.44771525 6.55228475,8 6,8 C5.44771525,8 5,8.44771525 5,9 C5,9.55228475 5.44771525,10 6,10 Z M3,12 L4,12 L4,17 L3,17 L3,12 Z M4,16 L7,16 L7,17 L4,17 L4,16 Z" id="symbol-copy" fill-opacity="0.75" fill="#000000" sketch:type="MSShapeGroup"></path>
            <path d="M2,1 L22,1 L22,9 L2,3 L2,1 Z M21,18 L22,18 L22,21 L21,21 L21,18 Z M18,14 L20,14 L20,18 L18,18 L18,14 Z M20,17 L22,17 L22,18 L20,18 L20,17 Z M19,13 C19.5522847,13 20,12.5522847 20,12 C20,11.4477153 19.5522847,11 19,11 C18.4477153,11 18,11.4477153 18,12 C18,12.5522847 18.4477153,13 19,13 Z M16,15 L17,15 L17,20 L16,20 L16,15 Z M17,19 L20,19 L20,20 L17,20 L17,19 Z M14,16 L15,16 L15,19 L14,19 L14,16 Z M11,12 L13,12 L13,16 L11,16 L11,12 Z M13,15 L15,15 L15,16 L13,16 L13,15 Z M12,11 C12.5522847,11 13,10.5522847 13,10 C13,9.44771525 12.5522847,9 12,9 C11.4477153,9 11,9.44771525 11,10 C11,10.5522847 11.4477153,11 12,11 Z M9,13 L10,13 L10,18 L9,18 L9,13 Z M10,17 L13,17 L13,18 L10,18 L10,17 Z M7,14 L8,14 L8,17 L7,17 L7,14 Z M4,10 L6,10 L6,14 L4,14 L4,10 Z M6,13 L8,13 L8,14 L6,14 L6,13 Z M5,9 C5.55228475,9 6,8.55228475 6,8 C6,7.44771525 5.55228475,7 5,7 C4.44771525,7 4,7.44771525 4,8 C4,8.55228475 4.44771525,9 5,9 Z M2,11 L3,11 L3,16 L2,16 L2,11 Z M3,15 L6,15 L6,16 L3,16 L3,15 Z" id="symbol-copy-2" fill="#E6E6E6" sketch:type="MSShapeGroup"></path>
        </g>
    </g>
</svg>