<?xml version="1.0" encoding="utf-8"?>
<!-- Generator: Adobe Illustrator 22.1.0, SVG Export Plug-In . SVG Version: 6.00 Build 0)  -->
<svg version="1.1" id="Layer_1" xmlns="http://www.w3.org/2000/svg" xmlns:xlink="http://www.w3.org/1999/xlink" x="0px" y="0px"
	 width="14px" height="14px" viewBox="0 0 14 14" enable-background="new 0 0 14 14" xml:space="preserve">
<path d="M11,12c0,0.6-0.4,1-1,1H2c-0.6,0-1-0.4-1-1V4c0-0.6,0.4-1,1-1h6.6c0.3-0.3,0.6-0.7,0.9-1H2C0.9,2,0,2.9,0,4v8
	c0,1.1,0.9,2,2,2h8c1.1,0,2-0.9,2-2V4.4c-0.3,0.4-0.7,0.9-1,1.4V12z"/>
<path d="M13.2,0l0.5,0.9L13.6,1c0,0-4.1,3.9-6.5,9.9l0,0l0,0l-1.9,1.5l0-0.2c0,0-0.7-3.4-2.4-4.5L2.7,7.6l1.9-1.7l0.1,0
	c0,0,0.7,0.3,1.4,2.5C6.7,7.3,9.3,3,13.1,0.1L13.2,0"/>
</svg>
