<?xml version="1.0" encoding="utf-8"?>
<!-- Generator: Adobe Illustrator 22.1.0, SVG Export Plug-In . SVG Version: 6.00 Build 0)  -->
<svg version="1.1" id="Layer_1" xmlns="http://www.w3.org/2000/svg" xmlns:xlink="http://www.w3.org/1999/xlink" x="0px" y="0px"
	 width="30px" height="30px" viewBox="0 0 30 30" enable-background="new 0 0 30 30" xml:space="preserve">
<path fill="#FFFFFF" d="M24,27c0,0.5-0.5,1-1,1H3c-0.5,0-1-0.5-1-1V7c0-0.5,0.5-1,1-1h16.1c0.6-0.7,1.2-1.3,1.8-2H3C1.3,4,0,5.3,0,7v20
	c0,1.6,1.3,3,3,3h20c1.7,0,3-1.4,3-3V8.8c-0.6,0.8-1.3,1.7-2,2.7V27z"/>
<path fill="#FFFFFF" d="M28.4,0l1,1.9l-0.1,0.1c-0.1,0.1-8.8,8.4-13.9,21.1l0,0.1l-0.1,0l-4,3.2l-0.1-0.4c0-0.1-1.5-7.2-5.1-9.7l-0.3-0.2l4.1-3.5
	l0.1,0.1c0.1,0,1.6,0.7,3,5.3c1.3-2.3,7-11.7,15.2-17.8L28.4,0"/>
</svg>
