<?xml version="1.0" encoding="utf-8"?>
<!-- Generator: Adobe Illustrator 22.1.0, SVG Export Plug-In . SVG Version: 6.00 Build 0)  -->
<svg version="1.1" id="Layer_1" xmlns="http://www.w3.org/2000/svg" xmlns:xlink="http://www.w3.org/1999/xlink" x="0px" y="0px"
	 width="22px" height="22px" viewBox="0 0 22 22" enable-background="new 0 0 22 22" xml:space="preserve">
<path fill="#FFFFFF" d="M20.8,0l-0.2,0.1c-6,4.5-10.2,11.4-11.1,13.1c-1-3.4-2.1-3.8-2.2-3.9l-0.1,0l-3,2.6L4.4,12c2.7,1.8,3.8,7,3.8,7.1l0.1,0.3
	l3-2.3l0,0l0,0C15,7.7,21.4,1.6,21.4,1.5l0.1-0.1L20.8,0z"/>
<path fill="#FFFFFF" d="M18,19c0,1.1-0.9,2-2,2H3c-1.1,0-2-0.9-2-2V6c0-1.1,0.9-2,2-2h12c0.3-0.3,0.6-0.7,1-1H3C1.3,3,0,4.3,0,6v13c0,1.6,1.3,3,3,3
	h13c1.7,0,3-1.4,3-3V6c0-0.1,0-0.1,0-0.2c-0.3,0.4-0.6,0.8-1,1.3V19z"/>
</svg>
