<?xml version="1.0" encoding="utf-8"?>
<!-- Generator: Adobe Illustrator 22.0.1, SVG Export Plug-In . SVG Version: 6.00 Build 0)  -->
<svg version="1.1" id="Layer_1" xmlns="http://www.w3.org/2000/svg" xmlns:xlink="http://www.w3.org/1999/xlink" x="0px" y="0px"
	 width="22px" height="22px" viewBox="0 0 22 22" enable-background="new 0 0 22 22" xml:space="preserve">
<path fill="#FFFFFF" d="M19,5H3c0,1.1-0.9,2-2,2v8c1.1,0,2,0.9,2,2h16c0-1.1,0.9-2,2-2V7C19.9,7,19,6.1,19,5z M19,13c0,1.1-0.9,2-2,2H5
	c-1.1,0-2-0.9-2-2V9c0-1.1,0.9-2,2-2h12c1.1,0,2,0.9,2,2V13z"/>
<path fill="#FFFFFF" d="M17,8H5C4.4,8,4,8.4,4,9v4c0,0.6,0.4,1,1,1h12c0.6,0,1-0.4,1-1V9C18,8.4,17.6,8,17,8z M14,10h-2v3h-2v-3H8V9h6V10z"/>
</svg>
