<?xml version="1.0" encoding="utf-8"?>
<!-- Generator: Adobe Illustrator 22.0.1, SVG Export Plug-In . SVG Version: 6.00 Build 0)  -->
<svg version="1.1" id="Layer_1" xmlns="http://www.w3.org/2000/svg" xmlns:xlink="http://www.w3.org/1999/xlink" x="0px" y="0px"
	 width="30px" height="30px" viewBox="0 0 30 30" enable-background="new 0 0 30 30" xml:space="preserve">
<path d="M24,9H6c-1.1,0-2,0.9-2,2v8c0,1.1,0.9,2,2,2h18c1.1,0,2-0.9,2-2v-8C26,9.9,25.1,9,24,9z M19,14h-3v4h-2v-4h-3v-2h8V14z"/>
<path d="M27,6H3c0,1.7-1.3,3-3,3v12c1.7,0,3,1.3,3,3h24c0-1.7,1.3-3,3-3V9C28.3,9,27,7.7,27,6z M27,19c0,1.6-1.3,3-3,3H6
	c-1.6,0-3-1.4-3-3v-8c0-1.7,1.4-3,3-3h18c1.7,0,3,1.3,3,3V19z"/>
</svg>
