<?xml version="1.0" encoding="utf-8"?>
<!-- Generator: Adobe Illustrator 21.1.0, SVG Export Plug-In . SVG Version: 6.00 Build 0)  -->
<svg version="1.1" id="Layer_1_1_" xmlns="http://www.w3.org/2000/svg" xmlns:xlink="http://www.w3.org/1999/xlink" x="0px" y="0px"
	 width="14px" height="14px" viewBox="0 0 14 14" enable-background="new 0 0 14 14" xml:space="preserve">
<g>
	<path fill="#FFFFFF" d="M4.7,5.4C4.8,5.4,4.8,5.4,4.7,5.4c0.4-0.1,0.7-0.3,0.9-0.6c0.1-0.2,0.2-0.5,0.2-0.7C6,3.4,6,2.6,6.2,1.9
		c0.1-0.4,0.2-0.7,0.3-1.1c0.1-0.2,0.6-1,0.9-0.7c0.1,0.1,0.1,0.4,0,0.6c-0.1,0.5,0,1,0,1.5c0,0.5,0.1,1,0.2,1.6
		c0.1,0.6,0.4,1.3,1,1.7c0.8,0.5,1.7,0.6,2.6,0.5c0.5,0,1-0.1,1.5-0.2c0.2,0,1.1-0.4,1.1,0c0,0.1-0.1,0.2-0.2,0.3
		c-0.2,0.2-0.3,0.3-0.6,0.4c-1.1,0.6-2.7,0.3-3.5,1.4c-1.2,1.6,0.3,3.3,1.2,4.7c0.1,0.1,0.2,0.3,0.3,0.4c0.1,0.2,0.4,0.5,0.4,0.7
		c0,0.2,0,0.3-0.2,0.4c-0.4,0.2-0.7-0.3-0.9-0.5c-0.3-0.3-0.5-0.6-0.8-0.9c-0.6-0.7-1.2-1.3-2-1.8c-0.4-0.3-1.2-0.2-1.6-0.1
		c-0.5,0.2-0.9,0.5-1.3,0.9c-0.5,0.5-1,1.1-1.5,1.5c-0.1,0.1-0.7,0.7-0.8,0.4c-0.1-0.3,0.2-0.8,0.3-1.1c0.3-0.7,0.8-1.3,1.2-2
		c0.2-0.3,0.3-0.7,0.4-1c0.1-0.3,0.1-0.8,0-1.1C3.6,6.8,2.1,6.4,0.8,5.6C0.7,5.5,0.5,5.4,0.4,5.3C0.3,5.2-0.1,5,0.1,4.8
		c0.1-0.1,0.3,0,0.5,0c0.3,0.2,0.7,0.3,1,0.4c0.2,0.1,0.5,0.1,0.7,0.1C3.1,5.4,3.9,5.6,4.7,5.4z"/>
</g>
</svg>
