<?xml version="1.0" encoding="utf-8"?>
<!-- Generator: Adobe Illustrator 21.1.0, SVG Export Plug-In . SVG Version: 6.00 Build 0)  -->
<svg version="1.1" id="Layer_1_1_" xmlns="http://www.w3.org/2000/svg" xmlns:xlink="http://www.w3.org/1999/xlink" x="0px" y="0px"
	 width="30px" height="30px" viewBox="0 0 30 30" enable-background="new 0 0 30 30" xml:space="preserve">
<g>
	<path d="M10.1,11.6c0.1,0,0.1,0,0.2-0.1c0.6-0.2,1.4-0.6,1.7-1.1c0.2-0.5,0.4-1,0.5-1.5c0.4-1.6,0.4-3.3,0.7-4.9
		c0.1-0.8,0.4-1.6,0.7-2.3c0.2-0.4,1.3-2.2,2-1.5c0.3,0.3,0.1,0.9,0.1,1.2c-0.1,1,0,2.1,0.1,3.1c0.1,1.1,0.2,2.2,0.5,3.4
		c0.3,1.4,0.9,2.7,2.1,3.5c1.7,1.1,3.7,1.3,5.7,1.2c1.1-0.1,2.2-0.3,3.2-0.5c0.4-0.1,2.3-0.8,2.4,0c0,0.2-0.3,0.5-0.4,0.7
		c-0.3,0.4-0.7,0.7-1.2,0.9c-2.4,1.2-5.8,0.6-7.5,3c-2.6,3.4,0.7,7.2,2.6,10c0.2,0.3,0.4,0.6,0.6,0.9c0.3,0.4,0.8,1,0.9,1.5
		c0.1,0.3-0.1,0.7-0.4,0.9c-0.8,0.5-1.5-0.6-1.9-1.1c-0.6-0.7-1.2-1.4-1.8-2c-1.3-1.5-2.7-2.9-4.3-3.9c-0.9-0.6-2.5-0.5-3.5-0.2
		c-1.1,0.4-2,1.1-2.8,1.9c-1.1,1.1-2.1,2.3-3.3,3.3c-0.3,0.3-1.5,1.4-1.8,0.8c-0.3-0.6,0.4-1.7,0.6-2.3c0.7-1.5,1.8-2.8,2.6-4.3
		c0.4-0.7,0.7-1.4,0.9-2.2c0.2-0.6,0.3-1.7,0-2.3c-1.5-3-4.8-3.8-7.5-5.5c-0.3-0.2-0.6-0.4-0.9-0.7c-0.2-0.2-1-0.7-0.7-1.1
		c0.2-0.3,0.7-0.1,1,0c0.7,0.3,1.5,0.6,2.2,0.8c0.5,0.1,1.1,0.1,1.6,0.2C6.7,11.6,8.4,12,10.1,11.6z"/>
</g>
</svg>
