<?xml version="1.0" encoding="utf-8"?>
<!-- Generator: Adobe Illustrator 22.1.0, SVG Export Plug-In . SVG Version: 6.00 Build 0)  -->
<svg version="1.1" id="Layer_1" xmlns="http://www.w3.org/2000/svg" xmlns:xlink="http://www.w3.org/1999/xlink" x="0px" y="0px"
	 width="22px" height="22px" viewBox="0 0 22 22" enable-background="new 0 0 22 22" xml:space="preserve">
<polygon fill="#FFFFFF" points="20.9,14.2 20.9,12.5 10.7,17.1 10.7,18.8 12,18.2 12,22 22,22 22,20 14,20 14,17.3 "/>
<path fill="#FFFFFF" d="M16.1,2.6h-15c-0.2,0-0.4-0.2-0.4-0.4V0.4C0.7,0.2,0.9,0,1.1,0l15,0c0.2,0,0.4,0.2,0.4,0.4v1.7C16.6,2.4,16.4,2.6,16.1,2.6z
	"/>
<path fill="#FFFFFF" d="M13.7,7.9H2.4C2.2,7.9,2,7.7,2,7.4V5.7c0-0.2,0.2-0.4,0.4-0.4h11.2c0.2,0,0.4,0.2,0.4,0.4v1.7C14.1,7.7,13.9,7.9,13.7,7.9z"
	/>
<path fill="#FFFFFF" d="M11.2,12.6H2.9c-0.2,0-0.4-0.2-0.4-0.4v-1.7c0-0.2,0.2-0.4,0.4-0.4h8.4c0.2,0,0.4,0.2,0.4,0.4v1.7
	C11.6,12.4,11.5,12.6,11.2,12.6z"/>
<path fill="#FFFFFF" d="M7.8,17.3H2c-0.2,0-0.4-0.2-0.4-0.4v-1.7c0-0.2,0.2-0.4,0.4-0.4h5.9c0.2,0,0.4,0.2,0.4,0.4v1.7C8.2,17.1,8,17.3,7.8,17.3z"
	/>
<path fill="#FFFFFF" d="M4.2,22H0.8c-0.2,0-0.4-0.2-0.4-0.4v-1.7c0-0.2,0.2-0.4,0.4-0.4h3.4c0.2,0,0.4,0.2,0.4,0.4v1.7C4.7,21.8,4.5,22,4.2,22z"/>
</svg>
