<?xml version="1.0" encoding="utf-8"?>
<!-- Generator: Adobe Illustrator 22.1.0, SVG Export Plug-In . SVG Version: 6.00 Build 0)  -->
<svg version="1.1" id="Layer_1" xmlns="http://www.w3.org/2000/svg" xmlns:xlink="http://www.w3.org/1999/xlink" x="0px" y="0px"
	 width="30px" height="30px" viewBox="0 0 30 30" enable-background="new 0 0 30 30" xml:space="preserve">
<polygon points="28.4,19.4 28.4,17.1 14.6,23.3 14.6,25.7 17,24.6 17,30 30,30 30,28 19,28 19,23.7 "/>
<path d="M22.2,3H1.4C1.1,3,0.9,2.8,0.9,2.6V0.4C0.9,0.2,1.1,0,1.4,0l20.8,0c0.2,0,0.4,0.2,0.4,0.4v2.2C22.6,2.8,22.4,3,22.2,3z"/>
<path d="M18.8,9H3.1C2.9,9,2.7,8.8,2.7,8.6V6.4C2.7,6.2,2.9,6,3.1,6h15.6c0.2,0,0.4,0.2,0.4,0.4v2.2C19.2,8.8,19,9,18.8,9z"/>
<path d="M15.5,15H3.7c-0.2,0-0.4-0.2-0.4-0.4v-2.2c0-0.2,0.2-0.4,0.4-0.4h11.7c0.2,0,0.4,0.2,0.4,0.4v2.2C15.9,14.8,15.7,15,15.5,15
	z"/>
<path d="M10.8,21H2.5c-0.2,0-0.4-0.2-0.4-0.4v-2.2c0-0.2,0.2-0.4,0.4-0.4h8.3c0.2,0,0.4,0.2,0.4,0.4v2.2C11.2,20.8,11,21,10.8,21z"
	/>
<path d="M5.9,27h-5c-0.2,0-0.4-0.2-0.4-0.4v-2.2c0-0.2,0.2-0.4,0.4-0.4h5c0.2,0,0.4,0.2,0.4,0.4v2.2C6.4,26.8,6.2,27,5.9,27z"/>
</svg>
