<?xml version="1.0" encoding="utf-8"?>
<!-- Generator: Adobe Illustrator 22.1.0, SVG Export Plug-In . SVG Version: 6.00 Build 0)  -->
<svg version="1.1" id="Layer_1" xmlns="http://www.w3.org/2000/svg" xmlns:xlink="http://www.w3.org/1999/xlink" x="0px" y="0px"
	 width="14px" height="14px" viewBox="0 0 14 14" enable-background="new 0 0 14 14" xml:space="preserve">
<polygon points="13.5,9.1 13.5,8 7.1,10.9 7.1,12 8,11.6 8,14 14,14 14,13 9,13 9,11.1 "/>
<path d="M10.4,1.6l-9.3,0c-0.2,0-0.4-0.2-0.4-0.4V0.4C0.7,0.2,0.9,0,1.1,0l9.3,0c0.2,0,0.4,0.2,0.4,0.4v0.8
	C10.8,1.4,10.6,1.6,10.4,1.6z"/>
<path d="M8.8,5H1.9C1.7,5,1.5,4.8,1.5,4.6V3.8c0-0.2,0.2-0.4,0.4-0.4h6.8c0.2,0,0.4,0.2,0.4,0.4v0.8C9.2,4.8,9,5,8.8,5z"/>
<path d="M7.2,8h-5C2,8,1.8,7.8,1.8,7.6V6.8c0-0.2,0.2-0.4,0.4-0.4h5c0.2,0,0.4,0.2,0.4,0.4v0.8C7.7,7.8,7.5,8,7.2,8z"/>
<path d="M5.1,11H1.6c-0.2,0-0.4-0.2-0.4-0.4V9.8c0-0.2,0.2-0.4,0.4-0.4h3.4c0.2,0,0.4,0.2,0.4,0.4v0.8C5.5,10.8,5.3,11,5.1,11z"/>
<path d="M2.8,14H0.9c-0.2,0-0.4-0.2-0.4-0.4v-0.8c0-0.2,0.2-0.4,0.4-0.4h1.9c0.2,0,0.4,0.2,0.4,0.4v0.8C3.2,13.8,3,14,2.8,14z"/>
</svg>
