<?xml version="1.0" encoding="utf-8"?>
<!-- Generator: Adobe Illustrator 22.0.1, SVG Export Plug-In . SVG Version: 6.00 Build 0)  -->
<svg version="1.1" id="Layer_1" xmlns="http://www.w3.org/2000/svg" xmlns:xlink="http://www.w3.org/1999/xlink" x="0px" y="0px"
	 width="22px" height="22px" viewBox="0 0 22 22" enable-background="new 0 0 22 22" xml:space="preserve">
<path d="M5.5,14C4.7,14,4,14.7,4,15.5S4.7,17,5.5,17S7,16.3,7,15.5S6.3,14,5.5,14z M6,16H5v-1h1V16z"/>
<path d="M18.5,14c-0.8,0-1.5,0.7-1.5,1.5s0.7,1.5,1.5,1.5s1.5-0.7,1.5-1.5S19.3,14,18.5,14z M19,16h-1v-1h1V16z"/>
<rect x="1" y="9" width="1" height="1"/>
<path d="M21,12v-1l-1-3h-6l-1,1v3h-1L5,4H4H3v6H2v1h1h1V5.6L8.1,12H0v3h3.1c0.2-1.1,1.2-2,2.4-2s2.2,0.9,2.4,2h8.1
	c0.2-1.1,1.2-2,2.4-2s2.2,0.9,2.4,2H22v-2L21,12z M15,11V9h4.2l0.8,2H15z"/>
</svg>
