<?xml version="1.0" encoding="utf-8"?>
<!-- Generator: Adobe Illustrator 22.0.1, SVG Export Plug-In . SVG Version: 6.00 Build 0)  -->
<svg version="1.1" id="Layer_1" xmlns="http://www.w3.org/2000/svg" xmlns:xlink="http://www.w3.org/1999/xlink" x="0px" y="0px"
	 width="30px" height="30px" viewBox="0 0 30 30" enable-background="new 0 0 30 30" xml:space="preserve">
<path d="M9,21.5C9,22.9,7.9,24,6.5,24S4,22.9,4,21.5S5.1,19,6.5,19S9,20.1,9,21.5z M6.5,20C5.7,20,5,20.7,5,21.5S5.7,23,6.5,23
	S8,22.3,8,21.5S7.3,20,6.5,20z"/>
<path d="M26,21.5c0,1.4-1.1,2.5-2.5,2.5S21,22.9,21,21.5s1.1-2.5,2.5-2.5S26,20.1,26,21.5z M23.5,20c-0.8,0-1.5,0.7-1.5,1.5
	s0.7,1.5,1.5,1.5s1.5-0.7,1.5-1.5S24.3,20,23.5,20z"/>
<path d="M27,16l-1-5h-8l-1,1v5h-1L6,6H4H3v6v1c0.6,0,1,0.4,1,1s-0.4,1-1,1s-1-0.4-1-1H1c0,1.1,0.9,2,2,2s2-0.9,2-2
	c0-0.7-0.4-1.4-1-1.7V7.4l7,9.6H1v4h2h0.1c0.2-1.7,1.7-3,3.4-3s3.2,1.3,3.4,3h10.1c0.2-1.7,1.7-3,3.4-3s3.2,1.3,3.4,3H29v-3L27,16z
	 M19,16v-3l1-1h5l1,4H19z"/>
</svg>
