<?xml version="1.0" encoding="utf-8"?>
<!-- Generator: Adobe Illustrator 22.0.1, SVG Export Plug-In . SVG Version: 6.00 Build 0)  -->
<svg version="1.1" id="Layer_1" xmlns="http://www.w3.org/2000/svg" xmlns:xlink="http://www.w3.org/1999/xlink" x="0px" y="0px"
	 width="14px" height="14px" viewBox="0 0 14 14" enable-background="new 0 0 14 14" xml:space="preserve">
<circle cx="11" cy="10" r="1"/>
<circle cx="4" cy="10" r="1"/>
<path d="M13,7V4H8v3H7L3,2H2H1v3H0v1h1h1V3.2L5,7H0v3h2c0-1.1,0.9-2,2-2s2,0.9,2,2h3c0-1.1,0.9-2,2-2s2,0.9,2,2h1V8L13,7z M12,7H9V5
	h1h2V7z"/>
</svg>
