<?xml version="1.0" encoding="utf-8"?>
<!-- Generator: Adobe Illustrator 22.0.1, SVG Export Plug-In . SVG Version: 6.00 Build 0)  -->
<svg version="1.1" id="Layer_1" xmlns="http://www.w3.org/2000/svg" xmlns:xlink="http://www.w3.org/1999/xlink" x="0px" y="0px"
	 width="30px" height="30px" viewBox="0 0 30 30" enable-background="new 0 0 30 30" xml:space="preserve">
<path fill="#FFFFFF" d="M28,2H17h-2v26h2V12h11v16h2V2H28z M28,9H17V8h11V9z M28,7H17V6h11V7z M28,5H17V4h11V5z"/>
<g>
	<path fill="#FFFFFF" d="M7.6,6.3c1.1,0,2-0.9,2-2c0-1.1-0.9-2-2-2c-1.1,0-2,0.9-2,2C5.6,5.4,6.5,6.3,7.6,6.3z"/>
	<path fill="#FFFFFF" d="M4.2,6.6C4.3,6.3,4.1,6,3.8,5.9L2.1,5.5C1.8,5.4,1.5,5.6,1.4,5.9L0,11.7c-0.1,0.3,0.1,0.6,0.4,0.7l1.7,0.4
		c0.3,0.1,0.6-0.1,0.7-0.4L4.2,6.6z"/>
	<path fill="#FFFFFF" d="M0.7,26.1c0,0.1,0,0.2,0,0.3c0,0.8,0.6,1.4,1.4,1.4c0.6,0,1.2-0.4,1.4-1l2.4-10l2.3,10c0.1,0.6,0.7,1.1,1.4,1.1
		c0.8,0,1.4-0.6,1.4-1.4c0-0.1,0-0.2,0-0.3L7.8,12.8L8,11.6l0.2,0.9C8.4,13.1,9,13.2,9,13.2l3.3,0.8c0.1,0,0.1,0,0.2,0
		c0.5,0,1-0.4,1-1c0-0.5-0.3-0.8-0.7-0.9l-2.8-0.7L9.1,8.3C8.7,6.5,7,6.6,7,6.6c-1.6,0-2,1.7-2,1.7L0.7,26.1z"/>
</g>
</svg>
