<?xml version="1.0" encoding="utf-8"?>
<!-- Generator: Adobe Illustrator 22.0.1, SVG Export Plug-In . SVG Version: 6.00 Build 0)  -->
<svg version="1.1" id="Layer_1" xmlns="http://www.w3.org/2000/svg" xmlns:xlink="http://www.w3.org/1999/xlink" x="0px" y="0px"
	 width="22px" height="22px" viewBox="0 0 22 22" enable-background="new 0 0 22 22" xml:space="preserve">
<path d="M20,2h-7h-2v18h2V9h7v11h2V2H20z M20,8h-7V7h7V8z M20,6h-7V5h7V6z M20,4h-7V3h7V4z"/>
<g>
	<path d="M5.6,4.6C6.4,4.6,7,3.9,7,3.1c0-0.8-0.7-1.5-1.5-1.5c-0.8,0-1.5,0.7-1.5,1.5C4.1,3.9,4.8,4.6,5.6,4.6z"/>
	<path d="M3.1,4.8C3.1,4.6,3,4.4,2.8,4.3L1.6,4C1.3,4,1.1,4.1,1,4.3L0,8.6C0,8.8,0.1,9.1,0.3,9.1l1.2,0.3C1.8,9.5,2,9.3,2.1,9.1
		L3.1,4.8z"/>
	<path d="M0.5,19.1c0,0.1,0,0.1,0,0.2c0,0.6,0.5,1,1,1c0.5,0,0.9-0.3,1-0.7l1.8-7.4L6,19.6c0.1,0.5,0.5,0.8,1,0.8c0.6,0,1-0.5,1-1
		c0-0.1,0-0.2,0-0.2L5.7,9.4l0.2-0.9L6,9.2c0.1,0.4,0.5,0.5,0.5,0.5L9,10.3c0,0,0.1,0,0.1,0c0.4,0,0.7-0.3,0.7-0.7
		c0-0.3-0.2-0.6-0.5-0.7L7.2,8.4L6.6,6.1C6.4,4.8,5.1,4.8,5.1,4.8C3.9,4.8,3.6,6,3.6,6L0.5,19.1z"/>
</g>
</svg>
