<?xml version="1.0" encoding="utf-8"?>
<!-- Generator: Adobe Illustrator 22.1.0, SVG Export Plug-In . SVG Version: 6.00 Build 0)  -->
<svg version="1.1" id="Layer_1" xmlns="http://www.w3.org/2000/svg" xmlns:xlink="http://www.w3.org/1999/xlink" x="0px" y="0px"
	 width="30px" height="30px" viewBox="0 0 30 30" enable-background="new 0 0 30 30" xml:space="preserve">
<path fill="#FFFFFF" d="M13.5,18c-1.4,0-2.5,1.1-2.5,2.5c0,1.4,1.1,2.5,2.5,2.5s2.5-1.1,2.5-2.5C16,19.1,14.9,18,13.5,18z M13.5,22
	c-0.8,0-1.5-0.7-1.5-1.5s0.7-1.5,1.5-1.5s1.5,0.7,1.5,1.5S14.3,22,13.5,22z"/>
<path fill="#FFFFFF" d="M13.5,17c1.9,0,3.5,1.6,3.5,3.5c0,0.1,0,0.4,0,0.5h13c0-0.5-0.4-1-1-1h-3v-9c0-2.7-1.7-5-4.5-5H4.9C2.2,6,0,8.3,0,11l0,6.3
	c0,2,1.6,3.7,3.6,3.7H10c0-0.1,0-0.4,0-0.5C10,18.6,11.6,17,13.5,17z M18,10c0-0.6,0.4-1,1-1h3c0.6,0,1,0.4,1,1v2c0,0.6-0.4,1-1,1
	h-3c-0.6,0-1-0.4-1-1V10z M4,12v-2c0-0.6,0.4-1,1-1h7c0.6,0,1,0.4,1,1v2c0,0.6-0.4,1-1,1H5C4.4,13,4,12.6,4,12z"/>
</svg>
