<?xml version="1.0" encoding="utf-8"?>
<!-- Generator: Adobe Illustrator 22.0.1, SVG Export Plug-In . SVG Version: 6.00 Build 0)  -->
<svg version="1.1" id="Layer_1" xmlns="http://www.w3.org/2000/svg" xmlns:xlink="http://www.w3.org/1999/xlink" x="0px" y="0px"
	 width="14px" height="14px" viewBox="0 0 14 14" enable-background="new 0 0 14 14" xml:space="preserve">
<path fill="#FFFFFF" d="M13,1H8H7v12h1V6h5v7h1V1H13z M13,5H8V4h5V5z M13,3H8V2h5V3z"/>
<g>
	<path fill="#FFFFFF" d="M3.5,2.9c0.5,0,0.9-0.4,0.9-0.9C4.5,1.5,4.1,1,3.5,1C3,1,2.6,1.5,2.6,2C2.6,2.5,3,2.9,3.5,2.9z"/>
	<path fill="#FFFFFF" d="M2,3.1c0-0.1-0.1-0.3-0.2-0.3L1,2.6c-0.1,0-0.3,0.1-0.3,0.2L0,5.5c0,0.1,0.1,0.3,0.2,0.3L1,6c0.1,0,0.3-0.1,0.3-0.2L2,3.1z
		"/>
	<path fill="#FFFFFF" d="M0.3,12.2c0,0,0,0.1,0,0.1C0.3,12.7,0.6,13,1,13c0.3,0,0.6-0.2,0.6-0.5l1.1-4.7l1.1,4.7C3.9,12.7,4.2,13,4.5,13
		c0.4,0,0.7-0.3,0.7-0.7c0-0.1,0-0.1,0-0.1L3.6,6l0.1-0.5l0.1,0.4c0.1,0.3,0.3,0.3,0.3,0.3l1.5,0.4c0,0,0.1,0,0.1,0
		c0.2,0,0.5-0.2,0.5-0.4c0-0.2-0.1-0.4-0.3-0.4L4.6,5.3L4.2,3.9c-0.2-0.8-1-0.8-1-0.8c-0.8,0-1,0.8-1,0.8L0.3,12.2z"/>
</g>
</svg>
