<?xml version="1.0" encoding="utf-8"?>
<!-- Generator: Adobe Illustrator 20.0.0, SVG Export Plug-In . SVG Version: 6.00 Build 0)  -->
<svg version="1.1" id="Icons" xmlns="http://www.w3.org/2000/svg" xmlns:xlink="http://www.w3.org/1999/xlink" x="0px" y="0px"
	 width="14px" height="14px" viewBox="0 0 14 14" enable-background="new 0 0 14 14" xml:space="preserve">
<g>
	<path fill="#FFFFFF" d="M3.5,13.1v0.2c0,0.4,0.3,0.8,0.8,0.8c0.4,0,0.6-0.2,0.7-0.6L6.3,8l1.3,5.5C7.7,13.8,8,14,8.4,14s0.8-0.3,0.8-0.8V13
		L7.4,5.8l0.1-0.6l0.1,0.5C7.7,6,8,6,8,6l1.8,0.5h0.1c0.3,0,0.5-0.2,0.5-0.5c0-0.2-0.2-0.5-0.4-0.5L8.5,5L8.1,3.3
		C7.9,2.3,7,2.4,7,2.4c-0.9,0-1.1,0.9-1.1,0.9L3.5,13.1z"/>
	<rect fill="#FFFFFF" x="7" width="2" height="2"/>
	<polygon fill="#FFFFFF" points="4,6 2,6 2,2 5,2 4,3 	"/>
	<rect fill="#FFFFFF" x="12" y="3" width="1" height="11"/>
</g>
</svg>
