<?xml version="1.0" encoding="utf-8"?>
<!-- Generator: Adobe Illustrator 25.2.1, SVG Export Plug-In . SVG Version: 6.00 Build 0)  -->
<svg version="1.1" id="Layer_1" xmlns="http://www.w3.org/2000/svg" xmlns:xlink="http://www.w3.org/1999/xlink" x="0px" y="0px"
	 width="14px" height="14px" viewBox="0 0 14 14" enable-background="new 0 0 14 14" xml:space="preserve">
<g>
	<path fill="#FFFFFF" d="M0.5,13.5v-2c0.32,0,0.61-0.02,0.9-0.04l0.21,1.99C1.26,13.48,0.89,13.5,0.5,13.5z"/>
</g>
<path fill="#FFFFFF" d="M3.68,12.96l-0.73-1.86c0.49-0.19,0.92-0.45,1.28-0.78l1.34,1.48C5.04,12.29,4.4,12.68,3.68,12.96z M6.91,10
	L5.1,9.14C5.4,8.53,5.47,7.98,5.49,7.7l2,0.14C7.45,8.35,7.32,9.14,6.91,10z M7.8,6.34L5.95,5.58C6.22,4.94,6.58,4.31,7,3.74
	l1.6,1.2C8.28,5.38,8,5.86,7.8,6.34z M9.72,3.78L8.47,2.22c0.56-0.45,1.18-0.82,1.83-1.1l0.78,1.84C10.59,3.17,10.14,3.44,9.72,3.78
	z"/>
<g>
	<path fill="#FFFFFF" d="M12.63,2.55l-0.26-1.98c0.36-0.05,0.74-0.07,1.13-0.07v2C13.2,2.5,12.91,2.52,12.63,2.55z"/>
</g>
</svg>
