<?xml version="1.0" encoding="utf-8"?>
<!-- Generator: Adobe Illustrator 18.1.1, SVG Export Plug-In . SVG Version: 6.00 Build 0)  -->
<svg version="1.1" id="Icons" xmlns="http://www.w3.org/2000/svg" xmlns:xlink="http://www.w3.org/1999/xlink" x="0px" y="0px"
	 viewBox="0 0 16 16" enable-background="new 0 0 16 16" xml:space="preserve">
<g opacity="0.5">
	<path d="M5.5,15.1l0,0.2c0,0.4,0.3,0.8,0.8,0.8c0.4,0,0.6-0.2,0.7-0.6l1.3-5.5l1.3,5.5C9.7,15.8,10,16,10.4,16
		c0.4,0,0.8-0.3,0.8-0.8l0-0.2L9.4,7.8l0.1-0.6l0.1,0.5C9.7,8,10,8,10,8l1.8,0.5l0.1,0c0.3,0,0.5-0.2,0.5-0.5c0-0.2-0.2-0.5-0.4-0.5
		L10.5,7l-0.4-1.7C9.9,4.3,9,4.4,9,4.4c-0.9,0-1.1,0.9-1.1,0.9L5.5,15.1z"/>
	<rect x="9" y="2" width="2" height="2"/>
	<polygon points="6,8 4,8 4,4 7,4 6,5 	"/>
	<rect x="14" y="5" width="1" height="11"/>
</g>
<g opacity="0.75">
	<path d="M4.5,14.1l0,0.2c0,0.4,0.3,0.8,0.8,0.8c0.4,0,0.6-0.2,0.7-0.6l1.3-5.5l1.3,5.5C8.7,14.8,9,15,9.4,15c0.4,0,0.8-0.3,0.8-0.8
		l0-0.2L8.4,6.8l0.1-0.6l0.1,0.5C8.7,7,9,7,9,7l1.8,0.5l0.1,0c0.3,0,0.5-0.2,0.5-0.5c0-0.2-0.2-0.5-0.4-0.5L9.5,6L9.1,4.3
		C8.9,3.3,8,3.4,8,3.4c-0.9,0-1.1,0.9-1.1,0.9L4.5,14.1z"/>
	<rect x="8" y="1" width="2" height="2"/>
	<polygon points="5,7 3,7 3,3 6,3 5,4 	"/>
	<rect x="13" y="4" width="1" height="11"/>
</g>
<g>
	<path fill="#FFFFFF" d="M3.5,13.1l0,0.2c0,0.4,0.3,0.8,0.8,0.8c0.4,0,0.6-0.2,0.7-0.6l1.3-5.5l1.3,5.5C7.7,13.8,8,14,8.4,14
		c0.4,0,0.8-0.3,0.8-0.8l0-0.2L7.4,5.8l0.1-0.6l0.1,0.5C7.7,6,8,6,8,6l1.8,0.5l0.1,0c0.3,0,0.5-0.2,0.5-0.5c0-0.2-0.2-0.5-0.4-0.5
		L8.5,5L8.1,3.3C7.9,2.3,7,2.4,7,2.4c-0.9,0-1.1,0.9-1.1,0.9L3.5,13.1z"/>
	<rect x="7" fill="#FFFFFF" width="2" height="2"/>
	<polygon fill="#FFFFFF" points="4,6 2,6 2,2 5,2 4,3 	"/>
	<rect x="12" y="3" fill="#FFFFFF" width="1" height="11"/>
</g>
</svg>
