<?xml version="1.0" encoding="utf-8"?>
<!-- Generator: Adobe Illustrator 18.1.1, SVG Export Plug-In . SVG Version: 6.00 Build 0)  -->
<svg version="1.1" id="Icons" xmlns="http://www.w3.org/2000/svg" xmlns:xlink="http://www.w3.org/1999/xlink" x="0px" y="0px"
	 viewBox="0 0 32 32" enable-background="new 0 0 32 32" xml:space="preserve">
<g opacity="0.5">
	<path d="M13,6.9c0.1-0.4-0.2-0.4-0.5-0.4l-2-0.5c-0.4-0.1-0.7,0.1-0.8,0.5L8,13.3c-0.1,0.4,0.1,0.7,0.5,0.8l2,0.5
		c0.4,0.1,0.5,0.2,0.6-0.2L13,6.9"/>
	<path d="M22,31.4L22,31.4c0,0.3,0.2,0.6,0.5,0.6c0.3,0,0.5-0.2,0.5-0.5l4-21.5v0c0-0.3-0.2-0.5-0.5-0.5c-0.3,0-0.5,0.2-0.5,0.5
		L22,31.4L22,31.4z"/>
	<path d="M9.1,30c0,0.1,0,0.2,0,0.3c0,0.9,0.7,1.7,1.7,1.7c0.8,0,1.4-0.5,1.6-1.2L15.2,19l2.7,11.7c0.2,0.7,0.8,1.3,1.6,1.3
		c0.9,0,1.7-0.7,1.7-1.7c0-0.1,0-0.2,0-0.4l-3.7-15.6l0.3-1.4l0.2,1.1c0.2,0.7,0.9,0.8,0.9,0.8l3.8,1l0.2,0c0.6,0,1.1-0.5,1.1-1.1
		c0-0.5-0.4-1-0.9-1.1l-3.3-0.8l-0.9-3.7C18.6,7.8,17,8,17,8c-2.6,0-2.9,1.1-2.9,1.1L9.1,30z"/>
	<circle cx="17.5" cy="4.5" r="2.5"/>
</g>
<g opacity="0.75">
	<path d="M12,5.9c0.1-0.4-0.2-0.4-0.5-0.4L9.5,5C9.1,4.9,8.8,5.1,8.7,5.5L7,12.3c-0.1,0.4,0.1,0.7,0.5,0.8l2,0.5
		c0.4,0.1,0.5,0.2,0.6-0.2L12,5.9"/>
	<path d="M21,30.4L21,30.4c0,0.3,0.2,0.6,0.5,0.6c0.3,0,0.5-0.2,0.5-0.5l4-21.5v0c0-0.3-0.2-0.5-0.5-0.5c-0.3,0-0.5,0.2-0.5,0.5
		L21,30.4L21,30.4z"/>
	<path d="M8.1,29c0,0.1,0,0.2,0,0.3c0,0.9,0.7,1.7,1.7,1.7c0.8,0,1.4-0.5,1.6-1.2L14.2,18l2.7,11.7c0.2,0.7,0.8,1.3,1.6,1.3
		c0.9,0,1.7-0.7,1.7-1.7c0-0.1,0-0.2,0-0.4l-3.7-15.6l0.3-1.4l0.2,1.1c0.2,0.7,0.9,0.8,0.9,0.8l3.8,1l0.2,0c0.6,0,1.1-0.5,1.1-1.1
		c0-0.5-0.4-1-0.9-1.1l-3.3-0.8l-0.9-3.7C17.6,6.8,16,7,16,7c-2.6,0-2.9,1.1-2.9,1.1L8.1,29z"/>
	<circle cx="16.5" cy="3.5" r="2.5"/>
</g>
<g>
	<path fill="#FFFFFF" d="M11,4.9c0.1-0.4-0.2-0.4-0.5-0.4L8.5,4C8.1,3.9,7.8,4.1,7.7,4.5L6,11.3c-0.1,0.4,0.1,0.7,0.5,0.8l2,0.5
		c0.4,0.1,0.5,0.2,0.6-0.2L11,4.9"/>
	<path fill="#FFFFFF" d="M20,29.4L20,29.4c0,0.3,0.2,0.6,0.5,0.6c0.3,0,0.5-0.2,0.5-0.5l4-21.5v0c0-0.3-0.2-0.5-0.5-0.5
		c-0.3,0-0.5,0.2-0.5,0.5L20,29.4L20,29.4z"/>
	<path fill="#FFFFFF" d="M7.1,28c0,0.1,0,0.2,0,0.3c0,0.9,0.7,1.7,1.7,1.7c0.8,0,1.4-0.5,1.6-1.2L13.2,17l2.7,11.7
		c0.2,0.7,0.8,1.3,1.6,1.3c0.9,0,1.7-0.7,1.7-1.7c0-0.1,0-0.2,0-0.4l-3.7-15.6l0.3-1.4l0.2,1.1c0.2,0.7,0.9,0.8,0.9,0.8l3.8,1l0.2,0
		c0.6,0,1.1-0.5,1.1-1.1c0-0.5-0.4-1-0.9-1.1l-3.3-0.8l-0.9-3.7C16.6,5.8,15,6,15,6c-2.6,0-2.9,1.1-2.9,1.1L7.1,28z"/>
	<circle fill="#FFFFFF" cx="15.5" cy="2.5" r="2.5"/>
</g>
</svg>
