<?xml version="1.0" encoding="utf-8"?>
<!-- Generator: Adobe Illustrator 22.1.0, SVG Export Plug-In . SVG Version: 6.00 Build 0)  -->
<svg version="1.1" id="Layer_1" xmlns="http://www.w3.org/2000/svg" xmlns:xlink="http://www.w3.org/1999/xlink" x="0px" y="0px"
	 width="14px" height="14px" viewBox="0 0 14 14" enable-background="new 0 0 14 14" xml:space="preserve">
<g>
	<circle fill="#FFFFFF" cx="5.5" cy="10" r="1.2"/>
</g>
<path fill="#FFFFFF" d="M12,9c0-1,0-2.4,0-3c0-1,0-3-3-3C7.2,3,4.7,3,2.9,3C1,3,0,4,0,6c0,0.5,0,1.6,0,2.1C0,9,1,10,2,10c0.3,0,1.2,0,1.2,0
	c0-1.2,1-2.2,2.2-2.2s2.2,1,2.2,2.2H12h2V9H12z M5,6H3C2.5,6,2,5.5,2,5s0.5-1,1-1h2c0.5,0,1,0.5,1,1S5.5,6,5,6z M10,6H9
	C8.5,6,8,5.5,8,5s0.5-1,1-1h1c0.5,0,1,0.5,1,1S10.5,6,10,6z"/>
</svg>
