<?xml version="1.0" encoding="utf-8"?>
<!-- Generator: Adobe Illustrator 25.2.1, SVG Export Plug-In . SVG Version: 6.00 Build 0)  -->
<svg version="1.1" id="Layer_1" xmlns="http://www.w3.org/2000/svg" xmlns:xlink="http://www.w3.org/1999/xlink" x="0px" y="0px"
	 width="22px" height="22px" viewBox="0 0 22 22" enable-background="new 0 0 22 22" xml:space="preserve">
<g>
	<path fill="#FFFFFF" d="M1,21v-3c0.48,0,0.94-0.02,1.37-0.06l0.25,2.99C2.1,20.98,1.55,21,1,21z"/>
</g>
<path fill="#FFFFFF" d="M4.82,20.59l-0.7-2.92c0.88-0.21,1.65-0.53,2.3-0.94l1.61,2.53C7.11,19.85,6.03,20.3,4.82,20.59z
	 M9.87,17.68L7.6,15.72c0.5-0.58,0.87-1.27,1.1-2.06l2.88,0.85C11.22,15.72,10.65,16.78,9.87,17.68z M11.98,12.22l-2.99-0.19
	C8.99,11.85,9,11.67,9,11.5c0-0.95,0.08-1.81,0.23-2.63l2.95,0.56C12.06,10.05,12,10.75,12,11.5C12,11.74,11.99,11.98,11.98,12.22z
	 M12.66,7.85L9.91,6.64c0.5-1.13,1.21-2.12,2.11-2.92l1.99,2.24C13.43,6.48,12.99,7.1,12.66,7.85z M15.35,5.07L14,2.39
	c0.94-0.47,2.03-0.83,3.22-1.06l0.57,2.95C16.86,4.46,16.04,4.72,15.35,5.07z"/>
<g>
	<path fill="#FFFFFF" d="M19.6,4.05L19.4,1.05C19.9,1.02,20.44,1,21,1v3C20.51,4,20.04,4.02,19.6,4.05z"/>
</g>
</svg>
