<?xml version="1.0" encoding="utf-8"?>
<!-- Generator: Adobe Illustrator 20.0.0, SVG Export Plug-In . SVG Version: 6.00 Build 0)  -->
<svg version="1.1" id="Icons" xmlns="http://www.w3.org/2000/svg" xmlns:xlink="http://www.w3.org/1999/xlink" x="0px" y="0px"
	 width="30px" height="30px" viewBox="0 0 30 30" enable-background="new 0 0 30 30" xml:space="preserve">
<g>
	<path fill="#FFFFFF" d="M11,4.9c0.1-0.4-0.2-0.4-0.5-0.4L8.5,4C8.1,3.9,7.8,4.1,7.7,4.5L6,11.3c-0.1,0.4,0.1,0.7,0.5,0.8l2,0.5
		c0.4,0.1,0.5,0.2,0.6-0.2L11,4.9"/>
	<path fill="#FFFFFF" d="M20,29.4L20,29.4c0,0.3,0.2,0.6,0.5,0.6s0.5-0.2,0.5-0.5L25,8l0,0c0-0.3-0.2-0.5-0.5-0.5S24,7.7,24,8L20,29.4L20,29.4z"/>
	<path fill="#FFFFFF" d="M7.1,28c0,0.1,0,0.2,0,0.3c0,0.9,0.7,1.7,1.7,1.7c0.8,0,1.4-0.5,1.6-1.2L13.2,17l2.7,11.7c0.2,0.7,0.8,1.3,1.6,1.3
		c0.9,0,1.7-0.7,1.7-1.7c0-0.1,0-0.2,0-0.4l-3.7-15.6l0.3-1.4L16,12c0.2,0.7,0.9,0.8,0.9,0.8l3.8,1h0.2c0.6,0,1.1-0.5,1.1-1.1
		c0-0.5-0.4-1-0.9-1.1l-3.3-0.8l-0.9-3.7C16.6,5.8,15,6,15,6c-2.6,0-2.9,1.1-2.9,1.1L7.1,28z"/>
	<circle fill="#FFFFFF" cx="15.5" cy="2.5" r="2.5"/>
</g>
</svg>
