<?xml version="1.0" encoding="utf-8"?>
<!-- Generator: Adobe Illustrator 22.1.0, SVG Export Plug-In . SVG Version: 6.00 Build 0)  -->
<svg version="1.1" id="Layer_1" xmlns="http://www.w3.org/2000/svg" xmlns:xlink="http://www.w3.org/1999/xlink" x="0px" y="0px"
	 width="30px" height="30px" viewBox="0 0 30 30" enable-background="new 0 0 30 30" xml:space="preserve">
<polygon fill="#FFFFFF" points="30,2.8 30,1.7 0,13.1 0,14.1 "/>
<path fill="#FFFFFF" d="M13.2,6.8c0.9,0,1.6-0.7,1.6-1.6c0-0.9-0.7-1.6-1.6-1.6c-0.9,0-1.6,0.7-1.6,1.6C11.5,6,12.3,6.8,13.2,6.8z"/>
<path fill="#FFFFFF" d="M17.1,5.3c0.9,0,1.6-0.7,1.6-1.6C18.7,2.8,18,2,17.1,2c-0.9,0-1.6,0.7-1.6,1.6C15.4,4.6,16.2,5.3,17.1,5.3z"/>
<path fill="#FFFFFF" d="M24.5,15H16V9l-1,0.4V15H7.5C7.2,15,7,15.2,7,15.5v12C7,27.8,7.2,28,7.5,28h17c0.3,0,0.5-0.2,0.5-0.5v-12
	C25,15.2,24.8,15,24.5,15z M12,20.5c0,0.3-0.2,0.5-0.5,0.5h-3C8.2,21,8,20.8,8,20.5v-3C8,17.2,8.2,17,8.5,17h3
	c0.3,0,0.5,0.2,0.5,0.5V20.5z M18,20.5c0,0.3-0.2,0.5-0.5,0.5h-3c-0.3,0-0.5-0.2-0.5-0.5v-3c0-0.3,0.2-0.5,0.5-0.5h3
	c0.3,0,0.5,0.2,0.5,0.5V20.5z M24,20.5c0,0.3-0.2,0.5-0.5,0.5h-3c-0.3,0-0.5-0.2-0.5-0.5v-3c0-0.3,0.2-0.5,0.5-0.5h3
	c0.3,0,0.5,0.2,0.5,0.5V20.5z"/>
</svg>
