<?xml version="1.0" encoding="utf-8"?>
<!-- Generator: Adobe Illustrator 24.2.0, SVG Export Plug-In . SVG Version: 6.00 Build 0)  -->
<svg version="1.1" id="Layer_1" xmlns="http://www.w3.org/2000/svg" xmlns:xlink="http://www.w3.org/1999/xlink" x="0px" y="0px"
	 width="22px" height="22px" viewBox="0 0 22 22" enable-background="new 0 0 22 22" xml:space="preserve">
<path  d="M16,17.3c1,0,1.8,0.8,1.8,1.8S17,20.8,16,20.8S14.3,20,14.3,19S15,17.3,16,17.3 M16,16c-1.7,0-3,1.3-3,3
	s1.3,3,3,3s3-1.3,3-3S17.7,16,16,16L16,16z"/>
<path  d="M17.9,2c0,0-0.6-1-0.9-1c-1,0-4,0-4,0h-2H0v1h11v8v4v3H9v-3h0.5c0.4,0,0.8-0.4,0.8-0.8s-0.4-0.8-0.8-0.8H7.5
	l-0.9-4C6.5,8,6,7.7,5.6,7.8C5.2,7.9,4.9,8.4,5,8.8l1.1,4.6h0C6.2,13.7,6.5,14,6.8,14h1H8v3H4v-3h0.5c0.4,0,0.8-0.4,0.8-0.8
	S5,12.4,4.5,12.4H2.5l-0.9-4C1.5,8,1,7.7,0.6,7.8C0.2,7.9-0.1,8.4,0,8.8l1.1,4.6h0C1.2,13.7,1.5,14,1.8,14h1H3v3H0v1h11h1.1
	c0.4-1.7,2-3,3.9-3s3.4,1.3,3.9,3H22v-1v-6.4V10V9.8L17.9,2z M20,10c-0.4,0-5.4,0-6,0s-1-0.4-1-1s0-5.5,0-6c0-0.5,0.6-1,1-1
	c0.5,0,1.5,0,2,0s1.1,0.5,1.3,0.9c0.2,0.4,2.9,5.6,3.2,6.1C20.8,9.7,20.4,10,20,10z"/>
</svg>
