<?xml version="1.0" encoding="utf-8"?>
<!-- Generator: Adobe Illustrator 22.1.0, SVG Export Plug-In . SVG Version: 6.00 Build 0)  -->
<svg version="1.1" id="Layer_1" xmlns="http://www.w3.org/2000/svg" xmlns:xlink="http://www.w3.org/1999/xlink" x="0px" y="0px"
	 width="22px" height="22px" viewBox="0 0 22 22" enable-background="new 0 0 22 22" xml:space="preserve">
<polygon fill="#FFFFFF" points="22,2 22,1.3 0,9.6 0,10.3 "/>
<path fill="#FFFFFF" d="M9.7,5c0.7,0,1.2-0.5,1.2-1.2c0-0.7-0.5-1.2-1.2-1.2C9,2.6,8.5,3.1,8.5,3.8C8.5,4.4,9,5,9.7,5z"/>
<path fill="#FFFFFF" d="M12.5,3.9c0.7,0,1.2-0.5,1.2-1.2c0-0.7-0.5-1.2-1.2-1.2c-0.7,0-1.2,0.5-1.2,1.2C11.3,3.4,11.8,3.9,12.5,3.9z"/>
<path fill="#FFFFFF" d="M11,7.2V11H5.5C5.2,11,5,11.2,5,11.5v9C5,20.8,5.2,21,5.5,21h12c0.3,0,0.5-0.2,0.5-0.5v-9c0-0.3-0.2-0.5-0.5-0.5H12V6.8
	L11,7.2z M9,14.5C9,14.8,8.8,15,8.5,15h-2C6.2,15,6,14.8,6,14.5v-2C6,12.2,6.2,12,6.5,12h2C8.8,12,9,12.2,9,12.5V14.5z M14,12.5
	c0-0.3,0.2-0.5,0.5-0.5h2c0.3,0,0.5,0.2,0.5,0.5v2c0,0.3-0.2,0.5-0.5,0.5h-2c-0.3,0-0.5-0.2-0.5-0.5V12.5z M12.5,12
	c0.3,0,0.5,0.2,0.5,0.5v2c0,0.3-0.2,0.5-0.5,0.5h-2c-0.3,0-0.5-0.2-0.5-0.5v-2c0-0.3,0.2-0.5,0.5-0.5H12.5z"/>
</svg>
