<?xml version="1.0" encoding="utf-8"?>
<!-- Generator: Adobe Illustrator 24.2.0, SVG Export Plug-In . SVG Version: 6.00 Build 0)  -->
<svg version="1.1" id="Layer_1" xmlns="http://www.w3.org/2000/svg" xmlns:xlink="http://www.w3.org/1999/xlink" x="0px" y="0px"
	 width="14px" height="14px" viewBox="0 0 14 14" enable-background="new 0 0 14 14" xml:space="preserve">
<path  d="M10,10c-1.1,0-2,0.9-2,2c0,1.1,0.9,2,2,2s2-0.9,2-2C12,10.9,11.1,10,10,10z M10,13c-0.6,0-1-0.4-1-1
	c0-0.6,0.4-1,1-1s1,0.4,1,1C11,12.6,10.6,13,10,13z"/>
<path  d="M14,6l-3-5l-0.6-1H8H7H0v1h7v5v1v3H6V8h0.2c0.3,0,0.5-0.2,0.5-0.5S6.4,7,6.2,7H4.8L4.2,4.5
	C4.2,4.2,3.9,4,3.6,4.1C3.4,4.1,3.2,4.4,3.3,4.7l0.7,2.9h0C4,7.8,4.2,8,4.4,8H5v2H3V8H2.9c0.3,0,0.5-0.2,0.5-0.5S3.2,7,2.9,7H1.6
	L1,4.5C0.9,4.2,0.7,4,0.4,4.1C0.1,4.1,0,4.4,0,4.7l0.7,2.9h0C0.7,7.8,0.9,8,1.2,8h0.6H2v2H0v1h2h1h2h1h1h0.2C7.6,9.8,8.7,9,10,9
	s2.4,0.8,2.8,2H14v-1V6L14,6L14,6z M12,6H9C8.5,6,8,5.5,8,5V2c0-0.5,0.5-1,1-1h0.8l2.9,4.7C12.5,5.9,12.3,6,12,6z"/>
</svg>
