<?xml version="1.0" encoding="utf-8"?>
<!-- Generator: Adobe Illustrator 22.1.0, SVG Export Plug-In . SVG Version: 6.00 Build 0)  -->
<svg version="1.1" id="Layer_1" xmlns="http://www.w3.org/2000/svg" xmlns:xlink="http://www.w3.org/1999/xlink" x="0px" y="0px"
	 width="14px" height="14px" viewBox="0 0 14 14" enable-background="new 0 0 14 14" xml:space="preserve">
<polygon fill="#FFFFFF" points="14,1.3 14,0.8 0,6.1 0,6.6 "/>
<path fill="#FFFFFF" d="M6.1,3.2c0.4,0,0.8-0.3,0.8-0.8c0-0.4-0.3-0.8-0.8-0.8C5.7,1.6,5.4,2,5.4,2.4C5.4,2.8,5.7,3.2,6.1,3.2z"/>
<path fill="#FFFFFF" d="M6.1,3.2c0.4,0,0.8-0.3,0.8-0.8c0-0.4-0.3-0.8-0.8-0.8C5.7,1.6,5.4,2,5.4,2.4C5.4,2.8,5.7,3.2,6.1,3.2z"/>
<path fill="#FFFFFF" d="M8,2.5c0.4,0,0.8-0.3,0.8-0.8C8.7,1.3,8.4,1,8,1C7.5,1,7.2,1.3,7.2,1.7C7.2,2.1,7.5,2.5,8,2.5z"/>
<path fill="#FFFFFF" d="M8,2.5c0.4,0,0.8-0.3,0.8-0.8C8.7,1.3,8.4,1,8,1C7.5,1,7.2,1.3,7.2,1.7C7.2,2.1,7.5,2.5,8,2.5z"/>
<path fill="#FFFFFF" d="M14,1.3V0.8L8,3.1L7,3.5L0,6.1v0.5l7-2.6V7H3.5C3.2,7,3,7.2,3,7.5v6C3,13.8,3.2,14,3.5,14h9c0.3,0,0.5-0.2,0.5-0.5v-6
	C13,7.2,12.8,7,12.5,7H8V3.6L14,1.3z M6,10H4V8h2V10z M10,8h2v2h-2V8z M9,8v2H7V8H9z"/>
</svg>
