<?xml version="1.0" encoding="utf-8"?>
<!-- Generator: Adobe Illustrator 18.1.1, SVG Export Plug-In . SVG Version: 6.00 Build 0)  -->
<svg version="1.1" id="Layer_1" xmlns="http://www.w3.org/2000/svg" xmlns:xlink="http://www.w3.org/1999/xlink" x="0px" y="0px"
	 viewBox="0 0 24 24" enable-background="new 0 0 24 24" xml:space="preserve">
<path opacity="0.5" d="M15,9h-2c-1.052,0-1.052,2,0,2h3c0.224,0,1-2,1-2v14c0,0.547,0.463,1,1.01,1c0.547,0,0.99-0.443,0.99-0.99V15
	h1v8c0,0.547,0.463,1,1.01,1c0.547,0,0.99-0.443,0.99-0.99V9h1v5c0,1.063,0.5,1.125,1,0V8c0-1.172-1.625-1-3-1h-3
	c-0.792,0-1.594,0.38-2,1L15,9z"/>
<path opacity="0.5" d="M5,18c1.589,0,3,1.411,3,3v3h2l3.508-8.861l0.015-2.928L3.24,12.216L3,18H5z"/>
<path opacity="0.5" d="M11.627,7.788L11.627,7.788l-0.406,0.198l-0.193-0.401l0,0l-0.401,0.193l-0.193-0.401l0,0l-0.401,0.193
	L9.835,7.168H9.84L9.434,7.366L9.241,6.96v0.005L8.84,7.158L8.647,6.746l-1.219,3.475c-0.099,0.281,0.052,0.594,0.333,0.688
	l1.969,0.683c0.281,0.099,0.589-0.052,0.688-0.333L11.627,7.788z"/>
<polygon opacity="0.5" points="9.903,4.266 9.335,3.787 2.651,11.706 3.224,12.185 "/>
<circle opacity="0.5" cx="20" cy="4" r="2"/>
<path opacity="0.5" d="M4.5,19C3.119,19,2,20.119,2,21.5C2,22.881,3.119,24,4.5,24S7,22.881,7,21.5C7,20.119,5.881,19,4.5,19z
	 M4.5,23C3.672,23,3,22.328,3,21.5S3.672,20,4.5,20S6,20.672,6,21.5S5.328,23,4.5,23z"/>
<path opacity="0.75" d="M14,8h-2c-1.052,0-1.052,2,0,2h3c0.224,0,1-2,1-2v14c0,0.547,0.463,1,1.01,1c0.547,0,0.99-0.443,0.99-0.99
	V14h1v8c0,0.547,0.463,1,1.01,1c0.547,0,0.99-0.443,0.99-0.99V8h1v5c0,1.063,0.5,1.125,1,0V7c0-1.172-1.625-1-3-1h-3
	c-0.792,0-1.594,0.38-2,1L14,8z"/>
<path opacity="0.75" d="M4,17c1.589,0,3,1.411,3,3v3h2l3.508-8.861l0.015-2.928L2.24,11.216L2,17H4z"/>
<path opacity="0.75" d="M10.627,6.788L10.627,6.788l-0.406,0.198l-0.193-0.401l0,0L9.627,6.778L9.434,6.376l0,0L9.033,6.569
	L8.835,6.168H8.84L8.434,6.366L8.241,5.96v0.005L7.84,6.158L7.647,5.746L6.428,9.221C6.329,9.502,6.48,9.815,6.762,9.908
	l1.969,0.683c0.281,0.099,0.589-0.052,0.688-0.333L10.627,6.788z"/>
<polygon opacity="0.75" points="8.903,3.266 8.335,2.787 1.651,10.706 2.224,11.185 "/>
<circle opacity="0.75" cx="19" cy="3" r="2"/>
<path opacity="0.75" d="M3.5,18C2.119,18,1,19.119,1,20.5C1,21.881,2.119,23,3.5,23S6,21.881,6,20.5C6,19.119,4.881,18,3.5,18z
	 M3.5,22C2.672,22,2,21.328,2,20.5S2.672,19,3.5,19S5,19.672,5,20.5S4.328,22,3.5,22z"/>
<path fill="#FFFFFF" d="M13,7h-2c-1.052,0-1.052,2,0,2h3c0.224,0,1-2,1-2v14c0,0.547,0.463,1,1.01,1c0.547,0,0.99-0.443,0.99-0.99
	V13h1v8c0,0.547,0.463,1,1.01,1c0.547,0,0.99-0.443,0.99-0.99V7h1v5c0,1.063,0.5,1.125,1,0V6c0-1.172-1.625-1-3-1h-3
	c-0.792,0-1.594,0.38-2,1L13,7z"/>
<path fill="#FFFFFF" d="M3,16c1.589,0,3,1.411,3,3v3h2l3.508-8.861l0.015-2.928L1.24,10.216L1,16H3z"/>
<path fill="#FFFFFF" d="M9.627,5.788L9.627,5.788L9.221,5.986L9.028,5.585l0,0L8.627,5.778L8.434,5.376l0,0L8.033,5.569L7.835,5.168
	H7.84L7.434,5.366L7.241,4.96v0.005L6.84,5.158L6.647,4.746L5.428,8.221C5.329,8.502,5.48,8.815,5.762,8.908l1.969,0.683
	C8.012,9.69,8.32,9.539,8.419,9.258L9.627,5.788z"/>
<polygon fill="#FFFFFF" points="7.903,2.266 7.335,1.787 0.651,9.706 1.224,10.185 "/>
<circle fill="#FFFFFF" cx="18" cy="2" r="2"/>
<path fill="#FFFFFF" d="M2.5,17C1.119,17,0,18.119,0,19.5C0,20.881,1.119,22,2.5,22S5,20.881,5,19.5C5,18.119,3.881,17,2.5,17z
	 M2.5,21C1.672,21,1,20.328,1,19.5S1.672,18,2.5,18S4,18.672,4,19.5S3.328,21,2.5,21z"/>
</svg>
