<?xml version="1.0" encoding="utf-8"?>
<!-- Generator: Adobe Illustrator 18.1.1, SVG Export Plug-In . SVG Version: 6.00 Build 0)  -->
<svg version="1.1" id="Layer_1" xmlns="http://www.w3.org/2000/svg" xmlns:xlink="http://www.w3.org/1999/xlink" x="0px" y="0px"
	 viewBox="0 0 16 16" enable-background="new 0 0 16 16" xml:space="preserve">
<polygon opacity="0.5" points="16,6 12,6 12,7 12,11 12,16 13,16 13,11 14,11 14,16 15,16 15,11 16,11 "/>
<path opacity="0.5" d="M14.243,5h-0.487C13.339,5,13,4.661,13,4.243V3.756C13,3.339,13.339,3,13.757,3h0.487
	C14.661,3,15,3.339,15,3.756v0.487C15,4.661,14.661,5,14.243,5z"/>
<path opacity="0.5" d="M3.909,12.182c1.011,0,1.909,0.898,1.909,1.909V16h1.273l2.232-5.639l0.01-1.863L2.789,8.501l-0.153,3.681
	H3.909z"/>
<rect x="4.485" y="2.512" transform="matrix(0.7642 0.645 -0.645 0.7642 4.8606 -1.6756)" opacity="0.5" width="0.473" height="6.594"/>
<path opacity="0.5" d="M3.591,12.818C2.712,12.818,2,13.53,2,14.409C2,15.288,2.712,16,3.591,16s1.591-0.712,1.591-1.591
	C5.182,13.53,4.47,12.818,3.591,12.818z M3.591,15.364c-0.527,0-0.955-0.427-0.955-0.955s0.427-0.955,0.955-0.955
	s0.955,0.427,0.955,0.955S4.118,15.364,3.591,15.364z"/>
<polygon opacity="0.5" points="12,6 10,7 8,6 8,7 10.167,7.986 12,7 "/>
<rect x="6" y="6" opacity="0.5" width="1" height="1"/>
<polygon opacity="0.75" points="15,5 11,5 11,6 11,10 11,15 12,15 12,10 13,10 13,15 14,15 14,10 15,10 "/>
<path opacity="0.75" d="M13.243,4h-0.487C12.339,4,12,3.661,12,3.243V2.756C12,2.339,12.339,2,12.757,2h0.487
	C13.661,2,14,2.339,14,2.756v0.487C14,3.661,13.661,4,13.243,4z"/>
<path opacity="0.75" d="M2.909,11.182c1.011,0,1.909,0.898,1.909,1.909V15h1.273l2.232-5.639l0.01-1.863L1.789,7.501l-0.153,3.681
	H2.909z"/>
<rect x="3.485" y="1.512" transform="matrix(0.7642 0.645 -0.645 0.7642 3.9797 -1.2664)" opacity="0.75" width="0.473" height="6.594"/>
<path opacity="0.75" d="M2.591,11.818C1.712,11.818,1,12.53,1,13.409C1,14.288,1.712,15,2.591,15s1.591-0.712,1.591-1.591
	C4.182,12.53,3.47,11.818,2.591,11.818z M2.591,14.364c-0.527,0-0.955-0.427-0.955-0.955s0.427-0.955,0.955-0.955
	s0.955,0.427,0.955,0.955S3.118,14.364,2.591,14.364z"/>
<polygon opacity="0.75" points="11,5 9,6 7,5 7,6 9.167,6.986 11,6 "/>
<rect x="5" y="5" opacity="0.75" width="1" height="1"/>
<polygon fill="#FFFFFF" points="14,4 10,4 10,5 10,9 10,14 11,14 11,9 12,9 12,14 13,14 13,9 14,9 "/>
<path fill="#FFFFFF" d="M12.243,3h-0.487C11.339,3,11,2.661,11,2.243V1.756C11,1.339,11.339,1,11.757,1h0.487
	C12.661,1,13,1.339,13,1.756v0.487C13,2.661,12.661,3,12.243,3z"/>
<path fill="#FFFFFF" d="M1.909,10.182c1.011,0,1.909,0.898,1.909,1.909V14h1.273l2.232-5.639l0.01-1.863L0.789,6.501l-0.153,3.681
	H1.909z"/>
<rect x="2.485" y="0.512" transform="matrix(0.7642 0.645 -0.645 0.7642 3.0989 -0.8573)" fill="#FFFFFF" width="0.473" height="6.594"/>
<path fill="#FFFFFF" d="M1.591,10.818C0.712,10.818,0,11.53,0,12.409C0,13.288,0.712,14,1.591,14s1.591-0.712,1.591-1.591
	C3.182,11.53,2.47,10.818,1.591,10.818z M1.591,13.364c-0.527,0-0.955-0.427-0.955-0.955s0.427-0.955,0.955-0.955
	s0.955,0.427,0.955,0.955S2.118,13.364,1.591,13.364z"/>
<polygon fill="#FFFFFF" points="10,4 8,5 6,4 6,5 8.167,5.986 10,5 "/>
<rect x="4" y="4" fill="#FFFFFF" width="1" height="1"/>
</svg>
