<?xml version="1.0" encoding="utf-8"?>
<!-- Generator: Adobe Illustrator 21.1.0, SVG Export Plug-In . SVG Version: 6.00 Build 0)  -->
<svg version="1.1" id="Layer_1" xmlns="http://www.w3.org/2000/svg" xmlns:xlink="http://www.w3.org/1999/xlink" x="0px" y="0px"
	 width="14px" height="14px" viewBox="0 0 14 14" enable-background="new 0 0 14 14" xml:space="preserve">
<path fill="#231F20" d="M14,4h-4v1v4v5h1V9h1v5h1V9h1V4z M12.2,3h-0.5C11.3,3,11,2.7,11,2.2V1.8C11,1.3,11.3,1,11.8,1h0.5C12.7,1,13,1.3,13,1.8v0.5
	C13,2.7,12.7,3,12.2,3z M1.9,10.2c1,0,1.9,0.9,1.9,1.9V14h1.3l2.2-5.6V6.5H0.8l-0.2,3.7H1.9z M0.4,6.2l4.3-5l0.4,0.3l-4.3,5L0.4,6.2
	z M1.6,10.8c-0.9,0-1.6,0.7-1.6,1.6C0,13.3,0.7,14,1.6,14s1.6-0.7,1.6-1.6C3.2,11.5,2.5,10.8,1.6,10.8z M1.6,13.4c-0.5,0-1-0.4-1-1
	s0.4-1,1-1s1,0.4,1,1S2.1,13.4,1.6,13.4z M10,4L8,5L6,4v1l2.2,1L10,5V4z M4,4h1v1H4V4z"/>
</svg>
