<?xml version="1.0" encoding="utf-8"?>
<!-- Generator: Adobe Illustrator 21.1.0, SVG Export Plug-In . SVG Version: 6.00 Build 0)  -->
<svg version="1.1" id="Layer_1" xmlns="http://www.w3.org/2000/svg" xmlns:xlink="http://www.w3.org/1999/xlink" x="0px" y="0px"
	 width="30px" height="30px" viewBox="0 0 30 30" enable-background="new 0 0 30 30" xml:space="preserve">
<path fill="#231F20" d="M24.1,4.8c1.3,0,2.4-1.1,2.4-2.4S25.4,0,24.1,0s-2.4,1.1-2.4,2.4S22.7,4.8,24.1,4.8z M17.5,10.6h-3.6c-1.4,0-1.4,1.9,0,1.9
	H18c0.3,0,0.6-0.2,0.9-0.5L21,9v19c0,0.7,0.5,1.5,1.3,1.5S23,28.7,23,28V17h2v11c0,0.7,0.1,1.5,0.9,1.5S27,28.7,27,28V9h1l0.1,6.8
	c0,1.4,1.9,1.4,1.9,0V8.5c0-1.6-1.2-3.2-3.1-3.2h-4.4c-1.1,0-2,0.6-2.6,1.4L17.5,10.6z M3,22.7c2.2,0,3.9,1.8,3.9,3.9v2.7h4.6
	l4.2-11.8v-4h-14v9.2H3z M0,26.6c0-1.6,1.3-3,3-3s3,1.3,3,3c0,1.6-1.3,3-3,3S0,28.2,0,26.6z M3,27.9c0.7,0,1.3-0.6,1.3-1.3
	c0-0.7-0.6-1.3-1.3-1.3s-1.3,0.6-1.3,1.3C1.7,27.3,2.3,27.9,3,27.9z M13.1,7.4L13.1,7.4l-0.6,0.3l-0.3-0.5l0,0l-0.5,0.3L11.4,7l0,0
	L11,7.1l-0.3-0.5l0,0l-0.6,0.3L9.9,6.3l0,0L9.3,6.6L9.1,6l-1.7,4.7c-0.1,0.4,0.1,0.8,0.5,0.9l2.7,0.9c0.4,0.1,0.8-0.1,0.9-0.5
	L13.1,7.4z M10.8,2.6L10,2L0.9,12.8l0.8,0.6L10.8,2.6z"/>
</svg>
