<?xml version="1.0" encoding="utf-8"?>
<!-- Generator: Adobe Illustrator 21.1.0, SVG Export Plug-In . SVG Version: 6.00 Build 0)  -->
<svg version="1.1" id="Layer_1" xmlns="http://www.w3.org/2000/svg" xmlns:xlink="http://www.w3.org/1999/xlink" x="0px" y="0px"
	 width="22px" height="22px" viewBox="0 0 22 22" enable-background="new 0 0 22 22" xml:space="preserve">
<path fill="#FFFFFF" d="M13,7h-2c-1.1,0-1.1,2,0,2h3c0.2,0,1-2,1-2v14c0,0.5,0.5,1,1,1s1-0.4,1-1v-8h1v8c0,0.5,0.5,1,1,1s1-0.4,1-1V7h1v5
	c0,1.1,0.5,1.1,1,0V6c0-1.2-1.6-1-3-1h-3c-0.8,0-1.6,0.4-2,1L13,7z M3,16c1.6,0,3,1.4,3,3v3h2l3.5-8.9v-2.9H1.2L1,16H3z M9.6,5.8
	L9.6,5.8L9.2,6L9,5.6l0,0L8.6,5.8L8.4,5.4l0,0L8,5.6L7.8,5.2l0,0L7.4,5.4L7.2,5l0,0L6.8,5.2L6.6,4.7L5.4,8.2
	C5.3,8.5,5.5,8.8,5.8,8.9l2,0.7C8,9.7,8.3,9.5,8.4,9.3L9.6,5.8z M7.9,2.3L7.3,1.8L0.7,9.7l0.5,0.5L7.9,2.3z M18,0c1.1,0,2,0.9,2,2
	s-0.9,2-2,2s-2-0.9-2-2S16.9,0,18,0z M2.5,17C1.1,17,0,18.1,0,19.5S1.1,22,2.5,22S5,20.9,5,19.5S3.9,17,2.5,17z M2.5,21
	C1.7,21,1,20.3,1,19.5S1.7,18,2.5,18S4,18.7,4,19.5S3.3,21,2.5,21z"/>
</svg>
