<?xml version="1.0" encoding="utf-8"?>
<!-- Generator: Adobe Illustrator 18.1.1, SVG Export Plug-In . SVG Version: 6.00 Build 0)  -->
<svg version="1.1" id="Layer_1" xmlns="http://www.w3.org/2000/svg" xmlns:xlink="http://www.w3.org/1999/xlink" x="0px" y="0px"
	 viewBox="0 0 32 32" enable-background="new 0 0 32 32" xml:space="preserve">
<path opacity="0.5" d="M26.068,6.809c1.329,0,2.408-1.073,2.408-2.401C28.476,3.08,27.397,2,26.068,2
	c-1.328,0-2.401,1.08-2.401,2.409C23.667,5.737,24.74,6.809,26.068,6.809z"/>
<path opacity="0.5" d="M19.461,12.578h-3.623c-1.435,0-1.435,1.89,0,1.89l4.142-0.007c0.306,0,0.625-0.163,0.867-0.547L23,11v19
	c0,0.746,0.525,1.489,1.271,1.489S25,30.746,25,30V19h2v11c0,0.746,0.126,1.489,0.872,1.489C28.618,31.489,29,30.746,29,30V11h1
	l0.117,6.821c0,1.449,1.89,1.449,1.883,0v-7.338c0-1.599-1.236-3.168-3.112-3.168h-4.44c-1.08,0-2.018,0.554-2.572,1.399
	L19.461,12.578z"/>
<path opacity="0.5" d="M5.012,24.655c2.167,0,3.921,1.755,3.921,3.921L8.898,31.24h4.617l4.177-11.785l0.021-3.993L3.691,15.469
	l-0.007,9.178L5.012,24.655z"/>
<path opacity="0.5" d="M2,28.576c0-1.634,1.329-2.962,2.962-2.962s2.962,1.329,2.962,2.962c0,1.634-1.328,2.962-2.962,2.962
	S2,30.21,2,28.576z M4.962,29.862c0.71,0,1.286-0.575,1.286-1.286c0-0.71-0.575-1.286-1.286-1.286s-1.286,0.575-1.286,1.286
	C3.677,29.286,4.252,29.862,4.962,29.862z"/>
<path opacity="0.5" d="M15.128,9.431L15.128,9.431l-0.554,0.27l-0.263-0.547l0,0l-0.547,0.263L13.501,8.87l0,0l-0.547,0.263
	l-0.27-0.547h0.007l-0.554,0.27l-0.263-0.554v0.007l-0.547,0.263L11.065,8.01l-1.662,4.738c-0.135,0.384,0.071,0.81,0.455,0.938
	l2.685,0.931c0.383,0.135,0.803-0.071,0.938-0.455L15.128,9.431z"/>
<polygon opacity="0.5" points="12.777,4.629 12.002,3.975 2.888,14.773 3.669,15.427 "/>
<path opacity="0.75" d="M25.068,5.809c1.329,0,2.408-1.073,2.408-2.401C27.476,2.08,26.397,1,25.068,1
	c-1.328,0-2.401,1.08-2.401,2.409C22.667,4.737,23.74,5.809,25.068,5.809z"/>
<path opacity="0.75" d="M18.461,11.578h-3.623c-1.435,0-1.435,1.89,0,1.89l4.142-0.007c0.306,0,0.625-0.163,0.867-0.547L22,10v19
	c0,0.746,0.525,1.489,1.271,1.489S24,29.746,24,29V18h2v11c0,0.746,0.126,1.489,0.872,1.489C27.618,30.489,28,29.746,28,29V10h1
	l0.117,6.821c0,1.449,1.89,1.449,1.883,0V9.482c0-1.599-1.236-3.168-3.112-3.168h-4.44c-1.08,0-2.018,0.554-2.572,1.399
	L18.461,11.578z"/>
<path opacity="0.75" d="M4.012,23.655c2.167,0,3.921,1.755,3.921,3.921L7.898,30.24h4.617l4.177-11.785l0.021-3.993L2.691,14.469
	l-0.007,9.178L4.012,23.655z"/>
<path opacity="0.75" d="M1,27.576c0-1.634,1.329-2.962,2.962-2.962s2.962,1.329,2.962,2.962c0,1.634-1.328,2.962-2.962,2.962
	S1,29.21,1,27.576z M3.962,28.862c0.71,0,1.286-0.575,1.286-1.286c0-0.71-0.575-1.286-1.286-1.286s-1.286,0.575-1.286,1.286
	C2.677,28.286,3.252,28.862,3.962,28.862z"/>
<path opacity="0.75" d="M14.128,8.431L14.128,8.431l-0.554,0.27l-0.263-0.547l0,0l-0.547,0.263L12.501,7.87l0,0l-0.547,0.263
	l-0.27-0.547h0.007l-0.554,0.27l-0.263-0.554v0.007l-0.547,0.263L10.065,7.01l-1.662,4.738c-0.135,0.384,0.071,0.81,0.455,0.938
	l2.685,0.931c0.383,0.135,0.803-0.071,0.938-0.455L14.128,8.431z"/>
<polygon opacity="0.75" points="11.777,3.629 11.002,2.975 1.888,13.773 2.669,14.427 "/>
<path fill="#E6E6E6" d="M24.068,4.809c1.329,0,2.408-1.073,2.408-2.401C26.476,1.08,25.397,0,24.068,0
	c-1.328,0-2.401,1.08-2.401,2.409C21.667,3.737,22.74,4.809,24.068,4.809z"/>
<path fill="#E6E6E6" d="M17.461,10.578h-3.623c-1.435,0-1.435,1.89,0,1.89l4.142-0.007c0.306,0,0.625-0.163,0.867-0.547L21,9v19
	c0,0.746,0.525,1.489,1.271,1.489S23,28.746,23,28V17h2v11c0,0.746,0.126,1.489,0.872,1.489C26.618,29.489,27,28.746,27,28V9h1
	l0.117,6.821c0,1.449,1.89,1.449,1.883,0V8.482c0-1.599-1.236-3.168-3.112-3.168h-4.44c-1.08,0-2.018,0.554-2.572,1.399
	L17.461,10.578z"/>
<path fill="#E6E6E6" d="M3.012,22.655c2.167,0,3.921,1.755,3.921,3.921L6.898,29.24h4.617l4.177-11.785l0.021-3.993L1.691,13.469
	l-0.007,9.178L3.012,22.655z"/>
<path fill="#E6E6E6" d="M0,26.576c0-1.634,1.329-2.962,2.962-2.962s2.962,1.329,2.962,2.962c0,1.634-1.328,2.962-2.962,2.962
	S0,28.21,0,26.576z M2.962,27.862c0.71,0,1.286-0.575,1.286-1.286c0-0.71-0.575-1.286-1.286-1.286s-1.286,0.575-1.286,1.286
	C1.677,27.286,2.252,27.862,2.962,27.862z"/>
<path fill="#E6E6E6" d="M13.128,7.431L13.128,7.431l-0.554,0.27l-0.263-0.547l0,0l-0.547,0.263L11.501,6.87l0,0l-0.547,0.263
	l-0.27-0.547h0.007l-0.554,0.27L9.875,6.301v0.007L9.328,6.571L9.065,6.01l-1.662,4.738c-0.135,0.384,0.071,0.81,0.455,0.938
	l2.685,0.931c0.383,0.135,0.803-0.071,0.938-0.455L13.128,7.431z"/>
<polygon fill="#E6E6E6" points="10.777,2.629 10.002,1.975 0.888,12.773 1.669,13.427 "/>
</svg>
