<?xml version="1.0" encoding="utf-8"?>
<!-- Generator: Adobe Illustrator 22.1.0, SVG Export Plug-In . SVG Version: 6.00 Build 0)  -->
<svg version="1.1" id="Layer_1" xmlns="http://www.w3.org/2000/svg" xmlns:xlink="http://www.w3.org/1999/xlink" x="0px" y="0px"
	 width="22px" height="22px" viewBox="0 0 22 22" enable-background="new 0 0 22 22" xml:space="preserve">
<path d="M15,6c0.9,0,1.9,1.1,2,2v3l3,2v6h-1v1.5c0,0.8-0.7,1.5-1.5,1.5c-0.8,0-1.5-0.6-1.5-1.5V19H6v1.5C6,21.4,5.3,22,4.5,22
	C3.7,22,3,21.4,3,20.5V19H2v-6l3-2V8c0.1-0.9,1.1-2,2-2H15z M4.5,16.2c0.7,0,1.2-0.5,1.2-1.2c0-0.7-0.5-1.2-1.2-1.2
	c-0.7,0-1.2,0.5-1.2,1.2C3.3,15.7,3.8,16.2,4.5,16.2z M15,17v-3c0-1-0.7-1-1-1H8c-0.3,0-1,0-1,1v3H15z M18.7,15
	c0-0.7-0.5-1.2-1.2-1.2c-0.7,0-1.2,0.5-1.2,1.2c0,0.7,0.5,1.2,1.2,1.2C18.2,16.2,18.7,15.7,18.7,15z M16,11V8c0-0.5-0.5-1-1-1H7
	C6.5,7,6,7.5,6,8v3H16z"/>
<path d="M18.2,0C19.1,0,20,0.7,20,1.6V12l-2-1V8c0-2-1-3-2-3H6C5,5,4,6,4,8v3l-2,1V1.6C2,0.7,2.9,0,3.8,0H18.2z"/>
</svg>
