<?xml version="1.0" encoding="utf-8"?>
<!-- Generator: Adobe Illustrator 22.1.0, SVG Export Plug-In . SVG Version: 6.00 Build 0)  -->
<svg version="1.1" id="Layer_1" xmlns="http://www.w3.org/2000/svg" xmlns:xlink="http://www.w3.org/1999/xlink" x="0px" y="0px"
	 width="30px" height="30px" viewBox="0 0 30 30" enable-background="new 0 0 30 30" xml:space="preserve">
<path fill="#FFFFFF" d="M5,10c0-1.1,0.9-2,2-2h16c1.1,0,2,0.9,2,2v5.3l2,2V2.2C27,1,26,0,24.8,0H5.2C4,0,3,1,3,2.2v15.1l2-2V10z"/>
<path fill="#FFFFFF" d="M24,15.7v-0.7V10c0-0.5-0.5-1-1-1H7c-0.5,0-1,0.5-1,1v5.1v0.7l-0.9,0.9L3,18.7v6.8h1.4V28c0,1.1,0.9,2,2,2c1.1,0,2-0.9,2-2
	l0-2.6h13.3V28c0,1.1,0.9,2,2,2c1.1,0,2-0.9,2-2l0-2.6H27v-6.8l-2.1-2.1L24,15.7z M6.5,22.2c-0.9,0-1.7-0.7-1.7-1.7
	c0-0.9,0.7-1.7,1.7-1.7c0.9,0,1.7,0.7,1.7,1.7C8.2,21.4,7.4,22.2,6.5,22.2z M20,23H10v-4c0-0.4,0.6-1,1-1h8c0.4,0,1,0.6,1,1V23z
	 M7,16v-5c0.1-0.6,0.3-1,1-1h14c0.7,0,0.9,0.4,1,1v5H7z M23.5,22.2c-0.9,0-1.7-0.7-1.7-1.7c0-0.9,0.7-1.7,1.7-1.7
	c0.9,0,1.7,0.7,1.7,1.7C25.2,21.4,24.4,22.2,23.5,22.2z"/>
</svg>
