<?xml version="1.0" encoding="utf-8"?>
<!-- Generator: Adobe Illustrator 24.2.3, SVG Export Plug-In . SVG Version: 6.00 Build 0)  -->
<svg version="1.1" id="Layer_1" xmlns="http://www.w3.org/2000/svg" xmlns:xlink="http://www.w3.org/1999/xlink" x="0px" y="0px"
	 width="14px" height="14px" viewBox="0 0 14 14" enable-background="new 0 0 14 14" xml:space="preserve">
<path fill-rule="evenodd" clip-rule="evenodd"  d="M11,2.5C11,1.7,11.7,1,12.5,1C13.3,1,14,1.7,14,2.5
	C14,3.3,13.3,4,12.5,4C11.7,4,11,3.3,11,2.5z"/>
<path  d="M3.7,6.8C5.2,6.9,6.5,6.9,7.6,7L4.9,5.5C4.6,5.4,4.5,5.4,4.3,5.4L0.9,6.3C0.7,6.4,0.5,6.5,0.4,6.7
	C0.3,6.8,0.3,7,0.4,7.2c0.1,0.4,0.5,0.6,0.9,0.5l1.3-0.3C3,6.7,3.7,6.8,3.7,6.8z"/>
<path  d="M10.8,4.9L8.9,7c1.7,0,2.6-0.2,3-0.2c0.3-0.4,0.5-0.6,0.5-0.7c0.3-0.4,0.4-0.9-0.1-1.4
	C11.5,4,10.8,4.9,10.8,4.9z"/>
<path  d="M14,11c-0.3,0-0.5-0.2-0.8-0.5c-0.3-0.3-0.7-0.8-1.5-0.8c-0.8,0-1.2,0.5-1.5,0.8C9.8,10.8,9.7,11,9.3,11
	s-0.5-0.2-0.8-0.5C8.2,10.2,7.8,9.7,7,9.7c-0.8,0-1.2,0.5-1.5,0.8C5.2,10.8,5,11,4.7,11c-0.3,0-0.5-0.2-0.8-0.5
	c-0.3-0.3-0.7-0.8-1.5-0.8c-0.8,0-1.2,0.5-1.5,0.8C0.5,10.8,0.3,11,0,11v1c0.8,0,1.2-0.5,1.5-0.8c0.3-0.3,0.5-0.5,0.8-0.5
	c0.3,0,0.5,0.2,0.8,0.5C3.4,11.5,3.9,12,4.7,12c0.8,0,1.2-0.5,1.5-0.8c0.3-0.3,0.4-0.5,0.8-0.5s0.5,0.2,0.8,0.5
	C8.1,11.5,8.5,12,9.3,12c0.8,0,1.2-0.5,1.5-0.8c0.3-0.3,0.4-0.5,0.8-0.5c0.3,0,0.5,0.2,0.8,0.5c0.3,0.3,0.7,0.8,1.5,0.8V11z"/>
<path  d="M4.6,9.8C4.6,9.9,4.7,9.9,4.6,9.8c0.1,0,0.1,0,0.1,0c0.4-0.4,1-1.1,2.3-1.1c1.3,0,1.9,0.7,2.3,1.1
	c0,0,0,0,0,0.1c0,0,0,0,0-0.1c0.4-0.4,1-1.1,2.3-1.1c0.5,0,1,0.1,1.3,0.3c0.1-0.2,0.1-0.5,0.1-0.7c0-0.1,0-0.9-0.9-1.2
	c-0.4,0.1-3,0.6-8.6,0.1c-0.1,0-1,0-1.1,1.1c0,0,0,0.1,0,0.3C3.7,8.8,4.3,9.5,4.6,9.8z"/>
</svg>
