<?xml version="1.0" encoding="utf-8"?>
<!-- Generator: Adobe Illustrator 25.4.1, SVG Export Plug-In . SVG Version: 6.00 Build 0)  -->
<svg version="1.1" id="Layer_1" xmlns="http://www.w3.org/2000/svg" xmlns:xlink="http://www.w3.org/1999/xlink" x="0px" y="0px"
	 width="14px" height="14px" viewBox="0 0 14 14" enable-background="new 0 0 14 14" xml:space="preserve">
<path fill-rule="evenodd" clip-rule="evenodd" fill="#231F20" d="M11,2.5C11,1.7,11.7,1,12.5,1S14,1.7,14,2.5S13.3,4,12.5,4
	S11,3.3,11,2.5z"/>
<path fill="#231F20" d="M3.7,6.8C5.2,6.9,6.5,6.9,7.6,7L4.9,5.5C4.6,5.4,4.5,5.4,4.3,5.4L0.9,6.3C0.7,6.4,0.5,6.5,0.4,6.7
	C0.3,6.8,0.3,7,0.4,7.2c0.1,0.4,0.5,0.6,0.9,0.5l1.3-0.3C3,6.7,3.7,6.8,3.7,6.8z"/>
<path fill="#231F20" d="M10.8,4.9L8.9,7c1.7,0,2.6-0.2,3-0.2c0.3-0.4,0.5-0.6,0.5-0.7c0.3-0.4,0.4-0.9-0.1-1.4
	C11.5,4,10.8,4.9,10.8,4.9z"/>
<path fill="#231F20" d="M14,12c-0.3,0-0.6-0.1-0.8-0.2c-0.3-0.1-0.6-0.5-0.9-0.5c-0.3,0-0.6,0.4-0.9,0.5c-0.2,0.1-0.5,0.2-0.8,0.2
	s-0.6-0.1-0.8-0.2c-0.3-0.1-0.6-0.5-0.9-0.5c-0.3,0-0.6,0.4-0.9,0.5C7.8,11.9,7.5,12,7.2,12s-0.6-0.1-0.8-0.2
	c-0.3-0.1-0.6-0.5-0.9-0.5s-0.6,0.4-0.9,0.5C4.4,11.9,4.1,12,3.8,12S3.2,11.9,3,11.8c-0.3-0.1-0.6-0.5-0.9-0.5s-0.6,0.4-0.9,0.5
	C1,11.9,0.7,12,0.4,12v-1.2c0.3,0,0.6-0.1,0.8-0.2c0.3-0.1,0.6-0.5,0.9-0.5s0.6,0.4,0.9,0.5s0.5,0.2,0.8,0.2s0.6-0.1,0.8-0.2
	c0.3-0.1,0.6-0.5,0.9-0.5s0.6,0.4,0.9,0.5s0.5,0.2,0.8,0.2s0.6-0.1,0.8-0.2c0.3-0.1,0.6-0.5,0.9-0.5s0.6,0.4,0.9,0.5
	c0.3,0.1,0.5,0.2,0.8,0.2s0.6-0.1,0.8-0.2c0.3-0.1,0.6-0.5,0.9-0.5c0.3,0,0.6,0.4,0.9,0.5c0.3,0.1,0.5,0.2,0.8,0.2
	C14,10.8,14,12,14,12z"/>
<path fill="#231F20" d="M3.8,9.8c0.3,0,0.6-0.1,0.8-0.2c0.3-0.1,0.6-0.5,0.9-0.5s0.6,0.4,0.9,0.5s0.5,0.2,0.8,0.2S7.8,9.7,8,9.6
	c0.3-0.1,0.6-0.5,0.9-0.5c0.3,0,0.6,0.4,0.9,0.5c0.3,0.1,0.5,0.2,0.8,0.2s0.6-0.1,0.8-0.2c0.3-0.1,0.6-0.5,0.9-0.5
	c0.2,0,0.5,0.2,0.7,0.4c0-0.1,0-0.1,0-0.2c0-0.1,0-0.9,0-1s0-0.9-0.9-1.2c-0.4,0.1-3,0.6-8.6,0.1c-0.1,0-1,0-1.1,1.1v0.9
	C2.6,9.3,2.8,9.5,3,9.6C3.3,9.7,3.5,9.8,3.8,9.8z"/>
<path fill="#231F20" d="M11.9,10.5c0.1,0,0.2,0,0.2,0c0.1,0,0.3-0.1,0.4-0.2c-0.1,0-0.1,0-0.2,0S12,10.4,11.9,10.5z"/>
</svg>
