<?xml version="1.0" encoding="UTF-8" standalone="no"?>
<svg width="16px" height="16px" viewBox="0 0 16 16" version="1.1" xmlns="http://www.w3.org/2000/svg" xmlns:xlink="http://www.w3.org/1999/xlink" xmlns:sketch="http://www.bohemiancoding.com/sketch/ns">
    <!-- Generator: Sketch 3.3.3 (12072) - http://www.bohemiancoding.com/sketch -->
    <title>tunnel-white-16</title>
    <desc>Created with Sketch.</desc>
    <defs></defs>
    <g id="tunnel" stroke="none" stroke-width="1" fill="none" fill-rule="evenodd" sketch:type="MSPage">
        <g id="tunnel-white-16" sketch:type="MSArtboardGroup">
            <g id="HFC-Tunnel-Copy-2" sketch:type="MSLayerGroup" transform="translate(3.000000, 2.000000)" fill-opacity="0.5" fill="#000000">
                <path d="M4.91756522,10.5972529 L4.91756522,7.9279272 C4.91756522,6.84363985 5.8253913,5.96328736 6.95234783,5.96328736 C8.07304348,5.96328736 8.98086957,6.84363985 8.98086957,7.9279272 L8.98086957,10.5972529 L4.91756522,10.5972529" id="Fill-3" sketch:type="MSShapeGroup"></path>
                <path d="M7.09843478,1.71296169 C10.0493913,1.71296169 12.4410435,4.02691571 12.4410435,6.88200383 L12.4410435,13.5472414 L13.9624348,13.5472414 L13.9582609,6.88200383 C13.9582609,3.21925287 10.8841739,0.249072797 7.09843478,0.249072797 C3.3106087,0.249072797 0.238608696,3.21925287 0.238608696,6.88200383 L0.234434783,13.5512797 L1.75373913,13.5472414 L1.75373913,6.88200383 C1.75373913,4.02691571 4.14747826,1.71296169 7.09843478,1.71296169" id="Fill-4" sketch:type="MSShapeGroup"></path>
                <path d="M7.36347826,11.1686743 L6.53495652,11.1686743 L6.43478261,11.73 L7.46991304,11.73 L7.36347826,11.1686743" id="Fill-5" sketch:type="MSShapeGroup"></path>
                <path d="M7.62017391,12.5881418 L6.2866087,12.5881418 L6.13217391,13.4281111 L7.76626087,13.4281111 L7.62017391,12.5881418" id="Fill-6" sketch:type="MSShapeGroup"></path>
            </g>
            <g id="HFC-Tunnel-Copy" sketch:type="MSLayerGroup" transform="translate(2.000000, 1.000000)" fill-opacity="0.75" fill="#000000">
                <path d="M4.91756522,10.5972529 L4.91756522,7.9279272 C4.91756522,6.84363985 5.8253913,5.96328736 6.95234783,5.96328736 C8.07304348,5.96328736 8.98086957,6.84363985 8.98086957,7.9279272 L8.98086957,10.5972529 L4.91756522,10.5972529" id="Fill-3" sketch:type="MSShapeGroup"></path>
                <path d="M7.09843478,1.71296169 C10.0493913,1.71296169 12.4410435,4.02691571 12.4410435,6.88200383 L12.4410435,13.5472414 L13.9624348,13.5472414 L13.9582609,6.88200383 C13.9582609,3.21925287 10.8841739,0.249072797 7.09843478,0.249072797 C3.3106087,0.249072797 0.238608696,3.21925287 0.238608696,6.88200383 L0.234434783,13.5512797 L1.75373913,13.5472414 L1.75373913,6.88200383 C1.75373913,4.02691571 4.14747826,1.71296169 7.09843478,1.71296169" id="Fill-4" sketch:type="MSShapeGroup"></path>
                <path d="M7.36347826,11.1686743 L6.53495652,11.1686743 L6.43478261,11.73 L7.46991304,11.73 L7.36347826,11.1686743" id="Fill-5" sketch:type="MSShapeGroup"></path>
                <path d="M7.62017391,12.5881418 L6.2866087,12.5881418 L6.13217391,13.4281111 L7.76626087,13.4281111 L7.62017391,12.5881418" id="Fill-6" sketch:type="MSShapeGroup"></path>
                <path d="M7.9666087,14.5608582 L5.93182609,14.5608582 L5.73565217,15.6855287 L8.16904348,15.6855287 L7.9666087,14.5608582" id="Fill-7" sketch:type="MSShapeGroup"></path>
            </g>
            <g id="HFC-Tunnel" sketch:type="MSLayerGroup" transform="translate(1.000000, 0.000000)" fill="#FFFFFF">
                <path d="M4.91756522,10.5972529 L4.91756522,7.9279272 C4.91756522,6.84363985 5.8253913,5.96328736 6.95234783,5.96328736 C8.07304348,5.96328736 8.98086957,6.84363985 8.98086957,7.9279272 L8.98086957,10.5972529 L4.91756522,10.5972529" id="Fill-3" sketch:type="MSShapeGroup"></path>
                <path d="M7.09843478,1.71296169 C10.0493913,1.71296169 12.4410435,4.02691571 12.4410435,6.88200383 L12.4410435,13.5472414 L13.9624348,13.5472414 L13.9582609,6.88200383 C13.9582609,3.21925287 10.8841739,0.249072797 7.09843478,0.249072797 C3.3106087,0.249072797 0.238608696,3.21925287 0.238608696,6.88200383 L0.234434783,13.5512797 L1.75373913,13.5472414 L1.75373913,6.88200383 C1.75373913,4.02691571 4.14747826,1.71296169 7.09843478,1.71296169" id="Fill-4" sketch:type="MSShapeGroup"></path>
                <path d="M7.36347826,11.1686743 L6.53495652,11.1686743 L6.43478261,11.73 L7.46991304,11.73 L7.36347826,11.1686743" id="Fill-5" sketch:type="MSShapeGroup"></path>
                <path d="M7.62017391,12.5881418 L6.2866087,12.5881418 L6.13217391,13.4281111 L7.76626087,13.4281111 L7.62017391,12.5881418" id="Fill-6" sketch:type="MSShapeGroup"></path>
                <path d="M7.9666087,14.5608582 L5.93182609,14.5608582 L5.73565217,15.6855287 L8.16904348,15.6855287 L7.9666087,14.5608582" id="Fill-7" sketch:type="MSShapeGroup"></path>
            </g>
        </g>
    </g>
</svg>