<?xml version="1.0" encoding="UTF-8" standalone="no"?>
<svg width="32px" height="32px" viewBox="0 0 32 32" version="1.1" xmlns="http://www.w3.org/2000/svg" xmlns:xlink="http://www.w3.org/1999/xlink" xmlns:sketch="http://www.bohemiancoding.com/sketch/ns">
    <!-- Generator: Sketch 3.3.3 (12072) - http://www.bohemiancoding.com/sketch -->
    <title>tunnel-slate-32</title>
    <desc>Created with Sketch.</desc>
    <defs></defs>
    <g id="tunnel" stroke="none" stroke-width="1" fill="none" fill-rule="evenodd" sketch:type="MSPage">
        <g id="tunnel-slate-32" sketch:type="MSArtboardGroup">
            <g id="HFC-Tunnel-Copy-2" sketch:type="MSLayerGroup" transform="translate(5.000000, 2.000000)" fill-opacity="0.5" fill="#1A1918">
                <path d="M9.13262112,19.9477701 L9.13262112,14.9231571 C9.13262112,12.8821456 10.8185839,11.2250115 12.9115031,11.2250115 C14.992795,11.2250115 16.6787578,12.8821456 16.6787578,14.9231571 L16.6787578,19.9477701 L9.13262112,19.9477701" id="Fill-3" sketch:type="MSShapeGroup"></path>
                <path d="M13.1828075,3.22439847 C18.6631553,3.22439847 23.104795,7.58007663 23.104795,12.9543602 L23.104795,25.5006897 L25.930236,25.5006897 L25.9224845,12.9543602 C25.9224845,6.05977011 20.2134658,0.468842912 13.1828075,0.468842912 C6.14827329,0.468842912 0.443130435,6.05977011 0.443130435,12.9543602 L0.435378882,25.5082912 L3.2569441,25.5006897 L3.2569441,12.9543602 C3.2569441,7.58007663 7.70245963,3.22439847 13.1828075,3.22439847" id="Fill-4" sketch:type="MSShapeGroup"></path>
                <path d="M13.6750311,21.023387 L12.1363478,21.023387 L11.9503106,22.08 L13.8726957,22.08 L13.6750311,21.023387" id="Fill-5" sketch:type="MSShapeGroup"></path>
                <path d="M14.1517516,23.6953257 L11.6751304,23.6953257 L11.388323,25.2764444 L14.4230559,25.2764444 L14.1517516,23.6953257" id="Fill-6" sketch:type="MSShapeGroup"></path>
                <path d="M14.7951304,27.4086743 L11.0162484,27.4086743 L10.6519255,29.5257011 L15.1710807,29.5257011 L14.7951304,27.4086743" id="Fill-7" sketch:type="MSShapeGroup"></path>
            </g>
            <g id="HFC-Tunnel-Copy" sketch:type="MSLayerGroup" transform="translate(4.000000, 1.000000)" fill-opacity="0.75" fill="#1A1918">
                <path d="M9.13262112,19.9477701 L9.13262112,14.9231571 C9.13262112,12.8821456 10.8185839,11.2250115 12.9115031,11.2250115 C14.992795,11.2250115 16.6787578,12.8821456 16.6787578,14.9231571 L16.6787578,19.9477701 L9.13262112,19.9477701" id="Fill-3" sketch:type="MSShapeGroup"></path>
                <path d="M13.1828075,3.22439847 C18.6631553,3.22439847 23.104795,7.58007663 23.104795,12.9543602 L23.104795,25.5006897 L25.930236,25.5006897 L25.9224845,12.9543602 C25.9224845,6.05977011 20.2134658,0.468842912 13.1828075,0.468842912 C6.14827329,0.468842912 0.443130435,6.05977011 0.443130435,12.9543602 L0.435378882,25.5082912 L3.2569441,25.5006897 L3.2569441,12.9543602 C3.2569441,7.58007663 7.70245963,3.22439847 13.1828075,3.22439847" id="Fill-4" sketch:type="MSShapeGroup"></path>
                <path d="M13.6750311,21.023387 L12.1363478,21.023387 L11.9503106,22.08 L13.8726957,22.08 L13.6750311,21.023387" id="Fill-5" sketch:type="MSShapeGroup"></path>
                <path d="M14.1517516,23.6953257 L11.6751304,23.6953257 L11.388323,25.2764444 L14.4230559,25.2764444 L14.1517516,23.6953257" id="Fill-6" sketch:type="MSShapeGroup"></path>
                <path d="M14.7951304,27.4086743 L11.0162484,27.4086743 L10.6519255,29.5257011 L15.1710807,29.5257011 L14.7951304,27.4086743" id="Fill-7" sketch:type="MSShapeGroup"></path>
            </g>
            <g id="HFC-Tunnel" sketch:type="MSLayerGroup" transform="translate(3.000000, 0.000000)" fill="#E6E6E6">
                <path d="M9.13262112,19.9477701 L9.13262112,14.9231571 C9.13262112,12.8821456 10.8185839,11.2250115 12.9115031,11.2250115 C14.992795,11.2250115 16.6787578,12.8821456 16.6787578,14.9231571 L16.6787578,19.9477701 L9.13262112,19.9477701" id="Fill-3" sketch:type="MSShapeGroup"></path>
                <path d="M13.1828075,3.22439847 C18.6631553,3.22439847 23.104795,7.58007663 23.104795,12.9543602 L23.104795,25.5006897 L25.930236,25.5006897 L25.9224845,12.9543602 C25.9224845,6.05977011 20.2134658,0.468842912 13.1828075,0.468842912 C6.14827329,0.468842912 0.443130435,6.05977011 0.443130435,12.9543602 L0.435378882,25.5082912 L3.2569441,25.5006897 L3.2569441,12.9543602 C3.2569441,7.58007663 7.70245963,3.22439847 13.1828075,3.22439847" id="Fill-4" sketch:type="MSShapeGroup"></path>
                <path d="M13.6750311,21.023387 L12.1363478,21.023387 L11.9503106,22.08 L13.8726957,22.08 L13.6750311,21.023387" id="Fill-5" sketch:type="MSShapeGroup"></path>
                <path d="M14.1517516,23.6953257 L11.6751304,23.6953257 L11.388323,25.2764444 L14.4230559,25.2764444 L14.1517516,23.6953257" id="Fill-6" sketch:type="MSShapeGroup"></path>
                <path d="M14.7951304,27.4086743 L11.0162484,27.4086743 L10.6519255,29.5257011 L15.1710807,29.5257011 L14.7951304,27.4086743" id="Fill-7" sketch:type="MSShapeGroup"></path>
            </g>
        </g>
    </g>
</svg>