<?xml version="1.0" encoding="UTF-8" standalone="no"?>
<svg width="24px" height="24px" viewBox="0 0 24 24" version="1.1" xmlns="http://www.w3.org/2000/svg" xmlns:xlink="http://www.w3.org/1999/xlink" xmlns:sketch="http://www.bohemiancoding.com/sketch/ns">
    <!-- Generator: Sketch 3.3.3 (12072) - http://www.bohemiancoding.com/sketch -->
    <title>tunnel-slate-24</title>
    <desc>Created with Sketch.</desc>
    <defs></defs>
    <g id="tunnel" stroke="none" stroke-width="1" fill="none" fill-rule="evenodd" sketch:type="MSPage">
        <g id="tunnel-slate-24" sketch:type="MSArtboardGroup">
            <g id="HFC-Tunnel-Copy-2" sketch:type="MSLayerGroup" transform="translate(4.000000, 2.000000)" fill-opacity="0.5" fill="#1A1918">
                <path d="M7.02509317,14.9608276 L7.02509317,11.1923678 C7.02509317,9.6616092 8.32198758,8.41875862 9.93192547,8.41875862 C11.5329193,8.41875862 12.8298137,9.6616092 12.8298137,11.1923678 L12.8298137,14.9608276 L7.02509317,14.9608276" id="Fill-3" sketch:type="MSShapeGroup"></path>
                <path d="M10.1406211,2.41829885 C14.3562733,2.41829885 17.7729193,5.68505747 17.7729193,9.71577011 L17.7729193,19.1255172 L19.9463354,19.1255172 L19.9403727,9.71577011 C19.9403727,4.54482759 15.5488199,0.351632184 10.1406211,0.351632184 C4.72944099,0.351632184 0.340869565,4.54482759 0.340869565,9.71577011 L0.334906832,19.1312184 L2.50534161,19.1255172 L2.50534161,9.71577011 C2.50534161,5.68505747 5.92496894,2.41829885 10.1406211,2.41829885" id="Fill-4" sketch:type="MSShapeGroup"></path>
                <path d="M10.5192547,15.7675402 L9.33565217,15.7675402 L9.19254658,16.56 L10.6713043,16.56 L10.5192547,15.7675402" id="Fill-5" sketch:type="MSShapeGroup"></path>
                <path d="M10.8859627,17.7714943 L8.98086957,17.7714943 L8.76024845,18.9573333 L11.0946584,18.9573333 L10.8859627,17.7714943" id="Fill-6" sketch:type="MSShapeGroup"></path>
                <path d="M11.3808696,20.5565057 L8.47403727,20.5565057 L8.19378882,22.1442759 L11.6700621,22.1442759 L11.3808696,20.5565057" id="Fill-7" sketch:type="MSShapeGroup"></path>
            </g>
            <g id="HFC-Tunnel-Copy" sketch:type="MSLayerGroup" transform="translate(3.000000, 1.000000)" fill-opacity="0.75" fill="#1A1918">
                <path d="M7.02509317,14.9608276 L7.02509317,11.1923678 C7.02509317,9.6616092 8.32198758,8.41875862 9.93192547,8.41875862 C11.5329193,8.41875862 12.8298137,9.6616092 12.8298137,11.1923678 L12.8298137,14.9608276 L7.02509317,14.9608276" id="Fill-3" sketch:type="MSShapeGroup"></path>
                <path d="M10.1406211,2.41829885 C14.3562733,2.41829885 17.7729193,5.68505747 17.7729193,9.71577011 L17.7729193,19.1255172 L19.9463354,19.1255172 L19.9403727,9.71577011 C19.9403727,4.54482759 15.5488199,0.351632184 10.1406211,0.351632184 C4.72944099,0.351632184 0.340869565,4.54482759 0.340869565,9.71577011 L0.334906832,19.1312184 L2.50534161,19.1255172 L2.50534161,9.71577011 C2.50534161,5.68505747 5.92496894,2.41829885 10.1406211,2.41829885" id="Fill-4" sketch:type="MSShapeGroup"></path>
                <path d="M10.5192547,15.7675402 L9.33565217,15.7675402 L9.19254658,16.56 L10.6713043,16.56 L10.5192547,15.7675402" id="Fill-5" sketch:type="MSShapeGroup"></path>
                <path d="M10.8859627,17.7714943 L8.98086957,17.7714943 L8.76024845,18.9573333 L11.0946584,18.9573333 L10.8859627,17.7714943" id="Fill-6" sketch:type="MSShapeGroup"></path>
                <path d="M11.3808696,20.5565057 L8.47403727,20.5565057 L8.19378882,22.1442759 L11.6700621,22.1442759 L11.3808696,20.5565057" id="Fill-7" sketch:type="MSShapeGroup"></path>
            </g>
            <g id="HFC-Tunnel" sketch:type="MSLayerGroup" transform="translate(2.000000, 0.000000)" fill="#E6E6E6">
                <path d="M7.02509317,14.9608276 L7.02509317,11.1923678 C7.02509317,9.6616092 8.32198758,8.41875862 9.93192547,8.41875862 C11.5329193,8.41875862 12.8298137,9.6616092 12.8298137,11.1923678 L12.8298137,14.9608276 L7.02509317,14.9608276" id="Fill-3" sketch:type="MSShapeGroup"></path>
                <path d="M10.1406211,2.41829885 C14.3562733,2.41829885 17.7729193,5.68505747 17.7729193,9.71577011 L17.7729193,19.1255172 L19.9463354,19.1255172 L19.9403727,9.71577011 C19.9403727,4.54482759 15.5488199,0.351632184 10.1406211,0.351632184 C4.72944099,0.351632184 0.340869565,4.54482759 0.340869565,9.71577011 L0.334906832,19.1312184 L2.50534161,19.1255172 L2.50534161,9.71577011 C2.50534161,5.68505747 5.92496894,2.41829885 10.1406211,2.41829885" id="Fill-4" sketch:type="MSShapeGroup"></path>
                <path d="M10.5192547,15.7675402 L9.33565217,15.7675402 L9.19254658,16.56 L10.6713043,16.56 L10.5192547,15.7675402" id="Fill-5" sketch:type="MSShapeGroup"></path>
                <path d="M10.8859627,17.7714943 L8.98086957,17.7714943 L8.76024845,18.9573333 L11.0946584,18.9573333 L10.8859627,17.7714943" id="Fill-6" sketch:type="MSShapeGroup"></path>
                <path d="M11.3808696,20.5565057 L8.47403727,20.5565057 L8.19378882,22.1442759 L11.6700621,22.1442759 L11.3808696,20.5565057" id="Fill-7" sketch:type="MSShapeGroup"></path>
            </g>
        </g>
    </g>
</svg>