<?xml version="1.0" encoding="utf-8"?>
<!-- Generator: Adobe Illustrator 20.1.0, SVG Export Plug-In . SVG Version: 6.00 Build 0)  -->
<svg version="1.1" id="Layer_1" xmlns:sketch="http://www.bohemiancoding.com/sketch/ns"
	 xmlns="http://www.w3.org/2000/svg" xmlns:xlink="http://www.w3.org/1999/xlink" x="0px" y="0px" width="22px" height="22px"
	 viewBox="0 0 22 22" style="enable-background:new 0 0 22 22;" xml:space="preserve">
<path fill="#FFFFFF" d="M11,8.1c-1.7,0-3,1.3-3,3V15h6v-3.9C14,9.5,12.7,8.1,11,8.1z"/>
<path fill="#FFFFFF" d="M11,0C6,0,2,4,2,9v9h2V9c0-3.9,3.1-7,7-7s7,3.1,7,7v9h2V9C20,4,16,0,11,0z"/>
<polygon fill="#FFFFFF" points="9.4,19 12.6,19 12.4,18 9.6,18 "/>
<polygon fill="#FFFFFF" points="9,22 13,22 12.7,20 9.3,20 "/>
<polygon fill="#FFFFFF" points="9.9,16 9.7,17 12.3,17 12.1,16 "/>
</svg>
