<?xml version="1.0" encoding="utf-8"?>
<!-- Generator: Adobe Illustrator 20.1.0, SVG Export Plug-In . SVG Version: 6.00 Build 0)  -->
<svg version="1.1" id="Layer_1" xmlns="http://www.w3.org/2000/svg" xmlns:xlink="http://www.w3.org/1999/xlink" x="0px" y="0px"
	 width="30px" height="30px" viewBox="0 0 30 30" style="enable-background:new 0 0 30 30;" xml:space="preserve">
<path fill="#231F20" d="M15,0C7.8,0,2,5.8,2,13v13h3V13C5,7.5,9.5,3,15,3s10,4.5,10,10v13h3V13C28,5.8,22.2,0,15,0z"/>
<path fill="#231F20" d="M15,10c-2.2,0-4,1.8-4,4v6h8v-6C19,11.8,17.2,10,15,10z"/>
<polygon fill="#231F20" points="16.2,21 13.8,21 13.6,22 16.4,22 "/>
<polygon fill="#231F20" points="16.6,23 13.4,23 13,25 17,25 "/>
<polygon fill="#231F20" points="12.6,27 12,30 18,30 17.4,27 "/>
</svg>
