<?xml version="1.0" encoding="utf-8"?>
<!-- Generator: Adobe Illustrator 22.1.0, SVG Export Plug-In . SVG Version: 6.00 Build 0)  -->
<svg version="1.1" id="Layer_1" xmlns="http://www.w3.org/2000/svg" xmlns:xlink="http://www.w3.org/1999/xlink" x="0px" y="0px"
	 width="14px" height="14px" viewBox="0 0 14 14" enable-background="new 0 0 14 14" xml:space="preserve">
<path fill="#FFFFFF" d="M10.2,4c0.6,0.1,1.2-0.3,1.3-0.9c0.1-0.6-0.3-1.2-0.9-1.3C9.9,1.7,9.3,2.1,9.2,2.7C9.1,3.3,9.5,3.9,10.2,4z"/>
<path fill="#FFFFFF" d="M7,6.6l2.6-0.8l1.8,2.4c0.1,0.1,0.2,0.2,0.4,0.2c0.3,0,0.6-0.1,0.6-0.4c0-0.2,0-0.3-0.1-0.4L9.7,4.1C9.6,4,9.5,3.9,9.3,3.8
	L7.1,2.5l0-2.2C7,0.2,6.9,0.1,6.7,0.1C6.4,0,6.1,0.1,6,0.4c0,0.1,0,0.2,0,0.4l0,2.2c0,0.1,0.1,0.1,0.2,0.2l1.2,0.8L5.1,4.7
	C4.8,4.8,4.5,5.1,4.4,5.4l-0.3,2L1.9,7.9C1.7,8,1.5,8.2,1.4,8.5C1.3,8.8,1.6,9.2,1.9,9.3c0.1,0,0.2,0,0.3,0l2.6-0.7
	c0.2-0.1,0.4-0.2,0.4-0.4L5.6,7L7,8.8l-0.8,2.5c0,0,0,0,0,0c-0.1,0.4,0.2,0.8,0.5,0.8c0.4,0.1,0.7-0.1,0.8-0.5l0.9-2.9c0,0,0,0,0,0
	c0-0.2,0-0.4-0.1-0.6L7,6.6z"/>
<polygon fill="#FFFFFF" fill-rule="evenodd" clip-rule="evenodd" points="0,14 14,14 14,12 11.3,13.9 8.9,12 7.2,13.9 5,12 2.7,13.9 0,12 "/>
</svg>
