<?xml version="1.0" encoding="utf-8"?>
<!-- Generator: Adobe Illustrator 22.1.0, SVG Export Plug-In . SVG Version: 6.00 Build 0)  -->
<svg version="1.1" id="Layer_1" xmlns="http://www.w3.org/2000/svg" xmlns:xlink="http://www.w3.org/1999/xlink" x="0px" y="0px"
	 width="22px" height="22px" viewBox="0 0 22 22" enable-background="new 0 0 22 22" xml:space="preserve">
<path fill="#FFFFFF" d="M16,6.3c1,0.2,1.9-0.5,2.1-1.4c0.2-1-0.5-1.9-1.4-2.1c-1-0.2-1.9,0.5-2.1,1.4C14.3,5.2,15,6.1,16,6.3z"/>
<path fill="#FFFFFF" d="M11,10.3l4-1.2l2.9,3.8c0.1,0.2,0.3,0.3,0.6,0.3c0.5,0.1,0.9-0.2,1-0.7c0-0.2,0-0.5-0.2-0.7l-4.1-5.4
	C15,6.3,14.9,6.2,14.7,6l-3.6-2l0-3.4c-0.1-0.2-0.3-0.4-0.5-0.4C10.1,0,9.6,0.2,9.5,0.7c-0.1,0.2,0,0.4,0,0.6l0,3.5
	C9.6,4.8,9.7,4.9,9.8,5l1.9,1.2L8,7.3C7.5,7.5,7.1,7.9,6.9,8.5l-0.5,3.1L3,12.4c-0.4,0.1-0.7,0.4-0.8,0.8c-0.1,0.6,0.2,1.2,0.8,1.3
	c0.2,0,0.4,0,0.5,0l4.2-1.1c0.3-0.1,0.6-0.3,0.7-0.6L8.7,11l2.2,2.9l-1.2,4c0,0,0,0,0,0.1c-0.1,0.6,0.2,1.2,0.8,1.3
	c0.6,0.1,1.1-0.2,1.3-0.7l1.4-4.5c0,0,0,0,0-0.1c0.1-0.3,0-0.6-0.2-0.9L11,10.3z"/>
<polygon fill="#FFFFFF" fill-rule="evenodd" clip-rule="evenodd" points="0,22 22,22 22,19 17.7,21.2 14,19 11.3,21.3 8,19 4.2,21.3 0,19 "/>
</svg>
