<?xml version="1.0" encoding="utf-8"?>
<!-- Generator: Adobe Illustrator 22.1.0, SVG Export Plug-In . SVG Version: 6.00 Build 0)  -->
<svg version="1.1" id="Layer_1" xmlns="http://www.w3.org/2000/svg" xmlns:xlink="http://www.w3.org/1999/xlink" x="0px" y="0px"
	 width="30px" height="30px" viewBox="0 0 30 30" enable-background="new 0 0 30 30" xml:space="preserve">
<path d="M21.8,8.6c1.3,0.2,2.6-0.6,2.8-2c0.2-1.3-0.6-2.6-2-2.8c-1.3-0.2-2.6,0.6-2.8,2C19.6,7.1,20.4,8.3,21.8,8.6z"/>
<path d="M15,14.1l5.5-1.6l3.9,5.2c0.2,0.2,0.4,0.4,0.8,0.5c0.6,0.1,1.2-0.3,1.3-1c0.1-0.3,0-0.7-0.2-0.9l-5.6-7.4
	c-0.2-0.3-0.4-0.5-0.7-0.7l-4.9-2.8l0-4.7c-0.1-0.3-0.4-0.5-0.7-0.6c-0.6-0.2-1.3,0.2-1.4,0.8c-0.1,0.3-0.1,0.5,0,0.8L13,6.4
	c0.1,0.2,0.2,0.3,0.4,0.4L16,8.5L11,10c-0.7,0.3-1.3,0.8-1.5,1.5l-0.7,4.2L4.1,17c-0.5,0.1-0.9,0.6-1.1,1.1
	c-0.2,0.8,0.3,1.6,1.1,1.8c0.3,0.1,0.5,0,0.7,0l5.7-1.4c0.4-0.1,0.8-0.4,0.9-0.9l0.5-2.6l3.1,3.9l-1.7,5.4c0,0,0,0.1,0,0.1
	c-0.2,0.8,0.3,1.6,1.1,1.8c0.8,0.2,1.5-0.3,1.8-1l1.9-6.2c0,0,0-0.1,0-0.1c0.1-0.4,0-0.9-0.3-1.2L15,14.1z"/>
<polygon fill-rule="evenodd" clip-rule="evenodd" points="0,30 30,30 30,26 24.2,28.5 19,26 15.5,28.6 11,26 5.7,28.7 0,26 "/>
</svg>
