<?xml version="1.0" encoding="utf-8"?>
<!-- Generator: Adobe Illustrator 25.4.1, SVG Export Plug-In . SVG Version: 6.00 Build 0)  -->
<svg version="1.1" id="Layer_1" xmlns="http://www.w3.org/2000/svg" xmlns:xlink="http://www.w3.org/1999/xlink" x="0px" y="0px"
	 width="14px" height="14px" viewBox="0 0 14 14" enable-background="new 0 0 14 14" xml:space="preserve">
<path fill="#ffffff" d="M5,1H2L1,3v3h1V5h3v1h1V3L5,1z M5,3H2V2h3V3z"/>
<path fill="#ffffff" d="M12,1H9L8,3v3h1V5h3v1h1V3L12,1z M12,3H9V2h3V3z"/>
<path fill="#ffffff" d="M13.6,11.5c-0.3,0-0.6-0.1-0.8-0.2c-0.3-0.1-0.6-0.5-0.9-0.5c-0.3,0-0.6,0.4-0.9,0.5
	c-0.2,0.1-0.5,0.2-0.8,0.2s-0.6-0.1-0.8-0.2c-0.3-0.1-0.6-0.5-0.9-0.5c-0.3,0-0.6,0.4-0.9,0.5c-0.2,0.1-0.5,0.2-0.8,0.2
	S6.2,11.4,6,11.3c-0.3-0.1-0.6-0.5-0.9-0.5s-0.6,0.4-0.9,0.5c-0.2,0.1-0.5,0.2-0.8,0.2s-0.6-0.1-0.8-0.2c-0.3-0.1-0.6-0.5-0.9-0.5
	s-0.6,0.4-0.9,0.5c-0.2,0.1-0.5,0.2-0.8,0.2v-1.2c0.3,0,0.6-0.1,0.8-0.2C1.1,10,1.4,9.6,1.7,9.6s0.6,0.4,0.9,0.5s0.5,0.2,0.8,0.2
	s0.6-0.1,0.8-0.2C4.5,10,4.8,9.6,5.1,9.6S5.7,10,6,10.1s0.5,0.2,0.8,0.2s0.6-0.1,0.8-0.2C7.9,10,8.2,9.6,8.5,9.6s0.6,0.4,0.9,0.5
	c0.3,0.1,0.5,0.2,0.8,0.2s0.6-0.1,0.8-0.2c0.3-0.1,0.6-0.5,0.9-0.5c0.3,0,0.6,0.4,0.9,0.5c0.3,0.1,0.5,0.2,0.8,0.2
	C13.6,10.3,13.6,11.5,13.6,11.5z"/>
<path fill="#ffffff" d="M2.6,9.1c0.3,0.1,0.5,0.2,0.8,0.2S4,9.2,4.2,9.1C4.5,9,4.8,8.6,5.1,8.6C5.4,8.6,5.7,9,6,9.1s0.5,0.2,0.8,0.2
	s0.6-0.1,0.8-0.2C7.9,9,8.2,8.6,8.5,8.6S9.1,9,9.4,9.1c0.3,0.1,0.5,0.2,0.8,0.2s0.6-0.1,0.8-0.2c0.3-0.1,0.6-0.5,0.9-0.5
	c0.1,0,0.3,0.1,0.4,0.2C12.7,8.4,13,8,13,8l1-2H0l1,2c0,0,0.2,0.3,0.5,0.6c0.1,0,0.1,0,0.2,0C2,8.6,2.3,9,2.6,9.1z"/>
</svg>
