<?xml version="1.0" encoding="utf-8"?>
<!-- Generator: Adobe Illustrator 18.1.1, SVG Export Plug-In . SVG Version: 6.00 Build 0)  -->
<svg version="1.1" id="Layer_1" xmlns="http://www.w3.org/2000/svg" xmlns:xlink="http://www.w3.org/1999/xlink" x="0px" y="0px"
	 viewBox="0 0 32 32" enable-background="new 0 0 32 32" xml:space="preserve">
<path opacity="0.5" d="M31.993,26c-0.65,0-1.285-0.321-1.845-0.567C29.573,25.164,28.923,25,28.244,25
	c-0.672,0-1.322,0.164-1.897,0.433C25.779,25.679,25.152,26,24.494,26s-1.284-0.321-1.845-0.567C22.075,25.164,21.425,25,20.746,25
	c-0.672,0-1.322,0.164-1.897,0.433C18.281,25.679,17.654,26,16.996,26c-0.657,0-1.285-0.321-1.845-0.567
	C14.577,25.164,13.927,25,13.247,25s-1.329,0.164-1.904,0.433C10.783,25.679,10.155,26,9.498,26c-0.657,0-1.284-0.321-1.845-0.567
	C7.071,25.164,6.421,25,5.749,25c-0.68,0-1.33,0.164-1.905,0.433C3.284,25.679,2.657,26,2,26v-2.782
	c0.657,0,1.284-0.142,1.845-0.396c0.575-0.269,1.225-0.426,1.905-0.426c0.672,0,1.322,0.157,1.904,0.426
	c0.56,0.254,1.188,0.396,1.845,0.396c0.657,0,1.285-0.142,1.845-0.396c0.575-0.269,1.225-0.426,1.904-0.426s1.33,0.157,1.905,0.426
	c0.56,0.254,1.187,0.396,1.845,0.396c0.657,0,1.284-0.142,1.852-0.396c0.575-0.269,1.225-0.426,1.897-0.426
	c0.679,0,1.329,0.157,1.904,0.426c0.56,0.254,1.187,0.396,1.845,0.396s1.285-0.142,1.852-0.396c0.575-0.269,1.225-0.426,1.897-0.426
	c0.679,0,1.329,0.157,1.904,0.426c0.56,0.254,1.195,0.396,1.845,0.396V26z"/>
<path opacity="0.5" d="M28.333,15.373c0.314-0.149,0.53-0.463,0.53-0.836V13.61h0.941v-3.025l0,0c0-0.657-0.448-1.21-1.053-1.374
	l-1.075-2.569C27.519,6.262,27.146,6,26.713,6h-5.526c-0.433,0-0.807,0.262-0.964,0.642l-1.075,2.569
	c-0.605,0.164-1.053,0.717-1.053,1.374l0,0v3.025h0.941v0.926c0,0.373,0.216,0.687,0.53,0.836H14.48
	c0.314-0.149,0.538-0.463,0.538-0.836L15.01,13.61h0.941v-3.025l0,0c0-0.657-0.448-1.21-1.053-1.374l-1.076-2.569
	C13.665,6.262,13.292,6,12.859,6H7.332C6.899,6,6.526,6.262,6.369,6.642L5.293,9.212C4.688,9.376,4.24,9.929,4.24,10.586l0,0v3.025
	h0.941v0.926c0,0.373,0.217,0.687,0.53,0.836H2v2.349h2.539l2.069,2.412c0.366,0.075,0.717,0.194,1.045,0.344
	c0.56,0.254,1.188,0.396,1.845,0.396c0.657,0,1.285-0.142,1.845-0.396c0.575-0.269,1.225-0.426,1.904-0.426s1.33,0.157,1.905,0.426
	c0.56,0.254,1.187,0.396,1.845,0.396c0.657,0,1.284-0.142,1.852-0.396c0.575-0.269,1.225-0.426,1.897-0.426
	c0.679,0,1.329,0.157,1.904,0.426c0.56,0.254,1.187,0.396,1.845,0.396s1.285-0.142,1.852-0.396c0.396-0.187,0.829-0.314,1.284-0.381
	l2.017-2.405H32v-2.319H28.333z M6.488,15.373c0.314-0.149,0.538-0.463,0.538-0.836L7.019,13.61h6.154v0.926
	c0,0.373,0.216,0.687,0.53,0.836H6.488z M20.342,15.373c0.314-0.149,0.53-0.463,0.53-0.836V13.61h6.154v0.926
	c0,0.373,0.217,0.687,0.53,0.836H20.342z M5.335,11.127c0-0.515,0.422-0.93,0.933-0.93s0.934,0.414,0.934,0.93
	c0,0.515-0.422,0.93-0.934,0.93S5.335,11.642,5.335,11.127z M13.923,12.057c-0.515,0-0.934-0.414-0.934-0.93
	c0-0.515,0.418-0.93,0.934-0.93c0.512,0,0.941,0.414,0.941,0.93C14.864,11.642,14.435,12.057,13.923,12.057z M6.22,9.159
	l0.926-2.218c0.037-0.112,0.142-0.194,0.269-0.194h5.362c0.127,0,0.231,0.082,0.276,0.194l0.926,2.218H6.22z M19.188,11.127
	c0-0.515,0.422-0.93,0.934-0.93s0.933,0.414,0.933,0.93c0,0.515-0.422,0.93-0.933,0.93S19.188,11.642,19.188,11.127z M27.777,12.057
	c-0.512,0-0.933-0.414-0.933-0.93c0-0.515,0.422-0.93,0.933-0.93c0.512,0,0.934,0.414,0.934,0.93
	C28.71,11.642,28.288,12.057,27.777,12.057z M20.073,9.159l0.926-2.218c0.037-0.112,0.142-0.194,0.269-0.194h5.362
	c0.127,0,0.232,0.082,0.269,0.194l0.926,2.218H20.073z"/>
<path opacity="0.75" d="M30.993,25c-0.65,0-1.285-0.321-1.845-0.567C28.573,24.164,27.923,24,27.244,24
	c-0.672,0-1.322,0.164-1.897,0.433C24.779,24.679,24.152,25,23.494,25s-1.284-0.321-1.845-0.567C21.075,24.164,20.425,24,19.746,24
	c-0.672,0-1.322,0.164-1.897,0.433C17.281,24.679,16.654,25,15.996,25c-0.657,0-1.285-0.321-1.845-0.567
	C13.577,24.164,12.927,24,12.247,24s-1.329,0.164-1.904,0.433C9.783,24.679,9.155,25,8.498,25c-0.657,0-1.284-0.321-1.845-0.567
	C6.071,24.164,5.421,24,4.749,24c-0.68,0-1.33,0.164-1.905,0.433C2.284,24.679,1.657,25,1,25v-2.782
	c0.657,0,1.284-0.142,1.845-0.396c0.575-0.269,1.225-0.426,1.905-0.426c0.672,0,1.322,0.157,1.904,0.426
	c0.56,0.254,1.188,0.396,1.845,0.396c0.657,0,1.285-0.142,1.845-0.396c0.575-0.269,1.225-0.426,1.904-0.426s1.33,0.157,1.905,0.426
	c0.56,0.254,1.187,0.396,1.845,0.396c0.657,0,1.284-0.142,1.852-0.396c0.575-0.269,1.225-0.426,1.897-0.426
	c0.679,0,1.329,0.157,1.904,0.426c0.56,0.254,1.187,0.396,1.845,0.396s1.285-0.142,1.852-0.396c0.575-0.269,1.225-0.426,1.897-0.426
	c0.679,0,1.329,0.157,1.904,0.426c0.56,0.254,1.195,0.396,1.845,0.396V25z"/>
<path opacity="0.75" d="M27.333,14.373c0.314-0.149,0.53-0.463,0.53-0.836V12.61h0.941V9.586l0,0c0-0.657-0.448-1.21-1.053-1.374
	l-1.075-2.569C26.519,5.262,26.146,5,25.713,5h-5.526c-0.433,0-0.807,0.262-0.964,0.642l-1.075,2.569
	c-0.605,0.164-1.053,0.717-1.053,1.374l0,0v3.025h0.941v0.926c0,0.373,0.216,0.687,0.53,0.836H13.48
	c0.314-0.149,0.538-0.463,0.538-0.836L14.01,12.61h0.941V9.586l0,0c0-0.657-0.448-1.21-1.053-1.374l-1.076-2.569
	C12.665,5.262,12.292,5,11.859,5H6.332C5.899,5,5.526,5.262,5.369,5.642L4.293,8.212C3.688,8.376,3.24,8.929,3.24,9.586l0,0v3.025
	h0.941v0.926c0,0.373,0.217,0.687,0.53,0.836H1v2.349h2.539l2.069,2.412c0.366,0.075,0.717,0.194,1.045,0.344
	c0.56,0.254,1.188,0.396,1.845,0.396c0.657,0,1.285-0.142,1.845-0.396c0.575-0.269,1.225-0.426,1.904-0.426s1.33,0.157,1.905,0.426
	c0.56,0.254,1.187,0.396,1.845,0.396c0.657,0,1.284-0.142,1.852-0.396c0.575-0.269,1.225-0.426,1.897-0.426
	c0.679,0,1.329,0.157,1.904,0.426c0.56,0.254,1.187,0.396,1.845,0.396s1.285-0.142,1.852-0.396c0.396-0.187,0.829-0.314,1.284-0.381
	l2.017-2.405H31v-2.319H27.333z M5.488,14.373c0.314-0.149,0.538-0.463,0.538-0.836L6.019,12.61h6.154v0.926
	c0,0.373,0.216,0.687,0.53,0.836H5.488z M19.342,14.373c0.314-0.149,0.53-0.463,0.53-0.836V12.61h6.154v0.926
	c0,0.373,0.217,0.687,0.53,0.836H19.342z M4.335,10.127c0-0.515,0.422-0.93,0.933-0.93s0.934,0.414,0.934,0.93
	c0,0.515-0.422,0.93-0.934,0.93S4.335,10.642,4.335,10.127z M12.923,11.057c-0.515,0-0.934-0.414-0.934-0.93
	c0-0.515,0.418-0.93,0.934-0.93c0.512,0,0.941,0.414,0.941,0.93C13.864,10.642,13.435,11.057,12.923,11.057z M5.22,8.159
	l0.926-2.218c0.037-0.112,0.142-0.194,0.269-0.194h5.362c0.127,0,0.231,0.082,0.276,0.194l0.926,2.218H5.22z M18.188,10.127
	c0-0.515,0.422-0.93,0.934-0.93s0.933,0.414,0.933,0.93c0,0.515-0.422,0.93-0.933,0.93S18.188,10.642,18.188,10.127z M26.777,11.057
	c-0.512,0-0.933-0.414-0.933-0.93c0-0.515,0.422-0.93,0.933-0.93c0.512,0,0.934,0.414,0.934,0.93
	C27.71,10.642,27.288,11.057,26.777,11.057z M19.073,8.159l0.926-2.218c0.037-0.112,0.142-0.194,0.269-0.194h5.362
	c0.127,0,0.232,0.082,0.269,0.194l0.926,2.218H19.073z"/>
<path fill="#E6E6E6" d="M29.993,24c-0.65,0-1.285-0.321-1.845-0.567C27.573,23.164,26.923,23,26.244,23
	c-0.672,0-1.322,0.164-1.897,0.433C23.779,23.679,23.152,24,22.494,24s-1.284-0.321-1.845-0.567C20.075,23.164,19.425,23,18.746,23
	c-0.672,0-1.322,0.164-1.897,0.433C16.281,23.679,15.654,24,14.996,24s-1.285-0.321-1.845-0.567C12.577,23.164,11.927,23,11.247,23
	s-1.329,0.164-1.904,0.433C8.783,23.679,8.155,24,7.498,24c-0.657,0-1.284-0.321-1.845-0.567C5.071,23.164,4.421,23,3.749,23
	c-0.68,0-1.33,0.164-1.905,0.433C1.284,23.679,0.657,24,0,24v-2.782c0.657,0,1.284-0.142,1.845-0.396
	c0.575-0.269,1.225-0.426,1.905-0.426c0.672,0,1.322,0.157,1.904,0.426c0.56,0.254,1.188,0.396,1.845,0.396
	c0.657,0,1.285-0.142,1.845-0.396c0.575-0.269,1.225-0.426,1.904-0.426s1.33,0.157,1.905,0.426c0.56,0.254,1.187,0.396,1.845,0.396
	s1.284-0.142,1.852-0.396c0.575-0.269,1.225-0.426,1.897-0.426c0.679,0,1.329,0.157,1.904,0.426c0.56,0.254,1.187,0.396,1.845,0.396
	s1.285-0.142,1.852-0.396c0.575-0.269,1.225-0.426,1.897-0.426c0.679,0,1.329,0.157,1.904,0.426c0.56,0.254,1.195,0.396,1.845,0.396
	V24z"/>
<path fill="#E6E6E6" d="M26.333,13.373c0.314-0.149,0.53-0.463,0.53-0.836V11.61h0.941V8.586l0,0c0-0.657-0.448-1.21-1.053-1.374
	l-1.075-2.569C25.519,4.262,25.146,4,24.713,4h-5.526c-0.433,0-0.807,0.262-0.964,0.642l-1.075,2.569
	c-0.605,0.164-1.053,0.717-1.053,1.374l0,0v3.025h0.941v0.926c0,0.373,0.216,0.687,0.53,0.836H12.48
	c0.314-0.149,0.538-0.463,0.538-0.836L13.01,11.61h0.941V8.586l0,0c0-0.657-0.448-1.21-1.053-1.374l-1.076-2.569
	C11.665,4.262,11.292,4,10.859,4H5.332C4.899,4,4.526,4.262,4.369,4.642L3.293,7.212C2.688,7.376,2.24,7.929,2.24,8.586l0,0v3.025
	h0.941v0.926c0,0.373,0.217,0.687,0.53,0.836H0v2.349h2.539l2.069,2.412c0.366,0.075,0.717,0.194,1.045,0.344
	c0.56,0.254,1.188,0.396,1.845,0.396c0.657,0,1.285-0.142,1.845-0.396c0.575-0.269,1.225-0.426,1.904-0.426s1.33,0.157,1.905,0.426
	c0.56,0.254,1.187,0.396,1.845,0.396s1.284-0.142,1.852-0.396c0.575-0.269,1.225-0.426,1.897-0.426c0.679,0,1.329,0.157,1.904,0.426
	c0.56,0.254,1.187,0.396,1.845,0.396s1.285-0.142,1.852-0.396c0.396-0.187,0.829-0.314,1.284-0.381l2.017-2.405H30v-2.319H26.333z
	 M4.488,13.373c0.314-0.149,0.538-0.463,0.538-0.836L5.019,11.61h6.154v0.926c0,0.373,0.216,0.687,0.53,0.836H4.488z M18.342,13.373
	c0.314-0.149,0.53-0.463,0.53-0.836V11.61h6.154v0.926c0,0.373,0.217,0.687,0.53,0.836H18.342z M3.335,9.127
	c0-0.515,0.422-0.93,0.933-0.93s0.934,0.414,0.934,0.93c0,0.515-0.422,0.93-0.934,0.93S3.335,9.642,3.335,9.127z M11.923,10.057
	c-0.515,0-0.934-0.414-0.934-0.93c0-0.515,0.418-0.93,0.934-0.93c0.512,0,0.941,0.414,0.941,0.93
	C12.864,9.642,12.435,10.057,11.923,10.057z M4.22,7.159l0.926-2.218c0.037-0.112,0.142-0.194,0.269-0.194h5.362
	c0.127,0,0.231,0.082,0.276,0.194l0.926,2.218H4.22z M17.188,9.127c0-0.515,0.422-0.93,0.934-0.93s0.933,0.414,0.933,0.93
	c0,0.515-0.422,0.93-0.933,0.93S17.188,9.642,17.188,9.127z M25.777,10.057c-0.512,0-0.933-0.414-0.933-0.93
	c0-0.515,0.422-0.93,0.933-0.93c0.512,0,0.934,0.414,0.934,0.93C26.71,9.642,26.288,10.057,25.777,10.057z M18.073,7.159
	l0.926-2.218c0.037-0.112,0.142-0.194,0.269-0.194h5.362c0.127,0,0.232,0.082,0.269,0.194l0.926,2.218H18.073z"/>
</svg>
