<?xml version="1.0" encoding="utf-8"?>
<!-- Generator: Adobe Illustrator 18.1.1, SVG Export Plug-In . SVG Version: 6.00 Build 0)  -->
<svg version="1.1" id="Layer_1" xmlns="http://www.w3.org/2000/svg" xmlns:xlink="http://www.w3.org/1999/xlink" x="0px" y="0px"
	 viewBox="0 0 24 24" enable-background="new 0 0 24 24" xml:space="preserve">
<path opacity="0.1" d="M24,20c-0.477,0-0.948-0.568-1.358-0.749c-0.422-0.197-0.898-0.318-1.396-0.318
	c-0.493,0-0.969,0.121-1.391,0.318C19.438,19.432,18.978,20,18.496,20c-0.482,0-0.942-0.568-1.353-0.749
	c-0.422-0.197-0.898-0.318-1.396-0.318c-0.493,0-0.97,0.121-1.391,0.318C13.939,19.432,13.479,20,12.997,20
	c-0.482,0-0.942-0.568-1.353-0.749c-0.422-0.197-0.898-0.318-1.397-0.318c-0.498,0-0.975,0.121-1.396,0.318
	C8.441,19.432,7.981,20,7.499,20c-0.482,0-0.942-0.568-1.353-0.749c-0.427-0.197-0.903-0.318-1.396-0.318
	c-0.499,0-0.975,0.121-1.397,0.318C2.942,19.432,2.482,19.781,2,20l0-2.154c0.482-0.219,0.942-0.323,1.353-0.509
	c0.422-0.197,0.898-0.312,1.397-0.312c0.493,0,0.969,0.115,1.396,0.312c0.411,0.186,0.871,0.29,1.353,0.29
	c0.482,0,0.942-0.104,1.353-0.29c0.422-0.197,0.898-0.312,1.396-0.312c0.498,0,0.975,0.115,1.397,0.312
	c0.411,0.186,0.871,0.29,1.353,0.29c0.482,0,0.942-0.104,1.358-0.29c0.421-0.197,0.898-0.312,1.391-0.312
	c0.498,0,0.975,0.115,1.396,0.312c0.411,0.186,0.871,0.29,1.353,0.29c0.482,0,0.942-0.104,1.358-0.29
	c0.422-0.197,0.898-0.312,1.391-0.312c0.498,0,0.975,0.115,1.396,0.312c0.411,0.186,0.876,0.29,1.353,0.29L24,20z"/>
<path opacity="0.1" d="M21.311,11.873c0.23-0.11,0.389-0.34,0.389-0.613v-0.679h0.69V8.363l0,0c0-0.482-0.329-0.887-0.772-1.008
	l-0.789-1.884C20.714,5.192,20.44,5,20.123,5H16.07c-0.318,0-0.592,0.192-0.707,0.471l-0.789,1.884
	c-0.444,0.121-0.772,0.526-0.772,1.008l0,0v2.218h0.69v0.679c0,0.274,0.159,0.504,0.389,0.613h-3.73
	c0.23-0.11,0.394-0.34,0.394-0.613l-0.005-0.679h0.69V8.363l0,0c0-0.482-0.328-0.887-0.772-1.008L10.67,5.471
	C10.555,5.192,10.281,5,9.963,5H5.91C5.593,5,5.319,5.192,5.204,5.471L4.415,7.355C3.972,7.476,3.643,7.881,3.643,8.363l0,0v2.218
	h0.69v0.679c0,0.274,0.159,0.504,0.389,0.613H2v1.723h1.862l1.517,1.769c0.268,0.055,0.526,0.142,0.767,0.252
	c0.411,0.186,0.871,0.29,1.353,0.29c0.482,0,0.942-0.104,1.353-0.29c0.422-0.197,0.898-0.312,1.396-0.312
	c0.498,0,0.975,0.115,1.397,0.312c0.411,0.186,0.871,0.29,1.353,0.29c0.482,0,0.942-0.104,1.358-0.29
	c0.421-0.197,0.898-0.312,1.391-0.312c0.498,0,0.975,0.115,1.396,0.312c0.411,0.186,0.871,0.29,1.353,0.29
	c0.482,0,0.942-0.104,1.358-0.29c0.29-0.137,0.608-0.23,0.942-0.279l1.479-1.763H24v-1.701H21.311z M5.291,11.873
	c0.23-0.11,0.395-0.34,0.395-0.613L5.68,10.581h4.513v0.679c0,0.274,0.159,0.504,0.389,0.613H5.291z M15.451,11.873
	c0.23-0.11,0.389-0.34,0.389-0.613v-0.679h4.513v0.679c0,0.274,0.159,0.504,0.389,0.613H15.451z M5,8l0.773-2.31
	c0.027-0.082,0.104-0.142,0.197-0.142h3.932c0.093,0,0.17,0.06,0.202,0.142L11,8v1h-1V8H6v1H5V8z M15,8l0.933-2.31
	c0.027-0.082,0.104-0.142,0.197-0.142h3.932c0.093,0,0.17,0.06,0.197,0.142L21,8v1h-1V8h-4v1h-1V8z"/>
<path opacity="0.2" d="M23,19c-0.477,0-0.948-0.568-1.358-0.749c-0.422-0.197-0.898-0.318-1.396-0.318
	c-0.493,0-0.969,0.121-1.391,0.318C18.438,18.432,17.978,19,17.496,19c-0.482,0-0.942-0.568-1.353-0.749
	c-0.422-0.197-0.898-0.318-1.396-0.318c-0.493,0-0.97,0.121-1.391,0.318C12.939,18.432,12.479,19,11.997,19
	c-0.482,0-0.942-0.568-1.353-0.749c-0.422-0.197-0.898-0.318-1.397-0.318c-0.498,0-0.975,0.121-1.396,0.318
	C7.441,18.432,6.981,19,6.499,19c-0.482,0-0.942-0.568-1.353-0.749c-0.427-0.197-0.903-0.318-1.396-0.318
	c-0.499,0-0.975,0.121-1.397,0.318C1.942,18.432,1.482,18.781,1,19l0-2.154c0.482-0.219,0.942-0.323,1.353-0.509
	c0.422-0.197,0.898-0.312,1.397-0.312c0.493,0,0.969,0.115,1.396,0.312c0.411,0.186,0.871,0.29,1.353,0.29
	c0.482,0,0.942-0.104,1.353-0.29c0.422-0.197,0.898-0.312,1.396-0.312c0.498,0,0.975,0.115,1.397,0.312
	c0.411,0.186,0.871,0.29,1.353,0.29c0.482,0,0.942-0.104,1.358-0.29c0.421-0.197,0.898-0.312,1.391-0.312
	c0.498,0,0.975,0.115,1.396,0.312c0.411,0.186,0.871,0.29,1.353,0.29c0.482,0,0.942-0.104,1.358-0.29
	c0.422-0.197,0.898-0.312,1.391-0.312c0.498,0,0.975,0.115,1.396,0.312c0.411,0.186,0.876,0.29,1.353,0.29L23,19z"/>
<path opacity="0.2" d="M20.311,10.873c0.23-0.11,0.389-0.34,0.389-0.613V9.581h0.69V7.363l0,0c0-0.482-0.329-0.887-0.772-1.008
	l-0.789-1.884C19.714,4.192,19.44,4,19.123,4H15.07c-0.318,0-0.592,0.192-0.707,0.471l-0.789,1.884
	c-0.444,0.121-0.772,0.526-0.772,1.008l0,0v2.218h0.69v0.679c0,0.274,0.159,0.504,0.389,0.613h-3.73
	c0.23-0.11,0.394-0.34,0.394-0.613l-0.005-0.679h0.69V7.363l0,0c0-0.482-0.328-0.887-0.772-1.008L9.67,4.471
	C9.555,4.192,9.281,4,8.963,4H4.91C4.593,4,4.319,4.192,4.204,4.471L3.415,6.355C2.972,6.476,2.643,6.881,2.643,7.363l0,0v2.218
	h0.69v0.679c0,0.274,0.159,0.504,0.389,0.613H1v1.723h1.862l1.517,1.769c0.268,0.055,0.526,0.142,0.767,0.252
	c0.411,0.186,0.871,0.29,1.353,0.29c0.482,0,0.942-0.104,1.353-0.29c0.422-0.197,0.898-0.312,1.396-0.312
	c0.498,0,0.975,0.115,1.397,0.312c0.411,0.186,0.871,0.29,1.353,0.29c0.482,0,0.942-0.104,1.358-0.29
	c0.421-0.197,0.898-0.312,1.391-0.312c0.498,0,0.975,0.115,1.396,0.312c0.411,0.186,0.871,0.29,1.353,0.29
	c0.482,0,0.942-0.104,1.358-0.29c0.29-0.137,0.608-0.23,0.942-0.279l1.479-1.763H23v-1.701H20.311z M4.291,10.873
	c0.23-0.11,0.395-0.34,0.395-0.613L4.68,9.581h4.513v0.679c0,0.274,0.159,0.504,0.389,0.613H4.291z M14.451,10.873
	c0.23-0.11,0.389-0.34,0.389-0.613V9.581h4.513v0.679c0,0.274,0.159,0.504,0.389,0.613H14.451z M4,7l0.773-2.31
	c0.027-0.082,0.104-0.142,0.197-0.142h3.932c0.093,0,0.17,0.06,0.202,0.142L10,7v1H9V7H5v1H4V7z M14,7l0.933-2.31
	c0.027-0.082,0.104-0.142,0.197-0.142h3.932c0.093,0,0.17,0.06,0.197,0.142L20,7v1h-1V7h-4v1h-1V7z"/>
<path d="M22,18c-0.477,0-0.948-0.568-1.358-0.749c-0.422-0.197-0.898-0.318-1.396-0.318c-0.493,0-0.969,0.121-1.391,0.318
	C17.438,17.432,16.978,18,16.496,18c-0.482,0-0.942-0.568-1.353-0.749c-0.422-0.197-0.898-0.318-1.396-0.318
	c-0.493,0-0.97,0.121-1.391,0.318C11.939,17.432,11.479,18,10.997,18s-0.942-0.568-1.353-0.749
	c-0.422-0.197-0.898-0.318-1.397-0.318c-0.498,0-0.975,0.121-1.396,0.318C6.441,17.432,5.981,18,5.499,18
	c-0.482,0-0.942-0.568-1.353-0.749c-0.427-0.197-0.903-0.318-1.396-0.318c-0.499,0-0.975,0.121-1.397,0.318
	C0.942,17.432,0.482,17.781,0,18l0-2.154c0.482-0.219,0.942-0.323,1.353-0.509c0.422-0.197,0.898-0.312,1.397-0.312
	c0.493,0,0.969,0.115,1.396,0.312c0.411,0.186,0.871,0.29,1.353,0.29c0.482,0,0.942-0.104,1.353-0.29
	c0.422-0.197,0.898-0.312,1.396-0.312c0.498,0,0.975,0.115,1.397,0.312c0.411,0.186,0.871,0.29,1.353,0.29s0.942-0.104,1.358-0.29
	c0.421-0.197,0.898-0.312,1.391-0.312c0.498,0,0.975,0.115,1.396,0.312c0.411,0.186,0.871,0.29,1.353,0.29
	c0.482,0,0.942-0.104,1.358-0.29c0.422-0.197,0.898-0.312,1.391-0.312c0.498,0,0.975,0.115,1.396,0.312
	c0.411,0.186,0.876,0.29,1.353,0.29L22,18z"/>
<path d="M19.311,9.873c0.23-0.11,0.389-0.34,0.389-0.613V8.581h0.69V6.363l0,0c0-0.482-0.329-0.887-0.772-1.008l-0.789-1.884
	C18.714,3.192,18.44,3,18.123,3H14.07c-0.318,0-0.592,0.192-0.707,0.471l-0.789,1.884c-0.444,0.121-0.772,0.526-0.772,1.008l0,0
	v2.218h0.69V9.26c0,0.274,0.159,0.504,0.389,0.613h-3.73c0.23-0.11,0.394-0.34,0.394-0.613L9.541,8.581h0.69V6.363l0,0
	c0-0.482-0.328-0.887-0.772-1.008L8.67,3.471C8.555,3.192,8.281,3,7.963,3H3.91C3.593,3,3.319,3.192,3.204,3.471L2.415,5.355
	C1.972,5.476,1.643,5.881,1.643,6.363l0,0v2.218h0.69V9.26c0,0.274,0.159,0.504,0.389,0.613H0v1.723h1.862l1.517,1.769
	c0.268,0.055,0.526,0.142,0.767,0.252c0.411,0.186,0.871,0.29,1.353,0.29c0.482,0,0.942-0.104,1.353-0.29
	c0.422-0.197,0.898-0.312,1.396-0.312c0.498,0,0.975,0.115,1.397,0.312c0.411,0.186,0.871,0.29,1.353,0.29s0.942-0.104,1.358-0.29
	c0.421-0.197,0.898-0.312,1.391-0.312c0.498,0,0.975,0.115,1.396,0.312c0.411,0.186,0.871,0.29,1.353,0.29
	c0.482,0,0.942-0.104,1.358-0.29c0.29-0.137,0.608-0.23,0.942-0.279l1.479-1.763H22V9.873H19.311z M3.291,9.873
	c0.23-0.11,0.395-0.34,0.395-0.613L3.68,8.581h4.513V9.26c0,0.274,0.159,0.504,0.389,0.613H3.291z M13.451,9.873
	c0.23-0.11,0.389-0.34,0.389-0.613V8.581h4.513V9.26c0,0.274,0.159,0.504,0.389,0.613H13.451z M3,6l0.773-2.31
	c0.027-0.082,0.104-0.142,0.197-0.142h3.932c0.093,0,0.17,0.06,0.202,0.142L9,6v1H8V6H4v1H3V6z M13,6l0.933-2.31
	c0.027-0.082,0.104-0.142,0.197-0.142h3.932c0.093,0,0.17,0.06,0.197,0.142L19,6v1h-1V6h-4v1h-1V6z"/>
</svg>
