<?xml version="1.0" encoding="utf-8"?>
<!-- Generator: Adobe Illustrator 20.1.0, SVG Export Plug-In . SVG Version: 6.00 Build 0)  -->
<svg version="1.1" id="Layer_1" xmlns="http://www.w3.org/2000/svg" xmlns:xlink="http://www.w3.org/1999/xlink" x="0px" y="0px"
	 width="30px" height="30px" viewBox="0 0 30 30" style="enable-background:new 0 0 30 30;" xml:space="preserve">
<path fill="#231F20" d="M30,24c-0.6,0-1.3-0.3-1.8-0.6c-0.6-0.3-1.2-0.4-1.9-0.4c-0.7,0-1.3,0.2-1.9,0.4c-0.6,0.2-1.2,0.6-1.9,0.6s-1.3-0.3-1.8-0.6
	c-0.6-0.3-1.2-0.4-1.9-0.4c-0.7,0-1.3,0.2-1.9,0.4C16.3,23.7,15.7,24,15,24s-1.3-0.3-1.8-0.6c-0.6-0.3-1.2-0.4-1.9-0.4
	s-1.3,0.2-1.9,0.4C8.8,23.7,8.2,24,7.5,24s-1.3-0.3-1.8-0.6C5.1,23.2,4.4,23,3.7,23c-0.7,0-1.3,0.2-1.9,0.4C1.3,23.7,0.7,24,0,24
	v-2.8c0.7,0,1.3-0.1,1.8-0.4c0.6-0.3,1.2-0.4,1.9-0.4c0.7,0,1.3,0.2,1.9,0.4c0.6,0.3,1.2,0.4,1.8,0.4c0.7,0,1.3-0.1,1.8-0.4
	c0.6-0.3,1.2-0.4,1.9-0.4s1.3,0.2,1.9,0.4c0.6,0.3,1.2,0.4,1.8,0.4s1.3-0.1,1.9-0.4c0.6-0.3,1.2-0.4,1.9-0.4c0.7,0,1.3,0.2,1.9,0.4
	c0.6,0.3,1.2,0.4,1.8,0.4s1.3-0.1,1.9-0.4c0.6-0.3,1.2-0.4,1.9-0.4c0.7,0,1.3,0.2,1.9,0.4c0.6,0.3,1.2,0.4,1.8,0.4L30,24L30,24z"/>
<path fill="#231F20" d="M26.3,13.4c0.3-0.1,0.5-0.5,0.5-0.8v-0.9h0.9v-3l0,0c0-0.7-0.4-1.2-1.1-1.4l-1.1-2.6c-0.2-0.4-0.5-0.6-1-0.6h-5.5
	c-0.4,0-0.8,0.3-1,0.6l-1.1,2.6c-0.6,0.2-1.1,0.7-1.1,1.4l0,0v3H17v0.9c0,0.4,0.2,0.7,0.5,0.8h-5.1c0.3-0.1,0.5-0.5,0.5-0.8l0-0.9
	H14v-3l0,0c0-0.7-0.4-1.2-1.1-1.4l-1.1-2.6c-0.2-0.4-0.5-0.6-1-0.6H5.3c-0.4,0-0.8,0.3-1,0.6L3.3,7.2C2.7,7.4,2.2,7.9,2.2,8.6l0,0v3
	h0.9v0.9c0,0.4,0.2,0.7,0.5,0.8H0v2.3h2.5l2.1,2.4c0.4,0.1,0.7,0.2,1,0.3c0.6,0.3,1.2,0.4,1.8,0.4c0.7,0,1.3-0.1,1.8-0.4
	c0.6-0.3,1.2-0.4,1.9-0.4s1.3,0.2,1.9,0.4c0.6,0.3,1.2,0.4,1.8,0.4s1.3-0.1,1.9-0.4c0.6-0.3,1.2-0.4,1.9-0.4c0.7,0,1.3,0.2,1.9,0.4
	c0.6,0.3,1.2,0.4,1.8,0.4s1.3-0.1,1.9-0.4c0.4-0.2,0.8-0.3,1.3-0.4l2-2.4H30v-2.3H26.3z M4.5,13.4C4.8,13.2,5,12.9,5,12.5l0-0.9h6.2
	v0.9c0,0.4,0.2,0.7,0.5,0.8L4.5,13.4L4.5,13.4z M18.3,13.4c0.3-0.1,0.5-0.5,0.5-0.8v-0.9H25v0.9c0,0.4,0.2,0.7,0.5,0.8L18.3,13.4
	L18.3,13.4z M3.3,9.1c0-0.5,0.4-0.9,0.9-0.9s0.9,0.4,0.9,0.9c0,0.5-0.4,0.9-0.9,0.9S3.3,9.6,3.3,9.1z M11.9,10.1
	c-0.5,0-0.9-0.4-0.9-0.9c0-0.5,0.4-0.9,0.9-0.9c0.5,0,0.9,0.4,0.9,0.9C12.9,9.6,12.4,10.1,11.9,10.1z M4.2,7.2l0.9-2.2
	c0-0.1,0.1-0.2,0.3-0.2h5.4c0.1,0,0.2,0.1,0.3,0.2L12,7.2H4.2z M17.2,9.1c0-0.5,0.4-0.9,0.9-0.9s0.9,0.4,0.9,0.9
	c0,0.5-0.4,0.9-0.9,0.9S17.2,9.6,17.2,9.1z M25.8,10.1c-0.5,0-0.9-0.4-0.9-0.9c0-0.5,0.4-0.9,0.9-0.9c0.5,0,0.9,0.4,0.9,0.9
	C26.7,9.6,26.3,10.1,25.8,10.1z M18.1,7.2L19,4.9c0-0.1,0.1-0.2,0.3-0.2h5.4c0.1,0,0.2,0.1,0.3,0.2l0.9,2.2H18.1z"/>
</svg>
