<?xml version="1.0" encoding="utf-8"?>
<!-- Generator: Adobe Illustrator 20.1.0, SVG Export Plug-In . SVG Version: 6.00 Build 0)  -->
<svg version="1.1" id="Layer_1" xmlns="http://www.w3.org/2000/svg" xmlns:xlink="http://www.w3.org/1999/xlink" x="0px" y="0px"
	 width="22px" height="22px" viewBox="0 0 22 22" style="enable-background:new 0 0 22 22;" xml:space="preserve">
<path fill="#FFFFFF" d="M22,18c-0.5,0-0.9-0.6-1.4-0.7c-0.4-0.2-0.9-0.3-1.4-0.3c-0.5,0-1,0.1-1.4,0.3C17.4,17.4,17,18,16.5,18s-0.9-0.6-1.4-0.7
	c-0.4-0.2-0.9-0.3-1.4-0.3c-0.5,0-1,0.1-1.4,0.3C11.9,17.4,11.5,18,11,18s-0.9-0.6-1.4-0.7c-0.4-0.2-0.9-0.3-1.4-0.3
	c-0.5,0-1,0.1-1.4,0.3C6.4,17.4,6,18,5.5,18s-0.9-0.6-1.4-0.7c-0.4-0.2-0.9-0.3-1.4-0.3c-0.5,0-1,0.1-1.4,0.3
	C0.9,17.4,0.5,17.8,0,18v-2.2c0.5-0.2,0.9-0.3,1.4-0.5C1.8,15.1,2.3,15,2.8,15c0.5,0,1,0.1,1.4,0.3c0.4,0.2,0.9,0.3,1.4,0.3
	s0.9-0.1,1.4-0.3C7.3,15.1,7.8,15,8.2,15s1,0.1,1.4,0.3c0.4,0.2,0.9,0.3,1.4,0.3s0.9-0.1,1.4-0.3c0.4-0.2,0.9-0.3,1.4-0.3
	c0.5,0,1,0.1,1.4,0.3c0.4,0.2,0.9,0.3,1.4,0.3s0.9-0.1,1.4-0.3c0.4-0.2,0.9-0.3,1.4-0.3c0.5,0,1,0.1,1.4,0.3
	c0.4,0.2,0.9,0.3,1.4,0.3L22,18z"/>
<path fill="#FFFFFF" d="M19.3,9.9c0.2-0.1,0.4-0.3,0.4-0.6V8.6h0.7V6.4l0,0c0-0.5-0.3-0.9-0.8-1l-0.8-1.9C18.7,3.2,18.4,3,18.1,3h-4.1
	c-0.3,0-0.6,0.2-0.7,0.5l-0.8,1.9c-0.4,0.1-0.8,0.5-0.8,1l0,0v2.2h0.7v0.7c0,0.3,0.2,0.5,0.4,0.6H9.2c0.2-0.1,0.4-0.3,0.4-0.6l0-0.7
	h0.7V6.4l0,0c0-0.5-0.3-0.9-0.8-1L8.7,3.5C8.6,3.2,8.3,3,8,3H3.9C3.6,3,3.3,3.2,3.2,3.5L2.4,5.4C2,5.5,1.6,5.9,1.6,6.4l0,0v2.2h0.7
	v0.7c0,0.3,0.2,0.5,0.4,0.6H0v1.7h1.9l1.5,1.8c0.3,0.1,0.5,0.1,0.8,0.3c0.4,0.2,0.9,0.3,1.4,0.3s0.9-0.1,1.4-0.3
	c0.4-0.2,0.9-0.3,1.4-0.3s1,0.1,1.4,0.3c0.4,0.2,0.9,0.3,1.4,0.3s0.9-0.1,1.4-0.3c0.4-0.2,0.9-0.3,1.4-0.3c0.5,0,1,0.1,1.4,0.3
	c0.4,0.2,0.9,0.3,1.4,0.3s0.9-0.1,1.4-0.3c0.3-0.1,0.6-0.2,0.9-0.3l1.5-1.8H22V9.9H19.3z M3.3,9.9c0.2-0.1,0.4-0.3,0.4-0.6l0-0.7
	h4.5v0.7c0,0.3,0.2,0.5,0.4,0.6H3.3z M13.5,9.9c0.2-0.1,0.4-0.3,0.4-0.6V8.6h4.5v0.7c0,0.3,0.2,0.5,0.4,0.6H13.5z M3,6l0.8-2.3
	c0-0.1,0.1-0.1,0.2-0.1h3.9c0.1,0,0.2,0.1,0.2,0.1L9,6v1H8V6H4v1H3V6z M13,6l0.9-2.3c0-0.1,0.1-0.1,0.2-0.1h3.9
	c0.1,0,0.2,0.1,0.2,0.1L19,6v1h-1V6h-4v1h-1V6z"/>
</svg>
