<?xml version="1.0" encoding="utf-8"?>
<!-- Generator: Adobe Illustrator 18.1.1, SVG Export Plug-In . SVG Version: 6.00 Build 0)  -->
<svg version="1.1" id="Layer_1" xmlns="http://www.w3.org/2000/svg" xmlns:xlink="http://www.w3.org/1999/xlink" x="0px" y="0px"
	 viewBox="0 0 16 16" enable-background="new 0 0 16 16" xml:space="preserve">
<path opacity="0.1" d="M6,12c1,0,1-1,2-1s1.031,1,2,1s1.031-1,2-1s1.094,1,2,1s1.312-1,2-1v2c-0.938,0-1.031,1-2,1s-1.062-1-2-1
	s-1,1-2,1s-1.062-1-2-1s-1.094,1-2,1s-1.094-1-2-1s-2,1-2,1v-2c0,0,1-1,2-1S5.063,12,6,12z"/>
<path opacity="0.2" d="M5,11c1,0,1-1,2-1s1.031,1,2,1s1.031-1,2-1s1.094,1,2,1s1.312-1,2-1s1,1,1,1v2c0,0-0.062-1-1-1s-1.031,1-2,1
	s-1.062-1-2-1s-1,1-2,1s-1.062-1-2-1s-1.094,1-2,1s-1.094-1-2-1s-2,1-2,1v-2c0,0,1-1,2-1S4.063,11,5,11z"/>
<path d="M6,1H2L1,3v3h1V5h4v1h1V3L6,1z M6,3H2V2h4V3z"/>
<path d="M13,1H9L8,3v3h1V5h4v1h1V3L13,1z M13,3H9V2h4V3z"/>
<path d="M0,6l1,2c0,0,2,1,3,1s1.094-1,2-1s1,1,2,1s1.031-1,2-1s1.062,1,2,1s2-1,2-1l1-2H0z"/>
<path d="M4,10c1,0,1-1,2-1s1.031,1,2,1s1.031-1,2-1s1.094,1,2,1s1.312-1,2-1s1,1,1,1v2c0,0-0.062-1-1-1s-1.031,1-2,1s-1.062-1-2-1
	s-1,1-2,1s-1.062-1-2-1s-1.094,1-2,1s-1.094-1-2-1s-2,1-2,1v-2c0,0,1-1,2-1S3.062,10,4,10z"/>
</svg>
