<?xml version="1.0" encoding="utf-8"?>
<!-- Generator: Adobe Illustrator 20.1.0, SVG Export Plug-In . SVG Version: 6.00 Build 0)  -->
<svg version="1.1" id="Layer_1" xmlns="http://www.w3.org/2000/svg" xmlns:xlink="http://www.w3.org/1999/xlink" x="0px" y="0px"
	 width="14px" height="14px" viewBox="0 0 14 14" style="enable-background:new 0 0 14 14;" xml:space="preserve">
<path fill="#231F20" d="M5,1H2L1,3v3h1V5h3v1h1V3L5,1z M5,3H2V2h3V3z"/>
<path fill="#231F20" d="M12,1H9L8,3v3h1V5h3v1h1V3L12,1z M12,3H9V2h3V3z"/>
<path fill="#231F20" d="M0,6l1,2c0,0,1,1,2,1s1.1-1,2-1s1,1,2,1s1-1,2-1s1.1,1,2,1s2-1,2-1l1-2H0z"/>
<path fill="#231F20" d="M3,10c1,0,1-1,2-1s1,1,2,1s1-1,2-1s1.1,1,2,1s1.3-1,2-1s1,1,1,1v2c0,0-0.1-1-1-1s-1,1-2,1s-1.1-1-2-1s-1,1-2,1s-1.1-1-2-1
	s-1.1,1-2,1s-1.1-1-2-1s-1,1-1,1v-2c0,0,0-1,1-1S2.1,10,3,10z"/>
</svg>
