<?xml version="1.0" encoding="utf-8"?>
<!-- Generator: Adobe Illustrator 24.2.0, SVG Export Plug-In . SVG Version: 6.00 Build 0)  -->
<svg version="1.1" id="Layer_1" xmlns="http://www.w3.org/2000/svg" xmlns:xlink="http://www.w3.org/1999/xlink" x="0px" y="0px"
	 width="22px" height="22px" viewBox="0 0 22 22" enable-background="new 0 0 22 22" xml:space="preserve">
<path fill="#FFFFFF" d="M13,12.3l-1.8,0.5l1.2,4.2c0.1,0.4,1.1,1,1.5,1h3v-2h-3L13,12.3z"/>
<path fill="#FFFFFF" d="M20,13v2h-2v4h2v2h2v-8H20z"/>
<path fill="#FFFFFF" d="M21.1,9.4L19,1.6L2.5,6.3c-0.2,0-0.4,0-0.5,0.1c-1.4,0.3-2,2.2-1.4,4.3C0.9,11.6,1.4,12.5,2,13
	c0.5,0.5,1.1,0.7,1.6,0.7c0.2,0,0.3,0,0.5-0.1h0.1l0.3,0.5L21.1,9.4z M2.6,12.3c-0.5-0.4-0.9-1.1-1.1-1.9C1,8.8,1.5,7.5,2.1,7.3
	c0.1,0,0.1,0,0.2,0c0.7,0,1.6,0.9,2,2.3c0.5,1.6,0,2.9-0.6,3.1C3.3,12.9,2.9,12.5,2.6,12.3z"/>
</svg>
