<?xml version="1.0" encoding="utf-8"?>
<!-- Generator: Adobe Illustrator 24.2.0, SVG Export Plug-In . SVG Version: 6.00 Build 0)  -->
<svg version="1.1" id="Layer_1" xmlns="http://www.w3.org/2000/svg" xmlns:xlink="http://www.w3.org/1999/xlink" x="0px" y="0px"
	 width="14px" height="14px" viewBox="0 0 14 14" enable-background="new 0 0 14 14" xml:space="preserve">
<path fill="#FFFFFF" d="M8.3,7.8L7.2,8.2L8,11c0,0,0.7,0,1,0h2v-1H9L8.3,7.8z"/>
<path fill="#FFFFFF" d="M12,8v1h-1v3h1v1h2V8H12z"/>
<path fill="#FFFFFF" d="M13.5,6l-1.4-5L1.3,4l0.1,0.1c-0.1,0-0.2,0-0.2,0C0.6,4.3,0.2,4.8,0,5.5C-0.1,6-0.1,6.6,0.1,7.1
	C0.5,8.2,1.3,9,2.3,9c0.2,0,0.4,0,0.5-0.1l0,0V9L13.5,6z M2.5,7.9c-0.1,0-0.1,0-0.2,0c-0.5,0-1-0.5-1.2-1.1C0.8,6,1,5.3,1.5,5.1
	c0.1,0,0.1,0,0.2,0c0.5,0,1,0.5,1.2,1.1C3.2,7,3,7.7,2.5,7.9z"/>
</svg>
