<?xml version="1.0" encoding="utf-8"?>
<!-- Generator: Adobe Illustrator 22.1.0, SVG Export Plug-In . SVG Version: 6.00 Build 0)  -->
<svg version="1.1" id="Layer_1" xmlns="http://www.w3.org/2000/svg" xmlns:xlink="http://www.w3.org/1999/xlink" x="0px" y="0px"
	 width="30px" height="30px" viewBox="0 0 30 30" enable-background="new 0 0 30 30" xml:space="preserve">
<polygon points="2,2 13,2 13,3 12,3 12,4 2,5 "/>
<path d="M17.5,5C18.9,5,20,3.9,20,2.5S18.9,0,17.5,0C16.1,0,15,1.1,15,2.5S16.1,5,17.5,5z"/>
<path d="M19.6,5c0.7-0.7,1.9-0.7,2.6,0l5.5,5.5C28,10.7,28,11,28,11.3v16.6c0,1.1-0.8,2.1-2,2.1c-1.1,0-2-0.9-2-2.1V14.2l-5.2-5.2
	l-2.1,2.1c-0.2,0.3-0.6,0.5-1,0.5c-0.4,0-0.7-0.2-0.9-0.4l-3.6-3.6c-0.5-0.5-0.4-1.4,0.1-1.8c0.5-0.5,1.3-0.4,1.8,0.2l2.7,2.7
	L19.6,5z"/>
<path d="M8.8,5.8C8.8,5.5,8.5,5.3,8.3,5.3C8,5.3,7.8,5.5,7.8,5.8L7,10.7V30h8v-3h-5V10.7L8.8,5.8z"/>
</svg>
