<?xml version="1.0" encoding="utf-8"?>
<!-- Generator: Adobe Illustrator 22.1.0, SVG Export Plug-In . SVG Version: 6.00 Build 0)  -->
<svg version="1.1" id="Layer_1" xmlns="http://www.w3.org/2000/svg" xmlns:xlink="http://www.w3.org/1999/xlink" x="0px" y="0px"
	 width="22px" height="22px" viewBox="0 0 22 22" enable-background="new 0 0 22 22" xml:space="preserve">
<polygon points="1,1 10,1 10,2 9,2 9,3 1,4 "/>
<path d="M13,3.9c1,0,1.9-0.8,1.9-1.9S14,0.1,13,0.1c-1,0-1.9,0.8-1.9,1.9S12,3.9,13,3.9z"/>
<path d="M14.4,3.7c0.5-0.5,1.4-0.5,1.9,0l4.4,4.1C20.9,7.9,21,8.1,21,8.3v12.2c0,0.8-0.7,1.5-1.5,1.5c-0.8,0-1.5-0.7-1.5-1.5v-10
	l-4.2-3.8l-1.5,1.5c-0.2,0.2-0.4,0.3-0.7,0.3c-0.3,0-0.5-0.1-0.7-0.3L8.3,5.6C7.9,5.2,8,4.6,8.3,4.3c0.4-0.3,1-0.3,1.3,0.1l2,2
	L14.4,3.7z"/>
<path d="M6.5,4.2c0-0.2-0.2-0.3-0.4-0.3c-0.2,0-0.4,0.1-0.4,0.3L5,8v14h6v-2H7V8L6.5,4.2z"/>
</svg>
