<?xml version="1.0" encoding="utf-8"?>
<!-- Generator: Adobe Illustrator 22.1.0, SVG Export Plug-In . SVG Version: 6.00 Build 0)  -->
<svg version="1.1" id="Layer_1" xmlns="http://www.w3.org/2000/svg" xmlns:xlink="http://www.w3.org/1999/xlink" x="0px" y="0px"
	 width="14px" height="14px" viewBox="0 0 14 14" enable-background="new 0 0 14 14" xml:space="preserve">
<polygon fill="#FFFFFF" points="1,1 6,1 6,1.4 5.6,1.4 5.6,1.9 1,3 "/>
<path fill="#FFFFFF" d="M8.2,2.4c0.7,0,1.2-0.5,1.2-1.2S8.9,0,8.2,0C7.6,0,7,0.5,7,1.2S7.6,2.4,8.2,2.4z"/>
<path fill="#FFFFFF" d="M9.1,2.3C9.5,2,10,2,10.4,2.3l2.4,2.6c0.1,0.1,0.2,0.2,0.2,0.4V13c0,0.5-0.4,1-1,1c-0.5,0-0.9-0.4-0.9-1V6.6L8.8,4.2l-1,1
	C7.7,5.3,7.5,5.4,7.4,5.4C7.2,5.4,7,5.3,6.9,5.2L5.3,3.6C5,3.3,5.1,2.9,5.3,2.7c0.3-0.2,0.6-0.2,0.8,0.1l1.3,1.3L9.1,2.3z"/>
<path fill="#FFFFFF" d="M4.1,2.7c0-0.1-0.1-0.2-0.2-0.2c-0.1,0-0.2,0.1-0.2,0.2L3,5v9h4v-2H5V5L4.1,2.7z"/>
</svg>
