<?xml version="1.0" encoding="utf-8"?>
<!-- Generator: Adobe Illustrator 18.1.1, SVG Export Plug-In . SVG Version: 6.00 Build 0)  -->
<svg version="1.1" id="Icons" xmlns="http://www.w3.org/2000/svg" xmlns:xlink="http://www.w3.org/1999/xlink" x="0px" y="0px"
	 viewBox="0 0 24 24" enable-background="new 0 0 24 24" xml:space="preserve">
<g opacity="0.5">
	<path d="M22,15l-7-4.7V6h2v1h3V3h-3V2h-2h-1v7.7L13,9l-9,6H3v1h2v8h16v-8h2v-1H22z"/>
</g>
<g opacity="0.75">
	<path d="M21,14l-7-4.7V5h2v1h3V2h-3V1h-2h-1v7.7L12,8l-9,6H2v1h2v8h16v-8h2v-1H21z"/>
</g>
<polygon fill="#007A2D" points="20,13 13,8.3 13,4 15,4 15,5 18,5 18,1 15,1 15,0 13,0 12,0 12,7.7 11,7 2,13 1,13 1,14 3,14 3,22 
	19,22 19,14 21,14 21,13 "/>
<polygon fill="#FFFFFF" points="13,19 11,21 9,21 10,15 9,15 10,14 13,14 12,15 11.3,19 "/>
<rect x="11" y="11" fill="#FFFFFF" width="2" height="2"/>
</svg>
