<?xml version="1.0" encoding="utf-8"?>
<!-- Generator: Adobe Illustrator 18.1.1, SVG Export Plug-In . SVG Version: 6.00 Build 0)  -->
<svg version="1.1" id="Icons" xmlns="http://www.w3.org/2000/svg" xmlns:xlink="http://www.w3.org/1999/xlink" x="0px" y="0px"
	 viewBox="0 0 32 32" enable-background="new 0 0 32 32" xml:space="preserve">
<g opacity="0.5">
	<path d="M28,20l-8.2-6H20V8h3v1h4V3h-4V2h-3h0h-1v11.5L17,12h-1L5,20H4v1h2v11h21V21h2v-1H28z"/>
</g>
<g opacity="0.75">
	<path d="M27,19l-8.2-6H19V7h3v1h4V2h-4V1h-3h0h-1v11.5L16,11h-1L4,19H3v1h2v11h21V20h2v-1H27z"/>
</g>
<polygon fill="#00A33C" points="26,18 17.7,12 18,12 18,6 21,6 21,7 25,7 25,1 21,1 21,0 18,0 18,0 17,0 17,11.5 15,10 14,10 3,18 
	2,18 2,19 4,19 4,30 25,30 25,19 27,19 27,18 "/>
<polygon fill="#FFFFFF" points="16,26 16,27 15,27 15,28 12,28 13,21 12,20 16,19 16,20 15,26 "/>
<path fill="#FFFFFF" d="M17,17.2c0,0.5-0.4,0.8-0.8,0.8h-1.3c-0.5,0-0.8-0.4-0.8-0.8v-1.3c0-0.5,0.4-0.8,0.8-0.8h1.3
	c0.5,0,0.8,0.4,0.8,0.8V17.2z"/>
</svg>
