<?xml version="1.0" encoding="utf-8"?>
<!-- Generator: Adobe Illustrator 18.1.1, SVG Export Plug-In . SVG Version: 6.00 Build 0)  -->
<svg version="1.1" id="Icons" xmlns="http://www.w3.org/2000/svg" xmlns:xlink="http://www.w3.org/1999/xlink" x="0px" y="0px"
	 viewBox="0 0 16 16" enable-background="new 0 0 16 16" xml:space="preserve">
<g opacity="0.1">
	<path d="M12,8.1V5h2V3h-3v2v2.4L9,6l-7,5h2v5h10v-5h2L12,8.1z"/>
</g>
<g opacity="0.2">
	<path d="M11,7.1V4h2V2h-3v2v2.4L8,5l-7,5h2v5h10v-5h2L11,7.1z"/>
</g>
<polygon fill="#2D500D" points="10,6.1 10,3 12,3 12,1 9,1 9,3 9,5.4 7,4 0,9 2,9 2,14 12,14 12,9 14,9 "/>
<polygon fill="#FFFFFF" points="8,10 7.8,10 7,13 6,13 5,13 5,12 5.3,12 6,9 7,9 8,9 "/>
<rect x="7" y="7" fill="#FFFFFF" width="2" height="1"/>
</svg>
