<?xml version="1.0" encoding="utf-8"?>
<!-- Generator: Adobe Illustrator 21.1.0, SVG Export Plug-In . SVG Version: 6.00 Build 0)  -->
<svg version="1.1" id="Icons" xmlns="http://www.w3.org/2000/svg" xmlns:xlink="http://www.w3.org/1999/xlink" x="0px" y="0px"
	 width="30px" height="30px" viewBox="0 0 30 30" enable-background="new 0 0 30 30" xml:space="preserve">
<path fill="#231F20" d="M26,18l-8.2-6H18V6h3v1h4V1h-4V0h-3h-1v11.5L15,10h-1L3,18H2v1h2v11h21V19h2v-1H26z M16,20l-1,6h1v1h-1v1h-3l1-7l-1-1l4-1
	V20z M17,17.2c0,0.5-0.4,0.8-0.8,0.8h-1.3c-0.5,0-0.8-0.4-0.8-0.8v-1.3c0-0.5,0.4-0.8,0.8-0.8h1.3c0.5,0,0.8,0.4,0.8,0.8V17.2z"/>
</svg>
