<?xml version="1.0" encoding="utf-8"?>
<!-- Generator: Adobe Illustrator 22.1.0, SVG Export Plug-In . SVG Version: 6.00 Build 0)  -->
<svg version="1.1" id="Layer_1" xmlns="http://www.w3.org/2000/svg" xmlns:xlink="http://www.w3.org/1999/xlink" x="0px" y="0px"
	 width="14px" height="14px" viewBox="0 0 14 14" enable-background="new 0 0 14 14" xml:space="preserve">
<path fill="#FFFFFF" d="M5.7,1.8c0.6-0.2,1.3,0.1,1.5,0.7C7.3,3.1,7,3.8,6.4,4C5.8,4.2,5.1,3.8,4.9,3.2C4.7,2.6,5.1,2,5.7,1.8z"/>
<path fill="#FFFFFF" d="M2.3,0.1c0.6-0.2,1.3,0.1,1.5,0.7C4,1.4,3.6,2.1,3,2.3C2.4,2.5,1.7,2.1,1.6,1.5C1.4,0.9,1.7,0.3,2.3,0.1z"/>
<path fill="#FFFFFF" d="M2.6,5.1C2.3,5.1,2,5.3,2,5.6c0,0.3,0.2,0.6,0.6,0.7l2,0l1.1-0.4l0.5,4.4c0,0.1,1.3,3.3,1.3,3.3c0.2,0.3,0.6,0.4,1,0.2
	c0.3-0.2,0.4-0.6,0.2-1L7.5,9.4c0,0,0.9,0.6,1.9,1.3c1.6,0.6,2.2,0.8,2.2,0.8c0.4,0.1,0.8,0,0.9-0.4c0.2-0.4,0-0.8-0.4-0.9L10,9.4
	L8.6,8.4L8.1,5c0,0,1.1-0.7,1.6-1.1c0,0,0.5-0.3,0.1-1.2c-0.6-1-1.1-1.9-1.1-1.9C8.5,0.6,8.1,0.4,7.8,0.6C7.5,0.7,7.4,1.1,7.6,1.4
	l1.1,1.8L7.2,4.1c0,0-3,1-3,1L2.6,5.1z"/>
</svg>
