<?xml version="1.0" encoding="utf-8"?>
<!-- Generator: Adobe Illustrator 22.1.0, SVG Export Plug-In . SVG Version: 6.00 Build 0)  -->
<svg version="1.1" id="Layer_1" xmlns="http://www.w3.org/2000/svg" xmlns:xlink="http://www.w3.org/1999/xlink" x="0px" y="0px"
	 width="30px" height="30px" viewBox="0 0 30 30" enable-background="new 0 0 30 30" xml:space="preserve">
<path fill="#FFFFFF" d="M12.1,3.8c1.3-0.4,2.7,0.3,3.2,1.6c0.4,1.3-0.3,2.7-1.7,3.1c-1.3,0.4-2.7-0.3-3.2-1.6C10.1,5.6,10.8,4.2,12.1,3.8z"/>
<path fill="#FFFFFF" d="M5,0.1c1.3-0.4,2.7,0.3,3.2,1.6C8.5,3,7.8,4.4,6.5,4.9C5.2,5.3,3.7,4.6,3.3,3.3C2.9,1.9,3.6,0.5,5,0.1z"/>
<path fill="#FFFFFF" d="M5.6,10.9c-0.7-0.1-1.4,0.5-1.4,1.2c-0.1,0.7,0.5,1.4,1.2,1.4l4.3,0l2.4-0.8l1.2,9.5c0,0.2,2.7,7.1,2.7,7.1
	c0.4,0.7,1.4,0.9,2.1,0.5c0.7-0.4,0.9-1.4,0.5-2L16,20.1c0,0,1.9,1.3,4,2.7c3.5,1.3,4.7,1.7,4.7,1.7c0.8,0.3,1.6,0,2-0.8
	c0.3-0.8,0-1.6-0.8-2l-4.5-1.6l-3-2l-1-7.3c0,0,2.4-1.6,3.5-2.3c0,0,1.1-0.6,0.1-2.5c-1.3-2.2-2.4-4.1-2.4-4.1
	c-0.3-0.6-1.1-0.9-1.8-0.6c-0.6,0.3-0.9,1.1-0.6,1.7l2.3,3.8l-2.9,2c0,0-6.5,2.1-6.5,2.1L5.6,10.9z"/>
</svg>
