<?xml version="1.0" encoding="utf-8"?>
<!-- Generator: Adobe Illustrator 22.1.0, SVG Export Plug-In . SVG Version: 6.00 Build 0)  -->
<svg version="1.1" id="Layer_1" xmlns="http://www.w3.org/2000/svg" xmlns:xlink="http://www.w3.org/1999/xlink" x="0px" y="0px"
	 width="22px" height="22px" viewBox="0 0 22 22" enable-background="new 0 0 22 22" xml:space="preserve">
<path fill="#FFFFFF" d="M8.9,2.8c1-0.3,2,0.2,2.3,1.2c0.3,1-0.2,2-1.2,2.3C9,6.6,8,6,7.7,5.1C7.4,4.1,7.9,3.1,8.9,2.8z"/>
<path fill="#FFFFFF" d="M3.6,0.1c1-0.3,2,0.2,2.3,1.2c0.3,1-0.2,2-1.2,2.3c-1,0.3-2-0.2-2.3-1.2C2.1,1.4,2.7,0.4,3.6,0.1z"/>
<path fill="#FFFFFF" d="M4.1,8c-0.5,0-1,0.4-1,0.9c0,0.5,0.3,1,0.9,1l3.1,0l1.8-0.6l0.9,7c0,0.2,2,5.2,2,5.2c0.3,0.5,1,0.7,1.5,0.3
	c0.5-0.3,0.7-1,0.4-1.5l-1.9-5.6c0,0,1.4,0.9,3,2c2.6,0.9,3.4,1.2,3.4,1.2c0.6,0.2,1.2,0,1.4-0.6c0.2-0.6,0-1.2-0.6-1.4l-3.3-1.2
	l-2.2-1.5l-0.8-5.4c0,0,1.7-1.2,2.6-1.7c0,0,0.8-0.5,0.1-1.8c-0.9-1.6-1.7-3-1.7-3c-0.2-0.5-0.8-0.7-1.3-0.4
	c-0.5,0.2-0.7,0.8-0.4,1.3L13.5,5l-2.1,1.5c0,0-4.7,1.6-4.7,1.6L4.1,8z"/>
</svg>
