<?xml version="1.0" encoding="utf-8"?>
<!-- Generator: Adobe Illustrator 22.1.0, SVG Export Plug-In . SVG Version: 6.00 Build 0)  -->
<svg version="1.1" id="Layer_1" xmlns="http://www.w3.org/2000/svg" xmlns:xlink="http://www.w3.org/1999/xlink" x="0px" y="0px"
	 width="30px" height="30px" viewBox="0 0 30 30" enable-background="new 0 0 30 30" xml:space="preserve">
<path d="M9.8,12.3c0.1,0,0.7,0,0.7,0h1.6c0.5,0,0.9-0.4,0.9-0.9V6c0-0.5-0.4-0.9-0.9-0.9h-1.6c0,0-0.7,0-0.7,0
	c-0.9,0-5.5,1.7-5.5,12.4C4.3,28.3,8.8,30,9.7,30c0.1,0,0.7,0,0.7,0h1.6c0.5,0,0.9-0.4,0.9-0.9v-5.3c0-0.5-0.4-0.9-0.9-0.9h-1.6
	c-0.1,0-0.7,0-0.7,0c-0.5,0-1.4-0.4-1.4-5.3C8.3,12.7,9.2,12.3,9.8,12.3z"/>
<path d="M14.5,7.2c0.3,0.4,0.5,0.8,0.5,1.3c0,0.5-0.2,0.9-0.5,1.3l1,0.8c0.5-0.6,0.8-1.4,0.8-2.1c0-0.8-0.3-1.5-0.8-2.1L14.5,7.2z"
	/>
<path d="M17.7,13c1.1-1.2,1.7-2.8,1.7-4.4c0-1.6-0.6-3.2-1.7-4.4l-1,0.9c0.9,1,1.4,2.2,1.4,3.5c0,1.3-0.5,2.6-1.4,3.5L17.7,13z"/>
<path d="M19.9,15.4c1.7-1.8,2.6-4.2,2.6-6.6c0-2.5-0.9-4.8-2.6-6.6L19,3c1.5,1.6,2.3,3.6,2.3,5.8c0,2.2-0.8,4.2-2.3,5.8L19.9,15.4z"
	/>
<path d="M22.2,17.8c2.3-2.4,3.6-5.6,3.6-8.9c0-3.3-1.3-6.5-3.6-8.9l-0.9,0.9c2.1,2.2,3.2,5,3.2,8c0,3-1.1,5.8-3.2,8L22.2,17.8z"/>
</svg>
