<?xml version="1.0" encoding="utf-8"?>
<!-- Generator: Adobe Illustrator 22.1.0, SVG Export Plug-In . SVG Version: 6.00 Build 0)  -->
<svg version="1.1" id="Layer_1" xmlns="http://www.w3.org/2000/svg" xmlns:xlink="http://www.w3.org/1999/xlink" x="0px" y="0px"
	 width="14px" height="14px" viewBox="0 0 14 14" enable-background="new 0 0 14 14" xml:space="preserve">
<path d="M3.6,6C3.6,6,4,6,4,6h0.5C4.8,6,5,5.5,5,5.3V2.8C5,2.6,4.8,2,4.5,2H4c0,0-0.4,0-0.5,0C3.1,2,1,3.2,1,8.2
	c0,5,2.1,5.8,2.5,5.8c0,0,0.5,0,0.5,0h0.5C4.8,14,5,13.8,5,13.6v-2.5C5,10.9,4.8,10,4.5,10H4c0,0-0.4,0-0.4,0
	c-0.2,0-0.7,0.5-0.7-1.8C2.9,5.9,3.3,6,3.6,6z"/>
<rect x="12" y="2" width="1" height="3"/>
<rect x="10" y="2" width="1" height="3"/>
<rect x="8" y="3" width="1" height="1"/>
<rect x="6" y="3" width="1" height="1"/>
<rect x="11" width="1" height="2"/>
<rect x="9" y="1" width="1" height="1"/>
<rect x="9" y="5" width="1" height="1"/>
<rect x="11" y="5" width="1" height="2"/>
</svg>
