<?xml version="1.0" encoding="utf-8"?>
<!-- Generator: Adobe Illustrator 22.1.0, SVG Export Plug-In . SVG Version: 6.00 Build 0)  -->
<svg version="1.1" id="Layer_1" xmlns="http://www.w3.org/2000/svg" xmlns:xlink="http://www.w3.org/1999/xlink" x="0px" y="0px"
	 width="22px" height="22px" viewBox="0 0 22 22" enable-background="new 0 0 22 22" xml:space="preserve">
<path fill="#FFFFFF" d="M7,9c0,0,0.6,0,0.6,0h0.7C8.7,9,9,8.7,9,8.3V4.4c0-0.4-0.3-0.7-0.7-0.7H7.7c0,0-0.6,0-0.7,0c-0.7,0-4,1.2-4,9.1
	C3,20.8,6.3,22,7,22c0,0,0.7,0,0.7,0h0.7C8.7,22,9,21.7,9,21.3v-3.9c0-0.4-0.3-0.7-0.7-0.7H7.7c0,0-0.6,0-0.6,0c-0.4,0-1-0.3-1-3.9
	C6,9.3,6.6,9,7,9z"/>
<path fill="#FFFFFF" d="M10.6,5.3c0.2,0.3,0.3,0.6,0.3,1c0,0.4-0.1,0.7-0.3,1l0.7,0.6c0.4-0.4,0.6-1,0.6-1.6c0-0.6-0.2-1.1-0.6-1.6L10.6,5.3z"/>
<path fill="#FFFFFF" d="M13,9.5c0.8-0.9,1.3-2,1.3-3.2c0-1.2-0.4-2.3-1.2-3.2l-0.7,0.6c0.6,0.7,1,1.6,1,2.6c0,1-0.4,1.9-1,2.6L13,9.5z"/>
<path fill="#FFFFFF" d="M14.6,11.3c1.3-1.3,1.9-3.1,1.9-4.9c0-1.8-0.7-3.5-1.9-4.9l-0.7,0.6c1.1,1.1,1.7,2.6,1.7,4.2c0,1.6-0.6,3.1-1.7,4.2
	L14.6,11.3z"/>
<path fill="#FFFFFF" d="M16.3,13c1.7-1.8,2.6-4.1,2.6-6.5c0-2.4-0.9-4.7-2.6-6.5l-0.7,0.7c1.5,1.6,2.3,3.7,2.3,5.9c0,2.2-0.8,4.3-2.4,5.9L16.3,13z"
	/>
</svg>
