<?xml version="1.0" encoding="utf-8"?>
<!-- Generator: Adobe Illustrator 22.0.1, SVG Export Plug-In . SVG Version: 6.00 Build 0)  -->
<svg version="1.1" id="Layer_1" xmlns="http://www.w3.org/2000/svg" xmlns:xlink="http://www.w3.org/1999/xlink" x="0px" y="0px"
	 width="30px" height="30px" viewBox="0 0 30 30" enable-background="new 0 0 30 30" xml:space="preserve">
<circle cx="15" cy="2.9" r="2.9"/>
<path d="M29,30c-0.6,0-1.2-0.1-1.7-0.4c-0.5-0.3-1.1-1.1-1.8-1.1c-0.6,0-1.2,0.8-1.8,1.1C23.2,29.9,22.6,30,22,30
	c-0.6,0-1.2-0.1-1.7-0.4c-0.5-0.3-1.1-1.1-1.8-1.1c-0.6,0-1.2,0.8-1.8,1.1C16.2,29.9,15.6,30,15,30c-0.6,0-1.2-0.1-1.7-0.4
	c-0.5-0.3-1.1-1.1-1.8-1.1c-0.6,0-1.2,0.8-1.8,1.1C9.2,29.9,8.6,30,8,30c-0.6,0-1.2-0.1-1.7-0.4c-0.5-0.3-1.1-1.1-1.8-1.1
	c-0.6,0-1.2,0.8-1.8,1.1C2.2,29.9,1.6,30,1,30v-2.6c0.6,0,1.2-0.1,1.7-0.4C3.2,26.8,3.8,26,4.5,26c0.6,0,1.2,0.8,1.8,1.1
	c0.5,0.2,1.1,0.4,1.7,0.4c0.6,0,1.2-0.1,1.7-0.4c0.5-0.3,1.2-1.1,1.8-1.1c0.6,0,1.2,0.8,1.8,1.1c0.5,0.2,1.1,0.4,1.7,0.4
	c0.6,0,1.2-0.1,1.7-0.4c0.5-0.3,1.1-1.1,1.8-1.1c0.6,0,1.2,0.8,1.8,1.1c0.5,0.2,1.1,0.4,1.7,0.4c0.6,0,1.2-0.1,1.7-0.4
	c0.5-0.3,1.1-1.1,1.8-1.1c0.6,0,1.2,0.8,1.8,1.1c0.5,0.2,1.1,0.4,1.7,0.4V30z"/>
<path d="M18.1,25c-0.5,0-0.9,0.2-1.3,0.4c-0.4,0.2-0.8,0.3-1.3,0.3l0,0v-7.1l2.6-1.7V25z"/>
<path d="M14.5,25.7c-0.4-0.1-0.8-0.2-1.2-0.4c-0.4-0.2-0.9-0.3-1.4-0.4l0-2.2H8.2l-0.8-3.5c0-0.1,0-0.2,0-0.3c0-1.1,0.6-2.1,1.6-2.5
	V9.3C9,7.6,10.5,6,12.1,6h5.6C19.6,6,21,7.8,21,9.3V17c0,1.4-2,1.4-2,0v-7h-1v5h-6v-5h-1l0,6.4c0.2,0.1,0.4,0.2,0.5,0.3l3,1.9
	L14.5,25.7z M8.4,19h3.3c0-0.6-0.3-1.3-0.8-1.5c-0.3,0.8-1.4,0.8-1.7,0C8.7,17.7,8.4,18.4,8.4,19z"/>
</svg>
