<?xml version="1.0" encoding="utf-8"?>
<!-- Generator: Adobe Illustrator 22.0.1, SVG Export Plug-In . SVG Version: 6.00 Build 0)  -->
<svg version="1.1" id="Layer_1" xmlns="http://www.w3.org/2000/svg" xmlns:xlink="http://www.w3.org/1999/xlink" x="0px" y="0px"
	 width="14px" height="14px" viewBox="0 0 14 14" enable-background="new 0 0 14 14" xml:space="preserve">
<circle cx="7" cy="1.3" r="1.3"/>
<path d="M13.5,14c-0.3,0-0.6-0.1-0.8-0.2c-0.3-0.1-0.5-0.6-0.8-0.6c-0.3,0-0.6,0.5-0.8,0.6c-0.2,0.1-0.5,0.2-0.8,0.2
	c-0.3,0-0.6-0.1-0.8-0.2c-0.3-0.1-0.5-0.6-0.8-0.6c-0.3,0-0.6,0.5-0.8,0.6C7.6,13.9,7.3,14,7,14c-0.3,0-0.6-0.1-0.8-0.2
	c-0.3-0.1-0.5-0.6-0.8-0.6c-0.3,0-0.6,0.5-0.8,0.6C4.3,13.9,4,14,3.7,14c-0.3,0-0.6-0.1-0.8-0.2c-0.3-0.1-0.5-0.6-0.8-0.6
	c-0.3,0-0.6,0.5-0.8,0.6C1,13.9,0.7,14,0.5,14v-1.2c0.3,0,0.6-0.1,0.8-0.2C1.5,12.5,1.8,12,2.1,12c0.3,0,0.6,0.5,0.8,0.6
	c0.2,0.1,0.5,0.2,0.8,0.2c0.3,0,0.6-0.1,0.8-0.2C4.8,12.5,5.1,12,5.4,12c0.3,0,0.6,0.5,0.8,0.6c0.2,0.1,0.5,0.2,0.8,0.2
	c0.3,0,0.6-0.1,0.8-0.2C8.1,12.5,8.3,12,8.6,12c0.3,0,0.6,0.5,0.8,0.6c0.2,0.1,0.5,0.2,0.8,0.2c0.3,0,0.6-0.1,0.8-0.2
	c0.3-0.1,0.5-0.6,0.8-0.6c0.3,0,0.6,0.5,0.8,0.6c0.2,0.1,0.5,0.2,0.8,0.2V14z"/>
<path d="M8.4,11.6c-0.2,0-0.7,0.4-0.9,0.4L7,12V8.7l1.4-0.8V11.6z"/>
<path d="M7,12c-0.2,0-1.3-0.3-1.6-0.3l0-0.6H3.7L3.4,9c0-0.1,0-0.1,0-0.2c0-0.5,0.3-1,0.8-1.2l0-3.3c0-0.8,0.6-1.4,1.4-1.4l2.7,0
	c0.9,0,1.6,0.7,1.6,1.5v3.6c0,0.7-0.9,0.7-0.9,0V4.6H8.4l0,2.3H5.5V4.6H5v3c0.1,0,0.2,0.1,0.3,0.1L7,8.7V12z M3.8,9h1.5
	c0-0.3-0.1-0.7-0.4-0.9c-0.1,0.4-0.7,0.4-0.8,0C4,8.3,3.8,8.7,3.8,9z"/>
</svg>
