<?xml version="1.0" encoding="utf-8"?>
<!-- Generator: Adobe Illustrator 25.4.1, SVG Export Plug-In . SVG Version: 6.00 Build 0)  -->
<svg version="1.1" id="Layer_1" xmlns="http://www.w3.org/2000/svg" xmlns:xlink="http://www.w3.org/1999/xlink" x="0px" y="0px"
	 width="14px" height="14px" viewBox="0 0 14 14" enable-background="new 0 0 14 14" xml:space="preserve">
<path fill="#ffffff" d="M7.2,0c0.7,0,1.3,0.6,1.3,1.3S7.9,2.6,7.2,2.6S5.9,2,5.9,1.3S6.5,0,7.2,0z"/>
<path fill="#ffffff" d="M8.5,2.9H5.8C5,2.9,4.4,3.5,4.4,4.3v3.3C3.9,7.8,3.6,8.3,3.6,8.8c0,0.1,0,0.1,0,0.2l0.3,2.1h1.7v0.6
	C5.9,11.7,7,12,7.2,12h0.5c0.2,0,0.7-0.4,0.9-0.4V7.9L7.2,8.7l-1.7-1c-0.1,0-0.2-0.1-0.3-0.1v-3h0.5v2.3h2.9V4.6h0.6V8
	c0,0.7,0.9,0.7,0.9,0V4.4C10.1,3.6,9.4,2.9,8.5,2.9z M5.5,9H4c0-0.3,0.2-0.7,0.3-0.9c0.1,0.4,0.7,0.4,0.8,0C5.4,8.3,5.5,8.7,5.5,9z"
	/>
<path fill="#ffffff" d="M13.8,14c-0.3,0-0.6-0.1-0.8-0.2c-0.3-0.1-0.6-0.5-0.9-0.5c-0.3,0-0.6,0.4-0.9,0.5C11,13.9,10.7,14,10.4,14
	s-0.6-0.1-0.8-0.2c-0.3-0.1-0.6-0.5-0.9-0.5c-0.3,0-0.6,0.4-0.9,0.5C7.6,13.9,7.3,14,7,14s-0.6-0.1-0.8-0.2
	c-0.3-0.1-0.6-0.5-0.9-0.5s-0.6,0.4-0.9,0.5C4.2,13.9,3.9,14,3.6,14S3,13.9,2.8,13.8c-0.3-0.1-0.6-0.5-0.9-0.5S1.3,13.7,1,13.8
	C0.8,13.9,0.5,14,0.2,14v-1.2c0.3,0,0.6-0.1,0.8-0.2c0.3-0.1,0.6-0.5,0.9-0.5s0.6,0.4,0.9,0.5s0.5,0.2,0.8,0.2s0.6-0.1,0.8-0.2
	c0.3-0.1,0.6-0.5,0.9-0.5s0.6,0.4,0.9,0.5s0.5,0.2,0.8,0.2s0.6-0.1,0.8-0.2c0.3-0.1,0.6-0.5,0.9-0.5s0.6,0.4,0.9,0.5
	c0.3,0.1,0.5,0.2,0.8,0.2s0.6-0.1,0.8-0.2c0.3-0.1,0.6-0.5,0.9-0.5c0.3,0,0.6,0.4,0.9,0.5c0.3,0.1,0.5,0.2,0.8,0.2V14z"/>
</svg>
