<?xml version="1.0" encoding="utf-8"?>
<!-- Generator: Adobe Illustrator 22.0.1, SVG Export Plug-In . SVG Version: 6.00 Build 0)  -->
<svg version="1.1" id="Layer_1" xmlns="http://www.w3.org/2000/svg" xmlns:xlink="http://www.w3.org/1999/xlink" x="0px" y="0px"
	 width="22px" height="22px" viewBox="0 0 22 22" enable-background="new 0 0 22 22" xml:space="preserve">
<circle fill="#FFFFFF" cx="11" cy="2.1" r="2.1"/>
<path fill="#FFFFFF" d="M21.3,22c-0.4,0-0.9-0.1-1.3-0.3c-0.4-0.2-0.8-1-1.3-1c-0.5,0-0.9,0.8-1.3,1C17,21.9,16.6,22,16.1,22
	c-0.4,0-0.9-0.1-1.3-0.3c-0.4-0.2-0.8-1-1.3-1c-0.5,0-0.9,0.8-1.3,1C11.9,21.9,11.4,22,11,22c-0.4,0-0.9-0.1-1.3-0.3
	c-0.4-0.2-0.8-1-1.3-1c-0.5,0-0.9,0.8-1.3,1C6.7,21.9,6.3,22,5.9,22c-0.5,0-0.9-0.1-1.3-0.3c-0.4-0.2-0.8-1-1.3-1
	c-0.5,0-0.9,0.8-1.3,1C1.6,21.9,1.2,22,0.7,22v-1.9c0.5,0,0.9-0.1,1.3-0.3c0.4-0.2,0.8-1,1.3-1c0.5,0,0.9,0.8,1.3,1
	C5,20,5.4,20.1,5.9,20.1c0.4,0,0.9-0.1,1.3-0.3c0.4-0.2,0.8-1,1.3-1c0.5,0,0.9,0.8,1.3,1c0.4,0.2,0.8,0.3,1.3,0.3
	c0.5,0,0.9-0.1,1.3-0.3c0.4-0.2,0.8-1,1.3-1c0.5,0,0.9,0.8,1.3,1c0.4,0.2,0.8,0.3,1.3,0.3c0.5,0,0.9-0.1,1.3-0.3
	c0.4-0.2,0.8-1,1.3-1c0.5,0,0.9,0.8,1.3,1c0.4,0.2,0.8,0.3,1.3,0.3V22z"/>
<path fill="#FFFFFF" d="M13.2,18.3c-0.3,0-0.7,0.1-1,0.3c-0.3,0.1-0.6,0.2-0.9,0.3l0,0v-5.2l1.9-1.3V18.3z"/>
<path fill="#FFFFFF" d="M10.6,18.8c-0.3,0-0.6-0.1-0.9-0.3c-0.3-0.2-0.7-0.3-1.1-0.3l0-1.6H6l-0.6-2.6c0-0.1,0-0.2,0-0.2c0-0.8,0.5-1.5,1.3-1.8
	l0-5.2c0-1.3,1-2.3,2.2-2.3l4.1,0c1.3,0,2.2,1.1,2.2,2.3v5.6c0,1-1.3,1-1.3,0V7h-1v4H9V7H8v5c0.1,0.1,0.3,0.1,0.5,0.2l2.2,1.4
	L10.6,18.8z M6.2,14h2.4c0-0.4-0.2-1-0.6-1.2c-0.2,0.6-1,0.6-1.3,0C6.4,13,6.2,13.6,6.2,14z"/>
</svg>
