<?xml version="1.0" encoding="utf-8"?>
<!-- Generator: Adobe Illustrator 22.1.0, SVG Export Plug-In . SVG Version: 6.00 Build 0)  -->
<svg version="1.1" id="Layer_1" xmlns="http://www.w3.org/2000/svg" xmlns:xlink="http://www.w3.org/1999/xlink" x="0px" y="0px"
	 width="14px" height="14px" viewBox="0 0 14 14" enable-background="new 0 0 14 14" xml:space="preserve">
<path fill="#FFFFFF" d="M6.6,2.3c0.6,0,1.1-0.5,1.1-1.2C7.7,0.5,7.2,0,6.6,0C6,0,5.5,0.5,5.5,1.2C5.5,1.8,6,2.3,6.6,2.3z"/>
<path fill="#FFFFFF" d="M10.5,6L8.8,5.1L7.5,3c-0.2-0.3-0.6-0.5-1-0.5c-0.3,0-0.6,0.1-0.8,0.3L3.7,4.9C3.6,5,3.5,5.1,3.5,5.2L3.3,7.4c0,0,0,0,0,0.1
	C3.3,7.8,3.5,8,3.8,8c0.3,0,0.5-0.2,0.5-0.5l0.2-2l0.7-0.7l-0.6,5.5l-1.2,2.6c0,0.1-0.1,0.2-0.1,0.3c0,0.4,0.4,0.8,0.8,0.7
	c0.3,0,0.5-0.2,0.7-0.4l1.3-2.8c0-0.1,0.1-0.3,0.1-0.3l0.2-1.3l1.3,4.4C7.8,13.8,8,14,8.4,14c0.4,0,0.8-0.4,0.8-0.8
	c0-0.1,0-0.1,0-0.2L7.3,7l0.2-2L8,5.8c0,0.1,0.1,0.1,0.1,0.1l1.8,1c0.1,0,0.2,0.1,0.2,0.1c0.3,0,0.5-0.2,0.5-0.5
	C10.7,6.3,10.6,6.1,10.5,6z"/>
</svg>
