<?xml version="1.0" encoding="utf-8"?>
<!-- Generator: Adobe Illustrator 22.1.0, SVG Export Plug-In . SVG Version: 6.00 Build 0)  -->
<svg version="1.1" id="Layer_1" xmlns="http://www.w3.org/2000/svg" xmlns:xlink="http://www.w3.org/1999/xlink" x="0px" y="0px"
	 width="30px" height="30px" viewBox="0 0 30 30" enable-background="new 0 0 30 30" xml:space="preserve">
<path d="M14.2,4.9c1.3,0,2.4-1.2,2.4-2.5C16.6,1,15.4,0,14.1,0c-1.3,0-2.4,1.2-2.4,2.5C11.8,3.8,12.9,4.9,14.2,4.9z"/>
<path d="M22.5,12.9L18.9,11L16,6.4c-0.5-0.6-1.2-1-2.1-1c-0.6,0-1.2,0.3-1.6,0.7l-4.4,4.4c-0.1,0.2-0.2,0.3-0.3,0.6L7,15.9
	C7,16,7,16,7,16.1c0,0.6,0.5,1.1,1.1,1.1c0.6,0,1-0.5,1.1-1l0.5-4.2l1.5-1.5L9.8,22.1l-2.6,5.5c-0.1,0.2-0.2,0.5-0.1,0.7
	c0,0.9,0.8,1.6,1.7,1.6c0.6,0,1.2-0.4,1.4-1l2.7-6c0.1-0.2,0.2-0.5,0.3-0.7l0.3-2.9l2.8,9.4c0.2,0.7,0.9,1.2,1.6,1.1
	c0.9,0,1.6-0.8,1.6-1.7c0-0.1,0-0.2,0-0.3l-3.9-13l0.5-4.2l1.1,1.7c0.1,0.1,0.2,0.2,0.3,0.3l3.9,2.1c0.2,0.1,0.3,0.1,0.5,0.1
	c0.6,0,1.1-0.5,1.1-1.1C23,13.4,22.8,13.1,22.5,12.9z"/>
</svg>
