<?xml version="1.0" encoding="utf-8"?>
<!-- Generator: Adobe Illustrator 22.1.0, SVG Export Plug-In . SVG Version: 6.00 Build 0)  -->
<svg version="1.1" id="Layer_1" xmlns="http://www.w3.org/2000/svg" xmlns:xlink="http://www.w3.org/1999/xlink" x="0px" y="0px"
	 width="14px" height="14px" viewBox="0 0 14 14" enable-background="new 0 0 14 14" xml:space="preserve">
<path fill="#FFFFFF" d="M7.3,1.7c0.5,0,0.9-0.3,0.9-0.8C8.3,0.4,7.9,0,7.4,0C7,0,6.6,0.3,6.5,0.8C6.5,1.3,6.8,1.7,7.3,1.7z"/>
<path fill="#FFFFFF" d="M6.6,2.1C6.8,1.9,7,1.9,7.2,1.9c0.3,0,0.5,0.2,0.7,0.4L8.7,4l1.2,0.8C10,4.9,10.1,5,10,5.1c0,0.2-0.2,0.4-0.4,0.4
	c-0.1,0-0.1,0-0.2-0.1L8.2,4.6c0,0-0.1-0.1-0.1-0.1L7.8,3.8L7.4,5.5l1.5,1.8c0,0.1,0.1,0.1,0.1,0.2l0.4,2.2c0,0,0,0.1,0,0.1
	c0,0.3-0.3,0.6-0.6,0.5c-0.3,0-0.5-0.2-0.5-0.5l-0.4-2L6.6,6.5L6.3,7.8C6.3,7.8,6.2,8,6.2,8L5,10c-0.1,0.2-0.3,0.3-0.5,0.3
	C4.2,10.3,3.9,10,4,9.7C4,9.6,4,9.5,4,9.4l1.1-1.8l0.9-4L5.1,4L4.8,5.5c0,0.2-0.2,0.3-0.4,0.3C4.1,5.8,4,5.6,4,5.4c0,0,0,0,0-0.1
	l0.4-1.7c0-0.1,0.1-0.1,0.1-0.2L6.6,2.1z"/>
<rect fill="#FFFFFF" y="11" width="2" height="1"/>
<rect fill="#FFFFFF" x="3" y="11" width="2" height="1"/>
<rect fill="#FFFFFF" x="6" y="11" width="2" height="1"/>
<rect fill="#FFFFFF" x="9" y="11" width="2" height="1"/>
<rect fill="#FFFFFF" x="12" y="11" width="2" height="1"/>
<rect fill="#FFFFFF" x="3" y="12" width="1" height="2"/>
<rect fill="#FFFFFF" x="10" y="12" width="1" height="2"/>
</svg>
