<?xml version="1.0" encoding="utf-8"?>
<!-- Generator: Adobe Illustrator 22.1.0, SVG Export Plug-In . SVG Version: 6.00 Build 0)  -->
<svg version="1.1" id="Layer_1" xmlns="http://www.w3.org/2000/svg" xmlns:xlink="http://www.w3.org/1999/xlink" x="0px" y="0px"
	 width="22px" height="22px" viewBox="0 0 22 22" enable-background="new 0 0 22 22" xml:space="preserve">
<path fill="#FFFFFF" d="M10.4,3.6c1,0,1.8-0.8,1.7-1.8c0-1-0.8-1.8-1.8-1.7c-1,0-1.8,0.8-1.7,1.8C8.6,2.8,9.5,3.6,10.4,3.6z"/>
<path fill="#FFFFFF" d="M16.5,9.5L13.9,8l-2.2-3.4c-0.3-0.4-0.9-0.8-1.5-0.7C9.7,4,9.3,4.2,9,4.4L5.8,7.7C5.7,7.8,5.6,8,5.6,8.1l-0.4,3.6
	c0,0,0,0.1,0,0.1c0,0.4,0.4,0.8,0.8,0.8c0.4,0,0.7-0.4,0.8-0.8l0.3-3.1l1.1-1.1l-1,8.6l-1.9,4.1c-0.1,0.1-0.1,0.3-0.1,0.5
	c0,0.7,0.6,1.2,1.2,1.2c0.5,0,0.9-0.3,1.1-0.7l2-4.4c0-0.1,0.2-0.4,0.2-0.5l0.2-2.1l2.1,6.9c0.2,0.5,0.6,0.8,1.2,0.8
	c0.7,0,1.2-0.6,1.2-1.2c0-0.1,0-0.1,0-0.2L11.5,11l0.4-3.1l0.8,1.3c0.1,0.1,0.1,0.2,0.2,0.2l2.8,1.6c0.1,0,0.2,0.1,0.4,0.1
	c0.4,0,0.8-0.4,0.8-0.8C16.9,9.8,16.7,9.6,16.5,9.5z"/>
</svg>
