<?xml version="1.0" encoding="utf-8"?>
<!-- Generator: Adobe Illustrator 22.1.0, SVG Export Plug-In . SVG Version: 6.00 Build 0)  -->
<svg version="1.1" id="Layer_1" xmlns="http://www.w3.org/2000/svg" xmlns:xlink="http://www.w3.org/1999/xlink" x="0px" y="0px"
	 width="30px" height="30px" viewBox="0 0 30 30" enable-background="new 0 0 30 30" xml:space="preserve">
<path d="M15.7,3.6c1,0.1,1.9-0.7,2-1.7c0.1-1-0.7-1.9-1.7-2c-1-0.1-1.9,0.7-2,1.7C13.9,2.7,14.6,3.6,15.7,3.6z"/>
<path d="M14.1,4.4C14.5,4.1,14.9,4,15.4,4c0.6,0,1.1,0.4,1.5,0.9l1.8,3.7l2.5,1.7c0.2,0.2,0.3,0.4,0.3,0.7c0,0.5-0.4,0.8-0.9,0.8
	c-0.1,0-0.2-0.1-0.4-0.1l-2.7-1.9c-0.1-0.1-0.2-0.2-0.2-0.2l-0.7-1.4l-0.8,3.6l3.2,3.8c0.1,0.1,0.1,0.3,0.2,0.4l0.9,4.6
	c0,0.1,0,0.2,0,0.2c0,0.7-0.6,1.2-1.3,1.1c-0.6,0-1-0.5-1.1-1l-0.8-4.3l-2.6-2.9l-0.6,2.8c0,0.1-0.2,0.4-0.2,0.5l-2.5,4.3
	c-0.2,0.4-0.7,0.6-1.2,0.6c-0.7,0-1.2-0.6-1.1-1.3c0-0.2,0.1-0.4,0.2-0.5l2.3-3.9l2-8.7l-1.3,1L11,11.7c-0.1,0.4-0.5,0.7-0.9,0.7
	c-0.5,0-0.8-0.4-0.8-0.9c0,0,0-0.1,0-0.1l0.8-3.6c0-0.2,0.1-0.3,0.3-0.4L14.1,4.4z"/>
<rect x="5" y="26" width="2" height="4"/>
<rect x="23" y="26" width="2" height="4"/>
<rect x="1" y="23" width="3" height="2"/>
<rect x="6" y="23" width="3" height="2"/>
<rect x="11" y="23" width="3" height="2"/>
<rect x="16" y="23" width="3" height="2"/>
<rect x="21" y="23" width="3" height="2"/>
<rect x="26" y="23" width="3" height="2"/>
</svg>
