<?xml version="1.0" encoding="utf-8"?>
<!-- Generator: Adobe Illustrator 22.1.0, SVG Export Plug-In . SVG Version: 6.00 Build 0)  -->
<svg version="1.1" id="Layer_1" xmlns="http://www.w3.org/2000/svg" xmlns:xlink="http://www.w3.org/1999/xlink" x="0px" y="0px"
	 width="22px" height="22px" viewBox="0 0 22 22" enable-background="new 0 0 22 22" xml:space="preserve">
<path fill="#FFFFFF" d="M11.5,2.7c0.7,0.1,1.4-0.5,1.4-1.2C13,0.7,12.4,0.1,11.7,0c-0.7-0.1-1.4,0.5-1.4,1.2C10.2,2,10.7,2.6,11.5,2.7z"/>
<path fill="#FFFFFF" d="M10.3,3.2c0.3-0.2,0.6-0.3,0.9-0.3c0.5,0,0.8,0.3,1.1,0.7l1.3,2.7l1.8,1.3c0.2,0.1,0.3,0.3,0.2,0.5c0,0.3-0.3,0.6-0.6,0.6
	c-0.1,0-0.2,0-0.3-0.1l-2-1.4c-0.1-0.1-0.1-0.1-0.2-0.2l-0.5-1l-0.6,2.7l2.4,2.8c0.1,0.1,0.1,0.2,0.1,0.3l0.6,3.4c0,0.1,0,0.1,0,0.2
	c0,0.5-0.5,0.9-1,0.8c-0.4,0-0.7-0.3-0.8-0.7l-0.6-3.2l-1.9-2.1l-0.4,2.1c0,0.1-0.1,0.3-0.2,0.4l-1.9,3.1c-0.2,0.3-0.5,0.5-0.8,0.4
	c-0.5,0-0.9-0.5-0.8-1c0-0.1,0.1-0.3,0.1-0.4l1.7-2.9l1.4-6.4L8.6,6.3L8.1,8.6C8,8.9,7.7,9.1,7.4,9.1C7.1,9,6.8,8.8,6.9,8.4
	c0,0,0-0.1,0-0.1l0.6-2.6c0-0.1,0.1-0.2,0.2-0.3L10.3,3.2z"/>
<rect fill="#FFFFFF" y="17" width="4" height="2"/>
<rect fill="#FFFFFF" x="6" y="17" width="4" height="2"/>
<rect fill="#FFFFFF" x="12" y="17" width="4" height="2"/>
<rect fill="#FFFFFF" x="18" y="17" width="4" height="2"/>
<rect fill="#FFFFFF" x="4" y="19" width="2" height="3"/>
<rect fill="#FFFFFF" x="16" y="19" width="2" height="3"/>
</svg>
