<?xml version="1.0" encoding="utf-8"?>
<!-- Generator: Adobe Illustrator 22.1.0, SVG Export Plug-In . SVG Version: 6.00 Build 0)  -->
<svg version="1.1" id="Layer_1" xmlns="http://www.w3.org/2000/svg" xmlns:xlink="http://www.w3.org/1999/xlink" x="0px" y="0px"
	 width="14px" height="14px" viewBox="0 0 14 14" enable-background="new 0 0 14 14" xml:space="preserve">
<path d="M5,7.9c-0.3,0-0.6-0.2-0.7-0.6c0-0.3,0.2-0.6,0.6-0.6c0.3,0,0.6,0.2,0.6,0.6C5.5,7.6,5.3,7.9,5,7.9z"/>
<path d="M5.5,8.2C5.4,8.1,5.2,8,5.1,8c-0.2,0-0.4,0.1-0.5,0.3L4,9.6l-0.8,0.6C3.1,10.2,3,10.3,3,10.4c0,0.2,0.1,0.3,0.3,0.3
	c0,0,0.1,0,0.1,0l0.9-0.6c0,0,0.1,0,0.1-0.1l0.2-0.5l0.3,1.2l-1.1,1.3c0,0,0,0.1,0,0.1l-0.3,1.5c0,0,0,0.1,0,0.1
	c0,0.2,0.2,0.4,0.4,0.4c0.2,0,0.3-0.2,0.4-0.3l0.3-1.4l0.9-1l0.2,0.9c0,0,0.1,0.1,0.1,0.2l0.8,1.4C6.7,13.9,6.8,14,7,14
	c0.2,0,0.4-0.2,0.4-0.4c0-0.1,0-0.1-0.1-0.2l-0.8-1.3L5.9,9.2l0.4,0.3l0.2,1c0,0.1,0.1,0.2,0.3,0.2c0.1,0,0.3-0.1,0.3-0.3
	c0,0,0,0,0,0L6.8,9.3c0-0.1,0-0.1-0.1-0.1L5.5,8.2z"/>
<path fill-rule="evenodd" clip-rule="evenodd" d="M2.2,6.5C1.9,7,1.9,7.2,1.7,7.5C1.4,7.9,1.3,8.5,1.1,8.9c0.1-0.2,0.2-1.5,0.3-1.8
	C1.4,6.9,1.7,7.2,2.2,6.5z"/>
<path fill-rule="evenodd" clip-rule="evenodd" d="M3,5.6C2.7,5.7,2.4,4.9,2.5,5.1c0,0.2,0.6,1.6,0.7,1.8C3.2,6.8,3,6.2,3,5.6z"/>
<path fill-rule="evenodd" clip-rule="evenodd" d="M1.7,8.4C1.7,8.7,1.4,9.1,1.4,9.3c0,0.2,0.3,1.1,0.4,1.4C1.8,10.5,1.8,9,1.7,8.4z"
	/>
<path d="M12.9,0c-1.4,0.9-1.6,0.3-2.4,0.8C10,1.1,9.4,1.2,8.9,1.3c-1,0.1-0.7,0.6-1.8,0.6C6.1,2,5.8,1.8,4.7,2.5
	C4,3,4.1,3.1,3.2,3.2C2,3.3,1.2,3.5,1.3,4.8c0,0.4,0.2,0.7,0.1,1.6C1.3,6.9,1.8,6.8,1.9,5.9C2,5,2,4.9,2.4,4.8
	c0.3,0,0.6,0.6,0.7,0.3c0.2-0.5,0.8-0.5,1.2-0.4c0.4,0.1,0.4-0.4,1-0.5L10,7.8V14h2.8C12.9,14,13,0,12.9,0z M10,6.3L6.7,3.8L10,2.6
	V6.3z"/>
</svg>
