<?xml version="1.0" encoding="utf-8"?>
<!-- Generator: Adobe Illustrator 22.1.0, SVG Export Plug-In . SVG Version: 6.00 Build 0)  -->
<svg version="1.1" id="Layer_1" xmlns="http://www.w3.org/2000/svg" xmlns:xlink="http://www.w3.org/1999/xlink" x="0px" y="0px"
	 width="22px" height="22px" viewBox="0 0 22 22" enable-background="new 0 0 22 22" xml:space="preserve">
<path fill="#FFFFFF" d="M7.8,12.5c-0.5,0-1-0.3-1-0.9c0-0.5,0.4-1,0.9-1c0.5,0,1,0.3,1,0.9C8.7,12,8.3,12.4,7.8,12.5z"/>
<path fill="#FFFFFF" d="M8.6,12.8c-0.2-0.1-0.4-0.2-0.7-0.2c-0.3,0-0.6,0.2-0.8,0.5l-1,1.9l-1.3,0.9c-0.1,0.1-0.2,0.2-0.2,0.4
	c0,0.2,0.2,0.4,0.5,0.4c0.1,0,0.1,0,0.2-0.1l1.4-1c0,0,0.1-0.1,0.1-0.1l0.4-0.7l0.4,1.9l-1.7,2C6,18.7,6,18.8,6,18.9l-0.5,2.4
	c0,0,0,0.1,0,0.1c0,0.4,0.3,0.6,0.7,0.6c0.3,0,0.5-0.2,0.6-0.5l0.4-2.2l1.4-1.5l0.3,1.5c0,0.1,0.1,0.2,0.1,0.3l1.3,2.2
	c0.1,0.2,0.4,0.3,0.6,0.3c0.4,0,0.6-0.3,0.6-0.7c0-0.1,0-0.2-0.1-0.3l-1.2-2l-1-4.5L9.9,15l0.4,1.6c0,0.2,0.2,0.4,0.5,0.4
	c0.2,0,0.4-0.2,0.4-0.5c0,0,0,0,0-0.1l-0.4-1.9c0-0.1-0.1-0.2-0.1-0.2L8.6,12.8z"/>
<path fill="#FFFFFF" fill-rule="evenodd" clip-rule="evenodd" d="M3.4,10.2c-0.3,0.9-0.5,1.1-0.8,1.7c-0.3,0.6-0.6,1.5-1,2.1
	c0.1-0.4,0.4-2.4,0.5-2.8C2.2,10.9,2.6,11.3,3.4,10.2z"/>
<path fill="#FFFFFF" fill-rule="evenodd" clip-rule="evenodd" d="M4.7,8.8C4.3,8.9,3.8,7.7,3.9,8.1c0,0.4,0.9,2.4,1.1,2.8C5,10.7,4.7,9.7,4.7,8.8z"
	/>
<path fill="#FFFFFF" fill-rule="evenodd" clip-rule="evenodd" d="M2.7,13.2c-0.1,0.5-0.5,1-0.5,1.4c0,0.3,0.5,1.7,0.6,2.1
	C2.8,16.5,2.8,14.2,2.7,13.2z"/>
<path fill="#FFFFFF" d="M20.3,0c-2.2,1.3-2.5,0.4-3.8,1.3C15.8,1.7,14.8,1.9,14,2c-1.5,0.2-1.1,0.9-2.9,1C9.6,3.1,9.1,2.8,7.4,3.9
	C6.2,4.6,6.5,4.9,5.1,5c-1.9,0.2-3.2,0.5-3,2.5c0.1,0.6,0.3,1.1,0.1,2.5C2.1,10.9,2.9,10.6,3,9.2c0.1-1.3,0.2-1.6,0.8-1.7
	c0.5,0,1,1,1,0.5C5.1,7.3,6,7.3,6.6,7.4c0.6,0.2,0.7-0.6,1.5-0.8l7.6,5.6v9.6h4.5C20.2,21.9,20.4,0,20.3,0z M15.8,9.9L10.5,6
	l5.3-1.8V9.9z"/>
</svg>
