<?xml version="1.0" encoding="utf-8"?>
<!-- Generator: Adobe Illustrator 22.1.0, SVG Export Plug-In . SVG Version: 6.00 Build 0)  -->
<svg version="1.1" id="Layer_1" xmlns="http://www.w3.org/2000/svg" xmlns:xlink="http://www.w3.org/1999/xlink" x="0px" y="0px"
	 width="30px" height="30px" viewBox="0 0 30 30" enable-background="new 0 0 30 30" xml:space="preserve">
<path fill="#FFFFFF" d="M10.6,17c-0.7,0.1-1.3-0.5-1.4-1.2c0-0.7,0.5-1.3,1.2-1.4c0.7-0.1,1.3,0.5,1.4,1.2C11.9,16.3,11.4,16.9,10.6,17z"/>
<path fill="#FFFFFF" d="M11.7,17.5c-0.3-0.2-0.6-0.3-0.9-0.3c-0.4,0-0.8,0.3-1,0.6l-1.3,2.6l-1.8,1.2c-0.2,0.1-0.2,0.3-0.2,0.5
	c0,0.3,0.3,0.6,0.6,0.5c0.1,0,0.2,0,0.3-0.1l1.9-1.3c0.1,0,0.1-0.1,0.1-0.2l0.5-1l0.6,2.6l-2.3,2.7c0,0.1-0.1,0.2-0.1,0.3L7.5,29
	c0,0.1,0,0.1,0,0.2C7.6,29.7,8,30,8.5,30c0.4,0,0.7-0.3,0.8-0.7l0.6-3.1l1.9-2l0.4,2c0,0.1,0.1,0.3,0.2,0.4l1.8,3
	c0.2,0.3,0.5,0.5,0.8,0.4c0.5,0,0.8-0.5,0.8-0.9c0-0.1-0.1-0.3-0.1-0.4l-1.7-2.8l-1.4-6.1l0.9,0.7l0.5,2.2c0.1,0.3,0.3,0.5,0.6,0.5
	c0.3,0,0.6-0.3,0.5-0.6c0,0,0-0.1,0-0.1l-0.6-2.6c0-0.1-0.1-0.2-0.2-0.3L11.7,17.5z"/>
<path fill="#FFFFFF" fill-rule="evenodd" clip-rule="evenodd" d="M4.6,13.9c-0.5,1.2-0.7,1.5-1.1,2.3c-0.5,0.9-0.8,2-1.3,2.8
	c0.1-0.5,0.5-3.2,0.6-3.8C3,14.9,3.5,15.4,4.6,13.9z"/>
<path fill="#FFFFFF" fill-rule="evenodd" clip-rule="evenodd" d="M6.4,12c-0.6,0.1-1.2-1.5-1.2-1c0.1,0.5,1.3,3.3,1.5,3.9C6.8,14.5,6.4,13.2,6.4,12
	z"/>
<path fill="#FFFFFF" fill-rule="evenodd" clip-rule="evenodd" d="M3.7,18.1c-0.1,0.6-0.7,1.4-0.7,1.8c0.1,0.4,0.7,2.3,0.8,2.9
	C3.8,22.5,3.8,19.4,3.7,18.1z"/>
<path fill="#FFFFFF" d="M27.7,0c-2.9,1.8-3.4,0.6-5.2,1.7c-1,0.6-2.3,0.8-3.5,1c-2,0.3-1.4,1.2-3.9,1.4c-2.1,0.1-2.8-0.3-5,1.2
	C8.5,6.3,8.8,6.6,6.9,6.9c-2.6,0.2-4.3,0.6-4.1,3.5c0.1,0.8,0.4,1.5,0.2,3.4c-0.2,1.2,0.9,0.8,1-1.1c0.2-1.8,0.3-2.1,1.1-2.3
	c0.7-0.1,1.3,1.4,1.4,0.7c0.4-1.1,1.7-1.1,2.5-0.9c0.8,0.2,1-0.8,2-1.1l10.4,7.7v13.1h6.1C27.6,29.9,27.8,0,27.7,0z M21.5,13.5
	l-7.2-5.4l7.2-2.5V13.5z"/>
</svg>
