<?xml version="1.0" encoding="utf-8"?>
<!-- Generator: Adobe Illustrator 22.1.0, SVG Export Plug-In . SVG Version: 6.00 Build 0)  -->
<svg version="1.1" id="Layer_1" xmlns="http://www.w3.org/2000/svg" xmlns:xlink="http://www.w3.org/1999/xlink" x="0px" y="0px"
	 width="22px" height="22px" viewBox="0 0 22 22" enable-background="new 0 0 22 22" xml:space="preserve">
<path d="M13.1,19.5c0.2,0,0.3,0,0.5,0c0.5,0,1,0.1,1.4,0.3c0.4,0.2,0.9,0.3,1.3,0.3c0.5,0,0.9-0.1,1.3-0.3c0.4-0.2,0.9-0.3,1.4-0.3
	c0.5,0,1,0.1,1.4,0.3c0.4,0.2,0.9,0.3,1.3,0.3v2c-0.5,0-0.9-0.1-1.3-0.3c-0.4-0.2-0.9-0.3-1.4-0.3c-0.5,0-1,0.1-1.4,0.3
	c-0.4,0.2-0.9,0.3-1.3,0.3c-0.5,0-0.9-0.1-1.3-0.3c-0.4-0.2-0.9-0.3-1.4-0.3c-0.5,0-1,0.1-1.4,0.3c-0.4,0.2-0.9,0.3-1.3,0.3
	s-0.9-0.1-1.3-0.3c-0.4-0.2-0.9-0.3-1.4-0.3c-0.5,0-1,0.1-1.4,0.3C6.4,21.9,5.9,22,5.5,22c-0.5,0-0.9-0.1-1.3-0.3
	c-0.4-0.2-0.9-0.3-1.4-0.3c-0.5,0-1,0.1-1.4,0.3C1,21.9,0.6,22,0.1,22v-2c0.5,0,0.9-0.1,1.3-0.3c0.4-0.2,0.9-0.3,1.4-0.3
	c0.5,0,1,0.1,1.4,0.3C4.6,19.9,5,20,5.5,20c0.5,0,0.9-0.1,1.3-0.3c0.2-0.1,0.5-0.2,0.7-0.2l12.6-2.2c0.4-0.1,1-0.4,1.2-0.9
	c0-0.1,0.2-0.1,0.3-0.1c0.2,0,0.4,0.2,0.4,0.4c0,0.3-0.2,1.2-1.6,1.5L13.1,19.5z"/>
<path d="M2.2,3.6c1,0,1.8-0.8,1.8-1.8C4,0.8,3.2,0,2.2,0c-1,0-1.8,0.8-1.8,1.8C0.4,2.8,1.2,3.6,2.2,3.6z"/>
<path d="M7.5,18.3c0.1,0.4,0.6,0.8,1.1,0.8l0,0c0.6,0,1.2-0.5,1.2-1.2l0-0.2l-1.4-6c-0.1-0.4-0.5-0.7-0.8-0.9l0,0l-2-1.2l-0.9-4
	l5.7,0c0.5,0,0.8-0.4,0.8-0.8c0-0.5-0.4-0.8-0.8-0.8H2C1.1,4,0.7,4.6,0.8,5.1L2,10.4c0.1,0.5,0.4,0.9,0.9,1.1l0,0l3.4,2L7.5,18.3z"
	/>
<rect x="11.6" y="5.1" width="10.1" height="0.6"/>
</svg>
