<?xml version="1.0" encoding="utf-8"?>
<!-- Generator: Adobe Illustrator 22.0.1, SVG Export Plug-In . SVG Version: 6.00 Build 0)  -->
<svg version="1.1" id="Layer_1" xmlns="http://www.w3.org/2000/svg" xmlns:xlink="http://www.w3.org/1999/xlink" x="0px" y="0px"
	 width="30px" height="30px" viewBox="0 0 30 30" enable-background="new 0 0 30 30" xml:space="preserve">
<path fill-rule="evenodd" clip-rule="evenodd" d="M5.1,4.1c0,0,0.2,0,0.3,0C5.5,4.1,9.1,3.2,10,3c0.2,0.6,0.5,1.1,1.1,1.5v1.8h2.5
	V4.4C14,4,14.3,3.6,14.5,3c1.1,0.3,4.2,1,4.3,1.1c0.1,0,0.3,0,0.3,0c1,0,1.8-0.8,1.8-1.8c0-1-0.8-1.8-1.8-1.8c-0.1,0-0.3,0-0.3,0
	l-4.4,1C14.1,0.6,13.3,0,12.2,0c-1,0-1.9,0.7-2.2,1.6L5.3,0.5c0,0-0.2,0-0.3,0c-1,0-1.8,0.8-1.8,1.8S4.1,4.1,5.1,4.1z"/>
<path fill-rule="evenodd" clip-rule="evenodd" d="M24,20.6c0,0-2.8,5.4-2.8,5.6c-0.1,0.3-0.2,0.6-0.2,1c0,1.6,1.5,2.8,3,2.8
	c1.6,0,3-1.3,3-2.8c0-0.6-0.2-1.1-0.2-1.1L24,20.6z"/>
<path fill-rule="evenodd" clip-rule="evenodd" d="M27,18c0-0.9-0.1-2.3-0.1-3.3c0-4.4-4.3-4.3-4.3-4.3H18V8.8l-3-1.5h-5L7,8.8v1.6H2
	V16h19v2h-1v2h8v-2H27z"/>
</svg>
