<?xml version="1.0" encoding="utf-8"?>
<!-- Generator: Adobe Illustrator 25.4.1, SVG Export Plug-In . SVG Version: 6.00 Build 0)  -->
<svg version="1.1" id="Layer_1" xmlns="http://www.w3.org/2000/svg" xmlns:xlink="http://www.w3.org/1999/xlink" x="0px" y="0px"
	 width="14px" height="14px" viewBox="0 0 14 14" enable-background="new 0 0 14 14" xml:space="preserve">
<path fill="#231F20" d="M13.6,12.9c-0.3,0-0.6-0.1-0.8-0.2c-0.3-0.1-0.6-0.5-0.9-0.5c-0.3,0-0.6,0.4-0.9,0.5
	c-0.2,0.1-0.5,0.2-0.8,0.2s-0.6-0.1-0.8-0.2c-0.3-0.1-0.6-0.5-0.9-0.5c-0.3,0-0.6,0.4-0.9,0.5c-0.2,0.1-0.5,0.2-0.8,0.2
	S6.2,12.8,6,12.7c-0.3-0.1-0.6-0.5-0.9-0.5s-0.6,0.4-0.9,0.5c-0.2,0.1-0.5,0.2-0.8,0.2s-0.6-0.1-0.8-0.2c-0.3-0.1-0.6-0.5-0.9-0.5
	s-0.6,0.4-0.9,0.5c-0.2,0.1-0.5,0.2-0.8,0.2v-1.2c0.3,0,0.6-0.1,0.8-0.2C1.1,11.4,1.4,11,1.7,11s0.6,0.4,0.9,0.5s0.5,0.2,0.8,0.2
	s0.6-0.1,0.8-0.2C4.5,11.4,4.8,11,5.1,11s0.6,0.4,0.9,0.5s0.5,0.2,0.8,0.2s0.6-0.1,0.8-0.2C7.9,11.4,8.2,11,8.5,11s0.6,0.4,0.9,0.5
	c0.3,0.1,0.5,0.2,0.8,0.2s0.6-0.1,0.8-0.2c0.3-0.1,0.6-0.5,0.9-0.5c0.3,0,0.6,0.4,0.9,0.5c0.3,0.1,0.5,0.2,0.8,0.2
	C13.6,11.7,13.6,12.9,13.6,12.9z"/>
<path fill="#231F20" d="M6,10.5c0.1,0,0.2,0.1,0.3,0.1l0,0c-0.6-0.5-0.7-1.3-0.8-2c0-0.2-0.1-0.3-0.1-0.5c-0.1-0.2-0.1-1-0.2-1.8
	c0-1.1-0.1-2.3-0.2-3C4.9,2.8,4.6,2.4,4.3,2h0.9C6.1,2,6.8,2.6,7,3.5c0.1,0.6,0.2,1.8,0.2,2.8C7.3,7.4,7.3,8,7.4,8.4
	c0,0.1,0.1,0.3,0.1,0.4c0.1,0.4,0.2,1,0.4,1.5C8.1,10.2,8.3,10,8.5,10s0.3,0.1,0.5,0.2C8.7,9.8,8.5,9.1,8.5,8.6
	c0-0.2-0.1-0.3-0.1-0.5c-0.1-0.2-0.1-1-0.2-1.8c0-1.1-0.1-2.3-0.2-3C7.9,2.8,7.6,2.4,7.3,2h0.9C9.1,2,9.8,2.6,10,3.5
	c0.1,0.6,0.2,1.8,0.2,2.8c0.1,1.1,0.1,1.7,0.2,2.1c0,0.1,0.1,0.3,0.1,0.4c0.1,0.5,0.2,1.1,0.5,1.7l0,0c0.3-0.1,0.6-0.5,0.9-0.5
	c-0.2-0.4-0.3-1-0.4-1.4c0-0.2-0.1-0.3-0.1-0.5c-0.1-0.3-0.1-1.1-0.2-1.9c0-1-0.1-2.2-0.2-2.9C10.7,2,9.6,1,8.2,1h-3h-3H0v1h2.2
	C3.1,2,3.8,2.6,4,3.5c0.1,0.6,0.2,1.8,0.2,2.8C4.3,7.4,4.3,8,4.4,8.4c0,0.1,0.1,0.3,0.1,0.4c0.1,0.4,0.2,0.9,0.3,1.3
	C4.9,10.1,5,10,5.1,10C5.4,10,5.7,10.4,6,10.5z"/>
</svg>
