<?xml version="1.0" encoding="utf-8"?>
<!-- Generator: Adobe Illustrator 22.1.0, SVG Export Plug-In . SVG Version: 6.00 Build 0)  -->
<svg version="1.1" id="Layer_1" xmlns="http://www.w3.org/2000/svg" xmlns:xlink="http://www.w3.org/1999/xlink" x="0px" y="0px"
	 width="14px" height="14px" viewBox="0 0 14 14" enable-background="new 0 0 14 14" xml:space="preserve">
<path fill="#FFFFFF" d="M8.3,12.4c0.1,0,0.2,0,0.3,0c0.3,0,0.6,0.1,0.9,0.2c0.3,0.1,0.5,0.2,0.8,0.2c0.3,0,0.6-0.1,0.8-0.2c0.3-0.1,0.6-0.2,0.9-0.2
	c0.3,0,0.6,0.1,0.9,0.2c0.3,0.1,0.5,0.2,0.8,0.2V14c-0.3,0-0.6-0.1-0.8-0.2c-0.3-0.1-0.6-0.2-0.9-0.2c-0.3,0-0.6,0.1-0.9,0.2
	c-0.3,0.1-0.5,0.2-0.8,0.2c-0.3,0-0.6-0.1-0.8-0.2c-0.3-0.1-0.6-0.2-0.9-0.2c-0.3,0-0.6,0.1-0.9,0.2C7.5,13.9,7.2,14,6.9,14
	c-0.3,0-0.6-0.1-0.8-0.2c-0.3-0.1-0.6-0.2-0.9-0.2c-0.3,0-0.6,0.1-0.9,0.2C4.1,13.9,3.8,14,3.5,14c-0.3,0-0.6-0.1-0.8-0.2
	c-0.3-0.1-0.6-0.2-0.9-0.2c-0.3,0-0.6,0.1-0.9,0.2C0.6,13.9,0.4,14,0.1,14v-1.3c0.3,0,0.6-0.1,0.8-0.2c0.3-0.1,0.6-0.2,0.9-0.2
	c0.3,0,0.6,0.1,0.9,0.2c0.3,0.1,0.5,0.2,0.8,0.2c0.3,0,0.6-0.1,0.8-0.2c0.2-0.1,0.3-0.1,0.5-0.2l8-1.4c0.3-0.1,0.6-0.2,0.7-0.6
	c0-0.1,0.1-0.1,0.2-0.1c0.1,0,0.2,0.1,0.2,0.2c0,0.2-0.2,0.8-1,1L8.3,12.4z"/>
<path fill="#FFFFFF" d="M1.4,2.3c0.6,0,1.2-0.5,1.2-1.2C2.5,0.5,2,0,1.4,0C0.7,0,0.2,0.5,0.2,1.2C0.2,1.8,0.7,2.3,1.4,2.3z"/>
<path fill="#FFFFFF" d="M4.8,11.7c0.1,0.3,0.4,0.5,0.7,0.5l0,0c0.4,0,0.7-0.3,0.7-0.7l0-0.1L5.3,7.5C5.2,7.3,5,7.1,4.7,7l0,0L3.5,6.2L2.9,3.6l3.6,0
	C6.8,3.6,7,3.4,7,3.1S6.8,2.6,6.5,2.6H1.2c-0.5,0-0.8,0.4-0.7,0.7l0.7,3.4C1.3,7,1.5,7.2,1.8,7.4l0,0L4,8.6L4.8,11.7z"/>
<rect fill="#FFFFFF" x="7.4" y="3.2" width="6.4" height="0.4"/>
</svg>
