<?xml version="1.0" encoding="utf-8"?>
<!-- Generator: Adobe Illustrator 21.1.0, SVG Export Plug-In . SVG Version: 6.00 Build 0)  -->
<svg version="1.1" id="Layer_1" xmlns="http://www.w3.org/2000/svg" xmlns:xlink="http://www.w3.org/1999/xlink" x="0px" y="0px"
	 width="22px" height="22px" viewBox="0 0 22 22" enable-background="new 0 0 22 22" xml:space="preserve">
<path fill="#FFFFFF" d="M20.7,11.8C20.2,7,19.6,1,14,1h-2.8C11.1,1,11,1,11,1H8.2c0,0-0.1,0-0.2,0H5.2c0,0-0.1,0-0.2,0H2.2c0,0-0.1,0-0.2,0H0v1h1
	l0,0h1.5c4.3,0.3,4.8,5.4,5.2,9.9c0.2,1.8,0.4,3.6,0.8,5c0.2-0.1,0.5-0.3,0.8-0.6c0,0,0,0,0.1-0.1C9,15,8.9,13.5,8.7,11.8
	C8.3,8.2,7.9,4,5.4,2h0.1c4.3,0.3,4.8,5.4,5.2,9.9c0.1,1.1,0.2,2.2,0.4,3.2C11.4,15,11.7,15,12,15h0.1c-0.2-0.9-0.3-2-0.4-3.2
	C11.3,8.2,10.9,4,8.4,2h0.1c4.3,0.3,4.8,5.4,5.2,9.9c0.1,1.4,0.3,2.8,0.5,3.9c0.2,0.2,0.3,0.3,0.5,0.4c0.4,0.4,0.6,0.6,0.9,0.7
	c-0.5-1.1-0.7-3-0.9-5.1c-0.4-3.6-0.8-7.9-3.3-9.8c4.4,0.3,4.9,5.4,5.3,9.9c0.2,1.6,0.3,3.1,0.6,4.3c0.2-0.2,0.5-0.5,0.8-0.7
	c-0.2-1-0.4-2.3-0.5-3.7c-0.4-3.6-0.8-7.9-3.3-9.8c4.4,0.3,4.9,5.4,5.3,9.9C19.7,13,19.8,14,20,15c0.4,0,0.7,0.1,1,0.2
	C20.9,14.1,20.8,13,20.7,11.8z"/>
<path fill="#FFFFFF" d="M20,16c-2,0-2,2-4,2s-2-2-4-2s-2,2-4,2s-2-2-4-2s-4,2-4,2v2c0,0,2-2,4-2s2,2,4,2s2-2,4-2s2,2,4,2s2-2,4-2
	c0.7,0,1.4,0.2,2,0.6v-2C21.4,16.2,20.7,16,20,16z"/>
</svg>
