<?xml version="1.0" encoding="utf-8"?>
<!-- Generator: Adobe Illustrator 22.0.1, SVG Export Plug-In . SVG Version: 6.00 Build 0)  -->
<svg version="1.1" id="Layer_1" xmlns="http://www.w3.org/2000/svg" xmlns:xlink="http://www.w3.org/1999/xlink" x="0px" y="0px"
	 width="30px" height="30px" viewBox="0 0 30 30" enable-background="new 0 0 30 30" xml:space="preserve">
<path fill="#FFFFFF" d="M3.1,18.4l-1.9-1.3c0,0,8-2.4,12.9-2.4c3.4,0,6.3-0.9,5.2-2.9c-1.1-2-1.1-7.4,3.4-7.2c0,0,3.1,0,3.4,2.9
	c0,0-0.2,1.1,3.8,1.9c0,0,0.7,0.4-0.6,1c0,0-6.2-0.4-5.6,1.1c0,0-0.1,1.3,1.9,2.1c3.5,1.4,7.1,12.7-7.7,11.6c0,0-5.8-0.2-10.4-2.9
	c0,0-5.3-2.4-7.4-3L3.1,18.4z"/>
</svg>
