<?xml version="1.0" encoding="utf-8"?>
<!-- Generator: Adobe Illustrator 21.1.0, SVG Export Plug-In . SVG Version: 6.00 Build 0)  -->
<svg version="1.1" id="Layer_1" xmlns="http://www.w3.org/2000/svg" xmlns:xlink="http://www.w3.org/1999/xlink" x="0px" y="0px"
	 width="14px" height="14px" viewBox="0 0 14 14" enable-background="new 0 0 14 14" xml:space="preserve">
<path fill="#231F20" d="M11.8,10H12V9h-0.4c-0.1-0.6-0.1-1.3-0.2-2.1c0-1.1-0.1-2.3-0.4-3.4V3h-0.2C10.4,1.8,9.6,1,8,1H0v1h2c0.4,0,0.7,0.1,1,0.3V3
	h0.7C3.8,3.2,3.9,3.4,4,3.7V9h0.6c0,0.3,0.1,0.5,0.1,0.8C4.9,10,5,10.1,5.2,10.3S5.8,10.9,6,11c0.1,0,0.2-0.1,0.3-0.2
	c-0.2-0.2-0.4-0.4-0.5-0.8H6V9H5.6C5.5,8.4,5.4,7.7,5.4,6.9c0-1.1-0.1-2.3-0.4-3.4V3H4.8C4.7,2.6,4.5,2.3,4.3,2H5
	c0.4,0,0.7,0.1,1,0.3V3h0.7C6.8,3.2,6.9,3.4,7,3.7V9h0.5c0,0.2,0,0.3,0.1,0.5C7.9,9.3,8.2,9.1,8.5,9c0-0.5-0.1-1.3-0.1-2.1
	c0-1.1-0.1-2.3-0.4-3.4V3H7.8C7.7,2.6,7.5,2.3,7.3,2H8c0.4,0,0.7,0.1,1,0.3V3h0.7C9.8,3.2,9.9,3.4,10,3.7V9h0.6
	c0,0.3,0.1,0.5,0.1,0.8c0.2,0.2,0.3,0.3,0.5,0.5s0.6,0.6,0.8,0.7c0.1,0,0.2-0.1,0.4-0.2C12.1,10.6,11.9,10.4,11.8,10z"/>
<path fill="#231F20" d="M13.9,11H13v0.6c-0.4,0.2-0.7,0.4-1,0.4c-0.3,0-0.7-0.2-1-0.5V11h-0.5c-0.2-0.2-0.3-0.3-0.5-0.5V10H8v0.5
	c-0.2,0.1-0.3,0.3-0.5,0.5H7v0.5C6.7,11.8,6.3,12,6,12s-0.7-0.2-1-0.5V11H4.5c-0.2-0.2-0.3-0.3-0.5-0.5V10H2v0.4
	c-0.3,0.2-0.6,0.4-0.9,0.6H1v0.1C0.4,11.6,0,12,0,12v1h1v-0.9c0,0,0.1-0.1,0.1-0.1H2v-0.6C2.4,11.2,2.7,11,3,11c0.3,0,0.7,0.2,1,0.5
	V12h0.5c0.2,0.2,0.3,0.3,0.5,0.5V13h1c0.5,0,1-0.5,1.5-1H8v-0.5C8.3,11.2,8.7,11,9,11s0.7,0.2,1,0.5V12h0.5c0.2,0.2,0.3,0.3,0.5,0.5
	V13h2v-0.4c0.3-0.2,0.6-0.4,0.9-0.6H14v-0.1V11v-0.1C14,10.9,13.9,11,13.9,11z"/>
</svg>
