<?xml version="1.0" encoding="utf-8"?>
<!-- Generator: Adobe Illustrator 22.0.1, SVG Export Plug-In . SVG Version: 6.00 Build 0)  -->
<svg version="1.1" id="Layer_1" xmlns="http://www.w3.org/2000/svg" xmlns:xlink="http://www.w3.org/1999/xlink" x="0px" y="0px"
	 width="14px" height="14px" viewBox="0 0 14 14" enable-background="new 0 0 14 14" xml:space="preserve">
<path fill-rule="evenodd" clip-rule="evenodd" d="M2.2,1.9c0,0,0.1,0,0.2,0c0,0,1.7-0.4,2.1-0.5C4.6,1.7,4.7,1.9,5,2.1v0.8h1.2V2
	c0.2-0.1,0.4-0.4,0.5-0.6c0.5,0.1,2,0.5,2,0.5c0.1,0,0.2,0,0.2,0c0.5,0,0.8-0.4,0.8-0.8c0-0.5-0.4-0.8-0.8-0.8c-0.1,0-0.1,0-0.1,0
	L6.6,0.7C6.4,0.3,6,0,5.6,0c-0.5,0-0.9,0.3-1,0.7L2.3,0.2c0,0-0.1,0-0.1,0c-0.5,0-0.8,0.4-0.8,0.8S1.7,1.9,2.2,1.9z"/>
<path fill-rule="evenodd" clip-rule="evenodd" d="M11.5,9.6c0,0-1.4,2.5-1.4,2.6c0,0.1-0.1,0.3-0.1,0.5c0,0.7,0.8,1.3,1.5,1.3
	c0.7,0,1.5-0.6,1.5-1.3c0-0.3-0.1-0.5-0.1-0.5L11.5,9.6z"/>
<path fill-rule="evenodd" clip-rule="evenodd" d="M12.6,8c0-0.4,0-0.7,0-1.2c0-1.8-2-1.8-2-1.8H8V4L6.5,3.4h-2L3,4v1H1l0,3h9v1h3V8
	H12.6z"/>
</svg>
