<?xml version="1.0" encoding="utf-8"?>
<!-- Generator: Adobe Illustrator 22.0.1, SVG Export Plug-In . SVG Version: 6.00 Build 0)  -->
<svg version="1.1" id="Layer_1" xmlns="http://www.w3.org/2000/svg" xmlns:xlink="http://www.w3.org/1999/xlink" x="0px" y="0px"
	 width="14px" height="14px" viewBox="0 0 14 14" enable-background="new 0 0 14 14" xml:space="preserve">
<path d="M1.4,8.6L0.5,8c0,0,3.7-1.1,6-1.1c1.6,0,2.9-0.4,2.4-1.4C8.4,4.6,8.4,2,10.5,2.1c0,0,1.4,0,1.6,1.4c0,0-0.1,0.5,1.8,0.9
	c0,0,0.3,0.2-0.3,0.5c0,0-2.9-0.2-2.6,0.5c0,0-0.1,0.6,0.9,1c1.7,0.6,3.3,5.9-3.6,5.4c0,0-2.7-0.1-4.9-1.4c0,0-2.5-1.1-3.5-1.4
	L1.4,8.6z"/>
</svg>
