<?xml version="1.0" encoding="utf-8"?>
<!-- Generator: Adobe Illustrator 22.1.0, SVG Export Plug-In . SVG Version: 6.00 Build 0)  -->
<svg version="1.1" id="Layer_1" xmlns="http://www.w3.org/2000/svg" xmlns:xlink="http://www.w3.org/1999/xlink" x="0px" y="0px"
	 width="30px" height="30px" viewBox="0 0 30 30" enable-background="new 0 0 30 30" xml:space="preserve">
<path d="M17.9,26.5c0.2,0,0.4-0.1,0.6-0.1c0.7,0,1.3,0.2,1.9,0.4c0.5,0.2,1.2,0.4,1.8,0.4c0.6,0,1.3-0.1,1.8-0.4
	c0.6-0.3,1.2-0.4,1.9-0.4c0.7,0,1.3,0.2,1.9,0.4c0.5,0.2,1.2,0.4,1.8,0.4V30c-0.6,0-1.3-0.1-1.8-0.4c-0.6-0.3-1.2-0.4-1.9-0.4
	c-0.7,0-1.3,0.2-1.9,0.4c-0.5,0.2-1.2,0.4-1.8,0.4c-0.6,0-1.3-0.1-1.8-0.4c-0.6-0.3-1.2-0.4-1.9-0.4c-0.7,0-1.3,0.2-1.9,0.4
	c-0.5,0.2-1.2,0.4-1.8,0.4s-1.3-0.1-1.8-0.4c-0.6-0.3-1.2-0.4-1.9-0.4c-0.7,0-1.3,0.2-1.9,0.4C8.7,29.9,8.1,30,7.5,30
	c-0.6,0-1.3-0.1-1.8-0.4c-0.6-0.3-1.2-0.4-1.9-0.4c-0.7,0-1.3,0.2-1.9,0.4C1.4,29.9,0.8,30,0.1,30v-2.7c0.6,0,1.3-0.1,1.8-0.4
	c0.6-0.3,1.2-0.4,1.9-0.4c0.7,0,1.3,0.2,1.9,0.4c0.5,0.2,1.2,0.4,1.8,0.4c0.6,0,1.3-0.1,1.8-0.4c0.3-0.1,0.7-0.3,1-0.3l17.2-3.1
	c0.6-0.1,1.3-0.5,1.6-1.2c0.1-0.1,0.2-0.2,0.4-0.2c0.3,0,0.5,0.3,0.5,0.5c0,0.4-0.3,1.7-2.2,2.1L17.9,26.5z"/>
<path d="M3,5c1.4,0,2.5-1.1,2.5-2.5C5.5,1.1,4.3,0,3,0C1.6,0,0.5,1.1,0.5,2.5C0.5,3.8,1.6,5,3,5z"/>
<path d="M10.2,25c0.1,0.5,0.8,1.1,1.5,1.1l0,0c0.9,0,1.6-0.7,1.6-1.6l0-0.3l-1.9-8.1c-0.2-0.5-0.7-1-1.2-1.2l0,0l-2.8-1.7L6.1,7.8
	l7.8,0c0.6,0,1.2-0.5,1.2-1.2s-0.5-1.2-1.2-1.2H2.7C1.5,5.5,1,6.3,1.1,7l1.6,7.3c0.1,0.7,0.6,1.3,1.2,1.6l0,0l4.7,2.7L10.2,25z"/>
<rect x="15.8" y="6.9" width="13.8" height="0.9"/>
</svg>
