<?xml version="1.0" encoding="utf-8"?>
<!-- Generator: Adobe Illustrator 21.1.0, SVG Export Plug-In . SVG Version: 6.00 Build 0)  -->
<svg version="1.1" id="Layer_1" xmlns="http://www.w3.org/2000/svg" xmlns:xlink="http://www.w3.org/1999/xlink" x="0px" y="0px"
	 width="30px" height="30px" viewBox="0 0 30 30" enable-background="new 0 0 30 30" xml:space="preserve">
<path fill="#231F20" d="M18,22c-2,0-4,2-6,2s-4-2-6-2s-6,2-6,2v3c0,0,4-2,6-2s4,2,6,2s4-2,6-2s4,2,6,2s6-2,6-2v-3c0,0-4,2-6,2S20,22,18,22z"/>
<path fill="#231F20" d="M13.7,22.5c-1-2.2-1.7-6.6-1.7-9.5c0-3-0.8-7.4-3.2-9.9C13.9,3.9,14,12.6,14,13c0,0.1,0.1,5,1.3,8.7
	c0.6-0.3,1.2-0.5,1.9-0.6C16.5,18.7,16,15.4,16,13c0-3-0.8-7.4-3.2-9.9C17.9,3.9,18,12.6,18,13c0,0.1,0.1,4.5,1.2,8.2
	c0.8,0.2,1.6,0.6,2.3,0.9c0,0,0.1,0,0.1,0.1C20.7,19.8,20,15.8,20,13c0-3-0.8-7.4-3.2-9.9C21.9,3.9,22,12.6,22,13
	c0,0.1,0.2,6.2,1.8,10c0.1,0,0.2,0,0.2,0c0.5,0,1.1-0.1,1.8-0.4C24.8,20.4,24,16,24,13s-0.8-7.4-3.2-9.9C25.9,3.9,26,12.6,26,13
	c0,0.1,0.2,5.3,1.4,9c0.7-0.3,1.4-0.6,1.8-0.8C28.5,18.9,28,15.5,28,13c0-4.5-1.7-12-8-12h-4h-3h-1H9H8H7.4H5v0.1C4.7,1,4.3,1,4,1H1
	v2h3c5.9,0,6,9.6,6,10c0,0.1,0.2,6.2,1.8,10c0.1,0,0.2,0,0.2,0C12.5,23,13.1,22.8,13.7,22.5z"/>
</svg>
