<?xml version="1.0" encoding="utf-8"?>
<!-- Generator: Adobe Illustrator 22.0.1, SVG Export Plug-In . SVG Version: 6.00 Build 0)  -->
<svg version="1.1" id="Layer_1" xmlns="http://www.w3.org/2000/svg" xmlns:xlink="http://www.w3.org/1999/xlink" x="0px" y="0px"
	 width="22px" height="22px" viewBox="0 0 22 22" enable-background="new 0 0 22 22" xml:space="preserve">
<path fill="#FFFFFF" fill-rule="evenodd" clip-rule="evenodd" d="M3.7,3c0,0,0.2,0,0.3,0C4,3,6.7,2.3,7.3,2.2C7.4,2.6,7.7,3,8.1,3.2v1.3h1.8V3.2
	c0.3-0.2,0.6-0.6,0.7-1C11.5,2.4,13.8,3,13.8,3c0.1,0,0.3,0,0.3,0c0.7,0,1.3-0.6,1.3-1.3c0-0.7-0.6-1.3-1.3-1.3c-0.1,0-0.2,0-0.2,0
	l-3.3,0.7C10.3,0.5,9.7,0,9,0C8.2,0,7.6,0.5,7.3,1.2L3.9,0.4c0,0-0.1,0-0.2,0C3,0.4,2.4,1,2.4,1.7S3,3,3.7,3z"/>
<path fill="#FFFFFF" fill-rule="evenodd" clip-rule="evenodd" d="M18,15.1c0,0-1.9,4-1.9,4.1c0,0.2-0.1,0.5-0.1,0.7c0,1.1,0.9,2.1,2,2.1
	c1.1,0,2-0.9,2-2.1c0-0.4-0.2-0.8-0.2-0.8L18,15.1z"/>
<path fill="#FFFFFF" fill-rule="evenodd" clip-rule="evenodd" d="M20,13c0-0.6,0-1.5,0-2.2C20,8,16.6,8,16.6,8H13V6.5l-2.4-1.1H7.5L5,6.5V8H1v4h15
	v1h-1v1h6v-1H20z"/>
</svg>
