<?xml version="1.0" encoding="utf-8"?>
<!-- Generator: Adobe Illustrator 22.0.1, SVG Export Plug-In . SVG Version: 6.00 Build 0)  -->
<svg version="1.1" id="Layer_1" xmlns="http://www.w3.org/2000/svg" xmlns:xlink="http://www.w3.org/1999/xlink" x="0px" y="0px"
	 width="22px" height="22px" viewBox="0 0 22 22" enable-background="new 0 0 22 22" xml:space="preserve">
<path d="M2.2,13.5l-1.4-1c0,0,5.9-1.8,9.5-1.8c2.5,0,4.6-0.7,3.8-2.1c-0.8-1.4-0.8-5.5,2.5-5.3c0,0,2.3,0,2.5,2.2
	c0,0-0.2,0.8,2.8,1.4c0,0,0.5,0.3-0.4,0.7c0,0-4.5-0.3-4.1,0.8c0,0-0.1,1,1.4,1.6c2.6,1,5.2,9.3-5.6,8.5c0,0-4.3-0.2-7.7-2.1
	c0,0-3.9-1.8-5.4-2.2L2.2,13.5z"/>
</svg>
