<?xml version="1.0" encoding="UTF-8" standalone="no"?>
<svg width="32px" height="32px" viewBox="0 0 32 32" version="1.1" xmlns="http://www.w3.org/2000/svg" xmlns:xlink="http://www.w3.org/1999/xlink" xmlns:sketch="http://www.bohemiancoding.com/sketch/ns">
    <!-- Generator: Sketch 3.3.3 (12072) - http://www.bohemiancoding.com/sketch -->
    <title>webcam-slate-32</title>
    <desc>Created with Sketch.</desc>
    <defs></defs>
    <g id="webcam" stroke="none" stroke-width="1" fill="none" fill-rule="evenodd" sketch:type="MSPage">
        <g id="webcam-slate-32" sketch:type="MSArtboardGroup">
            <path d="M20.6666667,26.4332965 L20.6666667,29.3636364 L27.3333333,29.3636364 L27.3333333,32 L8.66666667,32 L8.66666667,29.3636364 L15.3333333,29.3636364 L15.3333333,29.3636364 L15.3333333,26.4332965 C9.98936347,25.2344651 6,20.5096395 6,14.8636364 C6,8.31153092 11.372583,3 18,3 C24.627417,3 30,8.31153092 30,14.8636364 C30,20.5096395 26.0106365,25.2344651 20.6666667,26.4332965 L20.6666667,26.4332965 Z M18,18.8181818 C20.209139,18.8181818 22,17.0476715 22,14.8636364 C22,12.6796012 20.209139,10.9090909 18,10.9090909 C15.790861,10.9090909 14,12.6796012 14,14.8636364 C14,17.0476715 15.790861,18.8181818 18,18.8181818 Z M10,14.8636364 C10,10.4955661 13.581722,6.95454545 18,6.95454545 C22.418278,6.95454545 26,10.4955661 26,14.8636364 C26,19.2317067 22.418278,22.7727273 18,22.7727273 C13.581722,22.7727273 10,19.2317067 10,14.8636364 Z" id="Webcam" fill-opacity="0.5" fill="#1A1918" sketch:type="MSShapeGroup"></path>
            <path d="M19.6666667,25.4332965 L19.6666667,28.3636364 L26.3333333,28.3636364 L26.3333333,31 L7.66666667,31 L7.66666667,28.3636364 L14.3333333,28.3636364 L14.3333333,28.3636364 L14.3333333,25.4332965 C8.98936347,24.2344651 5,19.5096395 5,13.8636364 C5,7.31153092 10.372583,2 17,2 C23.627417,2 29,7.31153092 29,13.8636364 C29,19.5096395 25.0106365,24.2344651 19.6666667,25.4332965 L19.6666667,25.4332965 Z M17,17.8181818 C19.209139,17.8181818 21,16.0476715 21,13.8636364 C21,11.6796012 19.209139,9.90909091 17,9.90909091 C14.790861,9.90909091 13,11.6796012 13,13.8636364 C13,16.0476715 14.790861,17.8181818 17,17.8181818 Z M9,13.8636364 C9,9.49556607 12.581722,5.95454545 17,5.95454545 C21.418278,5.95454545 25,9.49556607 25,13.8636364 C25,18.2317067 21.418278,21.7727273 17,21.7727273 C12.581722,21.7727273 9,18.2317067 9,13.8636364 Z" id="Webcam-Copy" fill-opacity="0.75" fill="#1A1918" sketch:type="MSShapeGroup"></path>
            <path d="M18.6666667,24.4332965 L18.6666667,27.3636364 L25.3333333,27.3636364 L25.3333333,30 L6.66666667,30 L6.66666667,27.3636364 L13.3333333,27.3636364 L13.3333333,27.3636364 L13.3333333,24.4332965 C7.98936347,23.2344651 4,18.5096395 4,12.8636364 C4,6.31153092 9.372583,1 16,1 C22.627417,1 28,6.31153092 28,12.8636364 C28,18.5096395 24.0106365,23.2344651 18.6666667,24.4332965 L18.6666667,24.4332965 Z M16,16.8181818 C18.209139,16.8181818 20,15.0476715 20,12.8636364 C20,10.6796012 18.209139,8.90909091 16,8.90909091 C13.790861,8.90909091 12,10.6796012 12,12.8636364 C12,15.0476715 13.790861,16.8181818 16,16.8181818 Z M8,12.8636364 C8,8.49556607 11.581722,4.95454545 16,4.95454545 C20.418278,4.95454545 24,8.49556607 24,12.8636364 C24,17.2317067 20.418278,20.7727273 16,20.7727273 C11.581722,20.7727273 8,17.2317067 8,12.8636364 Z" id="Webcam-Copy-2" fill="#E6E6E6" sketch:type="MSShapeGroup"></path>
        </g>
    </g>
</svg>