<?xml version="1.0" encoding="UTF-8" standalone="no"?>
<svg width="16px" height="16px" viewBox="0 0 16 16" version="1.1" xmlns="http://www.w3.org/2000/svg" xmlns:xlink="http://www.w3.org/1999/xlink" xmlns:sketch="http://www.bohemiancoding.com/sketch/ns">
    <!-- Generator: Sketch 3.3.3 (12072) - http://www.bohemiancoding.com/sketch -->
    <title>webcam-slate-16</title>
    <desc>Created with Sketch.</desc>
    <defs></defs>
    <g id="webcam" stroke="none" stroke-width="1" fill="none" fill-rule="evenodd" sketch:type="MSPage">
        <g id="webcam-slate-16" sketch:type="MSArtboardGroup">
            <path d="M11.3333333,14.1206706 L11.3333333,15.6363636 L14.6666667,15.6363636 L14.6666667,17 L5.33333333,17 L5.33333333,15.6363636 L8.66666667,15.6363636 L8.66666667,15.6363636 L8.66666667,14.1206706 C5.99468174,13.5005854 4,11.0567101 4,8.13636364 C4,4.74734358 6.6862915,2 10,2 C13.3137085,2 16,4.74734358 16,8.13636364 C16,11.0567101 14.0053183,13.5005854 11.3333333,14.1206706 L11.3333333,14.1206706 Z M10,10.1818182 C11.1045695,10.1818182 12,9.26603699 12,8.13636364 C12,7.00669028 11.1045695,6.09090909 10,6.09090909 C8.8954305,6.09090909 8,7.00669028 8,8.13636364 C8,9.26603699 8.8954305,10.1818182 10,10.1818182 Z M6,8.13636364 C6,5.87701693 7.790861,4.04545455 10,4.04545455 C12.209139,4.04545455 14,5.87701693 14,8.13636364 C14,10.3957103 12.209139,12.2272727 10,12.2272727 C7.790861,12.2272727 6,10.3957103 6,8.13636364 Z" id="Webcam" fill-opacity="0.5" fill="#1A1918" sketch:type="MSShapeGroup"></path>
            <path d="M10.3333333,13.1206706 L10.3333333,14.6363636 L13.6666667,14.6363636 L13.6666667,16 L4.33333333,16 L4.33333333,14.6363636 L7.66666667,14.6363636 L7.66666667,14.6363636 L7.66666667,13.1206706 C4.99468174,12.5005854 3,10.0567101 3,7.13636364 C3,3.74734358 5.6862915,1 9,1 C12.3137085,1 15,3.74734358 15,7.13636364 C15,10.0567101 13.0053183,12.5005854 10.3333333,13.1206706 L10.3333333,13.1206706 Z M9,9.18181818 C10.1045695,9.18181818 11,8.26603699 11,7.13636364 C11,6.00669028 10.1045695,5.09090909 9,5.09090909 C7.8954305,5.09090909 7,6.00669028 7,7.13636364 C7,8.26603699 7.8954305,9.18181818 9,9.18181818 Z M5,7.13636364 C5,4.87701693 6.790861,3.04545455 9,3.04545455 C11.209139,3.04545455 13,4.87701693 13,7.13636364 C13,9.39571034 11.209139,11.2272727 9,11.2272727 C6.790861,11.2272727 5,9.39571034 5,7.13636364 Z" id="Webcam-Copy" fill-opacity="0.75" fill="#1A1918" sketch:type="MSShapeGroup"></path>
            <path d="M9.33333333,12.1206706 L9.33333333,13.6363636 L12.6666667,13.6363636 L12.6666667,15 L3.33333333,15 L3.33333333,13.6363636 L6.66666667,13.6363636 L6.66666667,13.6363636 L6.66666667,12.1206706 C3.99468174,11.5005854 2,9.05671008 2,6.13636364 C2,2.74734358 4.6862915,0 8,0 C11.3137085,0 14,2.74734358 14,6.13636364 C14,9.05671008 12.0053183,11.5005854 9.33333333,12.1206706 L9.33333333,12.1206706 Z M8,8.18181818 C9.1045695,8.18181818 10,7.26603699 10,6.13636364 C10,5.00669028 9.1045695,4.09090909 8,4.09090909 C6.8954305,4.09090909 6,5.00669028 6,6.13636364 C6,7.26603699 6.8954305,8.18181818 8,8.18181818 Z M4,6.13636364 C4,3.87701693 5.790861,2.04545455 8,2.04545455 C10.209139,2.04545455 12,3.87701693 12,6.13636364 C12,8.39571034 10.209139,10.2272727 8,10.2272727 C5.790861,10.2272727 4,8.39571034 4,6.13636364 Z" id="Webcam-Copy-2" fill="#E6E6E6" sketch:type="MSShapeGroup"></path>
        </g>
    </g>
</svg>