<?xml version="1.0" encoding="UTF-8" standalone="no"?>
<svg width="24px" height="24px" viewBox="0 0 24 24" version="1.1" xmlns="http://www.w3.org/2000/svg" xmlns:xlink="http://www.w3.org/1999/xlink" xmlns:sketch="http://www.bohemiancoding.com/sketch/ns">
    <!-- Generator: Sketch 3.3.3 (12072) - http://www.bohemiancoding.com/sketch -->
    <title>webcam-white-24</title>
    <desc>Created with Sketch.</desc>
    <defs></defs>
    <g id="webcam" stroke="none" stroke-width="1" fill="none" fill-rule="evenodd" sketch:type="MSPage">
        <g id="webcam-white-24" sketch:type="MSArtboardGroup">
            <path d="M16,19.7769836 L16,22 L21,22 L21,24 L7,24 L7,22 L12,22 L12,19.7769836 C7.9920226,18.8675252 5,15.2831748 5,11 C5,6.02943725 9.02943725,2 14,2 C18.9705627,2 23,6.02943725 23,11 C23,15.2831748 20.0079774,18.8675252 16,19.7769836 L16,19.7769836 Z M14,14 C15.6568542,14 17,12.6568542 17,11 C17,9.34314575 15.6568542,8 14,8 C12.3431458,8 11,9.34314575 11,11 C11,12.6568542 12.3431458,14 14,14 Z M8,11 C8,7.6862915 10.6862915,5 14,5 C17.3137085,5 20,7.6862915 20,11 C20,14.3137085 17.3137085,17 14,17 C10.6862915,17 8,14.3137085 8,11 Z" id="Webcam" fill-opacity="0.5" fill="#000000" sketch:type="MSShapeGroup"></path>
            <path d="M15,18.7769836 L15,21 L20,21 L20,23 L6,23 L6,21 L11,21 L11,18.7769836 C6.9920226,17.8675252 4,14.2831748 4,10 C4,5.02943725 8.02943725,1 13,1 C17.9705627,1 22,5.02943725 22,10 C22,14.2831748 19.0079774,17.8675252 15,18.7769836 L15,18.7769836 Z M13,13 C14.6568542,13 16,11.6568542 16,10 C16,8.34314575 14.6568542,7 13,7 C11.3431458,7 10,8.34314575 10,10 C10,11.6568542 11.3431458,13 13,13 Z M7,10 C7,6.6862915 9.6862915,4 13,4 C16.3137085,4 19,6.6862915 19,10 C19,13.3137085 16.3137085,16 13,16 C9.6862915,16 7,13.3137085 7,10 Z" id="Webcam-Copy" fill-opacity="0.75" fill="#000000" sketch:type="MSShapeGroup"></path>
            <path d="M14,17.7769836 L14,20 L19,20 L19,22 L5,22 L5,20 L10,20 L10,17.7769836 C5.9920226,16.8675252 3,13.2831748 3,9 C3,4.02943725 7.02943725,0 12,0 C16.9705627,0 21,4.02943725 21,9 C21,13.2831748 18.0079774,16.8675252 14,17.7769836 L14,17.7769836 Z M12,12 C13.6568542,12 15,10.6568542 15,9 C15,7.34314575 13.6568542,6 12,6 C10.3431458,6 9,7.34314575 9,9 C9,10.6568542 10.3431458,12 12,12 Z M6,9 C6,5.6862915 8.6862915,3 12,3 C15.3137085,3 18,5.6862915 18,9 C18,12.3137085 15.3137085,15 12,15 C8.6862915,15 6,12.3137085 6,9 Z" id="Webcam-Copy-2" fill="#FFFFFF" sketch:type="MSShapeGroup"></path>
        </g>
    </g>
</svg>