<?xml version="1.0" encoding="utf-8"?>
<!-- Generator: Adobe Illustrator 21.1.0, SVG Export Plug-In . SVG Version: 6.00 Build 0)  -->
<svg version="1.1" id="Layer_1_1_" xmlns="http://www.w3.org/2000/svg" xmlns:xlink="http://www.w3.org/1999/xlink" x="0px" y="0px"
	 width="22px" height="22px" viewBox="0 0 22 22" enable-background="new 0 0 22 22" xml:space="preserve">
<path d="M21.6,22c-0.5,0-0.9-0.1-1.3-0.3c-0.4-0.2-0.9-0.3-1.3-0.3c-0.5,0-0.9,0.1-1.3,0.3c-0.4,0.2-0.8,0.3-1.3,0.3
	c-0.5,0-0.9-0.1-1.3-0.3c-0.4-0.2-0.9-0.3-1.3-0.3c-0.5,0-0.9,0.1-1.3,0.3C11.9,21.9,11.5,22,11,22c-0.5,0-0.9-0.1-1.3-0.3
	c-0.4-0.2-0.9-0.3-1.3-0.3c-0.5,0-0.9,0.1-1.3,0.3C6.6,21.9,6.2,22,5.7,22c-0.5,0-0.9-0.1-1.3-0.3C4,21.5,3.5,21.4,3,21.4
	c-0.5,0-0.9,0.1-1.3,0.3C1.3,21.9,0.9,22,0.4,22v-2c0.5,0,0.9-0.1,1.3-0.3c0.4-0.2,0.9-0.3,1.3-0.3c0.5,0,0.9,0.1,1.3,0.3
	C4.8,19.9,5.2,20,5.7,20c0.5,0,0.9-0.1,1.3-0.3c0.4-0.2,0.9-0.3,1.3-0.3c0.5,0,0.9,0.1,1.3,0.3c0.4,0.2,0.8,0.3,1.3,0.3
	c0.5,0,0.9-0.1,1.3-0.3c0.4-0.2,0.9-0.3,1.3-0.3c0.5,0,0.9,0.1,1.3,0.3c0.4,0.2,0.8,0.3,1.3,0.3c0.5,0,0.9-0.1,1.3-0.3
	c0.4-0.2,0.9-0.3,1.3-0.3c0.5,0,0.9,0.1,1.3,0.3c0.4,0.2,0.8,0.3,1.3,0.3V22z"/>
<path d="M13,18c0.2,0,0.4-0.1,0.6-0.1c0.5,0,0.9,0.1,1.3,0.3c0.4,0.2,0.8,0.3,1.3,0.3c0.5,0,0.9-0.1,1.3-0.3
	c0.3-0.1,0.6-0.2,0.9-0.3c-0.2-5.3-5.7-9.9-5.9-10.2c-0.3-0.2-0.5-0.8-0.3-1.4L13.6,2c0.2-0.7,0.1-1.6-0.2-1.8
	c-0.2-0.1-0.6-0.3-0.8,0L9,4.2C8.2,5,8.8,5.9,8.8,5.9C7.6,5.5,6.2,5.8,5.4,6.1L2.4,7.6C2.1,7.7,2,8.1,2.2,8.4
	c0.5,0.8,2.1,0.8,5.5,0.4C13,8.2,13,16.9,13,18z"/>
</svg>
