<?xml version="1.0" encoding="utf-8"?>
<!-- Generator: Adobe Illustrator 21.1.0, SVG Export Plug-In . SVG Version: 6.00 Build 0)  -->
<svg version="1.1" id="Layer_1_1_" xmlns="http://www.w3.org/2000/svg" xmlns:xlink="http://www.w3.org/1999/xlink" x="0px" y="0px"
	 width="30px" height="30px" viewBox="0 0 30 30" enable-background="new 0 0 30 30" xml:space="preserve">
<path d="M29.5,30c-0.6,0-1.2-0.1-1.8-0.4c-0.6-0.3-1.2-0.4-1.8-0.4c-0.7,0-1.3,0.2-1.8,0.4c-0.5,0.2-1.2,0.4-1.8,0.4
	c-0.6,0-1.2-0.1-1.8-0.4c-0.6-0.3-1.2-0.4-1.8-0.4c-0.6,0-1.3,0.2-1.8,0.4C16.2,29.9,15.6,30,15,30s-1.2-0.1-1.8-0.4
	c-0.6-0.3-1.2-0.4-1.8-0.4c-0.6,0-1.3,0.2-1.8,0.4C9,29.9,8.4,30,7.8,30c-0.6,0-1.2-0.1-1.8-0.4c-0.6-0.3-1.2-0.4-1.8-0.4
	c-0.6,0-1.3,0.2-1.8,0.4C1.8,29.9,1.2,30,0.5,30v-2.7c0.6,0,1.2-0.1,1.8-0.4c0.6-0.3,1.2-0.4,1.8-0.4c0.7,0,1.3,0.2,1.8,0.4
	c0.5,0.2,1.1,0.4,1.8,0.4c0.6,0,1.2-0.1,1.8-0.4c0.6-0.3,1.2-0.4,1.8-0.4c0.7,0,1.3,0.2,1.8,0.4c0.5,0.2,1.1,0.4,1.8,0.4
	s1.2-0.1,1.8-0.4c0.6-0.3,1.2-0.4,1.8-0.4c0.7,0,1.3,0.2,1.8,0.4c0.5,0.2,1.2,0.4,1.8,0.4c0.6,0,1.2-0.1,1.8-0.4
	c0.6-0.3,1.2-0.4,1.8-0.4c0.6,0,1.3,0.2,1.8,0.4c0.5,0.2,1.1,0.4,1.8,0.4V30z"/>
<path d="M17.8,24.5c0.3-0.1,0.5-0.1,0.8-0.1c0.7,0,1.3,0.2,1.8,0.4c0.5,0.2,1.2,0.4,1.8,0.4c0.6,0,1.2-0.1,1.8-0.4
	c0.4-0.2,0.8-0.3,1.2-0.4c-0.2-7.2-7.7-13.6-8.1-13.9c-0.4-0.3-0.7-1.1-0.5-1.9l1.8-5.9c0.3-0.9,0.2-2.1-0.3-2.5
	C18,0,17.4-0.1,17.1,0.3l-4.8,5.5c-1.1,1.1-0.2,2.3-0.2,2.3c-1.6-0.6-3.6-0.2-4.7,0.3l-4,2c-0.4,0.2-0.6,0.7-0.4,1
	c0.7,1.1,2.9,1.1,7.4,0.6C17.8,11.2,17.8,23,17.8,24.5z"/>
</svg>
