<?xml version="1.0" encoding="utf-8"?>
<!-- Generator: Adobe Illustrator 21.1.0, SVG Export Plug-In . SVG Version: 6.00 Build 0)  -->
<svg version="1.1" id="Layer_1_1_" xmlns="http://www.w3.org/2000/svg" xmlns:xlink="http://www.w3.org/1999/xlink" x="0px" y="0px"
	 width="14px" height="14px" viewBox="0 0 14 14" enable-background="new 0 0 14 14" xml:space="preserve">
<path d="M13.8,14c-0.3,0-0.6-0.1-0.8-0.2c-0.3-0.1-0.6-0.5-0.9-0.5c-0.3,0-0.6,0.4-0.9,0.5C11,13.9,10.7,14,10.4,14
	c-0.3,0-0.6-0.1-0.8-0.2c-0.3-0.1-0.6-0.5-0.9-0.5c-0.3,0-0.6,0.4-0.9,0.5C7.6,13.9,7.3,14,7,14s-0.6-0.1-0.8-0.2
	c-0.3-0.1-0.6-0.5-0.9-0.5c-0.3,0-0.6,0.4-0.9,0.5C4.2,13.9,3.9,14,3.6,14c-0.3,0-0.6-0.1-0.8-0.2c-0.3-0.1-0.6-0.5-0.9-0.5
	c-0.3,0-0.6,0.4-0.9,0.5C0.8,13.9,0.5,14,0.2,14v-1.2c0.3,0,0.6-0.1,0.8-0.2c0.3-0.1,0.6-0.5,0.9-0.5c0.3,0,0.6,0.4,0.9,0.5
	c0.3,0.1,0.5,0.2,0.8,0.2c0.3,0,0.6-0.1,0.8-0.2c0.3-0.1,0.6-0.5,0.9-0.5c0.3,0,0.6,0.4,0.9,0.5c0.3,0.1,0.5,0.2,0.8,0.2
	s0.6-0.1,0.8-0.2c0.3-0.1,0.6-0.5,0.9-0.5c0.3,0,0.6,0.4,0.9,0.5c0.3,0.1,0.5,0.2,0.8,0.2c0.3,0,0.6-0.1,0.8-0.2
	c0.3-0.1,0.6-0.5,0.9-0.5c0.3,0,0.6,0.4,0.9,0.5c0.3,0.1,0.5,0.2,0.8,0.2V14z"/>
<path d="M8.3,11.4c0.1,0,0.3,0,0.4,0c0.3,0,0.6,0.1,0.9,0.2c0.3,0.1,0.5,0.2,0.8,0.2c0.3,0,0.6-0.1,0.8-0.2c0.2-0.1,0.4-0.1,0.6-0.2
	C11.7,8.1,8.2,5.1,8,4.9C7.8,4.8,7.7,4.4,7.8,4l0.8-2.8c0.1-0.4,0.1-1-0.1-1.2C8.4,0,8.1-0.1,8,0.1L5.7,2.7C5.2,3.2,5.6,3.8,5.6,3.8
	C4.9,3.5,4,3.7,3.4,3.9L1.5,4.8C1.4,4.9,1.3,5.2,1.4,5.3c0.3,0.5,1.3,0.5,3.5,0.3C8.3,5.2,8.3,10.7,8.3,11.4z"/>
</svg>
