<?xml version="1.0" encoding="utf-8"?>
<!-- Generator: Adobe Illustrator 20.1.0, SVG Export Plug-In . SVG Version: 6.00 Build 0)  -->
<svg version="1.1" id="Icons" xmlns="http://www.w3.org/2000/svg" xmlns:xlink="http://www.w3.org/1999/xlink" x="0px" y="0px"
	 width="14px" height="14px" viewBox="0 0 14 14" style="enable-background:new 0 0 14 14;" xml:space="preserve">
<g>
	<polygon fill="#231F20" points="13,11 10,7 7,7 7,6 9,6 10,5 9,5 7,5 7,4 6,3 5,3 4,4 4,8 5,8 5,9 10,9 12,12 14,12 14,11 	"/>
	<circle fill="#231F20" cx="5.5" cy="1.5" r="1.5"/>
	<path fill="#231F20" d="M9,10L9,10c-0.3,1.7-1.7,3-3.5,3C3.6,13,2,11.4,2,9.5c0-1,0.4-1.8,1-2.4V6C1.8,6.8,1,7.9,1,9.5C1,12,3,14,5.5,14
		c2,0,3.6-1.3,4.3-3H9V10z"/>
</g>
</svg>
