<?xml version="1.0" encoding="utf-8"?>
<!-- Generator: Adobe Illustrator 20.1.0, SVG Export Plug-In . SVG Version: 6.00 Build 0)  -->
<svg version="1.1" id="Icons" xmlns="http://www.w3.org/2000/svg" xmlns:xlink="http://www.w3.org/1999/xlink" x="0px" y="0px"
	 width="22px" height="22px" viewBox="0 0 22 22" style="enable-background:new 0 0 22 22;" xml:space="preserve">
<g>
	<polygon fill="#231F20" points="20,17 19,17 15,11 9,11 9,9 12,9 13,8 12,7 9,7 9,6 8,5 7,5 6,6 6,12 8,14 14,14 18,19 20,19 21,18 21,17 	"/>
	<path fill="#231F20" d="M13.4,17c-0.9,1.8-2.8,3-4.9,3c-3,0-5.5-2.5-5.5-5.5c0-1.7,0.8-3.2,2-4.2V8c-2.4,1.3-4,3.6-4,6.5C1,18.6,4.4,22,8.5,22
		c2.8,0,5.2-1.5,6.5-3.8V17H13.4z"/>
	<polygon fill="#231F20" points="7,0 9,0 9,1 10,1 10,3 9,3 9,4 7,4 7,3 6,3 6,1 7,1 	"/>
</g>
</svg>
