<?xml version="1.0" encoding="utf-8"?>
<!-- Generator: Adobe Illustrator 18.1.1, SVG Export Plug-In . SVG Version: 6.00 Build 0)  -->
<svg version="1.1" id="Icons" xmlns="http://www.w3.org/2000/svg" xmlns:xlink="http://www.w3.org/1999/xlink" x="0px" y="0px"
	 viewBox="0 0 32 32" enable-background="new 0 0 32 32" xml:space="preserve">
<g opacity="0.5">
	<circle cx="11.5" cy="4.5" r="2.5"/>
	<polygon points="27,25 22,17 14,17 14,15 18,15 20,14 20,13 18,12.5 14,12.5 14,9 13,9 13,8 10,8 10,9 9,9 9,19 12,21 21,21 25,28 
		27,28 30,27 30,26 	"/>
	<path d="M20.4,25c-1.2,2.9-4.1,5-7.4,5c-4.4,0-8-3.6-8-8c0-2.5,1.2-4.8,3-6.2v-2.4c-3,1.7-5,5-5,8.7c0,5.5,4.5,10,10,10
		c4,0,7.4-2.3,9-5.6V25H20.4z"/>
</g>
<g opacity="0.75">
	<circle cx="10.5" cy="3.5" r="2.5"/>
	<polygon points="26,24 21,16 13,16 13,14 17,14 19,13 19,12 17,11.5 13,11.5 13,8 12,8 12,7 9,7 9,8 8,8 8,18 11,20 20,20 24,27 
		26,27 29,26 29,25 	"/>
	<path d="M19.4,24c-1.2,2.9-4.1,5-7.4,5c-4.4,0-8-3.6-8-8c0-2.5,1.2-4.8,3-6.2v-2.4c-3,1.7-5,5-5,8.7c0,5.5,4.5,10,10,10
		c4,0,7.4-2.3,9-5.6V24H19.4z"/>
</g>
<g>
	<circle fill="#E6E6E6" cx="9.5" cy="2.5" r="2.5"/>
	<polygon fill="#E6E6E6" points="25,23 20,15 12,15 12,13 16,13 18,12 18,11 16,10.5 12,10.5 12,7 11,7 11,6 8,6 8,7 7,7 7,17 
		10,19 19,19 23,26 25,26 28,25 28,24 	"/>
	<path fill="#E6E6E6" d="M18.4,23c-1.2,2.9-4.1,5-7.4,5c-4.4,0-8-3.6-8-8c0-2.5,1.2-4.8,3-6.2v-2.4c-3,1.7-5,5-5,8.7
		c0,5.5,4.5,10,10,10c4,0,7.4-2.3,9-5.6V23H18.4z"/>
</g>
</svg>
