<?xml version="1.0" encoding="utf-8"?>
<!-- Generator: Adobe Illustrator 18.1.1, SVG Export Plug-In . SVG Version: 6.00 Build 0)  -->
<svg version="1.1" id="Icons" xmlns="http://www.w3.org/2000/svg" xmlns:xlink="http://www.w3.org/1999/xlink" x="0px" y="0px"
	 viewBox="0 0 24 24" enable-background="new 0 0 24 24" xml:space="preserve">
<g opacity="0.1">
	<polygon points="22,19 21,19 17,13 11,13 11,11 14,11 15,10 14,9 11,9 11,8 10,7 9,7 8,8 8,14 10,16 16,16 20,21 22,21 23,20 
		23,19 	"/>
	<path d="M15.4,19c-0.9,1.8-2.8,3-4.9,3c-3,0-5.5-2.5-5.5-5.5c0-1.7,0.8-3.2,2-4.2V10c-2.4,1.3-4,3.6-4,6.5c0,4.1,3.4,7.5,7.5,7.5
		c2.8,0,5.2-1.5,6.5-3.8V19H15.4z"/>
	<polygon points="9,2 11,2 11,3 12,3 12,5 11,5 11,6 9,6 9,5 8,5 8,3 9,3 	"/>
</g>
<g opacity="0.2">
	<polygon points="21,18 20,18 16,12 10,12 10,10 13,10 14,9 13,8 10,8 10,7 9,6 8,6 7,7 7,13 9,15 15,15 19,20 21,20 22,19 22,18 	
		"/>
	<path d="M14.4,18c-0.9,1.8-2.8,3-4.9,3c-3,0-5.5-2.5-5.5-5.5c0-1.7,0.8-3.2,2-4.2V9c-2.4,1.3-4,3.6-4,6.5C2,19.6,5.4,23,9.5,23
		c2.8,0,5.2-1.5,6.5-3.8V18H14.4z"/>
	<polygon points="8,1 10,1 10,2 11,2 11,4 10,4 10,5 8,5 8,4 7,4 7,2 8,2 	"/>
</g>
<g>
	<polygon points="20,17 19,17 15,11 9,11 9,9 12,9 13,8 12,7 9,7 9,6 8,5 7,5 6,6 6,12 8,14 14,14 18,19 20,19 21,18 21,17 	"/>
	<path d="M13.4,17c-0.9,1.8-2.8,3-4.9,3c-3,0-5.5-2.5-5.5-5.5c0-1.7,0.8-3.2,2-4.2V8c-2.4,1.3-4,3.6-4,6.5C1,18.6,4.4,22,8.5,22
		c2.8,0,5.2-1.5,6.5-3.8V17H13.4z"/>
	<polygon points="7,0 9,0 9,1 10,1 10,3 9,3 9,4 7,4 7,3 6,3 6,1 7,1 	"/>
</g>
</svg>
