<?xml version="1.0" encoding="utf-8"?>
<!-- Generator: Adobe Illustrator 18.1.1, SVG Export Plug-In . SVG Version: 6.00 Build 0)  -->
<svg version="1.1" id="Icons" xmlns="http://www.w3.org/2000/svg" xmlns:xlink="http://www.w3.org/1999/xlink" x="0px" y="0px"
	 viewBox="0 0 16 16" enable-background="new 0 0 16 16" xml:space="preserve">
<g opacity="0.1">
	<polygon points="15,13 12,9 9,9 9,8 11,8 12,7 11,7 9,7 9,6 8,5 7,5 6,6 6,10 7,10 7,11 12,11 14,14 16,14 16,13 	"/>
	<circle cx="7.5" cy="3.5" r="1.5"/>
	<path d="M11,12L11,12c-0.3,1.7-1.7,3-3.5,3C5.6,15,4,13.4,4,11.5c0-1,0.4-1.8,1-2.4V8c-1.2,0.8-2,1.9-2,3.5C3,14,5,16,7.5,16
		c2,0,3.6-1.3,4.3-3H11V12z"/>
</g>
<g opacity="0.2">
	<polygon points="14,12 11,8 8,8 8,7 10,7 11,6 10,6 8,6 8,5 7,4 6,4 5,5 5,9 6,9 6,10 11,10 13,13 15,13 15,12 	"/>
	<circle cx="6.5" cy="2.5" r="1.5"/>
	<path d="M10,11L10,11c-0.3,1.7-1.7,3-3.5,3C4.6,14,3,12.4,3,10.5c0-1,0.4-1.8,1-2.4V7c-1.2,0.8-2,1.9-2,3.5C2,13,4,15,6.5,15
		c2,0,3.6-1.3,4.3-3H10V11z"/>
</g>
<g>
	<polygon points="13,11 10,7 7,7 7,6 9,6 10,5 9,5 7,5 7,4 6,3 5,3 4,4 4,8 5,8 5,9 10,9 12,12 14,12 14,11 	"/>
	<circle cx="5.5" cy="1.5" r="1.5"/>
	<path d="M9,10L9,10c-0.3,1.7-1.7,3-3.5,3C3.6,13,2,11.4,2,9.5c0-1,0.4-1.8,1-2.4V6C1.8,6.8,1,7.9,1,9.5C1,12,3,14,5.5,14
		c2,0,3.6-1.3,4.3-3H9V10z"/>
</g>
</svg>
