<?xml version="1.0" encoding="utf-8"?>
<!-- Generator: Adobe Illustrator 20.1.0, SVG Export Plug-In . SVG Version: 6.00 Build 0)  -->
<svg version="1.1" id="Icons" xmlns="http://www.w3.org/2000/svg" xmlns:xlink="http://www.w3.org/1999/xlink" x="0px" y="0px"
	 width="30px" height="30px" viewBox="0 0 30 30" style="enable-background:new 0 0 30 30;" xml:space="preserve">
<g>
	<circle fill="#231F20" cx="9.5" cy="2.5" r="2.5"/>
	<polygon fill="#231F20" points="25,23 20,15 12,15 12,13 16,13 18,12 18,11 16,10.5 12,10.5 12,7 11,7 11,6 8,6 8,7 7,7 7,17 10,19 19,19 23,26 
		25,26 28,25 28,24 	"/>
	<path fill="#231F20" d="M18.4,23c-1.2,2.9-4.1,5-7.4,5c-4.4,0-8-3.6-8-8c0-2.5,1.2-4.8,3-6.2v-2.4c-3,1.7-5,5-5,8.7c0,5.5,4.5,10,10,10
		c4,0,7.4-2.3,9-5.6V23H18.4z"/>
</g>
</svg>
