<?xml version="1.0" encoding="utf-8"?>
<!-- Generator: Adobe Illustrator 18.1.1, SVG Export Plug-In . SVG Version: 6.00 Build 0)  -->
<svg version="1.1" id="Layer_1" xmlns="http://www.w3.org/2000/svg" xmlns:xlink="http://www.w3.org/1999/xlink" x="0px" y="0px"
	 viewBox="0 0 16 16" enable-background="new 0 0 16 16" xml:space="preserve">
<path opacity="0.1" d="M13.136,2L6.144,5.141c0.57,0.834,0.904,1.843,0.904,2.93c0,1.077-0.329,2.078-0.89,2.91l6.99,3.138
	C14.318,12.393,15,10.311,15,8.068C15,5.82,14.311,3.731,13.136,2z"/>
<path opacity="0.1" d="M4,14v-4H3v4c0,0.906-0.82,1.033-1,1.062V16h3v-1C4.817,14.967,4,14.688,4,14z"/>
<circle opacity="0.1" cx="3.5" cy="7.5" r="1.5"/>
<path opacity="0.2" d="M12.136,1L5.144,4.141c0.57,0.834,0.904,1.843,0.904,2.93c0,1.077-0.329,2.078-0.89,2.91l6.99,3.138
	C13.318,11.393,14,9.311,14,7.068C14,4.82,13.311,2.731,12.136,1z"/>
<path opacity="0.2" d="M3,13V9H2v4c0,0.906-0.82,1.033-1,1.062V15h3v-1C3.817,13.967,3,13.688,3,13z"/>
<circle opacity="0.2" cx="2.5" cy="6.5" r="1.5"/>
<path fill="#FFFFFF" d="M11.136,0L4.144,3.141c0.57,0.834,0.904,1.843,0.904,2.93c0,1.077-0.329,2.078-0.89,2.91l6.99,3.138
	C12.318,10.393,13,8.311,13,6.068C13,3.82,12.311,1.731,11.136,0z"/>
<path d="M2,12V8H1v4c0,0.906-0.82,1.033-1,1.062V14h3v-1C2.817,12.967,2,12.688,2,12z"/>
<path d="M5.22,2.658L4.144,3.141c0.57,0.834,0.904,1.843,0.904,2.93c0,1.077-0.329,2.078-0.89,2.91l1.074,0.482
	c0.623-0.985,0.991-2.144,0.991-3.392C6.221,4.813,5.847,3.647,5.22,2.658z"/>
<path d="M8.046,1.388L7.158,1.787L7,1.894c0.81,1.189,1.281,2.625,1.281,4.17c0,1.537-0.467,2.966-1.267,4.154l0.182,0.127
	l0.856,0.384c0.875-1.345,1.39-2.943,1.39-4.665C9.441,4.337,8.922,2.736,8.046,1.388z"/>
<path d="M10.044,0.49c1.05,1.544,1.794,3.572,1.794,5.577c0,2.004-0.748,4.013-1.794,5.556l1.103,0.495
	C12.318,10.393,13,8.311,13,6.068C13,3.82,12.311,1.731,11.136,0L10.044,0.49z"/>
<circle cx="1.5" cy="5.5" r="1.5"/>
</svg>
