<?xml version="1.0" encoding="utf-8"?>
<!-- Generator: Adobe Illustrator 18.1.1, SVG Export Plug-In . SVG Version: 6.00 Build 0)  -->
<svg version="1.1" id="Layer_1" xmlns="http://www.w3.org/2000/svg" xmlns:xlink="http://www.w3.org/1999/xlink" x="0px" y="0px"
	 viewBox="0 0 24 24" enable-background="new 0 0 24 24" xml:space="preserve">
<path opacity="0.5" d="M18.799,2c1.847,2.72,2.93,6.003,2.93,9.535c0,3.524-1.072,6.797-2.911,9.509l-7.284-4.931
	c0.883-1.308,1.399-2.88,1.399-4.572c0-1.708-0.524-3.294-1.42-4.604L18.799,2z"/>
<path opacity="0.5" d="M8,22v-8H6v8c0,0.361-0.717,0.953-1,1v1h4v-1C8.712,22.948,8,22.351,8,22z"/>
<circle opacity="0.5" cx="7" cy="10.917" r="2"/>
<path opacity="0.75" d="M17.799,1c1.847,2.72,2.93,6.003,2.93,9.535c0,3.524-1.072,6.797-2.911,9.509l-7.284-4.931
	c0.883-1.308,1.399-2.88,1.399-4.572c0-1.708-0.524-3.294-1.42-4.604L17.799,1z"/>
<path opacity="0.75" d="M7,21v-8H5v8c0,0.361-0.717,0.953-1,1v1h4v-1C7.712,21.948,7,21.351,7,21z"/>
<circle opacity="0.75" cx="6" cy="9.917" r="2"/>
<path d="M16.799,0c1.847,2.72,2.93,6.003,2.93,9.535c0,3.524-1.072,6.797-2.911,9.509L10.104,14.5
	c0.883-1.308,1.407-3.285,1.407-4.978c0-1.708-0.104-3.524-1-4.835L16.799,0z"/>
<path fill="#FFFFFF" d="M6,20v-8H4v8c0,0.361-0.717,0.953-1,1v1h4v-1C6.712,20.948,6,20.351,6,20z"/>
<path fill="#FFFFFF" d="M9.512,4.937c0.896,1.31,1.42,2.895,1.42,4.604c0,1.693-0.516,3.265-1.399,4.572l1.53,1.03
	c1.085-1.601,1.714-3.529,1.714-5.602c0-2.088-0.639-4.027-1.73-5.634L9.512,4.937z"/>
<path fill="#FFFFFF" d="M12.415,2.976c1.273,1.868,2.012,4.125,2.012,6.553c0,2.416-0.734,4.661-1.991,6.527l1.494,1.04
	c1.467-2.159,2.321-4.764,2.321-7.567c0-2.809-0.859-5.416-2.324-7.578L12.415,2.976z"/>
<path fill="#FFFFFF" d="M15.292,1.027c1.651,2.426,2.61,5.356,2.61,8.508c0,3.15-0.959,6.071-2.602,8.495l1.517,1.014
	c1.84-2.712,2.911-5.985,2.911-9.509c0-3.532-1.082-6.816-2.93-9.535L15.292,1.027z"/>
<circle fill="#FFFFFF" cx="5" cy="8.917" r="2"/>
</svg>
