<?xml version="1.0" encoding="utf-8"?>
<!-- Generator: Adobe Illustrator 21.1.0, SVG Export Plug-In . SVG Version: 6.00 Build 0)  -->
<svg version="1.1" id="Layer_1" xmlns="http://www.w3.org/2000/svg" xmlns:xlink="http://www.w3.org/1999/xlink" x="0px" y="0px"
	 width="14px" height="14px" viewBox="0 0 14 14" enable-background="new 0 0 14 14" xml:space="preserve">
<g>
	<path fill="#231F20" d="M7,7.6c-1.2,0-2.3,0.5-3,1.3l1,1c0.5-0.5,1.2-0.8,2-0.8c0.8,0,1.5,0.3,2,0.8l1-1C9.3,8.1,8.2,7.6,7,7.6z"/>
	<path fill="#231F20" d="M7,4.5c-2,0-3.7,0.8-5,2.1l1,1C4,6.6,5.4,6,7,6c1.6,0,3,0.6,4,1.6l1-1C10.7,5.3,9,4.5,7,4.5z"/>
	<path fill="#231F20" d="M7,2.8c2.3,0,4.4,0.9,6,2.5l1-1c-1.8-1.8-4.3-2.9-7-2.9c-2.7,0-5.2,1.1-7,2.9l1,1C2.6,3.8,4.7,2.8,7,2.8z"/>
	<circle fill="#231F20" cx="7" cy="11.6" r="1"/>
</g>
</svg>
