<?xml version="1.0" encoding="utf-8"?>
<!-- Generator: Adobe Illustrator 21.1.0, SVG Export Plug-In . SVG Version: 6.00 Build 0)  -->
<svg version="1.1" id="Layer_1" xmlns="http://www.w3.org/2000/svg" xmlns:xlink="http://www.w3.org/1999/xlink" x="0px" y="0px"
	 width="22px" height="22px" viewBox="0 0 22 22" enable-background="new 0 0 22 22" xml:space="preserve">
<g>
	<path fill="#231F20" d="M11,11.9c-1.9,0-3.6,0.8-4.8,2l1.6,1.6c0.8-0.8,1.9-1.3,3.1-1.3c1.2,0,2.3,0.5,3.1,1.3l1.6-1.6
		C14.6,12.7,12.9,11.9,11,11.9z"/>
	<path fill="#231F20" d="M11,7c-3.1,0-5.9,1.3-7.9,3.3l1.6,1.6c1.6-1.6,3.8-2.6,6.2-2.6c2.4,0,4.6,1,6.2,2.6l1.6-1.6C16.9,8.3,14.1,7,11,7z"/>
	<path fill="#231F20" d="M11,4.5c3.7,0,7,1.5,9.4,3.9L22,6.7c-2.8-2.8-6.7-4.6-11-4.6c-4.3,0-8.2,1.7-11,4.6l1.6,1.6C4,6,7.3,4.5,11,4.5z"/>
	<circle fill="#231F20" cx="11" cy="18.3" r="1.6"/>
</g>
</svg>
