<?xml version="1.0" encoding="utf-8"?>
<!-- Generator: Adobe Illustrator 18.1.1, SVG Export Plug-In . SVG Version: 6.00 Build 0)  -->
<svg version="1.1" id="Layer_1" xmlns="http://www.w3.org/2000/svg" xmlns:xlink="http://www.w3.org/1999/xlink" x="0px" y="0px"
	 viewBox="0 0 32 32" enable-background="new 0 0 32 32" xml:space="preserve">
<path opacity="0.5" d="M24.816,2c2.519,3.709,3.995,8.186,3.995,13.003c0,4.806-1.461,9.269-3.97,12.967l-9.933-6.725
	c1.204-1.783,1.908-3.927,1.908-6.235c0-2.33-0.715-4.491-1.937-6.278L24.816,2z"/>
<path opacity="0.5" d="M10.402,30.892C10.263,30.764,10,30.479,10,30V18H7v12c0,0.493,0.008,0.735-0.207,0.928
	C6.651,31.057,6.386,31.15,6,31.214V32h5v-1C10.607,30.929,10.549,31.035,10.402,30.892z"/>
<circle opacity="0.5" cx="8.5" cy="14.5" r="2.5"/>
<path opacity="0.75" d="M23.816,1c2.519,3.709,3.995,8.186,3.995,13.003c0,4.806-1.461,9.269-3.97,12.967l-9.933-6.725
	c1.204-1.783,1.908-3.927,1.908-6.235c0-2.33-0.715-4.491-1.937-6.278L23.816,1z"/>
<path fill="#323232" d="M23.195,0.581c2.519,3.709,3.616,7.605,3.616,12.421c0,4.806-1.461,9.269-3.97,12.967l-9.5-6.431
	c1.204-1.783,2.427-4.23,2.427-6.538c0-2.33-0.667-4.713-1.889-6.5L23.195,0.581z"/>
<path opacity="0.75" d="M9.402,29.892C9.263,29.764,9,29.479,9,29V17H6v12c0,0.493,0.008,0.735-0.207,0.928
	C5.651,30.057,5.386,30.15,5,30.214V31h5v-1C9.607,29.929,9.549,30.035,9.402,29.892z"/>
<circle opacity="0.75" cx="7.5" cy="13.5" r="2.5"/>
<path fill="#E6E6E6" d="M8.402,28.892C8.263,28.764,8,28.479,8,28V16H5v12c0,0.493,0.008,0.735-0.207,0.928
	C4.651,29.057,4.386,29.15,4,29.214V30h5v-1C8.607,28.929,8.549,29.035,8.402,28.892z"/>
<path fill="#E6E6E6" d="M12.879,6.732c1.222,1.787,1.937,3.948,1.937,6.278c0,2.308-0.704,4.452-1.908,6.235l2.087,1.404
	c1.479-2.183,2.337-4.813,2.337-7.639c0-2.848-0.872-5.492-2.358-7.682L12.879,6.732z"/>
<path fill="#E6E6E6" d="M16.838,4.059c1.737,2.548,2.744,5.624,2.744,8.936c0,3.294-1,6.357-2.716,8.901l2.037,1.419
	c2.001-2.944,3.166-6.496,3.166-10.319c0-3.83-1.172-7.385-3.169-10.333L16.838,4.059z"/>
<path fill="#E6E6E6" d="M20.762,1.401c2.251,3.309,3.559,7.304,3.559,11.602c0,4.295-1.308,8.279-3.548,11.584l2.069,1.383
	c2.509-3.698,3.97-8.161,3.97-12.967c0-4.817-1.476-9.294-3.995-13.003L20.762,1.401z"/>
<circle fill="#E6E6E6" cx="6.5" cy="12.5" r="2.5"/>
</svg>
