<?xml version="1.0" encoding="utf-8"?>
<!-- Generator: Adobe Illustrator 21.1.0, SVG Export Plug-In . SVG Version: 6.00 Build 0)  -->
<svg version="1.1" id="Layer_1" xmlns="http://www.w3.org/2000/svg" xmlns:xlink="http://www.w3.org/1999/xlink" x="0px" y="0px"
	 width="30px" height="30px" viewBox="0 0 30 30" enable-background="new 0 0 30 30" xml:space="preserve">
<g>
	<path fill="#FFFFFF" d="M15,16.3c-2.5,0-4.8,1-6.5,2.7l2.2,2.2c1.1-1.1,2.6-1.8,4.3-1.8c1.7,0,3.2,0.7,4.3,1.8l2.2-2.2
		C19.8,17.3,17.5,16.3,15,16.3z"/>
	<path fill="#FFFFFF" d="M15,9.6c-4.2,0-8,1.7-10.8,4.5l2.2,2.2c2.2-2.2,5.2-3.5,8.5-3.5c3.3,0,6.3,1.4,8.5,3.5l2.2-2.2C23,11.3,19.2,9.6,15,9.6z"
		/>
	<path fill="#FFFFFF" d="M15,6.1c5,0,9.5,2,12.8,5.3L30,9.2c-3.8-3.8-9.1-6.2-15-6.2C9.1,2.9,3.8,5.3,0,9.2l2.2,2.2C5.5,8.1,10,6.1,15,6.1z"/>
	<circle fill="#FFFFFF" cx="15" cy="24.9" r="2.2"/>
</g>
</svg>
