<?xml version="1.0" encoding="utf-8"?>
<!-- Generator: Adobe Illustrator 25.4.1, SVG Export Plug-In . SVG Version: 6.00 Build 0)  -->
<svg version="1.1" id="Icons" xmlns="http://www.w3.org/2000/svg" xmlns:xlink="http://www.w3.org/1999/xlink" x="0px" y="0px"
	 width="14px" height="14px" viewBox="0 0 14 14" enable-background="new 0 0 14 14" xml:space="preserve">
<path fill="#ffffff" d="M13.6,14c-0.3,0-0.6-0.1-0.8-0.2c-0.3-0.1-0.6-0.5-0.9-0.5c-0.3,0-0.6,0.4-0.9,0.5c-0.2,0.1-0.5,0.2-0.8,0.2
	s-0.6-0.1-0.8-0.2c-0.3-0.1-0.6-0.5-0.9-0.5c-0.3,0-0.6,0.4-0.9,0.5C7.4,13.9,7.1,14,6.8,14S6.2,13.9,6,13.8
	c-0.3-0.1-0.6-0.5-0.9-0.5s-0.6,0.4-0.9,0.5C4,13.9,3.7,14,3.4,14s-0.6-0.1-0.8-0.2c-0.3-0.1-0.6-0.5-0.9-0.5s-0.6,0.4-0.9,0.5
	C0.6,13.9,0.3,14,0,14v-1.2c0.3,0,0.6-0.1,0.8-0.2c0.3-0.1,0.6-0.5,0.9-0.5s0.6,0.4,0.9,0.5s0.5,0.2,0.8,0.2s0.6-0.1,0.8-0.2
	c0.3-0.1,0.6-0.5,0.9-0.5s0.6,0.4,0.9,0.5s0.5,0.2,0.8,0.2s0.6-0.1,0.8-0.2c0.3-0.1,0.6-0.5,0.9-0.5s0.6,0.4,0.9,0.5
	c0.3,0.1,0.5,0.2,0.8,0.2s0.6-0.1,0.8-0.2c0.3-0.1,0.6-0.5,0.9-0.5c0.3,0,0.6,0.4,0.9,0.5c0.3,0.1,0.5,0.2,0.8,0.2
	C13.6,12.8,13.6,14,13.6,14z"/>
<path fill="#ffffff" d="M2,8H1v0.2l0.7,1.9c0.1,0.3,0.4,0.5,0.8,0.5H4l1,0.2l1.1,1.1c0.2,0.2,0.5,0.2,0.8,0c0.2-0.2,0.2-0.5,0-0.7
	L5.3,9.7C5.2,9.6,5.1,9.5,4.9,9.5H4L3,9L2.7,8H3h0.5c0,0,0.2-0.1,0.3-0.1L5,7.3V6.5l0,0H4.9L3.5,7H2V8z"/>
<path fill="#ffffff" d="M8,10v0.3L8.3,11L13,8c-0.3-4.5-5.2-7.5-9-8L8,10L8,10z"/>
<path fill="#ffffff" d="M1,5c0.6,0,1,0.4,1,1S1.6,7,1,7S0,6.6,0,6S0.4,5,1,5z"/>
</svg>
