<?xml version="1.0" encoding="utf-8"?>
<!-- Generator: Adobe Illustrator 20.1.0, SVG Export Plug-In . SVG Version: 6.00 Build 0)  -->
<svg version="1.1" id="Icons" xmlns="http://www.w3.org/2000/svg" xmlns:xlink="http://www.w3.org/1999/xlink" x="0px" y="0px"
	 width="14px" height="14px" viewBox="0 0 14 14" style="enable-background:new 0 0 14 14;" xml:space="preserve">
<g>
	<path fill="#FFFFFF" d="M13,13h-1l-2-1H9l-2,1H6H5v-0.5L4,12H3l-2,1H0v1h1l2-1h1l2,1h1l2-1h1l2,1h1l1-0.5c0-0.2,0-0.3,0-0.5s0-0.3,0-0.5L13,13z"/>
	<path fill="#FFFFFF" d="M2,8H1v0.2l0.7,1.9c0.1,0.3,0.4,0.5,0.8,0.5H4V11h1v-0.2l1.1,1.1c0.2,0.2,0.5,0.2,0.8,0c0.2-0.2,0.2-0.5,0-0.7L5.3,9.7
		C5.2,9.6,5.1,9.5,4.9,9.5H4V9H3V8.8L2.7,8H3h0.5c0,0,0.2-0.1,0.3-0.1L5,7.3V6.5l0,0H4.9L3.5,7H2V8z"/>
	<path fill="#FFFFFF" d="M8,10v0.3L8.3,11L13,8c-0.3-4.5-5.2-7.5-9-8L8,10L8,10z"/>
	<rect fill="#FFFFFF" y="5" width="2" height="2"/>
</g>
</svg>
