<?xml version="1.0" encoding="utf-8"?>
<!-- Generator: Adobe Illustrator 18.1.1, SVG Export Plug-In . SVG Version: 6.00 Build 0)  -->
<svg version="1.1" id="Icons" xmlns="http://www.w3.org/2000/svg" xmlns:xlink="http://www.w3.org/1999/xlink" x="0px" y="0px"
	 viewBox="0 0 16 16" enable-background="new 0 0 16 16" xml:space="preserve">
<g opacity="0.5">
	<path d="M15,15h-1l-2-1h-1l-2,1H8H7v-0.5L6,14H5l-2,1H2v1h1l2-1h1l2,1h1l2-1h1l2,1h1l1-0.5c0-0.2,0-0.3,0-0.5s0-0.3,0-0.5L15,15z"
		/>
	<path d="M4,10H3v0.2l0.7,1.9c0.1,0.3,0.4,0.5,0.8,0.5H6V13h1v-0.2l1.1,1.1c0.2,0.2,0.5,0.2,0.8,0c0.2-0.2,0.2-0.5,0-0.7l-1.5-1.4
		c-0.1-0.1-0.2-0.1-0.4-0.1H6V11H5v-0.2L4.7,10H5h0.5c0,0,0.2-0.1,0.3-0.1L7,9.3V8.5l0,0l-0.1,0L5.5,9H4V10z"/>
	<path d="M10,12v0.3l0.3,0.7l4.7-3c-0.3-4.5-5.2-7.5-9-8l3.9,10H10z"/>
	<rect x="2" y="7" width="2" height="2"/>
</g>
<g opacity="0.75">
	<path d="M14,14h-1l-2-1h-1l-2,1H7H6v-0.5L5,13H4l-2,1H1v1h1l2-1h1l2,1h1l2-1h1l2,1h1l1-0.5c0-0.2,0-0.3,0-0.5s0-0.3,0-0.5L14,14z"
		/>
	<path d="M3,9H2v0.2l0.7,1.9c0.1,0.3,0.4,0.5,0.8,0.5H5V12h1v-0.2l1.1,1.1c0.2,0.2,0.5,0.2,0.8,0c0.2-0.2,0.2-0.5,0-0.7l-1.5-1.4
		c-0.1-0.1-0.2-0.1-0.4-0.1H5V10H4V9.8L3.7,9H4h0.5c0,0,0.2-0.1,0.3-0.1L6,8.3V7.5l0,0l-0.1,0L4.5,8H3V9z"/>
	<path d="M9,11v0.3L9.3,12L14,9c-0.3-4.5-5.2-7.5-9-8l3.9,10H9z"/>
	<rect x="1" y="6" width="2" height="2"/>
</g>
<g>
	<path fill="#FFFFFF" d="M13,13h-1l-2-1H9l-2,1H6H5v-0.5L4,12H3l-2,1H0v1h1l2-1h1l2,1h1l2-1h1l2,1h1l1-0.5c0-0.2,0-0.3,0-0.5
		s0-0.3,0-0.5L13,13z"/>
	<path fill="#FFFFFF" d="M2,8H1v0.2l0.7,1.9c0.1,0.3,0.4,0.5,0.8,0.5H4V11h1v-0.2l1.1,1.1c0.2,0.2,0.5,0.2,0.8,0
		c0.2-0.2,0.2-0.5,0-0.7L5.3,9.7C5.2,9.6,5.1,9.5,4.9,9.5H4V9H3V8.8L2.7,8H3h0.5c0,0,0.2-0.1,0.3-0.1L5,7.3V6.5l0,0l-0.1,0L3.5,7H2
		V8z"/>
	<path fill="#FFFFFF" d="M8,10v0.3L8.3,11L13,8c-0.3-4.5-5.2-7.5-9-8l3.9,10H8z"/>
	<rect x="0" y="5" fill="#FFFFFF" width="2" height="2"/>
</g>
</svg>
