<?xml version="1.0" encoding="utf-8"?>
<!-- Generator: Adobe Illustrator 20.1.0, SVG Export Plug-In . SVG Version: 6.00 Build 0)  -->
<svg version="1.1" id="Icons" xmlns="http://www.w3.org/2000/svg" xmlns:xlink="http://www.w3.org/1999/xlink" x="0px" y="0px"
	 width="22px" height="22px" viewBox="0 0 22 22" style="enable-background:new 0 0 22 22;" xml:space="preserve">
<polygon fill="#231F20" points="21,20 19,19 18,19 16,20 15,20 13,19 12,19 10,20 9,20 8,20 8,19.5 7,19 6,19 4,20 3,20 1,19 1,21 3,22 4,22 6,21 
	7,21 9,22 10,22 12,21 13,21 15,22 16,22 18,21 19,21 21,22 22,22 22,20 "/>
<path fill="#231F20" d="M10.7,17.5l-2.5-2.4C8.1,15,7.9,15,7.7,15H5l-0.4-1H4v-1h0.2L4,12.4h1.4c0,0,0.3,0,0.4-0.1l2.3-1c0.2-0.1,0.3-0.3,0.3-0.5
	c0-0.4-0.3-0.7-0.6-0.7c-0.1,0-0.2,0-0.2,0l-2.1,1h-3c-0.1,0-0.2,0-0.4,0.1V12h-1C1,12.1,1,12.2,1,12.4c0,0.1,0,0.2,0,0.3l1.4,3.2
	c0.2,0.5,0.7,0.8,1.2,0.8h3.7l2.2,2.1c0.3,0.3,0.9,0.3,1.2,0C11.1,18.4,11.1,17.8,10.7,17.5z"/>
<path fill="#231F20" d="M7,0l7.1,18l7.9-4.9C21.5,5.7,13.4,0.8,7,0z M18,10c-1.5,0-6,0-6,0V9c0,0,4.5,0,6,0c1.8,0,3,2,3,2v1h-1C20,12,18.8,10,18,10
	z"/>
<circle fill="#231F20" cx="1.5" cy="9.5" r="1.5"/>
</svg>
