<?xml version="1.0" encoding="utf-8"?>
<!-- Generator: Adobe Illustrator 20.1.0, SVG Export Plug-In . SVG Version: 6.00 Build 0)  -->
<svg version="1.1" id="Icons" xmlns="http://www.w3.org/2000/svg" xmlns:xlink="http://www.w3.org/1999/xlink" x="0px" y="0px"
	 width="30px" height="30px" viewBox="0 0 30 30" style="enable-background:new 0 0 30 30;" xml:space="preserve">
<g>
	<polygon fill="#FFFFFF" points="26,26 25,26 22,27 21,27 18,26 17,26 15,26.7 15,27 14,27 13,27 12,27 12,26.7 10,26 9,26 6,27 5,27 2,26 1,26 
		0,26.3 0,29.3 1,29 2,29 5,30 6,30 9,29 10,29 13,30 14,30 17,29 18,29 21,30 22,30 25,29 26,29 29,30 29,27 	"/>
	<path fill="#FFFFFF" d="M14.6,24l-3.2-3.2c-0.2-0.2-0.4-0.3-0.8-0.3H7.4l-1.5-3.4h1.8c0,0,0.4,0,0.6-0.2l2.8-1.3V14c-0.1,0-0.2-0.1-0.3-0.1
		s-0.2,0-0.3,0.1l-2.7,1.3H4.1V16H3H2.4C2.2,16.3,2,16.7,2,17.2c0,0.2,0,0.3,0.1,0.4l1.8,4.2C4.1,22.5,4.8,23,5.5,23h4.9l2.8,2.7
		c0.5,0.4,1.2,0.4,1.6-0.1C15.1,25.2,15.1,24.4,14.6,24z"/>
	<path fill="#FFFFFF" d="M7,0l5.6,14H13v1.1l3.5,8.9L27,17.5C26.4,7.6,15.5,1.1,7,0z M25,17l-1-2l-4-2h-6v-1h7l3,1l2,2v2H25z"/>
	<polygon fill="#FFFFFF" points="2,11 4,11 4,12 5,12 5,14 4,14 4,15 2,15 2,14 1,14 1,12 2,12 	"/>
</g>
</svg>
