<?xml version="1.0" encoding="utf-8"?>
<!-- Generator: Adobe Illustrator 27.9.1, SVG Export Plug-In . SVG Version: 6.00 Build 0)  -->
<svg version="1.1" id="Layer_1" xmlns="http://www.w3.org/2000/svg" xmlns:xlink="http://www.w3.org/1999/xlink" x="0px" y="0px"
	 viewBox="0 0 22 22" enable-background="new 0 0 22 22" xml:space="preserve">
<polygon fill="#FFFFFF" points="3.9,2 5.9,0 7.6,2.1 8.7,3.4 9.7,4.7 10.7,6 10.5,6.2 10.3,6.4 10.1,6.6 9.9,6.8 8.6,5.8 7.3,4.8 
	5.9,3.7 "/>
<polygon fill="#FFFFFF" points="5.8,14.3 3.8,12.3 5.9,10.5 7.2,9.5 8.5,8.5 9.9,7.5 10.1,7.7 10.3,7.9 10.5,8.1 10.7,8.3 9.6,9.6 
	8.6,10.9 7.6,12.2 "/>
<polygon fill="#FFFFFF" points="16.2,0 18.2,2 16.1,3.8 14.8,4.8 13.5,5.8 12.1,6.8 11.9,6.6 11.7,6.4 11.5,6.2 11.3,6 12.4,4.7 
	13.4,3.4 14.4,2.1 "/>
<polygon fill="#FFFFFF" points="18.1,12.3 16.1,14.3 14.4,12.2 13.3,10.9 12.3,9.6 11.3,8.3 11.5,8.1 11.7,7.9 11.9,7.7 12.1,7.5 
	13.4,8.5 14.7,9.5 16.1,10.5 "/>
<path fill="#FFFFFF" d="M13.8,13.3L12,10.9l-1-1.3l0,0l-1,1.3l-1.9,2.5l-0.5,2.4L6.5,22H11h4.5l-1.1-6.1L13.8,13.3z"/>
</svg>
