<?xml version="1.0" encoding="utf-8"?>
<!-- Generator: Adobe Illustrator 28.2.0, SVG Export Plug-In . SVG Version: 6.00 Build 0)  -->
<svg version="1.1" id="Layer_1" xmlns="http://www.w3.org/2000/svg" xmlns:xlink="http://www.w3.org/1999/xlink" x="0px" y="0px"
	 width="14px" height="14px" viewBox="0 0 14 14" enable-background="new 0 0 14 14" xml:space="preserve">
<polygon fill="#231F20" points="2.5,1.3 3.7,0 4.9,1.3 5.5,2.1 6.2,3 6.8,3.8 6.7,4 6.6,4.1 6.4,4.2 6.3,4.3 5.5,3.7 4.6,3 3.8,2.4 
	"/>
<polygon fill="#231F20" points="3.7,9.1 2.4,7.8 3.8,6.7 4.6,6.1 5.4,5.4 6.3,4.7 6.4,4.9 6.5,5 6.7,5.1 6.8,5.3 6.1,6.1 5.5,6.9 
	4.8,7.8 "/>
<polygon fill="#231F20" points="10.3,0 11.6,1.3 10.2,2.4 9.4,3 8.6,3.7 7.7,4.3 7.6,4.2 7.5,4.1 7.3,4 7.2,3.8 7.9,3 8.5,2.2 
	9.2,1.3 "/>
<polygon fill="#231F20" points="11.5,7.8 10.3,9.1 9.1,7.8 8.5,6.9 7.8,6.1 7.2,5.3 7.3,5.1 7.4,5 7.6,4.9 7.7,4.7 8.5,5.4 9.4,6.1 
	10.2,6.7 "/>
<path fill="#231F20" d="M8.8,8.5L7.6,7L7,6.2l0,0L6.4,7L5.1,8.5l-0.3,1.6L4.1,14H7h2.8l-0.7-3.9L8.8,8.5z"/>
</svg>
