<?xml version="1.0" encoding="utf-8"?>
<!-- Generator: Adobe Illustrator 18.1.1, SVG Export Plug-In . SVG Version: 6.00 Build 0)  -->
<svg version="1.1" id="Icons" xmlns="http://www.w3.org/2000/svg" xmlns:xlink="http://www.w3.org/1999/xlink" x="0px" y="0px"
	 viewBox="0 0 32 32" enable-background="new 0 0 32 32" xml:space="preserve">
<g opacity="0.5">
	<polygon points="28,28 27,28 24,29 23,29 20,28 19,28 17,28.7 17,29 16,29 15,29 14,29 14,28.7 12,28 11,28 8,29 7,29 4,28 3,28 
		2,28.3 2,31.3 3,31 4,31 7,32 8,32 11,31 12,31 15,32 16,32 19,31 20,31 23,32 24,32 27,31 28,31 31,32 31,29 	"/>
	<path d="M16.6,26l-3.2-3.2c-0.2-0.2-0.4-0.3-0.8-0.3H9.4l-1.5-3.4h1.8c0,0,0.4,0,0.6-0.2l2.8-1.3v-1.6c-0.1,0-0.2-0.1-0.3-0.1
		c-0.1,0-0.2,0-0.3,0.1l-2.7,1.3l-3.7,0V18H5H4.4C4.2,18.3,4,18.7,4,19.2c0,0.2,0,0.3,0.1,0.4l1.8,4.2C6.1,24.5,6.8,25,7.5,25h4.9
		l2.8,2.7c0.5,0.4,1.2,0.4,1.6-0.1C17.1,27.2,17.1,26.4,16.6,26z"/>
	<path d="M9,2l5.6,14H15v1.1l3.5,8.9L29,19.5C28.4,9.6,17.5,3.1,9,2z M27,19l-1-2l-4-2h-6v-1h7l3,1l2,2v2H27z"/>
	<polygon points="4,13 6,13 6,14 7,14 7,16 6,16 6,17 4,17 4,16 3,16 3,14 4,14 	"/>
</g>
<g opacity="0.75">
	<polygon points="27,27 26,27 23,28 22,28 19,27 18,27 16,27.7 16,28 15,28 14,28 13,28 13,27.7 11,27 10,27 7,28 6,28 3,27 2,27 
		1,27.3 1,30.3 2,30 3,30 6,31 7,31 10,30 11,30 14,31 15,31 18,30 19,30 22,31 23,31 26,30 27,30 30,31 30,28 	"/>
	<path d="M15.6,25l-3.2-3.2c-0.2-0.2-0.4-0.3-0.8-0.3H8.4l-1.5-3.4h1.8c0,0,0.4,0,0.6-0.2l2.8-1.3v-1.6c-0.1,0-0.2-0.1-0.3-0.1
		c-0.1,0-0.2,0-0.3,0.1l-2.7,1.3l-3.7,0V17H4H3.4C3.2,17.3,3,17.7,3,18.2c0,0.2,0,0.3,0.1,0.4l1.8,4.2C5.1,23.5,5.8,24,6.5,24h4.9
		l2.8,2.7c0.5,0.4,1.2,0.4,1.6-0.1C16.1,26.2,16.1,25.4,15.6,25z"/>
	<path d="M8,1l5.6,14H14v1.1l3.5,8.9L28,18.5C27.4,8.6,16.5,2.1,8,1z M26,18l-1-2l-4-2h-6v-1h7l3,1l2,2v2H26z"/>
	<polygon points="3,12 5,12 5,13 6,13 6,15 5,15 5,16 3,16 3,15 2,15 2,13 3,13 	"/>
</g>
<g>
	<polygon fill="#E6E6E6" points="26,26 25,26 22,27 21,27 18,26 17,26 15,26.7 15,27 14,27 13,27 12,27 12,26.7 10,26 9,26 6,27 
		5,27 2,26 1,26 0,26.3 0,29.3 1,29 2,29 5,30 6,30 9,29 10,29 13,30 14,30 17,29 18,29 21,30 22,30 25,29 26,29 29,30 29,27 	"/>
	<path fill="#E6E6E6" d="M14.6,24l-3.2-3.2c-0.2-0.2-0.4-0.3-0.8-0.3H7.4l-1.5-3.4h1.8c0,0,0.4,0,0.6-0.2l2.8-1.3v-1.6
		c-0.1,0-0.2-0.1-0.3-0.1c-0.1,0-0.2,0-0.3,0.1l-2.7,1.3l-3.7,0V16H3H2.4C2.2,16.3,2,16.7,2,17.2c0,0.2,0,0.3,0.1,0.4l1.8,4.2
		C4.1,22.5,4.8,23,5.5,23h4.9l2.8,2.7c0.5,0.4,1.2,0.4,1.6-0.1C15.1,25.2,15.1,24.4,14.6,24z"/>
	<path fill="#E6E6E6" d="M7,0l5.6,14H13v1.1l3.5,8.9L27,17.5C26.4,7.6,15.5,1.1,7,0z M25,17l-1-2l-4-2h-6v-1h7l3,1l2,2v2H25z"/>
	<polygon fill="#E6E6E6" points="2,11 4,11 4,12 5,12 5,14 4,14 4,15 2,15 2,14 1,14 1,12 2,12 	"/>
</g>
</svg>
