<?xml version="1.0" encoding="utf-8"?>
<!-- Generator: Adobe Illustrator 22.0.1, SVG Export Plug-In . SVG Version: 6.00 Build 0)  -->
<svg version="1.1" id="Layer_1" xmlns="http://www.w3.org/2000/svg" xmlns:xlink="http://www.w3.org/1999/xlink" x="0px" y="0px"
	 width="14px" height="14px" viewBox="0 0 14 14" enable-background="new 0 0 14 14" xml:space="preserve">
<path fill="#FFFFFF" d="M11.3,3.5c1,0.2,1.7,1.1,1.7,2.1v7.9c0,0.2-0.2,0.4-0.5,0.4H8.4C8.2,14,8,13.8,8,13.6V5.7c0-1,0.7-1.9,1.7-2.1l0-3.5h1.6
	V3.5z"/>
<path fill="#FFFFFF" d="M5.8,13.5L4,13v-3c3.4-1.1,1.5-5,1.1-6H1.9C1.5,5-0.3,8.9,3,10v3l-1.8,0.5c-0.1,0-0.2,0.1-0.2,0.3C1,13.9,1.1,14,1.2,14h4.5
	C5.9,14,6,13.9,6,13.8C6,13.7,5.9,13.5,5.8,13.5z"/>
</svg>
