<?xml version="1.0" encoding="utf-8"?>
<!-- Generator: Adobe Illustrator 22.0.1, SVG Export Plug-In . SVG Version: 6.00 Build 0)  -->
<svg version="1.1" id="Layer_1" xmlns="http://www.w3.org/2000/svg" xmlns:xlink="http://www.w3.org/1999/xlink" x="0px" y="0px"
	 width="30px" height="30px" viewBox="0 0 30 30" enable-background="new 0 0 30 30" xml:space="preserve">
<path fill="#FFFFFF" d="M25,7.6c2.1,0.5,3,2.4,3,4.6v16.9c0,0.5-0.4,0.9-0.9,0.9H19c-0.5,0-1-0.4-1-0.9V12.1c0-2.2,1-4.1,3-4.6L21,0H25V7.6z"/>
<path fill="#FFFFFF" d="M12.2,29l-4-0.5v-6.8c7.6-2.3,3.4-10.9,2.6-13.2h-7c-0.8,2.3-5.1,10.9,2.6,13.2v6.8l-4,0.5c-0.3,0-0.5,0.3-0.4,0.6
	c0,0.3,0.3,0.4,0.6,0.4H12c0.3,0,0.5-0.2,0.6-0.4C12.6,29.3,12.4,29,12.2,29z"/>
</svg>
