<?xml version="1.0" encoding="utf-8"?>
<!-- Generator: Adobe Illustrator 22.0.1, SVG Export Plug-In . SVG Version: 6.00 Build 0)  -->
<svg version="1.1" id="Layer_1" xmlns="http://www.w3.org/2000/svg" xmlns:xlink="http://www.w3.org/1999/xlink" x="0px" y="0px"
	 width="22px" height="22px" viewBox="0 0 22 22" enable-background="new 0 0 22 22" xml:space="preserve">
<path fill="#FFFFFF" d="M18,5.6c1.5,0.4,3,1.7,3,3.3v12.4c0,0.4-0.6,0.7-1,0.7h-6.8c-0.4,0-1.3-0.3-1.3-0.7V8.9c0-1.6,1.5-3,3-3.3V0h3V5.6z"/>
<path fill="#FFFFFF" d="M9.4,21.3L6,20.9v-5c5.6-1.7,2.8-8,2.2-9.7H2.7c-0.6,1.7-3.3,8,2.3,9.7v5l-3.4,0.4c-0.2,0-0.3,0.2-0.3,0.4
	c0,0.2,0.2,0.3,0.4,0.3h7.6c0.2,0,0.4-0.1,0.4-0.3C9.7,21.5,9.6,21.3,9.4,21.3z"/>
</svg>
