<?xml version="1.0" encoding="utf-8"?>
<!-- Generator: Adobe Illustrator 22.1.0, SVG Export Plug-In . SVG Version: 6.00 Build 0)  -->
<svg version="1.1" id="Layer_1" xmlns="http://www.w3.org/2000/svg" xmlns:xlink="http://www.w3.org/1999/xlink" x="0px" y="0px"
	 width="30px" height="30px" viewBox="0 0 30 30" enable-background="new 0 0 30 30" xml:space="preserve">
<path fill="#FFFFFF" d="M13.7,29.2v-4l-2.2,1.2l-1.1-0.6v-1.4l3.3-1.9V20l-2.4,1.5v-2.8L9,20v3.7l-1.2,0.8l-1.1-0.7v-2.5l-3.5,1.9l-1.5-0.6v-1.6
	l3.6-2L3.1,18v-1.4l1.3-0.7l3.3,1.9l2.3-1.3l-0.1,0l-2.3-1.3l2.2-1.4l-2.3-1.3l-3.3,1.9l-1.2-0.6v-1.4L5.3,11L1.8,9.1V7.5l1.4-0.7
	l3.5,2V6.3l1-0.7l1.3,0.7l0,3.8l2.3,1.3l0-2.7l2.4,1.3V7.4l-3.3-1.9V4.2l1.1-0.7l2.2,1.2v-4L15,0l1.3,0.8v4l2.3-1.3l1.2,0.8v1.2
	l-3.4,1.9V10l2.3-1.4v2.8l2.4-1.3V6.1l1.2-0.5l1.2,0.5v2.6L27,6.8l1.2,0.8V9l-3.5,2l2.2,1.2v1.4l-1.1,0.6l-3.3-2l-2.3,1.5l2.2,1.4
	l-2.3,1.3l2.4,1.2l3.3-1.9l1.1,0.8v1.3l-2.1,1.2l3.3,2v1.6l-1.4,0.6l-3.3-1.9v2.5l-1.2,0.7l-1.2-0.7v-3.8l-2.4-1.4v2.6L16.3,20v2.6
	l3.3,1.9v1.5l-1.1,0.6l-2.2-1.2v4L15,30L13.7,29.2z M12.8,15.1l1.2,1.8h2.2l1-1.8l-1.1-1.9h-2.2L12.8,15.1z"/>
</svg>
