<?xml version="1.0" encoding="utf-8"?>
<!-- Generator: Adobe Illustrator 22.1.0, SVG Export Plug-In . SVG Version: 6.00 Build 0)  -->
<svg version="1.1" id="Layer_1" xmlns="http://www.w3.org/2000/svg" xmlns:xlink="http://www.w3.org/1999/xlink" x="0px" y="0px"
	 width="14px" height="14px" viewBox="0 0 14 14" enable-background="new 0 0 14 14" xml:space="preserve">
<path d="M6.4,13.6v-1.8l-1,0.6L4.8,12v-0.6l1.5-0.9V9.3L5.3,10V8.7L4.2,9.3v1.7l-0.6,0.4l-0.5-0.3V10l-1.6,0.9l-0.7-0.3V9.8l1.7-0.9
	L1.5,8.4V7.7l0.6-0.3l1.5,0.9l1.1-0.6l0,0L3.5,7l1-0.6L3.5,5.8L2,6.7L1.4,6.4V5.7l1-0.6L0.8,4.2V3.5l0.6-0.3l1.6,0.9V2.9l0.5-0.3
	l0.6,0.3l0,1.8l1.1,0.6l0-1.3l1.1,0.6V3.5L4.8,2.6V2l0.5-0.3l1,0.6V0.4L7,0l0.6,0.4v1.8l1.1-0.6L9.2,2v0.6L7.6,3.5v1.2L8.7,4v1.3
	l1.1-0.6V2.8l0.5-0.3l0.6,0.3v1.2l1.7-0.9l0.6,0.4v0.7l-1.6,0.9l1,0.6v0.7L12,6.6l-1.6-0.9L9.4,6.4l1,0.6L9.4,7.7l1.1,0.6L12,7.4
	l0.5,0.4v0.6l-1,0.6l1.6,0.9v0.7l-0.7,0.3L10.9,10v1.2l-0.6,0.3l-0.5-0.3V9.4L8.7,8.8V10L7.6,9.3v1.2l1.5,0.9v0.7l-0.5,0.3l-1-0.6
	v1.8L7,14L6.4,13.6z M6,7l0.6,0.8h1L8,7L7.5,6.2h-1L6,7z"/>
</svg>
