<?xml version="1.0" encoding="utf-8"?>
<!-- Generator: Adobe Illustrator 22.1.0, SVG Export Plug-In . SVG Version: 6.00 Build 0)  -->
<svg version="1.1" id="Layer_1" xmlns="http://www.w3.org/2000/svg" xmlns:xlink="http://www.w3.org/1999/xlink" x="0px" y="0px"
	 width="22px" height="22px" viewBox="0 0 22 22" enable-background="new 0 0 22 22" xml:space="preserve">
<path d="M10.1,21.4v-2.9l-1.6,0.9l-0.8-0.5v-1l2.4-1.4v-1.9l-1.7,1.1v-2l-1.7,1v2.7L5.7,18l-0.8-0.5v-1.8l-2.5,1.4l-1.1-0.5v-1.2
	L4,14l-1.7-0.8v-1.1l0.9-0.5L5.6,13l1.7-1l0,0l-1.7-1l1.6-1l-1.7-1l-2.4,1.4L2.3,10V9l1.6-0.9L1.3,6.7V5.5l1-0.5l2.5,1.5V4.6
	l0.8-0.5l0.9,0.5l0,2.8l1.7,1l0-2l1.8,1V5.5L7.6,4.1v-1l0.8-0.5l1.6,0.9V0.6L11,0l0.9,0.6v2.9l1.7-0.9l0.8,0.6V4L12,5.5v1.9l1.7-1
	v2.1l1.8-1v-3l0.8-0.4l0.9,0.4v1.9L19.8,5l0.9,0.6v1.1l-2.6,1.5l1.6,0.9v1l-0.8,0.5L16.5,9l-1.7,1.1l1.6,1l-1.7,1l1.7,0.9l2.5-1.4
	l0.8,0.6v1L18.2,14l2.5,1.5v1.1l-1,0.5l-2.4-1.4v1.8L16.3,18l-0.8-0.5v-2.8l-1.8-1v1.9l-1.7-1v1.9l2.4,1.4V19l-0.8,0.4l-1.6-0.9v2.9
	L11,22L10.1,21.4z M9.4,11.1l0.9,1.3h1.6l0.7-1.3l-0.8-1.4h-1.6L9.4,11.1z"/>
</svg>
