<?xml version="1.0" encoding="utf-8"?>
<!-- Generator: Adobe Illustrator 22.1.0, SVG Export Plug-In . SVG Version: 6.00 Build 0)  -->
<svg version="1.1" id="Layer_1" xmlns="http://www.w3.org/2000/svg" xmlns:xlink="http://www.w3.org/1999/xlink" x="0px" y="0px"
	 width="30px" height="30px" viewBox="0 0 30 30" enable-background="new 0 0 30 30" xml:space="preserve">
<path d="M10.5,4.9c-1.4,0-2.4-1.1-2.4-2.5C8.1,1.1,9.2,0,10.5,0C11.9,0,13,1.1,13,2.4C13,3.8,11.9,4.9,10.5,4.9z"/>
<path d="M21.7,9.8c0,0-3.2,0-3.8,0c-0.4-0.4-2.8-2.8-3.4-3.4c0,0-0.2-0.2-0.3-0.3c-0.5-0.4-1.2-0.7-1.9-0.7H7.7C5.8,5.4,4,7,4,8.6
	v7.5c0,1.5,2,1.5,2,0V9h1v19.6C7,29.4,8,30,8.7,30c0.8,0,1.3-0.6,1.3-1.4V17h1l0,11.6c0,0.8,0.6,1.4,1.4,1.4c0.8,0,1.6-0.6,1.6-1.4
	l0-20l2.8,2.8c0.2,0.2,0.4,0.3,0.7,0.3h4.2c0.5,0,1-0.4,1-0.9C22.6,10.2,22.2,9.8,21.7,9.8z"/>
<path d="M7.4,12.9l-6,6c-0.2,0.2-0.2,0.4,0,0.6c0.2,0.2,0.4,0.2,0.6,0l1.4-1.4v1.5l-1.6,1.6c-0.1,0.1-0.1,0.3,0,0.4
	c0.1,0.1,0.3,0.1,0.4,0l1.2-1.2l0,3.7c0,0.1,0.1,0.2,0.2,0.2c0.1,0,0.2-0.1,0.2-0.2l0-1.9l1,1c0.1,0.1,0.2,0.1,0.2,0
	C5,23,5,22.9,5,22.8l-1-1v-4.4l4-4L7.4,12.9z"/>
<path d="M28.7,8.4c0.1-0.1,0.1-0.3,0-0.4c-0.1-0.1-0.3-0.1-0.4,0l-1.6,1.6V8c0-0.1-0.1-0.2-0.2-0.2c-0.1,0-0.2,0.1-0.2,0.2v1.6
	l-3.7,3.7h-3.1c0,0,3.3-3.3,3.5-3.5c0.2-0.2,0.2-0.5,0.2-0.5V7.6l2.7-2.1h1.9c0.1,0,0.2-0.1,0.2-0.2c0-0.1-0.1-0.2-0.2-0.2h-1.8
	l1.7-1.4c0.1-0.1,0.1-0.2,0-0.4c-0.1-0.1-0.3-0.1-0.4,0l-2.7,2.1v-3c0-0.1-0.1-0.2-0.2-0.2s-0.2,0.1-0.2,0.2v3.4l-1.3,1.1V5
	c0-0.2-0.1-0.3-0.3-0.3c-0.2,0-0.3,0.2-0.3,0.3v4l-6.4,6.4l0.9,0.8l1.9-1.9h7.9c0.2,0,0.4-0.2,0.4-0.4c0-0.2-0.2-0.4-0.4-0.4l-2.9,0
	l1.5-1.5h2.6c0.2,0,0.3-0.1,0.3-0.3c0-0.2-0.1-0.3-0.3-0.3h-2.1L28.7,8.4z"/>
</svg>
