<?xml version="1.0" encoding="utf-8"?>
<!-- Generator: Adobe Illustrator 22.1.0, SVG Export Plug-In . SVG Version: 6.00 Build 0)  -->
<svg version="1.1" id="Layer_1" xmlns="http://www.w3.org/2000/svg" xmlns:xlink="http://www.w3.org/1999/xlink" x="0px" y="0px"
	 width="14px" height="14px" viewBox="0 0 14 14" enable-background="new 0 0 14 14" xml:space="preserve">
<path d="M3.4,6L0.6,8.8C0.6,8.9,0.6,9,0.6,9.1c0.1,0.1,0.2,0.1,0.3,0l0.6-0.6v0.7L0.8,9.9c0,0,0,0.1,0,0.2c0,0,0.1,0,0.2,0l0.6-0.6
	l0,1.7c0,0.1,0,0.1,0.1,0.1c0.1,0,0.1,0,0.1-0.1l0-0.9l0.4,0.4c0,0,0.1,0,0.1,0c0,0,0-0.1,0-0.1l-0.5-0.5V8.1l1.9-1.9L3.4,6z"/>
<path d="M13.4,3.9c0-0.1,0-0.1,0-0.2c-0.1-0.1-0.1-0.1-0.2,0l-0.7,0.7V3.7c0-0.1,0-0.1-0.1-0.1c-0.1,0-0.1,0-0.1,0.1v0.8l-1.7,1.7
	H9.1c0,0,1.5-1.5,1.6-1.6c0.1-0.1,0.1-0.2,0.1-0.2V3.5l1.3-1h0.9c0.1,0,0.1,0,0.1-0.1c0,0,0-0.1-0.1-0.1h-0.8l0.8-0.7
	c0,0,0.1-0.1,0-0.2c0,0-0.1,0-0.2,0l-1.3,1V1.1c0-0.1,0-0.1-0.1-0.1c-0.1,0-0.1,0-0.1,0.1v1.6l-0.6,0.5V2.3c0-0.1-0.1-0.2-0.2-0.2
	c-0.1,0-0.2,0.1-0.2,0.2v1.9l-3,3l0.4,0.4l0.9-0.9h3.7c0.1,0,0.2-0.1,0.2-0.2c0-0.1-0.1-0.2-0.2-0.2l-1.3,0l0.7-0.7h1.2
	C13,5.6,13,5.6,13,5.5c0-0.1-0.1-0.1-0.1-0.1h-1L13.4,3.9z"/>
<circle cx="5.5" cy="1.5" r="1.2"/>
<path d="M2,4c0,0.6,0.4,1,1,1V3C2.4,3,2,3.4,2,4z"/>
<path d="M3,3v1h1C4,3.4,3.6,3,3,3z"/>
<path d="M11,5H9.2L7.6,3H7H6.5H4H3C2.4,3,2,3.4,2,4v3.5C2,7.8,2.2,8,2.5,8S3,7.8,3,7.5V5V4h1v4v5.5C4,13.8,4.2,14,4.5,14
	S5,13.8,5,13.5V8h1v5.5C6,13.8,6.2,14,6.5,14S7,13.8,7,13.5V8V3.8L8.8,6H11c0.3,0,0.5-0.2,0.5-0.5S11.3,5,11,5z"/>
</svg>
