<?xml version="1.0" encoding="utf-8"?>
<!-- Generator: Adobe Illustrator 22.1.0, SVG Export Plug-In . SVG Version: 6.00 Build 0)  -->
<svg version="1.1" id="Layer_1" xmlns="http://www.w3.org/2000/svg" xmlns:xlink="http://www.w3.org/1999/xlink" x="0px" y="0px"
	 width="22px" height="22px" viewBox="0 0 22 22" enable-background="new 0 0 22 22" xml:space="preserve">
<path d="M8.5,3.6c-1,0-1.8-0.8-1.8-1.8c0-1,0.8-1.8,1.8-1.8c1,0,1.8,0.8,1.8,1.8C10.3,2.8,9.5,3.6,8.5,3.6z"/>
<path d="M16.9,7c0,0-2.3,0-2.8,0c-0.3-0.3-2.1-1.9-2.5-2.4c0,0-0.2-0.2-0.2-0.2C11,4.2,10.5,4,9.9,4H6.2C4.8,4,3.6,5.1,3.6,6.3v5.5
	c0,1.1,1.4,1.1,1.4,0V6.4h1V21c0,0.6,0.4,1,1,1c0.6,0,1-0.5,1-1v-8h1v8c0,0.6,0.5,1,1,1c0.6,0,1-0.5,1-1V6l2.3,2.2
	c0.1,0.1,0.3,0.2,0.5,0.2h3.1c0.4,0,0.7-0.3,0.7-0.7C17.6,7.3,17.3,7,16.9,7z"/>
<path d="M5.4,9.4L1,13.9c-0.1,0.1-0.1,0.3,0,0.4c0.1,0.1,0.3,0.1,0.4,0l1-1v1.1l-1.2,1.2c-0.1,0.1-0.1,0.2,0,0.3
	c0.1,0.1,0.2,0.1,0.3,0l0.9-0.9l0,2.7c0,0.1,0.1,0.2,0.2,0.2c0.1,0,0.2-0.1,0.2-0.2l0-1.4l0.7,0.7c0,0,0.1,0,0.2,0c0,0,0-0.1,0-0.2
	L2.9,16v-3.2l2.9-2.9L5.4,9.4z"/>
<path d="M21,6.2c0.1-0.1,0.1-0.2,0-0.3c-0.1-0.1-0.2-0.1-0.3,0L19.6,7V5.9c0-0.1-0.1-0.1-0.1-0.1c-0.1,0-0.1,0.1-0.1,0.1v1.2
	l-2.7,2.7h-2.3c0,0,2.4-2.4,2.5-2.5C17,7.1,17,6.9,17,6.9V5.6L19,4h1.4c0.1,0,0.1-0.1,0.1-0.1c0-0.1-0.1-0.1-0.1-0.1H19l1.3-1
	c0.1-0.1,0.1-0.2,0-0.3c-0.1-0.1-0.2-0.1-0.3,0L18,4V1.8c0-0.1-0.1-0.2-0.2-0.2s-0.2,0.1-0.2,0.2v2.5l-1,0.8V3.6
	c0-0.1-0.1-0.2-0.2-0.2c-0.1,0-0.2,0.1-0.2,0.2v2.9l-4.7,4.7l0.6,0.6l1.4-1.4h5.8c0.2,0,0.3-0.1,0.3-0.3s-0.1-0.3-0.3-0.3l-2.1,0
	l1.1-1.1h1.9c0.1,0,0.2-0.1,0.2-0.2c0-0.1-0.1-0.2-0.2-0.2h-1.5L21,6.2z"/>
</svg>
