<?xml version="1.0" encoding="utf-8"?>
<!-- Generator: Adobe Illustrator 18.1.1, SVG Export Plug-In . SVG Version: 6.00 Build 0)  -->
<svg version="1.1" id="Layer_1" xmlns="http://www.w3.org/2000/svg" xmlns:xlink="http://www.w3.org/1999/xlink" x="0px" y="0px"
	 viewBox="0 0 32 32" enable-background="new 0 0 32 32" xml:space="preserve">
<g opacity="0.5">
	<path d="M29.026,32.292c-4.387,0-18.614-0.287-21.361-0.287c-2.05,0-2.829,0.082-3.854,0.123v-1.846l18.532-25.01h-9.307
		c-4.223,0-4.879,1.23-5.904,5.208H5.123l0.902-7.626c5.822,0,15.211,0.246,19.188,0.246c1.312,0,3.321-0.082,4.552-0.164v1.927
		L11.191,29.831h10.62c4.305,0,5.658-2.705,6.765-5.986l1.886,0.287L29.026,32.292z"/>
</g>
<g opacity="0.75">
	<path d="M27.316,31.292c-4.387,0-18.614-0.287-21.361-0.287c-2.05,0-2.829,0.082-3.854,0.123v-1.846l18.532-25.01h-9.307
		c-4.223,0-4.879,1.23-5.904,5.208H3.413l0.902-7.626c5.822,0,15.211,0.246,19.188,0.246c1.312,0,3.321-0.082,4.552-0.164v1.927
		L9.48,28.831H20.1c4.305,0,5.658-2.705,6.765-5.986l1.886,0.287L27.316,31.292z"/>
</g>
<g>
	<path fill="#FFFFFF" d="M26.215,29.728c-4.387,0-18.614-0.287-21.361-0.287c-2.05,0-2.829,0.082-3.854,0.123v-1.846l18.532-25.01
		h-9.307c-4.223,0-4.879,1.23-5.904,5.208H2.312l0.902-7.626c5.822,0,15.211,0.246,19.188,0.246c1.312,0,3.321-0.082,4.552-0.164
		v1.927L8.38,27.267H19c4.305,0,5.658-2.705,6.765-5.986l1.886,0.287L26.215,29.728z"/>
</g>
</svg>
