<?xml version="1.0" encoding="utf-8"?>
<!-- Generator: Adobe Illustrator 18.1.1, SVG Export Plug-In . SVG Version: 6.00 Build 0)  -->
<svg version="1.1" id="Layer_1" xmlns="http://www.w3.org/2000/svg" xmlns:xlink="http://www.w3.org/1999/xlink" x="0px" y="0px"
	 viewBox="0 0 16 16" enable-background="new 0 0 16 16" xml:space="preserve">
<g opacity="0.5">
	<path d="M14.856,16.204c-2.033,0-8.625-0.133-9.898-0.133c-0.949,0-1.311,0.038-1.785,0.057v-0.855L11.76,3.685H7.447
		c-1.956,0-2.261,0.57-2.735,2.413H3.78l0.418-3.533c2.698,0,7.049,0.114,8.891,0.114c0.608,0,1.539-0.038,2.109-0.076v0.893
		L6.593,15.064h4.92c1.994,0,2.622-1.254,3.135-2.773l0.874,0.133L14.856,16.204z"/>
</g>
<g opacity="0.75">
	<path d="M13.146,15.204c-2.033,0-8.625-0.133-9.898-0.133c-0.949,0-1.311,0.038-1.785,0.057v-0.855l8.587-11.588H5.737
		c-1.956,0-2.261,0.57-2.735,2.413H2.07l0.418-3.533c2.698,0,7.049,0.114,8.891,0.114c0.608,0,1.539-0.038,2.109-0.076v0.893
		L4.882,14.064h4.92c1.994,0,2.622-1.254,3.135-2.773l0.874,0.133L13.146,15.204z"/>
</g>
<g>
	<path fill="#FFFFFF" d="M12.045,13.64c-2.033,0-8.625-0.133-9.898-0.133c-0.949,0-1.311,0.038-1.785,0.057v-0.855L8.949,1.121
		H4.636c-1.956,0-2.261,0.57-2.735,2.413H0.969L1.387,0c2.698,0,7.049,0.114,8.891,0.114c0.608,0,1.539-0.038,2.109-0.076v0.893
		L3.782,12.5h4.92c1.994,0,2.622-1.254,3.135-2.773l0.874,0.133L12.045,13.64z"/>
</g>
</svg>
