<?xml version="1.0" encoding="utf-8"?>
<!-- Generator: Adobe Illustrator 18.1.1, SVG Export Plug-In . SVG Version: 6.00 Build 0)  -->
<svg version="1.1" id="Layer_1" xmlns="http://www.w3.org/2000/svg" xmlns:xlink="http://www.w3.org/1999/xlink" x="0px" y="0px"
	 viewBox="0 0 24 24" enable-background="new 0 0 24 24" xml:space="preserve">
<g opacity="0.5">
	<path d="M21.941,24.248c-3.21,0-13.62-0.21-15.63-0.21c-1.5,0-2.069,0.061-2.819,0.09v-1.35l13.56-18.3h-6.811
		c-3.09,0-3.569,0.9-4.319,3.81h-1.47l0.66-5.58c4.26,0,11.129,0.18,14.039,0.18c0.96,0,2.43-0.06,3.33-0.12v1.41l-13.59,18.27h7.77
		c3.15,0,4.141-1.98,4.95-4.38l1.38,0.21L21.941,24.248z"/>
</g>
<g opacity="0.75">
	<path d="M20.231,23.248c-3.21,0-13.62-0.21-15.63-0.21c-1.5,0-2.069,0.061-2.819,0.09v-1.35l13.56-18.3H8.531
		c-3.09,0-3.569,0.9-4.319,3.81h-1.47l0.66-5.58c4.26,0,11.129,0.18,14.039,0.18c0.96,0,2.43-0.06,3.33-0.12v1.41l-13.59,18.27h7.77
		c3.15,0,4.141-1.98,4.95-4.38l1.38,0.21L20.231,23.248z"/>
</g>
<g>
	<path fill="#FFFFFF" d="M19.13,21.684c-3.21,0-13.62-0.21-15.63-0.21c-1.5,0-2.069,0.061-2.819,0.09v-1.35l13.56-18.3H7.43
		c-3.09,0-3.569,0.9-4.319,3.81h-1.47l0.66-5.58c4.26,0,11.129,0.18,14.039,0.18c0.96,0,2.43-0.06,3.33-0.12v1.41l-13.59,18.27h7.77
		c3.15,0,4.141-1.98,4.95-4.38l1.38,0.21L19.13,21.684z"/>
</g>
</svg>
