<?xml version="1.0" encoding="utf-8"?>
<!-- Generator: Adobe Illustrator 18.1.1, SVG Export Plug-In . SVG Version: 6.00 Build 0)  -->
<svg version="1.1" id="Layer_1" xmlns="http://www.w3.org/2000/svg" xmlns:xlink="http://www.w3.org/1999/xlink" x="0px" y="0px"
	 viewBox="0 0 24 24" enable-background="new 0 0 24 24" xml:space="preserve">
<polygon opacity="0.2" points="20,4 19,4 12,4 12,7 19,7 19,18 12,18 12,21 19,21 20,21 22,21 22,4 "/>
<polygon opacity="0.2" points="16,12.5 12,9 12,11 5,11 5,14 12,14 12,16 "/>
<polygon fill="#FFFFFF" points="19,3 18,3 11,3 11,6 18,6 18,17 11,17 11,20 18,20 19,20 21,20 21,3 "/>
<polygon fill="#FFFFFF" points="15,11.5 11,8 11,10 4,10 4,13 11,13 11,15 "/>
</svg>
