<?xml version="1.0" encoding="utf-8"?>
<!-- Generator: Adobe Illustrator 18.1.1, SVG Export Plug-In . SVG Version: 6.00 Build 0)  -->
<svg version="1.1" id="Layer_1" xmlns="http://www.w3.org/2000/svg" xmlns:xlink="http://www.w3.org/1999/xlink" x="0px" y="0px"
	 viewBox="0 0 12 12" enable-background="new 0 0 12 12" xml:space="preserve">
<g opacity="0.2">
	<rect x="5" y="5" fill="none" width="2" height="3"/>
	<path d="M12,8V6H9v2h1v2H8V5h1L6,2L3,5h1v5H3v1h9v-1h-1V8H12z M7,5v3H5V5H7z"/>
</g>
<g>
	<rect x="4" y="4" fill="none" width="2" height="3"/>
	<path fill="#FFFFFF" d="M11,7V5H8v2h1v2H7V4h1L5,1L2,4h1v5H2v1h9V9h-1V7H11z M6,4v3H4V4H6z"/>
</g>
</svg>
