<?xml version="1.0" encoding="utf-8"?>
<!-- Generator: Adobe Illustrator 18.1.1, SVG Export Plug-In . SVG Version: 6.00 Build 0)  -->
<svg version="1.1" id="Layer_1" xmlns="http://www.w3.org/2000/svg" xmlns:xlink="http://www.w3.org/1999/xlink" x="0px" y="0px"
	 viewBox="0 0 12 12" enable-background="new 0 0 12 12" xml:space="preserve">
<polygon opacity="0.2" points="7,2 7,3 11,3 11,10 7,10 7,11 12,11 12,2 "/>
<polygon opacity="0.2" points="9.5,6.5 7,4 7,6 3,6 3,7 7,7 7,9 "/>
<polygon points="6,1 6,2 10,2 10,9 6,9 6,10 11,10 11,1 "/>
<polygon points="8.5,5.5 6,3 6,5 2,5 2,6 6,6 6,8 "/>
</svg>
