<?xml version="1.0" encoding="utf-8"?>
<!-- Generator: Adobe Illustrator 18.1.1, SVG Export Plug-In . SVG Version: 6.00 Build 0)  -->
<svg version="1.1" id="Layer_1" xmlns="http://www.w3.org/2000/svg" xmlns:xlink="http://www.w3.org/1999/xlink" x="0px" y="0px"
	 viewBox="0 0 24 24" enable-background="new 0 0 24 24" xml:space="preserve">
<g opacity="0.2">
	<path d="M15.818,8.636c0,0-0.61,2.294-3.082,2.302C12.736,10.94,12.535,9.299,15.818,8.636z"/>
	<path d="M13.502,12.738c0.409-0.413,0.969-0.661,1.59-0.661c1.253,0,2.272,1.033,2.272,2.311l-0.002,0.137h-0.004
		c-0.04,0.5-0.196,1.121-0.566,1.892c0,0-0.636,1.239-1.147,1.809l-0.046,0.045c-0.247,0.253-0.594,0.412-0.971,0.412
		c-0.462,0-0.878-0.419-1.127-0.773c-0.249,0.354-0.658,0.773-1.121,0.773c-0.381,0-0.724-0.157-0.973-0.412l-0.046-0.045
		c-0.506-0.569-1.147-1.809-1.147-1.809c-0.37-0.771-0.526-1.396-0.561-1.892H9.643l-0.007-0.137c0-1.278,1.019-2.311,2.276-2.311
		C12.529,12.077,13.088,12.325,13.502,12.738"/>
</g>
<polygon opacity="0.2" points="20,9 20,19 7,19 7,9.32 22.096,5.5 21.609,4 5.057,8.294 5.131,9 5,9 5,19.455 5,19.825 5,21 22,21 
	22,19.825 22,19.455 22,9 "/>
<g>
	<path d="M14.818,7.636c0,0-0.61,2.294-3.082,2.302C11.736,9.94,11.535,8.299,14.818,7.636z"/>
	<path d="M12.502,11.738c0.409-0.413,0.969-0.661,1.59-0.661c1.253,0,2.272,1.033,2.272,2.311l-0.002,0.137h-0.004
		c-0.04,0.5-0.196,1.121-0.566,1.892c0,0-0.636,1.239-1.147,1.809l-0.046,0.045c-0.247,0.253-0.594,0.412-0.971,0.412
		c-0.462,0-0.878-0.419-1.127-0.773c-0.249,0.354-0.658,0.773-1.121,0.773c-0.381,0-0.724-0.157-0.973-0.412l-0.046-0.045
		c-0.506-0.569-1.147-1.809-1.147-1.809c-0.37-0.771-0.526-1.396-0.561-1.892H8.643l-0.007-0.137c0-1.278,1.019-2.311,2.276-2.311
		C11.529,11.077,12.088,11.325,12.502,11.738"/>
</g>
<polygon points="19,8 19,18 6,18 6,8.32 21.096,4.5 20.609,3 4.057,7.294 4.131,8 4,8 4,18.455 4,18.825 4,20 21,20 21,18.825 
	21,18.455 21,8 "/>
</svg>
