<?xml version="1.0" encoding="utf-8"?>
<!-- Generator: Adobe Illustrator 18.1.1, SVG Export Plug-In . SVG Version: 6.00 Build 0)  -->
<svg version="1.1" id="Icons" xmlns="http://www.w3.org/2000/svg" xmlns:xlink="http://www.w3.org/1999/xlink" x="0px" y="0px"
	 viewBox="0 0 32 32" enable-background="new 0 0 32 32" xml:space="preserve">
<g opacity="0.5">
	<polygon points="17,30 16,30 12,32 12,29 13,29 13,28 14,28 14,27 15,27 15,20 14,20 3,24 2,24 2,21 15,13 15,4 16,2 17,2 18,4 
		18,13 31,21 31,24 30,24 19,20 18,20 18,27 19,27 19,28 20,28 20,29 21,29 21,32 	"/>
</g>
<g opacity="0.75">
	<polygon points="16,29 15,29 11,31 11,28 12,28 12,27 13,27 13,26 14,26 14,19 13,19 2,23 1,23 1,20 14,12 14,3 15,1 16,1 17,3 
		17,12 30,20 30,23 29,23 18,19 17,19 17,26 18,26 18,27 19,27 19,28 20,28 20,31 	"/>
</g>
<g>
	<polygon fill="#E6E6E6" points="15,28 14,28 10,30 10,27 11,27 11,26 12,26 12,25 13,25 13,18 12,18 1,22 0,22 0,19 13,11 13,2 
		14,0 15,0 16,2 16,11 29,19 29,22 28,22 17,18 16,18 16,25 17,25 17,26 18,26 18,27 19,27 19,30 	"/>
</g>
</svg>
