<?xml version="1.0" encoding="utf-8"?>
<!-- Generator: Adobe Illustrator 18.1.1, SVG Export Plug-In . SVG Version: 6.00 Build 0)  -->
<svg version="1.1" id="Icons" xmlns="http://www.w3.org/2000/svg" xmlns:xlink="http://www.w3.org/1999/xlink" x="0px" y="0px"
	 viewBox="0 0 16 16" enable-background="new 0 0 16 16" xml:space="preserve">
<g opacity="0.1">
	<polygon points="6,16 8,14 8,10 3,12 2,12 2,11 8,7 8,3 9,2 10,3 10,7 16,11 16,12 15,12 10,10 10,14 12,16 	"/>
</g>
<g opacity="0.2">
	<polygon points="5,15 7,13 7,9 2,11 1,11 1,10 7,6 7,2 8,1 9,2 9,6 15,10 15,11 14,11 9,9 9,13 11,15 	"/>
</g>
<g>
	<polygon points="4,14 6,12 6,8 1,10 0,10 0,9 6,5 6,1 7,0 8,1 8,5 14,9 14,10 13,10 8,8 8,12 10,14 	"/>
</g>
</svg>
