<?xml version="1.0" encoding="utf-8"?>
<!-- Generator: Adobe Illustrator 18.1.1, SVG Export Plug-In . SVG Version: 6.00 Build 0)  -->
<svg version="1.1" id="Icons" xmlns="http://www.w3.org/2000/svg" xmlns:xlink="http://www.w3.org/1999/xlink" x="0px" y="0px"
	 viewBox="0 0 16 16" enable-background="new 0 0 16 16" xml:space="preserve">
<g opacity="0.1">
	<path d="M13.2,10.6c-1,0.6-2.3,1-3.7,1c-1.4,0-2.6-0.4-3.7-1L5,11.8C6.3,12.5,7.8,13,9.5,13c1.7,0,3.2-0.5,4.5-1.3L13.2,10.6z"/>
	<path d="M14.3,13.2c-1.4,0.9-3,1.5-4.8,1.5c-1.8,0-3.4-0.5-4.7-1.4L4,14.3C5.6,15.4,7.5,16,9.5,16c2,0,3.9-0.6,5.5-1.7L14.3,13.2z"
		/>
	<polygon points="7,6 6,7 6,9 7,9 7,7 8,7 8,10 11,10 11,7 12,7 12,9 13,9 13,7 12,6 	"/>
	<path d="M9.5,5L9.5,5C8.7,5,8,4.3,8,3.5S8.7,2,9.5,2S11,2.7,11,3.5S10.3,5,9.5,5z"/>
</g>
<g opacity="0.2">
	<path d="M12.2,9.6c-1,0.6-2.3,1-3.7,1c-1.4,0-2.6-0.4-3.7-1L4,10.8C5.3,11.5,6.8,12,8.5,12c1.7,0,3.2-0.5,4.5-1.3L12.2,9.6z"/>
	<path d="M13.3,12.2c-1.4,0.9-3,1.5-4.8,1.5c-1.8,0-3.4-0.5-4.7-1.4L3,13.3C4.6,14.4,6.5,15,8.5,15c2,0,3.9-0.6,5.5-1.7L13.3,12.2z"
		/>
	<polygon points="6,5 5,6 5,8 6,8 6,6 7,6 7,9 10,9 10,6 11,6 11,8 12,8 12,6 11,5 	"/>
	<path d="M8.5,4L8.5,4C7.7,4,7,3.3,7,2.5S7.7,1,8.5,1S10,1.7,10,2.5S9.3,4,8.5,4z"/>
</g>
<g>
	<path d="M11.2,8.6c-1,0.6-2.3,1-3.7,1c-1.4,0-2.6-0.4-3.7-1L3,9.8C4.3,10.5,5.8,11,7.5,11c1.7,0,3.2-0.5,4.5-1.3L11.2,8.6z"/>
	<path d="M12.3,11.2c-1.4,0.9-3,1.5-4.8,1.5c-1.8,0-3.4-0.5-4.7-1.4L2,12.3C3.6,13.4,5.5,14,7.5,14c2,0,3.9-0.6,5.5-1.7L12.3,11.2z"
		/>
	<polygon points="5,4 4,5 4,7 5,7 5,5 6,5 6,8 9,8 9,5 10,5 10,7 11,7 11,5 10,4 	"/>
	<path d="M7.5,3L7.5,3C6.7,3,6,2.3,6,1.5S6.7,0,7.5,0S9,0.7,9,1.5S8.3,3,7.5,3z"/>
</g>
</svg>
