<?xml version="1.0" encoding="utf-8"?>
<!-- Generator: Adobe Illustrator 18.1.1, SVG Export Plug-In . SVG Version: 6.00 Build 0)  -->
<svg version="1.1" id="Icons" xmlns="http://www.w3.org/2000/svg" xmlns:xlink="http://www.w3.org/1999/xlink" x="0px" y="0px"
	 viewBox="0 0 24 24" enable-background="new 0 0 24 24" xml:space="preserve">
<g opacity="0.1">
	<polygon points="11,12 14,12 14,8 15,8 15,11 16,11 16,7 14,6 11,6 9,7 9,11 10,11 10,8 11,8 	"/>
	<path d="M12.9,5h-0.8C11.5,5,11,4.5,11,3.9V3.1C11,2.5,11.5,2,12.1,2h0.8C13.5,2,14,2.5,14,3.1v0.8C14,4.5,13.5,5,12.9,5z"/>
	<path d="M18.6,14.2c-1.9,1.2-4,1.8-6.2,1.8c-2.2,0-4.3-0.6-6.1-1.8l1-1.7c1.6,1,3.3,1.6,5.1,1.6c1.8,0,3.5-0.5,5.1-1.5L18.6,14.2z"
		/>
	<path d="M20.7,17.5c-2.5,1.6-5.3,2.5-8.3,2.5c-3,0-5.7-0.9-8.2-2.4l1-1.7c2.2,1.4,4.6,2.1,7.2,2.1c2.6,0,5-0.8,7.2-2.1L20.7,17.5z"
		/>
	<path d="M2.1,21c3.1,2,6.6,3,10.3,3c3.8,0,7.3-1.1,10.4-3.1l-1.1-1.7C19,21,15.8,22,12.4,22c-3.3,0-6.5-1-9.3-2.7L2.1,21z"/>
</g>
<polygon points="9,10 12,10 12,6 13,6 13,9 14,9 14,5 12,4 9,4 7,5 7,9 8,9 8,6 9,6 "/>
<path d="M10.9,3h-0.8C9.5,3,9,2.5,9,1.9V1.1C9,0.5,9.5,0,10.1,0h0.8C11.5,0,12,0.5,12,1.1v0.8C12,2.5,11.5,3,10.9,3z"/>
<line opacity="0.2" fill="none" stroke="#000000" stroke-width="0.25" stroke-miterlimit="10" x1="1" y1="19.5" x2="1" y2="19.5"/>
<g opacity="0.2">
	<polygon points="10,11 13,11 13,7 14,7 14,10 15,10 15,6 13,5 10,5 8,6 8,10 9,10 9,7 10,7 	"/>
	<path d="M11.9,4h-0.8C10.5,4,10,3.5,10,2.9V2.1C10,1.5,10.5,1,11.1,1h0.8C12.5,1,13,1.5,13,2.1v0.8C13,3.5,12.5,4,11.9,4z"/>
	<path d="M17.6,12.8c-1.9,1.2-4,1.8-6.2,1.8c-2.2,0-4.3-0.6-6.1-1.8l1-1.7c1.6,1,3.3,1.6,5.1,1.6c1.8,0,3.5-0.5,5.1-1.5L17.6,12.8z"
		/>
	<path d="M19.7,16.1c-2.5,1.6-5.3,2.5-8.3,2.5c-3,0-5.7-0.9-8.2-2.4l1-1.7c2.2,1.4,4.6,2.1,7.2,2.1c2.6,0,5-0.8,7.2-2.1L19.7,16.1z"
		/>
	<path d="M1.1,19.5c3.1,2,6.6,3,10.3,3c3.8,0,7.3-1.1,10.4-3.1l-1.1-1.7c-2.8,1.8-6,2.8-9.3,2.8c-3.3,0-6.5-1-9.3-2.7L1.1,19.5z"/>
</g>
<path d="M16.6,11.8c-1.9,1.2-4,1.8-6.2,1.8c-2.2,0-4.3-0.6-6.1-1.8l1-1.7c1.6,1,3.3,1.6,5.1,1.6c1.8,0,3.5-0.5,5.1-1.5L16.6,11.8z"
	/>
<path d="M18.7,15.1c-2.5,1.6-5.3,2.5-8.3,2.5c-3,0-5.7-0.9-8.2-2.4l1-1.7c2.2,1.4,4.6,2.1,7.2,2.1c2.6,0,5-0.8,7.2-2.1L18.7,15.1z"
	/>
<line fill="none" stroke="#000000" stroke-width="0.25" stroke-miterlimit="10" x1="0" y1="18.5" x2="0" y2="18.5"/>
<path d="M0.1,18.5c3.1,2,6.6,3,10.3,3c3.8,0,7.3-1.1,10.4-3.1l-1.1-1.7c-2.8,1.8-6,2.8-9.3,2.8c-3.3,0-6.5-1-9.3-2.7L0.1,18.5z"/>
</svg>
