<?xml version="1.0" encoding="utf-8"?>
<!-- Generator: Adobe Illustrator 18.1.1, SVG Export Plug-In . SVG Version: 6.00 Build 0)  -->
<svg version="1.1" id="Icons" xmlns="http://www.w3.org/2000/svg" xmlns:xlink="http://www.w3.org/1999/xlink" x="0px" y="0px"
	 viewBox="0 0 16 16" enable-background="new 0 0 16 16" xml:space="preserve">
<g opacity="0.1">
	<path d="M11.8,8.9c-0.2,0-0.3-0.1-0.4-0.3l-0.7-1.1L9.2,9l1.3,0.7c0.5,0.3,0.5,0.7,0.5,0.7v3c0,0.3-0.3,0.6-0.6,0.6
		s-0.6-0.3-0.6-0.6V11L7.5,9.7C7.2,9.6,7,9.3,7,8.9c0-0.2,0.1-0.4,0.2-0.6l2.3-2.3c0.3-0.3,0.7-0.3,0.7-0.3c0.5,0,0.7,0.4,0.7,0.4
		L12,8.1l1.8,0c0.6,0,0.6,0.8,0,0.8L11.8,8.9L11.8,8.9z"/>
	<polygon points="12,3 13,3 13,4 14,4 14,5 13,5 13,6 12,6 12,5 11,5 11,4 12,4 	"/>
	<path d="M3,10h4v1h1v4H7v1H3v-1H2v-4h1V10z M4,12H3v2h1v1h2v-1h1v-2H6v-1H4V12z"/>
	<path d="M13,10h4v1h1v4h-1v1h-4v-1h-1v-4h1V10z M14,12h-1v2h1v1h2v-1h1v-2h-1v-1h-2V12z"/>
</g>
<g opacity="0.2">
	<path d="M10.8,7.9c-0.2,0-0.3-0.1-0.4-0.3L9.6,6.5L8.2,8l1.3,0.7C10.1,8.9,10,9.4,10,9.4v3c0,0.3-0.3,0.6-0.6,0.6s-0.6-0.3-0.6-0.6
		V10L6.5,8.7C6.2,8.6,6,8.3,6,7.9c0-0.2,0.1-0.4,0.2-0.6l2.3-2.3c0.3-0.3,0.7-0.3,0.7-0.3c0.5,0,0.7,0.4,0.7,0.4L11,7.1l1.8,0
		c0.6,0,0.6,0.8,0,0.8L10.8,7.9L10.8,7.9z"/>
	<polygon points="11,2 12,2 12,3 13,3 13,4 12,4 12,5 11,5 11,4 10,4 10,3 11,3 	"/>
	<path d="M2,9h4v1h1v4H6v1H2v-1H1v-4h1V9z M3,11H2v2h1v1h2v-1h1v-2H5v-1H3V11z"/>
	<path d="M12,9h4v1h1v4h-1v1h-4v-1h-1v-4h1V9z M13,11h-1v2h1v1h2v-1h1v-2h-1v-1h-2V11z"/>
</g>
<g>
	<path d="M9.8,6.9c-0.2,0-0.3-0.1-0.4-0.3L8.6,5.5L7.2,7l1.3,0.7C9.1,7.9,9,8.4,9,8.4v3C9,11.7,8.7,12,8.4,12s-0.6-0.3-0.6-0.6V9
		L5.5,7.7C5.2,7.6,5,7.3,5,6.9c0-0.2,0.1-0.4,0.2-0.6l2.3-2.3c0.3-0.3,0.7-0.3,0.7-0.3c0.5,0,0.7,0.4,0.7,0.4L10,6.1l1.8,0
		c0.6,0,0.6,0.8,0,0.8L9.8,6.9L9.8,6.9z"/>
	<polygon points="10,1 11,1 11,2 12,2 12,3 11,3 11,4 10,4 10,3 9,3 9,2 10,2 	"/>
	<path d="M1,8h4v1h1v4H5v1H1v-1H0V9h1V8z M2,10H1v2h1v1h2v-1h1v-2H4V9H2V10z"/>
	<path d="M11,8h4v1h1v4h-1v1h-4v-1h-1V9h1V8z M12,10h-1v2h1v1h2v-1h1v-2h-1V9h-2V10z"/>
</g>
</svg>
