<?xml version="1.0" encoding="utf-8"?>
<!-- Generator: Adobe Illustrator 18.1.1, SVG Export Plug-In . SVG Version: 6.00 Build 0)  -->
<svg version="1.1" id="Icons" xmlns="http://www.w3.org/2000/svg" xmlns:xlink="http://www.w3.org/1999/xlink" x="0px" y="0px"
	 viewBox="0 0 24 24" enable-background="new 0 0 24 24" xml:space="preserve">
<g opacity="0.5">
	<path d="M6.5,22c1.9,0,3.5-1.6,3.5-3.5c0-1.9-1.6-3.5-3.5-3.5C4.6,15,3,16.6,3,18.5C3,20.4,4.6,22,6.5,22z M2,18.5
		C2,16,4,14,6.5,14C9,14,11,16,11,18.5C11,21,9,23,6.5,23C4,23,2,21,2,18.5z"/>
	<path d="M20.5,22c1.9,0,3.5-1.6,3.5-3.5c0-1.9-1.6-3.5-3.5-3.5c-1.9,0-3.5,1.6-3.5,3.5C17,20.4,18.6,22,20.5,22z M16,18.5
		c0-2.5,2-4.5,4.5-4.5c2.5,0,4.5,2,4.5,4.5c0,2.5-2,4.5-4.5,4.5C18,23,16,21,16,18.5z"/>
	<path d="M16.2,11.8c-0.2,0-0.5-0.1-0.7-0.4l-1.1-1.7l-2.2,2.2l2.1,1.1c0.9,0.4,0.7,1.2,0.7,1.2v4.7c0,0.5-0.4,1-1,1s-1-0.4-1-1
		v-3.8l-3.6-2c-0.4-0.2-0.7-0.7-0.7-1.2c0-0.4,0.1-0.7,0.4-0.9l3.5-3.5C13,6.9,13.7,7,13.7,7c0.7,0,1.1,0.6,1.1,0.6l1.8,2.9l2.8,0
		c1,0,1,1.3,0,1.3L16.2,11.8L16.2,11.8z"/>
	<polygon points="16,3 18,3 18,4 19,4 19,6 18,6 18,7 16,7 16,6 15,6 15,4 16,4 	"/>
</g>
<g opacity="0.75">
	<path d="M5.5,21C7.4,21,9,19.4,9,17.5C9,15.6,7.4,14,5.5,14C3.6,14,2,15.6,2,17.5C2,19.4,3.6,21,5.5,21z M1,17.5C1,15,3,13,5.5,13
		C8,13,10,15,10,17.5C10,20,8,22,5.5,22C3,22,1,20,1,17.5z"/>
	<path d="M19.5,21c1.9,0,3.5-1.6,3.5-3.5c0-1.9-1.6-3.5-3.5-3.5c-1.9,0-3.5,1.6-3.5,3.5C16,19.4,17.6,21,19.5,21z M15,17.5
		c0-2.5,2-4.5,4.5-4.5c2.5,0,4.5,2,4.5,4.5c0,2.5-2,4.5-4.5,4.5C17,22,15,20,15,17.5z"/>
	<path d="M15.2,10.8c-0.2,0-0.5-0.1-0.7-0.4l-1.1-1.7l-2.2,2.2l2.1,1.1c0.9,0.4,0.7,1.2,0.7,1.2v4.7c0,0.5-0.4,1-1,1s-1-0.4-1-1
		v-3.8l-3.6-2c-0.4-0.2-0.7-0.7-0.7-1.2c0-0.4,0.1-0.7,0.4-0.9l3.5-3.5C12,5.9,12.7,6,12.7,6c0.7,0,1.1,0.6,1.1,0.6l1.8,2.9l2.8,0
		c1,0,1,1.3,0,1.3L15.2,10.8L15.2,10.8z"/>
	<polygon points="15,2 17,2 17,3 18,3 18,5 17,5 17,6 15,6 15,5 14,5 14,3 15,3 	"/>
</g>
<g>
	<path fill="#E6E6E6" d="M4.5,20C6.4,20,8,18.4,8,16.5C8,14.6,6.4,13,4.5,13C2.6,13,1,14.6,1,16.5C1,18.4,2.6,20,4.5,20z M0,16.5
		C0,14,2,12,4.5,12C7,12,9,14,9,16.5C9,19,7,21,4.5,21C2,21,0,19,0,16.5z"/>
	<path fill="#E6E6E6" d="M18.5,20c1.9,0,3.5-1.6,3.5-3.5c0-1.9-1.6-3.5-3.5-3.5c-1.9,0-3.5,1.6-3.5,3.5C15,18.4,16.6,20,18.5,20z
		 M14,16.5c0-2.5,2-4.5,4.5-4.5c2.5,0,4.5,2,4.5,4.5c0,2.5-2,4.5-4.5,4.5C16,21,14,19,14,16.5z"/>
	<path fill="#E6E6E6" d="M14.2,9.8c-0.2,0-0.5-0.1-0.7-0.4l-1.1-1.7l-2.2,2.2l2.1,1.1c0.9,0.4,0.7,1.2,0.7,1.2v4.7c0,0.5-0.4,1-1,1
		s-1-0.4-1-1v-3.8l-3.6-2C7,10.8,6.7,10.4,6.7,9.9c0-0.4,0.1-0.7,0.4-0.9l3.5-3.5C11,4.9,11.7,5,11.7,5c0.7,0,1.1,0.6,1.1,0.6
		l1.8,2.9l2.8,0c1,0,1,1.3,0,1.3L14.2,9.8L14.2,9.8z"/>
	<polygon fill="#E6E6E6" points="14,1 16,1 16,2 17,2 17,4 16,4 16,5 14,5 14,4 13,4 13,2 14,2 	"/>
</g>
</svg>
