<?xml version="1.0" encoding="utf-8"?>
<!-- Generator: Adobe Illustrator 18.1.1, SVG Export Plug-In . SVG Version: 6.00 Build 0)  -->
<svg version="1.1" id="Icons" xmlns="http://www.w3.org/2000/svg" xmlns:xlink="http://www.w3.org/1999/xlink" x="0px" y="0px"
	 viewBox="0 0 24 24" enable-background="new 0 0 24 24" xml:space="preserve">
<g opacity="0.1">
	<path d="M16.9,5H2v7h19v-1l-2.5-5C18.2,5.4,17.6,5,16.9,5z M6,11H3V8l1-1h1l1,1V11z M10,11H7V8l1-1h1l1,1V11z M14,11h-3V8l1-1h1
		l1,1V11z M16,11V7h1h1l2,4H16z"/>
	<polygon points="5,18 6,18 8,17 9,17 11,18 12,18 14,17 15,17 17,18 18,18 20,17 20.8,17 24,13 2,13 2,17 3,17 	"/>
	<polygon points="2,19 3,19 5,20 6,20 8,19 9,19 11,20 12,20 14,19 15,19 17,20 18,20 20,19 21,19 23,20 24,20 24,22 23,22 21,21 
		20,21 18,22 17,22 15,21 14,21 12,22 11,22 9,21 8,21 6,22 5,22 3,21 2,21 	"/>
</g>
<g opacity="0.2">
	<path d="M15.9,4H1v7h19v-1l-2.5-5C17.2,4.4,16.6,4,15.9,4z M5,10H2V7l1-1h1l1,1V10z M9,10H6V7l1-1h1l1,1V10z M13,10h-3V7l1-1h1l1,1
		V10z M15,10V6h1h1l2,4H15z"/>
	<polygon points="4,17 5,17 7,16 8,16 10,17 11,17 13,16 14,16 16,17 17,17 19,16 19.8,16 23,12 1,12 1,16 2,16 	"/>
	<polygon points="1,18 2,18 4,19 5,19 7,18 8,18 10,19 11,19 13,18 14,18 16,19 17,19 19,18 20,18 22,19 23,19 23,21 22,21 20,20 
		19,20 17,21 16,21 14,20 13,20 11,21 10,21 8,20 7,20 5,21 4,21 2,20 1,20 	"/>
</g>
<g>
	<path d="M14.9,3H0v7h19V9l-2.5-5C16.2,3.4,15.6,3,14.9,3z M4,9H1V6l1-1h1l1,1V9z M8,9H5V6l1-1h1l1,1V9z M12,9H9V6l1-1h1l1,1V9z
		 M14,9V5h1h1l2,4H14z"/>
	<polygon points="3,16 4,16 6,15 7,15 9,16 10,16 12,15 13,15 15,16 16,16 18,15 18.8,15 22,11 0,11 0,15 1,15 	"/>
	<polygon points="0,17 1,17 3,18 4,18 6,17 7,17 9,18 10,18 12,17 13,17 15,18 16,18 18,17 19,17 21,18 22,18 22,20 21,20 19,19 
		18,19 16,20 15,20 13,19 12,19 10,20 9,20 7,19 6,19 4,20 3,20 1,19 0,19 	"/>
</g>
</svg>
