<?xml version="1.0" encoding="utf-8"?>
<!-- Generator: Adobe Illustrator 18.1.1, SVG Export Plug-In . SVG Version: 6.00 Build 0)  -->
<svg version="1.1" id="Icons" xmlns="http://www.w3.org/2000/svg" xmlns:xlink="http://www.w3.org/1999/xlink" x="0px" y="0px"
	 viewBox="0 0 32 32" enable-background="new 0 0 32 32" xml:space="preserve">
<g opacity="0.5">
	<polygon points="2,25.7 4,25 5,25 8,26 9,26 12,25 13,25 16,26 17,26 20,25 21,25 24,26 25,26 28,25 29,25 32,26 32,23 29,22 
		28,22 25,23 24,23 21,22 20,22 17,23 16,23 13,22 12,22 9,23 8,23 5,22 4,22 2,22.7 	"/>
	<path d="M22.8,6H2v8h26v-1l-3.3-5C24.2,7.4,23.6,6,22.8,6z M7,13H4V9l1-1h1l1,1V13z M12,13H9V9l1-1h1l1,1V13z M17,13h-3V9l1-1h1
		l1,1V13z M26,13h-5l-1-3V8h3l3,4V13z"/>
	<polygon points="5,20 8,21 9,21 12,20 13,20 16,21 17,21 20,20 21,20 24,21 25,21 27.8,20.1 32,15 2,15 2,20.7 4,20 	"/>
</g>
<g opacity="0.75">
	<polygon points="1,24.7 3,24 4,24 7,25 8,25 11,24 12,24 15,25 16,25 19,24 20,24 23,25 24,25 27,24 28,24 31,25 31,22 28,21 
		27,21 24,22 23,22 20,21 19,21 16,22 15,22 12,21 11,21 8,22 7,22 4,21 3,21 1,21.7 	"/>
	<path d="M21.8,5H1v8h26v-1l-3.3-5C23.2,6.4,22.6,5,21.8,5z M6,12H3V8l1-1h1l1,1V12z M11,12H8V8l1-1h1l1,1V12z M16,12h-3V8l1-1h1
		l1,1V12z M25,12h-5l-1-3V7h3l3,4V12z"/>
	<polygon points="4,19 7,20 8,20 11,19 12,19 15,20 16,20 19,19 20,19 23,20 24,20 26.8,19.1 31,14 1,14 1,19.7 3,19 	"/>
</g>
<g>
	<polygon fill="#FFFFFF" points="0,23.7 2,23 3,23 6,24 7,24 10,23 11,23 14,24 15,24 18,23 19,23 22,24 23,24 26,23 27,23 30,24 
		30,21 27,20 26,20 23,21 22,21 19,20 18,20 15,21 14,21 11,20 10,20 7,21 6,21 3,20 2,20 0,20.7 	"/>
	<path fill="#FFFFFF" d="M20.8,4H0v8h26v-1l-3.3-5C22.2,5.4,21.6,4,20.8,4z M5,11H2V7l1-1h1l1,1V11z M10,11H7V7l1-1h1l1,1V11z
		 M15,11h-3V7l1-1h1l1,1V11z M24,11h-5l-1-3V6h3l3,4V11z"/>
	<polygon fill="#FFFFFF" points="3,18 6,19 7,19 10,18 11,18 14,19 15,19 18,18 19,18 22,19 23,19 25.8,18.1 30,13 0,13 0,18.7 
		2,18 	"/>
</g>
</svg>
