<?xml version="1.0" encoding="utf-8"?>
<!-- Generator: Adobe Illustrator 18.1.1, SVG Export Plug-In . SVG Version: 6.00 Build 0)  -->
<svg version="1.1" id="Icons" xmlns="http://www.w3.org/2000/svg" xmlns:xlink="http://www.w3.org/1999/xlink" x="0px" y="0px"
	 viewBox="0 0 32 32" enable-background="new 0 0 32 32" xml:space="preserve">
<g opacity="0.1">
	<path d="M28,5l-3-2l-5-1h-6L9,3L6,5l-1,8v15h2v3l1,1h1l1-1v-3h14v3l1,1h1l1-1v-3h2V13L28,5z M10,5h1V4h12v1h1v1H10V5z M10,23l-1,1
		H8l-1-1v-1l1-1h1l1,1V23z M27,23l-1,1h-1l-1-1v-1l1-1h1l1,1V23z M26,17H8l-1-1l1-7l1-1h16l1,1l1,7L26,17z"/>
</g>
<g opacity="0.2">
	<path d="M27,4l-3-2l-5-1h-6L8,2L5,4l-1,8v15h2v3l1,1h1l1-1v-3h14v3l1,1h1l1-1v-3h2V12L27,4z M9,4h1V3h12v1h1v1H9V4z M9,22l-1,1H7
		l-1-1v-1l1-1h1l1,1V22z M26,22l-1,1h-1l-1-1v-1l1-1h1l1,1V22z M25,16H7l-1-1l1-7l1-1h16l1,1l1,7L25,16z"/>
</g>
<g>
	<path d="M26,3l-3-2l-5-1h-6L7,1L4,3l-1,8v15h2v3l1,1h1l1-1v-3h14v3l1,1h1l1-1v-3h2V11L26,3z M8,3h1V2h12v1h1v1H8V3z M8,21l-1,1H6
		l-1-1v-1l1-1h1l1,1V21z M25,21l-1,1h-1l-1-1v-1l1-1h1l1,1V21z M24,15H6l-1-1l1-7l1-1h16l1,1l1,7L24,15z"/>
</g>
</svg>
