<?xml version="1.0" encoding="utf-8"?>
<!-- Generator: Adobe Illustrator 18.1.1, SVG Export Plug-In . SVG Version: 6.00 Build 0)  -->
<svg version="1.1" id="Icons" xmlns="http://www.w3.org/2000/svg" xmlns:xlink="http://www.w3.org/1999/xlink" x="0px" y="0px"
	 viewBox="0 0 24 24" enable-background="new 0 0 24 24" xml:space="preserve">
<g opacity="0.5">
	<path d="M9.5,13c-0.4-0.4-2.8-3.5-0.4-5.7c2.2-2,2.6-4.5,1.8-5.4c0,0,4.4,2.9,2,8c-0.8,0.9-1.8,2-1.1,4L9.5,13z"/>
	<path d="M14,14c0-0.9-0.9-0.2,0.5-3.1C15.7,9.8,15.3,9.1,15,8c0,0,3.6,1.4,0.8,5.3L14,14z"/>
	<polygon points="2,18 4,18 4,22 21,22 21,18 23,18 23,22 21,24 4,24 2,22 	"/>
	<polygon points="6,14 19,19 19,21 6,16 	"/>
	<polygon points="6,19 6,21 9.9,19.5 7.3,18.5 	"/>
	<polygon points="19,14 15.1,15.5 17.7,16.5 19,16 	"/>
</g>
<g opacity="0.75">
	<path d="M8.5,12c-0.4-0.4-2.8-3.5-0.4-5.7c2.2-2,2.6-4.5,1.8-5.4c0,0,4.4,2.9,2,8c-0.8,0.9-1.8,2-1.1,4L8.5,12z"/>
	<path d="M13,13c0-0.9-0.9-0.2,0.5-3.1C14.7,8.8,14.3,8.1,14,7c0,0,3.6,1.4,0.8,5.3L13,13z"/>
	<polygon points="1,17 3,17 3,21 20,21 20,17 22,17 22,21 20,23 3,23 1,21 	"/>
	<polygon points="5,13 18,18 18,20 5,15 	"/>
	<polygon points="5,18 5,20 8.9,18.5 6.3,17.5 	"/>
	<polygon points="18,13 14.1,14.5 16.7,15.5 18,15 	"/>
</g>
<g>
	<path fill="#FFFFFF" d="M7.5,11c-0.4-0.4-2.8-3.5-0.4-5.7C9.4,3.3,9.7,0.8,9,0c0,0,4.4,2.9,2,8c-0.8,0.9-1.8,2-1.1,4L7.5,11z"/>
	<path fill="#FFFFFF" d="M12,12c0-0.9-0.9-0.2,0.5-3.1C13.7,7.8,13.3,7.1,13,6c0,0,3.6,1.4,0.8,5.3L12,12z"/>
	<polygon fill="#FFFFFF" points="0,16 2,16 2,20 19,20 19,16 21,16 21,20 19,22 2,22 0,20 	"/>
	<polygon fill="#FFFFFF" points="4,12 17,17 17,19 4,14 	"/>
	<polygon fill="#FFFFFF" points="4,17 4,19 7.9,17.5 5.3,16.5 	"/>
	<polygon fill="#FFFFFF" points="17,12 13.1,13.5 15.7,14.5 17,14 	"/>
</g>
</svg>
