<?xml version="1.0" encoding="utf-8"?>
<!-- Generator: Adobe Illustrator 18.1.1, SVG Export Plug-In . SVG Version: 6.00 Build 0)  -->
<svg version="1.1" id="Icons" xmlns="http://www.w3.org/2000/svg" xmlns:xlink="http://www.w3.org/1999/xlink" x="0px" y="0px"
	 viewBox="0 0 24 24" enable-background="new 0 0 24 24" xml:space="preserve">
<polygon opacity="0.5" points="22,20 22,20 14.3,4.9 13.5,6.7 21,21 22.5,21 "/>
<polygon opacity="0.75" points="21,19 21,19 13.3,3.9 12.5,5.7 20,20 21.5,20 "/>
<g opacity="0.5">
	<path d="M19,23L11.4,7.8L4,23H2v1l19,0v-1H19z M7,23l4.5-8.5L16,23H7z"/>
</g>
<g opacity="0.5">
	<polygon points="24,15 17.5,2 16.7,3.7 24,18 	"/>
</g>
<g opacity="0.75">
	<path d="M18,22L10.4,6.8L3,22H1v1l19,0v-1H18z M6,22l4.5-8.5L15,22H6z"/>
</g>
<g opacity="0.75">
	<polygon points="24,16 16.5,1 15.7,2.7 23,17 24,17 	"/>
</g>
<g>
	<path fill="#E6E6E6" d="M17,21L9.4,5.8L2,21H0v1l19,0v-1H17z M5,21l4.5-8.5L14,21H5z"/>
</g>
<polygon fill="#E6E6E6" points="20,18 20,18 12.3,2.9 11.5,4.7 19,19 20.5,19 20,18 "/>
<polygon fill="#E6E6E6" points="23,15 23,15 15.5,0 14.7,1.7 22,16 23.6,16 "/>
</svg>
