<?xml version="1.0" encoding="utf-8"?>
<!-- Generator: Adobe Illustrator 18.1.1, SVG Export Plug-In . SVG Version: 6.00 Build 0)  -->
<svg version="1.1" id="Icons" xmlns="http://www.w3.org/2000/svg" xmlns:xlink="http://www.w3.org/1999/xlink" x="0px" y="0px"
	 viewBox="0 0 16 16" enable-background="new 0 0 16 16" xml:space="preserve">
<g opacity="0.5">
	<path d="M16,14.5L15,15h-1l-2-1h-1l-2,1H8l-2-1H5l-2,1H2v1h1l2-1h1l2,1h1l2-1h1l2,1h1l1-0.5c0-0.2,0-0.3,0-0.5S16,14.7,16,14.5z"/>
	<rect x="6" y="3" width="2" height="2"/>
	<polygon points="3.1,13 5.1,12 6.1,12 8.1,13 9.1,13 11.1,12 12.1,12 14.1,13 15,13 16,11 14,9 13,8.5 13,10 6,10 6,9 9,9 11,8 
		11,6 9.5,6.5 9,7.5 7.5,7.5 6,6 5,6 2,10 2,13 	"/>
</g>
<g opacity="0.75">
	<path d="M15,13.5L14,14h-1l-2-1h-1l-2,1H7l-2-1H4l-2,1H1v1h1l2-1h1l2,1h1l2-1h1l2,1h1l1-0.5c0-0.2,0-0.3,0-0.5S15,13.7,15,13.5z"/>
	<rect x="5" y="2" width="2" height="2"/>
	<polygon points="2.1,12 4.1,11 5.1,11 7.1,12 8.1,12 10.1,11 11.1,11 13.1,12 14,12 15,10 13,8 12,7.5 12,9 5,9 5,8 8,8 10,7 10,5 
		8.5,5.5 8,6.5 6.5,6.5 5,5 4,5 1,9 1,12 	"/>
</g>
<g>
	<path fill="#E6E6E6" d="M14,12.5L13,13h-1l-2-1H9l-2,1H6l-2-1H3l-2,1H0v1h1l2-1h1l2,1h1l2-1h1l2,1h1l1-0.5c0-0.2,0-0.3,0-0.5
		S14,12.7,14,12.5z"/>
	<rect x="4" y="1" fill="#E6E6E6" width="2" height="2"/>
	<polygon fill="#E6E6E6" points="1.1,11 3.1,10 4.1,10 6.1,11 7.1,11 9.1,10 10.1,10 12.1,11 13,11 14,9 12,7 11,6.5 11,8 4,8 4,7 
		7,7 9,6 9,4 7.5,4.5 7,5.5 5.5,5.5 4,4 3,4 0,8 0,11 	"/>
</g>
</svg>
