<?xml version="1.0" encoding="utf-8"?>
<!-- Generator: Adobe Illustrator 18.1.1, SVG Export Plug-In . SVG Version: 6.00 Build 0)  -->
<svg version="1.1" id="Icons" xmlns="http://www.w3.org/2000/svg" xmlns:xlink="http://www.w3.org/1999/xlink" x="0px" y="0px"
	 viewBox="0 0 32 32" enable-background="new 0 0 32 32" xml:space="preserve">
<g opacity="0.5">
	<circle cx="12.5" cy="5.5" r="2.5"/>
	<polygon points="2,28.7 4,28 5,28 8,29 9,29 12,28 13,28 16,29 17,29 20,28 21,28 24,29 25,29 28,28 29,28 32,29 32,26 29,25 
		28,25 25,26 24,26 21,25 20,25 17,26 16,26 13,25 12,25 9,26 8,26 5,25 4,25 2,25.7 	"/>
	<path d="M5,23l3,1h1l3-1h1l3,1h1l3-1h1l3,1h1l3-1h1l1.1,0.4c0.7-0.9,1.1-1.9,1.1-3.1c0-2.8-2.3-5.1-5.1-5.1l-0.6,0.1
		C25,17.8,23,18,23,18H11l-1.1-0.7l2.3-3.9l2.6,1.5c1.5,1,2.3-0.4,2.3-0.4l2.6-4.2c1.1-1.8-1.3-3.2-2.4-1.4l-1.8,2.9l-4.3-2.4
		c-3-1.6-4.2,1.1-4.2,1.1l-3.3,5.7c-0.6,1.2-0.1,1.7-0.1,1.7l-1.7,0v5.7L4,23H5z"/>
</g>
<g opacity="0.75">
	<circle cx="11.5" cy="4.5" r="2.5"/>
	<polygon points="1,27.7 3,27 4,27 7,28 8,28 11,27 12,27 15,28 16,28 19,27 20,27 23,28 24,28 27,27 28,27 31,28 31,25 28,24 
		27,24 24,25 23,25 20,24 19,24 16,25 15,25 12,24 11,24 8,25 7,25 4,24 3,24 1,24.7 	"/>
	<path d="M4,22l3,1h1l3-1h1l3,1h1l3-1h1l3,1h1l3-1h1l1.1,0.4c0.7-0.9,1.1-1.9,1.1-3.1c0-2.8-2.3-5.1-5.1-5.1l-0.6,0.1
		C24,16.8,22,17,22,17H10l-1.1-0.7l2.3-3.9l2.6,1.5c1.5,1,2.3-0.4,2.3-0.4l2.6-4.2c1.1-1.8-1.3-3.2-2.4-1.4l-1.8,2.9l-4.3-2.4
		c-3-1.6-4.2,1.1-4.2,1.1l-3.3,5.7c-0.6,1.2-0.1,1.7-0.1,1.7l-1.7,0v5.7L3,22H4z"/>
</g>
<g>
	<circle fill="#E6E6E6" cx="10.5" cy="3.5" r="2.5"/>
	<polygon fill="#E6E6E6" points="0,26.7 2,26 3,26 6,27 7,27 10,26 11,26 14,27 15,27 18,26 19,26 22,27 23,27 26,26 27,26 30,27 
		30,24 27,23 26,23 23,24 22,24 19,23 18,23 15,24 14,24 11,23 10,23 7,24 6,24 3,23 2,23 0,23.7 	"/>
	<path fill="#E6E6E6" d="M3,21l3,1h1l3-1h1l3,1h1l3-1h1l3,1h1l3-1h1l1.1,0.4c0.7-0.9,1.1-1.9,1.1-3.1c0-2.8-2.3-5.1-5.1-5.1
		l-0.6,0.1C23,15.8,21,16,21,16H9l-1.1-0.7l2.3-3.9l2.6,1.5c1.5,1,2.3-0.4,2.3-0.4l2.6-4.2c1.1-1.8-1.3-3.2-2.4-1.4l-1.8,2.9
		L9.3,7.4c-3-1.6-4.2,1.1-4.2,1.1l-3.3,5.7c-0.6,1.2-0.1,1.7-0.1,1.7l-1.7,0v5.7L2,21H3z"/>
</g>
</svg>
