<?xml version="1.0" encoding="utf-8"?>
<!-- Generator: Adobe Illustrator 18.1.1, SVG Export Plug-In . SVG Version: 6.00 Build 0)  -->
<svg version="1.1" id="Icons" xmlns="http://www.w3.org/2000/svg" xmlns:xlink="http://www.w3.org/1999/xlink" x="0px" y="0px"
	 viewBox="0 0 32 32" enable-background="new 0 0 32 32" xml:space="preserve">
<g opacity="0.5">
	<path d="M28.8,8.8c-0.3,0-0.6,0.1-0.8,0.3l-3,2.9l-3.6-3.6c-0.3-0.3-0.6-0.4-1-0.4h-5.6c-0.4,0-0.7,0.2-0.9,0.4l-3.9,4.4
		c-0.2,0.2-0.4,0.5-0.4,0.9c0,0.6,0.5,1.2,1.2,1.2c0.4,0,0.7-0.2,0.9-0.4l3.6-4.1v0l2.1,0L9.6,19L4,19l-1,1.5L4,22h6.4
		c1.4,0,1.8-0.2,1.8-0.2l3.1-3.4l3.5,3.5l-1.4,6.4c0,0.1,0,0.2,0,0.4c0,0.8,0.8,1.3,1.7,1.3c0.7,0,1.2-0.4,1.3-1l1.8-7.8
		c0.4-1.2-0.3-1.8-0.3-1.8l-3.1-3.1l3.4-3.9l2.2,2.2c0,0,0.9,0.9,1.9-0.2l3.6-3.6c0.2-0.2,0.3-0.5,0.3-0.8C30,9.3,29.5,8.8,28.8,8.8
		z"/>
	<polygon points="6,31 29,31 30,30 30,29 31,29 31,30 29,32 6,32 	"/>
	<rect x="2" y="14" width="7" height="1"/>
	<polygon points="22,30 31,11 32,11 23,30 	"/>
	<polygon points="9,29 3.9,23 3,23 3,22 2,22 9,30 11,30 11,29 	"/>
	<polygon points="22,3 25,3 25,4 26,4 26,7 25,7 25,8 22,8 22,7 21,7 21,4 22,4 	"/>
</g>
<g opacity="0.75">
	<path d="M27.8,7.8c-0.3,0-0.6,0.1-0.8,0.3l-3,2.9l-3.6-3.6c-0.3-0.3-0.6-0.4-1-0.4h-5.6c-0.4,0-0.7,0.2-0.9,0.4l-3.9,4.4
		c-0.2,0.2-0.4,0.5-0.4,0.9c0,0.6,0.5,1.2,1.2,1.2c0.4,0,0.7-0.2,0.9-0.4l3.6-4.1v0l2.1,0L8.6,18L3,18l-1,1.5L3,21h6.4
		c1.4,0,1.8-0.2,1.8-0.2l3.1-3.4l3.5,3.5l-1.4,6.4c0,0.1,0,0.2,0,0.4c0,0.8,0.8,1.3,1.7,1.3c0.7,0,1.2-0.4,1.3-1l1.8-7.8
		c0.4-1.2-0.3-1.8-0.3-1.8l-3.1-3.1l3.4-3.9l2.2,2.2c0,0,0.9,0.9,1.9-0.2l3.6-3.6C28.9,9.5,29,9.2,29,9C29,8.3,28.5,7.8,27.8,7.8z"
		/>
	<polygon points="5,30 28,30 29,29 29,28 30,28 30,29 28,31 5,31 	"/>
	<rect x="1" y="13" width="7" height="1"/>
	<polygon points="21,29 30,10 31,10 22,29 	"/>
	<polygon points="8,28 2.9,22 2,22 2,21 1,21 8,29 10,29 10,28 	"/>
	<polygon points="21,2 24,2 24,3 25,3 25,6 24,6 24,7 21,7 21,6 20,6 20,3 21,3 	"/>
</g>
<g>
	<path fill="#FFFFFF" d="M26.8,6.8c-0.3,0-0.6,0.1-0.8,0.3l-3,2.9l-3.6-3.6c-0.3-0.3-0.6-0.4-1-0.4h-5.6c-0.4,0-0.7,0.2-0.9,0.4
		l-3.9,4.4c-0.2,0.2-0.4,0.5-0.4,0.9c0,0.6,0.5,1.2,1.2,1.2c0.4,0,0.7-0.2,0.9-0.4l3.6-4.1v0l2.1,0L7.6,17L2,17l-1,1.5L2,20h6.4
		c1.4,0,1.8-0.2,1.8-0.2l3.1-3.4l3.5,3.5l-1.4,6.4c0,0.1,0,0.2,0,0.4c0,0.8,0.8,1.3,1.7,1.3c0.7,0,1.2-0.4,1.3-1l1.8-7.8
		c0.4-1.2-0.3-1.8-0.3-1.8l-3.1-3.1l3.4-3.9l2.2,2.2c0,0,0.9,0.9,1.9-0.2l3.6-3.6C27.9,8.5,28,8.2,28,8C28,7.3,27.5,6.8,26.8,6.8z"
		/>
	<polygon fill="#FFFFFF" points="4,29 27,29 28,28 28,27 29,27 29,28 27,30 4,30 	"/>
	<rect x="0" y="12" fill="#FFFFFF" width="7" height="1"/>
	<polygon fill="#FFFFFF" points="20,28 29,9 30,9 21,28 	"/>
	<polygon fill="#FFFFFF" points="7,27 1.9,21 1,21 1,20 0,20 7,28 9,28 9,27 	"/>
	<polygon fill="#FFFFFF" points="20,1 23,1 23,2 24,2 24,5 23,5 23,6 20,6 20,5 19,5 19,2 20,2 	"/>
</g>
</svg>
