<?xml version="1.0" encoding="utf-8"?>
<!-- Generator: Adobe Illustrator 18.1.1, SVG Export Plug-In . SVG Version: 6.00 Build 0)  -->
<svg version="1.1" id="Icons" xmlns="http://www.w3.org/2000/svg" xmlns:xlink="http://www.w3.org/1999/xlink" x="0px" y="0px"
	 viewBox="0 0 16 16" enable-background="new 0 0 16 16" xml:space="preserve">
<g opacity="0.5">
	<path d="M8.7,5L7.2,6.8C7.1,6.9,7,7,6.8,7C6.5,7,6.3,6.7,6.3,6.5c0-0.1,0.1-0.3,0.2-0.4l1.7-1.9C8.2,4.1,8.4,4,8.5,4h2.4
		c0.2,0,0,0.9,0.1,1l1.9,0.7l1.3-1.3c0.1-0.1,0.2-0.1,0.3-0.1c0.3,0,0.5,0.2,0.5,0.5c0,0.1,0,0.2-0.1,0.3l-1.5,1.5
		c-0.5,0.5-0.8,0.1-0.8,0.1l-0.9-0.9L10,8l1.5,0.9c0,0,0.3,0.3,0.1,0.8L11,13c-0.1,0.3-0.5,1-0.8,1c-0.4,0-0.6-0.8-0.6-1.1l0-0.2
		l0.6-2.8L8.7,8.5L7.4,10c0,0-0.2,0.1-0.8,0H3.9C3.6,10,3.1,10,3,9.7C2.9,9.4,3.4,9,3.8,8.9L3.9,9L7,8.9L9.6,5L8.7,5z"/>
	<polygon points="4,15 4,16 15,16 16,15 16,14 15,14 15,15 	"/>
	<polygon points="2,11 3,11 6,14 5,14 	"/>
	<polygon points="12,14 13,14 16,6 15,6 	"/>
	<rect x="11" y="2" width="2" height="2"/>
</g>
<g opacity="0.75">
	<path d="M7.7,4L6.2,5.8C6.1,5.9,6,6,5.8,6C5.5,6,5.3,5.7,5.3,5.5c0-0.1,0.1-0.3,0.2-0.4l1.7-1.9C7.2,3.1,7.4,3,7.5,3h2.4
		c0.2,0,0,0.9,0.1,1l1.9,0.7l1.3-1.3c0.1-0.1,0.2-0.1,0.3-0.1c0.3,0,0.5,0.2,0.5,0.5c0,0.1,0,0.2-0.1,0.3l-1.5,1.5
		c-0.5,0.5-0.8,0.1-0.8,0.1l-0.9-0.9L9,7l1.5,0.9c0,0,0.3,0.3,0.1,0.8L10,12c-0.1,0.3-0.5,1-0.8,1c-0.4,0-0.6-0.8-0.6-1.1l0-0.2
		L9.2,9L7.7,7.5L6.4,9c0,0-0.2,0.1-0.8,0H2.9C2.6,9,2.1,9,2,8.7C1.9,8.4,2.4,8,2.8,7.9L2.9,8L6,7.9L8.6,4L7.7,4z"/>
	<polygon points="3,14 3,15 14,15 15,14 15,13 14,13 14,14 	"/>
	<polygon points="1,10 2,10 5,13 4,13 	"/>
	<polygon points="11,13 12,13 15,5 14,5 	"/>
	<rect x="10" y="1" width="2" height="2"/>
</g>
<g>
	<path fill="#FFFFFF" d="M6.7,3L5.2,4.8C5.1,4.9,5,5,4.8,5C4.5,5,4.3,4.7,4.3,4.5c0-0.1,0.1-0.3,0.2-0.4l1.7-1.9
		C6.2,2.1,6.4,2,6.5,2h2.4c0.2,0,0,0.9,0.1,1l1.9,0.7l1.3-1.3c0.1-0.1,0.2-0.1,0.3-0.1c0.3,0,0.5,0.2,0.5,0.5c0,0.1,0,0.2-0.1,0.3
		l-1.5,1.5c-0.5,0.5-0.8,0.1-0.8,0.1L9.6,3.8L8,6l1.5,0.9c0,0,0.3,0.3,0.1,0.8L9,11c-0.1,0.3-0.5,1-0.8,1c-0.4,0-0.6-0.8-0.6-1.1
		l0-0.2L8.2,8L6.7,6.5L5.4,8c0,0-0.2,0.1-0.8,0H1.9C1.6,8,1.1,8,1,7.7C0.9,7.4,1.4,7,1.8,6.9L1.9,7L5,6.9L7.6,3L6.7,3z"/>
	<polygon fill="#FFFFFF" points="2,13 2,14 13,14 14,13 14,12 13,12 13,13 	"/>
	<polygon fill="#FFFFFF" points="0,9 1,9 4,12 3,12 	"/>
	<polygon fill="#FFFFFF" points="10,12 11,12 14,4 13,4 	"/>
	<rect x="9" fill="#FFFFFF" width="2" height="2"/>
</g>
</svg>
