<?xml version="1.0" encoding="utf-8"?>
<!-- Generator: Adobe Illustrator 18.1.1, SVG Export Plug-In . SVG Version: 6.00 Build 0)  -->
<svg version="1.1" id="Icons" xmlns="http://www.w3.org/2000/svg" xmlns:xlink="http://www.w3.org/1999/xlink" x="0px" y="0px"
	 viewBox="0 0 16 16" enable-background="new 0 0 16 16" xml:space="preserve">
<g opacity="0.5">
	<path d="M9.3,3.2C8.6,2.8,7.7,3,7.3,3.6C7,4,7,4.5,7.1,4.8l0.8,2.5L5.6,8C5.3,8.1,5,8.4,5,8.7C4.9,9.2,5.3,9.5,5.8,9.6
		c0.1,0,0.2,0,0.3,0l2.9-1C9.2,8.4,9,8.2,9,8c0-0.1,0,0.1,0,0V6l2,1l0.4,1.7c0,0.3,0.1,0.5,0.4,0.6l2.4,1.4c0.3,0.1,0.6,0,0.8-0.2
		c0.1-0.3,0-0.6-0.2-0.8l-1.9-1.1l-0.2-2.9c0-0.3-0.2-0.7-0.5-0.9L9.3,3.2z"/>
	<polygon points="2,8 2,9 11,15 15,15 15,14 11,14 	"/>
	<rect x="14" y="5" width="2" height="2"/>
</g>
<g opacity="0.75">
	<path d="M8.3,2.2C7.6,1.8,6.7,2,6.3,2.6C6,3,6,3.5,6.1,3.8l0.8,2.5L4.6,7C4.3,7.1,4,7.4,4,7.7C3.9,8.2,4.3,8.5,4.8,8.6
		c0.1,0,0.2,0,0.3,0l2.9-1C8.2,7.4,8,7.2,8,7c0-0.1,0,0.1,0,0V5l2,1l0.4,1.7c0,0.3,0.1,0.5,0.4,0.6l2.4,1.4c0.3,0.1,0.6,0,0.8-0.2
		c0.1-0.3,0-0.6-0.2-0.8l-1.9-1.1l-0.2-2.9c0-0.3-0.2-0.7-0.5-0.9L8.3,2.2z"/>
	<polygon points="1,7 1,8 10,14 14,14 14,13 10,13 	"/>
	<rect x="13" y="4" width="2" height="2"/>
</g>
<g>
	<path fill="#FFFFFF" d="M7.3,1.2C6.6,0.8,5.7,1,5.3,1.6C5,2,5,2.5,5.1,2.8l0.8,2.5L3.6,6C3.3,6.1,3,6.4,3,6.7
		C2.9,7.2,3.3,7.5,3.8,7.6c0.1,0,0.2,0,0.3,0l2.9-1C7.2,6.4,7,6.2,7,6c0-0.1,0,0.1,0,0V4l2,1l0.4,1.7c0,0.3,0.1,0.5,0.4,0.6l2.4,1.4
		c0.3,0.1,0.6,0,0.8-0.2c0.1-0.3,0-0.6-0.2-0.8l-1.9-1.1l-0.2-2.9c0-0.3-0.2-0.7-0.5-0.9L7.3,1.2z"/>
	<polygon fill="#FFFFFF" points="0,6 0,7 9,13 13,13 13,12 9,12 	"/>
	<rect x="12" y="3" fill="#FFFFFF" width="2" height="2"/>
</g>
</svg>
