<?xml version="1.0" encoding="utf-8"?>
<!-- Generator: Adobe Illustrator 18.1.1, SVG Export Plug-In . SVG Version: 6.00 Build 0)  -->
<svg version="1.1" id="Icons" xmlns="http://www.w3.org/2000/svg" xmlns:xlink="http://www.w3.org/1999/xlink" x="0px" y="0px"
	 viewBox="0 0 24 24" enable-background="new 0 0 24 24" xml:space="preserve">
<g opacity="0.5">
	<polygon points="22,2 20,2 17,22 9,22 6,2 4,2 7.5,24 18.5,24 	"/>
	<polygon points="8,2 9,2 9,3 11,3 11,2 12,2 12,3 14,3 14,2 15,2 15,3 17,3 17,2 18,2 18,4 17,4 17,5 15,5 15,4 14,4 14,5 12,5 
		12,4 11,4 11,5 9,5 9,4 8,4 	"/>
</g>
<g opacity="0.75">
	<polygon points="21,1 19,1 16,21 8,21 5,1 3,1 6.5,23 17.5,23 	"/>
	<polygon points="7,1 8,1 8,2 10,2 10,1 11,1 11,2 13,2 13,1 14,1 14,2 16,2 16,1 17,1 17,3 16,3 16,4 14,4 14,3 13,3 13,4 11,4 
		11,3 10,3 10,4 8,4 8,3 7,3 	"/>
</g>
<g>
	<polygon fill="#FFFFFF" points="20,0 18,0 15,20 7,20 4,0 2,0 5.5,22 16.5,22 	"/>
	<polygon fill="#FFFFFF" points="6,0 7,0 7,1 9,1 9,0 10,0 10,1 12,1 12,0 13,0 13,1 15,1 15,0 16,0 16,2 15,2 15,3 13,3 13,2 12,2 
		12,3 10,3 10,2 9,2 9,3 7,3 7,2 6,2 	"/>
</g>
</svg>
