<?xml version="1.0" encoding="utf-8"?>
<!-- Generator: Adobe Illustrator 18.1.1, SVG Export Plug-In . SVG Version: 6.00 Build 0)  -->
<svg version="1.1" id="Icons" xmlns="http://www.w3.org/2000/svg" xmlns:xlink="http://www.w3.org/1999/xlink" x="0px" y="0px"
	 viewBox="0 0 32 32" enable-background="new 0 0 32 32" xml:space="preserve">
<g opacity="0.1">
	<polygon points="5,2 8,2 12,29 23,29 27,2 30,2 25,32 10,32 	"/>
	<polyline points="11,3 11,4 14,4 14,3 16,3 16,4 19,4 19,3 21,3 21,4 24,4 24,3 25,3 25,6 24,6 24,7 21,7 21,6 19,6 19,7 16,7 
		16,6 14,6 14,7 11,7 11,6 10,6 10,3 	"/>
</g>
<g opacity="0.2">
	<polygon points="4,1 7,1 11,28 22,28 26,1 29,1 24,31 9,31 	"/>
	<polyline points="10,2 10,3 13,3 13,2 15,2 15,3 18,3 18,2 20,2 20,3 23,3 23,2 24,2 24,5 23,5 23,6 20,6 20,5 18,5 18,6 15,6 
		15,5 13,5 13,6 10,6 10,5 9,5 9,2 	"/>
</g>
<g>
	<polygon points="3,0 6,0 10,27 21,27 25,0 28,0 23,30 8,30 	"/>
	<polyline points="9,1 9,2 12,2 12,1 14,1 14,2 17,2 17,1 19,1 19,2 22,2 22,1 23,1 23,4 22,4 22,5 19,5 19,4 17,4 17,5 14,5 14,4 
		12,4 12,5 9,5 9,4 8,4 8,1 	"/>
</g>
</svg>
