<?xml version="1.0" encoding="utf-8"?>
<!-- Generator: Adobe Illustrator 18.1.1, SVG Export Plug-In . SVG Version: 6.00 Build 0)  -->
<svg version="1.1" id="Icons" xmlns="http://www.w3.org/2000/svg" xmlns:xlink="http://www.w3.org/1999/xlink" x="0px" y="0px"
	 viewBox="0 0 16 16" enable-background="new 0 0 16 16" xml:space="preserve">
<g opacity="0.1">
	<polygon points="13,2 12,2 12,3 10,3 10,2 9,2 9,3 7,3 7,2 6,2 6,4 7,4 7,5 9,5 9,4 10,4 10,5 12,5 12,4 13,4 13,3 	"/>
	<polygon points="4,2 5,2 5,4 7,15 12,15 14,4 14,2 15,2 13,16 6,16 	"/>
</g>
<g opacity="0.2">
	<polygon points="12,1 11,1 11,2 9,2 9,1 8,1 8,2 6,2 6,1 5,1 5,3 6,3 6,4 8,4 8,3 9,3 9,4 11,4 11,3 12,3 12,2 	"/>
	<polygon points="3,1 4,1 4,3 6,14 11,14 13,3 13,1 14,1 12,15 5,15 	"/>
</g>
<g>
	<polygon points="11,0 10,0 10,1 8,1 8,0 7,0 7,1 5,1 5,0 4,0 4,2 5,2 5,3 7,3 7,2 8,2 8,3 10,3 10,2 11,2 11,1 	"/>
	<polygon points="2,0 3,0 3,2 5,13 10,13 12,2 12,0 13,0 11,14 4,14 	"/>
</g>
</svg>
