<?xml version="1.0" encoding="utf-8"?>
<!-- Generator: Adobe Illustrator 18.1.1, SVG Export Plug-In . SVG Version: 6.00 Build 0)  -->
<svg version="1.1" id="Icons" xmlns="http://www.w3.org/2000/svg" xmlns:xlink="http://www.w3.org/1999/xlink" x="0px" y="0px"
	 viewBox="0 0 32 32" enable-background="new 0 0 32 32" xml:space="preserve">
<g opacity="0.1">
	<path d="M18,2c-1.4,0.2-7,2.9-7,15c0,12.7,5.6,15,7,15v-9c-1.2,0-1.7-0.4-2-3c-0.2-1.7-0.2-3.9,0-6c0.2-1.5,0.7-3,2-3V2z"/>
	<path d="M21.4,32c0.5,0,1.6-0.4,1.6-0.9v0V24c0-0.5-1.1-0.9-1.6-0.9H19V32L21.4,32L21.4,32L21.4,32z"/>
	<path d="M21.6,11c0.5,0,1.4-0.4,1.4-0.9V2.9C23,2.4,22.1,2,21.6,2H19v9L21.6,11L21.6,11L21.6,11z"/>
</g>
<g opacity="0.2">
	<path d="M17,1c-1.4,0.2-7,2.9-7,15c0,12.7,5.6,15,7,15v-9c-1.2,0-1.7-0.4-2-3c-0.2-1.7-0.2-3.9,0-6c0.2-1.5,0.7-3,2-3V1z"/>
	<path d="M20.4,31c0.5,0,1.6-0.4,1.6-0.9v0V23c0-0.5-1.1-0.9-1.6-0.9H18V31L20.4,31L20.4,31L20.4,31z"/>
	<path d="M20.6,10c0.5,0,1.4-0.4,1.4-0.9V1.9C22,1.4,21.1,1,20.6,1H18v9L20.6,10L20.6,10L20.6,10z"/>
</g>
<g>
	<path fill="#0099CD" d="M16,0c-1.4,0.2-7,2.9-7,15c0,12.7,5.6,15,7,15v-9c-1.2,0-1.7-0.4-2-3c-0.2-1.7-0.2-3.9,0-6
		c0.2-1.5,0.7-3,2-3V0z"/>
	<path fill="#0099CD" d="M19.4,30c0.5,0,1.6-0.4,1.6-0.9v0V22c0-0.5-1.1-0.9-1.6-0.9H17V30L19.4,30L19.4,30L19.4,30z"/>
	<path fill="#0099CD" d="M19.6,9C20.1,9,21,8.6,21,8.1V0.9C21,0.4,20.1,0,19.6,0H17v9L19.6,9L19.6,9L19.6,9z"/>
</g>
</svg>
