<?xml version="1.0" encoding="utf-8"?>
<!-- Generator: Adobe Illustrator 18.1.1, SVG Export Plug-In . SVG Version: 6.00 Build 0)  -->
<svg version="1.1" id="Layer_1" xmlns="http://www.w3.org/2000/svg" xmlns:xlink="http://www.w3.org/1999/xlink" x="0px" y="0px"
	 viewBox="0 0 24 24" enable-background="new 0 0 24 24" xml:space="preserve">
<g opacity="0.5">
	<rect x="6" y="9" fill="none" width="4" height="7"/>
	<path d="M23,16v-5h-5v5h2v7h-8V8h2L8,2L2,8h2v15H2v1h2h8h8h1h2v-1h-2v-7H23z M6,9h4v7H6V9z"/>
</g>
<g opacity="0.75">
	<rect x="5" y="8" fill="none" width="4" height="7"/>
	<path d="M22,15v-5h-5v5h2v7h-8V7h2L7,1L1,7h2v15H1v1h2h8h8h1h2v-1h-2v-7H22z M5,8h4v7H5V8z"/>
</g>
<g>
	<rect x="4" y="7" fill="none" width="4" height="7"/>
	<path fill="#E6E6E6" d="M21,14V9h-5v5h2v7h-8V6h2L6,0L0,6h2v15H0v1h2h8h8h1h2v-1h-2v-7H21z M4,7h4v7H4V7z"/>
</g>
</svg>
