<?xml version="1.0" encoding="utf-8"?>
<!-- Generator: Adobe Illustrator 18.1.1, SVG Export Plug-In . SVG Version: 6.00 Build 0)  -->
<svg version="1.1" id="Layer_1" xmlns="http://www.w3.org/2000/svg" xmlns:xlink="http://www.w3.org/1999/xlink" x="0px" y="0px"
	 viewBox="0 0 32 32" enable-background="new 0 0 32 32" xml:space="preserve">
<polygon opacity="0.5" points="14,2 14,6 18,6 18.804,6 26,6 26,28 18.804,28 18,28 14,28 14,32 30,32 30,2 "/>
<polygon opacity="0.5" points="22.571,17 14,8.429 14,15 3,15 3,19 14,19 14,25.571 "/>
<polygon opacity="0.75" points="13,1 13,5 17,5 17.804,5 25,5 25,27 17.804,27 17,27 13,27 13,31 29,31 29,1 "/>
<polygon opacity="0.75" points="21.571,16 13,7.429 13,14 2,14 2,18 13,18 13,24.571 "/>
<polygon fill="#E6E6E6" points="12,0 12,4 16,4 16.804,4 24,4 24,26 16.804,26 16,26 12,26 12,30 28,30 28,0 "/>
<polygon fill="#E6E6E6" points="20.571,15 12,6.429 12,13 1,13 1,17 12,17 12,23.571 "/>
</svg>
