<?xml version="1.0" encoding="utf-8"?>
<!-- Generator: Adobe Illustrator 18.1.1, SVG Export Plug-In . SVG Version: 6.00 Build 0)  -->
<svg version="1.1" id="Layer_1" xmlns="http://www.w3.org/2000/svg" xmlns:xlink="http://www.w3.org/1999/xlink" x="0px" y="0px"
	 viewBox="0 0 24 24" enable-background="new 0 0 24 24" xml:space="preserve">
<polygon opacity="0.5" points="11,2 11,5 14,5 14.589,5 20,5 20,21 14.589,21 14,21 11,21 11,24 23,24 23,2 "/>
<polygon opacity="0.5" points="17.286,13 11,6.714 11,11 3,11 3,15 11,15 11,19.286 "/>
<polygon opacity="0.75" points="10,1 10,4 13,4 13.589,4 19,4 19,20 13.589,20 13,20 10,20 10,23 22,23 22,1 "/>
<polygon opacity="0.75" points="16.286,12 10,5.714 10,10 2,10 2,14 10,14 10,18.286 "/>
<polygon fill="#E6E6E6" points="9,0 9,3 12,3 12.589,3 18,3 18,19 12.589,19 12,19 9,19 9,22 21,22 21,0 "/>
<polygon fill="#E6E6E6" points="15.286,11 9,4.714 9,9 1,9 1,13 9,13 9,17.286 "/>
</svg>
