<?xml version="1.0" encoding="utf-8"?>
<!-- Generator: Adobe Illustrator 18.1.1, SVG Export Plug-In . SVG Version: 6.00 Build 0)  -->
<svg version="1.1" id="Layer_1" xmlns="http://www.w3.org/2000/svg" xmlns:xlink="http://www.w3.org/1999/xlink" x="0px" y="0px"
	 viewBox="0 0 16 16" enable-background="new 0 0 16 16" xml:space="preserve">
<g opacity="0.5">
	<rect x="5" y="7" fill="none" width="2" height="4"/>
	<path d="M14,15v-4h1V8h-3v3h1v4H8V6h2L6,2L2,6h2v9H2v1h14v-1H14z M5,11V7h2v4H5z"/>
</g>
<g opacity="0.75">
	<rect x="4" y="6" fill="none" width="2" height="4"/>
	<path d="M13,14v-4h1V7h-3v3h1v4H7V5h2L5,1L1,5h2v9H1v1h14v-1H13z M4,10V6h2v4H4z"/>
</g>
<g>
	<rect x="3" y="5" fill="none" width="2" height="4"/>
	<path fill="#FFFFFF" d="M12,13V9h1V6h-3v3h1v4H6V4h2L4,0L0,4h2v9H0v1h14v-1H12z M3,9V5h2v4H3z"/>
</g>
</svg>
