<?xml version="1.0" encoding="utf-8"?>
<!-- Generator: Adobe Illustrator 18.1.1, SVG Export Plug-In . SVG Version: 6.00 Build 0)  -->
<svg version="1.1" id="Icons" xmlns="http://www.w3.org/2000/svg" xmlns:xlink="http://www.w3.org/1999/xlink" x="0px" y="0px"
	 viewBox="0 0 24 24" enable-background="new 0 0 24 24" xml:space="preserve">
<g opacity="0.5">
	<path d="M8.1,15.6L8,15.8L8.1,16l3.9,1c0.2,0.1,0.2,1,0,1H8.1L8,18.1l0,0.1c4.3,3.4,9.2,4.8,15,4.8V11C13,11,8.1,15.6,8.1,15.6z
		 M15,16h-1v-1h1V16z"/>
	<path d="M21,3c-3.3,0-5.7,1.5-9.3,4.5c-0.1,0-0.4-0.1-0.4-0.1c-0.6,0-1,0.5-1,1c0,0,0,0.2,0.1,0.3c-0.1,0.1-2.9,2.7-2.9,2.7L5,14
		c-0.2,0.2-0.7,0-1,0c-0.3,0-0.6,0-0.8-0.3c-0.2-0.2-0.3-0.5-0.3-0.8c0-0.3,0.1-0.6,0.4-0.9c0,0,0.2-0.1,0.3-0.2
		c0,0.2,0.1,0.9,0.1,0.9L6,10l-2.5,0.9c-0.6,0.2-0.8,0.5-0.8,0.5c-0.8,0.7-0.9,1.8-0.1,2.9C4,14.9,3.4,14.8,5,15l1-1l1.8-1.8
		c0,0,2.9-2.8,3-2.8c0.1,0,0.4,0.1,0.4,0.1c0.6,0,1-0.5,1-1c0,0,0-0.2,0-0.3C15.7,5.3,17.9,4,21,4c0.6,0,3,0,3,0V3H21z"/>
</g>
<g opacity="0.75">
	<path d="M7.1,14.6L7,14.8L7.1,15l3.9,1c0.2,0.1,0.2,1,0,1H7.1L7,17.1l0,0.1c4.3,3.4,9.2,4.8,15,4.8V10C12,10,7.1,14.6,7.1,14.6z
		 M14,15h-1v-1h1V15z"/>
	<path d="M20,2c-3.3,0-5.7,1.5-9.3,4.5c-0.1,0-0.4-0.1-0.4-0.1c-0.6,0-1,0.5-1,1c0,0,0,0.2,0.1,0.3c-0.1,0.1-2.9,2.7-2.9,2.7L4,13
		c-0.2,0.2-0.7,0-1,0c-0.3,0-0.6,0-0.8-0.3c-0.2-0.2-0.3-0.5-0.3-0.8c0-0.3,0.1-0.6,0.4-0.9c0,0,0.2-0.1,0.3-0.2
		c0,0.2,0.1,0.9,0.1,0.9L5,9L2.5,9.9c-0.6,0.2-0.8,0.5-0.8,0.5c-0.8,0.7-0.9,1.8-0.1,2.9C3,13.9,2.4,13.8,4,14l1-1l1.8-1.8
		c0,0,2.9-2.8,3-2.8c0.1,0,0.4,0.1,0.4,0.1c0.6,0,1-0.5,1-1c0,0,0-0.2,0-0.3C14.7,4.3,16.9,3,20,3c0.6,0,3,0,3,0V2H20z"/>
</g>
<g>
	<path fill="#FFFFFF" d="M6.1,13.6L6,13.8L6.1,14l3.9,1c0.2,0.1,0.2,1,0,1H6.1L6,16.1l0,0.1c4.3,3.4,9.2,4.8,15,4.8V9
		C11,9,6.1,13.6,6.1,13.6z M13,14h-1v-1h1V14z"/>
	<path fill="#FFFFFF" d="M19,1c-3.3,0-5.7,1.5-9.3,4.5c-0.1,0-0.4-0.1-0.4-0.1c-0.6,0-1,0.5-1,1c0,0,0,0.2,0.1,0.3
		C8.1,6.8,5.3,9.5,5.3,9.5L3,12c-0.2,0.2-0.7,0-1,0c-0.3,0-0.6,0-0.8-0.3c-0.2-0.2-0.3-0.5-0.3-0.8c0-0.3,0.1-0.6,0.4-0.9
		c0,0,0.2-0.1,0.3-0.2c0,0.2,0.1,0.9,0.1,0.9L4,8L1.5,8.9C0.9,9.1,0.7,9.4,0.6,9.4c-0.8,0.7-0.9,1.8-0.1,2.9C2,12.9,1.4,12.8,3,13
		l1-1l1.8-1.8c0,0,2.9-2.8,3-2.8c0.1,0,0.4,0.1,0.4,0.1c0.6,0,1-0.5,1-1c0,0,0-0.2,0-0.3C13.7,3.3,15.9,2,19,2c0.6,0,3,0,3,0V1H19z"
		/>
</g>
</svg>
