<?xml version="1.0" encoding="utf-8"?>
<!-- Generator: Adobe Illustrator 18.1.1, SVG Export Plug-In . SVG Version: 6.00 Build 0)  -->
<svg version="1.1" id="Layer_1" xmlns="http://www.w3.org/2000/svg" xmlns:xlink="http://www.w3.org/1999/xlink" x="0px" y="0px"
	 viewBox="0 0 24 24" enable-background="new 0 0 24 24" xml:space="preserve">
<path opacity="0.5" d="M19,3.5C19,2.672,18.328,2,17.5,2S16,2.672,16,3.5c0,0.652,0.419,1.202,1,1.408V24h1V4.908
	C18.581,4.702,19,4.152,19,3.5z"/>
<rect x="7" y="5" opacity="0.5" width="9" height="5"/>
<path opacity="0.75" d="M18,2.5C18,1.672,17.328,1,16.5,1S15,1.672,15,2.5c0,0.652,0.419,1.202,1,1.408V23h1V3.908
	C17.581,3.702,18,3.152,18,2.5z"/>
<rect x="6" y="4" opacity="0.75" width="9" height="5"/>
<path fill="#FFFFFF" d="M17,1.5C17,0.672,16.328,0,15.5,0S14,0.672,14,1.5c0,0.652,0.419,1.202,1,1.408V22h1V2.908
	C16.581,2.702,17,2.152,17,1.5z"/>
<rect x="5" y="3" fill="#FFFFFF" width="9" height="5"/>
</svg>
