<?xml version="1.0" encoding="utf-8"?>
<!-- Generator: Adobe Illustrator 18.1.1, SVG Export Plug-In . SVG Version: 6.00 Build 0)  -->
<svg version="1.1" id="Layer_1" xmlns="http://www.w3.org/2000/svg" xmlns:xlink="http://www.w3.org/1999/xlink" x="0px" y="0px"
	 viewBox="0 0 16 16" enable-background="new 0 0 16 16" xml:space="preserve">
<path opacity="0.5" d="M13,3.5C13,2.672,12.328,2,11.5,2S10,2.672,10,3.5c0,0.652,0.419,1.202,1,1.408V16h1V4.908
	C12.581,4.702,13,4.152,13,3.5z"/>
<rect x="4" y="5" opacity="0.5" width="6" height="3"/>
<path opacity="0.75" d="M12,2.5C12,1.672,11.328,1,10.5,1S9,1.672,9,2.5c0,0.652,0.419,1.202,1,1.408V15h1V3.908
	C11.581,3.702,12,3.152,12,2.5z"/>
<rect x="3" y="4" opacity="0.75" width="6" height="3"/>
<path fill="#E6E6E6" d="M11,1.5C11,0.672,10.328,0,9.5,0S8,0.672,8,1.5c0,0.652,0.419,1.202,1,1.408V14h1V2.908
	C10.581,2.702,11,2.152,11,1.5z"/>
<rect x="2" y="3" fill="#E6E6E6" width="6" height="3"/>
</svg>
