<?xml version="1.0" encoding="utf-8"?>
<!-- Generator: Adobe Illustrator 18.1.1, SVG Export Plug-In . SVG Version: 6.00 Build 0)  -->
<svg version="1.1" id="Icons" xmlns="http://www.w3.org/2000/svg" xmlns:xlink="http://www.w3.org/1999/xlink" x="0px" y="0px"
	 viewBox="0 0 32 32" enable-background="new 0 0 32 32" xml:space="preserve">
<g opacity="0.5">
	<path d="M15,11.8c0,1-0.9,2.2-2,2.2v17l-1,1h-1l-1-1V14c-1.1,0-2-1-2-2.3v-9c0-0.8,1.5-0.8,1.5,0v6.7H10h1V2.6c0-0.8,1-0.8,1,0v6.7
		h1.5V2.6c0-0.7,1.5-0.8,1.5,0V11.8z"/>
	<polygon points="23,2 21,4 21,20 23,20 23,30 24,32 25,32 26,30 26,4 24,2 	"/>
</g>
<g opacity="0.75">
	<path d="M14,10.8c0,1-0.9,2.2-2,2.2v17l-1,1h-1l-1-1V13c-1.1,0-2-1-2-2.3v-9c0-0.8,1.5-0.8,1.5,0v6.7H9h1V1.6c0-0.8,1-0.8,1,0v6.7
		h1.5V1.6c0-0.7,1.5-0.8,1.5,0V10.8z"/>
	<polygon points="22,1 20,3 20,19 22,19 22,29 23,31 24,31 25,29 25,3 23,1 	"/>
</g>
<g>
	<path fill="#FFFFFF" d="M13,9.8c0,1-0.9,2.2-2,2.2v17l-1,1H9l-1-1V12c-1.1,0-2-1-2-2.3v-9c0-0.8,1.5-0.8,1.5,0v6.7H8h1V0.6
		c0-0.8,1-0.8,1,0v6.7h1.5V0.6c0-0.7,1.5-0.8,1.5,0V9.8z"/>
	<polygon fill="#FFFFFF" points="21,0 19,2 19,18 21,18 21,28 22,30 23,30 24,28 24,2 22,0 	"/>
</g>
</svg>
