<?xml version="1.0" encoding="utf-8"?>
<!-- Generator: Adobe Illustrator 18.1.1, SVG Export Plug-In . SVG Version: 6.00 Build 0)  -->
<svg version="1.1" id="Icons" xmlns="http://www.w3.org/2000/svg" xmlns:xlink="http://www.w3.org/1999/xlink" x="0px" y="0px"
	 viewBox="0 0 16 16" enable-background="new 0 0 16 16" xml:space="preserve">
<g opacity="0.5">
	<polygon points="2,12 2,8 6,8 8,10 9,10 11,8 10,6 11,6 12,8 15,8 15,9 16,10 16,12 15,12 15,11 14,11 14,10 12,10 12,11 11,11 
		11,12 7,12 7,11 6,11 6,10 4,10 4,11 3,11 3,12 	"/>
	<rect x="4" y="11" width="2" height="2"/>
	<rect x="12" y="11" width="2" height="2"/>
</g>
<g opacity="0.75">
	<polygon points="1,11 1,7 5,7 7,9 8,9 10,7 9,5 10,5 11,7 14,7 14,8 15,9 15,11 14,11 14,10 13,10 13,9 11,9 11,10 10,10 10,11 
		6,11 6,10 5,10 5,9 3,9 3,10 2,10 2,11 	"/>
	<rect x="3" y="10" width="2" height="2"/>
	<rect x="11" y="10" width="2" height="2"/>
</g>
<g>
	<polygon fill="#FFFFFF" points="0,10 0,6 4,6 6,8 7,8 9,6 8,4 9,4 10,6 13,6 13,7 14,8 14,10 13,10 13,9 12,9 12,8 10,8 10,9 9,9 
		9,10 5,10 5,9 4,9 4,8 2,8 2,9 1,9 1,10 	"/>
	<rect x="2" y="9" fill="#FFFFFF" width="2" height="2"/>
	<rect x="10" y="9" fill="#FFFFFF" width="2" height="2"/>
</g>
</svg>
