<?xml version="1.0" encoding="utf-8"?>
<!-- Generator: Adobe Illustrator 18.1.1, SVG Export Plug-In . SVG Version: 6.00 Build 0)  -->
<svg version="1.1" id="Icons" xmlns="http://www.w3.org/2000/svg" xmlns:xlink="http://www.w3.org/1999/xlink" x="0px" y="0px"
	 viewBox="0 0 32 32" enable-background="new 0 0 32 32" xml:space="preserve">
<g opacity="0.5">
	<polygon points="31,18 31,14 30,13 23,13 21,9 19,9 21,13 21,14 19,16 14,16 12,13 2,13 2,21 3,21 4,21 4,20 4,19 5,19 5,18 6,18 
		6,17 11,17 11,18 12,18 12,19 13,19 13,20 13,21 14,21 20,21 21,21 21,20 21,19 22,19 22,18 23,18 23,17 28,17 28,18 29,18 29,19 
		30,19 30,20 30,21 31,21 32,21 32,18 	"/>
	<path d="M8.5,18C6.6,18,5,19.6,5,21.5S6.6,25,8.5,25s3.5-1.6,3.5-3.5S10.4,18,8.5,18z M10,22H9v1H8v-1H7v-1h1v-1h1v1h1V22z"/>
	<path d="M25.5,18c-1.9,0-3.5,1.6-3.5,3.5s1.6,3.5,3.5,3.5s3.5-1.6,3.5-3.5S27.4,18,25.5,18z M27,22h-1v1h-1v-1h-1v-1h1v-1h1v1h1V22
		z"/>
</g>
<g opacity="0.75">
	<polygon points="30,17 30,13 29,12 22,12 20,8 18,8 20,12 20,13 18,15 13,15 11,12 1,12 1,20 2,20 3,20 3,19 3,18 4,18 4,17 5,17 
		5,16 10,16 10,17 11,17 11,18 12,18 12,19 12,20 13,20 19,20 20,20 20,19 20,18 21,18 21,17 22,17 22,16 27,16 27,17 28,17 28,18 
		29,18 29,19 29,20 30,20 31,20 31,17 	"/>
	<path d="M7.5,17C5.6,17,4,18.6,4,20.5S5.6,24,7.5,24s3.5-1.6,3.5-3.5S9.4,17,7.5,17z M9,21H8v1H7v-1H6v-1h1v-1h1v1h1V21z"/>
	<path d="M24.5,17c-1.9,0-3.5,1.6-3.5,3.5s1.6,3.5,3.5,3.5s3.5-1.6,3.5-3.5S26.4,17,24.5,17z M26,21h-1v1h-1v-1h-1v-1h1v-1h1v1h1V21
		z"/>
</g>
<g>
	<polygon fill="#E6E6E6" points="29,16 29,12 28,11 21,11 19,7 17,7 19,11 19,12 17,14 12,14 10,11 0,11 0,19 1,19 2,19 2,18 2,17 
		3,17 3,16 4,16 4,15 9,15 9,16 10,16 10,17 11,17 11,18 11,19 12,19 18,19 19,19 19,18 19,17 20,17 20,16 21,16 21,15 26,15 26,16 
		27,16 27,17 28,17 28,18 28,19 29,19 30,19 30,16 	"/>
	<path fill="#E6E6E6" d="M6.5,16C4.6,16,3,17.6,3,19.5S4.6,23,6.5,23s3.5-1.6,3.5-3.5S8.4,16,6.5,16z M8,20H7v1H6v-1H5v-1h1v-1h1v1
		h1V20z"/>
	<path fill="#E6E6E6" d="M23.5,16c-1.9,0-3.5,1.6-3.5,3.5s1.6,3.5,3.5,3.5s3.5-1.6,3.5-3.5S25.4,16,23.5,16z M25,20h-1v1h-1v-1h-1
		v-1h1v-1h1v1h1V20z"/>
</g>
</svg>
