<?xml version="1.0" encoding="utf-8"?>
<!-- Generator: Adobe Illustrator 18.1.1, SVG Export Plug-In . SVG Version: 6.00 Build 0)  -->
<svg version="1.1" id="Icons" xmlns="http://www.w3.org/2000/svg" xmlns:xlink="http://www.w3.org/1999/xlink" x="0px" y="0px"
	 viewBox="0 0 24 24" enable-background="new 0 0 24 24" xml:space="preserve">
<g opacity="0.5">
	<path d="M21,16.4L21,16.4v-1.5V8.2c0-0.7-0.4-1.3-0.9-1.8L17,3.5c-0.2,0-0.8,0.4-0.8,0.4c0,0.2,1.5,1.8,1.5,1.8l0,2.6
		c0,0.9,0.8,1.8,1.7,1.8L20,9.9v5v1.7l1,5.1c0,0.8-0.9,1.3-1.5,1.3c-0.5,0-1.5-0.5-1.5-1v-8.9c0-1.1-0.6-2.1-1.6-2.1H14V3h-1V2H5v1
		H4v21h10V12.4h2.4c0.4,0,0.6,0.3,0.6,0.7V22c0,1.2,1.2,2,2.5,2c1.2,0,2.5-0.8,2.5-2C22,21.7,21,16.4,21,16.4z M20,9h-1V7h1V9z
		 M12.5,7.8l-0.9,0.9H6.4L5.5,7.8V4.2l0.9-0.9h5.2l0.9,0.9V7.8z"/>
</g>
<g opacity="0.75">
	<path d="M20,15.4L20,15.4v-1.5V7.2c0-0.7-0.4-1.3-0.9-1.8L16,2.5c-0.2,0-0.8,0.4-0.8,0.4c0,0.2,1.5,1.8,1.5,1.8l0,2.6
		c0,0.9,0.8,1.8,1.7,1.8L19,8.9v5v1.7l1,5.1c0,0.8-0.9,1.3-1.5,1.3c-0.5,0-1.5-0.5-1.5-1v-8.9c0-1.1-0.6-2.1-1.6-2.1H13V2h-1V1H4v1
		H3v21h10V11.4h2.4c0.4,0,0.6,0.3,0.6,0.7V21c0,1.2,1.2,2,2.5,2c1.2,0,2.5-0.8,2.5-2C21,20.7,20,15.4,20,15.4z M19,8h-1V6h1V8z
		 M11.5,6.8l-0.9,0.9H5.4L4.5,6.8V3.2l0.9-0.9h5.2l0.9,0.9V6.8z"/>
</g>
<g>
	<path fill="#E6E6E6" d="M19,14.4L19,14.4v-1.5V6.2c0-0.7-0.4-1.3-0.9-1.8L15,1.5c-0.2,0-0.8,0.4-0.8,0.4c0,0.2,1.5,1.8,1.5,1.8
		l0,2.6c0,0.9,0.8,1.8,1.7,1.8L18,7.9v5v1.7l1,5.1c0,0.8-0.9,1.3-1.5,1.3c-0.5,0-1.5-0.5-1.5-1v-8.9C16,10,15.4,9,14.4,9H12V1h-1V0
		H3v1H2v21h10V10.4h2.4c0.4,0,0.6,0.3,0.6,0.7V20c0,1.2,1.2,2,2.5,2c1.2,0,2.5-0.8,2.5-2C20,19.7,19,14.4,19,14.4z M18,7h-1V5h1V7z
		 M10.5,5.8L9.6,6.6H4.4L3.5,5.8V2.2l0.9-0.9h5.2l0.9,0.9V5.8z"/>
</g>
</svg>
