<?xml version="1.0" encoding="utf-8"?>
<!-- Generator: Adobe Illustrator 18.1.1, SVG Export Plug-In . SVG Version: 6.00 Build 0)  -->
<svg version="1.1" id="Icons" xmlns="http://www.w3.org/2000/svg" xmlns:xlink="http://www.w3.org/1999/xlink" x="0px" y="0px"
	 viewBox="0 0 16 16" enable-background="new 0 0 16 16" xml:space="preserve">
<g opacity="0.1">
	<path d="M15,15v-0.5V12V7.6c0-0.6-0.2-1.1-0.6-1.5l-2.6-2.6c-0.2,0-0.7,0.5-0.7,0.5c0,0.2,1.3,1.5,1.3,1.5l0,2.2
		C12.4,8.4,13.2,9,14,9v4.2l1,4.8v2c0,0.7-0.5,0-1,0c-0.5,0-1,0.5-1,0v-8c0-0.9-0.8-2-1.7-2H10V3H9V2H3v1H2v18h8V11h1
		c0.3,0,1,0.7,1,1v7c0,1,0.9,2,2,2c1,0,2-0.9,2-2C16,18.7,15,15,15,15z M14,8h-1V7h1V8z M9,8H8H4H3V3h1h4h1V8z"/>
</g>
<g opacity="0.2">
	<path d="M14,14v-0.5V11V6.6c0-0.6-0.2-1.1-0.6-1.5l-2.6-2.6c-0.2,0-0.7,0.5-0.7,0.5c0,0.2,1.3,1.5,1.3,1.5l0,2.2
		C11.4,7.4,12.2,8,13,8v4.2l1,4.8v2c0,0.7-0.5,0-1,0c-0.5,0-1,0.5-1,0v-8c0-0.9-0.8-2-1.7-2H9V2H8V1H2v1H1v18h8V10h1
		c0.3,0,1,0.7,1,1v7c0,1,0.9,2,2,2c1,0,2-0.9,2-2C15,17.7,14,14,14,14z M13,7h-1V6h1V7z M8,7H7H3H2V2h1h4h1V7z"/>
</g>
<g>
	<path d="M13,13v-0.5V10V5.6c0-0.6-0.2-1.1-0.6-1.5L9.8,1.5C9.6,1.5,9.1,2,9.1,2c0,0.2,1.3,1.5,1.3,1.5l0,2.2C10.4,6.4,11.2,7,12,7
		v4.2l1,4.8v2c0,0.7-0.5,0-1,0c-0.5,0-1,0.5-1,0v-8c0-0.9-0.8-2-1.7-2H8V1H7V0H1v1H0v18h8V9h1c0.3,0,1,0.7,1,1v7c0,1,0.9,2,2,2
		c1,0,2-0.9,2-2C14,16.7,13,13,13,13z M12,6h-1V5h1V6z M7,6H6H2H1V1h1h4h1V6z"/>
</g>
</svg>
