<?xml version="1.0" encoding="utf-8"?>
<!-- Generator: Adobe Illustrator 18.1.1, SVG Export Plug-In . SVG Version: 6.00 Build 0)  -->
<svg version="1.1" id="Icons" xmlns="http://www.w3.org/2000/svg" xmlns:xlink="http://www.w3.org/1999/xlink" x="0px" y="0px"
	 viewBox="0 0 16 16" enable-background="new 0 0 16 16" xml:space="preserve">
<g opacity="0.5">
	<polyline points="12,7 8,8 9,10 8,11 6,16 7,16 9,12 10,12 10,16 11,16 12,11 11,8 12,8 14,7 	"/>
	<rect x="7" y="5" width="2" height="2"/>
	<rect x="13" y="7" width="1" height="1"/>
	<rect x="12" y="6" width="1" height="1"/>
	<rect x="11" y="5" width="1" height="1"/>
	<rect x="10" y="4" width="1" height="1"/>
	<rect x="9" y="3" width="1" height="1"/>
	<rect x="8" y="2" width="1" height="1"/>
	<rect x="7" y="2" width="1" height="1"/>
	<rect x="7" y="3" width="1" height="1"/>
</g>
<g opacity="0.75">
	<polyline points="11,6 7,7 8,9 7,10 5,15 6,15 8,11 9,11 9,15 10,15 11,10 10,7 11,7 13,6 	"/>
	<rect x="6" y="4" width="2" height="2"/>
	<rect x="12" y="6" width="1" height="1"/>
	<rect x="11" y="5" width="1" height="1"/>
	<rect x="10" y="4" width="1" height="1"/>
	<rect x="9" y="3" width="1" height="1"/>
	<rect x="8" y="2" width="1" height="1"/>
	<rect x="7" y="1" width="1" height="1"/>
	<rect x="6" y="1" width="1" height="1"/>
	<rect x="6" y="2" width="1" height="1"/>
</g>
<g>
	<polyline fill="#FFFFFF" points="10,5 6,6 7,8 6,9 4,14 5,14 7,10 8,10 8,14 9,14 10,9 9,6 10,6 12,5 	"/>
	<rect x="5" y="3" fill="#FFFFFF" width="2" height="2"/>
	<rect x="11" y="5" fill="#FFFFFF" width="1" height="1"/>
	<rect x="10" y="4" fill="#FFFFFF" width="1" height="1"/>
	<rect x="9" y="3" fill="#FFFFFF" width="1" height="1"/>
	<rect x="8" y="2" fill="#FFFFFF" width="1" height="1"/>
	<rect x="7" y="1" fill="#FFFFFF" width="1" height="1"/>
	<rect x="6" fill="#FFFFFF" width="1" height="1"/>
	<rect x="5" fill="#FFFFFF" width="1" height="1"/>
	<rect x="5" y="1" fill="#FFFFFF" width="1" height="1"/>
</g>
</svg>
