<?xml version="1.0" encoding="utf-8"?>
<!-- Generator: Adobe Illustrator 18.1.1, SVG Export Plug-In . SVG Version: 6.00 Build 0)  -->
<svg version="1.1" id="Icons" xmlns="http://www.w3.org/2000/svg" xmlns:xlink="http://www.w3.org/1999/xlink" x="0px" y="0px"
	 viewBox="0 0 24 24" enable-background="new 0 0 24 24" xml:space="preserve">
<g opacity="0.1">
	<path d="M19,8.8c-0.1-0.3-0.4-0.5-0.4-0.6L9,2L8.1,3.2C7.9,3.4,8,4.7,8.2,4.9C8.5,5.1,8.8,4,9,3.8L9.5,3l7.8,5.1L10.9,10
		c-0.5,0.1-1-0.1-0.9,0.3l1.6,5.4l-4.5,6.7c-0.3,0.5-0.1,1.3,0.4,1.5c0.5,0.3,1.1-0.1,1.3-0.6l4.7-7.1l0.2,1l-0.7,5.3
		c-0.1,0.5,0.3,1.3,0.9,1.4c0.5,0.1,1-0.6,1.1-1.1l0.7-5.4c0-0.1,0-0.4,0-0.6l-1.6-6.4l4.2-0.7C18.7,9.6,19.1,9.2,19,8.8L19,8.8z"/>
	<path d="M10.8,9h-0.7C9.5,9,9,8.5,9,7.8V7.2C9,6.5,9.5,6,10.2,6h0.7C11.5,6,12,6.5,12,7.2v0.7C12,8.5,11.5,9,10.8,9z"/>
</g>
<g opacity="0.2">
	<path d="M18,7.8c-0.1-0.3-0.4-0.5-0.4-0.6L8,1L7.1,2.2C6.9,2.4,7,3.7,7.2,3.9C7.5,4.1,7.8,3,8,2.8L8.5,2l7.8,5.1L9.9,9
		C9.5,9,8.9,8.8,9,9.3l1.6,5.4l-4.5,6.7c-0.3,0.5-0.1,1.3,0.4,1.5c0.5,0.3,1.1-0.1,1.3-0.6l4.7-7.1l0.2,1l-0.7,5.3
		c-0.1,0.5,0.3,1.3,0.9,1.4c0.5,0.1,1-0.6,1.1-1.1l0.7-5.4c0-0.1,0-0.4,0-0.6l-1.6-6.4l4.2-0.7C17.7,8.6,18.1,8.2,18,7.8L18,7.8z"/>
	<path d="M9.8,8H9.2C8.5,8,8,7.5,8,6.8V6.2C8,5.5,8.5,5,9.2,5h0.7C10.5,5,11,5.5,11,6.2v0.7C11,7.5,10.5,8,9.8,8z"/>
</g>
<g>
	<path d="M17,6.8c-0.1-0.3-0.4-0.5-0.4-0.6L7,0L6.1,1.2C5.9,1.4,6,2.7,6.2,2.9C6.5,3.1,6.8,2,7,1.8L7.5,1l7.8,5.1L8.9,8
		C8.5,8,7.9,7.8,8,8.3l1.6,5.4l-4.5,6.7c-0.3,0.5-0.1,1.3,0.4,1.5c0.5,0.3,1.1-0.1,1.3-0.6l4.7-7.1l0.2,1l-0.7,5.3
		c-0.1,0.5,0.3,1.3,0.9,1.4c0.5,0.1,1-0.6,1.1-1.1l0.7-5.4c0-0.1,0-0.4,0-0.6l-1.6-6.4l4.2-0.7C16.7,7.6,17.1,7.2,17,6.8L17,6.8z"/>
	<path d="M8.8,7H8.2C7.5,7,7,6.5,7,5.8V5.2C7,4.5,7.5,4,8.2,4h0.7C9.5,4,10,4.5,10,5.2v0.7C10,6.5,9.5,7,8.8,7z"/>
</g>
</svg>
