<?xml version="1.0" encoding="utf-8"?>
<!-- Generator: Adobe Illustrator 18.1.1, SVG Export Plug-In . SVG Version: 6.00 Build 0)  -->
<svg version="1.1" id="Icons" xmlns="http://www.w3.org/2000/svg" xmlns:xlink="http://www.w3.org/1999/xlink" x="0px" y="0px"
	 viewBox="0 0 16 16" enable-background="new 0 0 16 16" xml:space="preserve">
<g opacity="0.5">
	<rect x="6" y="2" width="2" height="2"/>
	<path d="M14,7V5l-4,4H8V7l2,1V7L8,6V5H7H6v4H2v5h1v4h1v-4h1l1,4h1l-1-4v-1h5v5h1v-5l0.5-2H13h1h1v-1V9h1V8L14,7z M3,11v-1h1L3,11z
		 M14,10h-1h-0.2L13,9h1V10z"/>
</g>
<g opacity="0.75">
	<rect x="5" y="1" width="2" height="2"/>
	<path d="M13,6V4L9,8H7V6l2,1V6L7,5V4H6H5v4H1v5h1v4h1v-4h1l1,4h1l-1-4v-1h5v5h1v-5l0.5-2H12h1h1V9V8h1V7L13,6z M2,10V9h1L2,10z
		 M13,9h-1h-0.2L12,8h1V9z"/>
</g>
<g>
	<rect x="4" fill="#E6E6E6" width="2" height="2"/>
	<path fill="#E6E6E6" d="M12,5V3L8,7H6V5l2,1V5L6,4V3H5H4v4H0v5h1v4h1v-4h1l1,4h1l-1-4v-1h5v5h1v-5l0.5-2H11h1h1V8V7h1V6L12,5z M1,9
		V8h1L1,9z M12,8h-1h-0.2L11,7h1V8z"/>
</g>
</svg>
