<?xml version="1.0" encoding="utf-8"?>
<!-- Generator: Adobe Illustrator 18.1.1, SVG Export Plug-In . SVG Version: 6.00 Build 0)  -->
<svg version="1.1" id="Layer_1" xmlns="http://www.w3.org/2000/svg" xmlns:xlink="http://www.w3.org/1999/xlink" x="0px" y="0px"
	 viewBox="0 0 16 16" enable-background="new 0 0 16 16" xml:space="preserve">
<rect x="6" y="1" fill="none" width="1" height="1"/>
<path opacity="0.1" d="M5,2v3h10V2H5z M7,4H6V3h1V4z M9,4H8V3h1V4z"/>
<path opacity="0.1" d="M5,6v10h10V6H5z M10,14c-1.657,0-3-1.343-3-3s1.343-3,3-3s3,1.343,3,3S11.657,14,10,14z"/>
<path opacity="0.1" d="M11,9.269c-0.703-0.003-0.697,0.495-1.138,0.866c-0.565,0.475-1.133,0.362-1.586-0.131
	C8.105,10.298,8,10.635,8,11c0,1.105,0.895,2,2,2s2-0.895,2-2C12,9.844,11.001,9.269,11,9.269z"/>
<path opacity="0.2" d="M4,1v3h10V1H4z M6,3H5V2h1V3z M8,3H7V2h1V3z"/>
<path opacity="0.2" d="M4,5v10h10V5H4z M9,13c-1.657,0-3-1.343-3-3s1.343-3,3-3s3,1.343,3,3S10.657,13,9,13z"/>
<path opacity="0.2" d="M10,8.269C9.297,8.266,9.303,8.763,8.862,9.134C8.297,9.609,7.728,9.496,7.276,9.003
	C7.105,9.298,7,9.635,7,10c0,1.105,0.895,2,2,2s2-0.895,2-2C11,8.844,10.001,8.269,10,8.269z"/>
<path d="M3,0v3h10V0H3z M5,2H4V1h1V2z M7,2H6V1h1V2z"/>
<path d="M3,4v10h10V4H3z M8,12c-1.657,0-3-1.343-3-3s1.343-3,3-3s3,1.343,3,3S9.657,12,8,12z"/>
<path d="M9,7.269C8.297,7.266,8.303,7.763,7.862,8.134C7.297,8.609,6.728,8.496,6.276,8.003C6.105,8.298,6,8.635,6,9
	c0,1.105,0.895,2,2,2s2-0.895,2-2C10,7.844,9.001,7.269,9,7.269z"/>
</svg>
