<?xml version="1.0" encoding="utf-8"?>
<!-- Generator: Adobe Illustrator 18.1.1, SVG Export Plug-In . SVG Version: 6.00 Build 0)  -->
<svg version="1.1" id="Layer_1" xmlns="http://www.w3.org/2000/svg" xmlns:xlink="http://www.w3.org/1999/xlink" x="0px" y="0px"
	 viewBox="0 0 24 24" enable-background="new 0 0 24 24" xml:space="preserve">
<rect x="11" y="3" opacity="0.1" fill="none" width="2" height="2"/>
<path opacity="0.1" d="M6,2v4h16V2H6z M9,5H7V3h2V5z M13,5h-2V3h2V5z"/>
<path opacity="0.1" d="M6,7v17h16V7H6z M14,21c-3.314,0-6-2.686-6-6s2.686-6,6-6s6,2.686,6,6S17.314,21,14,21z"/>
<path opacity="0.1" d="M9.516,13c-0.551-0.382-0.433,1.286-0.433,2c0,2.715,2.201,4.917,4.917,4.917s4.917-2.201,4.917-4.917
	c0-0.714,0.085-1.574-0.433-2C13.208,8.667,14.875,16.708,9.516,13z"/>
<rect x="10" y="2" opacity="0.2" fill="none" width="2" height="2"/>
<path opacity="0.2" d="M5,1v4h16V1H5z M8,4H6V2h2V4z M12,4h-2V2h2V4z"/>
<path opacity="0.2" d="M5,6v17h16V6H5z M13,20c-3.314,0-6-2.686-6-6s2.686-6,6-6s6,2.686,6,6S16.314,20,13,20z"/>
<path opacity="0.2" d="M8.516,12c-0.551-0.382-0.433,1.286-0.433,2c0,2.715,2.201,4.917,4.917,4.917s4.917-2.201,4.917-4.917
	c0-0.714,0.085-1.574-0.433-2C12.208,7.667,13.875,15.708,8.516,12z"/>
<rect x="9" y="1" fill="none" width="2" height="2"/>
<path d="M4,0v4h16V0H4z M7,3H5V1h2V3z M11,3H9V1h2V3z"/>
<path d="M4,5v17h16V5H4z M12,19c-3.314,0-6-2.686-6-6s2.686-6,6-6s6,2.686,6,6S15.314,19,12,19z"/>
<path d="M7.516,11c-0.551-0.382-0.433,1.286-0.433,2c0,2.715,2.201,4.917,4.917,4.917s4.917-2.201,4.917-4.917
	c0-0.714,0.085-1.574-0.433-2C11.208,6.667,12.875,14.708,7.516,11z"/>
</svg>
