<?xml version="1.0" encoding="utf-8"?>
<!-- Generator: Adobe Illustrator 18.1.1, SVG Export Plug-In . SVG Version: 6.00 Build 0)  -->
<svg version="1.1" id="Icons" xmlns="http://www.w3.org/2000/svg" xmlns:xlink="http://www.w3.org/1999/xlink" x="0px" y="0px"
	 viewBox="0 0 24 24" enable-background="new 0 0 24 24" xml:space="preserve">
<g opacity="0.1">
	<path d="M12.7,10H9.8c-1.1,0-1.1,1.4,0,1.4l3.2,0c0.2,0,0.5-0.1,0.7-0.4L15,8.5V23c0,0.6,0.4,1,1,1c0.6,0,1-0.4,1-1v-8h1v8
		c0,0.6,0.4,1,1,1c0.6,0,1-0.4,1-1V9h1.5v4.9c0,1.1,1.5,1.1,1.5,0V8.4C23,7.2,21.8,6,20.3,6H19v1h-2V6c-0.8,0-2,0.5-2.4,1.1L12.7,10
		L12.7,10z"/>
	<polygon points="3,15 4,15 6,23 9,23 11,15 12,15 10,24 5,24 	"/>
	<polygon points="17,2 19,2 19,3 20,3 20,5 19,5 19,6 17,6 17,5 16,5 16,3 17,3 	"/>
	<circle cx="6" cy="12" r="1"/>
	<circle cx="8" cy="15" r="1"/>
	<circle cx="7" cy="18" r="1"/>
</g>
<g opacity="0.2">
	<path d="M11.7,9H8.8c-1.1,0-1.1,1.4,0,1.4l3.2,0c0.2,0,0.5-0.1,0.7-0.4L14,7.5V22c0,0.6,0.4,1,1,1c0.6,0,1-0.4,1-1v-8h1v8
		c0,0.6,0.4,1,1,1c0.6,0,1-0.4,1-1V8h1.5v4.9c0,1.1,1.5,1.1,1.5,0V7.4C22,6.2,20.8,5,19.3,5H18v1h-2V5c-0.8,0-2,0.5-2.4,1.1L11.7,9
		L11.7,9z"/>
	<polygon points="2,14 3,14 5,22 8,22 10,14 11,14 9,23 4,23 	"/>
	<polygon points="16,1 18,1 18,2 19,2 19,4 18,4 18,5 16,5 16,4 15,4 15,2 16,2 	"/>
	<circle cx="5" cy="11" r="1"/>
	<circle cx="7" cy="14" r="1"/>
	<circle cx="6" cy="17" r="1"/>
</g>
<g>
	<path d="M10.7,8H7.8c-1.1,0-1.1,1.4,0,1.4l3.2,0c0.2,0,0.5-0.1,0.7-0.4L13,6.5V21c0,0.6,0.4,1,1,1c0.6,0,1-0.4,1-1v-8h1v8
		c0,0.6,0.4,1,1,1c0.6,0,1-0.4,1-1V7h1.5v4.9c0,1.1,1.5,1.1,1.5,0V6.4C21,5.2,19.8,4,18.3,4H17v1h-2V4c-0.8,0-2,0.5-2.4,1.1L10.7,8
		L10.7,8z"/>
	<polygon points="1,13 2,13 4,21 7,21 9,13 10,13 8,22 3,22 	"/>
	<polygon points="15,0 17,0 17,1 18,1 18,3 17,3 17,4 15,4 15,3 14,3 14,1 15,1 	"/>
	<circle cx="4" cy="10" r="1"/>
	<circle cx="6" cy="13" r="1"/>
	<circle cx="5" cy="16" r="1"/>
</g>
</svg>
