<?xml version="1.0" encoding="utf-8"?>
<!-- Generator: Adobe Illustrator 18.1.1, SVG Export Plug-In . SVG Version: 6.00 Build 0)  -->
<svg version="1.1" id="Icons" xmlns="http://www.w3.org/2000/svg" xmlns:xlink="http://www.w3.org/1999/xlink" x="0px" y="0px"
	 viewBox="0 0 32 32" enable-background="new 0 0 32 32" xml:space="preserve">
<g opacity="0.5">
	<polygon points="2,8 4,8 4,19 32,19 32,26 30,26 30,21 4,21 4,26 2,26 	"/>
	<path d="M12,10v4.3c0,0.4-0.3,0.7-0.7,0.7H6v2h26v-3l-1-1l-2-1L12,10z"/>
	<circle cx="8.5" cy="11.5" r="2.5"/>
</g>
<g opacity="0.75">
	<polygon points="1,7 3,7 3,18 31,18 31,25 29,25 29,20 3,20 3,25 1,25 	"/>
	<path d="M11,9v4.3c0,0.4-0.3,0.7-0.7,0.7H5v2h26v-3l-1-1l-2-1L11,9z"/>
	<circle cx="7.5" cy="10.5" r="2.5"/>
</g>
<g>
	<polygon fill="#E6E6E6" points="0,6 2,6 2,17 30,17 30,24 28,24 28,19 2,19 2,24 0,24 	"/>
	<path fill="#E6E6E6" d="M10,8v4.3c0,0.4-0.3,0.7-0.7,0.7H4v2h26v-3l-1-1l-2-1L10,8z"/>
	<circle fill="#E6E6E6" cx="6.5" cy="9.5" r="2.5"/>
</g>
</svg>
