<?xml version="1.0" encoding="utf-8"?>
<!-- Generator: Adobe Illustrator 18.1.1, SVG Export Plug-In . SVG Version: 6.00 Build 0)  -->
<svg version="1.1" id="Icons" xmlns="http://www.w3.org/2000/svg" xmlns:xlink="http://www.w3.org/1999/xlink" x="0px" y="0px"
	 viewBox="0 0 16 16" enable-background="new 0 0 16 16" xml:space="preserve">
<g opacity="0.1">
	<path d="M15,12l-1-4l-3,3l2,1c-0.5,1.1-1.9,1.9-3,2.3V6V5h1V3h-1V2H8v1H7v2h1v1v8.3c-1.1-0.3-2.5-1.2-3-2.3l2-1L4,8l-1,4h1.7
		l-0.6,0.2c0.6,1.9,2.1,3.3,3.9,3.7V16h2v-0.1c1.8-0.4,3.3-1.8,3.9-3.7L13.3,12H15z M9.5,5H8.5C8.2,5,8,4.8,8,4.5V3.5
		C8,3.2,8.2,3,8.5,3h0.9C9.8,3,10,3.2,10,3.5v0.9C10,4.8,9.8,5,9.5,5z"/>
</g>
<g opacity="0.2">
	<path d="M14,11l-1-4l-3,3l2,1c-0.5,1.1-1.9,1.9-3,2.3V5V4h1V2H9V1H7v1H6v2h1v1v8.3c-1.1-0.3-2.5-1.2-3-2.3l2-1L3,7l-1,4h1.7
		l-0.6,0.2c0.6,1.9,2.1,3.3,3.9,3.7V15h2v-0.1c1.8-0.4,3.3-1.8,3.9-3.7L12.3,11H14z M8.5,4H7.5C7.2,4,7,3.8,7,3.5V2.5
		C7,2.2,7.2,2,7.5,2h0.9C8.8,2,9,2.2,9,2.5v0.9C9,3.8,8.8,4,8.5,4z"/>
</g>
<g>
	<path d="M13,10l-1-4L9,9l2,1c-0.5,1.1-1.9,1.9-3,2.3V4V3h1V1H8V0H6v1H5v2h1v1v8.3c-1.1-0.3-2.5-1.2-3-2.3l2-1L2,6l-1,4h1.7
		l-0.6,0.2c0.6,1.9,2.1,3.3,3.9,3.7V14h2v-0.1c1.8-0.4,3.3-1.8,3.9-3.7L11.3,10H13z M7.5,3H6.5C6.2,3,6,2.8,6,2.5V1.5
		C6,1.2,6.2,1,6.5,1h0.9C7.8,1,8,1.2,8,1.5v0.9C8,2.8,7.8,3,7.5,3z"/>
</g>
</svg>
