<?xml version="1.0" encoding="utf-8"?>
<!-- Generator: Adobe Illustrator 18.1.1, SVG Export Plug-In . SVG Version: 6.00 Build 0)  -->
<svg version="1.1" id="Icons" xmlns="http://www.w3.org/2000/svg" xmlns:xlink="http://www.w3.org/1999/xlink" x="0px" y="0px"
	 viewBox="0 0 24 24" enable-background="new 0 0 24 24" xml:space="preserve">
<g opacity="0.5">
	<path d="M23.1,11.1l-4.2,2.8c-0.4,0.3-0.4,0.8,0.1,1.1l1,0.5L19,17.3c-0.8,2.1-2.7,4.3-5,4.7V8c1.1-0.5,2-1.7,2-3c0-1.7-1.3-3-3-3
		c-1.7,0-3,1.4-3,3c0,1.3,0.9,2.5,2,3v14c-2.3-0.4-4.2-2.6-5-4.7l-0.9-1.9l1-0.5c0.4-0.2,0.5-0.8,0.1-1.1l-4.2-2.8
		c-0.4-0.3-0.9,0-0.9,0.5v4.9c0,0.5,0.5,0.7,0.9,0.5l1.3-0.7c0.2,0.5,0.5,1,0.8,1.6c1.1,3.5,4.1,6,8,6s6.9-2.5,8-6
		c0.3-0.6,0.5-1.2,0.8-1.6l1.3,0.7c0.4,0.2,0.9-0.1,0.9-0.5v-4.9C24,11.1,23.5,10.8,23.1,11.1z M12,6V4h2v2H12z"/>
</g>
<g opacity="0.75">
	<path d="M22.1,10.1l-4.2,2.8c-0.4,0.3-0.4,0.8,0.1,1.1l1,0.5L18,16.3c-0.8,2.1-2.7,4.3-5,4.7V7c1.1-0.5,2-1.7,2-3c0-1.7-1.3-3-3-3
		c-1.7,0-3,1.4-3,3c0,1.3,0.9,2.5,2,3v14c-2.3-0.4-4.2-2.6-5-4.7l-0.9-1.9l1-0.5c0.4-0.2,0.5-0.8,0.1-1.1l-4.2-2.8
		C1.5,9.8,1,10.1,1,10.6v4.9c0,0.5,0.5,0.7,0.9,0.5l1.3-0.7c0.2,0.5,0.5,1,0.8,1.6c1.1,3.5,4.1,6,8,6s6.9-2.5,8-6
		c0.3-0.6,0.5-1.2,0.8-1.6l1.3,0.7c0.4,0.2,0.9-0.1,0.9-0.5v-4.9C23,10.1,22.5,9.8,22.1,10.1z M11,5V3h2v2H11z"/>
</g>
<g>
	<path fill="#E6E6E6" d="M21.1,9.1l-4.2,2.8c-0.4,0.3-0.4,0.8,0.1,1.1l1,0.5L17,15.3c-0.8,2.1-2.7,4.3-5,4.7V6c1.1-0.5,2-1.7,2-3
		c0-1.7-1.3-3-3-3C9.3,0,8,1.4,8,3c0,1.3,0.9,2.5,2,3v14c-2.3-0.4-4.2-2.6-5-4.7l-0.9-1.9l1-0.5c0.4-0.2,0.5-0.8,0.1-1.1L0.9,9.1
		C0.5,8.8,0,9.1,0,9.6v4.9c0,0.5,0.5,0.7,0.9,0.5l1.3-0.7c0.2,0.5,0.5,1,0.8,1.6c1.1,3.5,4.1,6,8,6s6.9-2.5,8-6
		c0.3-0.6,0.5-1.2,0.8-1.6l1.3,0.7c0.4,0.2,0.9-0.1,0.9-0.5V9.6C22,9.1,21.5,8.8,21.1,9.1z M10,4V2h2v2H10z"/>
</g>
</svg>
