<?xml version="1.0" encoding="utf-8"?>
<!-- Generator: Adobe Illustrator 18.1.1, SVG Export Plug-In . SVG Version: 6.00 Build 0)  -->
<svg version="1.1" id="Icons" xmlns="http://www.w3.org/2000/svg" xmlns:xlink="http://www.w3.org/1999/xlink" x="0px" y="0px"
	 viewBox="0 0 16 16" enable-background="new 0 0 16 16" xml:space="preserve">
<g opacity="0.1">
	<path d="M15,11h-2l-1,1v2l1,1h2l1-1v-2L15,11z M15,14h-2v-2h2V14z"/>
	<path d="M5,11H3l-1,1v2l1,1h2l1-1v-2L5,11z M5,14H3v-2h2V14z"/>
	<polygon points="9,13 10,13 13,10 13,9 10,9 9,10 	"/>
	<polygon points="7,13 8,13 8,9 7,8 7,7 8,7 9,8 10,8 10,7 9,7 8,6 7,6 7,5 6,5 5,7 5,9 3,9 3,10 5,10 7,10 	"/>
	<circle cx="8.5" cy="3.5" r="1.5"/>
	<polygon points="15,9 15,8 13,8 12,7 11,7 11,8 12,8 13,9 	"/>
</g>
<g opacity="0.2">
	<path d="M14,10h-2l-1,1v2l1,1h2l1-1v-2L14,10z M14,13h-2v-2h2V13z"/>
	<path d="M4,10H2l-1,1v2l1,1h2l1-1v-2L4,10z M4,13H2v-2h2V13z"/>
	<polygon points="8,12 9,12 12,9 12,8 9,8 8,9 	"/>
	<polygon points="6,12 7,12 7,8 6,7 6,6 7,6 8,7 9,7 9,6 8,6 7,5 6,5 6,4 5,4 4,6 4,8 2,8 2,9 4,9 6,9 	"/>
	<circle cx="7.5" cy="2.5" r="1.5"/>
	<polygon points="14,8 14,7 12,7 11,6 10,6 10,7 11,7 12,8 	"/>
</g>
<g>
	<path d="M13,9h-2l-1,1v2l1,1h2l1-1v-2L13,9z M13,12h-2v-2h2V12z"/>
	<path d="M3,9H1l-1,1v2l1,1h2l1-1v-2L3,9z M3,12H1v-2h2V12z"/>
	<polygon points="7,11 8,11 11,8 11,7 8,7 7,8 	"/>
	<polygon points="5,11 6,11 6,7 5,6 5,5 6,5 7,6 8,6 8,5 7,5 6,4 5,4 5,3 4,3 3,5 3,7 1,7 1,8 3,8 5,8 	"/>
	<circle cx="6.5" cy="1.5" r="1.5"/>
	<polygon points="13,7 13,6 11,6 10,5 9,5 9,6 10,6 11,7 	"/>
</g>
</svg>
