<?xml version="1.0" encoding="utf-8"?>
<!-- Generator: Adobe Illustrator 18.1.1, SVG Export Plug-In . SVG Version: 6.00 Build 0)  -->
<svg version="1.1" id="Icons" xmlns="http://www.w3.org/2000/svg" xmlns:xlink="http://www.w3.org/1999/xlink" x="0px" y="0px"
	 viewBox="0 0 32 32" enable-background="new 0 0 32 32" xml:space="preserve">
<g opacity="0.5">
	<path d="M18.5,24.9C18.1,25.3,17.6,26,17,26v-8l5.2-1l0.8,2L18.5,24.9z"/>
	<path d="M14,8c-0.2,0.1-1,0-1,0s-0.1-0.7-0.2-0.7c-0.6,0-1.1,0.3-1.4,0.7l-4.1,6.2C7.1,14.5,7,14.8,7,15.2c0,0.6,0.3,1.2,0.8,1.5
		l5.2,3v5.2c0,0.7,0.9,1.3,1.6,1.3c0.7,0,1.3-0.6,1.3-1.3v-6.4c0,0,0.2-1-1-1.6l-3.4-1.8l2.5-3.8l1.3,2.1c0.3,0.4,0.6,0.6,0.9,0.6
		h3.4c1.4,0,1.4-2,0-2h-2.7L14,8z"/>
	<path d="M29.1,16.4l0.1,0.2c0,0.2-0.1,0.3-0.3,0.3l-0.1,0c-0.6-0.2-1-0.4-1.6-0.4c-0.4,0-1,0.2-1.6,0.7L24.9,16
		c0.7-0.2,1.4-0.4,2-0.4C27.9,15.6,28.5,15.8,29.1,16.4z"/>
	<path d="M6.4,17.3l5.7,3.2l0,1.3l-6.5-3.6c-0.5-0.2-1.1-0.4-1.6-0.4c-0.7,0-1.1,0.2-1.6,0.4l-0.1,0C2.1,18.2,2,18,2,17.9l0.1-0.2
		c0.7-0.6,1.3-0.8,2.4-0.8C5,16.8,5.6,16.9,6.4,17.3z"/>
	<path d="M27,29.5c1.9,0,3.5-1.6,3.5-3.5c0-1.9-1.6-3.5-3.5-3.5s-3.5,1.6-3.5,3.5C23.5,27.9,25.1,29.5,27,29.5z M22,26
		c0-2.8,2.2-5,5-5c2.8,0,5,2.2,5,5c0,2.8-2.2,5-5,5C24.2,31,22,28.8,22,26z"/>
	<path d="M7,29.5c1.9,0,3.5-1.6,3.5-3.5c0-1.9-1.6-3.5-3.5-3.5S3.5,24.1,3.5,26C3.5,27.9,5.1,29.5,7,29.5z M2,26c0-2.8,2.2-5,5-5
		c2.8,0,5,2.2,5,5c0,2.8-2.2,5-5,5C4.2,31,2,28.8,2,26z"/>
	<path d="M26,20l-2.4-4.7c-0.3-0.6-0.9-1-1.6-1h-1.5c-0.3,0-0.5,0.2-0.5,0.6c0,0.3,0.2,0.5,0.5,0.5l1.5,0c0.3,0,0.5,0.2,0.7,0.4
		l2.2,4.6L26,20z"/>
	<path d="M16,2c-1.7,0-3,1.4-3,3.1c0,0.7,0.2,1.3,0.6,1.9h0.6c0.3,0.6,1,1,1.7,1s1.4-0.4,1.7-1H18V4.5h1C18.7,3.1,17.5,2,16,2z"/>
</g>
<g opacity="0.75">
	<path d="M17.5,23.9C17.1,24.3,16.6,25,16,25v-8l5.2-1l0.8,2L17.5,23.9z"/>
	<path d="M13,7c-0.2,0.1-1,0-1,0s-0.1-0.7-0.2-0.7c-0.6,0-1.1,0.3-1.4,0.7l-4.1,6.2C6.1,13.5,6,13.8,6,14.2c0,0.6,0.3,1.2,0.8,1.5
		l5.2,3v5.2c0,0.7,0.9,1.3,1.6,1.3c0.7,0,1.3-0.6,1.3-1.3v-6.4c0,0,0.2-1-1-1.6l-3.4-1.8l2.5-3.8l1.3,2.1c0.3,0.4,0.6,0.6,0.9,0.6
		h3.4c1.4,0,1.4-2,0-2h-2.7L13,7z"/>
	<path d="M28.1,15.4l0.1,0.2c0,0.2-0.1,0.3-0.3,0.3l-0.1,0c-0.6-0.2-1-0.4-1.6-0.4c-0.4,0-1,0.2-1.6,0.7L23.9,15
		c0.7-0.2,1.4-0.4,2-0.4C26.9,14.6,27.5,14.8,28.1,15.4z"/>
	<path d="M5.4,16.3l5.7,3.2l0,1.3l-6.5-3.6c-0.5-0.2-1.1-0.4-1.6-0.4c-0.7,0-1.1,0.2-1.6,0.4l-0.1,0C1.1,17.2,1,17,1,16.9l0.1-0.2
		c0.7-0.6,1.3-0.8,2.4-0.8C4,15.8,4.6,15.9,5.4,16.3z"/>
	<path d="M26,28.5c1.9,0,3.5-1.6,3.5-3.5c0-1.9-1.6-3.5-3.5-3.5s-3.5,1.6-3.5,3.5C22.5,26.9,24.1,28.5,26,28.5z M21,25
		c0-2.8,2.2-5,5-5c2.8,0,5,2.2,5,5c0,2.8-2.2,5-5,5C23.2,30,21,27.8,21,25z"/>
	<path d="M6,28.5c1.9,0,3.5-1.6,3.5-3.5c0-1.9-1.6-3.5-3.5-3.5S2.5,23.1,2.5,25C2.5,26.9,4.1,28.5,6,28.5z M1,25c0-2.8,2.2-5,5-5
		c2.8,0,5,2.2,5,5c0,2.8-2.2,5-5,5C3.2,30,1,27.8,1,25z"/>
	<path d="M25,19l-2.4-4.7c-0.3-0.6-0.9-1-1.6-1h-1.5c-0.3,0-0.5,0.2-0.5,0.6c0,0.3,0.2,0.5,0.5,0.5l1.5,0c0.3,0,0.5,0.2,0.7,0.4
		l2.2,4.6L25,19z"/>
	<path d="M15,1c-1.7,0-3,1.4-3,3.1c0,0.7,0.2,1.3,0.6,1.9h0.6c0.3,0.6,1,1,1.7,1s1.4-0.4,1.7-1H17V3.5h1C17.7,2.1,16.5,1,15,1z"/>
</g>
<g>
	<path fill="#E6E6E6" d="M16.5,22.9C16.1,23.3,15.6,24,15,24v-8l5.2-1l0.8,2L16.5,22.9z"/>
	<path fill="#E6E6E6" d="M12,6c-0.2,0.1-1,0-1,0s-0.1-0.7-0.2-0.7c-0.6,0-1.1,0.3-1.4,0.7l-4.1,6.2C5.1,12.5,5,12.8,5,13.2
		c0,0.6,0.3,1.2,0.8,1.5l5.2,3v5.2c0,0.7,0.9,1.3,1.6,1.3c0.7,0,1.3-0.6,1.3-1.3v-6.4c0,0,0.2-1-1-1.6l-3.4-1.8L12,9.3l1.3,2.1
		c0.3,0.4,0.6,0.6,0.9,0.6h3.4c1.4,0,1.4-2,0-2h-2.7L12,6z"/>
	<path fill="#E6E6E6" d="M27.1,14.4l0.1,0.2c0,0.2-0.1,0.3-0.3,0.3l-0.1,0c-0.6-0.2-1-0.4-1.6-0.4c-0.4,0-1,0.2-1.6,0.7L22.9,14
		c0.7-0.2,1.4-0.4,2-0.4C25.9,13.6,26.5,13.8,27.1,14.4z"/>
	<path fill="#E6E6E6" d="M4.4,15.3l5.7,3.2l0,1.3l-6.5-3.6c-0.5-0.2-1.1-0.4-1.6-0.4c-0.7,0-1.1,0.2-1.6,0.4l-0.1,0
		C0.1,16.2,0,16,0,15.9l0.1-0.2c0.7-0.6,1.3-0.8,2.4-0.8C3,14.8,3.6,14.9,4.4,15.3z"/>
	<path fill="#E6E6E6" d="M25,27.5c1.9,0,3.5-1.6,3.5-3.5c0-1.9-1.6-3.5-3.5-3.5s-3.5,1.6-3.5,3.5C21.5,25.9,23.1,27.5,25,27.5z
		 M20,24c0-2.8,2.2-5,5-5c2.8,0,5,2.2,5,5c0,2.8-2.2,5-5,5C22.2,29,20,26.8,20,24z"/>
	<path fill="#E6E6E6" d="M5,27.5c1.9,0,3.5-1.6,3.5-3.5c0-1.9-1.6-3.5-3.5-3.5S1.5,22.1,1.5,24C1.5,25.9,3.1,27.5,5,27.5z M0,24
		c0-2.8,2.2-5,5-5c2.8,0,5,2.2,5,5c0,2.8-2.2,5-5,5C2.2,29,0,26.8,0,24z"/>
	<path fill="#E6E6E6" d="M24,18l-2.4-4.7c-0.3-0.6-0.9-1-1.6-1h-1.5c-0.3,0-0.5,0.2-0.5,0.6c0,0.3,0.2,0.5,0.5,0.5l1.5,0
		c0.3,0,0.5,0.2,0.7,0.4l2.2,4.6L24,18z"/>
	<path fill="#E6E6E6" d="M14,0c-1.7,0-3,1.4-3,3.1c0,0.7,0.2,1.3,0.6,1.9h0.6c0.3,0.6,1,1,1.7,1s1.4-0.4,1.7-1H16V2.5h1
		C16.7,1.1,15.5,0,14,0z"/>
</g>
</svg>
