<?xml version="1.0" encoding="utf-8"?>
<!-- Generator: Adobe Illustrator 18.1.1, SVG Export Plug-In . SVG Version: 6.00 Build 0)  -->
<svg version="1.1" id="Icons" xmlns="http://www.w3.org/2000/svg" xmlns:xlink="http://www.w3.org/1999/xlink" x="0px" y="0px"
	 viewBox="0 0 24 24" enable-background="new 0 0 24 24" xml:space="preserve">
<g opacity="0.5">
	<path d="M13.9,13c1.8,0,3.5-1.8,3.5-3.6c0-1.8-1.7-3.4-3.5-3.4h-5v7H13.9z M14.1,2C18.2,2,22,5.3,22,9.5c0,4.1-3.9,7.5-8.1,7.5h-5
		v7H5V2H14.1z"/>
</g>
<g opacity="0.75">
	<path d="M12.9,12c1.8,0,3.5-1.8,3.5-3.6c0-1.8-1.7-3.4-3.5-3.4h-5v7H12.9z M13.1,1C17.2,1,21,4.3,21,8.5c0,4.1-3.9,7.5-8.1,7.5h-5
		v7H4V1H13.1z"/>
</g>
<g>
	<path fill="#E6E6E6" d="M11.9,11c1.8,0,3.5-1.8,3.5-3.6c0-1.8-1.7-3.4-3.5-3.4h-5v7H11.9z M12.1,0C16.2,0,20,3.3,20,7.5
		c0,4.1-3.9,7.5-8.1,7.5h-5v7H3V0H12.1z"/>
</g>
</svg>
