<?xml version="1.0" encoding="utf-8"?>
<!-- Generator: Adobe Illustrator 18.1.1, SVG Export Plug-In . SVG Version: 6.00 Build 0)  -->
<svg version="1.1" id="Icons" xmlns="http://www.w3.org/2000/svg" xmlns:xlink="http://www.w3.org/1999/xlink" x="0px" y="0px"
	 viewBox="0 0 16 16" enable-background="new 0 0 16 16" xml:space="preserve">
<g opacity="0.1">
	<path d="M9.8,8.8c1.2,0,2.7-0.9,2.7-2.1c0-1.2-1-2.1-2.2-2.1l-3.6,0v4.2h3.6L9.8,8.8z M9.8,2C12.4,2,15,4.1,15,6.7
		c0,2.6-2.6,4.8-5.2,4.8l-3.1,0V16H4V2H9.8z"/>
</g>
<g opacity="0.2">
	<path d="M8.8,7.8c1.2,0,2.7-0.9,2.7-2.1c0-1.2-1-2.1-2.2-2.1l-3.6,0v4.2h3.6L8.8,7.8z M8.8,1C11.4,1,14,3.1,14,5.7
		c0,2.6-2.6,4.8-5.2,4.8l-3.1,0V15H3V1H8.8z"/>
</g>
<g>
	<path d="M7.8,6.8c1.2,0,2.7-0.9,2.7-2.1c0-1.2-1-2.1-2.2-2.1l-3.6,0v4.2h3.6L7.8,6.8z M7.8,0C10.4,0,13,2.1,13,4.7
		c0,2.6-2.6,4.8-5.2,4.8l-3.1,0V14H2V0H7.8z"/>
</g>
</svg>
