<?xml version="1.0" encoding="utf-8"?>
<!-- Generator: Adobe Illustrator 18.1.1, SVG Export Plug-In . SVG Version: 6.00 Build 0)  -->
<svg version="1.1" id="Icons" xmlns="http://www.w3.org/2000/svg" xmlns:xlink="http://www.w3.org/1999/xlink" x="0px" y="0px"
	 viewBox="0 0 16 16" enable-background="new 0 0 16 16" xml:space="preserve">
<g opacity="0.1">
	<polygon points="12,9 12,8.5 11,8 4,8 4,7 3,7 4,9 4,15 6,16 6,15 6,13 8,16 9,15 7,12 11,12 11,15 13,16 13,15 13,9 	"/>
	<polygon points="12,4 12,3 11,3 11,7 12,7 12,7.5 13,8 16,8 16,6 	"/>
	<polygon points="2,3 11,7 11,8 2,4 	"/>
</g>
<g opacity="0.2">
	<polygon points="11,8 11,7.5 10,7 3,7 3,6 2,6 3,8 3,14 5,15 5,14 5,12 7,15 8,14 6,11 10,11 10,14 12,15 12,14 12,8 	"/>
	<polygon points="11,3 11,2 10,2 10,6 11,6 11,6.5 12,7 15,7 15,5 	"/>
	<polygon points="1,2 10,6 10,7 1,3 	"/>
</g>
<g>
	<polygon points="10,7 10,6.5 9,6 2,6 2,5 1,5 2,7 2,13 4,14 4,13 4,11 6,14 7,13 5,10 9,10 9,13 11,14 11,13 11,7 	"/>
	<polygon points="10,2 10,1 9,1 9,5 10,5 10,5.5 11,6 14,6 14,4 	"/>
	<polygon points="0,1 9,5 9,6 0,2 	"/>
</g>
</svg>
