<?xml version="1.0" encoding="utf-8"?>
<!-- Generator: Adobe Illustrator 18.1.1, SVG Export Plug-In . SVG Version: 6.00 Build 0)  -->
<svg version="1.1" id="Icons" xmlns="http://www.w3.org/2000/svg" xmlns:xlink="http://www.w3.org/1999/xlink" x="0px" y="0px"
	 viewBox="0 0 32 32" enable-background="new 0 0 32 32" xml:space="preserve">
<g opacity="0.5">
	<path d="M32,17h-7l-3-7h5V7H7v3h5l-3,7H2v3h6l-3,8h3l3-8h12l3,8h3l-3-8h6V17z M12,17l3-7h4l3,7H12z"/>
</g>
<g opacity="0.75">
	<path d="M31,16h-7l-3-7h5V6H6v3h5l-3,7H1v3h6l-3,8h3l3-8h12l3,8h3l-3-8h6V16z M11,16l3-7h4l3,7H11z"/>
</g>
<g>
	<path fill="#E6E6E6" d="M30,15h-7l-3-7h5V5H5v3h5l-3,7H0v3h6l-3,8h3l3-8h12l3,8h3l-3-8h6V15z M10,15l3-7h4l3,7H10z"/>
</g>
</svg>
