<?xml version="1.0" encoding="utf-8"?>
<!-- Generator: Adobe Illustrator 18.1.1, SVG Export Plug-In . SVG Version: 6.00 Build 0)  -->
<svg version="1.1" id="Icons" xmlns="http://www.w3.org/2000/svg" xmlns:xlink="http://www.w3.org/1999/xlink" x="0px" y="0px"
	 viewBox="0 0 24 24" enable-background="new 0 0 24 24" xml:space="preserve">
<g opacity="0.5">
	<path d="M24,14h-6l-2-5h4V7H6v2h4l-2,5H2v2h5l-2,5h2l2-5h8l2,5h2l-2-5h5V14z M10,14l2-5h2l2,5H10z"/>
</g>
<g opacity="0.75">
	<path d="M23,13h-6l-2-5h4V6H5v2h4l-2,5H1v2h5l-2,5h2l2-5h8l2,5h2l-2-5h5V13z M9,13l2-5h2l2,5H9z"/>
</g>
<g>
	<path fill="#E6E6E6" d="M22,12h-6l-2-5h4V5H4v2h4l-2,5H0v2h5l-2,5h2l2-5h8l2,5h2l-2-5h5V12z M8,12l2-5h2l2,5H8z"/>
</g>
</svg>
