<?xml version="1.0" encoding="utf-8"?>
<!-- Generator: Adobe Illustrator 18.1.1, SVG Export Plug-In . SVG Version: 6.00 Build 0)  -->
<svg version="1.1" id="Icons" xmlns="http://www.w3.org/2000/svg" xmlns:xlink="http://www.w3.org/1999/xlink" x="0px" y="0px"
	 viewBox="0 0 32 32" enable-background="new 0 0 32 32" xml:space="preserve">
<g opacity="0.5">
	<path d="M2,5v23h30V5H2z M28,7v1h-1v1h-1v1h-1v1h-1v1h-1v1h-1v1h-1v1h-1v1h-1v1h-1v1h-2v-1h-1v-1h-1v-1h-1v-1h-1v-1h-1v-1h-1v-1H9
		v-1H8V9H7V8H6V7H28z M4,9h1v1h1v1h1v1h1v1h1v1h1v1h1v1h1v1h-1v1h-1v1H9v1H8v1H7v1H6v1H5v1H4V9z M6,26v-1h1v-1h1v-1h1v-1h1v-1h1v-1
		h1v-1h1v-1h1v1h1v1h1h0.5h1H18h1v-1h1v-1h1v1h1v1h1v1h1v1h1v1h1v1h1v1h1v1H6z M30,24h-1v-1h-1v-1h-1v-1h-1v-1h-1v-1h-1v-1h-1v-1h-1
		v-1h1v-1h1v-1h1v-1c0,0,1,0.1,1,0s0-1,0-1h1v-1h1v-1h1V9h1V24z"/>
</g>
<g opacity="0.75">
	<path d="M1,4v23h30V4H1z M27,6v1h-1v1h-1v1h-1v1h-1v1h-1v1h-1v1h-1v1h-1v1h-1v1h-1v1h-2v-1h-1v-1h-1v-1h-1v-1h-1v-1h-1v-1H9v-1H8V9
		H7V8H6V7H5V6H27z M3,8h1v1h1v1h1v1h1v1h1v1h1v1h1v1h1v1h-1v1H9v1H8v1H7v1H6v1H5v1H4v1H3V8z M5,25v-1h1v-1h1v-1h1v-1h1v-1h1v-1h1v-1
		h1v-1h1v1h1v1h1h0.5h1H17h1v-1h1v-1h1v1h1v1h1v1h1v1h1v1h1v1h1v1h1v1H5z M29,23h-1v-1h-1v-1h-1v-1h-1v-1h-1v-1h-1v-1h-1v-1h-1v-1h1
		v-1h1v-1h1v-1c0,0,1,0.1,1,0s0-1,0-1h1v-1h1V9h1V8h1V23z"/>
</g>
<g>
	<path fill="#E6E6E6" d="M0,3v23h30V3H0z M26,5v1h-1v1h-1v1h-1v1h-1v1h-1v1h-1v1h-1v1h-1v1h-1v1h-1v1h-2v-1h-1v-1h-1v-1h-1v-1h-1v-1
		H9v-1H8V9H7V8H6V7H5V6H4V5H26z M2,7h1v1h1v1h1v1h1v1h1v1h1v1h1v1h1v1H9v1H8v1H7v1H6v1H5v1H4v1H3v1H2V7z M4,24v-1h1v-1h1v-1h1v-1h1
		v-1h1v-1h1v-1h1v-1h1v1h1v1h1h0.5h1H16h1v-1h1v-1h1v1h1v1h1v1h1v1h1v1h1v1h1v1h1v1H4z M28,22h-1v-1h-1v-1h-1v-1h-1v-1h-1v-1h-1v-1
		h-1v-1h-1v-1h1v-1h1v-1h1v-1c0,0,1,0.1,1,0s0-1,0-1h1V9h1V8h1V7h1V22z"/>
</g>
</svg>
