<?xml version="1.0" encoding="utf-8"?>
<!-- Generator: Adobe Illustrator 18.1.1, SVG Export Plug-In . SVG Version: 6.00 Build 0)  -->
<svg version="1.1" id="Icons" xmlns="http://www.w3.org/2000/svg" xmlns:xlink="http://www.w3.org/1999/xlink" x="0px" y="0px"
	 viewBox="0 0 16 16" enable-background="new 0 0 16 16" xml:space="preserve">
<g opacity="0.1">
	<polygon points="5,14 6,14 6,13 7,13 7,12 10,12 10,13 11,13 11,14 16,14 16,10 10,10 6,11 5,12 	"/>
	<polygon points="16,6 16,7 14,7 12,10 12,9 14,6 	"/>
	<polygon points="9,5 12,10 11,10 9,6 8,6 8,5 	"/>
	<polygon points="2,2 6,4 5,5 3,4 2,4 	"/>
	<path d="M10,16H7v-3h3V16z M9,14H8v1h1V14z"/>
	<polygon points="6,6 7,8 7,9 5,9 5,8 	"/>
</g>
<g opacity="0.2">
	<polygon points="4,13 5,13 5,12 6,12 6,11 9,11 9,12 10,12 10,13 15,13 15,9 9,9 5,10 4,11 	"/>
	<polygon points="15,5 15,6 13,6 11,9 11,8 13,5 	"/>
	<polygon points="8,4 11,9 10,9 8,5 7,5 7,4 	"/>
	<polygon points="1,1 5,3 4,4 2,3 1,3 	"/>
	<path d="M9,15H6v-3h3V15z M8,13H7v1h1V13z"/>
	<polygon points="5,5 6,7 6,8 4,8 4,7 	"/>
</g>
<g>
	<polygon points="3,12 4,12 4,11 5,11 5,10 8,10 8,11 9,11 9,12 14,12 14,8 8,8 4,9 3,10 	"/>
	<polygon points="14,4 14,5 12,5 10,8 10,7 12,4 	"/>
	<polygon points="7,3 10,8 9,8 7,4 6,4 6,3 	"/>
	<polygon points="0,0 4,2 3,3 1,2 0,2 	"/>
	<path d="M8,14H5v-3h3V14z M7,12H6v1h1V12z"/>
	<polygon points="4,4 5,6 5,7 3,7 3,6 	"/>
</g>
</svg>
