<?xml version="1.0" encoding="utf-8"?>
<!-- Generator: Adobe Illustrator 18.1.1, SVG Export Plug-In . SVG Version: 6.00 Build 0)  -->
<svg version="1.1" id="Icons" xmlns="http://www.w3.org/2000/svg" xmlns:xlink="http://www.w3.org/1999/xlink" x="0px" y="0px"
	 viewBox="0 0 32 32" enable-background="new 0 0 32 32" xml:space="preserve">
<g opacity="0.1">
	<path d="M9,16.2c0,1,0.9,1.8,2,1.8c1.1,0,2-0.8,2-1.8c0-1-2-5.2-2-5.2S9,15.2,9,16.2z"/>
	<path d="M2,3c1.7,0,7.1,2.3,9.3,6.1L9,10.9c0,0-2.4-3.1-7-3.9L2,3L2,3z"/>
	<polygon points="32,13 32,11 28,11 23,18 17,9 15,9 15,10.5 17,10.5 22,19 17,19 9,20 8,21 8,27 11,27 11,25 12,25 12,24 13,24 
		13,23 14,23 14,22 18,22 18,23 19,23 19,24 20,24 20,25 21,25 21,27 32,27 32,19 24,19 28,13 	"/>
	<path d="M19,25v-1h-1v-1h-4v1h-1v1h-1v4h1v1h1v1h4v-1h1v-1h1v-4H19z M17,28h-2v-2h2V28z"/>
</g>
<g opacity="0.2">
	<path d="M8,15.2c0,1,0.9,1.8,2,1.8c1.1,0,2-0.8,2-1.8c0-1-2-5.2-2-5.2S8,14.2,8,15.2z"/>
	<path d="M1,2c1.7,0,7.1,2.3,9.3,6.1L8,9.9c0,0-2.4-3.1-7-3.9L1,2L1,2z"/>
	<polygon points="31,12 31,10 27,10 22,17 16,8 14,8 14,9.5 16,9.5 21,18 16,18 8,19 7,20 7,26 10,26 10,24 11,24 11,23 12,23 
		12,22 13,22 13,21 17,21 17,22 18,22 18,23 19,23 19,24 20,24 20,26 31,26 31,18 23,18 27,12 	"/>
	<path d="M18,24v-1h-1v-1h-4v1h-1v1h-1v4h1v1h1v1h4v-1h1v-1h1v-4H18z M16,27h-2v-2h2V27z"/>
</g>
<g>
	<path d="M7,14.2c0,1,0.9,1.8,2,1.8c1.1,0,2-0.8,2-1.8c0-1-2-5.2-2-5.2S7,13.2,7,14.2z"/>
	<path d="M0,1c1.7,0,7.1,2.3,9.3,6.1L7,8.9c0,0-2.4-3.1-7-3.9L0,1L0,1z"/>
	<polygon points="30,11 30,9 26,9 21,16 15,7 13,7 13,8.5 15,8.5 20,17 15,17 7,18 6,19 6,25 9,25 9,23 10,23 10,22 11,22 11,21 
		12,21 12,20 16,20 16,21 17,21 17,22 18,22 18,23 19,23 19,25 30,25 30,17 22,17 26,11 	"/>
	<path d="M17,23v-1h-1v-1h-4v1h-1v1h-1v4h1v1h1v1h4v-1h1v-1h1v-4H17z M15,26h-2v-2h2V26z"/>
</g>
</svg>
