<?xml version="1.0" encoding="utf-8"?>
<!-- Generator: Adobe Illustrator 18.1.1, SVG Export Plug-In . SVG Version: 6.00 Build 0)  -->
<svg version="1.1" id="Icons" xmlns="http://www.w3.org/2000/svg" xmlns:xlink="http://www.w3.org/1999/xlink" x="0px" y="0px"
	 viewBox="0 0 24 24" enable-background="new 0 0 24 24" xml:space="preserve">
<g opacity="0.5">
	<polygon points="22,15 15,10.3 15,6 17,6 17,7 20,7 20,3 17,3 17,2 15,2 14,2 14,9.7 13,9 4,15 3,15 3,16 5,16 5,24 11,24 11,18 
		15,18 15,24 21,24 21,16 23,16 23,15 	"/>
</g>
<g opacity="0.75">
	<polygon points="21,14 14,9.3 14,5 16,5 16,6 19,6 19,2 16,2 16,1 14,1 13,1 13,8.7 12,8 3,14 2,14 2,15 4,15 4,23 10,23 10,17 
		14,17 14,23 20,23 20,15 22,15 22,14 	"/>
</g>
<g>
	<polygon fill="#E6E6E6" points="20,13 13,8.3 13,4 15,4 15,5 18,5 18,1 15,1 15,0 13,0 12,0 12,7.7 11,7 2,13 1,13 1,14 3,14 3,22 
		9,22 9,16 13,16 13,22 19,22 19,14 21,14 21,13 	"/>
</g>
</svg>
