<?xml version="1.0" encoding="utf-8"?>
<!-- Generator: Adobe Illustrator 18.1.1, SVG Export Plug-In . SVG Version: 6.00 Build 0)  -->
<svg version="1.1" id="Icons" xmlns="http://www.w3.org/2000/svg" xmlns:xlink="http://www.w3.org/1999/xlink" x="0px" y="0px"
	 viewBox="0 0 32 32" enable-background="new 0 0 32 32" xml:space="preserve">
<g opacity="0.5">
	<polygon points="28,20 19.8,14 20,14 20,8 23,8 23,9 27,9 27,3 23,3 23,2 20,2 20,2 19,2 19,13.5 17,12 16,12 5,20 4,20 4,21 6,21 
		6,32 13,32 13,24 14,23 18,23 19,24 19,32 27,32 27,21 29,21 29,20 	"/>
</g>
<g opacity="0.75">
	<polygon points="27,19 18.8,13 19,13 19,7 22,7 22,8 26,8 26,2 22,2 22,1 19,1 19,1 18,1 18,12.5 16,11 15,11 4,19 3,19 3,20 5,20 
		5,31 12,31 12,23 13,22 17,22 18,23 18,31 26,31 26,20 28,20 28,19 	"/>
</g>
<g>
	<polygon fill="#E6E6E6" points="26,18 17.8,12 18,12 18,6 21,6 21,7 25,7 25,1 21,1 21,0 18,0 18,0 17,0 17,11.5 15,10 14,10 3,18 
		2,18 2,19 4,19 4,30 11,30 11,22 12,21 16,21 17,22 17,30 25,30 25,19 27,19 27,18 	"/>
</g>
</svg>
