<?xml version="1.0" encoding="utf-8"?>
<!-- Generator: Adobe Illustrator 18.1.1, SVG Export Plug-In . SVG Version: 6.00 Build 0)  -->
<svg version="1.1" id="Icons" xmlns="http://www.w3.org/2000/svg" xmlns:xlink="http://www.w3.org/1999/xlink" x="0px" y="0px"
	 viewBox="0 0 32 32" enable-background="new 0 0 32 32" xml:space="preserve">
<g opacity="0.5">
	<path d="M2,14l2.3,1.6l0.6,0.4l-1.8,3.1C3,19.3,3,19.7,3,20c0,0.3,0,0.6,0.1,0.9c0,0,1.6,2.9,2.9,5.2c0.1-0.3-0.2-0.8,0-1.1
		l3.9-6.1l0.6,0.4l2.3,1.3L9.2,14H2z"/>
	<path d="M8.9,24c-0.3,0.5-1.8,2.2-1.8,2.6s0.1,0.7,0.3,1.1C7.8,28.3,8.5,29,9.3,29c0,0,6.6,0,7.7,0c0-1,0-4.9,0-6
		c-1.1,0-7.4,0-8.1,0V24z"/>
	<path d="M28,5.1l-2.4,1.3L25,6.7l-1.8-3.1c-0.2-0.3-0.4-0.4-0.7-0.5c-0.3-0.2-0.6,0-0.9,0c0,0-3,0-5.6,0c0.2,0.2,0.8,0.7,1,1l3,5.5
		l-0.6,0.4L17.1,11h7.2L28,5.1L28,5.1z"/>
	<path d="M17,7.1c-0.3-0.5-2-2.9-2-2.9c-0.2-0.3,0-1,0-1s-1.3,0-1.4,0c-0.8,0-1.5,0.4-1.9,1c0,0-3.1,5.2-3.7,6.2
		c0.9,0.5,4.2,2.2,5.1,2.7C13.6,12.1,16.7,7.6,17,7.1z"/>
	<path d="M23,32v-2.7L22.8,29h3.6c0.3,0,0.6-0.5,0.9-0.6c0.3-0.2,0.5-0.4,0.7-0.6c0,0,1.6-2.5,2.9-4.7c-0.3,0.1-0.6,0-1,0h-7.1
		l0.2-0.8V19l-4,7L23,32z"/>
	<path d="M26.9,22c0.6,0,2.9,0,2.9,0c0.4,0,0.8-0.4,1.1-0.6c0.3-0.2,0.6-0.4,0.8-0.8c0.4-0.7,0.4-1.5,0-2.1c0,0-3.1-5.5-3.7-6.4
		c-0.9,0.5-4.1,2.6-5,3.1C23.5,16.1,26.6,21.4,26.9,22z"/>
</g>
<g opacity="0.75">
	<path d="M1,13l2.3,1.6l0.6,0.4l-1.8,3.1C2,18.3,2,18.7,2,19c0,0.3,0,0.6,0.1,0.9c0,0,1.6,2.9,2.9,5.2c0.1-0.3-0.2-0.8,0-1.1
		l3.9-6.1l0.6,0.4l2.3,1.3L8.2,13H1z"/>
	<path d="M7.9,23c-0.3,0.5-1.8,2.2-1.8,2.6s0.1,0.7,0.3,1.1C6.8,27.3,7.5,28,8.3,28c0,0,6.6,0,7.7,0c0-1,0-4.9,0-6
		c-1.1,0-7.4,0-8.1,0V23z"/>
	<path d="M27,4.1l-2.4,1.3L24,5.7l-1.8-3.1c-0.2-0.3-0.4-0.4-0.7-0.5c-0.3-0.2-0.6,0-0.9,0c0,0-3,0-5.6,0c0.2,0.2,0.8,0.7,1,1l3,5.5
		l-0.6,0.4L16.1,10h7.2L27,4.1L27,4.1z"/>
	<path d="M16,6.1c-0.3-0.5-2-2.9-2-2.9c-0.2-0.3,0-1,0-1s-1.3,0-1.4,0c-0.8,0-1.5,0.4-1.9,1c0,0-3.1,5.2-3.7,6.2
		c0.9,0.5,4.2,2.2,5.1,2.7C12.6,11.1,15.7,6.6,16,6.1z"/>
	<path d="M22,31v-2.7L21.8,28h3.6c0.3,0,0.6-0.5,0.9-0.6c0.3-0.2,0.5-0.4,0.7-0.6c0,0,1.6-2.5,2.9-4.7c-0.3,0.1-0.6,0-1,0h-7.1
		l0.2-0.8V18l-4,7L22,31z"/>
	<path d="M25.9,21c0.6,0,2.9,0,2.9,0c0.4,0,0.8-0.4,1.1-0.6c0.3-0.2,0.6-0.4,0.8-0.8c0.4-0.7,0.4-1.5,0-2.1c0,0-3.1-5.5-3.7-6.4
		c-0.9,0.5-4.1,2.6-5,3.1C22.5,15.1,25.6,20.4,25.9,21z"/>
</g>
<g>
	<path fill="#FFFFFF" d="M0,12l2.3,1.6l0.6,0.4l-1.8,3.1C1,17.3,1,17.7,1,18c0,0.3,0,0.6,0.1,0.9c0,0,1.6,2.9,2.9,5.2
		c0.1-0.3-0.2-0.8,0-1.1l3.9-6.1l0.6,0.4l2.3,1.3L7.2,12H0z"/>
	<path fill="#FFFFFF" d="M6.9,22c-0.3,0.5-1.8,2.2-1.8,2.6s0.1,0.7,0.3,1.1C5.8,26.3,6.5,27,7.3,27c0,0,6.6,0,7.7,0c0-1,0-4.9,0-6
		c-1.1,0-7.4,0-8.1,0V22z"/>
	<path fill="#FFFFFF" d="M26,3.1l-2.4,1.3L23,4.7l-1.8-3.1c-0.2-0.3-0.4-0.4-0.7-0.5c-0.3-0.2-0.6,0-0.9,0c0,0-3,0-5.6,0
		c0.2,0.2,0.8,0.7,1,1l3,5.5l-0.6,0.4L15.1,9h7.2L26,3.1L26,3.1z"/>
	<path fill="#FFFFFF" d="M15,5.1c-0.3-0.5-2-2.9-2-2.9c-0.2-0.3,0-1,0-1s-1.3,0-1.4,0c-0.8,0-1.5,0.4-1.9,1c0,0-3.1,5.2-3.7,6.2
		c0.9,0.5,4.2,2.2,5.1,2.7C11.6,10.1,14.7,5.6,15,5.1z"/>
	<path fill="#FFFFFF" d="M21,30v-2.7L20.8,27h3.6c0.3,0,0.6-0.5,0.9-0.6c0.3-0.2,0.5-0.4,0.7-0.6c0,0,1.6-2.5,2.9-4.7
		c-0.3,0.1-0.6,0-1,0h-7.1l0.2-0.8V17l-4,7L21,30z"/>
	<path fill="#FFFFFF" d="M24.9,20c0.6,0,2.9,0,2.9,0c0.4,0,0.8-0.4,1.1-0.6c0.3-0.2,0.6-0.4,0.8-0.8c0.4-0.7,0.4-1.5,0-2.1
		c0,0-3.1-5.5-3.7-6.4c-0.9,0.5-4.1,2.6-5,3.1C21.5,14.1,24.6,19.4,24.9,20z"/>
</g>
</svg>
