<?xml version="1.0" encoding="utf-8"?>
<!-- Generator: Adobe Illustrator 18.1.1, SVG Export Plug-In . SVG Version: 6.00 Build 0)  -->
<svg version="1.1" id="Icons" xmlns="http://www.w3.org/2000/svg" xmlns:xlink="http://www.w3.org/1999/xlink" x="0px" y="0px"
	 viewBox="0 0 24 24" enable-background="new 0 0 24 24" xml:space="preserve">
<g opacity="0.5">
	<rect x="13" y="4" width="2" height="18"/>
	<polygon points="23,9 23,8 22,8 21,8 20,8 19,8 18,8 18,9 17,9 17,10 17,15 18,15 18,10 19,10 19,22 20,22 20,16 21,16 21,22 
		22,22 22,10 23,10 23,15 24,15 24,10 24,9 	"/>
	<polygon points="10,9 8,8 5,8 3,9 3,10 2,14 3,14 4,10 5,10 5,11 3,17 5,17 5,22 6,22 6,17 7,17 7,22 8,22 8,17 10,17 8,11 8,10 
		9,10 10,14 11,14 10,10 	"/>
	<circle cx="6.5" cy="5.5" r="1.5"/>
	<circle cx="20.5" cy="5.5" r="1.5"/>
</g>
<g opacity="0.75">
	<rect x="12" y="3" width="2" height="18"/>
	<polygon points="22,8 22,7 21,7 20,7 19,7 18,7 17,7 17,8 16,8 16,9 16,14 17,14 17,9 18,9 18,21 19,21 19,15 20,15 20,21 21,21 
		21,9 22,9 22,14 23,14 23,9 23,8 	"/>
	<polygon points="9,8 7,7 4,7 2,8 2,9 1,13 2,13 3,9 4,9 4,10 2,16 4,16 4,21 5,21 5,16 6,16 6,21 7,21 7,16 9,16 7,10 7,9 8,9 
		9,13 10,13 9,9 	"/>
	<circle cx="5.5" cy="4.5" r="1.5"/>
	<circle cx="19.5" cy="4.5" r="1.5"/>
</g>
<g>
	<rect x="11" y="2" fill="#E6E6E6" width="2" height="18"/>
	<polygon fill="#E6E6E6" points="21,7 21,6 20,6 19,6 18,6 17,6 16,6 16,7 15,7 15,8 15,13 16,13 16,8 17,8 17,20 18,20 18,14 
		19,14 19,20 20,20 20,8 21,8 21,13 22,13 22,8 22,7 	"/>
	<polygon fill="#E6E6E6" points="8,7 6,6 3,6 1,7 1,8 0,12 1,12 2,8 3,8 3,9 1,15 3,15 3,20 4,20 4,15 5,15 5,20 6,20 6,15 8,15 
		6,9 6,8 7,8 8,12 9,12 8,8 	"/>
	<circle fill="#E6E6E6" cx="4.5" cy="3.5" r="1.5"/>
	<circle fill="#E6E6E6" cx="18.5" cy="3.5" r="1.5"/>
</g>
</svg>
