<?xml version="1.0" encoding="utf-8"?>
<!-- Generator: Adobe Illustrator 18.1.1, SVG Export Plug-In . SVG Version: 6.00 Build 0)  -->
<svg version="1.1" id="Layer_1" xmlns="http://www.w3.org/2000/svg" xmlns:xlink="http://www.w3.org/1999/xlink" x="0px" y="0px"
	 viewBox="0 0 32 32" enable-background="new 0 0 32 32" xml:space="preserve">
<g opacity="0.1">
	<path d="M2.97,12.543h2.158c1.487,0,2.459,0.636,2.459,2.171c0,1.079-0.827,1.799-1.859,1.931v0.023
		c0.672,0.084,0.816,0.444,1.08,1.008l1.427,3.238H7.323l-1.212-2.83c-0.479-1.08-0.839-1.116-1.631-1.116H3.797v3.946H2.97V12.543z
		 M3.797,16.249h0.876c0.971,0,2.087-0.372,2.087-1.535c0-1.367-0.972-1.451-2.111-1.451H3.797V16.249z"/>
</g>
<g opacity="0.1">
	<path d="M25.97,12.543h2.158c1.487,0,2.459,0.636,2.459,2.171c0,1.079-0.827,1.799-1.859,1.931v0.023
		c0.672,0.084,0.816,0.444,1.08,1.008l1.427,3.238h-0.911l-1.212-2.83c-0.479-1.08-0.839-1.116-1.631-1.116h-0.684v3.946H25.97
		V12.543z M26.797,16.249h0.876c0.971,0,2.087-0.372,2.087-1.535c0-1.367-0.972-1.451-2.111-1.451h-0.852V16.249z"/>
</g>
<polygon opacity="0.1" points="31.828,4.828 29,2 16.914,14.086 4.828,2 2,4.828 14.086,16.914 2,29 4.828,31.828 16.914,19.742 
	29,31.828 31.828,29 19.742,16.914 "/>
<g opacity="0.2">
	<path d="M1.97,11.543h2.158c1.487,0,2.459,0.636,2.459,2.171c0,1.079-0.827,1.799-1.859,1.931v0.023
		c0.672,0.084,0.816,0.444,1.08,1.008l1.427,3.238H6.323l-1.212-2.83c-0.479-1.08-0.839-1.116-1.631-1.116H2.797v3.946H1.97V11.543z
		 M2.797,15.249h0.876c0.971,0,2.087-0.372,2.087-1.535c0-1.367-0.972-1.451-2.111-1.451H2.797V15.249z"/>
</g>
<g opacity="0.2">
	<path d="M24.97,11.543h2.158c1.487,0,2.459,0.636,2.459,2.171c0,1.079-0.827,1.799-1.859,1.931v0.023
		c0.672,0.084,0.816,0.444,1.08,1.008l1.427,3.238h-0.911l-1.212-2.83c-0.479-1.08-0.839-1.116-1.631-1.116h-0.684v3.946H24.97
		V11.543z M25.797,15.249h0.876c0.971,0,2.087-0.372,2.087-1.535c0-1.367-0.972-1.451-2.111-1.451h-0.852V15.249z"/>
</g>
<polygon opacity="0.2" points="30.828,3.828 28,1 15.914,13.086 3.828,1 1,3.828 13.086,15.914 1,28 3.828,30.828 15.914,18.742 
	28,30.828 30.828,28 18.742,15.914 "/>
<g>
	<path d="M0.97,10.543h2.158c1.487,0,2.459,0.636,2.459,2.171c0,1.079-0.827,1.799-1.859,1.931v0.023
		c0.672,0.084,0.816,0.444,1.08,1.008l1.427,3.238H5.323l-1.212-2.83c-0.479-1.08-0.839-1.116-1.631-1.116H1.797v3.946H0.97V10.543z
		 M1.797,14.249h0.876c0.971,0,2.087-0.372,2.087-1.535c0-1.367-0.972-1.451-2.111-1.451H1.797V14.249z"/>
</g>
<g>
	<path d="M23.97,10.543h2.158c1.487,0,2.459,0.636,2.459,2.171c0,1.079-0.827,1.799-1.859,1.931v0.023
		c0.672,0.084,0.816,0.444,1.08,1.008l1.427,3.238h-0.911l-1.212-2.83c-0.479-1.08-0.839-1.116-1.631-1.116h-0.684v3.946H23.97
		V10.543z M24.797,14.249h0.876c0.971,0,2.087-0.372,2.087-1.535c0-1.367-0.972-1.451-2.111-1.451h-0.852V14.249z"/>
</g>
<polygon points="29.828,2.828 27,0 14.914,12.086 2.828,0 0,2.828 12.086,14.914 0,27 2.828,29.828 14.914,17.742 27,29.828 
	29.828,27 17.742,14.914 "/>
</svg>
