<?xml version="1.0" encoding="utf-8"?>
<!-- Generator: Adobe Illustrator 18.1.1, SVG Export Plug-In . SVG Version: 6.00 Build 0)  -->
<svg version="1.1" id="Icons" xmlns="http://www.w3.org/2000/svg" xmlns:xlink="http://www.w3.org/1999/xlink" x="0px" y="0px"
	 viewBox="0 0 32 32" enable-background="new 0 0 32 32" xml:space="preserve">
<g opacity="0.5">
	<polygon points="22,9 19,9 19,11 23,11 23,10 22,10 	"/>
	<polygon points="13,11 6,11 6,12 5,12 5,15 14,15 14,12 13,12 	"/>
	<path d="M25,11v-1h-1V9h-1V8H3v1H2v9h17v-5h1v-1h4L25,11z M14,15H5v-3h1v-1h7v1h1V15z M23,11h-4V9h3v1h1V11z"/>
	<path d="M26,13h-5v1h-1v5H2v4h4v-1h1v-1h1v-1h3v1h1v1h1v1h10v-1h1v-1h1v-1h3v1h1v1h1v1h2v-3L26,13z M27,18h-5v-3h1l1-1l3,3V18z"/>
	<path d="M12,23.5c0,1.4-1.1,2.5-2.5,2.5S7,24.9,7,23.5S8.1,21,9.5,21S12,22.1,12,23.5z M9.5,22C8.7,22,8,22.7,8,23.5S8.7,25,9.5,25
		c0.8,0,1.5-0.7,1.5-1.5S10.3,22,9.5,22z"/>
	<path d="M29,23.5c0,1.4-1.1,2.5-2.5,2.5S24,24.9,24,23.5s1.1-2.5,2.5-2.5S29,22.1,29,23.5z M26.5,22c-0.8,0-1.5,0.7-1.5,1.5
		s0.7,1.5,1.5,1.5c0.8,0,1.5-0.7,1.5-1.5S27.3,22,26.5,22z"/>
</g>
<g opacity="0.75">
	<polygon points="21,8 18,8 18,10 22,10 22,9 21,9 	"/>
	<polygon points="12,10 5,10 5,11 4,11 4,14 13,14 13,11 12,11 	"/>
	<path d="M24,10V9h-1V8h-1V7H2v1H1v9h17v-5h1v-1h4L24,10z M13,14H4v-3h1v-1h7v1h1V14z M22,10h-4V8h3v1h1V10z"/>
	<path d="M25,12h-5v1h-1v5H1v4h4v-1h1v-1h1v-1h3v1h1v1h1v1h10v-1h1v-1h1v-1h3v1h1v1h1v1h2v-3L25,12z M26,17h-5v-3h1l1-1l3,3V17z"/>
	<path d="M11,22.5c0,1.4-1.1,2.5-2.5,2.5S6,23.9,6,22.5S7.1,20,8.5,20S11,21.1,11,22.5z M8.5,21C7.7,21,7,21.7,7,22.5S7.7,24,8.5,24
		c0.8,0,1.5-0.7,1.5-1.5S9.3,21,8.5,21z"/>
	<path d="M28,22.5c0,1.4-1.1,2.5-2.5,2.5S23,23.9,23,22.5s1.1-2.5,2.5-2.5S28,21.1,28,22.5z M25.5,21c-0.8,0-1.5,0.7-1.5,1.5
		s0.7,1.5,1.5,1.5c0.8,0,1.5-0.7,1.5-1.5S26.3,21,25.5,21z"/>
</g>
<g>
	<polygon fill="#FFFFFF" points="20,7 17,7 17,9 21,9 21,8 20,8 	"/>
	<polygon fill="#FFFFFF" points="11,9 4,9 4,10 3,10 3,13 12,13 12,10 11,10 	"/>
	<path fill="#FFFFFF" d="M23,9V8h-1V7h-1V6H1v1H0v9h17v-5h1v-1h4L23,9z M12,13H3v-3h1V9h7v1h1V13z M21,9h-4V7h3v1h1V9z"/>
	<path fill="#FFFFFF" d="M24,11h-5v1h-1v5H0v4h4v-1h1v-1h1v-1h3v1h1v1h1v1h10v-1h1v-1h1v-1h3v1h1v1h1v1h2v-3L24,11z M25,16h-5v-3h1
		l1-1l3,3V16z"/>
	<path fill="#FFFFFF" d="M10,21.5c0,1.4-1.1,2.5-2.5,2.5S5,22.9,5,21.5S6.1,19,7.5,19S10,20.1,10,21.5z M7.5,20
		C6.7,20,6,20.7,6,21.5S6.7,23,7.5,23C8.3,23,9,22.3,9,21.5S8.3,20,7.5,20z"/>
	<path fill="#FFFFFF" d="M27,21.5c0,1.4-1.1,2.5-2.5,2.5S22,22.9,22,21.5s1.1-2.5,2.5-2.5S27,20.1,27,21.5z M24.5,20
		c-0.8,0-1.5,0.7-1.5,1.5s0.7,1.5,1.5,1.5c0.8,0,1.5-0.7,1.5-1.5S25.3,20,24.5,20z"/>
</g>
</svg>
