<?xml version="1.0" encoding="utf-8"?>
<!-- Generator: Adobe Illustrator 18.1.1, SVG Export Plug-In . SVG Version: 6.00 Build 0)  -->
<svg version="1.1" id="Icons" xmlns="http://www.w3.org/2000/svg" xmlns:xlink="http://www.w3.org/1999/xlink" x="0px" y="0px"
	 viewBox="0 0 16 16" enable-background="new 0 0 16 16" xml:space="preserve">
<g opacity="0.1">
	<rect x="5" y="12" width="2" height="2"/>
	<rect x="12" y="12" width="2" height="2"/>
	<path d="M2,6l1-1h9v1h-2L9,7v2H2V6z M7,8V6.6C7,6.3,6.7,6,6.4,6H3.7C3.3,6,3,6.3,3,6.7V8H7z"/>
	<path d="M10,7h3v1h1v1h1v1l1,1v2h-1v-1h-1v-1h-2v1h-1v1H8v-1H7v-1H5v1H4v1H2v-3h8V7z M11,10h2V9l-1-1h-1V10z"/>
</g>
<g opacity="0.2">
	<rect x="4" y="11" width="2" height="2"/>
	<rect x="11" y="11" width="2" height="2"/>
	<path d="M1,5l1-1h9v1H9L8,6v2H1V5z M6,7V5.6C6,5.3,5.7,5,5.4,5H2.7C2.3,5,2,5.3,2,5.7V7H6z"/>
	<path d="M9,6h3v1h1v1h1v1l1,1v2h-1v-1h-1v-1h-2v1h-1v1H7v-1H6v-1H4v1H3v1H1V9h8V6z M10,9h2V8l-1-1h-1V9z"/>
</g>
<g>
	<rect x="3" y="10" width="2" height="2"/>
	<rect x="10" y="10" width="2" height="2"/>
	<path d="M0,4l1-1h9v1H8L7,5v2H0V4z M5,6V4.6C5,4.3,4.7,4,4.4,4H1.7C1.3,4,1,4.3,1,4.7V6H5z"/>
	<path d="M8,5h3v1h1v1h1v1l1,1v2h-1v-1h-1V9h-2v1H9v1H6v-1H5V9H3v1H2v1H0V8h8V5z M9,8h2V7l-1-1H9V8z"/>
</g>
</svg>
