<?xml version="1.0" encoding="utf-8"?>
<!-- Generator: Adobe Illustrator 18.1.1, SVG Export Plug-In . SVG Version: 6.00 Build 0)  -->
<svg version="1.1" id="Icons" xmlns="http://www.w3.org/2000/svg" xmlns:xlink="http://www.w3.org/1999/xlink" x="0px" y="0px"
	 viewBox="0 0 32 32" enable-background="new 0 0 32 32" xml:space="preserve">
<g opacity="0.1">
	<path d="M21,6c0,0,10,5.6,10,12c0,3,0,3,0,3H21V6z"/>
	<polygon points="20,2 20,21 4,21 	"/>
	<path d="M10,27l3-1h1l3,1h1l3-1h1l3,1h1l2.4-0.8C29.2,24.8,30,22,30,22H8v4.7L9,27H10z"/>
	<polygon points="30,28 29,28 26,29 25,29 22,28 21,28 18,29 17,29 14,28 13,28 10,29 9,29 6,28 5,28 3,28.7 3,31.7 5,31 6,31 9,32 
		10,32 13,31 14,31 17,32 18,32 21,31 22,31 25,32 26,32 29,31 30,31 31,31.3 31,28.3 	"/>
</g>
<g opacity="0.2">
	<path d="M20,5c0,0,10,5.6,10,12c0,3,0,3,0,3H20V5z"/>
	<polygon points="19,1 19,20 3,20 	"/>
	<path d="M9,26l3-1h1l3,1h1l3-1h1l3,1h1l2.4-0.8C28.2,23.8,29,21,29,21H7v4.7L8,26H9z"/>
	<polygon points="29,27 28,27 25,28 24,28 21,27 20,27 17,28 16,28 13,27 12,27 9,28 8,28 5,27 4,27 2,27.7 2,30.7 4,30 5,30 8,31 
		9,31 12,30 13,30 16,31 17,31 20,30 21,30 24,31 25,31 28,30 29,30 30,30.3 30,27.3 	"/>
</g>
<g>
	<path d="M19,4c0,0,10,5.6,10,12c0,3,0,3,0,3H19V4z"/>
	<polygon points="18,0 18,19 2,19 	"/>
	<path d="M8,25l3-1h1l3,1h1l3-1h1l3,1h1l2.4-0.8C27.2,22.8,28,20,28,20H6v4.7L7,25H8z"/>
	<polygon points="28,26 27,26 24,27 23,27 20,26 19,26 16,27 15,27 12,26 11,26 8,27 7,27 4,26 3,26 1,26.7 1,29.7 3,29 4,29 7,30 
		8,30 11,29 12,29 15,30 16,30 19,29 20,29 23,30 24,30 27,29 28,29 29,29.3 29,26.3 	"/>
</g>
</svg>
