<?xml version="1.0" encoding="utf-8"?>
<!-- Generator: Adobe Illustrator 18.1.1, SVG Export Plug-In . SVG Version: 6.00 Build 0)  -->
<svg version="1.1" id="Icons" xmlns="http://www.w3.org/2000/svg" xmlns:xlink="http://www.w3.org/1999/xlink" x="0px" y="0px"
	 viewBox="0 0 32 32" enable-background="new 0 0 32 32" xml:space="preserve">
<g opacity="0.5">
	<path d="M20,6c0,0,10,5.6,10,12c0,3,0,3,0,3H20V6z"/>
	<polygon points="19,2 19,21 3,21 	"/>
	<path d="M9,27l3-1h1l3,1h1l3-1h1l3,1h1l2.4-0.8C28.2,24.8,29,22,29,22H7v4.7L8,27H9z"/>
	<polygon points="29,28 28,28 25,29 24,29 21,28 20,28 17,29 16,29 13,28 12,28 9,29 8,29 5,28 4,28 2,28.7 2,31.7 4,31 5,31 8,32 
		9,32 12,31 13,31 16,32 17,32 20,31 21,31 24,32 25,32 28,31 29,31 30,31.3 30,28.3 	"/>
</g>
<g opacity="0.75">
	<path d="M19,5c0,0,10,5.6,10,12c0,3,0,3,0,3H19V5z"/>
	<polygon points="18,1 18,20 2,20 	"/>
	<path d="M8,26l3-1h1l3,1h1l3-1h1l3,1h1l2.4-0.8C27.2,23.8,28,21,28,21H6v4.7L7,26H8z"/>
	<polygon points="28,27 27,27 24,28 23,28 20,27 19,27 16,28 15,28 12,27 11,27 8,28 7,28 4,27 3,27 1,27.7 1,30.7 3,30 4,30 7,31 
		8,31 11,30 12,30 15,31 16,31 19,30 20,30 23,31 24,31 27,30 28,30 29,30.3 29,27.3 	"/>
</g>
<g>
	<path fill="#FFFFFF" d="M18,4c0,0,10,5.6,10,12c0,3,0,3,0,3H18V4z"/>
	<polygon fill="#FFFFFF" points="17,0 17,19 1,19 	"/>
	<path fill="#FFFFFF" d="M7,25l3-1h1l3,1h1l3-1h1l3,1h1l2.4-0.8C26.2,22.8,27,20,27,20H5v4.7L6,25H7z"/>
	<polygon fill="#FFFFFF" points="27,26 26,26 23,27 22,27 19,26 18,26 15,27 14,27 11,26 10,26 7,27 6,27 3,26 2,26 0,26.7 0,29.7 
		2,29 3,29 6,30 7,30 10,29 11,29 14,30 15,30 18,29 19,29 22,30 23,30 26,29 27,29 28,29.3 28,26.3 	"/>
</g>
</svg>
