<?xml version="1.0" encoding="utf-8"?>
<!-- Generator: Adobe Illustrator 18.1.1, SVG Export Plug-In . SVG Version: 6.00 Build 0)  -->
<svg version="1.1" id="Icons" xmlns="http://www.w3.org/2000/svg" xmlns:xlink="http://www.w3.org/1999/xlink" x="0px" y="0px"
	 viewBox="0 0 32 32" enable-background="new 0 0 32 32" xml:space="preserve">
<g opacity="0.1">
	<path d="M29,15V5h-1V4h-1V3H8v1H7v1H6v9h1v1h1v1h6v-2h1v-1h5v1h1v2h11v-1H29z M18,8l-1,1h-7L9,8V7l1-1h7l1,1V8z M27,8l-1,1h-3l-1-1
		V7l1-1h3l1,1V8z"/>
	<path d="M16,15v-1h3v1h1v3h-1v1h-3v-1h-1v-3H16z M17,17h1v-1h-1V17z"/>
	<polygon points="12,20 31,20 32,21 32,29 31,30 3,30 2,29 2,21 3,20 9,20 9,21 4,21 3,22 3,28 4,29 17,29 18,28 18,22 17,21 12,21 
			"/>
	<polygon points="10,19 11,19 11,25 13,25 10.5,28 8,25 10,25 	"/>
</g>
<g opacity="0.2">
	<path d="M28,14V4h-1V3h-1V2H7v1H6v1H5v9h1v1h1v1h6v-2h1v-1h5v1h1v2h11v-1H28z M17,7l-1,1H9L8,7V6l1-1h7l1,1V7z M26,7l-1,1h-3l-1-1
		V6l1-1h3l1,1V7z"/>
	<path d="M15,14v-1h3v1h1v3h-1v1h-3v-1h-1v-3H15z M16,16h1v-1h-1V16z"/>
	<polygon points="11,19 30,19 31,20 31,28 30,29 2,29 1,28 1,20 2,19 8,19 8,20 3,20 2,21 2,27 3,28 16,28 17,27 17,21 16,20 11,20 
			"/>
	<polygon points="9,18 10,18 10,24 12,24 9.5,27 7,24 9,24 	"/>
</g>
<g>
	<path d="M27,13V3h-1V2h-1V1H6v1H5v1H4v9h1v1h1v1h6v-2h1v-1h5v1h1v2h11v-1H27z M16,6l-1,1H8L7,6V5l1-1h7l1,1V6z M25,6l-1,1h-3l-1-1
		V5l1-1h3l1,1V6z"/>
	<path d="M14,13v-1h3v1h1v3h-1v1h-3v-1h-1v-3H14z M15,15h1v-1h-1V15z"/>
	<polygon points="10,18 29,18 30,19 30,27 29,28 1,28 0,27 0,19 1,18 7,18 7,19 2,19 1,20 1,26 2,27 15,27 16,26 16,20 15,19 10,19 
			"/>
	<polygon points="8,17 9,17 9,23 11,23 8.5,26 6,23 8,23 	"/>
</g>
</svg>
