<?xml version="1.0" encoding="utf-8"?>
<!-- Generator: Adobe Illustrator 18.1.1, SVG Export Plug-In . SVG Version: 6.00 Build 0)  -->
<svg version="1.1" id="Icons" xmlns="http://www.w3.org/2000/svg" xmlns:xlink="http://www.w3.org/1999/xlink" x="0px" y="0px"
	 viewBox="0 0 16 16" enable-background="new 0 0 16 16" xml:space="preserve">
<g opacity="0.1">
	<path d="M15,9V5l-1-1H5L4,5v4l1,1h3V9h1V8h1v1h1v1h5V9H15z M9,6H6V5h3V6z M13,6h-2V5h2V6z"/>
	<polygon points="8,11 16,11 16,16 2,16 2,11 5,11 5,12 3,12 3,15 10,15 10,12 8,12 	"/>
	<rect x="9" y="9" width="1" height="1"/>
	<rect x="6" y="11" width="1" height="3.5"/>
	<rect x="5.5" y="13" width="2" height="1"/>
</g>
<g opacity="0.2">
	<path d="M14,8V4l-1-1H4L3,4v4l1,1h3V8h1V7h1v1h1v1h5V8H14z M8,5H5V4h3V5z M12,5h-2V4h2V5z"/>
	<polygon points="7,10 15,10 15,15 1,15 1,10 4,10 4,11 2,11 2,14 9,14 9,11 7,11 	"/>
	<rect x="8" y="8" width="1" height="1"/>
	<rect x="5" y="10" width="1" height="3.5"/>
	<rect x="4.5" y="12" width="2" height="1"/>
</g>
<g>
	<path d="M13,7V3l-1-1H3L2,3v4l1,1h3V7h1V6h1v1h1v1h5V7H13z M7,4H4V3h3V4z M11,4H9V3h2V4z"/>
	<polygon points="6,9 14,9 14,14 0,14 0,9 3,9 3,10 1,10 1,13 8,13 8,10 6,10 	"/>
	<rect x="7" y="7" width="1" height="1"/>
	<rect x="4" y="9" width="1" height="3.5"/>
	<rect x="3.5" y="11" width="2" height="1"/>
</g>
</svg>
