<?xml version="1.0" encoding="utf-8"?>
<!-- Generator: Adobe Illustrator 18.1.1, SVG Export Plug-In . SVG Version: 6.00 Build 0)  -->
<svg version="1.1" id="Icons" xmlns="http://www.w3.org/2000/svg" xmlns:xlink="http://www.w3.org/1999/xlink" x="0px" y="0px"
	 viewBox="0 0 16 16" enable-background="new 0 0 16 16" xml:space="preserve">
<g opacity="0.1">
	<polygon points="15,13.7 15,13 14.5,13 14,12.3 14,11 13,11 12,10.5 12,10 11,10 10,9.5 10,9 9,9 9,8 8.2,8 8,7.8 8,7 7.3,7 7,6.6 
		7,6 6.5,6 4,3 2,3 2,4 3,4 5,6.4 5,7 5.5,7 6,7.6 6,8 6.3,8 7,8.8 7,9 7.2,9 8,10 9,10.5 9,11 10,11 11,11.5 11,12 12,12 14,14 
		14,15 15,15 16,15 16,14 15.2,14 	"/>
	<rect x="14" y="9" width="2" height="2"/>
	<polygon points="10,8 10.5,8 11,8.3 11,9 13,9 13,8 12,7.3 12,7 11.5,7 11,6.7 11,6 9,6 9,7 10,7.7 	"/>
</g>
<g opacity="0.2">
	<polygon points="14,12.7 14,12 13.5,12 13,11.3 13,10 12,10 11,9.5 11,9 10,9 9,8.5 9,8 8,8 8,7 7.2,7 7,6.8 7,6 6.3,6 6,5.6 6,5 
		5.5,5 3,2 1,2 1,3 2,3 4,5.4 4,6 4.5,6 5,6.6 5,7 5.3,7 6,7.8 6,8 6.2,8 7,9 8,9.5 8,10 9,10 10,10.5 10,11 11,11 13,13 13,14 
		14,14 15,14 15,13 14.2,13 	"/>
	<rect x="13" y="8" width="2" height="2"/>
	<polygon points="9,7 9.5,7 10,7.3 10,8 12,8 12,7 11,6.3 11,6 10.5,6 10,5.7 10,5 8,5 8,6 9,6.7 	"/>
</g>
<g>
	<polygon points="13,11.7 13,11 12.5,11 12,10.3 12,9 11,9 10,8.5 10,8 9,8 8,7.5 8,7 7,7 7,6 6.2,6 6,5.8 6,5 5.3,5 5,4.6 5,4 
		4.5,4 2,1 0,1 0,2 1,2 3,4.4 3,5 3.5,5 4,5.6 4,6 4.3,6 5,6.8 5,7 5.2,7 6,8 7,8.5 7,9 8,9 9,9.5 9,10 10,10 12,12 12,13 13,13 
		14,13 14,12 13.2,12 	"/>
	<rect x="12" y="7" width="2" height="2"/>
	<polygon points="8,6 8.5,6 9,6.3 9,7 11,7 11,6 10,5.3 10,5 9.5,5 9,4.7 9,4 7,4 7,5 8,5.7 	"/>
</g>
</svg>
