<?xml version="1.0" encoding="utf-8"?>
<!-- Generator: Adobe Illustrator 18.1.1, SVG Export Plug-In . SVG Version: 6.00 Build 0)  -->
<svg version="1.1" id="Icons" xmlns="http://www.w3.org/2000/svg" xmlns:xlink="http://www.w3.org/1999/xlink" x="0px" y="0px"
	 viewBox="0 0 32 32" enable-background="new 0 0 32 32" xml:space="preserve">
<g opacity="0.1">
	<path d="M8.3,17.6c-0.1,0.5,0.3,0.9,0.7,1c0.5,0.1,0.9-0.3,1-0.7c0.1-0.5-0.2-0.9-0.7-1C8.8,16.8,8.4,17.1,8.3,17.6z"/>
	<path d="M9.1,15.6c0.1-0.4-0.2-0.9-0.7-0.9c-0.4-0.1-0.9,0.2-0.9,0.7c-0.1,0.5,0.2,0.9,0.7,0.9C8.6,16.4,9,16.1,9.1,15.6z"/>
	<circle cx="7.4" cy="13.3" r="0.8"/>
	<circle cx="6.5" cy="11.1" r="0.7"/>
	<circle cx="5.6" cy="8.9" r="0.7"/>
	<circle cx="4.6" cy="6.8" r="0.6"/>
	<path d="M11.5,14.5c0-0.5,0.4-0.8,0.9-0.8c0.5,0,0.8,0.4,0.8,0.9c0,0.5-0.4,0.8-0.9,0.8C11.8,15.4,11.5,15,11.5,14.5z"/>
	<circle cx="11" cy="12.8" r="0.8"/>
	<circle cx="9.7" cy="11" r="0.8"/>
	<circle cx="8.4" cy="9.2" r="0.7"/>
	<circle cx="7" cy="7.5" r="0.7"/>
	<circle cx="5.7" cy="5.7" r="0.6"/>
	<path d="M13.8,10.9c-0.5,0-0.9-0.3-0.9-0.8c0-0.5,0.3-0.9,0.8-0.9c0.5,0,0.9,0.3,0.9,0.8C14.6,10.4,14.3,10.8,13.8,10.9z"/>
	<path d="M12.8,8.6c0,0.4-0.3,0.8-0.8,0.8c-0.4,0-0.8-0.3-0.8-0.8c0-0.4,0.3-0.8,0.8-0.8C12.4,7.9,12.8,8.2,12.8,8.6L12.8,8.6z"/>
	<path d="M11,7.3c0,0.4-0.3,0.8-0.7,0.8c-0.4,0-0.8-0.3-0.8-0.7c0-0.4,0.3-0.8,0.7-0.8C10.6,6.6,11,6.9,11,7.3z"/>
	<circle cx="8.5" cy="6" r="0.7"/>
	<circle cx="6.7" cy="4.7" r="0.6"/>
	<circle cx="7.8" cy="3.6" r="0.6"/>
	<circle cx="10" cy="4.6" r="0.7"/>
	<circle cx="12.3" cy="5.5" r="0.7"/>
	<circle cx="14.6" cy="6.5" r="0.7"/>
	<circle cx="16.9" cy="7.4" r="0.8"/>
	<circle cx="19.2" cy="8.4" r="0.8"/>
	<circle cx="21.4" cy="9.3" r="0.9"/>
	<polygon points="3,2 8,2 8,3 7,3 7,4 6,4 6,5 5,5 5,6 4,6 4,7 3,7 	"/>
	<path d="M22,19v-1h1v-1h1v-1h1v-1h1v-1h1v-1h1v-1h2l1,1v1l-8,8v10h-9v-5H9v-1H8v-2l6-5H22z M15,23v1h1v3h-1v1h2l1-1v-3l-1-1H15z"/>
	<circle cx="17.5" cy="14.5" r="3.5"/>
</g>
<g opacity="0.2">
	<path d="M7.3,16.6c-0.1,0.5,0.3,0.9,0.7,1c0.5,0.1,0.9-0.3,1-0.7c0.1-0.5-0.2-0.9-0.7-1C7.8,15.8,7.4,16.1,7.3,16.6z"/>
	<path d="M8.1,14.6c0.1-0.4-0.2-0.9-0.7-0.9c-0.4-0.1-0.9,0.2-0.9,0.7c-0.1,0.5,0.2,0.9,0.7,0.9C7.6,15.4,8,15.1,8.1,14.6z"/>
	<circle cx="6.4" cy="12.3" r="0.8"/>
	<circle cx="5.5" cy="10.1" r="0.7"/>
	<circle cx="4.6" cy="7.9" r="0.7"/>
	<circle cx="3.6" cy="5.8" r="0.6"/>
	<path d="M10.5,13.5c0-0.5,0.4-0.8,0.9-0.8c0.5,0,0.8,0.4,0.8,0.9c0,0.5-0.4,0.8-0.9,0.8C10.8,14.4,10.5,14,10.5,13.5z"/>
	<circle cx="10" cy="11.8" r="0.8"/>
	<circle cx="8.7" cy="10" r="0.8"/>
	<circle cx="7.4" cy="8.2" r="0.7"/>
	<circle cx="6" cy="6.5" r="0.7"/>
	<circle cx="4.7" cy="4.7" r="0.6"/>
	<path d="M12.8,9.9c-0.5,0-0.9-0.3-0.9-0.8c0-0.5,0.3-0.9,0.8-0.9c0.5,0,0.9,0.3,0.9,0.8C13.6,9.4,13.3,9.8,12.8,9.9z"/>
	<path d="M11.8,7.6c0,0.4-0.3,0.8-0.8,0.8c-0.4,0-0.8-0.3-0.8-0.8c0-0.4,0.3-0.8,0.8-0.8C11.4,6.9,11.8,7.2,11.8,7.6L11.8,7.6z"/>
	<path d="M10,6.3c0,0.4-0.3,0.8-0.7,0.8c-0.4,0-0.8-0.3-0.8-0.7c0-0.4,0.3-0.8,0.7-0.8C9.6,5.6,10,5.9,10,6.3z"/>
	<circle cx="7.5" cy="5" r="0.7"/>
	<circle cx="5.7" cy="3.7" r="0.6"/>
	<circle cx="6.8" cy="2.6" r="0.6"/>
	<circle cx="9" cy="3.6" r="0.7"/>
	<circle cx="11.3" cy="4.5" r="0.7"/>
	<circle cx="13.6" cy="5.5" r="0.7"/>
	<circle cx="15.9" cy="6.4" r="0.8"/>
	<circle cx="18.2" cy="7.4" r="0.8"/>
	<circle cx="20.4" cy="8.3" r="0.9"/>
	<polygon points="2,1 7,1 7,2 6,2 6,3 5,3 5,4 4,4 4,5 3,5 3,6 2,6 	"/>
	<path d="M21,18v-1h1v-1h1v-1h1v-1h1v-1h1v-1h1v-1h2l1,1v1l-8,8v10h-9v-5H8v-1H7v-2l6-5H21z M14,22v1h1v3h-1v1h2l1-1v-3l-1-1H14z"/>
	<circle cx="16.5" cy="13.5" r="3.5"/>
</g>
<g>
	<path d="M6.3,15.6c-0.1,0.5,0.3,0.9,0.7,1c0.5,0.1,0.9-0.3,1-0.7c0.1-0.5-0.2-0.9-0.7-1C6.8,14.8,6.4,15.1,6.3,15.6z"/>
	<path d="M7.1,13.6c0.1-0.4-0.2-0.9-0.7-0.9c-0.4-0.1-0.9,0.2-0.9,0.7c-0.1,0.5,0.2,0.9,0.7,0.9C6.6,14.4,7,14.1,7.1,13.6z"/>
	<circle cx="5.4" cy="11.3" r="0.8"/>
	<circle cx="4.5" cy="9.1" r="0.7"/>
	<circle cx="3.6" cy="6.9" r="0.7"/>
	<circle cx="2.6" cy="4.8" r="0.6"/>
	<path d="M9.5,12.5c0-0.5,0.4-0.8,0.9-0.8c0.5,0,0.8,0.4,0.8,0.9c0,0.5-0.4,0.8-0.9,0.8C9.8,13.4,9.5,13,9.5,12.5z"/>
	<circle cx="9" cy="10.8" r="0.8"/>
	<circle cx="7.7" cy="9" r="0.8"/>
	<circle cx="6.4" cy="7.2" r="0.7"/>
	<circle cx="5" cy="5.5" r="0.7"/>
	<circle cx="3.7" cy="3.7" r="0.6"/>
	<path d="M11.8,8.9c-0.5,0-0.9-0.3-0.9-0.8c0-0.5,0.3-0.9,0.8-0.9c0.5,0,0.9,0.3,0.9,0.8C12.6,8.4,12.3,8.8,11.8,8.9z"/>
	<path d="M10.8,6.6c0,0.4-0.3,0.8-0.8,0.8c-0.4,0-0.8-0.3-0.8-0.8c0-0.4,0.3-0.8,0.8-0.8C10.4,5.9,10.8,6.2,10.8,6.6L10.8,6.6z"/>
	<path d="M9,5.3c0,0.4-0.3,0.8-0.7,0.8c-0.4,0-0.8-0.3-0.8-0.7c0-0.4,0.3-0.8,0.7-0.8C8.6,4.6,9,4.9,9,5.3z"/>
	<circle cx="6.5" cy="4" r="0.7"/>
	<circle cx="4.7" cy="2.7" r="0.6"/>
	<circle cx="5.8" cy="1.6" r="0.6"/>
	<circle cx="8" cy="2.6" r="0.7"/>
	<circle cx="10.3" cy="3.5" r="0.7"/>
	<circle cx="12.6" cy="4.5" r="0.7"/>
	<circle cx="14.9" cy="5.4" r="0.8"/>
	<circle cx="17.2" cy="6.4" r="0.8"/>
	<circle cx="19.4" cy="7.3" r="0.9"/>
	<polygon points="1,0 6,0 6,1 5,1 5,2 4,2 4,3 3,3 3,4 2,4 2,5 1,5 	"/>
	<path d="M20,17v-1h1v-1h1v-1h1v-1h1v-1h1v-1h1v-1h2l1,1v1l-8,8v10h-9v-5H7v-1H6v-2l6-5H20z M13,21v1h1v3h-1v1h2l1-1v-3l-1-1H13z"/>
	<circle cx="15.5" cy="12.5" r="3.5"/>
</g>
</svg>
