<?xml version="1.0" encoding="utf-8"?>
<!-- Generator: Adobe Illustrator 18.1.1, SVG Export Plug-In . SVG Version: 6.00 Build 0)  -->
<svg version="1.1" id="Icons" xmlns="http://www.w3.org/2000/svg" xmlns:xlink="http://www.w3.org/1999/xlink" x="0px" y="0px"
	 viewBox="0 0 16 16" enable-background="new 0 0 16 16" xml:space="preserve">
<g opacity="0.1">
	<path d="M5,9.2c0,0.2,0.1,0.4,0.3,0.4c0.2,0,0.4-0.1,0.4-0.3c0-0.2-0.1-0.4-0.3-0.4C5.2,8.8,5,9,5,9.2z"/>
	<path d="M5.3,8.3C5.4,8.1,5.2,8,5,7.9c-0.2,0-0.4,0.1-0.4,0.3c0,0.2,0.1,0.4,0.3,0.4C5.1,8.7,5.3,8.5,5.3,8.3z"/>
	<circle cx="4.6" cy="7.4" r="0.3"/>
	<circle cx="4.2" cy="6.4" r="0.3"/>
	<circle cx="3.8" cy="5.5" r="0.3"/>
	<circle cx="3.4" cy="4.5" r="0.3"/>
	<path d="M6.4,7.8c0-0.2,0.2-0.4,0.4-0.3c0.2,0,0.4,0.2,0.3,0.4c0,0.2-0.2,0.4-0.4,0.3C6.5,8.2,6.4,8.1,6.4,7.8z"/>
	<circle cx="6.2" cy="7.1" r="0.3"/>
	<circle cx="5.6" cy="6.4" r="0.3"/>
	<circle cx="5" cy="5.6" r="0.3"/>
	<circle cx="4.4" cy="4.8" r="0.3"/>
	<circle cx="3.9" cy="4.1" r="0.3"/>
	<path d="M7.4,6.3C7.2,6.3,7,6.2,7,6c0-0.2,0.1-0.4,0.3-0.4c0.2,0,0.4,0.1,0.4,0.3C7.7,6.1,7.6,6.3,7.4,6.3z"/>
	<path d="M6.9,5.3c0,0.2-0.1,0.3-0.3,0.4c-0.2,0-0.4-0.1-0.4-0.3C6.2,5.2,6.4,5,6.6,5C6.8,5,6.9,5.2,6.9,5.3z"/>
	<path d="M6.1,4.8c0,0.2-0.1,0.3-0.3,0.3C5.7,5.1,5.5,5,5.5,4.8c0-0.2,0.1-0.3,0.3-0.3C6,4.5,6.1,4.6,6.1,4.8z"/>
	<circle cx="5.1" cy="4.2" r="0.3"/>
	<circle cx="4.3" cy="3.6" r="0.3"/>
	<circle cx="4.8" cy="3.2" r="0.3"/>
	<circle cx="5.7" cy="3.6" r="0.3"/>
	<circle cx="6.7" cy="4" r="0.3"/>
	<circle cx="7.7" cy="4.4" r="0.3"/>
	<circle cx="8.7" cy="4.8" r="0.3"/>
	<circle cx="9.6" cy="5.2" r="0.4"/>
	<polygon points="2,2 5,2 5,3 4,3 4,4 3,4 3,5 2,5 	"/>
	<path d="M12,10V9h1V8h1V7h2v1h-1v1h-1v1h-1v6H9v-3H6l3-3H12z M10,12h1v1h-1v1h2v-3h-2V12z"/>
	<circle cx="10.5" cy="7.5" r="1.5"/>
</g>
<g opacity="0.2">
	<path d="M4,8.2c0,0.2,0.1,0.4,0.3,0.4c0.2,0,0.4-0.1,0.4-0.3c0-0.2-0.1-0.4-0.3-0.4C4.2,7.8,4,8,4,8.2z"/>
	<path d="M4.3,7.3C4.4,7.1,4.2,7,4,6.9c-0.2,0-0.4,0.1-0.4,0.3c0,0.2,0.1,0.4,0.3,0.4C4.1,7.7,4.3,7.5,4.3,7.3z"/>
	<circle cx="3.6" cy="6.4" r="0.3"/>
	<circle cx="3.2" cy="5.4" r="0.3"/>
	<circle cx="2.8" cy="4.5" r="0.3"/>
	<circle cx="2.4" cy="3.5" r="0.3"/>
	<path d="M5.4,6.8c0-0.2,0.2-0.4,0.4-0.3c0.2,0,0.4,0.2,0.3,0.4c0,0.2-0.2,0.4-0.4,0.3C5.5,7.2,5.4,7.1,5.4,6.8z"/>
	<circle cx="5.2" cy="6.1" r="0.3"/>
	<circle cx="4.6" cy="5.4" r="0.3"/>
	<circle cx="4" cy="4.6" r="0.3"/>
	<circle cx="3.4" cy="3.8" r="0.3"/>
	<circle cx="2.9" cy="3.1" r="0.3"/>
	<path d="M6.4,5.3C6.2,5.3,6,5.2,6,5c0-0.2,0.1-0.4,0.3-0.4c0.2,0,0.4,0.1,0.4,0.3C6.7,5.1,6.6,5.3,6.4,5.3z"/>
	<path d="M5.9,4.3c0,0.2-0.1,0.3-0.3,0.4c-0.2,0-0.4-0.1-0.4-0.3C5.2,4.2,5.4,4,5.6,4C5.8,4,5.9,4.2,5.9,4.3z"/>
	<path d="M5.1,3.8c0,0.2-0.1,0.3-0.3,0.3C4.7,4.1,4.5,4,4.5,3.8c0-0.2,0.1-0.3,0.3-0.3C5,3.5,5.1,3.6,5.1,3.8z"/>
	<circle cx="4.1" cy="3.2" r="0.3"/>
	<circle cx="3.3" cy="2.6" r="0.3"/>
	<circle cx="3.8" cy="2.2" r="0.3"/>
	<circle cx="4.7" cy="2.6" r="0.3"/>
	<circle cx="5.7" cy="3" r="0.3"/>
	<circle cx="6.7" cy="3.4" r="0.3"/>
	<circle cx="7.7" cy="3.8" r="0.3"/>
	<circle cx="8.6" cy="4.2" r="0.4"/>
	<polygon points="1,1 4,1 4,2 3,2 3,3 2,3 2,4 1,4 	"/>
	<path d="M11,9V8h1V7h1V6h2v1h-1v1h-1v1h-1v6H8v-3H5l3-3H11z M9,11h1v1H9v1h2v-3H9V11z"/>
	<circle cx="9.5" cy="6.5" r="1.5"/>
</g>
<g>
	<path d="M3,7.2c0,0.2,0.1,0.4,0.3,0.4c0.2,0,0.4-0.1,0.4-0.3c0-0.2-0.1-0.4-0.3-0.4C3.2,6.8,3,7,3,7.2z"/>
	<path d="M3.3,6.3C3.4,6.1,3.2,6,3,5.9c-0.2,0-0.4,0.1-0.4,0.3c0,0.2,0.1,0.4,0.3,0.4C3.1,6.7,3.3,6.5,3.3,6.3z"/>
	<circle cx="2.6" cy="5.4" r="0.3"/>
	<circle cx="2.2" cy="4.4" r="0.3"/>
	<circle cx="1.8" cy="3.5" r="0.3"/>
	<circle cx="1.4" cy="2.5" r="0.3"/>
	<path d="M4.4,5.8c0-0.2,0.2-0.4,0.4-0.3c0.2,0,0.4,0.2,0.3,0.4c0,0.2-0.2,0.4-0.4,0.3C4.5,6.2,4.4,6.1,4.4,5.8z"/>
	<circle cx="4.2" cy="5.1" r="0.3"/>
	<circle cx="3.6" cy="4.4" r="0.3"/>
	<circle cx="3" cy="3.6" r="0.3"/>
	<circle cx="2.4" cy="2.8" r="0.3"/>
	<circle cx="1.9" cy="2.1" r="0.3"/>
	<path d="M5.4,4.3C5.2,4.3,5,4.2,5,4c0-0.2,0.1-0.4,0.3-0.4c0.2,0,0.4,0.1,0.4,0.3C5.7,4.1,5.6,4.3,5.4,4.3z"/>
	<path d="M4.9,3.3c0,0.2-0.1,0.3-0.3,0.4c-0.2,0-0.4-0.1-0.4-0.3C4.2,3.2,4.4,3,4.6,3C4.8,3,4.9,3.2,4.9,3.3z"/>
	<path d="M4.1,2.8c0,0.2-0.1,0.3-0.3,0.3C3.7,3.1,3.5,3,3.5,2.8c0-0.2,0.1-0.3,0.3-0.3C4,2.5,4.1,2.6,4.1,2.8z"/>
	<circle cx="3.1" cy="2.2" r="0.3"/>
	<circle cx="2.3" cy="1.6" r="0.3"/>
	<circle cx="2.8" cy="1.2" r="0.3"/>
	<circle cx="3.7" cy="1.6" r="0.3"/>
	<circle cx="4.7" cy="2" r="0.3"/>
	<circle cx="5.7" cy="2.4" r="0.3"/>
	<circle cx="6.7" cy="2.8" r="0.3"/>
	<circle cx="7.6" cy="3.2" r="0.4"/>
	<polygon points="0,0 3,0 3,1 2,1 2,2 1,2 1,3 0,3 	"/>
	<path d="M10,8V7h1V6h1V5h2v1h-1v1h-1v1h-1v6H7v-3H4l3-3H10z M8,10h1v1H8v1h2V9H8V10z"/>
	<circle cx="8.5" cy="5.5" r="1.5"/>
</g>
</svg>
