<?xml version="1.0" encoding="utf-8"?>
<!-- Generator: Adobe Illustrator 18.1.1, SVG Export Plug-In . SVG Version: 6.00 Build 0)  -->
<svg version="1.1" id="Icons" xmlns="http://www.w3.org/2000/svg" xmlns:xlink="http://www.w3.org/1999/xlink" x="0px" y="0px"
	 viewBox="0 0 16 16" enable-background="new 0 0 16 16" xml:space="preserve">
<g opacity="0.5">
	<path d="M15.6,13.1l-1.8-0.7L13.5,12H13v-1l-0.6-1l0,0H12V9.7l-0.1,0L7.5,7.9C7.5,7.9,4.3,3,4,3C3.5,3,3,3.4,3,3.9
		C3,4,2.9,4.2,3,4.3L5.6,8H6v0.7l0.7,1.1L7,10v0.5L8.4,11H9v0.2l2,0.8h1v0.4l0.3,0.1h0l0.3,0.5H13v0.4l0.2,0.1l1,0.4L14.1,14h1.8
		c0.1-0.1,0.1-0.2,0.1-0.3C16,13.4,15.8,13.2,15.6,13.1z"/>
	<path d="M12.6,14.3L11.9,14H11v-0.4L9.4,13H9v-0.2L6.9,12H6v-0.4L4.4,11H4v-0.2l-1.4-0.6L2,10.6L12.5,15c0.2,0,1.1-0.2,1.5-0.4
		v-0.5C13.4,14.5,12.6,14.3,12.6,14.3z"/>
	<path d="M14.9,11h-0.8c-0.6,0-1.1-0.5-1.1-1.1V9.1C13,8.5,13.5,8,14.1,8h0.8C15.5,8,16,8.5,16,9.1v0.8C16,10.5,15.5,11,14.9,11z"/>
</g>
<g opacity="0.75">
	<path d="M14.6,12.1l-1.8-0.7L12.5,11H12v-1l-0.6-1l0,0H11V8.7l-0.1,0L6.5,6.9C6.5,6.9,3.3,2,3,2C2.5,2,2,2.4,2,2.9
		C2,3,1.9,3.2,2,3.3L4.6,7H5v0.7l0.7,1.1L6,9v0.5L7.4,10H8v0.2l2,0.8h1v0.4l0.3,0.1h0l0.3,0.5H12v0.4l0.2,0.1l1,0.4L13.1,13h1.8
		c0.1-0.1,0.1-0.2,0.1-0.3C15,12.4,14.8,12.2,14.6,12.1z"/>
	<path d="M11.6,13.3L10.9,13H10v-0.4L8.4,12H8v-0.2L5.9,11H5v-0.4L3.4,10H3V9.8L1.6,9.3L1,9.6L11.5,14c0.2,0,1.1-0.2,1.5-0.4v-0.5
		C12.4,13.5,11.6,13.3,11.6,13.3z"/>
	<path d="M13.9,10h-0.8C12.5,10,12,9.5,12,8.9V8.1C12,7.5,12.5,7,13.1,7h0.8C14.5,7,15,7.5,15,8.1v0.8C15,9.5,14.5,10,13.9,10z"/>
</g>
<g>
	<path fill="#E6E6E6" d="M13.6,11.1l-1.8-0.7L11.5,10H11V9l-0.6-1l0,0H10V7.7l-0.1,0L5.5,5.9C5.5,5.9,2.3,1,2,1C1.5,1,1,1.4,1,1.9
		C1,2,0.9,2.2,1,2.3L3.6,6H4v0.7l0.7,1.1L5,8v0.5L6.4,9H7v0.2L9,10h1v0.4l0.3,0.1h0l0.3,0.5H11v0.4l0.2,0.1l1,0.4L12.1,12h1.8
		c0.1-0.1,0.1-0.2,0.1-0.3C14,11.4,13.8,11.2,13.6,11.1z"/>
	<path fill="#E6E6E6" d="M10.6,12.3L9.9,12H9v-0.4L7.4,11H7v-0.2L4.9,10H4V9.6L2.4,9H2V8.8L0.6,8.3L0,8.6L10.5,13
		c0.2,0,1.1-0.2,1.5-0.4v-0.5C11.4,12.5,10.6,12.3,10.6,12.3z"/>
	<path fill="#E6E6E6" d="M12.9,9h-0.8C11.5,9,11,8.5,11,7.9V7.1C11,6.5,11.5,6,12.1,6h0.8C13.5,6,14,6.5,14,7.1v0.8
		C14,8.5,13.5,9,12.9,9z"/>
</g>
</svg>
