<?xml version="1.0" encoding="utf-8"?>
<!-- Generator: Adobe Illustrator 18.1.1, SVG Export Plug-In . SVG Version: 6.00 Build 0)  -->
<svg version="1.1" id="Icons" xmlns="http://www.w3.org/2000/svg" xmlns:xlink="http://www.w3.org/1999/xlink" x="0px" y="0px"
	 viewBox="0 0 24 24" enable-background="new 0 0 24 24" xml:space="preserve">
<g opacity="0.5">
	<rect x="2" y="21" width="8" height="1"/>
	<polygon points="22,21 12,21 12,22 22,22 24,20 24,19 	"/>
	<polygon points="18,20 23,16 21,13 17,13 16,10 15,10 16,13 16,14 15,15 14,15 12,14 12,13 14,13 15,12 14,11 12,11 12,9 11,9 
		10,9 10,8 9,8 9,9 8,9 8,15 6,15 5,16 3,19 4,20 	"/>
	<polygon points="12,7 13,7 13,5 12,5 12,4 10,4 10,5 9,5 9,7 10,7 10,8 12,8 	"/>
</g>
<g opacity="0.75">
	<rect x="1" y="20" width="8" height="1"/>
	<polygon points="21,20 11,20 11,21 21,21 23,19 23,18 	"/>
	<polygon points="17,19 22,15 20,12 16,12 15,9 14,9 15,12 15,13 14,14 13,14 11,13 11,12 13,12 14,11 13,10 11,10 11,8 10,8 9,8 
		9,7 8,7 8,8 7,8 7,14 5,14 4,15 2,18 3,19 	"/>
	<polygon points="11,6 12,6 12,4 11,4 11,3 9,3 9,4 8,4 8,6 9,6 9,7 11,7 	"/>
</g>
<g>
	<rect x="0" y="19" fill="#E6E6E6" width="8" height="1"/>
	<polygon fill="#E6E6E6" points="20,19 10,19 10,20 20,20 22,18 22,17 	"/>
	<polygon fill="#E6E6E6" points="16,18 21,14 19,11 15,11 14,8 13,8 14,11 14,12 13,13 12,13 10,12 10,11 12,11 13,10 12,9 10,9 
		10,7 9,7 8,7 8,6 7,6 7,7 6,7 6,13 4,13 3,14 1,17 2,18 	"/>
	<polygon fill="#E6E6E6" points="10,5 11,5 11,3 10,3 10,2 8,2 8,3 7,3 7,5 8,5 8,6 10,6 	"/>
</g>
</svg>
