<?xml version="1.0" encoding="utf-8"?>
<!-- Generator: Adobe Illustrator 18.1.1, SVG Export Plug-In . SVG Version: 6.00 Build 0)  -->
<svg version="1.1" id="Icons" xmlns="http://www.w3.org/2000/svg" xmlns:xlink="http://www.w3.org/1999/xlink" x="0px" y="0px"
	 viewBox="0 0 16 16" enable-background="new 0 0 16 16" xml:space="preserve">
<g opacity="0.1">
	<rect x="2" y="14" width="5" height="1"/>
	<polygon points="15,13 15,14 9,14 9,15 15,15 16,14 16,13 	"/>
	<polygon points="14,12 15,12 15,10 14,10 14,9 12,9 12,8 11.5,8 11,7 10,7 10,8 10.5,8 11,9 11,10 10,10 9,10 8,9 10,9 10,8 8,8 
		8,6 7.5,6 7,6 6,6 6,10 4,10 3,13 13,13 	"/>
	<rect x="6" y="3" width="2" height="2"/>
</g>
<g opacity="0.2">
	<rect x="1" y="13" width="5" height="1"/>
	<polygon points="14,12 14,13 8,13 8,14 14,14 15,13 15,12 	"/>
	<polygon points="13,11 14,11 14,9 13,9 13,8 11,8 11,7 10.5,7 10,6 9,6 9,7 9.5,7 10,8 10,9 9,9 8,9 7,8 9,8 9,7 7,7 7,5 6.5,5 
		6,5 5,5 5,9 3,9 2,12 12,12 	"/>
	<rect x="5" y="2" width="2" height="2"/>
</g>
<g>
	<rect x="0" y="12" width="5" height="1"/>
	<polygon points="13,11 13,12 7,12 7,13 13,13 14,12 14,11 	"/>
	<polygon points="12,10 13,10 13,8 12,8 12,7 10,7 10,6 9.5,6 9,5 8,5 8,6 8.5,6 9,7 9,8 8,8 7,8 6,7 8,7 8,6 6,6 6,4 5.5,4 5,4 
		4,4 4,8 2,8 1,11 11,11 	"/>
	<rect x="4" y="1" width="2" height="2"/>
</g>
</svg>
