<?xml version="1.0" encoding="utf-8"?>
<!-- Generator: Adobe Illustrator 18.1.1, SVG Export Plug-In . SVG Version: 6.00 Build 0)  -->
<svg version="1.1" id="Layer_1" xmlns="http://www.w3.org/2000/svg" xmlns:xlink="http://www.w3.org/1999/xlink" x="0px" y="0px"
	 viewBox="0 0 16 16" enable-background="new 0 0 16 16" xml:space="preserve">
<path opacity="0.1" d="M15,5.267v-1.86C15,2.63,14.777,2,14,2s-1,0.623-1,1.4v1.867c-1,0.08-2.792,0.438-3.328,0.559
	C6.256,6.594,3.749,7.662,3.309,7.905C2.592,8.3,2.068,9.108,2.858,9.701s6.252,0.864,5.907,2.098C8.42,13.033,3.481,15.654,2,16
	h9.946c0,0,3.188-2.68,3.417-3.412c0.592-1.889-0.592-2.616-2.369-2.962c-1.777-0.346-4.64-0.839-4.986-1.037
	C7.662,8.393,7.224,8.065,7.495,7.803C8.926,6.418,15,5.674,15,5.267z"/>
<path opacity="0.2" d="M14,4.267v-1.86C14,1.63,13.777,1,13,1s-1,0.623-1,1.4v1.867c-1,0.08-2.792,0.438-3.328,0.559
	C5.256,5.594,2.749,6.662,2.309,6.905C1.592,7.3,1.068,8.108,1.858,8.701s6.252,0.864,5.907,2.098C7.42,12.033,2.481,14.654,1,15
	h9.946c0,0,3.188-2.68,3.417-3.412c0.592-1.889-0.592-2.616-2.369-2.962c-1.777-0.346-4.64-0.839-4.986-1.037
	C6.662,7.393,6.224,7.065,6.495,6.803C7.926,5.418,14,4.674,14,4.267z"/>
<path d="M13,3.267v-1.86C13,0.63,12.777,0,12,0s-1,0.623-1,1.4v1.867c-1,0.08-2.792,0.438-3.328,0.559
	C4.256,4.594,1.749,5.662,1.309,5.905C0.592,6.3,0.068,7.108,0.858,7.701s6.252,0.864,5.907,2.098C6.42,11.033,1.481,13.654,0,14
	h9.946c0,0,3.188-2.68,3.417-3.412c0.592-1.889-0.592-2.616-2.369-2.962C9.217,7.281,6.354,6.787,6.008,6.59
	C5.662,6.393,5.224,6.065,5.495,5.803C6.926,4.418,13,3.674,13,3.267z"/>
</svg>
