<?xml version="1.0" encoding="utf-8"?>
<!-- Generator: Adobe Illustrator 18.1.1, SVG Export Plug-In . SVG Version: 6.00 Build 0)  -->
<svg version="1.1" id="Icons" xmlns="http://www.w3.org/2000/svg" xmlns:xlink="http://www.w3.org/1999/xlink" x="0px" y="0px"
	 viewBox="0 0 32 32" enable-background="new 0 0 32 32" xml:space="preserve">
<g opacity="0.5">
	<polygon points="8,12.5 8,14 8,29 31,29 31,32 5,32 5,13.5 	"/>
	<polygon points="3,12 3,14.5 31,4.5 31,2 	"/>
	<polygon points="26,12 26,10 24,12 20,16 11,16 10,18 10,21 11,21 11,18 12,17 12,21 11,22 11,26 12,27 13,26 13,22 14,22 17,27 
		18,27 16,21 21,21 21,25 22,27 23,25 23,19 24,17 27,17 27,16 24.5,16 25,15 27,15 27,16 28,16 28,15 29,14 	"/>
</g>
<g opacity="0.75">
	<polygon points="7,11.5 7,13 7,28 30,28 30,31 4,31 4,12.5 	"/>
	<polygon points="2,11 2,13.5 30,3.5 30,1 	"/>
	<polygon points="25,11 25,9 23,11 19,15 10,15 9,17 9,20 10,20 10,17 11,16 11,20 10,21 10,25 11,26 12,25 12,21 13,21 16,26 
		17,26 15,20 20,20 20,24 21,26 22,24 22,18 23,16 26,16 26,15 23.5,15 24,14 26,14 26,15 27,15 27,14 28,13 	"/>
</g>
<g>
	<polygon fill="#E6E6E6" points="6,10.5 6,12 6,27 29,27 29,30 3,30 3,11.5 	"/>
	<polygon fill="#E6E6E6" points="1,10 1,12.5 29,2.5 29,0 	"/>
	<polygon fill="#E6E6E6" points="24,10 24,8 22,10 18,14 9,14 8,16 8,19 9,19 9,16 10,15 10,19 9,20 9,24 10,25 11,24 11,20 12,20 
		15,25 16,25 14,19 19,19 19,23 20,25 21,23 21,17 22,15 25,15 25,14 22.5,14 23,13 25,13 25,14 26,14 26,13 27,12 	"/>
</g>
</svg>
