<?xml version="1.0" encoding="utf-8"?>
<!-- Generator: Adobe Illustrator 18.1.1, SVG Export Plug-In . SVG Version: 6.00 Build 0)  -->
<svg version="1.1" id="Icons" xmlns="http://www.w3.org/2000/svg" xmlns:xlink="http://www.w3.org/1999/xlink" x="0px" y="0px"
	 viewBox="0 0 24 24" enable-background="new 0 0 24 24" xml:space="preserve">
<g opacity="0.1">
	<polygon points="4,11 4,24 23,24 23,22 6,22 6,10 	"/>
	<polygon points="2,10 2,11.5 23,3.5 23,2 	"/>
	<polygon points="9,12 9,13 8,13 8,16 9,16 9,14 10,14 10,15 9,17 9,21 10,21 10,17 11,17 12,21 13,21 12,16 16,16 16,21 17,21 
		17,15 20,11 22,12 22,11 20,9 20,8 16,12 	"/>
</g>
<g opacity="0.2">
	<polygon points="3,10 3,23 22,23 22,21 5,21 5,9 	"/>
	<polygon points="1,9 1,10.5 22,2.5 22,1 	"/>
	<polygon points="8,11 8,12 7,12 7,15 8,15 8,13 9,13 9,14 8,16 8,20 9,20 9,16 10,16 11,20 12,20 11,15 15,15 15,20 16,20 16,14 
		19,10 21,11 21,10 19,8 19,7 15,11 	"/>
</g>
<g>
	<polygon points="2,9 2,22 21,22 21,20 4,20 4,8 	"/>
	<polygon points="0,8 0,9.5 21,1.5 21,0 	"/>
	<polygon points="7,10 7,11 6,11 6,14 7,14 7,12 8,12 8,13 7,15 7,19 8,19 8,15 9,15 10,19 11,19 10,14 14,14 14,19 15,19 15,13 
		18,9 20,10 20,9 18,7 18,6 14,10 	"/>
</g>
</svg>
