<?xml version="1.0" encoding="utf-8"?>
<!-- Generator: Adobe Illustrator 18.1.1, SVG Export Plug-In . SVG Version: 6.00 Build 0)  -->
<svg version="1.1" id="Icons" xmlns="http://www.w3.org/2000/svg" xmlns:xlink="http://www.w3.org/1999/xlink" x="0px" y="0px"
	 viewBox="0 0 16 16" enable-background="new 0 0 16 16" xml:space="preserve">
<g opacity="0.5">
	<polygon points="2,7 2,8 15,3 15,2 	"/>
	<polygon points="4,15 4,7 3,7 3,16 15,16 15,15 	"/>
	<polygon points="6,14 7,14 7,13 7,11 8,12 8,13 8,14 9,14 9,12 8,11 11,11 11,14 12,14 12,10 13,8 15,8 13,6 10,9 6,9 	"/>
</g>
<g opacity="0.75">
	<polygon points="1,6 1,7 14,2 14,1 	"/>
	<polygon points="3,14 3,6 2,6 2,15 14,15 14,14 	"/>
	<polygon points="5,13 6,13 6,12 6,10 7,11 7,12 7,13 8,13 8,11 7,10 10,10 10,13 11,13 11,9 12,7 14,7 12,5 9,8 5,8 	"/>
</g>
<g>
	<polygon fill="#FFFFFF" points="0,5 0,6 13,1 13,0 	"/>
	<polygon fill="#FFFFFF" points="2,13 2,5 1,5 1,14 13,14 13,13 	"/>
	<polygon fill="#FFFFFF" points="4,12 5,12 5,11 5,9 6,10 6,11 6,12 7,12 7,10 6,9 9,9 9,12 10,12 10,8 11,6 13,6 11,4 8,7 4,7 	"/>
</g>
</svg>
