<?xml version="1.0" encoding="utf-8"?>
<!-- Generator: Adobe Illustrator 18.1.1, SVG Export Plug-In . SVG Version: 6.00 Build 0)  -->
<svg version="1.1" id="Layer_1" xmlns="http://www.w3.org/2000/svg" xmlns:xlink="http://www.w3.org/1999/xlink" x="0px" y="0px"
	 viewBox="0 0 32 32" enable-background="new 0 0 32 32" xml:space="preserve">
<g opacity="0.5">
	<circle cx="17" cy="4" r="2"/>
	<path d="M22,24v-2h-2v-8.279c0.594-0.348,1-0.986,1-1.721V8c0-1.1-0.9-2-2-2h-4c-1.1,0-2,0.9-2,2v4c0,0.735,0.406,1.373,1,1.721V22
		h-2v2h1v6h-2v2h12v-2h-2v-6H22z"/>
</g>
<g opacity="0.75">
	<circle cx="16" cy="3" r="2"/>
	<path d="M21,23v-2h-2v-8.279c0.594-0.348,1-0.986,1-1.721V7c0-1.1-0.9-2-2-2h-4c-1.1,0-2,0.9-2,2v4c0,0.735,0.406,1.373,1,1.721V21
		h-2v2h1v6h-2v2h12v-2h-2v-6H21z"/>
</g>
<g>
	<circle fill="#FFFFFF" cx="15" cy="2" r="2"/>
	<path fill="#FFFFFF" d="M20,22v-2h-2v-8.279c0.594-0.348,1-0.986,1-1.721V6c0-1.1-0.9-2-2-2h-4c-1.1,0-2,0.9-2,2v4
		c0,0.735,0.406,1.373,1,1.721V20h-2v2h1v6H9v2h12v-2h-2v-6H20z"/>
</g>
</svg>
