<?xml version="1.0" encoding="utf-8"?>
<!-- Generator: Adobe Illustrator 18.1.1, SVG Export Plug-In . SVG Version: 6.00 Build 0)  -->
<svg version="1.1" id="Layer_1" xmlns="http://www.w3.org/2000/svg" xmlns:xlink="http://www.w3.org/1999/xlink" x="0px" y="0px"
	 viewBox="0 0 24 24" enable-background="new 0 0 24 24" xml:space="preserve">
<g opacity="0.1">
	<polygon points="16,23 16,18 17,18 17,17 15,17 15,12 16,12 16,7 15,7 15,6 11,6 11,7 10,7 10,12 11,12 11,17 9,17 9,18 10,18 
		10,23 8,23 8,24 18,24 18,23 	"/>
	<circle cx="13" cy="4" r="2"/>
</g>
<g opacity="0.2">
	<polygon points="15,22 15,17 16,17 16,16 14,16 14,11 15,11 15,6 14,6 14,5 10,5 10,6 9,6 9,11 10,11 10,16 8,16 8,17 9,17 9,22 
		7,22 7,23 17,23 17,22 	"/>
	<circle cx="12" cy="3" r="2"/>
</g>
<g>
	<polygon points="14,21 14,16 15,16 15,15 13,15 13,10 14,10 14,5 13,5 13,4 9,4 9,5 8,5 8,10 9,10 9,15 7,15 7,16 8,16 8,21 6,21 
		6,22 16,22 16,21 	"/>
	<circle cx="11" cy="2" r="2"/>
</g>
</svg>
