<?xml version="1.0" encoding="utf-8"?>
<!-- Generator: Adobe Illustrator 18.1.1, SVG Export Plug-In . SVG Version: 6.00 Build 0)  -->
<svg version="1.1" id="Icons" xmlns="http://www.w3.org/2000/svg" xmlns:xlink="http://www.w3.org/1999/xlink" x="0px" y="0px"
	 viewBox="0 0 16 16" enable-background="new 0 0 16 16" xml:space="preserve">
<g opacity="0.5">
	<path d="M16,12.5L15,13h-1l-2-1h-1l-2,1H8l-2-1H5l-2,1H2v1h1l2-1h1l2,1h1l2-1h1l2,1h1l1-0.5c0-0.2,0-0.3,0-0.5S16,12.7,16,12.5z"/>
	<polygon points="3,11 12,11 10,7 10,6 13,5 14,4 13,3 7,5 8,8 	"/>
	<circle cx="13.5" cy="7.5" r="1.5"/>
</g>
<g opacity="0.75">
	<path d="M15,11.5L14,12h-1l-2-1h-1l-2,1H7l-2-1H4l-2,1H1v1h1l2-1h1l2,1h1l2-1h1l2,1h1l1-0.5c0-0.2,0-0.3,0-0.5S15,11.7,15,11.5z"/>
	<polygon points="2,10 11,10 9,6 9,5 12,4 13,3 12,2 6,4 7,7 	"/>
	<circle cx="12.5" cy="6.5" r="1.5"/>
</g>
<g>
	<path fill="#E6E6E6" d="M14,10.5L13,11h-1l-2-1H9l-2,1H6l-2-1H3l-2,1H0v1h1l2-1h1l2,1h1l2-1h1l2,1h1l1-0.5c0-0.2,0-0.3,0-0.5
		S14,10.7,14,10.5z"/>
	<polygon fill="#E6E6E6" points="1,9 10,9 8,5 8,4 11,3 12,2 11,1 5,3 6,6 	"/>
	<circle fill="#E6E6E6" cx="11.5" cy="5.5" r="1.5"/>
</g>
</svg>
