<?xml version="1.0" encoding="utf-8"?>
<!-- Generator: Adobe Illustrator 18.1.1, SVG Export Plug-In . SVG Version: 6.00 Build 0)  -->
<svg version="1.1" id="Icons" xmlns="http://www.w3.org/2000/svg" xmlns:xlink="http://www.w3.org/1999/xlink" x="0px" y="0px"
	 viewBox="0 0 24 24" enable-background="new 0 0 24 24" xml:space="preserve">
<g opacity="0.5">
	<path d="M14,2c-1,0.1-4.9,1.8-5,10.7C8.9,22,13,24,14,24v-6c-0.9,0-1.1-1.1-1.3-3c-0.1-1.3-0.2-2.4,0-4c0.1-1.1,0.4-3,1.3-3V2z"/>
	<polygon points="15,2 17,2 18,3 18,7 17,8 15,8 	"/>
	<polygon points="15,18 17,18 18,19 18,23 17,24 15,24 	"/>
</g>
<g opacity="0.75">
	<path d="M13,1c-1,0.1-4.9,1.8-5,10.7C7.9,21,12,23,13,23v-6c-0.9,0-1.1-1.1-1.3-3c-0.1-1.3-0.2-2.4,0-4c0.1-1.1,0.4-3,1.3-3V1z"/>
	<polygon points="14,1 16,1 17,2 17,6 16,7 14,7 	"/>
	<polygon points="14,17 16,17 17,18 17,22 16,23 14,23 	"/>
</g>
<g>
	<path fill="#E6E6E6" d="M12,0c-1,0.1-4.9,1.8-5,10.7C6.9,20,11,22,12,22v-6c-0.9,0-1.1-1.1-1.3-3c-0.1-1.3-0.2-2.4,0-4
		c0.1-1.1,0.4-3,1.3-3V0z"/>
	<polygon fill="#E6E6E6" points="13,0 15,0 16,1 16,5 15,6 13,6 	"/>
	<polygon fill="#E6E6E6" points="13,16 15,16 16,17 16,21 15,22 13,22 	"/>
</g>
</svg>
