<?xml version="1.0" encoding="utf-8"?>
<!-- Generator: Adobe Illustrator 18.1.1, SVG Export Plug-In . SVG Version: 6.00 Build 0)  -->
<svg version="1.1" id="Icons" xmlns="http://www.w3.org/2000/svg" xmlns:xlink="http://www.w3.org/1999/xlink" x="0px" y="0px"
	 viewBox="0 0 24 24" enable-background="new 0 0 24 24" xml:space="preserve">
<g opacity="0.1">
	<path d="M9.6,5.7c0.1-0.3-0.1-0.5-0.4-0.6L7.8,4.8C7.6,4.7,7.3,4.9,7.2,5.2l-1.2,5c-0.1,0.3,0.1,0.5,0.4,0.6l1.4,0.3
		c0.3,0.1,0.5-0.1,0.6-0.4L9.6,5.7z"/>
	<path d="M7,22.5l0,0.2C7,23.5,7.5,24,8.2,24c0.6,0,1-0.4,1.2-0.9l2.1-8.7l2,8.6c0.1,0.5,0.6,0.9,1.2,0.9c0.7,0,1.2-0.5,1.2-1.2
		c0-0.1,0-0.2,0-0.3l-2.7-11.4l0.2-1l0.2,0.8c0.2,0.5,0.6,0.6,0.6,0.6l2.8,0.7l0.2,0c0.5,0,0.8-0.4,0.8-0.8c0-0.4-0.3-0.7-0.6-0.8
		l-2.4-0.6l-0.7-2.7C13.8,6.1,12,6,12,6c-0.7,0-1.3,1.2-1.3,1.2L7,22.5z"/>
	<path d="M13.9,5h-0.8C12.5,5,12,4.5,12,3.9V3.1C12,2.5,12.5,2,13.1,2h0.8C14.5,2,15,2.5,15,3.1v0.8C15,4.5,14.5,5,13.9,5z"/>
	<rect x="19.8" y="7" width="1.2" height="17"/>
</g>
<g opacity="0.2">
	<path d="M8.6,4.7c0.1-0.3-0.1-0.5-0.4-0.6L6.8,3.8C6.6,3.7,6.3,3.9,6.2,4.2L5,9.2C4.9,9.4,5.1,9.7,5.4,9.8l1.4,0.3
		c0.3,0.1,0.5-0.1,0.6-0.4L8.6,4.7z"/>
	<path d="M6,21.5l0,0.2C6,22.5,6.5,23,7.2,23c0.6,0,1-0.4,1.2-0.9l2.1-8.7l2,8.6c0.1,0.5,0.6,0.9,1.2,0.9c0.7,0,1.2-0.5,1.2-1.2
		c0-0.1,0-0.2,0-0.3l-2.7-11.4l0.2-1l0.2,0.8c0.2,0.5,0.6,0.6,0.6,0.6l2.8,0.7l0.2,0c0.5,0,0.8-0.4,0.8-0.8c0-0.4-0.3-0.7-0.6-0.8
		l-2.4-0.6l-0.7-2.7C12.8,5.1,11,5,11,5c-0.7,0-1.3,1.2-1.3,1.2L6,21.5z"/>
	<path d="M12.9,4h-0.8C11.5,4,11,3.5,11,2.9V2.1C11,1.5,11.5,1,12.1,1h0.8C13.5,1,14,1.5,14,2.1v0.8C14,3.5,13.5,4,12.9,4z"/>
	<rect x="18.8" y="6" width="1.2" height="17"/>
</g>
<g>
	<path d="M7.6,3.7c0.1-0.3-0.1-0.5-0.4-0.6L5.8,2.8C5.6,2.7,5.3,2.9,5.2,3.2L4,8.2C3.9,8.4,4.1,8.7,4.4,8.8l1.4,0.3
		C6.1,9.2,6.4,9,6.4,8.8L7.6,3.7z"/>
	<path d="M5,20.5l0,0.2C5,21.5,5.5,22,6.2,22c0.6,0,1-0.4,1.2-0.9l2.1-8.7l2,8.6c0.1,0.5,0.6,0.9,1.2,0.9c0.7,0,1.2-0.5,1.2-1.2
		c0-0.1,0-0.2,0-0.3L11.1,9.1l0.2-1l0.2,0.8c0.2,0.5,0.6,0.6,0.6,0.6l2.8,0.7l0.2,0c0.5,0,0.8-0.4,0.8-0.8c0-0.4-0.3-0.7-0.6-0.8
		l-2.4-0.6l-0.7-2.7C11.8,4.1,10,4,10,4C9.3,4,8.7,5.2,8.7,5.2L5,20.5z"/>
	<path d="M11.9,3h-0.8C10.5,3,10,2.5,10,1.9V1.1C10,0.5,10.5,0,11.1,0h0.8C12.5,0,13,0.5,13,1.1v0.8C13,2.5,12.5,3,11.9,3z"/>
	<rect x="17.8" y="5" width="1.2" height="17"/>
</g>
</svg>
